G04 #@! TF.GenerationSoftware,KiCad,Pcbnew,(5.1.9)-1*
G04 #@! TF.CreationDate,2022-07-23T11:43:12-04:00*
G04 #@! TF.ProjectId,d-register,642d7265-6769-4737-9465-722e6b696361,2.0*
G04 #@! TF.SameCoordinates,Original*
G04 #@! TF.FileFunction,Legend,Top*
G04 #@! TF.FilePolarity,Positive*
%FSLAX46Y46*%
G04 Gerber Fmt 4.6, Leading zero omitted, Abs format (unit mm)*
G04 Created by KiCad (PCBNEW (5.1.9)-1) date 2022-07-23 11:43:12*
%MOMM*%
%LPD*%
G01*
G04 APERTURE LIST*
%ADD10C,0.150000*%
%ADD11C,0.200000*%
%ADD12C,0.300000*%
%ADD13C,0.120000*%
%ADD14C,0.170000*%
%ADD15O,1.700000X1.700000*%
%ADD16R,1.700000X1.700000*%
%ADD17O,1.600000X1.600000*%
%ADD18R,1.600000X1.600000*%
G04 APERTURE END LIST*
D10*
X160600000Y-83400000D02*
X139600000Y-83400000D01*
X160600000Y-92400000D02*
X160600000Y-83400000D01*
X139600000Y-92400000D02*
X160600000Y-92400000D01*
X139600000Y-83400000D02*
X139600000Y-92400000D01*
X149061904Y-85427976D02*
X149061904Y-84177976D01*
X149657142Y-84594642D02*
X149657142Y-85427976D01*
X149657142Y-84713690D02*
X149716666Y-84654166D01*
X149835714Y-84594642D01*
X150014285Y-84594642D01*
X150133333Y-84654166D01*
X150192857Y-84773214D01*
X150192857Y-85427976D01*
X151323809Y-85427976D02*
X151323809Y-84177976D01*
X151323809Y-85368452D02*
X151204761Y-85427976D01*
X150966666Y-85427976D01*
X150847619Y-85368452D01*
X150788095Y-85308928D01*
X150728571Y-85189880D01*
X150728571Y-84832738D01*
X150788095Y-84713690D01*
X150847619Y-84654166D01*
X150966666Y-84594642D01*
X151204761Y-84594642D01*
X151323809Y-84654166D01*
X152395238Y-85368452D02*
X152276190Y-85427976D01*
X152038095Y-85427976D01*
X151919047Y-85368452D01*
X151859523Y-85249404D01*
X151859523Y-84773214D01*
X151919047Y-84654166D01*
X152038095Y-84594642D01*
X152276190Y-84594642D01*
X152395238Y-84654166D01*
X152454761Y-84773214D01*
X152454761Y-84892261D01*
X151859523Y-85011309D01*
X152871428Y-85427976D02*
X153526190Y-84594642D01*
X152871428Y-84594642D02*
X153526190Y-85427976D01*
X154895238Y-85070833D02*
X155490476Y-85070833D01*
X154776190Y-85427976D02*
X155192857Y-84177976D01*
X155609523Y-85427976D01*
X156561904Y-85427976D02*
X156561904Y-84177976D01*
X156561904Y-85368452D02*
X156442857Y-85427976D01*
X156204761Y-85427976D01*
X156085714Y-85368452D01*
X156026190Y-85308928D01*
X155966666Y-85189880D01*
X155966666Y-84832738D01*
X156026190Y-84713690D01*
X156085714Y-84654166D01*
X156204761Y-84594642D01*
X156442857Y-84594642D01*
X156561904Y-84654166D01*
X157692857Y-85427976D02*
X157692857Y-84177976D01*
X157692857Y-85368452D02*
X157573809Y-85427976D01*
X157335714Y-85427976D01*
X157216666Y-85368452D01*
X157157142Y-85308928D01*
X157097619Y-85189880D01*
X157097619Y-84832738D01*
X157157142Y-84713690D01*
X157216666Y-84654166D01*
X157335714Y-84594642D01*
X157573809Y-84594642D01*
X157692857Y-84654166D01*
X158764285Y-85368452D02*
X158645238Y-85427976D01*
X158407142Y-85427976D01*
X158288095Y-85368452D01*
X158228571Y-85249404D01*
X158228571Y-84773214D01*
X158288095Y-84654166D01*
X158407142Y-84594642D01*
X158645238Y-84594642D01*
X158764285Y-84654166D01*
X158823809Y-84773214D01*
X158823809Y-84892261D01*
X158228571Y-85011309D01*
X159359523Y-85427976D02*
X159359523Y-84594642D01*
X159359523Y-84832738D02*
X159419047Y-84713690D01*
X159478571Y-84654166D01*
X159597619Y-84594642D01*
X159716666Y-84594642D01*
X151651190Y-87452976D02*
X151651190Y-86202976D01*
X151948809Y-86202976D01*
X152127380Y-86262500D01*
X152246428Y-86381547D01*
X152305952Y-86500595D01*
X152365476Y-86738690D01*
X152365476Y-86917261D01*
X152305952Y-87155357D01*
X152246428Y-87274404D01*
X152127380Y-87393452D01*
X151948809Y-87452976D01*
X151651190Y-87452976D01*
X153853571Y-86976785D02*
X154805952Y-86976785D01*
X154329761Y-87452976D02*
X154329761Y-86500595D01*
X156234523Y-86202976D02*
X157067857Y-87452976D01*
X157067857Y-86202976D02*
X156234523Y-87452976D01*
X151710714Y-89477976D02*
X151710714Y-88227976D01*
X152008333Y-88227976D01*
X152186904Y-88287500D01*
X152305952Y-88406547D01*
X152365476Y-88525595D01*
X152425000Y-88763690D01*
X152425000Y-88942261D01*
X152365476Y-89180357D01*
X152305952Y-89299404D01*
X152186904Y-89418452D01*
X152008333Y-89477976D01*
X151710714Y-89477976D01*
X153913095Y-89001785D02*
X154865476Y-89001785D01*
X154389285Y-89477976D02*
X154389285Y-88525595D01*
X156651190Y-88882738D02*
X156651190Y-89477976D01*
X156234523Y-88227976D02*
X156651190Y-88882738D01*
X157067857Y-88227976D01*
X151651190Y-91502976D02*
X151651190Y-90252976D01*
X151948809Y-90252976D01*
X152127380Y-90312500D01*
X152246428Y-90431547D01*
X152305952Y-90550595D01*
X152365476Y-90788690D01*
X152365476Y-90967261D01*
X152305952Y-91205357D01*
X152246428Y-91324404D01*
X152127380Y-91443452D01*
X151948809Y-91502976D01*
X151651190Y-91502976D01*
X153853571Y-91026785D02*
X154805952Y-91026785D01*
X154329761Y-91502976D02*
X154329761Y-90550595D01*
X156591666Y-90252976D02*
X156710714Y-90252976D01*
X156829761Y-90312500D01*
X156889285Y-90372023D01*
X156948809Y-90491071D01*
X157008333Y-90729166D01*
X157008333Y-91026785D01*
X156948809Y-91264880D01*
X156889285Y-91383928D01*
X156829761Y-91443452D01*
X156710714Y-91502976D01*
X156591666Y-91502976D01*
X156472619Y-91443452D01*
X156413095Y-91383928D01*
X156353571Y-91264880D01*
X156294047Y-91026785D01*
X156294047Y-90729166D01*
X156353571Y-90491071D01*
X156413095Y-90372023D01*
X156472619Y-90312500D01*
X156591666Y-90252976D01*
X144677380Y-85427976D02*
X144677380Y-84177976D01*
X144975000Y-84177976D01*
X145153571Y-84237500D01*
X145272619Y-84356547D01*
X145332142Y-84475595D01*
X145391666Y-84713690D01*
X145391666Y-84892261D01*
X145332142Y-85130357D01*
X145272619Y-85249404D01*
X145153571Y-85368452D01*
X144975000Y-85427976D01*
X144677380Y-85427976D01*
X145808333Y-84177976D02*
X146641666Y-84177976D01*
X145808333Y-85427976D01*
X146641666Y-85427976D01*
X145540476Y-86202976D02*
X145659523Y-86202976D01*
X145778571Y-86262500D01*
X145838095Y-86322023D01*
X145897619Y-86441071D01*
X145957142Y-86679166D01*
X145957142Y-86976785D01*
X145897619Y-87214880D01*
X145838095Y-87333928D01*
X145778571Y-87393452D01*
X145659523Y-87452976D01*
X145540476Y-87452976D01*
X145421428Y-87393452D01*
X145361904Y-87333928D01*
X145302380Y-87214880D01*
X145242857Y-86976785D01*
X145242857Y-86679166D01*
X145302380Y-86441071D01*
X145361904Y-86322023D01*
X145421428Y-86262500D01*
X145540476Y-86202976D01*
X145540476Y-88227976D02*
X145659523Y-88227976D01*
X145778571Y-88287500D01*
X145838095Y-88347023D01*
X145897619Y-88466071D01*
X145957142Y-88704166D01*
X145957142Y-89001785D01*
X145897619Y-89239880D01*
X145838095Y-89358928D01*
X145778571Y-89418452D01*
X145659523Y-89477976D01*
X145540476Y-89477976D01*
X145421428Y-89418452D01*
X145361904Y-89358928D01*
X145302380Y-89239880D01*
X145242857Y-89001785D01*
X145242857Y-88704166D01*
X145302380Y-88466071D01*
X145361904Y-88347023D01*
X145421428Y-88287500D01*
X145540476Y-88227976D01*
X145957142Y-91502976D02*
X145242857Y-91502976D01*
X145600000Y-91502976D02*
X145600000Y-90252976D01*
X145480952Y-90431547D01*
X145361904Y-90550595D01*
X145242857Y-90610119D01*
X140436904Y-85427976D02*
X140436904Y-84177976D01*
X140734523Y-84177976D01*
X140913095Y-84237500D01*
X141032142Y-84356547D01*
X141091666Y-84475595D01*
X141151190Y-84713690D01*
X141151190Y-84892261D01*
X141091666Y-85130357D01*
X141032142Y-85249404D01*
X140913095Y-85368452D01*
X140734523Y-85427976D01*
X140436904Y-85427976D01*
X141925000Y-84832738D02*
X141925000Y-85427976D01*
X141508333Y-84177976D02*
X141925000Y-84832738D01*
X142341666Y-84177976D01*
X141240476Y-86202976D02*
X141359523Y-86202976D01*
X141478571Y-86262500D01*
X141538095Y-86322023D01*
X141597619Y-86441071D01*
X141657142Y-86679166D01*
X141657142Y-86976785D01*
X141597619Y-87214880D01*
X141538095Y-87333928D01*
X141478571Y-87393452D01*
X141359523Y-87452976D01*
X141240476Y-87452976D01*
X141121428Y-87393452D01*
X141061904Y-87333928D01*
X141002380Y-87214880D01*
X140942857Y-86976785D01*
X140942857Y-86679166D01*
X141002380Y-86441071D01*
X141061904Y-86322023D01*
X141121428Y-86262500D01*
X141240476Y-86202976D01*
X141657142Y-89477976D02*
X140942857Y-89477976D01*
X141300000Y-89477976D02*
X141300000Y-88227976D01*
X141180952Y-88406547D01*
X141061904Y-88525595D01*
X140942857Y-88585119D01*
X140972619Y-91502976D02*
X141627380Y-90669642D01*
X140972619Y-90669642D02*
X141627380Y-91502976D01*
X86900000Y-48659404D02*
X86947619Y-48564166D01*
X86947619Y-48421309D01*
X86900000Y-48278452D01*
X86804761Y-48183214D01*
X86709523Y-48135595D01*
X86519047Y-48087976D01*
X86376190Y-48087976D01*
X86185714Y-48135595D01*
X86090476Y-48183214D01*
X85995238Y-48278452D01*
X85947619Y-48421309D01*
X85947619Y-48516547D01*
X85995238Y-48659404D01*
X86042857Y-48707023D01*
X86376190Y-48707023D01*
X86376190Y-48516547D01*
X85947619Y-49135595D02*
X86947619Y-49135595D01*
X85947619Y-49707023D01*
X86947619Y-49707023D01*
X85947619Y-50183214D02*
X86947619Y-50183214D01*
X86947619Y-50421309D01*
X86900000Y-50564166D01*
X86804761Y-50659404D01*
X86709523Y-50707023D01*
X86519047Y-50754642D01*
X86376190Y-50754642D01*
X86185714Y-50707023D01*
X86090476Y-50659404D01*
X85995238Y-50564166D01*
X85947619Y-50421309D01*
X85947619Y-50183214D01*
X177950119Y-56885000D02*
X178950119Y-56885000D01*
X178759642Y-58252380D02*
X178426309Y-57776190D01*
X178188214Y-58252380D02*
X178188214Y-57252380D01*
X178569166Y-57252380D01*
X178664404Y-57300000D01*
X178712023Y-57347619D01*
X178759642Y-57442857D01*
X178759642Y-57585714D01*
X178712023Y-57680952D01*
X178664404Y-57728571D01*
X178569166Y-57776190D01*
X178188214Y-57776190D01*
X178950119Y-56885000D02*
X179902500Y-56885000D01*
X179092976Y-57252380D02*
X179759642Y-58252380D01*
X179759642Y-57252380D02*
X179092976Y-58252380D01*
X179902500Y-56885000D02*
X180902500Y-56885000D01*
X180473928Y-57728571D02*
X180616785Y-57776190D01*
X180664404Y-57823809D01*
X180712023Y-57919047D01*
X180712023Y-58061904D01*
X180664404Y-58157142D01*
X180616785Y-58204761D01*
X180521547Y-58252380D01*
X180140595Y-58252380D01*
X180140595Y-57252380D01*
X180473928Y-57252380D01*
X180569166Y-57300000D01*
X180616785Y-57347619D01*
X180664404Y-57442857D01*
X180664404Y-57538095D01*
X180616785Y-57633333D01*
X180569166Y-57680952D01*
X180473928Y-57728571D01*
X180140595Y-57728571D01*
X177950119Y-59385000D02*
X178950119Y-59385000D01*
X178759642Y-60752380D02*
X178426309Y-60276190D01*
X178188214Y-60752380D02*
X178188214Y-59752380D01*
X178569166Y-59752380D01*
X178664404Y-59800000D01*
X178712023Y-59847619D01*
X178759642Y-59942857D01*
X178759642Y-60085714D01*
X178712023Y-60180952D01*
X178664404Y-60228571D01*
X178569166Y-60276190D01*
X178188214Y-60276190D01*
X178950119Y-59385000D02*
X179902500Y-59385000D01*
X179092976Y-59752380D02*
X179759642Y-60752380D01*
X179759642Y-59752380D02*
X179092976Y-60752380D01*
X179902500Y-59385000D02*
X180902500Y-59385000D01*
X180712023Y-60657142D02*
X180664404Y-60704761D01*
X180521547Y-60752380D01*
X180426309Y-60752380D01*
X180283452Y-60704761D01*
X180188214Y-60609523D01*
X180140595Y-60514285D01*
X180092976Y-60323809D01*
X180092976Y-60180952D01*
X180140595Y-59990476D01*
X180188214Y-59895238D01*
X180283452Y-59800000D01*
X180426309Y-59752380D01*
X180521547Y-59752380D01*
X180664404Y-59800000D01*
X180712023Y-59847619D01*
X175657142Y-133292976D02*
X175704761Y-133340595D01*
X175752380Y-133483452D01*
X175752380Y-133578690D01*
X175704761Y-133721547D01*
X175609523Y-133816785D01*
X175514285Y-133864404D01*
X175323809Y-133912023D01*
X175180952Y-133912023D01*
X174990476Y-133864404D01*
X174895238Y-133816785D01*
X174800000Y-133721547D01*
X174752380Y-133578690D01*
X174752380Y-133483452D01*
X174800000Y-133340595D01*
X174847619Y-133292976D01*
X175752380Y-132388214D02*
X175752380Y-132864404D01*
X174752380Y-132864404D01*
X175752380Y-132054880D02*
X174752380Y-132054880D01*
X175752380Y-131483452D02*
X175180952Y-131912023D01*
X174752380Y-131483452D02*
X175323809Y-132054880D01*
X185428571Y-48135595D02*
X185428571Y-48897500D01*
X185047619Y-48516547D02*
X185809523Y-48516547D01*
X186047619Y-49849880D02*
X186047619Y-49373690D01*
X185571428Y-49326071D01*
X185619047Y-49373690D01*
X185666666Y-49468928D01*
X185666666Y-49707023D01*
X185619047Y-49802261D01*
X185571428Y-49849880D01*
X185476190Y-49897500D01*
X185238095Y-49897500D01*
X185142857Y-49849880D01*
X185095238Y-49802261D01*
X185047619Y-49707023D01*
X185047619Y-49468928D01*
X185095238Y-49373690D01*
X185142857Y-49326071D01*
X186047619Y-50183214D02*
X185047619Y-50516547D01*
X186047619Y-50849880D01*
X121352380Y-133959642D02*
X122352380Y-133721547D01*
X121638095Y-133531071D01*
X122352380Y-133340595D01*
X121352380Y-133102500D01*
X122352380Y-132150119D02*
X121876190Y-132483452D01*
X122352380Y-132721547D02*
X121352380Y-132721547D01*
X121352380Y-132340595D01*
X121400000Y-132245357D01*
X121447619Y-132197738D01*
X121542857Y-132150119D01*
X121685714Y-132150119D01*
X121780952Y-132197738D01*
X121828571Y-132245357D01*
X121876190Y-132340595D01*
X121876190Y-132721547D01*
X121352380Y-131531071D02*
X121352380Y-131435833D01*
X121400000Y-131340595D01*
X121447619Y-131292976D01*
X121542857Y-131245357D01*
X121733333Y-131197738D01*
X121971428Y-131197738D01*
X122161904Y-131245357D01*
X122257142Y-131292976D01*
X122304761Y-131340595D01*
X122352380Y-131435833D01*
X122352380Y-131531071D01*
X122304761Y-131626309D01*
X122257142Y-131673928D01*
X122161904Y-131721547D01*
X121971428Y-131769166D01*
X121733333Y-131769166D01*
X121542857Y-131721547D01*
X121447619Y-131673928D01*
X121400000Y-131626309D01*
X121352380Y-131531071D01*
X118852380Y-133959642D02*
X119852380Y-133721547D01*
X119138095Y-133531071D01*
X119852380Y-133340595D01*
X118852380Y-133102500D01*
X119852380Y-132150119D02*
X119376190Y-132483452D01*
X119852380Y-132721547D02*
X118852380Y-132721547D01*
X118852380Y-132340595D01*
X118900000Y-132245357D01*
X118947619Y-132197738D01*
X119042857Y-132150119D01*
X119185714Y-132150119D01*
X119280952Y-132197738D01*
X119328571Y-132245357D01*
X119376190Y-132340595D01*
X119376190Y-132721547D01*
X119852380Y-131197738D02*
X119852380Y-131769166D01*
X119852380Y-131483452D02*
X118852380Y-131483452D01*
X118995238Y-131578690D01*
X119090476Y-131673928D01*
X119138095Y-131769166D01*
X116452380Y-133959642D02*
X117452380Y-133721547D01*
X116738095Y-133531071D01*
X117452380Y-133340595D01*
X116452380Y-133102500D01*
X117452380Y-132150119D02*
X116976190Y-132483452D01*
X117452380Y-132721547D02*
X116452380Y-132721547D01*
X116452380Y-132340595D01*
X116500000Y-132245357D01*
X116547619Y-132197738D01*
X116642857Y-132150119D01*
X116785714Y-132150119D01*
X116880952Y-132197738D01*
X116928571Y-132245357D01*
X116976190Y-132340595D01*
X116976190Y-132721547D01*
X116547619Y-131769166D02*
X116500000Y-131721547D01*
X116452380Y-131626309D01*
X116452380Y-131388214D01*
X116500000Y-131292976D01*
X116547619Y-131245357D01*
X116642857Y-131197738D01*
X116738095Y-131197738D01*
X116880952Y-131245357D01*
X117452380Y-131816785D01*
X117452380Y-131197738D01*
X113852380Y-133959642D02*
X114852380Y-133721547D01*
X114138095Y-133531071D01*
X114852380Y-133340595D01*
X113852380Y-133102500D01*
X114852380Y-132150119D02*
X114376190Y-132483452D01*
X114852380Y-132721547D02*
X113852380Y-132721547D01*
X113852380Y-132340595D01*
X113900000Y-132245357D01*
X113947619Y-132197738D01*
X114042857Y-132150119D01*
X114185714Y-132150119D01*
X114280952Y-132197738D01*
X114328571Y-132245357D01*
X114376190Y-132340595D01*
X114376190Y-132721547D01*
X113852380Y-131816785D02*
X113852380Y-131197738D01*
X114233333Y-131531071D01*
X114233333Y-131388214D01*
X114280952Y-131292976D01*
X114328571Y-131245357D01*
X114423809Y-131197738D01*
X114661904Y-131197738D01*
X114757142Y-131245357D01*
X114804761Y-131292976D01*
X114852380Y-131388214D01*
X114852380Y-131673928D01*
X114804761Y-131769166D01*
X114757142Y-131816785D01*
X108747619Y-48035595D02*
X109747619Y-48035595D01*
X109747619Y-48273690D01*
X109700000Y-48416547D01*
X109604761Y-48511785D01*
X109509523Y-48559404D01*
X109319047Y-48607023D01*
X109176190Y-48607023D01*
X108985714Y-48559404D01*
X108890476Y-48511785D01*
X108795238Y-48416547D01*
X108747619Y-48273690D01*
X108747619Y-48035595D01*
X108747619Y-49559404D02*
X108747619Y-48987976D01*
X108747619Y-49273690D02*
X109747619Y-49273690D01*
X109604761Y-49178452D01*
X109509523Y-49083214D01*
X109461904Y-48987976D01*
X96047619Y-48035595D02*
X97047619Y-48035595D01*
X97047619Y-48273690D01*
X97000000Y-48416547D01*
X96904761Y-48511785D01*
X96809523Y-48559404D01*
X96619047Y-48607023D01*
X96476190Y-48607023D01*
X96285714Y-48559404D01*
X96190476Y-48511785D01*
X96095238Y-48416547D01*
X96047619Y-48273690D01*
X96047619Y-48035595D01*
X97047619Y-49464166D02*
X97047619Y-49273690D01*
X97000000Y-49178452D01*
X96952380Y-49130833D01*
X96809523Y-49035595D01*
X96619047Y-48987976D01*
X96238095Y-48987976D01*
X96142857Y-49035595D01*
X96095238Y-49083214D01*
X96047619Y-49178452D01*
X96047619Y-49368928D01*
X96095238Y-49464166D01*
X96142857Y-49511785D01*
X96238095Y-49559404D01*
X96476190Y-49559404D01*
X96571428Y-49511785D01*
X96619047Y-49464166D01*
X96666666Y-49368928D01*
X96666666Y-49178452D01*
X96619047Y-49083214D01*
X96571428Y-49035595D01*
X96476190Y-48987976D01*
X98547619Y-48035595D02*
X99547619Y-48035595D01*
X99547619Y-48273690D01*
X99500000Y-48416547D01*
X99404761Y-48511785D01*
X99309523Y-48559404D01*
X99119047Y-48607023D01*
X98976190Y-48607023D01*
X98785714Y-48559404D01*
X98690476Y-48511785D01*
X98595238Y-48416547D01*
X98547619Y-48273690D01*
X98547619Y-48035595D01*
X99547619Y-49511785D02*
X99547619Y-49035595D01*
X99071428Y-48987976D01*
X99119047Y-49035595D01*
X99166666Y-49130833D01*
X99166666Y-49368928D01*
X99119047Y-49464166D01*
X99071428Y-49511785D01*
X98976190Y-49559404D01*
X98738095Y-49559404D01*
X98642857Y-49511785D01*
X98595238Y-49464166D01*
X98547619Y-49368928D01*
X98547619Y-49130833D01*
X98595238Y-49035595D01*
X98642857Y-48987976D01*
X93447619Y-48035595D02*
X94447619Y-48035595D01*
X94447619Y-48273690D01*
X94400000Y-48416547D01*
X94304761Y-48511785D01*
X94209523Y-48559404D01*
X94019047Y-48607023D01*
X93876190Y-48607023D01*
X93685714Y-48559404D01*
X93590476Y-48511785D01*
X93495238Y-48416547D01*
X93447619Y-48273690D01*
X93447619Y-48035595D01*
X94447619Y-48940357D02*
X94447619Y-49607023D01*
X93447619Y-49178452D01*
X106147619Y-48035595D02*
X107147619Y-48035595D01*
X107147619Y-48273690D01*
X107100000Y-48416547D01*
X107004761Y-48511785D01*
X106909523Y-48559404D01*
X106719047Y-48607023D01*
X106576190Y-48607023D01*
X106385714Y-48559404D01*
X106290476Y-48511785D01*
X106195238Y-48416547D01*
X106147619Y-48273690D01*
X106147619Y-48035595D01*
X107052380Y-48987976D02*
X107100000Y-49035595D01*
X107147619Y-49130833D01*
X107147619Y-49368928D01*
X107100000Y-49464166D01*
X107052380Y-49511785D01*
X106957142Y-49559404D01*
X106861904Y-49559404D01*
X106719047Y-49511785D01*
X106147619Y-48940357D01*
X106147619Y-49559404D01*
X111247619Y-48035595D02*
X112247619Y-48035595D01*
X112247619Y-48273690D01*
X112200000Y-48416547D01*
X112104761Y-48511785D01*
X112009523Y-48559404D01*
X111819047Y-48607023D01*
X111676190Y-48607023D01*
X111485714Y-48559404D01*
X111390476Y-48511785D01*
X111295238Y-48416547D01*
X111247619Y-48273690D01*
X111247619Y-48035595D01*
X112247619Y-49226071D02*
X112247619Y-49321309D01*
X112200000Y-49416547D01*
X112152380Y-49464166D01*
X112057142Y-49511785D01*
X111866666Y-49559404D01*
X111628571Y-49559404D01*
X111438095Y-49511785D01*
X111342857Y-49464166D01*
X111295238Y-49416547D01*
X111247619Y-49321309D01*
X111247619Y-49226071D01*
X111295238Y-49130833D01*
X111342857Y-49083214D01*
X111438095Y-49035595D01*
X111628571Y-48987976D01*
X111866666Y-48987976D01*
X112057142Y-49035595D01*
X112152380Y-49083214D01*
X112200000Y-49130833D01*
X112247619Y-49226071D01*
X103647619Y-48035595D02*
X104647619Y-48035595D01*
X104647619Y-48273690D01*
X104600000Y-48416547D01*
X104504761Y-48511785D01*
X104409523Y-48559404D01*
X104219047Y-48607023D01*
X104076190Y-48607023D01*
X103885714Y-48559404D01*
X103790476Y-48511785D01*
X103695238Y-48416547D01*
X103647619Y-48273690D01*
X103647619Y-48035595D01*
X104647619Y-48940357D02*
X104647619Y-49559404D01*
X104266666Y-49226071D01*
X104266666Y-49368928D01*
X104219047Y-49464166D01*
X104171428Y-49511785D01*
X104076190Y-49559404D01*
X103838095Y-49559404D01*
X103742857Y-49511785D01*
X103695238Y-49464166D01*
X103647619Y-49368928D01*
X103647619Y-49083214D01*
X103695238Y-48987976D01*
X103742857Y-48940357D01*
X101147619Y-48035595D02*
X102147619Y-48035595D01*
X102147619Y-48273690D01*
X102100000Y-48416547D01*
X102004761Y-48511785D01*
X101909523Y-48559404D01*
X101719047Y-48607023D01*
X101576190Y-48607023D01*
X101385714Y-48559404D01*
X101290476Y-48511785D01*
X101195238Y-48416547D01*
X101147619Y-48273690D01*
X101147619Y-48035595D01*
X101814285Y-49464166D02*
X101147619Y-49464166D01*
X102195238Y-49226071D02*
X101480952Y-48987976D01*
X101480952Y-49607023D01*
X185571428Y-133864404D02*
X185571428Y-133102500D01*
X185952380Y-133483452D02*
X185190476Y-133483452D01*
X184952380Y-132150119D02*
X184952380Y-132626309D01*
X185428571Y-132673928D01*
X185380952Y-132626309D01*
X185333333Y-132531071D01*
X185333333Y-132292976D01*
X185380952Y-132197738D01*
X185428571Y-132150119D01*
X185523809Y-132102500D01*
X185761904Y-132102500D01*
X185857142Y-132150119D01*
X185904761Y-132197738D01*
X185952380Y-132292976D01*
X185952380Y-132531071D01*
X185904761Y-132626309D01*
X185857142Y-132673928D01*
X184952380Y-131816785D02*
X185952380Y-131483452D01*
X184952380Y-131150119D01*
X131647619Y-48607023D02*
X132123809Y-48273690D01*
X131647619Y-48035595D02*
X132647619Y-48035595D01*
X132647619Y-48416547D01*
X132600000Y-48511785D01*
X132552380Y-48559404D01*
X132457142Y-48607023D01*
X132314285Y-48607023D01*
X132219047Y-48559404D01*
X132171428Y-48511785D01*
X132123809Y-48416547D01*
X132123809Y-48035595D01*
X131647619Y-49607023D02*
X132123809Y-49273690D01*
X131647619Y-49035595D02*
X132647619Y-49035595D01*
X132647619Y-49416547D01*
X132600000Y-49511785D01*
X132552380Y-49559404D01*
X132457142Y-49607023D01*
X132314285Y-49607023D01*
X132219047Y-49559404D01*
X132171428Y-49511785D01*
X132123809Y-49416547D01*
X132123809Y-49035595D01*
X132647619Y-50226071D02*
X132647619Y-50321309D01*
X132600000Y-50416547D01*
X132552380Y-50464166D01*
X132457142Y-50511785D01*
X132266666Y-50559404D01*
X132028571Y-50559404D01*
X131838095Y-50511785D01*
X131742857Y-50464166D01*
X131695238Y-50416547D01*
X131647619Y-50321309D01*
X131647619Y-50226071D01*
X131695238Y-50130833D01*
X131742857Y-50083214D01*
X131838095Y-50035595D01*
X132028571Y-49987976D01*
X132266666Y-49987976D01*
X132457142Y-50035595D01*
X132552380Y-50083214D01*
X132600000Y-50130833D01*
X132647619Y-50226071D01*
X129147619Y-48607023D02*
X129623809Y-48273690D01*
X129147619Y-48035595D02*
X130147619Y-48035595D01*
X130147619Y-48416547D01*
X130100000Y-48511785D01*
X130052380Y-48559404D01*
X129957142Y-48607023D01*
X129814285Y-48607023D01*
X129719047Y-48559404D01*
X129671428Y-48511785D01*
X129623809Y-48416547D01*
X129623809Y-48035595D01*
X129147619Y-49607023D02*
X129623809Y-49273690D01*
X129147619Y-49035595D02*
X130147619Y-49035595D01*
X130147619Y-49416547D01*
X130100000Y-49511785D01*
X130052380Y-49559404D01*
X129957142Y-49607023D01*
X129814285Y-49607023D01*
X129719047Y-49559404D01*
X129671428Y-49511785D01*
X129623809Y-49416547D01*
X129623809Y-49035595D01*
X129147619Y-50559404D02*
X129147619Y-49987976D01*
X129147619Y-50273690D02*
X130147619Y-50273690D01*
X130004761Y-50178452D01*
X129909523Y-50083214D01*
X129861904Y-49987976D01*
X126547619Y-48607023D02*
X127023809Y-48273690D01*
X126547619Y-48035595D02*
X127547619Y-48035595D01*
X127547619Y-48416547D01*
X127500000Y-48511785D01*
X127452380Y-48559404D01*
X127357142Y-48607023D01*
X127214285Y-48607023D01*
X127119047Y-48559404D01*
X127071428Y-48511785D01*
X127023809Y-48416547D01*
X127023809Y-48035595D01*
X126547619Y-49607023D02*
X127023809Y-49273690D01*
X126547619Y-49035595D02*
X127547619Y-49035595D01*
X127547619Y-49416547D01*
X127500000Y-49511785D01*
X127452380Y-49559404D01*
X127357142Y-49607023D01*
X127214285Y-49607023D01*
X127119047Y-49559404D01*
X127071428Y-49511785D01*
X127023809Y-49416547D01*
X127023809Y-49035595D01*
X127452380Y-49987976D02*
X127500000Y-50035595D01*
X127547619Y-50130833D01*
X127547619Y-50368928D01*
X127500000Y-50464166D01*
X127452380Y-50511785D01*
X127357142Y-50559404D01*
X127261904Y-50559404D01*
X127119047Y-50511785D01*
X126547619Y-49940357D01*
X126547619Y-50559404D01*
X124047619Y-48607023D02*
X124523809Y-48273690D01*
X124047619Y-48035595D02*
X125047619Y-48035595D01*
X125047619Y-48416547D01*
X125000000Y-48511785D01*
X124952380Y-48559404D01*
X124857142Y-48607023D01*
X124714285Y-48607023D01*
X124619047Y-48559404D01*
X124571428Y-48511785D01*
X124523809Y-48416547D01*
X124523809Y-48035595D01*
X124047619Y-49607023D02*
X124523809Y-49273690D01*
X124047619Y-49035595D02*
X125047619Y-49035595D01*
X125047619Y-49416547D01*
X125000000Y-49511785D01*
X124952380Y-49559404D01*
X124857142Y-49607023D01*
X124714285Y-49607023D01*
X124619047Y-49559404D01*
X124571428Y-49511785D01*
X124523809Y-49416547D01*
X124523809Y-49035595D01*
X125047619Y-49940357D02*
X125047619Y-50559404D01*
X124666666Y-50226071D01*
X124666666Y-50368928D01*
X124619047Y-50464166D01*
X124571428Y-50511785D01*
X124476190Y-50559404D01*
X124238095Y-50559404D01*
X124142857Y-50511785D01*
X124095238Y-50464166D01*
X124047619Y-50368928D01*
X124047619Y-50083214D01*
X124095238Y-49987976D01*
X124142857Y-49940357D01*
X112252380Y-133864404D02*
X111252380Y-133864404D01*
X111252380Y-133626309D01*
X111300000Y-133483452D01*
X111395238Y-133388214D01*
X111490476Y-133340595D01*
X111680952Y-133292976D01*
X111823809Y-133292976D01*
X112014285Y-133340595D01*
X112109523Y-133388214D01*
X112204761Y-133483452D01*
X112252380Y-133626309D01*
X112252380Y-133864404D01*
X111252380Y-132673928D02*
X111252380Y-132578690D01*
X111300000Y-132483452D01*
X111347619Y-132435833D01*
X111442857Y-132388214D01*
X111633333Y-132340595D01*
X111871428Y-132340595D01*
X112061904Y-132388214D01*
X112157142Y-132435833D01*
X112204761Y-132483452D01*
X112252380Y-132578690D01*
X112252380Y-132673928D01*
X112204761Y-132769166D01*
X112157142Y-132816785D01*
X112061904Y-132864404D01*
X111871428Y-132912023D01*
X111633333Y-132912023D01*
X111442857Y-132864404D01*
X111347619Y-132816785D01*
X111300000Y-132769166D01*
X111252380Y-132673928D01*
X109752380Y-133864404D02*
X108752380Y-133864404D01*
X108752380Y-133626309D01*
X108800000Y-133483452D01*
X108895238Y-133388214D01*
X108990476Y-133340595D01*
X109180952Y-133292976D01*
X109323809Y-133292976D01*
X109514285Y-133340595D01*
X109609523Y-133388214D01*
X109704761Y-133483452D01*
X109752380Y-133626309D01*
X109752380Y-133864404D01*
X109752380Y-132340595D02*
X109752380Y-132912023D01*
X109752380Y-132626309D02*
X108752380Y-132626309D01*
X108895238Y-132721547D01*
X108990476Y-132816785D01*
X109038095Y-132912023D01*
X107152380Y-133864404D02*
X106152380Y-133864404D01*
X106152380Y-133626309D01*
X106200000Y-133483452D01*
X106295238Y-133388214D01*
X106390476Y-133340595D01*
X106580952Y-133292976D01*
X106723809Y-133292976D01*
X106914285Y-133340595D01*
X107009523Y-133388214D01*
X107104761Y-133483452D01*
X107152380Y-133626309D01*
X107152380Y-133864404D01*
X106247619Y-132912023D02*
X106200000Y-132864404D01*
X106152380Y-132769166D01*
X106152380Y-132531071D01*
X106200000Y-132435833D01*
X106247619Y-132388214D01*
X106342857Y-132340595D01*
X106438095Y-132340595D01*
X106580952Y-132388214D01*
X107152380Y-132959642D01*
X107152380Y-132340595D01*
X104652380Y-133864404D02*
X103652380Y-133864404D01*
X103652380Y-133626309D01*
X103700000Y-133483452D01*
X103795238Y-133388214D01*
X103890476Y-133340595D01*
X104080952Y-133292976D01*
X104223809Y-133292976D01*
X104414285Y-133340595D01*
X104509523Y-133388214D01*
X104604761Y-133483452D01*
X104652380Y-133626309D01*
X104652380Y-133864404D01*
X103652380Y-132959642D02*
X103652380Y-132340595D01*
X104033333Y-132673928D01*
X104033333Y-132531071D01*
X104080952Y-132435833D01*
X104128571Y-132388214D01*
X104223809Y-132340595D01*
X104461904Y-132340595D01*
X104557142Y-132388214D01*
X104604761Y-132435833D01*
X104652380Y-132531071D01*
X104652380Y-132816785D01*
X104604761Y-132912023D01*
X104557142Y-132959642D01*
X102152380Y-133864404D02*
X101152380Y-133864404D01*
X101152380Y-133626309D01*
X101200000Y-133483452D01*
X101295238Y-133388214D01*
X101390476Y-133340595D01*
X101580952Y-133292976D01*
X101723809Y-133292976D01*
X101914285Y-133340595D01*
X102009523Y-133388214D01*
X102104761Y-133483452D01*
X102152380Y-133626309D01*
X102152380Y-133864404D01*
X101485714Y-132435833D02*
X102152380Y-132435833D01*
X101104761Y-132673928D02*
X101819047Y-132912023D01*
X101819047Y-132292976D01*
X99552380Y-133864404D02*
X98552380Y-133864404D01*
X98552380Y-133626309D01*
X98600000Y-133483452D01*
X98695238Y-133388214D01*
X98790476Y-133340595D01*
X98980952Y-133292976D01*
X99123809Y-133292976D01*
X99314285Y-133340595D01*
X99409523Y-133388214D01*
X99504761Y-133483452D01*
X99552380Y-133626309D01*
X99552380Y-133864404D01*
X98552380Y-132388214D02*
X98552380Y-132864404D01*
X99028571Y-132912023D01*
X98980952Y-132864404D01*
X98933333Y-132769166D01*
X98933333Y-132531071D01*
X98980952Y-132435833D01*
X99028571Y-132388214D01*
X99123809Y-132340595D01*
X99361904Y-132340595D01*
X99457142Y-132388214D01*
X99504761Y-132435833D01*
X99552380Y-132531071D01*
X99552380Y-132769166D01*
X99504761Y-132864404D01*
X99457142Y-132912023D01*
X97052380Y-133864404D02*
X96052380Y-133864404D01*
X96052380Y-133626309D01*
X96100000Y-133483452D01*
X96195238Y-133388214D01*
X96290476Y-133340595D01*
X96480952Y-133292976D01*
X96623809Y-133292976D01*
X96814285Y-133340595D01*
X96909523Y-133388214D01*
X97004761Y-133483452D01*
X97052380Y-133626309D01*
X97052380Y-133864404D01*
X96052380Y-132435833D02*
X96052380Y-132626309D01*
X96100000Y-132721547D01*
X96147619Y-132769166D01*
X96290476Y-132864404D01*
X96480952Y-132912023D01*
X96861904Y-132912023D01*
X96957142Y-132864404D01*
X97004761Y-132816785D01*
X97052380Y-132721547D01*
X97052380Y-132531071D01*
X97004761Y-132435833D01*
X96957142Y-132388214D01*
X96861904Y-132340595D01*
X96623809Y-132340595D01*
X96528571Y-132388214D01*
X96480952Y-132435833D01*
X96433333Y-132531071D01*
X96433333Y-132721547D01*
X96480952Y-132816785D01*
X96528571Y-132864404D01*
X96623809Y-132912023D01*
X94452380Y-133864404D02*
X93452380Y-133864404D01*
X93452380Y-133626309D01*
X93500000Y-133483452D01*
X93595238Y-133388214D01*
X93690476Y-133340595D01*
X93880952Y-133292976D01*
X94023809Y-133292976D01*
X94214285Y-133340595D01*
X94309523Y-133388214D01*
X94404761Y-133483452D01*
X94452380Y-133626309D01*
X94452380Y-133864404D01*
X93452380Y-132959642D02*
X93452380Y-132292976D01*
X94452380Y-132721547D01*
X85900000Y-133340595D02*
X85852380Y-133435833D01*
X85852380Y-133578690D01*
X85900000Y-133721547D01*
X85995238Y-133816785D01*
X86090476Y-133864404D01*
X86280952Y-133912023D01*
X86423809Y-133912023D01*
X86614285Y-133864404D01*
X86709523Y-133816785D01*
X86804761Y-133721547D01*
X86852380Y-133578690D01*
X86852380Y-133483452D01*
X86804761Y-133340595D01*
X86757142Y-133292976D01*
X86423809Y-133292976D01*
X86423809Y-133483452D01*
X86852380Y-132864404D02*
X85852380Y-132864404D01*
X86852380Y-132292976D01*
X85852380Y-132292976D01*
X86852380Y-131816785D02*
X85852380Y-131816785D01*
X85852380Y-131578690D01*
X85900000Y-131435833D01*
X85995238Y-131340595D01*
X86090476Y-131292976D01*
X86280952Y-131245357D01*
X86423809Y-131245357D01*
X86614285Y-131292976D01*
X86709523Y-131340595D01*
X86804761Y-131435833D01*
X86852380Y-131578690D01*
X86852380Y-131816785D01*
X177807261Y-64485000D02*
X178950119Y-64485000D01*
X177950119Y-64852380D02*
X178188214Y-65852380D01*
X178378690Y-65138095D01*
X178569166Y-65852380D01*
X178807261Y-64852380D01*
X178950119Y-64485000D02*
X179902500Y-64485000D01*
X179092976Y-64852380D02*
X179759642Y-65852380D01*
X179759642Y-64852380D02*
X179092976Y-65852380D01*
X179902500Y-64485000D02*
X180902500Y-64485000D01*
X180712023Y-65757142D02*
X180664404Y-65804761D01*
X180521547Y-65852380D01*
X180426309Y-65852380D01*
X180283452Y-65804761D01*
X180188214Y-65709523D01*
X180140595Y-65614285D01*
X180092976Y-65423809D01*
X180092976Y-65280952D01*
X180140595Y-65090476D01*
X180188214Y-64995238D01*
X180283452Y-64900000D01*
X180426309Y-64852380D01*
X180521547Y-64852380D01*
X180664404Y-64900000D01*
X180712023Y-64947619D01*
X177807261Y-61985000D02*
X178950119Y-61985000D01*
X177950119Y-62352380D02*
X178188214Y-63352380D01*
X178378690Y-62638095D01*
X178569166Y-63352380D01*
X178807261Y-62352380D01*
X178950119Y-61985000D02*
X179902500Y-61985000D01*
X179092976Y-62352380D02*
X179759642Y-63352380D01*
X179759642Y-62352380D02*
X179092976Y-63352380D01*
X179902500Y-61985000D02*
X180902500Y-61985000D01*
X180473928Y-62828571D02*
X180616785Y-62876190D01*
X180664404Y-62923809D01*
X180712023Y-63019047D01*
X180712023Y-63161904D01*
X180664404Y-63257142D01*
X180616785Y-63304761D01*
X180521547Y-63352380D01*
X180140595Y-63352380D01*
X180140595Y-62352380D01*
X180473928Y-62352380D01*
X180569166Y-62400000D01*
X180616785Y-62447619D01*
X180664404Y-62542857D01*
X180664404Y-62638095D01*
X180616785Y-62733333D01*
X180569166Y-62780952D01*
X180473928Y-62828571D01*
X180140595Y-62828571D01*
X178561904Y-123952380D02*
X179228571Y-124952380D01*
X179228571Y-123952380D02*
X178561904Y-124952380D01*
X179800000Y-124476190D02*
X179800000Y-124952380D01*
X179466666Y-123952380D02*
X179800000Y-124476190D01*
X180133333Y-123952380D01*
X180371428Y-123952380D02*
X181038095Y-123952380D01*
X180609523Y-124952380D01*
X178561904Y-118852380D02*
X179228571Y-119852380D01*
X179228571Y-118852380D02*
X178561904Y-119852380D01*
X179800000Y-119376190D02*
X179800000Y-119852380D01*
X179466666Y-118852380D02*
X179800000Y-119376190D01*
X180133333Y-118852380D01*
X180942857Y-118852380D02*
X180466666Y-118852380D01*
X180419047Y-119328571D01*
X180466666Y-119280952D01*
X180561904Y-119233333D01*
X180800000Y-119233333D01*
X180895238Y-119280952D01*
X180942857Y-119328571D01*
X180990476Y-119423809D01*
X180990476Y-119661904D01*
X180942857Y-119757142D01*
X180895238Y-119804761D01*
X180800000Y-119852380D01*
X180561904Y-119852380D01*
X180466666Y-119804761D01*
X180419047Y-119757142D01*
X178561904Y-116352380D02*
X179228571Y-117352380D01*
X179228571Y-116352380D02*
X178561904Y-117352380D01*
X179800000Y-116876190D02*
X179800000Y-117352380D01*
X179466666Y-116352380D02*
X179800000Y-116876190D01*
X180133333Y-116352380D01*
X180895238Y-116685714D02*
X180895238Y-117352380D01*
X180657142Y-116304761D02*
X180419047Y-117019047D01*
X181038095Y-117019047D01*
X178561904Y-121452380D02*
X179228571Y-122452380D01*
X179228571Y-121452380D02*
X178561904Y-122452380D01*
X179800000Y-121976190D02*
X179800000Y-122452380D01*
X179466666Y-121452380D02*
X179800000Y-121976190D01*
X180133333Y-121452380D01*
X180895238Y-121452380D02*
X180704761Y-121452380D01*
X180609523Y-121500000D01*
X180561904Y-121547619D01*
X180466666Y-121690476D01*
X180419047Y-121880952D01*
X180419047Y-122261904D01*
X180466666Y-122357142D01*
X180514285Y-122404761D01*
X180609523Y-122452380D01*
X180800000Y-122452380D01*
X180895238Y-122404761D01*
X180942857Y-122357142D01*
X180990476Y-122261904D01*
X180990476Y-122023809D01*
X180942857Y-121928571D01*
X180895238Y-121880952D01*
X180800000Y-121833333D01*
X180609523Y-121833333D01*
X180514285Y-121880952D01*
X180466666Y-121928571D01*
X180419047Y-122023809D01*
X178561904Y-113752380D02*
X179228571Y-114752380D01*
X179228571Y-113752380D02*
X178561904Y-114752380D01*
X179800000Y-114276190D02*
X179800000Y-114752380D01*
X179466666Y-113752380D02*
X179800000Y-114276190D01*
X180133333Y-113752380D01*
X180371428Y-113752380D02*
X180990476Y-113752380D01*
X180657142Y-114133333D01*
X180800000Y-114133333D01*
X180895238Y-114180952D01*
X180942857Y-114228571D01*
X180990476Y-114323809D01*
X180990476Y-114561904D01*
X180942857Y-114657142D01*
X180895238Y-114704761D01*
X180800000Y-114752380D01*
X180514285Y-114752380D01*
X180419047Y-114704761D01*
X180371428Y-114657142D01*
X178561904Y-106052380D02*
X179228571Y-107052380D01*
X179228571Y-106052380D02*
X178561904Y-107052380D01*
X179800000Y-106576190D02*
X179800000Y-107052380D01*
X179466666Y-106052380D02*
X179800000Y-106576190D01*
X180133333Y-106052380D01*
X180657142Y-106052380D02*
X180752380Y-106052380D01*
X180847619Y-106100000D01*
X180895238Y-106147619D01*
X180942857Y-106242857D01*
X180990476Y-106433333D01*
X180990476Y-106671428D01*
X180942857Y-106861904D01*
X180895238Y-106957142D01*
X180847619Y-107004761D01*
X180752380Y-107052380D01*
X180657142Y-107052380D01*
X180561904Y-107004761D01*
X180514285Y-106957142D01*
X180466666Y-106861904D01*
X180419047Y-106671428D01*
X180419047Y-106433333D01*
X180466666Y-106242857D01*
X180514285Y-106147619D01*
X180561904Y-106100000D01*
X180657142Y-106052380D01*
X178561904Y-111252380D02*
X179228571Y-112252380D01*
X179228571Y-111252380D02*
X178561904Y-112252380D01*
X179800000Y-111776190D02*
X179800000Y-112252380D01*
X179466666Y-111252380D02*
X179800000Y-111776190D01*
X180133333Y-111252380D01*
X180419047Y-111347619D02*
X180466666Y-111300000D01*
X180561904Y-111252380D01*
X180800000Y-111252380D01*
X180895238Y-111300000D01*
X180942857Y-111347619D01*
X180990476Y-111442857D01*
X180990476Y-111538095D01*
X180942857Y-111680952D01*
X180371428Y-112252380D01*
X180990476Y-112252380D01*
X178561904Y-108552380D02*
X179228571Y-109552380D01*
X179228571Y-108552380D02*
X178561904Y-109552380D01*
X179800000Y-109076190D02*
X179800000Y-109552380D01*
X179466666Y-108552380D02*
X179800000Y-109076190D01*
X180133333Y-108552380D01*
X180990476Y-109552380D02*
X180419047Y-109552380D01*
X180704761Y-109552380D02*
X180704761Y-108552380D01*
X180609523Y-108695238D01*
X180514285Y-108790476D01*
X180419047Y-108838095D01*
X86985714Y-103700000D02*
X87795238Y-103700000D01*
X87890476Y-103747619D01*
X87938095Y-103795238D01*
X87985714Y-103890476D01*
X87985714Y-104033333D01*
X87938095Y-104128571D01*
X87604761Y-103700000D02*
X87652380Y-103795238D01*
X87652380Y-103985714D01*
X87604761Y-104080952D01*
X87557142Y-104128571D01*
X87461904Y-104176190D01*
X87176190Y-104176190D01*
X87080952Y-104128571D01*
X87033333Y-104080952D01*
X86985714Y-103985714D01*
X86985714Y-103795238D01*
X87033333Y-103700000D01*
X87652380Y-103223809D02*
X86985714Y-103223809D01*
X86652380Y-103223809D02*
X86700000Y-103271428D01*
X86747619Y-103223809D01*
X86700000Y-103176190D01*
X86652380Y-103223809D01*
X86747619Y-103223809D01*
X86985714Y-102890476D02*
X86985714Y-102509523D01*
X86652380Y-102747619D02*
X87509523Y-102747619D01*
X87604761Y-102700000D01*
X87652380Y-102604761D01*
X87652380Y-102509523D01*
X87652380Y-102176190D02*
X86652380Y-102176190D01*
X87652380Y-101747619D02*
X87128571Y-101747619D01*
X87033333Y-101795238D01*
X86985714Y-101890476D01*
X86985714Y-102033333D01*
X87033333Y-102128571D01*
X87080952Y-102176190D01*
X86985714Y-100842857D02*
X87652380Y-100842857D01*
X86985714Y-101271428D02*
X87509523Y-101271428D01*
X87604761Y-101223809D01*
X87652380Y-101128571D01*
X87652380Y-100985714D01*
X87604761Y-100890476D01*
X87557142Y-100842857D01*
X87652380Y-100366666D02*
X86652380Y-100366666D01*
X87033333Y-100366666D02*
X86985714Y-100271428D01*
X86985714Y-100080952D01*
X87033333Y-99985714D01*
X87080952Y-99938095D01*
X87176190Y-99890476D01*
X87461904Y-99890476D01*
X87557142Y-99938095D01*
X87604761Y-99985714D01*
X87652380Y-100080952D01*
X87652380Y-100271428D01*
X87604761Y-100366666D01*
X87557142Y-99461904D02*
X87604761Y-99414285D01*
X87652380Y-99461904D01*
X87604761Y-99509523D01*
X87557142Y-99461904D01*
X87652380Y-99461904D01*
X87604761Y-98557142D02*
X87652380Y-98652380D01*
X87652380Y-98842857D01*
X87604761Y-98938095D01*
X87557142Y-98985714D01*
X87461904Y-99033333D01*
X87176190Y-99033333D01*
X87080952Y-98985714D01*
X87033333Y-98938095D01*
X86985714Y-98842857D01*
X86985714Y-98652380D01*
X87033333Y-98557142D01*
X87652380Y-97985714D02*
X87604761Y-98080952D01*
X87557142Y-98128571D01*
X87461904Y-98176190D01*
X87176190Y-98176190D01*
X87080952Y-98128571D01*
X87033333Y-98080952D01*
X86985714Y-97985714D01*
X86985714Y-97842857D01*
X87033333Y-97747619D01*
X87080952Y-97700000D01*
X87176190Y-97652380D01*
X87461904Y-97652380D01*
X87557142Y-97700000D01*
X87604761Y-97747619D01*
X87652380Y-97842857D01*
X87652380Y-97985714D01*
X87652380Y-97223809D02*
X86985714Y-97223809D01*
X87080952Y-97223809D02*
X87033333Y-97176190D01*
X86985714Y-97080952D01*
X86985714Y-96938095D01*
X87033333Y-96842857D01*
X87128571Y-96795238D01*
X87652380Y-96795238D01*
X87128571Y-96795238D02*
X87033333Y-96747619D01*
X86985714Y-96652380D01*
X86985714Y-96509523D01*
X87033333Y-96414285D01*
X87128571Y-96366666D01*
X87652380Y-96366666D01*
X86604761Y-95176190D02*
X87890476Y-96033333D01*
X86652380Y-94985714D02*
X86652380Y-94414285D01*
X87652380Y-94700000D02*
X86652380Y-94700000D01*
X87652380Y-93938095D02*
X87604761Y-94033333D01*
X87557142Y-94080952D01*
X87461904Y-94128571D01*
X87176190Y-94128571D01*
X87080952Y-94080952D01*
X87033333Y-94033333D01*
X86985714Y-93938095D01*
X86985714Y-93795238D01*
X87033333Y-93700000D01*
X87080952Y-93652380D01*
X87176190Y-93604761D01*
X87461904Y-93604761D01*
X87557142Y-93652380D01*
X87604761Y-93700000D01*
X87652380Y-93795238D01*
X87652380Y-93938095D01*
X87652380Y-93176190D02*
X86985714Y-93176190D01*
X87080952Y-93176190D02*
X87033333Y-93128571D01*
X86985714Y-93033333D01*
X86985714Y-92890476D01*
X87033333Y-92795238D01*
X87128571Y-92747619D01*
X87652380Y-92747619D01*
X87128571Y-92747619D02*
X87033333Y-92700000D01*
X86985714Y-92604761D01*
X86985714Y-92461904D01*
X87033333Y-92366666D01*
X87128571Y-92319047D01*
X87652380Y-92319047D01*
X87652380Y-91842857D02*
X86652380Y-91842857D01*
X87652380Y-91271428D01*
X86652380Y-91271428D01*
X87652380Y-90795238D02*
X86985714Y-90795238D01*
X86652380Y-90795238D02*
X86700000Y-90842857D01*
X86747619Y-90795238D01*
X86700000Y-90747619D01*
X86652380Y-90795238D01*
X86747619Y-90795238D01*
X87604761Y-90366666D02*
X87652380Y-90271428D01*
X87652380Y-90080952D01*
X87604761Y-89985714D01*
X87509523Y-89938095D01*
X87461904Y-89938095D01*
X87366666Y-89985714D01*
X87319047Y-90080952D01*
X87319047Y-90223809D01*
X87271428Y-90319047D01*
X87176190Y-90366666D01*
X87128571Y-90366666D01*
X87033333Y-90319047D01*
X86985714Y-90223809D01*
X86985714Y-90080952D01*
X87033333Y-89985714D01*
X87652380Y-89509523D02*
X86652380Y-89509523D01*
X87033333Y-89509523D02*
X86985714Y-89414285D01*
X86985714Y-89223809D01*
X87033333Y-89128571D01*
X87080952Y-89080952D01*
X87176190Y-89033333D01*
X87461904Y-89033333D01*
X87557142Y-89080952D01*
X87604761Y-89128571D01*
X87652380Y-89223809D01*
X87652380Y-89414285D01*
X87604761Y-89509523D01*
X87604761Y-88223809D02*
X87652380Y-88319047D01*
X87652380Y-88509523D01*
X87604761Y-88604761D01*
X87509523Y-88652380D01*
X87128571Y-88652380D01*
X87033333Y-88604761D01*
X86985714Y-88509523D01*
X86985714Y-88319047D01*
X87033333Y-88223809D01*
X87128571Y-88176190D01*
X87223809Y-88176190D01*
X87319047Y-88652380D01*
X86985714Y-87890476D02*
X86985714Y-87509523D01*
X86652380Y-87747619D02*
X87509523Y-87747619D01*
X87604761Y-87700000D01*
X87652380Y-87604761D01*
X87652380Y-87509523D01*
X86604761Y-86461904D02*
X87890476Y-87319047D01*
X86985714Y-86128571D02*
X87652380Y-86128571D01*
X87080952Y-86128571D02*
X87033333Y-86080952D01*
X86985714Y-85985714D01*
X86985714Y-85842857D01*
X87033333Y-85747619D01*
X87128571Y-85700000D01*
X87652380Y-85700000D01*
X86985714Y-84795238D02*
X87985714Y-84795238D01*
X87604761Y-84795238D02*
X87652380Y-84890476D01*
X87652380Y-85080952D01*
X87604761Y-85176190D01*
X87557142Y-85223809D01*
X87461904Y-85271428D01*
X87176190Y-85271428D01*
X87080952Y-85223809D01*
X87033333Y-85176190D01*
X86985714Y-85080952D01*
X86985714Y-84890476D01*
X87033333Y-84795238D01*
X87604761Y-84366666D02*
X87652380Y-84271428D01*
X87652380Y-84080952D01*
X87604761Y-83985714D01*
X87509523Y-83938095D01*
X87461904Y-83938095D01*
X87366666Y-83985714D01*
X87319047Y-84080952D01*
X87319047Y-84223809D01*
X87271428Y-84319047D01*
X87176190Y-84366666D01*
X87128571Y-84366666D01*
X87033333Y-84319047D01*
X86985714Y-84223809D01*
X86985714Y-84080952D01*
X87033333Y-83985714D01*
X87652380Y-83080952D02*
X87128571Y-83080952D01*
X87033333Y-83128571D01*
X86985714Y-83223809D01*
X86985714Y-83414285D01*
X87033333Y-83509523D01*
X87604761Y-83080952D02*
X87652380Y-83176190D01*
X87652380Y-83414285D01*
X87604761Y-83509523D01*
X87509523Y-83557142D01*
X87414285Y-83557142D01*
X87319047Y-83509523D01*
X87271428Y-83414285D01*
X87271428Y-83176190D01*
X87223809Y-83080952D01*
X86985714Y-82604761D02*
X87985714Y-82604761D01*
X87033333Y-82604761D02*
X86985714Y-82509523D01*
X86985714Y-82319047D01*
X87033333Y-82223809D01*
X87080952Y-82176190D01*
X87176190Y-82128571D01*
X87461904Y-82128571D01*
X87557142Y-82176190D01*
X87604761Y-82223809D01*
X87652380Y-82319047D01*
X87652380Y-82509523D01*
X87604761Y-82604761D01*
X87271428Y-81700000D02*
X87271428Y-80938095D01*
X86985714Y-80461904D02*
X87985714Y-80461904D01*
X87033333Y-80461904D02*
X86985714Y-80366666D01*
X86985714Y-80176190D01*
X87033333Y-80080952D01*
X87080952Y-80033333D01*
X87176190Y-79985714D01*
X87461904Y-79985714D01*
X87557142Y-80033333D01*
X87604761Y-80080952D01*
X87652380Y-80176190D01*
X87652380Y-80366666D01*
X87604761Y-80461904D01*
X87604761Y-79128571D02*
X87652380Y-79223809D01*
X87652380Y-79414285D01*
X87604761Y-79509523D01*
X87557142Y-79557142D01*
X87461904Y-79604761D01*
X87176190Y-79604761D01*
X87080952Y-79557142D01*
X87033333Y-79509523D01*
X86985714Y-79414285D01*
X86985714Y-79223809D01*
X87033333Y-79128571D01*
X87652380Y-78700000D02*
X86652380Y-78700000D01*
X87033333Y-78700000D02*
X86985714Y-78604761D01*
X86985714Y-78414285D01*
X87033333Y-78319047D01*
X87080952Y-78271428D01*
X87176190Y-78223809D01*
X87461904Y-78223809D01*
X87557142Y-78271428D01*
X87604761Y-78319047D01*
X87652380Y-78414285D01*
X87652380Y-78604761D01*
X87604761Y-78700000D01*
X163733333Y-48147619D02*
X163780952Y-48100000D01*
X163876190Y-48052380D01*
X164114285Y-48052380D01*
X164209523Y-48100000D01*
X164257142Y-48147619D01*
X164304761Y-48242857D01*
X164304761Y-48338095D01*
X164257142Y-48480952D01*
X163685714Y-49052380D01*
X164304761Y-49052380D01*
X164923809Y-48052380D02*
X165019047Y-48052380D01*
X165114285Y-48100000D01*
X165161904Y-48147619D01*
X165209523Y-48242857D01*
X165257142Y-48433333D01*
X165257142Y-48671428D01*
X165209523Y-48861904D01*
X165161904Y-48957142D01*
X165114285Y-49004761D01*
X165019047Y-49052380D01*
X164923809Y-49052380D01*
X164828571Y-49004761D01*
X164780952Y-48957142D01*
X164733333Y-48861904D01*
X164685714Y-48671428D01*
X164685714Y-48433333D01*
X164733333Y-48242857D01*
X164780952Y-48147619D01*
X164828571Y-48100000D01*
X164923809Y-48052380D01*
X165638095Y-48147619D02*
X165685714Y-48100000D01*
X165780952Y-48052380D01*
X166019047Y-48052380D01*
X166114285Y-48100000D01*
X166161904Y-48147619D01*
X166209523Y-48242857D01*
X166209523Y-48338095D01*
X166161904Y-48480952D01*
X165590476Y-49052380D01*
X166209523Y-49052380D01*
X166590476Y-48147619D02*
X166638095Y-48100000D01*
X166733333Y-48052380D01*
X166971428Y-48052380D01*
X167066666Y-48100000D01*
X167114285Y-48147619D01*
X167161904Y-48242857D01*
X167161904Y-48338095D01*
X167114285Y-48480952D01*
X166542857Y-49052380D01*
X167161904Y-49052380D01*
X168257142Y-48385714D02*
X168495238Y-49052380D01*
X168733333Y-48385714D01*
X169638095Y-49052380D02*
X169066666Y-49052380D01*
X169352380Y-49052380D02*
X169352380Y-48052380D01*
X169257142Y-48195238D01*
X169161904Y-48290476D01*
X169066666Y-48338095D01*
X170066666Y-48957142D02*
X170114285Y-49004761D01*
X170066666Y-49052380D01*
X170019047Y-49004761D01*
X170066666Y-48957142D01*
X170066666Y-49052380D01*
X170733333Y-48052380D02*
X170828571Y-48052380D01*
X170923809Y-48100000D01*
X170971428Y-48147619D01*
X171019047Y-48242857D01*
X171066666Y-48433333D01*
X171066666Y-48671428D01*
X171019047Y-48861904D01*
X170971428Y-48957142D01*
X170923809Y-49004761D01*
X170828571Y-49052380D01*
X170733333Y-49052380D01*
X170638095Y-49004761D01*
X170590476Y-48957142D01*
X170542857Y-48861904D01*
X170495238Y-48671428D01*
X170495238Y-48433333D01*
X170542857Y-48242857D01*
X170590476Y-48147619D01*
X170638095Y-48100000D01*
X170733333Y-48052380D01*
D11*
X165952380Y-54104761D02*
X165285714Y-53152380D01*
X164809523Y-54104761D02*
X164809523Y-52104761D01*
X165571428Y-52104761D01*
X165761904Y-52200000D01*
X165857142Y-52295238D01*
X165952380Y-52485714D01*
X165952380Y-52771428D01*
X165857142Y-52961904D01*
X165761904Y-53057142D01*
X165571428Y-53152380D01*
X164809523Y-53152380D01*
X167571428Y-54009523D02*
X167380952Y-54104761D01*
X167000000Y-54104761D01*
X166809523Y-54009523D01*
X166714285Y-53819047D01*
X166714285Y-53057142D01*
X166809523Y-52866666D01*
X167000000Y-52771428D01*
X167380952Y-52771428D01*
X167571428Y-52866666D01*
X167666666Y-53057142D01*
X167666666Y-53247619D01*
X166714285Y-53438095D01*
X169380952Y-54104761D02*
X169380952Y-53057142D01*
X169285714Y-52866666D01*
X169095238Y-52771428D01*
X168714285Y-52771428D01*
X168523809Y-52866666D01*
X169380952Y-54009523D02*
X169190476Y-54104761D01*
X168714285Y-54104761D01*
X168523809Y-54009523D01*
X168428571Y-53819047D01*
X168428571Y-53628571D01*
X168523809Y-53438095D01*
X168714285Y-53342857D01*
X169190476Y-53342857D01*
X169380952Y-53247619D01*
X171190476Y-54104761D02*
X171190476Y-52104761D01*
X171190476Y-54009523D02*
X171000000Y-54104761D01*
X170619047Y-54104761D01*
X170428571Y-54009523D01*
X170333333Y-53914285D01*
X170238095Y-53723809D01*
X170238095Y-53152380D01*
X170333333Y-52961904D01*
X170428571Y-52866666D01*
X170619047Y-52771428D01*
X171000000Y-52771428D01*
X171190476Y-52866666D01*
X162952380Y-57209523D02*
X163238095Y-57304761D01*
X163714285Y-57304761D01*
X163904761Y-57209523D01*
X164000000Y-57114285D01*
X164095238Y-56923809D01*
X164095238Y-56733333D01*
X164000000Y-56542857D01*
X163904761Y-56447619D01*
X163714285Y-56352380D01*
X163333333Y-56257142D01*
X163142857Y-56161904D01*
X163047619Y-56066666D01*
X162952380Y-55876190D01*
X162952380Y-55685714D01*
X163047619Y-55495238D01*
X163142857Y-55400000D01*
X163333333Y-55304761D01*
X163809523Y-55304761D01*
X164095238Y-55400000D01*
X165714285Y-57209523D02*
X165523809Y-57304761D01*
X165142857Y-57304761D01*
X164952380Y-57209523D01*
X164857142Y-57019047D01*
X164857142Y-56257142D01*
X164952380Y-56066666D01*
X165142857Y-55971428D01*
X165523809Y-55971428D01*
X165714285Y-56066666D01*
X165809523Y-56257142D01*
X165809523Y-56447619D01*
X164857142Y-56638095D01*
X166952380Y-57304761D02*
X166761904Y-57209523D01*
X166666666Y-57019047D01*
X166666666Y-55304761D01*
X168476190Y-57209523D02*
X168285714Y-57304761D01*
X167904761Y-57304761D01*
X167714285Y-57209523D01*
X167619047Y-57019047D01*
X167619047Y-56257142D01*
X167714285Y-56066666D01*
X167904761Y-55971428D01*
X168285714Y-55971428D01*
X168476190Y-56066666D01*
X168571428Y-56257142D01*
X168571428Y-56447619D01*
X167619047Y-56638095D01*
X170285714Y-57209523D02*
X170095238Y-57304761D01*
X169714285Y-57304761D01*
X169523809Y-57209523D01*
X169428571Y-57114285D01*
X169333333Y-56923809D01*
X169333333Y-56352380D01*
X169428571Y-56161904D01*
X169523809Y-56066666D01*
X169714285Y-55971428D01*
X170095238Y-55971428D01*
X170285714Y-56066666D01*
X170857142Y-55971428D02*
X171619047Y-55971428D01*
X171142857Y-55304761D02*
X171142857Y-57019047D01*
X171238095Y-57209523D01*
X171428571Y-57304761D01*
X171619047Y-57304761D01*
X172190476Y-57209523D02*
X172380952Y-57304761D01*
X172761904Y-57304761D01*
X172952380Y-57209523D01*
X173047619Y-57019047D01*
X173047619Y-56923809D01*
X172952380Y-56733333D01*
X172761904Y-56638095D01*
X172476190Y-56638095D01*
X172285714Y-56542857D01*
X172190476Y-56352380D01*
X172190476Y-56257142D01*
X172285714Y-56066666D01*
X172476190Y-55971428D01*
X172761904Y-55971428D01*
X172952380Y-56066666D01*
X164819047Y-125104761D02*
X165295238Y-127104761D01*
X165676190Y-125676190D01*
X166057142Y-127104761D01*
X166533333Y-125104761D01*
X167295238Y-127104761D02*
X167295238Y-125771428D01*
X167295238Y-126152380D02*
X167390476Y-125961904D01*
X167485714Y-125866666D01*
X167676190Y-125771428D01*
X167866666Y-125771428D01*
X168533333Y-127104761D02*
X168533333Y-125771428D01*
X168533333Y-125104761D02*
X168438095Y-125200000D01*
X168533333Y-125295238D01*
X168628571Y-125200000D01*
X168533333Y-125104761D01*
X168533333Y-125295238D01*
X169200000Y-125771428D02*
X169961904Y-125771428D01*
X169485714Y-125104761D02*
X169485714Y-126819047D01*
X169580952Y-127009523D01*
X169771428Y-127104761D01*
X169961904Y-127104761D01*
X171390476Y-127009523D02*
X171200000Y-127104761D01*
X170819047Y-127104761D01*
X170628571Y-127009523D01*
X170533333Y-126819047D01*
X170533333Y-126057142D01*
X170628571Y-125866666D01*
X170819047Y-125771428D01*
X171200000Y-125771428D01*
X171390476Y-125866666D01*
X171485714Y-126057142D01*
X171485714Y-126247619D01*
X170533333Y-126438095D01*
X163152380Y-130209523D02*
X163438095Y-130304761D01*
X163914285Y-130304761D01*
X164104761Y-130209523D01*
X164200000Y-130114285D01*
X164295238Y-129923809D01*
X164295238Y-129733333D01*
X164200000Y-129542857D01*
X164104761Y-129447619D01*
X163914285Y-129352380D01*
X163533333Y-129257142D01*
X163342857Y-129161904D01*
X163247619Y-129066666D01*
X163152380Y-128876190D01*
X163152380Y-128685714D01*
X163247619Y-128495238D01*
X163342857Y-128400000D01*
X163533333Y-128304761D01*
X164009523Y-128304761D01*
X164295238Y-128400000D01*
X165914285Y-130209523D02*
X165723809Y-130304761D01*
X165342857Y-130304761D01*
X165152380Y-130209523D01*
X165057142Y-130019047D01*
X165057142Y-129257142D01*
X165152380Y-129066666D01*
X165342857Y-128971428D01*
X165723809Y-128971428D01*
X165914285Y-129066666D01*
X166009523Y-129257142D01*
X166009523Y-129447619D01*
X165057142Y-129638095D01*
X167152380Y-130304761D02*
X166961904Y-130209523D01*
X166866666Y-130019047D01*
X166866666Y-128304761D01*
X168676190Y-130209523D02*
X168485714Y-130304761D01*
X168104761Y-130304761D01*
X167914285Y-130209523D01*
X167819047Y-130019047D01*
X167819047Y-129257142D01*
X167914285Y-129066666D01*
X168104761Y-128971428D01*
X168485714Y-128971428D01*
X168676190Y-129066666D01*
X168771428Y-129257142D01*
X168771428Y-129447619D01*
X167819047Y-129638095D01*
X170485714Y-130209523D02*
X170295238Y-130304761D01*
X169914285Y-130304761D01*
X169723809Y-130209523D01*
X169628571Y-130114285D01*
X169533333Y-129923809D01*
X169533333Y-129352380D01*
X169628571Y-129161904D01*
X169723809Y-129066666D01*
X169914285Y-128971428D01*
X170295238Y-128971428D01*
X170485714Y-129066666D01*
X171057142Y-128971428D02*
X171819047Y-128971428D01*
X171342857Y-128304761D02*
X171342857Y-130019047D01*
X171438095Y-130209523D01*
X171628571Y-130304761D01*
X171819047Y-130304761D01*
X172390476Y-130209523D02*
X172580952Y-130304761D01*
X172961904Y-130304761D01*
X173152380Y-130209523D01*
X173247619Y-130019047D01*
X173247619Y-129923809D01*
X173152380Y-129733333D01*
X172961904Y-129638095D01*
X172676190Y-129638095D01*
X172485714Y-129542857D01*
X172390476Y-129352380D01*
X172390476Y-129257142D01*
X172485714Y-129066666D01*
X172676190Y-128971428D01*
X172961904Y-128971428D01*
X173152380Y-129066666D01*
D12*
X133138095Y-70309523D02*
X133138095Y-66309523D01*
X135042857Y-67642857D02*
X135042857Y-70309523D01*
X135042857Y-68023809D02*
X135233333Y-67833333D01*
X135614285Y-67642857D01*
X136185714Y-67642857D01*
X136566666Y-67833333D01*
X136757142Y-68214285D01*
X136757142Y-70309523D01*
X140376190Y-70309523D02*
X140376190Y-66309523D01*
X140376190Y-70119047D02*
X139995238Y-70309523D01*
X139233333Y-70309523D01*
X138852380Y-70119047D01*
X138661904Y-69928571D01*
X138471428Y-69547619D01*
X138471428Y-68404761D01*
X138661904Y-68023809D01*
X138852380Y-67833333D01*
X139233333Y-67642857D01*
X139995238Y-67642857D01*
X140376190Y-67833333D01*
X143804761Y-70119047D02*
X143423809Y-70309523D01*
X142661904Y-70309523D01*
X142280952Y-70119047D01*
X142090476Y-69738095D01*
X142090476Y-68214285D01*
X142280952Y-67833333D01*
X142661904Y-67642857D01*
X143423809Y-67642857D01*
X143804761Y-67833333D01*
X143995238Y-68214285D01*
X143995238Y-68595238D01*
X142090476Y-68976190D01*
X145328571Y-70309523D02*
X147423809Y-67642857D01*
X145328571Y-67642857D02*
X147423809Y-70309523D01*
X151804761Y-69166666D02*
X153709523Y-69166666D01*
X151423809Y-70309523D02*
X152757142Y-66309523D01*
X154090476Y-70309523D01*
X157138095Y-70309523D02*
X157138095Y-66309523D01*
X157138095Y-70119047D02*
X156757142Y-70309523D01*
X155995238Y-70309523D01*
X155614285Y-70119047D01*
X155423809Y-69928571D01*
X155233333Y-69547619D01*
X155233333Y-68404761D01*
X155423809Y-68023809D01*
X155614285Y-67833333D01*
X155995238Y-67642857D01*
X156757142Y-67642857D01*
X157138095Y-67833333D01*
X160757142Y-70309523D02*
X160757142Y-66309523D01*
X160757142Y-70119047D02*
X160376190Y-70309523D01*
X159614285Y-70309523D01*
X159233333Y-70119047D01*
X159042857Y-69928571D01*
X158852380Y-69547619D01*
X158852380Y-68404761D01*
X159042857Y-68023809D01*
X159233333Y-67833333D01*
X159614285Y-67642857D01*
X160376190Y-67642857D01*
X160757142Y-67833333D01*
X164185714Y-70119047D02*
X163804761Y-70309523D01*
X163042857Y-70309523D01*
X162661904Y-70119047D01*
X162471428Y-69738095D01*
X162471428Y-68214285D01*
X162661904Y-67833333D01*
X163042857Y-67642857D01*
X163804761Y-67642857D01*
X164185714Y-67833333D01*
X164376190Y-68214285D01*
X164376190Y-68595238D01*
X162471428Y-68976190D01*
X166090476Y-70309523D02*
X166090476Y-67642857D01*
X166090476Y-68404761D02*
X166280952Y-68023809D01*
X166471428Y-67833333D01*
X166852380Y-67642857D01*
X167233333Y-67642857D01*
X135038095Y-113909523D02*
X135038095Y-109909523D01*
X135990476Y-109909523D01*
X136561904Y-110100000D01*
X136942857Y-110480952D01*
X137133333Y-110861904D01*
X137323809Y-111623809D01*
X137323809Y-112195238D01*
X137133333Y-112957142D01*
X136942857Y-113338095D01*
X136561904Y-113719047D01*
X135990476Y-113909523D01*
X135038095Y-113909523D01*
X144371428Y-113909523D02*
X143038095Y-112004761D01*
X142085714Y-113909523D02*
X142085714Y-109909523D01*
X143609523Y-109909523D01*
X143990476Y-110100000D01*
X144180952Y-110290476D01*
X144371428Y-110671428D01*
X144371428Y-111242857D01*
X144180952Y-111623809D01*
X143990476Y-111814285D01*
X143609523Y-112004761D01*
X142085714Y-112004761D01*
X147609523Y-113719047D02*
X147228571Y-113909523D01*
X146466666Y-113909523D01*
X146085714Y-113719047D01*
X145895238Y-113338095D01*
X145895238Y-111814285D01*
X146085714Y-111433333D01*
X146466666Y-111242857D01*
X147228571Y-111242857D01*
X147609523Y-111433333D01*
X147800000Y-111814285D01*
X147800000Y-112195238D01*
X145895238Y-112576190D01*
X151228571Y-111242857D02*
X151228571Y-114480952D01*
X151038095Y-114861904D01*
X150847619Y-115052380D01*
X150466666Y-115242857D01*
X149895238Y-115242857D01*
X149514285Y-115052380D01*
X151228571Y-113719047D02*
X150847619Y-113909523D01*
X150085714Y-113909523D01*
X149704761Y-113719047D01*
X149514285Y-113528571D01*
X149323809Y-113147619D01*
X149323809Y-112004761D01*
X149514285Y-111623809D01*
X149704761Y-111433333D01*
X150085714Y-111242857D01*
X150847619Y-111242857D01*
X151228571Y-111433333D01*
X153133333Y-113909523D02*
X153133333Y-111242857D01*
X153133333Y-109909523D02*
X152942857Y-110100000D01*
X153133333Y-110290476D01*
X153323809Y-110100000D01*
X153133333Y-109909523D01*
X153133333Y-110290476D01*
X154847619Y-113719047D02*
X155228571Y-113909523D01*
X155990476Y-113909523D01*
X156371428Y-113719047D01*
X156561904Y-113338095D01*
X156561904Y-113147619D01*
X156371428Y-112766666D01*
X155990476Y-112576190D01*
X155419047Y-112576190D01*
X155038095Y-112385714D01*
X154847619Y-112004761D01*
X154847619Y-111814285D01*
X155038095Y-111433333D01*
X155419047Y-111242857D01*
X155990476Y-111242857D01*
X156371428Y-111433333D01*
X157704761Y-111242857D02*
X159228571Y-111242857D01*
X158276190Y-109909523D02*
X158276190Y-113338095D01*
X158466666Y-113719047D01*
X158847619Y-113909523D01*
X159228571Y-113909523D01*
X162085714Y-113719047D02*
X161704761Y-113909523D01*
X160942857Y-113909523D01*
X160561904Y-113719047D01*
X160371428Y-113338095D01*
X160371428Y-111814285D01*
X160561904Y-111433333D01*
X160942857Y-111242857D01*
X161704761Y-111242857D01*
X162085714Y-111433333D01*
X162276190Y-111814285D01*
X162276190Y-112195238D01*
X160371428Y-112576190D01*
X163990476Y-113909523D02*
X163990476Y-111242857D01*
X163990476Y-112004761D02*
X164180952Y-111623809D01*
X164371428Y-111433333D01*
X164752380Y-111242857D01*
X165133333Y-111242857D01*
D13*
X90170000Y-58440000D02*
X90170000Y-60090000D01*
X115690000Y-58440000D02*
X90170000Y-58440000D01*
X115690000Y-63740000D02*
X115690000Y-58440000D01*
X90170000Y-63740000D02*
X115690000Y-63740000D01*
X90170000Y-62090000D02*
X90170000Y-63740000D01*
X90170000Y-60090000D02*
G75*
G02*
X90170000Y-62090000I0J-1000000D01*
G01*
X124272936Y-118665000D02*
X124727064Y-118665000D01*
X124272936Y-120135000D02*
X124727064Y-120135000D01*
X125500000Y-121740000D02*
X122640000Y-121740000D01*
X122640000Y-121740000D02*
X122640000Y-123660000D01*
X122640000Y-123660000D02*
X125500000Y-123660000D01*
X124372936Y-62665000D02*
X124827064Y-62665000D01*
X124372936Y-64135000D02*
X124827064Y-64135000D01*
X125575000Y-59040000D02*
X122715000Y-59040000D01*
X122715000Y-59040000D02*
X122715000Y-60960000D01*
X122715000Y-60960000D02*
X125575000Y-60960000D01*
X98590000Y-99530000D02*
X100240000Y-99530000D01*
X100240000Y-99530000D02*
X100240000Y-79090000D01*
X100240000Y-79090000D02*
X94940000Y-79090000D01*
X94940000Y-79090000D02*
X94940000Y-99530000D01*
X94940000Y-99530000D02*
X96590000Y-99530000D01*
X96590000Y-99530000D02*
G75*
G02*
X98590000Y-99530000I1000000J0D01*
G01*
X114990000Y-99530000D02*
X116640000Y-99530000D01*
X116640000Y-99530000D02*
X116640000Y-79090000D01*
X116640000Y-79090000D02*
X111340000Y-79090000D01*
X111340000Y-79090000D02*
X111340000Y-99530000D01*
X111340000Y-99530000D02*
X112990000Y-99530000D01*
X112990000Y-99530000D02*
G75*
G02*
X114990000Y-99530000I1000000J0D01*
G01*
X138470000Y-125440000D02*
X138470000Y-127090000D01*
X158910000Y-125440000D02*
X138470000Y-125440000D01*
X158910000Y-130740000D02*
X158910000Y-125440000D01*
X138470000Y-130740000D02*
X158910000Y-130740000D01*
X138470000Y-129090000D02*
X138470000Y-130740000D01*
X138470000Y-127090000D02*
G75*
G02*
X138470000Y-129090000I0J-1000000D01*
G01*
X138370000Y-52340000D02*
X138370000Y-53990000D01*
X158810000Y-52340000D02*
X138370000Y-52340000D01*
X158810000Y-57640000D02*
X158810000Y-52340000D01*
X138370000Y-57640000D02*
X158810000Y-57640000D01*
X138370000Y-55990000D02*
X138370000Y-57640000D01*
X138370000Y-53990000D02*
G75*
G02*
X138370000Y-55990000I0J-1000000D01*
G01*
X94535000Y-102761252D02*
X94535000Y-102238748D01*
X93065000Y-102761252D02*
X93065000Y-102238748D01*
X110935000Y-102761252D02*
X110935000Y-102238748D01*
X109465000Y-102761252D02*
X109465000Y-102238748D01*
X90765000Y-53338748D02*
X90765000Y-53861252D01*
X92235000Y-53338748D02*
X92235000Y-53861252D01*
X90865000Y-113438748D02*
X90865000Y-113961252D01*
X92335000Y-113438748D02*
X92335000Y-113961252D01*
X136435000Y-52361252D02*
X136435000Y-51838748D01*
X134965000Y-52361252D02*
X134965000Y-51838748D01*
X134438748Y-125035000D02*
X134961252Y-125035000D01*
X134438748Y-123565000D02*
X134961252Y-123565000D01*
X90270000Y-119040000D02*
X90270000Y-120690000D01*
X115790000Y-119040000D02*
X90270000Y-119040000D01*
X115790000Y-124340000D02*
X115790000Y-119040000D01*
X90270000Y-124340000D02*
X115790000Y-124340000D01*
X90270000Y-122690000D02*
X90270000Y-124340000D01*
X90270000Y-120690000D02*
G75*
G02*
X90270000Y-122690000I0J-1000000D01*
G01*
X128472936Y-75135000D02*
X128927064Y-75135000D01*
X128472936Y-73665000D02*
X128927064Y-73665000D01*
X134615793Y-75135000D02*
X135069921Y-75135000D01*
X134615793Y-73665000D02*
X135069921Y-73665000D01*
X140758650Y-75135000D02*
X141212778Y-75135000D01*
X140758650Y-73665000D02*
X141212778Y-73665000D01*
X146901507Y-75135000D02*
X147355635Y-75135000D01*
X146901507Y-73665000D02*
X147355635Y-73665000D01*
X153044364Y-75135000D02*
X153498492Y-75135000D01*
X153044364Y-73665000D02*
X153498492Y-73665000D01*
X159187221Y-75135000D02*
X159641349Y-75135000D01*
X159187221Y-73665000D02*
X159641349Y-73665000D01*
X165330078Y-75135000D02*
X165784206Y-75135000D01*
X165330078Y-73665000D02*
X165784206Y-73665000D01*
X171472936Y-75135000D02*
X171927064Y-75135000D01*
X171472936Y-73665000D02*
X171927064Y-73665000D01*
X128072936Y-106435000D02*
X128527064Y-106435000D01*
X128072936Y-104965000D02*
X128527064Y-104965000D01*
X134215793Y-106435000D02*
X134669921Y-106435000D01*
X134215793Y-104965000D02*
X134669921Y-104965000D01*
X140358650Y-106435000D02*
X140812778Y-106435000D01*
X140358650Y-104965000D02*
X140812778Y-104965000D01*
X146501507Y-106435000D02*
X146955635Y-106435000D01*
X146501507Y-104965000D02*
X146955635Y-104965000D01*
X152644364Y-106435000D02*
X153098492Y-106435000D01*
X152644364Y-104965000D02*
X153098492Y-104965000D01*
X158787221Y-106435000D02*
X159241349Y-106435000D01*
X158787221Y-104965000D02*
X159241349Y-104965000D01*
X164930078Y-106435000D02*
X165384206Y-106435000D01*
X164930078Y-104965000D02*
X165384206Y-104965000D01*
X171072936Y-106435000D02*
X171527064Y-106435000D01*
X171072936Y-104965000D02*
X171527064Y-104965000D01*
X130560000Y-77640000D02*
X127700000Y-77640000D01*
X130560000Y-79560000D02*
X130560000Y-77640000D01*
X127700000Y-79560000D02*
X130560000Y-79560000D01*
X136702857Y-77640000D02*
X133842857Y-77640000D01*
X136702857Y-79560000D02*
X136702857Y-77640000D01*
X133842857Y-79560000D02*
X136702857Y-79560000D01*
X142845714Y-77640000D02*
X139985714Y-77640000D01*
X142845714Y-79560000D02*
X142845714Y-77640000D01*
X139985714Y-79560000D02*
X142845714Y-79560000D01*
X148988571Y-77640000D02*
X146128571Y-77640000D01*
X148988571Y-79560000D02*
X148988571Y-77640000D01*
X146128571Y-79560000D02*
X148988571Y-79560000D01*
X155131428Y-77640000D02*
X152271428Y-77640000D01*
X155131428Y-79560000D02*
X155131428Y-77640000D01*
X152271428Y-79560000D02*
X155131428Y-79560000D01*
X161274285Y-77640000D02*
X158414285Y-77640000D01*
X161274285Y-79560000D02*
X161274285Y-77640000D01*
X158414285Y-79560000D02*
X161274285Y-79560000D01*
X167417142Y-77640000D02*
X164557142Y-77640000D01*
X167417142Y-79560000D02*
X167417142Y-77640000D01*
X164557142Y-79560000D02*
X167417142Y-79560000D01*
X173560000Y-77640000D02*
X170700000Y-77640000D01*
X173560000Y-79560000D02*
X173560000Y-77640000D01*
X170700000Y-79560000D02*
X173560000Y-79560000D01*
X130160000Y-100540000D02*
X127300000Y-100540000D01*
X130160000Y-102460000D02*
X130160000Y-100540000D01*
X127300000Y-102460000D02*
X130160000Y-102460000D01*
X136302857Y-100540000D02*
X133442857Y-100540000D01*
X136302857Y-102460000D02*
X136302857Y-100540000D01*
X133442857Y-102460000D02*
X136302857Y-102460000D01*
X142445714Y-100540000D02*
X139585714Y-100540000D01*
X142445714Y-102460000D02*
X142445714Y-100540000D01*
X139585714Y-102460000D02*
X142445714Y-102460000D01*
X148588571Y-100540000D02*
X145728571Y-100540000D01*
X148588571Y-102460000D02*
X148588571Y-100540000D01*
X145728571Y-102460000D02*
X148588571Y-102460000D01*
X154731428Y-100540000D02*
X151871428Y-100540000D01*
X154731428Y-102460000D02*
X154731428Y-100540000D01*
X151871428Y-102460000D02*
X154731428Y-102460000D01*
X160874285Y-100540000D02*
X158014285Y-100540000D01*
X160874285Y-102460000D02*
X160874285Y-100540000D01*
X158014285Y-102460000D02*
X160874285Y-102460000D01*
X167017142Y-100540000D02*
X164157142Y-100540000D01*
X167017142Y-102460000D02*
X167017142Y-100540000D01*
X164157142Y-102460000D02*
X167017142Y-102460000D01*
X173160000Y-100540000D02*
X170300000Y-100540000D01*
X173160000Y-102460000D02*
X173160000Y-100540000D01*
X170300000Y-102460000D02*
X173160000Y-102460000D01*
D10*
X88622380Y-61851904D02*
X89431904Y-61851904D01*
X89527142Y-61804285D01*
X89574761Y-61756666D01*
X89622380Y-61661428D01*
X89622380Y-61470952D01*
X89574761Y-61375714D01*
X89527142Y-61328095D01*
X89431904Y-61280476D01*
X88622380Y-61280476D01*
X88717619Y-60851904D02*
X88670000Y-60804285D01*
X88622380Y-60709047D01*
X88622380Y-60470952D01*
X88670000Y-60375714D01*
X88717619Y-60328095D01*
X88812857Y-60280476D01*
X88908095Y-60280476D01*
X89050952Y-60328095D01*
X89622380Y-60899523D01*
X89622380Y-60280476D01*
X116142380Y-64732857D02*
X116142380Y-64066190D01*
X117142380Y-64494761D01*
X116475714Y-63256666D02*
X117142380Y-63256666D01*
X116094761Y-63494761D02*
X116809047Y-63732857D01*
X116809047Y-63113809D01*
X117142380Y-62732857D02*
X116142380Y-62732857D01*
X116618571Y-62732857D02*
X116618571Y-62161428D01*
X117142380Y-62161428D02*
X116142380Y-62161428D01*
X117047142Y-61113809D02*
X117094761Y-61161428D01*
X117142380Y-61304285D01*
X117142380Y-61399523D01*
X117094761Y-61542380D01*
X116999523Y-61637619D01*
X116904285Y-61685238D01*
X116713809Y-61732857D01*
X116570952Y-61732857D01*
X116380476Y-61685238D01*
X116285238Y-61637619D01*
X116190000Y-61542380D01*
X116142380Y-61399523D01*
X116142380Y-61304285D01*
X116190000Y-61161428D01*
X116237619Y-61113809D01*
X116142380Y-60828095D02*
X116142380Y-60256666D01*
X117142380Y-60542380D02*
X116142380Y-60542380D01*
X116237619Y-59970952D02*
X116190000Y-59923333D01*
X116142380Y-59828095D01*
X116142380Y-59590000D01*
X116190000Y-59494761D01*
X116237619Y-59447142D01*
X116332857Y-59399523D01*
X116428095Y-59399523D01*
X116570952Y-59447142D01*
X117142380Y-60018571D01*
X117142380Y-59399523D01*
X116475714Y-58542380D02*
X117142380Y-58542380D01*
X116094761Y-58780476D02*
X116809047Y-59018571D01*
X116809047Y-58399523D01*
X116142380Y-57542380D02*
X116142380Y-58018571D01*
X116618571Y-58066190D01*
X116570952Y-58018571D01*
X116523333Y-57923333D01*
X116523333Y-57685238D01*
X116570952Y-57590000D01*
X116618571Y-57542380D01*
X116713809Y-57494761D01*
X116951904Y-57494761D01*
X117047142Y-57542380D01*
X117094761Y-57590000D01*
X117142380Y-57685238D01*
X117142380Y-57923333D01*
X117094761Y-58018571D01*
X117047142Y-58066190D01*
X92376190Y-67652380D02*
X92376190Y-66652380D01*
X92852380Y-66985714D02*
X92852380Y-67652380D01*
X92852380Y-67080952D02*
X92900000Y-67033333D01*
X92995238Y-66985714D01*
X93138095Y-66985714D01*
X93233333Y-67033333D01*
X93280952Y-67128571D01*
X93280952Y-67652380D01*
X94185714Y-67652380D02*
X94185714Y-66652380D01*
X94185714Y-67604761D02*
X94090476Y-67652380D01*
X93900000Y-67652380D01*
X93804761Y-67604761D01*
X93757142Y-67557142D01*
X93709523Y-67461904D01*
X93709523Y-67176190D01*
X93757142Y-67080952D01*
X93804761Y-67033333D01*
X93900000Y-66985714D01*
X94090476Y-66985714D01*
X94185714Y-67033333D01*
X95042857Y-67604761D02*
X94947619Y-67652380D01*
X94757142Y-67652380D01*
X94661904Y-67604761D01*
X94614285Y-67509523D01*
X94614285Y-67128571D01*
X94661904Y-67033333D01*
X94757142Y-66985714D01*
X94947619Y-66985714D01*
X95042857Y-67033333D01*
X95090476Y-67128571D01*
X95090476Y-67223809D01*
X94614285Y-67319047D01*
X95423809Y-67652380D02*
X95947619Y-66985714D01*
X95423809Y-66985714D02*
X95947619Y-67652380D01*
X97042857Y-67366666D02*
X97519047Y-67366666D01*
X96947619Y-67652380D02*
X97280952Y-66652380D01*
X97614285Y-67652380D01*
X98376190Y-67652380D02*
X98376190Y-66652380D01*
X98376190Y-67604761D02*
X98280952Y-67652380D01*
X98090476Y-67652380D01*
X97995238Y-67604761D01*
X97947619Y-67557142D01*
X97900000Y-67461904D01*
X97900000Y-67176190D01*
X97947619Y-67080952D01*
X97995238Y-67033333D01*
X98090476Y-66985714D01*
X98280952Y-66985714D01*
X98376190Y-67033333D01*
X99280952Y-67652380D02*
X99280952Y-66652380D01*
X99280952Y-67604761D02*
X99185714Y-67652380D01*
X98995238Y-67652380D01*
X98900000Y-67604761D01*
X98852380Y-67557142D01*
X98804761Y-67461904D01*
X98804761Y-67176190D01*
X98852380Y-67080952D01*
X98900000Y-67033333D01*
X98995238Y-66985714D01*
X99185714Y-66985714D01*
X99280952Y-67033333D01*
X100138095Y-67604761D02*
X100042857Y-67652380D01*
X99852380Y-67652380D01*
X99757142Y-67604761D01*
X99709523Y-67509523D01*
X99709523Y-67128571D01*
X99757142Y-67033333D01*
X99852380Y-66985714D01*
X100042857Y-66985714D01*
X100138095Y-67033333D01*
X100185714Y-67128571D01*
X100185714Y-67223809D01*
X99709523Y-67319047D01*
X100614285Y-67652380D02*
X100614285Y-66985714D01*
X100614285Y-67176190D02*
X100661904Y-67080952D01*
X100709523Y-67033333D01*
X100804761Y-66985714D01*
X100900000Y-66985714D01*
X102328571Y-67128571D02*
X102471428Y-67176190D01*
X102519047Y-67223809D01*
X102566666Y-67319047D01*
X102566666Y-67461904D01*
X102519047Y-67557142D01*
X102471428Y-67604761D01*
X102376190Y-67652380D01*
X101995238Y-67652380D01*
X101995238Y-66652380D01*
X102328571Y-66652380D01*
X102423809Y-66700000D01*
X102471428Y-66747619D01*
X102519047Y-66842857D01*
X102519047Y-66938095D01*
X102471428Y-67033333D01*
X102423809Y-67080952D01*
X102328571Y-67128571D01*
X101995238Y-67128571D01*
X103423809Y-66985714D02*
X103423809Y-67652380D01*
X102995238Y-66985714D02*
X102995238Y-67509523D01*
X103042857Y-67604761D01*
X103138095Y-67652380D01*
X103280952Y-67652380D01*
X103376190Y-67604761D01*
X103423809Y-67557142D01*
X103852380Y-67604761D02*
X103947619Y-67652380D01*
X104138095Y-67652380D01*
X104233333Y-67604761D01*
X104280952Y-67509523D01*
X104280952Y-67461904D01*
X104233333Y-67366666D01*
X104138095Y-67319047D01*
X103995238Y-67319047D01*
X103900000Y-67271428D01*
X103852380Y-67176190D01*
X103852380Y-67128571D01*
X103900000Y-67033333D01*
X103995238Y-66985714D01*
X104138095Y-66985714D01*
X104233333Y-67033333D01*
X105328571Y-66652380D02*
X105900000Y-66652380D01*
X105614285Y-67652380D02*
X105614285Y-66652380D01*
X106233333Y-67652380D02*
X106233333Y-66985714D01*
X106233333Y-67176190D02*
X106280952Y-67080952D01*
X106328571Y-67033333D01*
X106423809Y-66985714D01*
X106519047Y-66985714D01*
X107280952Y-67652380D02*
X107280952Y-67128571D01*
X107233333Y-67033333D01*
X107138095Y-66985714D01*
X106947619Y-66985714D01*
X106852380Y-67033333D01*
X107280952Y-67604761D02*
X107185714Y-67652380D01*
X106947619Y-67652380D01*
X106852380Y-67604761D01*
X106804761Y-67509523D01*
X106804761Y-67414285D01*
X106852380Y-67319047D01*
X106947619Y-67271428D01*
X107185714Y-67271428D01*
X107280952Y-67223809D01*
X107757142Y-66985714D02*
X107757142Y-67652380D01*
X107757142Y-67080952D02*
X107804761Y-67033333D01*
X107900000Y-66985714D01*
X108042857Y-66985714D01*
X108138095Y-67033333D01*
X108185714Y-67128571D01*
X108185714Y-67652380D01*
X108614285Y-67604761D02*
X108709523Y-67652380D01*
X108900000Y-67652380D01*
X108995238Y-67604761D01*
X109042857Y-67509523D01*
X109042857Y-67461904D01*
X108995238Y-67366666D01*
X108900000Y-67319047D01*
X108757142Y-67319047D01*
X108661904Y-67271428D01*
X108614285Y-67176190D01*
X108614285Y-67128571D01*
X108661904Y-67033333D01*
X108757142Y-66985714D01*
X108900000Y-66985714D01*
X108995238Y-67033333D01*
X109900000Y-67604761D02*
X109804761Y-67652380D01*
X109614285Y-67652380D01*
X109519047Y-67604761D01*
X109471428Y-67557142D01*
X109423809Y-67461904D01*
X109423809Y-67176190D01*
X109471428Y-67080952D01*
X109519047Y-67033333D01*
X109614285Y-66985714D01*
X109804761Y-66985714D01*
X109900000Y-67033333D01*
X110709523Y-67604761D02*
X110614285Y-67652380D01*
X110423809Y-67652380D01*
X110328571Y-67604761D01*
X110280952Y-67509523D01*
X110280952Y-67128571D01*
X110328571Y-67033333D01*
X110423809Y-66985714D01*
X110614285Y-66985714D01*
X110709523Y-67033333D01*
X110757142Y-67128571D01*
X110757142Y-67223809D01*
X110280952Y-67319047D01*
X111185714Y-67652380D02*
X111185714Y-66985714D01*
X111185714Y-66652380D02*
X111138095Y-66700000D01*
X111185714Y-66747619D01*
X111233333Y-66700000D01*
X111185714Y-66652380D01*
X111185714Y-66747619D01*
X111566666Y-66985714D02*
X111804761Y-67652380D01*
X112042857Y-66985714D01*
X112804761Y-67604761D02*
X112709523Y-67652380D01*
X112519047Y-67652380D01*
X112423809Y-67604761D01*
X112376190Y-67509523D01*
X112376190Y-67128571D01*
X112423809Y-67033333D01*
X112519047Y-66985714D01*
X112709523Y-66985714D01*
X112804761Y-67033333D01*
X112852380Y-67128571D01*
X112852380Y-67223809D01*
X112376190Y-67319047D01*
X113280952Y-67652380D02*
X113280952Y-66985714D01*
X113280952Y-67176190D02*
X113328571Y-67080952D01*
X113376190Y-67033333D01*
X113471428Y-66985714D01*
X113566666Y-66985714D01*
X127657142Y-119852380D02*
X127323809Y-119376190D01*
X127085714Y-119852380D02*
X127085714Y-118852380D01*
X127466666Y-118852380D01*
X127561904Y-118900000D01*
X127609523Y-118947619D01*
X127657142Y-119042857D01*
X127657142Y-119185714D01*
X127609523Y-119280952D01*
X127561904Y-119328571D01*
X127466666Y-119376190D01*
X127085714Y-119376190D01*
X128609523Y-119852380D02*
X128038095Y-119852380D01*
X128323809Y-119852380D02*
X128323809Y-118852380D01*
X128228571Y-118995238D01*
X128133333Y-119090476D01*
X128038095Y-119138095D01*
X129180952Y-119280952D02*
X129085714Y-119233333D01*
X129038095Y-119185714D01*
X128990476Y-119090476D01*
X128990476Y-119042857D01*
X129038095Y-118947619D01*
X129085714Y-118900000D01*
X129180952Y-118852380D01*
X129371428Y-118852380D01*
X129466666Y-118900000D01*
X129514285Y-118947619D01*
X129561904Y-119042857D01*
X129561904Y-119090476D01*
X129514285Y-119185714D01*
X129466666Y-119233333D01*
X129371428Y-119280952D01*
X129180952Y-119280952D01*
X129085714Y-119328571D01*
X129038095Y-119376190D01*
X128990476Y-119471428D01*
X128990476Y-119661904D01*
X129038095Y-119757142D01*
X129085714Y-119804761D01*
X129180952Y-119852380D01*
X129371428Y-119852380D01*
X129466666Y-119804761D01*
X129514285Y-119757142D01*
X129561904Y-119661904D01*
X129561904Y-119471428D01*
X129514285Y-119376190D01*
X129466666Y-119328571D01*
X129371428Y-119280952D01*
X127085714Y-123152380D02*
X127085714Y-122152380D01*
X127323809Y-122152380D01*
X127466666Y-122200000D01*
X127561904Y-122295238D01*
X127609523Y-122390476D01*
X127657142Y-122580952D01*
X127657142Y-122723809D01*
X127609523Y-122914285D01*
X127561904Y-123009523D01*
X127466666Y-123104761D01*
X127323809Y-123152380D01*
X127085714Y-123152380D01*
X128609523Y-123152380D02*
X128038095Y-123152380D01*
X128323809Y-123152380D02*
X128323809Y-122152380D01*
X128228571Y-122295238D01*
X128133333Y-122390476D01*
X128038095Y-122438095D01*
X129180952Y-122580952D02*
X129085714Y-122533333D01*
X129038095Y-122485714D01*
X128990476Y-122390476D01*
X128990476Y-122342857D01*
X129038095Y-122247619D01*
X129085714Y-122200000D01*
X129180952Y-122152380D01*
X129371428Y-122152380D01*
X129466666Y-122200000D01*
X129514285Y-122247619D01*
X129561904Y-122342857D01*
X129561904Y-122390476D01*
X129514285Y-122485714D01*
X129466666Y-122533333D01*
X129371428Y-122580952D01*
X129180952Y-122580952D01*
X129085714Y-122628571D01*
X129038095Y-122676190D01*
X128990476Y-122771428D01*
X128990476Y-122961904D01*
X129038095Y-123057142D01*
X129085714Y-123104761D01*
X129180952Y-123152380D01*
X129371428Y-123152380D01*
X129466666Y-123104761D01*
X129514285Y-123057142D01*
X129561904Y-122961904D01*
X129561904Y-122771428D01*
X129514285Y-122676190D01*
X129466666Y-122628571D01*
X129371428Y-122580952D01*
D14*
X121500000Y-124278571D02*
X121857142Y-125778571D01*
X122142857Y-124707142D01*
X122428571Y-125778571D01*
X122785714Y-124278571D01*
X124214285Y-125778571D02*
X123714285Y-125064285D01*
X123357142Y-125778571D02*
X123357142Y-124278571D01*
X123928571Y-124278571D01*
X124071428Y-124350000D01*
X124142857Y-124421428D01*
X124214285Y-124564285D01*
X124214285Y-124778571D01*
X124142857Y-124921428D01*
X124071428Y-124992857D01*
X123928571Y-125064285D01*
X123357142Y-125064285D01*
X124857142Y-125778571D02*
X124857142Y-124278571D01*
X125357142Y-124278571D02*
X126214285Y-124278571D01*
X125785714Y-125778571D02*
X125785714Y-124278571D01*
X126714285Y-124992857D02*
X127214285Y-124992857D01*
X127428571Y-125778571D02*
X126714285Y-125778571D01*
X126714285Y-124278571D01*
X127428571Y-124278571D01*
D10*
X127357142Y-63852380D02*
X127023809Y-63376190D01*
X126785714Y-63852380D02*
X126785714Y-62852380D01*
X127166666Y-62852380D01*
X127261904Y-62900000D01*
X127309523Y-62947619D01*
X127357142Y-63042857D01*
X127357142Y-63185714D01*
X127309523Y-63280952D01*
X127261904Y-63328571D01*
X127166666Y-63376190D01*
X126785714Y-63376190D01*
X128309523Y-63852380D02*
X127738095Y-63852380D01*
X128023809Y-63852380D02*
X128023809Y-62852380D01*
X127928571Y-62995238D01*
X127833333Y-63090476D01*
X127738095Y-63138095D01*
X128642857Y-62852380D02*
X129309523Y-62852380D01*
X128880952Y-63852380D01*
X126660714Y-60452380D02*
X126660714Y-59452380D01*
X126898809Y-59452380D01*
X127041666Y-59500000D01*
X127136904Y-59595238D01*
X127184523Y-59690476D01*
X127232142Y-59880952D01*
X127232142Y-60023809D01*
X127184523Y-60214285D01*
X127136904Y-60309523D01*
X127041666Y-60404761D01*
X126898809Y-60452380D01*
X126660714Y-60452380D01*
X128184523Y-60452380D02*
X127613095Y-60452380D01*
X127898809Y-60452380D02*
X127898809Y-59452380D01*
X127803571Y-59595238D01*
X127708333Y-59690476D01*
X127613095Y-59738095D01*
X128517857Y-59452380D02*
X129184523Y-59452380D01*
X128755952Y-60452380D01*
D14*
X122967857Y-57878571D02*
X122467857Y-57164285D01*
X122110714Y-57878571D02*
X122110714Y-56378571D01*
X122682142Y-56378571D01*
X122825000Y-56450000D01*
X122896428Y-56521428D01*
X122967857Y-56664285D01*
X122967857Y-56878571D01*
X122896428Y-57021428D01*
X122825000Y-57092857D01*
X122682142Y-57164285D01*
X122110714Y-57164285D01*
X123610714Y-57092857D02*
X124110714Y-57092857D01*
X124325000Y-57878571D02*
X123610714Y-57878571D01*
X123610714Y-56378571D01*
X124325000Y-56378571D01*
X124896428Y-57450000D02*
X125610714Y-57450000D01*
X124753571Y-57878571D02*
X125253571Y-56378571D01*
X125753571Y-57878571D01*
X126253571Y-57878571D02*
X126253571Y-56378571D01*
X126610714Y-56378571D01*
X126825000Y-56450000D01*
X126967857Y-56592857D01*
X127039285Y-56735714D01*
X127110714Y-57021428D01*
X127110714Y-57235714D01*
X127039285Y-57521428D01*
X126967857Y-57664285D01*
X126825000Y-57807142D01*
X126610714Y-57878571D01*
X126253571Y-57878571D01*
D10*
X96828095Y-99982380D02*
X96828095Y-100791904D01*
X96875714Y-100887142D01*
X96923333Y-100934761D01*
X97018571Y-100982380D01*
X97209047Y-100982380D01*
X97304285Y-100934761D01*
X97351904Y-100887142D01*
X97399523Y-100791904D01*
X97399523Y-99982380D01*
X98304285Y-100315714D02*
X98304285Y-100982380D01*
X98066190Y-99934761D02*
X97828095Y-100649047D01*
X98447142Y-100649047D01*
X94470952Y-77542380D02*
X95137619Y-77542380D01*
X94709047Y-78542380D01*
X95947142Y-77875714D02*
X95947142Y-78542380D01*
X95709047Y-77494761D02*
X95470952Y-78209047D01*
X96090000Y-78209047D01*
X96947142Y-78542380D02*
X96470952Y-78542380D01*
X96470952Y-77542380D01*
X97232857Y-78494761D02*
X97375714Y-78542380D01*
X97613809Y-78542380D01*
X97709047Y-78494761D01*
X97756666Y-78447142D01*
X97804285Y-78351904D01*
X97804285Y-78256666D01*
X97756666Y-78161428D01*
X97709047Y-78113809D01*
X97613809Y-78066190D01*
X97423333Y-78018571D01*
X97328095Y-77970952D01*
X97280476Y-77923333D01*
X97232857Y-77828095D01*
X97232857Y-77732857D01*
X97280476Y-77637619D01*
X97328095Y-77590000D01*
X97423333Y-77542380D01*
X97661428Y-77542380D01*
X97804285Y-77590000D01*
X98185238Y-77637619D02*
X98232857Y-77590000D01*
X98328095Y-77542380D01*
X98566190Y-77542380D01*
X98661428Y-77590000D01*
X98709047Y-77637619D01*
X98756666Y-77732857D01*
X98756666Y-77828095D01*
X98709047Y-77970952D01*
X98137619Y-78542380D01*
X98756666Y-78542380D01*
X99328095Y-77970952D02*
X99232857Y-77923333D01*
X99185238Y-77875714D01*
X99137619Y-77780476D01*
X99137619Y-77732857D01*
X99185238Y-77637619D01*
X99232857Y-77590000D01*
X99328095Y-77542380D01*
X99518571Y-77542380D01*
X99613809Y-77590000D01*
X99661428Y-77637619D01*
X99709047Y-77732857D01*
X99709047Y-77780476D01*
X99661428Y-77875714D01*
X99613809Y-77923333D01*
X99518571Y-77970952D01*
X99328095Y-77970952D01*
X99232857Y-78018571D01*
X99185238Y-78066190D01*
X99137619Y-78161428D01*
X99137619Y-78351904D01*
X99185238Y-78447142D01*
X99232857Y-78494761D01*
X99328095Y-78542380D01*
X99518571Y-78542380D01*
X99613809Y-78494761D01*
X99661428Y-78447142D01*
X99709047Y-78351904D01*
X99709047Y-78161428D01*
X99661428Y-78066190D01*
X99613809Y-78018571D01*
X99518571Y-77970952D01*
X100042380Y-77542380D02*
X100661428Y-77542380D01*
X100328095Y-77923333D01*
X100470952Y-77923333D01*
X100566190Y-77970952D01*
X100613809Y-78018571D01*
X100661428Y-78113809D01*
X100661428Y-78351904D01*
X100613809Y-78447142D01*
X100566190Y-78494761D01*
X100470952Y-78542380D01*
X100185238Y-78542380D01*
X100090000Y-78494761D01*
X100042380Y-78447142D01*
X104052380Y-93180952D02*
X103052380Y-93180952D01*
X103528571Y-93180952D02*
X103528571Y-92609523D01*
X104052380Y-92609523D02*
X103052380Y-92609523D01*
X104052380Y-92133333D02*
X103385714Y-92133333D01*
X103052380Y-92133333D02*
X103100000Y-92180952D01*
X103147619Y-92133333D01*
X103100000Y-92085714D01*
X103052380Y-92133333D01*
X103147619Y-92133333D01*
X103385714Y-91228571D02*
X104195238Y-91228571D01*
X104290476Y-91276190D01*
X104338095Y-91323809D01*
X104385714Y-91419047D01*
X104385714Y-91561904D01*
X104338095Y-91657142D01*
X104004761Y-91228571D02*
X104052380Y-91323809D01*
X104052380Y-91514285D01*
X104004761Y-91609523D01*
X103957142Y-91657142D01*
X103861904Y-91704761D01*
X103576190Y-91704761D01*
X103480952Y-91657142D01*
X103433333Y-91609523D01*
X103385714Y-91514285D01*
X103385714Y-91323809D01*
X103433333Y-91228571D01*
X104052380Y-90752380D02*
X103052380Y-90752380D01*
X104052380Y-90323809D02*
X103528571Y-90323809D01*
X103433333Y-90371428D01*
X103385714Y-90466666D01*
X103385714Y-90609523D01*
X103433333Y-90704761D01*
X103480952Y-90752380D01*
X103766666Y-89133333D02*
X103766666Y-88657142D01*
X104052380Y-89228571D02*
X103052380Y-88895238D01*
X104052380Y-88561904D01*
X104052380Y-87800000D02*
X103052380Y-87800000D01*
X104004761Y-87800000D02*
X104052380Y-87895238D01*
X104052380Y-88085714D01*
X104004761Y-88180952D01*
X103957142Y-88228571D01*
X103861904Y-88276190D01*
X103576190Y-88276190D01*
X103480952Y-88228571D01*
X103433333Y-88180952D01*
X103385714Y-88085714D01*
X103385714Y-87895238D01*
X103433333Y-87800000D01*
X104052380Y-86895238D02*
X103052380Y-86895238D01*
X104004761Y-86895238D02*
X104052380Y-86990476D01*
X104052380Y-87180952D01*
X104004761Y-87276190D01*
X103957142Y-87323809D01*
X103861904Y-87371428D01*
X103576190Y-87371428D01*
X103480952Y-87323809D01*
X103433333Y-87276190D01*
X103385714Y-87180952D01*
X103385714Y-86990476D01*
X103433333Y-86895238D01*
X104004761Y-86038095D02*
X104052380Y-86133333D01*
X104052380Y-86323809D01*
X104004761Y-86419047D01*
X103909523Y-86466666D01*
X103528571Y-86466666D01*
X103433333Y-86419047D01*
X103385714Y-86323809D01*
X103385714Y-86133333D01*
X103433333Y-86038095D01*
X103528571Y-85990476D01*
X103623809Y-85990476D01*
X103719047Y-86466666D01*
X104052380Y-85561904D02*
X103385714Y-85561904D01*
X103576190Y-85561904D02*
X103480952Y-85514285D01*
X103433333Y-85466666D01*
X103385714Y-85371428D01*
X103385714Y-85276190D01*
X113228095Y-99982380D02*
X113228095Y-100791904D01*
X113275714Y-100887142D01*
X113323333Y-100934761D01*
X113418571Y-100982380D01*
X113609047Y-100982380D01*
X113704285Y-100934761D01*
X113751904Y-100887142D01*
X113799523Y-100791904D01*
X113799523Y-99982380D01*
X114180476Y-99982380D02*
X114799523Y-99982380D01*
X114466190Y-100363333D01*
X114609047Y-100363333D01*
X114704285Y-100410952D01*
X114751904Y-100458571D01*
X114799523Y-100553809D01*
X114799523Y-100791904D01*
X114751904Y-100887142D01*
X114704285Y-100934761D01*
X114609047Y-100982380D01*
X114323333Y-100982380D01*
X114228095Y-100934761D01*
X114180476Y-100887142D01*
X110870952Y-77542380D02*
X111537619Y-77542380D01*
X111109047Y-78542380D01*
X112347142Y-77875714D02*
X112347142Y-78542380D01*
X112109047Y-77494761D02*
X111870952Y-78209047D01*
X112490000Y-78209047D01*
X113347142Y-78542380D02*
X112870952Y-78542380D01*
X112870952Y-77542380D01*
X113632857Y-78494761D02*
X113775714Y-78542380D01*
X114013809Y-78542380D01*
X114109047Y-78494761D01*
X114156666Y-78447142D01*
X114204285Y-78351904D01*
X114204285Y-78256666D01*
X114156666Y-78161428D01*
X114109047Y-78113809D01*
X114013809Y-78066190D01*
X113823333Y-78018571D01*
X113728095Y-77970952D01*
X113680476Y-77923333D01*
X113632857Y-77828095D01*
X113632857Y-77732857D01*
X113680476Y-77637619D01*
X113728095Y-77590000D01*
X113823333Y-77542380D01*
X114061428Y-77542380D01*
X114204285Y-77590000D01*
X114585238Y-77637619D02*
X114632857Y-77590000D01*
X114728095Y-77542380D01*
X114966190Y-77542380D01*
X115061428Y-77590000D01*
X115109047Y-77637619D01*
X115156666Y-77732857D01*
X115156666Y-77828095D01*
X115109047Y-77970952D01*
X114537619Y-78542380D01*
X115156666Y-78542380D01*
X115728095Y-77970952D02*
X115632857Y-77923333D01*
X115585238Y-77875714D01*
X115537619Y-77780476D01*
X115537619Y-77732857D01*
X115585238Y-77637619D01*
X115632857Y-77590000D01*
X115728095Y-77542380D01*
X115918571Y-77542380D01*
X116013809Y-77590000D01*
X116061428Y-77637619D01*
X116109047Y-77732857D01*
X116109047Y-77780476D01*
X116061428Y-77875714D01*
X116013809Y-77923333D01*
X115918571Y-77970952D01*
X115728095Y-77970952D01*
X115632857Y-78018571D01*
X115585238Y-78066190D01*
X115537619Y-78161428D01*
X115537619Y-78351904D01*
X115585238Y-78447142D01*
X115632857Y-78494761D01*
X115728095Y-78542380D01*
X115918571Y-78542380D01*
X116013809Y-78494761D01*
X116061428Y-78447142D01*
X116109047Y-78351904D01*
X116109047Y-78161428D01*
X116061428Y-78066190D01*
X116013809Y-78018571D01*
X115918571Y-77970952D01*
X116442380Y-77542380D02*
X117061428Y-77542380D01*
X116728095Y-77923333D01*
X116870952Y-77923333D01*
X116966190Y-77970952D01*
X117013809Y-78018571D01*
X117061428Y-78113809D01*
X117061428Y-78351904D01*
X117013809Y-78447142D01*
X116966190Y-78494761D01*
X116870952Y-78542380D01*
X116585238Y-78542380D01*
X116490000Y-78494761D01*
X116442380Y-78447142D01*
X120352380Y-92419047D02*
X120352380Y-92895238D01*
X119352380Y-92895238D01*
X120352380Y-91942857D02*
X120304761Y-92038095D01*
X120257142Y-92085714D01*
X120161904Y-92133333D01*
X119876190Y-92133333D01*
X119780952Y-92085714D01*
X119733333Y-92038095D01*
X119685714Y-91942857D01*
X119685714Y-91800000D01*
X119733333Y-91704761D01*
X119780952Y-91657142D01*
X119876190Y-91609523D01*
X120161904Y-91609523D01*
X120257142Y-91657142D01*
X120304761Y-91704761D01*
X120352380Y-91800000D01*
X120352380Y-91942857D01*
X119685714Y-91276190D02*
X120352380Y-91085714D01*
X119876190Y-90895238D01*
X120352380Y-90704761D01*
X119685714Y-90514285D01*
X120066666Y-89419047D02*
X120066666Y-88942857D01*
X120352380Y-89514285D02*
X119352380Y-89180952D01*
X120352380Y-88847619D01*
X120352380Y-88085714D02*
X119352380Y-88085714D01*
X120304761Y-88085714D02*
X120352380Y-88180952D01*
X120352380Y-88371428D01*
X120304761Y-88466666D01*
X120257142Y-88514285D01*
X120161904Y-88561904D01*
X119876190Y-88561904D01*
X119780952Y-88514285D01*
X119733333Y-88466666D01*
X119685714Y-88371428D01*
X119685714Y-88180952D01*
X119733333Y-88085714D01*
X120352380Y-87180952D02*
X119352380Y-87180952D01*
X120304761Y-87180952D02*
X120352380Y-87276190D01*
X120352380Y-87466666D01*
X120304761Y-87561904D01*
X120257142Y-87609523D01*
X120161904Y-87657142D01*
X119876190Y-87657142D01*
X119780952Y-87609523D01*
X119733333Y-87561904D01*
X119685714Y-87466666D01*
X119685714Y-87276190D01*
X119733333Y-87180952D01*
X120304761Y-86323809D02*
X120352380Y-86419047D01*
X120352380Y-86609523D01*
X120304761Y-86704761D01*
X120209523Y-86752380D01*
X119828571Y-86752380D01*
X119733333Y-86704761D01*
X119685714Y-86609523D01*
X119685714Y-86419047D01*
X119733333Y-86323809D01*
X119828571Y-86276190D01*
X119923809Y-86276190D01*
X120019047Y-86752380D01*
X120352380Y-85847619D02*
X119685714Y-85847619D01*
X119876190Y-85847619D02*
X119780952Y-85800000D01*
X119733333Y-85752380D01*
X119685714Y-85657142D01*
X119685714Y-85561904D01*
X136922380Y-128851904D02*
X137731904Y-128851904D01*
X137827142Y-128804285D01*
X137874761Y-128756666D01*
X137922380Y-128661428D01*
X137922380Y-128470952D01*
X137874761Y-128375714D01*
X137827142Y-128328095D01*
X137731904Y-128280476D01*
X136922380Y-128280476D01*
X136922380Y-127328095D02*
X136922380Y-127804285D01*
X137398571Y-127851904D01*
X137350952Y-127804285D01*
X137303333Y-127709047D01*
X137303333Y-127470952D01*
X137350952Y-127375714D01*
X137398571Y-127328095D01*
X137493809Y-127280476D01*
X137731904Y-127280476D01*
X137827142Y-127328095D01*
X137874761Y-127375714D01*
X137922380Y-127470952D01*
X137922380Y-127709047D01*
X137874761Y-127804285D01*
X137827142Y-127851904D01*
X159362380Y-131732857D02*
X159362380Y-131066190D01*
X160362380Y-131494761D01*
X159695714Y-130256666D02*
X160362380Y-130256666D01*
X159314761Y-130494761D02*
X160029047Y-130732857D01*
X160029047Y-130113809D01*
X160362380Y-129732857D02*
X159362380Y-129732857D01*
X159838571Y-129732857D02*
X159838571Y-129161428D01*
X160362380Y-129161428D02*
X159362380Y-129161428D01*
X160267142Y-128113809D02*
X160314761Y-128161428D01*
X160362380Y-128304285D01*
X160362380Y-128399523D01*
X160314761Y-128542380D01*
X160219523Y-128637619D01*
X160124285Y-128685238D01*
X159933809Y-128732857D01*
X159790952Y-128732857D01*
X159600476Y-128685238D01*
X159505238Y-128637619D01*
X159410000Y-128542380D01*
X159362380Y-128399523D01*
X159362380Y-128304285D01*
X159410000Y-128161428D01*
X159457619Y-128113809D01*
X159362380Y-127828095D02*
X159362380Y-127256666D01*
X160362380Y-127542380D02*
X159362380Y-127542380D01*
X160362380Y-126399523D02*
X160362380Y-126970952D01*
X160362380Y-126685238D02*
X159362380Y-126685238D01*
X159505238Y-126780476D01*
X159600476Y-126875714D01*
X159648095Y-126970952D01*
X159362380Y-126066190D02*
X159362380Y-125447142D01*
X159743333Y-125780476D01*
X159743333Y-125637619D01*
X159790952Y-125542380D01*
X159838571Y-125494761D01*
X159933809Y-125447142D01*
X160171904Y-125447142D01*
X160267142Y-125494761D01*
X160314761Y-125542380D01*
X160362380Y-125637619D01*
X160362380Y-125923333D01*
X160314761Y-126018571D01*
X160267142Y-126066190D01*
X159790952Y-124875714D02*
X159743333Y-124970952D01*
X159695714Y-125018571D01*
X159600476Y-125066190D01*
X159552857Y-125066190D01*
X159457619Y-125018571D01*
X159410000Y-124970952D01*
X159362380Y-124875714D01*
X159362380Y-124685238D01*
X159410000Y-124590000D01*
X159457619Y-124542380D01*
X159552857Y-124494761D01*
X159600476Y-124494761D01*
X159695714Y-124542380D01*
X159743333Y-124590000D01*
X159790952Y-124685238D01*
X159790952Y-124875714D01*
X159838571Y-124970952D01*
X159886190Y-125018571D01*
X159981428Y-125066190D01*
X160171904Y-125066190D01*
X160267142Y-125018571D01*
X160314761Y-124970952D01*
X160362380Y-124875714D01*
X160362380Y-124685238D01*
X160314761Y-124590000D01*
X160267142Y-124542380D01*
X160171904Y-124494761D01*
X159981428Y-124494761D01*
X159886190Y-124542380D01*
X159838571Y-124590000D01*
X159790952Y-124685238D01*
X142533333Y-121652380D02*
X143152380Y-121652380D01*
X142819047Y-122033333D01*
X142961904Y-122033333D01*
X143057142Y-122080952D01*
X143104761Y-122128571D01*
X143152380Y-122223809D01*
X143152380Y-122461904D01*
X143104761Y-122557142D01*
X143057142Y-122604761D01*
X142961904Y-122652380D01*
X142676190Y-122652380D01*
X142580952Y-122604761D01*
X142533333Y-122557142D01*
X143580952Y-122271428D02*
X144342857Y-122271428D01*
X144676190Y-121985714D02*
X145057142Y-121985714D01*
X144819047Y-121652380D02*
X144819047Y-122509523D01*
X144866666Y-122604761D01*
X144961904Y-122652380D01*
X145057142Y-122652380D01*
X145533333Y-122652380D02*
X145438095Y-122604761D01*
X145390476Y-122557142D01*
X145342857Y-122461904D01*
X145342857Y-122176190D01*
X145390476Y-122080952D01*
X145438095Y-122033333D01*
X145533333Y-121985714D01*
X145676190Y-121985714D01*
X145771428Y-122033333D01*
X145819047Y-122080952D01*
X145866666Y-122176190D01*
X145866666Y-122461904D01*
X145819047Y-122557142D01*
X145771428Y-122604761D01*
X145676190Y-122652380D01*
X145533333Y-122652380D01*
X146295238Y-122271428D02*
X147057142Y-122271428D01*
X147676190Y-122080952D02*
X147580952Y-122033333D01*
X147533333Y-121985714D01*
X147485714Y-121890476D01*
X147485714Y-121842857D01*
X147533333Y-121747619D01*
X147580952Y-121700000D01*
X147676190Y-121652380D01*
X147866666Y-121652380D01*
X147961904Y-121700000D01*
X148009523Y-121747619D01*
X148057142Y-121842857D01*
X148057142Y-121890476D01*
X148009523Y-121985714D01*
X147961904Y-122033333D01*
X147866666Y-122080952D01*
X147676190Y-122080952D01*
X147580952Y-122128571D01*
X147533333Y-122176190D01*
X147485714Y-122271428D01*
X147485714Y-122461904D01*
X147533333Y-122557142D01*
X147580952Y-122604761D01*
X147676190Y-122652380D01*
X147866666Y-122652380D01*
X147961904Y-122604761D01*
X148009523Y-122557142D01*
X148057142Y-122461904D01*
X148057142Y-122271428D01*
X148009523Y-122176190D01*
X147961904Y-122128571D01*
X147866666Y-122080952D01*
X149247619Y-122652380D02*
X149247619Y-121652380D01*
X149485714Y-121652380D01*
X149628571Y-121700000D01*
X149723809Y-121795238D01*
X149771428Y-121890476D01*
X149819047Y-122080952D01*
X149819047Y-122223809D01*
X149771428Y-122414285D01*
X149723809Y-122509523D01*
X149628571Y-122604761D01*
X149485714Y-122652380D01*
X149247619Y-122652380D01*
X150628571Y-122604761D02*
X150533333Y-122652380D01*
X150342857Y-122652380D01*
X150247619Y-122604761D01*
X150200000Y-122509523D01*
X150200000Y-122128571D01*
X150247619Y-122033333D01*
X150342857Y-121985714D01*
X150533333Y-121985714D01*
X150628571Y-122033333D01*
X150676190Y-122128571D01*
X150676190Y-122223809D01*
X150200000Y-122319047D01*
X151533333Y-122604761D02*
X151438095Y-122652380D01*
X151247619Y-122652380D01*
X151152380Y-122604761D01*
X151104761Y-122557142D01*
X151057142Y-122461904D01*
X151057142Y-122176190D01*
X151104761Y-122080952D01*
X151152380Y-122033333D01*
X151247619Y-121985714D01*
X151438095Y-121985714D01*
X151533333Y-122033333D01*
X152104761Y-122652380D02*
X152009523Y-122604761D01*
X151961904Y-122557142D01*
X151914285Y-122461904D01*
X151914285Y-122176190D01*
X151961904Y-122080952D01*
X152009523Y-122033333D01*
X152104761Y-121985714D01*
X152247619Y-121985714D01*
X152342857Y-122033333D01*
X152390476Y-122080952D01*
X152438095Y-122176190D01*
X152438095Y-122461904D01*
X152390476Y-122557142D01*
X152342857Y-122604761D01*
X152247619Y-122652380D01*
X152104761Y-122652380D01*
X153295238Y-122652380D02*
X153295238Y-121652380D01*
X153295238Y-122604761D02*
X153200000Y-122652380D01*
X153009523Y-122652380D01*
X152914285Y-122604761D01*
X152866666Y-122557142D01*
X152819047Y-122461904D01*
X152819047Y-122176190D01*
X152866666Y-122080952D01*
X152914285Y-122033333D01*
X153009523Y-121985714D01*
X153200000Y-121985714D01*
X153295238Y-122033333D01*
X154152380Y-122604761D02*
X154057142Y-122652380D01*
X153866666Y-122652380D01*
X153771428Y-122604761D01*
X153723809Y-122509523D01*
X153723809Y-122128571D01*
X153771428Y-122033333D01*
X153866666Y-121985714D01*
X154057142Y-121985714D01*
X154152380Y-122033333D01*
X154200000Y-122128571D01*
X154200000Y-122223809D01*
X153723809Y-122319047D01*
X154628571Y-122652380D02*
X154628571Y-121985714D01*
X154628571Y-122176190D02*
X154676190Y-122080952D01*
X154723809Y-122033333D01*
X154819047Y-121985714D01*
X154914285Y-121985714D01*
X136822380Y-55751904D02*
X137631904Y-55751904D01*
X137727142Y-55704285D01*
X137774761Y-55656666D01*
X137822380Y-55561428D01*
X137822380Y-55370952D01*
X137774761Y-55275714D01*
X137727142Y-55228095D01*
X137631904Y-55180476D01*
X136822380Y-55180476D01*
X136822380Y-54275714D02*
X136822380Y-54466190D01*
X136870000Y-54561428D01*
X136917619Y-54609047D01*
X137060476Y-54704285D01*
X137250952Y-54751904D01*
X137631904Y-54751904D01*
X137727142Y-54704285D01*
X137774761Y-54656666D01*
X137822380Y-54561428D01*
X137822380Y-54370952D01*
X137774761Y-54275714D01*
X137727142Y-54228095D01*
X137631904Y-54180476D01*
X137393809Y-54180476D01*
X137298571Y-54228095D01*
X137250952Y-54275714D01*
X137203333Y-54370952D01*
X137203333Y-54561428D01*
X137250952Y-54656666D01*
X137298571Y-54704285D01*
X137393809Y-54751904D01*
X159262380Y-58632857D02*
X159262380Y-57966190D01*
X160262380Y-58394761D01*
X159595714Y-57156666D02*
X160262380Y-57156666D01*
X159214761Y-57394761D02*
X159929047Y-57632857D01*
X159929047Y-57013809D01*
X160262380Y-56632857D02*
X159262380Y-56632857D01*
X159738571Y-56632857D02*
X159738571Y-56061428D01*
X160262380Y-56061428D02*
X159262380Y-56061428D01*
X160167142Y-55013809D02*
X160214761Y-55061428D01*
X160262380Y-55204285D01*
X160262380Y-55299523D01*
X160214761Y-55442380D01*
X160119523Y-55537619D01*
X160024285Y-55585238D01*
X159833809Y-55632857D01*
X159690952Y-55632857D01*
X159500476Y-55585238D01*
X159405238Y-55537619D01*
X159310000Y-55442380D01*
X159262380Y-55299523D01*
X159262380Y-55204285D01*
X159310000Y-55061428D01*
X159357619Y-55013809D01*
X159262380Y-54728095D02*
X159262380Y-54156666D01*
X160262380Y-54442380D02*
X159262380Y-54442380D01*
X160262380Y-53299523D02*
X160262380Y-53870952D01*
X160262380Y-53585238D02*
X159262380Y-53585238D01*
X159405238Y-53680476D01*
X159500476Y-53775714D01*
X159548095Y-53870952D01*
X159262380Y-52966190D02*
X159262380Y-52347142D01*
X159643333Y-52680476D01*
X159643333Y-52537619D01*
X159690952Y-52442380D01*
X159738571Y-52394761D01*
X159833809Y-52347142D01*
X160071904Y-52347142D01*
X160167142Y-52394761D01*
X160214761Y-52442380D01*
X160262380Y-52537619D01*
X160262380Y-52823333D01*
X160214761Y-52918571D01*
X160167142Y-52966190D01*
X159690952Y-51775714D02*
X159643333Y-51870952D01*
X159595714Y-51918571D01*
X159500476Y-51966190D01*
X159452857Y-51966190D01*
X159357619Y-51918571D01*
X159310000Y-51870952D01*
X159262380Y-51775714D01*
X159262380Y-51585238D01*
X159310000Y-51490000D01*
X159357619Y-51442380D01*
X159452857Y-51394761D01*
X159500476Y-51394761D01*
X159595714Y-51442380D01*
X159643333Y-51490000D01*
X159690952Y-51585238D01*
X159690952Y-51775714D01*
X159738571Y-51870952D01*
X159786190Y-51918571D01*
X159881428Y-51966190D01*
X160071904Y-51966190D01*
X160167142Y-51918571D01*
X160214761Y-51870952D01*
X160262380Y-51775714D01*
X160262380Y-51585238D01*
X160214761Y-51490000D01*
X160167142Y-51442380D01*
X160071904Y-51394761D01*
X159881428Y-51394761D01*
X159786190Y-51442380D01*
X159738571Y-51490000D01*
X159690952Y-51585238D01*
X142433333Y-60152380D02*
X143052380Y-60152380D01*
X142719047Y-60533333D01*
X142861904Y-60533333D01*
X142957142Y-60580952D01*
X143004761Y-60628571D01*
X143052380Y-60723809D01*
X143052380Y-60961904D01*
X143004761Y-61057142D01*
X142957142Y-61104761D01*
X142861904Y-61152380D01*
X142576190Y-61152380D01*
X142480952Y-61104761D01*
X142433333Y-61057142D01*
X143480952Y-60771428D02*
X144242857Y-60771428D01*
X144576190Y-60485714D02*
X144957142Y-60485714D01*
X144719047Y-60152380D02*
X144719047Y-61009523D01*
X144766666Y-61104761D01*
X144861904Y-61152380D01*
X144957142Y-61152380D01*
X145433333Y-61152380D02*
X145338095Y-61104761D01*
X145290476Y-61057142D01*
X145242857Y-60961904D01*
X145242857Y-60676190D01*
X145290476Y-60580952D01*
X145338095Y-60533333D01*
X145433333Y-60485714D01*
X145576190Y-60485714D01*
X145671428Y-60533333D01*
X145719047Y-60580952D01*
X145766666Y-60676190D01*
X145766666Y-60961904D01*
X145719047Y-61057142D01*
X145671428Y-61104761D01*
X145576190Y-61152380D01*
X145433333Y-61152380D01*
X146195238Y-60771428D02*
X146957142Y-60771428D01*
X147576190Y-60580952D02*
X147480952Y-60533333D01*
X147433333Y-60485714D01*
X147385714Y-60390476D01*
X147385714Y-60342857D01*
X147433333Y-60247619D01*
X147480952Y-60200000D01*
X147576190Y-60152380D01*
X147766666Y-60152380D01*
X147861904Y-60200000D01*
X147909523Y-60247619D01*
X147957142Y-60342857D01*
X147957142Y-60390476D01*
X147909523Y-60485714D01*
X147861904Y-60533333D01*
X147766666Y-60580952D01*
X147576190Y-60580952D01*
X147480952Y-60628571D01*
X147433333Y-60676190D01*
X147385714Y-60771428D01*
X147385714Y-60961904D01*
X147433333Y-61057142D01*
X147480952Y-61104761D01*
X147576190Y-61152380D01*
X147766666Y-61152380D01*
X147861904Y-61104761D01*
X147909523Y-61057142D01*
X147957142Y-60961904D01*
X147957142Y-60771428D01*
X147909523Y-60676190D01*
X147861904Y-60628571D01*
X147766666Y-60580952D01*
X149147619Y-61152380D02*
X149147619Y-60152380D01*
X149385714Y-60152380D01*
X149528571Y-60200000D01*
X149623809Y-60295238D01*
X149671428Y-60390476D01*
X149719047Y-60580952D01*
X149719047Y-60723809D01*
X149671428Y-60914285D01*
X149623809Y-61009523D01*
X149528571Y-61104761D01*
X149385714Y-61152380D01*
X149147619Y-61152380D01*
X150528571Y-61104761D02*
X150433333Y-61152380D01*
X150242857Y-61152380D01*
X150147619Y-61104761D01*
X150100000Y-61009523D01*
X150100000Y-60628571D01*
X150147619Y-60533333D01*
X150242857Y-60485714D01*
X150433333Y-60485714D01*
X150528571Y-60533333D01*
X150576190Y-60628571D01*
X150576190Y-60723809D01*
X150100000Y-60819047D01*
X151433333Y-61104761D02*
X151338095Y-61152380D01*
X151147619Y-61152380D01*
X151052380Y-61104761D01*
X151004761Y-61057142D01*
X150957142Y-60961904D01*
X150957142Y-60676190D01*
X151004761Y-60580952D01*
X151052380Y-60533333D01*
X151147619Y-60485714D01*
X151338095Y-60485714D01*
X151433333Y-60533333D01*
X152004761Y-61152380D02*
X151909523Y-61104761D01*
X151861904Y-61057142D01*
X151814285Y-60961904D01*
X151814285Y-60676190D01*
X151861904Y-60580952D01*
X151909523Y-60533333D01*
X152004761Y-60485714D01*
X152147619Y-60485714D01*
X152242857Y-60533333D01*
X152290476Y-60580952D01*
X152338095Y-60676190D01*
X152338095Y-60961904D01*
X152290476Y-61057142D01*
X152242857Y-61104761D01*
X152147619Y-61152380D01*
X152004761Y-61152380D01*
X153195238Y-61152380D02*
X153195238Y-60152380D01*
X153195238Y-61104761D02*
X153100000Y-61152380D01*
X152909523Y-61152380D01*
X152814285Y-61104761D01*
X152766666Y-61057142D01*
X152719047Y-60961904D01*
X152719047Y-60676190D01*
X152766666Y-60580952D01*
X152814285Y-60533333D01*
X152909523Y-60485714D01*
X153100000Y-60485714D01*
X153195238Y-60533333D01*
X154052380Y-61104761D02*
X153957142Y-61152380D01*
X153766666Y-61152380D01*
X153671428Y-61104761D01*
X153623809Y-61009523D01*
X153623809Y-60628571D01*
X153671428Y-60533333D01*
X153766666Y-60485714D01*
X153957142Y-60485714D01*
X154052380Y-60533333D01*
X154100000Y-60628571D01*
X154100000Y-60723809D01*
X153623809Y-60819047D01*
X154528571Y-61152380D02*
X154528571Y-60485714D01*
X154528571Y-60676190D02*
X154576190Y-60580952D01*
X154623809Y-60533333D01*
X154719047Y-60485714D01*
X154814285Y-60485714D01*
X92357142Y-102666666D02*
X92404761Y-102714285D01*
X92452380Y-102857142D01*
X92452380Y-102952380D01*
X92404761Y-103095238D01*
X92309523Y-103190476D01*
X92214285Y-103238095D01*
X92023809Y-103285714D01*
X91880952Y-103285714D01*
X91690476Y-103238095D01*
X91595238Y-103190476D01*
X91500000Y-103095238D01*
X91452380Y-102952380D01*
X91452380Y-102857142D01*
X91500000Y-102714285D01*
X91547619Y-102666666D01*
X91785714Y-101809523D02*
X92452380Y-101809523D01*
X91404761Y-102047619D02*
X92119047Y-102285714D01*
X92119047Y-101666666D01*
X108877142Y-102666666D02*
X108924761Y-102714285D01*
X108972380Y-102857142D01*
X108972380Y-102952380D01*
X108924761Y-103095238D01*
X108829523Y-103190476D01*
X108734285Y-103238095D01*
X108543809Y-103285714D01*
X108400952Y-103285714D01*
X108210476Y-103238095D01*
X108115238Y-103190476D01*
X108020000Y-103095238D01*
X107972380Y-102952380D01*
X107972380Y-102857142D01*
X108020000Y-102714285D01*
X108067619Y-102666666D01*
X107972380Y-102333333D02*
X107972380Y-101714285D01*
X108353333Y-102047619D01*
X108353333Y-101904761D01*
X108400952Y-101809523D01*
X108448571Y-101761904D01*
X108543809Y-101714285D01*
X108781904Y-101714285D01*
X108877142Y-101761904D01*
X108924761Y-101809523D01*
X108972380Y-101904761D01*
X108972380Y-102190476D01*
X108924761Y-102285714D01*
X108877142Y-102333333D01*
X90057142Y-53729166D02*
X90104761Y-53776785D01*
X90152380Y-53919642D01*
X90152380Y-54014880D01*
X90104761Y-54157738D01*
X90009523Y-54252976D01*
X89914285Y-54300595D01*
X89723809Y-54348214D01*
X89580952Y-54348214D01*
X89390476Y-54300595D01*
X89295238Y-54252976D01*
X89200000Y-54157738D01*
X89152380Y-54014880D01*
X89152380Y-53919642D01*
X89200000Y-53776785D01*
X89247619Y-53729166D01*
X89247619Y-53348214D02*
X89200000Y-53300595D01*
X89152380Y-53205357D01*
X89152380Y-52967261D01*
X89200000Y-52872023D01*
X89247619Y-52824404D01*
X89342857Y-52776785D01*
X89438095Y-52776785D01*
X89580952Y-52824404D01*
X90152380Y-53395833D01*
X90152380Y-52776785D01*
X91957142Y-110566666D02*
X92004761Y-110614285D01*
X92052380Y-110757142D01*
X92052380Y-110852380D01*
X92004761Y-110995238D01*
X91909523Y-111090476D01*
X91814285Y-111138095D01*
X91623809Y-111185714D01*
X91480952Y-111185714D01*
X91290476Y-111138095D01*
X91195238Y-111090476D01*
X91100000Y-110995238D01*
X91052380Y-110852380D01*
X91052380Y-110757142D01*
X91100000Y-110614285D01*
X91147619Y-110566666D01*
X92052380Y-109614285D02*
X92052380Y-110185714D01*
X92052380Y-109900000D02*
X91052380Y-109900000D01*
X91195238Y-109995238D01*
X91290476Y-110090476D01*
X91338095Y-110185714D01*
X134357142Y-52266666D02*
X134404761Y-52314285D01*
X134452380Y-52457142D01*
X134452380Y-52552380D01*
X134404761Y-52695238D01*
X134309523Y-52790476D01*
X134214285Y-52838095D01*
X134023809Y-52885714D01*
X133880952Y-52885714D01*
X133690476Y-52838095D01*
X133595238Y-52790476D01*
X133500000Y-52695238D01*
X133452380Y-52552380D01*
X133452380Y-52457142D01*
X133500000Y-52314285D01*
X133547619Y-52266666D01*
X133452380Y-51409523D02*
X133452380Y-51600000D01*
X133500000Y-51695238D01*
X133547619Y-51742857D01*
X133690476Y-51838095D01*
X133880952Y-51885714D01*
X134261904Y-51885714D01*
X134357142Y-51838095D01*
X134404761Y-51790476D01*
X134452380Y-51695238D01*
X134452380Y-51504761D01*
X134404761Y-51409523D01*
X134357142Y-51361904D01*
X134261904Y-51314285D01*
X134023809Y-51314285D01*
X133928571Y-51361904D01*
X133880952Y-51409523D01*
X133833333Y-51504761D01*
X133833333Y-51695238D01*
X133880952Y-51790476D01*
X133928571Y-51838095D01*
X134023809Y-51885714D01*
X134533333Y-122857142D02*
X134485714Y-122904761D01*
X134342857Y-122952380D01*
X134247619Y-122952380D01*
X134104761Y-122904761D01*
X134009523Y-122809523D01*
X133961904Y-122714285D01*
X133914285Y-122523809D01*
X133914285Y-122380952D01*
X133961904Y-122190476D01*
X134009523Y-122095238D01*
X134104761Y-122000000D01*
X134247619Y-121952380D01*
X134342857Y-121952380D01*
X134485714Y-122000000D01*
X134533333Y-122047619D01*
X135438095Y-121952380D02*
X134961904Y-121952380D01*
X134914285Y-122428571D01*
X134961904Y-122380952D01*
X135057142Y-122333333D01*
X135295238Y-122333333D01*
X135390476Y-122380952D01*
X135438095Y-122428571D01*
X135485714Y-122523809D01*
X135485714Y-122761904D01*
X135438095Y-122857142D01*
X135390476Y-122904761D01*
X135295238Y-122952380D01*
X135057142Y-122952380D01*
X134961904Y-122904761D01*
X134914285Y-122857142D01*
X88722380Y-122451904D02*
X89531904Y-122451904D01*
X89627142Y-122404285D01*
X89674761Y-122356666D01*
X89722380Y-122261428D01*
X89722380Y-122070952D01*
X89674761Y-121975714D01*
X89627142Y-121928095D01*
X89531904Y-121880476D01*
X88722380Y-121880476D01*
X89722380Y-120880476D02*
X89722380Y-121451904D01*
X89722380Y-121166190D02*
X88722380Y-121166190D01*
X88865238Y-121261428D01*
X88960476Y-121356666D01*
X89008095Y-121451904D01*
X116242380Y-125332857D02*
X116242380Y-124666190D01*
X117242380Y-125094761D01*
X116575714Y-123856666D02*
X117242380Y-123856666D01*
X116194761Y-124094761D02*
X116909047Y-124332857D01*
X116909047Y-123713809D01*
X117242380Y-123332857D02*
X116242380Y-123332857D01*
X116718571Y-123332857D02*
X116718571Y-122761428D01*
X117242380Y-122761428D02*
X116242380Y-122761428D01*
X117147142Y-121713809D02*
X117194761Y-121761428D01*
X117242380Y-121904285D01*
X117242380Y-121999523D01*
X117194761Y-122142380D01*
X117099523Y-122237619D01*
X117004285Y-122285238D01*
X116813809Y-122332857D01*
X116670952Y-122332857D01*
X116480476Y-122285238D01*
X116385238Y-122237619D01*
X116290000Y-122142380D01*
X116242380Y-121999523D01*
X116242380Y-121904285D01*
X116290000Y-121761428D01*
X116337619Y-121713809D01*
X116242380Y-121428095D02*
X116242380Y-120856666D01*
X117242380Y-121142380D02*
X116242380Y-121142380D01*
X116242380Y-120618571D02*
X116242380Y-119999523D01*
X116623333Y-120332857D01*
X116623333Y-120190000D01*
X116670952Y-120094761D01*
X116718571Y-120047142D01*
X116813809Y-119999523D01*
X117051904Y-119999523D01*
X117147142Y-120047142D01*
X117194761Y-120094761D01*
X117242380Y-120190000D01*
X117242380Y-120475714D01*
X117194761Y-120570952D01*
X117147142Y-120618571D01*
X116242380Y-119666190D02*
X116242380Y-118999523D01*
X117242380Y-119428095D01*
X116242380Y-118713809D02*
X116242380Y-118047142D01*
X117242380Y-118475714D01*
X99209523Y-128252380D02*
X99209523Y-127252380D01*
X99447619Y-127252380D01*
X99590476Y-127300000D01*
X99685714Y-127395238D01*
X99733333Y-127490476D01*
X99780952Y-127680952D01*
X99780952Y-127823809D01*
X99733333Y-128014285D01*
X99685714Y-128109523D01*
X99590476Y-128204761D01*
X99447619Y-128252380D01*
X99209523Y-128252380D01*
X101542857Y-128252380D02*
X101209523Y-127776190D01*
X100971428Y-128252380D02*
X100971428Y-127252380D01*
X101352380Y-127252380D01*
X101447619Y-127300000D01*
X101495238Y-127347619D01*
X101542857Y-127442857D01*
X101542857Y-127585714D01*
X101495238Y-127680952D01*
X101447619Y-127728571D01*
X101352380Y-127776190D01*
X100971428Y-127776190D01*
X102352380Y-128204761D02*
X102257142Y-128252380D01*
X102066666Y-128252380D01*
X101971428Y-128204761D01*
X101923809Y-128109523D01*
X101923809Y-127728571D01*
X101971428Y-127633333D01*
X102066666Y-127585714D01*
X102257142Y-127585714D01*
X102352380Y-127633333D01*
X102400000Y-127728571D01*
X102400000Y-127823809D01*
X101923809Y-127919047D01*
X103257142Y-127585714D02*
X103257142Y-128395238D01*
X103209523Y-128490476D01*
X103161904Y-128538095D01*
X103066666Y-128585714D01*
X102923809Y-128585714D01*
X102828571Y-128538095D01*
X103257142Y-128204761D02*
X103161904Y-128252380D01*
X102971428Y-128252380D01*
X102876190Y-128204761D01*
X102828571Y-128157142D01*
X102780952Y-128061904D01*
X102780952Y-127776190D01*
X102828571Y-127680952D01*
X102876190Y-127633333D01*
X102971428Y-127585714D01*
X103161904Y-127585714D01*
X103257142Y-127633333D01*
X103733333Y-128252380D02*
X103733333Y-127585714D01*
X103733333Y-127252380D02*
X103685714Y-127300000D01*
X103733333Y-127347619D01*
X103780952Y-127300000D01*
X103733333Y-127252380D01*
X103733333Y-127347619D01*
X104161904Y-128204761D02*
X104257142Y-128252380D01*
X104447619Y-128252380D01*
X104542857Y-128204761D01*
X104590476Y-128109523D01*
X104590476Y-128061904D01*
X104542857Y-127966666D01*
X104447619Y-127919047D01*
X104304761Y-127919047D01*
X104209523Y-127871428D01*
X104161904Y-127776190D01*
X104161904Y-127728571D01*
X104209523Y-127633333D01*
X104304761Y-127585714D01*
X104447619Y-127585714D01*
X104542857Y-127633333D01*
X104876190Y-127585714D02*
X105257142Y-127585714D01*
X105019047Y-127252380D02*
X105019047Y-128109523D01*
X105066666Y-128204761D01*
X105161904Y-128252380D01*
X105257142Y-128252380D01*
X105971428Y-128204761D02*
X105876190Y-128252380D01*
X105685714Y-128252380D01*
X105590476Y-128204761D01*
X105542857Y-128109523D01*
X105542857Y-127728571D01*
X105590476Y-127633333D01*
X105685714Y-127585714D01*
X105876190Y-127585714D01*
X105971428Y-127633333D01*
X106019047Y-127728571D01*
X106019047Y-127823809D01*
X105542857Y-127919047D01*
X106447619Y-128252380D02*
X106447619Y-127585714D01*
X106447619Y-127776190D02*
X106495238Y-127680952D01*
X106542857Y-127633333D01*
X106638095Y-127585714D01*
X106733333Y-127585714D01*
X128057142Y-73202380D02*
X127723809Y-72726190D01*
X127485714Y-73202380D02*
X127485714Y-72202380D01*
X127866666Y-72202380D01*
X127961904Y-72250000D01*
X128009523Y-72297619D01*
X128057142Y-72392857D01*
X128057142Y-72535714D01*
X128009523Y-72630952D01*
X127961904Y-72678571D01*
X127866666Y-72726190D01*
X127485714Y-72726190D01*
X129009523Y-73202380D02*
X128438095Y-73202380D01*
X128723809Y-73202380D02*
X128723809Y-72202380D01*
X128628571Y-72345238D01*
X128533333Y-72440476D01*
X128438095Y-72488095D01*
X129866666Y-72202380D02*
X129676190Y-72202380D01*
X129580952Y-72250000D01*
X129533333Y-72297619D01*
X129438095Y-72440476D01*
X129390476Y-72630952D01*
X129390476Y-73011904D01*
X129438095Y-73107142D01*
X129485714Y-73154761D01*
X129580952Y-73202380D01*
X129771428Y-73202380D01*
X129866666Y-73154761D01*
X129914285Y-73107142D01*
X129961904Y-73011904D01*
X129961904Y-72773809D01*
X129914285Y-72678571D01*
X129866666Y-72630952D01*
X129771428Y-72583333D01*
X129580952Y-72583333D01*
X129485714Y-72630952D01*
X129438095Y-72678571D01*
X129390476Y-72773809D01*
X134199999Y-73202380D02*
X133866666Y-72726190D01*
X133628571Y-73202380D02*
X133628571Y-72202380D01*
X134009523Y-72202380D01*
X134104761Y-72250000D01*
X134152380Y-72297619D01*
X134199999Y-72392857D01*
X134199999Y-72535714D01*
X134152380Y-72630952D01*
X134104761Y-72678571D01*
X134009523Y-72726190D01*
X133628571Y-72726190D01*
X135152380Y-73202380D02*
X134580952Y-73202380D01*
X134866666Y-73202380D02*
X134866666Y-72202380D01*
X134771428Y-72345238D01*
X134676190Y-72440476D01*
X134580952Y-72488095D01*
X136057142Y-72202380D02*
X135580952Y-72202380D01*
X135533333Y-72678571D01*
X135580952Y-72630952D01*
X135676190Y-72583333D01*
X135914285Y-72583333D01*
X136009523Y-72630952D01*
X136057142Y-72678571D01*
X136104761Y-72773809D01*
X136104761Y-73011904D01*
X136057142Y-73107142D01*
X136009523Y-73154761D01*
X135914285Y-73202380D01*
X135676190Y-73202380D01*
X135580952Y-73154761D01*
X135533333Y-73107142D01*
X140342856Y-73202380D02*
X140009523Y-72726190D01*
X139771428Y-73202380D02*
X139771428Y-72202380D01*
X140152380Y-72202380D01*
X140247618Y-72250000D01*
X140295237Y-72297619D01*
X140342856Y-72392857D01*
X140342856Y-72535714D01*
X140295237Y-72630952D01*
X140247618Y-72678571D01*
X140152380Y-72726190D01*
X139771428Y-72726190D01*
X141295237Y-73202380D02*
X140723809Y-73202380D01*
X141009523Y-73202380D02*
X141009523Y-72202380D01*
X140914285Y-72345238D01*
X140819047Y-72440476D01*
X140723809Y-72488095D01*
X142152380Y-72535714D02*
X142152380Y-73202380D01*
X141914285Y-72154761D02*
X141676190Y-72869047D01*
X142295237Y-72869047D01*
X146485713Y-73202380D02*
X146152380Y-72726190D01*
X145914285Y-73202380D02*
X145914285Y-72202380D01*
X146295237Y-72202380D01*
X146390475Y-72250000D01*
X146438094Y-72297619D01*
X146485713Y-72392857D01*
X146485713Y-72535714D01*
X146438094Y-72630952D01*
X146390475Y-72678571D01*
X146295237Y-72726190D01*
X145914285Y-72726190D01*
X147438094Y-73202380D02*
X146866666Y-73202380D01*
X147152380Y-73202380D02*
X147152380Y-72202380D01*
X147057142Y-72345238D01*
X146961904Y-72440476D01*
X146866666Y-72488095D01*
X147771428Y-72202380D02*
X148390475Y-72202380D01*
X148057142Y-72583333D01*
X148199999Y-72583333D01*
X148295237Y-72630952D01*
X148342856Y-72678571D01*
X148390475Y-72773809D01*
X148390475Y-73011904D01*
X148342856Y-73107142D01*
X148295237Y-73154761D01*
X148199999Y-73202380D01*
X147914285Y-73202380D01*
X147819047Y-73154761D01*
X147771428Y-73107142D01*
X152628570Y-73202380D02*
X152295237Y-72726190D01*
X152057142Y-73202380D02*
X152057142Y-72202380D01*
X152438094Y-72202380D01*
X152533332Y-72250000D01*
X152580951Y-72297619D01*
X152628570Y-72392857D01*
X152628570Y-72535714D01*
X152580951Y-72630952D01*
X152533332Y-72678571D01*
X152438094Y-72726190D01*
X152057142Y-72726190D01*
X153580951Y-73202380D02*
X153009523Y-73202380D01*
X153295237Y-73202380D02*
X153295237Y-72202380D01*
X153199999Y-72345238D01*
X153104761Y-72440476D01*
X153009523Y-72488095D01*
X153961904Y-72297619D02*
X154009523Y-72250000D01*
X154104761Y-72202380D01*
X154342856Y-72202380D01*
X154438094Y-72250000D01*
X154485713Y-72297619D01*
X154533332Y-72392857D01*
X154533332Y-72488095D01*
X154485713Y-72630952D01*
X153914285Y-73202380D01*
X154533332Y-73202380D01*
X158771427Y-73202380D02*
X158438094Y-72726190D01*
X158199999Y-73202380D02*
X158199999Y-72202380D01*
X158580951Y-72202380D01*
X158676189Y-72250000D01*
X158723808Y-72297619D01*
X158771427Y-72392857D01*
X158771427Y-72535714D01*
X158723808Y-72630952D01*
X158676189Y-72678571D01*
X158580951Y-72726190D01*
X158199999Y-72726190D01*
X159723808Y-73202380D02*
X159152380Y-73202380D01*
X159438094Y-73202380D02*
X159438094Y-72202380D01*
X159342856Y-72345238D01*
X159247618Y-72440476D01*
X159152380Y-72488095D01*
X160676189Y-73202380D02*
X160104761Y-73202380D01*
X160390475Y-73202380D02*
X160390475Y-72202380D01*
X160295237Y-72345238D01*
X160199999Y-72440476D01*
X160104761Y-72488095D01*
X164914284Y-73202380D02*
X164580951Y-72726190D01*
X164342856Y-73202380D02*
X164342856Y-72202380D01*
X164723808Y-72202380D01*
X164819046Y-72250000D01*
X164866665Y-72297619D01*
X164914284Y-72392857D01*
X164914284Y-72535714D01*
X164866665Y-72630952D01*
X164819046Y-72678571D01*
X164723808Y-72726190D01*
X164342856Y-72726190D01*
X165866665Y-73202380D02*
X165295237Y-73202380D01*
X165580951Y-73202380D02*
X165580951Y-72202380D01*
X165485713Y-72345238D01*
X165390475Y-72440476D01*
X165295237Y-72488095D01*
X166485713Y-72202380D02*
X166580951Y-72202380D01*
X166676189Y-72250000D01*
X166723808Y-72297619D01*
X166771427Y-72392857D01*
X166819046Y-72583333D01*
X166819046Y-72821428D01*
X166771427Y-73011904D01*
X166723808Y-73107142D01*
X166676189Y-73154761D01*
X166580951Y-73202380D01*
X166485713Y-73202380D01*
X166390475Y-73154761D01*
X166342856Y-73107142D01*
X166295237Y-73011904D01*
X166247618Y-72821428D01*
X166247618Y-72583333D01*
X166295237Y-72392857D01*
X166342856Y-72297619D01*
X166390475Y-72250000D01*
X166485713Y-72202380D01*
X171533333Y-73202380D02*
X171200000Y-72726190D01*
X170961904Y-73202380D02*
X170961904Y-72202380D01*
X171342857Y-72202380D01*
X171438095Y-72250000D01*
X171485714Y-72297619D01*
X171533333Y-72392857D01*
X171533333Y-72535714D01*
X171485714Y-72630952D01*
X171438095Y-72678571D01*
X171342857Y-72726190D01*
X170961904Y-72726190D01*
X172009523Y-73202380D02*
X172200000Y-73202380D01*
X172295238Y-73154761D01*
X172342857Y-73107142D01*
X172438095Y-72964285D01*
X172485714Y-72773809D01*
X172485714Y-72392857D01*
X172438095Y-72297619D01*
X172390476Y-72250000D01*
X172295238Y-72202380D01*
X172104761Y-72202380D01*
X172009523Y-72250000D01*
X171961904Y-72297619D01*
X171914285Y-72392857D01*
X171914285Y-72630952D01*
X171961904Y-72726190D01*
X172009523Y-72773809D01*
X172104761Y-72821428D01*
X172295238Y-72821428D01*
X172390476Y-72773809D01*
X172438095Y-72726190D01*
X172485714Y-72630952D01*
X128133333Y-107852380D02*
X127800000Y-107376190D01*
X127561904Y-107852380D02*
X127561904Y-106852380D01*
X127942857Y-106852380D01*
X128038095Y-106900000D01*
X128085714Y-106947619D01*
X128133333Y-107042857D01*
X128133333Y-107185714D01*
X128085714Y-107280952D01*
X128038095Y-107328571D01*
X127942857Y-107376190D01*
X127561904Y-107376190D01*
X128704761Y-107280952D02*
X128609523Y-107233333D01*
X128561904Y-107185714D01*
X128514285Y-107090476D01*
X128514285Y-107042857D01*
X128561904Y-106947619D01*
X128609523Y-106900000D01*
X128704761Y-106852380D01*
X128895238Y-106852380D01*
X128990476Y-106900000D01*
X129038095Y-106947619D01*
X129085714Y-107042857D01*
X129085714Y-107090476D01*
X129038095Y-107185714D01*
X128990476Y-107233333D01*
X128895238Y-107280952D01*
X128704761Y-107280952D01*
X128609523Y-107328571D01*
X128561904Y-107376190D01*
X128514285Y-107471428D01*
X128514285Y-107661904D01*
X128561904Y-107757142D01*
X128609523Y-107804761D01*
X128704761Y-107852380D01*
X128895238Y-107852380D01*
X128990476Y-107804761D01*
X129038095Y-107757142D01*
X129085714Y-107661904D01*
X129085714Y-107471428D01*
X129038095Y-107376190D01*
X128990476Y-107328571D01*
X128895238Y-107280952D01*
X134276190Y-107852380D02*
X133942857Y-107376190D01*
X133704761Y-107852380D02*
X133704761Y-106852380D01*
X134085714Y-106852380D01*
X134180952Y-106900000D01*
X134228571Y-106947619D01*
X134276190Y-107042857D01*
X134276190Y-107185714D01*
X134228571Y-107280952D01*
X134180952Y-107328571D01*
X134085714Y-107376190D01*
X133704761Y-107376190D01*
X134609523Y-106852380D02*
X135276190Y-106852380D01*
X134847618Y-107852380D01*
X140419047Y-107852380D02*
X140085714Y-107376190D01*
X139847618Y-107852380D02*
X139847618Y-106852380D01*
X140228571Y-106852380D01*
X140323809Y-106900000D01*
X140371428Y-106947619D01*
X140419047Y-107042857D01*
X140419047Y-107185714D01*
X140371428Y-107280952D01*
X140323809Y-107328571D01*
X140228571Y-107376190D01*
X139847618Y-107376190D01*
X141276190Y-106852380D02*
X141085714Y-106852380D01*
X140990475Y-106900000D01*
X140942856Y-106947619D01*
X140847618Y-107090476D01*
X140799999Y-107280952D01*
X140799999Y-107661904D01*
X140847618Y-107757142D01*
X140895237Y-107804761D01*
X140990475Y-107852380D01*
X141180952Y-107852380D01*
X141276190Y-107804761D01*
X141323809Y-107757142D01*
X141371428Y-107661904D01*
X141371428Y-107423809D01*
X141323809Y-107328571D01*
X141276190Y-107280952D01*
X141180952Y-107233333D01*
X140990475Y-107233333D01*
X140895237Y-107280952D01*
X140847618Y-107328571D01*
X140799999Y-107423809D01*
X146561904Y-107852380D02*
X146228571Y-107376190D01*
X145990475Y-107852380D02*
X145990475Y-106852380D01*
X146371428Y-106852380D01*
X146466666Y-106900000D01*
X146514285Y-106947619D01*
X146561904Y-107042857D01*
X146561904Y-107185714D01*
X146514285Y-107280952D01*
X146466666Y-107328571D01*
X146371428Y-107376190D01*
X145990475Y-107376190D01*
X147466666Y-106852380D02*
X146990475Y-106852380D01*
X146942856Y-107328571D01*
X146990475Y-107280952D01*
X147085713Y-107233333D01*
X147323809Y-107233333D01*
X147419047Y-107280952D01*
X147466666Y-107328571D01*
X147514285Y-107423809D01*
X147514285Y-107661904D01*
X147466666Y-107757142D01*
X147419047Y-107804761D01*
X147323809Y-107852380D01*
X147085713Y-107852380D01*
X146990475Y-107804761D01*
X146942856Y-107757142D01*
X152704761Y-107852380D02*
X152371428Y-107376190D01*
X152133332Y-107852380D02*
X152133332Y-106852380D01*
X152514285Y-106852380D01*
X152609523Y-106900000D01*
X152657142Y-106947619D01*
X152704761Y-107042857D01*
X152704761Y-107185714D01*
X152657142Y-107280952D01*
X152609523Y-107328571D01*
X152514285Y-107376190D01*
X152133332Y-107376190D01*
X153561904Y-107185714D02*
X153561904Y-107852380D01*
X153323808Y-106804761D02*
X153085713Y-107519047D01*
X153704761Y-107519047D01*
X158847618Y-107852380D02*
X158514285Y-107376190D01*
X158276189Y-107852380D02*
X158276189Y-106852380D01*
X158657142Y-106852380D01*
X158752380Y-106900000D01*
X158799999Y-106947619D01*
X158847618Y-107042857D01*
X158847618Y-107185714D01*
X158799999Y-107280952D01*
X158752380Y-107328571D01*
X158657142Y-107376190D01*
X158276189Y-107376190D01*
X159180951Y-106852380D02*
X159799999Y-106852380D01*
X159466665Y-107233333D01*
X159609523Y-107233333D01*
X159704761Y-107280952D01*
X159752380Y-107328571D01*
X159799999Y-107423809D01*
X159799999Y-107661904D01*
X159752380Y-107757142D01*
X159704761Y-107804761D01*
X159609523Y-107852380D01*
X159323808Y-107852380D01*
X159228570Y-107804761D01*
X159180951Y-107757142D01*
X164990475Y-107852380D02*
X164657142Y-107376190D01*
X164419046Y-107852380D02*
X164419046Y-106852380D01*
X164799999Y-106852380D01*
X164895237Y-106900000D01*
X164942856Y-106947619D01*
X164990475Y-107042857D01*
X164990475Y-107185714D01*
X164942856Y-107280952D01*
X164895237Y-107328571D01*
X164799999Y-107376190D01*
X164419046Y-107376190D01*
X165371427Y-106947619D02*
X165419046Y-106900000D01*
X165514284Y-106852380D01*
X165752380Y-106852380D01*
X165847618Y-106900000D01*
X165895237Y-106947619D01*
X165942856Y-107042857D01*
X165942856Y-107138095D01*
X165895237Y-107280952D01*
X165323808Y-107852380D01*
X165942856Y-107852380D01*
X171133333Y-107852380D02*
X170800000Y-107376190D01*
X170561904Y-107852380D02*
X170561904Y-106852380D01*
X170942857Y-106852380D01*
X171038095Y-106900000D01*
X171085714Y-106947619D01*
X171133333Y-107042857D01*
X171133333Y-107185714D01*
X171085714Y-107280952D01*
X171038095Y-107328571D01*
X170942857Y-107376190D01*
X170561904Y-107376190D01*
X172085714Y-107852380D02*
X171514285Y-107852380D01*
X171800000Y-107852380D02*
X171800000Y-106852380D01*
X171704761Y-106995238D01*
X171609523Y-107090476D01*
X171514285Y-107138095D01*
X127485714Y-77452380D02*
X127485714Y-76452380D01*
X127723809Y-76452380D01*
X127866666Y-76500000D01*
X127961904Y-76595238D01*
X128009523Y-76690476D01*
X128057142Y-76880952D01*
X128057142Y-77023809D01*
X128009523Y-77214285D01*
X127961904Y-77309523D01*
X127866666Y-77404761D01*
X127723809Y-77452380D01*
X127485714Y-77452380D01*
X129009523Y-77452380D02*
X128438095Y-77452380D01*
X128723809Y-77452380D02*
X128723809Y-76452380D01*
X128628571Y-76595238D01*
X128533333Y-76690476D01*
X128438095Y-76738095D01*
X129866666Y-76452380D02*
X129676190Y-76452380D01*
X129580952Y-76500000D01*
X129533333Y-76547619D01*
X129438095Y-76690476D01*
X129390476Y-76880952D01*
X129390476Y-77261904D01*
X129438095Y-77357142D01*
X129485714Y-77404761D01*
X129580952Y-77452380D01*
X129771428Y-77452380D01*
X129866666Y-77404761D01*
X129914285Y-77357142D01*
X129961904Y-77261904D01*
X129961904Y-77023809D01*
X129914285Y-76928571D01*
X129866666Y-76880952D01*
X129771428Y-76833333D01*
X129580952Y-76833333D01*
X129485714Y-76880952D01*
X129438095Y-76928571D01*
X129390476Y-77023809D01*
D14*
X126914285Y-80950000D02*
X127628571Y-80950000D01*
X126771428Y-81378571D02*
X127271428Y-79878571D01*
X127771428Y-81378571D01*
X128200000Y-81307142D02*
X128414285Y-81378571D01*
X128771428Y-81378571D01*
X128914285Y-81307142D01*
X128985714Y-81235714D01*
X129057142Y-81092857D01*
X129057142Y-80950000D01*
X128985714Y-80807142D01*
X128914285Y-80735714D01*
X128771428Y-80664285D01*
X128485714Y-80592857D01*
X128342857Y-80521428D01*
X128271428Y-80450000D01*
X128200000Y-80307142D01*
X128200000Y-80164285D01*
X128271428Y-80021428D01*
X128342857Y-79950000D01*
X128485714Y-79878571D01*
X128842857Y-79878571D01*
X129057142Y-79950000D01*
X129557142Y-79878571D02*
X130557142Y-79878571D01*
X129914285Y-81378571D01*
D10*
X133628571Y-77452380D02*
X133628571Y-76452380D01*
X133866666Y-76452380D01*
X134009523Y-76500000D01*
X134104761Y-76595238D01*
X134152380Y-76690476D01*
X134199999Y-76880952D01*
X134199999Y-77023809D01*
X134152380Y-77214285D01*
X134104761Y-77309523D01*
X134009523Y-77404761D01*
X133866666Y-77452380D01*
X133628571Y-77452380D01*
X135152380Y-77452380D02*
X134580952Y-77452380D01*
X134866666Y-77452380D02*
X134866666Y-76452380D01*
X134771428Y-76595238D01*
X134676190Y-76690476D01*
X134580952Y-76738095D01*
X136057142Y-76452380D02*
X135580952Y-76452380D01*
X135533333Y-76928571D01*
X135580952Y-76880952D01*
X135676190Y-76833333D01*
X135914285Y-76833333D01*
X136009523Y-76880952D01*
X136057142Y-76928571D01*
X136104761Y-77023809D01*
X136104761Y-77261904D01*
X136057142Y-77357142D01*
X136009523Y-77404761D01*
X135914285Y-77452380D01*
X135676190Y-77452380D01*
X135580952Y-77404761D01*
X135533333Y-77357142D01*
D14*
X133014285Y-80950000D02*
X133728571Y-80950000D01*
X132871428Y-81378571D02*
X133371428Y-79878571D01*
X133871428Y-81378571D01*
X134300000Y-81307142D02*
X134514285Y-81378571D01*
X134871428Y-81378571D01*
X135014285Y-81307142D01*
X135085714Y-81235714D01*
X135157142Y-81092857D01*
X135157142Y-80950000D01*
X135085714Y-80807142D01*
X135014285Y-80735714D01*
X134871428Y-80664285D01*
X134585714Y-80592857D01*
X134442857Y-80521428D01*
X134371428Y-80450000D01*
X134300000Y-80307142D01*
X134300000Y-80164285D01*
X134371428Y-80021428D01*
X134442857Y-79950000D01*
X134585714Y-79878571D01*
X134942857Y-79878571D01*
X135157142Y-79950000D01*
X136442857Y-79878571D02*
X136157142Y-79878571D01*
X136014285Y-79950000D01*
X135942857Y-80021428D01*
X135800000Y-80235714D01*
X135728571Y-80521428D01*
X135728571Y-81092857D01*
X135800000Y-81235714D01*
X135871428Y-81307142D01*
X136014285Y-81378571D01*
X136300000Y-81378571D01*
X136442857Y-81307142D01*
X136514285Y-81235714D01*
X136585714Y-81092857D01*
X136585714Y-80735714D01*
X136514285Y-80592857D01*
X136442857Y-80521428D01*
X136300000Y-80450000D01*
X136014285Y-80450000D01*
X135871428Y-80521428D01*
X135800000Y-80592857D01*
X135728571Y-80735714D01*
D10*
X139771428Y-77452380D02*
X139771428Y-76452380D01*
X140009523Y-76452380D01*
X140152380Y-76500000D01*
X140247618Y-76595238D01*
X140295237Y-76690476D01*
X140342856Y-76880952D01*
X140342856Y-77023809D01*
X140295237Y-77214285D01*
X140247618Y-77309523D01*
X140152380Y-77404761D01*
X140009523Y-77452380D01*
X139771428Y-77452380D01*
X141295237Y-77452380D02*
X140723809Y-77452380D01*
X141009523Y-77452380D02*
X141009523Y-76452380D01*
X140914285Y-76595238D01*
X140819047Y-76690476D01*
X140723809Y-76738095D01*
X142152380Y-76785714D02*
X142152380Y-77452380D01*
X141914285Y-76404761D02*
X141676190Y-77119047D01*
X142295237Y-77119047D01*
D14*
X139214285Y-80950000D02*
X139928571Y-80950000D01*
X139071428Y-81378571D02*
X139571428Y-79878571D01*
X140071428Y-81378571D01*
X140500000Y-81307142D02*
X140714285Y-81378571D01*
X141071428Y-81378571D01*
X141214285Y-81307142D01*
X141285714Y-81235714D01*
X141357142Y-81092857D01*
X141357142Y-80950000D01*
X141285714Y-80807142D01*
X141214285Y-80735714D01*
X141071428Y-80664285D01*
X140785714Y-80592857D01*
X140642857Y-80521428D01*
X140571428Y-80450000D01*
X140500000Y-80307142D01*
X140500000Y-80164285D01*
X140571428Y-80021428D01*
X140642857Y-79950000D01*
X140785714Y-79878571D01*
X141142857Y-79878571D01*
X141357142Y-79950000D01*
X142714285Y-79878571D02*
X142000000Y-79878571D01*
X141928571Y-80592857D01*
X142000000Y-80521428D01*
X142142857Y-80450000D01*
X142500000Y-80450000D01*
X142642857Y-80521428D01*
X142714285Y-80592857D01*
X142785714Y-80735714D01*
X142785714Y-81092857D01*
X142714285Y-81235714D01*
X142642857Y-81307142D01*
X142500000Y-81378571D01*
X142142857Y-81378571D01*
X142000000Y-81307142D01*
X141928571Y-81235714D01*
D10*
X145914285Y-77452380D02*
X145914285Y-76452380D01*
X146152380Y-76452380D01*
X146295237Y-76500000D01*
X146390475Y-76595238D01*
X146438094Y-76690476D01*
X146485713Y-76880952D01*
X146485713Y-77023809D01*
X146438094Y-77214285D01*
X146390475Y-77309523D01*
X146295237Y-77404761D01*
X146152380Y-77452380D01*
X145914285Y-77452380D01*
X147438094Y-77452380D02*
X146866666Y-77452380D01*
X147152380Y-77452380D02*
X147152380Y-76452380D01*
X147057142Y-76595238D01*
X146961904Y-76690476D01*
X146866666Y-76738095D01*
X147771428Y-76452380D02*
X148390475Y-76452380D01*
X148057142Y-76833333D01*
X148199999Y-76833333D01*
X148295237Y-76880952D01*
X148342856Y-76928571D01*
X148390475Y-77023809D01*
X148390475Y-77261904D01*
X148342856Y-77357142D01*
X148295237Y-77404761D01*
X148199999Y-77452380D01*
X147914285Y-77452380D01*
X147819047Y-77404761D01*
X147771428Y-77357142D01*
D14*
X145314285Y-80950000D02*
X146028571Y-80950000D01*
X145171428Y-81378571D02*
X145671428Y-79878571D01*
X146171428Y-81378571D01*
X146600000Y-81307142D02*
X146814285Y-81378571D01*
X147171428Y-81378571D01*
X147314285Y-81307142D01*
X147385714Y-81235714D01*
X147457142Y-81092857D01*
X147457142Y-80950000D01*
X147385714Y-80807142D01*
X147314285Y-80735714D01*
X147171428Y-80664285D01*
X146885714Y-80592857D01*
X146742857Y-80521428D01*
X146671428Y-80450000D01*
X146600000Y-80307142D01*
X146600000Y-80164285D01*
X146671428Y-80021428D01*
X146742857Y-79950000D01*
X146885714Y-79878571D01*
X147242857Y-79878571D01*
X147457142Y-79950000D01*
X148742857Y-80378571D02*
X148742857Y-81378571D01*
X148385714Y-79807142D02*
X148028571Y-80878571D01*
X148957142Y-80878571D01*
D10*
X152057142Y-77452380D02*
X152057142Y-76452380D01*
X152295237Y-76452380D01*
X152438094Y-76500000D01*
X152533332Y-76595238D01*
X152580951Y-76690476D01*
X152628570Y-76880952D01*
X152628570Y-77023809D01*
X152580951Y-77214285D01*
X152533332Y-77309523D01*
X152438094Y-77404761D01*
X152295237Y-77452380D01*
X152057142Y-77452380D01*
X153580951Y-77452380D02*
X153009523Y-77452380D01*
X153295237Y-77452380D02*
X153295237Y-76452380D01*
X153199999Y-76595238D01*
X153104761Y-76690476D01*
X153009523Y-76738095D01*
X153961904Y-76547619D02*
X154009523Y-76500000D01*
X154104761Y-76452380D01*
X154342856Y-76452380D01*
X154438094Y-76500000D01*
X154485713Y-76547619D01*
X154533332Y-76642857D01*
X154533332Y-76738095D01*
X154485713Y-76880952D01*
X153914285Y-77452380D01*
X154533332Y-77452380D01*
D14*
X151514285Y-80950000D02*
X152228571Y-80950000D01*
X151371428Y-81378571D02*
X151871428Y-79878571D01*
X152371428Y-81378571D01*
X152800000Y-81307142D02*
X153014285Y-81378571D01*
X153371428Y-81378571D01*
X153514285Y-81307142D01*
X153585714Y-81235714D01*
X153657142Y-81092857D01*
X153657142Y-80950000D01*
X153585714Y-80807142D01*
X153514285Y-80735714D01*
X153371428Y-80664285D01*
X153085714Y-80592857D01*
X152942857Y-80521428D01*
X152871428Y-80450000D01*
X152800000Y-80307142D01*
X152800000Y-80164285D01*
X152871428Y-80021428D01*
X152942857Y-79950000D01*
X153085714Y-79878571D01*
X153442857Y-79878571D01*
X153657142Y-79950000D01*
X154157142Y-79878571D02*
X155085714Y-79878571D01*
X154585714Y-80450000D01*
X154800000Y-80450000D01*
X154942857Y-80521428D01*
X155014285Y-80592857D01*
X155085714Y-80735714D01*
X155085714Y-81092857D01*
X155014285Y-81235714D01*
X154942857Y-81307142D01*
X154800000Y-81378571D01*
X154371428Y-81378571D01*
X154228571Y-81307142D01*
X154157142Y-81235714D01*
D10*
X158185714Y-77452380D02*
X158185714Y-76452380D01*
X158423809Y-76452380D01*
X158566666Y-76500000D01*
X158661904Y-76595238D01*
X158709523Y-76690476D01*
X158757142Y-76880952D01*
X158757142Y-77023809D01*
X158709523Y-77214285D01*
X158661904Y-77309523D01*
X158566666Y-77404761D01*
X158423809Y-77452380D01*
X158185714Y-77452380D01*
X159709523Y-77452380D02*
X159138095Y-77452380D01*
X159423809Y-77452380D02*
X159423809Y-76452380D01*
X159328571Y-76595238D01*
X159233333Y-76690476D01*
X159138095Y-76738095D01*
X160661904Y-77452380D02*
X160090476Y-77452380D01*
X160376190Y-77452380D02*
X160376190Y-76452380D01*
X160280952Y-76595238D01*
X160185714Y-76690476D01*
X160090476Y-76738095D01*
D14*
X157614285Y-80950000D02*
X158328571Y-80950000D01*
X157471428Y-81378571D02*
X157971428Y-79878571D01*
X158471428Y-81378571D01*
X158900000Y-81307142D02*
X159114285Y-81378571D01*
X159471428Y-81378571D01*
X159614285Y-81307142D01*
X159685714Y-81235714D01*
X159757142Y-81092857D01*
X159757142Y-80950000D01*
X159685714Y-80807142D01*
X159614285Y-80735714D01*
X159471428Y-80664285D01*
X159185714Y-80592857D01*
X159042857Y-80521428D01*
X158971428Y-80450000D01*
X158900000Y-80307142D01*
X158900000Y-80164285D01*
X158971428Y-80021428D01*
X159042857Y-79950000D01*
X159185714Y-79878571D01*
X159542857Y-79878571D01*
X159757142Y-79950000D01*
X160328571Y-80021428D02*
X160400000Y-79950000D01*
X160542857Y-79878571D01*
X160900000Y-79878571D01*
X161042857Y-79950000D01*
X161114285Y-80021428D01*
X161185714Y-80164285D01*
X161185714Y-80307142D01*
X161114285Y-80521428D01*
X160257142Y-81378571D01*
X161185714Y-81378571D01*
D10*
X164342856Y-77452380D02*
X164342856Y-76452380D01*
X164580951Y-76452380D01*
X164723808Y-76500000D01*
X164819046Y-76595238D01*
X164866665Y-76690476D01*
X164914284Y-76880952D01*
X164914284Y-77023809D01*
X164866665Y-77214285D01*
X164819046Y-77309523D01*
X164723808Y-77404761D01*
X164580951Y-77452380D01*
X164342856Y-77452380D01*
X165866665Y-77452380D02*
X165295237Y-77452380D01*
X165580951Y-77452380D02*
X165580951Y-76452380D01*
X165485713Y-76595238D01*
X165390475Y-76690476D01*
X165295237Y-76738095D01*
X166485713Y-76452380D02*
X166580951Y-76452380D01*
X166676189Y-76500000D01*
X166723808Y-76547619D01*
X166771427Y-76642857D01*
X166819046Y-76833333D01*
X166819046Y-77071428D01*
X166771427Y-77261904D01*
X166723808Y-77357142D01*
X166676189Y-77404761D01*
X166580951Y-77452380D01*
X166485713Y-77452380D01*
X166390475Y-77404761D01*
X166342856Y-77357142D01*
X166295237Y-77261904D01*
X166247618Y-77071428D01*
X166247618Y-76833333D01*
X166295237Y-76642857D01*
X166342856Y-76547619D01*
X166390475Y-76500000D01*
X166485713Y-76452380D01*
D14*
X163814285Y-80950000D02*
X164528571Y-80950000D01*
X163671428Y-81378571D02*
X164171428Y-79878571D01*
X164671428Y-81378571D01*
X165100000Y-81307142D02*
X165314285Y-81378571D01*
X165671428Y-81378571D01*
X165814285Y-81307142D01*
X165885714Y-81235714D01*
X165957142Y-81092857D01*
X165957142Y-80950000D01*
X165885714Y-80807142D01*
X165814285Y-80735714D01*
X165671428Y-80664285D01*
X165385714Y-80592857D01*
X165242857Y-80521428D01*
X165171428Y-80450000D01*
X165100000Y-80307142D01*
X165100000Y-80164285D01*
X165171428Y-80021428D01*
X165242857Y-79950000D01*
X165385714Y-79878571D01*
X165742857Y-79878571D01*
X165957142Y-79950000D01*
X167385714Y-81378571D02*
X166528571Y-81378571D01*
X166957142Y-81378571D02*
X166957142Y-79878571D01*
X166814285Y-80092857D01*
X166671428Y-80235714D01*
X166528571Y-80307142D01*
D10*
X170961904Y-77452380D02*
X170961904Y-76452380D01*
X171200000Y-76452380D01*
X171342857Y-76500000D01*
X171438095Y-76595238D01*
X171485714Y-76690476D01*
X171533333Y-76880952D01*
X171533333Y-77023809D01*
X171485714Y-77214285D01*
X171438095Y-77309523D01*
X171342857Y-77404761D01*
X171200000Y-77452380D01*
X170961904Y-77452380D01*
X172009523Y-77452380D02*
X172200000Y-77452380D01*
X172295238Y-77404761D01*
X172342857Y-77357142D01*
X172438095Y-77214285D01*
X172485714Y-77023809D01*
X172485714Y-76642857D01*
X172438095Y-76547619D01*
X172390476Y-76500000D01*
X172295238Y-76452380D01*
X172104761Y-76452380D01*
X172009523Y-76500000D01*
X171961904Y-76547619D01*
X171914285Y-76642857D01*
X171914285Y-76880952D01*
X171961904Y-76976190D01*
X172009523Y-77023809D01*
X172104761Y-77071428D01*
X172295238Y-77071428D01*
X172390476Y-77023809D01*
X172438095Y-76976190D01*
X172485714Y-76880952D01*
D14*
X169914285Y-80950000D02*
X170628571Y-80950000D01*
X169771428Y-81378571D02*
X170271428Y-79878571D01*
X170771428Y-81378571D01*
X171200000Y-81307142D02*
X171414285Y-81378571D01*
X171771428Y-81378571D01*
X171914285Y-81307142D01*
X171985714Y-81235714D01*
X172057142Y-81092857D01*
X172057142Y-80950000D01*
X171985714Y-80807142D01*
X171914285Y-80735714D01*
X171771428Y-80664285D01*
X171485714Y-80592857D01*
X171342857Y-80521428D01*
X171271428Y-80450000D01*
X171200000Y-80307142D01*
X171200000Y-80164285D01*
X171271428Y-80021428D01*
X171342857Y-79950000D01*
X171485714Y-79878571D01*
X171842857Y-79878571D01*
X172057142Y-79950000D01*
X172985714Y-79878571D02*
X173128571Y-79878571D01*
X173271428Y-79950000D01*
X173342857Y-80021428D01*
X173414285Y-80164285D01*
X173485714Y-80450000D01*
X173485714Y-80807142D01*
X173414285Y-81092857D01*
X173342857Y-81235714D01*
X173271428Y-81307142D01*
X173128571Y-81378571D01*
X172985714Y-81378571D01*
X172842857Y-81307142D01*
X172771428Y-81235714D01*
X172700000Y-81092857D01*
X172628571Y-80807142D01*
X172628571Y-80450000D01*
X172700000Y-80164285D01*
X172771428Y-80021428D01*
X172842857Y-79950000D01*
X172985714Y-79878571D01*
D10*
X127561904Y-103752380D02*
X127561904Y-102752380D01*
X127800000Y-102752380D01*
X127942857Y-102800000D01*
X128038095Y-102895238D01*
X128085714Y-102990476D01*
X128133333Y-103180952D01*
X128133333Y-103323809D01*
X128085714Y-103514285D01*
X128038095Y-103609523D01*
X127942857Y-103704761D01*
X127800000Y-103752380D01*
X127561904Y-103752380D01*
X128704761Y-103180952D02*
X128609523Y-103133333D01*
X128561904Y-103085714D01*
X128514285Y-102990476D01*
X128514285Y-102942857D01*
X128561904Y-102847619D01*
X128609523Y-102800000D01*
X128704761Y-102752380D01*
X128895238Y-102752380D01*
X128990476Y-102800000D01*
X129038095Y-102847619D01*
X129085714Y-102942857D01*
X129085714Y-102990476D01*
X129038095Y-103085714D01*
X128990476Y-103133333D01*
X128895238Y-103180952D01*
X128704761Y-103180952D01*
X128609523Y-103228571D01*
X128561904Y-103276190D01*
X128514285Y-103371428D01*
X128514285Y-103561904D01*
X128561904Y-103657142D01*
X128609523Y-103704761D01*
X128704761Y-103752380D01*
X128895238Y-103752380D01*
X128990476Y-103704761D01*
X129038095Y-103657142D01*
X129085714Y-103561904D01*
X129085714Y-103371428D01*
X129038095Y-103276190D01*
X128990476Y-103228571D01*
X128895238Y-103180952D01*
D14*
X126407142Y-100278571D02*
X126407142Y-98778571D01*
X126764285Y-98778571D01*
X126978571Y-98850000D01*
X127121428Y-98992857D01*
X127192857Y-99135714D01*
X127264285Y-99421428D01*
X127264285Y-99635714D01*
X127192857Y-99921428D01*
X127121428Y-100064285D01*
X126978571Y-100207142D01*
X126764285Y-100278571D01*
X126407142Y-100278571D01*
X128907142Y-100421428D02*
X128764285Y-100350000D01*
X128621428Y-100207142D01*
X128407142Y-99992857D01*
X128264285Y-99921428D01*
X128121428Y-99921428D01*
X128192857Y-100278571D02*
X128050000Y-100207142D01*
X127907142Y-100064285D01*
X127835714Y-99778571D01*
X127835714Y-99278571D01*
X127907142Y-98992857D01*
X128050000Y-98850000D01*
X128192857Y-98778571D01*
X128478571Y-98778571D01*
X128621428Y-98850000D01*
X128764285Y-98992857D01*
X128835714Y-99278571D01*
X128835714Y-99778571D01*
X128764285Y-100064285D01*
X128621428Y-100207142D01*
X128478571Y-100278571D01*
X128192857Y-100278571D01*
X129335714Y-98778571D02*
X130335714Y-98778571D01*
X129692857Y-100278571D01*
D10*
X133704761Y-103752380D02*
X133704761Y-102752380D01*
X133942857Y-102752380D01*
X134085714Y-102800000D01*
X134180952Y-102895238D01*
X134228571Y-102990476D01*
X134276190Y-103180952D01*
X134276190Y-103323809D01*
X134228571Y-103514285D01*
X134180952Y-103609523D01*
X134085714Y-103704761D01*
X133942857Y-103752380D01*
X133704761Y-103752380D01*
X134609523Y-102752380D02*
X135276190Y-102752380D01*
X134847618Y-103752380D01*
D14*
X132549999Y-100278571D02*
X132549999Y-98778571D01*
X132907142Y-98778571D01*
X133121428Y-98850000D01*
X133264285Y-98992857D01*
X133335714Y-99135714D01*
X133407142Y-99421428D01*
X133407142Y-99635714D01*
X133335714Y-99921428D01*
X133264285Y-100064285D01*
X133121428Y-100207142D01*
X132907142Y-100278571D01*
X132549999Y-100278571D01*
X135049999Y-100421428D02*
X134907142Y-100350000D01*
X134764285Y-100207142D01*
X134549999Y-99992857D01*
X134407142Y-99921428D01*
X134264285Y-99921428D01*
X134335714Y-100278571D02*
X134192857Y-100207142D01*
X134049999Y-100064285D01*
X133978571Y-99778571D01*
X133978571Y-99278571D01*
X134049999Y-98992857D01*
X134192857Y-98850000D01*
X134335714Y-98778571D01*
X134621428Y-98778571D01*
X134764285Y-98850000D01*
X134907142Y-98992857D01*
X134978571Y-99278571D01*
X134978571Y-99778571D01*
X134907142Y-100064285D01*
X134764285Y-100207142D01*
X134621428Y-100278571D01*
X134335714Y-100278571D01*
X136264285Y-98778571D02*
X135978571Y-98778571D01*
X135835714Y-98850000D01*
X135764285Y-98921428D01*
X135621428Y-99135714D01*
X135549999Y-99421428D01*
X135549999Y-99992857D01*
X135621428Y-100135714D01*
X135692857Y-100207142D01*
X135835714Y-100278571D01*
X136121428Y-100278571D01*
X136264285Y-100207142D01*
X136335714Y-100135714D01*
X136407142Y-99992857D01*
X136407142Y-99635714D01*
X136335714Y-99492857D01*
X136264285Y-99421428D01*
X136121428Y-99350000D01*
X135835714Y-99350000D01*
X135692857Y-99421428D01*
X135621428Y-99492857D01*
X135549999Y-99635714D01*
D10*
X139847618Y-103752380D02*
X139847618Y-102752380D01*
X140085714Y-102752380D01*
X140228571Y-102800000D01*
X140323809Y-102895238D01*
X140371428Y-102990476D01*
X140419047Y-103180952D01*
X140419047Y-103323809D01*
X140371428Y-103514285D01*
X140323809Y-103609523D01*
X140228571Y-103704761D01*
X140085714Y-103752380D01*
X139847618Y-103752380D01*
X141276190Y-102752380D02*
X141085714Y-102752380D01*
X140990475Y-102800000D01*
X140942856Y-102847619D01*
X140847618Y-102990476D01*
X140799999Y-103180952D01*
X140799999Y-103561904D01*
X140847618Y-103657142D01*
X140895237Y-103704761D01*
X140990475Y-103752380D01*
X141180952Y-103752380D01*
X141276190Y-103704761D01*
X141323809Y-103657142D01*
X141371428Y-103561904D01*
X141371428Y-103323809D01*
X141323809Y-103228571D01*
X141276190Y-103180952D01*
X141180952Y-103133333D01*
X140990475Y-103133333D01*
X140895237Y-103180952D01*
X140847618Y-103228571D01*
X140799999Y-103323809D01*
D14*
X138692856Y-100278571D02*
X138692856Y-98778571D01*
X139049999Y-98778571D01*
X139264285Y-98850000D01*
X139407142Y-98992857D01*
X139478571Y-99135714D01*
X139549999Y-99421428D01*
X139549999Y-99635714D01*
X139478571Y-99921428D01*
X139407142Y-100064285D01*
X139264285Y-100207142D01*
X139049999Y-100278571D01*
X138692856Y-100278571D01*
X141192856Y-100421428D02*
X141049999Y-100350000D01*
X140907142Y-100207142D01*
X140692856Y-99992857D01*
X140549999Y-99921428D01*
X140407142Y-99921428D01*
X140478571Y-100278571D02*
X140335714Y-100207142D01*
X140192856Y-100064285D01*
X140121428Y-99778571D01*
X140121428Y-99278571D01*
X140192856Y-98992857D01*
X140335714Y-98850000D01*
X140478571Y-98778571D01*
X140764285Y-98778571D01*
X140907142Y-98850000D01*
X141049999Y-98992857D01*
X141121428Y-99278571D01*
X141121428Y-99778571D01*
X141049999Y-100064285D01*
X140907142Y-100207142D01*
X140764285Y-100278571D01*
X140478571Y-100278571D01*
X142478571Y-98778571D02*
X141764285Y-98778571D01*
X141692856Y-99492857D01*
X141764285Y-99421428D01*
X141907142Y-99350000D01*
X142264285Y-99350000D01*
X142407142Y-99421428D01*
X142478571Y-99492857D01*
X142549999Y-99635714D01*
X142549999Y-99992857D01*
X142478571Y-100135714D01*
X142407142Y-100207142D01*
X142264285Y-100278571D01*
X141907142Y-100278571D01*
X141764285Y-100207142D01*
X141692856Y-100135714D01*
D10*
X145990475Y-103752380D02*
X145990475Y-102752380D01*
X146228571Y-102752380D01*
X146371428Y-102800000D01*
X146466666Y-102895238D01*
X146514285Y-102990476D01*
X146561904Y-103180952D01*
X146561904Y-103323809D01*
X146514285Y-103514285D01*
X146466666Y-103609523D01*
X146371428Y-103704761D01*
X146228571Y-103752380D01*
X145990475Y-103752380D01*
X147466666Y-102752380D02*
X146990475Y-102752380D01*
X146942856Y-103228571D01*
X146990475Y-103180952D01*
X147085713Y-103133333D01*
X147323809Y-103133333D01*
X147419047Y-103180952D01*
X147466666Y-103228571D01*
X147514285Y-103323809D01*
X147514285Y-103561904D01*
X147466666Y-103657142D01*
X147419047Y-103704761D01*
X147323809Y-103752380D01*
X147085713Y-103752380D01*
X146990475Y-103704761D01*
X146942856Y-103657142D01*
D14*
X144807142Y-100278571D02*
X144807142Y-98778571D01*
X145164285Y-98778571D01*
X145378571Y-98850000D01*
X145521428Y-98992857D01*
X145592857Y-99135714D01*
X145664285Y-99421428D01*
X145664285Y-99635714D01*
X145592857Y-99921428D01*
X145521428Y-100064285D01*
X145378571Y-100207142D01*
X145164285Y-100278571D01*
X144807142Y-100278571D01*
X147307142Y-100421428D02*
X147164285Y-100350000D01*
X147021428Y-100207142D01*
X146807142Y-99992857D01*
X146664285Y-99921428D01*
X146521428Y-99921428D01*
X146592857Y-100278571D02*
X146450000Y-100207142D01*
X146307142Y-100064285D01*
X146235714Y-99778571D01*
X146235714Y-99278571D01*
X146307142Y-98992857D01*
X146450000Y-98850000D01*
X146592857Y-98778571D01*
X146878571Y-98778571D01*
X147021428Y-98850000D01*
X147164285Y-98992857D01*
X147235714Y-99278571D01*
X147235714Y-99778571D01*
X147164285Y-100064285D01*
X147021428Y-100207142D01*
X146878571Y-100278571D01*
X146592857Y-100278571D01*
X148521428Y-99278571D02*
X148521428Y-100278571D01*
X148164285Y-98707142D02*
X147807142Y-99778571D01*
X148735714Y-99778571D01*
D10*
X152133332Y-103752380D02*
X152133332Y-102752380D01*
X152371428Y-102752380D01*
X152514285Y-102800000D01*
X152609523Y-102895238D01*
X152657142Y-102990476D01*
X152704761Y-103180952D01*
X152704761Y-103323809D01*
X152657142Y-103514285D01*
X152609523Y-103609523D01*
X152514285Y-103704761D01*
X152371428Y-103752380D01*
X152133332Y-103752380D01*
X153561904Y-103085714D02*
X153561904Y-103752380D01*
X153323808Y-102704761D02*
X153085713Y-103419047D01*
X153704761Y-103419047D01*
D14*
X150978570Y-100278571D02*
X150978570Y-98778571D01*
X151335713Y-98778571D01*
X151549999Y-98850000D01*
X151692856Y-98992857D01*
X151764285Y-99135714D01*
X151835713Y-99421428D01*
X151835713Y-99635714D01*
X151764285Y-99921428D01*
X151692856Y-100064285D01*
X151549999Y-100207142D01*
X151335713Y-100278571D01*
X150978570Y-100278571D01*
X153478570Y-100421428D02*
X153335713Y-100350000D01*
X153192856Y-100207142D01*
X152978570Y-99992857D01*
X152835713Y-99921428D01*
X152692856Y-99921428D01*
X152764285Y-100278571D02*
X152621428Y-100207142D01*
X152478570Y-100064285D01*
X152407142Y-99778571D01*
X152407142Y-99278571D01*
X152478570Y-98992857D01*
X152621428Y-98850000D01*
X152764285Y-98778571D01*
X153049999Y-98778571D01*
X153192856Y-98850000D01*
X153335713Y-98992857D01*
X153407142Y-99278571D01*
X153407142Y-99778571D01*
X153335713Y-100064285D01*
X153192856Y-100207142D01*
X153049999Y-100278571D01*
X152764285Y-100278571D01*
X153907142Y-98778571D02*
X154835713Y-98778571D01*
X154335713Y-99350000D01*
X154549999Y-99350000D01*
X154692856Y-99421428D01*
X154764285Y-99492857D01*
X154835713Y-99635714D01*
X154835713Y-99992857D01*
X154764285Y-100135714D01*
X154692856Y-100207142D01*
X154549999Y-100278571D01*
X154121428Y-100278571D01*
X153978570Y-100207142D01*
X153907142Y-100135714D01*
D10*
X158261904Y-103752380D02*
X158261904Y-102752380D01*
X158500000Y-102752380D01*
X158642857Y-102800000D01*
X158738095Y-102895238D01*
X158785714Y-102990476D01*
X158833333Y-103180952D01*
X158833333Y-103323809D01*
X158785714Y-103514285D01*
X158738095Y-103609523D01*
X158642857Y-103704761D01*
X158500000Y-103752380D01*
X158261904Y-103752380D01*
X159166666Y-102752380D02*
X159785714Y-102752380D01*
X159452380Y-103133333D01*
X159595238Y-103133333D01*
X159690476Y-103180952D01*
X159738095Y-103228571D01*
X159785714Y-103323809D01*
X159785714Y-103561904D01*
X159738095Y-103657142D01*
X159690476Y-103704761D01*
X159595238Y-103752380D01*
X159309523Y-103752380D01*
X159214285Y-103704761D01*
X159166666Y-103657142D01*
D14*
X157121427Y-100278571D02*
X157121427Y-98778571D01*
X157478570Y-98778571D01*
X157692856Y-98850000D01*
X157835713Y-98992857D01*
X157907142Y-99135714D01*
X157978570Y-99421428D01*
X157978570Y-99635714D01*
X157907142Y-99921428D01*
X157835713Y-100064285D01*
X157692856Y-100207142D01*
X157478570Y-100278571D01*
X157121427Y-100278571D01*
X159621427Y-100421428D02*
X159478570Y-100350000D01*
X159335713Y-100207142D01*
X159121427Y-99992857D01*
X158978570Y-99921428D01*
X158835713Y-99921428D01*
X158907142Y-100278571D02*
X158764285Y-100207142D01*
X158621427Y-100064285D01*
X158549999Y-99778571D01*
X158549999Y-99278571D01*
X158621427Y-98992857D01*
X158764285Y-98850000D01*
X158907142Y-98778571D01*
X159192856Y-98778571D01*
X159335713Y-98850000D01*
X159478570Y-98992857D01*
X159549999Y-99278571D01*
X159549999Y-99778571D01*
X159478570Y-100064285D01*
X159335713Y-100207142D01*
X159192856Y-100278571D01*
X158907142Y-100278571D01*
X160121427Y-98921428D02*
X160192856Y-98850000D01*
X160335713Y-98778571D01*
X160692856Y-98778571D01*
X160835713Y-98850000D01*
X160907142Y-98921428D01*
X160978570Y-99064285D01*
X160978570Y-99207142D01*
X160907142Y-99421428D01*
X160049999Y-100278571D01*
X160978570Y-100278571D01*
D10*
X164419046Y-103752380D02*
X164419046Y-102752380D01*
X164657142Y-102752380D01*
X164799999Y-102800000D01*
X164895237Y-102895238D01*
X164942856Y-102990476D01*
X164990475Y-103180952D01*
X164990475Y-103323809D01*
X164942856Y-103514285D01*
X164895237Y-103609523D01*
X164799999Y-103704761D01*
X164657142Y-103752380D01*
X164419046Y-103752380D01*
X165371427Y-102847619D02*
X165419046Y-102800000D01*
X165514284Y-102752380D01*
X165752380Y-102752380D01*
X165847618Y-102800000D01*
X165895237Y-102847619D01*
X165942856Y-102942857D01*
X165942856Y-103038095D01*
X165895237Y-103180952D01*
X165323808Y-103752380D01*
X165942856Y-103752380D01*
D14*
X163264284Y-100278571D02*
X163264284Y-98778571D01*
X163621427Y-98778571D01*
X163835713Y-98850000D01*
X163978570Y-98992857D01*
X164049999Y-99135714D01*
X164121427Y-99421428D01*
X164121427Y-99635714D01*
X164049999Y-99921428D01*
X163978570Y-100064285D01*
X163835713Y-100207142D01*
X163621427Y-100278571D01*
X163264284Y-100278571D01*
X165764284Y-100421428D02*
X165621427Y-100350000D01*
X165478570Y-100207142D01*
X165264284Y-99992857D01*
X165121427Y-99921428D01*
X164978570Y-99921428D01*
X165049999Y-100278571D02*
X164907142Y-100207142D01*
X164764284Y-100064285D01*
X164692856Y-99778571D01*
X164692856Y-99278571D01*
X164764284Y-98992857D01*
X164907142Y-98850000D01*
X165049999Y-98778571D01*
X165335713Y-98778571D01*
X165478570Y-98850000D01*
X165621427Y-98992857D01*
X165692856Y-99278571D01*
X165692856Y-99778571D01*
X165621427Y-100064285D01*
X165478570Y-100207142D01*
X165335713Y-100278571D01*
X165049999Y-100278571D01*
X167121427Y-100278571D02*
X166264284Y-100278571D01*
X166692856Y-100278571D02*
X166692856Y-98778571D01*
X166549999Y-98992857D01*
X166407142Y-99135714D01*
X166264284Y-99207142D01*
D10*
X170561904Y-103752380D02*
X170561904Y-102752380D01*
X170800000Y-102752380D01*
X170942857Y-102800000D01*
X171038095Y-102895238D01*
X171085714Y-102990476D01*
X171133333Y-103180952D01*
X171133333Y-103323809D01*
X171085714Y-103514285D01*
X171038095Y-103609523D01*
X170942857Y-103704761D01*
X170800000Y-103752380D01*
X170561904Y-103752380D01*
X172085714Y-103752380D02*
X171514285Y-103752380D01*
X171800000Y-103752380D02*
X171800000Y-102752380D01*
X171704761Y-102895238D01*
X171609523Y-102990476D01*
X171514285Y-103038095D01*
D14*
X169407142Y-100278571D02*
X169407142Y-98778571D01*
X169764285Y-98778571D01*
X169978571Y-98850000D01*
X170121428Y-98992857D01*
X170192857Y-99135714D01*
X170264285Y-99421428D01*
X170264285Y-99635714D01*
X170192857Y-99921428D01*
X170121428Y-100064285D01*
X169978571Y-100207142D01*
X169764285Y-100278571D01*
X169407142Y-100278571D01*
X171907142Y-100421428D02*
X171764285Y-100350000D01*
X171621428Y-100207142D01*
X171407142Y-99992857D01*
X171264285Y-99921428D01*
X171121428Y-99921428D01*
X171192857Y-100278571D02*
X171050000Y-100207142D01*
X170907142Y-100064285D01*
X170835714Y-99778571D01*
X170835714Y-99278571D01*
X170907142Y-98992857D01*
X171050000Y-98850000D01*
X171192857Y-98778571D01*
X171478571Y-98778571D01*
X171621428Y-98850000D01*
X171764285Y-98992857D01*
X171835714Y-99278571D01*
X171835714Y-99778571D01*
X171764285Y-100064285D01*
X171621428Y-100207142D01*
X171478571Y-100278571D01*
X171192857Y-100278571D01*
X172764285Y-98778571D02*
X172907142Y-98778571D01*
X173050000Y-98850000D01*
X173121428Y-98921428D01*
X173192857Y-99064285D01*
X173264285Y-99350000D01*
X173264285Y-99707142D01*
X173192857Y-99992857D01*
X173121428Y-100135714D01*
X173050000Y-100207142D01*
X172907142Y-100278571D01*
X172764285Y-100278571D01*
X172621428Y-100207142D01*
X172550000Y-100135714D01*
X172478571Y-99992857D01*
X172407142Y-99707142D01*
X172407142Y-99350000D01*
X172478571Y-99064285D01*
X172550000Y-98921428D01*
X172621428Y-98850000D01*
X172764285Y-98778571D01*
%LPC*%
D15*
X182900000Y-65220000D03*
X182900000Y-62680000D03*
X182900000Y-60140000D03*
D16*
X182900000Y-57600000D03*
D17*
X91500000Y-57280000D03*
X114360000Y-64900000D03*
X94040000Y-57280000D03*
X111820000Y-64900000D03*
X96580000Y-57280000D03*
X109280000Y-64900000D03*
X99120000Y-57280000D03*
X106740000Y-64900000D03*
X101660000Y-57280000D03*
X104200000Y-64900000D03*
X104200000Y-57280000D03*
X101660000Y-64900000D03*
X106740000Y-57280000D03*
X99120000Y-64900000D03*
X109280000Y-57280000D03*
X96580000Y-64900000D03*
X111820000Y-57280000D03*
X94040000Y-64900000D03*
X114360000Y-57280000D03*
D18*
X91500000Y-64900000D03*
G36*
G01*
X124900000Y-119850001D02*
X124900000Y-118949999D01*
G75*
G02*
X125149999Y-118700000I249999J0D01*
G01*
X125850001Y-118700000D01*
G75*
G02*
X126100000Y-118949999I0J-249999D01*
G01*
X126100000Y-119850001D01*
G75*
G02*
X125850001Y-120100000I-249999J0D01*
G01*
X125149999Y-120100000D01*
G75*
G02*
X124900000Y-119850001I0J249999D01*
G01*
G37*
G36*
G01*
X122900000Y-119850001D02*
X122900000Y-118949999D01*
G75*
G02*
X123149999Y-118700000I249999J0D01*
G01*
X123850001Y-118700000D01*
G75*
G02*
X124100000Y-118949999I0J-249999D01*
G01*
X124100000Y-119850001D01*
G75*
G02*
X123850001Y-120100000I-249999J0D01*
G01*
X123149999Y-120100000D01*
G75*
G02*
X122900000Y-119850001I0J249999D01*
G01*
G37*
G36*
G01*
X124950000Y-123150001D02*
X124950000Y-122249999D01*
G75*
G02*
X125199999Y-122000000I249999J0D01*
G01*
X125850001Y-122000000D01*
G75*
G02*
X126100000Y-122249999I0J-249999D01*
G01*
X126100000Y-123150001D01*
G75*
G02*
X125850001Y-123400000I-249999J0D01*
G01*
X125199999Y-123400000D01*
G75*
G02*
X124950000Y-123150001I0J249999D01*
G01*
G37*
G36*
G01*
X122900000Y-123150001D02*
X122900000Y-122249999D01*
G75*
G02*
X123149999Y-122000000I249999J0D01*
G01*
X123800001Y-122000000D01*
G75*
G02*
X124050000Y-122249999I0J-249999D01*
G01*
X124050000Y-123150001D01*
G75*
G02*
X123800001Y-123400000I-249999J0D01*
G01*
X123149999Y-123400000D01*
G75*
G02*
X122900000Y-123150001I0J249999D01*
G01*
G37*
G36*
G01*
X125000000Y-63850001D02*
X125000000Y-62949999D01*
G75*
G02*
X125249999Y-62700000I249999J0D01*
G01*
X125950001Y-62700000D01*
G75*
G02*
X126200000Y-62949999I0J-249999D01*
G01*
X126200000Y-63850001D01*
G75*
G02*
X125950001Y-64100000I-249999J0D01*
G01*
X125249999Y-64100000D01*
G75*
G02*
X125000000Y-63850001I0J249999D01*
G01*
G37*
G36*
G01*
X123000000Y-63850001D02*
X123000000Y-62949999D01*
G75*
G02*
X123249999Y-62700000I249999J0D01*
G01*
X123950001Y-62700000D01*
G75*
G02*
X124200000Y-62949999I0J-249999D01*
G01*
X124200000Y-63850001D01*
G75*
G02*
X123950001Y-64100000I-249999J0D01*
G01*
X123249999Y-64100000D01*
G75*
G02*
X123000000Y-63850001I0J249999D01*
G01*
G37*
G36*
G01*
X125025000Y-60450001D02*
X125025000Y-59549999D01*
G75*
G02*
X125274999Y-59300000I249999J0D01*
G01*
X125925001Y-59300000D01*
G75*
G02*
X126175000Y-59549999I0J-249999D01*
G01*
X126175000Y-60450001D01*
G75*
G02*
X125925001Y-60700000I-249999J0D01*
G01*
X125274999Y-60700000D01*
G75*
G02*
X125025000Y-60450001I0J249999D01*
G01*
G37*
G36*
G01*
X122975000Y-60450001D02*
X122975000Y-59549999D01*
G75*
G02*
X123224999Y-59300000I249999J0D01*
G01*
X123875001Y-59300000D01*
G75*
G02*
X124125000Y-59549999I0J-249999D01*
G01*
X124125000Y-60450001D01*
G75*
G02*
X123875001Y-60700000I-249999J0D01*
G01*
X123224999Y-60700000D01*
G75*
G02*
X122975000Y-60450001I0J249999D01*
G01*
G37*
D17*
X93780000Y-98200000D03*
X101400000Y-80420000D03*
X93780000Y-95660000D03*
X101400000Y-82960000D03*
X93780000Y-93120000D03*
X101400000Y-85500000D03*
X93780000Y-90580000D03*
X101400000Y-88040000D03*
X93780000Y-88040000D03*
X101400000Y-90580000D03*
X93780000Y-85500000D03*
X101400000Y-93120000D03*
X93780000Y-82960000D03*
X101400000Y-95660000D03*
X93780000Y-80420000D03*
D18*
X101400000Y-98200000D03*
D17*
X110180000Y-98200000D03*
X117800000Y-80420000D03*
X110180000Y-95660000D03*
X117800000Y-82960000D03*
X110180000Y-93120000D03*
X117800000Y-85500000D03*
X110180000Y-90580000D03*
X117800000Y-88040000D03*
X110180000Y-88040000D03*
X117800000Y-90580000D03*
X110180000Y-85500000D03*
X117800000Y-93120000D03*
X110180000Y-82960000D03*
X117800000Y-95660000D03*
X110180000Y-80420000D03*
D18*
X117800000Y-98200000D03*
D15*
X182900000Y-124380000D03*
X182900000Y-121840000D03*
X182900000Y-119300000D03*
X182900000Y-116760000D03*
X182900000Y-114220000D03*
X182900000Y-111680000D03*
X182900000Y-109140000D03*
D16*
X182900000Y-106600000D03*
D17*
X139800000Y-124280000D03*
X157580000Y-131900000D03*
X142340000Y-124280000D03*
X155040000Y-131900000D03*
X144880000Y-124280000D03*
X152500000Y-131900000D03*
X147420000Y-124280000D03*
X149960000Y-131900000D03*
X149960000Y-124280000D03*
X147420000Y-131900000D03*
X152500000Y-124280000D03*
X144880000Y-131900000D03*
X155040000Y-124280000D03*
X142340000Y-131900000D03*
X157580000Y-124280000D03*
D18*
X139800000Y-131900000D03*
D17*
X139700000Y-51180000D03*
X157480000Y-58800000D03*
X142240000Y-51180000D03*
X154940000Y-58800000D03*
X144780000Y-51180000D03*
X152400000Y-58800000D03*
X147320000Y-51180000D03*
X149860000Y-58800000D03*
X149860000Y-51180000D03*
X147320000Y-58800000D03*
X152400000Y-51180000D03*
X144780000Y-58800000D03*
X154940000Y-51180000D03*
X142240000Y-58800000D03*
X157480000Y-51180000D03*
D18*
X139700000Y-58800000D03*
G36*
G01*
X94275000Y-102050000D02*
X93325000Y-102050000D01*
G75*
G02*
X93075000Y-101800000I0J250000D01*
G01*
X93075000Y-101125000D01*
G75*
G02*
X93325000Y-100875000I250000J0D01*
G01*
X94275000Y-100875000D01*
G75*
G02*
X94525000Y-101125000I0J-250000D01*
G01*
X94525000Y-101800000D01*
G75*
G02*
X94275000Y-102050000I-250000J0D01*
G01*
G37*
G36*
G01*
X94275000Y-104125000D02*
X93325000Y-104125000D01*
G75*
G02*
X93075000Y-103875000I0J250000D01*
G01*
X93075000Y-103200000D01*
G75*
G02*
X93325000Y-102950000I250000J0D01*
G01*
X94275000Y-102950000D01*
G75*
G02*
X94525000Y-103200000I0J-250000D01*
G01*
X94525000Y-103875000D01*
G75*
G02*
X94275000Y-104125000I-250000J0D01*
G01*
G37*
G36*
G01*
X110675000Y-102050000D02*
X109725000Y-102050000D01*
G75*
G02*
X109475000Y-101800000I0J250000D01*
G01*
X109475000Y-101125000D01*
G75*
G02*
X109725000Y-100875000I250000J0D01*
G01*
X110675000Y-100875000D01*
G75*
G02*
X110925000Y-101125000I0J-250000D01*
G01*
X110925000Y-101800000D01*
G75*
G02*
X110675000Y-102050000I-250000J0D01*
G01*
G37*
G36*
G01*
X110675000Y-104125000D02*
X109725000Y-104125000D01*
G75*
G02*
X109475000Y-103875000I0J250000D01*
G01*
X109475000Y-103200000D01*
G75*
G02*
X109725000Y-102950000I250000J0D01*
G01*
X110675000Y-102950000D01*
G75*
G02*
X110925000Y-103200000I0J-250000D01*
G01*
X110925000Y-103875000D01*
G75*
G02*
X110675000Y-104125000I-250000J0D01*
G01*
G37*
G36*
G01*
X91025000Y-54050000D02*
X91975000Y-54050000D01*
G75*
G02*
X92225000Y-54300000I0J-250000D01*
G01*
X92225000Y-54975000D01*
G75*
G02*
X91975000Y-55225000I-250000J0D01*
G01*
X91025000Y-55225000D01*
G75*
G02*
X90775000Y-54975000I0J250000D01*
G01*
X90775000Y-54300000D01*
G75*
G02*
X91025000Y-54050000I250000J0D01*
G01*
G37*
G36*
G01*
X91025000Y-51975000D02*
X91975000Y-51975000D01*
G75*
G02*
X92225000Y-52225000I0J-250000D01*
G01*
X92225000Y-52900000D01*
G75*
G02*
X91975000Y-53150000I-250000J0D01*
G01*
X91025000Y-53150000D01*
G75*
G02*
X90775000Y-52900000I0J250000D01*
G01*
X90775000Y-52225000D01*
G75*
G02*
X91025000Y-51975000I250000J0D01*
G01*
G37*
G36*
G01*
X91125000Y-114150000D02*
X92075000Y-114150000D01*
G75*
G02*
X92325000Y-114400000I0J-250000D01*
G01*
X92325000Y-115075000D01*
G75*
G02*
X92075000Y-115325000I-250000J0D01*
G01*
X91125000Y-115325000D01*
G75*
G02*
X90875000Y-115075000I0J250000D01*
G01*
X90875000Y-114400000D01*
G75*
G02*
X91125000Y-114150000I250000J0D01*
G01*
G37*
G36*
G01*
X91125000Y-112075000D02*
X92075000Y-112075000D01*
G75*
G02*
X92325000Y-112325000I0J-250000D01*
G01*
X92325000Y-113000000D01*
G75*
G02*
X92075000Y-113250000I-250000J0D01*
G01*
X91125000Y-113250000D01*
G75*
G02*
X90875000Y-113000000I0J250000D01*
G01*
X90875000Y-112325000D01*
G75*
G02*
X91125000Y-112075000I250000J0D01*
G01*
G37*
G36*
G01*
X136175000Y-51650000D02*
X135225000Y-51650000D01*
G75*
G02*
X134975000Y-51400000I0J250000D01*
G01*
X134975000Y-50725000D01*
G75*
G02*
X135225000Y-50475000I250000J0D01*
G01*
X136175000Y-50475000D01*
G75*
G02*
X136425000Y-50725000I0J-250000D01*
G01*
X136425000Y-51400000D01*
G75*
G02*
X136175000Y-51650000I-250000J0D01*
G01*
G37*
G36*
G01*
X136175000Y-53725000D02*
X135225000Y-53725000D01*
G75*
G02*
X134975000Y-53475000I0J250000D01*
G01*
X134975000Y-52800000D01*
G75*
G02*
X135225000Y-52550000I250000J0D01*
G01*
X136175000Y-52550000D01*
G75*
G02*
X136425000Y-52800000I0J-250000D01*
G01*
X136425000Y-53475000D01*
G75*
G02*
X136175000Y-53725000I-250000J0D01*
G01*
G37*
G36*
G01*
X135150000Y-124775000D02*
X135150000Y-123825000D01*
G75*
G02*
X135400000Y-123575000I250000J0D01*
G01*
X136075000Y-123575000D01*
G75*
G02*
X136325000Y-123825000I0J-250000D01*
G01*
X136325000Y-124775000D01*
G75*
G02*
X136075000Y-125025000I-250000J0D01*
G01*
X135400000Y-125025000D01*
G75*
G02*
X135150000Y-124775000I0J250000D01*
G01*
G37*
G36*
G01*
X133075000Y-124775000D02*
X133075000Y-123825000D01*
G75*
G02*
X133325000Y-123575000I250000J0D01*
G01*
X134000000Y-123575000D01*
G75*
G02*
X134250000Y-123825000I0J-250000D01*
G01*
X134250000Y-124775000D01*
G75*
G02*
X134000000Y-125025000I-250000J0D01*
G01*
X133325000Y-125025000D01*
G75*
G02*
X133075000Y-124775000I0J250000D01*
G01*
G37*
D17*
X91600000Y-117880000D03*
X114460000Y-125500000D03*
X94140000Y-117880000D03*
X111920000Y-125500000D03*
X96680000Y-117880000D03*
X109380000Y-125500000D03*
X99220000Y-117880000D03*
X106840000Y-125500000D03*
X101760000Y-117880000D03*
X104300000Y-125500000D03*
X104300000Y-117880000D03*
X101760000Y-125500000D03*
X106840000Y-117880000D03*
X99220000Y-125500000D03*
X109380000Y-117880000D03*
X96680000Y-125500000D03*
X111920000Y-117880000D03*
X94140000Y-125500000D03*
X114460000Y-117880000D03*
D18*
X91600000Y-125500000D03*
G36*
G01*
X129100000Y-74850001D02*
X129100000Y-73949999D01*
G75*
G02*
X129349999Y-73700000I249999J0D01*
G01*
X130050001Y-73700000D01*
G75*
G02*
X130300000Y-73949999I0J-249999D01*
G01*
X130300000Y-74850001D01*
G75*
G02*
X130050001Y-75100000I-249999J0D01*
G01*
X129349999Y-75100000D01*
G75*
G02*
X129100000Y-74850001I0J249999D01*
G01*
G37*
G36*
G01*
X127100000Y-74850001D02*
X127100000Y-73949999D01*
G75*
G02*
X127349999Y-73700000I249999J0D01*
G01*
X128050001Y-73700000D01*
G75*
G02*
X128300000Y-73949999I0J-249999D01*
G01*
X128300000Y-74850001D01*
G75*
G02*
X128050001Y-75100000I-249999J0D01*
G01*
X127349999Y-75100000D01*
G75*
G02*
X127100000Y-74850001I0J249999D01*
G01*
G37*
G36*
G01*
X135242857Y-74850001D02*
X135242857Y-73949999D01*
G75*
G02*
X135492856Y-73700000I249999J0D01*
G01*
X136192858Y-73700000D01*
G75*
G02*
X136442857Y-73949999I0J-249999D01*
G01*
X136442857Y-74850001D01*
G75*
G02*
X136192858Y-75100000I-249999J0D01*
G01*
X135492856Y-75100000D01*
G75*
G02*
X135242857Y-74850001I0J249999D01*
G01*
G37*
G36*
G01*
X133242857Y-74850001D02*
X133242857Y-73949999D01*
G75*
G02*
X133492856Y-73700000I249999J0D01*
G01*
X134192858Y-73700000D01*
G75*
G02*
X134442857Y-73949999I0J-249999D01*
G01*
X134442857Y-74850001D01*
G75*
G02*
X134192858Y-75100000I-249999J0D01*
G01*
X133492856Y-75100000D01*
G75*
G02*
X133242857Y-74850001I0J249999D01*
G01*
G37*
G36*
G01*
X141385714Y-74850001D02*
X141385714Y-73949999D01*
G75*
G02*
X141635713Y-73700000I249999J0D01*
G01*
X142335715Y-73700000D01*
G75*
G02*
X142585714Y-73949999I0J-249999D01*
G01*
X142585714Y-74850001D01*
G75*
G02*
X142335715Y-75100000I-249999J0D01*
G01*
X141635713Y-75100000D01*
G75*
G02*
X141385714Y-74850001I0J249999D01*
G01*
G37*
G36*
G01*
X139385714Y-74850001D02*
X139385714Y-73949999D01*
G75*
G02*
X139635713Y-73700000I249999J0D01*
G01*
X140335715Y-73700000D01*
G75*
G02*
X140585714Y-73949999I0J-249999D01*
G01*
X140585714Y-74850001D01*
G75*
G02*
X140335715Y-75100000I-249999J0D01*
G01*
X139635713Y-75100000D01*
G75*
G02*
X139385714Y-74850001I0J249999D01*
G01*
G37*
G36*
G01*
X147528571Y-74850001D02*
X147528571Y-73949999D01*
G75*
G02*
X147778570Y-73700000I249999J0D01*
G01*
X148478572Y-73700000D01*
G75*
G02*
X148728571Y-73949999I0J-249999D01*
G01*
X148728571Y-74850001D01*
G75*
G02*
X148478572Y-75100000I-249999J0D01*
G01*
X147778570Y-75100000D01*
G75*
G02*
X147528571Y-74850001I0J249999D01*
G01*
G37*
G36*
G01*
X145528571Y-74850001D02*
X145528571Y-73949999D01*
G75*
G02*
X145778570Y-73700000I249999J0D01*
G01*
X146478572Y-73700000D01*
G75*
G02*
X146728571Y-73949999I0J-249999D01*
G01*
X146728571Y-74850001D01*
G75*
G02*
X146478572Y-75100000I-249999J0D01*
G01*
X145778570Y-75100000D01*
G75*
G02*
X145528571Y-74850001I0J249999D01*
G01*
G37*
G36*
G01*
X153671428Y-74850001D02*
X153671428Y-73949999D01*
G75*
G02*
X153921427Y-73700000I249999J0D01*
G01*
X154621429Y-73700000D01*
G75*
G02*
X154871428Y-73949999I0J-249999D01*
G01*
X154871428Y-74850001D01*
G75*
G02*
X154621429Y-75100000I-249999J0D01*
G01*
X153921427Y-75100000D01*
G75*
G02*
X153671428Y-74850001I0J249999D01*
G01*
G37*
G36*
G01*
X151671428Y-74850001D02*
X151671428Y-73949999D01*
G75*
G02*
X151921427Y-73700000I249999J0D01*
G01*
X152621429Y-73700000D01*
G75*
G02*
X152871428Y-73949999I0J-249999D01*
G01*
X152871428Y-74850001D01*
G75*
G02*
X152621429Y-75100000I-249999J0D01*
G01*
X151921427Y-75100000D01*
G75*
G02*
X151671428Y-74850001I0J249999D01*
G01*
G37*
G36*
G01*
X159814285Y-74850001D02*
X159814285Y-73949999D01*
G75*
G02*
X160064284Y-73700000I249999J0D01*
G01*
X160764286Y-73700000D01*
G75*
G02*
X161014285Y-73949999I0J-249999D01*
G01*
X161014285Y-74850001D01*
G75*
G02*
X160764286Y-75100000I-249999J0D01*
G01*
X160064284Y-75100000D01*
G75*
G02*
X159814285Y-74850001I0J249999D01*
G01*
G37*
G36*
G01*
X157814285Y-74850001D02*
X157814285Y-73949999D01*
G75*
G02*
X158064284Y-73700000I249999J0D01*
G01*
X158764286Y-73700000D01*
G75*
G02*
X159014285Y-73949999I0J-249999D01*
G01*
X159014285Y-74850001D01*
G75*
G02*
X158764286Y-75100000I-249999J0D01*
G01*
X158064284Y-75100000D01*
G75*
G02*
X157814285Y-74850001I0J249999D01*
G01*
G37*
G36*
G01*
X165957142Y-74850001D02*
X165957142Y-73949999D01*
G75*
G02*
X166207141Y-73700000I249999J0D01*
G01*
X166907143Y-73700000D01*
G75*
G02*
X167157142Y-73949999I0J-249999D01*
G01*
X167157142Y-74850001D01*
G75*
G02*
X166907143Y-75100000I-249999J0D01*
G01*
X166207141Y-75100000D01*
G75*
G02*
X165957142Y-74850001I0J249999D01*
G01*
G37*
G36*
G01*
X163957142Y-74850001D02*
X163957142Y-73949999D01*
G75*
G02*
X164207141Y-73700000I249999J0D01*
G01*
X164907143Y-73700000D01*
G75*
G02*
X165157142Y-73949999I0J-249999D01*
G01*
X165157142Y-74850001D01*
G75*
G02*
X164907143Y-75100000I-249999J0D01*
G01*
X164207141Y-75100000D01*
G75*
G02*
X163957142Y-74850001I0J249999D01*
G01*
G37*
G36*
G01*
X172100000Y-74850001D02*
X172100000Y-73949999D01*
G75*
G02*
X172349999Y-73700000I249999J0D01*
G01*
X173050001Y-73700000D01*
G75*
G02*
X173300000Y-73949999I0J-249999D01*
G01*
X173300000Y-74850001D01*
G75*
G02*
X173050001Y-75100000I-249999J0D01*
G01*
X172349999Y-75100000D01*
G75*
G02*
X172100000Y-74850001I0J249999D01*
G01*
G37*
G36*
G01*
X170100000Y-74850001D02*
X170100000Y-73949999D01*
G75*
G02*
X170349999Y-73700000I249999J0D01*
G01*
X171050001Y-73700000D01*
G75*
G02*
X171300000Y-73949999I0J-249999D01*
G01*
X171300000Y-74850001D01*
G75*
G02*
X171050001Y-75100000I-249999J0D01*
G01*
X170349999Y-75100000D01*
G75*
G02*
X170100000Y-74850001I0J249999D01*
G01*
G37*
G36*
G01*
X128700000Y-106150001D02*
X128700000Y-105249999D01*
G75*
G02*
X128949999Y-105000000I249999J0D01*
G01*
X129650001Y-105000000D01*
G75*
G02*
X129900000Y-105249999I0J-249999D01*
G01*
X129900000Y-106150001D01*
G75*
G02*
X129650001Y-106400000I-249999J0D01*
G01*
X128949999Y-106400000D01*
G75*
G02*
X128700000Y-106150001I0J249999D01*
G01*
G37*
G36*
G01*
X126700000Y-106150001D02*
X126700000Y-105249999D01*
G75*
G02*
X126949999Y-105000000I249999J0D01*
G01*
X127650001Y-105000000D01*
G75*
G02*
X127900000Y-105249999I0J-249999D01*
G01*
X127900000Y-106150001D01*
G75*
G02*
X127650001Y-106400000I-249999J0D01*
G01*
X126949999Y-106400000D01*
G75*
G02*
X126700000Y-106150001I0J249999D01*
G01*
G37*
G36*
G01*
X134842857Y-106150001D02*
X134842857Y-105249999D01*
G75*
G02*
X135092856Y-105000000I249999J0D01*
G01*
X135792858Y-105000000D01*
G75*
G02*
X136042857Y-105249999I0J-249999D01*
G01*
X136042857Y-106150001D01*
G75*
G02*
X135792858Y-106400000I-249999J0D01*
G01*
X135092856Y-106400000D01*
G75*
G02*
X134842857Y-106150001I0J249999D01*
G01*
G37*
G36*
G01*
X132842857Y-106150001D02*
X132842857Y-105249999D01*
G75*
G02*
X133092856Y-105000000I249999J0D01*
G01*
X133792858Y-105000000D01*
G75*
G02*
X134042857Y-105249999I0J-249999D01*
G01*
X134042857Y-106150001D01*
G75*
G02*
X133792858Y-106400000I-249999J0D01*
G01*
X133092856Y-106400000D01*
G75*
G02*
X132842857Y-106150001I0J249999D01*
G01*
G37*
G36*
G01*
X140985714Y-106150001D02*
X140985714Y-105249999D01*
G75*
G02*
X141235713Y-105000000I249999J0D01*
G01*
X141935715Y-105000000D01*
G75*
G02*
X142185714Y-105249999I0J-249999D01*
G01*
X142185714Y-106150001D01*
G75*
G02*
X141935715Y-106400000I-249999J0D01*
G01*
X141235713Y-106400000D01*
G75*
G02*
X140985714Y-106150001I0J249999D01*
G01*
G37*
G36*
G01*
X138985714Y-106150001D02*
X138985714Y-105249999D01*
G75*
G02*
X139235713Y-105000000I249999J0D01*
G01*
X139935715Y-105000000D01*
G75*
G02*
X140185714Y-105249999I0J-249999D01*
G01*
X140185714Y-106150001D01*
G75*
G02*
X139935715Y-106400000I-249999J0D01*
G01*
X139235713Y-106400000D01*
G75*
G02*
X138985714Y-106150001I0J249999D01*
G01*
G37*
G36*
G01*
X147128571Y-106150001D02*
X147128571Y-105249999D01*
G75*
G02*
X147378570Y-105000000I249999J0D01*
G01*
X148078572Y-105000000D01*
G75*
G02*
X148328571Y-105249999I0J-249999D01*
G01*
X148328571Y-106150001D01*
G75*
G02*
X148078572Y-106400000I-249999J0D01*
G01*
X147378570Y-106400000D01*
G75*
G02*
X147128571Y-106150001I0J249999D01*
G01*
G37*
G36*
G01*
X145128571Y-106150001D02*
X145128571Y-105249999D01*
G75*
G02*
X145378570Y-105000000I249999J0D01*
G01*
X146078572Y-105000000D01*
G75*
G02*
X146328571Y-105249999I0J-249999D01*
G01*
X146328571Y-106150001D01*
G75*
G02*
X146078572Y-106400000I-249999J0D01*
G01*
X145378570Y-106400000D01*
G75*
G02*
X145128571Y-106150001I0J249999D01*
G01*
G37*
G36*
G01*
X153271428Y-106150001D02*
X153271428Y-105249999D01*
G75*
G02*
X153521427Y-105000000I249999J0D01*
G01*
X154221429Y-105000000D01*
G75*
G02*
X154471428Y-105249999I0J-249999D01*
G01*
X154471428Y-106150001D01*
G75*
G02*
X154221429Y-106400000I-249999J0D01*
G01*
X153521427Y-106400000D01*
G75*
G02*
X153271428Y-106150001I0J249999D01*
G01*
G37*
G36*
G01*
X151271428Y-106150001D02*
X151271428Y-105249999D01*
G75*
G02*
X151521427Y-105000000I249999J0D01*
G01*
X152221429Y-105000000D01*
G75*
G02*
X152471428Y-105249999I0J-249999D01*
G01*
X152471428Y-106150001D01*
G75*
G02*
X152221429Y-106400000I-249999J0D01*
G01*
X151521427Y-106400000D01*
G75*
G02*
X151271428Y-106150001I0J249999D01*
G01*
G37*
G36*
G01*
X159414285Y-106150001D02*
X159414285Y-105249999D01*
G75*
G02*
X159664284Y-105000000I249999J0D01*
G01*
X160364286Y-105000000D01*
G75*
G02*
X160614285Y-105249999I0J-249999D01*
G01*
X160614285Y-106150001D01*
G75*
G02*
X160364286Y-106400000I-249999J0D01*
G01*
X159664284Y-106400000D01*
G75*
G02*
X159414285Y-106150001I0J249999D01*
G01*
G37*
G36*
G01*
X157414285Y-106150001D02*
X157414285Y-105249999D01*
G75*
G02*
X157664284Y-105000000I249999J0D01*
G01*
X158364286Y-105000000D01*
G75*
G02*
X158614285Y-105249999I0J-249999D01*
G01*
X158614285Y-106150001D01*
G75*
G02*
X158364286Y-106400000I-249999J0D01*
G01*
X157664284Y-106400000D01*
G75*
G02*
X157414285Y-106150001I0J249999D01*
G01*
G37*
G36*
G01*
X165557142Y-106150001D02*
X165557142Y-105249999D01*
G75*
G02*
X165807141Y-105000000I249999J0D01*
G01*
X166507143Y-105000000D01*
G75*
G02*
X166757142Y-105249999I0J-249999D01*
G01*
X166757142Y-106150001D01*
G75*
G02*
X166507143Y-106400000I-249999J0D01*
G01*
X165807141Y-106400000D01*
G75*
G02*
X165557142Y-106150001I0J249999D01*
G01*
G37*
G36*
G01*
X163557142Y-106150001D02*
X163557142Y-105249999D01*
G75*
G02*
X163807141Y-105000000I249999J0D01*
G01*
X164507143Y-105000000D01*
G75*
G02*
X164757142Y-105249999I0J-249999D01*
G01*
X164757142Y-106150001D01*
G75*
G02*
X164507143Y-106400000I-249999J0D01*
G01*
X163807141Y-106400000D01*
G75*
G02*
X163557142Y-106150001I0J249999D01*
G01*
G37*
G36*
G01*
X171700000Y-106150001D02*
X171700000Y-105249999D01*
G75*
G02*
X171949999Y-105000000I249999J0D01*
G01*
X172650001Y-105000000D01*
G75*
G02*
X172900000Y-105249999I0J-249999D01*
G01*
X172900000Y-106150001D01*
G75*
G02*
X172650001Y-106400000I-249999J0D01*
G01*
X171949999Y-106400000D01*
G75*
G02*
X171700000Y-106150001I0J249999D01*
G01*
G37*
G36*
G01*
X169700000Y-106150001D02*
X169700000Y-105249999D01*
G75*
G02*
X169949999Y-105000000I249999J0D01*
G01*
X170650001Y-105000000D01*
G75*
G02*
X170900000Y-105249999I0J-249999D01*
G01*
X170900000Y-106150001D01*
G75*
G02*
X170650001Y-106400000I-249999J0D01*
G01*
X169949999Y-106400000D01*
G75*
G02*
X169700000Y-106150001I0J249999D01*
G01*
G37*
G36*
G01*
X128250000Y-78149999D02*
X128250000Y-79050001D01*
G75*
G02*
X128000001Y-79300000I-249999J0D01*
G01*
X127349999Y-79300000D01*
G75*
G02*
X127100000Y-79050001I0J249999D01*
G01*
X127100000Y-78149999D01*
G75*
G02*
X127349999Y-77900000I249999J0D01*
G01*
X128000001Y-77900000D01*
G75*
G02*
X128250000Y-78149999I0J-249999D01*
G01*
G37*
G36*
G01*
X130300000Y-78149999D02*
X130300000Y-79050001D01*
G75*
G02*
X130050001Y-79300000I-249999J0D01*
G01*
X129399999Y-79300000D01*
G75*
G02*
X129150000Y-79050001I0J249999D01*
G01*
X129150000Y-78149999D01*
G75*
G02*
X129399999Y-77900000I249999J0D01*
G01*
X130050001Y-77900000D01*
G75*
G02*
X130300000Y-78149999I0J-249999D01*
G01*
G37*
G36*
G01*
X134392857Y-78149999D02*
X134392857Y-79050001D01*
G75*
G02*
X134142858Y-79300000I-249999J0D01*
G01*
X133492856Y-79300000D01*
G75*
G02*
X133242857Y-79050001I0J249999D01*
G01*
X133242857Y-78149999D01*
G75*
G02*
X133492856Y-77900000I249999J0D01*
G01*
X134142858Y-77900000D01*
G75*
G02*
X134392857Y-78149999I0J-249999D01*
G01*
G37*
G36*
G01*
X136442857Y-78149999D02*
X136442857Y-79050001D01*
G75*
G02*
X136192858Y-79300000I-249999J0D01*
G01*
X135542856Y-79300000D01*
G75*
G02*
X135292857Y-79050001I0J249999D01*
G01*
X135292857Y-78149999D01*
G75*
G02*
X135542856Y-77900000I249999J0D01*
G01*
X136192858Y-77900000D01*
G75*
G02*
X136442857Y-78149999I0J-249999D01*
G01*
G37*
G36*
G01*
X140535714Y-78149999D02*
X140535714Y-79050001D01*
G75*
G02*
X140285715Y-79300000I-249999J0D01*
G01*
X139635713Y-79300000D01*
G75*
G02*
X139385714Y-79050001I0J249999D01*
G01*
X139385714Y-78149999D01*
G75*
G02*
X139635713Y-77900000I249999J0D01*
G01*
X140285715Y-77900000D01*
G75*
G02*
X140535714Y-78149999I0J-249999D01*
G01*
G37*
G36*
G01*
X142585714Y-78149999D02*
X142585714Y-79050001D01*
G75*
G02*
X142335715Y-79300000I-249999J0D01*
G01*
X141685713Y-79300000D01*
G75*
G02*
X141435714Y-79050001I0J249999D01*
G01*
X141435714Y-78149999D01*
G75*
G02*
X141685713Y-77900000I249999J0D01*
G01*
X142335715Y-77900000D01*
G75*
G02*
X142585714Y-78149999I0J-249999D01*
G01*
G37*
G36*
G01*
X146678571Y-78149999D02*
X146678571Y-79050001D01*
G75*
G02*
X146428572Y-79300000I-249999J0D01*
G01*
X145778570Y-79300000D01*
G75*
G02*
X145528571Y-79050001I0J249999D01*
G01*
X145528571Y-78149999D01*
G75*
G02*
X145778570Y-77900000I249999J0D01*
G01*
X146428572Y-77900000D01*
G75*
G02*
X146678571Y-78149999I0J-249999D01*
G01*
G37*
G36*
G01*
X148728571Y-78149999D02*
X148728571Y-79050001D01*
G75*
G02*
X148478572Y-79300000I-249999J0D01*
G01*
X147828570Y-79300000D01*
G75*
G02*
X147578571Y-79050001I0J249999D01*
G01*
X147578571Y-78149999D01*
G75*
G02*
X147828570Y-77900000I249999J0D01*
G01*
X148478572Y-77900000D01*
G75*
G02*
X148728571Y-78149999I0J-249999D01*
G01*
G37*
G36*
G01*
X152821428Y-78149999D02*
X152821428Y-79050001D01*
G75*
G02*
X152571429Y-79300000I-249999J0D01*
G01*
X151921427Y-79300000D01*
G75*
G02*
X151671428Y-79050001I0J249999D01*
G01*
X151671428Y-78149999D01*
G75*
G02*
X151921427Y-77900000I249999J0D01*
G01*
X152571429Y-77900000D01*
G75*
G02*
X152821428Y-78149999I0J-249999D01*
G01*
G37*
G36*
G01*
X154871428Y-78149999D02*
X154871428Y-79050001D01*
G75*
G02*
X154621429Y-79300000I-249999J0D01*
G01*
X153971427Y-79300000D01*
G75*
G02*
X153721428Y-79050001I0J249999D01*
G01*
X153721428Y-78149999D01*
G75*
G02*
X153971427Y-77900000I249999J0D01*
G01*
X154621429Y-77900000D01*
G75*
G02*
X154871428Y-78149999I0J-249999D01*
G01*
G37*
G36*
G01*
X158964285Y-78149999D02*
X158964285Y-79050001D01*
G75*
G02*
X158714286Y-79300000I-249999J0D01*
G01*
X158064284Y-79300000D01*
G75*
G02*
X157814285Y-79050001I0J249999D01*
G01*
X157814285Y-78149999D01*
G75*
G02*
X158064284Y-77900000I249999J0D01*
G01*
X158714286Y-77900000D01*
G75*
G02*
X158964285Y-78149999I0J-249999D01*
G01*
G37*
G36*
G01*
X161014285Y-78149999D02*
X161014285Y-79050001D01*
G75*
G02*
X160764286Y-79300000I-249999J0D01*
G01*
X160114284Y-79300000D01*
G75*
G02*
X159864285Y-79050001I0J249999D01*
G01*
X159864285Y-78149999D01*
G75*
G02*
X160114284Y-77900000I249999J0D01*
G01*
X160764286Y-77900000D01*
G75*
G02*
X161014285Y-78149999I0J-249999D01*
G01*
G37*
G36*
G01*
X165107142Y-78149999D02*
X165107142Y-79050001D01*
G75*
G02*
X164857143Y-79300000I-249999J0D01*
G01*
X164207141Y-79300000D01*
G75*
G02*
X163957142Y-79050001I0J249999D01*
G01*
X163957142Y-78149999D01*
G75*
G02*
X164207141Y-77900000I249999J0D01*
G01*
X164857143Y-77900000D01*
G75*
G02*
X165107142Y-78149999I0J-249999D01*
G01*
G37*
G36*
G01*
X167157142Y-78149999D02*
X167157142Y-79050001D01*
G75*
G02*
X166907143Y-79300000I-249999J0D01*
G01*
X166257141Y-79300000D01*
G75*
G02*
X166007142Y-79050001I0J249999D01*
G01*
X166007142Y-78149999D01*
G75*
G02*
X166257141Y-77900000I249999J0D01*
G01*
X166907143Y-77900000D01*
G75*
G02*
X167157142Y-78149999I0J-249999D01*
G01*
G37*
G36*
G01*
X171250000Y-78149999D02*
X171250000Y-79050001D01*
G75*
G02*
X171000001Y-79300000I-249999J0D01*
G01*
X170349999Y-79300000D01*
G75*
G02*
X170100000Y-79050001I0J249999D01*
G01*
X170100000Y-78149999D01*
G75*
G02*
X170349999Y-77900000I249999J0D01*
G01*
X171000001Y-77900000D01*
G75*
G02*
X171250000Y-78149999I0J-249999D01*
G01*
G37*
G36*
G01*
X173300000Y-78149999D02*
X173300000Y-79050001D01*
G75*
G02*
X173050001Y-79300000I-249999J0D01*
G01*
X172399999Y-79300000D01*
G75*
G02*
X172150000Y-79050001I0J249999D01*
G01*
X172150000Y-78149999D01*
G75*
G02*
X172399999Y-77900000I249999J0D01*
G01*
X173050001Y-77900000D01*
G75*
G02*
X173300000Y-78149999I0J-249999D01*
G01*
G37*
G36*
G01*
X127850000Y-101049999D02*
X127850000Y-101950001D01*
G75*
G02*
X127600001Y-102200000I-249999J0D01*
G01*
X126949999Y-102200000D01*
G75*
G02*
X126700000Y-101950001I0J249999D01*
G01*
X126700000Y-101049999D01*
G75*
G02*
X126949999Y-100800000I249999J0D01*
G01*
X127600001Y-100800000D01*
G75*
G02*
X127850000Y-101049999I0J-249999D01*
G01*
G37*
G36*
G01*
X129900000Y-101049999D02*
X129900000Y-101950001D01*
G75*
G02*
X129650001Y-102200000I-249999J0D01*
G01*
X128999999Y-102200000D01*
G75*
G02*
X128750000Y-101950001I0J249999D01*
G01*
X128750000Y-101049999D01*
G75*
G02*
X128999999Y-100800000I249999J0D01*
G01*
X129650001Y-100800000D01*
G75*
G02*
X129900000Y-101049999I0J-249999D01*
G01*
G37*
G36*
G01*
X133992857Y-101049999D02*
X133992857Y-101950001D01*
G75*
G02*
X133742858Y-102200000I-249999J0D01*
G01*
X133092856Y-102200000D01*
G75*
G02*
X132842857Y-101950001I0J249999D01*
G01*
X132842857Y-101049999D01*
G75*
G02*
X133092856Y-100800000I249999J0D01*
G01*
X133742858Y-100800000D01*
G75*
G02*
X133992857Y-101049999I0J-249999D01*
G01*
G37*
G36*
G01*
X136042857Y-101049999D02*
X136042857Y-101950001D01*
G75*
G02*
X135792858Y-102200000I-249999J0D01*
G01*
X135142856Y-102200000D01*
G75*
G02*
X134892857Y-101950001I0J249999D01*
G01*
X134892857Y-101049999D01*
G75*
G02*
X135142856Y-100800000I249999J0D01*
G01*
X135792858Y-100800000D01*
G75*
G02*
X136042857Y-101049999I0J-249999D01*
G01*
G37*
G36*
G01*
X140135714Y-101049999D02*
X140135714Y-101950001D01*
G75*
G02*
X139885715Y-102200000I-249999J0D01*
G01*
X139235713Y-102200000D01*
G75*
G02*
X138985714Y-101950001I0J249999D01*
G01*
X138985714Y-101049999D01*
G75*
G02*
X139235713Y-100800000I249999J0D01*
G01*
X139885715Y-100800000D01*
G75*
G02*
X140135714Y-101049999I0J-249999D01*
G01*
G37*
G36*
G01*
X142185714Y-101049999D02*
X142185714Y-101950001D01*
G75*
G02*
X141935715Y-102200000I-249999J0D01*
G01*
X141285713Y-102200000D01*
G75*
G02*
X141035714Y-101950001I0J249999D01*
G01*
X141035714Y-101049999D01*
G75*
G02*
X141285713Y-100800000I249999J0D01*
G01*
X141935715Y-100800000D01*
G75*
G02*
X142185714Y-101049999I0J-249999D01*
G01*
G37*
G36*
G01*
X146278571Y-101049999D02*
X146278571Y-101950001D01*
G75*
G02*
X146028572Y-102200000I-249999J0D01*
G01*
X145378570Y-102200000D01*
G75*
G02*
X145128571Y-101950001I0J249999D01*
G01*
X145128571Y-101049999D01*
G75*
G02*
X145378570Y-100800000I249999J0D01*
G01*
X146028572Y-100800000D01*
G75*
G02*
X146278571Y-101049999I0J-249999D01*
G01*
G37*
G36*
G01*
X148328571Y-101049999D02*
X148328571Y-101950001D01*
G75*
G02*
X148078572Y-102200000I-249999J0D01*
G01*
X147428570Y-102200000D01*
G75*
G02*
X147178571Y-101950001I0J249999D01*
G01*
X147178571Y-101049999D01*
G75*
G02*
X147428570Y-100800000I249999J0D01*
G01*
X148078572Y-100800000D01*
G75*
G02*
X148328571Y-101049999I0J-249999D01*
G01*
G37*
G36*
G01*
X152421428Y-101049999D02*
X152421428Y-101950001D01*
G75*
G02*
X152171429Y-102200000I-249999J0D01*
G01*
X151521427Y-102200000D01*
G75*
G02*
X151271428Y-101950001I0J249999D01*
G01*
X151271428Y-101049999D01*
G75*
G02*
X151521427Y-100800000I249999J0D01*
G01*
X152171429Y-100800000D01*
G75*
G02*
X152421428Y-101049999I0J-249999D01*
G01*
G37*
G36*
G01*
X154471428Y-101049999D02*
X154471428Y-101950001D01*
G75*
G02*
X154221429Y-102200000I-249999J0D01*
G01*
X153571427Y-102200000D01*
G75*
G02*
X153321428Y-101950001I0J249999D01*
G01*
X153321428Y-101049999D01*
G75*
G02*
X153571427Y-100800000I249999J0D01*
G01*
X154221429Y-100800000D01*
G75*
G02*
X154471428Y-101049999I0J-249999D01*
G01*
G37*
G36*
G01*
X158564285Y-101049999D02*
X158564285Y-101950001D01*
G75*
G02*
X158314286Y-102200000I-249999J0D01*
G01*
X157664284Y-102200000D01*
G75*
G02*
X157414285Y-101950001I0J249999D01*
G01*
X157414285Y-101049999D01*
G75*
G02*
X157664284Y-100800000I249999J0D01*
G01*
X158314286Y-100800000D01*
G75*
G02*
X158564285Y-101049999I0J-249999D01*
G01*
G37*
G36*
G01*
X160614285Y-101049999D02*
X160614285Y-101950001D01*
G75*
G02*
X160364286Y-102200000I-249999J0D01*
G01*
X159714284Y-102200000D01*
G75*
G02*
X159464285Y-101950001I0J249999D01*
G01*
X159464285Y-101049999D01*
G75*
G02*
X159714284Y-100800000I249999J0D01*
G01*
X160364286Y-100800000D01*
G75*
G02*
X160614285Y-101049999I0J-249999D01*
G01*
G37*
G36*
G01*
X164707142Y-101049999D02*
X164707142Y-101950001D01*
G75*
G02*
X164457143Y-102200000I-249999J0D01*
G01*
X163807141Y-102200000D01*
G75*
G02*
X163557142Y-101950001I0J249999D01*
G01*
X163557142Y-101049999D01*
G75*
G02*
X163807141Y-100800000I249999J0D01*
G01*
X164457143Y-100800000D01*
G75*
G02*
X164707142Y-101049999I0J-249999D01*
G01*
G37*
G36*
G01*
X166757142Y-101049999D02*
X166757142Y-101950001D01*
G75*
G02*
X166507143Y-102200000I-249999J0D01*
G01*
X165857141Y-102200000D01*
G75*
G02*
X165607142Y-101950001I0J249999D01*
G01*
X165607142Y-101049999D01*
G75*
G02*
X165857141Y-100800000I249999J0D01*
G01*
X166507143Y-100800000D01*
G75*
G02*
X166757142Y-101049999I0J-249999D01*
G01*
G37*
G36*
G01*
X170850000Y-101049999D02*
X170850000Y-101950001D01*
G75*
G02*
X170600001Y-102200000I-249999J0D01*
G01*
X169949999Y-102200000D01*
G75*
G02*
X169700000Y-101950001I0J249999D01*
G01*
X169700000Y-101049999D01*
G75*
G02*
X169949999Y-100800000I249999J0D01*
G01*
X170600001Y-100800000D01*
G75*
G02*
X170850000Y-101049999I0J-249999D01*
G01*
G37*
G36*
G01*
X172900000Y-101049999D02*
X172900000Y-101950001D01*
G75*
G02*
X172650001Y-102200000I-249999J0D01*
G01*
X171999999Y-102200000D01*
G75*
G02*
X171750000Y-101950001I0J249999D01*
G01*
X171750000Y-101049999D01*
G75*
G02*
X171999999Y-100800000I249999J0D01*
G01*
X172650001Y-100800000D01*
G75*
G02*
X172900000Y-101049999I0J-249999D01*
G01*
G37*
D15*
X185460000Y-136000000D03*
X182920000Y-136000000D03*
X180380000Y-136000000D03*
X177840000Y-136000000D03*
X175300000Y-136000000D03*
X172760000Y-136000000D03*
X170220000Y-136000000D03*
X167680000Y-136000000D03*
X165140000Y-136000000D03*
X162600000Y-136000000D03*
X160060000Y-136000000D03*
X157520000Y-136000000D03*
X154980000Y-136000000D03*
X152440000Y-136000000D03*
X149900000Y-136000000D03*
X147360000Y-136000000D03*
X144820000Y-136000000D03*
X142280000Y-136000000D03*
X139740000Y-136000000D03*
X137200000Y-136000000D03*
X134660000Y-136000000D03*
X132120000Y-136000000D03*
X129580000Y-136000000D03*
X127040000Y-136000000D03*
X124500000Y-136000000D03*
X121960000Y-136000000D03*
X119420000Y-136000000D03*
X116880000Y-136000000D03*
X114340000Y-136000000D03*
X111800000Y-136000000D03*
X109260000Y-136000000D03*
X106720000Y-136000000D03*
X104180000Y-136000000D03*
X101640000Y-136000000D03*
X99100000Y-136000000D03*
X96560000Y-136000000D03*
X94020000Y-136000000D03*
X91480000Y-136000000D03*
X88940000Y-136000000D03*
D16*
X86400000Y-136000000D03*
D15*
X185460000Y-46000000D03*
X182920000Y-46000000D03*
X180380000Y-46000000D03*
X177840000Y-46000000D03*
X175300000Y-46000000D03*
X172760000Y-46000000D03*
X170220000Y-46000000D03*
X167680000Y-46000000D03*
X165140000Y-46000000D03*
X162600000Y-46000000D03*
X160060000Y-46000000D03*
X157520000Y-46000000D03*
X154980000Y-46000000D03*
X152440000Y-46000000D03*
X149900000Y-46000000D03*
X147360000Y-46000000D03*
X144820000Y-46000000D03*
X142280000Y-46000000D03*
X139740000Y-46000000D03*
X137200000Y-46000000D03*
X134660000Y-46000000D03*
X132120000Y-46000000D03*
X129580000Y-46000000D03*
X127040000Y-46000000D03*
X124500000Y-46000000D03*
X121960000Y-46000000D03*
X119420000Y-46000000D03*
X116880000Y-46000000D03*
X114340000Y-46000000D03*
X111800000Y-46000000D03*
X109260000Y-46000000D03*
X106720000Y-46000000D03*
X104180000Y-46000000D03*
X101640000Y-46000000D03*
X99100000Y-46000000D03*
X96560000Y-46000000D03*
X94020000Y-46000000D03*
X91480000Y-46000000D03*
X88940000Y-46000000D03*
D16*
X86400000Y-46000000D03*
M02*
