G04 #@! TF.GenerationSoftware,KiCad,Pcbnew,(5.1.9)-1*
G04 #@! TF.CreationDate,2022-07-23T11:43:12-04:00*
G04 #@! TF.ProjectId,d-register,642d7265-6769-4737-9465-722e6b696361,2.0*
G04 #@! TF.SameCoordinates,Original*
G04 #@! TF.FileFunction,Soldermask,Top*
G04 #@! TF.FilePolarity,Negative*
%FSLAX46Y46*%
G04 Gerber Fmt 4.6, Leading zero omitted, Abs format (unit mm)*
G04 Created by KiCad (PCBNEW (5.1.9)-1) date 2022-07-23 11:43:12*
%MOMM*%
%LPD*%
G01*
G04 APERTURE LIST*
%ADD10O,1.700000X1.700000*%
%ADD11R,1.700000X1.700000*%
%ADD12O,1.600000X1.600000*%
%ADD13R,1.600000X1.600000*%
G04 APERTURE END LIST*
D10*
X182900000Y-65220000D03*
X182900000Y-62680000D03*
X182900000Y-60140000D03*
D11*
X182900000Y-57600000D03*
D12*
X91500000Y-57280000D03*
X114360000Y-64900000D03*
X94040000Y-57280000D03*
X111820000Y-64900000D03*
X96580000Y-57280000D03*
X109280000Y-64900000D03*
X99120000Y-57280000D03*
X106740000Y-64900000D03*
X101660000Y-57280000D03*
X104200000Y-64900000D03*
X104200000Y-57280000D03*
X101660000Y-64900000D03*
X106740000Y-57280000D03*
X99120000Y-64900000D03*
X109280000Y-57280000D03*
X96580000Y-64900000D03*
X111820000Y-57280000D03*
X94040000Y-64900000D03*
X114360000Y-57280000D03*
D13*
X91500000Y-64900000D03*
G36*
G01*
X124900000Y-119850001D02*
X124900000Y-118949999D01*
G75*
G02*
X125149999Y-118700000I249999J0D01*
G01*
X125850001Y-118700000D01*
G75*
G02*
X126100000Y-118949999I0J-249999D01*
G01*
X126100000Y-119850001D01*
G75*
G02*
X125850001Y-120100000I-249999J0D01*
G01*
X125149999Y-120100000D01*
G75*
G02*
X124900000Y-119850001I0J249999D01*
G01*
G37*
G36*
G01*
X122900000Y-119850001D02*
X122900000Y-118949999D01*
G75*
G02*
X123149999Y-118700000I249999J0D01*
G01*
X123850001Y-118700000D01*
G75*
G02*
X124100000Y-118949999I0J-249999D01*
G01*
X124100000Y-119850001D01*
G75*
G02*
X123850001Y-120100000I-249999J0D01*
G01*
X123149999Y-120100000D01*
G75*
G02*
X122900000Y-119850001I0J249999D01*
G01*
G37*
G36*
G01*
X124950000Y-123150001D02*
X124950000Y-122249999D01*
G75*
G02*
X125199999Y-122000000I249999J0D01*
G01*
X125850001Y-122000000D01*
G75*
G02*
X126100000Y-122249999I0J-249999D01*
G01*
X126100000Y-123150001D01*
G75*
G02*
X125850001Y-123400000I-249999J0D01*
G01*
X125199999Y-123400000D01*
G75*
G02*
X124950000Y-123150001I0J249999D01*
G01*
G37*
G36*
G01*
X122900000Y-123150001D02*
X122900000Y-122249999D01*
G75*
G02*
X123149999Y-122000000I249999J0D01*
G01*
X123800001Y-122000000D01*
G75*
G02*
X124050000Y-122249999I0J-249999D01*
G01*
X124050000Y-123150001D01*
G75*
G02*
X123800001Y-123400000I-249999J0D01*
G01*
X123149999Y-123400000D01*
G75*
G02*
X122900000Y-123150001I0J249999D01*
G01*
G37*
G36*
G01*
X125000000Y-63850001D02*
X125000000Y-62949999D01*
G75*
G02*
X125249999Y-62700000I249999J0D01*
G01*
X125950001Y-62700000D01*
G75*
G02*
X126200000Y-62949999I0J-249999D01*
G01*
X126200000Y-63850001D01*
G75*
G02*
X125950001Y-64100000I-249999J0D01*
G01*
X125249999Y-64100000D01*
G75*
G02*
X125000000Y-63850001I0J249999D01*
G01*
G37*
G36*
G01*
X123000000Y-63850001D02*
X123000000Y-62949999D01*
G75*
G02*
X123249999Y-62700000I249999J0D01*
G01*
X123950001Y-62700000D01*
G75*
G02*
X124200000Y-62949999I0J-249999D01*
G01*
X124200000Y-63850001D01*
G75*
G02*
X123950001Y-64100000I-249999J0D01*
G01*
X123249999Y-64100000D01*
G75*
G02*
X123000000Y-63850001I0J249999D01*
G01*
G37*
G36*
G01*
X125025000Y-60450001D02*
X125025000Y-59549999D01*
G75*
G02*
X125274999Y-59300000I249999J0D01*
G01*
X125925001Y-59300000D01*
G75*
G02*
X126175000Y-59549999I0J-249999D01*
G01*
X126175000Y-60450001D01*
G75*
G02*
X125925001Y-60700000I-249999J0D01*
G01*
X125274999Y-60700000D01*
G75*
G02*
X125025000Y-60450001I0J249999D01*
G01*
G37*
G36*
G01*
X122975000Y-60450001D02*
X122975000Y-59549999D01*
G75*
G02*
X123224999Y-59300000I249999J0D01*
G01*
X123875001Y-59300000D01*
G75*
G02*
X124125000Y-59549999I0J-249999D01*
G01*
X124125000Y-60450001D01*
G75*
G02*
X123875001Y-60700000I-249999J0D01*
G01*
X123224999Y-60700000D01*
G75*
G02*
X122975000Y-60450001I0J249999D01*
G01*
G37*
D12*
X93780000Y-98200000D03*
X101400000Y-80420000D03*
X93780000Y-95660000D03*
X101400000Y-82960000D03*
X93780000Y-93120000D03*
X101400000Y-85500000D03*
X93780000Y-90580000D03*
X101400000Y-88040000D03*
X93780000Y-88040000D03*
X101400000Y-90580000D03*
X93780000Y-85500000D03*
X101400000Y-93120000D03*
X93780000Y-82960000D03*
X101400000Y-95660000D03*
X93780000Y-80420000D03*
D13*
X101400000Y-98200000D03*
D12*
X110180000Y-98200000D03*
X117800000Y-80420000D03*
X110180000Y-95660000D03*
X117800000Y-82960000D03*
X110180000Y-93120000D03*
X117800000Y-85500000D03*
X110180000Y-90580000D03*
X117800000Y-88040000D03*
X110180000Y-88040000D03*
X117800000Y-90580000D03*
X110180000Y-85500000D03*
X117800000Y-93120000D03*
X110180000Y-82960000D03*
X117800000Y-95660000D03*
X110180000Y-80420000D03*
D13*
X117800000Y-98200000D03*
D10*
X182900000Y-124380000D03*
X182900000Y-121840000D03*
X182900000Y-119300000D03*
X182900000Y-116760000D03*
X182900000Y-114220000D03*
X182900000Y-111680000D03*
X182900000Y-109140000D03*
D11*
X182900000Y-106600000D03*
D12*
X139800000Y-124280000D03*
X157580000Y-131900000D03*
X142340000Y-124280000D03*
X155040000Y-131900000D03*
X144880000Y-124280000D03*
X152500000Y-131900000D03*
X147420000Y-124280000D03*
X149960000Y-131900000D03*
X149960000Y-124280000D03*
X147420000Y-131900000D03*
X152500000Y-124280000D03*
X144880000Y-131900000D03*
X155040000Y-124280000D03*
X142340000Y-131900000D03*
X157580000Y-124280000D03*
D13*
X139800000Y-131900000D03*
D12*
X139700000Y-51180000D03*
X157480000Y-58800000D03*
X142240000Y-51180000D03*
X154940000Y-58800000D03*
X144780000Y-51180000D03*
X152400000Y-58800000D03*
X147320000Y-51180000D03*
X149860000Y-58800000D03*
X149860000Y-51180000D03*
X147320000Y-58800000D03*
X152400000Y-51180000D03*
X144780000Y-58800000D03*
X154940000Y-51180000D03*
X142240000Y-58800000D03*
X157480000Y-51180000D03*
D13*
X139700000Y-58800000D03*
G36*
G01*
X94275000Y-102050000D02*
X93325000Y-102050000D01*
G75*
G02*
X93075000Y-101800000I0J250000D01*
G01*
X93075000Y-101125000D01*
G75*
G02*
X93325000Y-100875000I250000J0D01*
G01*
X94275000Y-100875000D01*
G75*
G02*
X94525000Y-101125000I0J-250000D01*
G01*
X94525000Y-101800000D01*
G75*
G02*
X94275000Y-102050000I-250000J0D01*
G01*
G37*
G36*
G01*
X94275000Y-104125000D02*
X93325000Y-104125000D01*
G75*
G02*
X93075000Y-103875000I0J250000D01*
G01*
X93075000Y-103200000D01*
G75*
G02*
X93325000Y-102950000I250000J0D01*
G01*
X94275000Y-102950000D01*
G75*
G02*
X94525000Y-103200000I0J-250000D01*
G01*
X94525000Y-103875000D01*
G75*
G02*
X94275000Y-104125000I-250000J0D01*
G01*
G37*
G36*
G01*
X110675000Y-102050000D02*
X109725000Y-102050000D01*
G75*
G02*
X109475000Y-101800000I0J250000D01*
G01*
X109475000Y-101125000D01*
G75*
G02*
X109725000Y-100875000I250000J0D01*
G01*
X110675000Y-100875000D01*
G75*
G02*
X110925000Y-101125000I0J-250000D01*
G01*
X110925000Y-101800000D01*
G75*
G02*
X110675000Y-102050000I-250000J0D01*
G01*
G37*
G36*
G01*
X110675000Y-104125000D02*
X109725000Y-104125000D01*
G75*
G02*
X109475000Y-103875000I0J250000D01*
G01*
X109475000Y-103200000D01*
G75*
G02*
X109725000Y-102950000I250000J0D01*
G01*
X110675000Y-102950000D01*
G75*
G02*
X110925000Y-103200000I0J-250000D01*
G01*
X110925000Y-103875000D01*
G75*
G02*
X110675000Y-104125000I-250000J0D01*
G01*
G37*
G36*
G01*
X91025000Y-54050000D02*
X91975000Y-54050000D01*
G75*
G02*
X92225000Y-54300000I0J-250000D01*
G01*
X92225000Y-54975000D01*
G75*
G02*
X91975000Y-55225000I-250000J0D01*
G01*
X91025000Y-55225000D01*
G75*
G02*
X90775000Y-54975000I0J250000D01*
G01*
X90775000Y-54300000D01*
G75*
G02*
X91025000Y-54050000I250000J0D01*
G01*
G37*
G36*
G01*
X91025000Y-51975000D02*
X91975000Y-51975000D01*
G75*
G02*
X92225000Y-52225000I0J-250000D01*
G01*
X92225000Y-52900000D01*
G75*
G02*
X91975000Y-53150000I-250000J0D01*
G01*
X91025000Y-53150000D01*
G75*
G02*
X90775000Y-52900000I0J250000D01*
G01*
X90775000Y-52225000D01*
G75*
G02*
X91025000Y-51975000I250000J0D01*
G01*
G37*
G36*
G01*
X91125000Y-114150000D02*
X92075000Y-114150000D01*
G75*
G02*
X92325000Y-114400000I0J-250000D01*
G01*
X92325000Y-115075000D01*
G75*
G02*
X92075000Y-115325000I-250000J0D01*
G01*
X91125000Y-115325000D01*
G75*
G02*
X90875000Y-115075000I0J250000D01*
G01*
X90875000Y-114400000D01*
G75*
G02*
X91125000Y-114150000I250000J0D01*
G01*
G37*
G36*
G01*
X91125000Y-112075000D02*
X92075000Y-112075000D01*
G75*
G02*
X92325000Y-112325000I0J-250000D01*
G01*
X92325000Y-113000000D01*
G75*
G02*
X92075000Y-113250000I-250000J0D01*
G01*
X91125000Y-113250000D01*
G75*
G02*
X90875000Y-113000000I0J250000D01*
G01*
X90875000Y-112325000D01*
G75*
G02*
X91125000Y-112075000I250000J0D01*
G01*
G37*
G36*
G01*
X136175000Y-51650000D02*
X135225000Y-51650000D01*
G75*
G02*
X134975000Y-51400000I0J250000D01*
G01*
X134975000Y-50725000D01*
G75*
G02*
X135225000Y-50475000I250000J0D01*
G01*
X136175000Y-50475000D01*
G75*
G02*
X136425000Y-50725000I0J-250000D01*
G01*
X136425000Y-51400000D01*
G75*
G02*
X136175000Y-51650000I-250000J0D01*
G01*
G37*
G36*
G01*
X136175000Y-53725000D02*
X135225000Y-53725000D01*
G75*
G02*
X134975000Y-53475000I0J250000D01*
G01*
X134975000Y-52800000D01*
G75*
G02*
X135225000Y-52550000I250000J0D01*
G01*
X136175000Y-52550000D01*
G75*
G02*
X136425000Y-52800000I0J-250000D01*
G01*
X136425000Y-53475000D01*
G75*
G02*
X136175000Y-53725000I-250000J0D01*
G01*
G37*
G36*
G01*
X135150000Y-124775000D02*
X135150000Y-123825000D01*
G75*
G02*
X135400000Y-123575000I250000J0D01*
G01*
X136075000Y-123575000D01*
G75*
G02*
X136325000Y-123825000I0J-250000D01*
G01*
X136325000Y-124775000D01*
G75*
G02*
X136075000Y-125025000I-250000J0D01*
G01*
X135400000Y-125025000D01*
G75*
G02*
X135150000Y-124775000I0J250000D01*
G01*
G37*
G36*
G01*
X133075000Y-124775000D02*
X133075000Y-123825000D01*
G75*
G02*
X133325000Y-123575000I250000J0D01*
G01*
X134000000Y-123575000D01*
G75*
G02*
X134250000Y-123825000I0J-250000D01*
G01*
X134250000Y-124775000D01*
G75*
G02*
X134000000Y-125025000I-250000J0D01*
G01*
X133325000Y-125025000D01*
G75*
G02*
X133075000Y-124775000I0J250000D01*
G01*
G37*
D12*
X91600000Y-117880000D03*
X114460000Y-125500000D03*
X94140000Y-117880000D03*
X111920000Y-125500000D03*
X96680000Y-117880000D03*
X109380000Y-125500000D03*
X99220000Y-117880000D03*
X106840000Y-125500000D03*
X101760000Y-117880000D03*
X104300000Y-125500000D03*
X104300000Y-117880000D03*
X101760000Y-125500000D03*
X106840000Y-117880000D03*
X99220000Y-125500000D03*
X109380000Y-117880000D03*
X96680000Y-125500000D03*
X111920000Y-117880000D03*
X94140000Y-125500000D03*
X114460000Y-117880000D03*
D13*
X91600000Y-125500000D03*
G36*
G01*
X129100000Y-74850001D02*
X129100000Y-73949999D01*
G75*
G02*
X129349999Y-73700000I249999J0D01*
G01*
X130050001Y-73700000D01*
G75*
G02*
X130300000Y-73949999I0J-249999D01*
G01*
X130300000Y-74850001D01*
G75*
G02*
X130050001Y-75100000I-249999J0D01*
G01*
X129349999Y-75100000D01*
G75*
G02*
X129100000Y-74850001I0J249999D01*
G01*
G37*
G36*
G01*
X127100000Y-74850001D02*
X127100000Y-73949999D01*
G75*
G02*
X127349999Y-73700000I249999J0D01*
G01*
X128050001Y-73700000D01*
G75*
G02*
X128300000Y-73949999I0J-249999D01*
G01*
X128300000Y-74850001D01*
G75*
G02*
X128050001Y-75100000I-249999J0D01*
G01*
X127349999Y-75100000D01*
G75*
G02*
X127100000Y-74850001I0J249999D01*
G01*
G37*
G36*
G01*
X135242857Y-74850001D02*
X135242857Y-73949999D01*
G75*
G02*
X135492856Y-73700000I249999J0D01*
G01*
X136192858Y-73700000D01*
G75*
G02*
X136442857Y-73949999I0J-249999D01*
G01*
X136442857Y-74850001D01*
G75*
G02*
X136192858Y-75100000I-249999J0D01*
G01*
X135492856Y-75100000D01*
G75*
G02*
X135242857Y-74850001I0J249999D01*
G01*
G37*
G36*
G01*
X133242857Y-74850001D02*
X133242857Y-73949999D01*
G75*
G02*
X133492856Y-73700000I249999J0D01*
G01*
X134192858Y-73700000D01*
G75*
G02*
X134442857Y-73949999I0J-249999D01*
G01*
X134442857Y-74850001D01*
G75*
G02*
X134192858Y-75100000I-249999J0D01*
G01*
X133492856Y-75100000D01*
G75*
G02*
X133242857Y-74850001I0J249999D01*
G01*
G37*
G36*
G01*
X141385714Y-74850001D02*
X141385714Y-73949999D01*
G75*
G02*
X141635713Y-73700000I249999J0D01*
G01*
X142335715Y-73700000D01*
G75*
G02*
X142585714Y-73949999I0J-249999D01*
G01*
X142585714Y-74850001D01*
G75*
G02*
X142335715Y-75100000I-249999J0D01*
G01*
X141635713Y-75100000D01*
G75*
G02*
X141385714Y-74850001I0J249999D01*
G01*
G37*
G36*
G01*
X139385714Y-74850001D02*
X139385714Y-73949999D01*
G75*
G02*
X139635713Y-73700000I249999J0D01*
G01*
X140335715Y-73700000D01*
G75*
G02*
X140585714Y-73949999I0J-249999D01*
G01*
X140585714Y-74850001D01*
G75*
G02*
X140335715Y-75100000I-249999J0D01*
G01*
X139635713Y-75100000D01*
G75*
G02*
X139385714Y-74850001I0J249999D01*
G01*
G37*
G36*
G01*
X147528571Y-74850001D02*
X147528571Y-73949999D01*
G75*
G02*
X147778570Y-73700000I249999J0D01*
G01*
X148478572Y-73700000D01*
G75*
G02*
X148728571Y-73949999I0J-249999D01*
G01*
X148728571Y-74850001D01*
G75*
G02*
X148478572Y-75100000I-249999J0D01*
G01*
X147778570Y-75100000D01*
G75*
G02*
X147528571Y-74850001I0J249999D01*
G01*
G37*
G36*
G01*
X145528571Y-74850001D02*
X145528571Y-73949999D01*
G75*
G02*
X145778570Y-73700000I249999J0D01*
G01*
X146478572Y-73700000D01*
G75*
G02*
X146728571Y-73949999I0J-249999D01*
G01*
X146728571Y-74850001D01*
G75*
G02*
X146478572Y-75100000I-249999J0D01*
G01*
X145778570Y-75100000D01*
G75*
G02*
X145528571Y-74850001I0J249999D01*
G01*
G37*
G36*
G01*
X153671428Y-74850001D02*
X153671428Y-73949999D01*
G75*
G02*
X153921427Y-73700000I249999J0D01*
G01*
X154621429Y-73700000D01*
G75*
G02*
X154871428Y-73949999I0J-249999D01*
G01*
X154871428Y-74850001D01*
G75*
G02*
X154621429Y-75100000I-249999J0D01*
G01*
X153921427Y-75100000D01*
G75*
G02*
X153671428Y-74850001I0J249999D01*
G01*
G37*
G36*
G01*
X151671428Y-74850001D02*
X151671428Y-73949999D01*
G75*
G02*
X151921427Y-73700000I249999J0D01*
G01*
X152621429Y-73700000D01*
G75*
G02*
X152871428Y-73949999I0J-249999D01*
G01*
X152871428Y-74850001D01*
G75*
G02*
X152621429Y-75100000I-249999J0D01*
G01*
X151921427Y-75100000D01*
G75*
G02*
X151671428Y-74850001I0J249999D01*
G01*
G37*
G36*
G01*
X159814285Y-74850001D02*
X159814285Y-73949999D01*
G75*
G02*
X160064284Y-73700000I249999J0D01*
G01*
X160764286Y-73700000D01*
G75*
G02*
X161014285Y-73949999I0J-249999D01*
G01*
X161014285Y-74850001D01*
G75*
G02*
X160764286Y-75100000I-249999J0D01*
G01*
X160064284Y-75100000D01*
G75*
G02*
X159814285Y-74850001I0J249999D01*
G01*
G37*
G36*
G01*
X157814285Y-74850001D02*
X157814285Y-73949999D01*
G75*
G02*
X158064284Y-73700000I249999J0D01*
G01*
X158764286Y-73700000D01*
G75*
G02*
X159014285Y-73949999I0J-249999D01*
G01*
X159014285Y-74850001D01*
G75*
G02*
X158764286Y-75100000I-249999J0D01*
G01*
X158064284Y-75100000D01*
G75*
G02*
X157814285Y-74850001I0J249999D01*
G01*
G37*
G36*
G01*
X165957142Y-74850001D02*
X165957142Y-73949999D01*
G75*
G02*
X166207141Y-73700000I249999J0D01*
G01*
X166907143Y-73700000D01*
G75*
G02*
X167157142Y-73949999I0J-249999D01*
G01*
X167157142Y-74850001D01*
G75*
G02*
X166907143Y-75100000I-249999J0D01*
G01*
X166207141Y-75100000D01*
G75*
G02*
X165957142Y-74850001I0J249999D01*
G01*
G37*
G36*
G01*
X163957142Y-74850001D02*
X163957142Y-73949999D01*
G75*
G02*
X164207141Y-73700000I249999J0D01*
G01*
X164907143Y-73700000D01*
G75*
G02*
X165157142Y-73949999I0J-249999D01*
G01*
X165157142Y-74850001D01*
G75*
G02*
X164907143Y-75100000I-249999J0D01*
G01*
X164207141Y-75100000D01*
G75*
G02*
X163957142Y-74850001I0J249999D01*
G01*
G37*
G36*
G01*
X172100000Y-74850001D02*
X172100000Y-73949999D01*
G75*
G02*
X172349999Y-73700000I249999J0D01*
G01*
X173050001Y-73700000D01*
G75*
G02*
X173300000Y-73949999I0J-249999D01*
G01*
X173300000Y-74850001D01*
G75*
G02*
X173050001Y-75100000I-249999J0D01*
G01*
X172349999Y-75100000D01*
G75*
G02*
X172100000Y-74850001I0J249999D01*
G01*
G37*
G36*
G01*
X170100000Y-74850001D02*
X170100000Y-73949999D01*
G75*
G02*
X170349999Y-73700000I249999J0D01*
G01*
X171050001Y-73700000D01*
G75*
G02*
X171300000Y-73949999I0J-249999D01*
G01*
X171300000Y-74850001D01*
G75*
G02*
X171050001Y-75100000I-249999J0D01*
G01*
X170349999Y-75100000D01*
G75*
G02*
X170100000Y-74850001I0J249999D01*
G01*
G37*
G36*
G01*
X128700000Y-106150001D02*
X128700000Y-105249999D01*
G75*
G02*
X128949999Y-105000000I249999J0D01*
G01*
X129650001Y-105000000D01*
G75*
G02*
X129900000Y-105249999I0J-249999D01*
G01*
X129900000Y-106150001D01*
G75*
G02*
X129650001Y-106400000I-249999J0D01*
G01*
X128949999Y-106400000D01*
G75*
G02*
X128700000Y-106150001I0J249999D01*
G01*
G37*
G36*
G01*
X126700000Y-106150001D02*
X126700000Y-105249999D01*
G75*
G02*
X126949999Y-105000000I249999J0D01*
G01*
X127650001Y-105000000D01*
G75*
G02*
X127900000Y-105249999I0J-249999D01*
G01*
X127900000Y-106150001D01*
G75*
G02*
X127650001Y-106400000I-249999J0D01*
G01*
X126949999Y-106400000D01*
G75*
G02*
X126700000Y-106150001I0J249999D01*
G01*
G37*
G36*
G01*
X134842857Y-106150001D02*
X134842857Y-105249999D01*
G75*
G02*
X135092856Y-105000000I249999J0D01*
G01*
X135792858Y-105000000D01*
G75*
G02*
X136042857Y-105249999I0J-249999D01*
G01*
X136042857Y-106150001D01*
G75*
G02*
X135792858Y-106400000I-249999J0D01*
G01*
X135092856Y-106400000D01*
G75*
G02*
X134842857Y-106150001I0J249999D01*
G01*
G37*
G36*
G01*
X132842857Y-106150001D02*
X132842857Y-105249999D01*
G75*
G02*
X133092856Y-105000000I249999J0D01*
G01*
X133792858Y-105000000D01*
G75*
G02*
X134042857Y-105249999I0J-249999D01*
G01*
X134042857Y-106150001D01*
G75*
G02*
X133792858Y-106400000I-249999J0D01*
G01*
X133092856Y-106400000D01*
G75*
G02*
X132842857Y-106150001I0J249999D01*
G01*
G37*
G36*
G01*
X140985714Y-106150001D02*
X140985714Y-105249999D01*
G75*
G02*
X141235713Y-105000000I249999J0D01*
G01*
X141935715Y-105000000D01*
G75*
G02*
X142185714Y-105249999I0J-249999D01*
G01*
X142185714Y-106150001D01*
G75*
G02*
X141935715Y-106400000I-249999J0D01*
G01*
X141235713Y-106400000D01*
G75*
G02*
X140985714Y-106150001I0J249999D01*
G01*
G37*
G36*
G01*
X138985714Y-106150001D02*
X138985714Y-105249999D01*
G75*
G02*
X139235713Y-105000000I249999J0D01*
G01*
X139935715Y-105000000D01*
G75*
G02*
X140185714Y-105249999I0J-249999D01*
G01*
X140185714Y-106150001D01*
G75*
G02*
X139935715Y-106400000I-249999J0D01*
G01*
X139235713Y-106400000D01*
G75*
G02*
X138985714Y-106150001I0J249999D01*
G01*
G37*
G36*
G01*
X147128571Y-106150001D02*
X147128571Y-105249999D01*
G75*
G02*
X147378570Y-105000000I249999J0D01*
G01*
X148078572Y-105000000D01*
G75*
G02*
X148328571Y-105249999I0J-249999D01*
G01*
X148328571Y-106150001D01*
G75*
G02*
X148078572Y-106400000I-249999J0D01*
G01*
X147378570Y-106400000D01*
G75*
G02*
X147128571Y-106150001I0J249999D01*
G01*
G37*
G36*
G01*
X145128571Y-106150001D02*
X145128571Y-105249999D01*
G75*
G02*
X145378570Y-105000000I249999J0D01*
G01*
X146078572Y-105000000D01*
G75*
G02*
X146328571Y-105249999I0J-249999D01*
G01*
X146328571Y-106150001D01*
G75*
G02*
X146078572Y-106400000I-249999J0D01*
G01*
X145378570Y-106400000D01*
G75*
G02*
X145128571Y-106150001I0J249999D01*
G01*
G37*
G36*
G01*
X153271428Y-106150001D02*
X153271428Y-105249999D01*
G75*
G02*
X153521427Y-105000000I249999J0D01*
G01*
X154221429Y-105000000D01*
G75*
G02*
X154471428Y-105249999I0J-249999D01*
G01*
X154471428Y-106150001D01*
G75*
G02*
X154221429Y-106400000I-249999J0D01*
G01*
X153521427Y-106400000D01*
G75*
G02*
X153271428Y-106150001I0J249999D01*
G01*
G37*
G36*
G01*
X151271428Y-106150001D02*
X151271428Y-105249999D01*
G75*
G02*
X151521427Y-105000000I249999J0D01*
G01*
X152221429Y-105000000D01*
G75*
G02*
X152471428Y-105249999I0J-249999D01*
G01*
X152471428Y-106150001D01*
G75*
G02*
X152221429Y-106400000I-249999J0D01*
G01*
X151521427Y-106400000D01*
G75*
G02*
X151271428Y-106150001I0J249999D01*
G01*
G37*
G36*
G01*
X159414285Y-106150001D02*
X159414285Y-105249999D01*
G75*
G02*
X159664284Y-105000000I249999J0D01*
G01*
X160364286Y-105000000D01*
G75*
G02*
X160614285Y-105249999I0J-249999D01*
G01*
X160614285Y-106150001D01*
G75*
G02*
X160364286Y-106400000I-249999J0D01*
G01*
X159664284Y-106400000D01*
G75*
G02*
X159414285Y-106150001I0J249999D01*
G01*
G37*
G36*
G01*
X157414285Y-106150001D02*
X157414285Y-105249999D01*
G75*
G02*
X157664284Y-105000000I249999J0D01*
G01*
X158364286Y-105000000D01*
G75*
G02*
X158614285Y-105249999I0J-249999D01*
G01*
X158614285Y-106150001D01*
G75*
G02*
X158364286Y-106400000I-249999J0D01*
G01*
X157664284Y-106400000D01*
G75*
G02*
X157414285Y-106150001I0J249999D01*
G01*
G37*
G36*
G01*
X165557142Y-106150001D02*
X165557142Y-105249999D01*
G75*
G02*
X165807141Y-105000000I249999J0D01*
G01*
X166507143Y-105000000D01*
G75*
G02*
X166757142Y-105249999I0J-249999D01*
G01*
X166757142Y-106150001D01*
G75*
G02*
X166507143Y-106400000I-249999J0D01*
G01*
X165807141Y-106400000D01*
G75*
G02*
X165557142Y-106150001I0J249999D01*
G01*
G37*
G36*
G01*
X163557142Y-106150001D02*
X163557142Y-105249999D01*
G75*
G02*
X163807141Y-105000000I249999J0D01*
G01*
X164507143Y-105000000D01*
G75*
G02*
X164757142Y-105249999I0J-249999D01*
G01*
X164757142Y-106150001D01*
G75*
G02*
X164507143Y-106400000I-249999J0D01*
G01*
X163807141Y-106400000D01*
G75*
G02*
X163557142Y-106150001I0J249999D01*
G01*
G37*
G36*
G01*
X171700000Y-106150001D02*
X171700000Y-105249999D01*
G75*
G02*
X171949999Y-105000000I249999J0D01*
G01*
X172650001Y-105000000D01*
G75*
G02*
X172900000Y-105249999I0J-249999D01*
G01*
X172900000Y-106150001D01*
G75*
G02*
X172650001Y-106400000I-249999J0D01*
G01*
X171949999Y-106400000D01*
G75*
G02*
X171700000Y-106150001I0J249999D01*
G01*
G37*
G36*
G01*
X169700000Y-106150001D02*
X169700000Y-105249999D01*
G75*
G02*
X169949999Y-105000000I249999J0D01*
G01*
X170650001Y-105000000D01*
G75*
G02*
X170900000Y-105249999I0J-249999D01*
G01*
X170900000Y-106150001D01*
G75*
G02*
X170650001Y-106400000I-249999J0D01*
G01*
X169949999Y-106400000D01*
G75*
G02*
X169700000Y-106150001I0J249999D01*
G01*
G37*
G36*
G01*
X128250000Y-78149999D02*
X128250000Y-79050001D01*
G75*
G02*
X128000001Y-79300000I-249999J0D01*
G01*
X127349999Y-79300000D01*
G75*
G02*
X127100000Y-79050001I0J249999D01*
G01*
X127100000Y-78149999D01*
G75*
G02*
X127349999Y-77900000I249999J0D01*
G01*
X128000001Y-77900000D01*
G75*
G02*
X128250000Y-78149999I0J-249999D01*
G01*
G37*
G36*
G01*
X130300000Y-78149999D02*
X130300000Y-79050001D01*
G75*
G02*
X130050001Y-79300000I-249999J0D01*
G01*
X129399999Y-79300000D01*
G75*
G02*
X129150000Y-79050001I0J249999D01*
G01*
X129150000Y-78149999D01*
G75*
G02*
X129399999Y-77900000I249999J0D01*
G01*
X130050001Y-77900000D01*
G75*
G02*
X130300000Y-78149999I0J-249999D01*
G01*
G37*
G36*
G01*
X134392857Y-78149999D02*
X134392857Y-79050001D01*
G75*
G02*
X134142858Y-79300000I-249999J0D01*
G01*
X133492856Y-79300000D01*
G75*
G02*
X133242857Y-79050001I0J249999D01*
G01*
X133242857Y-78149999D01*
G75*
G02*
X133492856Y-77900000I249999J0D01*
G01*
X134142858Y-77900000D01*
G75*
G02*
X134392857Y-78149999I0J-249999D01*
G01*
G37*
G36*
G01*
X136442857Y-78149999D02*
X136442857Y-79050001D01*
G75*
G02*
X136192858Y-79300000I-249999J0D01*
G01*
X135542856Y-79300000D01*
G75*
G02*
X135292857Y-79050001I0J249999D01*
G01*
X135292857Y-78149999D01*
G75*
G02*
X135542856Y-77900000I249999J0D01*
G01*
X136192858Y-77900000D01*
G75*
G02*
X136442857Y-78149999I0J-249999D01*
G01*
G37*
G36*
G01*
X140535714Y-78149999D02*
X140535714Y-79050001D01*
G75*
G02*
X140285715Y-79300000I-249999J0D01*
G01*
X139635713Y-79300000D01*
G75*
G02*
X139385714Y-79050001I0J249999D01*
G01*
X139385714Y-78149999D01*
G75*
G02*
X139635713Y-77900000I249999J0D01*
G01*
X140285715Y-77900000D01*
G75*
G02*
X140535714Y-78149999I0J-249999D01*
G01*
G37*
G36*
G01*
X142585714Y-78149999D02*
X142585714Y-79050001D01*
G75*
G02*
X142335715Y-79300000I-249999J0D01*
G01*
X141685713Y-79300000D01*
G75*
G02*
X141435714Y-79050001I0J249999D01*
G01*
X141435714Y-78149999D01*
G75*
G02*
X141685713Y-77900000I249999J0D01*
G01*
X142335715Y-77900000D01*
G75*
G02*
X142585714Y-78149999I0J-249999D01*
G01*
G37*
G36*
G01*
X146678571Y-78149999D02*
X146678571Y-79050001D01*
G75*
G02*
X146428572Y-79300000I-249999J0D01*
G01*
X145778570Y-79300000D01*
G75*
G02*
X145528571Y-79050001I0J249999D01*
G01*
X145528571Y-78149999D01*
G75*
G02*
X145778570Y-77900000I249999J0D01*
G01*
X146428572Y-77900000D01*
G75*
G02*
X146678571Y-78149999I0J-249999D01*
G01*
G37*
G36*
G01*
X148728571Y-78149999D02*
X148728571Y-79050001D01*
G75*
G02*
X148478572Y-79300000I-249999J0D01*
G01*
X147828570Y-79300000D01*
G75*
G02*
X147578571Y-79050001I0J249999D01*
G01*
X147578571Y-78149999D01*
G75*
G02*
X147828570Y-77900000I249999J0D01*
G01*
X148478572Y-77900000D01*
G75*
G02*
X148728571Y-78149999I0J-249999D01*
G01*
G37*
G36*
G01*
X152821428Y-78149999D02*
X152821428Y-79050001D01*
G75*
G02*
X152571429Y-79300000I-249999J0D01*
G01*
X151921427Y-79300000D01*
G75*
G02*
X151671428Y-79050001I0J249999D01*
G01*
X151671428Y-78149999D01*
G75*
G02*
X151921427Y-77900000I249999J0D01*
G01*
X152571429Y-77900000D01*
G75*
G02*
X152821428Y-78149999I0J-249999D01*
G01*
G37*
G36*
G01*
X154871428Y-78149999D02*
X154871428Y-79050001D01*
G75*
G02*
X154621429Y-79300000I-249999J0D01*
G01*
X153971427Y-79300000D01*
G75*
G02*
X153721428Y-79050001I0J249999D01*
G01*
X153721428Y-78149999D01*
G75*
G02*
X153971427Y-77900000I249999J0D01*
G01*
X154621429Y-77900000D01*
G75*
G02*
X154871428Y-78149999I0J-249999D01*
G01*
G37*
G36*
G01*
X158964285Y-78149999D02*
X158964285Y-79050001D01*
G75*
G02*
X158714286Y-79300000I-249999J0D01*
G01*
X158064284Y-79300000D01*
G75*
G02*
X157814285Y-79050001I0J249999D01*
G01*
X157814285Y-78149999D01*
G75*
G02*
X158064284Y-77900000I249999J0D01*
G01*
X158714286Y-77900000D01*
G75*
G02*
X158964285Y-78149999I0J-249999D01*
G01*
G37*
G36*
G01*
X161014285Y-78149999D02*
X161014285Y-79050001D01*
G75*
G02*
X160764286Y-79300000I-249999J0D01*
G01*
X160114284Y-79300000D01*
G75*
G02*
X159864285Y-79050001I0J249999D01*
G01*
X159864285Y-78149999D01*
G75*
G02*
X160114284Y-77900000I249999J0D01*
G01*
X160764286Y-77900000D01*
G75*
G02*
X161014285Y-78149999I0J-249999D01*
G01*
G37*
G36*
G01*
X165107142Y-78149999D02*
X165107142Y-79050001D01*
G75*
G02*
X164857143Y-79300000I-249999J0D01*
G01*
X164207141Y-79300000D01*
G75*
G02*
X163957142Y-79050001I0J249999D01*
G01*
X163957142Y-78149999D01*
G75*
G02*
X164207141Y-77900000I249999J0D01*
G01*
X164857143Y-77900000D01*
G75*
G02*
X165107142Y-78149999I0J-249999D01*
G01*
G37*
G36*
G01*
X167157142Y-78149999D02*
X167157142Y-79050001D01*
G75*
G02*
X166907143Y-79300000I-249999J0D01*
G01*
X166257141Y-79300000D01*
G75*
G02*
X166007142Y-79050001I0J249999D01*
G01*
X166007142Y-78149999D01*
G75*
G02*
X166257141Y-77900000I249999J0D01*
G01*
X166907143Y-77900000D01*
G75*
G02*
X167157142Y-78149999I0J-249999D01*
G01*
G37*
G36*
G01*
X171250000Y-78149999D02*
X171250000Y-79050001D01*
G75*
G02*
X171000001Y-79300000I-249999J0D01*
G01*
X170349999Y-79300000D01*
G75*
G02*
X170100000Y-79050001I0J249999D01*
G01*
X170100000Y-78149999D01*
G75*
G02*
X170349999Y-77900000I249999J0D01*
G01*
X171000001Y-77900000D01*
G75*
G02*
X171250000Y-78149999I0J-249999D01*
G01*
G37*
G36*
G01*
X173300000Y-78149999D02*
X173300000Y-79050001D01*
G75*
G02*
X173050001Y-79300000I-249999J0D01*
G01*
X172399999Y-79300000D01*
G75*
G02*
X172150000Y-79050001I0J249999D01*
G01*
X172150000Y-78149999D01*
G75*
G02*
X172399999Y-77900000I249999J0D01*
G01*
X173050001Y-77900000D01*
G75*
G02*
X173300000Y-78149999I0J-249999D01*
G01*
G37*
G36*
G01*
X127850000Y-101049999D02*
X127850000Y-101950001D01*
G75*
G02*
X127600001Y-102200000I-249999J0D01*
G01*
X126949999Y-102200000D01*
G75*
G02*
X126700000Y-101950001I0J249999D01*
G01*
X126700000Y-101049999D01*
G75*
G02*
X126949999Y-100800000I249999J0D01*
G01*
X127600001Y-100800000D01*
G75*
G02*
X127850000Y-101049999I0J-249999D01*
G01*
G37*
G36*
G01*
X129900000Y-101049999D02*
X129900000Y-101950001D01*
G75*
G02*
X129650001Y-102200000I-249999J0D01*
G01*
X128999999Y-102200000D01*
G75*
G02*
X128750000Y-101950001I0J249999D01*
G01*
X128750000Y-101049999D01*
G75*
G02*
X128999999Y-100800000I249999J0D01*
G01*
X129650001Y-100800000D01*
G75*
G02*
X129900000Y-101049999I0J-249999D01*
G01*
G37*
G36*
G01*
X133992857Y-101049999D02*
X133992857Y-101950001D01*
G75*
G02*
X133742858Y-102200000I-249999J0D01*
G01*
X133092856Y-102200000D01*
G75*
G02*
X132842857Y-101950001I0J249999D01*
G01*
X132842857Y-101049999D01*
G75*
G02*
X133092856Y-100800000I249999J0D01*
G01*
X133742858Y-100800000D01*
G75*
G02*
X133992857Y-101049999I0J-249999D01*
G01*
G37*
G36*
G01*
X136042857Y-101049999D02*
X136042857Y-101950001D01*
G75*
G02*
X135792858Y-102200000I-249999J0D01*
G01*
X135142856Y-102200000D01*
G75*
G02*
X134892857Y-101950001I0J249999D01*
G01*
X134892857Y-101049999D01*
G75*
G02*
X135142856Y-100800000I249999J0D01*
G01*
X135792858Y-100800000D01*
G75*
G02*
X136042857Y-101049999I0J-249999D01*
G01*
G37*
G36*
G01*
X140135714Y-101049999D02*
X140135714Y-101950001D01*
G75*
G02*
X139885715Y-102200000I-249999J0D01*
G01*
X139235713Y-102200000D01*
G75*
G02*
X138985714Y-101950001I0J249999D01*
G01*
X138985714Y-101049999D01*
G75*
G02*
X139235713Y-100800000I249999J0D01*
G01*
X139885715Y-100800000D01*
G75*
G02*
X140135714Y-101049999I0J-249999D01*
G01*
G37*
G36*
G01*
X142185714Y-101049999D02*
X142185714Y-101950001D01*
G75*
G02*
X141935715Y-102200000I-249999J0D01*
G01*
X141285713Y-102200000D01*
G75*
G02*
X141035714Y-101950001I0J249999D01*
G01*
X141035714Y-101049999D01*
G75*
G02*
X141285713Y-100800000I249999J0D01*
G01*
X141935715Y-100800000D01*
G75*
G02*
X142185714Y-101049999I0J-249999D01*
G01*
G37*
G36*
G01*
X146278571Y-101049999D02*
X146278571Y-101950001D01*
G75*
G02*
X146028572Y-102200000I-249999J0D01*
G01*
X145378570Y-102200000D01*
G75*
G02*
X145128571Y-101950001I0J249999D01*
G01*
X145128571Y-101049999D01*
G75*
G02*
X145378570Y-100800000I249999J0D01*
G01*
X146028572Y-100800000D01*
G75*
G02*
X146278571Y-101049999I0J-249999D01*
G01*
G37*
G36*
G01*
X148328571Y-101049999D02*
X148328571Y-101950001D01*
G75*
G02*
X148078572Y-102200000I-249999J0D01*
G01*
X147428570Y-102200000D01*
G75*
G02*
X147178571Y-101950001I0J249999D01*
G01*
X147178571Y-101049999D01*
G75*
G02*
X147428570Y-100800000I249999J0D01*
G01*
X148078572Y-100800000D01*
G75*
G02*
X148328571Y-101049999I0J-249999D01*
G01*
G37*
G36*
G01*
X152421428Y-101049999D02*
X152421428Y-101950001D01*
G75*
G02*
X152171429Y-102200000I-249999J0D01*
G01*
X151521427Y-102200000D01*
G75*
G02*
X151271428Y-101950001I0J249999D01*
G01*
X151271428Y-101049999D01*
G75*
G02*
X151521427Y-100800000I249999J0D01*
G01*
X152171429Y-100800000D01*
G75*
G02*
X152421428Y-101049999I0J-249999D01*
G01*
G37*
G36*
G01*
X154471428Y-101049999D02*
X154471428Y-101950001D01*
G75*
G02*
X154221429Y-102200000I-249999J0D01*
G01*
X153571427Y-102200000D01*
G75*
G02*
X153321428Y-101950001I0J249999D01*
G01*
X153321428Y-101049999D01*
G75*
G02*
X153571427Y-100800000I249999J0D01*
G01*
X154221429Y-100800000D01*
G75*
G02*
X154471428Y-101049999I0J-249999D01*
G01*
G37*
G36*
G01*
X158564285Y-101049999D02*
X158564285Y-101950001D01*
G75*
G02*
X158314286Y-102200000I-249999J0D01*
G01*
X157664284Y-102200000D01*
G75*
G02*
X157414285Y-101950001I0J249999D01*
G01*
X157414285Y-101049999D01*
G75*
G02*
X157664284Y-100800000I249999J0D01*
G01*
X158314286Y-100800000D01*
G75*
G02*
X158564285Y-101049999I0J-249999D01*
G01*
G37*
G36*
G01*
X160614285Y-101049999D02*
X160614285Y-101950001D01*
G75*
G02*
X160364286Y-102200000I-249999J0D01*
G01*
X159714284Y-102200000D01*
G75*
G02*
X159464285Y-101950001I0J249999D01*
G01*
X159464285Y-101049999D01*
G75*
G02*
X159714284Y-100800000I249999J0D01*
G01*
X160364286Y-100800000D01*
G75*
G02*
X160614285Y-101049999I0J-249999D01*
G01*
G37*
G36*
G01*
X164707142Y-101049999D02*
X164707142Y-101950001D01*
G75*
G02*
X164457143Y-102200000I-249999J0D01*
G01*
X163807141Y-102200000D01*
G75*
G02*
X163557142Y-101950001I0J249999D01*
G01*
X163557142Y-101049999D01*
G75*
G02*
X163807141Y-100800000I249999J0D01*
G01*
X164457143Y-100800000D01*
G75*
G02*
X164707142Y-101049999I0J-249999D01*
G01*
G37*
G36*
G01*
X166757142Y-101049999D02*
X166757142Y-101950001D01*
G75*
G02*
X166507143Y-102200000I-249999J0D01*
G01*
X165857141Y-102200000D01*
G75*
G02*
X165607142Y-101950001I0J249999D01*
G01*
X165607142Y-101049999D01*
G75*
G02*
X165857141Y-100800000I249999J0D01*
G01*
X166507143Y-100800000D01*
G75*
G02*
X166757142Y-101049999I0J-249999D01*
G01*
G37*
G36*
G01*
X170850000Y-101049999D02*
X170850000Y-101950001D01*
G75*
G02*
X170600001Y-102200000I-249999J0D01*
G01*
X169949999Y-102200000D01*
G75*
G02*
X169700000Y-101950001I0J249999D01*
G01*
X169700000Y-101049999D01*
G75*
G02*
X169949999Y-100800000I249999J0D01*
G01*
X170600001Y-100800000D01*
G75*
G02*
X170850000Y-101049999I0J-249999D01*
G01*
G37*
G36*
G01*
X172900000Y-101049999D02*
X172900000Y-101950001D01*
G75*
G02*
X172650001Y-102200000I-249999J0D01*
G01*
X171999999Y-102200000D01*
G75*
G02*
X171750000Y-101950001I0J249999D01*
G01*
X171750000Y-101049999D01*
G75*
G02*
X171999999Y-100800000I249999J0D01*
G01*
X172650001Y-100800000D01*
G75*
G02*
X172900000Y-101049999I0J-249999D01*
G01*
G37*
D10*
X185460000Y-136000000D03*
X182920000Y-136000000D03*
X180380000Y-136000000D03*
X177840000Y-136000000D03*
X175300000Y-136000000D03*
X172760000Y-136000000D03*
X170220000Y-136000000D03*
X167680000Y-136000000D03*
X165140000Y-136000000D03*
X162600000Y-136000000D03*
X160060000Y-136000000D03*
X157520000Y-136000000D03*
X154980000Y-136000000D03*
X152440000Y-136000000D03*
X149900000Y-136000000D03*
X147360000Y-136000000D03*
X144820000Y-136000000D03*
X142280000Y-136000000D03*
X139740000Y-136000000D03*
X137200000Y-136000000D03*
X134660000Y-136000000D03*
X132120000Y-136000000D03*
X129580000Y-136000000D03*
X127040000Y-136000000D03*
X124500000Y-136000000D03*
X121960000Y-136000000D03*
X119420000Y-136000000D03*
X116880000Y-136000000D03*
X114340000Y-136000000D03*
X111800000Y-136000000D03*
X109260000Y-136000000D03*
X106720000Y-136000000D03*
X104180000Y-136000000D03*
X101640000Y-136000000D03*
X99100000Y-136000000D03*
X96560000Y-136000000D03*
X94020000Y-136000000D03*
X91480000Y-136000000D03*
X88940000Y-136000000D03*
D11*
X86400000Y-136000000D03*
D10*
X185460000Y-46000000D03*
X182920000Y-46000000D03*
X180380000Y-46000000D03*
X177840000Y-46000000D03*
X175300000Y-46000000D03*
X172760000Y-46000000D03*
X170220000Y-46000000D03*
X167680000Y-46000000D03*
X165140000Y-46000000D03*
X162600000Y-46000000D03*
X160060000Y-46000000D03*
X157520000Y-46000000D03*
X154980000Y-46000000D03*
X152440000Y-46000000D03*
X149900000Y-46000000D03*
X147360000Y-46000000D03*
X144820000Y-46000000D03*
X142280000Y-46000000D03*
X139740000Y-46000000D03*
X137200000Y-46000000D03*
X134660000Y-46000000D03*
X132120000Y-46000000D03*
X129580000Y-46000000D03*
X127040000Y-46000000D03*
X124500000Y-46000000D03*
X121960000Y-46000000D03*
X119420000Y-46000000D03*
X116880000Y-46000000D03*
X114340000Y-46000000D03*
X111800000Y-46000000D03*
X109260000Y-46000000D03*
X106720000Y-46000000D03*
X104180000Y-46000000D03*
X101640000Y-46000000D03*
X99100000Y-46000000D03*
X96560000Y-46000000D03*
X94020000Y-46000000D03*
X91480000Y-46000000D03*
X88940000Y-46000000D03*
D11*
X86400000Y-46000000D03*
M02*
