G04 #@! TF.GenerationSoftware,KiCad,Pcbnew,(5.1.9)-1*
G04 #@! TF.CreationDate,2022-07-23T11:43:12-04:00*
G04 #@! TF.ProjectId,d-register,642d7265-6769-4737-9465-722e6b696361,2.0*
G04 #@! TF.SameCoordinates,Original*
G04 #@! TF.FileFunction,Soldermask,Bot*
G04 #@! TF.FilePolarity,Negative*
%FSLAX46Y46*%
G04 Gerber Fmt 4.6, Leading zero omitted, Abs format (unit mm)*
G04 Created by KiCad (PCBNEW (5.1.9)-1) date 2022-07-23 11:43:12*
%MOMM*%
%LPD*%
G01*
G04 APERTURE LIST*
%ADD10O,1.700000X1.700000*%
%ADD11R,1.700000X1.700000*%
%ADD12O,1.600000X1.600000*%
%ADD13R,1.600000X1.600000*%
G04 APERTURE END LIST*
D10*
X182900000Y-65220000D03*
X182900000Y-62680000D03*
X182900000Y-60140000D03*
D11*
X182900000Y-57600000D03*
D12*
X91500000Y-57280000D03*
X114360000Y-64900000D03*
X94040000Y-57280000D03*
X111820000Y-64900000D03*
X96580000Y-57280000D03*
X109280000Y-64900000D03*
X99120000Y-57280000D03*
X106740000Y-64900000D03*
X101660000Y-57280000D03*
X104200000Y-64900000D03*
X104200000Y-57280000D03*
X101660000Y-64900000D03*
X106740000Y-57280000D03*
X99120000Y-64900000D03*
X109280000Y-57280000D03*
X96580000Y-64900000D03*
X111820000Y-57280000D03*
X94040000Y-64900000D03*
X114360000Y-57280000D03*
D13*
X91500000Y-64900000D03*
D12*
X93780000Y-98200000D03*
X101400000Y-80420000D03*
X93780000Y-95660000D03*
X101400000Y-82960000D03*
X93780000Y-93120000D03*
X101400000Y-85500000D03*
X93780000Y-90580000D03*
X101400000Y-88040000D03*
X93780000Y-88040000D03*
X101400000Y-90580000D03*
X93780000Y-85500000D03*
X101400000Y-93120000D03*
X93780000Y-82960000D03*
X101400000Y-95660000D03*
X93780000Y-80420000D03*
D13*
X101400000Y-98200000D03*
D12*
X110180000Y-98200000D03*
X117800000Y-80420000D03*
X110180000Y-95660000D03*
X117800000Y-82960000D03*
X110180000Y-93120000D03*
X117800000Y-85500000D03*
X110180000Y-90580000D03*
X117800000Y-88040000D03*
X110180000Y-88040000D03*
X117800000Y-90580000D03*
X110180000Y-85500000D03*
X117800000Y-93120000D03*
X110180000Y-82960000D03*
X117800000Y-95660000D03*
X110180000Y-80420000D03*
D13*
X117800000Y-98200000D03*
D10*
X182900000Y-124380000D03*
X182900000Y-121840000D03*
X182900000Y-119300000D03*
X182900000Y-116760000D03*
X182900000Y-114220000D03*
X182900000Y-111680000D03*
X182900000Y-109140000D03*
D11*
X182900000Y-106600000D03*
D12*
X139800000Y-124280000D03*
X157580000Y-131900000D03*
X142340000Y-124280000D03*
X155040000Y-131900000D03*
X144880000Y-124280000D03*
X152500000Y-131900000D03*
X147420000Y-124280000D03*
X149960000Y-131900000D03*
X149960000Y-124280000D03*
X147420000Y-131900000D03*
X152500000Y-124280000D03*
X144880000Y-131900000D03*
X155040000Y-124280000D03*
X142340000Y-131900000D03*
X157580000Y-124280000D03*
D13*
X139800000Y-131900000D03*
D12*
X139700000Y-51180000D03*
X157480000Y-58800000D03*
X142240000Y-51180000D03*
X154940000Y-58800000D03*
X144780000Y-51180000D03*
X152400000Y-58800000D03*
X147320000Y-51180000D03*
X149860000Y-58800000D03*
X149860000Y-51180000D03*
X147320000Y-58800000D03*
X152400000Y-51180000D03*
X144780000Y-58800000D03*
X154940000Y-51180000D03*
X142240000Y-58800000D03*
X157480000Y-51180000D03*
D13*
X139700000Y-58800000D03*
D12*
X91600000Y-117880000D03*
X114460000Y-125500000D03*
X94140000Y-117880000D03*
X111920000Y-125500000D03*
X96680000Y-117880000D03*
X109380000Y-125500000D03*
X99220000Y-117880000D03*
X106840000Y-125500000D03*
X101760000Y-117880000D03*
X104300000Y-125500000D03*
X104300000Y-117880000D03*
X101760000Y-125500000D03*
X106840000Y-117880000D03*
X99220000Y-125500000D03*
X109380000Y-117880000D03*
X96680000Y-125500000D03*
X111920000Y-117880000D03*
X94140000Y-125500000D03*
X114460000Y-117880000D03*
D13*
X91600000Y-125500000D03*
D10*
X185460000Y-136000000D03*
X182920000Y-136000000D03*
X180380000Y-136000000D03*
X177840000Y-136000000D03*
X175300000Y-136000000D03*
X172760000Y-136000000D03*
X170220000Y-136000000D03*
X167680000Y-136000000D03*
X165140000Y-136000000D03*
X162600000Y-136000000D03*
X160060000Y-136000000D03*
X157520000Y-136000000D03*
X154980000Y-136000000D03*
X152440000Y-136000000D03*
X149900000Y-136000000D03*
X147360000Y-136000000D03*
X144820000Y-136000000D03*
X142280000Y-136000000D03*
X139740000Y-136000000D03*
X137200000Y-136000000D03*
X134660000Y-136000000D03*
X132120000Y-136000000D03*
X129580000Y-136000000D03*
X127040000Y-136000000D03*
X124500000Y-136000000D03*
X121960000Y-136000000D03*
X119420000Y-136000000D03*
X116880000Y-136000000D03*
X114340000Y-136000000D03*
X111800000Y-136000000D03*
X109260000Y-136000000D03*
X106720000Y-136000000D03*
X104180000Y-136000000D03*
X101640000Y-136000000D03*
X99100000Y-136000000D03*
X96560000Y-136000000D03*
X94020000Y-136000000D03*
X91480000Y-136000000D03*
X88940000Y-136000000D03*
D11*
X86400000Y-136000000D03*
D10*
X185460000Y-46000000D03*
X182920000Y-46000000D03*
X180380000Y-46000000D03*
X177840000Y-46000000D03*
X175300000Y-46000000D03*
X172760000Y-46000000D03*
X170220000Y-46000000D03*
X167680000Y-46000000D03*
X165140000Y-46000000D03*
X162600000Y-46000000D03*
X160060000Y-46000000D03*
X157520000Y-46000000D03*
X154980000Y-46000000D03*
X152440000Y-46000000D03*
X149900000Y-46000000D03*
X147360000Y-46000000D03*
X144820000Y-46000000D03*
X142280000Y-46000000D03*
X139740000Y-46000000D03*
X137200000Y-46000000D03*
X134660000Y-46000000D03*
X132120000Y-46000000D03*
X129580000Y-46000000D03*
X127040000Y-46000000D03*
X124500000Y-46000000D03*
X121960000Y-46000000D03*
X119420000Y-46000000D03*
X116880000Y-46000000D03*
X114340000Y-46000000D03*
X111800000Y-46000000D03*
X109260000Y-46000000D03*
X106720000Y-46000000D03*
X104180000Y-46000000D03*
X101640000Y-46000000D03*
X99100000Y-46000000D03*
X96560000Y-46000000D03*
X94020000Y-46000000D03*
X91480000Y-46000000D03*
X88940000Y-46000000D03*
D11*
X86400000Y-46000000D03*
M02*
