M48
; DRILL file {KiCad (5.1.9)-1} date 07/23/22 11:43:16
; FORMAT={-:-/ absolute / metric / decimal}
; #@! TF.CreationDate,2022-07-23T11:43:16-04:00
; #@! TF.GenerationSoftware,Kicad,Pcbnew,(5.1.9)-1
; #@! TF.FileFunction,Plated,1,2,PTH
FMAT,2
METRIC
T1C0.400
T2C0.800
T3C1.000
%
G90
G05
T1
X90.8Y-105.7
X92.3Y-105.7
X93.8Y-131.6
X98.7Y-105.7
X100.0Y-105.71
X101.95Y-115.65
X105.0Y-105.7
X106.7Y-105.7
X108.6Y-105.7
X113.5Y-105.7
X115.2Y-105.7
X118.175Y-58.8
X121.3Y-63.4
X123.5Y-117.5
X158.12Y-116.12
X159.7Y-117.1
T2
X91.5Y-57.28
X91.5Y-64.9
X91.6Y-117.88
X91.6Y-125.5
X93.78Y-80.42
X93.78Y-82.96
X93.78Y-85.5
X93.78Y-88.04
X93.78Y-90.58
X93.78Y-93.12
X93.78Y-95.66
X93.78Y-98.2
X94.04Y-57.28
X94.04Y-64.9
X94.14Y-117.88
X94.14Y-125.5
X96.58Y-57.28
X96.58Y-64.9
X96.68Y-117.88
X96.68Y-125.5
X99.12Y-57.28
X99.12Y-64.9
X99.22Y-117.88
X99.22Y-125.5
X101.4Y-80.42
X101.4Y-82.96
X101.4Y-85.5
X101.4Y-88.04
X101.4Y-90.58
X101.4Y-93.12
X101.4Y-95.66
X101.4Y-98.2
X101.66Y-57.28
X101.66Y-64.9
X101.76Y-117.88
X101.76Y-125.5
X104.2Y-57.28
X104.2Y-64.9
X104.3Y-117.88
X104.3Y-125.5
X106.74Y-57.28
X106.74Y-64.9
X106.84Y-117.88
X106.84Y-125.5
X109.28Y-57.28
X109.28Y-64.9
X109.38Y-117.88
X109.38Y-125.5
X110.18Y-80.42
X110.18Y-82.96
X110.18Y-85.5
X110.18Y-88.04
X110.18Y-90.58
X110.18Y-93.12
X110.18Y-95.66
X110.18Y-98.2
X111.82Y-57.28
X111.82Y-64.9
X111.92Y-117.88
X111.92Y-125.5
X114.36Y-57.28
X114.36Y-64.9
X114.46Y-117.88
X114.46Y-125.5
X117.8Y-80.42
X117.8Y-82.96
X117.8Y-85.5
X117.8Y-88.04
X117.8Y-90.58
X117.8Y-93.12
X117.8Y-95.66
X117.8Y-98.2
X139.7Y-51.18
X139.7Y-58.8
X139.8Y-124.28
X139.8Y-131.9
X142.24Y-51.18
X142.24Y-58.8
X142.34Y-124.28
X142.34Y-131.9
X144.78Y-51.18
X144.78Y-58.8
X144.88Y-124.28
X144.88Y-131.9
X147.32Y-51.18
X147.32Y-58.8
X147.42Y-124.28
X147.42Y-131.9
X149.86Y-51.18
X149.86Y-58.8
X149.96Y-124.28
X149.96Y-131.9
X152.4Y-51.18
X152.4Y-58.8
X152.5Y-124.28
X152.5Y-131.9
X154.94Y-51.18
X154.94Y-58.8
X155.04Y-124.28
X155.04Y-131.9
X157.48Y-51.18
X157.48Y-58.8
X157.58Y-124.28
X157.58Y-131.9
T3
X86.4Y-46.0
X86.4Y-136.0
X88.94Y-46.0
X88.94Y-136.0
X91.48Y-46.0
X91.48Y-136.0
X94.02Y-46.0
X94.02Y-136.0
X96.56Y-46.0
X96.56Y-136.0
X99.1Y-46.0
X99.1Y-136.0
X101.64Y-46.0
X101.64Y-136.0
X104.18Y-46.0
X104.18Y-136.0
X106.72Y-46.0
X106.72Y-136.0
X109.26Y-46.0
X109.26Y-136.0
X111.8Y-46.0
X111.8Y-136.0
X114.34Y-46.0
X114.34Y-136.0
X116.88Y-46.0
X116.88Y-136.0
X119.42Y-46.0
X119.42Y-136.0
X121.96Y-46.0
X121.96Y-136.0
X124.5Y-46.0
X124.5Y-136.0
X127.04Y-46.0
X127.04Y-136.0
X129.58Y-46.0
X129.58Y-136.0
X132.12Y-46.0
X132.12Y-136.0
X134.66Y-46.0
X134.66Y-136.0
X137.2Y-46.0
X137.2Y-136.0
X139.74Y-46.0
X139.74Y-136.0
X142.28Y-46.0
X142.28Y-136.0
X144.82Y-46.0
X144.82Y-136.0
X147.36Y-46.0
X147.36Y-136.0
X149.9Y-46.0
X149.9Y-136.0
X152.44Y-46.0
X152.44Y-136.0
X154.98Y-46.0
X154.98Y-136.0
X157.52Y-46.0
X157.52Y-136.0
X160.06Y-46.0
X160.06Y-136.0
X162.6Y-46.0
X162.6Y-136.0
X165.14Y-46.0
X165.14Y-136.0
X167.68Y-46.0
X167.68Y-136.0
X170.22Y-46.0
X170.22Y-136.0
X172.76Y-46.0
X172.76Y-136.0
X175.3Y-46.0
X175.3Y-136.0
X177.84Y-46.0
X177.84Y-136.0
X180.38Y-46.0
X180.38Y-136.0
X182.9Y-57.6
X182.9Y-60.14
X182.9Y-62.68
X182.9Y-65.22
X182.9Y-106.6
X182.9Y-109.14
X182.9Y-111.68
X182.9Y-114.22
X182.9Y-116.76
X182.9Y-119.3
X182.9Y-121.84
X182.9Y-124.38
X182.92Y-46.0
X182.92Y-136.0
X185.46Y-46.0
X185.46Y-136.0
T0
M30
