G04 #@! TF.GenerationSoftware,KiCad,Pcbnew,(5.1.9)-1*
G04 #@! TF.CreationDate,2021-10-03T23:58:30-04:00*
G04 #@! TF.ProjectId,loader,6c6f6164-6572-42e6-9b69-6361645f7063,1.0*
G04 #@! TF.SameCoordinates,Original*
G04 #@! TF.FileFunction,Soldermask,Bot*
G04 #@! TF.FilePolarity,Negative*
%FSLAX46Y46*%
G04 Gerber Fmt 4.6, Leading zero omitted, Abs format (unit mm)*
G04 Created by KiCad (PCBNEW (5.1.9)-1) date 2021-10-03 23:58:30*
%MOMM*%
%LPD*%
G01*
G04 APERTURE LIST*
%ADD10O,1.700000X1.700000*%
%ADD11R,1.700000X1.700000*%
%ADD12C,2.000000*%
%ADD13O,1.600000X1.600000*%
%ADD14R,1.600000X1.600000*%
G04 APERTURE END LIST*
D10*
X182900000Y-75380000D03*
X182900000Y-72840000D03*
X182900000Y-70300000D03*
X182900000Y-67760000D03*
X182900000Y-65220000D03*
X182900000Y-62680000D03*
X182900000Y-60140000D03*
D11*
X182900000Y-57600000D03*
D12*
X101400000Y-121300000D03*
X101400000Y-116800000D03*
X107900000Y-121300000D03*
X107900000Y-116800000D03*
D13*
X175820000Y-88900000D03*
X168200000Y-104140000D03*
X175820000Y-91440000D03*
X168200000Y-101600000D03*
X175820000Y-93980000D03*
X168200000Y-99060000D03*
X175820000Y-96520000D03*
X168200000Y-96520000D03*
X175820000Y-99060000D03*
X168200000Y-93980000D03*
X175820000Y-101600000D03*
X168200000Y-91440000D03*
X175820000Y-104140000D03*
D14*
X168200000Y-88900000D03*
D13*
X141920000Y-110700000D03*
D14*
X134300000Y-110700000D03*
D13*
X158620000Y-56500000D03*
X151000000Y-79360000D03*
X158620000Y-59040000D03*
X151000000Y-76820000D03*
X158620000Y-61580000D03*
X151000000Y-74280000D03*
X158620000Y-64120000D03*
X151000000Y-71740000D03*
X158620000Y-66660000D03*
X151000000Y-69200000D03*
X158620000Y-69200000D03*
X151000000Y-66660000D03*
X158620000Y-71740000D03*
X151000000Y-64120000D03*
X158620000Y-74280000D03*
X151000000Y-61580000D03*
X158620000Y-76820000D03*
X151000000Y-59040000D03*
X158620000Y-79360000D03*
D14*
X151000000Y-56500000D03*
D13*
X143920000Y-56500000D03*
X136300000Y-79360000D03*
X143920000Y-59040000D03*
X136300000Y-76820000D03*
X143920000Y-61580000D03*
X136300000Y-74280000D03*
X143920000Y-64120000D03*
X136300000Y-71740000D03*
X143920000Y-66660000D03*
X136300000Y-69200000D03*
X143920000Y-69200000D03*
X136300000Y-66660000D03*
X143920000Y-71740000D03*
X136300000Y-64120000D03*
X143920000Y-74280000D03*
X136300000Y-61580000D03*
X143920000Y-76820000D03*
X136300000Y-59040000D03*
X143920000Y-79360000D03*
D14*
X136300000Y-56500000D03*
D13*
X105720000Y-56500000D03*
X98100000Y-74280000D03*
X105720000Y-59040000D03*
X98100000Y-71740000D03*
X105720000Y-61580000D03*
X98100000Y-69200000D03*
X105720000Y-64120000D03*
X98100000Y-66660000D03*
X105720000Y-66660000D03*
X98100000Y-64120000D03*
X105720000Y-69200000D03*
X98100000Y-61580000D03*
X105720000Y-71740000D03*
X98100000Y-59040000D03*
X105720000Y-74280000D03*
D14*
X98100000Y-56500000D03*
D13*
X119020000Y-56500000D03*
X111400000Y-74280000D03*
X119020000Y-59040000D03*
X111400000Y-71740000D03*
X119020000Y-61580000D03*
X111400000Y-69200000D03*
X119020000Y-64120000D03*
X111400000Y-66660000D03*
X119020000Y-66660000D03*
X111400000Y-64120000D03*
X119020000Y-69200000D03*
X111400000Y-61580000D03*
X119020000Y-71740000D03*
X111400000Y-59040000D03*
X119020000Y-74280000D03*
D14*
X111400000Y-56500000D03*
D13*
X106340000Y-104940000D03*
X106340000Y-89700000D03*
X141900000Y-104940000D03*
X108880000Y-89700000D03*
X139360000Y-104940000D03*
X111420000Y-89700000D03*
X136820000Y-104940000D03*
X113960000Y-89700000D03*
X134280000Y-104940000D03*
X116500000Y-89700000D03*
X131740000Y-104940000D03*
X119040000Y-89700000D03*
X129200000Y-104940000D03*
X121580000Y-89700000D03*
X126660000Y-104940000D03*
X124120000Y-89700000D03*
X124120000Y-104940000D03*
X126660000Y-89700000D03*
X121580000Y-104940000D03*
X129200000Y-89700000D03*
X119040000Y-104940000D03*
X131740000Y-89700000D03*
X116500000Y-104940000D03*
X134280000Y-89700000D03*
X113960000Y-104940000D03*
X136820000Y-89700000D03*
X111420000Y-104940000D03*
X139360000Y-89700000D03*
X108880000Y-104940000D03*
D14*
X141900000Y-89700000D03*
D10*
X185460000Y-136000000D03*
X182920000Y-136000000D03*
X180380000Y-136000000D03*
X177840000Y-136000000D03*
X175300000Y-136000000D03*
X172760000Y-136000000D03*
X170220000Y-136000000D03*
X167680000Y-136000000D03*
X165140000Y-136000000D03*
X162600000Y-136000000D03*
X160060000Y-136000000D03*
X157520000Y-136000000D03*
X154980000Y-136000000D03*
X152440000Y-136000000D03*
X149900000Y-136000000D03*
X147360000Y-136000000D03*
X144820000Y-136000000D03*
X142280000Y-136000000D03*
X139740000Y-136000000D03*
X137200000Y-136000000D03*
X134660000Y-136000000D03*
X132120000Y-136000000D03*
X129580000Y-136000000D03*
X127040000Y-136000000D03*
X124500000Y-136000000D03*
X121960000Y-136000000D03*
X119420000Y-136000000D03*
X116880000Y-136000000D03*
X114340000Y-136000000D03*
X111800000Y-136000000D03*
X109260000Y-136000000D03*
X106720000Y-136000000D03*
X104180000Y-136000000D03*
X101640000Y-136000000D03*
X99100000Y-136000000D03*
X96560000Y-136000000D03*
X94020000Y-136000000D03*
X91480000Y-136000000D03*
X88940000Y-136000000D03*
D11*
X86400000Y-136000000D03*
D10*
X185460000Y-46000000D03*
X182920000Y-46000000D03*
X180380000Y-46000000D03*
X177840000Y-46000000D03*
X175300000Y-46000000D03*
X172760000Y-46000000D03*
X170220000Y-46000000D03*
X167680000Y-46000000D03*
X165140000Y-46000000D03*
X162600000Y-46000000D03*
X160060000Y-46000000D03*
X157520000Y-46000000D03*
X154980000Y-46000000D03*
X152440000Y-46000000D03*
X149900000Y-46000000D03*
X147360000Y-46000000D03*
X144820000Y-46000000D03*
X142280000Y-46000000D03*
X139740000Y-46000000D03*
X137200000Y-46000000D03*
X134660000Y-46000000D03*
X132120000Y-46000000D03*
X129580000Y-46000000D03*
X127040000Y-46000000D03*
X124500000Y-46000000D03*
X121960000Y-46000000D03*
X119420000Y-46000000D03*
X116880000Y-46000000D03*
X114340000Y-46000000D03*
X111800000Y-46000000D03*
X109260000Y-46000000D03*
X106720000Y-46000000D03*
X104180000Y-46000000D03*
X101640000Y-46000000D03*
X99100000Y-46000000D03*
X96560000Y-46000000D03*
X94020000Y-46000000D03*
X91480000Y-46000000D03*
X88940000Y-46000000D03*
D11*
X86400000Y-46000000D03*
M02*
