G04 #@! TF.GenerationSoftware,KiCad,Pcbnew,(5.1.9)-1*
G04 #@! TF.CreationDate,2021-10-03T23:58:30-04:00*
G04 #@! TF.ProjectId,loader,6c6f6164-6572-42e6-9b69-6361645f7063,1.0*
G04 #@! TF.SameCoordinates,Original*
G04 #@! TF.FileFunction,Legend,Top*
G04 #@! TF.FilePolarity,Positive*
%FSLAX46Y46*%
G04 Gerber Fmt 4.6, Leading zero omitted, Abs format (unit mm)*
G04 Created by KiCad (PCBNEW (5.1.9)-1) date 2021-10-03 23:58:30*
%MOMM*%
%LPD*%
G01*
G04 APERTURE LIST*
%ADD10C,0.150000*%
%ADD11C,0.300000*%
%ADD12C,0.120000*%
%ADD13C,0.170000*%
%ADD14O,1.700000X1.700000*%
%ADD15R,1.700000X1.700000*%
%ADD16C,2.000000*%
%ADD17O,1.600000X1.600000*%
%ADD18R,1.600000X1.600000*%
G04 APERTURE END LIST*
D10*
X90500000Y-132185714D02*
X90500000Y-132995238D01*
X90452380Y-133090476D01*
X90404761Y-133138095D01*
X90309523Y-133185714D01*
X90166666Y-133185714D01*
X90071428Y-133138095D01*
X90500000Y-132804761D02*
X90404761Y-132852380D01*
X90214285Y-132852380D01*
X90119047Y-132804761D01*
X90071428Y-132757142D01*
X90023809Y-132661904D01*
X90023809Y-132376190D01*
X90071428Y-132280952D01*
X90119047Y-132233333D01*
X90214285Y-132185714D01*
X90404761Y-132185714D01*
X90500000Y-132233333D01*
X90976190Y-132852380D02*
X90976190Y-132185714D01*
X90976190Y-131852380D02*
X90928571Y-131900000D01*
X90976190Y-131947619D01*
X91023809Y-131900000D01*
X90976190Y-131852380D01*
X90976190Y-131947619D01*
X91309523Y-132185714D02*
X91690476Y-132185714D01*
X91452380Y-131852380D02*
X91452380Y-132709523D01*
X91500000Y-132804761D01*
X91595238Y-132852380D01*
X91690476Y-132852380D01*
X92023809Y-132852380D02*
X92023809Y-131852380D01*
X92452380Y-132852380D02*
X92452380Y-132328571D01*
X92404761Y-132233333D01*
X92309523Y-132185714D01*
X92166666Y-132185714D01*
X92071428Y-132233333D01*
X92023809Y-132280952D01*
X93357142Y-132185714D02*
X93357142Y-132852380D01*
X92928571Y-132185714D02*
X92928571Y-132709523D01*
X92976190Y-132804761D01*
X93071428Y-132852380D01*
X93214285Y-132852380D01*
X93309523Y-132804761D01*
X93357142Y-132757142D01*
X93833333Y-132852380D02*
X93833333Y-131852380D01*
X93833333Y-132233333D02*
X93928571Y-132185714D01*
X94119047Y-132185714D01*
X94214285Y-132233333D01*
X94261904Y-132280952D01*
X94309523Y-132376190D01*
X94309523Y-132661904D01*
X94261904Y-132757142D01*
X94214285Y-132804761D01*
X94119047Y-132852380D01*
X93928571Y-132852380D01*
X93833333Y-132804761D01*
X94738095Y-132757142D02*
X94785714Y-132804761D01*
X94738095Y-132852380D01*
X94690476Y-132804761D01*
X94738095Y-132757142D01*
X94738095Y-132852380D01*
X95642857Y-132804761D02*
X95547619Y-132852380D01*
X95357142Y-132852380D01*
X95261904Y-132804761D01*
X95214285Y-132757142D01*
X95166666Y-132661904D01*
X95166666Y-132376190D01*
X95214285Y-132280952D01*
X95261904Y-132233333D01*
X95357142Y-132185714D01*
X95547619Y-132185714D01*
X95642857Y-132233333D01*
X96214285Y-132852380D02*
X96119047Y-132804761D01*
X96071428Y-132757142D01*
X96023809Y-132661904D01*
X96023809Y-132376190D01*
X96071428Y-132280952D01*
X96119047Y-132233333D01*
X96214285Y-132185714D01*
X96357142Y-132185714D01*
X96452380Y-132233333D01*
X96500000Y-132280952D01*
X96547619Y-132376190D01*
X96547619Y-132661904D01*
X96500000Y-132757142D01*
X96452380Y-132804761D01*
X96357142Y-132852380D01*
X96214285Y-132852380D01*
X96976190Y-132852380D02*
X96976190Y-132185714D01*
X96976190Y-132280952D02*
X97023809Y-132233333D01*
X97119047Y-132185714D01*
X97261904Y-132185714D01*
X97357142Y-132233333D01*
X97404761Y-132328571D01*
X97404761Y-132852380D01*
X97404761Y-132328571D02*
X97452380Y-132233333D01*
X97547619Y-132185714D01*
X97690476Y-132185714D01*
X97785714Y-132233333D01*
X97833333Y-132328571D01*
X97833333Y-132852380D01*
X99023809Y-131804761D02*
X98166666Y-133090476D01*
X99214285Y-131852380D02*
X99785714Y-131852380D01*
X99500000Y-132852380D02*
X99500000Y-131852380D01*
X100261904Y-132852380D02*
X100166666Y-132804761D01*
X100119047Y-132757142D01*
X100071428Y-132661904D01*
X100071428Y-132376190D01*
X100119047Y-132280952D01*
X100166666Y-132233333D01*
X100261904Y-132185714D01*
X100404761Y-132185714D01*
X100500000Y-132233333D01*
X100547619Y-132280952D01*
X100595238Y-132376190D01*
X100595238Y-132661904D01*
X100547619Y-132757142D01*
X100500000Y-132804761D01*
X100404761Y-132852380D01*
X100261904Y-132852380D01*
X101023809Y-132852380D02*
X101023809Y-132185714D01*
X101023809Y-132280952D02*
X101071428Y-132233333D01*
X101166666Y-132185714D01*
X101309523Y-132185714D01*
X101404761Y-132233333D01*
X101452380Y-132328571D01*
X101452380Y-132852380D01*
X101452380Y-132328571D02*
X101500000Y-132233333D01*
X101595238Y-132185714D01*
X101738095Y-132185714D01*
X101833333Y-132233333D01*
X101880952Y-132328571D01*
X101880952Y-132852380D01*
X102357142Y-132852380D02*
X102357142Y-131852380D01*
X102928571Y-132852380D01*
X102928571Y-131852380D01*
X103404761Y-132852380D02*
X103404761Y-132185714D01*
X103404761Y-131852380D02*
X103357142Y-131900000D01*
X103404761Y-131947619D01*
X103452380Y-131900000D01*
X103404761Y-131852380D01*
X103404761Y-131947619D01*
X103833333Y-132804761D02*
X103928571Y-132852380D01*
X104119047Y-132852380D01*
X104214285Y-132804761D01*
X104261904Y-132709523D01*
X104261904Y-132661904D01*
X104214285Y-132566666D01*
X104119047Y-132519047D01*
X103976190Y-132519047D01*
X103880952Y-132471428D01*
X103833333Y-132376190D01*
X103833333Y-132328571D01*
X103880952Y-132233333D01*
X103976190Y-132185714D01*
X104119047Y-132185714D01*
X104214285Y-132233333D01*
X104690476Y-132852380D02*
X104690476Y-131852380D01*
X104690476Y-132233333D02*
X104785714Y-132185714D01*
X104976190Y-132185714D01*
X105071428Y-132233333D01*
X105119047Y-132280952D01*
X105166666Y-132376190D01*
X105166666Y-132661904D01*
X105119047Y-132757142D01*
X105071428Y-132804761D01*
X104976190Y-132852380D01*
X104785714Y-132852380D01*
X104690476Y-132804761D01*
X105976190Y-132804761D02*
X105880952Y-132852380D01*
X105690476Y-132852380D01*
X105595238Y-132804761D01*
X105547619Y-132709523D01*
X105547619Y-132328571D01*
X105595238Y-132233333D01*
X105690476Y-132185714D01*
X105880952Y-132185714D01*
X105976190Y-132233333D01*
X106023809Y-132328571D01*
X106023809Y-132423809D01*
X105547619Y-132519047D01*
X106309523Y-132185714D02*
X106690476Y-132185714D01*
X106452380Y-131852380D02*
X106452380Y-132709523D01*
X106499999Y-132804761D01*
X106595238Y-132852380D01*
X106690476Y-132852380D01*
X107738095Y-131804761D02*
X106880952Y-133090476D01*
X108071428Y-132185714D02*
X108071428Y-132852380D01*
X108071428Y-132280952D02*
X108119047Y-132233333D01*
X108214285Y-132185714D01*
X108357142Y-132185714D01*
X108452380Y-132233333D01*
X108500000Y-132328571D01*
X108500000Y-132852380D01*
X109404761Y-132185714D02*
X109404761Y-133185714D01*
X109404761Y-132804761D02*
X109309523Y-132852380D01*
X109119047Y-132852380D01*
X109023809Y-132804761D01*
X108976190Y-132757142D01*
X108928571Y-132661904D01*
X108928571Y-132376190D01*
X108976190Y-132280952D01*
X109023809Y-132233333D01*
X109119047Y-132185714D01*
X109309523Y-132185714D01*
X109404761Y-132233333D01*
X109833333Y-132804761D02*
X109928571Y-132852380D01*
X110119047Y-132852380D01*
X110214285Y-132804761D01*
X110261904Y-132709523D01*
X110261904Y-132661904D01*
X110214285Y-132566666D01*
X110119047Y-132519047D01*
X109976190Y-132519047D01*
X109880952Y-132471428D01*
X109833333Y-132376190D01*
X109833333Y-132328571D01*
X109880952Y-132233333D01*
X109976190Y-132185714D01*
X110119047Y-132185714D01*
X110214285Y-132233333D01*
X111119047Y-132852380D02*
X111119047Y-132328571D01*
X111071428Y-132233333D01*
X110976190Y-132185714D01*
X110785714Y-132185714D01*
X110690476Y-132233333D01*
X111119047Y-132804761D02*
X111023809Y-132852380D01*
X110785714Y-132852380D01*
X110690476Y-132804761D01*
X110642857Y-132709523D01*
X110642857Y-132614285D01*
X110690476Y-132519047D01*
X110785714Y-132471428D01*
X111023809Y-132471428D01*
X111119047Y-132423809D01*
X111595238Y-132185714D02*
X111595238Y-133185714D01*
X111595238Y-132233333D02*
X111690476Y-132185714D01*
X111880952Y-132185714D01*
X111976190Y-132233333D01*
X112023809Y-132280952D01*
X112071428Y-132376190D01*
X112071428Y-132661904D01*
X112023809Y-132757142D01*
X111976190Y-132804761D01*
X111880952Y-132852380D01*
X111690476Y-132852380D01*
X111595238Y-132804761D01*
X112499999Y-132471428D02*
X113261904Y-132471428D01*
X113738095Y-132185714D02*
X113738095Y-133185714D01*
X113738095Y-132233333D02*
X113833333Y-132185714D01*
X114023809Y-132185714D01*
X114119047Y-132233333D01*
X114166666Y-132280952D01*
X114214285Y-132376190D01*
X114214285Y-132661904D01*
X114166666Y-132757142D01*
X114119047Y-132804761D01*
X114023809Y-132852380D01*
X113833333Y-132852380D01*
X113738095Y-132804761D01*
X115071428Y-132804761D02*
X114976190Y-132852380D01*
X114785714Y-132852380D01*
X114690476Y-132804761D01*
X114642857Y-132757142D01*
X114595238Y-132661904D01*
X114595238Y-132376190D01*
X114642857Y-132280952D01*
X114690476Y-132233333D01*
X114785714Y-132185714D01*
X114976190Y-132185714D01*
X115071428Y-132233333D01*
X115499999Y-132852380D02*
X115499999Y-131852380D01*
X115499999Y-132233333D02*
X115595238Y-132185714D01*
X115785714Y-132185714D01*
X115880952Y-132233333D01*
X115928571Y-132280952D01*
X115976190Y-132376190D01*
X115976190Y-132661904D01*
X115928571Y-132757142D01*
X115880952Y-132804761D01*
X115785714Y-132852380D01*
X115595238Y-132852380D01*
X115499999Y-132804761D01*
X175433333Y-132347619D02*
X175480952Y-132300000D01*
X175576190Y-132252380D01*
X175814285Y-132252380D01*
X175909523Y-132300000D01*
X175957142Y-132347619D01*
X176004761Y-132442857D01*
X176004761Y-132538095D01*
X175957142Y-132680952D01*
X175385714Y-133252380D01*
X176004761Y-133252380D01*
X176623809Y-132252380D02*
X176719047Y-132252380D01*
X176814285Y-132300000D01*
X176861904Y-132347619D01*
X176909523Y-132442857D01*
X176957142Y-132633333D01*
X176957142Y-132871428D01*
X176909523Y-133061904D01*
X176861904Y-133157142D01*
X176814285Y-133204761D01*
X176719047Y-133252380D01*
X176623809Y-133252380D01*
X176528571Y-133204761D01*
X176480952Y-133157142D01*
X176433333Y-133061904D01*
X176385714Y-132871428D01*
X176385714Y-132633333D01*
X176433333Y-132442857D01*
X176480952Y-132347619D01*
X176528571Y-132300000D01*
X176623809Y-132252380D01*
X177338095Y-132347619D02*
X177385714Y-132300000D01*
X177480952Y-132252380D01*
X177719047Y-132252380D01*
X177814285Y-132300000D01*
X177861904Y-132347619D01*
X177909523Y-132442857D01*
X177909523Y-132538095D01*
X177861904Y-132680952D01*
X177290476Y-133252380D01*
X177909523Y-133252380D01*
X178861904Y-133252380D02*
X178290476Y-133252380D01*
X178576190Y-133252380D02*
X178576190Y-132252380D01*
X178480952Y-132395238D01*
X178385714Y-132490476D01*
X178290476Y-132538095D01*
X179957142Y-132585714D02*
X180195238Y-133252380D01*
X180433333Y-132585714D01*
X181338095Y-133252380D02*
X180766666Y-133252380D01*
X181052380Y-133252380D02*
X181052380Y-132252380D01*
X180957142Y-132395238D01*
X180861904Y-132490476D01*
X180766666Y-132538095D01*
X181766666Y-133157142D02*
X181814285Y-133204761D01*
X181766666Y-133252380D01*
X181719047Y-133204761D01*
X181766666Y-133157142D01*
X181766666Y-133252380D01*
X182433333Y-132252380D02*
X182528571Y-132252380D01*
X182623809Y-132300000D01*
X182671428Y-132347619D01*
X182719047Y-132442857D01*
X182766666Y-132633333D01*
X182766666Y-132871428D01*
X182719047Y-133061904D01*
X182671428Y-133157142D01*
X182623809Y-133204761D01*
X182528571Y-133252380D01*
X182433333Y-133252380D01*
X182338095Y-133204761D01*
X182290476Y-133157142D01*
X182242857Y-133061904D01*
X182195238Y-132871428D01*
X182195238Y-132633333D01*
X182242857Y-132442857D01*
X182290476Y-132347619D01*
X182338095Y-132300000D01*
X182433333Y-132252380D01*
D11*
X122409523Y-126909523D02*
X120504761Y-126909523D01*
X120504761Y-122909523D01*
X124314285Y-126909523D02*
X123933333Y-126719047D01*
X123742857Y-126528571D01*
X123552380Y-126147619D01*
X123552380Y-125004761D01*
X123742857Y-124623809D01*
X123933333Y-124433333D01*
X124314285Y-124242857D01*
X124885714Y-124242857D01*
X125266666Y-124433333D01*
X125457142Y-124623809D01*
X125647619Y-125004761D01*
X125647619Y-126147619D01*
X125457142Y-126528571D01*
X125266666Y-126719047D01*
X124885714Y-126909523D01*
X124314285Y-126909523D01*
X129076190Y-126909523D02*
X129076190Y-124814285D01*
X128885714Y-124433333D01*
X128504761Y-124242857D01*
X127742857Y-124242857D01*
X127361904Y-124433333D01*
X129076190Y-126719047D02*
X128695238Y-126909523D01*
X127742857Y-126909523D01*
X127361904Y-126719047D01*
X127171428Y-126338095D01*
X127171428Y-125957142D01*
X127361904Y-125576190D01*
X127742857Y-125385714D01*
X128695238Y-125385714D01*
X129076190Y-125195238D01*
X132695238Y-126909523D02*
X132695238Y-122909523D01*
X132695238Y-126719047D02*
X132314285Y-126909523D01*
X131552380Y-126909523D01*
X131171428Y-126719047D01*
X130980952Y-126528571D01*
X130790476Y-126147619D01*
X130790476Y-125004761D01*
X130980952Y-124623809D01*
X131171428Y-124433333D01*
X131552380Y-124242857D01*
X132314285Y-124242857D01*
X132695238Y-124433333D01*
X136123809Y-126719047D02*
X135742857Y-126909523D01*
X134980952Y-126909523D01*
X134600000Y-126719047D01*
X134409523Y-126338095D01*
X134409523Y-124814285D01*
X134600000Y-124433333D01*
X134980952Y-124242857D01*
X135742857Y-124242857D01*
X136123809Y-124433333D01*
X136314285Y-124814285D01*
X136314285Y-125195238D01*
X134409523Y-125576190D01*
X138028571Y-126909523D02*
X138028571Y-124242857D01*
X138028571Y-125004761D02*
X138219047Y-124623809D01*
X138409523Y-124433333D01*
X138790476Y-124242857D01*
X139171428Y-124242857D01*
X146409523Y-122719047D02*
X142980952Y-127861904D01*
X150790476Y-126909523D02*
X150790476Y-122909523D01*
X151742857Y-122909523D01*
X152314285Y-123100000D01*
X152695238Y-123480952D01*
X152885714Y-123861904D01*
X153076190Y-124623809D01*
X153076190Y-125195238D01*
X152885714Y-125957142D01*
X152695238Y-126338095D01*
X152314285Y-126719047D01*
X151742857Y-126909523D01*
X150790476Y-126909523D01*
X156314285Y-126719047D02*
X155933333Y-126909523D01*
X155171428Y-126909523D01*
X154790476Y-126719047D01*
X154600000Y-126338095D01*
X154600000Y-124814285D01*
X154790476Y-124433333D01*
X155171428Y-124242857D01*
X155933333Y-124242857D01*
X156314285Y-124433333D01*
X156504761Y-124814285D01*
X156504761Y-125195238D01*
X154600000Y-125576190D01*
X158219047Y-126909523D02*
X158219047Y-122909523D01*
X158219047Y-124433333D02*
X158600000Y-124242857D01*
X159361904Y-124242857D01*
X159742857Y-124433333D01*
X159933333Y-124623809D01*
X160123809Y-125004761D01*
X160123809Y-126147619D01*
X159933333Y-126528571D01*
X159742857Y-126719047D01*
X159361904Y-126909523D01*
X158600000Y-126909523D01*
X158219047Y-126719047D01*
X163552380Y-124242857D02*
X163552380Y-126909523D01*
X161838095Y-124242857D02*
X161838095Y-126338095D01*
X162028571Y-126719047D01*
X162409523Y-126909523D01*
X162980952Y-126909523D01*
X163361904Y-126719047D01*
X163552380Y-126528571D01*
X167171428Y-124242857D02*
X167171428Y-127480952D01*
X166980952Y-127861904D01*
X166790476Y-128052380D01*
X166409523Y-128242857D01*
X165838095Y-128242857D01*
X165457142Y-128052380D01*
X167171428Y-126719047D02*
X166790476Y-126909523D01*
X166028571Y-126909523D01*
X165647619Y-126719047D01*
X165457142Y-126528571D01*
X165266666Y-126147619D01*
X165266666Y-125004761D01*
X165457142Y-124623809D01*
X165647619Y-124433333D01*
X166028571Y-124242857D01*
X166790476Y-124242857D01*
X167171428Y-124433333D01*
X170790476Y-124242857D02*
X170790476Y-127480952D01*
X170600000Y-127861904D01*
X170409523Y-128052380D01*
X170028571Y-128242857D01*
X169457142Y-128242857D01*
X169076190Y-128052380D01*
X170790476Y-126719047D02*
X170409523Y-126909523D01*
X169647619Y-126909523D01*
X169266666Y-126719047D01*
X169076190Y-126528571D01*
X168885714Y-126147619D01*
X168885714Y-125004761D01*
X169076190Y-124623809D01*
X169266666Y-124433333D01*
X169647619Y-124242857D01*
X170409523Y-124242857D01*
X170790476Y-124433333D01*
X174219047Y-126719047D02*
X173838095Y-126909523D01*
X173076190Y-126909523D01*
X172695238Y-126719047D01*
X172504761Y-126338095D01*
X172504761Y-124814285D01*
X172695238Y-124433333D01*
X173076190Y-124242857D01*
X173838095Y-124242857D01*
X174219047Y-124433333D01*
X174409523Y-124814285D01*
X174409523Y-125195238D01*
X172504761Y-125576190D01*
X176123809Y-126909523D02*
X176123809Y-124242857D01*
X176123809Y-125004761D02*
X176314285Y-124623809D01*
X176504761Y-124433333D01*
X176885714Y-124242857D01*
X177266666Y-124242857D01*
D12*
X161861252Y-54635000D02*
X161338748Y-54635000D01*
X161861252Y-53165000D02*
X161338748Y-53165000D01*
X147161252Y-53165000D02*
X146638748Y-53165000D01*
X147161252Y-54635000D02*
X146638748Y-54635000D01*
X114627064Y-117535000D02*
X114172936Y-117535000D01*
X114627064Y-116065000D02*
X114172936Y-116065000D01*
X106900000Y-115800000D02*
X102400000Y-115800000D01*
X108150000Y-119800000D02*
X108150000Y-118300000D01*
X102400000Y-122300000D02*
X106900000Y-122300000D01*
X101150000Y-118300000D02*
X101150000Y-119800000D01*
X180661252Y-89635000D02*
X180138748Y-89635000D01*
X180661252Y-88165000D02*
X180138748Y-88165000D01*
X171010000Y-87570000D02*
X169360000Y-87570000D01*
X169360000Y-87570000D02*
X169360000Y-105470000D01*
X169360000Y-105470000D02*
X174660000Y-105470000D01*
X174660000Y-105470000D02*
X174660000Y-87570000D01*
X174660000Y-87570000D02*
X173010000Y-87570000D01*
X173010000Y-87570000D02*
G75*
G02*
X171010000Y-87570000I-1000000J0D01*
G01*
X135990000Y-109580000D02*
X135990000Y-111820000D01*
X135990000Y-111820000D02*
X140230000Y-111820000D01*
X140230000Y-111820000D02*
X140230000Y-109580000D01*
X140230000Y-109580000D02*
X135990000Y-109580000D01*
X135340000Y-110700000D02*
X135990000Y-110700000D01*
X140880000Y-110700000D02*
X140230000Y-110700000D01*
X136710000Y-109580000D02*
X136710000Y-111820000D01*
X136830000Y-109580000D02*
X136830000Y-111820000D01*
X136590000Y-109580000D02*
X136590000Y-111820000D01*
X157460000Y-55170000D02*
X155810000Y-55170000D01*
X157460000Y-80690000D02*
X157460000Y-55170000D01*
X152160000Y-80690000D02*
X157460000Y-80690000D01*
X152160000Y-55170000D02*
X152160000Y-80690000D01*
X153810000Y-55170000D02*
X152160000Y-55170000D01*
X155810000Y-55170000D02*
G75*
G02*
X153810000Y-55170000I-1000000J0D01*
G01*
X142760000Y-55170000D02*
X141110000Y-55170000D01*
X142760000Y-80690000D02*
X142760000Y-55170000D01*
X137460000Y-80690000D02*
X142760000Y-80690000D01*
X137460000Y-55170000D02*
X137460000Y-80690000D01*
X139110000Y-55170000D02*
X137460000Y-55170000D01*
X141110000Y-55170000D02*
G75*
G02*
X139110000Y-55170000I-1000000J0D01*
G01*
X104560000Y-55170000D02*
X102910000Y-55170000D01*
X104560000Y-75610000D02*
X104560000Y-55170000D01*
X99260000Y-75610000D02*
X104560000Y-75610000D01*
X99260000Y-55170000D02*
X99260000Y-75610000D01*
X100910000Y-55170000D02*
X99260000Y-55170000D01*
X102910000Y-55170000D02*
G75*
G02*
X100910000Y-55170000I-1000000J0D01*
G01*
X117860000Y-55170000D02*
X116210000Y-55170000D01*
X117860000Y-75610000D02*
X117860000Y-55170000D01*
X112560000Y-75610000D02*
X117860000Y-75610000D01*
X112560000Y-55170000D02*
X112560000Y-75610000D01*
X114210000Y-55170000D02*
X112560000Y-55170000D01*
X116210000Y-55170000D02*
G75*
G02*
X114210000Y-55170000I-1000000J0D01*
G01*
X175027064Y-111065000D02*
X174572936Y-111065000D01*
X175027064Y-112535000D02*
X174572936Y-112535000D01*
X166040000Y-112760000D02*
X168900000Y-112760000D01*
X166040000Y-110840000D02*
X166040000Y-112760000D01*
X168900000Y-110840000D02*
X166040000Y-110840000D01*
X122261252Y-53165000D02*
X121738748Y-53165000D01*
X122261252Y-54635000D02*
X121738748Y-54635000D01*
X108961252Y-53065000D02*
X108438748Y-53065000D01*
X108961252Y-54535000D02*
X108438748Y-54535000D01*
X145840000Y-106340000D02*
X145840000Y-88300000D01*
X102400000Y-106340000D02*
X145840000Y-106340000D01*
X102400000Y-88300000D02*
X102400000Y-106340000D01*
X105070000Y-90970000D02*
X105070000Y-88300000D01*
X140630000Y-90970000D02*
X105070000Y-90970000D01*
X140630000Y-90970000D02*
X140630000Y-88300000D01*
X105070000Y-103670000D02*
X105070000Y-106340000D01*
X143170000Y-103670000D02*
X105070000Y-103670000D01*
X143170000Y-103670000D02*
X143170000Y-106340000D01*
X145840000Y-88300000D02*
X143170000Y-88300000D01*
X140630000Y-88300000D02*
X102400000Y-88300000D01*
X143170000Y-90970000D02*
X143170000Y-88300000D01*
X140630000Y-90970000D02*
X143170000Y-90970000D01*
D10*
X161433333Y-55937142D02*
X161385714Y-55984761D01*
X161242857Y-56032380D01*
X161147619Y-56032380D01*
X161004761Y-55984761D01*
X160909523Y-55889523D01*
X160861904Y-55794285D01*
X160814285Y-55603809D01*
X160814285Y-55460952D01*
X160861904Y-55270476D01*
X160909523Y-55175238D01*
X161004761Y-55080000D01*
X161147619Y-55032380D01*
X161242857Y-55032380D01*
X161385714Y-55080000D01*
X161433333Y-55127619D01*
X162290476Y-55365714D02*
X162290476Y-56032380D01*
X162052380Y-54984761D02*
X161814285Y-55699047D01*
X162433333Y-55699047D01*
X146733333Y-55937142D02*
X146685714Y-55984761D01*
X146542857Y-56032380D01*
X146447619Y-56032380D01*
X146304761Y-55984761D01*
X146209523Y-55889523D01*
X146161904Y-55794285D01*
X146114285Y-55603809D01*
X146114285Y-55460952D01*
X146161904Y-55270476D01*
X146209523Y-55175238D01*
X146304761Y-55080000D01*
X146447619Y-55032380D01*
X146542857Y-55032380D01*
X146685714Y-55080000D01*
X146733333Y-55127619D01*
X147066666Y-55032380D02*
X147685714Y-55032380D01*
X147352380Y-55413333D01*
X147495238Y-55413333D01*
X147590476Y-55460952D01*
X147638095Y-55508571D01*
X147685714Y-55603809D01*
X147685714Y-55841904D01*
X147638095Y-55937142D01*
X147590476Y-55984761D01*
X147495238Y-56032380D01*
X147209523Y-56032380D01*
X147114285Y-55984761D01*
X147066666Y-55937142D01*
X114233333Y-118902380D02*
X113900000Y-118426190D01*
X113661904Y-118902380D02*
X113661904Y-117902380D01*
X114042857Y-117902380D01*
X114138095Y-117950000D01*
X114185714Y-117997619D01*
X114233333Y-118092857D01*
X114233333Y-118235714D01*
X114185714Y-118330952D01*
X114138095Y-118378571D01*
X114042857Y-118426190D01*
X113661904Y-118426190D01*
X114614285Y-117997619D02*
X114661904Y-117950000D01*
X114757142Y-117902380D01*
X114995238Y-117902380D01*
X115090476Y-117950000D01*
X115138095Y-117997619D01*
X115185714Y-118092857D01*
X115185714Y-118188095D01*
X115138095Y-118330952D01*
X114566666Y-118902380D01*
X115185714Y-118902380D01*
X103166666Y-115004761D02*
X103309523Y-115052380D01*
X103547619Y-115052380D01*
X103642857Y-115004761D01*
X103690476Y-114957142D01*
X103738095Y-114861904D01*
X103738095Y-114766666D01*
X103690476Y-114671428D01*
X103642857Y-114623809D01*
X103547619Y-114576190D01*
X103357142Y-114528571D01*
X103261904Y-114480952D01*
X103214285Y-114433333D01*
X103166666Y-114338095D01*
X103166666Y-114242857D01*
X103214285Y-114147619D01*
X103261904Y-114100000D01*
X103357142Y-114052380D01*
X103595238Y-114052380D01*
X103738095Y-114100000D01*
X104071428Y-114052380D02*
X104309523Y-115052380D01*
X104500000Y-114338095D01*
X104690476Y-115052380D01*
X104928571Y-114052380D01*
X105833333Y-115052380D02*
X105261904Y-115052380D01*
X105547619Y-115052380D02*
X105547619Y-114052380D01*
X105452380Y-114195238D01*
X105357142Y-114290476D01*
X105261904Y-114338095D01*
D13*
X102421428Y-125278571D02*
X101921428Y-124564285D01*
X101564285Y-125278571D02*
X101564285Y-123778571D01*
X102135714Y-123778571D01*
X102278571Y-123850000D01*
X102350000Y-123921428D01*
X102421428Y-124064285D01*
X102421428Y-124278571D01*
X102350000Y-124421428D01*
X102278571Y-124492857D01*
X102135714Y-124564285D01*
X101564285Y-124564285D01*
X103064285Y-124492857D02*
X103564285Y-124492857D01*
X103778571Y-125278571D02*
X103064285Y-125278571D01*
X103064285Y-123778571D01*
X103778571Y-123778571D01*
X104350000Y-125207142D02*
X104564285Y-125278571D01*
X104921428Y-125278571D01*
X105064285Y-125207142D01*
X105135714Y-125135714D01*
X105207142Y-124992857D01*
X105207142Y-124850000D01*
X105135714Y-124707142D01*
X105064285Y-124635714D01*
X104921428Y-124564285D01*
X104635714Y-124492857D01*
X104492857Y-124421428D01*
X104421428Y-124350000D01*
X104350000Y-124207142D01*
X104350000Y-124064285D01*
X104421428Y-123921428D01*
X104492857Y-123850000D01*
X104635714Y-123778571D01*
X104992857Y-123778571D01*
X105207142Y-123850000D01*
X105850000Y-124492857D02*
X106350000Y-124492857D01*
X106564285Y-125278571D02*
X105850000Y-125278571D01*
X105850000Y-123778571D01*
X106564285Y-123778571D01*
X106992857Y-123778571D02*
X107850000Y-123778571D01*
X107421428Y-125278571D02*
X107421428Y-123778571D01*
D10*
X180233333Y-90937142D02*
X180185714Y-90984761D01*
X180042857Y-91032380D01*
X179947619Y-91032380D01*
X179804761Y-90984761D01*
X179709523Y-90889523D01*
X179661904Y-90794285D01*
X179614285Y-90603809D01*
X179614285Y-90460952D01*
X179661904Y-90270476D01*
X179709523Y-90175238D01*
X179804761Y-90080000D01*
X179947619Y-90032380D01*
X180042857Y-90032380D01*
X180185714Y-90080000D01*
X180233333Y-90127619D01*
X181138095Y-90032380D02*
X180661904Y-90032380D01*
X180614285Y-90508571D01*
X180661904Y-90460952D01*
X180757142Y-90413333D01*
X180995238Y-90413333D01*
X181090476Y-90460952D01*
X181138095Y-90508571D01*
X181185714Y-90603809D01*
X181185714Y-90841904D01*
X181138095Y-90937142D01*
X181090476Y-90984761D01*
X180995238Y-91032380D01*
X180757142Y-91032380D01*
X180661904Y-90984761D01*
X180614285Y-90937142D01*
X171248095Y-86022380D02*
X171248095Y-86831904D01*
X171295714Y-86927142D01*
X171343333Y-86974761D01*
X171438571Y-87022380D01*
X171629047Y-87022380D01*
X171724285Y-86974761D01*
X171771904Y-86927142D01*
X171819523Y-86831904D01*
X171819523Y-86022380D01*
X172771904Y-86022380D02*
X172295714Y-86022380D01*
X172248095Y-86498571D01*
X172295714Y-86450952D01*
X172390952Y-86403333D01*
X172629047Y-86403333D01*
X172724285Y-86450952D01*
X172771904Y-86498571D01*
X172819523Y-86593809D01*
X172819523Y-86831904D01*
X172771904Y-86927142D01*
X172724285Y-86974761D01*
X172629047Y-87022380D01*
X172390952Y-87022380D01*
X172295714Y-86974761D01*
X172248095Y-86927142D01*
X168843333Y-105922380D02*
X169510000Y-105922380D01*
X169081428Y-106922380D01*
X170319523Y-106255714D02*
X170319523Y-106922380D01*
X170081428Y-105874761D02*
X169843333Y-106589047D01*
X170462380Y-106589047D01*
X170843333Y-106922380D02*
X170843333Y-105922380D01*
X170843333Y-106398571D02*
X171414761Y-106398571D01*
X171414761Y-106922380D02*
X171414761Y-105922380D01*
X172462380Y-106827142D02*
X172414761Y-106874761D01*
X172271904Y-106922380D01*
X172176666Y-106922380D01*
X172033809Y-106874761D01*
X171938571Y-106779523D01*
X171890952Y-106684285D01*
X171843333Y-106493809D01*
X171843333Y-106350952D01*
X171890952Y-106160476D01*
X171938571Y-106065238D01*
X172033809Y-105970000D01*
X172176666Y-105922380D01*
X172271904Y-105922380D01*
X172414761Y-105970000D01*
X172462380Y-106017619D01*
X172748095Y-105922380D02*
X173319523Y-105922380D01*
X173033809Y-106922380D02*
X173033809Y-105922380D01*
X173843333Y-105922380D02*
X173938571Y-105922380D01*
X174033809Y-105970000D01*
X174081428Y-106017619D01*
X174129047Y-106112857D01*
X174176666Y-106303333D01*
X174176666Y-106541428D01*
X174129047Y-106731904D01*
X174081428Y-106827142D01*
X174033809Y-106874761D01*
X173938571Y-106922380D01*
X173843333Y-106922380D01*
X173748095Y-106874761D01*
X173700476Y-106827142D01*
X173652857Y-106731904D01*
X173605238Y-106541428D01*
X173605238Y-106303333D01*
X173652857Y-106112857D01*
X173700476Y-106017619D01*
X173748095Y-105970000D01*
X173843333Y-105922380D01*
X174795714Y-105922380D02*
X174890952Y-105922380D01*
X174986190Y-105970000D01*
X175033809Y-106017619D01*
X175081428Y-106112857D01*
X175129047Y-106303333D01*
X175129047Y-106541428D01*
X175081428Y-106731904D01*
X175033809Y-106827142D01*
X174986190Y-106874761D01*
X174890952Y-106922380D01*
X174795714Y-106922380D01*
X174700476Y-106874761D01*
X174652857Y-106827142D01*
X174605238Y-106731904D01*
X174557619Y-106541428D01*
X174557619Y-106303333D01*
X174605238Y-106112857D01*
X174652857Y-106017619D01*
X174700476Y-105970000D01*
X174795714Y-105922380D01*
X167909523Y-108452380D02*
X167909523Y-107452380D01*
X168480952Y-108452380D01*
X168480952Y-107452380D01*
X168909523Y-108166666D02*
X169385714Y-108166666D01*
X168814285Y-108452380D02*
X169147619Y-107452380D01*
X169480952Y-108452380D01*
X169814285Y-108452380D02*
X169814285Y-107452380D01*
X170385714Y-108452380D01*
X170385714Y-107452380D01*
X170861904Y-108452380D02*
X170861904Y-107452380D01*
X171100000Y-107452380D01*
X171242857Y-107500000D01*
X171338095Y-107595238D01*
X171385714Y-107690476D01*
X171433333Y-107880952D01*
X171433333Y-108023809D01*
X171385714Y-108214285D01*
X171338095Y-108309523D01*
X171242857Y-108404761D01*
X171100000Y-108452380D01*
X170861904Y-108452380D01*
X173147619Y-107500000D02*
X173052380Y-107452380D01*
X172909523Y-107452380D01*
X172766666Y-107500000D01*
X172671428Y-107595238D01*
X172623809Y-107690476D01*
X172576190Y-107880952D01*
X172576190Y-108023809D01*
X172623809Y-108214285D01*
X172671428Y-108309523D01*
X172766666Y-108404761D01*
X172909523Y-108452380D01*
X173004761Y-108452380D01*
X173147619Y-108404761D01*
X173195238Y-108357142D01*
X173195238Y-108023809D01*
X173004761Y-108023809D01*
X174052380Y-108452380D02*
X174052380Y-107928571D01*
X174004761Y-107833333D01*
X173909523Y-107785714D01*
X173719047Y-107785714D01*
X173623809Y-107833333D01*
X174052380Y-108404761D02*
X173957142Y-108452380D01*
X173719047Y-108452380D01*
X173623809Y-108404761D01*
X173576190Y-108309523D01*
X173576190Y-108214285D01*
X173623809Y-108119047D01*
X173719047Y-108071428D01*
X173957142Y-108071428D01*
X174052380Y-108023809D01*
X174385714Y-107785714D02*
X174766666Y-107785714D01*
X174528571Y-107452380D02*
X174528571Y-108309523D01*
X174576190Y-108404761D01*
X174671428Y-108452380D01*
X174766666Y-108452380D01*
X175480952Y-108404761D02*
X175385714Y-108452380D01*
X175195238Y-108452380D01*
X175100000Y-108404761D01*
X175052380Y-108309523D01*
X175052380Y-107928571D01*
X175100000Y-107833333D01*
X175195238Y-107785714D01*
X175385714Y-107785714D01*
X175480952Y-107833333D01*
X175528571Y-107928571D01*
X175528571Y-108023809D01*
X175052380Y-108119047D01*
X175909523Y-108404761D02*
X176004761Y-108452380D01*
X176195238Y-108452380D01*
X176290476Y-108404761D01*
X176338095Y-108309523D01*
X176338095Y-108261904D01*
X176290476Y-108166666D01*
X176195238Y-108119047D01*
X176052380Y-108119047D01*
X175957142Y-108071428D01*
X175909523Y-107976190D01*
X175909523Y-107928571D01*
X175957142Y-107833333D01*
X176052380Y-107785714D01*
X176195238Y-107785714D01*
X176290476Y-107833333D01*
X137371904Y-109032380D02*
X137371904Y-108032380D01*
X137610000Y-108032380D01*
X137752857Y-108080000D01*
X137848095Y-108175238D01*
X137895714Y-108270476D01*
X137943333Y-108460952D01*
X137943333Y-108603809D01*
X137895714Y-108794285D01*
X137848095Y-108889523D01*
X137752857Y-108984761D01*
X137610000Y-109032380D01*
X137371904Y-109032380D01*
X138895714Y-109032380D02*
X138324285Y-109032380D01*
X138610000Y-109032380D02*
X138610000Y-108032380D01*
X138514761Y-108175238D01*
X138419523Y-108270476D01*
X138324285Y-108318095D01*
X154048095Y-53622380D02*
X154048095Y-54431904D01*
X154095714Y-54527142D01*
X154143333Y-54574761D01*
X154238571Y-54622380D01*
X154429047Y-54622380D01*
X154524285Y-54574761D01*
X154571904Y-54527142D01*
X154619523Y-54431904D01*
X154619523Y-53622380D01*
X155524285Y-53955714D02*
X155524285Y-54622380D01*
X155286190Y-53574761D02*
X155048095Y-54289047D01*
X155667142Y-54289047D01*
X151167142Y-81452380D02*
X151833809Y-81452380D01*
X151405238Y-82452380D01*
X152643333Y-81785714D02*
X152643333Y-82452380D01*
X152405238Y-81404761D02*
X152167142Y-82119047D01*
X152786190Y-82119047D01*
X153167142Y-82452380D02*
X153167142Y-81452380D01*
X153167142Y-81928571D02*
X153738571Y-81928571D01*
X153738571Y-82452380D02*
X153738571Y-81452380D01*
X154786190Y-82357142D02*
X154738571Y-82404761D01*
X154595714Y-82452380D01*
X154500476Y-82452380D01*
X154357619Y-82404761D01*
X154262380Y-82309523D01*
X154214761Y-82214285D01*
X154167142Y-82023809D01*
X154167142Y-81880952D01*
X154214761Y-81690476D01*
X154262380Y-81595238D01*
X154357619Y-81500000D01*
X154500476Y-81452380D01*
X154595714Y-81452380D01*
X154738571Y-81500000D01*
X154786190Y-81547619D01*
X155071904Y-81452380D02*
X155643333Y-81452380D01*
X155357619Y-82452380D02*
X155357619Y-81452380D01*
X156452857Y-81452380D02*
X155976666Y-81452380D01*
X155929047Y-81928571D01*
X155976666Y-81880952D01*
X156071904Y-81833333D01*
X156310000Y-81833333D01*
X156405238Y-81880952D01*
X156452857Y-81928571D01*
X156500476Y-82023809D01*
X156500476Y-82261904D01*
X156452857Y-82357142D01*
X156405238Y-82404761D01*
X156310000Y-82452380D01*
X156071904Y-82452380D01*
X155976666Y-82404761D01*
X155929047Y-82357142D01*
X156833809Y-81452380D02*
X157500476Y-81452380D01*
X157071904Y-82452380D01*
X158310000Y-81785714D02*
X158310000Y-82452380D01*
X158071904Y-81404761D02*
X157833809Y-82119047D01*
X158452857Y-82119047D01*
X139348095Y-53622380D02*
X139348095Y-54431904D01*
X139395714Y-54527142D01*
X139443333Y-54574761D01*
X139538571Y-54622380D01*
X139729047Y-54622380D01*
X139824285Y-54574761D01*
X139871904Y-54527142D01*
X139919523Y-54431904D01*
X139919523Y-53622380D01*
X140300476Y-53622380D02*
X140919523Y-53622380D01*
X140586190Y-54003333D01*
X140729047Y-54003333D01*
X140824285Y-54050952D01*
X140871904Y-54098571D01*
X140919523Y-54193809D01*
X140919523Y-54431904D01*
X140871904Y-54527142D01*
X140824285Y-54574761D01*
X140729047Y-54622380D01*
X140443333Y-54622380D01*
X140348095Y-54574761D01*
X140300476Y-54527142D01*
X136457142Y-81452380D02*
X137123809Y-81452380D01*
X136695238Y-82452380D01*
X137933333Y-81785714D02*
X137933333Y-82452380D01*
X137695238Y-81404761D02*
X137457142Y-82119047D01*
X138076190Y-82119047D01*
X138457142Y-82452380D02*
X138457142Y-81452380D01*
X138457142Y-81928571D02*
X139028571Y-81928571D01*
X139028571Y-82452380D02*
X139028571Y-81452380D01*
X140076190Y-82357142D02*
X140028571Y-82404761D01*
X139885714Y-82452380D01*
X139790476Y-82452380D01*
X139647619Y-82404761D01*
X139552380Y-82309523D01*
X139504761Y-82214285D01*
X139457142Y-82023809D01*
X139457142Y-81880952D01*
X139504761Y-81690476D01*
X139552380Y-81595238D01*
X139647619Y-81500000D01*
X139790476Y-81452380D01*
X139885714Y-81452380D01*
X140028571Y-81500000D01*
X140076190Y-81547619D01*
X140361904Y-81452380D02*
X140933333Y-81452380D01*
X140647619Y-82452380D02*
X140647619Y-81452380D01*
X141742857Y-81452380D02*
X141266666Y-81452380D01*
X141219047Y-81928571D01*
X141266666Y-81880952D01*
X141361904Y-81833333D01*
X141600000Y-81833333D01*
X141695238Y-81880952D01*
X141742857Y-81928571D01*
X141790476Y-82023809D01*
X141790476Y-82261904D01*
X141742857Y-82357142D01*
X141695238Y-82404761D01*
X141600000Y-82452380D01*
X141361904Y-82452380D01*
X141266666Y-82404761D01*
X141219047Y-82357142D01*
X142123809Y-81452380D02*
X142790476Y-81452380D01*
X142361904Y-82452380D01*
X143600000Y-81785714D02*
X143600000Y-82452380D01*
X143361904Y-81404761D02*
X143123809Y-82119047D01*
X143742857Y-82119047D01*
X141761904Y-83857142D02*
X141714285Y-83904761D01*
X141571428Y-83952380D01*
X141476190Y-83952380D01*
X141333333Y-83904761D01*
X141238095Y-83809523D01*
X141190476Y-83714285D01*
X141142857Y-83523809D01*
X141142857Y-83380952D01*
X141190476Y-83190476D01*
X141238095Y-83095238D01*
X141333333Y-83000000D01*
X141476190Y-82952380D01*
X141571428Y-82952380D01*
X141714285Y-83000000D01*
X141761904Y-83047619D01*
X142333333Y-83952380D02*
X142238095Y-83904761D01*
X142190476Y-83857142D01*
X142142857Y-83761904D01*
X142142857Y-83476190D01*
X142190476Y-83380952D01*
X142238095Y-83333333D01*
X142333333Y-83285714D01*
X142476190Y-83285714D01*
X142571428Y-83333333D01*
X142619047Y-83380952D01*
X142666666Y-83476190D01*
X142666666Y-83761904D01*
X142619047Y-83857142D01*
X142571428Y-83904761D01*
X142476190Y-83952380D01*
X142333333Y-83952380D01*
X143095238Y-83285714D02*
X143095238Y-83952380D01*
X143095238Y-83380952D02*
X143142857Y-83333333D01*
X143238095Y-83285714D01*
X143380952Y-83285714D01*
X143476190Y-83333333D01*
X143523809Y-83428571D01*
X143523809Y-83952380D01*
X143857142Y-83285714D02*
X144238095Y-83285714D01*
X144000000Y-82952380D02*
X144000000Y-83809523D01*
X144047619Y-83904761D01*
X144142857Y-83952380D01*
X144238095Y-83952380D01*
X144571428Y-83952380D02*
X144571428Y-83285714D01*
X144571428Y-83476190D02*
X144619047Y-83380952D01*
X144666666Y-83333333D01*
X144761904Y-83285714D01*
X144857142Y-83285714D01*
X145333333Y-83952380D02*
X145238095Y-83904761D01*
X145190476Y-83857142D01*
X145142857Y-83761904D01*
X145142857Y-83476190D01*
X145190476Y-83380952D01*
X145238095Y-83333333D01*
X145333333Y-83285714D01*
X145476190Y-83285714D01*
X145571428Y-83333333D01*
X145619047Y-83380952D01*
X145666666Y-83476190D01*
X145666666Y-83761904D01*
X145619047Y-83857142D01*
X145571428Y-83904761D01*
X145476190Y-83952380D01*
X145333333Y-83952380D01*
X146238095Y-83952380D02*
X146142857Y-83904761D01*
X146095238Y-83809523D01*
X146095238Y-82952380D01*
X147952380Y-83952380D02*
X147619047Y-83476190D01*
X147380952Y-83952380D02*
X147380952Y-82952380D01*
X147761904Y-82952380D01*
X147857142Y-83000000D01*
X147904761Y-83047619D01*
X147952380Y-83142857D01*
X147952380Y-83285714D01*
X147904761Y-83380952D01*
X147857142Y-83428571D01*
X147761904Y-83476190D01*
X147380952Y-83476190D01*
X148761904Y-83904761D02*
X148666666Y-83952380D01*
X148476190Y-83952380D01*
X148380952Y-83904761D01*
X148333333Y-83809523D01*
X148333333Y-83428571D01*
X148380952Y-83333333D01*
X148476190Y-83285714D01*
X148666666Y-83285714D01*
X148761904Y-83333333D01*
X148809523Y-83428571D01*
X148809523Y-83523809D01*
X148333333Y-83619047D01*
X149666666Y-83285714D02*
X149666666Y-84095238D01*
X149619047Y-84190476D01*
X149571428Y-84238095D01*
X149476190Y-84285714D01*
X149333333Y-84285714D01*
X149238095Y-84238095D01*
X149666666Y-83904761D02*
X149571428Y-83952380D01*
X149380952Y-83952380D01*
X149285714Y-83904761D01*
X149238095Y-83857142D01*
X149190476Y-83761904D01*
X149190476Y-83476190D01*
X149238095Y-83380952D01*
X149285714Y-83333333D01*
X149380952Y-83285714D01*
X149571428Y-83285714D01*
X149666666Y-83333333D01*
X150142857Y-83952380D02*
X150142857Y-83285714D01*
X150142857Y-82952380D02*
X150095238Y-83000000D01*
X150142857Y-83047619D01*
X150190476Y-83000000D01*
X150142857Y-82952380D01*
X150142857Y-83047619D01*
X150571428Y-83904761D02*
X150666666Y-83952380D01*
X150857142Y-83952380D01*
X150952380Y-83904761D01*
X151000000Y-83809523D01*
X151000000Y-83761904D01*
X150952380Y-83666666D01*
X150857142Y-83619047D01*
X150714285Y-83619047D01*
X150619047Y-83571428D01*
X150571428Y-83476190D01*
X150571428Y-83428571D01*
X150619047Y-83333333D01*
X150714285Y-83285714D01*
X150857142Y-83285714D01*
X150952380Y-83333333D01*
X151285714Y-83285714D02*
X151666666Y-83285714D01*
X151428571Y-82952380D02*
X151428571Y-83809523D01*
X151476190Y-83904761D01*
X151571428Y-83952380D01*
X151666666Y-83952380D01*
X152380952Y-83904761D02*
X152285714Y-83952380D01*
X152095238Y-83952380D01*
X152000000Y-83904761D01*
X151952380Y-83809523D01*
X151952380Y-83428571D01*
X152000000Y-83333333D01*
X152095238Y-83285714D01*
X152285714Y-83285714D01*
X152380952Y-83333333D01*
X152428571Y-83428571D01*
X152428571Y-83523809D01*
X151952380Y-83619047D01*
X152857142Y-83952380D02*
X152857142Y-83285714D01*
X152857142Y-83476190D02*
X152904761Y-83380952D01*
X152952380Y-83333333D01*
X153047619Y-83285714D01*
X153142857Y-83285714D01*
X153428571Y-83904761D02*
X153523809Y-83952380D01*
X153714285Y-83952380D01*
X153809523Y-83904761D01*
X153857142Y-83809523D01*
X153857142Y-83761904D01*
X153809523Y-83666666D01*
X153714285Y-83619047D01*
X153571428Y-83619047D01*
X153476190Y-83571428D01*
X153428571Y-83476190D01*
X153428571Y-83428571D01*
X153476190Y-83333333D01*
X153571428Y-83285714D01*
X153714285Y-83285714D01*
X153809523Y-83333333D01*
X101148095Y-53622380D02*
X101148095Y-54431904D01*
X101195714Y-54527142D01*
X101243333Y-54574761D01*
X101338571Y-54622380D01*
X101529047Y-54622380D01*
X101624285Y-54574761D01*
X101671904Y-54527142D01*
X101719523Y-54431904D01*
X101719523Y-53622380D01*
X102148095Y-53717619D02*
X102195714Y-53670000D01*
X102290952Y-53622380D01*
X102529047Y-53622380D01*
X102624285Y-53670000D01*
X102671904Y-53717619D01*
X102719523Y-53812857D01*
X102719523Y-53908095D01*
X102671904Y-54050952D01*
X102100476Y-54622380D01*
X102719523Y-54622380D01*
X98780952Y-76552380D02*
X99447619Y-76552380D01*
X99019047Y-77552380D01*
X100257142Y-76885714D02*
X100257142Y-77552380D01*
X100019047Y-76504761D02*
X99780952Y-77219047D01*
X100400000Y-77219047D01*
X101257142Y-77552380D02*
X100780952Y-77552380D01*
X100780952Y-76552380D01*
X101542857Y-77504761D02*
X101685714Y-77552380D01*
X101923809Y-77552380D01*
X102019047Y-77504761D01*
X102066666Y-77457142D01*
X102114285Y-77361904D01*
X102114285Y-77266666D01*
X102066666Y-77171428D01*
X102019047Y-77123809D01*
X101923809Y-77076190D01*
X101733333Y-77028571D01*
X101638095Y-76980952D01*
X101590476Y-76933333D01*
X101542857Y-76838095D01*
X101542857Y-76742857D01*
X101590476Y-76647619D01*
X101638095Y-76600000D01*
X101733333Y-76552380D01*
X101971428Y-76552380D01*
X102114285Y-76600000D01*
X103066666Y-77552380D02*
X102495238Y-77552380D01*
X102780952Y-77552380D02*
X102780952Y-76552380D01*
X102685714Y-76695238D01*
X102590476Y-76790476D01*
X102495238Y-76838095D01*
X103400000Y-76552380D02*
X104066666Y-76552380D01*
X103638095Y-77552380D01*
X104352380Y-76552380D02*
X104971428Y-76552380D01*
X104638095Y-76933333D01*
X104780952Y-76933333D01*
X104876190Y-76980952D01*
X104923809Y-77028571D01*
X104971428Y-77123809D01*
X104971428Y-77361904D01*
X104923809Y-77457142D01*
X104876190Y-77504761D01*
X104780952Y-77552380D01*
X104495238Y-77552380D01*
X104400000Y-77504761D01*
X104352380Y-77457142D01*
X96980952Y-78252380D02*
X97219047Y-79252380D01*
X97409523Y-78538095D01*
X97600000Y-79252380D01*
X97838095Y-78252380D01*
X98219047Y-79252380D02*
X98219047Y-78585714D01*
X98219047Y-78776190D02*
X98266666Y-78680952D01*
X98314285Y-78633333D01*
X98409523Y-78585714D01*
X98504761Y-78585714D01*
X98838095Y-79252380D02*
X98838095Y-78585714D01*
X98838095Y-78252380D02*
X98790476Y-78300000D01*
X98838095Y-78347619D01*
X98885714Y-78300000D01*
X98838095Y-78252380D01*
X98838095Y-78347619D01*
X99171428Y-78585714D02*
X99552380Y-78585714D01*
X99314285Y-78252380D02*
X99314285Y-79109523D01*
X99361904Y-79204761D01*
X99457142Y-79252380D01*
X99552380Y-79252380D01*
X100266666Y-79204761D02*
X100171428Y-79252380D01*
X99980952Y-79252380D01*
X99885714Y-79204761D01*
X99838095Y-79109523D01*
X99838095Y-78728571D01*
X99885714Y-78633333D01*
X99980952Y-78585714D01*
X100171428Y-78585714D01*
X100266666Y-78633333D01*
X100314285Y-78728571D01*
X100314285Y-78823809D01*
X99838095Y-78919047D01*
X102076190Y-79252380D02*
X101742857Y-78776190D01*
X101504761Y-79252380D02*
X101504761Y-78252380D01*
X101885714Y-78252380D01*
X101980952Y-78300000D01*
X102028571Y-78347619D01*
X102076190Y-78442857D01*
X102076190Y-78585714D01*
X102028571Y-78680952D01*
X101980952Y-78728571D01*
X101885714Y-78776190D01*
X101504761Y-78776190D01*
X102885714Y-79204761D02*
X102790476Y-79252380D01*
X102600000Y-79252380D01*
X102504761Y-79204761D01*
X102457142Y-79109523D01*
X102457142Y-78728571D01*
X102504761Y-78633333D01*
X102600000Y-78585714D01*
X102790476Y-78585714D01*
X102885714Y-78633333D01*
X102933333Y-78728571D01*
X102933333Y-78823809D01*
X102457142Y-78919047D01*
X103790476Y-78585714D02*
X103790476Y-79395238D01*
X103742857Y-79490476D01*
X103695238Y-79538095D01*
X103600000Y-79585714D01*
X103457142Y-79585714D01*
X103361904Y-79538095D01*
X103790476Y-79204761D02*
X103695238Y-79252380D01*
X103504761Y-79252380D01*
X103409523Y-79204761D01*
X103361904Y-79157142D01*
X103314285Y-79061904D01*
X103314285Y-78776190D01*
X103361904Y-78680952D01*
X103409523Y-78633333D01*
X103504761Y-78585714D01*
X103695238Y-78585714D01*
X103790476Y-78633333D01*
X104266666Y-79252380D02*
X104266666Y-78585714D01*
X104266666Y-78252380D02*
X104219047Y-78300000D01*
X104266666Y-78347619D01*
X104314285Y-78300000D01*
X104266666Y-78252380D01*
X104266666Y-78347619D01*
X104695238Y-79204761D02*
X104790476Y-79252380D01*
X104980952Y-79252380D01*
X105076190Y-79204761D01*
X105123809Y-79109523D01*
X105123809Y-79061904D01*
X105076190Y-78966666D01*
X104980952Y-78919047D01*
X104838095Y-78919047D01*
X104742857Y-78871428D01*
X104695238Y-78776190D01*
X104695238Y-78728571D01*
X104742857Y-78633333D01*
X104838095Y-78585714D01*
X104980952Y-78585714D01*
X105076190Y-78633333D01*
X105409523Y-78585714D02*
X105790476Y-78585714D01*
X105552380Y-78252380D02*
X105552380Y-79109523D01*
X105600000Y-79204761D01*
X105695238Y-79252380D01*
X105790476Y-79252380D01*
X106504761Y-79204761D02*
X106409523Y-79252380D01*
X106219047Y-79252380D01*
X106123809Y-79204761D01*
X106076190Y-79109523D01*
X106076190Y-78728571D01*
X106123809Y-78633333D01*
X106219047Y-78585714D01*
X106409523Y-78585714D01*
X106504761Y-78633333D01*
X106552380Y-78728571D01*
X106552380Y-78823809D01*
X106076190Y-78919047D01*
X106980952Y-79252380D02*
X106980952Y-78585714D01*
X106980952Y-78776190D02*
X107028571Y-78680952D01*
X107076190Y-78633333D01*
X107171428Y-78585714D01*
X107266666Y-78585714D01*
X114448095Y-53622380D02*
X114448095Y-54431904D01*
X114495714Y-54527142D01*
X114543333Y-54574761D01*
X114638571Y-54622380D01*
X114829047Y-54622380D01*
X114924285Y-54574761D01*
X114971904Y-54527142D01*
X115019523Y-54431904D01*
X115019523Y-53622380D01*
X116019523Y-54622380D02*
X115448095Y-54622380D01*
X115733809Y-54622380D02*
X115733809Y-53622380D01*
X115638571Y-53765238D01*
X115543333Y-53860476D01*
X115448095Y-53908095D01*
X112090952Y-76552380D02*
X112757619Y-76552380D01*
X112329047Y-77552380D01*
X113567142Y-76885714D02*
X113567142Y-77552380D01*
X113329047Y-76504761D02*
X113090952Y-77219047D01*
X113710000Y-77219047D01*
X114567142Y-77552380D02*
X114090952Y-77552380D01*
X114090952Y-76552380D01*
X114852857Y-77504761D02*
X114995714Y-77552380D01*
X115233809Y-77552380D01*
X115329047Y-77504761D01*
X115376666Y-77457142D01*
X115424285Y-77361904D01*
X115424285Y-77266666D01*
X115376666Y-77171428D01*
X115329047Y-77123809D01*
X115233809Y-77076190D01*
X115043333Y-77028571D01*
X114948095Y-76980952D01*
X114900476Y-76933333D01*
X114852857Y-76838095D01*
X114852857Y-76742857D01*
X114900476Y-76647619D01*
X114948095Y-76600000D01*
X115043333Y-76552380D01*
X115281428Y-76552380D01*
X115424285Y-76600000D01*
X116376666Y-77552380D02*
X115805238Y-77552380D01*
X116090952Y-77552380D02*
X116090952Y-76552380D01*
X115995714Y-76695238D01*
X115900476Y-76790476D01*
X115805238Y-76838095D01*
X116710000Y-76552380D02*
X117376666Y-76552380D01*
X116948095Y-77552380D01*
X117662380Y-76552380D02*
X118281428Y-76552380D01*
X117948095Y-76933333D01*
X118090952Y-76933333D01*
X118186190Y-76980952D01*
X118233809Y-77028571D01*
X118281428Y-77123809D01*
X118281428Y-77361904D01*
X118233809Y-77457142D01*
X118186190Y-77504761D01*
X118090952Y-77552380D01*
X117805238Y-77552380D01*
X117710000Y-77504761D01*
X117662380Y-77457142D01*
X110947619Y-79252380D02*
X110614285Y-78776190D01*
X110376190Y-79252380D02*
X110376190Y-78252380D01*
X110757142Y-78252380D01*
X110852380Y-78300000D01*
X110900000Y-78347619D01*
X110947619Y-78442857D01*
X110947619Y-78585714D01*
X110900000Y-78680952D01*
X110852380Y-78728571D01*
X110757142Y-78776190D01*
X110376190Y-78776190D01*
X111757142Y-79204761D02*
X111661904Y-79252380D01*
X111471428Y-79252380D01*
X111376190Y-79204761D01*
X111328571Y-79109523D01*
X111328571Y-78728571D01*
X111376190Y-78633333D01*
X111471428Y-78585714D01*
X111661904Y-78585714D01*
X111757142Y-78633333D01*
X111804761Y-78728571D01*
X111804761Y-78823809D01*
X111328571Y-78919047D01*
X112661904Y-79252380D02*
X112661904Y-78728571D01*
X112614285Y-78633333D01*
X112519047Y-78585714D01*
X112328571Y-78585714D01*
X112233333Y-78633333D01*
X112661904Y-79204761D02*
X112566666Y-79252380D01*
X112328571Y-79252380D01*
X112233333Y-79204761D01*
X112185714Y-79109523D01*
X112185714Y-79014285D01*
X112233333Y-78919047D01*
X112328571Y-78871428D01*
X112566666Y-78871428D01*
X112661904Y-78823809D01*
X113566666Y-79252380D02*
X113566666Y-78252380D01*
X113566666Y-79204761D02*
X113471428Y-79252380D01*
X113280952Y-79252380D01*
X113185714Y-79204761D01*
X113138095Y-79157142D01*
X113090476Y-79061904D01*
X113090476Y-78776190D01*
X113138095Y-78680952D01*
X113185714Y-78633333D01*
X113280952Y-78585714D01*
X113471428Y-78585714D01*
X113566666Y-78633333D01*
X115376190Y-79252380D02*
X115042857Y-78776190D01*
X114804761Y-79252380D02*
X114804761Y-78252380D01*
X115185714Y-78252380D01*
X115280952Y-78300000D01*
X115328571Y-78347619D01*
X115376190Y-78442857D01*
X115376190Y-78585714D01*
X115328571Y-78680952D01*
X115280952Y-78728571D01*
X115185714Y-78776190D01*
X114804761Y-78776190D01*
X116185714Y-79204761D02*
X116090476Y-79252380D01*
X115900000Y-79252380D01*
X115804761Y-79204761D01*
X115757142Y-79109523D01*
X115757142Y-78728571D01*
X115804761Y-78633333D01*
X115900000Y-78585714D01*
X116090476Y-78585714D01*
X116185714Y-78633333D01*
X116233333Y-78728571D01*
X116233333Y-78823809D01*
X115757142Y-78919047D01*
X117090476Y-78585714D02*
X117090476Y-79395238D01*
X117042857Y-79490476D01*
X116995238Y-79538095D01*
X116900000Y-79585714D01*
X116757142Y-79585714D01*
X116661904Y-79538095D01*
X117090476Y-79204761D02*
X116995238Y-79252380D01*
X116804761Y-79252380D01*
X116709523Y-79204761D01*
X116661904Y-79157142D01*
X116614285Y-79061904D01*
X116614285Y-78776190D01*
X116661904Y-78680952D01*
X116709523Y-78633333D01*
X116804761Y-78585714D01*
X116995238Y-78585714D01*
X117090476Y-78633333D01*
X117566666Y-79252380D02*
X117566666Y-78585714D01*
X117566666Y-78252380D02*
X117519047Y-78300000D01*
X117566666Y-78347619D01*
X117614285Y-78300000D01*
X117566666Y-78252380D01*
X117566666Y-78347619D01*
X117995238Y-79204761D02*
X118090476Y-79252380D01*
X118280952Y-79252380D01*
X118376190Y-79204761D01*
X118423809Y-79109523D01*
X118423809Y-79061904D01*
X118376190Y-78966666D01*
X118280952Y-78919047D01*
X118138095Y-78919047D01*
X118042857Y-78871428D01*
X117995238Y-78776190D01*
X117995238Y-78728571D01*
X118042857Y-78633333D01*
X118138095Y-78585714D01*
X118280952Y-78585714D01*
X118376190Y-78633333D01*
X118709523Y-78585714D02*
X119090476Y-78585714D01*
X118852380Y-78252380D02*
X118852380Y-79109523D01*
X118900000Y-79204761D01*
X118995238Y-79252380D01*
X119090476Y-79252380D01*
X119804761Y-79204761D02*
X119709523Y-79252380D01*
X119519047Y-79252380D01*
X119423809Y-79204761D01*
X119376190Y-79109523D01*
X119376190Y-78728571D01*
X119423809Y-78633333D01*
X119519047Y-78585714D01*
X119709523Y-78585714D01*
X119804761Y-78633333D01*
X119852380Y-78728571D01*
X119852380Y-78823809D01*
X119376190Y-78919047D01*
X120280952Y-79252380D02*
X120280952Y-78585714D01*
X120280952Y-78776190D02*
X120328571Y-78680952D01*
X120376190Y-78633333D01*
X120471428Y-78585714D01*
X120566666Y-78585714D01*
X174733333Y-110652380D02*
X174400000Y-110176190D01*
X174161904Y-110652380D02*
X174161904Y-109652380D01*
X174542857Y-109652380D01*
X174638095Y-109700000D01*
X174685714Y-109747619D01*
X174733333Y-109842857D01*
X174733333Y-109985714D01*
X174685714Y-110080952D01*
X174638095Y-110128571D01*
X174542857Y-110176190D01*
X174161904Y-110176190D01*
X175685714Y-110652380D02*
X175114285Y-110652380D01*
X175400000Y-110652380D02*
X175400000Y-109652380D01*
X175304761Y-109795238D01*
X175209523Y-109890476D01*
X175114285Y-109938095D01*
X167161904Y-110602380D02*
X167161904Y-109602380D01*
X167400000Y-109602380D01*
X167542857Y-109650000D01*
X167638095Y-109745238D01*
X167685714Y-109840476D01*
X167733333Y-110030952D01*
X167733333Y-110173809D01*
X167685714Y-110364285D01*
X167638095Y-110459523D01*
X167542857Y-110554761D01*
X167400000Y-110602380D01*
X167161904Y-110602380D01*
X168114285Y-109697619D02*
X168161904Y-109650000D01*
X168257142Y-109602380D01*
X168495238Y-109602380D01*
X168590476Y-109650000D01*
X168638095Y-109697619D01*
X168685714Y-109792857D01*
X168685714Y-109888095D01*
X168638095Y-110030952D01*
X168066666Y-110602380D01*
X168685714Y-110602380D01*
D13*
X166307142Y-115778571D02*
X165592857Y-115778571D01*
X165592857Y-114278571D01*
X166807142Y-115778571D02*
X166807142Y-114278571D01*
X167164285Y-114278571D01*
X167378571Y-114350000D01*
X167521428Y-114492857D01*
X167592857Y-114635714D01*
X167664285Y-114921428D01*
X167664285Y-115135714D01*
X167592857Y-115421428D01*
X167521428Y-115564285D01*
X167378571Y-115707142D01*
X167164285Y-115778571D01*
X166807142Y-115778571D01*
X169164285Y-115778571D02*
X168664285Y-115064285D01*
X168307142Y-115778571D02*
X168307142Y-114278571D01*
X168878571Y-114278571D01*
X169021428Y-114350000D01*
X169092857Y-114421428D01*
X169164285Y-114564285D01*
X169164285Y-114778571D01*
X169092857Y-114921428D01*
X169021428Y-114992857D01*
X168878571Y-115064285D01*
X168307142Y-115064285D01*
X170878571Y-115350000D02*
X171592857Y-115350000D01*
X170735714Y-115778571D02*
X171235714Y-114278571D01*
X171735714Y-115778571D01*
X172878571Y-115707142D02*
X172735714Y-115778571D01*
X172450000Y-115778571D01*
X172307142Y-115707142D01*
X172235714Y-115635714D01*
X172164285Y-115492857D01*
X172164285Y-115064285D01*
X172235714Y-114921428D01*
X172307142Y-114850000D01*
X172450000Y-114778571D01*
X172735714Y-114778571D01*
X172878571Y-114850000D01*
X173307142Y-114778571D02*
X173878571Y-114778571D01*
X173521428Y-114278571D02*
X173521428Y-115564285D01*
X173592857Y-115707142D01*
X173735714Y-115778571D01*
X173878571Y-115778571D01*
X174378571Y-115778571D02*
X174378571Y-114778571D01*
X174378571Y-114278571D02*
X174307142Y-114350000D01*
X174378571Y-114421428D01*
X174450000Y-114350000D01*
X174378571Y-114278571D01*
X174378571Y-114421428D01*
X174950000Y-114778571D02*
X175307142Y-115778571D01*
X175664285Y-114778571D01*
X176807142Y-115707142D02*
X176664285Y-115778571D01*
X176378571Y-115778571D01*
X176235714Y-115707142D01*
X176164285Y-115564285D01*
X176164285Y-114992857D01*
X176235714Y-114850000D01*
X176378571Y-114778571D01*
X176664285Y-114778571D01*
X176807142Y-114850000D01*
X176878571Y-114992857D01*
X176878571Y-115135714D01*
X176164285Y-115278571D01*
D10*
X121833333Y-55937142D02*
X121785714Y-55984761D01*
X121642857Y-56032380D01*
X121547619Y-56032380D01*
X121404761Y-55984761D01*
X121309523Y-55889523D01*
X121261904Y-55794285D01*
X121214285Y-55603809D01*
X121214285Y-55460952D01*
X121261904Y-55270476D01*
X121309523Y-55175238D01*
X121404761Y-55080000D01*
X121547619Y-55032380D01*
X121642857Y-55032380D01*
X121785714Y-55080000D01*
X121833333Y-55127619D01*
X122214285Y-55127619D02*
X122261904Y-55080000D01*
X122357142Y-55032380D01*
X122595238Y-55032380D01*
X122690476Y-55080000D01*
X122738095Y-55127619D01*
X122785714Y-55222857D01*
X122785714Y-55318095D01*
X122738095Y-55460952D01*
X122166666Y-56032380D01*
X122785714Y-56032380D01*
X108533333Y-55837142D02*
X108485714Y-55884761D01*
X108342857Y-55932380D01*
X108247619Y-55932380D01*
X108104761Y-55884761D01*
X108009523Y-55789523D01*
X107961904Y-55694285D01*
X107914285Y-55503809D01*
X107914285Y-55360952D01*
X107961904Y-55170476D01*
X108009523Y-55075238D01*
X108104761Y-54980000D01*
X108247619Y-54932380D01*
X108342857Y-54932380D01*
X108485714Y-54980000D01*
X108533333Y-55027619D01*
X109485714Y-55932380D02*
X108914285Y-55932380D01*
X109200000Y-55932380D02*
X109200000Y-54932380D01*
X109104761Y-55075238D01*
X109009523Y-55170476D01*
X108914285Y-55218095D01*
X147146666Y-98034285D02*
X147146666Y-97558095D01*
X147432380Y-98129523D02*
X146432380Y-97796190D01*
X147432380Y-97462857D01*
X147432380Y-96605714D02*
X147432380Y-97177142D01*
X147432380Y-96891428D02*
X146432380Y-96891428D01*
X146575238Y-96986666D01*
X146670476Y-97081904D01*
X146718095Y-97177142D01*
X119242857Y-108066666D02*
X119719047Y-108066666D01*
X119147619Y-108352380D02*
X119480952Y-107352380D01*
X119814285Y-108352380D01*
X120147619Y-108352380D02*
X120147619Y-107685714D01*
X120147619Y-107876190D02*
X120195238Y-107780952D01*
X120242857Y-107733333D01*
X120338095Y-107685714D01*
X120433333Y-107685714D01*
X121195238Y-108352380D02*
X121195238Y-107352380D01*
X121195238Y-108304761D02*
X121100000Y-108352380D01*
X120909523Y-108352380D01*
X120814285Y-108304761D01*
X120766666Y-108257142D01*
X120719047Y-108161904D01*
X120719047Y-107876190D01*
X120766666Y-107780952D01*
X120814285Y-107733333D01*
X120909523Y-107685714D01*
X121100000Y-107685714D01*
X121195238Y-107733333D01*
X122100000Y-107685714D02*
X122100000Y-108352380D01*
X121671428Y-107685714D02*
X121671428Y-108209523D01*
X121719047Y-108304761D01*
X121814285Y-108352380D01*
X121957142Y-108352380D01*
X122052380Y-108304761D01*
X122100000Y-108257142D01*
X122576190Y-108352380D02*
X122576190Y-107685714D01*
X122576190Y-107352380D02*
X122528571Y-107400000D01*
X122576190Y-107447619D01*
X122623809Y-107400000D01*
X122576190Y-107352380D01*
X122576190Y-107447619D01*
X123052380Y-107685714D02*
X123052380Y-108352380D01*
X123052380Y-107780952D02*
X123100000Y-107733333D01*
X123195238Y-107685714D01*
X123338095Y-107685714D01*
X123433333Y-107733333D01*
X123480952Y-107828571D01*
X123480952Y-108352380D01*
X124100000Y-108352380D02*
X124004761Y-108304761D01*
X123957142Y-108257142D01*
X123909523Y-108161904D01*
X123909523Y-107876190D01*
X123957142Y-107780952D01*
X124004761Y-107733333D01*
X124100000Y-107685714D01*
X124242857Y-107685714D01*
X124338095Y-107733333D01*
X124385714Y-107780952D01*
X124433333Y-107876190D01*
X124433333Y-108161904D01*
X124385714Y-108257142D01*
X124338095Y-108304761D01*
X124242857Y-108352380D01*
X124100000Y-108352380D01*
X125623809Y-108352380D02*
X125623809Y-107352380D01*
X126195238Y-108352380D01*
X126195238Y-107352380D01*
X127100000Y-108352380D02*
X127100000Y-107828571D01*
X127052380Y-107733333D01*
X126957142Y-107685714D01*
X126766666Y-107685714D01*
X126671428Y-107733333D01*
X127100000Y-108304761D02*
X127004761Y-108352380D01*
X126766666Y-108352380D01*
X126671428Y-108304761D01*
X126623809Y-108209523D01*
X126623809Y-108114285D01*
X126671428Y-108019047D01*
X126766666Y-107971428D01*
X127004761Y-107971428D01*
X127100000Y-107923809D01*
X127576190Y-107685714D02*
X127576190Y-108352380D01*
X127576190Y-107780952D02*
X127623809Y-107733333D01*
X127719047Y-107685714D01*
X127861904Y-107685714D01*
X127957142Y-107733333D01*
X128004761Y-107828571D01*
X128004761Y-108352380D01*
X128623809Y-108352380D02*
X128528571Y-108304761D01*
X128480952Y-108257142D01*
X128433333Y-108161904D01*
X128433333Y-107876190D01*
X128480952Y-107780952D01*
X128528571Y-107733333D01*
X128623809Y-107685714D01*
X128766666Y-107685714D01*
X128861904Y-107733333D01*
X128909523Y-107780952D01*
X128957142Y-107876190D01*
X128957142Y-108161904D01*
X128909523Y-108257142D01*
X128861904Y-108304761D01*
X128766666Y-108352380D01*
X128623809Y-108352380D01*
%LPC*%
D14*
X182900000Y-75380000D03*
X182900000Y-72840000D03*
X182900000Y-70300000D03*
X182900000Y-67760000D03*
X182900000Y-65220000D03*
X182900000Y-62680000D03*
X182900000Y-60140000D03*
D15*
X182900000Y-57600000D03*
G36*
G01*
X161150000Y-53425000D02*
X161150000Y-54375000D01*
G75*
G02*
X160900000Y-54625000I-250000J0D01*
G01*
X160225000Y-54625000D01*
G75*
G02*
X159975000Y-54375000I0J250000D01*
G01*
X159975000Y-53425000D01*
G75*
G02*
X160225000Y-53175000I250000J0D01*
G01*
X160900000Y-53175000D01*
G75*
G02*
X161150000Y-53425000I0J-250000D01*
G01*
G37*
G36*
G01*
X163225000Y-53425000D02*
X163225000Y-54375000D01*
G75*
G02*
X162975000Y-54625000I-250000J0D01*
G01*
X162300000Y-54625000D01*
G75*
G02*
X162050000Y-54375000I0J250000D01*
G01*
X162050000Y-53425000D01*
G75*
G02*
X162300000Y-53175000I250000J0D01*
G01*
X162975000Y-53175000D01*
G75*
G02*
X163225000Y-53425000I0J-250000D01*
G01*
G37*
G36*
G01*
X146450000Y-53425000D02*
X146450000Y-54375000D01*
G75*
G02*
X146200000Y-54625000I-250000J0D01*
G01*
X145525000Y-54625000D01*
G75*
G02*
X145275000Y-54375000I0J250000D01*
G01*
X145275000Y-53425000D01*
G75*
G02*
X145525000Y-53175000I250000J0D01*
G01*
X146200000Y-53175000D01*
G75*
G02*
X146450000Y-53425000I0J-250000D01*
G01*
G37*
G36*
G01*
X148525000Y-53425000D02*
X148525000Y-54375000D01*
G75*
G02*
X148275000Y-54625000I-250000J0D01*
G01*
X147600000Y-54625000D01*
G75*
G02*
X147350000Y-54375000I0J250000D01*
G01*
X147350000Y-53425000D01*
G75*
G02*
X147600000Y-53175000I250000J0D01*
G01*
X148275000Y-53175000D01*
G75*
G02*
X148525000Y-53425000I0J-250000D01*
G01*
G37*
G36*
G01*
X114000000Y-116349999D02*
X114000000Y-117250001D01*
G75*
G02*
X113750001Y-117500000I-249999J0D01*
G01*
X113049999Y-117500000D01*
G75*
G02*
X112800000Y-117250001I0J249999D01*
G01*
X112800000Y-116349999D01*
G75*
G02*
X113049999Y-116100000I249999J0D01*
G01*
X113750001Y-116100000D01*
G75*
G02*
X114000000Y-116349999I0J-249999D01*
G01*
G37*
G36*
G01*
X116000000Y-116349999D02*
X116000000Y-117250001D01*
G75*
G02*
X115750001Y-117500000I-249999J0D01*
G01*
X115049999Y-117500000D01*
G75*
G02*
X114800000Y-117250001I0J249999D01*
G01*
X114800000Y-116349999D01*
G75*
G02*
X115049999Y-116100000I249999J0D01*
G01*
X115750001Y-116100000D01*
G75*
G02*
X116000000Y-116349999I0J-249999D01*
G01*
G37*
D16*
X101400000Y-121300000D03*
X101400000Y-116800000D03*
X107900000Y-121300000D03*
X107900000Y-116800000D03*
G36*
G01*
X179950000Y-88425000D02*
X179950000Y-89375000D01*
G75*
G02*
X179700000Y-89625000I-250000J0D01*
G01*
X179025000Y-89625000D01*
G75*
G02*
X178775000Y-89375000I0J250000D01*
G01*
X178775000Y-88425000D01*
G75*
G02*
X179025000Y-88175000I250000J0D01*
G01*
X179700000Y-88175000D01*
G75*
G02*
X179950000Y-88425000I0J-250000D01*
G01*
G37*
G36*
G01*
X182025000Y-88425000D02*
X182025000Y-89375000D01*
G75*
G02*
X181775000Y-89625000I-250000J0D01*
G01*
X181100000Y-89625000D01*
G75*
G02*
X180850000Y-89375000I0J250000D01*
G01*
X180850000Y-88425000D01*
G75*
G02*
X181100000Y-88175000I250000J0D01*
G01*
X181775000Y-88175000D01*
G75*
G02*
X182025000Y-88425000I0J-250000D01*
G01*
G37*
D17*
X175820000Y-88900000D03*
X168200000Y-104140000D03*
X175820000Y-91440000D03*
X168200000Y-101600000D03*
X175820000Y-93980000D03*
X168200000Y-99060000D03*
X175820000Y-96520000D03*
X168200000Y-96520000D03*
X175820000Y-99060000D03*
X168200000Y-93980000D03*
X175820000Y-101600000D03*
X168200000Y-91440000D03*
X175820000Y-104140000D03*
D18*
X168200000Y-88900000D03*
D17*
X141920000Y-110700000D03*
D18*
X134300000Y-110700000D03*
D17*
X158620000Y-56500000D03*
X151000000Y-79360000D03*
X158620000Y-59040000D03*
X151000000Y-76820000D03*
X158620000Y-61580000D03*
X151000000Y-74280000D03*
X158620000Y-64120000D03*
X151000000Y-71740000D03*
X158620000Y-66660000D03*
X151000000Y-69200000D03*
X158620000Y-69200000D03*
X151000000Y-66660000D03*
X158620000Y-71740000D03*
X151000000Y-64120000D03*
X158620000Y-74280000D03*
X151000000Y-61580000D03*
X158620000Y-76820000D03*
X151000000Y-59040000D03*
X158620000Y-79360000D03*
D18*
X151000000Y-56500000D03*
D17*
X143920000Y-56500000D03*
X136300000Y-79360000D03*
X143920000Y-59040000D03*
X136300000Y-76820000D03*
X143920000Y-61580000D03*
X136300000Y-74280000D03*
X143920000Y-64120000D03*
X136300000Y-71740000D03*
X143920000Y-66660000D03*
X136300000Y-69200000D03*
X143920000Y-69200000D03*
X136300000Y-66660000D03*
X143920000Y-71740000D03*
X136300000Y-64120000D03*
X143920000Y-74280000D03*
X136300000Y-61580000D03*
X143920000Y-76820000D03*
X136300000Y-59040000D03*
X143920000Y-79360000D03*
D18*
X136300000Y-56500000D03*
D17*
X105720000Y-56500000D03*
X98100000Y-74280000D03*
X105720000Y-59040000D03*
X98100000Y-71740000D03*
X105720000Y-61580000D03*
X98100000Y-69200000D03*
X105720000Y-64120000D03*
X98100000Y-66660000D03*
X105720000Y-66660000D03*
X98100000Y-64120000D03*
X105720000Y-69200000D03*
X98100000Y-61580000D03*
X105720000Y-71740000D03*
X98100000Y-59040000D03*
X105720000Y-74280000D03*
D18*
X98100000Y-56500000D03*
D17*
X119020000Y-56500000D03*
X111400000Y-74280000D03*
X119020000Y-59040000D03*
X111400000Y-71740000D03*
X119020000Y-61580000D03*
X111400000Y-69200000D03*
X119020000Y-64120000D03*
X111400000Y-66660000D03*
X119020000Y-66660000D03*
X111400000Y-64120000D03*
X119020000Y-69200000D03*
X111400000Y-61580000D03*
X119020000Y-71740000D03*
X111400000Y-59040000D03*
X119020000Y-74280000D03*
D18*
X111400000Y-56500000D03*
G36*
G01*
X174400000Y-111349999D02*
X174400000Y-112250001D01*
G75*
G02*
X174150001Y-112500000I-249999J0D01*
G01*
X173449999Y-112500000D01*
G75*
G02*
X173200000Y-112250001I0J249999D01*
G01*
X173200000Y-111349999D01*
G75*
G02*
X173449999Y-111100000I249999J0D01*
G01*
X174150001Y-111100000D01*
G75*
G02*
X174400000Y-111349999I0J-249999D01*
G01*
G37*
G36*
G01*
X176400000Y-111349999D02*
X176400000Y-112250001D01*
G75*
G02*
X176150001Y-112500000I-249999J0D01*
G01*
X175449999Y-112500000D01*
G75*
G02*
X175200000Y-112250001I0J249999D01*
G01*
X175200000Y-111349999D01*
G75*
G02*
X175449999Y-111100000I249999J0D01*
G01*
X176150001Y-111100000D01*
G75*
G02*
X176400000Y-111349999I0J-249999D01*
G01*
G37*
G36*
G01*
X168350000Y-112250001D02*
X168350000Y-111349999D01*
G75*
G02*
X168599999Y-111100000I249999J0D01*
G01*
X169250001Y-111100000D01*
G75*
G02*
X169500000Y-111349999I0J-249999D01*
G01*
X169500000Y-112250001D01*
G75*
G02*
X169250001Y-112500000I-249999J0D01*
G01*
X168599999Y-112500000D01*
G75*
G02*
X168350000Y-112250001I0J249999D01*
G01*
G37*
G36*
G01*
X166300000Y-112250001D02*
X166300000Y-111349999D01*
G75*
G02*
X166549999Y-111100000I249999J0D01*
G01*
X167200001Y-111100000D01*
G75*
G02*
X167450000Y-111349999I0J-249999D01*
G01*
X167450000Y-112250001D01*
G75*
G02*
X167200001Y-112500000I-249999J0D01*
G01*
X166549999Y-112500000D01*
G75*
G02*
X166300000Y-112250001I0J249999D01*
G01*
G37*
G36*
G01*
X121550000Y-53425000D02*
X121550000Y-54375000D01*
G75*
G02*
X121300000Y-54625000I-250000J0D01*
G01*
X120625000Y-54625000D01*
G75*
G02*
X120375000Y-54375000I0J250000D01*
G01*
X120375000Y-53425000D01*
G75*
G02*
X120625000Y-53175000I250000J0D01*
G01*
X121300000Y-53175000D01*
G75*
G02*
X121550000Y-53425000I0J-250000D01*
G01*
G37*
G36*
G01*
X123625000Y-53425000D02*
X123625000Y-54375000D01*
G75*
G02*
X123375000Y-54625000I-250000J0D01*
G01*
X122700000Y-54625000D01*
G75*
G02*
X122450000Y-54375000I0J250000D01*
G01*
X122450000Y-53425000D01*
G75*
G02*
X122700000Y-53175000I250000J0D01*
G01*
X123375000Y-53175000D01*
G75*
G02*
X123625000Y-53425000I0J-250000D01*
G01*
G37*
G36*
G01*
X108250000Y-53325000D02*
X108250000Y-54275000D01*
G75*
G02*
X108000000Y-54525000I-250000J0D01*
G01*
X107325000Y-54525000D01*
G75*
G02*
X107075000Y-54275000I0J250000D01*
G01*
X107075000Y-53325000D01*
G75*
G02*
X107325000Y-53075000I250000J0D01*
G01*
X108000000Y-53075000D01*
G75*
G02*
X108250000Y-53325000I0J-250000D01*
G01*
G37*
G36*
G01*
X110325000Y-53325000D02*
X110325000Y-54275000D01*
G75*
G02*
X110075000Y-54525000I-250000J0D01*
G01*
X109400000Y-54525000D01*
G75*
G02*
X109150000Y-54275000I0J250000D01*
G01*
X109150000Y-53325000D01*
G75*
G02*
X109400000Y-53075000I250000J0D01*
G01*
X110075000Y-53075000D01*
G75*
G02*
X110325000Y-53325000I0J-250000D01*
G01*
G37*
D17*
X106340000Y-104940000D03*
X106340000Y-89700000D03*
X141900000Y-104940000D03*
X108880000Y-89700000D03*
X139360000Y-104940000D03*
X111420000Y-89700000D03*
X136820000Y-104940000D03*
X113960000Y-89700000D03*
X134280000Y-104940000D03*
X116500000Y-89700000D03*
X131740000Y-104940000D03*
X119040000Y-89700000D03*
X129200000Y-104940000D03*
X121580000Y-89700000D03*
X126660000Y-104940000D03*
X124120000Y-89700000D03*
X124120000Y-104940000D03*
X126660000Y-89700000D03*
X121580000Y-104940000D03*
X129200000Y-89700000D03*
X119040000Y-104940000D03*
X131740000Y-89700000D03*
X116500000Y-104940000D03*
X134280000Y-89700000D03*
X113960000Y-104940000D03*
X136820000Y-89700000D03*
X111420000Y-104940000D03*
X139360000Y-89700000D03*
X108880000Y-104940000D03*
D18*
X141900000Y-89700000D03*
D14*
X185460000Y-136000000D03*
X182920000Y-136000000D03*
X180380000Y-136000000D03*
X177840000Y-136000000D03*
X175300000Y-136000000D03*
X172760000Y-136000000D03*
X170220000Y-136000000D03*
X167680000Y-136000000D03*
X165140000Y-136000000D03*
X162600000Y-136000000D03*
X160060000Y-136000000D03*
X157520000Y-136000000D03*
X154980000Y-136000000D03*
X152440000Y-136000000D03*
X149900000Y-136000000D03*
X147360000Y-136000000D03*
X144820000Y-136000000D03*
X142280000Y-136000000D03*
X139740000Y-136000000D03*
X137200000Y-136000000D03*
X134660000Y-136000000D03*
X132120000Y-136000000D03*
X129580000Y-136000000D03*
X127040000Y-136000000D03*
X124500000Y-136000000D03*
X121960000Y-136000000D03*
X119420000Y-136000000D03*
X116880000Y-136000000D03*
X114340000Y-136000000D03*
X111800000Y-136000000D03*
X109260000Y-136000000D03*
X106720000Y-136000000D03*
X104180000Y-136000000D03*
X101640000Y-136000000D03*
X99100000Y-136000000D03*
X96560000Y-136000000D03*
X94020000Y-136000000D03*
X91480000Y-136000000D03*
X88940000Y-136000000D03*
D15*
X86400000Y-136000000D03*
D14*
X185460000Y-46000000D03*
X182920000Y-46000000D03*
X180380000Y-46000000D03*
X177840000Y-46000000D03*
X175300000Y-46000000D03*
X172760000Y-46000000D03*
X170220000Y-46000000D03*
X167680000Y-46000000D03*
X165140000Y-46000000D03*
X162600000Y-46000000D03*
X160060000Y-46000000D03*
X157520000Y-46000000D03*
X154980000Y-46000000D03*
X152440000Y-46000000D03*
X149900000Y-46000000D03*
X147360000Y-46000000D03*
X144820000Y-46000000D03*
X142280000Y-46000000D03*
X139740000Y-46000000D03*
X137200000Y-46000000D03*
X134660000Y-46000000D03*
X132120000Y-46000000D03*
X129580000Y-46000000D03*
X127040000Y-46000000D03*
X124500000Y-46000000D03*
X121960000Y-46000000D03*
X119420000Y-46000000D03*
X116880000Y-46000000D03*
X114340000Y-46000000D03*
X111800000Y-46000000D03*
X109260000Y-46000000D03*
X106720000Y-46000000D03*
X104180000Y-46000000D03*
X101640000Y-46000000D03*
X99100000Y-46000000D03*
X96560000Y-46000000D03*
X94020000Y-46000000D03*
X91480000Y-46000000D03*
X88940000Y-46000000D03*
D15*
X86400000Y-46000000D03*
M02*
