G04 #@! TF.GenerationSoftware,KiCad,Pcbnew,(5.1.9)-1*
G04 #@! TF.CreationDate,2021-10-03T23:58:30-04:00*
G04 #@! TF.ProjectId,loader,6c6f6164-6572-42e6-9b69-6361645f7063,1.0*
G04 #@! TF.SameCoordinates,Original*
G04 #@! TF.FileFunction,Paste,Top*
G04 #@! TF.FilePolarity,Positive*
%FSLAX46Y46*%
G04 Gerber Fmt 4.6, Leading zero omitted, Abs format (unit mm)*
G04 Created by KiCad (PCBNEW (5.1.9)-1) date 2021-10-03 23:58:30*
%MOMM*%
%LPD*%
G01*
G04 APERTURE LIST*
G04 APERTURE END LIST*
G36*
G01*
X161150000Y-53425000D02*
X161150000Y-54375000D01*
G75*
G02*
X160900000Y-54625000I-250000J0D01*
G01*
X160225000Y-54625000D01*
G75*
G02*
X159975000Y-54375000I0J250000D01*
G01*
X159975000Y-53425000D01*
G75*
G02*
X160225000Y-53175000I250000J0D01*
G01*
X160900000Y-53175000D01*
G75*
G02*
X161150000Y-53425000I0J-250000D01*
G01*
G37*
G36*
G01*
X163225000Y-53425000D02*
X163225000Y-54375000D01*
G75*
G02*
X162975000Y-54625000I-250000J0D01*
G01*
X162300000Y-54625000D01*
G75*
G02*
X162050000Y-54375000I0J250000D01*
G01*
X162050000Y-53425000D01*
G75*
G02*
X162300000Y-53175000I250000J0D01*
G01*
X162975000Y-53175000D01*
G75*
G02*
X163225000Y-53425000I0J-250000D01*
G01*
G37*
G36*
G01*
X146450000Y-53425000D02*
X146450000Y-54375000D01*
G75*
G02*
X146200000Y-54625000I-250000J0D01*
G01*
X145525000Y-54625000D01*
G75*
G02*
X145275000Y-54375000I0J250000D01*
G01*
X145275000Y-53425000D01*
G75*
G02*
X145525000Y-53175000I250000J0D01*
G01*
X146200000Y-53175000D01*
G75*
G02*
X146450000Y-53425000I0J-250000D01*
G01*
G37*
G36*
G01*
X148525000Y-53425000D02*
X148525000Y-54375000D01*
G75*
G02*
X148275000Y-54625000I-250000J0D01*
G01*
X147600000Y-54625000D01*
G75*
G02*
X147350000Y-54375000I0J250000D01*
G01*
X147350000Y-53425000D01*
G75*
G02*
X147600000Y-53175000I250000J0D01*
G01*
X148275000Y-53175000D01*
G75*
G02*
X148525000Y-53425000I0J-250000D01*
G01*
G37*
G36*
G01*
X114000000Y-116349999D02*
X114000000Y-117250001D01*
G75*
G02*
X113750001Y-117500000I-249999J0D01*
G01*
X113049999Y-117500000D01*
G75*
G02*
X112800000Y-117250001I0J249999D01*
G01*
X112800000Y-116349999D01*
G75*
G02*
X113049999Y-116100000I249999J0D01*
G01*
X113750001Y-116100000D01*
G75*
G02*
X114000000Y-116349999I0J-249999D01*
G01*
G37*
G36*
G01*
X116000000Y-116349999D02*
X116000000Y-117250001D01*
G75*
G02*
X115750001Y-117500000I-249999J0D01*
G01*
X115049999Y-117500000D01*
G75*
G02*
X114800000Y-117250001I0J249999D01*
G01*
X114800000Y-116349999D01*
G75*
G02*
X115049999Y-116100000I249999J0D01*
G01*
X115750001Y-116100000D01*
G75*
G02*
X116000000Y-116349999I0J-249999D01*
G01*
G37*
G36*
G01*
X179950000Y-88425000D02*
X179950000Y-89375000D01*
G75*
G02*
X179700000Y-89625000I-250000J0D01*
G01*
X179025000Y-89625000D01*
G75*
G02*
X178775000Y-89375000I0J250000D01*
G01*
X178775000Y-88425000D01*
G75*
G02*
X179025000Y-88175000I250000J0D01*
G01*
X179700000Y-88175000D01*
G75*
G02*
X179950000Y-88425000I0J-250000D01*
G01*
G37*
G36*
G01*
X182025000Y-88425000D02*
X182025000Y-89375000D01*
G75*
G02*
X181775000Y-89625000I-250000J0D01*
G01*
X181100000Y-89625000D01*
G75*
G02*
X180850000Y-89375000I0J250000D01*
G01*
X180850000Y-88425000D01*
G75*
G02*
X181100000Y-88175000I250000J0D01*
G01*
X181775000Y-88175000D01*
G75*
G02*
X182025000Y-88425000I0J-250000D01*
G01*
G37*
G36*
G01*
X174400000Y-111349999D02*
X174400000Y-112250001D01*
G75*
G02*
X174150001Y-112500000I-249999J0D01*
G01*
X173449999Y-112500000D01*
G75*
G02*
X173200000Y-112250001I0J249999D01*
G01*
X173200000Y-111349999D01*
G75*
G02*
X173449999Y-111100000I249999J0D01*
G01*
X174150001Y-111100000D01*
G75*
G02*
X174400000Y-111349999I0J-249999D01*
G01*
G37*
G36*
G01*
X176400000Y-111349999D02*
X176400000Y-112250001D01*
G75*
G02*
X176150001Y-112500000I-249999J0D01*
G01*
X175449999Y-112500000D01*
G75*
G02*
X175200000Y-112250001I0J249999D01*
G01*
X175200000Y-111349999D01*
G75*
G02*
X175449999Y-111100000I249999J0D01*
G01*
X176150001Y-111100000D01*
G75*
G02*
X176400000Y-111349999I0J-249999D01*
G01*
G37*
G36*
G01*
X168350000Y-112250001D02*
X168350000Y-111349999D01*
G75*
G02*
X168599999Y-111100000I249999J0D01*
G01*
X169250001Y-111100000D01*
G75*
G02*
X169500000Y-111349999I0J-249999D01*
G01*
X169500000Y-112250001D01*
G75*
G02*
X169250001Y-112500000I-249999J0D01*
G01*
X168599999Y-112500000D01*
G75*
G02*
X168350000Y-112250001I0J249999D01*
G01*
G37*
G36*
G01*
X166300000Y-112250001D02*
X166300000Y-111349999D01*
G75*
G02*
X166549999Y-111100000I249999J0D01*
G01*
X167200001Y-111100000D01*
G75*
G02*
X167450000Y-111349999I0J-249999D01*
G01*
X167450000Y-112250001D01*
G75*
G02*
X167200001Y-112500000I-249999J0D01*
G01*
X166549999Y-112500000D01*
G75*
G02*
X166300000Y-112250001I0J249999D01*
G01*
G37*
G36*
G01*
X121550000Y-53425000D02*
X121550000Y-54375000D01*
G75*
G02*
X121300000Y-54625000I-250000J0D01*
G01*
X120625000Y-54625000D01*
G75*
G02*
X120375000Y-54375000I0J250000D01*
G01*
X120375000Y-53425000D01*
G75*
G02*
X120625000Y-53175000I250000J0D01*
G01*
X121300000Y-53175000D01*
G75*
G02*
X121550000Y-53425000I0J-250000D01*
G01*
G37*
G36*
G01*
X123625000Y-53425000D02*
X123625000Y-54375000D01*
G75*
G02*
X123375000Y-54625000I-250000J0D01*
G01*
X122700000Y-54625000D01*
G75*
G02*
X122450000Y-54375000I0J250000D01*
G01*
X122450000Y-53425000D01*
G75*
G02*
X122700000Y-53175000I250000J0D01*
G01*
X123375000Y-53175000D01*
G75*
G02*
X123625000Y-53425000I0J-250000D01*
G01*
G37*
G36*
G01*
X108250000Y-53325000D02*
X108250000Y-54275000D01*
G75*
G02*
X108000000Y-54525000I-250000J0D01*
G01*
X107325000Y-54525000D01*
G75*
G02*
X107075000Y-54275000I0J250000D01*
G01*
X107075000Y-53325000D01*
G75*
G02*
X107325000Y-53075000I250000J0D01*
G01*
X108000000Y-53075000D01*
G75*
G02*
X108250000Y-53325000I0J-250000D01*
G01*
G37*
G36*
G01*
X110325000Y-53325000D02*
X110325000Y-54275000D01*
G75*
G02*
X110075000Y-54525000I-250000J0D01*
G01*
X109400000Y-54525000D01*
G75*
G02*
X109150000Y-54275000I0J250000D01*
G01*
X109150000Y-53325000D01*
G75*
G02*
X109400000Y-53075000I250000J0D01*
G01*
X110075000Y-53075000D01*
G75*
G02*
X110325000Y-53325000I0J-250000D01*
G01*
G37*
M02*
