G04 #@! TF.GenerationSoftware,KiCad,Pcbnew,(5.1.9)-1*
G04 #@! TF.CreationDate,2021-10-24T10:03:22-04:00*
G04 #@! TF.ProjectId,ram-mar,72616d2d-6d61-4722-9e6b-696361645f70,1.0*
G04 #@! TF.SameCoordinates,Original*
G04 #@! TF.FileFunction,Legend,Top*
G04 #@! TF.FilePolarity,Positive*
%FSLAX46Y46*%
G04 Gerber Fmt 4.6, Leading zero omitted, Abs format (unit mm)*
G04 Created by KiCad (PCBNEW (5.1.9)-1) date 2021-10-24 10:03:22*
%MOMM*%
%LPD*%
G01*
G04 APERTURE LIST*
%ADD10C,0.170000*%
%ADD11C,0.150000*%
%ADD12C,0.300000*%
%ADD13C,0.120000*%
%ADD14O,1.600000X1.600000*%
%ADD15R,1.600000X1.600000*%
%ADD16O,1.700000X1.700000*%
%ADD17R,1.700000X1.700000*%
G04 APERTURE END LIST*
D10*
X154178571Y-49782857D02*
X154678571Y-49782857D01*
X154892857Y-50568571D02*
X154178571Y-50568571D01*
X154178571Y-49068571D01*
X154892857Y-49068571D01*
X155392857Y-49068571D02*
X156392857Y-50568571D01*
X156392857Y-49068571D02*
X155392857Y-50568571D01*
X156750000Y-49068571D02*
X157607142Y-49068571D01*
X157178571Y-50568571D02*
X157178571Y-49068571D01*
X158107142Y-49782857D02*
X158607142Y-49782857D01*
X158821428Y-50568571D02*
X158107142Y-50568571D01*
X158107142Y-49068571D01*
X158821428Y-49068571D01*
X159464285Y-50568571D02*
X159464285Y-49068571D01*
X160321428Y-50568571D01*
X160321428Y-49068571D01*
X161035714Y-50568571D02*
X161035714Y-49068571D01*
X161392857Y-49068571D01*
X161607142Y-49140000D01*
X161750000Y-49282857D01*
X161821428Y-49425714D01*
X161892857Y-49711428D01*
X161892857Y-49925714D01*
X161821428Y-50211428D01*
X161750000Y-50354285D01*
X161607142Y-50497142D01*
X161392857Y-50568571D01*
X161035714Y-50568571D01*
X153785714Y-52988571D02*
X153785714Y-51488571D01*
X154285714Y-52560000D01*
X154785714Y-51488571D01*
X154785714Y-52988571D01*
X155500000Y-52202857D02*
X156000000Y-52202857D01*
X156214285Y-52988571D02*
X155500000Y-52988571D01*
X155500000Y-51488571D01*
X156214285Y-51488571D01*
X156857142Y-52988571D02*
X156857142Y-51488571D01*
X157357142Y-52560000D01*
X157857142Y-51488571D01*
X157857142Y-52988571D01*
X158857142Y-51488571D02*
X159142857Y-51488571D01*
X159285714Y-51560000D01*
X159428571Y-51702857D01*
X159500000Y-51988571D01*
X159500000Y-52488571D01*
X159428571Y-52774285D01*
X159285714Y-52917142D01*
X159142857Y-52988571D01*
X158857142Y-52988571D01*
X158714285Y-52917142D01*
X158571428Y-52774285D01*
X158500000Y-52488571D01*
X158500000Y-51988571D01*
X158571428Y-51702857D01*
X158714285Y-51560000D01*
X158857142Y-51488571D01*
X161000000Y-52988571D02*
X160500000Y-52274285D01*
X160142857Y-52988571D02*
X160142857Y-51488571D01*
X160714285Y-51488571D01*
X160857142Y-51560000D01*
X160928571Y-51631428D01*
X161000000Y-51774285D01*
X161000000Y-51988571D01*
X160928571Y-52131428D01*
X160857142Y-52202857D01*
X160714285Y-52274285D01*
X160142857Y-52274285D01*
X161928571Y-52274285D02*
X161928571Y-52988571D01*
X161428571Y-51488571D02*
X161928571Y-52274285D01*
X162428571Y-51488571D01*
X156421428Y-129078571D02*
X155921428Y-128364285D01*
X155564285Y-129078571D02*
X155564285Y-127578571D01*
X156135714Y-127578571D01*
X156278571Y-127650000D01*
X156350000Y-127721428D01*
X156421428Y-127864285D01*
X156421428Y-128078571D01*
X156350000Y-128221428D01*
X156278571Y-128292857D01*
X156135714Y-128364285D01*
X155564285Y-128364285D01*
X157635714Y-129007142D02*
X157492857Y-129078571D01*
X157207142Y-129078571D01*
X157064285Y-129007142D01*
X156992857Y-128864285D01*
X156992857Y-128292857D01*
X157064285Y-128150000D01*
X157207142Y-128078571D01*
X157492857Y-128078571D01*
X157635714Y-128150000D01*
X157707142Y-128292857D01*
X157707142Y-128435714D01*
X156992857Y-128578571D01*
X158992857Y-129078571D02*
X158992857Y-128292857D01*
X158921428Y-128150000D01*
X158778571Y-128078571D01*
X158492857Y-128078571D01*
X158350000Y-128150000D01*
X158992857Y-129007142D02*
X158850000Y-129078571D01*
X158492857Y-129078571D01*
X158350000Y-129007142D01*
X158278571Y-128864285D01*
X158278571Y-128721428D01*
X158350000Y-128578571D01*
X158492857Y-128507142D01*
X158850000Y-128507142D01*
X158992857Y-128435714D01*
X160350000Y-129078571D02*
X160350000Y-127578571D01*
X160350000Y-129007142D02*
X160207142Y-129078571D01*
X159921428Y-129078571D01*
X159778571Y-129007142D01*
X159707142Y-128935714D01*
X159635714Y-128792857D01*
X159635714Y-128364285D01*
X159707142Y-128221428D01*
X159778571Y-128150000D01*
X159921428Y-128078571D01*
X160207142Y-128078571D01*
X160350000Y-128150000D01*
X162135714Y-129007142D02*
X162350000Y-129078571D01*
X162707142Y-129078571D01*
X162850000Y-129007142D01*
X162921428Y-128935714D01*
X162992857Y-128792857D01*
X162992857Y-128650000D01*
X162921428Y-128507142D01*
X162850000Y-128435714D01*
X162707142Y-128364285D01*
X162421428Y-128292857D01*
X162278571Y-128221428D01*
X162207142Y-128150000D01*
X162135714Y-128007142D01*
X162135714Y-127864285D01*
X162207142Y-127721428D01*
X162278571Y-127650000D01*
X162421428Y-127578571D01*
X162778571Y-127578571D01*
X162992857Y-127650000D01*
X164207142Y-129007142D02*
X164064285Y-129078571D01*
X163778571Y-129078571D01*
X163635714Y-129007142D01*
X163564285Y-128864285D01*
X163564285Y-128292857D01*
X163635714Y-128150000D01*
X163778571Y-128078571D01*
X164064285Y-128078571D01*
X164207142Y-128150000D01*
X164278571Y-128292857D01*
X164278571Y-128435714D01*
X163564285Y-128578571D01*
X165135714Y-129078571D02*
X164992857Y-129007142D01*
X164921428Y-128864285D01*
X164921428Y-127578571D01*
X166278571Y-129007142D02*
X166135714Y-129078571D01*
X165850000Y-129078571D01*
X165707142Y-129007142D01*
X165635714Y-128864285D01*
X165635714Y-128292857D01*
X165707142Y-128150000D01*
X165850000Y-128078571D01*
X166135714Y-128078571D01*
X166278571Y-128150000D01*
X166350000Y-128292857D01*
X166350000Y-128435714D01*
X165635714Y-128578571D01*
X167635714Y-129007142D02*
X167492857Y-129078571D01*
X167207142Y-129078571D01*
X167064285Y-129007142D01*
X166992857Y-128935714D01*
X166921428Y-128792857D01*
X166921428Y-128364285D01*
X166992857Y-128221428D01*
X167064285Y-128150000D01*
X167207142Y-128078571D01*
X167492857Y-128078571D01*
X167635714Y-128150000D01*
X168064285Y-128078571D02*
X168635714Y-128078571D01*
X168278571Y-127578571D02*
X168278571Y-128864285D01*
X168350000Y-129007142D01*
X168492857Y-129078571D01*
X168635714Y-129078571D01*
X169064285Y-129007142D02*
X169207142Y-129078571D01*
X169492857Y-129078571D01*
X169635714Y-129007142D01*
X169707142Y-128864285D01*
X169707142Y-128792857D01*
X169635714Y-128650000D01*
X169492857Y-128578571D01*
X169278571Y-128578571D01*
X169135714Y-128507142D01*
X169064285Y-128364285D01*
X169064285Y-128292857D01*
X169135714Y-128150000D01*
X169278571Y-128078571D01*
X169492857Y-128078571D01*
X169635714Y-128150000D01*
X124121428Y-127578571D02*
X124478571Y-129078571D01*
X124764285Y-128007142D01*
X125050000Y-129078571D01*
X125407142Y-127578571D01*
X125978571Y-129078571D02*
X125978571Y-128078571D01*
X125978571Y-128364285D02*
X126050000Y-128221428D01*
X126121428Y-128150000D01*
X126264285Y-128078571D01*
X126407142Y-128078571D01*
X126907142Y-129078571D02*
X126907142Y-128078571D01*
X126907142Y-127578571D02*
X126835714Y-127650000D01*
X126907142Y-127721428D01*
X126978571Y-127650000D01*
X126907142Y-127578571D01*
X126907142Y-127721428D01*
X127407142Y-128078571D02*
X127978571Y-128078571D01*
X127621428Y-127578571D02*
X127621428Y-128864285D01*
X127692857Y-129007142D01*
X127835714Y-129078571D01*
X127978571Y-129078571D01*
X129050000Y-129007142D02*
X128907142Y-129078571D01*
X128621428Y-129078571D01*
X128478571Y-129007142D01*
X128407142Y-128864285D01*
X128407142Y-128292857D01*
X128478571Y-128150000D01*
X128621428Y-128078571D01*
X128907142Y-128078571D01*
X129050000Y-128150000D01*
X129121428Y-128292857D01*
X129121428Y-128435714D01*
X128407142Y-128578571D01*
X130835714Y-129007142D02*
X131050000Y-129078571D01*
X131407142Y-129078571D01*
X131550000Y-129007142D01*
X131621428Y-128935714D01*
X131692857Y-128792857D01*
X131692857Y-128650000D01*
X131621428Y-128507142D01*
X131550000Y-128435714D01*
X131407142Y-128364285D01*
X131121428Y-128292857D01*
X130978571Y-128221428D01*
X130907142Y-128150000D01*
X130835714Y-128007142D01*
X130835714Y-127864285D01*
X130907142Y-127721428D01*
X130978571Y-127650000D01*
X131121428Y-127578571D01*
X131478571Y-127578571D01*
X131692857Y-127650000D01*
X132907142Y-129007142D02*
X132764285Y-129078571D01*
X132478571Y-129078571D01*
X132335714Y-129007142D01*
X132264285Y-128864285D01*
X132264285Y-128292857D01*
X132335714Y-128150000D01*
X132478571Y-128078571D01*
X132764285Y-128078571D01*
X132907142Y-128150000D01*
X132978571Y-128292857D01*
X132978571Y-128435714D01*
X132264285Y-128578571D01*
X133835714Y-129078571D02*
X133692857Y-129007142D01*
X133621428Y-128864285D01*
X133621428Y-127578571D01*
X134978571Y-129007142D02*
X134835714Y-129078571D01*
X134550000Y-129078571D01*
X134407142Y-129007142D01*
X134335714Y-128864285D01*
X134335714Y-128292857D01*
X134407142Y-128150000D01*
X134550000Y-128078571D01*
X134835714Y-128078571D01*
X134978571Y-128150000D01*
X135050000Y-128292857D01*
X135050000Y-128435714D01*
X134335714Y-128578571D01*
X136335714Y-129007142D02*
X136192857Y-129078571D01*
X135907142Y-129078571D01*
X135764285Y-129007142D01*
X135692857Y-128935714D01*
X135621428Y-128792857D01*
X135621428Y-128364285D01*
X135692857Y-128221428D01*
X135764285Y-128150000D01*
X135907142Y-128078571D01*
X136192857Y-128078571D01*
X136335714Y-128150000D01*
X136764285Y-128078571D02*
X137335714Y-128078571D01*
X136978571Y-127578571D02*
X136978571Y-128864285D01*
X137050000Y-129007142D01*
X137192857Y-129078571D01*
X137335714Y-129078571D01*
X137764285Y-129007142D02*
X137907142Y-129078571D01*
X138192857Y-129078571D01*
X138335714Y-129007142D01*
X138407142Y-128864285D01*
X138407142Y-128792857D01*
X138335714Y-128650000D01*
X138192857Y-128578571D01*
X137978571Y-128578571D01*
X137835714Y-128507142D01*
X137764285Y-128364285D01*
X137764285Y-128292857D01*
X137835714Y-128150000D01*
X137978571Y-128078571D01*
X138192857Y-128078571D01*
X138335714Y-128150000D01*
D11*
X132552380Y-133292976D02*
X132076190Y-133626309D01*
X132552380Y-133864404D02*
X131552380Y-133864404D01*
X131552380Y-133483452D01*
X131600000Y-133388214D01*
X131647619Y-133340595D01*
X131742857Y-133292976D01*
X131885714Y-133292976D01*
X131980952Y-133340595D01*
X132028571Y-133388214D01*
X132076190Y-133483452D01*
X132076190Y-133864404D01*
X132552380Y-132292976D02*
X132076190Y-132626309D01*
X132552380Y-132864404D02*
X131552380Y-132864404D01*
X131552380Y-132483452D01*
X131600000Y-132388214D01*
X131647619Y-132340595D01*
X131742857Y-132292976D01*
X131885714Y-132292976D01*
X131980952Y-132340595D01*
X132028571Y-132388214D01*
X132076190Y-132483452D01*
X132076190Y-132864404D01*
X131552380Y-131673928D02*
X131552380Y-131578690D01*
X131600000Y-131483452D01*
X131647619Y-131435833D01*
X131742857Y-131388214D01*
X131933333Y-131340595D01*
X132171428Y-131340595D01*
X132361904Y-131388214D01*
X132457142Y-131435833D01*
X132504761Y-131483452D01*
X132552380Y-131578690D01*
X132552380Y-131673928D01*
X132504761Y-131769166D01*
X132457142Y-131816785D01*
X132361904Y-131864404D01*
X132171428Y-131912023D01*
X131933333Y-131912023D01*
X131742857Y-131864404D01*
X131647619Y-131816785D01*
X131600000Y-131769166D01*
X131552380Y-131673928D01*
X130052380Y-133292976D02*
X129576190Y-133626309D01*
X130052380Y-133864404D02*
X129052380Y-133864404D01*
X129052380Y-133483452D01*
X129100000Y-133388214D01*
X129147619Y-133340595D01*
X129242857Y-133292976D01*
X129385714Y-133292976D01*
X129480952Y-133340595D01*
X129528571Y-133388214D01*
X129576190Y-133483452D01*
X129576190Y-133864404D01*
X130052380Y-132292976D02*
X129576190Y-132626309D01*
X130052380Y-132864404D02*
X129052380Y-132864404D01*
X129052380Y-132483452D01*
X129100000Y-132388214D01*
X129147619Y-132340595D01*
X129242857Y-132292976D01*
X129385714Y-132292976D01*
X129480952Y-132340595D01*
X129528571Y-132388214D01*
X129576190Y-132483452D01*
X129576190Y-132864404D01*
X130052380Y-131340595D02*
X130052380Y-131912023D01*
X130052380Y-131626309D02*
X129052380Y-131626309D01*
X129195238Y-131721547D01*
X129290476Y-131816785D01*
X129338095Y-131912023D01*
X127552380Y-133292976D02*
X127076190Y-133626309D01*
X127552380Y-133864404D02*
X126552380Y-133864404D01*
X126552380Y-133483452D01*
X126600000Y-133388214D01*
X126647619Y-133340595D01*
X126742857Y-133292976D01*
X126885714Y-133292976D01*
X126980952Y-133340595D01*
X127028571Y-133388214D01*
X127076190Y-133483452D01*
X127076190Y-133864404D01*
X127552380Y-132292976D02*
X127076190Y-132626309D01*
X127552380Y-132864404D02*
X126552380Y-132864404D01*
X126552380Y-132483452D01*
X126600000Y-132388214D01*
X126647619Y-132340595D01*
X126742857Y-132292976D01*
X126885714Y-132292976D01*
X126980952Y-132340595D01*
X127028571Y-132388214D01*
X127076190Y-132483452D01*
X127076190Y-132864404D01*
X126647619Y-131912023D02*
X126600000Y-131864404D01*
X126552380Y-131769166D01*
X126552380Y-131531071D01*
X126600000Y-131435833D01*
X126647619Y-131388214D01*
X126742857Y-131340595D01*
X126838095Y-131340595D01*
X126980952Y-131388214D01*
X127552380Y-131959642D01*
X127552380Y-131340595D01*
X124952380Y-133292976D02*
X124476190Y-133626309D01*
X124952380Y-133864404D02*
X123952380Y-133864404D01*
X123952380Y-133483452D01*
X124000000Y-133388214D01*
X124047619Y-133340595D01*
X124142857Y-133292976D01*
X124285714Y-133292976D01*
X124380952Y-133340595D01*
X124428571Y-133388214D01*
X124476190Y-133483452D01*
X124476190Y-133864404D01*
X124952380Y-132292976D02*
X124476190Y-132626309D01*
X124952380Y-132864404D02*
X123952380Y-132864404D01*
X123952380Y-132483452D01*
X124000000Y-132388214D01*
X124047619Y-132340595D01*
X124142857Y-132292976D01*
X124285714Y-132292976D01*
X124380952Y-132340595D01*
X124428571Y-132388214D01*
X124476190Y-132483452D01*
X124476190Y-132864404D01*
X123952380Y-131959642D02*
X123952380Y-131340595D01*
X124333333Y-131673928D01*
X124333333Y-131531071D01*
X124380952Y-131435833D01*
X124428571Y-131388214D01*
X124523809Y-131340595D01*
X124761904Y-131340595D01*
X124857142Y-131388214D01*
X124904761Y-131435833D01*
X124952380Y-131531071D01*
X124952380Y-131816785D01*
X124904761Y-131912023D01*
X124857142Y-131959642D01*
X113852380Y-133959642D02*
X114852380Y-133721547D01*
X114138095Y-133531071D01*
X114852380Y-133340595D01*
X113852380Y-133102500D01*
X114852380Y-132150119D02*
X114376190Y-132483452D01*
X114852380Y-132721547D02*
X113852380Y-132721547D01*
X113852380Y-132340595D01*
X113900000Y-132245357D01*
X113947619Y-132197738D01*
X114042857Y-132150119D01*
X114185714Y-132150119D01*
X114280952Y-132197738D01*
X114328571Y-132245357D01*
X114376190Y-132340595D01*
X114376190Y-132721547D01*
X113852380Y-131816785D02*
X113852380Y-131197738D01*
X114233333Y-131531071D01*
X114233333Y-131388214D01*
X114280952Y-131292976D01*
X114328571Y-131245357D01*
X114423809Y-131197738D01*
X114661904Y-131197738D01*
X114757142Y-131245357D01*
X114804761Y-131292976D01*
X114852380Y-131388214D01*
X114852380Y-131673928D01*
X114804761Y-131769166D01*
X114757142Y-131816785D01*
X116352380Y-133959642D02*
X117352380Y-133721547D01*
X116638095Y-133531071D01*
X117352380Y-133340595D01*
X116352380Y-133102500D01*
X117352380Y-132150119D02*
X116876190Y-132483452D01*
X117352380Y-132721547D02*
X116352380Y-132721547D01*
X116352380Y-132340595D01*
X116400000Y-132245357D01*
X116447619Y-132197738D01*
X116542857Y-132150119D01*
X116685714Y-132150119D01*
X116780952Y-132197738D01*
X116828571Y-132245357D01*
X116876190Y-132340595D01*
X116876190Y-132721547D01*
X116447619Y-131769166D02*
X116400000Y-131721547D01*
X116352380Y-131626309D01*
X116352380Y-131388214D01*
X116400000Y-131292976D01*
X116447619Y-131245357D01*
X116542857Y-131197738D01*
X116638095Y-131197738D01*
X116780952Y-131245357D01*
X117352380Y-131816785D01*
X117352380Y-131197738D01*
X118952380Y-133959642D02*
X119952380Y-133721547D01*
X119238095Y-133531071D01*
X119952380Y-133340595D01*
X118952380Y-133102500D01*
X119952380Y-132150119D02*
X119476190Y-132483452D01*
X119952380Y-132721547D02*
X118952380Y-132721547D01*
X118952380Y-132340595D01*
X119000000Y-132245357D01*
X119047619Y-132197738D01*
X119142857Y-132150119D01*
X119285714Y-132150119D01*
X119380952Y-132197738D01*
X119428571Y-132245357D01*
X119476190Y-132340595D01*
X119476190Y-132721547D01*
X119952380Y-131197738D02*
X119952380Y-131769166D01*
X119952380Y-131483452D02*
X118952380Y-131483452D01*
X119095238Y-131578690D01*
X119190476Y-131673928D01*
X119238095Y-131769166D01*
X121452380Y-133959642D02*
X122452380Y-133721547D01*
X121738095Y-133531071D01*
X122452380Y-133340595D01*
X121452380Y-133102500D01*
X122452380Y-132150119D02*
X121976190Y-132483452D01*
X122452380Y-132721547D02*
X121452380Y-132721547D01*
X121452380Y-132340595D01*
X121500000Y-132245357D01*
X121547619Y-132197738D01*
X121642857Y-132150119D01*
X121785714Y-132150119D01*
X121880952Y-132197738D01*
X121928571Y-132245357D01*
X121976190Y-132340595D01*
X121976190Y-132721547D01*
X121452380Y-131531071D02*
X121452380Y-131435833D01*
X121500000Y-131340595D01*
X121547619Y-131292976D01*
X121642857Y-131245357D01*
X121833333Y-131197738D01*
X122071428Y-131197738D01*
X122261904Y-131245357D01*
X122357142Y-131292976D01*
X122404761Y-131340595D01*
X122452380Y-131435833D01*
X122452380Y-131531071D01*
X122404761Y-131626309D01*
X122357142Y-131673928D01*
X122261904Y-131721547D01*
X122071428Y-131769166D01*
X121833333Y-131769166D01*
X121642857Y-131721547D01*
X121547619Y-131673928D01*
X121500000Y-131626309D01*
X121452380Y-131531071D01*
X178797500Y-108585000D02*
X179797500Y-108585000D01*
X179607023Y-109952380D02*
X179273690Y-109476190D01*
X179035595Y-109952380D02*
X179035595Y-108952380D01*
X179416547Y-108952380D01*
X179511785Y-109000000D01*
X179559404Y-109047619D01*
X179607023Y-109142857D01*
X179607023Y-109285714D01*
X179559404Y-109380952D01*
X179511785Y-109428571D01*
X179416547Y-109476190D01*
X179035595Y-109476190D01*
X179797500Y-108585000D02*
X180749880Y-108585000D01*
X180511785Y-108952380D02*
X180035595Y-108952380D01*
X179987976Y-109428571D01*
X180035595Y-109380952D01*
X180130833Y-109333333D01*
X180368928Y-109333333D01*
X180464166Y-109380952D01*
X180511785Y-109428571D01*
X180559404Y-109523809D01*
X180559404Y-109761904D01*
X180511785Y-109857142D01*
X180464166Y-109904761D01*
X180368928Y-109952380D01*
X180130833Y-109952380D01*
X180035595Y-109904761D01*
X179987976Y-109857142D01*
X178797500Y-113485000D02*
X179797500Y-113485000D01*
X179607023Y-114852380D02*
X179273690Y-114376190D01*
X179035595Y-114852380D02*
X179035595Y-113852380D01*
X179416547Y-113852380D01*
X179511785Y-113900000D01*
X179559404Y-113947619D01*
X179607023Y-114042857D01*
X179607023Y-114185714D01*
X179559404Y-114280952D01*
X179511785Y-114328571D01*
X179416547Y-114376190D01*
X179035595Y-114376190D01*
X179797500Y-113485000D02*
X180749880Y-113485000D01*
X179940357Y-113852380D02*
X180607023Y-113852380D01*
X180178452Y-114852380D01*
X178797500Y-111085000D02*
X179797500Y-111085000D01*
X179607023Y-112452380D02*
X179273690Y-111976190D01*
X179035595Y-112452380D02*
X179035595Y-111452380D01*
X179416547Y-111452380D01*
X179511785Y-111500000D01*
X179559404Y-111547619D01*
X179607023Y-111642857D01*
X179607023Y-111785714D01*
X179559404Y-111880952D01*
X179511785Y-111928571D01*
X179416547Y-111976190D01*
X179035595Y-111976190D01*
X179797500Y-111085000D02*
X180749880Y-111085000D01*
X180464166Y-111452380D02*
X180273690Y-111452380D01*
X180178452Y-111500000D01*
X180130833Y-111547619D01*
X180035595Y-111690476D01*
X179987976Y-111880952D01*
X179987976Y-112261904D01*
X180035595Y-112357142D01*
X180083214Y-112404761D01*
X180178452Y-112452380D01*
X180368928Y-112452380D01*
X180464166Y-112404761D01*
X180511785Y-112357142D01*
X180559404Y-112261904D01*
X180559404Y-112023809D01*
X180511785Y-111928571D01*
X180464166Y-111880952D01*
X180368928Y-111833333D01*
X180178452Y-111833333D01*
X180083214Y-111880952D01*
X180035595Y-111928571D01*
X179987976Y-112023809D01*
X178797500Y-116185000D02*
X179940357Y-116185000D01*
X178940357Y-116552380D02*
X179178452Y-117552380D01*
X179368928Y-116838095D01*
X179559404Y-117552380D01*
X179797500Y-116552380D01*
X179940357Y-116185000D02*
X180892738Y-116185000D01*
X180607023Y-116885714D02*
X180607023Y-117552380D01*
X180368928Y-116504761D02*
X180130833Y-117219047D01*
X180749880Y-117219047D01*
X178797500Y-118785000D02*
X179940357Y-118785000D01*
X178940357Y-119152380D02*
X179178452Y-120152380D01*
X179368928Y-119438095D01*
X179559404Y-120152380D01*
X179797500Y-119152380D01*
X179940357Y-118785000D02*
X180892738Y-118785000D01*
X180654642Y-119152380D02*
X180178452Y-119152380D01*
X180130833Y-119628571D01*
X180178452Y-119580952D01*
X180273690Y-119533333D01*
X180511785Y-119533333D01*
X180607023Y-119580952D01*
X180654642Y-119628571D01*
X180702261Y-119723809D01*
X180702261Y-119961904D01*
X180654642Y-120057142D01*
X180607023Y-120104761D01*
X180511785Y-120152380D01*
X180273690Y-120152380D01*
X180178452Y-120104761D01*
X180130833Y-120057142D01*
X178797500Y-105985000D02*
X179797500Y-105985000D01*
X179607023Y-107352380D02*
X179273690Y-106876190D01*
X179035595Y-107352380D02*
X179035595Y-106352380D01*
X179416547Y-106352380D01*
X179511785Y-106400000D01*
X179559404Y-106447619D01*
X179607023Y-106542857D01*
X179607023Y-106685714D01*
X179559404Y-106780952D01*
X179511785Y-106828571D01*
X179416547Y-106876190D01*
X179035595Y-106876190D01*
X179797500Y-105985000D02*
X180749880Y-105985000D01*
X180464166Y-106685714D02*
X180464166Y-107352380D01*
X180226071Y-106304761D02*
X179987976Y-107019047D01*
X180607023Y-107019047D01*
X178897500Y-121285000D02*
X180040357Y-121285000D01*
X179040357Y-121652380D02*
X179278452Y-122652380D01*
X179468928Y-121938095D01*
X179659404Y-122652380D01*
X179897500Y-121652380D01*
X180040357Y-121285000D02*
X180992738Y-121285000D01*
X180707023Y-121652380D02*
X180516547Y-121652380D01*
X180421309Y-121700000D01*
X180373690Y-121747619D01*
X180278452Y-121890476D01*
X180230833Y-122080952D01*
X180230833Y-122461904D01*
X180278452Y-122557142D01*
X180326071Y-122604761D01*
X180421309Y-122652380D01*
X180611785Y-122652380D01*
X180707023Y-122604761D01*
X180754642Y-122557142D01*
X180802261Y-122461904D01*
X180802261Y-122223809D01*
X180754642Y-122128571D01*
X180707023Y-122080952D01*
X180611785Y-122033333D01*
X180421309Y-122033333D01*
X180326071Y-122080952D01*
X180278452Y-122128571D01*
X180230833Y-122223809D01*
X178897500Y-123585000D02*
X180040357Y-123585000D01*
X179040357Y-123952380D02*
X179278452Y-124952380D01*
X179468928Y-124238095D01*
X179659404Y-124952380D01*
X179897500Y-123952380D01*
X180040357Y-123585000D02*
X180992738Y-123585000D01*
X180183214Y-123952380D02*
X180849880Y-123952380D01*
X180421309Y-124952380D01*
D12*
X135414285Y-102059523D02*
X135414285Y-98059523D01*
X136747619Y-100916666D01*
X138080952Y-98059523D01*
X138080952Y-102059523D01*
X141509523Y-101869047D02*
X141128571Y-102059523D01*
X140366666Y-102059523D01*
X139985714Y-101869047D01*
X139795238Y-101488095D01*
X139795238Y-99964285D01*
X139985714Y-99583333D01*
X140366666Y-99392857D01*
X141128571Y-99392857D01*
X141509523Y-99583333D01*
X141700000Y-99964285D01*
X141700000Y-100345238D01*
X139795238Y-100726190D01*
X143414285Y-102059523D02*
X143414285Y-99392857D01*
X143414285Y-99773809D02*
X143604761Y-99583333D01*
X143985714Y-99392857D01*
X144557142Y-99392857D01*
X144938095Y-99583333D01*
X145128571Y-99964285D01*
X145128571Y-102059523D01*
X145128571Y-99964285D02*
X145319047Y-99583333D01*
X145700000Y-99392857D01*
X146271428Y-99392857D01*
X146652380Y-99583333D01*
X146842857Y-99964285D01*
X146842857Y-102059523D01*
X149319047Y-102059523D02*
X148938095Y-101869047D01*
X148747619Y-101678571D01*
X148557142Y-101297619D01*
X148557142Y-100154761D01*
X148747619Y-99773809D01*
X148938095Y-99583333D01*
X149319047Y-99392857D01*
X149890476Y-99392857D01*
X150271428Y-99583333D01*
X150461904Y-99773809D01*
X150652380Y-100154761D01*
X150652380Y-101297619D01*
X150461904Y-101678571D01*
X150271428Y-101869047D01*
X149890476Y-102059523D01*
X149319047Y-102059523D01*
X152366666Y-102059523D02*
X152366666Y-99392857D01*
X152366666Y-100154761D02*
X152557142Y-99773809D01*
X152747619Y-99583333D01*
X153128571Y-99392857D01*
X153509523Y-99392857D01*
X154461904Y-99392857D02*
X155414285Y-102059523D01*
X156366666Y-99392857D02*
X155414285Y-102059523D01*
X155033333Y-103011904D01*
X154842857Y-103202380D01*
X154461904Y-103392857D01*
X134938095Y-107216666D02*
X136842857Y-107216666D01*
X134557142Y-108359523D02*
X135890476Y-104359523D01*
X137223809Y-108359523D01*
X140271428Y-108359523D02*
X140271428Y-104359523D01*
X140271428Y-108169047D02*
X139890476Y-108359523D01*
X139128571Y-108359523D01*
X138747619Y-108169047D01*
X138557142Y-107978571D01*
X138366666Y-107597619D01*
X138366666Y-106454761D01*
X138557142Y-106073809D01*
X138747619Y-105883333D01*
X139128571Y-105692857D01*
X139890476Y-105692857D01*
X140271428Y-105883333D01*
X143890476Y-108359523D02*
X143890476Y-104359523D01*
X143890476Y-108169047D02*
X143509523Y-108359523D01*
X142747619Y-108359523D01*
X142366666Y-108169047D01*
X142176190Y-107978571D01*
X141985714Y-107597619D01*
X141985714Y-106454761D01*
X142176190Y-106073809D01*
X142366666Y-105883333D01*
X142747619Y-105692857D01*
X143509523Y-105692857D01*
X143890476Y-105883333D01*
X145795238Y-108359523D02*
X145795238Y-105692857D01*
X145795238Y-106454761D02*
X145985714Y-106073809D01*
X146176190Y-105883333D01*
X146557142Y-105692857D01*
X146938095Y-105692857D01*
X149795238Y-108169047D02*
X149414285Y-108359523D01*
X148652380Y-108359523D01*
X148271428Y-108169047D01*
X148080952Y-107788095D01*
X148080952Y-106264285D01*
X148271428Y-105883333D01*
X148652380Y-105692857D01*
X149414285Y-105692857D01*
X149795238Y-105883333D01*
X149985714Y-106264285D01*
X149985714Y-106645238D01*
X148080952Y-107026190D01*
X151509523Y-108169047D02*
X151890476Y-108359523D01*
X152652380Y-108359523D01*
X153033333Y-108169047D01*
X153223809Y-107788095D01*
X153223809Y-107597619D01*
X153033333Y-107216666D01*
X152652380Y-107026190D01*
X152080952Y-107026190D01*
X151700000Y-106835714D01*
X151509523Y-106454761D01*
X151509523Y-106264285D01*
X151700000Y-105883333D01*
X152080952Y-105692857D01*
X152652380Y-105692857D01*
X153033333Y-105883333D01*
X154747619Y-108169047D02*
X155128571Y-108359523D01*
X155890476Y-108359523D01*
X156271428Y-108169047D01*
X156461904Y-107788095D01*
X156461904Y-107597619D01*
X156271428Y-107216666D01*
X155890476Y-107026190D01*
X155319047Y-107026190D01*
X154938095Y-106835714D01*
X154747619Y-106454761D01*
X154747619Y-106264285D01*
X154938095Y-105883333D01*
X155319047Y-105692857D01*
X155890476Y-105692857D01*
X156271428Y-105883333D01*
D11*
X184647619Y-94866666D02*
X184600000Y-94819047D01*
X184552380Y-94723809D01*
X184552380Y-94485714D01*
X184600000Y-94390476D01*
X184647619Y-94342857D01*
X184742857Y-94295238D01*
X184838095Y-94295238D01*
X184980952Y-94342857D01*
X185552380Y-94914285D01*
X185552380Y-94295238D01*
X184552380Y-93676190D02*
X184552380Y-93580952D01*
X184600000Y-93485714D01*
X184647619Y-93438095D01*
X184742857Y-93390476D01*
X184933333Y-93342857D01*
X185171428Y-93342857D01*
X185361904Y-93390476D01*
X185457142Y-93438095D01*
X185504761Y-93485714D01*
X185552380Y-93580952D01*
X185552380Y-93676190D01*
X185504761Y-93771428D01*
X185457142Y-93819047D01*
X185361904Y-93866666D01*
X185171428Y-93914285D01*
X184933333Y-93914285D01*
X184742857Y-93866666D01*
X184647619Y-93819047D01*
X184600000Y-93771428D01*
X184552380Y-93676190D01*
X184647619Y-92961904D02*
X184600000Y-92914285D01*
X184552380Y-92819047D01*
X184552380Y-92580952D01*
X184600000Y-92485714D01*
X184647619Y-92438095D01*
X184742857Y-92390476D01*
X184838095Y-92390476D01*
X184980952Y-92438095D01*
X185552380Y-93009523D01*
X185552380Y-92390476D01*
X185552380Y-91438095D02*
X185552380Y-92009523D01*
X185552380Y-91723809D02*
X184552380Y-91723809D01*
X184695238Y-91819047D01*
X184790476Y-91914285D01*
X184838095Y-92009523D01*
X184885714Y-90342857D02*
X185552380Y-90104761D01*
X184885714Y-89866666D01*
X185552380Y-88961904D02*
X185552380Y-89533333D01*
X185552380Y-89247619D02*
X184552380Y-89247619D01*
X184695238Y-89342857D01*
X184790476Y-89438095D01*
X184838095Y-89533333D01*
X185457142Y-88533333D02*
X185504761Y-88485714D01*
X185552380Y-88533333D01*
X185504761Y-88580952D01*
X185457142Y-88533333D01*
X185552380Y-88533333D01*
X184552380Y-87866666D02*
X184552380Y-87771428D01*
X184600000Y-87676190D01*
X184647619Y-87628571D01*
X184742857Y-87580952D01*
X184933333Y-87533333D01*
X185171428Y-87533333D01*
X185361904Y-87580952D01*
X185457142Y-87628571D01*
X185504761Y-87676190D01*
X185552380Y-87771428D01*
X185552380Y-87866666D01*
X185504761Y-87961904D01*
X185457142Y-88009523D01*
X185361904Y-88057142D01*
X185171428Y-88104761D01*
X184933333Y-88104761D01*
X184742857Y-88057142D01*
X184647619Y-88009523D01*
X184600000Y-87961904D01*
X184552380Y-87866666D01*
X86985714Y-79700000D02*
X87795238Y-79700000D01*
X87890476Y-79747619D01*
X87938095Y-79795238D01*
X87985714Y-79890476D01*
X87985714Y-80033333D01*
X87938095Y-80128571D01*
X87604761Y-79700000D02*
X87652380Y-79795238D01*
X87652380Y-79985714D01*
X87604761Y-80080952D01*
X87557142Y-80128571D01*
X87461904Y-80176190D01*
X87176190Y-80176190D01*
X87080952Y-80128571D01*
X87033333Y-80080952D01*
X86985714Y-79985714D01*
X86985714Y-79795238D01*
X87033333Y-79700000D01*
X87652380Y-79223809D02*
X86985714Y-79223809D01*
X86652380Y-79223809D02*
X86700000Y-79271428D01*
X86747619Y-79223809D01*
X86700000Y-79176190D01*
X86652380Y-79223809D01*
X86747619Y-79223809D01*
X86985714Y-78890476D02*
X86985714Y-78509523D01*
X86652380Y-78747619D02*
X87509523Y-78747619D01*
X87604761Y-78700000D01*
X87652380Y-78604761D01*
X87652380Y-78509523D01*
X87652380Y-78176190D02*
X86652380Y-78176190D01*
X87652380Y-77747619D02*
X87128571Y-77747619D01*
X87033333Y-77795238D01*
X86985714Y-77890476D01*
X86985714Y-78033333D01*
X87033333Y-78128571D01*
X87080952Y-78176190D01*
X86985714Y-76842857D02*
X87652380Y-76842857D01*
X86985714Y-77271428D02*
X87509523Y-77271428D01*
X87604761Y-77223809D01*
X87652380Y-77128571D01*
X87652380Y-76985714D01*
X87604761Y-76890476D01*
X87557142Y-76842857D01*
X87652380Y-76366666D02*
X86652380Y-76366666D01*
X87033333Y-76366666D02*
X86985714Y-76271428D01*
X86985714Y-76080952D01*
X87033333Y-75985714D01*
X87080952Y-75938095D01*
X87176190Y-75890476D01*
X87461904Y-75890476D01*
X87557142Y-75938095D01*
X87604761Y-75985714D01*
X87652380Y-76080952D01*
X87652380Y-76271428D01*
X87604761Y-76366666D01*
X87557142Y-75461904D02*
X87604761Y-75414285D01*
X87652380Y-75461904D01*
X87604761Y-75509523D01*
X87557142Y-75461904D01*
X87652380Y-75461904D01*
X87604761Y-74557142D02*
X87652380Y-74652380D01*
X87652380Y-74842857D01*
X87604761Y-74938095D01*
X87557142Y-74985714D01*
X87461904Y-75033333D01*
X87176190Y-75033333D01*
X87080952Y-74985714D01*
X87033333Y-74938095D01*
X86985714Y-74842857D01*
X86985714Y-74652380D01*
X87033333Y-74557142D01*
X87652380Y-73985714D02*
X87604761Y-74080952D01*
X87557142Y-74128571D01*
X87461904Y-74176190D01*
X87176190Y-74176190D01*
X87080952Y-74128571D01*
X87033333Y-74080952D01*
X86985714Y-73985714D01*
X86985714Y-73842857D01*
X87033333Y-73747619D01*
X87080952Y-73700000D01*
X87176190Y-73652380D01*
X87461904Y-73652380D01*
X87557142Y-73700000D01*
X87604761Y-73747619D01*
X87652380Y-73842857D01*
X87652380Y-73985714D01*
X87652380Y-73223809D02*
X86985714Y-73223809D01*
X87080952Y-73223809D02*
X87033333Y-73176190D01*
X86985714Y-73080952D01*
X86985714Y-72938095D01*
X87033333Y-72842857D01*
X87128571Y-72795238D01*
X87652380Y-72795238D01*
X87128571Y-72795238D02*
X87033333Y-72747619D01*
X86985714Y-72652380D01*
X86985714Y-72509523D01*
X87033333Y-72414285D01*
X87128571Y-72366666D01*
X87652380Y-72366666D01*
X86604761Y-71176190D02*
X87890476Y-72033333D01*
X86652380Y-70985714D02*
X86652380Y-70414285D01*
X87652380Y-70700000D02*
X86652380Y-70700000D01*
X87652380Y-69938095D02*
X87604761Y-70033333D01*
X87557142Y-70080952D01*
X87461904Y-70128571D01*
X87176190Y-70128571D01*
X87080952Y-70080952D01*
X87033333Y-70033333D01*
X86985714Y-69938095D01*
X86985714Y-69795238D01*
X87033333Y-69700000D01*
X87080952Y-69652380D01*
X87176190Y-69604761D01*
X87461904Y-69604761D01*
X87557142Y-69652380D01*
X87604761Y-69700000D01*
X87652380Y-69795238D01*
X87652380Y-69938095D01*
X87652380Y-69176190D02*
X86985714Y-69176190D01*
X87080952Y-69176190D02*
X87033333Y-69128571D01*
X86985714Y-69033333D01*
X86985714Y-68890476D01*
X87033333Y-68795238D01*
X87128571Y-68747619D01*
X87652380Y-68747619D01*
X87128571Y-68747619D02*
X87033333Y-68700000D01*
X86985714Y-68604761D01*
X86985714Y-68461904D01*
X87033333Y-68366666D01*
X87128571Y-68319047D01*
X87652380Y-68319047D01*
X87652380Y-67842857D02*
X86652380Y-67842857D01*
X87652380Y-67271428D01*
X86652380Y-67271428D01*
X87652380Y-66795238D02*
X86985714Y-66795238D01*
X86652380Y-66795238D02*
X86700000Y-66842857D01*
X86747619Y-66795238D01*
X86700000Y-66747619D01*
X86652380Y-66795238D01*
X86747619Y-66795238D01*
X87604761Y-66366666D02*
X87652380Y-66271428D01*
X87652380Y-66080952D01*
X87604761Y-65985714D01*
X87509523Y-65938095D01*
X87461904Y-65938095D01*
X87366666Y-65985714D01*
X87319047Y-66080952D01*
X87319047Y-66223809D01*
X87271428Y-66319047D01*
X87176190Y-66366666D01*
X87128571Y-66366666D01*
X87033333Y-66319047D01*
X86985714Y-66223809D01*
X86985714Y-66080952D01*
X87033333Y-65985714D01*
X87652380Y-65509523D02*
X86652380Y-65509523D01*
X87033333Y-65509523D02*
X86985714Y-65414285D01*
X86985714Y-65223809D01*
X87033333Y-65128571D01*
X87080952Y-65080952D01*
X87176190Y-65033333D01*
X87461904Y-65033333D01*
X87557142Y-65080952D01*
X87604761Y-65128571D01*
X87652380Y-65223809D01*
X87652380Y-65414285D01*
X87604761Y-65509523D01*
X87604761Y-64223809D02*
X87652380Y-64319047D01*
X87652380Y-64509523D01*
X87604761Y-64604761D01*
X87509523Y-64652380D01*
X87128571Y-64652380D01*
X87033333Y-64604761D01*
X86985714Y-64509523D01*
X86985714Y-64319047D01*
X87033333Y-64223809D01*
X87128571Y-64176190D01*
X87223809Y-64176190D01*
X87319047Y-64652380D01*
X86985714Y-63890476D02*
X86985714Y-63509523D01*
X86652380Y-63747619D02*
X87509523Y-63747619D01*
X87604761Y-63700000D01*
X87652380Y-63604761D01*
X87652380Y-63509523D01*
X86604761Y-62461904D02*
X87890476Y-63319047D01*
X86985714Y-62128571D02*
X87652380Y-62128571D01*
X87080952Y-62128571D02*
X87033333Y-62080952D01*
X86985714Y-61985714D01*
X86985714Y-61842857D01*
X87033333Y-61747619D01*
X87128571Y-61700000D01*
X87652380Y-61700000D01*
X86985714Y-60795238D02*
X87985714Y-60795238D01*
X87604761Y-60795238D02*
X87652380Y-60890476D01*
X87652380Y-61080952D01*
X87604761Y-61176190D01*
X87557142Y-61223809D01*
X87461904Y-61271428D01*
X87176190Y-61271428D01*
X87080952Y-61223809D01*
X87033333Y-61176190D01*
X86985714Y-61080952D01*
X86985714Y-60890476D01*
X87033333Y-60795238D01*
X87604761Y-60366666D02*
X87652380Y-60271428D01*
X87652380Y-60080952D01*
X87604761Y-59985714D01*
X87509523Y-59938095D01*
X87461904Y-59938095D01*
X87366666Y-59985714D01*
X87319047Y-60080952D01*
X87319047Y-60223809D01*
X87271428Y-60319047D01*
X87176190Y-60366666D01*
X87128571Y-60366666D01*
X87033333Y-60319047D01*
X86985714Y-60223809D01*
X86985714Y-60080952D01*
X87033333Y-59985714D01*
X87652380Y-59080952D02*
X87128571Y-59080952D01*
X87033333Y-59128571D01*
X86985714Y-59223809D01*
X86985714Y-59414285D01*
X87033333Y-59509523D01*
X87604761Y-59080952D02*
X87652380Y-59176190D01*
X87652380Y-59414285D01*
X87604761Y-59509523D01*
X87509523Y-59557142D01*
X87414285Y-59557142D01*
X87319047Y-59509523D01*
X87271428Y-59414285D01*
X87271428Y-59176190D01*
X87223809Y-59080952D01*
X86985714Y-58604761D02*
X87985714Y-58604761D01*
X87033333Y-58604761D02*
X86985714Y-58509523D01*
X86985714Y-58319047D01*
X87033333Y-58223809D01*
X87080952Y-58176190D01*
X87176190Y-58128571D01*
X87461904Y-58128571D01*
X87557142Y-58176190D01*
X87604761Y-58223809D01*
X87652380Y-58319047D01*
X87652380Y-58509523D01*
X87604761Y-58604761D01*
X87271428Y-57700000D02*
X87271428Y-56938095D01*
X86985714Y-56461904D02*
X87985714Y-56461904D01*
X87033333Y-56461904D02*
X86985714Y-56366666D01*
X86985714Y-56176190D01*
X87033333Y-56080952D01*
X87080952Y-56033333D01*
X87176190Y-55985714D01*
X87461904Y-55985714D01*
X87557142Y-56033333D01*
X87604761Y-56080952D01*
X87652380Y-56176190D01*
X87652380Y-56366666D01*
X87604761Y-56461904D01*
X87604761Y-55128571D02*
X87652380Y-55223809D01*
X87652380Y-55414285D01*
X87604761Y-55509523D01*
X87557142Y-55557142D01*
X87461904Y-55604761D01*
X87176190Y-55604761D01*
X87080952Y-55557142D01*
X87033333Y-55509523D01*
X86985714Y-55414285D01*
X86985714Y-55223809D01*
X87033333Y-55128571D01*
X87652380Y-54700000D02*
X86652380Y-54700000D01*
X87033333Y-54700000D02*
X86985714Y-54604761D01*
X86985714Y-54414285D01*
X87033333Y-54319047D01*
X87080952Y-54271428D01*
X87176190Y-54223809D01*
X87461904Y-54223809D01*
X87557142Y-54271428D01*
X87604761Y-54319047D01*
X87652380Y-54414285D01*
X87652380Y-54604761D01*
X87604761Y-54700000D01*
X91197500Y-121085000D02*
X92340357Y-121085000D01*
X91340357Y-121452380D02*
X91578452Y-122452380D01*
X91768928Y-121738095D01*
X91959404Y-122452380D01*
X92197500Y-121452380D01*
X92340357Y-121085000D02*
X93292738Y-121085000D01*
X93054642Y-121452380D02*
X92578452Y-121452380D01*
X92530833Y-121928571D01*
X92578452Y-121880952D01*
X92673690Y-121833333D01*
X92911785Y-121833333D01*
X93007023Y-121880952D01*
X93054642Y-121928571D01*
X93102261Y-122023809D01*
X93102261Y-122261904D01*
X93054642Y-122357142D01*
X93007023Y-122404761D01*
X92911785Y-122452380D01*
X92673690Y-122452380D01*
X92578452Y-122404761D01*
X92530833Y-122357142D01*
X91197500Y-118485000D02*
X92340357Y-118485000D01*
X91340357Y-118852380D02*
X91578452Y-119852380D01*
X91768928Y-119138095D01*
X91959404Y-119852380D01*
X92197500Y-118852380D01*
X92340357Y-118485000D02*
X93292738Y-118485000D01*
X93007023Y-119185714D02*
X93007023Y-119852380D01*
X92768928Y-118804761D02*
X92530833Y-119519047D01*
X93149880Y-119519047D01*
X91197500Y-115985000D02*
X92340357Y-115985000D01*
X91340357Y-116352380D02*
X91578452Y-117352380D01*
X91768928Y-116638095D01*
X91959404Y-117352380D01*
X92197500Y-116352380D01*
X92340357Y-115985000D02*
X93292738Y-115985000D01*
X92483214Y-116352380D02*
X93102261Y-116352380D01*
X92768928Y-116733333D01*
X92911785Y-116733333D01*
X93007023Y-116780952D01*
X93054642Y-116828571D01*
X93102261Y-116923809D01*
X93102261Y-117161904D01*
X93054642Y-117257142D01*
X93007023Y-117304761D01*
X92911785Y-117352380D01*
X92626071Y-117352380D01*
X92530833Y-117304761D01*
X92483214Y-117257142D01*
X91197500Y-113385000D02*
X92197500Y-113385000D01*
X92007023Y-114752380D02*
X91673690Y-114276190D01*
X91435595Y-114752380D02*
X91435595Y-113752380D01*
X91816547Y-113752380D01*
X91911785Y-113800000D01*
X91959404Y-113847619D01*
X92007023Y-113942857D01*
X92007023Y-114085714D01*
X91959404Y-114180952D01*
X91911785Y-114228571D01*
X91816547Y-114276190D01*
X91435595Y-114276190D01*
X92197500Y-113385000D02*
X93149880Y-113385000D01*
X92864166Y-113752380D02*
X92673690Y-113752380D01*
X92578452Y-113800000D01*
X92530833Y-113847619D01*
X92435595Y-113990476D01*
X92387976Y-114180952D01*
X92387976Y-114561904D01*
X92435595Y-114657142D01*
X92483214Y-114704761D01*
X92578452Y-114752380D01*
X92768928Y-114752380D01*
X92864166Y-114704761D01*
X92911785Y-114657142D01*
X92959404Y-114561904D01*
X92959404Y-114323809D01*
X92911785Y-114228571D01*
X92864166Y-114180952D01*
X92768928Y-114133333D01*
X92578452Y-114133333D01*
X92483214Y-114180952D01*
X92435595Y-114228571D01*
X92387976Y-114323809D01*
X91197500Y-110885000D02*
X92197500Y-110885000D01*
X92007023Y-112252380D02*
X91673690Y-111776190D01*
X91435595Y-112252380D02*
X91435595Y-111252380D01*
X91816547Y-111252380D01*
X91911785Y-111300000D01*
X91959404Y-111347619D01*
X92007023Y-111442857D01*
X92007023Y-111585714D01*
X91959404Y-111680952D01*
X91911785Y-111728571D01*
X91816547Y-111776190D01*
X91435595Y-111776190D01*
X92197500Y-110885000D02*
X93149880Y-110885000D01*
X92911785Y-111252380D02*
X92435595Y-111252380D01*
X92387976Y-111728571D01*
X92435595Y-111680952D01*
X92530833Y-111633333D01*
X92768928Y-111633333D01*
X92864166Y-111680952D01*
X92911785Y-111728571D01*
X92959404Y-111823809D01*
X92959404Y-112061904D01*
X92911785Y-112157142D01*
X92864166Y-112204761D01*
X92768928Y-112252380D01*
X92530833Y-112252380D01*
X92435595Y-112204761D01*
X92387976Y-112157142D01*
X91197500Y-108285000D02*
X92197500Y-108285000D01*
X92007023Y-109652380D02*
X91673690Y-109176190D01*
X91435595Y-109652380D02*
X91435595Y-108652380D01*
X91816547Y-108652380D01*
X91911785Y-108700000D01*
X91959404Y-108747619D01*
X92007023Y-108842857D01*
X92007023Y-108985714D01*
X91959404Y-109080952D01*
X91911785Y-109128571D01*
X91816547Y-109176190D01*
X91435595Y-109176190D01*
X92197500Y-108285000D02*
X93149880Y-108285000D01*
X92864166Y-108985714D02*
X92864166Y-109652380D01*
X92626071Y-108604761D02*
X92387976Y-109319047D01*
X93007023Y-109319047D01*
X91197500Y-105785000D02*
X92197500Y-105785000D01*
X92007023Y-107152380D02*
X91673690Y-106676190D01*
X91435595Y-107152380D02*
X91435595Y-106152380D01*
X91816547Y-106152380D01*
X91911785Y-106200000D01*
X91959404Y-106247619D01*
X92007023Y-106342857D01*
X92007023Y-106485714D01*
X91959404Y-106580952D01*
X91911785Y-106628571D01*
X91816547Y-106676190D01*
X91435595Y-106676190D01*
X92197500Y-105785000D02*
X93149880Y-105785000D01*
X92340357Y-106152380D02*
X92959404Y-106152380D01*
X92626071Y-106533333D01*
X92768928Y-106533333D01*
X92864166Y-106580952D01*
X92911785Y-106628571D01*
X92959404Y-106723809D01*
X92959404Y-106961904D01*
X92911785Y-107057142D01*
X92864166Y-107104761D01*
X92768928Y-107152380D01*
X92483214Y-107152380D01*
X92387976Y-107104761D01*
X92340357Y-107057142D01*
X91297500Y-123585000D02*
X92440357Y-123585000D01*
X91440357Y-123952380D02*
X91678452Y-124952380D01*
X91868928Y-124238095D01*
X92059404Y-124952380D01*
X92297500Y-123952380D01*
X92440357Y-123585000D02*
X93392738Y-123585000D01*
X93107023Y-123952380D02*
X92916547Y-123952380D01*
X92821309Y-124000000D01*
X92773690Y-124047619D01*
X92678452Y-124190476D01*
X92630833Y-124380952D01*
X92630833Y-124761904D01*
X92678452Y-124857142D01*
X92726071Y-124904761D01*
X92821309Y-124952380D01*
X93011785Y-124952380D01*
X93107023Y-124904761D01*
X93154642Y-124857142D01*
X93202261Y-124761904D01*
X93202261Y-124523809D01*
X93154642Y-124428571D01*
X93107023Y-124380952D01*
X93011785Y-124333333D01*
X92821309Y-124333333D01*
X92726071Y-124380952D01*
X92678452Y-124428571D01*
X92630833Y-124523809D01*
D12*
X145938095Y-78909523D02*
X144604761Y-77004761D01*
X143652380Y-78909523D02*
X143652380Y-74909523D01*
X145176190Y-74909523D01*
X145557142Y-75100000D01*
X145747619Y-75290476D01*
X145938095Y-75671428D01*
X145938095Y-76242857D01*
X145747619Y-76623809D01*
X145557142Y-76814285D01*
X145176190Y-77004761D01*
X143652380Y-77004761D01*
X147461904Y-77766666D02*
X149366666Y-77766666D01*
X147080952Y-78909523D02*
X148414285Y-74909523D01*
X149747619Y-78909523D01*
X151080952Y-78909523D02*
X151080952Y-74909523D01*
X152414285Y-77766666D01*
X153747619Y-74909523D01*
X153747619Y-78909523D01*
D11*
X174942857Y-48707023D02*
X174895238Y-48659404D01*
X174847619Y-48516547D01*
X174847619Y-48421309D01*
X174895238Y-48278452D01*
X174990476Y-48183214D01*
X175085714Y-48135595D01*
X175276190Y-48087976D01*
X175419047Y-48087976D01*
X175609523Y-48135595D01*
X175704761Y-48183214D01*
X175800000Y-48278452D01*
X175847619Y-48421309D01*
X175847619Y-48516547D01*
X175800000Y-48659404D01*
X175752380Y-48707023D01*
X174847619Y-49611785D02*
X174847619Y-49135595D01*
X175847619Y-49135595D01*
X174847619Y-49945119D02*
X175847619Y-49945119D01*
X174847619Y-50516547D02*
X175419047Y-50087976D01*
X175847619Y-50516547D02*
X175276190Y-49945119D01*
X185528571Y-48135595D02*
X185528571Y-48897500D01*
X185147619Y-48516547D02*
X185909523Y-48516547D01*
X186147619Y-49849880D02*
X186147619Y-49373690D01*
X185671428Y-49326071D01*
X185719047Y-49373690D01*
X185766666Y-49468928D01*
X185766666Y-49707023D01*
X185719047Y-49802261D01*
X185671428Y-49849880D01*
X185576190Y-49897500D01*
X185338095Y-49897500D01*
X185242857Y-49849880D01*
X185195238Y-49802261D01*
X185147619Y-49707023D01*
X185147619Y-49468928D01*
X185195238Y-49373690D01*
X185242857Y-49326071D01*
X186147619Y-50183214D02*
X185147619Y-50516547D01*
X186147619Y-50849880D01*
X86900000Y-48659404D02*
X86947619Y-48564166D01*
X86947619Y-48421309D01*
X86900000Y-48278452D01*
X86804761Y-48183214D01*
X86709523Y-48135595D01*
X86519047Y-48087976D01*
X86376190Y-48087976D01*
X86185714Y-48135595D01*
X86090476Y-48183214D01*
X85995238Y-48278452D01*
X85947619Y-48421309D01*
X85947619Y-48516547D01*
X85995238Y-48659404D01*
X86042857Y-48707023D01*
X86376190Y-48707023D01*
X86376190Y-48516547D01*
X85947619Y-49135595D02*
X86947619Y-49135595D01*
X85947619Y-49707023D01*
X86947619Y-49707023D01*
X85947619Y-50183214D02*
X86947619Y-50183214D01*
X86947619Y-50421309D01*
X86900000Y-50564166D01*
X86804761Y-50659404D01*
X86709523Y-50707023D01*
X86519047Y-50754642D01*
X86376190Y-50754642D01*
X86185714Y-50707023D01*
X86090476Y-50659404D01*
X85995238Y-50564166D01*
X85947619Y-50421309D01*
X85947619Y-50183214D01*
X101247619Y-48135595D02*
X102247619Y-48135595D01*
X102247619Y-48373690D01*
X102200000Y-48516547D01*
X102104761Y-48611785D01*
X102009523Y-48659404D01*
X101819047Y-48707023D01*
X101676190Y-48707023D01*
X101485714Y-48659404D01*
X101390476Y-48611785D01*
X101295238Y-48516547D01*
X101247619Y-48373690D01*
X101247619Y-48135595D01*
X101914285Y-49564166D02*
X101247619Y-49564166D01*
X102295238Y-49326071D02*
X101580952Y-49087976D01*
X101580952Y-49707023D01*
X111347619Y-48135595D02*
X112347619Y-48135595D01*
X112347619Y-48373690D01*
X112300000Y-48516547D01*
X112204761Y-48611785D01*
X112109523Y-48659404D01*
X111919047Y-48707023D01*
X111776190Y-48707023D01*
X111585714Y-48659404D01*
X111490476Y-48611785D01*
X111395238Y-48516547D01*
X111347619Y-48373690D01*
X111347619Y-48135595D01*
X112347619Y-49326071D02*
X112347619Y-49421309D01*
X112300000Y-49516547D01*
X112252380Y-49564166D01*
X112157142Y-49611785D01*
X111966666Y-49659404D01*
X111728571Y-49659404D01*
X111538095Y-49611785D01*
X111442857Y-49564166D01*
X111395238Y-49516547D01*
X111347619Y-49421309D01*
X111347619Y-49326071D01*
X111395238Y-49230833D01*
X111442857Y-49183214D01*
X111538095Y-49135595D01*
X111728571Y-49087976D01*
X111966666Y-49087976D01*
X112157142Y-49135595D01*
X112252380Y-49183214D01*
X112300000Y-49230833D01*
X112347619Y-49326071D01*
X98647619Y-48135595D02*
X99647619Y-48135595D01*
X99647619Y-48373690D01*
X99600000Y-48516547D01*
X99504761Y-48611785D01*
X99409523Y-48659404D01*
X99219047Y-48707023D01*
X99076190Y-48707023D01*
X98885714Y-48659404D01*
X98790476Y-48611785D01*
X98695238Y-48516547D01*
X98647619Y-48373690D01*
X98647619Y-48135595D01*
X99647619Y-49611785D02*
X99647619Y-49135595D01*
X99171428Y-49087976D01*
X99219047Y-49135595D01*
X99266666Y-49230833D01*
X99266666Y-49468928D01*
X99219047Y-49564166D01*
X99171428Y-49611785D01*
X99076190Y-49659404D01*
X98838095Y-49659404D01*
X98742857Y-49611785D01*
X98695238Y-49564166D01*
X98647619Y-49468928D01*
X98647619Y-49230833D01*
X98695238Y-49135595D01*
X98742857Y-49087976D01*
X108847619Y-48135595D02*
X109847619Y-48135595D01*
X109847619Y-48373690D01*
X109800000Y-48516547D01*
X109704761Y-48611785D01*
X109609523Y-48659404D01*
X109419047Y-48707023D01*
X109276190Y-48707023D01*
X109085714Y-48659404D01*
X108990476Y-48611785D01*
X108895238Y-48516547D01*
X108847619Y-48373690D01*
X108847619Y-48135595D01*
X108847619Y-49659404D02*
X108847619Y-49087976D01*
X108847619Y-49373690D02*
X109847619Y-49373690D01*
X109704761Y-49278452D01*
X109609523Y-49183214D01*
X109561904Y-49087976D01*
X103747619Y-48135595D02*
X104747619Y-48135595D01*
X104747619Y-48373690D01*
X104700000Y-48516547D01*
X104604761Y-48611785D01*
X104509523Y-48659404D01*
X104319047Y-48707023D01*
X104176190Y-48707023D01*
X103985714Y-48659404D01*
X103890476Y-48611785D01*
X103795238Y-48516547D01*
X103747619Y-48373690D01*
X103747619Y-48135595D01*
X104747619Y-49040357D02*
X104747619Y-49659404D01*
X104366666Y-49326071D01*
X104366666Y-49468928D01*
X104319047Y-49564166D01*
X104271428Y-49611785D01*
X104176190Y-49659404D01*
X103938095Y-49659404D01*
X103842857Y-49611785D01*
X103795238Y-49564166D01*
X103747619Y-49468928D01*
X103747619Y-49183214D01*
X103795238Y-49087976D01*
X103842857Y-49040357D01*
X96147619Y-48135595D02*
X97147619Y-48135595D01*
X97147619Y-48373690D01*
X97100000Y-48516547D01*
X97004761Y-48611785D01*
X96909523Y-48659404D01*
X96719047Y-48707023D01*
X96576190Y-48707023D01*
X96385714Y-48659404D01*
X96290476Y-48611785D01*
X96195238Y-48516547D01*
X96147619Y-48373690D01*
X96147619Y-48135595D01*
X97147619Y-49564166D02*
X97147619Y-49373690D01*
X97100000Y-49278452D01*
X97052380Y-49230833D01*
X96909523Y-49135595D01*
X96719047Y-49087976D01*
X96338095Y-49087976D01*
X96242857Y-49135595D01*
X96195238Y-49183214D01*
X96147619Y-49278452D01*
X96147619Y-49468928D01*
X96195238Y-49564166D01*
X96242857Y-49611785D01*
X96338095Y-49659404D01*
X96576190Y-49659404D01*
X96671428Y-49611785D01*
X96719047Y-49564166D01*
X96766666Y-49468928D01*
X96766666Y-49278452D01*
X96719047Y-49183214D01*
X96671428Y-49135595D01*
X96576190Y-49087976D01*
X93547619Y-48135595D02*
X94547619Y-48135595D01*
X94547619Y-48373690D01*
X94500000Y-48516547D01*
X94404761Y-48611785D01*
X94309523Y-48659404D01*
X94119047Y-48707023D01*
X93976190Y-48707023D01*
X93785714Y-48659404D01*
X93690476Y-48611785D01*
X93595238Y-48516547D01*
X93547619Y-48373690D01*
X93547619Y-48135595D01*
X94547619Y-49040357D02*
X94547619Y-49707023D01*
X93547619Y-49278452D01*
X106247619Y-48135595D02*
X107247619Y-48135595D01*
X107247619Y-48373690D01*
X107200000Y-48516547D01*
X107104761Y-48611785D01*
X107009523Y-48659404D01*
X106819047Y-48707023D01*
X106676190Y-48707023D01*
X106485714Y-48659404D01*
X106390476Y-48611785D01*
X106295238Y-48516547D01*
X106247619Y-48373690D01*
X106247619Y-48135595D01*
X107152380Y-49087976D02*
X107200000Y-49135595D01*
X107247619Y-49230833D01*
X107247619Y-49468928D01*
X107200000Y-49564166D01*
X107152380Y-49611785D01*
X107057142Y-49659404D01*
X106961904Y-49659404D01*
X106819047Y-49611785D01*
X106247619Y-49040357D01*
X106247619Y-49659404D01*
X185571428Y-133864404D02*
X185571428Y-133102500D01*
X185952380Y-133483452D02*
X185190476Y-133483452D01*
X184952380Y-132150119D02*
X184952380Y-132626309D01*
X185428571Y-132673928D01*
X185380952Y-132626309D01*
X185333333Y-132531071D01*
X185333333Y-132292976D01*
X185380952Y-132197738D01*
X185428571Y-132150119D01*
X185523809Y-132102500D01*
X185761904Y-132102500D01*
X185857142Y-132150119D01*
X185904761Y-132197738D01*
X185952380Y-132292976D01*
X185952380Y-132531071D01*
X185904761Y-132626309D01*
X185857142Y-132673928D01*
X184952380Y-131816785D02*
X185952380Y-131483452D01*
X184952380Y-131150119D01*
X85900000Y-133340595D02*
X85852380Y-133435833D01*
X85852380Y-133578690D01*
X85900000Y-133721547D01*
X85995238Y-133816785D01*
X86090476Y-133864404D01*
X86280952Y-133912023D01*
X86423809Y-133912023D01*
X86614285Y-133864404D01*
X86709523Y-133816785D01*
X86804761Y-133721547D01*
X86852380Y-133578690D01*
X86852380Y-133483452D01*
X86804761Y-133340595D01*
X86757142Y-133292976D01*
X86423809Y-133292976D01*
X86423809Y-133483452D01*
X86852380Y-132864404D02*
X85852380Y-132864404D01*
X86852380Y-132292976D01*
X85852380Y-132292976D01*
X86852380Y-131816785D02*
X85852380Y-131816785D01*
X85852380Y-131578690D01*
X85900000Y-131435833D01*
X85995238Y-131340595D01*
X86090476Y-131292976D01*
X86280952Y-131245357D01*
X86423809Y-131245357D01*
X86614285Y-131292976D01*
X86709523Y-131340595D01*
X86804761Y-131435833D01*
X86852380Y-131578690D01*
X86852380Y-131816785D01*
X112252380Y-133864404D02*
X111252380Y-133864404D01*
X111252380Y-133626309D01*
X111300000Y-133483452D01*
X111395238Y-133388214D01*
X111490476Y-133340595D01*
X111680952Y-133292976D01*
X111823809Y-133292976D01*
X112014285Y-133340595D01*
X112109523Y-133388214D01*
X112204761Y-133483452D01*
X112252380Y-133626309D01*
X112252380Y-133864404D01*
X111252380Y-132673928D02*
X111252380Y-132578690D01*
X111300000Y-132483452D01*
X111347619Y-132435833D01*
X111442857Y-132388214D01*
X111633333Y-132340595D01*
X111871428Y-132340595D01*
X112061904Y-132388214D01*
X112157142Y-132435833D01*
X112204761Y-132483452D01*
X112252380Y-132578690D01*
X112252380Y-132673928D01*
X112204761Y-132769166D01*
X112157142Y-132816785D01*
X112061904Y-132864404D01*
X111871428Y-132912023D01*
X111633333Y-132912023D01*
X111442857Y-132864404D01*
X111347619Y-132816785D01*
X111300000Y-132769166D01*
X111252380Y-132673928D01*
X109652380Y-133864404D02*
X108652380Y-133864404D01*
X108652380Y-133626309D01*
X108700000Y-133483452D01*
X108795238Y-133388214D01*
X108890476Y-133340595D01*
X109080952Y-133292976D01*
X109223809Y-133292976D01*
X109414285Y-133340595D01*
X109509523Y-133388214D01*
X109604761Y-133483452D01*
X109652380Y-133626309D01*
X109652380Y-133864404D01*
X109652380Y-132340595D02*
X109652380Y-132912023D01*
X109652380Y-132626309D02*
X108652380Y-132626309D01*
X108795238Y-132721547D01*
X108890476Y-132816785D01*
X108938095Y-132912023D01*
X107152380Y-133864404D02*
X106152380Y-133864404D01*
X106152380Y-133626309D01*
X106200000Y-133483452D01*
X106295238Y-133388214D01*
X106390476Y-133340595D01*
X106580952Y-133292976D01*
X106723809Y-133292976D01*
X106914285Y-133340595D01*
X107009523Y-133388214D01*
X107104761Y-133483452D01*
X107152380Y-133626309D01*
X107152380Y-133864404D01*
X106247619Y-132912023D02*
X106200000Y-132864404D01*
X106152380Y-132769166D01*
X106152380Y-132531071D01*
X106200000Y-132435833D01*
X106247619Y-132388214D01*
X106342857Y-132340595D01*
X106438095Y-132340595D01*
X106580952Y-132388214D01*
X107152380Y-132959642D01*
X107152380Y-132340595D01*
X104652380Y-133864404D02*
X103652380Y-133864404D01*
X103652380Y-133626309D01*
X103700000Y-133483452D01*
X103795238Y-133388214D01*
X103890476Y-133340595D01*
X104080952Y-133292976D01*
X104223809Y-133292976D01*
X104414285Y-133340595D01*
X104509523Y-133388214D01*
X104604761Y-133483452D01*
X104652380Y-133626309D01*
X104652380Y-133864404D01*
X103652380Y-132959642D02*
X103652380Y-132340595D01*
X104033333Y-132673928D01*
X104033333Y-132531071D01*
X104080952Y-132435833D01*
X104128571Y-132388214D01*
X104223809Y-132340595D01*
X104461904Y-132340595D01*
X104557142Y-132388214D01*
X104604761Y-132435833D01*
X104652380Y-132531071D01*
X104652380Y-132816785D01*
X104604761Y-132912023D01*
X104557142Y-132959642D01*
X102052380Y-133864404D02*
X101052380Y-133864404D01*
X101052380Y-133626309D01*
X101100000Y-133483452D01*
X101195238Y-133388214D01*
X101290476Y-133340595D01*
X101480952Y-133292976D01*
X101623809Y-133292976D01*
X101814285Y-133340595D01*
X101909523Y-133388214D01*
X102004761Y-133483452D01*
X102052380Y-133626309D01*
X102052380Y-133864404D01*
X101385714Y-132435833D02*
X102052380Y-132435833D01*
X101004761Y-132673928D02*
X101719047Y-132912023D01*
X101719047Y-132292976D01*
X99552380Y-133864404D02*
X98552380Y-133864404D01*
X98552380Y-133626309D01*
X98600000Y-133483452D01*
X98695238Y-133388214D01*
X98790476Y-133340595D01*
X98980952Y-133292976D01*
X99123809Y-133292976D01*
X99314285Y-133340595D01*
X99409523Y-133388214D01*
X99504761Y-133483452D01*
X99552380Y-133626309D01*
X99552380Y-133864404D01*
X98552380Y-132388214D02*
X98552380Y-132864404D01*
X99028571Y-132912023D01*
X98980952Y-132864404D01*
X98933333Y-132769166D01*
X98933333Y-132531071D01*
X98980952Y-132435833D01*
X99028571Y-132388214D01*
X99123809Y-132340595D01*
X99361904Y-132340595D01*
X99457142Y-132388214D01*
X99504761Y-132435833D01*
X99552380Y-132531071D01*
X99552380Y-132769166D01*
X99504761Y-132864404D01*
X99457142Y-132912023D01*
X94452380Y-133864404D02*
X93452380Y-133864404D01*
X93452380Y-133626309D01*
X93500000Y-133483452D01*
X93595238Y-133388214D01*
X93690476Y-133340595D01*
X93880952Y-133292976D01*
X94023809Y-133292976D01*
X94214285Y-133340595D01*
X94309523Y-133388214D01*
X94404761Y-133483452D01*
X94452380Y-133626309D01*
X94452380Y-133864404D01*
X93452380Y-132959642D02*
X93452380Y-132292976D01*
X94452380Y-132721547D01*
X96952380Y-133864404D02*
X95952380Y-133864404D01*
X95952380Y-133626309D01*
X96000000Y-133483452D01*
X96095238Y-133388214D01*
X96190476Y-133340595D01*
X96380952Y-133292976D01*
X96523809Y-133292976D01*
X96714285Y-133340595D01*
X96809523Y-133388214D01*
X96904761Y-133483452D01*
X96952380Y-133626309D01*
X96952380Y-133864404D01*
X95952380Y-132435833D02*
X95952380Y-132626309D01*
X96000000Y-132721547D01*
X96047619Y-132769166D01*
X96190476Y-132864404D01*
X96380952Y-132912023D01*
X96761904Y-132912023D01*
X96857142Y-132864404D01*
X96904761Y-132816785D01*
X96952380Y-132721547D01*
X96952380Y-132531071D01*
X96904761Y-132435833D01*
X96857142Y-132388214D01*
X96761904Y-132340595D01*
X96523809Y-132340595D01*
X96428571Y-132388214D01*
X96380952Y-132435833D01*
X96333333Y-132531071D01*
X96333333Y-132721547D01*
X96380952Y-132816785D01*
X96428571Y-132864404D01*
X96523809Y-132912023D01*
D13*
X101470000Y-68480000D02*
X101470000Y-73940000D01*
X101470000Y-73940000D02*
X137150000Y-73940000D01*
X137150000Y-73940000D02*
X137150000Y-61020000D01*
X137150000Y-61020000D02*
X101470000Y-61020000D01*
X101470000Y-61020000D02*
X101470000Y-66480000D01*
X101410000Y-76430000D02*
X137210000Y-76430000D01*
X137210000Y-76430000D02*
X137210000Y-58530000D01*
X137210000Y-58530000D02*
X101410000Y-58530000D01*
X101410000Y-58530000D02*
X101410000Y-76430000D01*
X101470000Y-66480000D02*
G75*
G02*
X101470000Y-68480000I0J-1000000D01*
G01*
X177360000Y-61370000D02*
X175710000Y-61370000D01*
X177360000Y-79270000D02*
X177360000Y-61370000D01*
X172060000Y-79270000D02*
X177360000Y-79270000D01*
X172060000Y-61370000D02*
X172060000Y-79270000D01*
X173710000Y-61370000D02*
X172060000Y-61370000D01*
X175710000Y-61370000D02*
G75*
G02*
X173710000Y-61370000I-1000000J0D01*
G01*
X121070000Y-119540000D02*
X121070000Y-121190000D01*
X141510000Y-119540000D02*
X121070000Y-119540000D01*
X141510000Y-124840000D02*
X141510000Y-119540000D01*
X121070000Y-124840000D02*
X141510000Y-124840000D01*
X121070000Y-123190000D02*
X121070000Y-124840000D01*
X121070000Y-121190000D02*
G75*
G02*
X121070000Y-123190000I0J-1000000D01*
G01*
X152370000Y-119540000D02*
X152370000Y-121190000D01*
X172810000Y-119540000D02*
X152370000Y-119540000D01*
X172810000Y-124840000D02*
X172810000Y-119540000D01*
X152370000Y-124840000D02*
X172810000Y-124840000D01*
X152370000Y-123190000D02*
X152370000Y-124840000D01*
X152370000Y-121190000D02*
G75*
G02*
X152370000Y-123190000I0J-1000000D01*
G01*
X150665000Y-56927064D02*
X150665000Y-56472936D01*
X152135000Y-56927064D02*
X152135000Y-56472936D01*
X163965000Y-56927064D02*
X163965000Y-56472936D01*
X165435000Y-56927064D02*
X165435000Y-56472936D01*
X159020000Y-59070000D02*
X161680000Y-59070000D01*
X159020000Y-56470000D02*
X159020000Y-59070000D01*
X161680000Y-56470000D02*
X161680000Y-59070000D01*
X159020000Y-56470000D02*
X161680000Y-56470000D01*
X159020000Y-55200000D02*
X159020000Y-53870000D01*
X159020000Y-53870000D02*
X160350000Y-53870000D01*
X154370000Y-59070000D02*
X157030000Y-59070000D01*
X154370000Y-56470000D02*
X154370000Y-59070000D01*
X157030000Y-56470000D02*
X157030000Y-59070000D01*
X154370000Y-56470000D02*
X157030000Y-56470000D01*
X154370000Y-55200000D02*
X154370000Y-53870000D01*
X154370000Y-53870000D02*
X155700000Y-53870000D01*
X90970000Y-93190000D02*
X90970000Y-94840000D01*
X90970000Y-94840000D02*
X116490000Y-94840000D01*
X116490000Y-94840000D02*
X116490000Y-89540000D01*
X116490000Y-89540000D02*
X90970000Y-89540000D01*
X90970000Y-89540000D02*
X90970000Y-91190000D01*
X90970000Y-91190000D02*
G75*
G02*
X90970000Y-93190000I0J-1000000D01*
G01*
X145827064Y-66235000D02*
X145372936Y-66235000D01*
X145827064Y-64765000D02*
X145372936Y-64765000D01*
X152772936Y-64865000D02*
X153227064Y-64865000D01*
X152772936Y-66335000D02*
X153227064Y-66335000D01*
X146600000Y-68140000D02*
X143740000Y-68140000D01*
X143740000Y-68140000D02*
X143740000Y-70060000D01*
X143740000Y-70060000D02*
X146600000Y-70060000D01*
X153975000Y-68140000D02*
X151115000Y-68140000D01*
X151115000Y-68140000D02*
X151115000Y-70060000D01*
X151115000Y-70060000D02*
X153975000Y-70060000D01*
X117438748Y-117665000D02*
X117961252Y-117665000D01*
X117438748Y-119135000D02*
X117961252Y-119135000D01*
X151438748Y-114165000D02*
X151961252Y-114165000D01*
X151438748Y-115635000D02*
X151961252Y-115635000D01*
X91038748Y-84165000D02*
X91561252Y-84165000D01*
X91038748Y-85635000D02*
X91561252Y-85635000D01*
X98038748Y-59165000D02*
X98561252Y-59165000D01*
X98038748Y-60635000D02*
X98561252Y-60635000D01*
X179861252Y-59335000D02*
X179338748Y-59335000D01*
X179861252Y-57865000D02*
X179338748Y-57865000D01*
X120527064Y-104665000D02*
X120072936Y-104665000D01*
X120527064Y-106135000D02*
X120072936Y-106135000D01*
X125540000Y-106360000D02*
X128400000Y-106360000D01*
X125540000Y-104440000D02*
X125540000Y-106360000D01*
X128400000Y-104440000D02*
X125540000Y-104440000D01*
X124872936Y-87735000D02*
X125327064Y-87735000D01*
X124872936Y-86265000D02*
X125327064Y-86265000D01*
X130387221Y-87735000D02*
X130841349Y-87735000D01*
X130387221Y-86265000D02*
X130841349Y-86265000D01*
X135901506Y-87735000D02*
X136355634Y-87735000D01*
X135901506Y-86265000D02*
X136355634Y-86265000D01*
X141415791Y-87735000D02*
X141869919Y-87735000D01*
X141415791Y-86265000D02*
X141869919Y-86265000D01*
X146930076Y-87735000D02*
X147384204Y-87735000D01*
X146930076Y-86265000D02*
X147384204Y-86265000D01*
X152444361Y-87735000D02*
X152898489Y-87735000D01*
X152444361Y-86265000D02*
X152898489Y-86265000D01*
X157958646Y-87735000D02*
X158412774Y-87735000D01*
X157958646Y-86265000D02*
X158412774Y-86265000D01*
X163472936Y-87735000D02*
X163927064Y-87735000D01*
X163472936Y-86265000D02*
X163927064Y-86265000D01*
X123240000Y-91360000D02*
X126100000Y-91360000D01*
X123240000Y-89440000D02*
X123240000Y-91360000D01*
X126100000Y-89440000D02*
X123240000Y-89440000D01*
X128740000Y-91360000D02*
X131600000Y-91360000D01*
X128740000Y-89440000D02*
X128740000Y-91360000D01*
X131600000Y-89440000D02*
X128740000Y-89440000D01*
X134240000Y-91360000D02*
X137100000Y-91360000D01*
X134240000Y-89440000D02*
X134240000Y-91360000D01*
X137100000Y-89440000D02*
X134240000Y-89440000D01*
X139782855Y-91360000D02*
X142642855Y-91360000D01*
X139782855Y-89440000D02*
X139782855Y-91360000D01*
X142642855Y-89440000D02*
X139782855Y-89440000D01*
X145297140Y-91360000D02*
X148157140Y-91360000D01*
X145297140Y-89440000D02*
X145297140Y-91360000D01*
X148157140Y-89440000D02*
X145297140Y-89440000D01*
X150811425Y-91360000D02*
X153671425Y-91360000D01*
X150811425Y-89440000D02*
X150811425Y-91360000D01*
X153671425Y-89440000D02*
X150811425Y-89440000D01*
X156325710Y-91360000D02*
X159185710Y-91360000D01*
X156325710Y-89440000D02*
X156325710Y-91360000D01*
X159185710Y-89440000D02*
X156325710Y-89440000D01*
X161840000Y-91360000D02*
X164700000Y-91360000D01*
X161840000Y-89440000D02*
X161840000Y-91360000D01*
X164700000Y-89440000D02*
X161840000Y-89440000D01*
D11*
X99922380Y-68241904D02*
X100731904Y-68241904D01*
X100827142Y-68194285D01*
X100874761Y-68146666D01*
X100922380Y-68051428D01*
X100922380Y-67860952D01*
X100874761Y-67765714D01*
X100827142Y-67718095D01*
X100731904Y-67670476D01*
X99922380Y-67670476D01*
X100922380Y-66670476D02*
X100922380Y-67241904D01*
X100922380Y-66956190D02*
X99922380Y-66956190D01*
X100065238Y-67051428D01*
X100160476Y-67146666D01*
X100208095Y-67241904D01*
X138507142Y-72551428D02*
X138554761Y-72599047D01*
X138602380Y-72741904D01*
X138602380Y-72837142D01*
X138554761Y-72980000D01*
X138459523Y-73075238D01*
X138364285Y-73122857D01*
X138173809Y-73170476D01*
X138030952Y-73170476D01*
X137840476Y-73122857D01*
X137745238Y-73075238D01*
X137650000Y-72980000D01*
X137602380Y-72837142D01*
X137602380Y-72741904D01*
X137650000Y-72599047D01*
X137697619Y-72551428D01*
X138126190Y-71932380D02*
X138602380Y-71932380D01*
X137602380Y-72265714D02*
X138126190Y-71932380D01*
X137602380Y-71599047D01*
X137602380Y-70837142D02*
X137602380Y-71027619D01*
X137650000Y-71122857D01*
X137697619Y-71170476D01*
X137840476Y-71265714D01*
X138030952Y-71313333D01*
X138411904Y-71313333D01*
X138507142Y-71265714D01*
X138554761Y-71218095D01*
X138602380Y-71122857D01*
X138602380Y-70932380D01*
X138554761Y-70837142D01*
X138507142Y-70789523D01*
X138411904Y-70741904D01*
X138173809Y-70741904D01*
X138078571Y-70789523D01*
X138030952Y-70837142D01*
X137983333Y-70932380D01*
X137983333Y-71122857D01*
X138030952Y-71218095D01*
X138078571Y-71265714D01*
X138173809Y-71313333D01*
X137697619Y-70360952D02*
X137650000Y-70313333D01*
X137602380Y-70218095D01*
X137602380Y-69980000D01*
X137650000Y-69884761D01*
X137697619Y-69837142D01*
X137792857Y-69789523D01*
X137888095Y-69789523D01*
X138030952Y-69837142D01*
X138602380Y-70408571D01*
X138602380Y-69789523D01*
X137697619Y-69408571D02*
X137650000Y-69360952D01*
X137602380Y-69265714D01*
X137602380Y-69027619D01*
X137650000Y-68932380D01*
X137697619Y-68884761D01*
X137792857Y-68837142D01*
X137888095Y-68837142D01*
X138030952Y-68884761D01*
X138602380Y-69456190D01*
X138602380Y-68837142D01*
X137602380Y-67932380D02*
X137602380Y-68408571D01*
X138078571Y-68456190D01*
X138030952Y-68408571D01*
X137983333Y-68313333D01*
X137983333Y-68075238D01*
X138030952Y-67980000D01*
X138078571Y-67932380D01*
X138173809Y-67884761D01*
X138411904Y-67884761D01*
X138507142Y-67932380D01*
X138554761Y-67980000D01*
X138602380Y-68075238D01*
X138602380Y-68313333D01*
X138554761Y-68408571D01*
X138507142Y-68456190D01*
X137602380Y-67027619D02*
X137602380Y-67218095D01*
X137650000Y-67313333D01*
X137697619Y-67360952D01*
X137840476Y-67456190D01*
X138030952Y-67503809D01*
X138411904Y-67503809D01*
X138507142Y-67456190D01*
X138554761Y-67408571D01*
X138602380Y-67313333D01*
X138602380Y-67122857D01*
X138554761Y-67027619D01*
X138507142Y-66980000D01*
X138411904Y-66932380D01*
X138173809Y-66932380D01*
X138078571Y-66980000D01*
X138030952Y-67027619D01*
X137983333Y-67122857D01*
X137983333Y-67313333D01*
X138030952Y-67408571D01*
X138078571Y-67456190D01*
X138173809Y-67503809D01*
X138221428Y-66503809D02*
X138221428Y-65741904D01*
X137602380Y-65360952D02*
X137602380Y-64694285D01*
X138602380Y-65122857D01*
X137602380Y-64122857D02*
X137602380Y-64027619D01*
X137650000Y-63932380D01*
X137697619Y-63884761D01*
X137792857Y-63837142D01*
X137983333Y-63789523D01*
X138221428Y-63789523D01*
X138411904Y-63837142D01*
X138507142Y-63884761D01*
X138554761Y-63932380D01*
X138602380Y-64027619D01*
X138602380Y-64122857D01*
X138554761Y-64218095D01*
X138507142Y-64265714D01*
X138411904Y-64313333D01*
X138221428Y-64360952D01*
X137983333Y-64360952D01*
X137792857Y-64313333D01*
X137697619Y-64265714D01*
X137650000Y-64218095D01*
X137602380Y-64122857D01*
X138602380Y-63360952D02*
X137602380Y-63360952D01*
X137602380Y-62980000D01*
X137650000Y-62884761D01*
X137697619Y-62837142D01*
X137792857Y-62789523D01*
X137935714Y-62789523D01*
X138030952Y-62837142D01*
X138078571Y-62884761D01*
X138126190Y-62980000D01*
X138126190Y-63360952D01*
X138507142Y-61789523D02*
X138554761Y-61837142D01*
X138602380Y-61980000D01*
X138602380Y-62075238D01*
X138554761Y-62218095D01*
X138459523Y-62313333D01*
X138364285Y-62360952D01*
X138173809Y-62408571D01*
X138030952Y-62408571D01*
X137840476Y-62360952D01*
X137745238Y-62313333D01*
X137650000Y-62218095D01*
X137602380Y-62075238D01*
X137602380Y-61980000D01*
X137650000Y-61837142D01*
X137697619Y-61789523D01*
X113980952Y-77552380D02*
X114600000Y-77552380D01*
X114266666Y-77933333D01*
X114409523Y-77933333D01*
X114504761Y-77980952D01*
X114552380Y-78028571D01*
X114600000Y-78123809D01*
X114600000Y-78361904D01*
X114552380Y-78457142D01*
X114504761Y-78504761D01*
X114409523Y-78552380D01*
X114123809Y-78552380D01*
X114028571Y-78504761D01*
X113980952Y-78457142D01*
X114980952Y-77647619D02*
X115028571Y-77600000D01*
X115123809Y-77552380D01*
X115361904Y-77552380D01*
X115457142Y-77600000D01*
X115504761Y-77647619D01*
X115552380Y-77742857D01*
X115552380Y-77838095D01*
X115504761Y-77980952D01*
X114933333Y-78552380D01*
X115552380Y-78552380D01*
X115980952Y-78552380D02*
X115980952Y-77552380D01*
X116552380Y-78552380D02*
X116123809Y-77980952D01*
X116552380Y-77552380D02*
X115980952Y-78123809D01*
X116885714Y-78552380D02*
X117409523Y-77885714D01*
X116885714Y-77885714D02*
X117409523Y-78552380D01*
X117933333Y-77980952D02*
X117838095Y-77933333D01*
X117790476Y-77885714D01*
X117742857Y-77790476D01*
X117742857Y-77742857D01*
X117790476Y-77647619D01*
X117838095Y-77600000D01*
X117933333Y-77552380D01*
X118123809Y-77552380D01*
X118219047Y-77600000D01*
X118266666Y-77647619D01*
X118314285Y-77742857D01*
X118314285Y-77790476D01*
X118266666Y-77885714D01*
X118219047Y-77933333D01*
X118123809Y-77980952D01*
X117933333Y-77980952D01*
X117838095Y-78028571D01*
X117790476Y-78076190D01*
X117742857Y-78171428D01*
X117742857Y-78361904D01*
X117790476Y-78457142D01*
X117838095Y-78504761D01*
X117933333Y-78552380D01*
X118123809Y-78552380D01*
X118219047Y-78504761D01*
X118266666Y-78457142D01*
X118314285Y-78361904D01*
X118314285Y-78171428D01*
X118266666Y-78076190D01*
X118219047Y-78028571D01*
X118123809Y-77980952D01*
X119457142Y-78504761D02*
X119600000Y-78552380D01*
X119838095Y-78552380D01*
X119933333Y-78504761D01*
X119980952Y-78457142D01*
X120028571Y-78361904D01*
X120028571Y-78266666D01*
X119980952Y-78171428D01*
X119933333Y-78123809D01*
X119838095Y-78076190D01*
X119647619Y-78028571D01*
X119552380Y-77980952D01*
X119504761Y-77933333D01*
X119457142Y-77838095D01*
X119457142Y-77742857D01*
X119504761Y-77647619D01*
X119552380Y-77600000D01*
X119647619Y-77552380D01*
X119885714Y-77552380D01*
X120028571Y-77600000D01*
X120314285Y-77885714D02*
X120695238Y-77885714D01*
X120457142Y-77552380D02*
X120457142Y-78409523D01*
X120504761Y-78504761D01*
X120600000Y-78552380D01*
X120695238Y-78552380D01*
X121457142Y-78552380D02*
X121457142Y-78028571D01*
X121409523Y-77933333D01*
X121314285Y-77885714D01*
X121123809Y-77885714D01*
X121028571Y-77933333D01*
X121457142Y-78504761D02*
X121361904Y-78552380D01*
X121123809Y-78552380D01*
X121028571Y-78504761D01*
X120980952Y-78409523D01*
X120980952Y-78314285D01*
X121028571Y-78219047D01*
X121123809Y-78171428D01*
X121361904Y-78171428D01*
X121457142Y-78123809D01*
X121790476Y-77885714D02*
X122171428Y-77885714D01*
X121933333Y-77552380D02*
X121933333Y-78409523D01*
X121980952Y-78504761D01*
X122076190Y-78552380D01*
X122171428Y-78552380D01*
X122504761Y-78552380D02*
X122504761Y-77885714D01*
X122504761Y-77552380D02*
X122457142Y-77600000D01*
X122504761Y-77647619D01*
X122552380Y-77600000D01*
X122504761Y-77552380D01*
X122504761Y-77647619D01*
X123409523Y-78504761D02*
X123314285Y-78552380D01*
X123123809Y-78552380D01*
X123028571Y-78504761D01*
X122980952Y-78457142D01*
X122933333Y-78361904D01*
X122933333Y-78076190D01*
X122980952Y-77980952D01*
X123028571Y-77933333D01*
X123123809Y-77885714D01*
X123314285Y-77885714D01*
X123409523Y-77933333D01*
X125171428Y-78552380D02*
X124838095Y-78076190D01*
X124600000Y-78552380D02*
X124600000Y-77552380D01*
X124980952Y-77552380D01*
X125076190Y-77600000D01*
X125123809Y-77647619D01*
X125171428Y-77742857D01*
X125171428Y-77885714D01*
X125123809Y-77980952D01*
X125076190Y-78028571D01*
X124980952Y-78076190D01*
X124600000Y-78076190D01*
X125552380Y-78266666D02*
X126028571Y-78266666D01*
X125457142Y-78552380D02*
X125790476Y-77552380D01*
X126123809Y-78552380D01*
X126457142Y-78552380D02*
X126457142Y-77552380D01*
X126790476Y-78266666D01*
X127123809Y-77552380D01*
X127123809Y-78552380D01*
X173948095Y-59822380D02*
X173948095Y-60631904D01*
X173995714Y-60727142D01*
X174043333Y-60774761D01*
X174138571Y-60822380D01*
X174329047Y-60822380D01*
X174424285Y-60774761D01*
X174471904Y-60727142D01*
X174519523Y-60631904D01*
X174519523Y-59822380D01*
X175471904Y-59822380D02*
X174995714Y-59822380D01*
X174948095Y-60298571D01*
X174995714Y-60250952D01*
X175090952Y-60203333D01*
X175329047Y-60203333D01*
X175424285Y-60250952D01*
X175471904Y-60298571D01*
X175519523Y-60393809D01*
X175519523Y-60631904D01*
X175471904Y-60727142D01*
X175424285Y-60774761D01*
X175329047Y-60822380D01*
X175090952Y-60822380D01*
X174995714Y-60774761D01*
X174948095Y-60727142D01*
X171543333Y-79722380D02*
X172210000Y-79722380D01*
X171781428Y-80722380D01*
X173019523Y-80055714D02*
X173019523Y-80722380D01*
X172781428Y-79674761D02*
X172543333Y-80389047D01*
X173162380Y-80389047D01*
X173543333Y-80722380D02*
X173543333Y-79722380D01*
X173543333Y-80198571D02*
X174114761Y-80198571D01*
X174114761Y-80722380D02*
X174114761Y-79722380D01*
X175162380Y-80627142D02*
X175114761Y-80674761D01*
X174971904Y-80722380D01*
X174876666Y-80722380D01*
X174733809Y-80674761D01*
X174638571Y-80579523D01*
X174590952Y-80484285D01*
X174543333Y-80293809D01*
X174543333Y-80150952D01*
X174590952Y-79960476D01*
X174638571Y-79865238D01*
X174733809Y-79770000D01*
X174876666Y-79722380D01*
X174971904Y-79722380D01*
X175114761Y-79770000D01*
X175162380Y-79817619D01*
X175448095Y-79722380D02*
X176019523Y-79722380D01*
X175733809Y-80722380D02*
X175733809Y-79722380D01*
X176543333Y-79722380D02*
X176638571Y-79722380D01*
X176733809Y-79770000D01*
X176781428Y-79817619D01*
X176829047Y-79912857D01*
X176876666Y-80103333D01*
X176876666Y-80341428D01*
X176829047Y-80531904D01*
X176781428Y-80627142D01*
X176733809Y-80674761D01*
X176638571Y-80722380D01*
X176543333Y-80722380D01*
X176448095Y-80674761D01*
X176400476Y-80627142D01*
X176352857Y-80531904D01*
X176305238Y-80341428D01*
X176305238Y-80103333D01*
X176352857Y-79912857D01*
X176400476Y-79817619D01*
X176448095Y-79770000D01*
X176543333Y-79722380D01*
X177495714Y-79722380D02*
X177590952Y-79722380D01*
X177686190Y-79770000D01*
X177733809Y-79817619D01*
X177781428Y-79912857D01*
X177829047Y-80103333D01*
X177829047Y-80341428D01*
X177781428Y-80531904D01*
X177733809Y-80627142D01*
X177686190Y-80674761D01*
X177590952Y-80722380D01*
X177495714Y-80722380D01*
X177400476Y-80674761D01*
X177352857Y-80627142D01*
X177305238Y-80531904D01*
X177257619Y-80341428D01*
X177257619Y-80103333D01*
X177305238Y-79912857D01*
X177352857Y-79817619D01*
X177400476Y-79770000D01*
X177495714Y-79722380D01*
X170309523Y-82252380D02*
X170309523Y-81252380D01*
X170880952Y-82252380D01*
X170880952Y-81252380D01*
X171309523Y-81966666D02*
X171785714Y-81966666D01*
X171214285Y-82252380D02*
X171547619Y-81252380D01*
X171880952Y-82252380D01*
X172214285Y-82252380D02*
X172214285Y-81252380D01*
X172785714Y-82252380D01*
X172785714Y-81252380D01*
X173261904Y-82252380D02*
X173261904Y-81252380D01*
X173500000Y-81252380D01*
X173642857Y-81300000D01*
X173738095Y-81395238D01*
X173785714Y-81490476D01*
X173833333Y-81680952D01*
X173833333Y-81823809D01*
X173785714Y-82014285D01*
X173738095Y-82109523D01*
X173642857Y-82204761D01*
X173500000Y-82252380D01*
X173261904Y-82252380D01*
X175547619Y-81300000D02*
X175452380Y-81252380D01*
X175309523Y-81252380D01*
X175166666Y-81300000D01*
X175071428Y-81395238D01*
X175023809Y-81490476D01*
X174976190Y-81680952D01*
X174976190Y-81823809D01*
X175023809Y-82014285D01*
X175071428Y-82109523D01*
X175166666Y-82204761D01*
X175309523Y-82252380D01*
X175404761Y-82252380D01*
X175547619Y-82204761D01*
X175595238Y-82157142D01*
X175595238Y-81823809D01*
X175404761Y-81823809D01*
X176452380Y-82252380D02*
X176452380Y-81728571D01*
X176404761Y-81633333D01*
X176309523Y-81585714D01*
X176119047Y-81585714D01*
X176023809Y-81633333D01*
X176452380Y-82204761D02*
X176357142Y-82252380D01*
X176119047Y-82252380D01*
X176023809Y-82204761D01*
X175976190Y-82109523D01*
X175976190Y-82014285D01*
X176023809Y-81919047D01*
X176119047Y-81871428D01*
X176357142Y-81871428D01*
X176452380Y-81823809D01*
X176785714Y-81585714D02*
X177166666Y-81585714D01*
X176928571Y-81252380D02*
X176928571Y-82109523D01*
X176976190Y-82204761D01*
X177071428Y-82252380D01*
X177166666Y-82252380D01*
X177880952Y-82204761D02*
X177785714Y-82252380D01*
X177595238Y-82252380D01*
X177500000Y-82204761D01*
X177452380Y-82109523D01*
X177452380Y-81728571D01*
X177500000Y-81633333D01*
X177595238Y-81585714D01*
X177785714Y-81585714D01*
X177880952Y-81633333D01*
X177928571Y-81728571D01*
X177928571Y-81823809D01*
X177452380Y-81919047D01*
X178309523Y-82204761D02*
X178404761Y-82252380D01*
X178595238Y-82252380D01*
X178690476Y-82204761D01*
X178738095Y-82109523D01*
X178738095Y-82061904D01*
X178690476Y-81966666D01*
X178595238Y-81919047D01*
X178452380Y-81919047D01*
X178357142Y-81871428D01*
X178309523Y-81776190D01*
X178309523Y-81728571D01*
X178357142Y-81633333D01*
X178452380Y-81585714D01*
X178595238Y-81585714D01*
X178690476Y-81633333D01*
X119522380Y-122951904D02*
X120331904Y-122951904D01*
X120427142Y-122904285D01*
X120474761Y-122856666D01*
X120522380Y-122761428D01*
X120522380Y-122570952D01*
X120474761Y-122475714D01*
X120427142Y-122428095D01*
X120331904Y-122380476D01*
X119522380Y-122380476D01*
X119855714Y-121475714D02*
X120522380Y-121475714D01*
X119474761Y-121713809D02*
X120189047Y-121951904D01*
X120189047Y-121332857D01*
X141962380Y-125832857D02*
X141962380Y-125166190D01*
X142962380Y-125594761D01*
X142295714Y-124356666D02*
X142962380Y-124356666D01*
X141914761Y-124594761D02*
X142629047Y-124832857D01*
X142629047Y-124213809D01*
X142962380Y-123832857D02*
X141962380Y-123832857D01*
X142438571Y-123832857D02*
X142438571Y-123261428D01*
X142962380Y-123261428D02*
X141962380Y-123261428D01*
X142867142Y-122213809D02*
X142914761Y-122261428D01*
X142962380Y-122404285D01*
X142962380Y-122499523D01*
X142914761Y-122642380D01*
X142819523Y-122737619D01*
X142724285Y-122785238D01*
X142533809Y-122832857D01*
X142390952Y-122832857D01*
X142200476Y-122785238D01*
X142105238Y-122737619D01*
X142010000Y-122642380D01*
X141962380Y-122499523D01*
X141962380Y-122404285D01*
X142010000Y-122261428D01*
X142057619Y-122213809D01*
X141962380Y-121928095D02*
X141962380Y-121356666D01*
X142962380Y-121642380D02*
X141962380Y-121642380D01*
X142962380Y-120499523D02*
X142962380Y-121070952D01*
X142962380Y-120785238D02*
X141962380Y-120785238D01*
X142105238Y-120880476D01*
X142200476Y-120975714D01*
X142248095Y-121070952D01*
X141962380Y-120166190D02*
X141962380Y-119547142D01*
X142343333Y-119880476D01*
X142343333Y-119737619D01*
X142390952Y-119642380D01*
X142438571Y-119594761D01*
X142533809Y-119547142D01*
X142771904Y-119547142D01*
X142867142Y-119594761D01*
X142914761Y-119642380D01*
X142962380Y-119737619D01*
X142962380Y-120023333D01*
X142914761Y-120118571D01*
X142867142Y-120166190D01*
X142390952Y-118975714D02*
X142343333Y-119070952D01*
X142295714Y-119118571D01*
X142200476Y-119166190D01*
X142152857Y-119166190D01*
X142057619Y-119118571D01*
X142010000Y-119070952D01*
X141962380Y-118975714D01*
X141962380Y-118785238D01*
X142010000Y-118690000D01*
X142057619Y-118642380D01*
X142152857Y-118594761D01*
X142200476Y-118594761D01*
X142295714Y-118642380D01*
X142343333Y-118690000D01*
X142390952Y-118785238D01*
X142390952Y-118975714D01*
X142438571Y-119070952D01*
X142486190Y-119118571D01*
X142581428Y-119166190D01*
X142771904Y-119166190D01*
X142867142Y-119118571D01*
X142914761Y-119070952D01*
X142962380Y-118975714D01*
X142962380Y-118785238D01*
X142914761Y-118690000D01*
X142867142Y-118642380D01*
X142771904Y-118594761D01*
X142581428Y-118594761D01*
X142486190Y-118642380D01*
X142438571Y-118690000D01*
X142390952Y-118785238D01*
X143652380Y-128266666D02*
X143652380Y-127647619D01*
X144033333Y-127980952D01*
X144033333Y-127838095D01*
X144080952Y-127742857D01*
X144128571Y-127695238D01*
X144223809Y-127647619D01*
X144461904Y-127647619D01*
X144557142Y-127695238D01*
X144604761Y-127742857D01*
X144652380Y-127838095D01*
X144652380Y-128123809D01*
X144604761Y-128219047D01*
X144557142Y-128266666D01*
X144271428Y-127219047D02*
X144271428Y-126457142D01*
X143985714Y-126123809D02*
X143985714Y-125742857D01*
X143652380Y-125980952D02*
X144509523Y-125980952D01*
X144604761Y-125933333D01*
X144652380Y-125838095D01*
X144652380Y-125742857D01*
X144652380Y-125266666D02*
X144604761Y-125361904D01*
X144557142Y-125409523D01*
X144461904Y-125457142D01*
X144176190Y-125457142D01*
X144080952Y-125409523D01*
X144033333Y-125361904D01*
X143985714Y-125266666D01*
X143985714Y-125123809D01*
X144033333Y-125028571D01*
X144080952Y-124980952D01*
X144176190Y-124933333D01*
X144461904Y-124933333D01*
X144557142Y-124980952D01*
X144604761Y-125028571D01*
X144652380Y-125123809D01*
X144652380Y-125266666D01*
X144271428Y-124504761D02*
X144271428Y-123742857D01*
X144080952Y-123123809D02*
X144033333Y-123219047D01*
X143985714Y-123266666D01*
X143890476Y-123314285D01*
X143842857Y-123314285D01*
X143747619Y-123266666D01*
X143700000Y-123219047D01*
X143652380Y-123123809D01*
X143652380Y-122933333D01*
X143700000Y-122838095D01*
X143747619Y-122790476D01*
X143842857Y-122742857D01*
X143890476Y-122742857D01*
X143985714Y-122790476D01*
X144033333Y-122838095D01*
X144080952Y-122933333D01*
X144080952Y-123123809D01*
X144128571Y-123219047D01*
X144176190Y-123266666D01*
X144271428Y-123314285D01*
X144461904Y-123314285D01*
X144557142Y-123266666D01*
X144604761Y-123219047D01*
X144652380Y-123123809D01*
X144652380Y-122933333D01*
X144604761Y-122838095D01*
X144557142Y-122790476D01*
X144461904Y-122742857D01*
X144271428Y-122742857D01*
X144176190Y-122790476D01*
X144128571Y-122838095D01*
X144080952Y-122933333D01*
X144652380Y-121552380D02*
X143652380Y-121552380D01*
X143652380Y-121314285D01*
X143700000Y-121171428D01*
X143795238Y-121076190D01*
X143890476Y-121028571D01*
X144080952Y-120980952D01*
X144223809Y-120980952D01*
X144414285Y-121028571D01*
X144509523Y-121076190D01*
X144604761Y-121171428D01*
X144652380Y-121314285D01*
X144652380Y-121552380D01*
X144604761Y-120171428D02*
X144652380Y-120266666D01*
X144652380Y-120457142D01*
X144604761Y-120552380D01*
X144509523Y-120600000D01*
X144128571Y-120600000D01*
X144033333Y-120552380D01*
X143985714Y-120457142D01*
X143985714Y-120266666D01*
X144033333Y-120171428D01*
X144128571Y-120123809D01*
X144223809Y-120123809D01*
X144319047Y-120600000D01*
X144604761Y-119266666D02*
X144652380Y-119361904D01*
X144652380Y-119552380D01*
X144604761Y-119647619D01*
X144557142Y-119695238D01*
X144461904Y-119742857D01*
X144176190Y-119742857D01*
X144080952Y-119695238D01*
X144033333Y-119647619D01*
X143985714Y-119552380D01*
X143985714Y-119361904D01*
X144033333Y-119266666D01*
X144652380Y-118695238D02*
X144604761Y-118790476D01*
X144557142Y-118838095D01*
X144461904Y-118885714D01*
X144176190Y-118885714D01*
X144080952Y-118838095D01*
X144033333Y-118790476D01*
X143985714Y-118695238D01*
X143985714Y-118552380D01*
X144033333Y-118457142D01*
X144080952Y-118409523D01*
X144176190Y-118361904D01*
X144461904Y-118361904D01*
X144557142Y-118409523D01*
X144604761Y-118457142D01*
X144652380Y-118552380D01*
X144652380Y-118695238D01*
X144652380Y-117504761D02*
X143652380Y-117504761D01*
X144604761Y-117504761D02*
X144652380Y-117600000D01*
X144652380Y-117790476D01*
X144604761Y-117885714D01*
X144557142Y-117933333D01*
X144461904Y-117980952D01*
X144176190Y-117980952D01*
X144080952Y-117933333D01*
X144033333Y-117885714D01*
X143985714Y-117790476D01*
X143985714Y-117600000D01*
X144033333Y-117504761D01*
X144604761Y-116647619D02*
X144652380Y-116742857D01*
X144652380Y-116933333D01*
X144604761Y-117028571D01*
X144509523Y-117076190D01*
X144128571Y-117076190D01*
X144033333Y-117028571D01*
X143985714Y-116933333D01*
X143985714Y-116742857D01*
X144033333Y-116647619D01*
X144128571Y-116600000D01*
X144223809Y-116600000D01*
X144319047Y-117076190D01*
X144652380Y-116171428D02*
X143985714Y-116171428D01*
X144176190Y-116171428D02*
X144080952Y-116123809D01*
X144033333Y-116076190D01*
X143985714Y-115980952D01*
X143985714Y-115885714D01*
X150822380Y-122951904D02*
X151631904Y-122951904D01*
X151727142Y-122904285D01*
X151774761Y-122856666D01*
X151822380Y-122761428D01*
X151822380Y-122570952D01*
X151774761Y-122475714D01*
X151727142Y-122428095D01*
X151631904Y-122380476D01*
X150822380Y-122380476D01*
X150822380Y-121999523D02*
X150822380Y-121380476D01*
X151203333Y-121713809D01*
X151203333Y-121570952D01*
X151250952Y-121475714D01*
X151298571Y-121428095D01*
X151393809Y-121380476D01*
X151631904Y-121380476D01*
X151727142Y-121428095D01*
X151774761Y-121475714D01*
X151822380Y-121570952D01*
X151822380Y-121856666D01*
X151774761Y-121951904D01*
X151727142Y-121999523D01*
X173262380Y-125832857D02*
X173262380Y-125166190D01*
X174262380Y-125594761D01*
X173595714Y-124356666D02*
X174262380Y-124356666D01*
X173214761Y-124594761D02*
X173929047Y-124832857D01*
X173929047Y-124213809D01*
X174262380Y-123832857D02*
X173262380Y-123832857D01*
X173738571Y-123832857D02*
X173738571Y-123261428D01*
X174262380Y-123261428D02*
X173262380Y-123261428D01*
X174167142Y-122213809D02*
X174214761Y-122261428D01*
X174262380Y-122404285D01*
X174262380Y-122499523D01*
X174214761Y-122642380D01*
X174119523Y-122737619D01*
X174024285Y-122785238D01*
X173833809Y-122832857D01*
X173690952Y-122832857D01*
X173500476Y-122785238D01*
X173405238Y-122737619D01*
X173310000Y-122642380D01*
X173262380Y-122499523D01*
X173262380Y-122404285D01*
X173310000Y-122261428D01*
X173357619Y-122213809D01*
X173262380Y-121928095D02*
X173262380Y-121356666D01*
X174262380Y-121642380D02*
X173262380Y-121642380D01*
X174262380Y-120499523D02*
X174262380Y-121070952D01*
X174262380Y-120785238D02*
X173262380Y-120785238D01*
X173405238Y-120880476D01*
X173500476Y-120975714D01*
X173548095Y-121070952D01*
X173262380Y-120166190D02*
X173262380Y-119547142D01*
X173643333Y-119880476D01*
X173643333Y-119737619D01*
X173690952Y-119642380D01*
X173738571Y-119594761D01*
X173833809Y-119547142D01*
X174071904Y-119547142D01*
X174167142Y-119594761D01*
X174214761Y-119642380D01*
X174262380Y-119737619D01*
X174262380Y-120023333D01*
X174214761Y-120118571D01*
X174167142Y-120166190D01*
X173690952Y-118975714D02*
X173643333Y-119070952D01*
X173595714Y-119118571D01*
X173500476Y-119166190D01*
X173452857Y-119166190D01*
X173357619Y-119118571D01*
X173310000Y-119070952D01*
X173262380Y-118975714D01*
X173262380Y-118785238D01*
X173310000Y-118690000D01*
X173357619Y-118642380D01*
X173452857Y-118594761D01*
X173500476Y-118594761D01*
X173595714Y-118642380D01*
X173643333Y-118690000D01*
X173690952Y-118785238D01*
X173690952Y-118975714D01*
X173738571Y-119070952D01*
X173786190Y-119118571D01*
X173881428Y-119166190D01*
X174071904Y-119166190D01*
X174167142Y-119118571D01*
X174214761Y-119070952D01*
X174262380Y-118975714D01*
X174262380Y-118785238D01*
X174214761Y-118690000D01*
X174167142Y-118642380D01*
X174071904Y-118594761D01*
X173881428Y-118594761D01*
X173786190Y-118642380D01*
X173738571Y-118690000D01*
X173690952Y-118785238D01*
X174952380Y-128266666D02*
X174952380Y-127647619D01*
X175333333Y-127980952D01*
X175333333Y-127838095D01*
X175380952Y-127742857D01*
X175428571Y-127695238D01*
X175523809Y-127647619D01*
X175761904Y-127647619D01*
X175857142Y-127695238D01*
X175904761Y-127742857D01*
X175952380Y-127838095D01*
X175952380Y-128123809D01*
X175904761Y-128219047D01*
X175857142Y-128266666D01*
X175571428Y-127219047D02*
X175571428Y-126457142D01*
X175285714Y-126123809D02*
X175285714Y-125742857D01*
X174952380Y-125980952D02*
X175809523Y-125980952D01*
X175904761Y-125933333D01*
X175952380Y-125838095D01*
X175952380Y-125742857D01*
X175952380Y-125266666D02*
X175904761Y-125361904D01*
X175857142Y-125409523D01*
X175761904Y-125457142D01*
X175476190Y-125457142D01*
X175380952Y-125409523D01*
X175333333Y-125361904D01*
X175285714Y-125266666D01*
X175285714Y-125123809D01*
X175333333Y-125028571D01*
X175380952Y-124980952D01*
X175476190Y-124933333D01*
X175761904Y-124933333D01*
X175857142Y-124980952D01*
X175904761Y-125028571D01*
X175952380Y-125123809D01*
X175952380Y-125266666D01*
X175571428Y-124504761D02*
X175571428Y-123742857D01*
X175380952Y-123123809D02*
X175333333Y-123219047D01*
X175285714Y-123266666D01*
X175190476Y-123314285D01*
X175142857Y-123314285D01*
X175047619Y-123266666D01*
X175000000Y-123219047D01*
X174952380Y-123123809D01*
X174952380Y-122933333D01*
X175000000Y-122838095D01*
X175047619Y-122790476D01*
X175142857Y-122742857D01*
X175190476Y-122742857D01*
X175285714Y-122790476D01*
X175333333Y-122838095D01*
X175380952Y-122933333D01*
X175380952Y-123123809D01*
X175428571Y-123219047D01*
X175476190Y-123266666D01*
X175571428Y-123314285D01*
X175761904Y-123314285D01*
X175857142Y-123266666D01*
X175904761Y-123219047D01*
X175952380Y-123123809D01*
X175952380Y-122933333D01*
X175904761Y-122838095D01*
X175857142Y-122790476D01*
X175761904Y-122742857D01*
X175571428Y-122742857D01*
X175476190Y-122790476D01*
X175428571Y-122838095D01*
X175380952Y-122933333D01*
X175952380Y-121552380D02*
X174952380Y-121552380D01*
X174952380Y-121314285D01*
X175000000Y-121171428D01*
X175095238Y-121076190D01*
X175190476Y-121028571D01*
X175380952Y-120980952D01*
X175523809Y-120980952D01*
X175714285Y-121028571D01*
X175809523Y-121076190D01*
X175904761Y-121171428D01*
X175952380Y-121314285D01*
X175952380Y-121552380D01*
X175904761Y-120171428D02*
X175952380Y-120266666D01*
X175952380Y-120457142D01*
X175904761Y-120552380D01*
X175809523Y-120600000D01*
X175428571Y-120600000D01*
X175333333Y-120552380D01*
X175285714Y-120457142D01*
X175285714Y-120266666D01*
X175333333Y-120171428D01*
X175428571Y-120123809D01*
X175523809Y-120123809D01*
X175619047Y-120600000D01*
X175904761Y-119266666D02*
X175952380Y-119361904D01*
X175952380Y-119552380D01*
X175904761Y-119647619D01*
X175857142Y-119695238D01*
X175761904Y-119742857D01*
X175476190Y-119742857D01*
X175380952Y-119695238D01*
X175333333Y-119647619D01*
X175285714Y-119552380D01*
X175285714Y-119361904D01*
X175333333Y-119266666D01*
X175952380Y-118695238D02*
X175904761Y-118790476D01*
X175857142Y-118838095D01*
X175761904Y-118885714D01*
X175476190Y-118885714D01*
X175380952Y-118838095D01*
X175333333Y-118790476D01*
X175285714Y-118695238D01*
X175285714Y-118552380D01*
X175333333Y-118457142D01*
X175380952Y-118409523D01*
X175476190Y-118361904D01*
X175761904Y-118361904D01*
X175857142Y-118409523D01*
X175904761Y-118457142D01*
X175952380Y-118552380D01*
X175952380Y-118695238D01*
X175952380Y-117504761D02*
X174952380Y-117504761D01*
X175904761Y-117504761D02*
X175952380Y-117600000D01*
X175952380Y-117790476D01*
X175904761Y-117885714D01*
X175857142Y-117933333D01*
X175761904Y-117980952D01*
X175476190Y-117980952D01*
X175380952Y-117933333D01*
X175333333Y-117885714D01*
X175285714Y-117790476D01*
X175285714Y-117600000D01*
X175333333Y-117504761D01*
X175904761Y-116647619D02*
X175952380Y-116742857D01*
X175952380Y-116933333D01*
X175904761Y-117028571D01*
X175809523Y-117076190D01*
X175428571Y-117076190D01*
X175333333Y-117028571D01*
X175285714Y-116933333D01*
X175285714Y-116742857D01*
X175333333Y-116647619D01*
X175428571Y-116600000D01*
X175523809Y-116600000D01*
X175619047Y-117076190D01*
X175952380Y-116171428D02*
X175285714Y-116171428D01*
X175476190Y-116171428D02*
X175380952Y-116123809D01*
X175333333Y-116076190D01*
X175285714Y-115980952D01*
X175285714Y-115885714D01*
X150757142Y-54652380D02*
X150423809Y-54176190D01*
X150185714Y-54652380D02*
X150185714Y-53652380D01*
X150566666Y-53652380D01*
X150661904Y-53700000D01*
X150709523Y-53747619D01*
X150757142Y-53842857D01*
X150757142Y-53985714D01*
X150709523Y-54080952D01*
X150661904Y-54128571D01*
X150566666Y-54176190D01*
X150185714Y-54176190D01*
X151138095Y-53747619D02*
X151185714Y-53700000D01*
X151280952Y-53652380D01*
X151519047Y-53652380D01*
X151614285Y-53700000D01*
X151661904Y-53747619D01*
X151709523Y-53842857D01*
X151709523Y-53938095D01*
X151661904Y-54080952D01*
X151090476Y-54652380D01*
X151709523Y-54652380D01*
X152661904Y-54652380D02*
X152090476Y-54652380D01*
X152376190Y-54652380D02*
X152376190Y-53652380D01*
X152280952Y-53795238D01*
X152185714Y-53890476D01*
X152090476Y-53938095D01*
X150709523Y-59752380D02*
X150138095Y-59752380D01*
X150423809Y-59752380D02*
X150423809Y-58752380D01*
X150328571Y-58895238D01*
X150233333Y-58990476D01*
X150138095Y-59038095D01*
X151328571Y-58752380D02*
X151423809Y-58752380D01*
X151519047Y-58800000D01*
X151566666Y-58847619D01*
X151614285Y-58942857D01*
X151661904Y-59133333D01*
X151661904Y-59371428D01*
X151614285Y-59561904D01*
X151566666Y-59657142D01*
X151519047Y-59704761D01*
X151423809Y-59752380D01*
X151328571Y-59752380D01*
X151233333Y-59704761D01*
X151185714Y-59657142D01*
X151138095Y-59561904D01*
X151090476Y-59371428D01*
X151090476Y-59133333D01*
X151138095Y-58942857D01*
X151185714Y-58847619D01*
X151233333Y-58800000D01*
X151328571Y-58752380D01*
X152090476Y-59752380D02*
X152090476Y-58752380D01*
X152661904Y-59752380D02*
X152233333Y-59180952D01*
X152661904Y-58752380D02*
X152090476Y-59323809D01*
X164057142Y-54652380D02*
X163723809Y-54176190D01*
X163485714Y-54652380D02*
X163485714Y-53652380D01*
X163866666Y-53652380D01*
X163961904Y-53700000D01*
X164009523Y-53747619D01*
X164057142Y-53842857D01*
X164057142Y-53985714D01*
X164009523Y-54080952D01*
X163961904Y-54128571D01*
X163866666Y-54176190D01*
X163485714Y-54176190D01*
X164438095Y-53747619D02*
X164485714Y-53700000D01*
X164580952Y-53652380D01*
X164819047Y-53652380D01*
X164914285Y-53700000D01*
X164961904Y-53747619D01*
X165009523Y-53842857D01*
X165009523Y-53938095D01*
X164961904Y-54080952D01*
X164390476Y-54652380D01*
X165009523Y-54652380D01*
X165628571Y-53652380D02*
X165723809Y-53652380D01*
X165819047Y-53700000D01*
X165866666Y-53747619D01*
X165914285Y-53842857D01*
X165961904Y-54033333D01*
X165961904Y-54271428D01*
X165914285Y-54461904D01*
X165866666Y-54557142D01*
X165819047Y-54604761D01*
X165723809Y-54652380D01*
X165628571Y-54652380D01*
X165533333Y-54604761D01*
X165485714Y-54557142D01*
X165438095Y-54461904D01*
X165390476Y-54271428D01*
X165390476Y-54033333D01*
X165438095Y-53842857D01*
X165485714Y-53747619D01*
X165533333Y-53700000D01*
X165628571Y-53652380D01*
X164009523Y-59752380D02*
X163438095Y-59752380D01*
X163723809Y-59752380D02*
X163723809Y-58752380D01*
X163628571Y-58895238D01*
X163533333Y-58990476D01*
X163438095Y-59038095D01*
X164628571Y-58752380D02*
X164723809Y-58752380D01*
X164819047Y-58800000D01*
X164866666Y-58847619D01*
X164914285Y-58942857D01*
X164961904Y-59133333D01*
X164961904Y-59371428D01*
X164914285Y-59561904D01*
X164866666Y-59657142D01*
X164819047Y-59704761D01*
X164723809Y-59752380D01*
X164628571Y-59752380D01*
X164533333Y-59704761D01*
X164485714Y-59657142D01*
X164438095Y-59561904D01*
X164390476Y-59371428D01*
X164390476Y-59133333D01*
X164438095Y-58942857D01*
X164485714Y-58847619D01*
X164533333Y-58800000D01*
X164628571Y-58752380D01*
X165390476Y-59752380D02*
X165390476Y-58752380D01*
X165961904Y-59752380D02*
X165533333Y-59180952D01*
X165961904Y-58752380D02*
X165390476Y-59323809D01*
X159466666Y-59752380D02*
X159466666Y-60466666D01*
X159419047Y-60609523D01*
X159323809Y-60704761D01*
X159180952Y-60752380D01*
X159085714Y-60752380D01*
X159942857Y-60752380D02*
X159942857Y-59752380D01*
X160323809Y-59752380D01*
X160419047Y-59800000D01*
X160466666Y-59847619D01*
X160514285Y-59942857D01*
X160514285Y-60085714D01*
X160466666Y-60180952D01*
X160419047Y-60228571D01*
X160323809Y-60276190D01*
X159942857Y-60276190D01*
X160895238Y-59847619D02*
X160942857Y-59800000D01*
X161038095Y-59752380D01*
X161276190Y-59752380D01*
X161371428Y-59800000D01*
X161419047Y-59847619D01*
X161466666Y-59942857D01*
X161466666Y-60038095D01*
X161419047Y-60180952D01*
X160847619Y-60752380D01*
X161466666Y-60752380D01*
X159540476Y-62252380D02*
X159540476Y-61252380D01*
X159873809Y-61966666D01*
X160207142Y-61252380D01*
X160207142Y-62252380D01*
X160635714Y-61347619D02*
X160683333Y-61300000D01*
X160778571Y-61252380D01*
X161016666Y-61252380D01*
X161111904Y-61300000D01*
X161159523Y-61347619D01*
X161207142Y-61442857D01*
X161207142Y-61538095D01*
X161159523Y-61680952D01*
X160588095Y-62252380D01*
X161207142Y-62252380D01*
X154866666Y-59752380D02*
X154866666Y-60466666D01*
X154819047Y-60609523D01*
X154723809Y-60704761D01*
X154580952Y-60752380D01*
X154485714Y-60752380D01*
X155342857Y-60752380D02*
X155342857Y-59752380D01*
X155723809Y-59752380D01*
X155819047Y-59800000D01*
X155866666Y-59847619D01*
X155914285Y-59942857D01*
X155914285Y-60085714D01*
X155866666Y-60180952D01*
X155819047Y-60228571D01*
X155723809Y-60276190D01*
X155342857Y-60276190D01*
X156866666Y-60752380D02*
X156295238Y-60752380D01*
X156580952Y-60752380D02*
X156580952Y-59752380D01*
X156485714Y-59895238D01*
X156390476Y-59990476D01*
X156295238Y-60038095D01*
X154890476Y-62252380D02*
X154890476Y-61252380D01*
X155223809Y-61966666D01*
X155557142Y-61252380D01*
X155557142Y-62252380D01*
X156557142Y-62252380D02*
X155985714Y-62252380D01*
X156271428Y-62252380D02*
X156271428Y-61252380D01*
X156176190Y-61395238D01*
X156080952Y-61490476D01*
X155985714Y-61538095D01*
X89422380Y-92951904D02*
X90231904Y-92951904D01*
X90327142Y-92904285D01*
X90374761Y-92856666D01*
X90422380Y-92761428D01*
X90422380Y-92570952D01*
X90374761Y-92475714D01*
X90327142Y-92428095D01*
X90231904Y-92380476D01*
X89422380Y-92380476D01*
X89517619Y-91951904D02*
X89470000Y-91904285D01*
X89422380Y-91809047D01*
X89422380Y-91570952D01*
X89470000Y-91475714D01*
X89517619Y-91428095D01*
X89612857Y-91380476D01*
X89708095Y-91380476D01*
X89850952Y-91428095D01*
X90422380Y-91999523D01*
X90422380Y-91380476D01*
X116942380Y-95832857D02*
X116942380Y-95166190D01*
X117942380Y-95594761D01*
X117275714Y-94356666D02*
X117942380Y-94356666D01*
X116894761Y-94594761D02*
X117609047Y-94832857D01*
X117609047Y-94213809D01*
X117942380Y-93832857D02*
X116942380Y-93832857D01*
X117418571Y-93832857D02*
X117418571Y-93261428D01*
X117942380Y-93261428D02*
X116942380Y-93261428D01*
X117847142Y-92213809D02*
X117894761Y-92261428D01*
X117942380Y-92404285D01*
X117942380Y-92499523D01*
X117894761Y-92642380D01*
X117799523Y-92737619D01*
X117704285Y-92785238D01*
X117513809Y-92832857D01*
X117370952Y-92832857D01*
X117180476Y-92785238D01*
X117085238Y-92737619D01*
X116990000Y-92642380D01*
X116942380Y-92499523D01*
X116942380Y-92404285D01*
X116990000Y-92261428D01*
X117037619Y-92213809D01*
X116942380Y-91928095D02*
X116942380Y-91356666D01*
X117942380Y-91642380D02*
X116942380Y-91642380D01*
X116942380Y-91118571D02*
X116942380Y-90499523D01*
X117323333Y-90832857D01*
X117323333Y-90690000D01*
X117370952Y-90594761D01*
X117418571Y-90547142D01*
X117513809Y-90499523D01*
X117751904Y-90499523D01*
X117847142Y-90547142D01*
X117894761Y-90594761D01*
X117942380Y-90690000D01*
X117942380Y-90975714D01*
X117894761Y-91070952D01*
X117847142Y-91118571D01*
X116942380Y-90166190D02*
X116942380Y-89499523D01*
X117942380Y-89928095D01*
X116942380Y-89213809D02*
X116942380Y-88547142D01*
X117942380Y-88975714D01*
X98580952Y-98080952D02*
X98485714Y-98033333D01*
X98438095Y-97985714D01*
X98390476Y-97890476D01*
X98390476Y-97842857D01*
X98438095Y-97747619D01*
X98485714Y-97700000D01*
X98580952Y-97652380D01*
X98771428Y-97652380D01*
X98866666Y-97700000D01*
X98914285Y-97747619D01*
X98961904Y-97842857D01*
X98961904Y-97890476D01*
X98914285Y-97985714D01*
X98866666Y-98033333D01*
X98771428Y-98080952D01*
X98580952Y-98080952D01*
X98485714Y-98128571D01*
X98438095Y-98176190D01*
X98390476Y-98271428D01*
X98390476Y-98461904D01*
X98438095Y-98557142D01*
X98485714Y-98604761D01*
X98580952Y-98652380D01*
X98771428Y-98652380D01*
X98866666Y-98604761D01*
X98914285Y-98557142D01*
X98961904Y-98461904D01*
X98961904Y-98271428D01*
X98914285Y-98176190D01*
X98866666Y-98128571D01*
X98771428Y-98080952D01*
X99390476Y-98271428D02*
X100152380Y-98271428D01*
X100628571Y-98652380D02*
X100628571Y-97652380D01*
X100628571Y-98033333D02*
X100723809Y-97985714D01*
X100914285Y-97985714D01*
X101009523Y-98033333D01*
X101057142Y-98080952D01*
X101104761Y-98176190D01*
X101104761Y-98461904D01*
X101057142Y-98557142D01*
X101009523Y-98604761D01*
X100914285Y-98652380D01*
X100723809Y-98652380D01*
X100628571Y-98604761D01*
X101533333Y-98652380D02*
X101533333Y-97985714D01*
X101533333Y-97652380D02*
X101485714Y-97700000D01*
X101533333Y-97747619D01*
X101580952Y-97700000D01*
X101533333Y-97652380D01*
X101533333Y-97747619D01*
X101866666Y-97985714D02*
X102247619Y-97985714D01*
X102009523Y-97652380D02*
X102009523Y-98509523D01*
X102057142Y-98604761D01*
X102152380Y-98652380D01*
X102247619Y-98652380D01*
X103914285Y-98652380D02*
X103580952Y-98176190D01*
X103342857Y-98652380D02*
X103342857Y-97652380D01*
X103723809Y-97652380D01*
X103819047Y-97700000D01*
X103866666Y-97747619D01*
X103914285Y-97842857D01*
X103914285Y-97985714D01*
X103866666Y-98080952D01*
X103819047Y-98128571D01*
X103723809Y-98176190D01*
X103342857Y-98176190D01*
X104723809Y-98604761D02*
X104628571Y-98652380D01*
X104438095Y-98652380D01*
X104342857Y-98604761D01*
X104295238Y-98509523D01*
X104295238Y-98128571D01*
X104342857Y-98033333D01*
X104438095Y-97985714D01*
X104628571Y-97985714D01*
X104723809Y-98033333D01*
X104771428Y-98128571D01*
X104771428Y-98223809D01*
X104295238Y-98319047D01*
X105628571Y-97985714D02*
X105628571Y-98795238D01*
X105580952Y-98890476D01*
X105533333Y-98938095D01*
X105438095Y-98985714D01*
X105295238Y-98985714D01*
X105200000Y-98938095D01*
X105628571Y-98604761D02*
X105533333Y-98652380D01*
X105342857Y-98652380D01*
X105247619Y-98604761D01*
X105200000Y-98557142D01*
X105152380Y-98461904D01*
X105152380Y-98176190D01*
X105200000Y-98080952D01*
X105247619Y-98033333D01*
X105342857Y-97985714D01*
X105533333Y-97985714D01*
X105628571Y-98033333D01*
X106104761Y-98652380D02*
X106104761Y-97985714D01*
X106104761Y-97652380D02*
X106057142Y-97700000D01*
X106104761Y-97747619D01*
X106152380Y-97700000D01*
X106104761Y-97652380D01*
X106104761Y-97747619D01*
X106533333Y-98604761D02*
X106628571Y-98652380D01*
X106819047Y-98652380D01*
X106914285Y-98604761D01*
X106961904Y-98509523D01*
X106961904Y-98461904D01*
X106914285Y-98366666D01*
X106819047Y-98319047D01*
X106676190Y-98319047D01*
X106580952Y-98271428D01*
X106533333Y-98176190D01*
X106533333Y-98128571D01*
X106580952Y-98033333D01*
X106676190Y-97985714D01*
X106819047Y-97985714D01*
X106914285Y-98033333D01*
X107247619Y-97985714D02*
X107628571Y-97985714D01*
X107390476Y-97652380D02*
X107390476Y-98509523D01*
X107438095Y-98604761D01*
X107533333Y-98652380D01*
X107628571Y-98652380D01*
X108342857Y-98604761D02*
X108247619Y-98652380D01*
X108057142Y-98652380D01*
X107961904Y-98604761D01*
X107914285Y-98509523D01*
X107914285Y-98128571D01*
X107961904Y-98033333D01*
X108057142Y-97985714D01*
X108247619Y-97985714D01*
X108342857Y-98033333D01*
X108390476Y-98128571D01*
X108390476Y-98223809D01*
X107914285Y-98319047D01*
X108819047Y-98652380D02*
X108819047Y-97985714D01*
X108819047Y-98176190D02*
X108866666Y-98080952D01*
X108914285Y-98033333D01*
X109009523Y-97985714D01*
X109104761Y-97985714D01*
X144957142Y-64352380D02*
X144623809Y-63876190D01*
X144385714Y-64352380D02*
X144385714Y-63352380D01*
X144766666Y-63352380D01*
X144861904Y-63400000D01*
X144909523Y-63447619D01*
X144957142Y-63542857D01*
X144957142Y-63685714D01*
X144909523Y-63780952D01*
X144861904Y-63828571D01*
X144766666Y-63876190D01*
X144385714Y-63876190D01*
X145909523Y-64352380D02*
X145338095Y-64352380D01*
X145623809Y-64352380D02*
X145623809Y-63352380D01*
X145528571Y-63495238D01*
X145433333Y-63590476D01*
X145338095Y-63638095D01*
X146385714Y-64352380D02*
X146576190Y-64352380D01*
X146671428Y-64304761D01*
X146719047Y-64257142D01*
X146814285Y-64114285D01*
X146861904Y-63923809D01*
X146861904Y-63542857D01*
X146814285Y-63447619D01*
X146766666Y-63400000D01*
X146671428Y-63352380D01*
X146480952Y-63352380D01*
X146385714Y-63400000D01*
X146338095Y-63447619D01*
X146290476Y-63542857D01*
X146290476Y-63780952D01*
X146338095Y-63876190D01*
X146385714Y-63923809D01*
X146480952Y-63971428D01*
X146671428Y-63971428D01*
X146766666Y-63923809D01*
X146814285Y-63876190D01*
X146861904Y-63780952D01*
X152357142Y-64402380D02*
X152023809Y-63926190D01*
X151785714Y-64402380D02*
X151785714Y-63402380D01*
X152166666Y-63402380D01*
X152261904Y-63450000D01*
X152309523Y-63497619D01*
X152357142Y-63592857D01*
X152357142Y-63735714D01*
X152309523Y-63830952D01*
X152261904Y-63878571D01*
X152166666Y-63926190D01*
X151785714Y-63926190D01*
X153309523Y-64402380D02*
X152738095Y-64402380D01*
X153023809Y-64402380D02*
X153023809Y-63402380D01*
X152928571Y-63545238D01*
X152833333Y-63640476D01*
X152738095Y-63688095D01*
X153880952Y-63830952D02*
X153785714Y-63783333D01*
X153738095Y-63735714D01*
X153690476Y-63640476D01*
X153690476Y-63592857D01*
X153738095Y-63497619D01*
X153785714Y-63450000D01*
X153880952Y-63402380D01*
X154071428Y-63402380D01*
X154166666Y-63450000D01*
X154214285Y-63497619D01*
X154261904Y-63592857D01*
X154261904Y-63640476D01*
X154214285Y-63735714D01*
X154166666Y-63783333D01*
X154071428Y-63830952D01*
X153880952Y-63830952D01*
X153785714Y-63878571D01*
X153738095Y-63926190D01*
X153690476Y-64021428D01*
X153690476Y-64211904D01*
X153738095Y-64307142D01*
X153785714Y-64354761D01*
X153880952Y-64402380D01*
X154071428Y-64402380D01*
X154166666Y-64354761D01*
X154214285Y-64307142D01*
X154261904Y-64211904D01*
X154261904Y-64021428D01*
X154214285Y-63926190D01*
X154166666Y-63878571D01*
X154071428Y-63830952D01*
X144385714Y-67902380D02*
X144385714Y-66902380D01*
X144623809Y-66902380D01*
X144766666Y-66950000D01*
X144861904Y-67045238D01*
X144909523Y-67140476D01*
X144957142Y-67330952D01*
X144957142Y-67473809D01*
X144909523Y-67664285D01*
X144861904Y-67759523D01*
X144766666Y-67854761D01*
X144623809Y-67902380D01*
X144385714Y-67902380D01*
X145909523Y-67902380D02*
X145338095Y-67902380D01*
X145623809Y-67902380D02*
X145623809Y-66902380D01*
X145528571Y-67045238D01*
X145433333Y-67140476D01*
X145338095Y-67188095D01*
X146385714Y-67902380D02*
X146576190Y-67902380D01*
X146671428Y-67854761D01*
X146719047Y-67807142D01*
X146814285Y-67664285D01*
X146861904Y-67473809D01*
X146861904Y-67092857D01*
X146814285Y-66997619D01*
X146766666Y-66950000D01*
X146671428Y-66902380D01*
X146480952Y-66902380D01*
X146385714Y-66950000D01*
X146338095Y-66997619D01*
X146290476Y-67092857D01*
X146290476Y-67330952D01*
X146338095Y-67426190D01*
X146385714Y-67473809D01*
X146480952Y-67521428D01*
X146671428Y-67521428D01*
X146766666Y-67473809D01*
X146814285Y-67426190D01*
X146861904Y-67330952D01*
D10*
X143992857Y-71993571D02*
X143492857Y-71279285D01*
X143135714Y-71993571D02*
X143135714Y-70493571D01*
X143707142Y-70493571D01*
X143850000Y-70565000D01*
X143921428Y-70636428D01*
X143992857Y-70779285D01*
X143992857Y-70993571D01*
X143921428Y-71136428D01*
X143850000Y-71207857D01*
X143707142Y-71279285D01*
X143135714Y-71279285D01*
X144635714Y-71207857D02*
X145135714Y-71207857D01*
X145350000Y-71993571D02*
X144635714Y-71993571D01*
X144635714Y-70493571D01*
X145350000Y-70493571D01*
X145921428Y-71565000D02*
X146635714Y-71565000D01*
X145778571Y-71993571D02*
X146278571Y-70493571D01*
X146778571Y-71993571D01*
X147278571Y-71993571D02*
X147278571Y-70493571D01*
X147635714Y-70493571D01*
X147850000Y-70565000D01*
X147992857Y-70707857D01*
X148064285Y-70850714D01*
X148135714Y-71136428D01*
X148135714Y-71350714D01*
X148064285Y-71636428D01*
X147992857Y-71779285D01*
X147850000Y-71922142D01*
X147635714Y-71993571D01*
X147278571Y-71993571D01*
D11*
X151760714Y-67902380D02*
X151760714Y-66902380D01*
X151998809Y-66902380D01*
X152141666Y-66950000D01*
X152236904Y-67045238D01*
X152284523Y-67140476D01*
X152332142Y-67330952D01*
X152332142Y-67473809D01*
X152284523Y-67664285D01*
X152236904Y-67759523D01*
X152141666Y-67854761D01*
X151998809Y-67902380D01*
X151760714Y-67902380D01*
X153284523Y-67902380D02*
X152713095Y-67902380D01*
X152998809Y-67902380D02*
X152998809Y-66902380D01*
X152903571Y-67045238D01*
X152808333Y-67140476D01*
X152713095Y-67188095D01*
X153855952Y-67330952D02*
X153760714Y-67283333D01*
X153713095Y-67235714D01*
X153665476Y-67140476D01*
X153665476Y-67092857D01*
X153713095Y-66997619D01*
X153760714Y-66950000D01*
X153855952Y-66902380D01*
X154046428Y-66902380D01*
X154141666Y-66950000D01*
X154189285Y-66997619D01*
X154236904Y-67092857D01*
X154236904Y-67140476D01*
X154189285Y-67235714D01*
X154141666Y-67283333D01*
X154046428Y-67330952D01*
X153855952Y-67330952D01*
X153760714Y-67378571D01*
X153713095Y-67426190D01*
X153665476Y-67521428D01*
X153665476Y-67711904D01*
X153713095Y-67807142D01*
X153760714Y-67854761D01*
X153855952Y-67902380D01*
X154046428Y-67902380D01*
X154141666Y-67854761D01*
X154189285Y-67807142D01*
X154236904Y-67711904D01*
X154236904Y-67521428D01*
X154189285Y-67426190D01*
X154141666Y-67378571D01*
X154046428Y-67330952D01*
D10*
X149975000Y-70493571D02*
X150332142Y-71993571D01*
X150617857Y-70922142D01*
X150903571Y-71993571D01*
X151260714Y-70493571D01*
X152689285Y-71993571D02*
X152189285Y-71279285D01*
X151832142Y-71993571D02*
X151832142Y-70493571D01*
X152403571Y-70493571D01*
X152546428Y-70565000D01*
X152617857Y-70636428D01*
X152689285Y-70779285D01*
X152689285Y-70993571D01*
X152617857Y-71136428D01*
X152546428Y-71207857D01*
X152403571Y-71279285D01*
X151832142Y-71279285D01*
X153332142Y-71993571D02*
X153332142Y-70493571D01*
X153832142Y-70493571D02*
X154689285Y-70493571D01*
X154260714Y-71993571D02*
X154260714Y-70493571D01*
X155189285Y-71207857D02*
X155689285Y-71207857D01*
X155903571Y-71993571D02*
X155189285Y-71993571D01*
X155189285Y-70493571D01*
X155903571Y-70493571D01*
D11*
X117533333Y-117077142D02*
X117485714Y-117124761D01*
X117342857Y-117172380D01*
X117247619Y-117172380D01*
X117104761Y-117124761D01*
X117009523Y-117029523D01*
X116961904Y-116934285D01*
X116914285Y-116743809D01*
X116914285Y-116600952D01*
X116961904Y-116410476D01*
X117009523Y-116315238D01*
X117104761Y-116220000D01*
X117247619Y-116172380D01*
X117342857Y-116172380D01*
X117485714Y-116220000D01*
X117533333Y-116267619D01*
X118390476Y-116505714D02*
X118390476Y-117172380D01*
X118152380Y-116124761D02*
X117914285Y-116839047D01*
X118533333Y-116839047D01*
X151533333Y-113577142D02*
X151485714Y-113624761D01*
X151342857Y-113672380D01*
X151247619Y-113672380D01*
X151104761Y-113624761D01*
X151009523Y-113529523D01*
X150961904Y-113434285D01*
X150914285Y-113243809D01*
X150914285Y-113100952D01*
X150961904Y-112910476D01*
X151009523Y-112815238D01*
X151104761Y-112720000D01*
X151247619Y-112672380D01*
X151342857Y-112672380D01*
X151485714Y-112720000D01*
X151533333Y-112767619D01*
X151866666Y-112672380D02*
X152485714Y-112672380D01*
X152152380Y-113053333D01*
X152295238Y-113053333D01*
X152390476Y-113100952D01*
X152438095Y-113148571D01*
X152485714Y-113243809D01*
X152485714Y-113481904D01*
X152438095Y-113577142D01*
X152390476Y-113624761D01*
X152295238Y-113672380D01*
X152009523Y-113672380D01*
X151914285Y-113624761D01*
X151866666Y-113577142D01*
X91133333Y-83577142D02*
X91085714Y-83624761D01*
X90942857Y-83672380D01*
X90847619Y-83672380D01*
X90704761Y-83624761D01*
X90609523Y-83529523D01*
X90561904Y-83434285D01*
X90514285Y-83243809D01*
X90514285Y-83100952D01*
X90561904Y-82910476D01*
X90609523Y-82815238D01*
X90704761Y-82720000D01*
X90847619Y-82672380D01*
X90942857Y-82672380D01*
X91085714Y-82720000D01*
X91133333Y-82767619D01*
X91514285Y-82767619D02*
X91561904Y-82720000D01*
X91657142Y-82672380D01*
X91895238Y-82672380D01*
X91990476Y-82720000D01*
X92038095Y-82767619D01*
X92085714Y-82862857D01*
X92085714Y-82958095D01*
X92038095Y-83100952D01*
X91466666Y-83672380D01*
X92085714Y-83672380D01*
X98133333Y-58577142D02*
X98085714Y-58624761D01*
X97942857Y-58672380D01*
X97847619Y-58672380D01*
X97704761Y-58624761D01*
X97609523Y-58529523D01*
X97561904Y-58434285D01*
X97514285Y-58243809D01*
X97514285Y-58100952D01*
X97561904Y-57910476D01*
X97609523Y-57815238D01*
X97704761Y-57720000D01*
X97847619Y-57672380D01*
X97942857Y-57672380D01*
X98085714Y-57720000D01*
X98133333Y-57767619D01*
X99085714Y-58672380D02*
X98514285Y-58672380D01*
X98800000Y-58672380D02*
X98800000Y-57672380D01*
X98704761Y-57815238D01*
X98609523Y-57910476D01*
X98514285Y-57958095D01*
X179433333Y-57257142D02*
X179385714Y-57304761D01*
X179242857Y-57352380D01*
X179147619Y-57352380D01*
X179004761Y-57304761D01*
X178909523Y-57209523D01*
X178861904Y-57114285D01*
X178814285Y-56923809D01*
X178814285Y-56780952D01*
X178861904Y-56590476D01*
X178909523Y-56495238D01*
X179004761Y-56400000D01*
X179147619Y-56352380D01*
X179242857Y-56352380D01*
X179385714Y-56400000D01*
X179433333Y-56447619D01*
X180338095Y-56352380D02*
X179861904Y-56352380D01*
X179814285Y-56828571D01*
X179861904Y-56780952D01*
X179957142Y-56733333D01*
X180195238Y-56733333D01*
X180290476Y-56780952D01*
X180338095Y-56828571D01*
X180385714Y-56923809D01*
X180385714Y-57161904D01*
X180338095Y-57257142D01*
X180290476Y-57304761D01*
X180195238Y-57352380D01*
X179957142Y-57352380D01*
X179861904Y-57304761D01*
X179814285Y-57257142D01*
X119757142Y-104252380D02*
X119423809Y-103776190D01*
X119185714Y-104252380D02*
X119185714Y-103252380D01*
X119566666Y-103252380D01*
X119661904Y-103300000D01*
X119709523Y-103347619D01*
X119757142Y-103442857D01*
X119757142Y-103585714D01*
X119709523Y-103680952D01*
X119661904Y-103728571D01*
X119566666Y-103776190D01*
X119185714Y-103776190D01*
X120709523Y-104252380D02*
X120138095Y-104252380D01*
X120423809Y-104252380D02*
X120423809Y-103252380D01*
X120328571Y-103395238D01*
X120233333Y-103490476D01*
X120138095Y-103538095D01*
X121042857Y-103252380D02*
X121709523Y-103252380D01*
X121280952Y-104252380D01*
X126185714Y-104202380D02*
X126185714Y-103202380D01*
X126423809Y-103202380D01*
X126566666Y-103250000D01*
X126661904Y-103345238D01*
X126709523Y-103440476D01*
X126757142Y-103630952D01*
X126757142Y-103773809D01*
X126709523Y-103964285D01*
X126661904Y-104059523D01*
X126566666Y-104154761D01*
X126423809Y-104202380D01*
X126185714Y-104202380D01*
X127709523Y-104202380D02*
X127138095Y-104202380D01*
X127423809Y-104202380D02*
X127423809Y-103202380D01*
X127328571Y-103345238D01*
X127233333Y-103440476D01*
X127138095Y-103488095D01*
X128042857Y-103202380D02*
X128709523Y-103202380D01*
X128280952Y-104202380D01*
D10*
X124400000Y-106778571D02*
X124757142Y-108278571D01*
X125042857Y-107207142D01*
X125328571Y-108278571D01*
X125685714Y-106778571D01*
X127114285Y-108278571D02*
X126614285Y-107564285D01*
X126257142Y-108278571D02*
X126257142Y-106778571D01*
X126828571Y-106778571D01*
X126971428Y-106850000D01*
X127042857Y-106921428D01*
X127114285Y-107064285D01*
X127114285Y-107278571D01*
X127042857Y-107421428D01*
X126971428Y-107492857D01*
X126828571Y-107564285D01*
X126257142Y-107564285D01*
X127757142Y-108278571D02*
X127757142Y-106778571D01*
X128257142Y-106778571D02*
X129114285Y-106778571D01*
X128685714Y-108278571D02*
X128685714Y-106778571D01*
X129614285Y-107492857D02*
X130114285Y-107492857D01*
X130328571Y-108278571D02*
X129614285Y-108278571D01*
X129614285Y-106778571D01*
X130328571Y-106778571D01*
D11*
X124457142Y-85852380D02*
X124123809Y-85376190D01*
X123885714Y-85852380D02*
X123885714Y-84852380D01*
X124266666Y-84852380D01*
X124361904Y-84900000D01*
X124409523Y-84947619D01*
X124457142Y-85042857D01*
X124457142Y-85185714D01*
X124409523Y-85280952D01*
X124361904Y-85328571D01*
X124266666Y-85376190D01*
X123885714Y-85376190D01*
X125409523Y-85852380D02*
X124838095Y-85852380D01*
X125123809Y-85852380D02*
X125123809Y-84852380D01*
X125028571Y-84995238D01*
X124933333Y-85090476D01*
X124838095Y-85138095D01*
X126266666Y-84852380D02*
X126076190Y-84852380D01*
X125980952Y-84900000D01*
X125933333Y-84947619D01*
X125838095Y-85090476D01*
X125790476Y-85280952D01*
X125790476Y-85661904D01*
X125838095Y-85757142D01*
X125885714Y-85804761D01*
X125980952Y-85852380D01*
X126171428Y-85852380D01*
X126266666Y-85804761D01*
X126314285Y-85757142D01*
X126361904Y-85661904D01*
X126361904Y-85423809D01*
X126314285Y-85328571D01*
X126266666Y-85280952D01*
X126171428Y-85233333D01*
X125980952Y-85233333D01*
X125885714Y-85280952D01*
X125838095Y-85328571D01*
X125790476Y-85423809D01*
X129957142Y-85852380D02*
X129623809Y-85376190D01*
X129385714Y-85852380D02*
X129385714Y-84852380D01*
X129766666Y-84852380D01*
X129861904Y-84900000D01*
X129909523Y-84947619D01*
X129957142Y-85042857D01*
X129957142Y-85185714D01*
X129909523Y-85280952D01*
X129861904Y-85328571D01*
X129766666Y-85376190D01*
X129385714Y-85376190D01*
X130909523Y-85852380D02*
X130338095Y-85852380D01*
X130623809Y-85852380D02*
X130623809Y-84852380D01*
X130528571Y-84995238D01*
X130433333Y-85090476D01*
X130338095Y-85138095D01*
X131814285Y-84852380D02*
X131338095Y-84852380D01*
X131290476Y-85328571D01*
X131338095Y-85280952D01*
X131433333Y-85233333D01*
X131671428Y-85233333D01*
X131766666Y-85280952D01*
X131814285Y-85328571D01*
X131861904Y-85423809D01*
X131861904Y-85661904D01*
X131814285Y-85757142D01*
X131766666Y-85804761D01*
X131671428Y-85852380D01*
X131433333Y-85852380D01*
X131338095Y-85804761D01*
X131290476Y-85757142D01*
X135485712Y-85852380D02*
X135152379Y-85376190D01*
X134914284Y-85852380D02*
X134914284Y-84852380D01*
X135295236Y-84852380D01*
X135390474Y-84900000D01*
X135438093Y-84947619D01*
X135485712Y-85042857D01*
X135485712Y-85185714D01*
X135438093Y-85280952D01*
X135390474Y-85328571D01*
X135295236Y-85376190D01*
X134914284Y-85376190D01*
X136438093Y-85852380D02*
X135866665Y-85852380D01*
X136152379Y-85852380D02*
X136152379Y-84852380D01*
X136057141Y-84995238D01*
X135961903Y-85090476D01*
X135866665Y-85138095D01*
X137295236Y-85185714D02*
X137295236Y-85852380D01*
X137057141Y-84804761D02*
X136819046Y-85519047D01*
X137438093Y-85519047D01*
X140999997Y-85852380D02*
X140666664Y-85376190D01*
X140428569Y-85852380D02*
X140428569Y-84852380D01*
X140809521Y-84852380D01*
X140904759Y-84900000D01*
X140952378Y-84947619D01*
X140999997Y-85042857D01*
X140999997Y-85185714D01*
X140952378Y-85280952D01*
X140904759Y-85328571D01*
X140809521Y-85376190D01*
X140428569Y-85376190D01*
X141952378Y-85852380D02*
X141380950Y-85852380D01*
X141666664Y-85852380D02*
X141666664Y-84852380D01*
X141571426Y-84995238D01*
X141476188Y-85090476D01*
X141380950Y-85138095D01*
X142285712Y-84852380D02*
X142904759Y-84852380D01*
X142571426Y-85233333D01*
X142714283Y-85233333D01*
X142809521Y-85280952D01*
X142857140Y-85328571D01*
X142904759Y-85423809D01*
X142904759Y-85661904D01*
X142857140Y-85757142D01*
X142809521Y-85804761D01*
X142714283Y-85852380D01*
X142428569Y-85852380D01*
X142333331Y-85804761D01*
X142285712Y-85757142D01*
X146514282Y-85852380D02*
X146180949Y-85376190D01*
X145942854Y-85852380D02*
X145942854Y-84852380D01*
X146323806Y-84852380D01*
X146419044Y-84900000D01*
X146466663Y-84947619D01*
X146514282Y-85042857D01*
X146514282Y-85185714D01*
X146466663Y-85280952D01*
X146419044Y-85328571D01*
X146323806Y-85376190D01*
X145942854Y-85376190D01*
X147466663Y-85852380D02*
X146895235Y-85852380D01*
X147180949Y-85852380D02*
X147180949Y-84852380D01*
X147085711Y-84995238D01*
X146990473Y-85090476D01*
X146895235Y-85138095D01*
X147847616Y-84947619D02*
X147895235Y-84900000D01*
X147990473Y-84852380D01*
X148228568Y-84852380D01*
X148323806Y-84900000D01*
X148371425Y-84947619D01*
X148419044Y-85042857D01*
X148419044Y-85138095D01*
X148371425Y-85280952D01*
X147799997Y-85852380D01*
X148419044Y-85852380D01*
X152028567Y-85852380D02*
X151695234Y-85376190D01*
X151457139Y-85852380D02*
X151457139Y-84852380D01*
X151838091Y-84852380D01*
X151933329Y-84900000D01*
X151980948Y-84947619D01*
X152028567Y-85042857D01*
X152028567Y-85185714D01*
X151980948Y-85280952D01*
X151933329Y-85328571D01*
X151838091Y-85376190D01*
X151457139Y-85376190D01*
X152980948Y-85852380D02*
X152409520Y-85852380D01*
X152695234Y-85852380D02*
X152695234Y-84852380D01*
X152599996Y-84995238D01*
X152504758Y-85090476D01*
X152409520Y-85138095D01*
X153933329Y-85852380D02*
X153361901Y-85852380D01*
X153647615Y-85852380D02*
X153647615Y-84852380D01*
X153552377Y-84995238D01*
X153457139Y-85090476D01*
X153361901Y-85138095D01*
X157542852Y-85852380D02*
X157209519Y-85376190D01*
X156971424Y-85852380D02*
X156971424Y-84852380D01*
X157352376Y-84852380D01*
X157447614Y-84900000D01*
X157495233Y-84947619D01*
X157542852Y-85042857D01*
X157542852Y-85185714D01*
X157495233Y-85280952D01*
X157447614Y-85328571D01*
X157352376Y-85376190D01*
X156971424Y-85376190D01*
X158495233Y-85852380D02*
X157923805Y-85852380D01*
X158209519Y-85852380D02*
X158209519Y-84852380D01*
X158114281Y-84995238D01*
X158019043Y-85090476D01*
X157923805Y-85138095D01*
X159114281Y-84852380D02*
X159209519Y-84852380D01*
X159304757Y-84900000D01*
X159352376Y-84947619D01*
X159399995Y-85042857D01*
X159447614Y-85233333D01*
X159447614Y-85471428D01*
X159399995Y-85661904D01*
X159352376Y-85757142D01*
X159304757Y-85804761D01*
X159209519Y-85852380D01*
X159114281Y-85852380D01*
X159019043Y-85804761D01*
X158971424Y-85757142D01*
X158923805Y-85661904D01*
X158876186Y-85471428D01*
X158876186Y-85233333D01*
X158923805Y-85042857D01*
X158971424Y-84947619D01*
X159019043Y-84900000D01*
X159114281Y-84852380D01*
X163533333Y-85852380D02*
X163200000Y-85376190D01*
X162961904Y-85852380D02*
X162961904Y-84852380D01*
X163342857Y-84852380D01*
X163438095Y-84900000D01*
X163485714Y-84947619D01*
X163533333Y-85042857D01*
X163533333Y-85185714D01*
X163485714Y-85280952D01*
X163438095Y-85328571D01*
X163342857Y-85376190D01*
X162961904Y-85376190D01*
X164009523Y-85852380D02*
X164200000Y-85852380D01*
X164295238Y-85804761D01*
X164342857Y-85757142D01*
X164438095Y-85614285D01*
X164485714Y-85423809D01*
X164485714Y-85042857D01*
X164438095Y-84947619D01*
X164390476Y-84900000D01*
X164295238Y-84852380D01*
X164104761Y-84852380D01*
X164009523Y-84900000D01*
X163961904Y-84947619D01*
X163914285Y-85042857D01*
X163914285Y-85280952D01*
X163961904Y-85376190D01*
X164009523Y-85423809D01*
X164104761Y-85471428D01*
X164295238Y-85471428D01*
X164390476Y-85423809D01*
X164438095Y-85376190D01*
X164485714Y-85280952D01*
X123885714Y-89202380D02*
X123885714Y-88202380D01*
X124123809Y-88202380D01*
X124266666Y-88250000D01*
X124361904Y-88345238D01*
X124409523Y-88440476D01*
X124457142Y-88630952D01*
X124457142Y-88773809D01*
X124409523Y-88964285D01*
X124361904Y-89059523D01*
X124266666Y-89154761D01*
X124123809Y-89202380D01*
X123885714Y-89202380D01*
X125409523Y-89202380D02*
X124838095Y-89202380D01*
X125123809Y-89202380D02*
X125123809Y-88202380D01*
X125028571Y-88345238D01*
X124933333Y-88440476D01*
X124838095Y-88488095D01*
X126266666Y-88202380D02*
X126076190Y-88202380D01*
X125980952Y-88250000D01*
X125933333Y-88297619D01*
X125838095Y-88440476D01*
X125790476Y-88630952D01*
X125790476Y-89011904D01*
X125838095Y-89107142D01*
X125885714Y-89154761D01*
X125980952Y-89202380D01*
X126171428Y-89202380D01*
X126266666Y-89154761D01*
X126314285Y-89107142D01*
X126361904Y-89011904D01*
X126361904Y-88773809D01*
X126314285Y-88678571D01*
X126266666Y-88630952D01*
X126171428Y-88583333D01*
X125980952Y-88583333D01*
X125885714Y-88630952D01*
X125838095Y-88678571D01*
X125790476Y-88773809D01*
D10*
X124207142Y-93778571D02*
X123707142Y-93064285D01*
X123350000Y-93778571D02*
X123350000Y-92278571D01*
X123921428Y-92278571D01*
X124064285Y-92350000D01*
X124135714Y-92421428D01*
X124207142Y-92564285D01*
X124207142Y-92778571D01*
X124135714Y-92921428D01*
X124064285Y-92992857D01*
X123921428Y-93064285D01*
X123350000Y-93064285D01*
X124778571Y-93350000D02*
X125492857Y-93350000D01*
X124635714Y-93778571D02*
X125135714Y-92278571D01*
X125635714Y-93778571D01*
X125992857Y-92278571D02*
X126992857Y-92278571D01*
X126350000Y-93778571D01*
D11*
X129385714Y-89202380D02*
X129385714Y-88202380D01*
X129623809Y-88202380D01*
X129766666Y-88250000D01*
X129861904Y-88345238D01*
X129909523Y-88440476D01*
X129957142Y-88630952D01*
X129957142Y-88773809D01*
X129909523Y-88964285D01*
X129861904Y-89059523D01*
X129766666Y-89154761D01*
X129623809Y-89202380D01*
X129385714Y-89202380D01*
X130909523Y-89202380D02*
X130338095Y-89202380D01*
X130623809Y-89202380D02*
X130623809Y-88202380D01*
X130528571Y-88345238D01*
X130433333Y-88440476D01*
X130338095Y-88488095D01*
X131814285Y-88202380D02*
X131338095Y-88202380D01*
X131290476Y-88678571D01*
X131338095Y-88630952D01*
X131433333Y-88583333D01*
X131671428Y-88583333D01*
X131766666Y-88630952D01*
X131814285Y-88678571D01*
X131861904Y-88773809D01*
X131861904Y-89011904D01*
X131814285Y-89107142D01*
X131766666Y-89154761D01*
X131671428Y-89202380D01*
X131433333Y-89202380D01*
X131338095Y-89154761D01*
X131290476Y-89107142D01*
D10*
X129692857Y-93778571D02*
X129192857Y-93064285D01*
X128835715Y-93778571D02*
X128835715Y-92278571D01*
X129407143Y-92278571D01*
X129550000Y-92350000D01*
X129621429Y-92421428D01*
X129692857Y-92564285D01*
X129692857Y-92778571D01*
X129621429Y-92921428D01*
X129550000Y-92992857D01*
X129407143Y-93064285D01*
X128835715Y-93064285D01*
X130264286Y-93350000D02*
X130978572Y-93350000D01*
X130121429Y-93778571D02*
X130621429Y-92278571D01*
X131121429Y-93778571D01*
X132264286Y-92278571D02*
X131978572Y-92278571D01*
X131835715Y-92350000D01*
X131764286Y-92421428D01*
X131621429Y-92635714D01*
X131550000Y-92921428D01*
X131550000Y-93492857D01*
X131621429Y-93635714D01*
X131692857Y-93707142D01*
X131835715Y-93778571D01*
X132121429Y-93778571D01*
X132264286Y-93707142D01*
X132335715Y-93635714D01*
X132407143Y-93492857D01*
X132407143Y-93135714D01*
X132335715Y-92992857D01*
X132264286Y-92921428D01*
X132121429Y-92850000D01*
X131835715Y-92850000D01*
X131692857Y-92921428D01*
X131621429Y-92992857D01*
X131550000Y-93135714D01*
D11*
X134885714Y-89202380D02*
X134885714Y-88202380D01*
X135123809Y-88202380D01*
X135266666Y-88250000D01*
X135361904Y-88345238D01*
X135409523Y-88440476D01*
X135457142Y-88630952D01*
X135457142Y-88773809D01*
X135409523Y-88964285D01*
X135361904Y-89059523D01*
X135266666Y-89154761D01*
X135123809Y-89202380D01*
X134885714Y-89202380D01*
X136409523Y-89202380D02*
X135838095Y-89202380D01*
X136123809Y-89202380D02*
X136123809Y-88202380D01*
X136028571Y-88345238D01*
X135933333Y-88440476D01*
X135838095Y-88488095D01*
X137266666Y-88535714D02*
X137266666Y-89202380D01*
X137028571Y-88154761D02*
X136790476Y-88869047D01*
X137409523Y-88869047D01*
D10*
X135178572Y-93778571D02*
X134678572Y-93064285D01*
X134321430Y-93778571D02*
X134321430Y-92278571D01*
X134892858Y-92278571D01*
X135035715Y-92350000D01*
X135107144Y-92421428D01*
X135178572Y-92564285D01*
X135178572Y-92778571D01*
X135107144Y-92921428D01*
X135035715Y-92992857D01*
X134892858Y-93064285D01*
X134321430Y-93064285D01*
X135750001Y-93350000D02*
X136464287Y-93350000D01*
X135607144Y-93778571D02*
X136107144Y-92278571D01*
X136607144Y-93778571D01*
X137821430Y-92278571D02*
X137107144Y-92278571D01*
X137035715Y-92992857D01*
X137107144Y-92921428D01*
X137250001Y-92850000D01*
X137607144Y-92850000D01*
X137750001Y-92921428D01*
X137821430Y-92992857D01*
X137892858Y-93135714D01*
X137892858Y-93492857D01*
X137821430Y-93635714D01*
X137750001Y-93707142D01*
X137607144Y-93778571D01*
X137250001Y-93778571D01*
X137107144Y-93707142D01*
X137035715Y-93635714D01*
D11*
X140428569Y-89202380D02*
X140428569Y-88202380D01*
X140666664Y-88202380D01*
X140809521Y-88250000D01*
X140904759Y-88345238D01*
X140952378Y-88440476D01*
X140999997Y-88630952D01*
X140999997Y-88773809D01*
X140952378Y-88964285D01*
X140904759Y-89059523D01*
X140809521Y-89154761D01*
X140666664Y-89202380D01*
X140428569Y-89202380D01*
X141952378Y-89202380D02*
X141380950Y-89202380D01*
X141666664Y-89202380D02*
X141666664Y-88202380D01*
X141571426Y-88345238D01*
X141476188Y-88440476D01*
X141380950Y-88488095D01*
X142285712Y-88202380D02*
X142904759Y-88202380D01*
X142571426Y-88583333D01*
X142714283Y-88583333D01*
X142809521Y-88630952D01*
X142857140Y-88678571D01*
X142904759Y-88773809D01*
X142904759Y-89011904D01*
X142857140Y-89107142D01*
X142809521Y-89154761D01*
X142714283Y-89202380D01*
X142428569Y-89202380D01*
X142333331Y-89154761D01*
X142285712Y-89107142D01*
D10*
X140707142Y-93778571D02*
X140207142Y-93064285D01*
X139850000Y-93778571D02*
X139850000Y-92278571D01*
X140421428Y-92278571D01*
X140564285Y-92350000D01*
X140635714Y-92421428D01*
X140707142Y-92564285D01*
X140707142Y-92778571D01*
X140635714Y-92921428D01*
X140564285Y-92992857D01*
X140421428Y-93064285D01*
X139850000Y-93064285D01*
X141278571Y-93350000D02*
X141992857Y-93350000D01*
X141135714Y-93778571D02*
X141635714Y-92278571D01*
X142135714Y-93778571D01*
X143278571Y-92778571D02*
X143278571Y-93778571D01*
X142921428Y-92207142D02*
X142564285Y-93278571D01*
X143492857Y-93278571D01*
D11*
X145942854Y-89202380D02*
X145942854Y-88202380D01*
X146180949Y-88202380D01*
X146323806Y-88250000D01*
X146419044Y-88345238D01*
X146466663Y-88440476D01*
X146514282Y-88630952D01*
X146514282Y-88773809D01*
X146466663Y-88964285D01*
X146419044Y-89059523D01*
X146323806Y-89154761D01*
X146180949Y-89202380D01*
X145942854Y-89202380D01*
X147466663Y-89202380D02*
X146895235Y-89202380D01*
X147180949Y-89202380D02*
X147180949Y-88202380D01*
X147085711Y-88345238D01*
X146990473Y-88440476D01*
X146895235Y-88488095D01*
X147847616Y-88297619D02*
X147895235Y-88250000D01*
X147990473Y-88202380D01*
X148228568Y-88202380D01*
X148323806Y-88250000D01*
X148371425Y-88297619D01*
X148419044Y-88392857D01*
X148419044Y-88488095D01*
X148371425Y-88630952D01*
X147799997Y-89202380D01*
X148419044Y-89202380D01*
D10*
X146207142Y-93778571D02*
X145707142Y-93064285D01*
X145350000Y-93778571D02*
X145350000Y-92278571D01*
X145921428Y-92278571D01*
X146064285Y-92350000D01*
X146135714Y-92421428D01*
X146207142Y-92564285D01*
X146207142Y-92778571D01*
X146135714Y-92921428D01*
X146064285Y-92992857D01*
X145921428Y-93064285D01*
X145350000Y-93064285D01*
X146778571Y-93350000D02*
X147492857Y-93350000D01*
X146635714Y-93778571D02*
X147135714Y-92278571D01*
X147635714Y-93778571D01*
X147992857Y-92278571D02*
X148921428Y-92278571D01*
X148421428Y-92850000D01*
X148635714Y-92850000D01*
X148778571Y-92921428D01*
X148850000Y-92992857D01*
X148921428Y-93135714D01*
X148921428Y-93492857D01*
X148850000Y-93635714D01*
X148778571Y-93707142D01*
X148635714Y-93778571D01*
X148207142Y-93778571D01*
X148064285Y-93707142D01*
X147992857Y-93635714D01*
D11*
X151457139Y-89202380D02*
X151457139Y-88202380D01*
X151695234Y-88202380D01*
X151838091Y-88250000D01*
X151933329Y-88345238D01*
X151980948Y-88440476D01*
X152028567Y-88630952D01*
X152028567Y-88773809D01*
X151980948Y-88964285D01*
X151933329Y-89059523D01*
X151838091Y-89154761D01*
X151695234Y-89202380D01*
X151457139Y-89202380D01*
X152980948Y-89202380D02*
X152409520Y-89202380D01*
X152695234Y-89202380D02*
X152695234Y-88202380D01*
X152599996Y-88345238D01*
X152504758Y-88440476D01*
X152409520Y-88488095D01*
X153933329Y-89202380D02*
X153361901Y-89202380D01*
X153647615Y-89202380D02*
X153647615Y-88202380D01*
X153552377Y-88345238D01*
X153457139Y-88440476D01*
X153361901Y-88488095D01*
D10*
X151778567Y-93778571D02*
X151278567Y-93064285D01*
X150921425Y-93778571D02*
X150921425Y-92278571D01*
X151492853Y-92278571D01*
X151635710Y-92350000D01*
X151707139Y-92421428D01*
X151778567Y-92564285D01*
X151778567Y-92778571D01*
X151707139Y-92921428D01*
X151635710Y-92992857D01*
X151492853Y-93064285D01*
X150921425Y-93064285D01*
X152349996Y-93350000D02*
X153064282Y-93350000D01*
X152207139Y-93778571D02*
X152707139Y-92278571D01*
X153207139Y-93778571D01*
X153635710Y-92421428D02*
X153707139Y-92350000D01*
X153849996Y-92278571D01*
X154207139Y-92278571D01*
X154349996Y-92350000D01*
X154421425Y-92421428D01*
X154492853Y-92564285D01*
X154492853Y-92707142D01*
X154421425Y-92921428D01*
X153564282Y-93778571D01*
X154492853Y-93778571D01*
D11*
X156971424Y-89202380D02*
X156971424Y-88202380D01*
X157209519Y-88202380D01*
X157352376Y-88250000D01*
X157447614Y-88345238D01*
X157495233Y-88440476D01*
X157542852Y-88630952D01*
X157542852Y-88773809D01*
X157495233Y-88964285D01*
X157447614Y-89059523D01*
X157352376Y-89154761D01*
X157209519Y-89202380D01*
X156971424Y-89202380D01*
X158495233Y-89202380D02*
X157923805Y-89202380D01*
X158209519Y-89202380D02*
X158209519Y-88202380D01*
X158114281Y-88345238D01*
X158019043Y-88440476D01*
X157923805Y-88488095D01*
X159114281Y-88202380D02*
X159209519Y-88202380D01*
X159304757Y-88250000D01*
X159352376Y-88297619D01*
X159399995Y-88392857D01*
X159447614Y-88583333D01*
X159447614Y-88821428D01*
X159399995Y-89011904D01*
X159352376Y-89107142D01*
X159304757Y-89154761D01*
X159209519Y-89202380D01*
X159114281Y-89202380D01*
X159019043Y-89154761D01*
X158971424Y-89107142D01*
X158923805Y-89011904D01*
X158876186Y-88821428D01*
X158876186Y-88583333D01*
X158923805Y-88392857D01*
X158971424Y-88297619D01*
X159019043Y-88250000D01*
X159114281Y-88202380D01*
D10*
X157292852Y-93778571D02*
X156792852Y-93064285D01*
X156435710Y-93778571D02*
X156435710Y-92278571D01*
X157007138Y-92278571D01*
X157149995Y-92350000D01*
X157221424Y-92421428D01*
X157292852Y-92564285D01*
X157292852Y-92778571D01*
X157221424Y-92921428D01*
X157149995Y-92992857D01*
X157007138Y-93064285D01*
X156435710Y-93064285D01*
X157864281Y-93350000D02*
X158578567Y-93350000D01*
X157721424Y-93778571D02*
X158221424Y-92278571D01*
X158721424Y-93778571D01*
X160007138Y-93778571D02*
X159149995Y-93778571D01*
X159578567Y-93778571D02*
X159578567Y-92278571D01*
X159435710Y-92492857D01*
X159292852Y-92635714D01*
X159149995Y-92707142D01*
D11*
X162961904Y-89202380D02*
X162961904Y-88202380D01*
X163200000Y-88202380D01*
X163342857Y-88250000D01*
X163438095Y-88345238D01*
X163485714Y-88440476D01*
X163533333Y-88630952D01*
X163533333Y-88773809D01*
X163485714Y-88964285D01*
X163438095Y-89059523D01*
X163342857Y-89154761D01*
X163200000Y-89202380D01*
X162961904Y-89202380D01*
X164009523Y-89202380D02*
X164200000Y-89202380D01*
X164295238Y-89154761D01*
X164342857Y-89107142D01*
X164438095Y-88964285D01*
X164485714Y-88773809D01*
X164485714Y-88392857D01*
X164438095Y-88297619D01*
X164390476Y-88250000D01*
X164295238Y-88202380D01*
X164104761Y-88202380D01*
X164009523Y-88250000D01*
X163961904Y-88297619D01*
X163914285Y-88392857D01*
X163914285Y-88630952D01*
X163961904Y-88726190D01*
X164009523Y-88773809D01*
X164104761Y-88821428D01*
X164295238Y-88821428D01*
X164390476Y-88773809D01*
X164438095Y-88726190D01*
X164485714Y-88630952D01*
D10*
X162807142Y-93778571D02*
X162307142Y-93064285D01*
X161950000Y-93778571D02*
X161950000Y-92278571D01*
X162521428Y-92278571D01*
X162664285Y-92350000D01*
X162735714Y-92421428D01*
X162807142Y-92564285D01*
X162807142Y-92778571D01*
X162735714Y-92921428D01*
X162664285Y-92992857D01*
X162521428Y-93064285D01*
X161950000Y-93064285D01*
X163378571Y-93350000D02*
X164092857Y-93350000D01*
X163235714Y-93778571D02*
X163735714Y-92278571D01*
X164235714Y-93778571D01*
X165021428Y-92278571D02*
X165164285Y-92278571D01*
X165307142Y-92350000D01*
X165378571Y-92421428D01*
X165450000Y-92564285D01*
X165521428Y-92850000D01*
X165521428Y-93207142D01*
X165450000Y-93492857D01*
X165378571Y-93635714D01*
X165307142Y-93707142D01*
X165164285Y-93778571D01*
X165021428Y-93778571D01*
X164878571Y-93707142D01*
X164807142Y-93635714D01*
X164735714Y-93492857D01*
X164664285Y-93207142D01*
X164664285Y-92850000D01*
X164735714Y-92564285D01*
X164807142Y-92421428D01*
X164878571Y-92350000D01*
X165021428Y-92278571D01*
%LPC*%
D14*
X102800000Y-59860000D03*
X135820000Y-75100000D03*
X105340000Y-59860000D03*
X133280000Y-75100000D03*
X107880000Y-59860000D03*
X130740000Y-75100000D03*
X110420000Y-59860000D03*
X128200000Y-75100000D03*
X112960000Y-59860000D03*
X125660000Y-75100000D03*
X115500000Y-59860000D03*
X123120000Y-75100000D03*
X118040000Y-59860000D03*
X120580000Y-75100000D03*
X120580000Y-59860000D03*
X118040000Y-75100000D03*
X123120000Y-59860000D03*
X115500000Y-75100000D03*
X125660000Y-59860000D03*
X112960000Y-75100000D03*
X128200000Y-59860000D03*
X110420000Y-75100000D03*
X130740000Y-59860000D03*
X107880000Y-75100000D03*
X133280000Y-59860000D03*
X105340000Y-75100000D03*
X135820000Y-59860000D03*
D15*
X102800000Y-75100000D03*
D16*
X182900000Y-124380000D03*
X182900000Y-121840000D03*
X182900000Y-119300000D03*
X182900000Y-116760000D03*
X182900000Y-114220000D03*
X182900000Y-111680000D03*
X182900000Y-109140000D03*
D17*
X182900000Y-106600000D03*
D14*
X178520000Y-62700000D03*
X170900000Y-77940000D03*
X178520000Y-65240000D03*
X170900000Y-75400000D03*
X178520000Y-67780000D03*
X170900000Y-72860000D03*
X178520000Y-70320000D03*
X170900000Y-70320000D03*
X178520000Y-72860000D03*
X170900000Y-67780000D03*
X178520000Y-75400000D03*
X170900000Y-65240000D03*
X178520000Y-77940000D03*
D15*
X170900000Y-62700000D03*
D14*
X122400000Y-118380000D03*
X140180000Y-126000000D03*
X124940000Y-118380000D03*
X137640000Y-126000000D03*
X127480000Y-118380000D03*
X135100000Y-126000000D03*
X130020000Y-118380000D03*
X132560000Y-126000000D03*
X132560000Y-118380000D03*
X130020000Y-126000000D03*
X135100000Y-118380000D03*
X127480000Y-126000000D03*
X137640000Y-118380000D03*
X124940000Y-126000000D03*
X140180000Y-118380000D03*
D15*
X122400000Y-126000000D03*
D14*
X153700000Y-118380000D03*
X171480000Y-126000000D03*
X156240000Y-118380000D03*
X168940000Y-126000000D03*
X158780000Y-118380000D03*
X166400000Y-126000000D03*
X161320000Y-118380000D03*
X163860000Y-126000000D03*
X163860000Y-118380000D03*
X161320000Y-126000000D03*
X166400000Y-118380000D03*
X158780000Y-126000000D03*
X168940000Y-118380000D03*
X156240000Y-126000000D03*
X171480000Y-118380000D03*
D15*
X153700000Y-126000000D03*
G36*
G01*
X151850001Y-56300000D02*
X150949999Y-56300000D01*
G75*
G02*
X150700000Y-56050001I0J249999D01*
G01*
X150700000Y-55349999D01*
G75*
G02*
X150949999Y-55100000I249999J0D01*
G01*
X151850001Y-55100000D01*
G75*
G02*
X152100000Y-55349999I0J-249999D01*
G01*
X152100000Y-56050001D01*
G75*
G02*
X151850001Y-56300000I-249999J0D01*
G01*
G37*
G36*
G01*
X151850001Y-58300000D02*
X150949999Y-58300000D01*
G75*
G02*
X150700000Y-58050001I0J249999D01*
G01*
X150700000Y-57349999D01*
G75*
G02*
X150949999Y-57100000I249999J0D01*
G01*
X151850001Y-57100000D01*
G75*
G02*
X152100000Y-57349999I0J-249999D01*
G01*
X152100000Y-58050001D01*
G75*
G02*
X151850001Y-58300000I-249999J0D01*
G01*
G37*
G36*
G01*
X165150001Y-56300000D02*
X164249999Y-56300000D01*
G75*
G02*
X164000000Y-56050001I0J249999D01*
G01*
X164000000Y-55349999D01*
G75*
G02*
X164249999Y-55100000I249999J0D01*
G01*
X165150001Y-55100000D01*
G75*
G02*
X165400000Y-55349999I0J-249999D01*
G01*
X165400000Y-56050001D01*
G75*
G02*
X165150001Y-56300000I-249999J0D01*
G01*
G37*
G36*
G01*
X165150001Y-58300000D02*
X164249999Y-58300000D01*
G75*
G02*
X164000000Y-58050001I0J249999D01*
G01*
X164000000Y-57349999D01*
G75*
G02*
X164249999Y-57100000I249999J0D01*
G01*
X165150001Y-57100000D01*
G75*
G02*
X165400000Y-57349999I0J-249999D01*
G01*
X165400000Y-58050001D01*
G75*
G02*
X165150001Y-58300000I-249999J0D01*
G01*
G37*
D16*
X160350000Y-57740000D03*
D17*
X160350000Y-55200000D03*
D16*
X155700000Y-57740000D03*
D17*
X155700000Y-55200000D03*
D14*
X92300000Y-88380000D03*
X115160000Y-96000000D03*
X94840000Y-88380000D03*
X112620000Y-96000000D03*
X97380000Y-88380000D03*
X110080000Y-96000000D03*
X99920000Y-88380000D03*
X107540000Y-96000000D03*
X102460000Y-88380000D03*
X105000000Y-96000000D03*
X105000000Y-88380000D03*
X102460000Y-96000000D03*
X107540000Y-88380000D03*
X99920000Y-96000000D03*
X110080000Y-88380000D03*
X97380000Y-96000000D03*
X112620000Y-88380000D03*
X94840000Y-96000000D03*
X115160000Y-88380000D03*
D15*
X92300000Y-96000000D03*
G36*
G01*
X145200000Y-65049999D02*
X145200000Y-65950001D01*
G75*
G02*
X144950001Y-66200000I-249999J0D01*
G01*
X144249999Y-66200000D01*
G75*
G02*
X144000000Y-65950001I0J249999D01*
G01*
X144000000Y-65049999D01*
G75*
G02*
X144249999Y-64800000I249999J0D01*
G01*
X144950001Y-64800000D01*
G75*
G02*
X145200000Y-65049999I0J-249999D01*
G01*
G37*
G36*
G01*
X147200000Y-65049999D02*
X147200000Y-65950001D01*
G75*
G02*
X146950001Y-66200000I-249999J0D01*
G01*
X146249999Y-66200000D01*
G75*
G02*
X146000000Y-65950001I0J249999D01*
G01*
X146000000Y-65049999D01*
G75*
G02*
X146249999Y-64800000I249999J0D01*
G01*
X146950001Y-64800000D01*
G75*
G02*
X147200000Y-65049999I0J-249999D01*
G01*
G37*
G36*
G01*
X153400000Y-66050001D02*
X153400000Y-65149999D01*
G75*
G02*
X153649999Y-64900000I249999J0D01*
G01*
X154350001Y-64900000D01*
G75*
G02*
X154600000Y-65149999I0J-249999D01*
G01*
X154600000Y-66050001D01*
G75*
G02*
X154350001Y-66300000I-249999J0D01*
G01*
X153649999Y-66300000D01*
G75*
G02*
X153400000Y-66050001I0J249999D01*
G01*
G37*
G36*
G01*
X151400000Y-66050001D02*
X151400000Y-65149999D01*
G75*
G02*
X151649999Y-64900000I249999J0D01*
G01*
X152350001Y-64900000D01*
G75*
G02*
X152600000Y-65149999I0J-249999D01*
G01*
X152600000Y-66050001D01*
G75*
G02*
X152350001Y-66300000I-249999J0D01*
G01*
X151649999Y-66300000D01*
G75*
G02*
X151400000Y-66050001I0J249999D01*
G01*
G37*
G36*
G01*
X146050000Y-69550001D02*
X146050000Y-68649999D01*
G75*
G02*
X146299999Y-68400000I249999J0D01*
G01*
X146950001Y-68400000D01*
G75*
G02*
X147200000Y-68649999I0J-249999D01*
G01*
X147200000Y-69550001D01*
G75*
G02*
X146950001Y-69800000I-249999J0D01*
G01*
X146299999Y-69800000D01*
G75*
G02*
X146050000Y-69550001I0J249999D01*
G01*
G37*
G36*
G01*
X144000000Y-69550001D02*
X144000000Y-68649999D01*
G75*
G02*
X144249999Y-68400000I249999J0D01*
G01*
X144900001Y-68400000D01*
G75*
G02*
X145150000Y-68649999I0J-249999D01*
G01*
X145150000Y-69550001D01*
G75*
G02*
X144900001Y-69800000I-249999J0D01*
G01*
X144249999Y-69800000D01*
G75*
G02*
X144000000Y-69550001I0J249999D01*
G01*
G37*
G36*
G01*
X153425000Y-69550001D02*
X153425000Y-68649999D01*
G75*
G02*
X153674999Y-68400000I249999J0D01*
G01*
X154325001Y-68400000D01*
G75*
G02*
X154575000Y-68649999I0J-249999D01*
G01*
X154575000Y-69550001D01*
G75*
G02*
X154325001Y-69800000I-249999J0D01*
G01*
X153674999Y-69800000D01*
G75*
G02*
X153425000Y-69550001I0J249999D01*
G01*
G37*
G36*
G01*
X151375000Y-69550001D02*
X151375000Y-68649999D01*
G75*
G02*
X151624999Y-68400000I249999J0D01*
G01*
X152275001Y-68400000D01*
G75*
G02*
X152525000Y-68649999I0J-249999D01*
G01*
X152525000Y-69550001D01*
G75*
G02*
X152275001Y-69800000I-249999J0D01*
G01*
X151624999Y-69800000D01*
G75*
G02*
X151375000Y-69550001I0J249999D01*
G01*
G37*
G36*
G01*
X118150000Y-118875000D02*
X118150000Y-117925000D01*
G75*
G02*
X118400000Y-117675000I250000J0D01*
G01*
X119075000Y-117675000D01*
G75*
G02*
X119325000Y-117925000I0J-250000D01*
G01*
X119325000Y-118875000D01*
G75*
G02*
X119075000Y-119125000I-250000J0D01*
G01*
X118400000Y-119125000D01*
G75*
G02*
X118150000Y-118875000I0J250000D01*
G01*
G37*
G36*
G01*
X116075000Y-118875000D02*
X116075000Y-117925000D01*
G75*
G02*
X116325000Y-117675000I250000J0D01*
G01*
X117000000Y-117675000D01*
G75*
G02*
X117250000Y-117925000I0J-250000D01*
G01*
X117250000Y-118875000D01*
G75*
G02*
X117000000Y-119125000I-250000J0D01*
G01*
X116325000Y-119125000D01*
G75*
G02*
X116075000Y-118875000I0J250000D01*
G01*
G37*
G36*
G01*
X152150000Y-115375000D02*
X152150000Y-114425000D01*
G75*
G02*
X152400000Y-114175000I250000J0D01*
G01*
X153075000Y-114175000D01*
G75*
G02*
X153325000Y-114425000I0J-250000D01*
G01*
X153325000Y-115375000D01*
G75*
G02*
X153075000Y-115625000I-250000J0D01*
G01*
X152400000Y-115625000D01*
G75*
G02*
X152150000Y-115375000I0J250000D01*
G01*
G37*
G36*
G01*
X150075000Y-115375000D02*
X150075000Y-114425000D01*
G75*
G02*
X150325000Y-114175000I250000J0D01*
G01*
X151000000Y-114175000D01*
G75*
G02*
X151250000Y-114425000I0J-250000D01*
G01*
X151250000Y-115375000D01*
G75*
G02*
X151000000Y-115625000I-250000J0D01*
G01*
X150325000Y-115625000D01*
G75*
G02*
X150075000Y-115375000I0J250000D01*
G01*
G37*
G36*
G01*
X91750000Y-85375000D02*
X91750000Y-84425000D01*
G75*
G02*
X92000000Y-84175000I250000J0D01*
G01*
X92675000Y-84175000D01*
G75*
G02*
X92925000Y-84425000I0J-250000D01*
G01*
X92925000Y-85375000D01*
G75*
G02*
X92675000Y-85625000I-250000J0D01*
G01*
X92000000Y-85625000D01*
G75*
G02*
X91750000Y-85375000I0J250000D01*
G01*
G37*
G36*
G01*
X89675000Y-85375000D02*
X89675000Y-84425000D01*
G75*
G02*
X89925000Y-84175000I250000J0D01*
G01*
X90600000Y-84175000D01*
G75*
G02*
X90850000Y-84425000I0J-250000D01*
G01*
X90850000Y-85375000D01*
G75*
G02*
X90600000Y-85625000I-250000J0D01*
G01*
X89925000Y-85625000D01*
G75*
G02*
X89675000Y-85375000I0J250000D01*
G01*
G37*
G36*
G01*
X98750000Y-60375000D02*
X98750000Y-59425000D01*
G75*
G02*
X99000000Y-59175000I250000J0D01*
G01*
X99675000Y-59175000D01*
G75*
G02*
X99925000Y-59425000I0J-250000D01*
G01*
X99925000Y-60375000D01*
G75*
G02*
X99675000Y-60625000I-250000J0D01*
G01*
X99000000Y-60625000D01*
G75*
G02*
X98750000Y-60375000I0J250000D01*
G01*
G37*
G36*
G01*
X96675000Y-60375000D02*
X96675000Y-59425000D01*
G75*
G02*
X96925000Y-59175000I250000J0D01*
G01*
X97600000Y-59175000D01*
G75*
G02*
X97850000Y-59425000I0J-250000D01*
G01*
X97850000Y-60375000D01*
G75*
G02*
X97600000Y-60625000I-250000J0D01*
G01*
X96925000Y-60625000D01*
G75*
G02*
X96675000Y-60375000I0J250000D01*
G01*
G37*
G36*
G01*
X179150000Y-58125000D02*
X179150000Y-59075000D01*
G75*
G02*
X178900000Y-59325000I-250000J0D01*
G01*
X178225000Y-59325000D01*
G75*
G02*
X177975000Y-59075000I0J250000D01*
G01*
X177975000Y-58125000D01*
G75*
G02*
X178225000Y-57875000I250000J0D01*
G01*
X178900000Y-57875000D01*
G75*
G02*
X179150000Y-58125000I0J-250000D01*
G01*
G37*
G36*
G01*
X181225000Y-58125000D02*
X181225000Y-59075000D01*
G75*
G02*
X180975000Y-59325000I-250000J0D01*
G01*
X180300000Y-59325000D01*
G75*
G02*
X180050000Y-59075000I0J250000D01*
G01*
X180050000Y-58125000D01*
G75*
G02*
X180300000Y-57875000I250000J0D01*
G01*
X180975000Y-57875000D01*
G75*
G02*
X181225000Y-58125000I0J-250000D01*
G01*
G37*
G36*
G01*
X119900000Y-104949999D02*
X119900000Y-105850001D01*
G75*
G02*
X119650001Y-106100000I-249999J0D01*
G01*
X118949999Y-106100000D01*
G75*
G02*
X118700000Y-105850001I0J249999D01*
G01*
X118700000Y-104949999D01*
G75*
G02*
X118949999Y-104700000I249999J0D01*
G01*
X119650001Y-104700000D01*
G75*
G02*
X119900000Y-104949999I0J-249999D01*
G01*
G37*
G36*
G01*
X121900000Y-104949999D02*
X121900000Y-105850001D01*
G75*
G02*
X121650001Y-106100000I-249999J0D01*
G01*
X120949999Y-106100000D01*
G75*
G02*
X120700000Y-105850001I0J249999D01*
G01*
X120700000Y-104949999D01*
G75*
G02*
X120949999Y-104700000I249999J0D01*
G01*
X121650001Y-104700000D01*
G75*
G02*
X121900000Y-104949999I0J-249999D01*
G01*
G37*
G36*
G01*
X127850000Y-105850001D02*
X127850000Y-104949999D01*
G75*
G02*
X128099999Y-104700000I249999J0D01*
G01*
X128750001Y-104700000D01*
G75*
G02*
X129000000Y-104949999I0J-249999D01*
G01*
X129000000Y-105850001D01*
G75*
G02*
X128750001Y-106100000I-249999J0D01*
G01*
X128099999Y-106100000D01*
G75*
G02*
X127850000Y-105850001I0J249999D01*
G01*
G37*
G36*
G01*
X125800000Y-105850001D02*
X125800000Y-104949999D01*
G75*
G02*
X126049999Y-104700000I249999J0D01*
G01*
X126700001Y-104700000D01*
G75*
G02*
X126950000Y-104949999I0J-249999D01*
G01*
X126950000Y-105850001D01*
G75*
G02*
X126700001Y-106100000I-249999J0D01*
G01*
X126049999Y-106100000D01*
G75*
G02*
X125800000Y-105850001I0J249999D01*
G01*
G37*
D16*
X89000000Y-124380000D03*
X89000000Y-121840000D03*
X89000000Y-119300000D03*
X89000000Y-116760000D03*
X89000000Y-114220000D03*
X89000000Y-111680000D03*
X89000000Y-109140000D03*
D17*
X89000000Y-106600000D03*
G36*
G01*
X125500000Y-87450001D02*
X125500000Y-86549999D01*
G75*
G02*
X125749999Y-86300000I249999J0D01*
G01*
X126450001Y-86300000D01*
G75*
G02*
X126700000Y-86549999I0J-249999D01*
G01*
X126700000Y-87450001D01*
G75*
G02*
X126450001Y-87700000I-249999J0D01*
G01*
X125749999Y-87700000D01*
G75*
G02*
X125500000Y-87450001I0J249999D01*
G01*
G37*
G36*
G01*
X123500000Y-87450001D02*
X123500000Y-86549999D01*
G75*
G02*
X123749999Y-86300000I249999J0D01*
G01*
X124450001Y-86300000D01*
G75*
G02*
X124700000Y-86549999I0J-249999D01*
G01*
X124700000Y-87450001D01*
G75*
G02*
X124450001Y-87700000I-249999J0D01*
G01*
X123749999Y-87700000D01*
G75*
G02*
X123500000Y-87450001I0J249999D01*
G01*
G37*
G36*
G01*
X131014285Y-87450001D02*
X131014285Y-86549999D01*
G75*
G02*
X131264284Y-86300000I249999J0D01*
G01*
X131964286Y-86300000D01*
G75*
G02*
X132214285Y-86549999I0J-249999D01*
G01*
X132214285Y-87450001D01*
G75*
G02*
X131964286Y-87700000I-249999J0D01*
G01*
X131264284Y-87700000D01*
G75*
G02*
X131014285Y-87450001I0J249999D01*
G01*
G37*
G36*
G01*
X129014285Y-87450001D02*
X129014285Y-86549999D01*
G75*
G02*
X129264284Y-86300000I249999J0D01*
G01*
X129964286Y-86300000D01*
G75*
G02*
X130214285Y-86549999I0J-249999D01*
G01*
X130214285Y-87450001D01*
G75*
G02*
X129964286Y-87700000I-249999J0D01*
G01*
X129264284Y-87700000D01*
G75*
G02*
X129014285Y-87450001I0J249999D01*
G01*
G37*
G36*
G01*
X136528570Y-87450001D02*
X136528570Y-86549999D01*
G75*
G02*
X136778569Y-86300000I249999J0D01*
G01*
X137478571Y-86300000D01*
G75*
G02*
X137728570Y-86549999I0J-249999D01*
G01*
X137728570Y-87450001D01*
G75*
G02*
X137478571Y-87700000I-249999J0D01*
G01*
X136778569Y-87700000D01*
G75*
G02*
X136528570Y-87450001I0J249999D01*
G01*
G37*
G36*
G01*
X134528570Y-87450001D02*
X134528570Y-86549999D01*
G75*
G02*
X134778569Y-86300000I249999J0D01*
G01*
X135478571Y-86300000D01*
G75*
G02*
X135728570Y-86549999I0J-249999D01*
G01*
X135728570Y-87450001D01*
G75*
G02*
X135478571Y-87700000I-249999J0D01*
G01*
X134778569Y-87700000D01*
G75*
G02*
X134528570Y-87450001I0J249999D01*
G01*
G37*
G36*
G01*
X142042855Y-87450001D02*
X142042855Y-86549999D01*
G75*
G02*
X142292854Y-86300000I249999J0D01*
G01*
X142992856Y-86300000D01*
G75*
G02*
X143242855Y-86549999I0J-249999D01*
G01*
X143242855Y-87450001D01*
G75*
G02*
X142992856Y-87700000I-249999J0D01*
G01*
X142292854Y-87700000D01*
G75*
G02*
X142042855Y-87450001I0J249999D01*
G01*
G37*
G36*
G01*
X140042855Y-87450001D02*
X140042855Y-86549999D01*
G75*
G02*
X140292854Y-86300000I249999J0D01*
G01*
X140992856Y-86300000D01*
G75*
G02*
X141242855Y-86549999I0J-249999D01*
G01*
X141242855Y-87450001D01*
G75*
G02*
X140992856Y-87700000I-249999J0D01*
G01*
X140292854Y-87700000D01*
G75*
G02*
X140042855Y-87450001I0J249999D01*
G01*
G37*
G36*
G01*
X147557140Y-87450001D02*
X147557140Y-86549999D01*
G75*
G02*
X147807139Y-86300000I249999J0D01*
G01*
X148507141Y-86300000D01*
G75*
G02*
X148757140Y-86549999I0J-249999D01*
G01*
X148757140Y-87450001D01*
G75*
G02*
X148507141Y-87700000I-249999J0D01*
G01*
X147807139Y-87700000D01*
G75*
G02*
X147557140Y-87450001I0J249999D01*
G01*
G37*
G36*
G01*
X145557140Y-87450001D02*
X145557140Y-86549999D01*
G75*
G02*
X145807139Y-86300000I249999J0D01*
G01*
X146507141Y-86300000D01*
G75*
G02*
X146757140Y-86549999I0J-249999D01*
G01*
X146757140Y-87450001D01*
G75*
G02*
X146507141Y-87700000I-249999J0D01*
G01*
X145807139Y-87700000D01*
G75*
G02*
X145557140Y-87450001I0J249999D01*
G01*
G37*
G36*
G01*
X153071425Y-87450001D02*
X153071425Y-86549999D01*
G75*
G02*
X153321424Y-86300000I249999J0D01*
G01*
X154021426Y-86300000D01*
G75*
G02*
X154271425Y-86549999I0J-249999D01*
G01*
X154271425Y-87450001D01*
G75*
G02*
X154021426Y-87700000I-249999J0D01*
G01*
X153321424Y-87700000D01*
G75*
G02*
X153071425Y-87450001I0J249999D01*
G01*
G37*
G36*
G01*
X151071425Y-87450001D02*
X151071425Y-86549999D01*
G75*
G02*
X151321424Y-86300000I249999J0D01*
G01*
X152021426Y-86300000D01*
G75*
G02*
X152271425Y-86549999I0J-249999D01*
G01*
X152271425Y-87450001D01*
G75*
G02*
X152021426Y-87700000I-249999J0D01*
G01*
X151321424Y-87700000D01*
G75*
G02*
X151071425Y-87450001I0J249999D01*
G01*
G37*
G36*
G01*
X158585710Y-87450001D02*
X158585710Y-86549999D01*
G75*
G02*
X158835709Y-86300000I249999J0D01*
G01*
X159535711Y-86300000D01*
G75*
G02*
X159785710Y-86549999I0J-249999D01*
G01*
X159785710Y-87450001D01*
G75*
G02*
X159535711Y-87700000I-249999J0D01*
G01*
X158835709Y-87700000D01*
G75*
G02*
X158585710Y-87450001I0J249999D01*
G01*
G37*
G36*
G01*
X156585710Y-87450001D02*
X156585710Y-86549999D01*
G75*
G02*
X156835709Y-86300000I249999J0D01*
G01*
X157535711Y-86300000D01*
G75*
G02*
X157785710Y-86549999I0J-249999D01*
G01*
X157785710Y-87450001D01*
G75*
G02*
X157535711Y-87700000I-249999J0D01*
G01*
X156835709Y-87700000D01*
G75*
G02*
X156585710Y-87450001I0J249999D01*
G01*
G37*
G36*
G01*
X164100000Y-87450001D02*
X164100000Y-86549999D01*
G75*
G02*
X164349999Y-86300000I249999J0D01*
G01*
X165050001Y-86300000D01*
G75*
G02*
X165300000Y-86549999I0J-249999D01*
G01*
X165300000Y-87450001D01*
G75*
G02*
X165050001Y-87700000I-249999J0D01*
G01*
X164349999Y-87700000D01*
G75*
G02*
X164100000Y-87450001I0J249999D01*
G01*
G37*
G36*
G01*
X162100000Y-87450001D02*
X162100000Y-86549999D01*
G75*
G02*
X162349999Y-86300000I249999J0D01*
G01*
X163050001Y-86300000D01*
G75*
G02*
X163300000Y-86549999I0J-249999D01*
G01*
X163300000Y-87450001D01*
G75*
G02*
X163050001Y-87700000I-249999J0D01*
G01*
X162349999Y-87700000D01*
G75*
G02*
X162100000Y-87450001I0J249999D01*
G01*
G37*
G36*
G01*
X125550000Y-90850001D02*
X125550000Y-89949999D01*
G75*
G02*
X125799999Y-89700000I249999J0D01*
G01*
X126450001Y-89700000D01*
G75*
G02*
X126700000Y-89949999I0J-249999D01*
G01*
X126700000Y-90850001D01*
G75*
G02*
X126450001Y-91100000I-249999J0D01*
G01*
X125799999Y-91100000D01*
G75*
G02*
X125550000Y-90850001I0J249999D01*
G01*
G37*
G36*
G01*
X123500000Y-90850001D02*
X123500000Y-89949999D01*
G75*
G02*
X123749999Y-89700000I249999J0D01*
G01*
X124400001Y-89700000D01*
G75*
G02*
X124650000Y-89949999I0J-249999D01*
G01*
X124650000Y-90850001D01*
G75*
G02*
X124400001Y-91100000I-249999J0D01*
G01*
X123749999Y-91100000D01*
G75*
G02*
X123500000Y-90850001I0J249999D01*
G01*
G37*
G36*
G01*
X131050000Y-90850001D02*
X131050000Y-89949999D01*
G75*
G02*
X131299999Y-89700000I249999J0D01*
G01*
X131950001Y-89700000D01*
G75*
G02*
X132200000Y-89949999I0J-249999D01*
G01*
X132200000Y-90850001D01*
G75*
G02*
X131950001Y-91100000I-249999J0D01*
G01*
X131299999Y-91100000D01*
G75*
G02*
X131050000Y-90850001I0J249999D01*
G01*
G37*
G36*
G01*
X129000000Y-90850001D02*
X129000000Y-89949999D01*
G75*
G02*
X129249999Y-89700000I249999J0D01*
G01*
X129900001Y-89700000D01*
G75*
G02*
X130150000Y-89949999I0J-249999D01*
G01*
X130150000Y-90850001D01*
G75*
G02*
X129900001Y-91100000I-249999J0D01*
G01*
X129249999Y-91100000D01*
G75*
G02*
X129000000Y-90850001I0J249999D01*
G01*
G37*
G36*
G01*
X136550000Y-90850001D02*
X136550000Y-89949999D01*
G75*
G02*
X136799999Y-89700000I249999J0D01*
G01*
X137450001Y-89700000D01*
G75*
G02*
X137700000Y-89949999I0J-249999D01*
G01*
X137700000Y-90850001D01*
G75*
G02*
X137450001Y-91100000I-249999J0D01*
G01*
X136799999Y-91100000D01*
G75*
G02*
X136550000Y-90850001I0J249999D01*
G01*
G37*
G36*
G01*
X134500000Y-90850001D02*
X134500000Y-89949999D01*
G75*
G02*
X134749999Y-89700000I249999J0D01*
G01*
X135400001Y-89700000D01*
G75*
G02*
X135650000Y-89949999I0J-249999D01*
G01*
X135650000Y-90850001D01*
G75*
G02*
X135400001Y-91100000I-249999J0D01*
G01*
X134749999Y-91100000D01*
G75*
G02*
X134500000Y-90850001I0J249999D01*
G01*
G37*
G36*
G01*
X142092855Y-90850001D02*
X142092855Y-89949999D01*
G75*
G02*
X142342854Y-89700000I249999J0D01*
G01*
X142992856Y-89700000D01*
G75*
G02*
X143242855Y-89949999I0J-249999D01*
G01*
X143242855Y-90850001D01*
G75*
G02*
X142992856Y-91100000I-249999J0D01*
G01*
X142342854Y-91100000D01*
G75*
G02*
X142092855Y-90850001I0J249999D01*
G01*
G37*
G36*
G01*
X140042855Y-90850001D02*
X140042855Y-89949999D01*
G75*
G02*
X140292854Y-89700000I249999J0D01*
G01*
X140942856Y-89700000D01*
G75*
G02*
X141192855Y-89949999I0J-249999D01*
G01*
X141192855Y-90850001D01*
G75*
G02*
X140942856Y-91100000I-249999J0D01*
G01*
X140292854Y-91100000D01*
G75*
G02*
X140042855Y-90850001I0J249999D01*
G01*
G37*
G36*
G01*
X147607140Y-90850001D02*
X147607140Y-89949999D01*
G75*
G02*
X147857139Y-89700000I249999J0D01*
G01*
X148507141Y-89700000D01*
G75*
G02*
X148757140Y-89949999I0J-249999D01*
G01*
X148757140Y-90850001D01*
G75*
G02*
X148507141Y-91100000I-249999J0D01*
G01*
X147857139Y-91100000D01*
G75*
G02*
X147607140Y-90850001I0J249999D01*
G01*
G37*
G36*
G01*
X145557140Y-90850001D02*
X145557140Y-89949999D01*
G75*
G02*
X145807139Y-89700000I249999J0D01*
G01*
X146457141Y-89700000D01*
G75*
G02*
X146707140Y-89949999I0J-249999D01*
G01*
X146707140Y-90850001D01*
G75*
G02*
X146457141Y-91100000I-249999J0D01*
G01*
X145807139Y-91100000D01*
G75*
G02*
X145557140Y-90850001I0J249999D01*
G01*
G37*
G36*
G01*
X153121425Y-90850001D02*
X153121425Y-89949999D01*
G75*
G02*
X153371424Y-89700000I249999J0D01*
G01*
X154021426Y-89700000D01*
G75*
G02*
X154271425Y-89949999I0J-249999D01*
G01*
X154271425Y-90850001D01*
G75*
G02*
X154021426Y-91100000I-249999J0D01*
G01*
X153371424Y-91100000D01*
G75*
G02*
X153121425Y-90850001I0J249999D01*
G01*
G37*
G36*
G01*
X151071425Y-90850001D02*
X151071425Y-89949999D01*
G75*
G02*
X151321424Y-89700000I249999J0D01*
G01*
X151971426Y-89700000D01*
G75*
G02*
X152221425Y-89949999I0J-249999D01*
G01*
X152221425Y-90850001D01*
G75*
G02*
X151971426Y-91100000I-249999J0D01*
G01*
X151321424Y-91100000D01*
G75*
G02*
X151071425Y-90850001I0J249999D01*
G01*
G37*
G36*
G01*
X158635710Y-90850001D02*
X158635710Y-89949999D01*
G75*
G02*
X158885709Y-89700000I249999J0D01*
G01*
X159535711Y-89700000D01*
G75*
G02*
X159785710Y-89949999I0J-249999D01*
G01*
X159785710Y-90850001D01*
G75*
G02*
X159535711Y-91100000I-249999J0D01*
G01*
X158885709Y-91100000D01*
G75*
G02*
X158635710Y-90850001I0J249999D01*
G01*
G37*
G36*
G01*
X156585710Y-90850001D02*
X156585710Y-89949999D01*
G75*
G02*
X156835709Y-89700000I249999J0D01*
G01*
X157485711Y-89700000D01*
G75*
G02*
X157735710Y-89949999I0J-249999D01*
G01*
X157735710Y-90850001D01*
G75*
G02*
X157485711Y-91100000I-249999J0D01*
G01*
X156835709Y-91100000D01*
G75*
G02*
X156585710Y-90850001I0J249999D01*
G01*
G37*
G36*
G01*
X164150000Y-90850001D02*
X164150000Y-89949999D01*
G75*
G02*
X164399999Y-89700000I249999J0D01*
G01*
X165050001Y-89700000D01*
G75*
G02*
X165300000Y-89949999I0J-249999D01*
G01*
X165300000Y-90850001D01*
G75*
G02*
X165050001Y-91100000I-249999J0D01*
G01*
X164399999Y-91100000D01*
G75*
G02*
X164150000Y-90850001I0J249999D01*
G01*
G37*
G36*
G01*
X162100000Y-90850001D02*
X162100000Y-89949999D01*
G75*
G02*
X162349999Y-89700000I249999J0D01*
G01*
X163000001Y-89700000D01*
G75*
G02*
X163250000Y-89949999I0J-249999D01*
G01*
X163250000Y-90850001D01*
G75*
G02*
X163000001Y-91100000I-249999J0D01*
G01*
X162349999Y-91100000D01*
G75*
G02*
X162100000Y-90850001I0J249999D01*
G01*
G37*
D16*
X185460000Y-136000000D03*
X182920000Y-136000000D03*
X180380000Y-136000000D03*
X177840000Y-136000000D03*
X175300000Y-136000000D03*
X172760000Y-136000000D03*
X170220000Y-136000000D03*
X167680000Y-136000000D03*
X165140000Y-136000000D03*
X162600000Y-136000000D03*
X160060000Y-136000000D03*
X157520000Y-136000000D03*
X154980000Y-136000000D03*
X152440000Y-136000000D03*
X149900000Y-136000000D03*
X147360000Y-136000000D03*
X144820000Y-136000000D03*
X142280000Y-136000000D03*
X139740000Y-136000000D03*
X137200000Y-136000000D03*
X134660000Y-136000000D03*
X132120000Y-136000000D03*
X129580000Y-136000000D03*
X127040000Y-136000000D03*
X124500000Y-136000000D03*
X121960000Y-136000000D03*
X119420000Y-136000000D03*
X116880000Y-136000000D03*
X114340000Y-136000000D03*
X111800000Y-136000000D03*
X109260000Y-136000000D03*
X106720000Y-136000000D03*
X104180000Y-136000000D03*
X101640000Y-136000000D03*
X99100000Y-136000000D03*
X96560000Y-136000000D03*
X94020000Y-136000000D03*
X91480000Y-136000000D03*
X88940000Y-136000000D03*
D17*
X86400000Y-136000000D03*
D16*
X185460000Y-46000000D03*
X182920000Y-46000000D03*
X180380000Y-46000000D03*
X177840000Y-46000000D03*
X175300000Y-46000000D03*
X172760000Y-46000000D03*
X170220000Y-46000000D03*
X167680000Y-46000000D03*
X165140000Y-46000000D03*
X162600000Y-46000000D03*
X160060000Y-46000000D03*
X157520000Y-46000000D03*
X154980000Y-46000000D03*
X152440000Y-46000000D03*
X149900000Y-46000000D03*
X147360000Y-46000000D03*
X144820000Y-46000000D03*
X142280000Y-46000000D03*
X139740000Y-46000000D03*
X137200000Y-46000000D03*
X134660000Y-46000000D03*
X132120000Y-46000000D03*
X129580000Y-46000000D03*
X127040000Y-46000000D03*
X124500000Y-46000000D03*
X121960000Y-46000000D03*
X119420000Y-46000000D03*
X116880000Y-46000000D03*
X114340000Y-46000000D03*
X111800000Y-46000000D03*
X109260000Y-46000000D03*
X106720000Y-46000000D03*
X104180000Y-46000000D03*
X101640000Y-46000000D03*
X99100000Y-46000000D03*
X96560000Y-46000000D03*
X94020000Y-46000000D03*
X91480000Y-46000000D03*
X88940000Y-46000000D03*
D17*
X86400000Y-46000000D03*
M02*
