G04 #@! TF.GenerationSoftware,KiCad,Pcbnew,(5.1.9)-1*
G04 #@! TF.CreationDate,2021-10-24T10:03:21-04:00*
G04 #@! TF.ProjectId,ram-mar,72616d2d-6d61-4722-9e6b-696361645f70,1.0*
G04 #@! TF.SameCoordinates,Original*
G04 #@! TF.FileFunction,Paste,Top*
G04 #@! TF.FilePolarity,Positive*
%FSLAX46Y46*%
G04 Gerber Fmt 4.6, Leading zero omitted, Abs format (unit mm)*
G04 Created by KiCad (PCBNEW (5.1.9)-1) date 2021-10-24 10:03:21*
%MOMM*%
%LPD*%
G01*
G04 APERTURE LIST*
G04 APERTURE END LIST*
G36*
G01*
X151850001Y-56300000D02*
X150949999Y-56300000D01*
G75*
G02*
X150700000Y-56050001I0J249999D01*
G01*
X150700000Y-55349999D01*
G75*
G02*
X150949999Y-55100000I249999J0D01*
G01*
X151850001Y-55100000D01*
G75*
G02*
X152100000Y-55349999I0J-249999D01*
G01*
X152100000Y-56050001D01*
G75*
G02*
X151850001Y-56300000I-249999J0D01*
G01*
G37*
G36*
G01*
X151850001Y-58300000D02*
X150949999Y-58300000D01*
G75*
G02*
X150700000Y-58050001I0J249999D01*
G01*
X150700000Y-57349999D01*
G75*
G02*
X150949999Y-57100000I249999J0D01*
G01*
X151850001Y-57100000D01*
G75*
G02*
X152100000Y-57349999I0J-249999D01*
G01*
X152100000Y-58050001D01*
G75*
G02*
X151850001Y-58300000I-249999J0D01*
G01*
G37*
G36*
G01*
X165150001Y-56300000D02*
X164249999Y-56300000D01*
G75*
G02*
X164000000Y-56050001I0J249999D01*
G01*
X164000000Y-55349999D01*
G75*
G02*
X164249999Y-55100000I249999J0D01*
G01*
X165150001Y-55100000D01*
G75*
G02*
X165400000Y-55349999I0J-249999D01*
G01*
X165400000Y-56050001D01*
G75*
G02*
X165150001Y-56300000I-249999J0D01*
G01*
G37*
G36*
G01*
X165150001Y-58300000D02*
X164249999Y-58300000D01*
G75*
G02*
X164000000Y-58050001I0J249999D01*
G01*
X164000000Y-57349999D01*
G75*
G02*
X164249999Y-57100000I249999J0D01*
G01*
X165150001Y-57100000D01*
G75*
G02*
X165400000Y-57349999I0J-249999D01*
G01*
X165400000Y-58050001D01*
G75*
G02*
X165150001Y-58300000I-249999J0D01*
G01*
G37*
G36*
G01*
X145200000Y-65049999D02*
X145200000Y-65950001D01*
G75*
G02*
X144950001Y-66200000I-249999J0D01*
G01*
X144249999Y-66200000D01*
G75*
G02*
X144000000Y-65950001I0J249999D01*
G01*
X144000000Y-65049999D01*
G75*
G02*
X144249999Y-64800000I249999J0D01*
G01*
X144950001Y-64800000D01*
G75*
G02*
X145200000Y-65049999I0J-249999D01*
G01*
G37*
G36*
G01*
X147200000Y-65049999D02*
X147200000Y-65950001D01*
G75*
G02*
X146950001Y-66200000I-249999J0D01*
G01*
X146249999Y-66200000D01*
G75*
G02*
X146000000Y-65950001I0J249999D01*
G01*
X146000000Y-65049999D01*
G75*
G02*
X146249999Y-64800000I249999J0D01*
G01*
X146950001Y-64800000D01*
G75*
G02*
X147200000Y-65049999I0J-249999D01*
G01*
G37*
G36*
G01*
X153400000Y-66050001D02*
X153400000Y-65149999D01*
G75*
G02*
X153649999Y-64900000I249999J0D01*
G01*
X154350001Y-64900000D01*
G75*
G02*
X154600000Y-65149999I0J-249999D01*
G01*
X154600000Y-66050001D01*
G75*
G02*
X154350001Y-66300000I-249999J0D01*
G01*
X153649999Y-66300000D01*
G75*
G02*
X153400000Y-66050001I0J249999D01*
G01*
G37*
G36*
G01*
X151400000Y-66050001D02*
X151400000Y-65149999D01*
G75*
G02*
X151649999Y-64900000I249999J0D01*
G01*
X152350001Y-64900000D01*
G75*
G02*
X152600000Y-65149999I0J-249999D01*
G01*
X152600000Y-66050001D01*
G75*
G02*
X152350001Y-66300000I-249999J0D01*
G01*
X151649999Y-66300000D01*
G75*
G02*
X151400000Y-66050001I0J249999D01*
G01*
G37*
G36*
G01*
X146050000Y-69550001D02*
X146050000Y-68649999D01*
G75*
G02*
X146299999Y-68400000I249999J0D01*
G01*
X146950001Y-68400000D01*
G75*
G02*
X147200000Y-68649999I0J-249999D01*
G01*
X147200000Y-69550001D01*
G75*
G02*
X146950001Y-69800000I-249999J0D01*
G01*
X146299999Y-69800000D01*
G75*
G02*
X146050000Y-69550001I0J249999D01*
G01*
G37*
G36*
G01*
X144000000Y-69550001D02*
X144000000Y-68649999D01*
G75*
G02*
X144249999Y-68400000I249999J0D01*
G01*
X144900001Y-68400000D01*
G75*
G02*
X145150000Y-68649999I0J-249999D01*
G01*
X145150000Y-69550001D01*
G75*
G02*
X144900001Y-69800000I-249999J0D01*
G01*
X144249999Y-69800000D01*
G75*
G02*
X144000000Y-69550001I0J249999D01*
G01*
G37*
G36*
G01*
X153425000Y-69550001D02*
X153425000Y-68649999D01*
G75*
G02*
X153674999Y-68400000I249999J0D01*
G01*
X154325001Y-68400000D01*
G75*
G02*
X154575000Y-68649999I0J-249999D01*
G01*
X154575000Y-69550001D01*
G75*
G02*
X154325001Y-69800000I-249999J0D01*
G01*
X153674999Y-69800000D01*
G75*
G02*
X153425000Y-69550001I0J249999D01*
G01*
G37*
G36*
G01*
X151375000Y-69550001D02*
X151375000Y-68649999D01*
G75*
G02*
X151624999Y-68400000I249999J0D01*
G01*
X152275001Y-68400000D01*
G75*
G02*
X152525000Y-68649999I0J-249999D01*
G01*
X152525000Y-69550001D01*
G75*
G02*
X152275001Y-69800000I-249999J0D01*
G01*
X151624999Y-69800000D01*
G75*
G02*
X151375000Y-69550001I0J249999D01*
G01*
G37*
G36*
G01*
X118150000Y-118875000D02*
X118150000Y-117925000D01*
G75*
G02*
X118400000Y-117675000I250000J0D01*
G01*
X119075000Y-117675000D01*
G75*
G02*
X119325000Y-117925000I0J-250000D01*
G01*
X119325000Y-118875000D01*
G75*
G02*
X119075000Y-119125000I-250000J0D01*
G01*
X118400000Y-119125000D01*
G75*
G02*
X118150000Y-118875000I0J250000D01*
G01*
G37*
G36*
G01*
X116075000Y-118875000D02*
X116075000Y-117925000D01*
G75*
G02*
X116325000Y-117675000I250000J0D01*
G01*
X117000000Y-117675000D01*
G75*
G02*
X117250000Y-117925000I0J-250000D01*
G01*
X117250000Y-118875000D01*
G75*
G02*
X117000000Y-119125000I-250000J0D01*
G01*
X116325000Y-119125000D01*
G75*
G02*
X116075000Y-118875000I0J250000D01*
G01*
G37*
G36*
G01*
X152150000Y-115375000D02*
X152150000Y-114425000D01*
G75*
G02*
X152400000Y-114175000I250000J0D01*
G01*
X153075000Y-114175000D01*
G75*
G02*
X153325000Y-114425000I0J-250000D01*
G01*
X153325000Y-115375000D01*
G75*
G02*
X153075000Y-115625000I-250000J0D01*
G01*
X152400000Y-115625000D01*
G75*
G02*
X152150000Y-115375000I0J250000D01*
G01*
G37*
G36*
G01*
X150075000Y-115375000D02*
X150075000Y-114425000D01*
G75*
G02*
X150325000Y-114175000I250000J0D01*
G01*
X151000000Y-114175000D01*
G75*
G02*
X151250000Y-114425000I0J-250000D01*
G01*
X151250000Y-115375000D01*
G75*
G02*
X151000000Y-115625000I-250000J0D01*
G01*
X150325000Y-115625000D01*
G75*
G02*
X150075000Y-115375000I0J250000D01*
G01*
G37*
G36*
G01*
X91750000Y-85375000D02*
X91750000Y-84425000D01*
G75*
G02*
X92000000Y-84175000I250000J0D01*
G01*
X92675000Y-84175000D01*
G75*
G02*
X92925000Y-84425000I0J-250000D01*
G01*
X92925000Y-85375000D01*
G75*
G02*
X92675000Y-85625000I-250000J0D01*
G01*
X92000000Y-85625000D01*
G75*
G02*
X91750000Y-85375000I0J250000D01*
G01*
G37*
G36*
G01*
X89675000Y-85375000D02*
X89675000Y-84425000D01*
G75*
G02*
X89925000Y-84175000I250000J0D01*
G01*
X90600000Y-84175000D01*
G75*
G02*
X90850000Y-84425000I0J-250000D01*
G01*
X90850000Y-85375000D01*
G75*
G02*
X90600000Y-85625000I-250000J0D01*
G01*
X89925000Y-85625000D01*
G75*
G02*
X89675000Y-85375000I0J250000D01*
G01*
G37*
G36*
G01*
X98750000Y-60375000D02*
X98750000Y-59425000D01*
G75*
G02*
X99000000Y-59175000I250000J0D01*
G01*
X99675000Y-59175000D01*
G75*
G02*
X99925000Y-59425000I0J-250000D01*
G01*
X99925000Y-60375000D01*
G75*
G02*
X99675000Y-60625000I-250000J0D01*
G01*
X99000000Y-60625000D01*
G75*
G02*
X98750000Y-60375000I0J250000D01*
G01*
G37*
G36*
G01*
X96675000Y-60375000D02*
X96675000Y-59425000D01*
G75*
G02*
X96925000Y-59175000I250000J0D01*
G01*
X97600000Y-59175000D01*
G75*
G02*
X97850000Y-59425000I0J-250000D01*
G01*
X97850000Y-60375000D01*
G75*
G02*
X97600000Y-60625000I-250000J0D01*
G01*
X96925000Y-60625000D01*
G75*
G02*
X96675000Y-60375000I0J250000D01*
G01*
G37*
G36*
G01*
X179150000Y-58125000D02*
X179150000Y-59075000D01*
G75*
G02*
X178900000Y-59325000I-250000J0D01*
G01*
X178225000Y-59325000D01*
G75*
G02*
X177975000Y-59075000I0J250000D01*
G01*
X177975000Y-58125000D01*
G75*
G02*
X178225000Y-57875000I250000J0D01*
G01*
X178900000Y-57875000D01*
G75*
G02*
X179150000Y-58125000I0J-250000D01*
G01*
G37*
G36*
G01*
X181225000Y-58125000D02*
X181225000Y-59075000D01*
G75*
G02*
X180975000Y-59325000I-250000J0D01*
G01*
X180300000Y-59325000D01*
G75*
G02*
X180050000Y-59075000I0J250000D01*
G01*
X180050000Y-58125000D01*
G75*
G02*
X180300000Y-57875000I250000J0D01*
G01*
X180975000Y-57875000D01*
G75*
G02*
X181225000Y-58125000I0J-250000D01*
G01*
G37*
G36*
G01*
X119900000Y-104949999D02*
X119900000Y-105850001D01*
G75*
G02*
X119650001Y-106100000I-249999J0D01*
G01*
X118949999Y-106100000D01*
G75*
G02*
X118700000Y-105850001I0J249999D01*
G01*
X118700000Y-104949999D01*
G75*
G02*
X118949999Y-104700000I249999J0D01*
G01*
X119650001Y-104700000D01*
G75*
G02*
X119900000Y-104949999I0J-249999D01*
G01*
G37*
G36*
G01*
X121900000Y-104949999D02*
X121900000Y-105850001D01*
G75*
G02*
X121650001Y-106100000I-249999J0D01*
G01*
X120949999Y-106100000D01*
G75*
G02*
X120700000Y-105850001I0J249999D01*
G01*
X120700000Y-104949999D01*
G75*
G02*
X120949999Y-104700000I249999J0D01*
G01*
X121650001Y-104700000D01*
G75*
G02*
X121900000Y-104949999I0J-249999D01*
G01*
G37*
G36*
G01*
X127850000Y-105850001D02*
X127850000Y-104949999D01*
G75*
G02*
X128099999Y-104700000I249999J0D01*
G01*
X128750001Y-104700000D01*
G75*
G02*
X129000000Y-104949999I0J-249999D01*
G01*
X129000000Y-105850001D01*
G75*
G02*
X128750001Y-106100000I-249999J0D01*
G01*
X128099999Y-106100000D01*
G75*
G02*
X127850000Y-105850001I0J249999D01*
G01*
G37*
G36*
G01*
X125800000Y-105850001D02*
X125800000Y-104949999D01*
G75*
G02*
X126049999Y-104700000I249999J0D01*
G01*
X126700001Y-104700000D01*
G75*
G02*
X126950000Y-104949999I0J-249999D01*
G01*
X126950000Y-105850001D01*
G75*
G02*
X126700001Y-106100000I-249999J0D01*
G01*
X126049999Y-106100000D01*
G75*
G02*
X125800000Y-105850001I0J249999D01*
G01*
G37*
G36*
G01*
X125500000Y-87450001D02*
X125500000Y-86549999D01*
G75*
G02*
X125749999Y-86300000I249999J0D01*
G01*
X126450001Y-86300000D01*
G75*
G02*
X126700000Y-86549999I0J-249999D01*
G01*
X126700000Y-87450001D01*
G75*
G02*
X126450001Y-87700000I-249999J0D01*
G01*
X125749999Y-87700000D01*
G75*
G02*
X125500000Y-87450001I0J249999D01*
G01*
G37*
G36*
G01*
X123500000Y-87450001D02*
X123500000Y-86549999D01*
G75*
G02*
X123749999Y-86300000I249999J0D01*
G01*
X124450001Y-86300000D01*
G75*
G02*
X124700000Y-86549999I0J-249999D01*
G01*
X124700000Y-87450001D01*
G75*
G02*
X124450001Y-87700000I-249999J0D01*
G01*
X123749999Y-87700000D01*
G75*
G02*
X123500000Y-87450001I0J249999D01*
G01*
G37*
G36*
G01*
X131014285Y-87450001D02*
X131014285Y-86549999D01*
G75*
G02*
X131264284Y-86300000I249999J0D01*
G01*
X131964286Y-86300000D01*
G75*
G02*
X132214285Y-86549999I0J-249999D01*
G01*
X132214285Y-87450001D01*
G75*
G02*
X131964286Y-87700000I-249999J0D01*
G01*
X131264284Y-87700000D01*
G75*
G02*
X131014285Y-87450001I0J249999D01*
G01*
G37*
G36*
G01*
X129014285Y-87450001D02*
X129014285Y-86549999D01*
G75*
G02*
X129264284Y-86300000I249999J0D01*
G01*
X129964286Y-86300000D01*
G75*
G02*
X130214285Y-86549999I0J-249999D01*
G01*
X130214285Y-87450001D01*
G75*
G02*
X129964286Y-87700000I-249999J0D01*
G01*
X129264284Y-87700000D01*
G75*
G02*
X129014285Y-87450001I0J249999D01*
G01*
G37*
G36*
G01*
X136528570Y-87450001D02*
X136528570Y-86549999D01*
G75*
G02*
X136778569Y-86300000I249999J0D01*
G01*
X137478571Y-86300000D01*
G75*
G02*
X137728570Y-86549999I0J-249999D01*
G01*
X137728570Y-87450001D01*
G75*
G02*
X137478571Y-87700000I-249999J0D01*
G01*
X136778569Y-87700000D01*
G75*
G02*
X136528570Y-87450001I0J249999D01*
G01*
G37*
G36*
G01*
X134528570Y-87450001D02*
X134528570Y-86549999D01*
G75*
G02*
X134778569Y-86300000I249999J0D01*
G01*
X135478571Y-86300000D01*
G75*
G02*
X135728570Y-86549999I0J-249999D01*
G01*
X135728570Y-87450001D01*
G75*
G02*
X135478571Y-87700000I-249999J0D01*
G01*
X134778569Y-87700000D01*
G75*
G02*
X134528570Y-87450001I0J249999D01*
G01*
G37*
G36*
G01*
X142042855Y-87450001D02*
X142042855Y-86549999D01*
G75*
G02*
X142292854Y-86300000I249999J0D01*
G01*
X142992856Y-86300000D01*
G75*
G02*
X143242855Y-86549999I0J-249999D01*
G01*
X143242855Y-87450001D01*
G75*
G02*
X142992856Y-87700000I-249999J0D01*
G01*
X142292854Y-87700000D01*
G75*
G02*
X142042855Y-87450001I0J249999D01*
G01*
G37*
G36*
G01*
X140042855Y-87450001D02*
X140042855Y-86549999D01*
G75*
G02*
X140292854Y-86300000I249999J0D01*
G01*
X140992856Y-86300000D01*
G75*
G02*
X141242855Y-86549999I0J-249999D01*
G01*
X141242855Y-87450001D01*
G75*
G02*
X140992856Y-87700000I-249999J0D01*
G01*
X140292854Y-87700000D01*
G75*
G02*
X140042855Y-87450001I0J249999D01*
G01*
G37*
G36*
G01*
X147557140Y-87450001D02*
X147557140Y-86549999D01*
G75*
G02*
X147807139Y-86300000I249999J0D01*
G01*
X148507141Y-86300000D01*
G75*
G02*
X148757140Y-86549999I0J-249999D01*
G01*
X148757140Y-87450001D01*
G75*
G02*
X148507141Y-87700000I-249999J0D01*
G01*
X147807139Y-87700000D01*
G75*
G02*
X147557140Y-87450001I0J249999D01*
G01*
G37*
G36*
G01*
X145557140Y-87450001D02*
X145557140Y-86549999D01*
G75*
G02*
X145807139Y-86300000I249999J0D01*
G01*
X146507141Y-86300000D01*
G75*
G02*
X146757140Y-86549999I0J-249999D01*
G01*
X146757140Y-87450001D01*
G75*
G02*
X146507141Y-87700000I-249999J0D01*
G01*
X145807139Y-87700000D01*
G75*
G02*
X145557140Y-87450001I0J249999D01*
G01*
G37*
G36*
G01*
X153071425Y-87450001D02*
X153071425Y-86549999D01*
G75*
G02*
X153321424Y-86300000I249999J0D01*
G01*
X154021426Y-86300000D01*
G75*
G02*
X154271425Y-86549999I0J-249999D01*
G01*
X154271425Y-87450001D01*
G75*
G02*
X154021426Y-87700000I-249999J0D01*
G01*
X153321424Y-87700000D01*
G75*
G02*
X153071425Y-87450001I0J249999D01*
G01*
G37*
G36*
G01*
X151071425Y-87450001D02*
X151071425Y-86549999D01*
G75*
G02*
X151321424Y-86300000I249999J0D01*
G01*
X152021426Y-86300000D01*
G75*
G02*
X152271425Y-86549999I0J-249999D01*
G01*
X152271425Y-87450001D01*
G75*
G02*
X152021426Y-87700000I-249999J0D01*
G01*
X151321424Y-87700000D01*
G75*
G02*
X151071425Y-87450001I0J249999D01*
G01*
G37*
G36*
G01*
X158585710Y-87450001D02*
X158585710Y-86549999D01*
G75*
G02*
X158835709Y-86300000I249999J0D01*
G01*
X159535711Y-86300000D01*
G75*
G02*
X159785710Y-86549999I0J-249999D01*
G01*
X159785710Y-87450001D01*
G75*
G02*
X159535711Y-87700000I-249999J0D01*
G01*
X158835709Y-87700000D01*
G75*
G02*
X158585710Y-87450001I0J249999D01*
G01*
G37*
G36*
G01*
X156585710Y-87450001D02*
X156585710Y-86549999D01*
G75*
G02*
X156835709Y-86300000I249999J0D01*
G01*
X157535711Y-86300000D01*
G75*
G02*
X157785710Y-86549999I0J-249999D01*
G01*
X157785710Y-87450001D01*
G75*
G02*
X157535711Y-87700000I-249999J0D01*
G01*
X156835709Y-87700000D01*
G75*
G02*
X156585710Y-87450001I0J249999D01*
G01*
G37*
G36*
G01*
X164100000Y-87450001D02*
X164100000Y-86549999D01*
G75*
G02*
X164349999Y-86300000I249999J0D01*
G01*
X165050001Y-86300000D01*
G75*
G02*
X165300000Y-86549999I0J-249999D01*
G01*
X165300000Y-87450001D01*
G75*
G02*
X165050001Y-87700000I-249999J0D01*
G01*
X164349999Y-87700000D01*
G75*
G02*
X164100000Y-87450001I0J249999D01*
G01*
G37*
G36*
G01*
X162100000Y-87450001D02*
X162100000Y-86549999D01*
G75*
G02*
X162349999Y-86300000I249999J0D01*
G01*
X163050001Y-86300000D01*
G75*
G02*
X163300000Y-86549999I0J-249999D01*
G01*
X163300000Y-87450001D01*
G75*
G02*
X163050001Y-87700000I-249999J0D01*
G01*
X162349999Y-87700000D01*
G75*
G02*
X162100000Y-87450001I0J249999D01*
G01*
G37*
G36*
G01*
X125550000Y-90850001D02*
X125550000Y-89949999D01*
G75*
G02*
X125799999Y-89700000I249999J0D01*
G01*
X126450001Y-89700000D01*
G75*
G02*
X126700000Y-89949999I0J-249999D01*
G01*
X126700000Y-90850001D01*
G75*
G02*
X126450001Y-91100000I-249999J0D01*
G01*
X125799999Y-91100000D01*
G75*
G02*
X125550000Y-90850001I0J249999D01*
G01*
G37*
G36*
G01*
X123500000Y-90850001D02*
X123500000Y-89949999D01*
G75*
G02*
X123749999Y-89700000I249999J0D01*
G01*
X124400001Y-89700000D01*
G75*
G02*
X124650000Y-89949999I0J-249999D01*
G01*
X124650000Y-90850001D01*
G75*
G02*
X124400001Y-91100000I-249999J0D01*
G01*
X123749999Y-91100000D01*
G75*
G02*
X123500000Y-90850001I0J249999D01*
G01*
G37*
G36*
G01*
X131050000Y-90850001D02*
X131050000Y-89949999D01*
G75*
G02*
X131299999Y-89700000I249999J0D01*
G01*
X131950001Y-89700000D01*
G75*
G02*
X132200000Y-89949999I0J-249999D01*
G01*
X132200000Y-90850001D01*
G75*
G02*
X131950001Y-91100000I-249999J0D01*
G01*
X131299999Y-91100000D01*
G75*
G02*
X131050000Y-90850001I0J249999D01*
G01*
G37*
G36*
G01*
X129000000Y-90850001D02*
X129000000Y-89949999D01*
G75*
G02*
X129249999Y-89700000I249999J0D01*
G01*
X129900001Y-89700000D01*
G75*
G02*
X130150000Y-89949999I0J-249999D01*
G01*
X130150000Y-90850001D01*
G75*
G02*
X129900001Y-91100000I-249999J0D01*
G01*
X129249999Y-91100000D01*
G75*
G02*
X129000000Y-90850001I0J249999D01*
G01*
G37*
G36*
G01*
X136550000Y-90850001D02*
X136550000Y-89949999D01*
G75*
G02*
X136799999Y-89700000I249999J0D01*
G01*
X137450001Y-89700000D01*
G75*
G02*
X137700000Y-89949999I0J-249999D01*
G01*
X137700000Y-90850001D01*
G75*
G02*
X137450001Y-91100000I-249999J0D01*
G01*
X136799999Y-91100000D01*
G75*
G02*
X136550000Y-90850001I0J249999D01*
G01*
G37*
G36*
G01*
X134500000Y-90850001D02*
X134500000Y-89949999D01*
G75*
G02*
X134749999Y-89700000I249999J0D01*
G01*
X135400001Y-89700000D01*
G75*
G02*
X135650000Y-89949999I0J-249999D01*
G01*
X135650000Y-90850001D01*
G75*
G02*
X135400001Y-91100000I-249999J0D01*
G01*
X134749999Y-91100000D01*
G75*
G02*
X134500000Y-90850001I0J249999D01*
G01*
G37*
G36*
G01*
X142092855Y-90850001D02*
X142092855Y-89949999D01*
G75*
G02*
X142342854Y-89700000I249999J0D01*
G01*
X142992856Y-89700000D01*
G75*
G02*
X143242855Y-89949999I0J-249999D01*
G01*
X143242855Y-90850001D01*
G75*
G02*
X142992856Y-91100000I-249999J0D01*
G01*
X142342854Y-91100000D01*
G75*
G02*
X142092855Y-90850001I0J249999D01*
G01*
G37*
G36*
G01*
X140042855Y-90850001D02*
X140042855Y-89949999D01*
G75*
G02*
X140292854Y-89700000I249999J0D01*
G01*
X140942856Y-89700000D01*
G75*
G02*
X141192855Y-89949999I0J-249999D01*
G01*
X141192855Y-90850001D01*
G75*
G02*
X140942856Y-91100000I-249999J0D01*
G01*
X140292854Y-91100000D01*
G75*
G02*
X140042855Y-90850001I0J249999D01*
G01*
G37*
G36*
G01*
X147607140Y-90850001D02*
X147607140Y-89949999D01*
G75*
G02*
X147857139Y-89700000I249999J0D01*
G01*
X148507141Y-89700000D01*
G75*
G02*
X148757140Y-89949999I0J-249999D01*
G01*
X148757140Y-90850001D01*
G75*
G02*
X148507141Y-91100000I-249999J0D01*
G01*
X147857139Y-91100000D01*
G75*
G02*
X147607140Y-90850001I0J249999D01*
G01*
G37*
G36*
G01*
X145557140Y-90850001D02*
X145557140Y-89949999D01*
G75*
G02*
X145807139Y-89700000I249999J0D01*
G01*
X146457141Y-89700000D01*
G75*
G02*
X146707140Y-89949999I0J-249999D01*
G01*
X146707140Y-90850001D01*
G75*
G02*
X146457141Y-91100000I-249999J0D01*
G01*
X145807139Y-91100000D01*
G75*
G02*
X145557140Y-90850001I0J249999D01*
G01*
G37*
G36*
G01*
X153121425Y-90850001D02*
X153121425Y-89949999D01*
G75*
G02*
X153371424Y-89700000I249999J0D01*
G01*
X154021426Y-89700000D01*
G75*
G02*
X154271425Y-89949999I0J-249999D01*
G01*
X154271425Y-90850001D01*
G75*
G02*
X154021426Y-91100000I-249999J0D01*
G01*
X153371424Y-91100000D01*
G75*
G02*
X153121425Y-90850001I0J249999D01*
G01*
G37*
G36*
G01*
X151071425Y-90850001D02*
X151071425Y-89949999D01*
G75*
G02*
X151321424Y-89700000I249999J0D01*
G01*
X151971426Y-89700000D01*
G75*
G02*
X152221425Y-89949999I0J-249999D01*
G01*
X152221425Y-90850001D01*
G75*
G02*
X151971426Y-91100000I-249999J0D01*
G01*
X151321424Y-91100000D01*
G75*
G02*
X151071425Y-90850001I0J249999D01*
G01*
G37*
G36*
G01*
X158635710Y-90850001D02*
X158635710Y-89949999D01*
G75*
G02*
X158885709Y-89700000I249999J0D01*
G01*
X159535711Y-89700000D01*
G75*
G02*
X159785710Y-89949999I0J-249999D01*
G01*
X159785710Y-90850001D01*
G75*
G02*
X159535711Y-91100000I-249999J0D01*
G01*
X158885709Y-91100000D01*
G75*
G02*
X158635710Y-90850001I0J249999D01*
G01*
G37*
G36*
G01*
X156585710Y-90850001D02*
X156585710Y-89949999D01*
G75*
G02*
X156835709Y-89700000I249999J0D01*
G01*
X157485711Y-89700000D01*
G75*
G02*
X157735710Y-89949999I0J-249999D01*
G01*
X157735710Y-90850001D01*
G75*
G02*
X157485711Y-91100000I-249999J0D01*
G01*
X156835709Y-91100000D01*
G75*
G02*
X156585710Y-90850001I0J249999D01*
G01*
G37*
G36*
G01*
X164150000Y-90850001D02*
X164150000Y-89949999D01*
G75*
G02*
X164399999Y-89700000I249999J0D01*
G01*
X165050001Y-89700000D01*
G75*
G02*
X165300000Y-89949999I0J-249999D01*
G01*
X165300000Y-90850001D01*
G75*
G02*
X165050001Y-91100000I-249999J0D01*
G01*
X164399999Y-91100000D01*
G75*
G02*
X164150000Y-90850001I0J249999D01*
G01*
G37*
G36*
G01*
X162100000Y-90850001D02*
X162100000Y-89949999D01*
G75*
G02*
X162349999Y-89700000I249999J0D01*
G01*
X163000001Y-89700000D01*
G75*
G02*
X163250000Y-89949999I0J-249999D01*
G01*
X163250000Y-90850001D01*
G75*
G02*
X163000001Y-91100000I-249999J0D01*
G01*
X162349999Y-91100000D01*
G75*
G02*
X162100000Y-90850001I0J249999D01*
G01*
G37*
M02*
