M48
; DRILL file {KiCad (5.1.9)-1} date 10/24/21 10:03:25
; FORMAT={-:-/ absolute / metric / decimal}
; #@! TF.CreationDate,2021-10-24T10:03:25-04:00
; #@! TF.GenerationSoftware,Kicad,Pcbnew,(5.1.9)-1
; #@! TF.FileFunction,Plated,1,2,PTH
FMAT,2
METRIC
T1C0.400
T2C0.800
T3C1.000
%
G90
G05
T1
X114.1Y-99.3
X114.1Y-105.4
X114.1Y-116.2
X114.1Y-118.4
X114.1Y-122.9
X117.7Y-97.6
X118.1Y-65.6
X126.9Y-52.3
X129.6Y-53.3
X130.5Y-105.4
X132.0Y-54.2
X134.5Y-65.6
X134.5Y-103.6
X135.3Y-110.6
X149.1Y-69.1
X151.4Y-52.5
X158.8Y-103.6
X163.8Y-102.4
X164.7Y-52.5
X166.3Y-101.0
X167.3Y-75.5
X167.3Y-110.6
X169.3Y-97.6
X172.5Y-55.1
T2
X92.3Y-88.38
X92.3Y-96.0
X94.84Y-88.38
X94.84Y-96.0
X97.38Y-88.38
X97.38Y-96.0
X99.92Y-88.38
X99.92Y-96.0
X102.46Y-88.38
X102.46Y-96.0
X102.8Y-59.86
X102.8Y-75.1
X105.0Y-88.38
X105.0Y-96.0
X105.34Y-59.86
X105.34Y-75.1
X107.54Y-88.38
X107.54Y-96.0
X107.88Y-59.86
X107.88Y-75.1
X110.08Y-88.38
X110.08Y-96.0
X110.42Y-59.86
X110.42Y-75.1
X112.62Y-88.38
X112.62Y-96.0
X112.96Y-59.86
X112.96Y-75.1
X115.16Y-88.38
X115.16Y-96.0
X115.5Y-59.86
X115.5Y-75.1
X118.04Y-59.86
X118.04Y-75.1
X120.58Y-59.86
X120.58Y-75.1
X122.4Y-118.38
X122.4Y-126.0
X123.12Y-59.86
X123.12Y-75.1
X124.94Y-118.38
X124.94Y-126.0
X125.66Y-59.86
X125.66Y-75.1
X127.48Y-118.38
X127.48Y-126.0
X128.2Y-59.86
X128.2Y-75.1
X130.02Y-118.38
X130.02Y-126.0
X130.74Y-59.86
X130.74Y-75.1
X132.56Y-118.38
X132.56Y-126.0
X133.28Y-59.86
X133.28Y-75.1
X135.1Y-118.38
X135.1Y-126.0
X135.82Y-59.86
X135.82Y-75.1
X137.64Y-118.38
X137.64Y-126.0
X140.18Y-118.38
X140.18Y-126.0
X153.7Y-118.38
X153.7Y-126.0
X156.24Y-118.38
X156.24Y-126.0
X158.78Y-118.38
X158.78Y-126.0
X161.32Y-118.38
X161.32Y-126.0
X163.86Y-118.38
X163.86Y-126.0
X166.4Y-118.38
X166.4Y-126.0
X168.94Y-118.38
X168.94Y-126.0
X170.9Y-62.7
X170.9Y-65.24
X170.9Y-67.78
X170.9Y-70.32
X170.9Y-72.86
X170.9Y-75.4
X170.9Y-77.94
X171.48Y-118.38
X171.48Y-126.0
X178.52Y-62.7
X178.52Y-65.24
X178.52Y-67.78
X178.52Y-70.32
X178.52Y-72.86
X178.52Y-75.4
X178.52Y-77.94
T3
X86.4Y-46.0
X86.4Y-136.0
X88.94Y-46.0
X88.94Y-136.0
X89.0Y-106.6
X89.0Y-109.14
X89.0Y-111.68
X89.0Y-114.22
X89.0Y-116.76
X89.0Y-119.3
X89.0Y-121.84
X89.0Y-124.38
X91.48Y-46.0
X91.48Y-136.0
X94.02Y-46.0
X94.02Y-136.0
X96.56Y-46.0
X96.56Y-136.0
X99.1Y-46.0
X99.1Y-136.0
X101.64Y-46.0
X101.64Y-136.0
X104.18Y-46.0
X104.18Y-136.0
X106.72Y-46.0
X106.72Y-136.0
X109.26Y-46.0
X109.26Y-136.0
X111.8Y-46.0
X111.8Y-136.0
X114.34Y-46.0
X114.34Y-136.0
X116.88Y-46.0
X116.88Y-136.0
X119.42Y-46.0
X119.42Y-136.0
X121.96Y-46.0
X121.96Y-136.0
X124.5Y-46.0
X124.5Y-136.0
X127.04Y-46.0
X127.04Y-136.0
X129.58Y-46.0
X129.58Y-136.0
X132.12Y-46.0
X132.12Y-136.0
X134.66Y-46.0
X134.66Y-136.0
X137.2Y-46.0
X137.2Y-136.0
X139.74Y-46.0
X139.74Y-136.0
X142.28Y-46.0
X142.28Y-136.0
X144.82Y-46.0
X144.82Y-136.0
X147.36Y-46.0
X147.36Y-136.0
X149.9Y-46.0
X149.9Y-136.0
X152.44Y-46.0
X152.44Y-136.0
X154.98Y-46.0
X154.98Y-136.0
X155.7Y-55.2
X155.7Y-57.74
X157.52Y-46.0
X157.52Y-136.0
X160.06Y-46.0
X160.06Y-136.0
X160.35Y-55.2
X160.35Y-57.74
X162.6Y-46.0
X162.6Y-136.0
X165.14Y-46.0
X165.14Y-136.0
X167.68Y-46.0
X167.68Y-136.0
X170.22Y-46.0
X170.22Y-136.0
X172.76Y-46.0
X172.76Y-136.0
X175.3Y-46.0
X175.3Y-136.0
X177.84Y-46.0
X177.84Y-136.0
X180.38Y-46.0
X180.38Y-136.0
X182.9Y-106.6
X182.9Y-109.14
X182.9Y-111.68
X182.9Y-114.22
X182.9Y-116.76
X182.9Y-119.3
X182.9Y-121.84
X182.9Y-124.38
X182.92Y-46.0
X182.92Y-136.0
X185.46Y-46.0
X185.46Y-136.0
T0
M30
