G04 #@! TF.GenerationSoftware,KiCad,Pcbnew,(5.1.9)-1*
G04 #@! TF.CreationDate,2021-10-24T10:03:22-04:00*
G04 #@! TF.ProjectId,ram-mar,72616d2d-6d61-4722-9e6b-696361645f70,1.0*
G04 #@! TF.SameCoordinates,Original*
G04 #@! TF.FileFunction,Soldermask,Bot*
G04 #@! TF.FilePolarity,Negative*
%FSLAX46Y46*%
G04 Gerber Fmt 4.6, Leading zero omitted, Abs format (unit mm)*
G04 Created by KiCad (PCBNEW (5.1.9)-1) date 2021-10-24 10:03:22*
%MOMM*%
%LPD*%
G01*
G04 APERTURE LIST*
%ADD10O,1.600000X1.600000*%
%ADD11R,1.600000X1.600000*%
%ADD12O,1.700000X1.700000*%
%ADD13R,1.700000X1.700000*%
G04 APERTURE END LIST*
D10*
X102800000Y-59860000D03*
X135820000Y-75100000D03*
X105340000Y-59860000D03*
X133280000Y-75100000D03*
X107880000Y-59860000D03*
X130740000Y-75100000D03*
X110420000Y-59860000D03*
X128200000Y-75100000D03*
X112960000Y-59860000D03*
X125660000Y-75100000D03*
X115500000Y-59860000D03*
X123120000Y-75100000D03*
X118040000Y-59860000D03*
X120580000Y-75100000D03*
X120580000Y-59860000D03*
X118040000Y-75100000D03*
X123120000Y-59860000D03*
X115500000Y-75100000D03*
X125660000Y-59860000D03*
X112960000Y-75100000D03*
X128200000Y-59860000D03*
X110420000Y-75100000D03*
X130740000Y-59860000D03*
X107880000Y-75100000D03*
X133280000Y-59860000D03*
X105340000Y-75100000D03*
X135820000Y-59860000D03*
D11*
X102800000Y-75100000D03*
D12*
X182900000Y-124380000D03*
X182900000Y-121840000D03*
X182900000Y-119300000D03*
X182900000Y-116760000D03*
X182900000Y-114220000D03*
X182900000Y-111680000D03*
X182900000Y-109140000D03*
D13*
X182900000Y-106600000D03*
D10*
X178520000Y-62700000D03*
X170900000Y-77940000D03*
X178520000Y-65240000D03*
X170900000Y-75400000D03*
X178520000Y-67780000D03*
X170900000Y-72860000D03*
X178520000Y-70320000D03*
X170900000Y-70320000D03*
X178520000Y-72860000D03*
X170900000Y-67780000D03*
X178520000Y-75400000D03*
X170900000Y-65240000D03*
X178520000Y-77940000D03*
D11*
X170900000Y-62700000D03*
D10*
X122400000Y-118380000D03*
X140180000Y-126000000D03*
X124940000Y-118380000D03*
X137640000Y-126000000D03*
X127480000Y-118380000D03*
X135100000Y-126000000D03*
X130020000Y-118380000D03*
X132560000Y-126000000D03*
X132560000Y-118380000D03*
X130020000Y-126000000D03*
X135100000Y-118380000D03*
X127480000Y-126000000D03*
X137640000Y-118380000D03*
X124940000Y-126000000D03*
X140180000Y-118380000D03*
D11*
X122400000Y-126000000D03*
D10*
X153700000Y-118380000D03*
X171480000Y-126000000D03*
X156240000Y-118380000D03*
X168940000Y-126000000D03*
X158780000Y-118380000D03*
X166400000Y-126000000D03*
X161320000Y-118380000D03*
X163860000Y-126000000D03*
X163860000Y-118380000D03*
X161320000Y-126000000D03*
X166400000Y-118380000D03*
X158780000Y-126000000D03*
X168940000Y-118380000D03*
X156240000Y-126000000D03*
X171480000Y-118380000D03*
D11*
X153700000Y-126000000D03*
D12*
X160350000Y-57740000D03*
D13*
X160350000Y-55200000D03*
D12*
X155700000Y-57740000D03*
D13*
X155700000Y-55200000D03*
D10*
X92300000Y-88380000D03*
X115160000Y-96000000D03*
X94840000Y-88380000D03*
X112620000Y-96000000D03*
X97380000Y-88380000D03*
X110080000Y-96000000D03*
X99920000Y-88380000D03*
X107540000Y-96000000D03*
X102460000Y-88380000D03*
X105000000Y-96000000D03*
X105000000Y-88380000D03*
X102460000Y-96000000D03*
X107540000Y-88380000D03*
X99920000Y-96000000D03*
X110080000Y-88380000D03*
X97380000Y-96000000D03*
X112620000Y-88380000D03*
X94840000Y-96000000D03*
X115160000Y-88380000D03*
D11*
X92300000Y-96000000D03*
D12*
X89000000Y-124380000D03*
X89000000Y-121840000D03*
X89000000Y-119300000D03*
X89000000Y-116760000D03*
X89000000Y-114220000D03*
X89000000Y-111680000D03*
X89000000Y-109140000D03*
D13*
X89000000Y-106600000D03*
D12*
X185460000Y-136000000D03*
X182920000Y-136000000D03*
X180380000Y-136000000D03*
X177840000Y-136000000D03*
X175300000Y-136000000D03*
X172760000Y-136000000D03*
X170220000Y-136000000D03*
X167680000Y-136000000D03*
X165140000Y-136000000D03*
X162600000Y-136000000D03*
X160060000Y-136000000D03*
X157520000Y-136000000D03*
X154980000Y-136000000D03*
X152440000Y-136000000D03*
X149900000Y-136000000D03*
X147360000Y-136000000D03*
X144820000Y-136000000D03*
X142280000Y-136000000D03*
X139740000Y-136000000D03*
X137200000Y-136000000D03*
X134660000Y-136000000D03*
X132120000Y-136000000D03*
X129580000Y-136000000D03*
X127040000Y-136000000D03*
X124500000Y-136000000D03*
X121960000Y-136000000D03*
X119420000Y-136000000D03*
X116880000Y-136000000D03*
X114340000Y-136000000D03*
X111800000Y-136000000D03*
X109260000Y-136000000D03*
X106720000Y-136000000D03*
X104180000Y-136000000D03*
X101640000Y-136000000D03*
X99100000Y-136000000D03*
X96560000Y-136000000D03*
X94020000Y-136000000D03*
X91480000Y-136000000D03*
X88940000Y-136000000D03*
D13*
X86400000Y-136000000D03*
D12*
X185460000Y-46000000D03*
X182920000Y-46000000D03*
X180380000Y-46000000D03*
X177840000Y-46000000D03*
X175300000Y-46000000D03*
X172760000Y-46000000D03*
X170220000Y-46000000D03*
X167680000Y-46000000D03*
X165140000Y-46000000D03*
X162600000Y-46000000D03*
X160060000Y-46000000D03*
X157520000Y-46000000D03*
X154980000Y-46000000D03*
X152440000Y-46000000D03*
X149900000Y-46000000D03*
X147360000Y-46000000D03*
X144820000Y-46000000D03*
X142280000Y-46000000D03*
X139740000Y-46000000D03*
X137200000Y-46000000D03*
X134660000Y-46000000D03*
X132120000Y-46000000D03*
X129580000Y-46000000D03*
X127040000Y-46000000D03*
X124500000Y-46000000D03*
X121960000Y-46000000D03*
X119420000Y-46000000D03*
X116880000Y-46000000D03*
X114340000Y-46000000D03*
X111800000Y-46000000D03*
X109260000Y-46000000D03*
X106720000Y-46000000D03*
X104180000Y-46000000D03*
X101640000Y-46000000D03*
X99100000Y-46000000D03*
X96560000Y-46000000D03*
X94020000Y-46000000D03*
X91480000Y-46000000D03*
X88940000Y-46000000D03*
D13*
X86400000Y-46000000D03*
M02*
