G04 #@! TF.GenerationSoftware,KiCad,Pcbnew,(5.1.9)-1*
G04 #@! TF.CreationDate,2022-01-17T22:51:17-05:00*
G04 #@! TF.ProjectId,output-led,6f757470-7574-42d6-9c65-642e6b696361,1.1*
G04 #@! TF.SameCoordinates,Original*
G04 #@! TF.FileFunction,Soldermask,Top*
G04 #@! TF.FilePolarity,Negative*
%FSLAX46Y46*%
G04 Gerber Fmt 4.6, Leading zero omitted, Abs format (unit mm)*
G04 Created by KiCad (PCBNEW (5.1.9)-1) date 2022-01-17 22:51:17*
%MOMM*%
%LPD*%
G01*
G04 APERTURE LIST*
%ADD10O,1.700000X1.700000*%
%ADD11R,1.700000X1.700000*%
%ADD12C,1.900000*%
%ADD13R,1.900000X1.900000*%
%ADD14O,1.600000X1.600000*%
%ADD15R,1.600000X1.600000*%
G04 APERTURE END LIST*
G36*
G01*
X104450001Y-108100000D02*
X103549999Y-108100000D01*
G75*
G02*
X103300000Y-107850001I0J249999D01*
G01*
X103300000Y-107149999D01*
G75*
G02*
X103549999Y-106900000I249999J0D01*
G01*
X104450001Y-106900000D01*
G75*
G02*
X104700000Y-107149999I0J-249999D01*
G01*
X104700000Y-107850001D01*
G75*
G02*
X104450001Y-108100000I-249999J0D01*
G01*
G37*
G36*
G01*
X104450001Y-110100000D02*
X103549999Y-110100000D01*
G75*
G02*
X103300000Y-109850001I0J249999D01*
G01*
X103300000Y-109149999D01*
G75*
G02*
X103549999Y-108900000I249999J0D01*
G01*
X104450001Y-108900000D01*
G75*
G02*
X104700000Y-109149999I0J-249999D01*
G01*
X104700000Y-109850001D01*
G75*
G02*
X104450001Y-110100000I-249999J0D01*
G01*
G37*
G36*
G01*
X107550001Y-108000000D02*
X106649999Y-108000000D01*
G75*
G02*
X106400000Y-107750001I0J249999D01*
G01*
X106400000Y-107049999D01*
G75*
G02*
X106649999Y-106800000I249999J0D01*
G01*
X107550001Y-106800000D01*
G75*
G02*
X107800000Y-107049999I0J-249999D01*
G01*
X107800000Y-107750001D01*
G75*
G02*
X107550001Y-108000000I-249999J0D01*
G01*
G37*
G36*
G01*
X107550001Y-110000000D02*
X106649999Y-110000000D01*
G75*
G02*
X106400000Y-109750001I0J249999D01*
G01*
X106400000Y-109049999D01*
G75*
G02*
X106649999Y-108800000I249999J0D01*
G01*
X107550001Y-108800000D01*
G75*
G02*
X107800000Y-109049999I0J-249999D01*
G01*
X107800000Y-109750001D01*
G75*
G02*
X107550001Y-110000000I-249999J0D01*
G01*
G37*
G36*
G01*
X110850001Y-108000000D02*
X109949999Y-108000000D01*
G75*
G02*
X109700000Y-107750001I0J249999D01*
G01*
X109700000Y-107049999D01*
G75*
G02*
X109949999Y-106800000I249999J0D01*
G01*
X110850001Y-106800000D01*
G75*
G02*
X111100000Y-107049999I0J-249999D01*
G01*
X111100000Y-107750001D01*
G75*
G02*
X110850001Y-108000000I-249999J0D01*
G01*
G37*
G36*
G01*
X110850001Y-110000000D02*
X109949999Y-110000000D01*
G75*
G02*
X109700000Y-109750001I0J249999D01*
G01*
X109700000Y-109049999D01*
G75*
G02*
X109949999Y-108800000I249999J0D01*
G01*
X110850001Y-108800000D01*
G75*
G02*
X111100000Y-109049999I0J-249999D01*
G01*
X111100000Y-109750001D01*
G75*
G02*
X110850001Y-110000000I-249999J0D01*
G01*
G37*
G36*
G01*
X114050001Y-108100000D02*
X113149999Y-108100000D01*
G75*
G02*
X112900000Y-107850001I0J249999D01*
G01*
X112900000Y-107149999D01*
G75*
G02*
X113149999Y-106900000I249999J0D01*
G01*
X114050001Y-106900000D01*
G75*
G02*
X114300000Y-107149999I0J-249999D01*
G01*
X114300000Y-107850001D01*
G75*
G02*
X114050001Y-108100000I-249999J0D01*
G01*
G37*
G36*
G01*
X114050001Y-110100000D02*
X113149999Y-110100000D01*
G75*
G02*
X112900000Y-109850001I0J249999D01*
G01*
X112900000Y-109149999D01*
G75*
G02*
X113149999Y-108900000I249999J0D01*
G01*
X114050001Y-108900000D01*
G75*
G02*
X114300000Y-109149999I0J-249999D01*
G01*
X114300000Y-109850001D01*
G75*
G02*
X114050001Y-110100000I-249999J0D01*
G01*
G37*
D10*
X146500000Y-98740000D03*
D11*
X146500000Y-96200000D03*
D10*
X93200000Y-98740000D03*
D11*
X93200000Y-96200000D03*
D12*
X165200000Y-103900000D03*
X165200000Y-101400000D03*
D13*
X165200000Y-98900000D03*
D12*
X173300000Y-103900000D03*
X173300000Y-101400000D03*
D13*
X173300000Y-98900000D03*
D14*
X168400000Y-69420000D03*
X150620000Y-61800000D03*
X165860000Y-69420000D03*
X153160000Y-61800000D03*
X163320000Y-69420000D03*
X155700000Y-61800000D03*
X160780000Y-69420000D03*
X158240000Y-61800000D03*
X158240000Y-69420000D03*
X160780000Y-61800000D03*
X155700000Y-69420000D03*
X163320000Y-61800000D03*
X153160000Y-69420000D03*
X165860000Y-61800000D03*
X150620000Y-69420000D03*
D15*
X168400000Y-61800000D03*
D14*
X96300000Y-61780000D03*
X129320000Y-69400000D03*
X98840000Y-61780000D03*
X126780000Y-69400000D03*
X101380000Y-61780000D03*
X124240000Y-69400000D03*
X103920000Y-61780000D03*
X121700000Y-69400000D03*
X106460000Y-61780000D03*
X119160000Y-69400000D03*
X109000000Y-61780000D03*
X116620000Y-69400000D03*
X111540000Y-61780000D03*
X114080000Y-69400000D03*
X114080000Y-61780000D03*
X111540000Y-69400000D03*
X116620000Y-61780000D03*
X109000000Y-69400000D03*
X119160000Y-61780000D03*
X106460000Y-69400000D03*
X121700000Y-61780000D03*
X103920000Y-69400000D03*
X124240000Y-61780000D03*
X101380000Y-69400000D03*
X126780000Y-61780000D03*
X98840000Y-69400000D03*
X129320000Y-61780000D03*
D15*
X96300000Y-69400000D03*
G36*
G01*
X141800000Y-72449999D02*
X141800000Y-73350001D01*
G75*
G02*
X141550001Y-73600000I-249999J0D01*
G01*
X140849999Y-73600000D01*
G75*
G02*
X140600000Y-73350001I0J249999D01*
G01*
X140600000Y-72449999D01*
G75*
G02*
X140849999Y-72200000I249999J0D01*
G01*
X141550001Y-72200000D01*
G75*
G02*
X141800000Y-72449999I0J-249999D01*
G01*
G37*
G36*
G01*
X143800000Y-72449999D02*
X143800000Y-73350001D01*
G75*
G02*
X143550001Y-73600000I-249999J0D01*
G01*
X142849999Y-73600000D01*
G75*
G02*
X142600000Y-73350001I0J249999D01*
G01*
X142600000Y-72449999D01*
G75*
G02*
X142849999Y-72200000I249999J0D01*
G01*
X143550001Y-72200000D01*
G75*
G02*
X143800000Y-72449999I0J-249999D01*
G01*
G37*
D10*
X133800000Y-119100000D03*
X131260000Y-119100000D03*
X128720000Y-119100000D03*
X126180000Y-119100000D03*
X123640000Y-119100000D03*
X121100000Y-119100000D03*
X118560000Y-119100000D03*
X116020000Y-119100000D03*
X113480000Y-119100000D03*
X110940000Y-119100000D03*
X108400000Y-119100000D03*
D11*
X105860000Y-119100000D03*
D10*
X95840000Y-83280000D03*
X93300000Y-83280000D03*
X95840000Y-80740000D03*
X93300000Y-80740000D03*
X95840000Y-78200000D03*
D11*
X93300000Y-78200000D03*
G36*
G01*
X142650000Y-76750001D02*
X142650000Y-75849999D01*
G75*
G02*
X142899999Y-75600000I249999J0D01*
G01*
X143550001Y-75600000D01*
G75*
G02*
X143800000Y-75849999I0J-249999D01*
G01*
X143800000Y-76750001D01*
G75*
G02*
X143550001Y-77000000I-249999J0D01*
G01*
X142899999Y-77000000D01*
G75*
G02*
X142650000Y-76750001I0J249999D01*
G01*
G37*
G36*
G01*
X140600000Y-76750001D02*
X140600000Y-75849999D01*
G75*
G02*
X140849999Y-75600000I249999J0D01*
G01*
X141500001Y-75600000D01*
G75*
G02*
X141750000Y-75849999I0J-249999D01*
G01*
X141750000Y-76750001D01*
G75*
G02*
X141500001Y-77000000I-249999J0D01*
G01*
X140849999Y-77000000D01*
G75*
G02*
X140600000Y-76750001I0J249999D01*
G01*
G37*
G36*
G01*
X167650000Y-73075000D02*
X167650000Y-72125000D01*
G75*
G02*
X167900000Y-71875000I250000J0D01*
G01*
X168575000Y-71875000D01*
G75*
G02*
X168825000Y-72125000I0J-250000D01*
G01*
X168825000Y-73075000D01*
G75*
G02*
X168575000Y-73325000I-250000J0D01*
G01*
X167900000Y-73325000D01*
G75*
G02*
X167650000Y-73075000I0J250000D01*
G01*
G37*
G36*
G01*
X165575000Y-73075000D02*
X165575000Y-72125000D01*
G75*
G02*
X165825000Y-71875000I250000J0D01*
G01*
X166500000Y-71875000D01*
G75*
G02*
X166750000Y-72125000I0J-250000D01*
G01*
X166750000Y-73075000D01*
G75*
G02*
X166500000Y-73325000I-250000J0D01*
G01*
X165825000Y-73325000D01*
G75*
G02*
X165575000Y-73075000I0J250000D01*
G01*
G37*
G36*
G01*
X116050000Y-58275000D02*
X116050000Y-57325000D01*
G75*
G02*
X116300000Y-57075000I250000J0D01*
G01*
X116975000Y-57075000D01*
G75*
G02*
X117225000Y-57325000I0J-250000D01*
G01*
X117225000Y-58275000D01*
G75*
G02*
X116975000Y-58525000I-250000J0D01*
G01*
X116300000Y-58525000D01*
G75*
G02*
X116050000Y-58275000I0J250000D01*
G01*
G37*
G36*
G01*
X113975000Y-58275000D02*
X113975000Y-57325000D01*
G75*
G02*
X114225000Y-57075000I250000J0D01*
G01*
X114900000Y-57075000D01*
G75*
G02*
X115150000Y-57325000I0J-250000D01*
G01*
X115150000Y-58275000D01*
G75*
G02*
X114900000Y-58525000I-250000J0D01*
G01*
X114225000Y-58525000D01*
G75*
G02*
X113975000Y-58275000I0J250000D01*
G01*
G37*
D10*
X185460000Y-136000000D03*
X182920000Y-136000000D03*
X180380000Y-136000000D03*
X177840000Y-136000000D03*
X175300000Y-136000000D03*
X172760000Y-136000000D03*
X170220000Y-136000000D03*
X167680000Y-136000000D03*
X165140000Y-136000000D03*
X162600000Y-136000000D03*
X160060000Y-136000000D03*
X157520000Y-136000000D03*
X154980000Y-136000000D03*
X152440000Y-136000000D03*
X149900000Y-136000000D03*
X147360000Y-136000000D03*
X144820000Y-136000000D03*
X142280000Y-136000000D03*
X139740000Y-136000000D03*
X137200000Y-136000000D03*
X134660000Y-136000000D03*
X132120000Y-136000000D03*
X129580000Y-136000000D03*
X127040000Y-136000000D03*
X124500000Y-136000000D03*
X121960000Y-136000000D03*
X119420000Y-136000000D03*
X116880000Y-136000000D03*
X114340000Y-136000000D03*
X111800000Y-136000000D03*
X109260000Y-136000000D03*
X106720000Y-136000000D03*
X104180000Y-136000000D03*
X101640000Y-136000000D03*
X99100000Y-136000000D03*
X96560000Y-136000000D03*
X94020000Y-136000000D03*
X91480000Y-136000000D03*
X88940000Y-136000000D03*
D11*
X86400000Y-136000000D03*
D10*
X185460000Y-46000000D03*
X182920000Y-46000000D03*
X180380000Y-46000000D03*
X177840000Y-46000000D03*
X175300000Y-46000000D03*
X172760000Y-46000000D03*
X170220000Y-46000000D03*
X167680000Y-46000000D03*
X165140000Y-46000000D03*
X162600000Y-46000000D03*
X160060000Y-46000000D03*
X157520000Y-46000000D03*
X154980000Y-46000000D03*
X152440000Y-46000000D03*
X149900000Y-46000000D03*
X147360000Y-46000000D03*
X144820000Y-46000000D03*
X142280000Y-46000000D03*
X139740000Y-46000000D03*
X137200000Y-46000000D03*
X134660000Y-46000000D03*
X132120000Y-46000000D03*
X129580000Y-46000000D03*
X127040000Y-46000000D03*
X124500000Y-46000000D03*
X121960000Y-46000000D03*
X119420000Y-46000000D03*
X116880000Y-46000000D03*
X114340000Y-46000000D03*
X111800000Y-46000000D03*
X109260000Y-46000000D03*
X106720000Y-46000000D03*
X104180000Y-46000000D03*
X101640000Y-46000000D03*
X99100000Y-46000000D03*
X96560000Y-46000000D03*
X94020000Y-46000000D03*
X91480000Y-46000000D03*
X88940000Y-46000000D03*
D11*
X86400000Y-46000000D03*
M02*
