M48
; DRILL file {KiCad (5.1.9)-1} date 07/23/22 12:13:46
; FORMAT={-:-/ absolute / metric / decimal}
; #@! TF.CreationDate,2022-07-23T12:13:46-04:00
; #@! TF.GenerationSoftware,Kicad,Pcbnew,(5.1.9)-1
; #@! TF.FileFunction,Plated,1,2,PTH
FMAT,2
METRIC
T1C0.400
T2C0.800
T3C0.900
T4C1.000
%
G90
G05
T1
X114.637Y-74.163
X117.207Y-74.193
X128.1Y-58.8
X138.8Y-72.9
T2
X96.3Y-61.78
X96.3Y-69.4
X98.84Y-61.78
X98.84Y-69.4
X101.38Y-61.78
X101.38Y-69.4
X103.92Y-61.78
X103.92Y-69.4
X106.46Y-61.78
X106.46Y-69.4
X109.0Y-61.78
X109.0Y-69.4
X111.54Y-61.78
X111.54Y-69.4
X114.08Y-61.78
X114.08Y-69.4
X116.62Y-61.78
X116.62Y-69.4
X119.16Y-61.78
X119.16Y-69.4
X121.7Y-61.78
X121.7Y-69.4
X124.24Y-61.78
X124.24Y-69.4
X126.78Y-61.78
X126.78Y-69.4
X129.32Y-61.78
X129.32Y-69.4
X150.62Y-61.8
X150.62Y-69.42
X153.16Y-61.8
X153.16Y-69.42
X155.7Y-61.8
X155.7Y-69.42
X158.24Y-61.8
X158.24Y-69.42
X160.78Y-61.8
X160.78Y-69.42
X163.32Y-61.8
X163.32Y-69.42
X165.86Y-61.8
X165.86Y-69.42
X168.4Y-61.8
X168.4Y-69.42
T3
X165.2Y-98.9
X165.2Y-101.4
X165.2Y-103.9
X173.3Y-98.9
X173.3Y-101.4
X173.3Y-103.9
T4
X86.4Y-46.0
X86.4Y-136.0
X88.94Y-46.0
X88.94Y-136.0
X91.48Y-46.0
X91.48Y-136.0
X93.2Y-96.2
X93.2Y-98.74
X93.3Y-78.2
X93.3Y-80.74
X93.3Y-83.28
X94.02Y-46.0
X94.02Y-136.0
X95.84Y-78.2
X95.84Y-80.74
X95.84Y-83.28
X96.56Y-46.0
X96.56Y-136.0
X99.1Y-46.0
X99.1Y-136.0
X101.64Y-46.0
X101.64Y-136.0
X104.18Y-46.0
X104.18Y-136.0
X105.86Y-119.1
X106.72Y-46.0
X106.72Y-136.0
X108.4Y-119.1
X109.26Y-46.0
X109.26Y-136.0
X110.94Y-119.1
X111.8Y-46.0
X111.8Y-136.0
X113.48Y-119.1
X114.34Y-46.0
X114.34Y-136.0
X116.02Y-119.1
X116.88Y-46.0
X116.88Y-136.0
X118.56Y-119.1
X119.42Y-46.0
X119.42Y-136.0
X121.1Y-119.1
X121.96Y-46.0
X121.96Y-136.0
X123.64Y-119.1
X124.5Y-46.0
X124.5Y-136.0
X126.18Y-119.1
X127.04Y-46.0
X127.04Y-136.0
X128.72Y-119.1
X129.58Y-46.0
X129.58Y-136.0
X131.26Y-119.1
X132.12Y-46.0
X132.12Y-136.0
X133.8Y-119.1
X134.66Y-46.0
X134.66Y-136.0
X137.2Y-46.0
X137.2Y-136.0
X139.74Y-46.0
X139.74Y-136.0
X142.28Y-46.0
X142.28Y-136.0
X144.82Y-46.0
X144.82Y-136.0
X146.5Y-96.2
X146.5Y-98.74
X147.36Y-46.0
X147.36Y-136.0
X149.9Y-46.0
X149.9Y-136.0
X152.44Y-46.0
X152.44Y-136.0
X154.98Y-46.0
X154.98Y-136.0
X157.52Y-46.0
X157.52Y-136.0
X160.06Y-46.0
X160.06Y-136.0
X162.6Y-46.0
X162.6Y-136.0
X165.14Y-46.0
X165.14Y-136.0
X167.68Y-46.0
X167.68Y-136.0
X170.22Y-46.0
X170.22Y-136.0
X172.76Y-46.0
X172.76Y-136.0
X175.3Y-46.0
X175.3Y-136.0
X177.84Y-46.0
X177.84Y-136.0
X180.38Y-46.0
X180.38Y-136.0
X182.92Y-46.0
X182.92Y-136.0
X185.46Y-46.0
X185.46Y-136.0
T0
M30
