%FSLAX45Y45*%
G04 Gerber Fmt 4.5, Leading zero omitted, Abs format (unit mm)*
G04 Created by KiCad (PCBNEW (5.1.9)-1) date 2022-07-23 12:13:47*
%MOMM*%
%LPD*%
G01*
G04 APERTURE LIST*
%TA.AperFunction,Profile*%
%ADD10C,0.100000*%
%TD*%
%ADD11C,0.200000*%
%ADD12C,0.300000*%
G04 APERTURE END LIST*
D10*
X8500000Y-13900000D02*
X8500000Y-4300000D01*
X18700000Y-13900000D02*
X8500000Y-13900000D01*
X18700000Y-4300000D02*
X18700000Y-13900000D01*
X8500000Y-4300000D02*
X18700000Y-4300000D01*
D11*
X11443750Y-7396250D02*
X11483750Y-7436250D01*
X11483750Y-7396250D02*
X11443750Y-7436250D01*
X11700750Y-7399250D02*
X11740750Y-7439250D01*
X11740750Y-7399250D02*
X11700750Y-7439250D01*
X12790000Y-5860000D02*
X12830000Y-5900000D01*
X12830000Y-5860000D02*
X12790000Y-5900000D01*
X13860000Y-7270000D02*
X13900000Y-7310000D01*
X13900000Y-7270000D02*
X13860000Y-7310000D01*
X9670000Y-6178000D02*
G75*
G03*
X9670000Y-6178000I-40000J0D01*
G01*
X9670000Y-6940000D02*
G75*
G03*
X9670000Y-6940000I-40000J0D01*
G01*
X9924000Y-6178000D02*
G75*
G03*
X9924000Y-6178000I-40000J0D01*
G01*
X9924000Y-6940000D02*
G75*
G03*
X9924000Y-6940000I-40000J0D01*
G01*
X10178000Y-6178000D02*
G75*
G03*
X10178000Y-6178000I-40000J0D01*
G01*
X10178000Y-6940000D02*
G75*
G03*
X10178000Y-6940000I-40000J0D01*
G01*
X10432000Y-6178000D02*
G75*
G03*
X10432000Y-6178000I-40000J0D01*
G01*
X10432000Y-6940000D02*
G75*
G03*
X10432000Y-6940000I-40000J0D01*
G01*
X10686000Y-6178000D02*
G75*
G03*
X10686000Y-6178000I-40000J0D01*
G01*
X10686000Y-6940000D02*
G75*
G03*
X10686000Y-6940000I-40000J0D01*
G01*
X10940000Y-6178000D02*
G75*
G03*
X10940000Y-6178000I-40000J0D01*
G01*
X10940000Y-6940000D02*
G75*
G03*
X10940000Y-6940000I-40000J0D01*
G01*
X11194000Y-6178000D02*
G75*
G03*
X11194000Y-6178000I-40000J0D01*
G01*
X11194000Y-6940000D02*
G75*
G03*
X11194000Y-6940000I-40000J0D01*
G01*
X11448000Y-6178000D02*
G75*
G03*
X11448000Y-6178000I-40000J0D01*
G01*
X11448000Y-6940000D02*
G75*
G03*
X11448000Y-6940000I-40000J0D01*
G01*
X11702000Y-6178000D02*
G75*
G03*
X11702000Y-6178000I-40000J0D01*
G01*
X11702000Y-6940000D02*
G75*
G03*
X11702000Y-6940000I-40000J0D01*
G01*
X11956000Y-6178000D02*
G75*
G03*
X11956000Y-6178000I-40000J0D01*
G01*
X11956000Y-6940000D02*
G75*
G03*
X11956000Y-6940000I-40000J0D01*
G01*
X12210000Y-6178000D02*
G75*
G03*
X12210000Y-6178000I-40000J0D01*
G01*
X12210000Y-6940000D02*
G75*
G03*
X12210000Y-6940000I-40000J0D01*
G01*
X12464000Y-6178000D02*
G75*
G03*
X12464000Y-6178000I-40000J0D01*
G01*
X12464000Y-6940000D02*
G75*
G03*
X12464000Y-6940000I-40000J0D01*
G01*
X12718000Y-6178000D02*
G75*
G03*
X12718000Y-6178000I-40000J0D01*
G01*
X12718000Y-6940000D02*
G75*
G03*
X12718000Y-6940000I-40000J0D01*
G01*
X12972000Y-6178000D02*
G75*
G03*
X12972000Y-6178000I-40000J0D01*
G01*
X12972000Y-6940000D02*
G75*
G03*
X12972000Y-6940000I-40000J0D01*
G01*
X15102000Y-6180000D02*
G75*
G03*
X15102000Y-6180000I-40000J0D01*
G01*
X15102000Y-6942000D02*
G75*
G03*
X15102000Y-6942000I-40000J0D01*
G01*
X15356000Y-6180000D02*
G75*
G03*
X15356000Y-6180000I-40000J0D01*
G01*
X15356000Y-6942000D02*
G75*
G03*
X15356000Y-6942000I-40000J0D01*
G01*
X15610000Y-6180000D02*
G75*
G03*
X15610000Y-6180000I-40000J0D01*
G01*
X15610000Y-6942000D02*
G75*
G03*
X15610000Y-6942000I-40000J0D01*
G01*
X15864000Y-6180000D02*
G75*
G03*
X15864000Y-6180000I-40000J0D01*
G01*
X15864000Y-6942000D02*
G75*
G03*
X15864000Y-6942000I-40000J0D01*
G01*
X16118000Y-6180000D02*
G75*
G03*
X16118000Y-6180000I-40000J0D01*
G01*
X16118000Y-6942000D02*
G75*
G03*
X16118000Y-6942000I-40000J0D01*
G01*
X16372000Y-6180000D02*
G75*
G03*
X16372000Y-6180000I-40000J0D01*
G01*
X16372000Y-6942000D02*
G75*
G03*
X16372000Y-6942000I-40000J0D01*
G01*
X16626000Y-6180000D02*
G75*
G03*
X16626000Y-6180000I-40000J0D01*
G01*
X16626000Y-6942000D02*
G75*
G03*
X16626000Y-6942000I-40000J0D01*
G01*
X16880000Y-6180000D02*
G75*
G03*
X16880000Y-6180000I-40000J0D01*
G01*
X16880000Y-6942000D02*
G75*
G03*
X16880000Y-6942000I-40000J0D01*
G01*
X16520000Y-9845000D02*
X16520000Y-9935000D01*
X16475000Y-9890000D02*
X16565000Y-9890000D01*
X16520000Y-10095000D02*
X16520000Y-10185000D01*
X16475000Y-10140000D02*
X16565000Y-10140000D01*
X16520000Y-10345000D02*
X16520000Y-10435000D01*
X16475000Y-10390000D02*
X16565000Y-10390000D01*
X17330000Y-9845000D02*
X17330000Y-9935000D01*
X17285000Y-9890000D02*
X17375000Y-9890000D01*
X17330000Y-10095000D02*
X17330000Y-10185000D01*
X17285000Y-10140000D02*
X17375000Y-10140000D01*
X17330000Y-10345000D02*
X17330000Y-10435000D01*
X17285000Y-10390000D02*
X17375000Y-10390000D01*
X8675356Y-4635356D02*
X8675356Y-4564644D01*
X8604644Y-4564644D01*
X8604644Y-4635356D01*
X8675356Y-4635356D01*
X8675356Y-13635356D02*
X8675356Y-13564644D01*
X8604644Y-13564644D01*
X8604644Y-13635356D01*
X8675356Y-13635356D01*
X8929356Y-4635356D02*
X8929356Y-4564644D01*
X8858644Y-4564644D01*
X8858644Y-4635356D01*
X8929356Y-4635356D01*
X8929356Y-13635356D02*
X8929356Y-13564644D01*
X8858644Y-13564644D01*
X8858644Y-13635356D01*
X8929356Y-13635356D01*
X9183356Y-4635356D02*
X9183356Y-4564644D01*
X9112644Y-4564644D01*
X9112644Y-4635356D01*
X9183356Y-4635356D01*
X9183356Y-13635356D02*
X9183356Y-13564644D01*
X9112644Y-13564644D01*
X9112644Y-13635356D01*
X9183356Y-13635356D01*
X9355356Y-9655356D02*
X9355356Y-9584644D01*
X9284644Y-9584644D01*
X9284644Y-9655356D01*
X9355356Y-9655356D01*
X9355356Y-9909356D02*
X9355356Y-9838644D01*
X9284644Y-9838644D01*
X9284644Y-9909356D01*
X9355356Y-9909356D01*
X9365356Y-7855356D02*
X9365356Y-7784644D01*
X9294644Y-7784644D01*
X9294644Y-7855356D01*
X9365356Y-7855356D01*
X9365356Y-8109356D02*
X9365356Y-8038644D01*
X9294644Y-8038644D01*
X9294644Y-8109356D01*
X9365356Y-8109356D01*
X9365356Y-8363356D02*
X9365356Y-8292644D01*
X9294644Y-8292644D01*
X9294644Y-8363356D01*
X9365356Y-8363356D01*
X9437356Y-4635356D02*
X9437356Y-4564644D01*
X9366644Y-4564644D01*
X9366644Y-4635356D01*
X9437356Y-4635356D01*
X9437356Y-13635356D02*
X9437356Y-13564644D01*
X9366644Y-13564644D01*
X9366644Y-13635356D01*
X9437356Y-13635356D01*
X9619356Y-7855356D02*
X9619356Y-7784644D01*
X9548644Y-7784644D01*
X9548644Y-7855356D01*
X9619356Y-7855356D01*
X9619356Y-8109356D02*
X9619356Y-8038644D01*
X9548644Y-8038644D01*
X9548644Y-8109356D01*
X9619356Y-8109356D01*
X9619356Y-8363356D02*
X9619356Y-8292644D01*
X9548644Y-8292644D01*
X9548644Y-8363356D01*
X9619356Y-8363356D01*
X9691356Y-4635356D02*
X9691356Y-4564644D01*
X9620644Y-4564644D01*
X9620644Y-4635356D01*
X9691356Y-4635356D01*
X9691356Y-13635356D02*
X9691356Y-13564644D01*
X9620644Y-13564644D01*
X9620644Y-13635356D01*
X9691356Y-13635356D01*
X9945356Y-4635356D02*
X9945356Y-4564644D01*
X9874644Y-4564644D01*
X9874644Y-4635356D01*
X9945356Y-4635356D01*
X9945356Y-13635356D02*
X9945356Y-13564644D01*
X9874644Y-13564644D01*
X9874644Y-13635356D01*
X9945356Y-13635356D01*
X10199356Y-4635356D02*
X10199356Y-4564644D01*
X10128644Y-4564644D01*
X10128644Y-4635356D01*
X10199356Y-4635356D01*
X10199356Y-13635356D02*
X10199356Y-13564644D01*
X10128644Y-13564644D01*
X10128644Y-13635356D01*
X10199356Y-13635356D01*
X10453356Y-4635356D02*
X10453356Y-4564644D01*
X10382644Y-4564644D01*
X10382644Y-4635356D01*
X10453356Y-4635356D01*
X10453356Y-13635356D02*
X10453356Y-13564644D01*
X10382644Y-13564644D01*
X10382644Y-13635356D01*
X10453356Y-13635356D01*
X10621356Y-11945356D02*
X10621356Y-11874644D01*
X10550644Y-11874644D01*
X10550644Y-11945356D01*
X10621356Y-11945356D01*
X10707356Y-4635356D02*
X10707356Y-4564644D01*
X10636644Y-4564644D01*
X10636644Y-4635356D01*
X10707356Y-4635356D01*
X10707356Y-13635356D02*
X10707356Y-13564644D01*
X10636644Y-13564644D01*
X10636644Y-13635356D01*
X10707356Y-13635356D01*
X10875356Y-11945356D02*
X10875356Y-11874644D01*
X10804644Y-11874644D01*
X10804644Y-11945356D01*
X10875356Y-11945356D01*
X10961356Y-4635356D02*
X10961356Y-4564644D01*
X10890644Y-4564644D01*
X10890644Y-4635356D01*
X10961356Y-4635356D01*
X10961356Y-13635356D02*
X10961356Y-13564644D01*
X10890644Y-13564644D01*
X10890644Y-13635356D01*
X10961356Y-13635356D01*
X11129356Y-11945356D02*
X11129356Y-11874644D01*
X11058644Y-11874644D01*
X11058644Y-11945356D01*
X11129356Y-11945356D01*
X11215356Y-4635356D02*
X11215356Y-4564644D01*
X11144644Y-4564644D01*
X11144644Y-4635356D01*
X11215356Y-4635356D01*
X11215356Y-13635356D02*
X11215356Y-13564644D01*
X11144644Y-13564644D01*
X11144644Y-13635356D01*
X11215356Y-13635356D01*
X11383356Y-11945356D02*
X11383356Y-11874644D01*
X11312644Y-11874644D01*
X11312644Y-11945356D01*
X11383356Y-11945356D01*
X11469356Y-4635356D02*
X11469356Y-4564644D01*
X11398644Y-4564644D01*
X11398644Y-4635356D01*
X11469356Y-4635356D01*
X11469356Y-13635356D02*
X11469356Y-13564644D01*
X11398644Y-13564644D01*
X11398644Y-13635356D01*
X11469356Y-13635356D01*
X11637356Y-11945356D02*
X11637356Y-11874644D01*
X11566644Y-11874644D01*
X11566644Y-11945356D01*
X11637356Y-11945356D01*
X11723356Y-4635356D02*
X11723356Y-4564644D01*
X11652644Y-4564644D01*
X11652644Y-4635356D01*
X11723356Y-4635356D01*
X11723356Y-13635356D02*
X11723356Y-13564644D01*
X11652644Y-13564644D01*
X11652644Y-13635356D01*
X11723356Y-13635356D01*
X11891356Y-11945356D02*
X11891356Y-11874644D01*
X11820644Y-11874644D01*
X11820644Y-11945356D01*
X11891356Y-11945356D01*
X11977356Y-4635356D02*
X11977356Y-4564644D01*
X11906644Y-4564644D01*
X11906644Y-4635356D01*
X11977356Y-4635356D01*
X11977356Y-13635356D02*
X11977356Y-13564644D01*
X11906644Y-13564644D01*
X11906644Y-13635356D01*
X11977356Y-13635356D01*
X12145356Y-11945356D02*
X12145356Y-11874644D01*
X12074644Y-11874644D01*
X12074644Y-11945356D01*
X12145356Y-11945356D01*
X12231356Y-4635356D02*
X12231356Y-4564644D01*
X12160644Y-4564644D01*
X12160644Y-4635356D01*
X12231356Y-4635356D01*
X12231356Y-13635356D02*
X12231356Y-13564644D01*
X12160644Y-13564644D01*
X12160644Y-13635356D01*
X12231356Y-13635356D01*
X12399356Y-11945356D02*
X12399356Y-11874644D01*
X12328644Y-11874644D01*
X12328644Y-11945356D01*
X12399356Y-11945356D01*
X12485356Y-4635356D02*
X12485356Y-4564644D01*
X12414644Y-4564644D01*
X12414644Y-4635356D01*
X12485356Y-4635356D01*
X12485356Y-13635356D02*
X12485356Y-13564644D01*
X12414644Y-13564644D01*
X12414644Y-13635356D01*
X12485356Y-13635356D01*
X12653356Y-11945356D02*
X12653356Y-11874644D01*
X12582644Y-11874644D01*
X12582644Y-11945356D01*
X12653356Y-11945356D01*
X12739356Y-4635356D02*
X12739356Y-4564644D01*
X12668644Y-4564644D01*
X12668644Y-4635356D01*
X12739356Y-4635356D01*
X12739356Y-13635356D02*
X12739356Y-13564644D01*
X12668644Y-13564644D01*
X12668644Y-13635356D01*
X12739356Y-13635356D01*
X12907356Y-11945356D02*
X12907356Y-11874644D01*
X12836644Y-11874644D01*
X12836644Y-11945356D01*
X12907356Y-11945356D01*
X12993356Y-4635356D02*
X12993356Y-4564644D01*
X12922644Y-4564644D01*
X12922644Y-4635356D01*
X12993356Y-4635356D01*
X12993356Y-13635356D02*
X12993356Y-13564644D01*
X12922644Y-13564644D01*
X12922644Y-13635356D01*
X12993356Y-13635356D01*
X13161356Y-11945356D02*
X13161356Y-11874644D01*
X13090644Y-11874644D01*
X13090644Y-11945356D01*
X13161356Y-11945356D01*
X13247356Y-4635356D02*
X13247356Y-4564644D01*
X13176644Y-4564644D01*
X13176644Y-4635356D01*
X13247356Y-4635356D01*
X13247356Y-13635356D02*
X13247356Y-13564644D01*
X13176644Y-13564644D01*
X13176644Y-13635356D01*
X13247356Y-13635356D01*
X13415356Y-11945356D02*
X13415356Y-11874644D01*
X13344644Y-11874644D01*
X13344644Y-11945356D01*
X13415356Y-11945356D01*
X13501356Y-4635356D02*
X13501356Y-4564644D01*
X13430644Y-4564644D01*
X13430644Y-4635356D01*
X13501356Y-4635356D01*
X13501356Y-13635356D02*
X13501356Y-13564644D01*
X13430644Y-13564644D01*
X13430644Y-13635356D01*
X13501356Y-13635356D01*
X13755356Y-4635356D02*
X13755356Y-4564644D01*
X13684644Y-4564644D01*
X13684644Y-4635356D01*
X13755356Y-4635356D01*
X13755356Y-13635356D02*
X13755356Y-13564644D01*
X13684644Y-13564644D01*
X13684644Y-13635356D01*
X13755356Y-13635356D01*
X14009356Y-4635356D02*
X14009356Y-4564644D01*
X13938644Y-4564644D01*
X13938644Y-4635356D01*
X14009356Y-4635356D01*
X14009356Y-13635356D02*
X14009356Y-13564644D01*
X13938644Y-13564644D01*
X13938644Y-13635356D01*
X14009356Y-13635356D01*
X14263356Y-4635356D02*
X14263356Y-4564644D01*
X14192644Y-4564644D01*
X14192644Y-4635356D01*
X14263356Y-4635356D01*
X14263356Y-13635356D02*
X14263356Y-13564644D01*
X14192644Y-13564644D01*
X14192644Y-13635356D01*
X14263356Y-13635356D01*
X14517356Y-4635356D02*
X14517356Y-4564644D01*
X14446644Y-4564644D01*
X14446644Y-4635356D01*
X14517356Y-4635356D01*
X14517356Y-13635356D02*
X14517356Y-13564644D01*
X14446644Y-13564644D01*
X14446644Y-13635356D01*
X14517356Y-13635356D01*
X14685356Y-9655356D02*
X14685356Y-9584644D01*
X14614644Y-9584644D01*
X14614644Y-9655356D01*
X14685356Y-9655356D01*
X14685356Y-9909356D02*
X14685356Y-9838644D01*
X14614644Y-9838644D01*
X14614644Y-9909356D01*
X14685356Y-9909356D01*
X14771356Y-4635356D02*
X14771356Y-4564644D01*
X14700644Y-4564644D01*
X14700644Y-4635356D01*
X14771356Y-4635356D01*
X14771356Y-13635356D02*
X14771356Y-13564644D01*
X14700644Y-13564644D01*
X14700644Y-13635356D01*
X14771356Y-13635356D01*
X15025356Y-4635356D02*
X15025356Y-4564644D01*
X14954644Y-4564644D01*
X14954644Y-4635356D01*
X15025356Y-4635356D01*
X15025356Y-13635356D02*
X15025356Y-13564644D01*
X14954644Y-13564644D01*
X14954644Y-13635356D01*
X15025356Y-13635356D01*
X15279356Y-4635356D02*
X15279356Y-4564644D01*
X15208644Y-4564644D01*
X15208644Y-4635356D01*
X15279356Y-4635356D01*
X15279356Y-13635356D02*
X15279356Y-13564644D01*
X15208644Y-13564644D01*
X15208644Y-13635356D01*
X15279356Y-13635356D01*
X15533356Y-4635356D02*
X15533356Y-4564644D01*
X15462644Y-4564644D01*
X15462644Y-4635356D01*
X15533356Y-4635356D01*
X15533356Y-13635356D02*
X15533356Y-13564644D01*
X15462644Y-13564644D01*
X15462644Y-13635356D01*
X15533356Y-13635356D01*
X15787356Y-4635356D02*
X15787356Y-4564644D01*
X15716644Y-4564644D01*
X15716644Y-4635356D01*
X15787356Y-4635356D01*
X15787356Y-13635356D02*
X15787356Y-13564644D01*
X15716644Y-13564644D01*
X15716644Y-13635356D01*
X15787356Y-13635356D01*
X16041356Y-4635356D02*
X16041356Y-4564644D01*
X15970644Y-4564644D01*
X15970644Y-4635356D01*
X16041356Y-4635356D01*
X16041356Y-13635356D02*
X16041356Y-13564644D01*
X15970644Y-13564644D01*
X15970644Y-13635356D01*
X16041356Y-13635356D01*
X16295356Y-4635356D02*
X16295356Y-4564644D01*
X16224644Y-4564644D01*
X16224644Y-4635356D01*
X16295356Y-4635356D01*
X16295356Y-13635356D02*
X16295356Y-13564644D01*
X16224644Y-13564644D01*
X16224644Y-13635356D01*
X16295356Y-13635356D01*
X16549356Y-4635356D02*
X16549356Y-4564644D01*
X16478644Y-4564644D01*
X16478644Y-4635356D01*
X16549356Y-4635356D01*
X16549356Y-13635356D02*
X16549356Y-13564644D01*
X16478644Y-13564644D01*
X16478644Y-13635356D01*
X16549356Y-13635356D01*
X16803356Y-4635356D02*
X16803356Y-4564644D01*
X16732644Y-4564644D01*
X16732644Y-4635356D01*
X16803356Y-4635356D01*
X16803356Y-13635356D02*
X16803356Y-13564644D01*
X16732644Y-13564644D01*
X16732644Y-13635356D01*
X16803356Y-13635356D01*
X17057356Y-4635356D02*
X17057356Y-4564644D01*
X16986644Y-4564644D01*
X16986644Y-4635356D01*
X17057356Y-4635356D01*
X17057356Y-13635356D02*
X17057356Y-13564644D01*
X16986644Y-13564644D01*
X16986644Y-13635356D01*
X17057356Y-13635356D01*
X17311356Y-4635356D02*
X17311356Y-4564644D01*
X17240644Y-4564644D01*
X17240644Y-4635356D01*
X17311356Y-4635356D01*
X17311356Y-13635356D02*
X17311356Y-13564644D01*
X17240644Y-13564644D01*
X17240644Y-13635356D01*
X17311356Y-13635356D01*
X17565356Y-4635356D02*
X17565356Y-4564644D01*
X17494644Y-4564644D01*
X17494644Y-4635356D01*
X17565356Y-4635356D01*
X17565356Y-13635356D02*
X17565356Y-13564644D01*
X17494644Y-13564644D01*
X17494644Y-13635356D01*
X17565356Y-13635356D01*
X17819356Y-4635356D02*
X17819356Y-4564644D01*
X17748644Y-4564644D01*
X17748644Y-4635356D01*
X17819356Y-4635356D01*
X17819356Y-13635356D02*
X17819356Y-13564644D01*
X17748644Y-13564644D01*
X17748644Y-13635356D01*
X17819356Y-13635356D01*
X18073356Y-4635356D02*
X18073356Y-4564644D01*
X18002644Y-4564644D01*
X18002644Y-4635356D01*
X18073356Y-4635356D01*
X18073356Y-13635356D02*
X18073356Y-13564644D01*
X18002644Y-13564644D01*
X18002644Y-13635356D01*
X18073356Y-13635356D01*
X18327356Y-4635356D02*
X18327356Y-4564644D01*
X18256644Y-4564644D01*
X18256644Y-4635356D01*
X18327356Y-4635356D01*
X18327356Y-13635356D02*
X18327356Y-13564644D01*
X18256644Y-13564644D01*
X18256644Y-13635356D01*
X18327356Y-13635356D01*
X18581356Y-4635356D02*
X18581356Y-4564644D01*
X18510644Y-4564644D01*
X18510644Y-4635356D01*
X18581356Y-4635356D01*
X18581356Y-13635356D02*
X18581356Y-13564644D01*
X18510644Y-13564644D01*
X18510644Y-13635356D01*
X18581356Y-13635356D01*
D12*
X8781428Y-14370714D02*
X8781428Y-14070714D01*
X8852857Y-14070714D01*
X8895714Y-14085000D01*
X8924286Y-14113571D01*
X8938571Y-14142143D01*
X8952857Y-14199286D01*
X8952857Y-14242143D01*
X8938571Y-14299286D01*
X8924286Y-14327857D01*
X8895714Y-14356429D01*
X8852857Y-14370714D01*
X8781428Y-14370714D01*
X9081428Y-14370714D02*
X9081428Y-14170714D01*
X9081428Y-14227857D02*
X9095714Y-14199286D01*
X9110000Y-14185000D01*
X9138571Y-14170714D01*
X9167143Y-14170714D01*
X9267143Y-14370714D02*
X9267143Y-14170714D01*
X9267143Y-14070714D02*
X9252857Y-14085000D01*
X9267143Y-14099286D01*
X9281428Y-14085000D01*
X9267143Y-14070714D01*
X9267143Y-14099286D01*
X9452857Y-14370714D02*
X9424286Y-14356429D01*
X9410000Y-14327857D01*
X9410000Y-14070714D01*
X9610000Y-14370714D02*
X9581428Y-14356429D01*
X9567143Y-14327857D01*
X9567143Y-14070714D01*
X9952857Y-14370714D02*
X9952857Y-14070714D01*
X10052857Y-14285000D01*
X10152857Y-14070714D01*
X10152857Y-14370714D01*
X10424286Y-14370714D02*
X10424286Y-14213571D01*
X10410000Y-14185000D01*
X10381428Y-14170714D01*
X10324286Y-14170714D01*
X10295714Y-14185000D01*
X10424286Y-14356429D02*
X10395714Y-14370714D01*
X10324286Y-14370714D01*
X10295714Y-14356429D01*
X10281428Y-14327857D01*
X10281428Y-14299286D01*
X10295714Y-14270714D01*
X10324286Y-14256429D01*
X10395714Y-14256429D01*
X10424286Y-14242143D01*
X10567143Y-14170714D02*
X10567143Y-14470714D01*
X10567143Y-14185000D02*
X10595714Y-14170714D01*
X10652857Y-14170714D01*
X10681428Y-14185000D01*
X10695714Y-14199286D01*
X10710000Y-14227857D01*
X10710000Y-14313571D01*
X10695714Y-14342143D01*
X10681428Y-14356429D01*
X10652857Y-14370714D01*
X10595714Y-14370714D01*
X10567143Y-14356429D01*
X10838571Y-14342143D02*
X10852857Y-14356429D01*
X10838571Y-14370714D01*
X10824286Y-14356429D01*
X10838571Y-14342143D01*
X10838571Y-14370714D01*
X10838571Y-14185000D02*
X10852857Y-14199286D01*
X10838571Y-14213571D01*
X10824286Y-14199286D01*
X10838571Y-14185000D01*
X10838571Y-14213571D01*
X8455000Y-14845000D02*
X8495000Y-14885000D01*
X8495000Y-14845000D02*
X8455000Y-14885000D01*
X8838571Y-14700714D02*
X8867143Y-14700714D01*
X8895714Y-14715000D01*
X8910000Y-14729286D01*
X8924286Y-14757857D01*
X8938571Y-14815000D01*
X8938571Y-14886429D01*
X8924286Y-14943571D01*
X8910000Y-14972143D01*
X8895714Y-14986429D01*
X8867143Y-15000714D01*
X8838571Y-15000714D01*
X8810000Y-14986429D01*
X8795714Y-14972143D01*
X8781428Y-14943571D01*
X8767143Y-14886429D01*
X8767143Y-14815000D01*
X8781428Y-14757857D01*
X8795714Y-14729286D01*
X8810000Y-14715000D01*
X8838571Y-14700714D01*
X9067143Y-14972143D02*
X9081428Y-14986429D01*
X9067143Y-15000714D01*
X9052857Y-14986429D01*
X9067143Y-14972143D01*
X9067143Y-15000714D01*
X9338571Y-14800714D02*
X9338571Y-15000714D01*
X9267143Y-14686429D02*
X9195714Y-14900714D01*
X9381428Y-14900714D01*
X9552857Y-14700714D02*
X9581428Y-14700714D01*
X9610000Y-14715000D01*
X9624286Y-14729286D01*
X9638571Y-14757857D01*
X9652857Y-14815000D01*
X9652857Y-14886429D01*
X9638571Y-14943571D01*
X9624286Y-14972143D01*
X9610000Y-14986429D01*
X9581428Y-15000714D01*
X9552857Y-15000714D01*
X9524286Y-14986429D01*
X9510000Y-14972143D01*
X9495714Y-14943571D01*
X9481428Y-14886429D01*
X9481428Y-14815000D01*
X9495714Y-14757857D01*
X9510000Y-14729286D01*
X9524286Y-14715000D01*
X9552857Y-14700714D01*
X9781428Y-15000714D02*
X9781428Y-14800714D01*
X9781428Y-14829286D02*
X9795714Y-14815000D01*
X9824286Y-14800714D01*
X9867143Y-14800714D01*
X9895714Y-14815000D01*
X9910000Y-14843571D01*
X9910000Y-15000714D01*
X9910000Y-14843571D02*
X9924286Y-14815000D01*
X9952857Y-14800714D01*
X9995714Y-14800714D01*
X10024286Y-14815000D01*
X10038571Y-14843571D01*
X10038571Y-15000714D01*
X10181428Y-15000714D02*
X10181428Y-14800714D01*
X10181428Y-14829286D02*
X10195714Y-14815000D01*
X10224286Y-14800714D01*
X10267143Y-14800714D01*
X10295714Y-14815000D01*
X10310000Y-14843571D01*
X10310000Y-15000714D01*
X10310000Y-14843571D02*
X10324286Y-14815000D01*
X10352857Y-14800714D01*
X10395714Y-14800714D01*
X10424286Y-14815000D01*
X10438571Y-14843571D01*
X10438571Y-15000714D01*
X11024286Y-14686429D02*
X10767143Y-15072143D01*
X11410000Y-14700714D02*
X11438571Y-14700714D01*
X11467143Y-14715000D01*
X11481428Y-14729286D01*
X11495714Y-14757857D01*
X11510000Y-14815000D01*
X11510000Y-14886429D01*
X11495714Y-14943571D01*
X11481428Y-14972143D01*
X11467143Y-14986429D01*
X11438571Y-15000714D01*
X11410000Y-15000714D01*
X11381428Y-14986429D01*
X11367143Y-14972143D01*
X11352857Y-14943571D01*
X11338571Y-14886429D01*
X11338571Y-14815000D01*
X11352857Y-14757857D01*
X11367143Y-14729286D01*
X11381428Y-14715000D01*
X11410000Y-14700714D01*
X11638571Y-14972143D02*
X11652857Y-14986429D01*
X11638571Y-15000714D01*
X11624286Y-14986429D01*
X11638571Y-14972143D01*
X11638571Y-15000714D01*
X11838571Y-14700714D02*
X11867143Y-14700714D01*
X11895714Y-14715000D01*
X11910000Y-14729286D01*
X11924286Y-14757857D01*
X11938571Y-14815000D01*
X11938571Y-14886429D01*
X11924286Y-14943571D01*
X11910000Y-14972143D01*
X11895714Y-14986429D01*
X11867143Y-15000714D01*
X11838571Y-15000714D01*
X11810000Y-14986429D01*
X11795714Y-14972143D01*
X11781428Y-14943571D01*
X11767143Y-14886429D01*
X11767143Y-14815000D01*
X11781428Y-14757857D01*
X11795714Y-14729286D01*
X11810000Y-14715000D01*
X11838571Y-14700714D01*
X12224286Y-15000714D02*
X12052857Y-15000714D01*
X12138571Y-15000714D02*
X12138571Y-14700714D01*
X12110000Y-14743571D01*
X12081428Y-14772143D01*
X12052857Y-14786429D01*
X12481428Y-14700714D02*
X12424286Y-14700714D01*
X12395714Y-14715000D01*
X12381428Y-14729286D01*
X12352857Y-14772143D01*
X12338571Y-14829286D01*
X12338571Y-14943571D01*
X12352857Y-14972143D01*
X12367143Y-14986429D01*
X12395714Y-15000714D01*
X12452857Y-15000714D01*
X12481428Y-14986429D01*
X12495714Y-14972143D01*
X12510000Y-14943571D01*
X12510000Y-14872143D01*
X12495714Y-14843571D01*
X12481428Y-14829286D01*
X12452857Y-14815000D01*
X12395714Y-14815000D01*
X12367143Y-14829286D01*
X12352857Y-14843571D01*
X12338571Y-14872143D01*
X12624286Y-14700714D02*
X12624286Y-14757857D01*
X12738571Y-14700714D02*
X12738571Y-14757857D01*
X13181428Y-15115000D02*
X13167143Y-15100714D01*
X13138571Y-15057857D01*
X13124286Y-15029286D01*
X13110000Y-14986429D01*
X13095714Y-14915000D01*
X13095714Y-14857857D01*
X13110000Y-14786429D01*
X13124286Y-14743571D01*
X13138571Y-14715000D01*
X13167143Y-14672143D01*
X13181428Y-14657857D01*
X13424286Y-14800714D02*
X13424286Y-15000714D01*
X13352857Y-14686429D02*
X13281428Y-14900714D01*
X13467143Y-14900714D01*
X13810000Y-15000714D02*
X13810000Y-14700714D01*
X13938571Y-15000714D02*
X13938571Y-14843571D01*
X13924286Y-14815000D01*
X13895714Y-14800714D01*
X13852857Y-14800714D01*
X13824286Y-14815000D01*
X13810000Y-14829286D01*
X14124286Y-15000714D02*
X14095714Y-14986429D01*
X14081428Y-14972143D01*
X14067143Y-14943571D01*
X14067143Y-14857857D01*
X14081428Y-14829286D01*
X14095714Y-14815000D01*
X14124286Y-14800714D01*
X14167143Y-14800714D01*
X14195714Y-14815000D01*
X14210000Y-14829286D01*
X14224286Y-14857857D01*
X14224286Y-14943571D01*
X14210000Y-14972143D01*
X14195714Y-14986429D01*
X14167143Y-15000714D01*
X14124286Y-15000714D01*
X14395714Y-15000714D02*
X14367143Y-14986429D01*
X14352857Y-14957857D01*
X14352857Y-14700714D01*
X14624286Y-14986429D02*
X14595714Y-15000714D01*
X14538571Y-15000714D01*
X14510000Y-14986429D01*
X14495714Y-14957857D01*
X14495714Y-14843571D01*
X14510000Y-14815000D01*
X14538571Y-14800714D01*
X14595714Y-14800714D01*
X14624286Y-14815000D01*
X14638571Y-14843571D01*
X14638571Y-14872143D01*
X14495714Y-14900714D01*
X14752857Y-14986429D02*
X14781428Y-15000714D01*
X14838571Y-15000714D01*
X14867143Y-14986429D01*
X14881428Y-14957857D01*
X14881428Y-14943571D01*
X14867143Y-14915000D01*
X14838571Y-14900714D01*
X14795714Y-14900714D01*
X14767143Y-14886429D01*
X14752857Y-14857857D01*
X14752857Y-14843571D01*
X14767143Y-14815000D01*
X14795714Y-14800714D01*
X14838571Y-14800714D01*
X14867143Y-14815000D01*
X14981428Y-15115000D02*
X14995714Y-15100714D01*
X15024286Y-15057857D01*
X15038571Y-15029286D01*
X15052857Y-14986429D01*
X15067143Y-14915000D01*
X15067143Y-14857857D01*
X15052857Y-14786429D01*
X15038571Y-14743571D01*
X15024286Y-14715000D01*
X14995714Y-14672143D01*
X14981428Y-14657857D01*
X8495000Y-15261000D02*
G75*
G03*
X8495000Y-15261000I-40000J0D01*
G01*
X8838571Y-15096714D02*
X8867143Y-15096714D01*
X8895714Y-15111000D01*
X8910000Y-15125286D01*
X8924286Y-15153857D01*
X8938571Y-15211000D01*
X8938571Y-15282429D01*
X8924286Y-15339571D01*
X8910000Y-15368143D01*
X8895714Y-15382429D01*
X8867143Y-15396714D01*
X8838571Y-15396714D01*
X8810000Y-15382429D01*
X8795714Y-15368143D01*
X8781428Y-15339571D01*
X8767143Y-15282429D01*
X8767143Y-15211000D01*
X8781428Y-15153857D01*
X8795714Y-15125286D01*
X8810000Y-15111000D01*
X8838571Y-15096714D01*
X9067143Y-15368143D02*
X9081428Y-15382429D01*
X9067143Y-15396714D01*
X9052857Y-15382429D01*
X9067143Y-15368143D01*
X9067143Y-15396714D01*
X9252857Y-15225286D02*
X9224286Y-15211000D01*
X9210000Y-15196714D01*
X9195714Y-15168143D01*
X9195714Y-15153857D01*
X9210000Y-15125286D01*
X9224286Y-15111000D01*
X9252857Y-15096714D01*
X9310000Y-15096714D01*
X9338571Y-15111000D01*
X9352857Y-15125286D01*
X9367143Y-15153857D01*
X9367143Y-15168143D01*
X9352857Y-15196714D01*
X9338571Y-15211000D01*
X9310000Y-15225286D01*
X9252857Y-15225286D01*
X9224286Y-15239571D01*
X9210000Y-15253857D01*
X9195714Y-15282429D01*
X9195714Y-15339571D01*
X9210000Y-15368143D01*
X9224286Y-15382429D01*
X9252857Y-15396714D01*
X9310000Y-15396714D01*
X9338571Y-15382429D01*
X9352857Y-15368143D01*
X9367143Y-15339571D01*
X9367143Y-15282429D01*
X9352857Y-15253857D01*
X9338571Y-15239571D01*
X9310000Y-15225286D01*
X9552857Y-15096714D02*
X9581428Y-15096714D01*
X9610000Y-15111000D01*
X9624286Y-15125286D01*
X9638571Y-15153857D01*
X9652857Y-15211000D01*
X9652857Y-15282429D01*
X9638571Y-15339571D01*
X9624286Y-15368143D01*
X9610000Y-15382429D01*
X9581428Y-15396714D01*
X9552857Y-15396714D01*
X9524286Y-15382429D01*
X9510000Y-15368143D01*
X9495714Y-15339571D01*
X9481428Y-15282429D01*
X9481428Y-15211000D01*
X9495714Y-15153857D01*
X9510000Y-15125286D01*
X9524286Y-15111000D01*
X9552857Y-15096714D01*
X9781428Y-15396714D02*
X9781428Y-15196714D01*
X9781428Y-15225286D02*
X9795714Y-15211000D01*
X9824286Y-15196714D01*
X9867143Y-15196714D01*
X9895714Y-15211000D01*
X9910000Y-15239571D01*
X9910000Y-15396714D01*
X9910000Y-15239571D02*
X9924286Y-15211000D01*
X9952857Y-15196714D01*
X9995714Y-15196714D01*
X10024286Y-15211000D01*
X10038571Y-15239571D01*
X10038571Y-15396714D01*
X10181428Y-15396714D02*
X10181428Y-15196714D01*
X10181428Y-15225286D02*
X10195714Y-15211000D01*
X10224286Y-15196714D01*
X10267143Y-15196714D01*
X10295714Y-15211000D01*
X10310000Y-15239571D01*
X10310000Y-15396714D01*
X10310000Y-15239571D02*
X10324286Y-15211000D01*
X10352857Y-15196714D01*
X10395714Y-15196714D01*
X10424286Y-15211000D01*
X10438571Y-15239571D01*
X10438571Y-15396714D01*
X11024286Y-15082429D02*
X10767143Y-15468143D01*
X11410000Y-15096714D02*
X11438571Y-15096714D01*
X11467143Y-15111000D01*
X11481428Y-15125286D01*
X11495714Y-15153857D01*
X11510000Y-15211000D01*
X11510000Y-15282429D01*
X11495714Y-15339571D01*
X11481428Y-15368143D01*
X11467143Y-15382429D01*
X11438571Y-15396714D01*
X11410000Y-15396714D01*
X11381428Y-15382429D01*
X11367143Y-15368143D01*
X11352857Y-15339571D01*
X11338571Y-15282429D01*
X11338571Y-15211000D01*
X11352857Y-15153857D01*
X11367143Y-15125286D01*
X11381428Y-15111000D01*
X11410000Y-15096714D01*
X11638571Y-15368143D02*
X11652857Y-15382429D01*
X11638571Y-15396714D01*
X11624286Y-15382429D01*
X11638571Y-15368143D01*
X11638571Y-15396714D01*
X11838571Y-15096714D02*
X11867143Y-15096714D01*
X11895714Y-15111000D01*
X11910000Y-15125286D01*
X11924286Y-15153857D01*
X11938571Y-15211000D01*
X11938571Y-15282429D01*
X11924286Y-15339571D01*
X11910000Y-15368143D01*
X11895714Y-15382429D01*
X11867143Y-15396714D01*
X11838571Y-15396714D01*
X11810000Y-15382429D01*
X11795714Y-15368143D01*
X11781428Y-15339571D01*
X11767143Y-15282429D01*
X11767143Y-15211000D01*
X11781428Y-15153857D01*
X11795714Y-15125286D01*
X11810000Y-15111000D01*
X11838571Y-15096714D01*
X12038571Y-15096714D02*
X12224286Y-15096714D01*
X12124286Y-15211000D01*
X12167143Y-15211000D01*
X12195714Y-15225286D01*
X12210000Y-15239571D01*
X12224286Y-15268143D01*
X12224286Y-15339571D01*
X12210000Y-15368143D01*
X12195714Y-15382429D01*
X12167143Y-15396714D01*
X12081428Y-15396714D01*
X12052857Y-15382429D01*
X12038571Y-15368143D01*
X12510000Y-15396714D02*
X12338571Y-15396714D01*
X12424286Y-15396714D02*
X12424286Y-15096714D01*
X12395714Y-15139571D01*
X12367143Y-15168143D01*
X12338571Y-15182429D01*
X12624286Y-15096714D02*
X12624286Y-15153857D01*
X12738571Y-15096714D02*
X12738571Y-15153857D01*
X13181428Y-15511000D02*
X13167143Y-15496714D01*
X13138571Y-15453857D01*
X13124286Y-15425286D01*
X13110000Y-15382429D01*
X13095714Y-15311000D01*
X13095714Y-15253857D01*
X13110000Y-15182429D01*
X13124286Y-15139571D01*
X13138571Y-15111000D01*
X13167143Y-15068143D01*
X13181428Y-15053857D01*
X13424286Y-15196714D02*
X13424286Y-15396714D01*
X13352857Y-15082429D02*
X13281428Y-15296714D01*
X13467143Y-15296714D01*
X13710000Y-15196714D02*
X13710000Y-15396714D01*
X13638571Y-15082429D02*
X13567143Y-15296714D01*
X13752857Y-15296714D01*
X14095714Y-15396714D02*
X14095714Y-15096714D01*
X14224286Y-15396714D02*
X14224286Y-15239571D01*
X14210000Y-15211000D01*
X14181428Y-15196714D01*
X14138571Y-15196714D01*
X14110000Y-15211000D01*
X14095714Y-15225286D01*
X14410000Y-15396714D02*
X14381428Y-15382429D01*
X14367143Y-15368143D01*
X14352857Y-15339571D01*
X14352857Y-15253857D01*
X14367143Y-15225286D01*
X14381428Y-15211000D01*
X14410000Y-15196714D01*
X14452857Y-15196714D01*
X14481428Y-15211000D01*
X14495714Y-15225286D01*
X14510000Y-15253857D01*
X14510000Y-15339571D01*
X14495714Y-15368143D01*
X14481428Y-15382429D01*
X14452857Y-15396714D01*
X14410000Y-15396714D01*
X14681428Y-15396714D02*
X14652857Y-15382429D01*
X14638571Y-15353857D01*
X14638571Y-15096714D01*
X14910000Y-15382429D02*
X14881428Y-15396714D01*
X14824286Y-15396714D01*
X14795714Y-15382429D01*
X14781428Y-15353857D01*
X14781428Y-15239571D01*
X14795714Y-15211000D01*
X14824286Y-15196714D01*
X14881428Y-15196714D01*
X14910000Y-15211000D01*
X14924286Y-15239571D01*
X14924286Y-15268143D01*
X14781428Y-15296714D01*
X15038571Y-15382429D02*
X15067143Y-15396714D01*
X15124286Y-15396714D01*
X15152857Y-15382429D01*
X15167143Y-15353857D01*
X15167143Y-15339571D01*
X15152857Y-15311000D01*
X15124286Y-15296714D01*
X15081428Y-15296714D01*
X15052857Y-15282429D01*
X15038571Y-15253857D01*
X15038571Y-15239571D01*
X15052857Y-15211000D01*
X15081428Y-15196714D01*
X15124286Y-15196714D01*
X15152857Y-15211000D01*
X15267143Y-15511000D02*
X15281428Y-15496714D01*
X15310000Y-15453857D01*
X15324286Y-15425286D01*
X15338571Y-15382429D01*
X15352857Y-15311000D01*
X15352857Y-15253857D01*
X15338571Y-15182429D01*
X15324286Y-15139571D01*
X15310000Y-15111000D01*
X15281428Y-15068143D01*
X15267143Y-15053857D01*
X8450000Y-15612000D02*
X8450000Y-15702000D01*
X8405000Y-15657000D02*
X8495000Y-15657000D01*
X8838571Y-15492714D02*
X8867143Y-15492714D01*
X8895714Y-15507000D01*
X8910000Y-15521286D01*
X8924286Y-15549857D01*
X8938571Y-15607000D01*
X8938571Y-15678429D01*
X8924286Y-15735571D01*
X8910000Y-15764143D01*
X8895714Y-15778429D01*
X8867143Y-15792714D01*
X8838571Y-15792714D01*
X8810000Y-15778429D01*
X8795714Y-15764143D01*
X8781428Y-15735571D01*
X8767143Y-15678429D01*
X8767143Y-15607000D01*
X8781428Y-15549857D01*
X8795714Y-15521286D01*
X8810000Y-15507000D01*
X8838571Y-15492714D01*
X9067143Y-15764143D02*
X9081428Y-15778429D01*
X9067143Y-15792714D01*
X9052857Y-15778429D01*
X9067143Y-15764143D01*
X9067143Y-15792714D01*
X9224286Y-15792714D02*
X9281428Y-15792714D01*
X9310000Y-15778429D01*
X9324286Y-15764143D01*
X9352857Y-15721286D01*
X9367143Y-15664143D01*
X9367143Y-15549857D01*
X9352857Y-15521286D01*
X9338571Y-15507000D01*
X9310000Y-15492714D01*
X9252857Y-15492714D01*
X9224286Y-15507000D01*
X9210000Y-15521286D01*
X9195714Y-15549857D01*
X9195714Y-15621286D01*
X9210000Y-15649857D01*
X9224286Y-15664143D01*
X9252857Y-15678429D01*
X9310000Y-15678429D01*
X9338571Y-15664143D01*
X9352857Y-15649857D01*
X9367143Y-15621286D01*
X9552857Y-15492714D02*
X9581428Y-15492714D01*
X9610000Y-15507000D01*
X9624286Y-15521286D01*
X9638571Y-15549857D01*
X9652857Y-15607000D01*
X9652857Y-15678429D01*
X9638571Y-15735571D01*
X9624286Y-15764143D01*
X9610000Y-15778429D01*
X9581428Y-15792714D01*
X9552857Y-15792714D01*
X9524286Y-15778429D01*
X9510000Y-15764143D01*
X9495714Y-15735571D01*
X9481428Y-15678429D01*
X9481428Y-15607000D01*
X9495714Y-15549857D01*
X9510000Y-15521286D01*
X9524286Y-15507000D01*
X9552857Y-15492714D01*
X9781428Y-15792714D02*
X9781428Y-15592714D01*
X9781428Y-15621286D02*
X9795714Y-15607000D01*
X9824286Y-15592714D01*
X9867143Y-15592714D01*
X9895714Y-15607000D01*
X9910000Y-15635571D01*
X9910000Y-15792714D01*
X9910000Y-15635571D02*
X9924286Y-15607000D01*
X9952857Y-15592714D01*
X9995714Y-15592714D01*
X10024286Y-15607000D01*
X10038571Y-15635571D01*
X10038571Y-15792714D01*
X10181428Y-15792714D02*
X10181428Y-15592714D01*
X10181428Y-15621286D02*
X10195714Y-15607000D01*
X10224286Y-15592714D01*
X10267143Y-15592714D01*
X10295714Y-15607000D01*
X10310000Y-15635571D01*
X10310000Y-15792714D01*
X10310000Y-15635571D02*
X10324286Y-15607000D01*
X10352857Y-15592714D01*
X10395714Y-15592714D01*
X10424286Y-15607000D01*
X10438571Y-15635571D01*
X10438571Y-15792714D01*
X11024286Y-15478429D02*
X10767143Y-15864143D01*
X11410000Y-15492714D02*
X11438571Y-15492714D01*
X11467143Y-15507000D01*
X11481428Y-15521286D01*
X11495714Y-15549857D01*
X11510000Y-15607000D01*
X11510000Y-15678429D01*
X11495714Y-15735571D01*
X11481428Y-15764143D01*
X11467143Y-15778429D01*
X11438571Y-15792714D01*
X11410000Y-15792714D01*
X11381428Y-15778429D01*
X11367143Y-15764143D01*
X11352857Y-15735571D01*
X11338571Y-15678429D01*
X11338571Y-15607000D01*
X11352857Y-15549857D01*
X11367143Y-15521286D01*
X11381428Y-15507000D01*
X11410000Y-15492714D01*
X11638571Y-15764143D02*
X11652857Y-15778429D01*
X11638571Y-15792714D01*
X11624286Y-15778429D01*
X11638571Y-15764143D01*
X11638571Y-15792714D01*
X11838571Y-15492714D02*
X11867143Y-15492714D01*
X11895714Y-15507000D01*
X11910000Y-15521286D01*
X11924286Y-15549857D01*
X11938571Y-15607000D01*
X11938571Y-15678429D01*
X11924286Y-15735571D01*
X11910000Y-15764143D01*
X11895714Y-15778429D01*
X11867143Y-15792714D01*
X11838571Y-15792714D01*
X11810000Y-15778429D01*
X11795714Y-15764143D01*
X11781428Y-15735571D01*
X11767143Y-15678429D01*
X11767143Y-15607000D01*
X11781428Y-15549857D01*
X11795714Y-15521286D01*
X11810000Y-15507000D01*
X11838571Y-15492714D01*
X12038571Y-15492714D02*
X12224286Y-15492714D01*
X12124286Y-15607000D01*
X12167143Y-15607000D01*
X12195714Y-15621286D01*
X12210000Y-15635571D01*
X12224286Y-15664143D01*
X12224286Y-15735571D01*
X12210000Y-15764143D01*
X12195714Y-15778429D01*
X12167143Y-15792714D01*
X12081428Y-15792714D01*
X12052857Y-15778429D01*
X12038571Y-15764143D01*
X12495714Y-15492714D02*
X12352857Y-15492714D01*
X12338571Y-15635571D01*
X12352857Y-15621286D01*
X12381428Y-15607000D01*
X12452857Y-15607000D01*
X12481428Y-15621286D01*
X12495714Y-15635571D01*
X12510000Y-15664143D01*
X12510000Y-15735571D01*
X12495714Y-15764143D01*
X12481428Y-15778429D01*
X12452857Y-15792714D01*
X12381428Y-15792714D01*
X12352857Y-15778429D01*
X12338571Y-15764143D01*
X12624286Y-15492714D02*
X12624286Y-15549857D01*
X12738571Y-15492714D02*
X12738571Y-15549857D01*
X13181428Y-15907000D02*
X13167143Y-15892714D01*
X13138571Y-15849857D01*
X13124286Y-15821286D01*
X13110000Y-15778429D01*
X13095714Y-15707000D01*
X13095714Y-15649857D01*
X13110000Y-15578429D01*
X13124286Y-15535571D01*
X13138571Y-15507000D01*
X13167143Y-15464143D01*
X13181428Y-15449857D01*
X13424286Y-15492714D02*
X13367143Y-15492714D01*
X13338571Y-15507000D01*
X13324286Y-15521286D01*
X13295714Y-15564143D01*
X13281428Y-15621286D01*
X13281428Y-15735571D01*
X13295714Y-15764143D01*
X13310000Y-15778429D01*
X13338571Y-15792714D01*
X13395714Y-15792714D01*
X13424286Y-15778429D01*
X13438571Y-15764143D01*
X13452857Y-15735571D01*
X13452857Y-15664143D01*
X13438571Y-15635571D01*
X13424286Y-15621286D01*
X13395714Y-15607000D01*
X13338571Y-15607000D01*
X13310000Y-15621286D01*
X13295714Y-15635571D01*
X13281428Y-15664143D01*
X13810000Y-15792714D02*
X13810000Y-15492714D01*
X13938571Y-15792714D02*
X13938571Y-15635571D01*
X13924286Y-15607000D01*
X13895714Y-15592714D01*
X13852857Y-15592714D01*
X13824286Y-15607000D01*
X13810000Y-15621286D01*
X14124286Y-15792714D02*
X14095714Y-15778429D01*
X14081428Y-15764143D01*
X14067143Y-15735571D01*
X14067143Y-15649857D01*
X14081428Y-15621286D01*
X14095714Y-15607000D01*
X14124286Y-15592714D01*
X14167143Y-15592714D01*
X14195714Y-15607000D01*
X14210000Y-15621286D01*
X14224286Y-15649857D01*
X14224286Y-15735571D01*
X14210000Y-15764143D01*
X14195714Y-15778429D01*
X14167143Y-15792714D01*
X14124286Y-15792714D01*
X14395714Y-15792714D02*
X14367143Y-15778429D01*
X14352857Y-15749857D01*
X14352857Y-15492714D01*
X14624286Y-15778429D02*
X14595714Y-15792714D01*
X14538571Y-15792714D01*
X14510000Y-15778429D01*
X14495714Y-15749857D01*
X14495714Y-15635571D01*
X14510000Y-15607000D01*
X14538571Y-15592714D01*
X14595714Y-15592714D01*
X14624286Y-15607000D01*
X14638571Y-15635571D01*
X14638571Y-15664143D01*
X14495714Y-15692714D01*
X14752857Y-15778429D02*
X14781428Y-15792714D01*
X14838571Y-15792714D01*
X14867143Y-15778429D01*
X14881428Y-15749857D01*
X14881428Y-15735571D01*
X14867143Y-15707000D01*
X14838571Y-15692714D01*
X14795714Y-15692714D01*
X14767143Y-15678429D01*
X14752857Y-15649857D01*
X14752857Y-15635571D01*
X14767143Y-15607000D01*
X14795714Y-15592714D01*
X14838571Y-15592714D01*
X14867143Y-15607000D01*
X14981428Y-15907000D02*
X14995714Y-15892714D01*
X15024286Y-15849857D01*
X15038571Y-15821286D01*
X15052857Y-15778429D01*
X15067143Y-15707000D01*
X15067143Y-15649857D01*
X15052857Y-15578429D01*
X15038571Y-15535571D01*
X15024286Y-15507000D01*
X14995714Y-15464143D01*
X14981428Y-15449857D01*
X8480356Y-16088356D02*
X8480356Y-16017644D01*
X8409644Y-16017644D01*
X8409644Y-16088356D01*
X8480356Y-16088356D01*
X8938571Y-16188714D02*
X8767143Y-16188714D01*
X8852857Y-16188714D02*
X8852857Y-15888714D01*
X8824286Y-15931571D01*
X8795714Y-15960143D01*
X8767143Y-15974429D01*
X9067143Y-16160143D02*
X9081428Y-16174429D01*
X9067143Y-16188714D01*
X9052857Y-16174429D01*
X9067143Y-16160143D01*
X9067143Y-16188714D01*
X9267143Y-15888714D02*
X9295714Y-15888714D01*
X9324286Y-15903000D01*
X9338571Y-15917286D01*
X9352857Y-15945857D01*
X9367143Y-16003000D01*
X9367143Y-16074429D01*
X9352857Y-16131571D01*
X9338571Y-16160143D01*
X9324286Y-16174429D01*
X9295714Y-16188714D01*
X9267143Y-16188714D01*
X9238571Y-16174429D01*
X9224286Y-16160143D01*
X9210000Y-16131571D01*
X9195714Y-16074429D01*
X9195714Y-16003000D01*
X9210000Y-15945857D01*
X9224286Y-15917286D01*
X9238571Y-15903000D01*
X9267143Y-15888714D01*
X9552857Y-15888714D02*
X9581428Y-15888714D01*
X9610000Y-15903000D01*
X9624286Y-15917286D01*
X9638571Y-15945857D01*
X9652857Y-16003000D01*
X9652857Y-16074429D01*
X9638571Y-16131571D01*
X9624286Y-16160143D01*
X9610000Y-16174429D01*
X9581428Y-16188714D01*
X9552857Y-16188714D01*
X9524286Y-16174429D01*
X9510000Y-16160143D01*
X9495714Y-16131571D01*
X9481428Y-16074429D01*
X9481428Y-16003000D01*
X9495714Y-15945857D01*
X9510000Y-15917286D01*
X9524286Y-15903000D01*
X9552857Y-15888714D01*
X9781428Y-16188714D02*
X9781428Y-15988714D01*
X9781428Y-16017286D02*
X9795714Y-16003000D01*
X9824286Y-15988714D01*
X9867143Y-15988714D01*
X9895714Y-16003000D01*
X9910000Y-16031571D01*
X9910000Y-16188714D01*
X9910000Y-16031571D02*
X9924286Y-16003000D01*
X9952857Y-15988714D01*
X9995714Y-15988714D01*
X10024286Y-16003000D01*
X10038571Y-16031571D01*
X10038571Y-16188714D01*
X10181428Y-16188714D02*
X10181428Y-15988714D01*
X10181428Y-16017286D02*
X10195714Y-16003000D01*
X10224286Y-15988714D01*
X10267143Y-15988714D01*
X10295714Y-16003000D01*
X10310000Y-16031571D01*
X10310000Y-16188714D01*
X10310000Y-16031571D02*
X10324286Y-16003000D01*
X10352857Y-15988714D01*
X10395714Y-15988714D01*
X10424286Y-16003000D01*
X10438571Y-16031571D01*
X10438571Y-16188714D01*
X11024286Y-15874429D02*
X10767143Y-16260143D01*
X11410000Y-15888714D02*
X11438571Y-15888714D01*
X11467143Y-15903000D01*
X11481428Y-15917286D01*
X11495714Y-15945857D01*
X11510000Y-16003000D01*
X11510000Y-16074429D01*
X11495714Y-16131571D01*
X11481428Y-16160143D01*
X11467143Y-16174429D01*
X11438571Y-16188714D01*
X11410000Y-16188714D01*
X11381428Y-16174429D01*
X11367143Y-16160143D01*
X11352857Y-16131571D01*
X11338571Y-16074429D01*
X11338571Y-16003000D01*
X11352857Y-15945857D01*
X11367143Y-15917286D01*
X11381428Y-15903000D01*
X11410000Y-15888714D01*
X11638571Y-16160143D02*
X11652857Y-16174429D01*
X11638571Y-16188714D01*
X11624286Y-16174429D01*
X11638571Y-16160143D01*
X11638571Y-16188714D01*
X11838571Y-15888714D02*
X11867143Y-15888714D01*
X11895714Y-15903000D01*
X11910000Y-15917286D01*
X11924286Y-15945857D01*
X11938571Y-16003000D01*
X11938571Y-16074429D01*
X11924286Y-16131571D01*
X11910000Y-16160143D01*
X11895714Y-16174429D01*
X11867143Y-16188714D01*
X11838571Y-16188714D01*
X11810000Y-16174429D01*
X11795714Y-16160143D01*
X11781428Y-16131571D01*
X11767143Y-16074429D01*
X11767143Y-16003000D01*
X11781428Y-15945857D01*
X11795714Y-15917286D01*
X11810000Y-15903000D01*
X11838571Y-15888714D01*
X12038571Y-15888714D02*
X12224286Y-15888714D01*
X12124286Y-16003000D01*
X12167143Y-16003000D01*
X12195714Y-16017286D01*
X12210000Y-16031571D01*
X12224286Y-16060143D01*
X12224286Y-16131571D01*
X12210000Y-16160143D01*
X12195714Y-16174429D01*
X12167143Y-16188714D01*
X12081428Y-16188714D01*
X12052857Y-16174429D01*
X12038571Y-16160143D01*
X12367143Y-16188714D02*
X12424286Y-16188714D01*
X12452857Y-16174429D01*
X12467143Y-16160143D01*
X12495714Y-16117286D01*
X12510000Y-16060143D01*
X12510000Y-15945857D01*
X12495714Y-15917286D01*
X12481428Y-15903000D01*
X12452857Y-15888714D01*
X12395714Y-15888714D01*
X12367143Y-15903000D01*
X12352857Y-15917286D01*
X12338571Y-15945857D01*
X12338571Y-16017286D01*
X12352857Y-16045857D01*
X12367143Y-16060143D01*
X12395714Y-16074429D01*
X12452857Y-16074429D01*
X12481428Y-16060143D01*
X12495714Y-16045857D01*
X12510000Y-16017286D01*
X12624286Y-15888714D02*
X12624286Y-15945857D01*
X12738571Y-15888714D02*
X12738571Y-15945857D01*
X13181428Y-16303000D02*
X13167143Y-16288714D01*
X13138571Y-16245857D01*
X13124286Y-16217286D01*
X13110000Y-16174429D01*
X13095714Y-16103000D01*
X13095714Y-16045857D01*
X13110000Y-15974429D01*
X13124286Y-15931571D01*
X13138571Y-15903000D01*
X13167143Y-15860143D01*
X13181428Y-15845857D01*
X13452857Y-16188714D02*
X13281428Y-16188714D01*
X13367143Y-16188714D02*
X13367143Y-15888714D01*
X13338571Y-15931571D01*
X13310000Y-15960143D01*
X13281428Y-15974429D01*
X13638571Y-15888714D02*
X13667143Y-15888714D01*
X13695714Y-15903000D01*
X13710000Y-15917286D01*
X13724286Y-15945857D01*
X13738571Y-16003000D01*
X13738571Y-16074429D01*
X13724286Y-16131571D01*
X13710000Y-16160143D01*
X13695714Y-16174429D01*
X13667143Y-16188714D01*
X13638571Y-16188714D01*
X13610000Y-16174429D01*
X13595714Y-16160143D01*
X13581428Y-16131571D01*
X13567143Y-16074429D01*
X13567143Y-16003000D01*
X13581428Y-15945857D01*
X13595714Y-15917286D01*
X13610000Y-15903000D01*
X13638571Y-15888714D01*
X13852857Y-15917286D02*
X13867143Y-15903000D01*
X13895714Y-15888714D01*
X13967143Y-15888714D01*
X13995714Y-15903000D01*
X14010000Y-15917286D01*
X14024286Y-15945857D01*
X14024286Y-15974429D01*
X14010000Y-16017286D01*
X13838571Y-16188714D01*
X14024286Y-16188714D01*
X14381428Y-16188714D02*
X14381428Y-15888714D01*
X14510000Y-16188714D02*
X14510000Y-16031571D01*
X14495714Y-16003000D01*
X14467143Y-15988714D01*
X14424286Y-15988714D01*
X14395714Y-16003000D01*
X14381428Y-16017286D01*
X14695714Y-16188714D02*
X14667143Y-16174429D01*
X14652857Y-16160143D01*
X14638571Y-16131571D01*
X14638571Y-16045857D01*
X14652857Y-16017286D01*
X14667143Y-16003000D01*
X14695714Y-15988714D01*
X14738571Y-15988714D01*
X14767143Y-16003000D01*
X14781428Y-16017286D01*
X14795714Y-16045857D01*
X14795714Y-16131571D01*
X14781428Y-16160143D01*
X14767143Y-16174429D01*
X14738571Y-16188714D01*
X14695714Y-16188714D01*
X14967143Y-16188714D02*
X14938571Y-16174429D01*
X14924286Y-16145857D01*
X14924286Y-15888714D01*
X15195714Y-16174429D02*
X15167143Y-16188714D01*
X15110000Y-16188714D01*
X15081428Y-16174429D01*
X15067143Y-16145857D01*
X15067143Y-16031571D01*
X15081428Y-16003000D01*
X15110000Y-15988714D01*
X15167143Y-15988714D01*
X15195714Y-16003000D01*
X15210000Y-16031571D01*
X15210000Y-16060143D01*
X15067143Y-16088714D01*
X15324286Y-16174429D02*
X15352857Y-16188714D01*
X15410000Y-16188714D01*
X15438571Y-16174429D01*
X15452857Y-16145857D01*
X15452857Y-16131571D01*
X15438571Y-16103000D01*
X15410000Y-16088714D01*
X15367143Y-16088714D01*
X15338571Y-16074429D01*
X15324286Y-16045857D01*
X15324286Y-16031571D01*
X15338571Y-16003000D01*
X15367143Y-15988714D01*
X15410000Y-15988714D01*
X15438571Y-16003000D01*
X15552857Y-16303000D02*
X15567143Y-16288714D01*
X15595714Y-16245857D01*
X15610000Y-16217286D01*
X15624286Y-16174429D01*
X15638571Y-16103000D01*
X15638571Y-16045857D01*
X15624286Y-15974429D01*
X15610000Y-15931571D01*
X15595714Y-15903000D01*
X15567143Y-15860143D01*
X15552857Y-15845857D01*
M02*
