G04 #@! TF.GenerationSoftware,KiCad,Pcbnew,(5.1.9)-1*
G04 #@! TF.CreationDate,2022-01-17T22:51:17-05:00*
G04 #@! TF.ProjectId,output-led,6f757470-7574-42d6-9c65-642e6b696361,1.1*
G04 #@! TF.SameCoordinates,Original*
G04 #@! TF.FileFunction,Soldermask,Bot*
G04 #@! TF.FilePolarity,Negative*
%FSLAX46Y46*%
G04 Gerber Fmt 4.6, Leading zero omitted, Abs format (unit mm)*
G04 Created by KiCad (PCBNEW (5.1.9)-1) date 2022-01-17 22:51:17*
%MOMM*%
%LPD*%
G01*
G04 APERTURE LIST*
%ADD10O,1.700000X1.700000*%
%ADD11R,1.700000X1.700000*%
%ADD12C,1.900000*%
%ADD13R,1.900000X1.900000*%
%ADD14O,1.600000X1.600000*%
%ADD15R,1.600000X1.600000*%
G04 APERTURE END LIST*
D10*
X146500000Y-98740000D03*
D11*
X146500000Y-96200000D03*
D10*
X93200000Y-98740000D03*
D11*
X93200000Y-96200000D03*
D12*
X165200000Y-103900000D03*
X165200000Y-101400000D03*
D13*
X165200000Y-98900000D03*
D12*
X173300000Y-103900000D03*
X173300000Y-101400000D03*
D13*
X173300000Y-98900000D03*
D14*
X168400000Y-69420000D03*
X150620000Y-61800000D03*
X165860000Y-69420000D03*
X153160000Y-61800000D03*
X163320000Y-69420000D03*
X155700000Y-61800000D03*
X160780000Y-69420000D03*
X158240000Y-61800000D03*
X158240000Y-69420000D03*
X160780000Y-61800000D03*
X155700000Y-69420000D03*
X163320000Y-61800000D03*
X153160000Y-69420000D03*
X165860000Y-61800000D03*
X150620000Y-69420000D03*
D15*
X168400000Y-61800000D03*
D14*
X96300000Y-61780000D03*
X129320000Y-69400000D03*
X98840000Y-61780000D03*
X126780000Y-69400000D03*
X101380000Y-61780000D03*
X124240000Y-69400000D03*
X103920000Y-61780000D03*
X121700000Y-69400000D03*
X106460000Y-61780000D03*
X119160000Y-69400000D03*
X109000000Y-61780000D03*
X116620000Y-69400000D03*
X111540000Y-61780000D03*
X114080000Y-69400000D03*
X114080000Y-61780000D03*
X111540000Y-69400000D03*
X116620000Y-61780000D03*
X109000000Y-69400000D03*
X119160000Y-61780000D03*
X106460000Y-69400000D03*
X121700000Y-61780000D03*
X103920000Y-69400000D03*
X124240000Y-61780000D03*
X101380000Y-69400000D03*
X126780000Y-61780000D03*
X98840000Y-69400000D03*
X129320000Y-61780000D03*
D15*
X96300000Y-69400000D03*
D10*
X133800000Y-119100000D03*
X131260000Y-119100000D03*
X128720000Y-119100000D03*
X126180000Y-119100000D03*
X123640000Y-119100000D03*
X121100000Y-119100000D03*
X118560000Y-119100000D03*
X116020000Y-119100000D03*
X113480000Y-119100000D03*
X110940000Y-119100000D03*
X108400000Y-119100000D03*
D11*
X105860000Y-119100000D03*
D10*
X95840000Y-83280000D03*
X93300000Y-83280000D03*
X95840000Y-80740000D03*
X93300000Y-80740000D03*
X95840000Y-78200000D03*
D11*
X93300000Y-78200000D03*
D10*
X185460000Y-136000000D03*
X182920000Y-136000000D03*
X180380000Y-136000000D03*
X177840000Y-136000000D03*
X175300000Y-136000000D03*
X172760000Y-136000000D03*
X170220000Y-136000000D03*
X167680000Y-136000000D03*
X165140000Y-136000000D03*
X162600000Y-136000000D03*
X160060000Y-136000000D03*
X157520000Y-136000000D03*
X154980000Y-136000000D03*
X152440000Y-136000000D03*
X149900000Y-136000000D03*
X147360000Y-136000000D03*
X144820000Y-136000000D03*
X142280000Y-136000000D03*
X139740000Y-136000000D03*
X137200000Y-136000000D03*
X134660000Y-136000000D03*
X132120000Y-136000000D03*
X129580000Y-136000000D03*
X127040000Y-136000000D03*
X124500000Y-136000000D03*
X121960000Y-136000000D03*
X119420000Y-136000000D03*
X116880000Y-136000000D03*
X114340000Y-136000000D03*
X111800000Y-136000000D03*
X109260000Y-136000000D03*
X106720000Y-136000000D03*
X104180000Y-136000000D03*
X101640000Y-136000000D03*
X99100000Y-136000000D03*
X96560000Y-136000000D03*
X94020000Y-136000000D03*
X91480000Y-136000000D03*
X88940000Y-136000000D03*
D11*
X86400000Y-136000000D03*
D10*
X185460000Y-46000000D03*
X182920000Y-46000000D03*
X180380000Y-46000000D03*
X177840000Y-46000000D03*
X175300000Y-46000000D03*
X172760000Y-46000000D03*
X170220000Y-46000000D03*
X167680000Y-46000000D03*
X165140000Y-46000000D03*
X162600000Y-46000000D03*
X160060000Y-46000000D03*
X157520000Y-46000000D03*
X154980000Y-46000000D03*
X152440000Y-46000000D03*
X149900000Y-46000000D03*
X147360000Y-46000000D03*
X144820000Y-46000000D03*
X142280000Y-46000000D03*
X139740000Y-46000000D03*
X137200000Y-46000000D03*
X134660000Y-46000000D03*
X132120000Y-46000000D03*
X129580000Y-46000000D03*
X127040000Y-46000000D03*
X124500000Y-46000000D03*
X121960000Y-46000000D03*
X119420000Y-46000000D03*
X116880000Y-46000000D03*
X114340000Y-46000000D03*
X111800000Y-46000000D03*
X109260000Y-46000000D03*
X106720000Y-46000000D03*
X104180000Y-46000000D03*
X101640000Y-46000000D03*
X99100000Y-46000000D03*
X96560000Y-46000000D03*
X94020000Y-46000000D03*
X91480000Y-46000000D03*
X88940000Y-46000000D03*
D11*
X86400000Y-46000000D03*
M02*
