G04 #@! TF.GenerationSoftware,KiCad,Pcbnew,(5.1.9)-1*
G04 #@! TF.CreationDate,2022-07-23T12:13:44-04:00*
G04 #@! TF.ProjectId,output-led,6f757470-7574-42d6-9c65-642e6b696361,1.1*
G04 #@! TF.SameCoordinates,Original*
G04 #@! TF.FileFunction,Copper,L2,Bot*
G04 #@! TF.FilePolarity,Positive*
%FSLAX46Y46*%
G04 Gerber Fmt 4.6, Leading zero omitted, Abs format (unit mm)*
G04 Created by KiCad (PCBNEW (5.1.9)-1) date 2022-07-23 12:13:44*
%MOMM*%
%LPD*%
G01*
G04 APERTURE LIST*
G04 #@! TA.AperFunction,ComponentPad*
%ADD10O,1.700000X1.700000*%
G04 #@! TD*
G04 #@! TA.AperFunction,ComponentPad*
%ADD11R,1.700000X1.700000*%
G04 #@! TD*
G04 #@! TA.AperFunction,ComponentPad*
%ADD12C,1.900000*%
G04 #@! TD*
G04 #@! TA.AperFunction,ComponentPad*
%ADD13R,1.900000X1.900000*%
G04 #@! TD*
G04 #@! TA.AperFunction,ComponentPad*
%ADD14O,1.600000X1.600000*%
G04 #@! TD*
G04 #@! TA.AperFunction,ComponentPad*
%ADD15R,1.600000X1.600000*%
G04 #@! TD*
G04 #@! TA.AperFunction,ViaPad*
%ADD16C,0.800000*%
G04 #@! TD*
G04 #@! TA.AperFunction,Conductor*
%ADD17C,0.250000*%
G04 #@! TD*
G04 #@! TA.AperFunction,Conductor*
%ADD18C,0.254000*%
G04 #@! TD*
G04 #@! TA.AperFunction,Conductor*
%ADD19C,0.100000*%
G04 #@! TD*
G04 APERTURE END LIST*
D10*
X146500000Y-98740000D03*
D11*
X146500000Y-96200000D03*
D10*
X93200000Y-98740000D03*
D11*
X93200000Y-96200000D03*
D12*
X165200000Y-103900000D03*
X165200000Y-101400000D03*
D13*
X165200000Y-98900000D03*
D12*
X173300000Y-103900000D03*
X173300000Y-101400000D03*
D13*
X173300000Y-98900000D03*
D14*
X168400000Y-69420000D03*
X150620000Y-61800000D03*
X165860000Y-69420000D03*
X153160000Y-61800000D03*
X163320000Y-69420000D03*
X155700000Y-61800000D03*
X160780000Y-69420000D03*
X158240000Y-61800000D03*
X158240000Y-69420000D03*
X160780000Y-61800000D03*
X155700000Y-69420000D03*
X163320000Y-61800000D03*
X153160000Y-69420000D03*
X165860000Y-61800000D03*
X150620000Y-69420000D03*
D15*
X168400000Y-61800000D03*
D14*
X96300000Y-61780000D03*
X129320000Y-69400000D03*
X98840000Y-61780000D03*
X126780000Y-69400000D03*
X101380000Y-61780000D03*
X124240000Y-69400000D03*
X103920000Y-61780000D03*
X121700000Y-69400000D03*
X106460000Y-61780000D03*
X119160000Y-69400000D03*
X109000000Y-61780000D03*
X116620000Y-69400000D03*
X111540000Y-61780000D03*
X114080000Y-69400000D03*
X114080000Y-61780000D03*
X111540000Y-69400000D03*
X116620000Y-61780000D03*
X109000000Y-69400000D03*
X119160000Y-61780000D03*
X106460000Y-69400000D03*
X121700000Y-61780000D03*
X103920000Y-69400000D03*
X124240000Y-61780000D03*
X101380000Y-69400000D03*
X126780000Y-61780000D03*
X98840000Y-69400000D03*
X129320000Y-61780000D03*
D15*
X96300000Y-69400000D03*
D10*
X133800000Y-119100000D03*
X131260000Y-119100000D03*
X128720000Y-119100000D03*
X126180000Y-119100000D03*
X123640000Y-119100000D03*
X121100000Y-119100000D03*
X118560000Y-119100000D03*
X116020000Y-119100000D03*
X113480000Y-119100000D03*
X110940000Y-119100000D03*
X108400000Y-119100000D03*
D11*
X105860000Y-119100000D03*
D10*
X95840000Y-83280000D03*
X93300000Y-83280000D03*
X95840000Y-80740000D03*
X93300000Y-80740000D03*
X95840000Y-78200000D03*
D11*
X93300000Y-78200000D03*
D10*
X185460000Y-136000000D03*
X182920000Y-136000000D03*
X180380000Y-136000000D03*
X177840000Y-136000000D03*
X175300000Y-136000000D03*
X172760000Y-136000000D03*
X170220000Y-136000000D03*
X167680000Y-136000000D03*
X165140000Y-136000000D03*
X162600000Y-136000000D03*
X160060000Y-136000000D03*
X157520000Y-136000000D03*
X154980000Y-136000000D03*
X152440000Y-136000000D03*
X149900000Y-136000000D03*
X147360000Y-136000000D03*
X144820000Y-136000000D03*
X142280000Y-136000000D03*
X139740000Y-136000000D03*
X137200000Y-136000000D03*
X134660000Y-136000000D03*
X132120000Y-136000000D03*
X129580000Y-136000000D03*
X127040000Y-136000000D03*
X124500000Y-136000000D03*
X121960000Y-136000000D03*
X119420000Y-136000000D03*
X116880000Y-136000000D03*
X114340000Y-136000000D03*
X111800000Y-136000000D03*
X109260000Y-136000000D03*
X106720000Y-136000000D03*
X104180000Y-136000000D03*
X101640000Y-136000000D03*
X99100000Y-136000000D03*
X96560000Y-136000000D03*
X94020000Y-136000000D03*
X91480000Y-136000000D03*
X88940000Y-136000000D03*
D11*
X86400000Y-136000000D03*
D10*
X185460000Y-46000000D03*
X182920000Y-46000000D03*
X180380000Y-46000000D03*
X177840000Y-46000000D03*
X175300000Y-46000000D03*
X172760000Y-46000000D03*
X170220000Y-46000000D03*
X167680000Y-46000000D03*
X165140000Y-46000000D03*
X162600000Y-46000000D03*
X160060000Y-46000000D03*
X157520000Y-46000000D03*
X154980000Y-46000000D03*
X152440000Y-46000000D03*
X149900000Y-46000000D03*
X147360000Y-46000000D03*
X144820000Y-46000000D03*
X142280000Y-46000000D03*
X139740000Y-46000000D03*
X137200000Y-46000000D03*
X134660000Y-46000000D03*
X132120000Y-46000000D03*
X129580000Y-46000000D03*
X127040000Y-46000000D03*
X124500000Y-46000000D03*
X121960000Y-46000000D03*
X119420000Y-46000000D03*
X116880000Y-46000000D03*
X114340000Y-46000000D03*
X111800000Y-46000000D03*
X109260000Y-46000000D03*
X106720000Y-46000000D03*
X104180000Y-46000000D03*
X101640000Y-46000000D03*
X99100000Y-46000000D03*
X96560000Y-46000000D03*
X94020000Y-46000000D03*
X91480000Y-46000000D03*
X88940000Y-46000000D03*
D11*
X86400000Y-46000000D03*
D16*
X138800000Y-72900000D03*
X128100000Y-58800000D03*
X117207499Y-74192501D03*
X114637499Y-74162501D03*
D17*
X120600000Y-113520000D02*
X126180000Y-119100000D01*
X120600000Y-82400000D02*
X120600000Y-113520000D01*
X109000000Y-70800000D02*
X120600000Y-82400000D01*
X109000000Y-69400000D02*
X109000000Y-70800000D01*
X156349990Y-49749990D02*
X168400000Y-61800000D01*
X125709990Y-49749990D02*
X156349990Y-49749990D01*
X121960000Y-46000000D02*
X125709990Y-49749990D01*
X165860000Y-61800000D02*
X154260000Y-50200000D01*
X123620000Y-50200000D02*
X119420000Y-46000000D01*
X154260000Y-50200000D02*
X123620000Y-50200000D01*
X163320000Y-61800000D02*
X152320000Y-50800000D01*
X121680000Y-50800000D02*
X116880000Y-46000000D01*
X152320000Y-50800000D02*
X121680000Y-50800000D01*
X155700000Y-61800000D02*
X145200000Y-51300000D01*
X119640000Y-51300000D02*
X114340000Y-46000000D01*
X145200000Y-51300000D02*
X119640000Y-51300000D01*
X121200000Y-51900000D02*
X128100000Y-58800000D01*
X111800000Y-46000000D02*
X117700000Y-51900000D01*
X117700000Y-51900000D02*
X121200000Y-51900000D01*
X115610011Y-52350011D02*
X109260000Y-46000000D01*
X119890011Y-52350011D02*
X115610011Y-52350011D01*
X129320000Y-61780000D02*
X119890011Y-52350011D01*
X126780000Y-61780000D02*
X117800022Y-52800022D01*
X117800022Y-52800022D02*
X113520022Y-52800022D01*
X113520022Y-52800022D02*
X107569999Y-46849999D01*
X107569999Y-46849999D02*
X106720000Y-46000000D01*
X112280000Y-54100000D02*
X104180000Y-46000000D01*
X116560000Y-54100000D02*
X112280000Y-54100000D01*
X124240000Y-61780000D02*
X116560000Y-54100000D01*
X114470011Y-54550011D02*
X121700000Y-61780000D01*
X101640000Y-46000000D02*
X110190011Y-54550011D01*
X110190011Y-54550011D02*
X114470011Y-54550011D01*
X108100022Y-55000022D02*
X112380023Y-55000022D01*
X99100000Y-46000000D02*
X108100022Y-55000022D01*
X112380023Y-55000022D02*
X119160000Y-61780000D01*
X112954999Y-64418589D02*
X116620000Y-68083590D01*
X116620000Y-68083590D02*
X116620000Y-69400000D01*
X112954999Y-61529997D02*
X112954999Y-64418589D01*
X97425002Y-46000000D02*
X112954999Y-61529997D01*
X96560000Y-46000000D02*
X97425002Y-46000000D01*
X118034999Y-70525001D02*
X119160000Y-69400000D01*
X116079999Y-70525001D02*
X118034999Y-70525001D01*
X115494999Y-69940001D02*
X116079999Y-70525001D01*
X110414999Y-62514999D02*
X115494999Y-67594999D01*
X110414999Y-61529997D02*
X110414999Y-62514999D01*
X115494999Y-67594999D02*
X115494999Y-69940001D01*
X96060003Y-47175001D02*
X110414999Y-61529997D01*
X95195001Y-47175001D02*
X96060003Y-47175001D01*
X94020000Y-46000000D02*
X95195001Y-47175001D01*
X182920000Y-46000000D02*
X180920000Y-44000000D01*
X92844999Y-65944999D02*
X96300000Y-69400000D01*
X92844999Y-45246001D02*
X92844999Y-65944999D01*
X94091000Y-44000000D02*
X92844999Y-45246001D01*
X180920000Y-44000000D02*
X94091000Y-44000000D01*
X124240000Y-112080000D02*
X131260000Y-119100000D01*
X124240000Y-69400000D02*
X124240000Y-112080000D01*
X121700000Y-112080000D02*
X121700000Y-69400000D01*
X128720000Y-119100000D02*
X121700000Y-112080000D01*
X123640000Y-119100000D02*
X119900000Y-115360000D01*
X119900000Y-115360000D02*
X119900000Y-82840000D01*
X119900000Y-82840000D02*
X106460000Y-69400000D01*
X119449990Y-117449990D02*
X121100000Y-119100000D01*
X103920000Y-69400000D02*
X119449990Y-84929990D01*
X119449990Y-84929990D02*
X119449990Y-117449990D01*
X118560000Y-92860000D02*
X118560000Y-119100000D01*
X118560000Y-86580000D02*
X118560000Y-92860000D01*
X101380000Y-69400000D02*
X118560000Y-86580000D01*
X116000000Y-119080000D02*
X116020000Y-119100000D01*
X116000000Y-86560000D02*
X116000000Y-119080000D01*
X98840000Y-69400000D02*
X116000000Y-86560000D01*
X112954999Y-69940001D02*
X117207499Y-74192501D01*
X98840000Y-61780000D02*
X99965001Y-62905001D01*
X112954999Y-69149997D02*
X112954999Y-69940001D01*
X106710003Y-62905001D02*
X112954999Y-69149997D01*
X99965001Y-62905001D02*
X106710003Y-62905001D01*
X110414999Y-69940001D02*
X114637499Y-74162501D01*
X110414999Y-69149997D02*
X110414999Y-69940001D01*
X96300000Y-61780000D02*
X102794999Y-68274999D01*
X102794999Y-68274999D02*
X109540001Y-68274999D01*
X109540001Y-68274999D02*
X110414999Y-69149997D01*
D18*
X186315000Y-44794057D02*
X186226920Y-44728359D01*
X185964099Y-44603175D01*
X185816890Y-44558524D01*
X185587000Y-44679845D01*
X185587000Y-45873000D01*
X185607000Y-45873000D01*
X185607000Y-46127000D01*
X185587000Y-46127000D01*
X185587000Y-47320155D01*
X185816890Y-47441476D01*
X185964099Y-47396825D01*
X186226920Y-47271641D01*
X186315000Y-47205943D01*
X186315001Y-134794058D01*
X186226920Y-134728359D01*
X185964099Y-134603175D01*
X185816890Y-134558524D01*
X185587000Y-134679845D01*
X185587000Y-135873000D01*
X185607000Y-135873000D01*
X185607000Y-136127000D01*
X185587000Y-136127000D01*
X185587000Y-137320155D01*
X185816890Y-137441476D01*
X185964099Y-137396825D01*
X186226920Y-137271641D01*
X186315001Y-137205942D01*
X186315001Y-138315000D01*
X85685000Y-138315000D01*
X85685000Y-137488072D01*
X87250000Y-137488072D01*
X87374482Y-137475812D01*
X87494180Y-137439502D01*
X87604494Y-137380537D01*
X87701185Y-137301185D01*
X87780537Y-137204494D01*
X87839502Y-137094180D01*
X87861513Y-137021620D01*
X87993368Y-137153475D01*
X88236589Y-137315990D01*
X88506842Y-137427932D01*
X88793740Y-137485000D01*
X89086260Y-137485000D01*
X89373158Y-137427932D01*
X89643411Y-137315990D01*
X89886632Y-137153475D01*
X90093475Y-136946632D01*
X90210000Y-136772240D01*
X90326525Y-136946632D01*
X90533368Y-137153475D01*
X90776589Y-137315990D01*
X91046842Y-137427932D01*
X91333740Y-137485000D01*
X91626260Y-137485000D01*
X91913158Y-137427932D01*
X92183411Y-137315990D01*
X92426632Y-137153475D01*
X92633475Y-136946632D01*
X92750000Y-136772240D01*
X92866525Y-136946632D01*
X93073368Y-137153475D01*
X93316589Y-137315990D01*
X93586842Y-137427932D01*
X93873740Y-137485000D01*
X94166260Y-137485000D01*
X94453158Y-137427932D01*
X94723411Y-137315990D01*
X94966632Y-137153475D01*
X95173475Y-136946632D01*
X95290000Y-136772240D01*
X95406525Y-136946632D01*
X95613368Y-137153475D01*
X95856589Y-137315990D01*
X96126842Y-137427932D01*
X96413740Y-137485000D01*
X96706260Y-137485000D01*
X96993158Y-137427932D01*
X97263411Y-137315990D01*
X97506632Y-137153475D01*
X97713475Y-136946632D01*
X97830000Y-136772240D01*
X97946525Y-136946632D01*
X98153368Y-137153475D01*
X98396589Y-137315990D01*
X98666842Y-137427932D01*
X98953740Y-137485000D01*
X99246260Y-137485000D01*
X99533158Y-137427932D01*
X99803411Y-137315990D01*
X100046632Y-137153475D01*
X100253475Y-136946632D01*
X100370000Y-136772240D01*
X100486525Y-136946632D01*
X100693368Y-137153475D01*
X100936589Y-137315990D01*
X101206842Y-137427932D01*
X101493740Y-137485000D01*
X101786260Y-137485000D01*
X102073158Y-137427932D01*
X102343411Y-137315990D01*
X102586632Y-137153475D01*
X102793475Y-136946632D01*
X102910000Y-136772240D01*
X103026525Y-136946632D01*
X103233368Y-137153475D01*
X103476589Y-137315990D01*
X103746842Y-137427932D01*
X104033740Y-137485000D01*
X104326260Y-137485000D01*
X104613158Y-137427932D01*
X104883411Y-137315990D01*
X105126632Y-137153475D01*
X105333475Y-136946632D01*
X105450000Y-136772240D01*
X105566525Y-136946632D01*
X105773368Y-137153475D01*
X106016589Y-137315990D01*
X106286842Y-137427932D01*
X106573740Y-137485000D01*
X106866260Y-137485000D01*
X107153158Y-137427932D01*
X107423411Y-137315990D01*
X107666632Y-137153475D01*
X107873475Y-136946632D01*
X107990000Y-136772240D01*
X108106525Y-136946632D01*
X108313368Y-137153475D01*
X108556589Y-137315990D01*
X108826842Y-137427932D01*
X109113740Y-137485000D01*
X109406260Y-137485000D01*
X109693158Y-137427932D01*
X109963411Y-137315990D01*
X110206632Y-137153475D01*
X110413475Y-136946632D01*
X110530000Y-136772240D01*
X110646525Y-136946632D01*
X110853368Y-137153475D01*
X111096589Y-137315990D01*
X111366842Y-137427932D01*
X111653740Y-137485000D01*
X111946260Y-137485000D01*
X112233158Y-137427932D01*
X112503411Y-137315990D01*
X112746632Y-137153475D01*
X112953475Y-136946632D01*
X113070000Y-136772240D01*
X113186525Y-136946632D01*
X113393368Y-137153475D01*
X113636589Y-137315990D01*
X113906842Y-137427932D01*
X114193740Y-137485000D01*
X114486260Y-137485000D01*
X114773158Y-137427932D01*
X115043411Y-137315990D01*
X115286632Y-137153475D01*
X115493475Y-136946632D01*
X115610000Y-136772240D01*
X115726525Y-136946632D01*
X115933368Y-137153475D01*
X116176589Y-137315990D01*
X116446842Y-137427932D01*
X116733740Y-137485000D01*
X117026260Y-137485000D01*
X117313158Y-137427932D01*
X117583411Y-137315990D01*
X117826632Y-137153475D01*
X118033475Y-136946632D01*
X118150000Y-136772240D01*
X118266525Y-136946632D01*
X118473368Y-137153475D01*
X118716589Y-137315990D01*
X118986842Y-137427932D01*
X119273740Y-137485000D01*
X119566260Y-137485000D01*
X119853158Y-137427932D01*
X120123411Y-137315990D01*
X120366632Y-137153475D01*
X120573475Y-136946632D01*
X120690000Y-136772240D01*
X120806525Y-136946632D01*
X121013368Y-137153475D01*
X121256589Y-137315990D01*
X121526842Y-137427932D01*
X121813740Y-137485000D01*
X122106260Y-137485000D01*
X122393158Y-137427932D01*
X122663411Y-137315990D01*
X122906632Y-137153475D01*
X123113475Y-136946632D01*
X123230000Y-136772240D01*
X123346525Y-136946632D01*
X123553368Y-137153475D01*
X123796589Y-137315990D01*
X124066842Y-137427932D01*
X124353740Y-137485000D01*
X124646260Y-137485000D01*
X124933158Y-137427932D01*
X125203411Y-137315990D01*
X125446632Y-137153475D01*
X125653475Y-136946632D01*
X125770000Y-136772240D01*
X125886525Y-136946632D01*
X126093368Y-137153475D01*
X126336589Y-137315990D01*
X126606842Y-137427932D01*
X126893740Y-137485000D01*
X127186260Y-137485000D01*
X127473158Y-137427932D01*
X127743411Y-137315990D01*
X127986632Y-137153475D01*
X128193475Y-136946632D01*
X128310000Y-136772240D01*
X128426525Y-136946632D01*
X128633368Y-137153475D01*
X128876589Y-137315990D01*
X129146842Y-137427932D01*
X129433740Y-137485000D01*
X129726260Y-137485000D01*
X130013158Y-137427932D01*
X130283411Y-137315990D01*
X130526632Y-137153475D01*
X130733475Y-136946632D01*
X130850000Y-136772240D01*
X130966525Y-136946632D01*
X131173368Y-137153475D01*
X131416589Y-137315990D01*
X131686842Y-137427932D01*
X131973740Y-137485000D01*
X132266260Y-137485000D01*
X132553158Y-137427932D01*
X132823411Y-137315990D01*
X133066632Y-137153475D01*
X133273475Y-136946632D01*
X133390000Y-136772240D01*
X133506525Y-136946632D01*
X133713368Y-137153475D01*
X133956589Y-137315990D01*
X134226842Y-137427932D01*
X134513740Y-137485000D01*
X134806260Y-137485000D01*
X135093158Y-137427932D01*
X135363411Y-137315990D01*
X135606632Y-137153475D01*
X135813475Y-136946632D01*
X135930000Y-136772240D01*
X136046525Y-136946632D01*
X136253368Y-137153475D01*
X136496589Y-137315990D01*
X136766842Y-137427932D01*
X137053740Y-137485000D01*
X137346260Y-137485000D01*
X137633158Y-137427932D01*
X137903411Y-137315990D01*
X138146632Y-137153475D01*
X138353475Y-136946632D01*
X138470000Y-136772240D01*
X138586525Y-136946632D01*
X138793368Y-137153475D01*
X139036589Y-137315990D01*
X139306842Y-137427932D01*
X139593740Y-137485000D01*
X139886260Y-137485000D01*
X140173158Y-137427932D01*
X140443411Y-137315990D01*
X140686632Y-137153475D01*
X140893475Y-136946632D01*
X141010000Y-136772240D01*
X141126525Y-136946632D01*
X141333368Y-137153475D01*
X141576589Y-137315990D01*
X141846842Y-137427932D01*
X142133740Y-137485000D01*
X142426260Y-137485000D01*
X142713158Y-137427932D01*
X142983411Y-137315990D01*
X143226632Y-137153475D01*
X143433475Y-136946632D01*
X143550000Y-136772240D01*
X143666525Y-136946632D01*
X143873368Y-137153475D01*
X144116589Y-137315990D01*
X144386842Y-137427932D01*
X144673740Y-137485000D01*
X144966260Y-137485000D01*
X145253158Y-137427932D01*
X145523411Y-137315990D01*
X145766632Y-137153475D01*
X145973475Y-136946632D01*
X146090000Y-136772240D01*
X146206525Y-136946632D01*
X146413368Y-137153475D01*
X146656589Y-137315990D01*
X146926842Y-137427932D01*
X147213740Y-137485000D01*
X147506260Y-137485000D01*
X147793158Y-137427932D01*
X148063411Y-137315990D01*
X148306632Y-137153475D01*
X148513475Y-136946632D01*
X148630000Y-136772240D01*
X148746525Y-136946632D01*
X148953368Y-137153475D01*
X149196589Y-137315990D01*
X149466842Y-137427932D01*
X149753740Y-137485000D01*
X150046260Y-137485000D01*
X150333158Y-137427932D01*
X150603411Y-137315990D01*
X150846632Y-137153475D01*
X151053475Y-136946632D01*
X151170000Y-136772240D01*
X151286525Y-136946632D01*
X151493368Y-137153475D01*
X151736589Y-137315990D01*
X152006842Y-137427932D01*
X152293740Y-137485000D01*
X152586260Y-137485000D01*
X152873158Y-137427932D01*
X153143411Y-137315990D01*
X153386632Y-137153475D01*
X153593475Y-136946632D01*
X153710000Y-136772240D01*
X153826525Y-136946632D01*
X154033368Y-137153475D01*
X154276589Y-137315990D01*
X154546842Y-137427932D01*
X154833740Y-137485000D01*
X155126260Y-137485000D01*
X155413158Y-137427932D01*
X155683411Y-137315990D01*
X155926632Y-137153475D01*
X156133475Y-136946632D01*
X156250000Y-136772240D01*
X156366525Y-136946632D01*
X156573368Y-137153475D01*
X156816589Y-137315990D01*
X157086842Y-137427932D01*
X157373740Y-137485000D01*
X157666260Y-137485000D01*
X157953158Y-137427932D01*
X158223411Y-137315990D01*
X158466632Y-137153475D01*
X158673475Y-136946632D01*
X158790000Y-136772240D01*
X158906525Y-136946632D01*
X159113368Y-137153475D01*
X159356589Y-137315990D01*
X159626842Y-137427932D01*
X159913740Y-137485000D01*
X160206260Y-137485000D01*
X160493158Y-137427932D01*
X160763411Y-137315990D01*
X161006632Y-137153475D01*
X161213475Y-136946632D01*
X161330000Y-136772240D01*
X161446525Y-136946632D01*
X161653368Y-137153475D01*
X161896589Y-137315990D01*
X162166842Y-137427932D01*
X162453740Y-137485000D01*
X162746260Y-137485000D01*
X163033158Y-137427932D01*
X163303411Y-137315990D01*
X163546632Y-137153475D01*
X163753475Y-136946632D01*
X163870000Y-136772240D01*
X163986525Y-136946632D01*
X164193368Y-137153475D01*
X164436589Y-137315990D01*
X164706842Y-137427932D01*
X164993740Y-137485000D01*
X165286260Y-137485000D01*
X165573158Y-137427932D01*
X165843411Y-137315990D01*
X166086632Y-137153475D01*
X166293475Y-136946632D01*
X166410000Y-136772240D01*
X166526525Y-136946632D01*
X166733368Y-137153475D01*
X166976589Y-137315990D01*
X167246842Y-137427932D01*
X167533740Y-137485000D01*
X167826260Y-137485000D01*
X168113158Y-137427932D01*
X168383411Y-137315990D01*
X168626632Y-137153475D01*
X168833475Y-136946632D01*
X168950000Y-136772240D01*
X169066525Y-136946632D01*
X169273368Y-137153475D01*
X169516589Y-137315990D01*
X169786842Y-137427932D01*
X170073740Y-137485000D01*
X170366260Y-137485000D01*
X170653158Y-137427932D01*
X170923411Y-137315990D01*
X171166632Y-137153475D01*
X171373475Y-136946632D01*
X171490000Y-136772240D01*
X171606525Y-136946632D01*
X171813368Y-137153475D01*
X172056589Y-137315990D01*
X172326842Y-137427932D01*
X172613740Y-137485000D01*
X172906260Y-137485000D01*
X173193158Y-137427932D01*
X173463411Y-137315990D01*
X173706632Y-137153475D01*
X173913475Y-136946632D01*
X174030000Y-136772240D01*
X174146525Y-136946632D01*
X174353368Y-137153475D01*
X174596589Y-137315990D01*
X174866842Y-137427932D01*
X175153740Y-137485000D01*
X175446260Y-137485000D01*
X175733158Y-137427932D01*
X176003411Y-137315990D01*
X176246632Y-137153475D01*
X176453475Y-136946632D01*
X176570000Y-136772240D01*
X176686525Y-136946632D01*
X176893368Y-137153475D01*
X177136589Y-137315990D01*
X177406842Y-137427932D01*
X177693740Y-137485000D01*
X177986260Y-137485000D01*
X178273158Y-137427932D01*
X178543411Y-137315990D01*
X178786632Y-137153475D01*
X178993475Y-136946632D01*
X179110000Y-136772240D01*
X179226525Y-136946632D01*
X179433368Y-137153475D01*
X179676589Y-137315990D01*
X179946842Y-137427932D01*
X180233740Y-137485000D01*
X180526260Y-137485000D01*
X180813158Y-137427932D01*
X181083411Y-137315990D01*
X181326632Y-137153475D01*
X181533475Y-136946632D01*
X181650000Y-136772240D01*
X181766525Y-136946632D01*
X181973368Y-137153475D01*
X182216589Y-137315990D01*
X182486842Y-137427932D01*
X182773740Y-137485000D01*
X183066260Y-137485000D01*
X183353158Y-137427932D01*
X183623411Y-137315990D01*
X183866632Y-137153475D01*
X184073475Y-136946632D01*
X184195195Y-136764466D01*
X184264822Y-136881355D01*
X184459731Y-137097588D01*
X184693080Y-137271641D01*
X184955901Y-137396825D01*
X185103110Y-137441476D01*
X185333000Y-137320155D01*
X185333000Y-136127000D01*
X185313000Y-136127000D01*
X185313000Y-135873000D01*
X185333000Y-135873000D01*
X185333000Y-134679845D01*
X185103110Y-134558524D01*
X184955901Y-134603175D01*
X184693080Y-134728359D01*
X184459731Y-134902412D01*
X184264822Y-135118645D01*
X184195195Y-135235534D01*
X184073475Y-135053368D01*
X183866632Y-134846525D01*
X183623411Y-134684010D01*
X183353158Y-134572068D01*
X183066260Y-134515000D01*
X182773740Y-134515000D01*
X182486842Y-134572068D01*
X182216589Y-134684010D01*
X181973368Y-134846525D01*
X181766525Y-135053368D01*
X181650000Y-135227760D01*
X181533475Y-135053368D01*
X181326632Y-134846525D01*
X181083411Y-134684010D01*
X180813158Y-134572068D01*
X180526260Y-134515000D01*
X180233740Y-134515000D01*
X179946842Y-134572068D01*
X179676589Y-134684010D01*
X179433368Y-134846525D01*
X179226525Y-135053368D01*
X179110000Y-135227760D01*
X178993475Y-135053368D01*
X178786632Y-134846525D01*
X178543411Y-134684010D01*
X178273158Y-134572068D01*
X177986260Y-134515000D01*
X177693740Y-134515000D01*
X177406842Y-134572068D01*
X177136589Y-134684010D01*
X176893368Y-134846525D01*
X176686525Y-135053368D01*
X176570000Y-135227760D01*
X176453475Y-135053368D01*
X176246632Y-134846525D01*
X176003411Y-134684010D01*
X175733158Y-134572068D01*
X175446260Y-134515000D01*
X175153740Y-134515000D01*
X174866842Y-134572068D01*
X174596589Y-134684010D01*
X174353368Y-134846525D01*
X174146525Y-135053368D01*
X174030000Y-135227760D01*
X173913475Y-135053368D01*
X173706632Y-134846525D01*
X173463411Y-134684010D01*
X173193158Y-134572068D01*
X172906260Y-134515000D01*
X172613740Y-134515000D01*
X172326842Y-134572068D01*
X172056589Y-134684010D01*
X171813368Y-134846525D01*
X171606525Y-135053368D01*
X171490000Y-135227760D01*
X171373475Y-135053368D01*
X171166632Y-134846525D01*
X170923411Y-134684010D01*
X170653158Y-134572068D01*
X170366260Y-134515000D01*
X170073740Y-134515000D01*
X169786842Y-134572068D01*
X169516589Y-134684010D01*
X169273368Y-134846525D01*
X169066525Y-135053368D01*
X168950000Y-135227760D01*
X168833475Y-135053368D01*
X168626632Y-134846525D01*
X168383411Y-134684010D01*
X168113158Y-134572068D01*
X167826260Y-134515000D01*
X167533740Y-134515000D01*
X167246842Y-134572068D01*
X166976589Y-134684010D01*
X166733368Y-134846525D01*
X166526525Y-135053368D01*
X166410000Y-135227760D01*
X166293475Y-135053368D01*
X166086632Y-134846525D01*
X165843411Y-134684010D01*
X165573158Y-134572068D01*
X165286260Y-134515000D01*
X164993740Y-134515000D01*
X164706842Y-134572068D01*
X164436589Y-134684010D01*
X164193368Y-134846525D01*
X163986525Y-135053368D01*
X163870000Y-135227760D01*
X163753475Y-135053368D01*
X163546632Y-134846525D01*
X163303411Y-134684010D01*
X163033158Y-134572068D01*
X162746260Y-134515000D01*
X162453740Y-134515000D01*
X162166842Y-134572068D01*
X161896589Y-134684010D01*
X161653368Y-134846525D01*
X161446525Y-135053368D01*
X161330000Y-135227760D01*
X161213475Y-135053368D01*
X161006632Y-134846525D01*
X160763411Y-134684010D01*
X160493158Y-134572068D01*
X160206260Y-134515000D01*
X159913740Y-134515000D01*
X159626842Y-134572068D01*
X159356589Y-134684010D01*
X159113368Y-134846525D01*
X158906525Y-135053368D01*
X158790000Y-135227760D01*
X158673475Y-135053368D01*
X158466632Y-134846525D01*
X158223411Y-134684010D01*
X157953158Y-134572068D01*
X157666260Y-134515000D01*
X157373740Y-134515000D01*
X157086842Y-134572068D01*
X156816589Y-134684010D01*
X156573368Y-134846525D01*
X156366525Y-135053368D01*
X156250000Y-135227760D01*
X156133475Y-135053368D01*
X155926632Y-134846525D01*
X155683411Y-134684010D01*
X155413158Y-134572068D01*
X155126260Y-134515000D01*
X154833740Y-134515000D01*
X154546842Y-134572068D01*
X154276589Y-134684010D01*
X154033368Y-134846525D01*
X153826525Y-135053368D01*
X153710000Y-135227760D01*
X153593475Y-135053368D01*
X153386632Y-134846525D01*
X153143411Y-134684010D01*
X152873158Y-134572068D01*
X152586260Y-134515000D01*
X152293740Y-134515000D01*
X152006842Y-134572068D01*
X151736589Y-134684010D01*
X151493368Y-134846525D01*
X151286525Y-135053368D01*
X151170000Y-135227760D01*
X151053475Y-135053368D01*
X150846632Y-134846525D01*
X150603411Y-134684010D01*
X150333158Y-134572068D01*
X150046260Y-134515000D01*
X149753740Y-134515000D01*
X149466842Y-134572068D01*
X149196589Y-134684010D01*
X148953368Y-134846525D01*
X148746525Y-135053368D01*
X148630000Y-135227760D01*
X148513475Y-135053368D01*
X148306632Y-134846525D01*
X148063411Y-134684010D01*
X147793158Y-134572068D01*
X147506260Y-134515000D01*
X147213740Y-134515000D01*
X146926842Y-134572068D01*
X146656589Y-134684010D01*
X146413368Y-134846525D01*
X146206525Y-135053368D01*
X146090000Y-135227760D01*
X145973475Y-135053368D01*
X145766632Y-134846525D01*
X145523411Y-134684010D01*
X145253158Y-134572068D01*
X144966260Y-134515000D01*
X144673740Y-134515000D01*
X144386842Y-134572068D01*
X144116589Y-134684010D01*
X143873368Y-134846525D01*
X143666525Y-135053368D01*
X143550000Y-135227760D01*
X143433475Y-135053368D01*
X143226632Y-134846525D01*
X142983411Y-134684010D01*
X142713158Y-134572068D01*
X142426260Y-134515000D01*
X142133740Y-134515000D01*
X141846842Y-134572068D01*
X141576589Y-134684010D01*
X141333368Y-134846525D01*
X141126525Y-135053368D01*
X141010000Y-135227760D01*
X140893475Y-135053368D01*
X140686632Y-134846525D01*
X140443411Y-134684010D01*
X140173158Y-134572068D01*
X139886260Y-134515000D01*
X139593740Y-134515000D01*
X139306842Y-134572068D01*
X139036589Y-134684010D01*
X138793368Y-134846525D01*
X138586525Y-135053368D01*
X138470000Y-135227760D01*
X138353475Y-135053368D01*
X138146632Y-134846525D01*
X137903411Y-134684010D01*
X137633158Y-134572068D01*
X137346260Y-134515000D01*
X137053740Y-134515000D01*
X136766842Y-134572068D01*
X136496589Y-134684010D01*
X136253368Y-134846525D01*
X136046525Y-135053368D01*
X135930000Y-135227760D01*
X135813475Y-135053368D01*
X135606632Y-134846525D01*
X135363411Y-134684010D01*
X135093158Y-134572068D01*
X134806260Y-134515000D01*
X134513740Y-134515000D01*
X134226842Y-134572068D01*
X133956589Y-134684010D01*
X133713368Y-134846525D01*
X133506525Y-135053368D01*
X133390000Y-135227760D01*
X133273475Y-135053368D01*
X133066632Y-134846525D01*
X132823411Y-134684010D01*
X132553158Y-134572068D01*
X132266260Y-134515000D01*
X131973740Y-134515000D01*
X131686842Y-134572068D01*
X131416589Y-134684010D01*
X131173368Y-134846525D01*
X130966525Y-135053368D01*
X130850000Y-135227760D01*
X130733475Y-135053368D01*
X130526632Y-134846525D01*
X130283411Y-134684010D01*
X130013158Y-134572068D01*
X129726260Y-134515000D01*
X129433740Y-134515000D01*
X129146842Y-134572068D01*
X128876589Y-134684010D01*
X128633368Y-134846525D01*
X128426525Y-135053368D01*
X128310000Y-135227760D01*
X128193475Y-135053368D01*
X127986632Y-134846525D01*
X127743411Y-134684010D01*
X127473158Y-134572068D01*
X127186260Y-134515000D01*
X126893740Y-134515000D01*
X126606842Y-134572068D01*
X126336589Y-134684010D01*
X126093368Y-134846525D01*
X125886525Y-135053368D01*
X125770000Y-135227760D01*
X125653475Y-135053368D01*
X125446632Y-134846525D01*
X125203411Y-134684010D01*
X124933158Y-134572068D01*
X124646260Y-134515000D01*
X124353740Y-134515000D01*
X124066842Y-134572068D01*
X123796589Y-134684010D01*
X123553368Y-134846525D01*
X123346525Y-135053368D01*
X123230000Y-135227760D01*
X123113475Y-135053368D01*
X122906632Y-134846525D01*
X122663411Y-134684010D01*
X122393158Y-134572068D01*
X122106260Y-134515000D01*
X121813740Y-134515000D01*
X121526842Y-134572068D01*
X121256589Y-134684010D01*
X121013368Y-134846525D01*
X120806525Y-135053368D01*
X120690000Y-135227760D01*
X120573475Y-135053368D01*
X120366632Y-134846525D01*
X120123411Y-134684010D01*
X119853158Y-134572068D01*
X119566260Y-134515000D01*
X119273740Y-134515000D01*
X118986842Y-134572068D01*
X118716589Y-134684010D01*
X118473368Y-134846525D01*
X118266525Y-135053368D01*
X118150000Y-135227760D01*
X118033475Y-135053368D01*
X117826632Y-134846525D01*
X117583411Y-134684010D01*
X117313158Y-134572068D01*
X117026260Y-134515000D01*
X116733740Y-134515000D01*
X116446842Y-134572068D01*
X116176589Y-134684010D01*
X115933368Y-134846525D01*
X115726525Y-135053368D01*
X115610000Y-135227760D01*
X115493475Y-135053368D01*
X115286632Y-134846525D01*
X115043411Y-134684010D01*
X114773158Y-134572068D01*
X114486260Y-134515000D01*
X114193740Y-134515000D01*
X113906842Y-134572068D01*
X113636589Y-134684010D01*
X113393368Y-134846525D01*
X113186525Y-135053368D01*
X113070000Y-135227760D01*
X112953475Y-135053368D01*
X112746632Y-134846525D01*
X112503411Y-134684010D01*
X112233158Y-134572068D01*
X111946260Y-134515000D01*
X111653740Y-134515000D01*
X111366842Y-134572068D01*
X111096589Y-134684010D01*
X110853368Y-134846525D01*
X110646525Y-135053368D01*
X110530000Y-135227760D01*
X110413475Y-135053368D01*
X110206632Y-134846525D01*
X109963411Y-134684010D01*
X109693158Y-134572068D01*
X109406260Y-134515000D01*
X109113740Y-134515000D01*
X108826842Y-134572068D01*
X108556589Y-134684010D01*
X108313368Y-134846525D01*
X108106525Y-135053368D01*
X107990000Y-135227760D01*
X107873475Y-135053368D01*
X107666632Y-134846525D01*
X107423411Y-134684010D01*
X107153158Y-134572068D01*
X106866260Y-134515000D01*
X106573740Y-134515000D01*
X106286842Y-134572068D01*
X106016589Y-134684010D01*
X105773368Y-134846525D01*
X105566525Y-135053368D01*
X105450000Y-135227760D01*
X105333475Y-135053368D01*
X105126632Y-134846525D01*
X104883411Y-134684010D01*
X104613158Y-134572068D01*
X104326260Y-134515000D01*
X104033740Y-134515000D01*
X103746842Y-134572068D01*
X103476589Y-134684010D01*
X103233368Y-134846525D01*
X103026525Y-135053368D01*
X102910000Y-135227760D01*
X102793475Y-135053368D01*
X102586632Y-134846525D01*
X102343411Y-134684010D01*
X102073158Y-134572068D01*
X101786260Y-134515000D01*
X101493740Y-134515000D01*
X101206842Y-134572068D01*
X100936589Y-134684010D01*
X100693368Y-134846525D01*
X100486525Y-135053368D01*
X100370000Y-135227760D01*
X100253475Y-135053368D01*
X100046632Y-134846525D01*
X99803411Y-134684010D01*
X99533158Y-134572068D01*
X99246260Y-134515000D01*
X98953740Y-134515000D01*
X98666842Y-134572068D01*
X98396589Y-134684010D01*
X98153368Y-134846525D01*
X97946525Y-135053368D01*
X97830000Y-135227760D01*
X97713475Y-135053368D01*
X97506632Y-134846525D01*
X97263411Y-134684010D01*
X96993158Y-134572068D01*
X96706260Y-134515000D01*
X96413740Y-134515000D01*
X96126842Y-134572068D01*
X95856589Y-134684010D01*
X95613368Y-134846525D01*
X95406525Y-135053368D01*
X95290000Y-135227760D01*
X95173475Y-135053368D01*
X94966632Y-134846525D01*
X94723411Y-134684010D01*
X94453158Y-134572068D01*
X94166260Y-134515000D01*
X93873740Y-134515000D01*
X93586842Y-134572068D01*
X93316589Y-134684010D01*
X93073368Y-134846525D01*
X92866525Y-135053368D01*
X92750000Y-135227760D01*
X92633475Y-135053368D01*
X92426632Y-134846525D01*
X92183411Y-134684010D01*
X91913158Y-134572068D01*
X91626260Y-134515000D01*
X91333740Y-134515000D01*
X91046842Y-134572068D01*
X90776589Y-134684010D01*
X90533368Y-134846525D01*
X90326525Y-135053368D01*
X90210000Y-135227760D01*
X90093475Y-135053368D01*
X89886632Y-134846525D01*
X89643411Y-134684010D01*
X89373158Y-134572068D01*
X89086260Y-134515000D01*
X88793740Y-134515000D01*
X88506842Y-134572068D01*
X88236589Y-134684010D01*
X87993368Y-134846525D01*
X87861513Y-134978380D01*
X87839502Y-134905820D01*
X87780537Y-134795506D01*
X87701185Y-134698815D01*
X87604494Y-134619463D01*
X87494180Y-134560498D01*
X87374482Y-134524188D01*
X87250000Y-134511928D01*
X85685000Y-134511928D01*
X85685000Y-95350000D01*
X91711928Y-95350000D01*
X91711928Y-97050000D01*
X91724188Y-97174482D01*
X91760498Y-97294180D01*
X91819463Y-97404494D01*
X91898815Y-97501185D01*
X91995506Y-97580537D01*
X92105820Y-97639502D01*
X92178380Y-97661513D01*
X92046525Y-97793368D01*
X91884010Y-98036589D01*
X91772068Y-98306842D01*
X91715000Y-98593740D01*
X91715000Y-98886260D01*
X91772068Y-99173158D01*
X91884010Y-99443411D01*
X92046525Y-99686632D01*
X92253368Y-99893475D01*
X92496589Y-100055990D01*
X92766842Y-100167932D01*
X93053740Y-100225000D01*
X93346260Y-100225000D01*
X93633158Y-100167932D01*
X93903411Y-100055990D01*
X94146632Y-99893475D01*
X94353475Y-99686632D01*
X94515990Y-99443411D01*
X94627932Y-99173158D01*
X94685000Y-98886260D01*
X94685000Y-98593740D01*
X94627932Y-98306842D01*
X94515990Y-98036589D01*
X94353475Y-97793368D01*
X94221620Y-97661513D01*
X94294180Y-97639502D01*
X94404494Y-97580537D01*
X94501185Y-97501185D01*
X94580537Y-97404494D01*
X94639502Y-97294180D01*
X94675812Y-97174482D01*
X94688072Y-97050000D01*
X94688072Y-95350000D01*
X94675812Y-95225518D01*
X94639502Y-95105820D01*
X94580537Y-94995506D01*
X94501185Y-94898815D01*
X94404494Y-94819463D01*
X94294180Y-94760498D01*
X94174482Y-94724188D01*
X94050000Y-94711928D01*
X92350000Y-94711928D01*
X92225518Y-94724188D01*
X92105820Y-94760498D01*
X91995506Y-94819463D01*
X91898815Y-94898815D01*
X91819463Y-94995506D01*
X91760498Y-95105820D01*
X91724188Y-95225518D01*
X91711928Y-95350000D01*
X85685000Y-95350000D01*
X85685000Y-77350000D01*
X91811928Y-77350000D01*
X91811928Y-79050000D01*
X91824188Y-79174482D01*
X91860498Y-79294180D01*
X91919463Y-79404494D01*
X91998815Y-79501185D01*
X92095506Y-79580537D01*
X92205820Y-79639502D01*
X92278380Y-79661513D01*
X92146525Y-79793368D01*
X91984010Y-80036589D01*
X91872068Y-80306842D01*
X91815000Y-80593740D01*
X91815000Y-80886260D01*
X91872068Y-81173158D01*
X91984010Y-81443411D01*
X92146525Y-81686632D01*
X92353368Y-81893475D01*
X92527760Y-82010000D01*
X92353368Y-82126525D01*
X92146525Y-82333368D01*
X91984010Y-82576589D01*
X91872068Y-82846842D01*
X91815000Y-83133740D01*
X91815000Y-83426260D01*
X91872068Y-83713158D01*
X91984010Y-83983411D01*
X92146525Y-84226632D01*
X92353368Y-84433475D01*
X92596589Y-84595990D01*
X92866842Y-84707932D01*
X93153740Y-84765000D01*
X93446260Y-84765000D01*
X93733158Y-84707932D01*
X94003411Y-84595990D01*
X94246632Y-84433475D01*
X94453475Y-84226632D01*
X94570000Y-84052240D01*
X94686525Y-84226632D01*
X94893368Y-84433475D01*
X95136589Y-84595990D01*
X95406842Y-84707932D01*
X95693740Y-84765000D01*
X95986260Y-84765000D01*
X96273158Y-84707932D01*
X96543411Y-84595990D01*
X96786632Y-84433475D01*
X96993475Y-84226632D01*
X97155990Y-83983411D01*
X97267932Y-83713158D01*
X97325000Y-83426260D01*
X97325000Y-83133740D01*
X97267932Y-82846842D01*
X97155990Y-82576589D01*
X96993475Y-82333368D01*
X96786632Y-82126525D01*
X96612240Y-82010000D01*
X96786632Y-81893475D01*
X96993475Y-81686632D01*
X97155990Y-81443411D01*
X97267932Y-81173158D01*
X97325000Y-80886260D01*
X97325000Y-80593740D01*
X97267932Y-80306842D01*
X97155990Y-80036589D01*
X96993475Y-79793368D01*
X96786632Y-79586525D01*
X96604466Y-79464805D01*
X96721355Y-79395178D01*
X96937588Y-79200269D01*
X97111641Y-78966920D01*
X97236825Y-78704099D01*
X97281476Y-78556890D01*
X97160155Y-78327000D01*
X95967000Y-78327000D01*
X95967000Y-78347000D01*
X95713000Y-78347000D01*
X95713000Y-78327000D01*
X95693000Y-78327000D01*
X95693000Y-78073000D01*
X95713000Y-78073000D01*
X95713000Y-76879186D01*
X95967000Y-76879186D01*
X95967000Y-78073000D01*
X97160155Y-78073000D01*
X97281476Y-77843110D01*
X97236825Y-77695901D01*
X97111641Y-77433080D01*
X96937588Y-77199731D01*
X96721355Y-77004822D01*
X96471252Y-76855843D01*
X96196891Y-76758519D01*
X95967000Y-76879186D01*
X95713000Y-76879186D01*
X95483109Y-76758519D01*
X95208748Y-76855843D01*
X94958645Y-77004822D01*
X94762498Y-77181626D01*
X94739502Y-77105820D01*
X94680537Y-76995506D01*
X94601185Y-76898815D01*
X94504494Y-76819463D01*
X94394180Y-76760498D01*
X94274482Y-76724188D01*
X94150000Y-76711928D01*
X92450000Y-76711928D01*
X92325518Y-76724188D01*
X92205820Y-76760498D01*
X92095506Y-76819463D01*
X91998815Y-76898815D01*
X91919463Y-76995506D01*
X91860498Y-77105820D01*
X91824188Y-77225518D01*
X91811928Y-77350000D01*
X85685000Y-77350000D01*
X85685000Y-47488072D01*
X87250000Y-47488072D01*
X87374482Y-47475812D01*
X87494180Y-47439502D01*
X87604494Y-47380537D01*
X87701185Y-47301185D01*
X87780537Y-47204494D01*
X87839502Y-47094180D01*
X87861513Y-47021620D01*
X87993368Y-47153475D01*
X88236589Y-47315990D01*
X88506842Y-47427932D01*
X88793740Y-47485000D01*
X89086260Y-47485000D01*
X89373158Y-47427932D01*
X89643411Y-47315990D01*
X89886632Y-47153475D01*
X90093475Y-46946632D01*
X90210000Y-46772240D01*
X90326525Y-46946632D01*
X90533368Y-47153475D01*
X90776589Y-47315990D01*
X91046842Y-47427932D01*
X91333740Y-47485000D01*
X91626260Y-47485000D01*
X91913158Y-47427932D01*
X92084999Y-47356753D01*
X92085000Y-65907666D01*
X92081323Y-65944999D01*
X92095997Y-66093984D01*
X92139453Y-66237245D01*
X92210025Y-66369275D01*
X92281200Y-66456001D01*
X92304999Y-66485000D01*
X92333997Y-66508798D01*
X94861928Y-69036730D01*
X94861928Y-70200000D01*
X94874188Y-70324482D01*
X94910498Y-70444180D01*
X94969463Y-70554494D01*
X95048815Y-70651185D01*
X95145506Y-70730537D01*
X95255820Y-70789502D01*
X95375518Y-70825812D01*
X95500000Y-70838072D01*
X97100000Y-70838072D01*
X97224482Y-70825812D01*
X97344180Y-70789502D01*
X97454494Y-70730537D01*
X97551185Y-70651185D01*
X97630537Y-70554494D01*
X97689502Y-70444180D01*
X97725812Y-70324482D01*
X97726643Y-70316039D01*
X97925241Y-70514637D01*
X98160273Y-70671680D01*
X98421426Y-70779853D01*
X98698665Y-70835000D01*
X98981335Y-70835000D01*
X99163887Y-70798688D01*
X115240000Y-86874802D01*
X115240001Y-117835184D01*
X115073368Y-117946525D01*
X114866525Y-118153368D01*
X114750000Y-118327760D01*
X114633475Y-118153368D01*
X114426632Y-117946525D01*
X114183411Y-117784010D01*
X113913158Y-117672068D01*
X113626260Y-117615000D01*
X113333740Y-117615000D01*
X113046842Y-117672068D01*
X112776589Y-117784010D01*
X112533368Y-117946525D01*
X112326525Y-118153368D01*
X112210000Y-118327760D01*
X112093475Y-118153368D01*
X111886632Y-117946525D01*
X111643411Y-117784010D01*
X111373158Y-117672068D01*
X111086260Y-117615000D01*
X110793740Y-117615000D01*
X110506842Y-117672068D01*
X110236589Y-117784010D01*
X109993368Y-117946525D01*
X109786525Y-118153368D01*
X109670000Y-118327760D01*
X109553475Y-118153368D01*
X109346632Y-117946525D01*
X109103411Y-117784010D01*
X108833158Y-117672068D01*
X108546260Y-117615000D01*
X108253740Y-117615000D01*
X107966842Y-117672068D01*
X107696589Y-117784010D01*
X107453368Y-117946525D01*
X107321513Y-118078380D01*
X107299502Y-118005820D01*
X107240537Y-117895506D01*
X107161185Y-117798815D01*
X107064494Y-117719463D01*
X106954180Y-117660498D01*
X106834482Y-117624188D01*
X106710000Y-117611928D01*
X105010000Y-117611928D01*
X104885518Y-117624188D01*
X104765820Y-117660498D01*
X104655506Y-117719463D01*
X104558815Y-117798815D01*
X104479463Y-117895506D01*
X104420498Y-118005820D01*
X104384188Y-118125518D01*
X104371928Y-118250000D01*
X104371928Y-119950000D01*
X104384188Y-120074482D01*
X104420498Y-120194180D01*
X104479463Y-120304494D01*
X104558815Y-120401185D01*
X104655506Y-120480537D01*
X104765820Y-120539502D01*
X104885518Y-120575812D01*
X105010000Y-120588072D01*
X106710000Y-120588072D01*
X106834482Y-120575812D01*
X106954180Y-120539502D01*
X107064494Y-120480537D01*
X107161185Y-120401185D01*
X107240537Y-120304494D01*
X107299502Y-120194180D01*
X107321513Y-120121620D01*
X107453368Y-120253475D01*
X107696589Y-120415990D01*
X107966842Y-120527932D01*
X108253740Y-120585000D01*
X108546260Y-120585000D01*
X108833158Y-120527932D01*
X109103411Y-120415990D01*
X109346632Y-120253475D01*
X109553475Y-120046632D01*
X109670000Y-119872240D01*
X109786525Y-120046632D01*
X109993368Y-120253475D01*
X110236589Y-120415990D01*
X110506842Y-120527932D01*
X110793740Y-120585000D01*
X111086260Y-120585000D01*
X111373158Y-120527932D01*
X111643411Y-120415990D01*
X111886632Y-120253475D01*
X112093475Y-120046632D01*
X112210000Y-119872240D01*
X112326525Y-120046632D01*
X112533368Y-120253475D01*
X112776589Y-120415990D01*
X113046842Y-120527932D01*
X113333740Y-120585000D01*
X113626260Y-120585000D01*
X113913158Y-120527932D01*
X114183411Y-120415990D01*
X114426632Y-120253475D01*
X114633475Y-120046632D01*
X114750000Y-119872240D01*
X114866525Y-120046632D01*
X115073368Y-120253475D01*
X115316589Y-120415990D01*
X115586842Y-120527932D01*
X115873740Y-120585000D01*
X116166260Y-120585000D01*
X116453158Y-120527932D01*
X116723411Y-120415990D01*
X116966632Y-120253475D01*
X117173475Y-120046632D01*
X117290000Y-119872240D01*
X117406525Y-120046632D01*
X117613368Y-120253475D01*
X117856589Y-120415990D01*
X118126842Y-120527932D01*
X118413740Y-120585000D01*
X118706260Y-120585000D01*
X118993158Y-120527932D01*
X119263411Y-120415990D01*
X119506632Y-120253475D01*
X119713475Y-120046632D01*
X119830000Y-119872240D01*
X119946525Y-120046632D01*
X120153368Y-120253475D01*
X120396589Y-120415990D01*
X120666842Y-120527932D01*
X120953740Y-120585000D01*
X121246260Y-120585000D01*
X121533158Y-120527932D01*
X121803411Y-120415990D01*
X122046632Y-120253475D01*
X122253475Y-120046632D01*
X122370000Y-119872240D01*
X122486525Y-120046632D01*
X122693368Y-120253475D01*
X122936589Y-120415990D01*
X123206842Y-120527932D01*
X123493740Y-120585000D01*
X123786260Y-120585000D01*
X124073158Y-120527932D01*
X124343411Y-120415990D01*
X124586632Y-120253475D01*
X124793475Y-120046632D01*
X124910000Y-119872240D01*
X125026525Y-120046632D01*
X125233368Y-120253475D01*
X125476589Y-120415990D01*
X125746842Y-120527932D01*
X126033740Y-120585000D01*
X126326260Y-120585000D01*
X126613158Y-120527932D01*
X126883411Y-120415990D01*
X127126632Y-120253475D01*
X127333475Y-120046632D01*
X127450000Y-119872240D01*
X127566525Y-120046632D01*
X127773368Y-120253475D01*
X128016589Y-120415990D01*
X128286842Y-120527932D01*
X128573740Y-120585000D01*
X128866260Y-120585000D01*
X129153158Y-120527932D01*
X129423411Y-120415990D01*
X129666632Y-120253475D01*
X129873475Y-120046632D01*
X129990000Y-119872240D01*
X130106525Y-120046632D01*
X130313368Y-120253475D01*
X130556589Y-120415990D01*
X130826842Y-120527932D01*
X131113740Y-120585000D01*
X131406260Y-120585000D01*
X131693158Y-120527932D01*
X131963411Y-120415990D01*
X132206632Y-120253475D01*
X132413475Y-120046632D01*
X132530000Y-119872240D01*
X132646525Y-120046632D01*
X132853368Y-120253475D01*
X133096589Y-120415990D01*
X133366842Y-120527932D01*
X133653740Y-120585000D01*
X133946260Y-120585000D01*
X134233158Y-120527932D01*
X134503411Y-120415990D01*
X134746632Y-120253475D01*
X134953475Y-120046632D01*
X135115990Y-119803411D01*
X135227932Y-119533158D01*
X135285000Y-119246260D01*
X135285000Y-118953740D01*
X135227932Y-118666842D01*
X135115990Y-118396589D01*
X134953475Y-118153368D01*
X134746632Y-117946525D01*
X134503411Y-117784010D01*
X134233158Y-117672068D01*
X133946260Y-117615000D01*
X133653740Y-117615000D01*
X133366842Y-117672068D01*
X133096589Y-117784010D01*
X132853368Y-117946525D01*
X132646525Y-118153368D01*
X132530000Y-118327760D01*
X132413475Y-118153368D01*
X132206632Y-117946525D01*
X131963411Y-117784010D01*
X131693158Y-117672068D01*
X131406260Y-117615000D01*
X131113740Y-117615000D01*
X130893592Y-117658790D01*
X125000000Y-111765199D01*
X125000000Y-95350000D01*
X145011928Y-95350000D01*
X145011928Y-97050000D01*
X145024188Y-97174482D01*
X145060498Y-97294180D01*
X145119463Y-97404494D01*
X145198815Y-97501185D01*
X145295506Y-97580537D01*
X145405820Y-97639502D01*
X145478380Y-97661513D01*
X145346525Y-97793368D01*
X145184010Y-98036589D01*
X145072068Y-98306842D01*
X145015000Y-98593740D01*
X145015000Y-98886260D01*
X145072068Y-99173158D01*
X145184010Y-99443411D01*
X145346525Y-99686632D01*
X145553368Y-99893475D01*
X145796589Y-100055990D01*
X146066842Y-100167932D01*
X146353740Y-100225000D01*
X146646260Y-100225000D01*
X146933158Y-100167932D01*
X147203411Y-100055990D01*
X147446632Y-99893475D01*
X147490107Y-99850000D01*
X163611928Y-99850000D01*
X163624188Y-99974482D01*
X163660498Y-100094180D01*
X163719463Y-100204494D01*
X163798815Y-100301185D01*
X163895506Y-100380537D01*
X163954021Y-100411814D01*
X163795391Y-100649221D01*
X163675911Y-100937673D01*
X163615000Y-101243891D01*
X163615000Y-101556109D01*
X163675911Y-101862327D01*
X163795391Y-102150779D01*
X163968850Y-102410379D01*
X164189621Y-102631150D01*
X164217832Y-102650000D01*
X164189621Y-102668850D01*
X163968850Y-102889621D01*
X163795391Y-103149221D01*
X163675911Y-103437673D01*
X163615000Y-103743891D01*
X163615000Y-104056109D01*
X163675911Y-104362327D01*
X163795391Y-104650779D01*
X163968850Y-104910379D01*
X164189621Y-105131150D01*
X164449221Y-105304609D01*
X164737673Y-105424089D01*
X165043891Y-105485000D01*
X165356109Y-105485000D01*
X165662327Y-105424089D01*
X165950779Y-105304609D01*
X166210379Y-105131150D01*
X166431150Y-104910379D01*
X166604609Y-104650779D01*
X166724089Y-104362327D01*
X166785000Y-104056109D01*
X166785000Y-103743891D01*
X166724089Y-103437673D01*
X166604609Y-103149221D01*
X166431150Y-102889621D01*
X166210379Y-102668850D01*
X166182168Y-102650000D01*
X166210379Y-102631150D01*
X166431150Y-102410379D01*
X166604609Y-102150779D01*
X166724089Y-101862327D01*
X166785000Y-101556109D01*
X166785000Y-101243891D01*
X166724089Y-100937673D01*
X166604609Y-100649221D01*
X166445979Y-100411814D01*
X166504494Y-100380537D01*
X166601185Y-100301185D01*
X166680537Y-100204494D01*
X166739502Y-100094180D01*
X166775812Y-99974482D01*
X166788072Y-99850000D01*
X171711928Y-99850000D01*
X171724188Y-99974482D01*
X171760498Y-100094180D01*
X171819463Y-100204494D01*
X171898815Y-100301185D01*
X171995506Y-100380537D01*
X172054021Y-100411814D01*
X171895391Y-100649221D01*
X171775911Y-100937673D01*
X171715000Y-101243891D01*
X171715000Y-101556109D01*
X171775911Y-101862327D01*
X171895391Y-102150779D01*
X172068850Y-102410379D01*
X172289621Y-102631150D01*
X172317832Y-102650000D01*
X172289621Y-102668850D01*
X172068850Y-102889621D01*
X171895391Y-103149221D01*
X171775911Y-103437673D01*
X171715000Y-103743891D01*
X171715000Y-104056109D01*
X171775911Y-104362327D01*
X171895391Y-104650779D01*
X172068850Y-104910379D01*
X172289621Y-105131150D01*
X172549221Y-105304609D01*
X172837673Y-105424089D01*
X173143891Y-105485000D01*
X173456109Y-105485000D01*
X173762327Y-105424089D01*
X174050779Y-105304609D01*
X174310379Y-105131150D01*
X174531150Y-104910379D01*
X174704609Y-104650779D01*
X174824089Y-104362327D01*
X174885000Y-104056109D01*
X174885000Y-103743891D01*
X174824089Y-103437673D01*
X174704609Y-103149221D01*
X174531150Y-102889621D01*
X174310379Y-102668850D01*
X174282168Y-102650000D01*
X174310379Y-102631150D01*
X174531150Y-102410379D01*
X174704609Y-102150779D01*
X174824089Y-101862327D01*
X174885000Y-101556109D01*
X174885000Y-101243891D01*
X174824089Y-100937673D01*
X174704609Y-100649221D01*
X174545979Y-100411814D01*
X174604494Y-100380537D01*
X174701185Y-100301185D01*
X174780537Y-100204494D01*
X174839502Y-100094180D01*
X174875812Y-99974482D01*
X174888072Y-99850000D01*
X174885000Y-99185750D01*
X174726250Y-99027000D01*
X173427000Y-99027000D01*
X173427000Y-99047000D01*
X173173000Y-99047000D01*
X173173000Y-99027000D01*
X171873750Y-99027000D01*
X171715000Y-99185750D01*
X171711928Y-99850000D01*
X166788072Y-99850000D01*
X166785000Y-99185750D01*
X166626250Y-99027000D01*
X165327000Y-99027000D01*
X165327000Y-99047000D01*
X165073000Y-99047000D01*
X165073000Y-99027000D01*
X163773750Y-99027000D01*
X163615000Y-99185750D01*
X163611928Y-99850000D01*
X147490107Y-99850000D01*
X147653475Y-99686632D01*
X147815990Y-99443411D01*
X147927932Y-99173158D01*
X147985000Y-98886260D01*
X147985000Y-98593740D01*
X147927932Y-98306842D01*
X147815990Y-98036589D01*
X147758134Y-97950000D01*
X163611928Y-97950000D01*
X163615000Y-98614250D01*
X163773750Y-98773000D01*
X165073000Y-98773000D01*
X165073000Y-97473750D01*
X165327000Y-97473750D01*
X165327000Y-98773000D01*
X166626250Y-98773000D01*
X166785000Y-98614250D01*
X166788072Y-97950000D01*
X171711928Y-97950000D01*
X171715000Y-98614250D01*
X171873750Y-98773000D01*
X173173000Y-98773000D01*
X173173000Y-97473750D01*
X173427000Y-97473750D01*
X173427000Y-98773000D01*
X174726250Y-98773000D01*
X174885000Y-98614250D01*
X174888072Y-97950000D01*
X174875812Y-97825518D01*
X174839502Y-97705820D01*
X174780537Y-97595506D01*
X174701185Y-97498815D01*
X174604494Y-97419463D01*
X174494180Y-97360498D01*
X174374482Y-97324188D01*
X174250000Y-97311928D01*
X173585750Y-97315000D01*
X173427000Y-97473750D01*
X173173000Y-97473750D01*
X173014250Y-97315000D01*
X172350000Y-97311928D01*
X172225518Y-97324188D01*
X172105820Y-97360498D01*
X171995506Y-97419463D01*
X171898815Y-97498815D01*
X171819463Y-97595506D01*
X171760498Y-97705820D01*
X171724188Y-97825518D01*
X171711928Y-97950000D01*
X166788072Y-97950000D01*
X166775812Y-97825518D01*
X166739502Y-97705820D01*
X166680537Y-97595506D01*
X166601185Y-97498815D01*
X166504494Y-97419463D01*
X166394180Y-97360498D01*
X166274482Y-97324188D01*
X166150000Y-97311928D01*
X165485750Y-97315000D01*
X165327000Y-97473750D01*
X165073000Y-97473750D01*
X164914250Y-97315000D01*
X164250000Y-97311928D01*
X164125518Y-97324188D01*
X164005820Y-97360498D01*
X163895506Y-97419463D01*
X163798815Y-97498815D01*
X163719463Y-97595506D01*
X163660498Y-97705820D01*
X163624188Y-97825518D01*
X163611928Y-97950000D01*
X147758134Y-97950000D01*
X147653475Y-97793368D01*
X147521620Y-97661513D01*
X147594180Y-97639502D01*
X147704494Y-97580537D01*
X147801185Y-97501185D01*
X147880537Y-97404494D01*
X147939502Y-97294180D01*
X147975812Y-97174482D01*
X147988072Y-97050000D01*
X147988072Y-95350000D01*
X147975812Y-95225518D01*
X147939502Y-95105820D01*
X147880537Y-94995506D01*
X147801185Y-94898815D01*
X147704494Y-94819463D01*
X147594180Y-94760498D01*
X147474482Y-94724188D01*
X147350000Y-94711928D01*
X145650000Y-94711928D01*
X145525518Y-94724188D01*
X145405820Y-94760498D01*
X145295506Y-94819463D01*
X145198815Y-94898815D01*
X145119463Y-94995506D01*
X145060498Y-95105820D01*
X145024188Y-95225518D01*
X145011928Y-95350000D01*
X125000000Y-95350000D01*
X125000000Y-70618043D01*
X125154759Y-70514637D01*
X125354637Y-70314759D01*
X125510000Y-70082241D01*
X125665363Y-70314759D01*
X125865241Y-70514637D01*
X126100273Y-70671680D01*
X126361426Y-70779853D01*
X126638665Y-70835000D01*
X126921335Y-70835000D01*
X127198574Y-70779853D01*
X127459727Y-70671680D01*
X127694759Y-70514637D01*
X127894637Y-70314759D01*
X128050000Y-70082241D01*
X128205363Y-70314759D01*
X128405241Y-70514637D01*
X128640273Y-70671680D01*
X128901426Y-70779853D01*
X129178665Y-70835000D01*
X129461335Y-70835000D01*
X129738574Y-70779853D01*
X129999727Y-70671680D01*
X130234759Y-70514637D01*
X130434637Y-70314759D01*
X130591680Y-70079727D01*
X130699853Y-69818574D01*
X130755000Y-69541335D01*
X130755000Y-69278665D01*
X149185000Y-69278665D01*
X149185000Y-69561335D01*
X149240147Y-69838574D01*
X149348320Y-70099727D01*
X149505363Y-70334759D01*
X149705241Y-70534637D01*
X149940273Y-70691680D01*
X150201426Y-70799853D01*
X150478665Y-70855000D01*
X150761335Y-70855000D01*
X151038574Y-70799853D01*
X151299727Y-70691680D01*
X151534759Y-70534637D01*
X151734637Y-70334759D01*
X151890000Y-70102241D01*
X152045363Y-70334759D01*
X152245241Y-70534637D01*
X152480273Y-70691680D01*
X152741426Y-70799853D01*
X153018665Y-70855000D01*
X153301335Y-70855000D01*
X153578574Y-70799853D01*
X153839727Y-70691680D01*
X154074759Y-70534637D01*
X154274637Y-70334759D01*
X154430000Y-70102241D01*
X154585363Y-70334759D01*
X154785241Y-70534637D01*
X155020273Y-70691680D01*
X155281426Y-70799853D01*
X155558665Y-70855000D01*
X155841335Y-70855000D01*
X156118574Y-70799853D01*
X156379727Y-70691680D01*
X156614759Y-70534637D01*
X156814637Y-70334759D01*
X156970000Y-70102241D01*
X157125363Y-70334759D01*
X157325241Y-70534637D01*
X157560273Y-70691680D01*
X157821426Y-70799853D01*
X158098665Y-70855000D01*
X158381335Y-70855000D01*
X158658574Y-70799853D01*
X158919727Y-70691680D01*
X159154759Y-70534637D01*
X159354637Y-70334759D01*
X159510000Y-70102241D01*
X159665363Y-70334759D01*
X159865241Y-70534637D01*
X160100273Y-70691680D01*
X160361426Y-70799853D01*
X160638665Y-70855000D01*
X160921335Y-70855000D01*
X161198574Y-70799853D01*
X161459727Y-70691680D01*
X161694759Y-70534637D01*
X161894637Y-70334759D01*
X162050000Y-70102241D01*
X162205363Y-70334759D01*
X162405241Y-70534637D01*
X162640273Y-70691680D01*
X162901426Y-70799853D01*
X163178665Y-70855000D01*
X163461335Y-70855000D01*
X163738574Y-70799853D01*
X163999727Y-70691680D01*
X164234759Y-70534637D01*
X164434637Y-70334759D01*
X164590000Y-70102241D01*
X164745363Y-70334759D01*
X164945241Y-70534637D01*
X165180273Y-70691680D01*
X165441426Y-70799853D01*
X165718665Y-70855000D01*
X166001335Y-70855000D01*
X166278574Y-70799853D01*
X166539727Y-70691680D01*
X166774759Y-70534637D01*
X166974637Y-70334759D01*
X167131680Y-70099727D01*
X167136067Y-70089135D01*
X167247615Y-70275131D01*
X167436586Y-70483519D01*
X167662580Y-70651037D01*
X167916913Y-70771246D01*
X168050961Y-70811904D01*
X168273000Y-70689915D01*
X168273000Y-69547000D01*
X168527000Y-69547000D01*
X168527000Y-70689915D01*
X168749039Y-70811904D01*
X168883087Y-70771246D01*
X169137420Y-70651037D01*
X169363414Y-70483519D01*
X169552385Y-70275131D01*
X169697070Y-70033881D01*
X169791909Y-69769040D01*
X169670624Y-69547000D01*
X168527000Y-69547000D01*
X168273000Y-69547000D01*
X168253000Y-69547000D01*
X168253000Y-69293000D01*
X168273000Y-69293000D01*
X168273000Y-68150085D01*
X168527000Y-68150085D01*
X168527000Y-69293000D01*
X169670624Y-69293000D01*
X169791909Y-69070960D01*
X169697070Y-68806119D01*
X169552385Y-68564869D01*
X169363414Y-68356481D01*
X169137420Y-68188963D01*
X168883087Y-68068754D01*
X168749039Y-68028096D01*
X168527000Y-68150085D01*
X168273000Y-68150085D01*
X168050961Y-68028096D01*
X167916913Y-68068754D01*
X167662580Y-68188963D01*
X167436586Y-68356481D01*
X167247615Y-68564869D01*
X167136067Y-68750865D01*
X167131680Y-68740273D01*
X166974637Y-68505241D01*
X166774759Y-68305363D01*
X166539727Y-68148320D01*
X166278574Y-68040147D01*
X166001335Y-67985000D01*
X165718665Y-67985000D01*
X165441426Y-68040147D01*
X165180273Y-68148320D01*
X164945241Y-68305363D01*
X164745363Y-68505241D01*
X164590000Y-68737759D01*
X164434637Y-68505241D01*
X164234759Y-68305363D01*
X163999727Y-68148320D01*
X163738574Y-68040147D01*
X163461335Y-67985000D01*
X163178665Y-67985000D01*
X162901426Y-68040147D01*
X162640273Y-68148320D01*
X162405241Y-68305363D01*
X162205363Y-68505241D01*
X162050000Y-68737759D01*
X161894637Y-68505241D01*
X161694759Y-68305363D01*
X161459727Y-68148320D01*
X161198574Y-68040147D01*
X160921335Y-67985000D01*
X160638665Y-67985000D01*
X160361426Y-68040147D01*
X160100273Y-68148320D01*
X159865241Y-68305363D01*
X159665363Y-68505241D01*
X159510000Y-68737759D01*
X159354637Y-68505241D01*
X159154759Y-68305363D01*
X158919727Y-68148320D01*
X158658574Y-68040147D01*
X158381335Y-67985000D01*
X158098665Y-67985000D01*
X157821426Y-68040147D01*
X157560273Y-68148320D01*
X157325241Y-68305363D01*
X157125363Y-68505241D01*
X156970000Y-68737759D01*
X156814637Y-68505241D01*
X156614759Y-68305363D01*
X156379727Y-68148320D01*
X156118574Y-68040147D01*
X155841335Y-67985000D01*
X155558665Y-67985000D01*
X155281426Y-68040147D01*
X155020273Y-68148320D01*
X154785241Y-68305363D01*
X154585363Y-68505241D01*
X154430000Y-68737759D01*
X154274637Y-68505241D01*
X154074759Y-68305363D01*
X153839727Y-68148320D01*
X153578574Y-68040147D01*
X153301335Y-67985000D01*
X153018665Y-67985000D01*
X152741426Y-68040147D01*
X152480273Y-68148320D01*
X152245241Y-68305363D01*
X152045363Y-68505241D01*
X151890000Y-68737759D01*
X151734637Y-68505241D01*
X151534759Y-68305363D01*
X151299727Y-68148320D01*
X151038574Y-68040147D01*
X150761335Y-67985000D01*
X150478665Y-67985000D01*
X150201426Y-68040147D01*
X149940273Y-68148320D01*
X149705241Y-68305363D01*
X149505363Y-68505241D01*
X149348320Y-68740273D01*
X149240147Y-69001426D01*
X149185000Y-69278665D01*
X130755000Y-69278665D01*
X130755000Y-69258665D01*
X130699853Y-68981426D01*
X130591680Y-68720273D01*
X130434637Y-68485241D01*
X130234759Y-68285363D01*
X129999727Y-68128320D01*
X129738574Y-68020147D01*
X129461335Y-67965000D01*
X129178665Y-67965000D01*
X128901426Y-68020147D01*
X128640273Y-68128320D01*
X128405241Y-68285363D01*
X128205363Y-68485241D01*
X128050000Y-68717759D01*
X127894637Y-68485241D01*
X127694759Y-68285363D01*
X127459727Y-68128320D01*
X127198574Y-68020147D01*
X126921335Y-67965000D01*
X126638665Y-67965000D01*
X126361426Y-68020147D01*
X126100273Y-68128320D01*
X125865241Y-68285363D01*
X125665363Y-68485241D01*
X125510000Y-68717759D01*
X125354637Y-68485241D01*
X125154759Y-68285363D01*
X124919727Y-68128320D01*
X124658574Y-68020147D01*
X124381335Y-67965000D01*
X124098665Y-67965000D01*
X123821426Y-68020147D01*
X123560273Y-68128320D01*
X123325241Y-68285363D01*
X123125363Y-68485241D01*
X122970000Y-68717759D01*
X122814637Y-68485241D01*
X122614759Y-68285363D01*
X122379727Y-68128320D01*
X122118574Y-68020147D01*
X121841335Y-67965000D01*
X121558665Y-67965000D01*
X121281426Y-68020147D01*
X121020273Y-68128320D01*
X120785241Y-68285363D01*
X120585363Y-68485241D01*
X120430000Y-68717759D01*
X120274637Y-68485241D01*
X120074759Y-68285363D01*
X119839727Y-68128320D01*
X119578574Y-68020147D01*
X119301335Y-67965000D01*
X119018665Y-67965000D01*
X118741426Y-68020147D01*
X118480273Y-68128320D01*
X118245241Y-68285363D01*
X118045363Y-68485241D01*
X117890000Y-68717759D01*
X117734637Y-68485241D01*
X117534759Y-68285363D01*
X117380000Y-68181957D01*
X117380000Y-68120912D01*
X117383676Y-68083589D01*
X117380000Y-68046266D01*
X117380000Y-68046257D01*
X117369003Y-67934604D01*
X117325546Y-67791343D01*
X117254975Y-67659315D01*
X117254974Y-67659313D01*
X117183799Y-67572587D01*
X117160001Y-67543589D01*
X117131004Y-67519792D01*
X113714999Y-64103788D01*
X113714999Y-63170509D01*
X113938665Y-63215000D01*
X114221335Y-63215000D01*
X114498574Y-63159853D01*
X114759727Y-63051680D01*
X114994759Y-62894637D01*
X115194637Y-62694759D01*
X115351680Y-62459727D01*
X115356067Y-62449135D01*
X115467615Y-62635131D01*
X115656586Y-62843519D01*
X115882580Y-63011037D01*
X116136913Y-63131246D01*
X116270961Y-63171904D01*
X116493000Y-63049915D01*
X116493000Y-61907000D01*
X116473000Y-61907000D01*
X116473000Y-61653000D01*
X116493000Y-61653000D01*
X116493000Y-60510085D01*
X116270961Y-60388096D01*
X116136913Y-60428754D01*
X115882580Y-60548963D01*
X115656586Y-60716481D01*
X115467615Y-60924869D01*
X115356067Y-61110865D01*
X115351680Y-61100273D01*
X115194637Y-60865241D01*
X114994759Y-60665363D01*
X114759727Y-60508320D01*
X114498574Y-60400147D01*
X114221335Y-60345000D01*
X113938665Y-60345000D01*
X113661426Y-60400147D01*
X113400273Y-60508320D01*
X113165241Y-60665363D01*
X113165204Y-60665400D01*
X108259826Y-55760022D01*
X112065222Y-55760022D01*
X116791071Y-60485872D01*
X116747000Y-60510085D01*
X116747000Y-61653000D01*
X116767000Y-61653000D01*
X116767000Y-61907000D01*
X116747000Y-61907000D01*
X116747000Y-63049915D01*
X116969039Y-63171904D01*
X117103087Y-63131246D01*
X117357420Y-63011037D01*
X117583414Y-62843519D01*
X117772385Y-62635131D01*
X117883933Y-62449135D01*
X117888320Y-62459727D01*
X118045363Y-62694759D01*
X118245241Y-62894637D01*
X118480273Y-63051680D01*
X118741426Y-63159853D01*
X119018665Y-63215000D01*
X119301335Y-63215000D01*
X119578574Y-63159853D01*
X119839727Y-63051680D01*
X120074759Y-62894637D01*
X120274637Y-62694759D01*
X120430000Y-62462241D01*
X120585363Y-62694759D01*
X120785241Y-62894637D01*
X121020273Y-63051680D01*
X121281426Y-63159853D01*
X121558665Y-63215000D01*
X121841335Y-63215000D01*
X122118574Y-63159853D01*
X122379727Y-63051680D01*
X122614759Y-62894637D01*
X122814637Y-62694759D01*
X122970000Y-62462241D01*
X123125363Y-62694759D01*
X123325241Y-62894637D01*
X123560273Y-63051680D01*
X123821426Y-63159853D01*
X124098665Y-63215000D01*
X124381335Y-63215000D01*
X124658574Y-63159853D01*
X124919727Y-63051680D01*
X125154759Y-62894637D01*
X125354637Y-62694759D01*
X125510000Y-62462241D01*
X125665363Y-62694759D01*
X125865241Y-62894637D01*
X126100273Y-63051680D01*
X126361426Y-63159853D01*
X126638665Y-63215000D01*
X126921335Y-63215000D01*
X127198574Y-63159853D01*
X127459727Y-63051680D01*
X127694759Y-62894637D01*
X127894637Y-62694759D01*
X128050000Y-62462241D01*
X128205363Y-62694759D01*
X128405241Y-62894637D01*
X128640273Y-63051680D01*
X128901426Y-63159853D01*
X129178665Y-63215000D01*
X129461335Y-63215000D01*
X129738574Y-63159853D01*
X129999727Y-63051680D01*
X130234759Y-62894637D01*
X130434637Y-62694759D01*
X130591680Y-62459727D01*
X130699853Y-62198574D01*
X130755000Y-61921335D01*
X130755000Y-61638665D01*
X130699853Y-61361426D01*
X130591680Y-61100273D01*
X130434637Y-60865241D01*
X130234759Y-60665363D01*
X129999727Y-60508320D01*
X129738574Y-60400147D01*
X129461335Y-60345000D01*
X129178665Y-60345000D01*
X128996114Y-60381312D01*
X128407647Y-59792845D01*
X128590256Y-59717205D01*
X128759774Y-59603937D01*
X128903937Y-59459774D01*
X129017205Y-59290256D01*
X129095226Y-59101898D01*
X129135000Y-58901939D01*
X129135000Y-58698061D01*
X129095226Y-58498102D01*
X129017205Y-58309744D01*
X128903937Y-58140226D01*
X128759774Y-57996063D01*
X128590256Y-57882795D01*
X128401898Y-57804774D01*
X128201939Y-57765000D01*
X128139802Y-57765000D01*
X122434801Y-52060000D01*
X144885199Y-52060000D01*
X153190197Y-60365000D01*
X153018665Y-60365000D01*
X152741426Y-60420147D01*
X152480273Y-60528320D01*
X152245241Y-60685363D01*
X152045363Y-60885241D01*
X151890000Y-61117759D01*
X151734637Y-60885241D01*
X151534759Y-60685363D01*
X151299727Y-60528320D01*
X151038574Y-60420147D01*
X150761335Y-60365000D01*
X150478665Y-60365000D01*
X150201426Y-60420147D01*
X149940273Y-60528320D01*
X149705241Y-60685363D01*
X149505363Y-60885241D01*
X149348320Y-61120273D01*
X149240147Y-61381426D01*
X149185000Y-61658665D01*
X149185000Y-61941335D01*
X149240147Y-62218574D01*
X149348320Y-62479727D01*
X149505363Y-62714759D01*
X149705241Y-62914637D01*
X149940273Y-63071680D01*
X150201426Y-63179853D01*
X150478665Y-63235000D01*
X150761335Y-63235000D01*
X151038574Y-63179853D01*
X151299727Y-63071680D01*
X151534759Y-62914637D01*
X151734637Y-62714759D01*
X151890000Y-62482241D01*
X152045363Y-62714759D01*
X152245241Y-62914637D01*
X152480273Y-63071680D01*
X152741426Y-63179853D01*
X153018665Y-63235000D01*
X153301335Y-63235000D01*
X153578574Y-63179853D01*
X153839727Y-63071680D01*
X154074759Y-62914637D01*
X154274637Y-62714759D01*
X154430000Y-62482241D01*
X154585363Y-62714759D01*
X154785241Y-62914637D01*
X155020273Y-63071680D01*
X155281426Y-63179853D01*
X155558665Y-63235000D01*
X155841335Y-63235000D01*
X156118574Y-63179853D01*
X156379727Y-63071680D01*
X156614759Y-62914637D01*
X156814637Y-62714759D01*
X156970000Y-62482241D01*
X157125363Y-62714759D01*
X157325241Y-62914637D01*
X157560273Y-63071680D01*
X157821426Y-63179853D01*
X158098665Y-63235000D01*
X158381335Y-63235000D01*
X158658574Y-63179853D01*
X158919727Y-63071680D01*
X159154759Y-62914637D01*
X159354637Y-62714759D01*
X159510000Y-62482241D01*
X159665363Y-62714759D01*
X159865241Y-62914637D01*
X160100273Y-63071680D01*
X160361426Y-63179853D01*
X160638665Y-63235000D01*
X160921335Y-63235000D01*
X161198574Y-63179853D01*
X161459727Y-63071680D01*
X161694759Y-62914637D01*
X161894637Y-62714759D01*
X162050000Y-62482241D01*
X162205363Y-62714759D01*
X162405241Y-62914637D01*
X162640273Y-63071680D01*
X162901426Y-63179853D01*
X163178665Y-63235000D01*
X163461335Y-63235000D01*
X163738574Y-63179853D01*
X163999727Y-63071680D01*
X164234759Y-62914637D01*
X164434637Y-62714759D01*
X164590000Y-62482241D01*
X164745363Y-62714759D01*
X164945241Y-62914637D01*
X165180273Y-63071680D01*
X165441426Y-63179853D01*
X165718665Y-63235000D01*
X166001335Y-63235000D01*
X166278574Y-63179853D01*
X166539727Y-63071680D01*
X166774759Y-62914637D01*
X166973357Y-62716039D01*
X166974188Y-62724482D01*
X167010498Y-62844180D01*
X167069463Y-62954494D01*
X167148815Y-63051185D01*
X167245506Y-63130537D01*
X167355820Y-63189502D01*
X167475518Y-63225812D01*
X167600000Y-63238072D01*
X169200000Y-63238072D01*
X169324482Y-63225812D01*
X169444180Y-63189502D01*
X169554494Y-63130537D01*
X169651185Y-63051185D01*
X169730537Y-62954494D01*
X169789502Y-62844180D01*
X169825812Y-62724482D01*
X169838072Y-62600000D01*
X169838072Y-61000000D01*
X169825812Y-60875518D01*
X169789502Y-60755820D01*
X169730537Y-60645506D01*
X169651185Y-60548815D01*
X169554494Y-60469463D01*
X169444180Y-60410498D01*
X169324482Y-60374188D01*
X169200000Y-60361928D01*
X168036730Y-60361928D01*
X156913794Y-49238993D01*
X156889991Y-49209989D01*
X156774266Y-49115016D01*
X156642237Y-49044444D01*
X156498976Y-49000987D01*
X156387323Y-48989990D01*
X156387312Y-48989990D01*
X156349990Y-48986314D01*
X156312668Y-48989990D01*
X126024792Y-48989990D01*
X124519802Y-47485000D01*
X124646260Y-47485000D01*
X124933158Y-47427932D01*
X125203411Y-47315990D01*
X125446632Y-47153475D01*
X125653475Y-46946632D01*
X125770000Y-46772240D01*
X125886525Y-46946632D01*
X126093368Y-47153475D01*
X126336589Y-47315990D01*
X126606842Y-47427932D01*
X126893740Y-47485000D01*
X127186260Y-47485000D01*
X127473158Y-47427932D01*
X127743411Y-47315990D01*
X127986632Y-47153475D01*
X128193475Y-46946632D01*
X128310000Y-46772240D01*
X128426525Y-46946632D01*
X128633368Y-47153475D01*
X128876589Y-47315990D01*
X129146842Y-47427932D01*
X129433740Y-47485000D01*
X129726260Y-47485000D01*
X130013158Y-47427932D01*
X130283411Y-47315990D01*
X130526632Y-47153475D01*
X130733475Y-46946632D01*
X130850000Y-46772240D01*
X130966525Y-46946632D01*
X131173368Y-47153475D01*
X131416589Y-47315990D01*
X131686842Y-47427932D01*
X131973740Y-47485000D01*
X132266260Y-47485000D01*
X132553158Y-47427932D01*
X132823411Y-47315990D01*
X133066632Y-47153475D01*
X133273475Y-46946632D01*
X133390000Y-46772240D01*
X133506525Y-46946632D01*
X133713368Y-47153475D01*
X133956589Y-47315990D01*
X134226842Y-47427932D01*
X134513740Y-47485000D01*
X134806260Y-47485000D01*
X135093158Y-47427932D01*
X135363411Y-47315990D01*
X135606632Y-47153475D01*
X135813475Y-46946632D01*
X135930000Y-46772240D01*
X136046525Y-46946632D01*
X136253368Y-47153475D01*
X136496589Y-47315990D01*
X136766842Y-47427932D01*
X137053740Y-47485000D01*
X137346260Y-47485000D01*
X137633158Y-47427932D01*
X137903411Y-47315990D01*
X138146632Y-47153475D01*
X138353475Y-46946632D01*
X138470000Y-46772240D01*
X138586525Y-46946632D01*
X138793368Y-47153475D01*
X139036589Y-47315990D01*
X139306842Y-47427932D01*
X139593740Y-47485000D01*
X139886260Y-47485000D01*
X140173158Y-47427932D01*
X140443411Y-47315990D01*
X140686632Y-47153475D01*
X140893475Y-46946632D01*
X141010000Y-46772240D01*
X141126525Y-46946632D01*
X141333368Y-47153475D01*
X141576589Y-47315990D01*
X141846842Y-47427932D01*
X142133740Y-47485000D01*
X142426260Y-47485000D01*
X142713158Y-47427932D01*
X142983411Y-47315990D01*
X143226632Y-47153475D01*
X143433475Y-46946632D01*
X143550000Y-46772240D01*
X143666525Y-46946632D01*
X143873368Y-47153475D01*
X144116589Y-47315990D01*
X144386842Y-47427932D01*
X144673740Y-47485000D01*
X144966260Y-47485000D01*
X145253158Y-47427932D01*
X145523411Y-47315990D01*
X145766632Y-47153475D01*
X145973475Y-46946632D01*
X146090000Y-46772240D01*
X146206525Y-46946632D01*
X146413368Y-47153475D01*
X146656589Y-47315990D01*
X146926842Y-47427932D01*
X147213740Y-47485000D01*
X147506260Y-47485000D01*
X147793158Y-47427932D01*
X148063411Y-47315990D01*
X148306632Y-47153475D01*
X148513475Y-46946632D01*
X148630000Y-46772240D01*
X148746525Y-46946632D01*
X148953368Y-47153475D01*
X149196589Y-47315990D01*
X149466842Y-47427932D01*
X149753740Y-47485000D01*
X150046260Y-47485000D01*
X150333158Y-47427932D01*
X150603411Y-47315990D01*
X150846632Y-47153475D01*
X151053475Y-46946632D01*
X151170000Y-46772240D01*
X151286525Y-46946632D01*
X151493368Y-47153475D01*
X151736589Y-47315990D01*
X152006842Y-47427932D01*
X152293740Y-47485000D01*
X152586260Y-47485000D01*
X152873158Y-47427932D01*
X153143411Y-47315990D01*
X153386632Y-47153475D01*
X153593475Y-46946632D01*
X153710000Y-46772240D01*
X153826525Y-46946632D01*
X154033368Y-47153475D01*
X154276589Y-47315990D01*
X154546842Y-47427932D01*
X154833740Y-47485000D01*
X155126260Y-47485000D01*
X155413158Y-47427932D01*
X155683411Y-47315990D01*
X155926632Y-47153475D01*
X156133475Y-46946632D01*
X156250000Y-46772240D01*
X156366525Y-46946632D01*
X156573368Y-47153475D01*
X156816589Y-47315990D01*
X157086842Y-47427932D01*
X157373740Y-47485000D01*
X157666260Y-47485000D01*
X157953158Y-47427932D01*
X158223411Y-47315990D01*
X158466632Y-47153475D01*
X158673475Y-46946632D01*
X158790000Y-46772240D01*
X158906525Y-46946632D01*
X159113368Y-47153475D01*
X159356589Y-47315990D01*
X159626842Y-47427932D01*
X159913740Y-47485000D01*
X160206260Y-47485000D01*
X160493158Y-47427932D01*
X160763411Y-47315990D01*
X161006632Y-47153475D01*
X161213475Y-46946632D01*
X161330000Y-46772240D01*
X161446525Y-46946632D01*
X161653368Y-47153475D01*
X161896589Y-47315990D01*
X162166842Y-47427932D01*
X162453740Y-47485000D01*
X162746260Y-47485000D01*
X163033158Y-47427932D01*
X163303411Y-47315990D01*
X163546632Y-47153475D01*
X163753475Y-46946632D01*
X163870000Y-46772240D01*
X163986525Y-46946632D01*
X164193368Y-47153475D01*
X164436589Y-47315990D01*
X164706842Y-47427932D01*
X164993740Y-47485000D01*
X165286260Y-47485000D01*
X165573158Y-47427932D01*
X165843411Y-47315990D01*
X166086632Y-47153475D01*
X166293475Y-46946632D01*
X166410000Y-46772240D01*
X166526525Y-46946632D01*
X166733368Y-47153475D01*
X166976589Y-47315990D01*
X167246842Y-47427932D01*
X167533740Y-47485000D01*
X167826260Y-47485000D01*
X168113158Y-47427932D01*
X168383411Y-47315990D01*
X168626632Y-47153475D01*
X168833475Y-46946632D01*
X168950000Y-46772240D01*
X169066525Y-46946632D01*
X169273368Y-47153475D01*
X169516589Y-47315990D01*
X169786842Y-47427932D01*
X170073740Y-47485000D01*
X170366260Y-47485000D01*
X170653158Y-47427932D01*
X170923411Y-47315990D01*
X171166632Y-47153475D01*
X171373475Y-46946632D01*
X171490000Y-46772240D01*
X171606525Y-46946632D01*
X171813368Y-47153475D01*
X172056589Y-47315990D01*
X172326842Y-47427932D01*
X172613740Y-47485000D01*
X172906260Y-47485000D01*
X173193158Y-47427932D01*
X173463411Y-47315990D01*
X173706632Y-47153475D01*
X173913475Y-46946632D01*
X174030000Y-46772240D01*
X174146525Y-46946632D01*
X174353368Y-47153475D01*
X174596589Y-47315990D01*
X174866842Y-47427932D01*
X175153740Y-47485000D01*
X175446260Y-47485000D01*
X175733158Y-47427932D01*
X176003411Y-47315990D01*
X176246632Y-47153475D01*
X176453475Y-46946632D01*
X176570000Y-46772240D01*
X176686525Y-46946632D01*
X176893368Y-47153475D01*
X177136589Y-47315990D01*
X177406842Y-47427932D01*
X177693740Y-47485000D01*
X177986260Y-47485000D01*
X178273158Y-47427932D01*
X178543411Y-47315990D01*
X178786632Y-47153475D01*
X178993475Y-46946632D01*
X179110000Y-46772240D01*
X179226525Y-46946632D01*
X179433368Y-47153475D01*
X179676589Y-47315990D01*
X179946842Y-47427932D01*
X180233740Y-47485000D01*
X180526260Y-47485000D01*
X180813158Y-47427932D01*
X181083411Y-47315990D01*
X181326632Y-47153475D01*
X181533475Y-46946632D01*
X181650000Y-46772240D01*
X181766525Y-46946632D01*
X181973368Y-47153475D01*
X182216589Y-47315990D01*
X182486842Y-47427932D01*
X182773740Y-47485000D01*
X183066260Y-47485000D01*
X183353158Y-47427932D01*
X183623411Y-47315990D01*
X183866632Y-47153475D01*
X184073475Y-46946632D01*
X184195195Y-46764466D01*
X184264822Y-46881355D01*
X184459731Y-47097588D01*
X184693080Y-47271641D01*
X184955901Y-47396825D01*
X185103110Y-47441476D01*
X185333000Y-47320155D01*
X185333000Y-46127000D01*
X185313000Y-46127000D01*
X185313000Y-45873000D01*
X185333000Y-45873000D01*
X185333000Y-44679845D01*
X185103110Y-44558524D01*
X184955901Y-44603175D01*
X184693080Y-44728359D01*
X184459731Y-44902412D01*
X184264822Y-45118645D01*
X184195195Y-45235534D01*
X184073475Y-45053368D01*
X183866632Y-44846525D01*
X183623411Y-44684010D01*
X183353158Y-44572068D01*
X183066260Y-44515000D01*
X182773740Y-44515000D01*
X182553592Y-44558790D01*
X181679801Y-43685000D01*
X186315000Y-43685000D01*
X186315000Y-44794057D01*
G04 #@! TA.AperFunction,Conductor*
D19*
G36*
X186315000Y-44794057D02*
G01*
X186226920Y-44728359D01*
X185964099Y-44603175D01*
X185816890Y-44558524D01*
X185587000Y-44679845D01*
X185587000Y-45873000D01*
X185607000Y-45873000D01*
X185607000Y-46127000D01*
X185587000Y-46127000D01*
X185587000Y-47320155D01*
X185816890Y-47441476D01*
X185964099Y-47396825D01*
X186226920Y-47271641D01*
X186315000Y-47205943D01*
X186315001Y-134794058D01*
X186226920Y-134728359D01*
X185964099Y-134603175D01*
X185816890Y-134558524D01*
X185587000Y-134679845D01*
X185587000Y-135873000D01*
X185607000Y-135873000D01*
X185607000Y-136127000D01*
X185587000Y-136127000D01*
X185587000Y-137320155D01*
X185816890Y-137441476D01*
X185964099Y-137396825D01*
X186226920Y-137271641D01*
X186315001Y-137205942D01*
X186315001Y-138315000D01*
X85685000Y-138315000D01*
X85685000Y-137488072D01*
X87250000Y-137488072D01*
X87374482Y-137475812D01*
X87494180Y-137439502D01*
X87604494Y-137380537D01*
X87701185Y-137301185D01*
X87780537Y-137204494D01*
X87839502Y-137094180D01*
X87861513Y-137021620D01*
X87993368Y-137153475D01*
X88236589Y-137315990D01*
X88506842Y-137427932D01*
X88793740Y-137485000D01*
X89086260Y-137485000D01*
X89373158Y-137427932D01*
X89643411Y-137315990D01*
X89886632Y-137153475D01*
X90093475Y-136946632D01*
X90210000Y-136772240D01*
X90326525Y-136946632D01*
X90533368Y-137153475D01*
X90776589Y-137315990D01*
X91046842Y-137427932D01*
X91333740Y-137485000D01*
X91626260Y-137485000D01*
X91913158Y-137427932D01*
X92183411Y-137315990D01*
X92426632Y-137153475D01*
X92633475Y-136946632D01*
X92750000Y-136772240D01*
X92866525Y-136946632D01*
X93073368Y-137153475D01*
X93316589Y-137315990D01*
X93586842Y-137427932D01*
X93873740Y-137485000D01*
X94166260Y-137485000D01*
X94453158Y-137427932D01*
X94723411Y-137315990D01*
X94966632Y-137153475D01*
X95173475Y-136946632D01*
X95290000Y-136772240D01*
X95406525Y-136946632D01*
X95613368Y-137153475D01*
X95856589Y-137315990D01*
X96126842Y-137427932D01*
X96413740Y-137485000D01*
X96706260Y-137485000D01*
X96993158Y-137427932D01*
X97263411Y-137315990D01*
X97506632Y-137153475D01*
X97713475Y-136946632D01*
X97830000Y-136772240D01*
X97946525Y-136946632D01*
X98153368Y-137153475D01*
X98396589Y-137315990D01*
X98666842Y-137427932D01*
X98953740Y-137485000D01*
X99246260Y-137485000D01*
X99533158Y-137427932D01*
X99803411Y-137315990D01*
X100046632Y-137153475D01*
X100253475Y-136946632D01*
X100370000Y-136772240D01*
X100486525Y-136946632D01*
X100693368Y-137153475D01*
X100936589Y-137315990D01*
X101206842Y-137427932D01*
X101493740Y-137485000D01*
X101786260Y-137485000D01*
X102073158Y-137427932D01*
X102343411Y-137315990D01*
X102586632Y-137153475D01*
X102793475Y-136946632D01*
X102910000Y-136772240D01*
X103026525Y-136946632D01*
X103233368Y-137153475D01*
X103476589Y-137315990D01*
X103746842Y-137427932D01*
X104033740Y-137485000D01*
X104326260Y-137485000D01*
X104613158Y-137427932D01*
X104883411Y-137315990D01*
X105126632Y-137153475D01*
X105333475Y-136946632D01*
X105450000Y-136772240D01*
X105566525Y-136946632D01*
X105773368Y-137153475D01*
X106016589Y-137315990D01*
X106286842Y-137427932D01*
X106573740Y-137485000D01*
X106866260Y-137485000D01*
X107153158Y-137427932D01*
X107423411Y-137315990D01*
X107666632Y-137153475D01*
X107873475Y-136946632D01*
X107990000Y-136772240D01*
X108106525Y-136946632D01*
X108313368Y-137153475D01*
X108556589Y-137315990D01*
X108826842Y-137427932D01*
X109113740Y-137485000D01*
X109406260Y-137485000D01*
X109693158Y-137427932D01*
X109963411Y-137315990D01*
X110206632Y-137153475D01*
X110413475Y-136946632D01*
X110530000Y-136772240D01*
X110646525Y-136946632D01*
X110853368Y-137153475D01*
X111096589Y-137315990D01*
X111366842Y-137427932D01*
X111653740Y-137485000D01*
X111946260Y-137485000D01*
X112233158Y-137427932D01*
X112503411Y-137315990D01*
X112746632Y-137153475D01*
X112953475Y-136946632D01*
X113070000Y-136772240D01*
X113186525Y-136946632D01*
X113393368Y-137153475D01*
X113636589Y-137315990D01*
X113906842Y-137427932D01*
X114193740Y-137485000D01*
X114486260Y-137485000D01*
X114773158Y-137427932D01*
X115043411Y-137315990D01*
X115286632Y-137153475D01*
X115493475Y-136946632D01*
X115610000Y-136772240D01*
X115726525Y-136946632D01*
X115933368Y-137153475D01*
X116176589Y-137315990D01*
X116446842Y-137427932D01*
X116733740Y-137485000D01*
X117026260Y-137485000D01*
X117313158Y-137427932D01*
X117583411Y-137315990D01*
X117826632Y-137153475D01*
X118033475Y-136946632D01*
X118150000Y-136772240D01*
X118266525Y-136946632D01*
X118473368Y-137153475D01*
X118716589Y-137315990D01*
X118986842Y-137427932D01*
X119273740Y-137485000D01*
X119566260Y-137485000D01*
X119853158Y-137427932D01*
X120123411Y-137315990D01*
X120366632Y-137153475D01*
X120573475Y-136946632D01*
X120690000Y-136772240D01*
X120806525Y-136946632D01*
X121013368Y-137153475D01*
X121256589Y-137315990D01*
X121526842Y-137427932D01*
X121813740Y-137485000D01*
X122106260Y-137485000D01*
X122393158Y-137427932D01*
X122663411Y-137315990D01*
X122906632Y-137153475D01*
X123113475Y-136946632D01*
X123230000Y-136772240D01*
X123346525Y-136946632D01*
X123553368Y-137153475D01*
X123796589Y-137315990D01*
X124066842Y-137427932D01*
X124353740Y-137485000D01*
X124646260Y-137485000D01*
X124933158Y-137427932D01*
X125203411Y-137315990D01*
X125446632Y-137153475D01*
X125653475Y-136946632D01*
X125770000Y-136772240D01*
X125886525Y-136946632D01*
X126093368Y-137153475D01*
X126336589Y-137315990D01*
X126606842Y-137427932D01*
X126893740Y-137485000D01*
X127186260Y-137485000D01*
X127473158Y-137427932D01*
X127743411Y-137315990D01*
X127986632Y-137153475D01*
X128193475Y-136946632D01*
X128310000Y-136772240D01*
X128426525Y-136946632D01*
X128633368Y-137153475D01*
X128876589Y-137315990D01*
X129146842Y-137427932D01*
X129433740Y-137485000D01*
X129726260Y-137485000D01*
X130013158Y-137427932D01*
X130283411Y-137315990D01*
X130526632Y-137153475D01*
X130733475Y-136946632D01*
X130850000Y-136772240D01*
X130966525Y-136946632D01*
X131173368Y-137153475D01*
X131416589Y-137315990D01*
X131686842Y-137427932D01*
X131973740Y-137485000D01*
X132266260Y-137485000D01*
X132553158Y-137427932D01*
X132823411Y-137315990D01*
X133066632Y-137153475D01*
X133273475Y-136946632D01*
X133390000Y-136772240D01*
X133506525Y-136946632D01*
X133713368Y-137153475D01*
X133956589Y-137315990D01*
X134226842Y-137427932D01*
X134513740Y-137485000D01*
X134806260Y-137485000D01*
X135093158Y-137427932D01*
X135363411Y-137315990D01*
X135606632Y-137153475D01*
X135813475Y-136946632D01*
X135930000Y-136772240D01*
X136046525Y-136946632D01*
X136253368Y-137153475D01*
X136496589Y-137315990D01*
X136766842Y-137427932D01*
X137053740Y-137485000D01*
X137346260Y-137485000D01*
X137633158Y-137427932D01*
X137903411Y-137315990D01*
X138146632Y-137153475D01*
X138353475Y-136946632D01*
X138470000Y-136772240D01*
X138586525Y-136946632D01*
X138793368Y-137153475D01*
X139036589Y-137315990D01*
X139306842Y-137427932D01*
X139593740Y-137485000D01*
X139886260Y-137485000D01*
X140173158Y-137427932D01*
X140443411Y-137315990D01*
X140686632Y-137153475D01*
X140893475Y-136946632D01*
X141010000Y-136772240D01*
X141126525Y-136946632D01*
X141333368Y-137153475D01*
X141576589Y-137315990D01*
X141846842Y-137427932D01*
X142133740Y-137485000D01*
X142426260Y-137485000D01*
X142713158Y-137427932D01*
X142983411Y-137315990D01*
X143226632Y-137153475D01*
X143433475Y-136946632D01*
X143550000Y-136772240D01*
X143666525Y-136946632D01*
X143873368Y-137153475D01*
X144116589Y-137315990D01*
X144386842Y-137427932D01*
X144673740Y-137485000D01*
X144966260Y-137485000D01*
X145253158Y-137427932D01*
X145523411Y-137315990D01*
X145766632Y-137153475D01*
X145973475Y-136946632D01*
X146090000Y-136772240D01*
X146206525Y-136946632D01*
X146413368Y-137153475D01*
X146656589Y-137315990D01*
X146926842Y-137427932D01*
X147213740Y-137485000D01*
X147506260Y-137485000D01*
X147793158Y-137427932D01*
X148063411Y-137315990D01*
X148306632Y-137153475D01*
X148513475Y-136946632D01*
X148630000Y-136772240D01*
X148746525Y-136946632D01*
X148953368Y-137153475D01*
X149196589Y-137315990D01*
X149466842Y-137427932D01*
X149753740Y-137485000D01*
X150046260Y-137485000D01*
X150333158Y-137427932D01*
X150603411Y-137315990D01*
X150846632Y-137153475D01*
X151053475Y-136946632D01*
X151170000Y-136772240D01*
X151286525Y-136946632D01*
X151493368Y-137153475D01*
X151736589Y-137315990D01*
X152006842Y-137427932D01*
X152293740Y-137485000D01*
X152586260Y-137485000D01*
X152873158Y-137427932D01*
X153143411Y-137315990D01*
X153386632Y-137153475D01*
X153593475Y-136946632D01*
X153710000Y-136772240D01*
X153826525Y-136946632D01*
X154033368Y-137153475D01*
X154276589Y-137315990D01*
X154546842Y-137427932D01*
X154833740Y-137485000D01*
X155126260Y-137485000D01*
X155413158Y-137427932D01*
X155683411Y-137315990D01*
X155926632Y-137153475D01*
X156133475Y-136946632D01*
X156250000Y-136772240D01*
X156366525Y-136946632D01*
X156573368Y-137153475D01*
X156816589Y-137315990D01*
X157086842Y-137427932D01*
X157373740Y-137485000D01*
X157666260Y-137485000D01*
X157953158Y-137427932D01*
X158223411Y-137315990D01*
X158466632Y-137153475D01*
X158673475Y-136946632D01*
X158790000Y-136772240D01*
X158906525Y-136946632D01*
X159113368Y-137153475D01*
X159356589Y-137315990D01*
X159626842Y-137427932D01*
X159913740Y-137485000D01*
X160206260Y-137485000D01*
X160493158Y-137427932D01*
X160763411Y-137315990D01*
X161006632Y-137153475D01*
X161213475Y-136946632D01*
X161330000Y-136772240D01*
X161446525Y-136946632D01*
X161653368Y-137153475D01*
X161896589Y-137315990D01*
X162166842Y-137427932D01*
X162453740Y-137485000D01*
X162746260Y-137485000D01*
X163033158Y-137427932D01*
X163303411Y-137315990D01*
X163546632Y-137153475D01*
X163753475Y-136946632D01*
X163870000Y-136772240D01*
X163986525Y-136946632D01*
X164193368Y-137153475D01*
X164436589Y-137315990D01*
X164706842Y-137427932D01*
X164993740Y-137485000D01*
X165286260Y-137485000D01*
X165573158Y-137427932D01*
X165843411Y-137315990D01*
X166086632Y-137153475D01*
X166293475Y-136946632D01*
X166410000Y-136772240D01*
X166526525Y-136946632D01*
X166733368Y-137153475D01*
X166976589Y-137315990D01*
X167246842Y-137427932D01*
X167533740Y-137485000D01*
X167826260Y-137485000D01*
X168113158Y-137427932D01*
X168383411Y-137315990D01*
X168626632Y-137153475D01*
X168833475Y-136946632D01*
X168950000Y-136772240D01*
X169066525Y-136946632D01*
X169273368Y-137153475D01*
X169516589Y-137315990D01*
X169786842Y-137427932D01*
X170073740Y-137485000D01*
X170366260Y-137485000D01*
X170653158Y-137427932D01*
X170923411Y-137315990D01*
X171166632Y-137153475D01*
X171373475Y-136946632D01*
X171490000Y-136772240D01*
X171606525Y-136946632D01*
X171813368Y-137153475D01*
X172056589Y-137315990D01*
X172326842Y-137427932D01*
X172613740Y-137485000D01*
X172906260Y-137485000D01*
X173193158Y-137427932D01*
X173463411Y-137315990D01*
X173706632Y-137153475D01*
X173913475Y-136946632D01*
X174030000Y-136772240D01*
X174146525Y-136946632D01*
X174353368Y-137153475D01*
X174596589Y-137315990D01*
X174866842Y-137427932D01*
X175153740Y-137485000D01*
X175446260Y-137485000D01*
X175733158Y-137427932D01*
X176003411Y-137315990D01*
X176246632Y-137153475D01*
X176453475Y-136946632D01*
X176570000Y-136772240D01*
X176686525Y-136946632D01*
X176893368Y-137153475D01*
X177136589Y-137315990D01*
X177406842Y-137427932D01*
X177693740Y-137485000D01*
X177986260Y-137485000D01*
X178273158Y-137427932D01*
X178543411Y-137315990D01*
X178786632Y-137153475D01*
X178993475Y-136946632D01*
X179110000Y-136772240D01*
X179226525Y-136946632D01*
X179433368Y-137153475D01*
X179676589Y-137315990D01*
X179946842Y-137427932D01*
X180233740Y-137485000D01*
X180526260Y-137485000D01*
X180813158Y-137427932D01*
X181083411Y-137315990D01*
X181326632Y-137153475D01*
X181533475Y-136946632D01*
X181650000Y-136772240D01*
X181766525Y-136946632D01*
X181973368Y-137153475D01*
X182216589Y-137315990D01*
X182486842Y-137427932D01*
X182773740Y-137485000D01*
X183066260Y-137485000D01*
X183353158Y-137427932D01*
X183623411Y-137315990D01*
X183866632Y-137153475D01*
X184073475Y-136946632D01*
X184195195Y-136764466D01*
X184264822Y-136881355D01*
X184459731Y-137097588D01*
X184693080Y-137271641D01*
X184955901Y-137396825D01*
X185103110Y-137441476D01*
X185333000Y-137320155D01*
X185333000Y-136127000D01*
X185313000Y-136127000D01*
X185313000Y-135873000D01*
X185333000Y-135873000D01*
X185333000Y-134679845D01*
X185103110Y-134558524D01*
X184955901Y-134603175D01*
X184693080Y-134728359D01*
X184459731Y-134902412D01*
X184264822Y-135118645D01*
X184195195Y-135235534D01*
X184073475Y-135053368D01*
X183866632Y-134846525D01*
X183623411Y-134684010D01*
X183353158Y-134572068D01*
X183066260Y-134515000D01*
X182773740Y-134515000D01*
X182486842Y-134572068D01*
X182216589Y-134684010D01*
X181973368Y-134846525D01*
X181766525Y-135053368D01*
X181650000Y-135227760D01*
X181533475Y-135053368D01*
X181326632Y-134846525D01*
X181083411Y-134684010D01*
X180813158Y-134572068D01*
X180526260Y-134515000D01*
X180233740Y-134515000D01*
X179946842Y-134572068D01*
X179676589Y-134684010D01*
X179433368Y-134846525D01*
X179226525Y-135053368D01*
X179110000Y-135227760D01*
X178993475Y-135053368D01*
X178786632Y-134846525D01*
X178543411Y-134684010D01*
X178273158Y-134572068D01*
X177986260Y-134515000D01*
X177693740Y-134515000D01*
X177406842Y-134572068D01*
X177136589Y-134684010D01*
X176893368Y-134846525D01*
X176686525Y-135053368D01*
X176570000Y-135227760D01*
X176453475Y-135053368D01*
X176246632Y-134846525D01*
X176003411Y-134684010D01*
X175733158Y-134572068D01*
X175446260Y-134515000D01*
X175153740Y-134515000D01*
X174866842Y-134572068D01*
X174596589Y-134684010D01*
X174353368Y-134846525D01*
X174146525Y-135053368D01*
X174030000Y-135227760D01*
X173913475Y-135053368D01*
X173706632Y-134846525D01*
X173463411Y-134684010D01*
X173193158Y-134572068D01*
X172906260Y-134515000D01*
X172613740Y-134515000D01*
X172326842Y-134572068D01*
X172056589Y-134684010D01*
X171813368Y-134846525D01*
X171606525Y-135053368D01*
X171490000Y-135227760D01*
X171373475Y-135053368D01*
X171166632Y-134846525D01*
X170923411Y-134684010D01*
X170653158Y-134572068D01*
X170366260Y-134515000D01*
X170073740Y-134515000D01*
X169786842Y-134572068D01*
X169516589Y-134684010D01*
X169273368Y-134846525D01*
X169066525Y-135053368D01*
X168950000Y-135227760D01*
X168833475Y-135053368D01*
X168626632Y-134846525D01*
X168383411Y-134684010D01*
X168113158Y-134572068D01*
X167826260Y-134515000D01*
X167533740Y-134515000D01*
X167246842Y-134572068D01*
X166976589Y-134684010D01*
X166733368Y-134846525D01*
X166526525Y-135053368D01*
X166410000Y-135227760D01*
X166293475Y-135053368D01*
X166086632Y-134846525D01*
X165843411Y-134684010D01*
X165573158Y-134572068D01*
X165286260Y-134515000D01*
X164993740Y-134515000D01*
X164706842Y-134572068D01*
X164436589Y-134684010D01*
X164193368Y-134846525D01*
X163986525Y-135053368D01*
X163870000Y-135227760D01*
X163753475Y-135053368D01*
X163546632Y-134846525D01*
X163303411Y-134684010D01*
X163033158Y-134572068D01*
X162746260Y-134515000D01*
X162453740Y-134515000D01*
X162166842Y-134572068D01*
X161896589Y-134684010D01*
X161653368Y-134846525D01*
X161446525Y-135053368D01*
X161330000Y-135227760D01*
X161213475Y-135053368D01*
X161006632Y-134846525D01*
X160763411Y-134684010D01*
X160493158Y-134572068D01*
X160206260Y-134515000D01*
X159913740Y-134515000D01*
X159626842Y-134572068D01*
X159356589Y-134684010D01*
X159113368Y-134846525D01*
X158906525Y-135053368D01*
X158790000Y-135227760D01*
X158673475Y-135053368D01*
X158466632Y-134846525D01*
X158223411Y-134684010D01*
X157953158Y-134572068D01*
X157666260Y-134515000D01*
X157373740Y-134515000D01*
X157086842Y-134572068D01*
X156816589Y-134684010D01*
X156573368Y-134846525D01*
X156366525Y-135053368D01*
X156250000Y-135227760D01*
X156133475Y-135053368D01*
X155926632Y-134846525D01*
X155683411Y-134684010D01*
X155413158Y-134572068D01*
X155126260Y-134515000D01*
X154833740Y-134515000D01*
X154546842Y-134572068D01*
X154276589Y-134684010D01*
X154033368Y-134846525D01*
X153826525Y-135053368D01*
X153710000Y-135227760D01*
X153593475Y-135053368D01*
X153386632Y-134846525D01*
X153143411Y-134684010D01*
X152873158Y-134572068D01*
X152586260Y-134515000D01*
X152293740Y-134515000D01*
X152006842Y-134572068D01*
X151736589Y-134684010D01*
X151493368Y-134846525D01*
X151286525Y-135053368D01*
X151170000Y-135227760D01*
X151053475Y-135053368D01*
X150846632Y-134846525D01*
X150603411Y-134684010D01*
X150333158Y-134572068D01*
X150046260Y-134515000D01*
X149753740Y-134515000D01*
X149466842Y-134572068D01*
X149196589Y-134684010D01*
X148953368Y-134846525D01*
X148746525Y-135053368D01*
X148630000Y-135227760D01*
X148513475Y-135053368D01*
X148306632Y-134846525D01*
X148063411Y-134684010D01*
X147793158Y-134572068D01*
X147506260Y-134515000D01*
X147213740Y-134515000D01*
X146926842Y-134572068D01*
X146656589Y-134684010D01*
X146413368Y-134846525D01*
X146206525Y-135053368D01*
X146090000Y-135227760D01*
X145973475Y-135053368D01*
X145766632Y-134846525D01*
X145523411Y-134684010D01*
X145253158Y-134572068D01*
X144966260Y-134515000D01*
X144673740Y-134515000D01*
X144386842Y-134572068D01*
X144116589Y-134684010D01*
X143873368Y-134846525D01*
X143666525Y-135053368D01*
X143550000Y-135227760D01*
X143433475Y-135053368D01*
X143226632Y-134846525D01*
X142983411Y-134684010D01*
X142713158Y-134572068D01*
X142426260Y-134515000D01*
X142133740Y-134515000D01*
X141846842Y-134572068D01*
X141576589Y-134684010D01*
X141333368Y-134846525D01*
X141126525Y-135053368D01*
X141010000Y-135227760D01*
X140893475Y-135053368D01*
X140686632Y-134846525D01*
X140443411Y-134684010D01*
X140173158Y-134572068D01*
X139886260Y-134515000D01*
X139593740Y-134515000D01*
X139306842Y-134572068D01*
X139036589Y-134684010D01*
X138793368Y-134846525D01*
X138586525Y-135053368D01*
X138470000Y-135227760D01*
X138353475Y-135053368D01*
X138146632Y-134846525D01*
X137903411Y-134684010D01*
X137633158Y-134572068D01*
X137346260Y-134515000D01*
X137053740Y-134515000D01*
X136766842Y-134572068D01*
X136496589Y-134684010D01*
X136253368Y-134846525D01*
X136046525Y-135053368D01*
X135930000Y-135227760D01*
X135813475Y-135053368D01*
X135606632Y-134846525D01*
X135363411Y-134684010D01*
X135093158Y-134572068D01*
X134806260Y-134515000D01*
X134513740Y-134515000D01*
X134226842Y-134572068D01*
X133956589Y-134684010D01*
X133713368Y-134846525D01*
X133506525Y-135053368D01*
X133390000Y-135227760D01*
X133273475Y-135053368D01*
X133066632Y-134846525D01*
X132823411Y-134684010D01*
X132553158Y-134572068D01*
X132266260Y-134515000D01*
X131973740Y-134515000D01*
X131686842Y-134572068D01*
X131416589Y-134684010D01*
X131173368Y-134846525D01*
X130966525Y-135053368D01*
X130850000Y-135227760D01*
X130733475Y-135053368D01*
X130526632Y-134846525D01*
X130283411Y-134684010D01*
X130013158Y-134572068D01*
X129726260Y-134515000D01*
X129433740Y-134515000D01*
X129146842Y-134572068D01*
X128876589Y-134684010D01*
X128633368Y-134846525D01*
X128426525Y-135053368D01*
X128310000Y-135227760D01*
X128193475Y-135053368D01*
X127986632Y-134846525D01*
X127743411Y-134684010D01*
X127473158Y-134572068D01*
X127186260Y-134515000D01*
X126893740Y-134515000D01*
X126606842Y-134572068D01*
X126336589Y-134684010D01*
X126093368Y-134846525D01*
X125886525Y-135053368D01*
X125770000Y-135227760D01*
X125653475Y-135053368D01*
X125446632Y-134846525D01*
X125203411Y-134684010D01*
X124933158Y-134572068D01*
X124646260Y-134515000D01*
X124353740Y-134515000D01*
X124066842Y-134572068D01*
X123796589Y-134684010D01*
X123553368Y-134846525D01*
X123346525Y-135053368D01*
X123230000Y-135227760D01*
X123113475Y-135053368D01*
X122906632Y-134846525D01*
X122663411Y-134684010D01*
X122393158Y-134572068D01*
X122106260Y-134515000D01*
X121813740Y-134515000D01*
X121526842Y-134572068D01*
X121256589Y-134684010D01*
X121013368Y-134846525D01*
X120806525Y-135053368D01*
X120690000Y-135227760D01*
X120573475Y-135053368D01*
X120366632Y-134846525D01*
X120123411Y-134684010D01*
X119853158Y-134572068D01*
X119566260Y-134515000D01*
X119273740Y-134515000D01*
X118986842Y-134572068D01*
X118716589Y-134684010D01*
X118473368Y-134846525D01*
X118266525Y-135053368D01*
X118150000Y-135227760D01*
X118033475Y-135053368D01*
X117826632Y-134846525D01*
X117583411Y-134684010D01*
X117313158Y-134572068D01*
X117026260Y-134515000D01*
X116733740Y-134515000D01*
X116446842Y-134572068D01*
X116176589Y-134684010D01*
X115933368Y-134846525D01*
X115726525Y-135053368D01*
X115610000Y-135227760D01*
X115493475Y-135053368D01*
X115286632Y-134846525D01*
X115043411Y-134684010D01*
X114773158Y-134572068D01*
X114486260Y-134515000D01*
X114193740Y-134515000D01*
X113906842Y-134572068D01*
X113636589Y-134684010D01*
X113393368Y-134846525D01*
X113186525Y-135053368D01*
X113070000Y-135227760D01*
X112953475Y-135053368D01*
X112746632Y-134846525D01*
X112503411Y-134684010D01*
X112233158Y-134572068D01*
X111946260Y-134515000D01*
X111653740Y-134515000D01*
X111366842Y-134572068D01*
X111096589Y-134684010D01*
X110853368Y-134846525D01*
X110646525Y-135053368D01*
X110530000Y-135227760D01*
X110413475Y-135053368D01*
X110206632Y-134846525D01*
X109963411Y-134684010D01*
X109693158Y-134572068D01*
X109406260Y-134515000D01*
X109113740Y-134515000D01*
X108826842Y-134572068D01*
X108556589Y-134684010D01*
X108313368Y-134846525D01*
X108106525Y-135053368D01*
X107990000Y-135227760D01*
X107873475Y-135053368D01*
X107666632Y-134846525D01*
X107423411Y-134684010D01*
X107153158Y-134572068D01*
X106866260Y-134515000D01*
X106573740Y-134515000D01*
X106286842Y-134572068D01*
X106016589Y-134684010D01*
X105773368Y-134846525D01*
X105566525Y-135053368D01*
X105450000Y-135227760D01*
X105333475Y-135053368D01*
X105126632Y-134846525D01*
X104883411Y-134684010D01*
X104613158Y-134572068D01*
X104326260Y-134515000D01*
X104033740Y-134515000D01*
X103746842Y-134572068D01*
X103476589Y-134684010D01*
X103233368Y-134846525D01*
X103026525Y-135053368D01*
X102910000Y-135227760D01*
X102793475Y-135053368D01*
X102586632Y-134846525D01*
X102343411Y-134684010D01*
X102073158Y-134572068D01*
X101786260Y-134515000D01*
X101493740Y-134515000D01*
X101206842Y-134572068D01*
X100936589Y-134684010D01*
X100693368Y-134846525D01*
X100486525Y-135053368D01*
X100370000Y-135227760D01*
X100253475Y-135053368D01*
X100046632Y-134846525D01*
X99803411Y-134684010D01*
X99533158Y-134572068D01*
X99246260Y-134515000D01*
X98953740Y-134515000D01*
X98666842Y-134572068D01*
X98396589Y-134684010D01*
X98153368Y-134846525D01*
X97946525Y-135053368D01*
X97830000Y-135227760D01*
X97713475Y-135053368D01*
X97506632Y-134846525D01*
X97263411Y-134684010D01*
X96993158Y-134572068D01*
X96706260Y-134515000D01*
X96413740Y-134515000D01*
X96126842Y-134572068D01*
X95856589Y-134684010D01*
X95613368Y-134846525D01*
X95406525Y-135053368D01*
X95290000Y-135227760D01*
X95173475Y-135053368D01*
X94966632Y-134846525D01*
X94723411Y-134684010D01*
X94453158Y-134572068D01*
X94166260Y-134515000D01*
X93873740Y-134515000D01*
X93586842Y-134572068D01*
X93316589Y-134684010D01*
X93073368Y-134846525D01*
X92866525Y-135053368D01*
X92750000Y-135227760D01*
X92633475Y-135053368D01*
X92426632Y-134846525D01*
X92183411Y-134684010D01*
X91913158Y-134572068D01*
X91626260Y-134515000D01*
X91333740Y-134515000D01*
X91046842Y-134572068D01*
X90776589Y-134684010D01*
X90533368Y-134846525D01*
X90326525Y-135053368D01*
X90210000Y-135227760D01*
X90093475Y-135053368D01*
X89886632Y-134846525D01*
X89643411Y-134684010D01*
X89373158Y-134572068D01*
X89086260Y-134515000D01*
X88793740Y-134515000D01*
X88506842Y-134572068D01*
X88236589Y-134684010D01*
X87993368Y-134846525D01*
X87861513Y-134978380D01*
X87839502Y-134905820D01*
X87780537Y-134795506D01*
X87701185Y-134698815D01*
X87604494Y-134619463D01*
X87494180Y-134560498D01*
X87374482Y-134524188D01*
X87250000Y-134511928D01*
X85685000Y-134511928D01*
X85685000Y-95350000D01*
X91711928Y-95350000D01*
X91711928Y-97050000D01*
X91724188Y-97174482D01*
X91760498Y-97294180D01*
X91819463Y-97404494D01*
X91898815Y-97501185D01*
X91995506Y-97580537D01*
X92105820Y-97639502D01*
X92178380Y-97661513D01*
X92046525Y-97793368D01*
X91884010Y-98036589D01*
X91772068Y-98306842D01*
X91715000Y-98593740D01*
X91715000Y-98886260D01*
X91772068Y-99173158D01*
X91884010Y-99443411D01*
X92046525Y-99686632D01*
X92253368Y-99893475D01*
X92496589Y-100055990D01*
X92766842Y-100167932D01*
X93053740Y-100225000D01*
X93346260Y-100225000D01*
X93633158Y-100167932D01*
X93903411Y-100055990D01*
X94146632Y-99893475D01*
X94353475Y-99686632D01*
X94515990Y-99443411D01*
X94627932Y-99173158D01*
X94685000Y-98886260D01*
X94685000Y-98593740D01*
X94627932Y-98306842D01*
X94515990Y-98036589D01*
X94353475Y-97793368D01*
X94221620Y-97661513D01*
X94294180Y-97639502D01*
X94404494Y-97580537D01*
X94501185Y-97501185D01*
X94580537Y-97404494D01*
X94639502Y-97294180D01*
X94675812Y-97174482D01*
X94688072Y-97050000D01*
X94688072Y-95350000D01*
X94675812Y-95225518D01*
X94639502Y-95105820D01*
X94580537Y-94995506D01*
X94501185Y-94898815D01*
X94404494Y-94819463D01*
X94294180Y-94760498D01*
X94174482Y-94724188D01*
X94050000Y-94711928D01*
X92350000Y-94711928D01*
X92225518Y-94724188D01*
X92105820Y-94760498D01*
X91995506Y-94819463D01*
X91898815Y-94898815D01*
X91819463Y-94995506D01*
X91760498Y-95105820D01*
X91724188Y-95225518D01*
X91711928Y-95350000D01*
X85685000Y-95350000D01*
X85685000Y-77350000D01*
X91811928Y-77350000D01*
X91811928Y-79050000D01*
X91824188Y-79174482D01*
X91860498Y-79294180D01*
X91919463Y-79404494D01*
X91998815Y-79501185D01*
X92095506Y-79580537D01*
X92205820Y-79639502D01*
X92278380Y-79661513D01*
X92146525Y-79793368D01*
X91984010Y-80036589D01*
X91872068Y-80306842D01*
X91815000Y-80593740D01*
X91815000Y-80886260D01*
X91872068Y-81173158D01*
X91984010Y-81443411D01*
X92146525Y-81686632D01*
X92353368Y-81893475D01*
X92527760Y-82010000D01*
X92353368Y-82126525D01*
X92146525Y-82333368D01*
X91984010Y-82576589D01*
X91872068Y-82846842D01*
X91815000Y-83133740D01*
X91815000Y-83426260D01*
X91872068Y-83713158D01*
X91984010Y-83983411D01*
X92146525Y-84226632D01*
X92353368Y-84433475D01*
X92596589Y-84595990D01*
X92866842Y-84707932D01*
X93153740Y-84765000D01*
X93446260Y-84765000D01*
X93733158Y-84707932D01*
X94003411Y-84595990D01*
X94246632Y-84433475D01*
X94453475Y-84226632D01*
X94570000Y-84052240D01*
X94686525Y-84226632D01*
X94893368Y-84433475D01*
X95136589Y-84595990D01*
X95406842Y-84707932D01*
X95693740Y-84765000D01*
X95986260Y-84765000D01*
X96273158Y-84707932D01*
X96543411Y-84595990D01*
X96786632Y-84433475D01*
X96993475Y-84226632D01*
X97155990Y-83983411D01*
X97267932Y-83713158D01*
X97325000Y-83426260D01*
X97325000Y-83133740D01*
X97267932Y-82846842D01*
X97155990Y-82576589D01*
X96993475Y-82333368D01*
X96786632Y-82126525D01*
X96612240Y-82010000D01*
X96786632Y-81893475D01*
X96993475Y-81686632D01*
X97155990Y-81443411D01*
X97267932Y-81173158D01*
X97325000Y-80886260D01*
X97325000Y-80593740D01*
X97267932Y-80306842D01*
X97155990Y-80036589D01*
X96993475Y-79793368D01*
X96786632Y-79586525D01*
X96604466Y-79464805D01*
X96721355Y-79395178D01*
X96937588Y-79200269D01*
X97111641Y-78966920D01*
X97236825Y-78704099D01*
X97281476Y-78556890D01*
X97160155Y-78327000D01*
X95967000Y-78327000D01*
X95967000Y-78347000D01*
X95713000Y-78347000D01*
X95713000Y-78327000D01*
X95693000Y-78327000D01*
X95693000Y-78073000D01*
X95713000Y-78073000D01*
X95713000Y-76879186D01*
X95967000Y-76879186D01*
X95967000Y-78073000D01*
X97160155Y-78073000D01*
X97281476Y-77843110D01*
X97236825Y-77695901D01*
X97111641Y-77433080D01*
X96937588Y-77199731D01*
X96721355Y-77004822D01*
X96471252Y-76855843D01*
X96196891Y-76758519D01*
X95967000Y-76879186D01*
X95713000Y-76879186D01*
X95483109Y-76758519D01*
X95208748Y-76855843D01*
X94958645Y-77004822D01*
X94762498Y-77181626D01*
X94739502Y-77105820D01*
X94680537Y-76995506D01*
X94601185Y-76898815D01*
X94504494Y-76819463D01*
X94394180Y-76760498D01*
X94274482Y-76724188D01*
X94150000Y-76711928D01*
X92450000Y-76711928D01*
X92325518Y-76724188D01*
X92205820Y-76760498D01*
X92095506Y-76819463D01*
X91998815Y-76898815D01*
X91919463Y-76995506D01*
X91860498Y-77105820D01*
X91824188Y-77225518D01*
X91811928Y-77350000D01*
X85685000Y-77350000D01*
X85685000Y-47488072D01*
X87250000Y-47488072D01*
X87374482Y-47475812D01*
X87494180Y-47439502D01*
X87604494Y-47380537D01*
X87701185Y-47301185D01*
X87780537Y-47204494D01*
X87839502Y-47094180D01*
X87861513Y-47021620D01*
X87993368Y-47153475D01*
X88236589Y-47315990D01*
X88506842Y-47427932D01*
X88793740Y-47485000D01*
X89086260Y-47485000D01*
X89373158Y-47427932D01*
X89643411Y-47315990D01*
X89886632Y-47153475D01*
X90093475Y-46946632D01*
X90210000Y-46772240D01*
X90326525Y-46946632D01*
X90533368Y-47153475D01*
X90776589Y-47315990D01*
X91046842Y-47427932D01*
X91333740Y-47485000D01*
X91626260Y-47485000D01*
X91913158Y-47427932D01*
X92084999Y-47356753D01*
X92085000Y-65907666D01*
X92081323Y-65944999D01*
X92095997Y-66093984D01*
X92139453Y-66237245D01*
X92210025Y-66369275D01*
X92281200Y-66456001D01*
X92304999Y-66485000D01*
X92333997Y-66508798D01*
X94861928Y-69036730D01*
X94861928Y-70200000D01*
X94874188Y-70324482D01*
X94910498Y-70444180D01*
X94969463Y-70554494D01*
X95048815Y-70651185D01*
X95145506Y-70730537D01*
X95255820Y-70789502D01*
X95375518Y-70825812D01*
X95500000Y-70838072D01*
X97100000Y-70838072D01*
X97224482Y-70825812D01*
X97344180Y-70789502D01*
X97454494Y-70730537D01*
X97551185Y-70651185D01*
X97630537Y-70554494D01*
X97689502Y-70444180D01*
X97725812Y-70324482D01*
X97726643Y-70316039D01*
X97925241Y-70514637D01*
X98160273Y-70671680D01*
X98421426Y-70779853D01*
X98698665Y-70835000D01*
X98981335Y-70835000D01*
X99163887Y-70798688D01*
X115240000Y-86874802D01*
X115240001Y-117835184D01*
X115073368Y-117946525D01*
X114866525Y-118153368D01*
X114750000Y-118327760D01*
X114633475Y-118153368D01*
X114426632Y-117946525D01*
X114183411Y-117784010D01*
X113913158Y-117672068D01*
X113626260Y-117615000D01*
X113333740Y-117615000D01*
X113046842Y-117672068D01*
X112776589Y-117784010D01*
X112533368Y-117946525D01*
X112326525Y-118153368D01*
X112210000Y-118327760D01*
X112093475Y-118153368D01*
X111886632Y-117946525D01*
X111643411Y-117784010D01*
X111373158Y-117672068D01*
X111086260Y-117615000D01*
X110793740Y-117615000D01*
X110506842Y-117672068D01*
X110236589Y-117784010D01*
X109993368Y-117946525D01*
X109786525Y-118153368D01*
X109670000Y-118327760D01*
X109553475Y-118153368D01*
X109346632Y-117946525D01*
X109103411Y-117784010D01*
X108833158Y-117672068D01*
X108546260Y-117615000D01*
X108253740Y-117615000D01*
X107966842Y-117672068D01*
X107696589Y-117784010D01*
X107453368Y-117946525D01*
X107321513Y-118078380D01*
X107299502Y-118005820D01*
X107240537Y-117895506D01*
X107161185Y-117798815D01*
X107064494Y-117719463D01*
X106954180Y-117660498D01*
X106834482Y-117624188D01*
X106710000Y-117611928D01*
X105010000Y-117611928D01*
X104885518Y-117624188D01*
X104765820Y-117660498D01*
X104655506Y-117719463D01*
X104558815Y-117798815D01*
X104479463Y-117895506D01*
X104420498Y-118005820D01*
X104384188Y-118125518D01*
X104371928Y-118250000D01*
X104371928Y-119950000D01*
X104384188Y-120074482D01*
X104420498Y-120194180D01*
X104479463Y-120304494D01*
X104558815Y-120401185D01*
X104655506Y-120480537D01*
X104765820Y-120539502D01*
X104885518Y-120575812D01*
X105010000Y-120588072D01*
X106710000Y-120588072D01*
X106834482Y-120575812D01*
X106954180Y-120539502D01*
X107064494Y-120480537D01*
X107161185Y-120401185D01*
X107240537Y-120304494D01*
X107299502Y-120194180D01*
X107321513Y-120121620D01*
X107453368Y-120253475D01*
X107696589Y-120415990D01*
X107966842Y-120527932D01*
X108253740Y-120585000D01*
X108546260Y-120585000D01*
X108833158Y-120527932D01*
X109103411Y-120415990D01*
X109346632Y-120253475D01*
X109553475Y-120046632D01*
X109670000Y-119872240D01*
X109786525Y-120046632D01*
X109993368Y-120253475D01*
X110236589Y-120415990D01*
X110506842Y-120527932D01*
X110793740Y-120585000D01*
X111086260Y-120585000D01*
X111373158Y-120527932D01*
X111643411Y-120415990D01*
X111886632Y-120253475D01*
X112093475Y-120046632D01*
X112210000Y-119872240D01*
X112326525Y-120046632D01*
X112533368Y-120253475D01*
X112776589Y-120415990D01*
X113046842Y-120527932D01*
X113333740Y-120585000D01*
X113626260Y-120585000D01*
X113913158Y-120527932D01*
X114183411Y-120415990D01*
X114426632Y-120253475D01*
X114633475Y-120046632D01*
X114750000Y-119872240D01*
X114866525Y-120046632D01*
X115073368Y-120253475D01*
X115316589Y-120415990D01*
X115586842Y-120527932D01*
X115873740Y-120585000D01*
X116166260Y-120585000D01*
X116453158Y-120527932D01*
X116723411Y-120415990D01*
X116966632Y-120253475D01*
X117173475Y-120046632D01*
X117290000Y-119872240D01*
X117406525Y-120046632D01*
X117613368Y-120253475D01*
X117856589Y-120415990D01*
X118126842Y-120527932D01*
X118413740Y-120585000D01*
X118706260Y-120585000D01*
X118993158Y-120527932D01*
X119263411Y-120415990D01*
X119506632Y-120253475D01*
X119713475Y-120046632D01*
X119830000Y-119872240D01*
X119946525Y-120046632D01*
X120153368Y-120253475D01*
X120396589Y-120415990D01*
X120666842Y-120527932D01*
X120953740Y-120585000D01*
X121246260Y-120585000D01*
X121533158Y-120527932D01*
X121803411Y-120415990D01*
X122046632Y-120253475D01*
X122253475Y-120046632D01*
X122370000Y-119872240D01*
X122486525Y-120046632D01*
X122693368Y-120253475D01*
X122936589Y-120415990D01*
X123206842Y-120527932D01*
X123493740Y-120585000D01*
X123786260Y-120585000D01*
X124073158Y-120527932D01*
X124343411Y-120415990D01*
X124586632Y-120253475D01*
X124793475Y-120046632D01*
X124910000Y-119872240D01*
X125026525Y-120046632D01*
X125233368Y-120253475D01*
X125476589Y-120415990D01*
X125746842Y-120527932D01*
X126033740Y-120585000D01*
X126326260Y-120585000D01*
X126613158Y-120527932D01*
X126883411Y-120415990D01*
X127126632Y-120253475D01*
X127333475Y-120046632D01*
X127450000Y-119872240D01*
X127566525Y-120046632D01*
X127773368Y-120253475D01*
X128016589Y-120415990D01*
X128286842Y-120527932D01*
X128573740Y-120585000D01*
X128866260Y-120585000D01*
X129153158Y-120527932D01*
X129423411Y-120415990D01*
X129666632Y-120253475D01*
X129873475Y-120046632D01*
X129990000Y-119872240D01*
X130106525Y-120046632D01*
X130313368Y-120253475D01*
X130556589Y-120415990D01*
X130826842Y-120527932D01*
X131113740Y-120585000D01*
X131406260Y-120585000D01*
X131693158Y-120527932D01*
X131963411Y-120415990D01*
X132206632Y-120253475D01*
X132413475Y-120046632D01*
X132530000Y-119872240D01*
X132646525Y-120046632D01*
X132853368Y-120253475D01*
X133096589Y-120415990D01*
X133366842Y-120527932D01*
X133653740Y-120585000D01*
X133946260Y-120585000D01*
X134233158Y-120527932D01*
X134503411Y-120415990D01*
X134746632Y-120253475D01*
X134953475Y-120046632D01*
X135115990Y-119803411D01*
X135227932Y-119533158D01*
X135285000Y-119246260D01*
X135285000Y-118953740D01*
X135227932Y-118666842D01*
X135115990Y-118396589D01*
X134953475Y-118153368D01*
X134746632Y-117946525D01*
X134503411Y-117784010D01*
X134233158Y-117672068D01*
X133946260Y-117615000D01*
X133653740Y-117615000D01*
X133366842Y-117672068D01*
X133096589Y-117784010D01*
X132853368Y-117946525D01*
X132646525Y-118153368D01*
X132530000Y-118327760D01*
X132413475Y-118153368D01*
X132206632Y-117946525D01*
X131963411Y-117784010D01*
X131693158Y-117672068D01*
X131406260Y-117615000D01*
X131113740Y-117615000D01*
X130893592Y-117658790D01*
X125000000Y-111765199D01*
X125000000Y-95350000D01*
X145011928Y-95350000D01*
X145011928Y-97050000D01*
X145024188Y-97174482D01*
X145060498Y-97294180D01*
X145119463Y-97404494D01*
X145198815Y-97501185D01*
X145295506Y-97580537D01*
X145405820Y-97639502D01*
X145478380Y-97661513D01*
X145346525Y-97793368D01*
X145184010Y-98036589D01*
X145072068Y-98306842D01*
X145015000Y-98593740D01*
X145015000Y-98886260D01*
X145072068Y-99173158D01*
X145184010Y-99443411D01*
X145346525Y-99686632D01*
X145553368Y-99893475D01*
X145796589Y-100055990D01*
X146066842Y-100167932D01*
X146353740Y-100225000D01*
X146646260Y-100225000D01*
X146933158Y-100167932D01*
X147203411Y-100055990D01*
X147446632Y-99893475D01*
X147490107Y-99850000D01*
X163611928Y-99850000D01*
X163624188Y-99974482D01*
X163660498Y-100094180D01*
X163719463Y-100204494D01*
X163798815Y-100301185D01*
X163895506Y-100380537D01*
X163954021Y-100411814D01*
X163795391Y-100649221D01*
X163675911Y-100937673D01*
X163615000Y-101243891D01*
X163615000Y-101556109D01*
X163675911Y-101862327D01*
X163795391Y-102150779D01*
X163968850Y-102410379D01*
X164189621Y-102631150D01*
X164217832Y-102650000D01*
X164189621Y-102668850D01*
X163968850Y-102889621D01*
X163795391Y-103149221D01*
X163675911Y-103437673D01*
X163615000Y-103743891D01*
X163615000Y-104056109D01*
X163675911Y-104362327D01*
X163795391Y-104650779D01*
X163968850Y-104910379D01*
X164189621Y-105131150D01*
X164449221Y-105304609D01*
X164737673Y-105424089D01*
X165043891Y-105485000D01*
X165356109Y-105485000D01*
X165662327Y-105424089D01*
X165950779Y-105304609D01*
X166210379Y-105131150D01*
X166431150Y-104910379D01*
X166604609Y-104650779D01*
X166724089Y-104362327D01*
X166785000Y-104056109D01*
X166785000Y-103743891D01*
X166724089Y-103437673D01*
X166604609Y-103149221D01*
X166431150Y-102889621D01*
X166210379Y-102668850D01*
X166182168Y-102650000D01*
X166210379Y-102631150D01*
X166431150Y-102410379D01*
X166604609Y-102150779D01*
X166724089Y-101862327D01*
X166785000Y-101556109D01*
X166785000Y-101243891D01*
X166724089Y-100937673D01*
X166604609Y-100649221D01*
X166445979Y-100411814D01*
X166504494Y-100380537D01*
X166601185Y-100301185D01*
X166680537Y-100204494D01*
X166739502Y-100094180D01*
X166775812Y-99974482D01*
X166788072Y-99850000D01*
X171711928Y-99850000D01*
X171724188Y-99974482D01*
X171760498Y-100094180D01*
X171819463Y-100204494D01*
X171898815Y-100301185D01*
X171995506Y-100380537D01*
X172054021Y-100411814D01*
X171895391Y-100649221D01*
X171775911Y-100937673D01*
X171715000Y-101243891D01*
X171715000Y-101556109D01*
X171775911Y-101862327D01*
X171895391Y-102150779D01*
X172068850Y-102410379D01*
X172289621Y-102631150D01*
X172317832Y-102650000D01*
X172289621Y-102668850D01*
X172068850Y-102889621D01*
X171895391Y-103149221D01*
X171775911Y-103437673D01*
X171715000Y-103743891D01*
X171715000Y-104056109D01*
X171775911Y-104362327D01*
X171895391Y-104650779D01*
X172068850Y-104910379D01*
X172289621Y-105131150D01*
X172549221Y-105304609D01*
X172837673Y-105424089D01*
X173143891Y-105485000D01*
X173456109Y-105485000D01*
X173762327Y-105424089D01*
X174050779Y-105304609D01*
X174310379Y-105131150D01*
X174531150Y-104910379D01*
X174704609Y-104650779D01*
X174824089Y-104362327D01*
X174885000Y-104056109D01*
X174885000Y-103743891D01*
X174824089Y-103437673D01*
X174704609Y-103149221D01*
X174531150Y-102889621D01*
X174310379Y-102668850D01*
X174282168Y-102650000D01*
X174310379Y-102631150D01*
X174531150Y-102410379D01*
X174704609Y-102150779D01*
X174824089Y-101862327D01*
X174885000Y-101556109D01*
X174885000Y-101243891D01*
X174824089Y-100937673D01*
X174704609Y-100649221D01*
X174545979Y-100411814D01*
X174604494Y-100380537D01*
X174701185Y-100301185D01*
X174780537Y-100204494D01*
X174839502Y-100094180D01*
X174875812Y-99974482D01*
X174888072Y-99850000D01*
X174885000Y-99185750D01*
X174726250Y-99027000D01*
X173427000Y-99027000D01*
X173427000Y-99047000D01*
X173173000Y-99047000D01*
X173173000Y-99027000D01*
X171873750Y-99027000D01*
X171715000Y-99185750D01*
X171711928Y-99850000D01*
X166788072Y-99850000D01*
X166785000Y-99185750D01*
X166626250Y-99027000D01*
X165327000Y-99027000D01*
X165327000Y-99047000D01*
X165073000Y-99047000D01*
X165073000Y-99027000D01*
X163773750Y-99027000D01*
X163615000Y-99185750D01*
X163611928Y-99850000D01*
X147490107Y-99850000D01*
X147653475Y-99686632D01*
X147815990Y-99443411D01*
X147927932Y-99173158D01*
X147985000Y-98886260D01*
X147985000Y-98593740D01*
X147927932Y-98306842D01*
X147815990Y-98036589D01*
X147758134Y-97950000D01*
X163611928Y-97950000D01*
X163615000Y-98614250D01*
X163773750Y-98773000D01*
X165073000Y-98773000D01*
X165073000Y-97473750D01*
X165327000Y-97473750D01*
X165327000Y-98773000D01*
X166626250Y-98773000D01*
X166785000Y-98614250D01*
X166788072Y-97950000D01*
X171711928Y-97950000D01*
X171715000Y-98614250D01*
X171873750Y-98773000D01*
X173173000Y-98773000D01*
X173173000Y-97473750D01*
X173427000Y-97473750D01*
X173427000Y-98773000D01*
X174726250Y-98773000D01*
X174885000Y-98614250D01*
X174888072Y-97950000D01*
X174875812Y-97825518D01*
X174839502Y-97705820D01*
X174780537Y-97595506D01*
X174701185Y-97498815D01*
X174604494Y-97419463D01*
X174494180Y-97360498D01*
X174374482Y-97324188D01*
X174250000Y-97311928D01*
X173585750Y-97315000D01*
X173427000Y-97473750D01*
X173173000Y-97473750D01*
X173014250Y-97315000D01*
X172350000Y-97311928D01*
X172225518Y-97324188D01*
X172105820Y-97360498D01*
X171995506Y-97419463D01*
X171898815Y-97498815D01*
X171819463Y-97595506D01*
X171760498Y-97705820D01*
X171724188Y-97825518D01*
X171711928Y-97950000D01*
X166788072Y-97950000D01*
X166775812Y-97825518D01*
X166739502Y-97705820D01*
X166680537Y-97595506D01*
X166601185Y-97498815D01*
X166504494Y-97419463D01*
X166394180Y-97360498D01*
X166274482Y-97324188D01*
X166150000Y-97311928D01*
X165485750Y-97315000D01*
X165327000Y-97473750D01*
X165073000Y-97473750D01*
X164914250Y-97315000D01*
X164250000Y-97311928D01*
X164125518Y-97324188D01*
X164005820Y-97360498D01*
X163895506Y-97419463D01*
X163798815Y-97498815D01*
X163719463Y-97595506D01*
X163660498Y-97705820D01*
X163624188Y-97825518D01*
X163611928Y-97950000D01*
X147758134Y-97950000D01*
X147653475Y-97793368D01*
X147521620Y-97661513D01*
X147594180Y-97639502D01*
X147704494Y-97580537D01*
X147801185Y-97501185D01*
X147880537Y-97404494D01*
X147939502Y-97294180D01*
X147975812Y-97174482D01*
X147988072Y-97050000D01*
X147988072Y-95350000D01*
X147975812Y-95225518D01*
X147939502Y-95105820D01*
X147880537Y-94995506D01*
X147801185Y-94898815D01*
X147704494Y-94819463D01*
X147594180Y-94760498D01*
X147474482Y-94724188D01*
X147350000Y-94711928D01*
X145650000Y-94711928D01*
X145525518Y-94724188D01*
X145405820Y-94760498D01*
X145295506Y-94819463D01*
X145198815Y-94898815D01*
X145119463Y-94995506D01*
X145060498Y-95105820D01*
X145024188Y-95225518D01*
X145011928Y-95350000D01*
X125000000Y-95350000D01*
X125000000Y-70618043D01*
X125154759Y-70514637D01*
X125354637Y-70314759D01*
X125510000Y-70082241D01*
X125665363Y-70314759D01*
X125865241Y-70514637D01*
X126100273Y-70671680D01*
X126361426Y-70779853D01*
X126638665Y-70835000D01*
X126921335Y-70835000D01*
X127198574Y-70779853D01*
X127459727Y-70671680D01*
X127694759Y-70514637D01*
X127894637Y-70314759D01*
X128050000Y-70082241D01*
X128205363Y-70314759D01*
X128405241Y-70514637D01*
X128640273Y-70671680D01*
X128901426Y-70779853D01*
X129178665Y-70835000D01*
X129461335Y-70835000D01*
X129738574Y-70779853D01*
X129999727Y-70671680D01*
X130234759Y-70514637D01*
X130434637Y-70314759D01*
X130591680Y-70079727D01*
X130699853Y-69818574D01*
X130755000Y-69541335D01*
X130755000Y-69278665D01*
X149185000Y-69278665D01*
X149185000Y-69561335D01*
X149240147Y-69838574D01*
X149348320Y-70099727D01*
X149505363Y-70334759D01*
X149705241Y-70534637D01*
X149940273Y-70691680D01*
X150201426Y-70799853D01*
X150478665Y-70855000D01*
X150761335Y-70855000D01*
X151038574Y-70799853D01*
X151299727Y-70691680D01*
X151534759Y-70534637D01*
X151734637Y-70334759D01*
X151890000Y-70102241D01*
X152045363Y-70334759D01*
X152245241Y-70534637D01*
X152480273Y-70691680D01*
X152741426Y-70799853D01*
X153018665Y-70855000D01*
X153301335Y-70855000D01*
X153578574Y-70799853D01*
X153839727Y-70691680D01*
X154074759Y-70534637D01*
X154274637Y-70334759D01*
X154430000Y-70102241D01*
X154585363Y-70334759D01*
X154785241Y-70534637D01*
X155020273Y-70691680D01*
X155281426Y-70799853D01*
X155558665Y-70855000D01*
X155841335Y-70855000D01*
X156118574Y-70799853D01*
X156379727Y-70691680D01*
X156614759Y-70534637D01*
X156814637Y-70334759D01*
X156970000Y-70102241D01*
X157125363Y-70334759D01*
X157325241Y-70534637D01*
X157560273Y-70691680D01*
X157821426Y-70799853D01*
X158098665Y-70855000D01*
X158381335Y-70855000D01*
X158658574Y-70799853D01*
X158919727Y-70691680D01*
X159154759Y-70534637D01*
X159354637Y-70334759D01*
X159510000Y-70102241D01*
X159665363Y-70334759D01*
X159865241Y-70534637D01*
X160100273Y-70691680D01*
X160361426Y-70799853D01*
X160638665Y-70855000D01*
X160921335Y-70855000D01*
X161198574Y-70799853D01*
X161459727Y-70691680D01*
X161694759Y-70534637D01*
X161894637Y-70334759D01*
X162050000Y-70102241D01*
X162205363Y-70334759D01*
X162405241Y-70534637D01*
X162640273Y-70691680D01*
X162901426Y-70799853D01*
X163178665Y-70855000D01*
X163461335Y-70855000D01*
X163738574Y-70799853D01*
X163999727Y-70691680D01*
X164234759Y-70534637D01*
X164434637Y-70334759D01*
X164590000Y-70102241D01*
X164745363Y-70334759D01*
X164945241Y-70534637D01*
X165180273Y-70691680D01*
X165441426Y-70799853D01*
X165718665Y-70855000D01*
X166001335Y-70855000D01*
X166278574Y-70799853D01*
X166539727Y-70691680D01*
X166774759Y-70534637D01*
X166974637Y-70334759D01*
X167131680Y-70099727D01*
X167136067Y-70089135D01*
X167247615Y-70275131D01*
X167436586Y-70483519D01*
X167662580Y-70651037D01*
X167916913Y-70771246D01*
X168050961Y-70811904D01*
X168273000Y-70689915D01*
X168273000Y-69547000D01*
X168527000Y-69547000D01*
X168527000Y-70689915D01*
X168749039Y-70811904D01*
X168883087Y-70771246D01*
X169137420Y-70651037D01*
X169363414Y-70483519D01*
X169552385Y-70275131D01*
X169697070Y-70033881D01*
X169791909Y-69769040D01*
X169670624Y-69547000D01*
X168527000Y-69547000D01*
X168273000Y-69547000D01*
X168253000Y-69547000D01*
X168253000Y-69293000D01*
X168273000Y-69293000D01*
X168273000Y-68150085D01*
X168527000Y-68150085D01*
X168527000Y-69293000D01*
X169670624Y-69293000D01*
X169791909Y-69070960D01*
X169697070Y-68806119D01*
X169552385Y-68564869D01*
X169363414Y-68356481D01*
X169137420Y-68188963D01*
X168883087Y-68068754D01*
X168749039Y-68028096D01*
X168527000Y-68150085D01*
X168273000Y-68150085D01*
X168050961Y-68028096D01*
X167916913Y-68068754D01*
X167662580Y-68188963D01*
X167436586Y-68356481D01*
X167247615Y-68564869D01*
X167136067Y-68750865D01*
X167131680Y-68740273D01*
X166974637Y-68505241D01*
X166774759Y-68305363D01*
X166539727Y-68148320D01*
X166278574Y-68040147D01*
X166001335Y-67985000D01*
X165718665Y-67985000D01*
X165441426Y-68040147D01*
X165180273Y-68148320D01*
X164945241Y-68305363D01*
X164745363Y-68505241D01*
X164590000Y-68737759D01*
X164434637Y-68505241D01*
X164234759Y-68305363D01*
X163999727Y-68148320D01*
X163738574Y-68040147D01*
X163461335Y-67985000D01*
X163178665Y-67985000D01*
X162901426Y-68040147D01*
X162640273Y-68148320D01*
X162405241Y-68305363D01*
X162205363Y-68505241D01*
X162050000Y-68737759D01*
X161894637Y-68505241D01*
X161694759Y-68305363D01*
X161459727Y-68148320D01*
X161198574Y-68040147D01*
X160921335Y-67985000D01*
X160638665Y-67985000D01*
X160361426Y-68040147D01*
X160100273Y-68148320D01*
X159865241Y-68305363D01*
X159665363Y-68505241D01*
X159510000Y-68737759D01*
X159354637Y-68505241D01*
X159154759Y-68305363D01*
X158919727Y-68148320D01*
X158658574Y-68040147D01*
X158381335Y-67985000D01*
X158098665Y-67985000D01*
X157821426Y-68040147D01*
X157560273Y-68148320D01*
X157325241Y-68305363D01*
X157125363Y-68505241D01*
X156970000Y-68737759D01*
X156814637Y-68505241D01*
X156614759Y-68305363D01*
X156379727Y-68148320D01*
X156118574Y-68040147D01*
X155841335Y-67985000D01*
X155558665Y-67985000D01*
X155281426Y-68040147D01*
X155020273Y-68148320D01*
X154785241Y-68305363D01*
X154585363Y-68505241D01*
X154430000Y-68737759D01*
X154274637Y-68505241D01*
X154074759Y-68305363D01*
X153839727Y-68148320D01*
X153578574Y-68040147D01*
X153301335Y-67985000D01*
X153018665Y-67985000D01*
X152741426Y-68040147D01*
X152480273Y-68148320D01*
X152245241Y-68305363D01*
X152045363Y-68505241D01*
X151890000Y-68737759D01*
X151734637Y-68505241D01*
X151534759Y-68305363D01*
X151299727Y-68148320D01*
X151038574Y-68040147D01*
X150761335Y-67985000D01*
X150478665Y-67985000D01*
X150201426Y-68040147D01*
X149940273Y-68148320D01*
X149705241Y-68305363D01*
X149505363Y-68505241D01*
X149348320Y-68740273D01*
X149240147Y-69001426D01*
X149185000Y-69278665D01*
X130755000Y-69278665D01*
X130755000Y-69258665D01*
X130699853Y-68981426D01*
X130591680Y-68720273D01*
X130434637Y-68485241D01*
X130234759Y-68285363D01*
X129999727Y-68128320D01*
X129738574Y-68020147D01*
X129461335Y-67965000D01*
X129178665Y-67965000D01*
X128901426Y-68020147D01*
X128640273Y-68128320D01*
X128405241Y-68285363D01*
X128205363Y-68485241D01*
X128050000Y-68717759D01*
X127894637Y-68485241D01*
X127694759Y-68285363D01*
X127459727Y-68128320D01*
X127198574Y-68020147D01*
X126921335Y-67965000D01*
X126638665Y-67965000D01*
X126361426Y-68020147D01*
X126100273Y-68128320D01*
X125865241Y-68285363D01*
X125665363Y-68485241D01*
X125510000Y-68717759D01*
X125354637Y-68485241D01*
X125154759Y-68285363D01*
X124919727Y-68128320D01*
X124658574Y-68020147D01*
X124381335Y-67965000D01*
X124098665Y-67965000D01*
X123821426Y-68020147D01*
X123560273Y-68128320D01*
X123325241Y-68285363D01*
X123125363Y-68485241D01*
X122970000Y-68717759D01*
X122814637Y-68485241D01*
X122614759Y-68285363D01*
X122379727Y-68128320D01*
X122118574Y-68020147D01*
X121841335Y-67965000D01*
X121558665Y-67965000D01*
X121281426Y-68020147D01*
X121020273Y-68128320D01*
X120785241Y-68285363D01*
X120585363Y-68485241D01*
X120430000Y-68717759D01*
X120274637Y-68485241D01*
X120074759Y-68285363D01*
X119839727Y-68128320D01*
X119578574Y-68020147D01*
X119301335Y-67965000D01*
X119018665Y-67965000D01*
X118741426Y-68020147D01*
X118480273Y-68128320D01*
X118245241Y-68285363D01*
X118045363Y-68485241D01*
X117890000Y-68717759D01*
X117734637Y-68485241D01*
X117534759Y-68285363D01*
X117380000Y-68181957D01*
X117380000Y-68120912D01*
X117383676Y-68083589D01*
X117380000Y-68046266D01*
X117380000Y-68046257D01*
X117369003Y-67934604D01*
X117325546Y-67791343D01*
X117254975Y-67659315D01*
X117254974Y-67659313D01*
X117183799Y-67572587D01*
X117160001Y-67543589D01*
X117131004Y-67519792D01*
X113714999Y-64103788D01*
X113714999Y-63170509D01*
X113938665Y-63215000D01*
X114221335Y-63215000D01*
X114498574Y-63159853D01*
X114759727Y-63051680D01*
X114994759Y-62894637D01*
X115194637Y-62694759D01*
X115351680Y-62459727D01*
X115356067Y-62449135D01*
X115467615Y-62635131D01*
X115656586Y-62843519D01*
X115882580Y-63011037D01*
X116136913Y-63131246D01*
X116270961Y-63171904D01*
X116493000Y-63049915D01*
X116493000Y-61907000D01*
X116473000Y-61907000D01*
X116473000Y-61653000D01*
X116493000Y-61653000D01*
X116493000Y-60510085D01*
X116270961Y-60388096D01*
X116136913Y-60428754D01*
X115882580Y-60548963D01*
X115656586Y-60716481D01*
X115467615Y-60924869D01*
X115356067Y-61110865D01*
X115351680Y-61100273D01*
X115194637Y-60865241D01*
X114994759Y-60665363D01*
X114759727Y-60508320D01*
X114498574Y-60400147D01*
X114221335Y-60345000D01*
X113938665Y-60345000D01*
X113661426Y-60400147D01*
X113400273Y-60508320D01*
X113165241Y-60665363D01*
X113165204Y-60665400D01*
X108259826Y-55760022D01*
X112065222Y-55760022D01*
X116791071Y-60485872D01*
X116747000Y-60510085D01*
X116747000Y-61653000D01*
X116767000Y-61653000D01*
X116767000Y-61907000D01*
X116747000Y-61907000D01*
X116747000Y-63049915D01*
X116969039Y-63171904D01*
X117103087Y-63131246D01*
X117357420Y-63011037D01*
X117583414Y-62843519D01*
X117772385Y-62635131D01*
X117883933Y-62449135D01*
X117888320Y-62459727D01*
X118045363Y-62694759D01*
X118245241Y-62894637D01*
X118480273Y-63051680D01*
X118741426Y-63159853D01*
X119018665Y-63215000D01*
X119301335Y-63215000D01*
X119578574Y-63159853D01*
X119839727Y-63051680D01*
X120074759Y-62894637D01*
X120274637Y-62694759D01*
X120430000Y-62462241D01*
X120585363Y-62694759D01*
X120785241Y-62894637D01*
X121020273Y-63051680D01*
X121281426Y-63159853D01*
X121558665Y-63215000D01*
X121841335Y-63215000D01*
X122118574Y-63159853D01*
X122379727Y-63051680D01*
X122614759Y-62894637D01*
X122814637Y-62694759D01*
X122970000Y-62462241D01*
X123125363Y-62694759D01*
X123325241Y-62894637D01*
X123560273Y-63051680D01*
X123821426Y-63159853D01*
X124098665Y-63215000D01*
X124381335Y-63215000D01*
X124658574Y-63159853D01*
X124919727Y-63051680D01*
X125154759Y-62894637D01*
X125354637Y-62694759D01*
X125510000Y-62462241D01*
X125665363Y-62694759D01*
X125865241Y-62894637D01*
X126100273Y-63051680D01*
X126361426Y-63159853D01*
X126638665Y-63215000D01*
X126921335Y-63215000D01*
X127198574Y-63159853D01*
X127459727Y-63051680D01*
X127694759Y-62894637D01*
X127894637Y-62694759D01*
X128050000Y-62462241D01*
X128205363Y-62694759D01*
X128405241Y-62894637D01*
X128640273Y-63051680D01*
X128901426Y-63159853D01*
X129178665Y-63215000D01*
X129461335Y-63215000D01*
X129738574Y-63159853D01*
X129999727Y-63051680D01*
X130234759Y-62894637D01*
X130434637Y-62694759D01*
X130591680Y-62459727D01*
X130699853Y-62198574D01*
X130755000Y-61921335D01*
X130755000Y-61638665D01*
X130699853Y-61361426D01*
X130591680Y-61100273D01*
X130434637Y-60865241D01*
X130234759Y-60665363D01*
X129999727Y-60508320D01*
X129738574Y-60400147D01*
X129461335Y-60345000D01*
X129178665Y-60345000D01*
X128996114Y-60381312D01*
X128407647Y-59792845D01*
X128590256Y-59717205D01*
X128759774Y-59603937D01*
X128903937Y-59459774D01*
X129017205Y-59290256D01*
X129095226Y-59101898D01*
X129135000Y-58901939D01*
X129135000Y-58698061D01*
X129095226Y-58498102D01*
X129017205Y-58309744D01*
X128903937Y-58140226D01*
X128759774Y-57996063D01*
X128590256Y-57882795D01*
X128401898Y-57804774D01*
X128201939Y-57765000D01*
X128139802Y-57765000D01*
X122434801Y-52060000D01*
X144885199Y-52060000D01*
X153190197Y-60365000D01*
X153018665Y-60365000D01*
X152741426Y-60420147D01*
X152480273Y-60528320D01*
X152245241Y-60685363D01*
X152045363Y-60885241D01*
X151890000Y-61117759D01*
X151734637Y-60885241D01*
X151534759Y-60685363D01*
X151299727Y-60528320D01*
X151038574Y-60420147D01*
X150761335Y-60365000D01*
X150478665Y-60365000D01*
X150201426Y-60420147D01*
X149940273Y-60528320D01*
X149705241Y-60685363D01*
X149505363Y-60885241D01*
X149348320Y-61120273D01*
X149240147Y-61381426D01*
X149185000Y-61658665D01*
X149185000Y-61941335D01*
X149240147Y-62218574D01*
X149348320Y-62479727D01*
X149505363Y-62714759D01*
X149705241Y-62914637D01*
X149940273Y-63071680D01*
X150201426Y-63179853D01*
X150478665Y-63235000D01*
X150761335Y-63235000D01*
X151038574Y-63179853D01*
X151299727Y-63071680D01*
X151534759Y-62914637D01*
X151734637Y-62714759D01*
X151890000Y-62482241D01*
X152045363Y-62714759D01*
X152245241Y-62914637D01*
X152480273Y-63071680D01*
X152741426Y-63179853D01*
X153018665Y-63235000D01*
X153301335Y-63235000D01*
X153578574Y-63179853D01*
X153839727Y-63071680D01*
X154074759Y-62914637D01*
X154274637Y-62714759D01*
X154430000Y-62482241D01*
X154585363Y-62714759D01*
X154785241Y-62914637D01*
X155020273Y-63071680D01*
X155281426Y-63179853D01*
X155558665Y-63235000D01*
X155841335Y-63235000D01*
X156118574Y-63179853D01*
X156379727Y-63071680D01*
X156614759Y-62914637D01*
X156814637Y-62714759D01*
X156970000Y-62482241D01*
X157125363Y-62714759D01*
X157325241Y-62914637D01*
X157560273Y-63071680D01*
X157821426Y-63179853D01*
X158098665Y-63235000D01*
X158381335Y-63235000D01*
X158658574Y-63179853D01*
X158919727Y-63071680D01*
X159154759Y-62914637D01*
X159354637Y-62714759D01*
X159510000Y-62482241D01*
X159665363Y-62714759D01*
X159865241Y-62914637D01*
X160100273Y-63071680D01*
X160361426Y-63179853D01*
X160638665Y-63235000D01*
X160921335Y-63235000D01*
X161198574Y-63179853D01*
X161459727Y-63071680D01*
X161694759Y-62914637D01*
X161894637Y-62714759D01*
X162050000Y-62482241D01*
X162205363Y-62714759D01*
X162405241Y-62914637D01*
X162640273Y-63071680D01*
X162901426Y-63179853D01*
X163178665Y-63235000D01*
X163461335Y-63235000D01*
X163738574Y-63179853D01*
X163999727Y-63071680D01*
X164234759Y-62914637D01*
X164434637Y-62714759D01*
X164590000Y-62482241D01*
X164745363Y-62714759D01*
X164945241Y-62914637D01*
X165180273Y-63071680D01*
X165441426Y-63179853D01*
X165718665Y-63235000D01*
X166001335Y-63235000D01*
X166278574Y-63179853D01*
X166539727Y-63071680D01*
X166774759Y-62914637D01*
X166973357Y-62716039D01*
X166974188Y-62724482D01*
X167010498Y-62844180D01*
X167069463Y-62954494D01*
X167148815Y-63051185D01*
X167245506Y-63130537D01*
X167355820Y-63189502D01*
X167475518Y-63225812D01*
X167600000Y-63238072D01*
X169200000Y-63238072D01*
X169324482Y-63225812D01*
X169444180Y-63189502D01*
X169554494Y-63130537D01*
X169651185Y-63051185D01*
X169730537Y-62954494D01*
X169789502Y-62844180D01*
X169825812Y-62724482D01*
X169838072Y-62600000D01*
X169838072Y-61000000D01*
X169825812Y-60875518D01*
X169789502Y-60755820D01*
X169730537Y-60645506D01*
X169651185Y-60548815D01*
X169554494Y-60469463D01*
X169444180Y-60410498D01*
X169324482Y-60374188D01*
X169200000Y-60361928D01*
X168036730Y-60361928D01*
X156913794Y-49238993D01*
X156889991Y-49209989D01*
X156774266Y-49115016D01*
X156642237Y-49044444D01*
X156498976Y-49000987D01*
X156387323Y-48989990D01*
X156387312Y-48989990D01*
X156349990Y-48986314D01*
X156312668Y-48989990D01*
X126024792Y-48989990D01*
X124519802Y-47485000D01*
X124646260Y-47485000D01*
X124933158Y-47427932D01*
X125203411Y-47315990D01*
X125446632Y-47153475D01*
X125653475Y-46946632D01*
X125770000Y-46772240D01*
X125886525Y-46946632D01*
X126093368Y-47153475D01*
X126336589Y-47315990D01*
X126606842Y-47427932D01*
X126893740Y-47485000D01*
X127186260Y-47485000D01*
X127473158Y-47427932D01*
X127743411Y-47315990D01*
X127986632Y-47153475D01*
X128193475Y-46946632D01*
X128310000Y-46772240D01*
X128426525Y-46946632D01*
X128633368Y-47153475D01*
X128876589Y-47315990D01*
X129146842Y-47427932D01*
X129433740Y-47485000D01*
X129726260Y-47485000D01*
X130013158Y-47427932D01*
X130283411Y-47315990D01*
X130526632Y-47153475D01*
X130733475Y-46946632D01*
X130850000Y-46772240D01*
X130966525Y-46946632D01*
X131173368Y-47153475D01*
X131416589Y-47315990D01*
X131686842Y-47427932D01*
X131973740Y-47485000D01*
X132266260Y-47485000D01*
X132553158Y-47427932D01*
X132823411Y-47315990D01*
X133066632Y-47153475D01*
X133273475Y-46946632D01*
X133390000Y-46772240D01*
X133506525Y-46946632D01*
X133713368Y-47153475D01*
X133956589Y-47315990D01*
X134226842Y-47427932D01*
X134513740Y-47485000D01*
X134806260Y-47485000D01*
X135093158Y-47427932D01*
X135363411Y-47315990D01*
X135606632Y-47153475D01*
X135813475Y-46946632D01*
X135930000Y-46772240D01*
X136046525Y-46946632D01*
X136253368Y-47153475D01*
X136496589Y-47315990D01*
X136766842Y-47427932D01*
X137053740Y-47485000D01*
X137346260Y-47485000D01*
X137633158Y-47427932D01*
X137903411Y-47315990D01*
X138146632Y-47153475D01*
X138353475Y-46946632D01*
X138470000Y-46772240D01*
X138586525Y-46946632D01*
X138793368Y-47153475D01*
X139036589Y-47315990D01*
X139306842Y-47427932D01*
X139593740Y-47485000D01*
X139886260Y-47485000D01*
X140173158Y-47427932D01*
X140443411Y-47315990D01*
X140686632Y-47153475D01*
X140893475Y-46946632D01*
X141010000Y-46772240D01*
X141126525Y-46946632D01*
X141333368Y-47153475D01*
X141576589Y-47315990D01*
X141846842Y-47427932D01*
X142133740Y-47485000D01*
X142426260Y-47485000D01*
X142713158Y-47427932D01*
X142983411Y-47315990D01*
X143226632Y-47153475D01*
X143433475Y-46946632D01*
X143550000Y-46772240D01*
X143666525Y-46946632D01*
X143873368Y-47153475D01*
X144116589Y-47315990D01*
X144386842Y-47427932D01*
X144673740Y-47485000D01*
X144966260Y-47485000D01*
X145253158Y-47427932D01*
X145523411Y-47315990D01*
X145766632Y-47153475D01*
X145973475Y-46946632D01*
X146090000Y-46772240D01*
X146206525Y-46946632D01*
X146413368Y-47153475D01*
X146656589Y-47315990D01*
X146926842Y-47427932D01*
X147213740Y-47485000D01*
X147506260Y-47485000D01*
X147793158Y-47427932D01*
X148063411Y-47315990D01*
X148306632Y-47153475D01*
X148513475Y-46946632D01*
X148630000Y-46772240D01*
X148746525Y-46946632D01*
X148953368Y-47153475D01*
X149196589Y-47315990D01*
X149466842Y-47427932D01*
X149753740Y-47485000D01*
X150046260Y-47485000D01*
X150333158Y-47427932D01*
X150603411Y-47315990D01*
X150846632Y-47153475D01*
X151053475Y-46946632D01*
X151170000Y-46772240D01*
X151286525Y-46946632D01*
X151493368Y-47153475D01*
X151736589Y-47315990D01*
X152006842Y-47427932D01*
X152293740Y-47485000D01*
X152586260Y-47485000D01*
X152873158Y-47427932D01*
X153143411Y-47315990D01*
X153386632Y-47153475D01*
X153593475Y-46946632D01*
X153710000Y-46772240D01*
X153826525Y-46946632D01*
X154033368Y-47153475D01*
X154276589Y-47315990D01*
X154546842Y-47427932D01*
X154833740Y-47485000D01*
X155126260Y-47485000D01*
X155413158Y-47427932D01*
X155683411Y-47315990D01*
X155926632Y-47153475D01*
X156133475Y-46946632D01*
X156250000Y-46772240D01*
X156366525Y-46946632D01*
X156573368Y-47153475D01*
X156816589Y-47315990D01*
X157086842Y-47427932D01*
X157373740Y-47485000D01*
X157666260Y-47485000D01*
X157953158Y-47427932D01*
X158223411Y-47315990D01*
X158466632Y-47153475D01*
X158673475Y-46946632D01*
X158790000Y-46772240D01*
X158906525Y-46946632D01*
X159113368Y-47153475D01*
X159356589Y-47315990D01*
X159626842Y-47427932D01*
X159913740Y-47485000D01*
X160206260Y-47485000D01*
X160493158Y-47427932D01*
X160763411Y-47315990D01*
X161006632Y-47153475D01*
X161213475Y-46946632D01*
X161330000Y-46772240D01*
X161446525Y-46946632D01*
X161653368Y-47153475D01*
X161896589Y-47315990D01*
X162166842Y-47427932D01*
X162453740Y-47485000D01*
X162746260Y-47485000D01*
X163033158Y-47427932D01*
X163303411Y-47315990D01*
X163546632Y-47153475D01*
X163753475Y-46946632D01*
X163870000Y-46772240D01*
X163986525Y-46946632D01*
X164193368Y-47153475D01*
X164436589Y-47315990D01*
X164706842Y-47427932D01*
X164993740Y-47485000D01*
X165286260Y-47485000D01*
X165573158Y-47427932D01*
X165843411Y-47315990D01*
X166086632Y-47153475D01*
X166293475Y-46946632D01*
X166410000Y-46772240D01*
X166526525Y-46946632D01*
X166733368Y-47153475D01*
X166976589Y-47315990D01*
X167246842Y-47427932D01*
X167533740Y-47485000D01*
X167826260Y-47485000D01*
X168113158Y-47427932D01*
X168383411Y-47315990D01*
X168626632Y-47153475D01*
X168833475Y-46946632D01*
X168950000Y-46772240D01*
X169066525Y-46946632D01*
X169273368Y-47153475D01*
X169516589Y-47315990D01*
X169786842Y-47427932D01*
X170073740Y-47485000D01*
X170366260Y-47485000D01*
X170653158Y-47427932D01*
X170923411Y-47315990D01*
X171166632Y-47153475D01*
X171373475Y-46946632D01*
X171490000Y-46772240D01*
X171606525Y-46946632D01*
X171813368Y-47153475D01*
X172056589Y-47315990D01*
X172326842Y-47427932D01*
X172613740Y-47485000D01*
X172906260Y-47485000D01*
X173193158Y-47427932D01*
X173463411Y-47315990D01*
X173706632Y-47153475D01*
X173913475Y-46946632D01*
X174030000Y-46772240D01*
X174146525Y-46946632D01*
X174353368Y-47153475D01*
X174596589Y-47315990D01*
X174866842Y-47427932D01*
X175153740Y-47485000D01*
X175446260Y-47485000D01*
X175733158Y-47427932D01*
X176003411Y-47315990D01*
X176246632Y-47153475D01*
X176453475Y-46946632D01*
X176570000Y-46772240D01*
X176686525Y-46946632D01*
X176893368Y-47153475D01*
X177136589Y-47315990D01*
X177406842Y-47427932D01*
X177693740Y-47485000D01*
X177986260Y-47485000D01*
X178273158Y-47427932D01*
X178543411Y-47315990D01*
X178786632Y-47153475D01*
X178993475Y-46946632D01*
X179110000Y-46772240D01*
X179226525Y-46946632D01*
X179433368Y-47153475D01*
X179676589Y-47315990D01*
X179946842Y-47427932D01*
X180233740Y-47485000D01*
X180526260Y-47485000D01*
X180813158Y-47427932D01*
X181083411Y-47315990D01*
X181326632Y-47153475D01*
X181533475Y-46946632D01*
X181650000Y-46772240D01*
X181766525Y-46946632D01*
X181973368Y-47153475D01*
X182216589Y-47315990D01*
X182486842Y-47427932D01*
X182773740Y-47485000D01*
X183066260Y-47485000D01*
X183353158Y-47427932D01*
X183623411Y-47315990D01*
X183866632Y-47153475D01*
X184073475Y-46946632D01*
X184195195Y-46764466D01*
X184264822Y-46881355D01*
X184459731Y-47097588D01*
X184693080Y-47271641D01*
X184955901Y-47396825D01*
X185103110Y-47441476D01*
X185333000Y-47320155D01*
X185333000Y-46127000D01*
X185313000Y-46127000D01*
X185313000Y-45873000D01*
X185333000Y-45873000D01*
X185333000Y-44679845D01*
X185103110Y-44558524D01*
X184955901Y-44603175D01*
X184693080Y-44728359D01*
X184459731Y-44902412D01*
X184264822Y-45118645D01*
X184195195Y-45235534D01*
X184073475Y-45053368D01*
X183866632Y-44846525D01*
X183623411Y-44684010D01*
X183353158Y-44572068D01*
X183066260Y-44515000D01*
X182773740Y-44515000D01*
X182553592Y-44558790D01*
X181679801Y-43685000D01*
X186315000Y-43685000D01*
X186315000Y-44794057D01*
G37*
G04 #@! TD.AperFunction*
D18*
X111667000Y-69273000D02*
X111687000Y-69273000D01*
X111687000Y-69527000D01*
X111667000Y-69527000D01*
X111667000Y-69547000D01*
X111413000Y-69547000D01*
X111413000Y-69527000D01*
X111393000Y-69527000D01*
X111393000Y-69273000D01*
X111413000Y-69273000D01*
X111413000Y-69253000D01*
X111667000Y-69253000D01*
X111667000Y-69273000D01*
G04 #@! TA.AperFunction,Conductor*
D19*
G36*
X111667000Y-69273000D02*
G01*
X111687000Y-69273000D01*
X111687000Y-69527000D01*
X111667000Y-69527000D01*
X111667000Y-69547000D01*
X111413000Y-69547000D01*
X111413000Y-69527000D01*
X111393000Y-69527000D01*
X111393000Y-69273000D01*
X111413000Y-69273000D01*
X111413000Y-69253000D01*
X111667000Y-69253000D01*
X111667000Y-69273000D01*
G37*
G04 #@! TD.AperFunction*
M02*
