G04 #@! TF.GenerationSoftware,KiCad,Pcbnew,(5.1.9)-1*
G04 #@! TF.CreationDate,2022-07-23T12:13:44-04:00*
G04 #@! TF.ProjectId,output-led,6f757470-7574-42d6-9c65-642e6b696361,1.1*
G04 #@! TF.SameCoordinates,Original*
G04 #@! TF.FileFunction,Legend,Bot*
G04 #@! TF.FilePolarity,Positive*
%FSLAX46Y46*%
G04 Gerber Fmt 4.6, Leading zero omitted, Abs format (unit mm)*
G04 Created by KiCad (PCBNEW (5.1.9)-1) date 2022-07-23 12:13:44*
%MOMM*%
%LPD*%
G01*
G04 APERTURE LIST*
%ADD10C,0.150000*%
%ADD11C,0.120000*%
%ADD12O,1.700000X1.700000*%
%ADD13R,1.700000X1.700000*%
%ADD14C,1.900000*%
%ADD15R,1.900000X1.900000*%
%ADD16O,1.600000X1.600000*%
%ADD17R,1.600000X1.600000*%
G04 APERTURE END LIST*
D10*
X97052380Y-48335595D02*
X96052380Y-48335595D01*
X96052380Y-48573690D01*
X96100000Y-48716547D01*
X96195238Y-48811785D01*
X96290476Y-48859404D01*
X96480952Y-48907023D01*
X96623809Y-48907023D01*
X96814285Y-48859404D01*
X96909523Y-48811785D01*
X97004761Y-48716547D01*
X97052380Y-48573690D01*
X97052380Y-48335595D01*
X96052380Y-49764166D02*
X96052380Y-49573690D01*
X96100000Y-49478452D01*
X96147619Y-49430833D01*
X96290476Y-49335595D01*
X96480952Y-49287976D01*
X96861904Y-49287976D01*
X96957142Y-49335595D01*
X97004761Y-49383214D01*
X97052380Y-49478452D01*
X97052380Y-49668928D01*
X97004761Y-49764166D01*
X96957142Y-49811785D01*
X96861904Y-49859404D01*
X96623809Y-49859404D01*
X96528571Y-49811785D01*
X96480952Y-49764166D01*
X96433333Y-49668928D01*
X96433333Y-49478452D01*
X96480952Y-49383214D01*
X96528571Y-49335595D01*
X96623809Y-49287976D01*
X116352380Y-48240357D02*
X117352380Y-48478452D01*
X116638095Y-48668928D01*
X117352380Y-48859404D01*
X116352380Y-49097500D01*
X117352380Y-50049880D02*
X116876190Y-49716547D01*
X117352380Y-49478452D02*
X116352380Y-49478452D01*
X116352380Y-49859404D01*
X116400000Y-49954642D01*
X116447619Y-50002261D01*
X116542857Y-50049880D01*
X116685714Y-50049880D01*
X116780952Y-50002261D01*
X116828571Y-49954642D01*
X116876190Y-49859404D01*
X116876190Y-49478452D01*
X116447619Y-50430833D02*
X116400000Y-50478452D01*
X116352380Y-50573690D01*
X116352380Y-50811785D01*
X116400000Y-50907023D01*
X116447619Y-50954642D01*
X116542857Y-51002261D01*
X116638095Y-51002261D01*
X116780952Y-50954642D01*
X117352380Y-50383214D01*
X117352380Y-51002261D01*
X94552380Y-48335595D02*
X93552380Y-48335595D01*
X93552380Y-48573690D01*
X93600000Y-48716547D01*
X93695238Y-48811785D01*
X93790476Y-48859404D01*
X93980952Y-48907023D01*
X94123809Y-48907023D01*
X94314285Y-48859404D01*
X94409523Y-48811785D01*
X94504761Y-48716547D01*
X94552380Y-48573690D01*
X94552380Y-48335595D01*
X93552380Y-49240357D02*
X93552380Y-49907023D01*
X94552380Y-49478452D01*
X112252380Y-48335595D02*
X111252380Y-48335595D01*
X111252380Y-48573690D01*
X111300000Y-48716547D01*
X111395238Y-48811785D01*
X111490476Y-48859404D01*
X111680952Y-48907023D01*
X111823809Y-48907023D01*
X112014285Y-48859404D01*
X112109523Y-48811785D01*
X112204761Y-48716547D01*
X112252380Y-48573690D01*
X112252380Y-48335595D01*
X111252380Y-49526071D02*
X111252380Y-49621309D01*
X111300000Y-49716547D01*
X111347619Y-49764166D01*
X111442857Y-49811785D01*
X111633333Y-49859404D01*
X111871428Y-49859404D01*
X112061904Y-49811785D01*
X112157142Y-49764166D01*
X112204761Y-49716547D01*
X112252380Y-49621309D01*
X112252380Y-49526071D01*
X112204761Y-49430833D01*
X112157142Y-49383214D01*
X112061904Y-49335595D01*
X111871428Y-49287976D01*
X111633333Y-49287976D01*
X111442857Y-49335595D01*
X111347619Y-49383214D01*
X111300000Y-49430833D01*
X111252380Y-49526071D01*
X113752380Y-48240357D02*
X114752380Y-48478452D01*
X114038095Y-48668928D01*
X114752380Y-48859404D01*
X113752380Y-49097500D01*
X114752380Y-50049880D02*
X114276190Y-49716547D01*
X114752380Y-49478452D02*
X113752380Y-49478452D01*
X113752380Y-49859404D01*
X113800000Y-49954642D01*
X113847619Y-50002261D01*
X113942857Y-50049880D01*
X114085714Y-50049880D01*
X114180952Y-50002261D01*
X114228571Y-49954642D01*
X114276190Y-49859404D01*
X114276190Y-49478452D01*
X113752380Y-50383214D02*
X113752380Y-51002261D01*
X114133333Y-50668928D01*
X114133333Y-50811785D01*
X114180952Y-50907023D01*
X114228571Y-50954642D01*
X114323809Y-51002261D01*
X114561904Y-51002261D01*
X114657142Y-50954642D01*
X114704761Y-50907023D01*
X114752380Y-50811785D01*
X114752380Y-50526071D01*
X114704761Y-50430833D01*
X114657142Y-50383214D01*
X104652380Y-48335595D02*
X103652380Y-48335595D01*
X103652380Y-48573690D01*
X103700000Y-48716547D01*
X103795238Y-48811785D01*
X103890476Y-48859404D01*
X104080952Y-48907023D01*
X104223809Y-48907023D01*
X104414285Y-48859404D01*
X104509523Y-48811785D01*
X104604761Y-48716547D01*
X104652380Y-48573690D01*
X104652380Y-48335595D01*
X103652380Y-49240357D02*
X103652380Y-49859404D01*
X104033333Y-49526071D01*
X104033333Y-49668928D01*
X104080952Y-49764166D01*
X104128571Y-49811785D01*
X104223809Y-49859404D01*
X104461904Y-49859404D01*
X104557142Y-49811785D01*
X104604761Y-49764166D01*
X104652380Y-49668928D01*
X104652380Y-49383214D01*
X104604761Y-49287976D01*
X104557142Y-49240357D01*
X107252380Y-48335595D02*
X106252380Y-48335595D01*
X106252380Y-48573690D01*
X106300000Y-48716547D01*
X106395238Y-48811785D01*
X106490476Y-48859404D01*
X106680952Y-48907023D01*
X106823809Y-48907023D01*
X107014285Y-48859404D01*
X107109523Y-48811785D01*
X107204761Y-48716547D01*
X107252380Y-48573690D01*
X107252380Y-48335595D01*
X106347619Y-49287976D02*
X106300000Y-49335595D01*
X106252380Y-49430833D01*
X106252380Y-49668928D01*
X106300000Y-49764166D01*
X106347619Y-49811785D01*
X106442857Y-49859404D01*
X106538095Y-49859404D01*
X106680952Y-49811785D01*
X107252380Y-49240357D01*
X107252380Y-49859404D01*
X102052380Y-48335595D02*
X101052380Y-48335595D01*
X101052380Y-48573690D01*
X101100000Y-48716547D01*
X101195238Y-48811785D01*
X101290476Y-48859404D01*
X101480952Y-48907023D01*
X101623809Y-48907023D01*
X101814285Y-48859404D01*
X101909523Y-48811785D01*
X102004761Y-48716547D01*
X102052380Y-48573690D01*
X102052380Y-48335595D01*
X101385714Y-49764166D02*
X102052380Y-49764166D01*
X101004761Y-49526071D02*
X101719047Y-49287976D01*
X101719047Y-49907023D01*
X118852380Y-48240357D02*
X119852380Y-48478452D01*
X119138095Y-48668928D01*
X119852380Y-48859404D01*
X118852380Y-49097500D01*
X119852380Y-50049880D02*
X119376190Y-49716547D01*
X119852380Y-49478452D02*
X118852380Y-49478452D01*
X118852380Y-49859404D01*
X118900000Y-49954642D01*
X118947619Y-50002261D01*
X119042857Y-50049880D01*
X119185714Y-50049880D01*
X119280952Y-50002261D01*
X119328571Y-49954642D01*
X119376190Y-49859404D01*
X119376190Y-49478452D01*
X119852380Y-51002261D02*
X119852380Y-50430833D01*
X119852380Y-50716547D02*
X118852380Y-50716547D01*
X118995238Y-50621309D01*
X119090476Y-50526071D01*
X119138095Y-50430833D01*
X121497618Y-48240357D02*
X122497618Y-48478452D01*
X121783333Y-48668928D01*
X122497618Y-48859404D01*
X121497618Y-49097500D01*
X122497618Y-50049880D02*
X122021428Y-49716547D01*
X122497618Y-49478452D02*
X121497618Y-49478452D01*
X121497618Y-49859404D01*
X121545238Y-49954642D01*
X121592857Y-50002261D01*
X121688095Y-50049880D01*
X121830952Y-50049880D01*
X121926190Y-50002261D01*
X121973809Y-49954642D01*
X122021428Y-49859404D01*
X122021428Y-49478452D01*
X121497618Y-50668928D02*
X121497618Y-50764166D01*
X121545238Y-50859404D01*
X121592857Y-50907023D01*
X121688095Y-50954642D01*
X121878571Y-51002261D01*
X122116666Y-51002261D01*
X122307142Y-50954642D01*
X122402380Y-50907023D01*
X122449999Y-50859404D01*
X122497618Y-50764166D01*
X122497618Y-50668928D01*
X122449999Y-50573690D01*
X122402380Y-50526071D01*
X122307142Y-50478452D01*
X122116666Y-50430833D01*
X121878571Y-50430833D01*
X121688095Y-50478452D01*
X121592857Y-50526071D01*
X121545238Y-50573690D01*
X121497618Y-50668928D01*
X85900000Y-48859404D02*
X85852380Y-48764166D01*
X85852380Y-48621309D01*
X85900000Y-48478452D01*
X85995238Y-48383214D01*
X86090476Y-48335595D01*
X86280952Y-48287976D01*
X86423809Y-48287976D01*
X86614285Y-48335595D01*
X86709523Y-48383214D01*
X86804761Y-48478452D01*
X86852380Y-48621309D01*
X86852380Y-48716547D01*
X86804761Y-48859404D01*
X86757142Y-48907023D01*
X86423809Y-48907023D01*
X86423809Y-48716547D01*
X86852380Y-49335595D02*
X85852380Y-49335595D01*
X86852380Y-49907023D01*
X85852380Y-49907023D01*
X86852380Y-50383214D02*
X85852380Y-50383214D01*
X85852380Y-50621309D01*
X85900000Y-50764166D01*
X85995238Y-50859404D01*
X86090476Y-50907023D01*
X86280952Y-50954642D01*
X86423809Y-50954642D01*
X86614285Y-50907023D01*
X86709523Y-50859404D01*
X86804761Y-50764166D01*
X86852380Y-50621309D01*
X86852380Y-50383214D01*
X109752380Y-48335595D02*
X108752380Y-48335595D01*
X108752380Y-48573690D01*
X108800000Y-48716547D01*
X108895238Y-48811785D01*
X108990476Y-48859404D01*
X109180952Y-48907023D01*
X109323809Y-48907023D01*
X109514285Y-48859404D01*
X109609523Y-48811785D01*
X109704761Y-48716547D01*
X109752380Y-48573690D01*
X109752380Y-48335595D01*
X109752380Y-49859404D02*
X109752380Y-49287976D01*
X109752380Y-49573690D02*
X108752380Y-49573690D01*
X108895238Y-49478452D01*
X108990476Y-49383214D01*
X109038095Y-49287976D01*
X99552380Y-48335595D02*
X98552380Y-48335595D01*
X98552380Y-48573690D01*
X98600000Y-48716547D01*
X98695238Y-48811785D01*
X98790476Y-48859404D01*
X98980952Y-48907023D01*
X99123809Y-48907023D01*
X99314285Y-48859404D01*
X99409523Y-48811785D01*
X99504761Y-48716547D01*
X99552380Y-48573690D01*
X99552380Y-48335595D01*
X98552380Y-49811785D02*
X98552380Y-49335595D01*
X99028571Y-49287976D01*
X98980952Y-49335595D01*
X98933333Y-49430833D01*
X98933333Y-49668928D01*
X98980952Y-49764166D01*
X99028571Y-49811785D01*
X99123809Y-49859404D01*
X99361904Y-49859404D01*
X99457142Y-49811785D01*
X99504761Y-49764166D01*
X99552380Y-49668928D01*
X99552380Y-49430833D01*
X99504761Y-49335595D01*
X99457142Y-49287976D01*
X181985000Y-48097500D02*
X181985000Y-49097500D01*
X183352380Y-48907023D02*
X182876190Y-48573690D01*
X183352380Y-48335595D02*
X182352380Y-48335595D01*
X182352380Y-48716547D01*
X182400000Y-48811785D01*
X182447619Y-48859404D01*
X182542857Y-48907023D01*
X182685714Y-48907023D01*
X182780952Y-48859404D01*
X182828571Y-48811785D01*
X182876190Y-48716547D01*
X182876190Y-48335595D01*
X181985000Y-49097500D02*
X181985000Y-50049880D01*
X183304761Y-49287976D02*
X183352380Y-49430833D01*
X183352380Y-49668928D01*
X183304761Y-49764166D01*
X183257142Y-49811785D01*
X183161904Y-49859404D01*
X183066666Y-49859404D01*
X182971428Y-49811785D01*
X182923809Y-49764166D01*
X182876190Y-49668928D01*
X182828571Y-49478452D01*
X182780952Y-49383214D01*
X182733333Y-49335595D01*
X182638095Y-49287976D01*
X182542857Y-49287976D01*
X182447619Y-49335595D01*
X182400000Y-49383214D01*
X182352380Y-49478452D01*
X182352380Y-49716547D01*
X182400000Y-49859404D01*
X181985000Y-50049880D02*
X181985000Y-50811785D01*
X182352380Y-50145119D02*
X182352380Y-50716547D01*
X183352380Y-50430833D02*
X182352380Y-50430833D01*
X185571428Y-48335595D02*
X185571428Y-49097500D01*
X185952380Y-48716547D02*
X185190476Y-48716547D01*
X184952380Y-50049880D02*
X184952380Y-49573690D01*
X185428571Y-49526071D01*
X185380952Y-49573690D01*
X185333333Y-49668928D01*
X185333333Y-49907023D01*
X185380952Y-50002261D01*
X185428571Y-50049880D01*
X185523809Y-50097500D01*
X185761904Y-50097500D01*
X185857142Y-50049880D01*
X185904761Y-50002261D01*
X185952380Y-49907023D01*
X185952380Y-49668928D01*
X185904761Y-49573690D01*
X185857142Y-49526071D01*
X184952380Y-50383214D02*
X185952380Y-50716547D01*
X184952380Y-51049880D01*
X86900000Y-133340595D02*
X86947619Y-133435833D01*
X86947619Y-133578690D01*
X86900000Y-133721547D01*
X86804761Y-133816785D01*
X86709523Y-133864404D01*
X86519047Y-133912023D01*
X86376190Y-133912023D01*
X86185714Y-133864404D01*
X86090476Y-133816785D01*
X85995238Y-133721547D01*
X85947619Y-133578690D01*
X85947619Y-133483452D01*
X85995238Y-133340595D01*
X86042857Y-133292976D01*
X86376190Y-133292976D01*
X86376190Y-133483452D01*
X85947619Y-132864404D02*
X86947619Y-132864404D01*
X85947619Y-132292976D01*
X86947619Y-132292976D01*
X85947619Y-131816785D02*
X86947619Y-131816785D01*
X86947619Y-131578690D01*
X86900000Y-131435833D01*
X86804761Y-131340595D01*
X86709523Y-131292976D01*
X86519047Y-131245357D01*
X86376190Y-131245357D01*
X86185714Y-131292976D01*
X86090476Y-131340595D01*
X85995238Y-131435833D01*
X85947619Y-131578690D01*
X85947619Y-131816785D01*
X185428571Y-133864404D02*
X185428571Y-133102500D01*
X185047619Y-133483452D02*
X185809523Y-133483452D01*
X186047619Y-132150119D02*
X186047619Y-132626309D01*
X185571428Y-132673928D01*
X185619047Y-132626309D01*
X185666666Y-132531071D01*
X185666666Y-132292976D01*
X185619047Y-132197738D01*
X185571428Y-132150119D01*
X185476190Y-132102500D01*
X185238095Y-132102500D01*
X185142857Y-132150119D01*
X185095238Y-132197738D01*
X185047619Y-132292976D01*
X185047619Y-132531071D01*
X185095238Y-132626309D01*
X185142857Y-132673928D01*
X186047619Y-131816785D02*
X185047619Y-131483452D01*
X186047619Y-131150119D01*
X114847619Y-133959642D02*
X113847619Y-133721547D01*
X114561904Y-133531071D01*
X113847619Y-133340595D01*
X114847619Y-133102500D01*
X113847619Y-132150119D02*
X114323809Y-132483452D01*
X113847619Y-132721547D02*
X114847619Y-132721547D01*
X114847619Y-132340595D01*
X114800000Y-132245357D01*
X114752380Y-132197738D01*
X114657142Y-132150119D01*
X114514285Y-132150119D01*
X114419047Y-132197738D01*
X114371428Y-132245357D01*
X114323809Y-132340595D01*
X114323809Y-132721547D01*
X114847619Y-131816785D02*
X114847619Y-131197738D01*
X114466666Y-131531071D01*
X114466666Y-131388214D01*
X114419047Y-131292976D01*
X114371428Y-131245357D01*
X114276190Y-131197738D01*
X114038095Y-131197738D01*
X113942857Y-131245357D01*
X113895238Y-131292976D01*
X113847619Y-131388214D01*
X113847619Y-131673928D01*
X113895238Y-131769166D01*
X113942857Y-131816785D01*
X93547619Y-133864404D02*
X94547619Y-133864404D01*
X94547619Y-133626309D01*
X94500000Y-133483452D01*
X94404761Y-133388214D01*
X94309523Y-133340595D01*
X94119047Y-133292976D01*
X93976190Y-133292976D01*
X93785714Y-133340595D01*
X93690476Y-133388214D01*
X93595238Y-133483452D01*
X93547619Y-133626309D01*
X93547619Y-133864404D01*
X94547619Y-132959642D02*
X94547619Y-132292976D01*
X93547619Y-132721547D01*
X106247619Y-133864404D02*
X107247619Y-133864404D01*
X107247619Y-133626309D01*
X107200000Y-133483452D01*
X107104761Y-133388214D01*
X107009523Y-133340595D01*
X106819047Y-133292976D01*
X106676190Y-133292976D01*
X106485714Y-133340595D01*
X106390476Y-133388214D01*
X106295238Y-133483452D01*
X106247619Y-133626309D01*
X106247619Y-133864404D01*
X107152380Y-132912023D02*
X107200000Y-132864404D01*
X107247619Y-132769166D01*
X107247619Y-132531071D01*
X107200000Y-132435833D01*
X107152380Y-132388214D01*
X107057142Y-132340595D01*
X106961904Y-132340595D01*
X106819047Y-132388214D01*
X106247619Y-132959642D01*
X106247619Y-132340595D01*
X98647619Y-133864404D02*
X99647619Y-133864404D01*
X99647619Y-133626309D01*
X99600000Y-133483452D01*
X99504761Y-133388214D01*
X99409523Y-133340595D01*
X99219047Y-133292976D01*
X99076190Y-133292976D01*
X98885714Y-133340595D01*
X98790476Y-133388214D01*
X98695238Y-133483452D01*
X98647619Y-133626309D01*
X98647619Y-133864404D01*
X99647619Y-132388214D02*
X99647619Y-132864404D01*
X99171428Y-132912023D01*
X99219047Y-132864404D01*
X99266666Y-132769166D01*
X99266666Y-132531071D01*
X99219047Y-132435833D01*
X99171428Y-132388214D01*
X99076190Y-132340595D01*
X98838095Y-132340595D01*
X98742857Y-132388214D01*
X98695238Y-132435833D01*
X98647619Y-132531071D01*
X98647619Y-132769166D01*
X98695238Y-132864404D01*
X98742857Y-132912023D01*
X183715000Y-134102500D02*
X183715000Y-133102500D01*
X182347619Y-133292976D02*
X182823809Y-133626309D01*
X182347619Y-133864404D02*
X183347619Y-133864404D01*
X183347619Y-133483452D01*
X183300000Y-133388214D01*
X183252380Y-133340595D01*
X183157142Y-133292976D01*
X183014285Y-133292976D01*
X182919047Y-133340595D01*
X182871428Y-133388214D01*
X182823809Y-133483452D01*
X182823809Y-133864404D01*
X183715000Y-133102500D02*
X183715000Y-132150119D01*
X182395238Y-132912023D02*
X182347619Y-132769166D01*
X182347619Y-132531071D01*
X182395238Y-132435833D01*
X182442857Y-132388214D01*
X182538095Y-132340595D01*
X182633333Y-132340595D01*
X182728571Y-132388214D01*
X182776190Y-132435833D01*
X182823809Y-132531071D01*
X182871428Y-132721547D01*
X182919047Y-132816785D01*
X182966666Y-132864404D01*
X183061904Y-132912023D01*
X183157142Y-132912023D01*
X183252380Y-132864404D01*
X183300000Y-132816785D01*
X183347619Y-132721547D01*
X183347619Y-132483452D01*
X183300000Y-132340595D01*
X183715000Y-132150119D02*
X183715000Y-131388214D01*
X183347619Y-132054880D02*
X183347619Y-131483452D01*
X182347619Y-131769166D02*
X183347619Y-131769166D01*
X122547619Y-133959642D02*
X121547619Y-133721547D01*
X122261904Y-133531071D01*
X121547619Y-133340595D01*
X122547619Y-133102500D01*
X121547619Y-132150119D02*
X122023809Y-132483452D01*
X121547619Y-132721547D02*
X122547619Y-132721547D01*
X122547619Y-132340595D01*
X122500000Y-132245357D01*
X122452380Y-132197738D01*
X122357142Y-132150119D01*
X122214285Y-132150119D01*
X122119047Y-132197738D01*
X122071428Y-132245357D01*
X122023809Y-132340595D01*
X122023809Y-132721547D01*
X122547619Y-131531071D02*
X122547619Y-131435833D01*
X122500000Y-131340595D01*
X122452380Y-131292976D01*
X122357142Y-131245357D01*
X122166666Y-131197738D01*
X121928571Y-131197738D01*
X121738095Y-131245357D01*
X121642857Y-131292976D01*
X121595238Y-131340595D01*
X121547619Y-131435833D01*
X121547619Y-131531071D01*
X121595238Y-131626309D01*
X121642857Y-131673928D01*
X121738095Y-131721547D01*
X121928571Y-131769166D01*
X122166666Y-131769166D01*
X122357142Y-131721547D01*
X122452380Y-131673928D01*
X122500000Y-131626309D01*
X122547619Y-131531071D01*
X108747619Y-133864404D02*
X109747619Y-133864404D01*
X109747619Y-133626309D01*
X109700000Y-133483452D01*
X109604761Y-133388214D01*
X109509523Y-133340595D01*
X109319047Y-133292976D01*
X109176190Y-133292976D01*
X108985714Y-133340595D01*
X108890476Y-133388214D01*
X108795238Y-133483452D01*
X108747619Y-133626309D01*
X108747619Y-133864404D01*
X108747619Y-132340595D02*
X108747619Y-132912023D01*
X108747619Y-132626309D02*
X109747619Y-132626309D01*
X109604761Y-132721547D01*
X109509523Y-132816785D01*
X109461904Y-132912023D01*
X119947619Y-133959642D02*
X118947619Y-133721547D01*
X119661904Y-133531071D01*
X118947619Y-133340595D01*
X119947619Y-133102500D01*
X118947619Y-132150119D02*
X119423809Y-132483452D01*
X118947619Y-132721547D02*
X119947619Y-132721547D01*
X119947619Y-132340595D01*
X119900000Y-132245357D01*
X119852380Y-132197738D01*
X119757142Y-132150119D01*
X119614285Y-132150119D01*
X119519047Y-132197738D01*
X119471428Y-132245357D01*
X119423809Y-132340595D01*
X119423809Y-132721547D01*
X118947619Y-131197738D02*
X118947619Y-131769166D01*
X118947619Y-131483452D02*
X119947619Y-131483452D01*
X119804761Y-131578690D01*
X119709523Y-131673928D01*
X119661904Y-131769166D01*
X96047619Y-133864404D02*
X97047619Y-133864404D01*
X97047619Y-133626309D01*
X97000000Y-133483452D01*
X96904761Y-133388214D01*
X96809523Y-133340595D01*
X96619047Y-133292976D01*
X96476190Y-133292976D01*
X96285714Y-133340595D01*
X96190476Y-133388214D01*
X96095238Y-133483452D01*
X96047619Y-133626309D01*
X96047619Y-133864404D01*
X97047619Y-132435833D02*
X97047619Y-132626309D01*
X97000000Y-132721547D01*
X96952380Y-132769166D01*
X96809523Y-132864404D01*
X96619047Y-132912023D01*
X96238095Y-132912023D01*
X96142857Y-132864404D01*
X96095238Y-132816785D01*
X96047619Y-132721547D01*
X96047619Y-132531071D01*
X96095238Y-132435833D01*
X96142857Y-132388214D01*
X96238095Y-132340595D01*
X96476190Y-132340595D01*
X96571428Y-132388214D01*
X96619047Y-132435833D01*
X96666666Y-132531071D01*
X96666666Y-132721547D01*
X96619047Y-132816785D01*
X96571428Y-132864404D01*
X96476190Y-132912023D01*
X117447619Y-133959642D02*
X116447619Y-133721547D01*
X117161904Y-133531071D01*
X116447619Y-133340595D01*
X117447619Y-133102500D01*
X116447619Y-132150119D02*
X116923809Y-132483452D01*
X116447619Y-132721547D02*
X117447619Y-132721547D01*
X117447619Y-132340595D01*
X117400000Y-132245357D01*
X117352380Y-132197738D01*
X117257142Y-132150119D01*
X117114285Y-132150119D01*
X117019047Y-132197738D01*
X116971428Y-132245357D01*
X116923809Y-132340595D01*
X116923809Y-132721547D01*
X117352380Y-131769166D02*
X117400000Y-131721547D01*
X117447619Y-131626309D01*
X117447619Y-131388214D01*
X117400000Y-131292976D01*
X117352380Y-131245357D01*
X117257142Y-131197738D01*
X117161904Y-131197738D01*
X117019047Y-131245357D01*
X116447619Y-131816785D01*
X116447619Y-131197738D01*
X111347619Y-133864404D02*
X112347619Y-133864404D01*
X112347619Y-133626309D01*
X112300000Y-133483452D01*
X112204761Y-133388214D01*
X112109523Y-133340595D01*
X111919047Y-133292976D01*
X111776190Y-133292976D01*
X111585714Y-133340595D01*
X111490476Y-133388214D01*
X111395238Y-133483452D01*
X111347619Y-133626309D01*
X111347619Y-133864404D01*
X112347619Y-132673928D02*
X112347619Y-132578690D01*
X112300000Y-132483452D01*
X112252380Y-132435833D01*
X112157142Y-132388214D01*
X111966666Y-132340595D01*
X111728571Y-132340595D01*
X111538095Y-132388214D01*
X111442857Y-132435833D01*
X111395238Y-132483452D01*
X111347619Y-132578690D01*
X111347619Y-132673928D01*
X111395238Y-132769166D01*
X111442857Y-132816785D01*
X111538095Y-132864404D01*
X111728571Y-132912023D01*
X111966666Y-132912023D01*
X112157142Y-132864404D01*
X112252380Y-132816785D01*
X112300000Y-132769166D01*
X112347619Y-132673928D01*
X101147619Y-133864404D02*
X102147619Y-133864404D01*
X102147619Y-133626309D01*
X102100000Y-133483452D01*
X102004761Y-133388214D01*
X101909523Y-133340595D01*
X101719047Y-133292976D01*
X101576190Y-133292976D01*
X101385714Y-133340595D01*
X101290476Y-133388214D01*
X101195238Y-133483452D01*
X101147619Y-133626309D01*
X101147619Y-133864404D01*
X101814285Y-132435833D02*
X101147619Y-132435833D01*
X102195238Y-132673928D02*
X101480952Y-132912023D01*
X101480952Y-132292976D01*
X103747619Y-133864404D02*
X104747619Y-133864404D01*
X104747619Y-133626309D01*
X104700000Y-133483452D01*
X104604761Y-133388214D01*
X104509523Y-133340595D01*
X104319047Y-133292976D01*
X104176190Y-133292976D01*
X103985714Y-133340595D01*
X103890476Y-133388214D01*
X103795238Y-133483452D01*
X103747619Y-133626309D01*
X103747619Y-133864404D01*
X104747619Y-132959642D02*
X104747619Y-132340595D01*
X104366666Y-132673928D01*
X104366666Y-132531071D01*
X104319047Y-132435833D01*
X104271428Y-132388214D01*
X104176190Y-132340595D01*
X103938095Y-132340595D01*
X103842857Y-132388214D01*
X103795238Y-132435833D01*
X103747619Y-132531071D01*
X103747619Y-132816785D01*
X103795238Y-132912023D01*
X103842857Y-132959642D01*
D11*
X186790000Y-134670000D02*
X186790000Y-137330000D01*
X87670000Y-134670000D02*
X186790000Y-134670000D01*
X87670000Y-137330000D02*
X186790000Y-137330000D01*
X87670000Y-134670000D02*
X87670000Y-137330000D01*
X86400000Y-134670000D02*
X85070000Y-134670000D01*
X85070000Y-134670000D02*
X85070000Y-136000000D01*
X186790000Y-44670000D02*
X186790000Y-47330000D01*
X87670000Y-44670000D02*
X186790000Y-44670000D01*
X87670000Y-47330000D02*
X186790000Y-47330000D01*
X87670000Y-44670000D02*
X87670000Y-47330000D01*
X86400000Y-44670000D02*
X85070000Y-44670000D01*
X85070000Y-44670000D02*
X85070000Y-46000000D01*
D10*
X83522380Y-135666666D02*
X84236666Y-135666666D01*
X84379523Y-135619047D01*
X84474761Y-135523809D01*
X84522380Y-135380952D01*
X84522380Y-135285714D01*
X83617619Y-136095238D02*
X83570000Y-136142857D01*
X83522380Y-136238095D01*
X83522380Y-136476190D01*
X83570000Y-136571428D01*
X83617619Y-136619047D01*
X83712857Y-136666666D01*
X83808095Y-136666666D01*
X83950952Y-136619047D01*
X84522380Y-136047619D01*
X84522380Y-136666666D01*
X83522380Y-45666666D02*
X84236666Y-45666666D01*
X84379523Y-45619047D01*
X84474761Y-45523809D01*
X84522380Y-45380952D01*
X84522380Y-45285714D01*
X84522380Y-46666666D02*
X84522380Y-46095238D01*
X84522380Y-46380952D02*
X83522380Y-46380952D01*
X83665238Y-46285714D01*
X83760476Y-46190476D01*
X83808095Y-46095238D01*
%LPC*%
D12*
X146500000Y-98740000D03*
D13*
X146500000Y-96200000D03*
D12*
X93200000Y-98740000D03*
D13*
X93200000Y-96200000D03*
D14*
X165200000Y-103900000D03*
X165200000Y-101400000D03*
D15*
X165200000Y-98900000D03*
D14*
X173300000Y-103900000D03*
X173300000Y-101400000D03*
D15*
X173300000Y-98900000D03*
D16*
X168400000Y-69420000D03*
X150620000Y-61800000D03*
X165860000Y-69420000D03*
X153160000Y-61800000D03*
X163320000Y-69420000D03*
X155700000Y-61800000D03*
X160780000Y-69420000D03*
X158240000Y-61800000D03*
X158240000Y-69420000D03*
X160780000Y-61800000D03*
X155700000Y-69420000D03*
X163320000Y-61800000D03*
X153160000Y-69420000D03*
X165860000Y-61800000D03*
X150620000Y-69420000D03*
D17*
X168400000Y-61800000D03*
D16*
X96300000Y-61780000D03*
X129320000Y-69400000D03*
X98840000Y-61780000D03*
X126780000Y-69400000D03*
X101380000Y-61780000D03*
X124240000Y-69400000D03*
X103920000Y-61780000D03*
X121700000Y-69400000D03*
X106460000Y-61780000D03*
X119160000Y-69400000D03*
X109000000Y-61780000D03*
X116620000Y-69400000D03*
X111540000Y-61780000D03*
X114080000Y-69400000D03*
X114080000Y-61780000D03*
X111540000Y-69400000D03*
X116620000Y-61780000D03*
X109000000Y-69400000D03*
X119160000Y-61780000D03*
X106460000Y-69400000D03*
X121700000Y-61780000D03*
X103920000Y-69400000D03*
X124240000Y-61780000D03*
X101380000Y-69400000D03*
X126780000Y-61780000D03*
X98840000Y-69400000D03*
X129320000Y-61780000D03*
D17*
X96300000Y-69400000D03*
D12*
X133800000Y-119100000D03*
X131260000Y-119100000D03*
X128720000Y-119100000D03*
X126180000Y-119100000D03*
X123640000Y-119100000D03*
X121100000Y-119100000D03*
X118560000Y-119100000D03*
X116020000Y-119100000D03*
X113480000Y-119100000D03*
X110940000Y-119100000D03*
X108400000Y-119100000D03*
D13*
X105860000Y-119100000D03*
D12*
X95840000Y-83280000D03*
X93300000Y-83280000D03*
X95840000Y-80740000D03*
X93300000Y-80740000D03*
X95840000Y-78200000D03*
D13*
X93300000Y-78200000D03*
D12*
X185460000Y-136000000D03*
X182920000Y-136000000D03*
X180380000Y-136000000D03*
X177840000Y-136000000D03*
X175300000Y-136000000D03*
X172760000Y-136000000D03*
X170220000Y-136000000D03*
X167680000Y-136000000D03*
X165140000Y-136000000D03*
X162600000Y-136000000D03*
X160060000Y-136000000D03*
X157520000Y-136000000D03*
X154980000Y-136000000D03*
X152440000Y-136000000D03*
X149900000Y-136000000D03*
X147360000Y-136000000D03*
X144820000Y-136000000D03*
X142280000Y-136000000D03*
X139740000Y-136000000D03*
X137200000Y-136000000D03*
X134660000Y-136000000D03*
X132120000Y-136000000D03*
X129580000Y-136000000D03*
X127040000Y-136000000D03*
X124500000Y-136000000D03*
X121960000Y-136000000D03*
X119420000Y-136000000D03*
X116880000Y-136000000D03*
X114340000Y-136000000D03*
X111800000Y-136000000D03*
X109260000Y-136000000D03*
X106720000Y-136000000D03*
X104180000Y-136000000D03*
X101640000Y-136000000D03*
X99100000Y-136000000D03*
X96560000Y-136000000D03*
X94020000Y-136000000D03*
X91480000Y-136000000D03*
X88940000Y-136000000D03*
D13*
X86400000Y-136000000D03*
D12*
X185460000Y-46000000D03*
X182920000Y-46000000D03*
X180380000Y-46000000D03*
X177840000Y-46000000D03*
X175300000Y-46000000D03*
X172760000Y-46000000D03*
X170220000Y-46000000D03*
X167680000Y-46000000D03*
X165140000Y-46000000D03*
X162600000Y-46000000D03*
X160060000Y-46000000D03*
X157520000Y-46000000D03*
X154980000Y-46000000D03*
X152440000Y-46000000D03*
X149900000Y-46000000D03*
X147360000Y-46000000D03*
X144820000Y-46000000D03*
X142280000Y-46000000D03*
X139740000Y-46000000D03*
X137200000Y-46000000D03*
X134660000Y-46000000D03*
X132120000Y-46000000D03*
X129580000Y-46000000D03*
X127040000Y-46000000D03*
X124500000Y-46000000D03*
X121960000Y-46000000D03*
X119420000Y-46000000D03*
X116880000Y-46000000D03*
X114340000Y-46000000D03*
X111800000Y-46000000D03*
X109260000Y-46000000D03*
X106720000Y-46000000D03*
X104180000Y-46000000D03*
X101640000Y-46000000D03*
X99100000Y-46000000D03*
X96560000Y-46000000D03*
X94020000Y-46000000D03*
X91480000Y-46000000D03*
X88940000Y-46000000D03*
D13*
X86400000Y-46000000D03*
M02*
