G04 #@! TF.GenerationSoftware,KiCad,Pcbnew,(5.1.9)-1*
G04 #@! TF.CreationDate,2022-07-23T12:09:39-04:00*
G04 #@! TF.ProjectId,alu,616c752e-6b69-4636-9164-5f7063625858,1.0*
G04 #@! TF.SameCoordinates,Original*
G04 #@! TF.FileFunction,Soldermask,Top*
G04 #@! TF.FilePolarity,Negative*
%FSLAX46Y46*%
G04 Gerber Fmt 4.6, Leading zero omitted, Abs format (unit mm)*
G04 Created by KiCad (PCBNEW (5.1.9)-1) date 2022-07-23 12:09:39*
%MOMM*%
%LPD*%
G01*
G04 APERTURE LIST*
%ADD10O,1.700000X1.700000*%
%ADD11R,1.700000X1.700000*%
%ADD12O,1.600000X1.600000*%
%ADD13R,1.600000X1.600000*%
G04 APERTURE END LIST*
G36*
G01*
X135445000Y-48504999D02*
X135445000Y-49405001D01*
G75*
G02*
X135195001Y-49655000I-249999J0D01*
G01*
X134494999Y-49655000D01*
G75*
G02*
X134245000Y-49405001I0J249999D01*
G01*
X134245000Y-48504999D01*
G75*
G02*
X134494999Y-48255000I249999J0D01*
G01*
X135195001Y-48255000D01*
G75*
G02*
X135445000Y-48504999I0J-249999D01*
G01*
G37*
G36*
G01*
X137445000Y-48504999D02*
X137445000Y-49405001D01*
G75*
G02*
X137195001Y-49655000I-249999J0D01*
G01*
X136494999Y-49655000D01*
G75*
G02*
X136245000Y-49405001I0J249999D01*
G01*
X136245000Y-48504999D01*
G75*
G02*
X136494999Y-48255000I249999J0D01*
G01*
X137195001Y-48255000D01*
G75*
G02*
X137445000Y-48504999I0J-249999D01*
G01*
G37*
G36*
G01*
X131550000Y-49450001D02*
X131550000Y-48549999D01*
G75*
G02*
X131799999Y-48300000I249999J0D01*
G01*
X132450001Y-48300000D01*
G75*
G02*
X132700000Y-48549999I0J-249999D01*
G01*
X132700000Y-49450001D01*
G75*
G02*
X132450001Y-49700000I-249999J0D01*
G01*
X131799999Y-49700000D01*
G75*
G02*
X131550000Y-49450001I0J249999D01*
G01*
G37*
G36*
G01*
X129500000Y-49450001D02*
X129500000Y-48549999D01*
G75*
G02*
X129749999Y-48300000I249999J0D01*
G01*
X130400001Y-48300000D01*
G75*
G02*
X130650000Y-48549999I0J-249999D01*
G01*
X130650000Y-49450001D01*
G75*
G02*
X130400001Y-49700000I-249999J0D01*
G01*
X129749999Y-49700000D01*
G75*
G02*
X129500000Y-49450001I0J249999D01*
G01*
G37*
D10*
X88960000Y-75380000D03*
X91500000Y-75380000D03*
X88960000Y-72840000D03*
X91500000Y-72840000D03*
X88960000Y-70300000D03*
X91500000Y-70300000D03*
X88960000Y-67760000D03*
X91500000Y-67760000D03*
X88960000Y-65220000D03*
X91500000Y-65220000D03*
X88960000Y-62680000D03*
X91500000Y-62680000D03*
X88960000Y-60140000D03*
X91500000Y-60140000D03*
X88960000Y-57600000D03*
D11*
X91500000Y-57600000D03*
D10*
X182900000Y-75380000D03*
X182900000Y-72840000D03*
X182900000Y-70300000D03*
X182900000Y-67760000D03*
X182900000Y-65220000D03*
X182900000Y-62680000D03*
X182900000Y-60140000D03*
D11*
X182900000Y-57600000D03*
G36*
G01*
X97175000Y-52450000D02*
X96225000Y-52450000D01*
G75*
G02*
X95975000Y-52200000I0J250000D01*
G01*
X95975000Y-51525000D01*
G75*
G02*
X96225000Y-51275000I250000J0D01*
G01*
X97175000Y-51275000D01*
G75*
G02*
X97425000Y-51525000I0J-250000D01*
G01*
X97425000Y-52200000D01*
G75*
G02*
X97175000Y-52450000I-250000J0D01*
G01*
G37*
G36*
G01*
X97175000Y-54525000D02*
X96225000Y-54525000D01*
G75*
G02*
X95975000Y-54275000I0J250000D01*
G01*
X95975000Y-53600000D01*
G75*
G02*
X96225000Y-53350000I250000J0D01*
G01*
X97175000Y-53350000D01*
G75*
G02*
X97425000Y-53600000I0J-250000D01*
G01*
X97425000Y-54275000D01*
G75*
G02*
X97175000Y-54525000I-250000J0D01*
G01*
G37*
D12*
X125140000Y-71800000D03*
X109900000Y-99740000D03*
X125140000Y-74340000D03*
X109900000Y-97200000D03*
X125140000Y-76880000D03*
X109900000Y-94660000D03*
X125140000Y-79420000D03*
X109900000Y-92120000D03*
X125140000Y-81960000D03*
X109900000Y-89580000D03*
X125140000Y-84500000D03*
X109900000Y-87040000D03*
X125140000Y-87040000D03*
X109900000Y-84500000D03*
X125140000Y-89580000D03*
X109900000Y-81960000D03*
X125140000Y-92120000D03*
X109900000Y-79420000D03*
X125140000Y-94660000D03*
X109900000Y-76880000D03*
X125140000Y-97200000D03*
X109900000Y-74340000D03*
X125140000Y-99740000D03*
D13*
X109900000Y-71800000D03*
D10*
X182900000Y-124380000D03*
X182900000Y-121840000D03*
X182900000Y-119300000D03*
X182900000Y-116760000D03*
X182900000Y-114220000D03*
X182900000Y-111680000D03*
X182900000Y-109140000D03*
D11*
X182900000Y-106600000D03*
D12*
X100800000Y-51780000D03*
X123660000Y-59400000D03*
X103340000Y-51780000D03*
X121120000Y-59400000D03*
X105880000Y-51780000D03*
X118580000Y-59400000D03*
X108420000Y-51780000D03*
X116040000Y-59400000D03*
X110960000Y-51780000D03*
X113500000Y-59400000D03*
X113500000Y-51780000D03*
X110960000Y-59400000D03*
X116040000Y-51780000D03*
X108420000Y-59400000D03*
X118580000Y-51780000D03*
X105880000Y-59400000D03*
X121120000Y-51780000D03*
X103340000Y-59400000D03*
X123660000Y-51780000D03*
D13*
X100800000Y-59400000D03*
D12*
X101800000Y-110980000D03*
X124660000Y-118600000D03*
X104340000Y-110980000D03*
X122120000Y-118600000D03*
X106880000Y-110980000D03*
X119580000Y-118600000D03*
X109420000Y-110980000D03*
X117040000Y-118600000D03*
X111960000Y-110980000D03*
X114500000Y-118600000D03*
X114500000Y-110980000D03*
X111960000Y-118600000D03*
X117040000Y-110980000D03*
X109420000Y-118600000D03*
X119580000Y-110980000D03*
X106880000Y-118600000D03*
X122120000Y-110980000D03*
X104340000Y-118600000D03*
X124660000Y-110980000D03*
D13*
X101800000Y-118600000D03*
D12*
X152440000Y-71800000D03*
X137200000Y-99740000D03*
X152440000Y-74340000D03*
X137200000Y-97200000D03*
X152440000Y-76880000D03*
X137200000Y-94660000D03*
X152440000Y-79420000D03*
X137200000Y-92120000D03*
X152440000Y-81960000D03*
X137200000Y-89580000D03*
X152440000Y-84500000D03*
X137200000Y-87040000D03*
X152440000Y-87040000D03*
X137200000Y-84500000D03*
X152440000Y-89580000D03*
X137200000Y-81960000D03*
X152440000Y-92120000D03*
X137200000Y-79420000D03*
X152440000Y-94660000D03*
X137200000Y-76880000D03*
X152440000Y-97200000D03*
X137200000Y-74340000D03*
X152440000Y-99740000D03*
D13*
X137200000Y-71800000D03*
D12*
X101800000Y-122180000D03*
X124660000Y-129800000D03*
X104340000Y-122180000D03*
X122120000Y-129800000D03*
X106880000Y-122180000D03*
X119580000Y-129800000D03*
X109420000Y-122180000D03*
X117040000Y-129800000D03*
X111960000Y-122180000D03*
X114500000Y-129800000D03*
X114500000Y-122180000D03*
X111960000Y-129800000D03*
X117040000Y-122180000D03*
X109420000Y-129800000D03*
X119580000Y-122180000D03*
X106880000Y-129800000D03*
X122120000Y-122180000D03*
X104340000Y-129800000D03*
X124660000Y-122180000D03*
D13*
X101800000Y-129800000D03*
D12*
X171520000Y-109000000D03*
X163900000Y-126780000D03*
X171520000Y-111540000D03*
X163900000Y-124240000D03*
X171520000Y-114080000D03*
X163900000Y-121700000D03*
X171520000Y-116620000D03*
X163900000Y-119160000D03*
X171520000Y-119160000D03*
X163900000Y-116620000D03*
X171520000Y-121700000D03*
X163900000Y-114080000D03*
X171520000Y-124240000D03*
X163900000Y-111540000D03*
X171520000Y-126780000D03*
D13*
X163900000Y-109000000D03*
D12*
X158520000Y-109000000D03*
X150900000Y-126780000D03*
X158520000Y-111540000D03*
X150900000Y-124240000D03*
X158520000Y-114080000D03*
X150900000Y-121700000D03*
X158520000Y-116620000D03*
X150900000Y-119160000D03*
X158520000Y-119160000D03*
X150900000Y-116620000D03*
X158520000Y-121700000D03*
X150900000Y-114080000D03*
X158520000Y-124240000D03*
X150900000Y-111540000D03*
X158520000Y-126780000D03*
D13*
X150900000Y-109000000D03*
D12*
X171320000Y-79300000D03*
X163700000Y-94540000D03*
X171320000Y-81840000D03*
X163700000Y-92000000D03*
X171320000Y-84380000D03*
X163700000Y-89460000D03*
X171320000Y-86920000D03*
X163700000Y-86920000D03*
X171320000Y-89460000D03*
X163700000Y-84380000D03*
X171320000Y-92000000D03*
X163700000Y-81840000D03*
X171320000Y-94540000D03*
D13*
X163700000Y-79300000D03*
G36*
G01*
X137100000Y-60450001D02*
X137100000Y-59549999D01*
G75*
G02*
X137349999Y-59300000I249999J0D01*
G01*
X138050001Y-59300000D01*
G75*
G02*
X138300000Y-59549999I0J-249999D01*
G01*
X138300000Y-60450001D01*
G75*
G02*
X138050001Y-60700000I-249999J0D01*
G01*
X137349999Y-60700000D01*
G75*
G02*
X137100000Y-60450001I0J249999D01*
G01*
G37*
G36*
G01*
X135100000Y-60450001D02*
X135100000Y-59549999D01*
G75*
G02*
X135349999Y-59300000I249999J0D01*
G01*
X136050001Y-59300000D01*
G75*
G02*
X136300000Y-59549999I0J-249999D01*
G01*
X136300000Y-60450001D01*
G75*
G02*
X136050001Y-60700000I-249999J0D01*
G01*
X135349999Y-60700000D01*
G75*
G02*
X135100000Y-60450001I0J249999D01*
G01*
G37*
G36*
G01*
X142200000Y-60450001D02*
X142200000Y-59549999D01*
G75*
G02*
X142449999Y-59300000I249999J0D01*
G01*
X143150001Y-59300000D01*
G75*
G02*
X143400000Y-59549999I0J-249999D01*
G01*
X143400000Y-60450001D01*
G75*
G02*
X143150001Y-60700000I-249999J0D01*
G01*
X142449999Y-60700000D01*
G75*
G02*
X142200000Y-60450001I0J249999D01*
G01*
G37*
G36*
G01*
X140200000Y-60450001D02*
X140200000Y-59549999D01*
G75*
G02*
X140449999Y-59300000I249999J0D01*
G01*
X141150001Y-59300000D01*
G75*
G02*
X141400000Y-59549999I0J-249999D01*
G01*
X141400000Y-60450001D01*
G75*
G02*
X141150001Y-60700000I-249999J0D01*
G01*
X140449999Y-60700000D01*
G75*
G02*
X140200000Y-60450001I0J249999D01*
G01*
G37*
G36*
G01*
X147300000Y-60450001D02*
X147300000Y-59549999D01*
G75*
G02*
X147549999Y-59300000I249999J0D01*
G01*
X148250001Y-59300000D01*
G75*
G02*
X148500000Y-59549999I0J-249999D01*
G01*
X148500000Y-60450001D01*
G75*
G02*
X148250001Y-60700000I-249999J0D01*
G01*
X147549999Y-60700000D01*
G75*
G02*
X147300000Y-60450001I0J249999D01*
G01*
G37*
G36*
G01*
X145300000Y-60450001D02*
X145300000Y-59549999D01*
G75*
G02*
X145549999Y-59300000I249999J0D01*
G01*
X146250001Y-59300000D01*
G75*
G02*
X146500000Y-59549999I0J-249999D01*
G01*
X146500000Y-60450001D01*
G75*
G02*
X146250001Y-60700000I-249999J0D01*
G01*
X145549999Y-60700000D01*
G75*
G02*
X145300000Y-60450001I0J249999D01*
G01*
G37*
G36*
G01*
X152400000Y-60450001D02*
X152400000Y-59549999D01*
G75*
G02*
X152649999Y-59300000I249999J0D01*
G01*
X153350001Y-59300000D01*
G75*
G02*
X153600000Y-59549999I0J-249999D01*
G01*
X153600000Y-60450001D01*
G75*
G02*
X153350001Y-60700000I-249999J0D01*
G01*
X152649999Y-60700000D01*
G75*
G02*
X152400000Y-60450001I0J249999D01*
G01*
G37*
G36*
G01*
X150400000Y-60450001D02*
X150400000Y-59549999D01*
G75*
G02*
X150649999Y-59300000I249999J0D01*
G01*
X151350001Y-59300000D01*
G75*
G02*
X151600000Y-59549999I0J-249999D01*
G01*
X151600000Y-60450001D01*
G75*
G02*
X151350001Y-60700000I-249999J0D01*
G01*
X150649999Y-60700000D01*
G75*
G02*
X150400000Y-60450001I0J249999D01*
G01*
G37*
G36*
G01*
X157500000Y-60450001D02*
X157500000Y-59549999D01*
G75*
G02*
X157749999Y-59300000I249999J0D01*
G01*
X158450001Y-59300000D01*
G75*
G02*
X158700000Y-59549999I0J-249999D01*
G01*
X158700000Y-60450001D01*
G75*
G02*
X158450001Y-60700000I-249999J0D01*
G01*
X157749999Y-60700000D01*
G75*
G02*
X157500000Y-60450001I0J249999D01*
G01*
G37*
G36*
G01*
X155500000Y-60450001D02*
X155500000Y-59549999D01*
G75*
G02*
X155749999Y-59300000I249999J0D01*
G01*
X156450001Y-59300000D01*
G75*
G02*
X156700000Y-59549999I0J-249999D01*
G01*
X156700000Y-60450001D01*
G75*
G02*
X156450001Y-60700000I-249999J0D01*
G01*
X155749999Y-60700000D01*
G75*
G02*
X155500000Y-60450001I0J249999D01*
G01*
G37*
G36*
G01*
X162600000Y-60450001D02*
X162600000Y-59549999D01*
G75*
G02*
X162849999Y-59300000I249999J0D01*
G01*
X163550001Y-59300000D01*
G75*
G02*
X163800000Y-59549999I0J-249999D01*
G01*
X163800000Y-60450001D01*
G75*
G02*
X163550001Y-60700000I-249999J0D01*
G01*
X162849999Y-60700000D01*
G75*
G02*
X162600000Y-60450001I0J249999D01*
G01*
G37*
G36*
G01*
X160600000Y-60450001D02*
X160600000Y-59549999D01*
G75*
G02*
X160849999Y-59300000I249999J0D01*
G01*
X161550001Y-59300000D01*
G75*
G02*
X161800000Y-59549999I0J-249999D01*
G01*
X161800000Y-60450001D01*
G75*
G02*
X161550001Y-60700000I-249999J0D01*
G01*
X160849999Y-60700000D01*
G75*
G02*
X160600000Y-60450001I0J249999D01*
G01*
G37*
G36*
G01*
X167700000Y-60450001D02*
X167700000Y-59549999D01*
G75*
G02*
X167949999Y-59300000I249999J0D01*
G01*
X168650001Y-59300000D01*
G75*
G02*
X168900000Y-59549999I0J-249999D01*
G01*
X168900000Y-60450001D01*
G75*
G02*
X168650001Y-60700000I-249999J0D01*
G01*
X167949999Y-60700000D01*
G75*
G02*
X167700000Y-60450001I0J249999D01*
G01*
G37*
G36*
G01*
X165700000Y-60450001D02*
X165700000Y-59549999D01*
G75*
G02*
X165949999Y-59300000I249999J0D01*
G01*
X166650001Y-59300000D01*
G75*
G02*
X166900000Y-59549999I0J-249999D01*
G01*
X166900000Y-60450001D01*
G75*
G02*
X166650001Y-60700000I-249999J0D01*
G01*
X165949999Y-60700000D01*
G75*
G02*
X165700000Y-60450001I0J249999D01*
G01*
G37*
G36*
G01*
X172800000Y-60450001D02*
X172800000Y-59549999D01*
G75*
G02*
X173049999Y-59300000I249999J0D01*
G01*
X173750001Y-59300000D01*
G75*
G02*
X174000000Y-59549999I0J-249999D01*
G01*
X174000000Y-60450001D01*
G75*
G02*
X173750001Y-60700000I-249999J0D01*
G01*
X173049999Y-60700000D01*
G75*
G02*
X172800000Y-60450001I0J249999D01*
G01*
G37*
G36*
G01*
X170800000Y-60450001D02*
X170800000Y-59549999D01*
G75*
G02*
X171049999Y-59300000I249999J0D01*
G01*
X171750001Y-59300000D01*
G75*
G02*
X172000000Y-59549999I0J-249999D01*
G01*
X172000000Y-60450001D01*
G75*
G02*
X171750001Y-60700000I-249999J0D01*
G01*
X171049999Y-60700000D01*
G75*
G02*
X170800000Y-60450001I0J249999D01*
G01*
G37*
G36*
G01*
X137150000Y-63850001D02*
X137150000Y-62949999D01*
G75*
G02*
X137399999Y-62700000I249999J0D01*
G01*
X138050001Y-62700000D01*
G75*
G02*
X138300000Y-62949999I0J-249999D01*
G01*
X138300000Y-63850001D01*
G75*
G02*
X138050001Y-64100000I-249999J0D01*
G01*
X137399999Y-64100000D01*
G75*
G02*
X137150000Y-63850001I0J249999D01*
G01*
G37*
G36*
G01*
X135100000Y-63850001D02*
X135100000Y-62949999D01*
G75*
G02*
X135349999Y-62700000I249999J0D01*
G01*
X136000001Y-62700000D01*
G75*
G02*
X136250000Y-62949999I0J-249999D01*
G01*
X136250000Y-63850001D01*
G75*
G02*
X136000001Y-64100000I-249999J0D01*
G01*
X135349999Y-64100000D01*
G75*
G02*
X135100000Y-63850001I0J249999D01*
G01*
G37*
G36*
G01*
X142250000Y-63850001D02*
X142250000Y-62949999D01*
G75*
G02*
X142499999Y-62700000I249999J0D01*
G01*
X143150001Y-62700000D01*
G75*
G02*
X143400000Y-62949999I0J-249999D01*
G01*
X143400000Y-63850001D01*
G75*
G02*
X143150001Y-64100000I-249999J0D01*
G01*
X142499999Y-64100000D01*
G75*
G02*
X142250000Y-63850001I0J249999D01*
G01*
G37*
G36*
G01*
X140200000Y-63850001D02*
X140200000Y-62949999D01*
G75*
G02*
X140449999Y-62700000I249999J0D01*
G01*
X141100001Y-62700000D01*
G75*
G02*
X141350000Y-62949999I0J-249999D01*
G01*
X141350000Y-63850001D01*
G75*
G02*
X141100001Y-64100000I-249999J0D01*
G01*
X140449999Y-64100000D01*
G75*
G02*
X140200000Y-63850001I0J249999D01*
G01*
G37*
G36*
G01*
X147350000Y-63850001D02*
X147350000Y-62949999D01*
G75*
G02*
X147599999Y-62700000I249999J0D01*
G01*
X148250001Y-62700000D01*
G75*
G02*
X148500000Y-62949999I0J-249999D01*
G01*
X148500000Y-63850001D01*
G75*
G02*
X148250001Y-64100000I-249999J0D01*
G01*
X147599999Y-64100000D01*
G75*
G02*
X147350000Y-63850001I0J249999D01*
G01*
G37*
G36*
G01*
X145300000Y-63850001D02*
X145300000Y-62949999D01*
G75*
G02*
X145549999Y-62700000I249999J0D01*
G01*
X146200001Y-62700000D01*
G75*
G02*
X146450000Y-62949999I0J-249999D01*
G01*
X146450000Y-63850001D01*
G75*
G02*
X146200001Y-64100000I-249999J0D01*
G01*
X145549999Y-64100000D01*
G75*
G02*
X145300000Y-63850001I0J249999D01*
G01*
G37*
G36*
G01*
X152450000Y-63850001D02*
X152450000Y-62949999D01*
G75*
G02*
X152699999Y-62700000I249999J0D01*
G01*
X153350001Y-62700000D01*
G75*
G02*
X153600000Y-62949999I0J-249999D01*
G01*
X153600000Y-63850001D01*
G75*
G02*
X153350001Y-64100000I-249999J0D01*
G01*
X152699999Y-64100000D01*
G75*
G02*
X152450000Y-63850001I0J249999D01*
G01*
G37*
G36*
G01*
X150400000Y-63850001D02*
X150400000Y-62949999D01*
G75*
G02*
X150649999Y-62700000I249999J0D01*
G01*
X151300001Y-62700000D01*
G75*
G02*
X151550000Y-62949999I0J-249999D01*
G01*
X151550000Y-63850001D01*
G75*
G02*
X151300001Y-64100000I-249999J0D01*
G01*
X150649999Y-64100000D01*
G75*
G02*
X150400000Y-63850001I0J249999D01*
G01*
G37*
G36*
G01*
X157550000Y-63850001D02*
X157550000Y-62949999D01*
G75*
G02*
X157799999Y-62700000I249999J0D01*
G01*
X158450001Y-62700000D01*
G75*
G02*
X158700000Y-62949999I0J-249999D01*
G01*
X158700000Y-63850001D01*
G75*
G02*
X158450001Y-64100000I-249999J0D01*
G01*
X157799999Y-64100000D01*
G75*
G02*
X157550000Y-63850001I0J249999D01*
G01*
G37*
G36*
G01*
X155500000Y-63850001D02*
X155500000Y-62949999D01*
G75*
G02*
X155749999Y-62700000I249999J0D01*
G01*
X156400001Y-62700000D01*
G75*
G02*
X156650000Y-62949999I0J-249999D01*
G01*
X156650000Y-63850001D01*
G75*
G02*
X156400001Y-64100000I-249999J0D01*
G01*
X155749999Y-64100000D01*
G75*
G02*
X155500000Y-63850001I0J249999D01*
G01*
G37*
G36*
G01*
X162650000Y-63850001D02*
X162650000Y-62949999D01*
G75*
G02*
X162899999Y-62700000I249999J0D01*
G01*
X163550001Y-62700000D01*
G75*
G02*
X163800000Y-62949999I0J-249999D01*
G01*
X163800000Y-63850001D01*
G75*
G02*
X163550001Y-64100000I-249999J0D01*
G01*
X162899999Y-64100000D01*
G75*
G02*
X162650000Y-63850001I0J249999D01*
G01*
G37*
G36*
G01*
X160600000Y-63850001D02*
X160600000Y-62949999D01*
G75*
G02*
X160849999Y-62700000I249999J0D01*
G01*
X161500001Y-62700000D01*
G75*
G02*
X161750000Y-62949999I0J-249999D01*
G01*
X161750000Y-63850001D01*
G75*
G02*
X161500001Y-64100000I-249999J0D01*
G01*
X160849999Y-64100000D01*
G75*
G02*
X160600000Y-63850001I0J249999D01*
G01*
G37*
G36*
G01*
X167750000Y-63850001D02*
X167750000Y-62949999D01*
G75*
G02*
X167999999Y-62700000I249999J0D01*
G01*
X168650001Y-62700000D01*
G75*
G02*
X168900000Y-62949999I0J-249999D01*
G01*
X168900000Y-63850001D01*
G75*
G02*
X168650001Y-64100000I-249999J0D01*
G01*
X167999999Y-64100000D01*
G75*
G02*
X167750000Y-63850001I0J249999D01*
G01*
G37*
G36*
G01*
X165700000Y-63850001D02*
X165700000Y-62949999D01*
G75*
G02*
X165949999Y-62700000I249999J0D01*
G01*
X166600001Y-62700000D01*
G75*
G02*
X166850000Y-62949999I0J-249999D01*
G01*
X166850000Y-63850001D01*
G75*
G02*
X166600001Y-64100000I-249999J0D01*
G01*
X165949999Y-64100000D01*
G75*
G02*
X165700000Y-63850001I0J249999D01*
G01*
G37*
G36*
G01*
X172850000Y-63850001D02*
X172850000Y-62949999D01*
G75*
G02*
X173099999Y-62700000I249999J0D01*
G01*
X173750001Y-62700000D01*
G75*
G02*
X174000000Y-62949999I0J-249999D01*
G01*
X174000000Y-63850001D01*
G75*
G02*
X173750001Y-64100000I-249999J0D01*
G01*
X173099999Y-64100000D01*
G75*
G02*
X172850000Y-63850001I0J249999D01*
G01*
G37*
G36*
G01*
X170800000Y-63850001D02*
X170800000Y-62949999D01*
G75*
G02*
X171049999Y-62700000I249999J0D01*
G01*
X171700001Y-62700000D01*
G75*
G02*
X171950000Y-62949999I0J-249999D01*
G01*
X171950000Y-63850001D01*
G75*
G02*
X171700001Y-64100000I-249999J0D01*
G01*
X171049999Y-64100000D01*
G75*
G02*
X170800000Y-63850001I0J249999D01*
G01*
G37*
G36*
G01*
X128950000Y-71325000D02*
X128950000Y-72275000D01*
G75*
G02*
X128700000Y-72525000I-250000J0D01*
G01*
X128025000Y-72525000D01*
G75*
G02*
X127775000Y-72275000I0J250000D01*
G01*
X127775000Y-71325000D01*
G75*
G02*
X128025000Y-71075000I250000J0D01*
G01*
X128700000Y-71075000D01*
G75*
G02*
X128950000Y-71325000I0J-250000D01*
G01*
G37*
G36*
G01*
X131025000Y-71325000D02*
X131025000Y-72275000D01*
G75*
G02*
X130775000Y-72525000I-250000J0D01*
G01*
X130100000Y-72525000D01*
G75*
G02*
X129850000Y-72275000I0J250000D01*
G01*
X129850000Y-71325000D01*
G75*
G02*
X130100000Y-71075000I250000J0D01*
G01*
X130775000Y-71075000D01*
G75*
G02*
X131025000Y-71325000I0J-250000D01*
G01*
G37*
G36*
G01*
X98275000Y-122750000D02*
X97325000Y-122750000D01*
G75*
G02*
X97075000Y-122500000I0J250000D01*
G01*
X97075000Y-121825000D01*
G75*
G02*
X97325000Y-121575000I250000J0D01*
G01*
X98275000Y-121575000D01*
G75*
G02*
X98525000Y-121825000I0J-250000D01*
G01*
X98525000Y-122500000D01*
G75*
G02*
X98275000Y-122750000I-250000J0D01*
G01*
G37*
G36*
G01*
X98275000Y-124825000D02*
X97325000Y-124825000D01*
G75*
G02*
X97075000Y-124575000I0J250000D01*
G01*
X97075000Y-123900000D01*
G75*
G02*
X97325000Y-123650000I250000J0D01*
G01*
X98275000Y-123650000D01*
G75*
G02*
X98525000Y-123900000I0J-250000D01*
G01*
X98525000Y-124575000D01*
G75*
G02*
X98275000Y-124825000I-250000J0D01*
G01*
G37*
G36*
G01*
X98375000Y-111550000D02*
X97425000Y-111550000D01*
G75*
G02*
X97175000Y-111300000I0J250000D01*
G01*
X97175000Y-110625000D01*
G75*
G02*
X97425000Y-110375000I250000J0D01*
G01*
X98375000Y-110375000D01*
G75*
G02*
X98625000Y-110625000I0J-250000D01*
G01*
X98625000Y-111300000D01*
G75*
G02*
X98375000Y-111550000I-250000J0D01*
G01*
G37*
G36*
G01*
X98375000Y-113625000D02*
X97425000Y-113625000D01*
G75*
G02*
X97175000Y-113375000I0J250000D01*
G01*
X97175000Y-112700000D01*
G75*
G02*
X97425000Y-112450000I250000J0D01*
G01*
X98375000Y-112450000D01*
G75*
G02*
X98625000Y-112700000I0J-250000D01*
G01*
X98625000Y-113375000D01*
G75*
G02*
X98375000Y-113625000I-250000J0D01*
G01*
G37*
G36*
G01*
X156250000Y-71325000D02*
X156250000Y-72275000D01*
G75*
G02*
X156000000Y-72525000I-250000J0D01*
G01*
X155325000Y-72525000D01*
G75*
G02*
X155075000Y-72275000I0J250000D01*
G01*
X155075000Y-71325000D01*
G75*
G02*
X155325000Y-71075000I250000J0D01*
G01*
X156000000Y-71075000D01*
G75*
G02*
X156250000Y-71325000I0J-250000D01*
G01*
G37*
G36*
G01*
X158325000Y-71325000D02*
X158325000Y-72275000D01*
G75*
G02*
X158075000Y-72525000I-250000J0D01*
G01*
X157400000Y-72525000D01*
G75*
G02*
X157150000Y-72275000I0J250000D01*
G01*
X157150000Y-71325000D01*
G75*
G02*
X157400000Y-71075000I250000J0D01*
G01*
X158075000Y-71075000D01*
G75*
G02*
X158325000Y-71325000I0J-250000D01*
G01*
G37*
G36*
G01*
X170950000Y-105375000D02*
X170950000Y-104425000D01*
G75*
G02*
X171200000Y-104175000I250000J0D01*
G01*
X171875000Y-104175000D01*
G75*
G02*
X172125000Y-104425000I0J-250000D01*
G01*
X172125000Y-105375000D01*
G75*
G02*
X171875000Y-105625000I-250000J0D01*
G01*
X171200000Y-105625000D01*
G75*
G02*
X170950000Y-105375000I0J250000D01*
G01*
G37*
G36*
G01*
X168875000Y-105375000D02*
X168875000Y-104425000D01*
G75*
G02*
X169125000Y-104175000I250000J0D01*
G01*
X169800000Y-104175000D01*
G75*
G02*
X170050000Y-104425000I0J-250000D01*
G01*
X170050000Y-105375000D01*
G75*
G02*
X169800000Y-105625000I-250000J0D01*
G01*
X169125000Y-105625000D01*
G75*
G02*
X168875000Y-105375000I0J250000D01*
G01*
G37*
G36*
G01*
X157950000Y-105275000D02*
X157950000Y-104325000D01*
G75*
G02*
X158200000Y-104075000I250000J0D01*
G01*
X158875000Y-104075000D01*
G75*
G02*
X159125000Y-104325000I0J-250000D01*
G01*
X159125000Y-105275000D01*
G75*
G02*
X158875000Y-105525000I-250000J0D01*
G01*
X158200000Y-105525000D01*
G75*
G02*
X157950000Y-105275000I0J250000D01*
G01*
G37*
G36*
G01*
X155875000Y-105275000D02*
X155875000Y-104325000D01*
G75*
G02*
X156125000Y-104075000I250000J0D01*
G01*
X156800000Y-104075000D01*
G75*
G02*
X157050000Y-104325000I0J-250000D01*
G01*
X157050000Y-105275000D01*
G75*
G02*
X156800000Y-105525000I-250000J0D01*
G01*
X156125000Y-105525000D01*
G75*
G02*
X155875000Y-105275000I0J250000D01*
G01*
G37*
G36*
G01*
X170750000Y-75675000D02*
X170750000Y-74725000D01*
G75*
G02*
X171000000Y-74475000I250000J0D01*
G01*
X171675000Y-74475000D01*
G75*
G02*
X171925000Y-74725000I0J-250000D01*
G01*
X171925000Y-75675000D01*
G75*
G02*
X171675000Y-75925000I-250000J0D01*
G01*
X171000000Y-75925000D01*
G75*
G02*
X170750000Y-75675000I0J250000D01*
G01*
G37*
G36*
G01*
X168675000Y-75675000D02*
X168675000Y-74725000D01*
G75*
G02*
X168925000Y-74475000I250000J0D01*
G01*
X169600000Y-74475000D01*
G75*
G02*
X169850000Y-74725000I0J-250000D01*
G01*
X169850000Y-75675000D01*
G75*
G02*
X169600000Y-75925000I-250000J0D01*
G01*
X168925000Y-75925000D01*
G75*
G02*
X168675000Y-75675000I0J250000D01*
G01*
G37*
D10*
X88990000Y-124380000D03*
X91530000Y-124380000D03*
X88990000Y-121840000D03*
X91530000Y-121840000D03*
X88990000Y-119300000D03*
X91530000Y-119300000D03*
X88990000Y-116760000D03*
X91530000Y-116760000D03*
X88990000Y-114220000D03*
X91530000Y-114220000D03*
X88990000Y-111680000D03*
X91530000Y-111680000D03*
X88990000Y-109140000D03*
X91530000Y-109140000D03*
X88990000Y-106600000D03*
D11*
X91530000Y-106600000D03*
D10*
X185460000Y-136000000D03*
X182920000Y-136000000D03*
X180380000Y-136000000D03*
X177840000Y-136000000D03*
X175300000Y-136000000D03*
X172760000Y-136000000D03*
X170220000Y-136000000D03*
X167680000Y-136000000D03*
X165140000Y-136000000D03*
X162600000Y-136000000D03*
X160060000Y-136000000D03*
X157520000Y-136000000D03*
X154980000Y-136000000D03*
X152440000Y-136000000D03*
X149900000Y-136000000D03*
X147360000Y-136000000D03*
X144820000Y-136000000D03*
X142280000Y-136000000D03*
X139740000Y-136000000D03*
X137200000Y-136000000D03*
X134660000Y-136000000D03*
X132120000Y-136000000D03*
X129580000Y-136000000D03*
X127040000Y-136000000D03*
X124500000Y-136000000D03*
X121960000Y-136000000D03*
X119420000Y-136000000D03*
X116880000Y-136000000D03*
X114340000Y-136000000D03*
X111800000Y-136000000D03*
X109260000Y-136000000D03*
X106720000Y-136000000D03*
X104180000Y-136000000D03*
X101640000Y-136000000D03*
X99100000Y-136000000D03*
X96560000Y-136000000D03*
X94020000Y-136000000D03*
X91480000Y-136000000D03*
X88940000Y-136000000D03*
D11*
X86400000Y-136000000D03*
D10*
X185460000Y-46000000D03*
X182920000Y-46000000D03*
X180380000Y-46000000D03*
X177840000Y-46000000D03*
X175300000Y-46000000D03*
X172760000Y-46000000D03*
X170220000Y-46000000D03*
X167680000Y-46000000D03*
X165140000Y-46000000D03*
X162600000Y-46000000D03*
X160060000Y-46000000D03*
X157520000Y-46000000D03*
X154980000Y-46000000D03*
X152440000Y-46000000D03*
X149900000Y-46000000D03*
X147360000Y-46000000D03*
X144820000Y-46000000D03*
X142280000Y-46000000D03*
X139740000Y-46000000D03*
X137200000Y-46000000D03*
X134660000Y-46000000D03*
X132120000Y-46000000D03*
X129580000Y-46000000D03*
X127040000Y-46000000D03*
X124500000Y-46000000D03*
X121960000Y-46000000D03*
X119420000Y-46000000D03*
X116880000Y-46000000D03*
X114340000Y-46000000D03*
X111800000Y-46000000D03*
X109260000Y-46000000D03*
X106720000Y-46000000D03*
X104180000Y-46000000D03*
X101640000Y-46000000D03*
X99100000Y-46000000D03*
X96560000Y-46000000D03*
X94020000Y-46000000D03*
X91480000Y-46000000D03*
X88940000Y-46000000D03*
D11*
X86400000Y-46000000D03*
M02*
