%FSLAX45Y45*%
G04 Gerber Fmt 4.5, Leading zero omitted, Abs format (unit mm)*
G04 Created by KiCad (PCBNEW (5.1.9)-1) date 2021-11-21 15:31:21*
%MOMM*%
%LPD*%
G01*
G04 APERTURE LIST*
%TA.AperFunction,Profile*%
%ADD10C,0.100000*%
%TD*%
%ADD11C,0.200000*%
%ADD12C,0.300000*%
G04 APERTURE END LIST*
D10*
X8500000Y-13900000D02*
X8500000Y-4300000D01*
X18700000Y-13900000D02*
X8500000Y-13900000D01*
X18700000Y-4300000D02*
X18700000Y-13900000D01*
X8500000Y-4300000D02*
X18700000Y-4300000D01*
D11*
X8988235Y-10428235D02*
X9028235Y-10468235D01*
X9028235Y-10428235D02*
X8988235Y-10468235D01*
X9000000Y-13060000D02*
X9040000Y-13100000D01*
X9040000Y-13060000D02*
X9000000Y-13100000D01*
X9210000Y-7810000D02*
X9250000Y-7850000D01*
X9250000Y-7810000D02*
X9210000Y-7850000D01*
X9260000Y-13060000D02*
X9300000Y-13100000D01*
X9300000Y-13060000D02*
X9260000Y-13100000D01*
X9290000Y-12540000D02*
X9330000Y-12580000D01*
X9330000Y-12540000D02*
X9290000Y-12580000D01*
X9342501Y-7210000D02*
X9382501Y-7250000D01*
X9382501Y-7210000D02*
X9342501Y-7250000D01*
X9440000Y-7450000D02*
X9480000Y-7490000D01*
X9480000Y-7450000D02*
X9440000Y-7490000D01*
X9450000Y-8230000D02*
X9490000Y-8270000D01*
X9490000Y-8230000D02*
X9450000Y-8270000D01*
X9590000Y-8310000D02*
X9630000Y-8350000D01*
X9630000Y-8310000D02*
X9590000Y-8350000D01*
X9720000Y-7610000D02*
X9760000Y-7650000D01*
X9760000Y-7610000D02*
X9720000Y-7650000D01*
X9740000Y-7020000D02*
X9780000Y-7060000D01*
X9780000Y-7020000D02*
X9740000Y-7060000D01*
X9880000Y-7650000D02*
X9920000Y-7690000D01*
X9920000Y-7650000D02*
X9880000Y-7690000D01*
X9990000Y-7060000D02*
X10030000Y-7100000D01*
X10030000Y-7060000D02*
X9990000Y-7100000D01*
X10270000Y-9420000D02*
X10310000Y-9460000D01*
X10310000Y-9420000D02*
X10270000Y-9460000D01*
X10358500Y-7301500D02*
X10398500Y-7341500D01*
X10398500Y-7301500D02*
X10358500Y-7341500D01*
X10370500Y-7809500D02*
X10410500Y-7849500D01*
X10410500Y-7809500D02*
X10370500Y-7849500D01*
X10480000Y-8310000D02*
X10520000Y-8350000D01*
X10520000Y-8310000D02*
X10480000Y-8350000D01*
X10530000Y-12840000D02*
X10570000Y-12880000D01*
X10570000Y-12840000D02*
X10530000Y-12880000D01*
X10574000Y-7414000D02*
X10614000Y-7454000D01*
X10614000Y-7414000D02*
X10574000Y-7454000D01*
X10600000Y-8825500D02*
X10640000Y-8865500D01*
X10640000Y-8825500D02*
X10600000Y-8865500D01*
X10644500Y-7555500D02*
X10684500Y-7595500D01*
X10684500Y-7555500D02*
X10644500Y-7595500D01*
X10690000Y-8050000D02*
X10730000Y-8090000D01*
X10730000Y-8050000D02*
X10690000Y-8090000D01*
X10720000Y-6647500D02*
X10760000Y-6687500D01*
X10760000Y-6647500D02*
X10720000Y-6687500D01*
X10771500Y-8571500D02*
X10811500Y-8611500D01*
X10811500Y-8571500D02*
X10771500Y-8611500D01*
X11040000Y-12840000D02*
X11080000Y-12880000D01*
X11080000Y-12840000D02*
X11040000Y-12880000D01*
X11140000Y-9950000D02*
X11180000Y-9990000D01*
X11180000Y-9950000D02*
X11140000Y-9990000D01*
X11230000Y-9700000D02*
X11270000Y-9740000D01*
X11270000Y-9700000D02*
X11230000Y-9740000D01*
X11304000Y-9446000D02*
X11344000Y-9486000D01*
X11344000Y-9446000D02*
X11304000Y-9486000D01*
X11359999Y-10030000D02*
X11399999Y-10070000D01*
X11399999Y-10030000D02*
X11359999Y-10070000D01*
X11378000Y-9192000D02*
X11418000Y-9232000D01*
X11418000Y-9192000D02*
X11378000Y-9232000D01*
X11380000Y-9710000D02*
X11420000Y-9750000D01*
X11420000Y-9710000D02*
X11380000Y-9750000D01*
X11460000Y-10030000D02*
X11500000Y-10070000D01*
X11500000Y-10030000D02*
X11460000Y-10070000D01*
X11460000Y-10790000D02*
X11500000Y-10830000D01*
X11500000Y-10790000D02*
X11460000Y-10830000D01*
X11460500Y-7809500D02*
X11500500Y-7849500D01*
X11500500Y-7809500D02*
X11460500Y-7849500D01*
X11580000Y-7540000D02*
X11620000Y-7580000D01*
X11620000Y-7540000D02*
X11580000Y-7580000D01*
X11580000Y-10030500D02*
X11620000Y-10070500D01*
X11620000Y-10030500D02*
X11580000Y-10070500D01*
X11580000Y-10790000D02*
X11620000Y-10830000D01*
X11620000Y-10790000D02*
X11580000Y-10830000D01*
X11690000Y-8050000D02*
X11730000Y-8090000D01*
X11730000Y-8050000D02*
X11690000Y-8090000D01*
X11690000Y-10790000D02*
X11730000Y-10830000D01*
X11730000Y-10790000D02*
X11690000Y-10830000D01*
X11690000Y-10030000D02*
X11730000Y-10070000D01*
X11730000Y-10030000D02*
X11690000Y-10070000D01*
X11800000Y-10790000D02*
X11840000Y-10830000D01*
X11840000Y-10790000D02*
X11800000Y-10830000D01*
X11800000Y-10030000D02*
X11840000Y-10070000D01*
X11840000Y-10030000D02*
X11800000Y-10070000D01*
X11802000Y-8938000D02*
X11842000Y-8978000D01*
X11842000Y-8938000D02*
X11802000Y-8978000D01*
X11810000Y-12840000D02*
X11850000Y-12880000D01*
X11850000Y-12840000D02*
X11810000Y-12880000D01*
X12060000Y-12840000D02*
X12100000Y-12880000D01*
X12100000Y-12840000D02*
X12060000Y-12880000D01*
X12790000Y-11200000D02*
X12830000Y-11240000D01*
X12830000Y-11200000D02*
X12790000Y-11240000D01*
X12790000Y-11700000D02*
X12830000Y-11740000D01*
X12830000Y-11700000D02*
X12790000Y-11740000D01*
X12900000Y-6610001D02*
X12940000Y-6650001D01*
X12940000Y-6610001D02*
X12900000Y-6650001D01*
X13250000Y-8690000D02*
X13290000Y-8730000D01*
X13290000Y-8690000D02*
X13250000Y-8730000D01*
X13310000Y-12860000D02*
X13350000Y-12900000D01*
X13350000Y-12860000D02*
X13310000Y-12900000D01*
X13327500Y-8430000D02*
X13367500Y-8470000D01*
X13367500Y-8430000D02*
X13327500Y-8470000D01*
X13390000Y-7100000D02*
X13430000Y-7140000D01*
X13430000Y-7100000D02*
X13390000Y-7140000D01*
X13400000Y-9570000D02*
X13440000Y-9610000D01*
X13440000Y-9570000D02*
X13400000Y-9610000D01*
X13600000Y-10800000D02*
X13640000Y-10840000D01*
X13640000Y-10800000D02*
X13600000Y-10840000D01*
X13730000Y-10800000D02*
X13770000Y-10840000D01*
X13770000Y-10800000D02*
X13730000Y-10840000D01*
X13760000Y-11370000D02*
X13800000Y-11410000D01*
X13800000Y-11370000D02*
X13760000Y-11410000D01*
X13890000Y-10790000D02*
X13930000Y-10830000D01*
X13930000Y-10790000D02*
X13890000Y-10830000D01*
X14070000Y-12170000D02*
X14110000Y-12210000D01*
X14110000Y-12170000D02*
X14070000Y-12210000D01*
X14160000Y-12082501D02*
X14200000Y-12122501D01*
X14200000Y-12082501D02*
X14160000Y-12122501D01*
X14290000Y-11950000D02*
X14330000Y-11990000D01*
X14330000Y-11950000D02*
X14290000Y-11990000D01*
X14400000Y-11700000D02*
X14440000Y-11740000D01*
X14440000Y-11700000D02*
X14400000Y-11740000D01*
X15640000Y-11610000D02*
X15680000Y-11650000D01*
X15680000Y-11610000D02*
X15640000Y-11650000D01*
X15980000Y-12540000D02*
X16020000Y-12580000D01*
X16020000Y-12540000D02*
X15980000Y-12580000D01*
X16520000Y-9060000D02*
X16560000Y-9100000D01*
X16560000Y-9060000D02*
X16520000Y-9100000D01*
X16600000Y-11390000D02*
X16640000Y-11430000D01*
X16640000Y-11390000D02*
X16600000Y-11430000D01*
X17010000Y-13197499D02*
X17050000Y-13237499D01*
X17050000Y-13197499D02*
X17010000Y-13237499D01*
X17130000Y-13200000D02*
X17170000Y-13240000D01*
X17170000Y-13200000D02*
X17130000Y-13240000D01*
X17240000Y-13200000D02*
X17280000Y-13240000D01*
X17280000Y-13200000D02*
X17240000Y-13240000D01*
X17328734Y-12758734D02*
X17368734Y-12798734D01*
X17368734Y-12758734D02*
X17328734Y-12798734D01*
X17520000Y-11490000D02*
X17560000Y-11530000D01*
X17560000Y-11490000D02*
X17520000Y-11530000D01*
X17620000Y-11700000D02*
X17660000Y-11740000D01*
X17660000Y-11700000D02*
X17620000Y-11740000D01*
X17890000Y-8560000D02*
X17930000Y-8600000D01*
X17930000Y-8560000D02*
X17890000Y-8600000D01*
X18390000Y-9040000D02*
X18430000Y-9080000D01*
X18430000Y-9040000D02*
X18390000Y-9080000D01*
X18390000Y-10460000D02*
X18430000Y-10500000D01*
X18430000Y-10460000D02*
X18390000Y-10500000D01*
X18450000Y-12640000D02*
X18490000Y-12680000D01*
X18490000Y-12640000D02*
X18450000Y-12680000D01*
X10120000Y-5178000D02*
G75*
G03*
X10120000Y-5178000I-40000J0D01*
G01*
X10120000Y-5940000D02*
G75*
G03*
X10120000Y-5940000I-40000J0D01*
G01*
X10220000Y-11098000D02*
G75*
G03*
X10220000Y-11098000I-40000J0D01*
G01*
X10220000Y-11860000D02*
G75*
G03*
X10220000Y-11860000I-40000J0D01*
G01*
X10220000Y-12218000D02*
G75*
G03*
X10220000Y-12218000I-40000J0D01*
G01*
X10220000Y-12980000D02*
G75*
G03*
X10220000Y-12980000I-40000J0D01*
G01*
X10374000Y-5178000D02*
G75*
G03*
X10374000Y-5178000I-40000J0D01*
G01*
X10374000Y-5940000D02*
G75*
G03*
X10374000Y-5940000I-40000J0D01*
G01*
X10474000Y-11098000D02*
G75*
G03*
X10474000Y-11098000I-40000J0D01*
G01*
X10474000Y-11860000D02*
G75*
G03*
X10474000Y-11860000I-40000J0D01*
G01*
X10474000Y-12218000D02*
G75*
G03*
X10474000Y-12218000I-40000J0D01*
G01*
X10474000Y-12980000D02*
G75*
G03*
X10474000Y-12980000I-40000J0D01*
G01*
X10628000Y-5178000D02*
G75*
G03*
X10628000Y-5178000I-40000J0D01*
G01*
X10628000Y-5940000D02*
G75*
G03*
X10628000Y-5940000I-40000J0D01*
G01*
X10728000Y-11098000D02*
G75*
G03*
X10728000Y-11098000I-40000J0D01*
G01*
X10728000Y-11860000D02*
G75*
G03*
X10728000Y-11860000I-40000J0D01*
G01*
X10728000Y-12218000D02*
G75*
G03*
X10728000Y-12218000I-40000J0D01*
G01*
X10728000Y-12980000D02*
G75*
G03*
X10728000Y-12980000I-40000J0D01*
G01*
X10882000Y-5178000D02*
G75*
G03*
X10882000Y-5178000I-40000J0D01*
G01*
X10882000Y-5940000D02*
G75*
G03*
X10882000Y-5940000I-40000J0D01*
G01*
X10982000Y-11098000D02*
G75*
G03*
X10982000Y-11098000I-40000J0D01*
G01*
X10982000Y-11860000D02*
G75*
G03*
X10982000Y-11860000I-40000J0D01*
G01*
X10982000Y-12218000D02*
G75*
G03*
X10982000Y-12218000I-40000J0D01*
G01*
X10982000Y-12980000D02*
G75*
G03*
X10982000Y-12980000I-40000J0D01*
G01*
X11030000Y-7180000D02*
G75*
G03*
X11030000Y-7180000I-40000J0D01*
G01*
X11030000Y-7434000D02*
G75*
G03*
X11030000Y-7434000I-40000J0D01*
G01*
X11030000Y-7688000D02*
G75*
G03*
X11030000Y-7688000I-40000J0D01*
G01*
X11030000Y-7942000D02*
G75*
G03*
X11030000Y-7942000I-40000J0D01*
G01*
X11030000Y-8196000D02*
G75*
G03*
X11030000Y-8196000I-40000J0D01*
G01*
X11030000Y-8450000D02*
G75*
G03*
X11030000Y-8450000I-40000J0D01*
G01*
X11030000Y-8704000D02*
G75*
G03*
X11030000Y-8704000I-40000J0D01*
G01*
X11030000Y-8958000D02*
G75*
G03*
X11030000Y-8958000I-40000J0D01*
G01*
X11030000Y-9212000D02*
G75*
G03*
X11030000Y-9212000I-40000J0D01*
G01*
X11030000Y-9466000D02*
G75*
G03*
X11030000Y-9466000I-40000J0D01*
G01*
X11030000Y-9720000D02*
G75*
G03*
X11030000Y-9720000I-40000J0D01*
G01*
X11030000Y-9974000D02*
G75*
G03*
X11030000Y-9974000I-40000J0D01*
G01*
X11136000Y-5178000D02*
G75*
G03*
X11136000Y-5178000I-40000J0D01*
G01*
X11136000Y-5940000D02*
G75*
G03*
X11136000Y-5940000I-40000J0D01*
G01*
X11236000Y-11098000D02*
G75*
G03*
X11236000Y-11098000I-40000J0D01*
G01*
X11236000Y-11860000D02*
G75*
G03*
X11236000Y-11860000I-40000J0D01*
G01*
X11236000Y-12218000D02*
G75*
G03*
X11236000Y-12218000I-40000J0D01*
G01*
X11236000Y-12980000D02*
G75*
G03*
X11236000Y-12980000I-40000J0D01*
G01*
X11390000Y-5178000D02*
G75*
G03*
X11390000Y-5178000I-40000J0D01*
G01*
X11390000Y-5940000D02*
G75*
G03*
X11390000Y-5940000I-40000J0D01*
G01*
X11490000Y-11098000D02*
G75*
G03*
X11490000Y-11098000I-40000J0D01*
G01*
X11490000Y-11860000D02*
G75*
G03*
X11490000Y-11860000I-40000J0D01*
G01*
X11490000Y-12218000D02*
G75*
G03*
X11490000Y-12218000I-40000J0D01*
G01*
X11490000Y-12980000D02*
G75*
G03*
X11490000Y-12980000I-40000J0D01*
G01*
X11644000Y-5178000D02*
G75*
G03*
X11644000Y-5178000I-40000J0D01*
G01*
X11644000Y-5940000D02*
G75*
G03*
X11644000Y-5940000I-40000J0D01*
G01*
X11744000Y-11098000D02*
G75*
G03*
X11744000Y-11098000I-40000J0D01*
G01*
X11744000Y-11860000D02*
G75*
G03*
X11744000Y-11860000I-40000J0D01*
G01*
X11744000Y-12218000D02*
G75*
G03*
X11744000Y-12218000I-40000J0D01*
G01*
X11744000Y-12980000D02*
G75*
G03*
X11744000Y-12980000I-40000J0D01*
G01*
X11898000Y-5178000D02*
G75*
G03*
X11898000Y-5178000I-40000J0D01*
G01*
X11898000Y-5940000D02*
G75*
G03*
X11898000Y-5940000I-40000J0D01*
G01*
X11998000Y-11098000D02*
G75*
G03*
X11998000Y-11098000I-40000J0D01*
G01*
X11998000Y-11860000D02*
G75*
G03*
X11998000Y-11860000I-40000J0D01*
G01*
X11998000Y-12218000D02*
G75*
G03*
X11998000Y-12218000I-40000J0D01*
G01*
X11998000Y-12980000D02*
G75*
G03*
X11998000Y-12980000I-40000J0D01*
G01*
X12152000Y-5178000D02*
G75*
G03*
X12152000Y-5178000I-40000J0D01*
G01*
X12152000Y-5940000D02*
G75*
G03*
X12152000Y-5940000I-40000J0D01*
G01*
X12252000Y-11098000D02*
G75*
G03*
X12252000Y-11098000I-40000J0D01*
G01*
X12252000Y-11860000D02*
G75*
G03*
X12252000Y-11860000I-40000J0D01*
G01*
X12252000Y-12218000D02*
G75*
G03*
X12252000Y-12218000I-40000J0D01*
G01*
X12252000Y-12980000D02*
G75*
G03*
X12252000Y-12980000I-40000J0D01*
G01*
X12406000Y-5178000D02*
G75*
G03*
X12406000Y-5178000I-40000J0D01*
G01*
X12406000Y-5940000D02*
G75*
G03*
X12406000Y-5940000I-40000J0D01*
G01*
X12506000Y-11098000D02*
G75*
G03*
X12506000Y-11098000I-40000J0D01*
G01*
X12506000Y-11860000D02*
G75*
G03*
X12506000Y-11860000I-40000J0D01*
G01*
X12506000Y-12218000D02*
G75*
G03*
X12506000Y-12218000I-40000J0D01*
G01*
X12506000Y-12980000D02*
G75*
G03*
X12506000Y-12980000I-40000J0D01*
G01*
X12554000Y-7180000D02*
G75*
G03*
X12554000Y-7180000I-40000J0D01*
G01*
X12554000Y-7434000D02*
G75*
G03*
X12554000Y-7434000I-40000J0D01*
G01*
X12554000Y-7688000D02*
G75*
G03*
X12554000Y-7688000I-40000J0D01*
G01*
X12554000Y-7942000D02*
G75*
G03*
X12554000Y-7942000I-40000J0D01*
G01*
X12554000Y-8196000D02*
G75*
G03*
X12554000Y-8196000I-40000J0D01*
G01*
X12554000Y-8450000D02*
G75*
G03*
X12554000Y-8450000I-40000J0D01*
G01*
X12554000Y-8704000D02*
G75*
G03*
X12554000Y-8704000I-40000J0D01*
G01*
X12554000Y-8958000D02*
G75*
G03*
X12554000Y-8958000I-40000J0D01*
G01*
X12554000Y-9212000D02*
G75*
G03*
X12554000Y-9212000I-40000J0D01*
G01*
X12554000Y-9466000D02*
G75*
G03*
X12554000Y-9466000I-40000J0D01*
G01*
X12554000Y-9720000D02*
G75*
G03*
X12554000Y-9720000I-40000J0D01*
G01*
X12554000Y-9974000D02*
G75*
G03*
X12554000Y-9974000I-40000J0D01*
G01*
X13760000Y-7180000D02*
G75*
G03*
X13760000Y-7180000I-40000J0D01*
G01*
X13760000Y-7434000D02*
G75*
G03*
X13760000Y-7434000I-40000J0D01*
G01*
X13760000Y-7688000D02*
G75*
G03*
X13760000Y-7688000I-40000J0D01*
G01*
X13760000Y-7942000D02*
G75*
G03*
X13760000Y-7942000I-40000J0D01*
G01*
X13760000Y-8196000D02*
G75*
G03*
X13760000Y-8196000I-40000J0D01*
G01*
X13760000Y-8450000D02*
G75*
G03*
X13760000Y-8450000I-40000J0D01*
G01*
X13760000Y-8704000D02*
G75*
G03*
X13760000Y-8704000I-40000J0D01*
G01*
X13760000Y-8958000D02*
G75*
G03*
X13760000Y-8958000I-40000J0D01*
G01*
X13760000Y-9212000D02*
G75*
G03*
X13760000Y-9212000I-40000J0D01*
G01*
X13760000Y-9466000D02*
G75*
G03*
X13760000Y-9466000I-40000J0D01*
G01*
X13760000Y-9720000D02*
G75*
G03*
X13760000Y-9720000I-40000J0D01*
G01*
X13760000Y-9974000D02*
G75*
G03*
X13760000Y-9974000I-40000J0D01*
G01*
X15130000Y-10900000D02*
G75*
G03*
X15130000Y-10900000I-40000J0D01*
G01*
X15130000Y-11154000D02*
G75*
G03*
X15130000Y-11154000I-40000J0D01*
G01*
X15130000Y-11408000D02*
G75*
G03*
X15130000Y-11408000I-40000J0D01*
G01*
X15130000Y-11662000D02*
G75*
G03*
X15130000Y-11662000I-40000J0D01*
G01*
X15130000Y-11916000D02*
G75*
G03*
X15130000Y-11916000I-40000J0D01*
G01*
X15130000Y-12170000D02*
G75*
G03*
X15130000Y-12170000I-40000J0D01*
G01*
X15130000Y-12424000D02*
G75*
G03*
X15130000Y-12424000I-40000J0D01*
G01*
X15130000Y-12678000D02*
G75*
G03*
X15130000Y-12678000I-40000J0D01*
G01*
X15284000Y-7180000D02*
G75*
G03*
X15284000Y-7180000I-40000J0D01*
G01*
X15284000Y-7434000D02*
G75*
G03*
X15284000Y-7434000I-40000J0D01*
G01*
X15284000Y-7688000D02*
G75*
G03*
X15284000Y-7688000I-40000J0D01*
G01*
X15284000Y-7942000D02*
G75*
G03*
X15284000Y-7942000I-40000J0D01*
G01*
X15284000Y-8196000D02*
G75*
G03*
X15284000Y-8196000I-40000J0D01*
G01*
X15284000Y-8450000D02*
G75*
G03*
X15284000Y-8450000I-40000J0D01*
G01*
X15284000Y-8704000D02*
G75*
G03*
X15284000Y-8704000I-40000J0D01*
G01*
X15284000Y-8958000D02*
G75*
G03*
X15284000Y-8958000I-40000J0D01*
G01*
X15284000Y-9212000D02*
G75*
G03*
X15284000Y-9212000I-40000J0D01*
G01*
X15284000Y-9466000D02*
G75*
G03*
X15284000Y-9466000I-40000J0D01*
G01*
X15284000Y-9720000D02*
G75*
G03*
X15284000Y-9720000I-40000J0D01*
G01*
X15284000Y-9974000D02*
G75*
G03*
X15284000Y-9974000I-40000J0D01*
G01*
X15892000Y-10900000D02*
G75*
G03*
X15892000Y-10900000I-40000J0D01*
G01*
X15892000Y-11154000D02*
G75*
G03*
X15892000Y-11154000I-40000J0D01*
G01*
X15892000Y-11408000D02*
G75*
G03*
X15892000Y-11408000I-40000J0D01*
G01*
X15892000Y-11662000D02*
G75*
G03*
X15892000Y-11662000I-40000J0D01*
G01*
X15892000Y-11916000D02*
G75*
G03*
X15892000Y-11916000I-40000J0D01*
G01*
X15892000Y-12170000D02*
G75*
G03*
X15892000Y-12170000I-40000J0D01*
G01*
X15892000Y-12424000D02*
G75*
G03*
X15892000Y-12424000I-40000J0D01*
G01*
X15892000Y-12678000D02*
G75*
G03*
X15892000Y-12678000I-40000J0D01*
G01*
X16410000Y-7930000D02*
G75*
G03*
X16410000Y-7930000I-40000J0D01*
G01*
X16410000Y-8184000D02*
G75*
G03*
X16410000Y-8184000I-40000J0D01*
G01*
X16410000Y-8438000D02*
G75*
G03*
X16410000Y-8438000I-40000J0D01*
G01*
X16410000Y-8692000D02*
G75*
G03*
X16410000Y-8692000I-40000J0D01*
G01*
X16410000Y-8946000D02*
G75*
G03*
X16410000Y-8946000I-40000J0D01*
G01*
X16410000Y-9200000D02*
G75*
G03*
X16410000Y-9200000I-40000J0D01*
G01*
X16410000Y-9454000D02*
G75*
G03*
X16410000Y-9454000I-40000J0D01*
G01*
X16430000Y-10900000D02*
G75*
G03*
X16430000Y-10900000I-40000J0D01*
G01*
X16430000Y-11154000D02*
G75*
G03*
X16430000Y-11154000I-40000J0D01*
G01*
X16430000Y-11408000D02*
G75*
G03*
X16430000Y-11408000I-40000J0D01*
G01*
X16430000Y-11662000D02*
G75*
G03*
X16430000Y-11662000I-40000J0D01*
G01*
X16430000Y-11916000D02*
G75*
G03*
X16430000Y-11916000I-40000J0D01*
G01*
X16430000Y-12170000D02*
G75*
G03*
X16430000Y-12170000I-40000J0D01*
G01*
X16430000Y-12424000D02*
G75*
G03*
X16430000Y-12424000I-40000J0D01*
G01*
X16430000Y-12678000D02*
G75*
G03*
X16430000Y-12678000I-40000J0D01*
G01*
X17172000Y-7930000D02*
G75*
G03*
X17172000Y-7930000I-40000J0D01*
G01*
X17172000Y-8184000D02*
G75*
G03*
X17172000Y-8184000I-40000J0D01*
G01*
X17172000Y-8438000D02*
G75*
G03*
X17172000Y-8438000I-40000J0D01*
G01*
X17172000Y-8692000D02*
G75*
G03*
X17172000Y-8692000I-40000J0D01*
G01*
X17172000Y-8946000D02*
G75*
G03*
X17172000Y-8946000I-40000J0D01*
G01*
X17172000Y-9200000D02*
G75*
G03*
X17172000Y-9200000I-40000J0D01*
G01*
X17172000Y-9454000D02*
G75*
G03*
X17172000Y-9454000I-40000J0D01*
G01*
X17192000Y-10900000D02*
G75*
G03*
X17192000Y-10900000I-40000J0D01*
G01*
X17192000Y-11154000D02*
G75*
G03*
X17192000Y-11154000I-40000J0D01*
G01*
X17192000Y-11408000D02*
G75*
G03*
X17192000Y-11408000I-40000J0D01*
G01*
X17192000Y-11662000D02*
G75*
G03*
X17192000Y-11662000I-40000J0D01*
G01*
X17192000Y-11916000D02*
G75*
G03*
X17192000Y-11916000I-40000J0D01*
G01*
X17192000Y-12170000D02*
G75*
G03*
X17192000Y-12170000I-40000J0D01*
G01*
X17192000Y-12424000D02*
G75*
G03*
X17192000Y-12424000I-40000J0D01*
G01*
X17192000Y-12678000D02*
G75*
G03*
X17192000Y-12678000I-40000J0D01*
G01*
X8640000Y-4550000D02*
X8640000Y-4650000D01*
X8590000Y-4600000D02*
X8690000Y-4600000D01*
X8640000Y-13550000D02*
X8640000Y-13650000D01*
X8590000Y-13600000D02*
X8690000Y-13600000D01*
X8894000Y-4550000D02*
X8894000Y-4650000D01*
X8844000Y-4600000D02*
X8944000Y-4600000D01*
X8894000Y-13550000D02*
X8894000Y-13650000D01*
X8844000Y-13600000D02*
X8944000Y-13600000D01*
X8896000Y-5710000D02*
X8896000Y-5810000D01*
X8846000Y-5760000D02*
X8946000Y-5760000D01*
X8896000Y-5964000D02*
X8896000Y-6064000D01*
X8846000Y-6014000D02*
X8946000Y-6014000D01*
X8896000Y-6218000D02*
X8896000Y-6318000D01*
X8846000Y-6268000D02*
X8946000Y-6268000D01*
X8896000Y-6472000D02*
X8896000Y-6572000D01*
X8846000Y-6522000D02*
X8946000Y-6522000D01*
X8896000Y-6726000D02*
X8896000Y-6826000D01*
X8846000Y-6776000D02*
X8946000Y-6776000D01*
X8896000Y-6980000D02*
X8896000Y-7080000D01*
X8846000Y-7030000D02*
X8946000Y-7030000D01*
X8896000Y-7234000D02*
X8896000Y-7334000D01*
X8846000Y-7284000D02*
X8946000Y-7284000D01*
X8896000Y-7488000D02*
X8896000Y-7588000D01*
X8846000Y-7538000D02*
X8946000Y-7538000D01*
X8899000Y-10610000D02*
X8899000Y-10710000D01*
X8849000Y-10660000D02*
X8949000Y-10660000D01*
X8899000Y-10864000D02*
X8899000Y-10964000D01*
X8849000Y-10914000D02*
X8949000Y-10914000D01*
X8899000Y-11118000D02*
X8899000Y-11218000D01*
X8849000Y-11168000D02*
X8949000Y-11168000D01*
X8899000Y-11372000D02*
X8899000Y-11472000D01*
X8849000Y-11422000D02*
X8949000Y-11422000D01*
X8899000Y-11626000D02*
X8899000Y-11726000D01*
X8849000Y-11676000D02*
X8949000Y-11676000D01*
X8899000Y-11880000D02*
X8899000Y-11980000D01*
X8849000Y-11930000D02*
X8949000Y-11930000D01*
X8899000Y-12134000D02*
X8899000Y-12234000D01*
X8849000Y-12184000D02*
X8949000Y-12184000D01*
X8899000Y-12388000D02*
X8899000Y-12488000D01*
X8849000Y-12438000D02*
X8949000Y-12438000D01*
X9148000Y-4550000D02*
X9148000Y-4650000D01*
X9098000Y-4600000D02*
X9198000Y-4600000D01*
X9148000Y-13550000D02*
X9148000Y-13650000D01*
X9098000Y-13600000D02*
X9198000Y-13600000D01*
X9150000Y-5710000D02*
X9150000Y-5810000D01*
X9100000Y-5760000D02*
X9200000Y-5760000D01*
X9150000Y-5964000D02*
X9150000Y-6064000D01*
X9100000Y-6014000D02*
X9200000Y-6014000D01*
X9150000Y-6218000D02*
X9150000Y-6318000D01*
X9100000Y-6268000D02*
X9200000Y-6268000D01*
X9150000Y-6472000D02*
X9150000Y-6572000D01*
X9100000Y-6522000D02*
X9200000Y-6522000D01*
X9150000Y-6726000D02*
X9150000Y-6826000D01*
X9100000Y-6776000D02*
X9200000Y-6776000D01*
X9150000Y-6980000D02*
X9150000Y-7080000D01*
X9100000Y-7030000D02*
X9200000Y-7030000D01*
X9150000Y-7234000D02*
X9150000Y-7334000D01*
X9100000Y-7284000D02*
X9200000Y-7284000D01*
X9150000Y-7488000D02*
X9150000Y-7588000D01*
X9100000Y-7538000D02*
X9200000Y-7538000D01*
X9153000Y-10610000D02*
X9153000Y-10710000D01*
X9103000Y-10660000D02*
X9203000Y-10660000D01*
X9153000Y-10864000D02*
X9153000Y-10964000D01*
X9103000Y-10914000D02*
X9203000Y-10914000D01*
X9153000Y-11118000D02*
X9153000Y-11218000D01*
X9103000Y-11168000D02*
X9203000Y-11168000D01*
X9153000Y-11372000D02*
X9153000Y-11472000D01*
X9103000Y-11422000D02*
X9203000Y-11422000D01*
X9153000Y-11626000D02*
X9153000Y-11726000D01*
X9103000Y-11676000D02*
X9203000Y-11676000D01*
X9153000Y-11880000D02*
X9153000Y-11980000D01*
X9103000Y-11930000D02*
X9203000Y-11930000D01*
X9153000Y-12134000D02*
X9153000Y-12234000D01*
X9103000Y-12184000D02*
X9203000Y-12184000D01*
X9153000Y-12388000D02*
X9153000Y-12488000D01*
X9103000Y-12438000D02*
X9203000Y-12438000D01*
X9402000Y-4550000D02*
X9402000Y-4650000D01*
X9352000Y-4600000D02*
X9452000Y-4600000D01*
X9402000Y-13550000D02*
X9402000Y-13650000D01*
X9352000Y-13600000D02*
X9452000Y-13600000D01*
X9656000Y-4550000D02*
X9656000Y-4650000D01*
X9606000Y-4600000D02*
X9706000Y-4600000D01*
X9656000Y-13550000D02*
X9656000Y-13650000D01*
X9606000Y-13600000D02*
X9706000Y-13600000D01*
X9910000Y-4550000D02*
X9910000Y-4650000D01*
X9860000Y-4600000D02*
X9960000Y-4600000D01*
X9910000Y-13550000D02*
X9910000Y-13650000D01*
X9860000Y-13600000D02*
X9960000Y-13600000D01*
X10164000Y-4550000D02*
X10164000Y-4650000D01*
X10114000Y-4600000D02*
X10214000Y-4600000D01*
X10164000Y-13550000D02*
X10164000Y-13650000D01*
X10114000Y-13600000D02*
X10214000Y-13600000D01*
X10418000Y-4550000D02*
X10418000Y-4650000D01*
X10368000Y-4600000D02*
X10468000Y-4600000D01*
X10418000Y-13550000D02*
X10418000Y-13650000D01*
X10368000Y-13600000D02*
X10468000Y-13600000D01*
X10672000Y-4550000D02*
X10672000Y-4650000D01*
X10622000Y-4600000D02*
X10722000Y-4600000D01*
X10672000Y-13550000D02*
X10672000Y-13650000D01*
X10622000Y-13600000D02*
X10722000Y-13600000D01*
X10926000Y-4550000D02*
X10926000Y-4650000D01*
X10876000Y-4600000D02*
X10976000Y-4600000D01*
X10926000Y-13550000D02*
X10926000Y-13650000D01*
X10876000Y-13600000D02*
X10976000Y-13600000D01*
X11180000Y-4550000D02*
X11180000Y-4650000D01*
X11130000Y-4600000D02*
X11230000Y-4600000D01*
X11180000Y-13550000D02*
X11180000Y-13650000D01*
X11130000Y-13600000D02*
X11230000Y-13600000D01*
X11434000Y-4550000D02*
X11434000Y-4650000D01*
X11384000Y-4600000D02*
X11484000Y-4600000D01*
X11434000Y-13550000D02*
X11434000Y-13650000D01*
X11384000Y-13600000D02*
X11484000Y-13600000D01*
X11688000Y-4550000D02*
X11688000Y-4650000D01*
X11638000Y-4600000D02*
X11738000Y-4600000D01*
X11688000Y-13550000D02*
X11688000Y-13650000D01*
X11638000Y-13600000D02*
X11738000Y-13600000D01*
X11942000Y-4550000D02*
X11942000Y-4650000D01*
X11892000Y-4600000D02*
X11992000Y-4600000D01*
X11942000Y-13550000D02*
X11942000Y-13650000D01*
X11892000Y-13600000D02*
X11992000Y-13600000D01*
X12196000Y-4550000D02*
X12196000Y-4650000D01*
X12146000Y-4600000D02*
X12246000Y-4600000D01*
X12196000Y-13550000D02*
X12196000Y-13650000D01*
X12146000Y-13600000D02*
X12246000Y-13600000D01*
X12450000Y-4550000D02*
X12450000Y-4650000D01*
X12400000Y-4600000D02*
X12500000Y-4600000D01*
X12450000Y-13550000D02*
X12450000Y-13650000D01*
X12400000Y-13600000D02*
X12500000Y-13600000D01*
X12704000Y-4550000D02*
X12704000Y-4650000D01*
X12654000Y-4600000D02*
X12754000Y-4600000D01*
X12704000Y-13550000D02*
X12704000Y-13650000D01*
X12654000Y-13600000D02*
X12754000Y-13600000D01*
X12958000Y-4550000D02*
X12958000Y-4650000D01*
X12908000Y-4600000D02*
X13008000Y-4600000D01*
X12958000Y-13550000D02*
X12958000Y-13650000D01*
X12908000Y-13600000D02*
X13008000Y-13600000D01*
X13212000Y-4550000D02*
X13212000Y-4650000D01*
X13162000Y-4600000D02*
X13262000Y-4600000D01*
X13212000Y-13550000D02*
X13212000Y-13650000D01*
X13162000Y-13600000D02*
X13262000Y-13600000D01*
X13466000Y-4550000D02*
X13466000Y-4650000D01*
X13416000Y-4600000D02*
X13516000Y-4600000D01*
X13466000Y-13550000D02*
X13466000Y-13650000D01*
X13416000Y-13600000D02*
X13516000Y-13600000D01*
X13720000Y-4550000D02*
X13720000Y-4650000D01*
X13670000Y-4600000D02*
X13770000Y-4600000D01*
X13720000Y-13550000D02*
X13720000Y-13650000D01*
X13670000Y-13600000D02*
X13770000Y-13600000D01*
X13974000Y-4550000D02*
X13974000Y-4650000D01*
X13924000Y-4600000D02*
X14024000Y-4600000D01*
X13974000Y-13550000D02*
X13974000Y-13650000D01*
X13924000Y-13600000D02*
X14024000Y-13600000D01*
X14228000Y-4550000D02*
X14228000Y-4650000D01*
X14178000Y-4600000D02*
X14278000Y-4600000D01*
X14228000Y-13550000D02*
X14228000Y-13650000D01*
X14178000Y-13600000D02*
X14278000Y-13600000D01*
X14482000Y-4550000D02*
X14482000Y-4650000D01*
X14432000Y-4600000D02*
X14532000Y-4600000D01*
X14482000Y-13550000D02*
X14482000Y-13650000D01*
X14432000Y-13600000D02*
X14532000Y-13600000D01*
X14736000Y-4550000D02*
X14736000Y-4650000D01*
X14686000Y-4600000D02*
X14786000Y-4600000D01*
X14736000Y-13550000D02*
X14736000Y-13650000D01*
X14686000Y-13600000D02*
X14786000Y-13600000D01*
X14990000Y-4550000D02*
X14990000Y-4650000D01*
X14940000Y-4600000D02*
X15040000Y-4600000D01*
X14990000Y-13550000D02*
X14990000Y-13650000D01*
X14940000Y-13600000D02*
X15040000Y-13600000D01*
X15244000Y-4550000D02*
X15244000Y-4650000D01*
X15194000Y-4600000D02*
X15294000Y-4600000D01*
X15244000Y-13550000D02*
X15244000Y-13650000D01*
X15194000Y-13600000D02*
X15294000Y-13600000D01*
X15498000Y-4550000D02*
X15498000Y-4650000D01*
X15448000Y-4600000D02*
X15548000Y-4600000D01*
X15498000Y-13550000D02*
X15498000Y-13650000D01*
X15448000Y-13600000D02*
X15548000Y-13600000D01*
X15752000Y-4550000D02*
X15752000Y-4650000D01*
X15702000Y-4600000D02*
X15802000Y-4600000D01*
X15752000Y-13550000D02*
X15752000Y-13650000D01*
X15702000Y-13600000D02*
X15802000Y-13600000D01*
X16006000Y-4550000D02*
X16006000Y-4650000D01*
X15956000Y-4600000D02*
X16056000Y-4600000D01*
X16006000Y-13550000D02*
X16006000Y-13650000D01*
X15956000Y-13600000D02*
X16056000Y-13600000D01*
X16260000Y-4550000D02*
X16260000Y-4650000D01*
X16210000Y-4600000D02*
X16310000Y-4600000D01*
X16260000Y-13550000D02*
X16260000Y-13650000D01*
X16210000Y-13600000D02*
X16310000Y-13600000D01*
X16514000Y-4550000D02*
X16514000Y-4650000D01*
X16464000Y-4600000D02*
X16564000Y-4600000D01*
X16514000Y-13550000D02*
X16514000Y-13650000D01*
X16464000Y-13600000D02*
X16564000Y-13600000D01*
X16768000Y-4550000D02*
X16768000Y-4650000D01*
X16718000Y-4600000D02*
X16818000Y-4600000D01*
X16768000Y-13550000D02*
X16768000Y-13650000D01*
X16718000Y-13600000D02*
X16818000Y-13600000D01*
X17022000Y-4550000D02*
X17022000Y-4650000D01*
X16972000Y-4600000D02*
X17072000Y-4600000D01*
X17022000Y-13550000D02*
X17022000Y-13650000D01*
X16972000Y-13600000D02*
X17072000Y-13600000D01*
X17276000Y-4550000D02*
X17276000Y-4650000D01*
X17226000Y-4600000D02*
X17326000Y-4600000D01*
X17276000Y-13550000D02*
X17276000Y-13650000D01*
X17226000Y-13600000D02*
X17326000Y-13600000D01*
X17530000Y-4550000D02*
X17530000Y-4650000D01*
X17480000Y-4600000D02*
X17580000Y-4600000D01*
X17530000Y-13550000D02*
X17530000Y-13650000D01*
X17480000Y-13600000D02*
X17580000Y-13600000D01*
X17784000Y-4550000D02*
X17784000Y-4650000D01*
X17734000Y-4600000D02*
X17834000Y-4600000D01*
X17784000Y-13550000D02*
X17784000Y-13650000D01*
X17734000Y-13600000D02*
X17834000Y-13600000D01*
X18038000Y-4550000D02*
X18038000Y-4650000D01*
X17988000Y-4600000D02*
X18088000Y-4600000D01*
X18038000Y-13550000D02*
X18038000Y-13650000D01*
X17988000Y-13600000D02*
X18088000Y-13600000D01*
X18290000Y-5710000D02*
X18290000Y-5810000D01*
X18240000Y-5760000D02*
X18340000Y-5760000D01*
X18290000Y-5964000D02*
X18290000Y-6064000D01*
X18240000Y-6014000D02*
X18340000Y-6014000D01*
X18290000Y-6218000D02*
X18290000Y-6318000D01*
X18240000Y-6268000D02*
X18340000Y-6268000D01*
X18290000Y-6472000D02*
X18290000Y-6572000D01*
X18240000Y-6522000D02*
X18340000Y-6522000D01*
X18290000Y-6726000D02*
X18290000Y-6826000D01*
X18240000Y-6776000D02*
X18340000Y-6776000D01*
X18290000Y-6980000D02*
X18290000Y-7080000D01*
X18240000Y-7030000D02*
X18340000Y-7030000D01*
X18290000Y-7234000D02*
X18290000Y-7334000D01*
X18240000Y-7284000D02*
X18340000Y-7284000D01*
X18290000Y-7488000D02*
X18290000Y-7588000D01*
X18240000Y-7538000D02*
X18340000Y-7538000D01*
X18290000Y-10610000D02*
X18290000Y-10710000D01*
X18240000Y-10660000D02*
X18340000Y-10660000D01*
X18290000Y-10864000D02*
X18290000Y-10964000D01*
X18240000Y-10914000D02*
X18340000Y-10914000D01*
X18290000Y-11118000D02*
X18290000Y-11218000D01*
X18240000Y-11168000D02*
X18340000Y-11168000D01*
X18290000Y-11372000D02*
X18290000Y-11472000D01*
X18240000Y-11422000D02*
X18340000Y-11422000D01*
X18290000Y-11626000D02*
X18290000Y-11726000D01*
X18240000Y-11676000D02*
X18340000Y-11676000D01*
X18290000Y-11880000D02*
X18290000Y-11980000D01*
X18240000Y-11930000D02*
X18340000Y-11930000D01*
X18290000Y-12134000D02*
X18290000Y-12234000D01*
X18240000Y-12184000D02*
X18340000Y-12184000D01*
X18290000Y-12388000D02*
X18290000Y-12488000D01*
X18240000Y-12438000D02*
X18340000Y-12438000D01*
X18292000Y-4550000D02*
X18292000Y-4650000D01*
X18242000Y-4600000D02*
X18342000Y-4600000D01*
X18292000Y-13550000D02*
X18292000Y-13650000D01*
X18242000Y-13600000D02*
X18342000Y-13600000D01*
X18546000Y-4550000D02*
X18546000Y-4650000D01*
X18496000Y-4600000D02*
X18596000Y-4600000D01*
X18546000Y-13550000D02*
X18546000Y-13650000D01*
X18496000Y-13600000D02*
X18596000Y-13600000D01*
D12*
X8781428Y-14370714D02*
X8781428Y-14070714D01*
X8852857Y-14070714D01*
X8895714Y-14085000D01*
X8924286Y-14113571D01*
X8938571Y-14142143D01*
X8952857Y-14199286D01*
X8952857Y-14242143D01*
X8938571Y-14299286D01*
X8924286Y-14327857D01*
X8895714Y-14356429D01*
X8852857Y-14370714D01*
X8781428Y-14370714D01*
X9081428Y-14370714D02*
X9081428Y-14170714D01*
X9081428Y-14227857D02*
X9095714Y-14199286D01*
X9110000Y-14185000D01*
X9138571Y-14170714D01*
X9167143Y-14170714D01*
X9267143Y-14370714D02*
X9267143Y-14170714D01*
X9267143Y-14070714D02*
X9252857Y-14085000D01*
X9267143Y-14099286D01*
X9281428Y-14085000D01*
X9267143Y-14070714D01*
X9267143Y-14099286D01*
X9452857Y-14370714D02*
X9424286Y-14356429D01*
X9410000Y-14327857D01*
X9410000Y-14070714D01*
X9610000Y-14370714D02*
X9581428Y-14356429D01*
X9567143Y-14327857D01*
X9567143Y-14070714D01*
X9952857Y-14370714D02*
X9952857Y-14070714D01*
X10052857Y-14285000D01*
X10152857Y-14070714D01*
X10152857Y-14370714D01*
X10424286Y-14370714D02*
X10424286Y-14213571D01*
X10410000Y-14185000D01*
X10381428Y-14170714D01*
X10324286Y-14170714D01*
X10295714Y-14185000D01*
X10424286Y-14356429D02*
X10395714Y-14370714D01*
X10324286Y-14370714D01*
X10295714Y-14356429D01*
X10281428Y-14327857D01*
X10281428Y-14299286D01*
X10295714Y-14270714D01*
X10324286Y-14256429D01*
X10395714Y-14256429D01*
X10424286Y-14242143D01*
X10567143Y-14170714D02*
X10567143Y-14470714D01*
X10567143Y-14185000D02*
X10595714Y-14170714D01*
X10652857Y-14170714D01*
X10681428Y-14185000D01*
X10695714Y-14199286D01*
X10710000Y-14227857D01*
X10710000Y-14313571D01*
X10695714Y-14342143D01*
X10681428Y-14356429D01*
X10652857Y-14370714D01*
X10595714Y-14370714D01*
X10567143Y-14356429D01*
X10838571Y-14342143D02*
X10852857Y-14356429D01*
X10838571Y-14370714D01*
X10824286Y-14356429D01*
X10838571Y-14342143D01*
X10838571Y-14370714D01*
X10838571Y-14185000D02*
X10852857Y-14199286D01*
X10838571Y-14213571D01*
X10824286Y-14199286D01*
X10838571Y-14185000D01*
X10838571Y-14213571D01*
X8455000Y-14845000D02*
X8495000Y-14885000D01*
X8495000Y-14845000D02*
X8455000Y-14885000D01*
X8838571Y-14700714D02*
X8867143Y-14700714D01*
X8895714Y-14715000D01*
X8910000Y-14729286D01*
X8924286Y-14757857D01*
X8938571Y-14815000D01*
X8938571Y-14886429D01*
X8924286Y-14943571D01*
X8910000Y-14972143D01*
X8895714Y-14986429D01*
X8867143Y-15000714D01*
X8838571Y-15000714D01*
X8810000Y-14986429D01*
X8795714Y-14972143D01*
X8781428Y-14943571D01*
X8767143Y-14886429D01*
X8767143Y-14815000D01*
X8781428Y-14757857D01*
X8795714Y-14729286D01*
X8810000Y-14715000D01*
X8838571Y-14700714D01*
X9067143Y-14972143D02*
X9081428Y-14986429D01*
X9067143Y-15000714D01*
X9052857Y-14986429D01*
X9067143Y-14972143D01*
X9067143Y-15000714D01*
X9338571Y-14800714D02*
X9338571Y-15000714D01*
X9267143Y-14686429D02*
X9195714Y-14900714D01*
X9381428Y-14900714D01*
X9552857Y-14700714D02*
X9581428Y-14700714D01*
X9610000Y-14715000D01*
X9624286Y-14729286D01*
X9638571Y-14757857D01*
X9652857Y-14815000D01*
X9652857Y-14886429D01*
X9638571Y-14943571D01*
X9624286Y-14972143D01*
X9610000Y-14986429D01*
X9581428Y-15000714D01*
X9552857Y-15000714D01*
X9524286Y-14986429D01*
X9510000Y-14972143D01*
X9495714Y-14943571D01*
X9481428Y-14886429D01*
X9481428Y-14815000D01*
X9495714Y-14757857D01*
X9510000Y-14729286D01*
X9524286Y-14715000D01*
X9552857Y-14700714D01*
X9781428Y-15000714D02*
X9781428Y-14800714D01*
X9781428Y-14829286D02*
X9795714Y-14815000D01*
X9824286Y-14800714D01*
X9867143Y-14800714D01*
X9895714Y-14815000D01*
X9910000Y-14843571D01*
X9910000Y-15000714D01*
X9910000Y-14843571D02*
X9924286Y-14815000D01*
X9952857Y-14800714D01*
X9995714Y-14800714D01*
X10024286Y-14815000D01*
X10038571Y-14843571D01*
X10038571Y-15000714D01*
X10181428Y-15000714D02*
X10181428Y-14800714D01*
X10181428Y-14829286D02*
X10195714Y-14815000D01*
X10224286Y-14800714D01*
X10267143Y-14800714D01*
X10295714Y-14815000D01*
X10310000Y-14843571D01*
X10310000Y-15000714D01*
X10310000Y-14843571D02*
X10324286Y-14815000D01*
X10352857Y-14800714D01*
X10395714Y-14800714D01*
X10424286Y-14815000D01*
X10438571Y-14843571D01*
X10438571Y-15000714D01*
X11024286Y-14686429D02*
X10767143Y-15072143D01*
X11410000Y-14700714D02*
X11438571Y-14700714D01*
X11467143Y-14715000D01*
X11481428Y-14729286D01*
X11495714Y-14757857D01*
X11510000Y-14815000D01*
X11510000Y-14886429D01*
X11495714Y-14943571D01*
X11481428Y-14972143D01*
X11467143Y-14986429D01*
X11438571Y-15000714D01*
X11410000Y-15000714D01*
X11381428Y-14986429D01*
X11367143Y-14972143D01*
X11352857Y-14943571D01*
X11338571Y-14886429D01*
X11338571Y-14815000D01*
X11352857Y-14757857D01*
X11367143Y-14729286D01*
X11381428Y-14715000D01*
X11410000Y-14700714D01*
X11638571Y-14972143D02*
X11652857Y-14986429D01*
X11638571Y-15000714D01*
X11624286Y-14986429D01*
X11638571Y-14972143D01*
X11638571Y-15000714D01*
X11838571Y-14700714D02*
X11867143Y-14700714D01*
X11895714Y-14715000D01*
X11910000Y-14729286D01*
X11924286Y-14757857D01*
X11938571Y-14815000D01*
X11938571Y-14886429D01*
X11924286Y-14943571D01*
X11910000Y-14972143D01*
X11895714Y-14986429D01*
X11867143Y-15000714D01*
X11838571Y-15000714D01*
X11810000Y-14986429D01*
X11795714Y-14972143D01*
X11781428Y-14943571D01*
X11767143Y-14886429D01*
X11767143Y-14815000D01*
X11781428Y-14757857D01*
X11795714Y-14729286D01*
X11810000Y-14715000D01*
X11838571Y-14700714D01*
X12224286Y-15000714D02*
X12052857Y-15000714D01*
X12138571Y-15000714D02*
X12138571Y-14700714D01*
X12110000Y-14743571D01*
X12081428Y-14772143D01*
X12052857Y-14786429D01*
X12481428Y-14700714D02*
X12424286Y-14700714D01*
X12395714Y-14715000D01*
X12381428Y-14729286D01*
X12352857Y-14772143D01*
X12338571Y-14829286D01*
X12338571Y-14943571D01*
X12352857Y-14972143D01*
X12367143Y-14986429D01*
X12395714Y-15000714D01*
X12452857Y-15000714D01*
X12481428Y-14986429D01*
X12495714Y-14972143D01*
X12510000Y-14943571D01*
X12510000Y-14872143D01*
X12495714Y-14843571D01*
X12481428Y-14829286D01*
X12452857Y-14815000D01*
X12395714Y-14815000D01*
X12367143Y-14829286D01*
X12352857Y-14843571D01*
X12338571Y-14872143D01*
X12624286Y-14700714D02*
X12624286Y-14757857D01*
X12738571Y-14700714D02*
X12738571Y-14757857D01*
X13181428Y-15115000D02*
X13167143Y-15100714D01*
X13138571Y-15057857D01*
X13124286Y-15029286D01*
X13110000Y-14986429D01*
X13095714Y-14915000D01*
X13095714Y-14857857D01*
X13110000Y-14786429D01*
X13124286Y-14743571D01*
X13138571Y-14715000D01*
X13167143Y-14672143D01*
X13181428Y-14657857D01*
X13267143Y-14700714D02*
X13467143Y-14700714D01*
X13338571Y-15000714D01*
X13724286Y-14700714D02*
X13581428Y-14700714D01*
X13567143Y-14843571D01*
X13581428Y-14829286D01*
X13610000Y-14815000D01*
X13681428Y-14815000D01*
X13710000Y-14829286D01*
X13724286Y-14843571D01*
X13738571Y-14872143D01*
X13738571Y-14943571D01*
X13724286Y-14972143D01*
X13710000Y-14986429D01*
X13681428Y-15000714D01*
X13610000Y-15000714D01*
X13581428Y-14986429D01*
X13567143Y-14972143D01*
X14095714Y-15000714D02*
X14095714Y-14700714D01*
X14224286Y-15000714D02*
X14224286Y-14843571D01*
X14210000Y-14815000D01*
X14181428Y-14800714D01*
X14138571Y-14800714D01*
X14110000Y-14815000D01*
X14095714Y-14829286D01*
X14410000Y-15000714D02*
X14381428Y-14986429D01*
X14367143Y-14972143D01*
X14352857Y-14943571D01*
X14352857Y-14857857D01*
X14367143Y-14829286D01*
X14381428Y-14815000D01*
X14410000Y-14800714D01*
X14452857Y-14800714D01*
X14481428Y-14815000D01*
X14495714Y-14829286D01*
X14510000Y-14857857D01*
X14510000Y-14943571D01*
X14495714Y-14972143D01*
X14481428Y-14986429D01*
X14452857Y-15000714D01*
X14410000Y-15000714D01*
X14681428Y-15000714D02*
X14652857Y-14986429D01*
X14638571Y-14957857D01*
X14638571Y-14700714D01*
X14910000Y-14986429D02*
X14881428Y-15000714D01*
X14824286Y-15000714D01*
X14795714Y-14986429D01*
X14781428Y-14957857D01*
X14781428Y-14843571D01*
X14795714Y-14815000D01*
X14824286Y-14800714D01*
X14881428Y-14800714D01*
X14910000Y-14815000D01*
X14924286Y-14843571D01*
X14924286Y-14872143D01*
X14781428Y-14900714D01*
X15038571Y-14986429D02*
X15067143Y-15000714D01*
X15124286Y-15000714D01*
X15152857Y-14986429D01*
X15167143Y-14957857D01*
X15167143Y-14943571D01*
X15152857Y-14915000D01*
X15124286Y-14900714D01*
X15081428Y-14900714D01*
X15052857Y-14886429D01*
X15038571Y-14857857D01*
X15038571Y-14843571D01*
X15052857Y-14815000D01*
X15081428Y-14800714D01*
X15124286Y-14800714D01*
X15152857Y-14815000D01*
X15267143Y-15115000D02*
X15281428Y-15100714D01*
X15310000Y-15057857D01*
X15324286Y-15029286D01*
X15338571Y-14986429D01*
X15352857Y-14915000D01*
X15352857Y-14857857D01*
X15338571Y-14786429D01*
X15324286Y-14743571D01*
X15310000Y-14715000D01*
X15281428Y-14672143D01*
X15267143Y-14657857D01*
X8495000Y-15261000D02*
G75*
G03*
X8495000Y-15261000I-40000J0D01*
G01*
X8838571Y-15096714D02*
X8867143Y-15096714D01*
X8895714Y-15111000D01*
X8910000Y-15125286D01*
X8924286Y-15153857D01*
X8938571Y-15211000D01*
X8938571Y-15282429D01*
X8924286Y-15339571D01*
X8910000Y-15368143D01*
X8895714Y-15382429D01*
X8867143Y-15396714D01*
X8838571Y-15396714D01*
X8810000Y-15382429D01*
X8795714Y-15368143D01*
X8781428Y-15339571D01*
X8767143Y-15282429D01*
X8767143Y-15211000D01*
X8781428Y-15153857D01*
X8795714Y-15125286D01*
X8810000Y-15111000D01*
X8838571Y-15096714D01*
X9067143Y-15368143D02*
X9081428Y-15382429D01*
X9067143Y-15396714D01*
X9052857Y-15382429D01*
X9067143Y-15368143D01*
X9067143Y-15396714D01*
X9252857Y-15225286D02*
X9224286Y-15211000D01*
X9210000Y-15196714D01*
X9195714Y-15168143D01*
X9195714Y-15153857D01*
X9210000Y-15125286D01*
X9224286Y-15111000D01*
X9252857Y-15096714D01*
X9310000Y-15096714D01*
X9338571Y-15111000D01*
X9352857Y-15125286D01*
X9367143Y-15153857D01*
X9367143Y-15168143D01*
X9352857Y-15196714D01*
X9338571Y-15211000D01*
X9310000Y-15225286D01*
X9252857Y-15225286D01*
X9224286Y-15239571D01*
X9210000Y-15253857D01*
X9195714Y-15282429D01*
X9195714Y-15339571D01*
X9210000Y-15368143D01*
X9224286Y-15382429D01*
X9252857Y-15396714D01*
X9310000Y-15396714D01*
X9338571Y-15382429D01*
X9352857Y-15368143D01*
X9367143Y-15339571D01*
X9367143Y-15282429D01*
X9352857Y-15253857D01*
X9338571Y-15239571D01*
X9310000Y-15225286D01*
X9552857Y-15096714D02*
X9581428Y-15096714D01*
X9610000Y-15111000D01*
X9624286Y-15125286D01*
X9638571Y-15153857D01*
X9652857Y-15211000D01*
X9652857Y-15282429D01*
X9638571Y-15339571D01*
X9624286Y-15368143D01*
X9610000Y-15382429D01*
X9581428Y-15396714D01*
X9552857Y-15396714D01*
X9524286Y-15382429D01*
X9510000Y-15368143D01*
X9495714Y-15339571D01*
X9481428Y-15282429D01*
X9481428Y-15211000D01*
X9495714Y-15153857D01*
X9510000Y-15125286D01*
X9524286Y-15111000D01*
X9552857Y-15096714D01*
X9781428Y-15396714D02*
X9781428Y-15196714D01*
X9781428Y-15225286D02*
X9795714Y-15211000D01*
X9824286Y-15196714D01*
X9867143Y-15196714D01*
X9895714Y-15211000D01*
X9910000Y-15239571D01*
X9910000Y-15396714D01*
X9910000Y-15239571D02*
X9924286Y-15211000D01*
X9952857Y-15196714D01*
X9995714Y-15196714D01*
X10024286Y-15211000D01*
X10038571Y-15239571D01*
X10038571Y-15396714D01*
X10181428Y-15396714D02*
X10181428Y-15196714D01*
X10181428Y-15225286D02*
X10195714Y-15211000D01*
X10224286Y-15196714D01*
X10267143Y-15196714D01*
X10295714Y-15211000D01*
X10310000Y-15239571D01*
X10310000Y-15396714D01*
X10310000Y-15239571D02*
X10324286Y-15211000D01*
X10352857Y-15196714D01*
X10395714Y-15196714D01*
X10424286Y-15211000D01*
X10438571Y-15239571D01*
X10438571Y-15396714D01*
X11024286Y-15082429D02*
X10767143Y-15468143D01*
X11410000Y-15096714D02*
X11438571Y-15096714D01*
X11467143Y-15111000D01*
X11481428Y-15125286D01*
X11495714Y-15153857D01*
X11510000Y-15211000D01*
X11510000Y-15282429D01*
X11495714Y-15339571D01*
X11481428Y-15368143D01*
X11467143Y-15382429D01*
X11438571Y-15396714D01*
X11410000Y-15396714D01*
X11381428Y-15382429D01*
X11367143Y-15368143D01*
X11352857Y-15339571D01*
X11338571Y-15282429D01*
X11338571Y-15211000D01*
X11352857Y-15153857D01*
X11367143Y-15125286D01*
X11381428Y-15111000D01*
X11410000Y-15096714D01*
X11638571Y-15368143D02*
X11652857Y-15382429D01*
X11638571Y-15396714D01*
X11624286Y-15382429D01*
X11638571Y-15368143D01*
X11638571Y-15396714D01*
X11838571Y-15096714D02*
X11867143Y-15096714D01*
X11895714Y-15111000D01*
X11910000Y-15125286D01*
X11924286Y-15153857D01*
X11938571Y-15211000D01*
X11938571Y-15282429D01*
X11924286Y-15339571D01*
X11910000Y-15368143D01*
X11895714Y-15382429D01*
X11867143Y-15396714D01*
X11838571Y-15396714D01*
X11810000Y-15382429D01*
X11795714Y-15368143D01*
X11781428Y-15339571D01*
X11767143Y-15282429D01*
X11767143Y-15211000D01*
X11781428Y-15153857D01*
X11795714Y-15125286D01*
X11810000Y-15111000D01*
X11838571Y-15096714D01*
X12038571Y-15096714D02*
X12224286Y-15096714D01*
X12124286Y-15211000D01*
X12167143Y-15211000D01*
X12195714Y-15225286D01*
X12210000Y-15239571D01*
X12224286Y-15268143D01*
X12224286Y-15339571D01*
X12210000Y-15368143D01*
X12195714Y-15382429D01*
X12167143Y-15396714D01*
X12081428Y-15396714D01*
X12052857Y-15382429D01*
X12038571Y-15368143D01*
X12510000Y-15396714D02*
X12338571Y-15396714D01*
X12424286Y-15396714D02*
X12424286Y-15096714D01*
X12395714Y-15139571D01*
X12367143Y-15168143D01*
X12338571Y-15182429D01*
X12624286Y-15096714D02*
X12624286Y-15153857D01*
X12738571Y-15096714D02*
X12738571Y-15153857D01*
X13181428Y-15511000D02*
X13167143Y-15496714D01*
X13138571Y-15453857D01*
X13124286Y-15425286D01*
X13110000Y-15382429D01*
X13095714Y-15311000D01*
X13095714Y-15253857D01*
X13110000Y-15182429D01*
X13124286Y-15139571D01*
X13138571Y-15111000D01*
X13167143Y-15068143D01*
X13181428Y-15053857D01*
X13452857Y-15396714D02*
X13281428Y-15396714D01*
X13367143Y-15396714D02*
X13367143Y-15096714D01*
X13338571Y-15139571D01*
X13310000Y-15168143D01*
X13281428Y-15182429D01*
X13724286Y-15096714D02*
X13581428Y-15096714D01*
X13567143Y-15239571D01*
X13581428Y-15225286D01*
X13610000Y-15211000D01*
X13681428Y-15211000D01*
X13710000Y-15225286D01*
X13724286Y-15239571D01*
X13738571Y-15268143D01*
X13738571Y-15339571D01*
X13724286Y-15368143D01*
X13710000Y-15382429D01*
X13681428Y-15396714D01*
X13610000Y-15396714D01*
X13581428Y-15382429D01*
X13567143Y-15368143D01*
X13995714Y-15196714D02*
X13995714Y-15396714D01*
X13924286Y-15082429D02*
X13852857Y-15296714D01*
X14038571Y-15296714D01*
X14381428Y-15396714D02*
X14381428Y-15096714D01*
X14510000Y-15396714D02*
X14510000Y-15239571D01*
X14495714Y-15211000D01*
X14467143Y-15196714D01*
X14424286Y-15196714D01*
X14395714Y-15211000D01*
X14381428Y-15225286D01*
X14695714Y-15396714D02*
X14667143Y-15382429D01*
X14652857Y-15368143D01*
X14638571Y-15339571D01*
X14638571Y-15253857D01*
X14652857Y-15225286D01*
X14667143Y-15211000D01*
X14695714Y-15196714D01*
X14738571Y-15196714D01*
X14767143Y-15211000D01*
X14781428Y-15225286D01*
X14795714Y-15253857D01*
X14795714Y-15339571D01*
X14781428Y-15368143D01*
X14767143Y-15382429D01*
X14738571Y-15396714D01*
X14695714Y-15396714D01*
X14967143Y-15396714D02*
X14938571Y-15382429D01*
X14924286Y-15353857D01*
X14924286Y-15096714D01*
X15195714Y-15382429D02*
X15167143Y-15396714D01*
X15110000Y-15396714D01*
X15081428Y-15382429D01*
X15067143Y-15353857D01*
X15067143Y-15239571D01*
X15081428Y-15211000D01*
X15110000Y-15196714D01*
X15167143Y-15196714D01*
X15195714Y-15211000D01*
X15210000Y-15239571D01*
X15210000Y-15268143D01*
X15067143Y-15296714D01*
X15324286Y-15382429D02*
X15352857Y-15396714D01*
X15410000Y-15396714D01*
X15438571Y-15382429D01*
X15452857Y-15353857D01*
X15452857Y-15339571D01*
X15438571Y-15311000D01*
X15410000Y-15296714D01*
X15367143Y-15296714D01*
X15338571Y-15282429D01*
X15324286Y-15253857D01*
X15324286Y-15239571D01*
X15338571Y-15211000D01*
X15367143Y-15196714D01*
X15410000Y-15196714D01*
X15438571Y-15211000D01*
X15552857Y-15511000D02*
X15567143Y-15496714D01*
X15595714Y-15453857D01*
X15610000Y-15425286D01*
X15624286Y-15382429D01*
X15638571Y-15311000D01*
X15638571Y-15253857D01*
X15624286Y-15182429D01*
X15610000Y-15139571D01*
X15595714Y-15111000D01*
X15567143Y-15068143D01*
X15552857Y-15053857D01*
X8445000Y-15607000D02*
X8445000Y-15707000D01*
X8395000Y-15657000D02*
X8495000Y-15657000D01*
X8938571Y-15792714D02*
X8767143Y-15792714D01*
X8852857Y-15792714D02*
X8852857Y-15492714D01*
X8824286Y-15535571D01*
X8795714Y-15564143D01*
X8767143Y-15578429D01*
X9067143Y-15764143D02*
X9081428Y-15778429D01*
X9067143Y-15792714D01*
X9052857Y-15778429D01*
X9067143Y-15764143D01*
X9067143Y-15792714D01*
X9267143Y-15492714D02*
X9295714Y-15492714D01*
X9324286Y-15507000D01*
X9338571Y-15521286D01*
X9352857Y-15549857D01*
X9367143Y-15607000D01*
X9367143Y-15678429D01*
X9352857Y-15735571D01*
X9338571Y-15764143D01*
X9324286Y-15778429D01*
X9295714Y-15792714D01*
X9267143Y-15792714D01*
X9238571Y-15778429D01*
X9224286Y-15764143D01*
X9210000Y-15735571D01*
X9195714Y-15678429D01*
X9195714Y-15607000D01*
X9210000Y-15549857D01*
X9224286Y-15521286D01*
X9238571Y-15507000D01*
X9267143Y-15492714D01*
X9552857Y-15492714D02*
X9581428Y-15492714D01*
X9610000Y-15507000D01*
X9624286Y-15521286D01*
X9638571Y-15549857D01*
X9652857Y-15607000D01*
X9652857Y-15678429D01*
X9638571Y-15735571D01*
X9624286Y-15764143D01*
X9610000Y-15778429D01*
X9581428Y-15792714D01*
X9552857Y-15792714D01*
X9524286Y-15778429D01*
X9510000Y-15764143D01*
X9495714Y-15735571D01*
X9481428Y-15678429D01*
X9481428Y-15607000D01*
X9495714Y-15549857D01*
X9510000Y-15521286D01*
X9524286Y-15507000D01*
X9552857Y-15492714D01*
X9781428Y-15792714D02*
X9781428Y-15592714D01*
X9781428Y-15621286D02*
X9795714Y-15607000D01*
X9824286Y-15592714D01*
X9867143Y-15592714D01*
X9895714Y-15607000D01*
X9910000Y-15635571D01*
X9910000Y-15792714D01*
X9910000Y-15635571D02*
X9924286Y-15607000D01*
X9952857Y-15592714D01*
X9995714Y-15592714D01*
X10024286Y-15607000D01*
X10038571Y-15635571D01*
X10038571Y-15792714D01*
X10181428Y-15792714D02*
X10181428Y-15592714D01*
X10181428Y-15621286D02*
X10195714Y-15607000D01*
X10224286Y-15592714D01*
X10267143Y-15592714D01*
X10295714Y-15607000D01*
X10310000Y-15635571D01*
X10310000Y-15792714D01*
X10310000Y-15635571D02*
X10324286Y-15607000D01*
X10352857Y-15592714D01*
X10395714Y-15592714D01*
X10424286Y-15607000D01*
X10438571Y-15635571D01*
X10438571Y-15792714D01*
X11024286Y-15478429D02*
X10767143Y-15864143D01*
X11410000Y-15492714D02*
X11438571Y-15492714D01*
X11467143Y-15507000D01*
X11481428Y-15521286D01*
X11495714Y-15549857D01*
X11510000Y-15607000D01*
X11510000Y-15678429D01*
X11495714Y-15735571D01*
X11481428Y-15764143D01*
X11467143Y-15778429D01*
X11438571Y-15792714D01*
X11410000Y-15792714D01*
X11381428Y-15778429D01*
X11367143Y-15764143D01*
X11352857Y-15735571D01*
X11338571Y-15678429D01*
X11338571Y-15607000D01*
X11352857Y-15549857D01*
X11367143Y-15521286D01*
X11381428Y-15507000D01*
X11410000Y-15492714D01*
X11638571Y-15764143D02*
X11652857Y-15778429D01*
X11638571Y-15792714D01*
X11624286Y-15778429D01*
X11638571Y-15764143D01*
X11638571Y-15792714D01*
X11838571Y-15492714D02*
X11867143Y-15492714D01*
X11895714Y-15507000D01*
X11910000Y-15521286D01*
X11924286Y-15549857D01*
X11938571Y-15607000D01*
X11938571Y-15678429D01*
X11924286Y-15735571D01*
X11910000Y-15764143D01*
X11895714Y-15778429D01*
X11867143Y-15792714D01*
X11838571Y-15792714D01*
X11810000Y-15778429D01*
X11795714Y-15764143D01*
X11781428Y-15735571D01*
X11767143Y-15678429D01*
X11767143Y-15607000D01*
X11781428Y-15549857D01*
X11795714Y-15521286D01*
X11810000Y-15507000D01*
X11838571Y-15492714D01*
X12038571Y-15492714D02*
X12224286Y-15492714D01*
X12124286Y-15607000D01*
X12167143Y-15607000D01*
X12195714Y-15621286D01*
X12210000Y-15635571D01*
X12224286Y-15664143D01*
X12224286Y-15735571D01*
X12210000Y-15764143D01*
X12195714Y-15778429D01*
X12167143Y-15792714D01*
X12081428Y-15792714D01*
X12052857Y-15778429D01*
X12038571Y-15764143D01*
X12367143Y-15792714D02*
X12424286Y-15792714D01*
X12452857Y-15778429D01*
X12467143Y-15764143D01*
X12495714Y-15721286D01*
X12510000Y-15664143D01*
X12510000Y-15549857D01*
X12495714Y-15521286D01*
X12481428Y-15507000D01*
X12452857Y-15492714D01*
X12395714Y-15492714D01*
X12367143Y-15507000D01*
X12352857Y-15521286D01*
X12338571Y-15549857D01*
X12338571Y-15621286D01*
X12352857Y-15649857D01*
X12367143Y-15664143D01*
X12395714Y-15678429D01*
X12452857Y-15678429D01*
X12481428Y-15664143D01*
X12495714Y-15649857D01*
X12510000Y-15621286D01*
X12624286Y-15492714D02*
X12624286Y-15549857D01*
X12738571Y-15492714D02*
X12738571Y-15549857D01*
X13181428Y-15907000D02*
X13167143Y-15892714D01*
X13138571Y-15849857D01*
X13124286Y-15821286D01*
X13110000Y-15778429D01*
X13095714Y-15707000D01*
X13095714Y-15649857D01*
X13110000Y-15578429D01*
X13124286Y-15535571D01*
X13138571Y-15507000D01*
X13167143Y-15464143D01*
X13181428Y-15449857D01*
X13452857Y-15792714D02*
X13281428Y-15792714D01*
X13367143Y-15792714D02*
X13367143Y-15492714D01*
X13338571Y-15535571D01*
X13310000Y-15564143D01*
X13281428Y-15578429D01*
X13567143Y-15521286D02*
X13581428Y-15507000D01*
X13610000Y-15492714D01*
X13681428Y-15492714D01*
X13710000Y-15507000D01*
X13724286Y-15521286D01*
X13738571Y-15549857D01*
X13738571Y-15578429D01*
X13724286Y-15621286D01*
X13552857Y-15792714D01*
X13738571Y-15792714D01*
X13910000Y-15621286D02*
X13881428Y-15607000D01*
X13867143Y-15592714D01*
X13852857Y-15564143D01*
X13852857Y-15549857D01*
X13867143Y-15521286D01*
X13881428Y-15507000D01*
X13910000Y-15492714D01*
X13967143Y-15492714D01*
X13995714Y-15507000D01*
X14010000Y-15521286D01*
X14024286Y-15549857D01*
X14024286Y-15564143D01*
X14010000Y-15592714D01*
X13995714Y-15607000D01*
X13967143Y-15621286D01*
X13910000Y-15621286D01*
X13881428Y-15635571D01*
X13867143Y-15649857D01*
X13852857Y-15678429D01*
X13852857Y-15735571D01*
X13867143Y-15764143D01*
X13881428Y-15778429D01*
X13910000Y-15792714D01*
X13967143Y-15792714D01*
X13995714Y-15778429D01*
X14010000Y-15764143D01*
X14024286Y-15735571D01*
X14024286Y-15678429D01*
X14010000Y-15649857D01*
X13995714Y-15635571D01*
X13967143Y-15621286D01*
X14381428Y-15792714D02*
X14381428Y-15492714D01*
X14510000Y-15792714D02*
X14510000Y-15635571D01*
X14495714Y-15607000D01*
X14467143Y-15592714D01*
X14424286Y-15592714D01*
X14395714Y-15607000D01*
X14381428Y-15621286D01*
X14695714Y-15792714D02*
X14667143Y-15778429D01*
X14652857Y-15764143D01*
X14638571Y-15735571D01*
X14638571Y-15649857D01*
X14652857Y-15621286D01*
X14667143Y-15607000D01*
X14695714Y-15592714D01*
X14738571Y-15592714D01*
X14767143Y-15607000D01*
X14781428Y-15621286D01*
X14795714Y-15649857D01*
X14795714Y-15735571D01*
X14781428Y-15764143D01*
X14767143Y-15778429D01*
X14738571Y-15792714D01*
X14695714Y-15792714D01*
X14967143Y-15792714D02*
X14938571Y-15778429D01*
X14924286Y-15749857D01*
X14924286Y-15492714D01*
X15195714Y-15778429D02*
X15167143Y-15792714D01*
X15110000Y-15792714D01*
X15081428Y-15778429D01*
X15067143Y-15749857D01*
X15067143Y-15635571D01*
X15081428Y-15607000D01*
X15110000Y-15592714D01*
X15167143Y-15592714D01*
X15195714Y-15607000D01*
X15210000Y-15635571D01*
X15210000Y-15664143D01*
X15067143Y-15692714D01*
X15324286Y-15778429D02*
X15352857Y-15792714D01*
X15410000Y-15792714D01*
X15438571Y-15778429D01*
X15452857Y-15749857D01*
X15452857Y-15735571D01*
X15438571Y-15707000D01*
X15410000Y-15692714D01*
X15367143Y-15692714D01*
X15338571Y-15678429D01*
X15324286Y-15649857D01*
X15324286Y-15635571D01*
X15338571Y-15607000D01*
X15367143Y-15592714D01*
X15410000Y-15592714D01*
X15438571Y-15607000D01*
X15552857Y-15907000D02*
X15567143Y-15892714D01*
X15595714Y-15849857D01*
X15610000Y-15821286D01*
X15624286Y-15778429D01*
X15638571Y-15707000D01*
X15638571Y-15649857D01*
X15624286Y-15578429D01*
X15610000Y-15535571D01*
X15595714Y-15507000D01*
X15567143Y-15464143D01*
X15552857Y-15449857D01*
M02*
