M48
; DRILL file {KiCad (5.1.9)-1} date 07/23/22 12:09:42
; FORMAT={-:-/ absolute / metric / decimal}
; #@! TF.CreationDate,2022-07-23T12:09:42-04:00
; #@! TF.GenerationSoftware,Kicad,Pcbnew,(5.1.9)-1
; #@! TF.FileFunction,Plated,1,2,PTH
FMAT,2
METRIC
T1C0.400
T2C0.800
T3C1.000
%
G90
G05
T1
X90.082Y-104.482
X90.2Y-130.8
X92.3Y-78.3
X92.8Y-130.8
X93.1Y-125.6
X93.625Y-72.3
X94.6Y-74.7
X94.7Y-82.5
X96.1Y-83.3
X97.4Y-76.3
X97.6Y-70.4
X99.0Y-76.7
X100.1Y-70.8
X102.9Y-94.4
X103.785Y-73.215
X103.905Y-78.295
X105.0Y-83.3
X105.5Y-128.6
X105.94Y-74.34
X106.2Y-88.455
X106.645Y-75.755
X107.1Y-80.7
X107.4Y-66.675
X107.915Y-85.915
X110.6Y-128.6
X111.6Y-99.7
X112.5Y-97.2
X113.24Y-94.66
X113.8Y-100.5
X113.98Y-92.12
X114.0Y-97.3
X114.8Y-100.5
X114.8Y-108.1
X114.805Y-78.295
X116.0Y-75.6
X116.0Y-100.505
X116.0Y-108.1
X117.1Y-80.7
X117.1Y-108.1
X117.1Y-100.5
X118.2Y-108.1
X118.2Y-100.5
X118.22Y-89.58
X118.3Y-128.6
X120.8Y-128.6
X128.1Y-112.2
X128.1Y-117.2
X129.2Y-66.3
X132.7Y-87.1
X133.3Y-128.8
X133.475Y-84.5
X134.1Y-71.2
X134.2Y-95.9
X136.2Y-108.2
X137.5Y-108.2
X137.8Y-113.9
X138.7Y-49.0
X139.1Y-108.1
X140.9Y-121.9
X141.8Y-121.025
X143.1Y-119.7
X144.2Y-117.2
X156.6Y-116.3
X160.0Y-125.6
X165.4Y-90.8
X166.2Y-114.1
X170.3Y-132.175
X171.5Y-132.2
X172.6Y-132.2
X173.487Y-127.787
X175.4Y-115.1
X176.4Y-117.2
X179.1Y-85.8
X184.1Y-90.6
X184.1Y-104.8
X184.7Y-126.6
T2
X100.8Y-51.78
X100.8Y-59.4
X101.8Y-110.98
X101.8Y-118.6
X101.8Y-122.18
X101.8Y-129.8
X103.34Y-51.78
X103.34Y-59.4
X104.34Y-110.98
X104.34Y-118.6
X104.34Y-122.18
X104.34Y-129.8
X105.88Y-51.78
X105.88Y-59.4
X106.88Y-110.98
X106.88Y-118.6
X106.88Y-122.18
X106.88Y-129.8
X108.42Y-51.78
X108.42Y-59.4
X109.42Y-110.98
X109.42Y-118.6
X109.42Y-122.18
X109.42Y-129.8
X109.9Y-71.8
X109.9Y-74.34
X109.9Y-76.88
X109.9Y-79.42
X109.9Y-81.96
X109.9Y-84.5
X109.9Y-87.04
X109.9Y-89.58
X109.9Y-92.12
X109.9Y-94.66
X109.9Y-97.2
X109.9Y-99.74
X110.96Y-51.78
X110.96Y-59.4
X111.96Y-110.98
X111.96Y-118.6
X111.96Y-122.18
X111.96Y-129.8
X113.5Y-51.78
X113.5Y-59.4
X114.5Y-110.98
X114.5Y-118.6
X114.5Y-122.18
X114.5Y-129.8
X116.04Y-51.78
X116.04Y-59.4
X117.04Y-110.98
X117.04Y-118.6
X117.04Y-122.18
X117.04Y-129.8
X118.58Y-51.78
X118.58Y-59.4
X119.58Y-110.98
X119.58Y-118.6
X119.58Y-122.18
X119.58Y-129.8
X121.12Y-51.78
X121.12Y-59.4
X122.12Y-110.98
X122.12Y-118.6
X122.12Y-122.18
X122.12Y-129.8
X123.66Y-51.78
X123.66Y-59.4
X124.66Y-110.98
X124.66Y-118.6
X124.66Y-122.18
X124.66Y-129.8
X125.14Y-71.8
X125.14Y-74.34
X125.14Y-76.88
X125.14Y-79.42
X125.14Y-81.96
X125.14Y-84.5
X125.14Y-87.04
X125.14Y-89.58
X125.14Y-92.12
X125.14Y-94.66
X125.14Y-97.2
X125.14Y-99.74
X137.2Y-71.8
X137.2Y-74.34
X137.2Y-76.88
X137.2Y-79.42
X137.2Y-81.96
X137.2Y-84.5
X137.2Y-87.04
X137.2Y-89.58
X137.2Y-92.12
X137.2Y-94.66
X137.2Y-97.2
X137.2Y-99.74
X150.9Y-109.0
X150.9Y-111.54
X150.9Y-114.08
X150.9Y-116.62
X150.9Y-119.16
X150.9Y-121.7
X150.9Y-124.24
X150.9Y-126.78
X152.44Y-71.8
X152.44Y-74.34
X152.44Y-76.88
X152.44Y-79.42
X152.44Y-81.96
X152.44Y-84.5
X152.44Y-87.04
X152.44Y-89.58
X152.44Y-92.12
X152.44Y-94.66
X152.44Y-97.2
X152.44Y-99.74
X158.52Y-109.0
X158.52Y-111.54
X158.52Y-114.08
X158.52Y-116.62
X158.52Y-119.16
X158.52Y-121.7
X158.52Y-124.24
X158.52Y-126.78
X163.7Y-79.3
X163.7Y-81.84
X163.7Y-84.38
X163.7Y-86.92
X163.7Y-89.46
X163.7Y-92.0
X163.7Y-94.54
X163.9Y-109.0
X163.9Y-111.54
X163.9Y-114.08
X163.9Y-116.62
X163.9Y-119.16
X163.9Y-121.7
X163.9Y-124.24
X163.9Y-126.78
X171.32Y-79.3
X171.32Y-81.84
X171.32Y-84.38
X171.32Y-86.92
X171.32Y-89.46
X171.32Y-92.0
X171.32Y-94.54
X171.52Y-109.0
X171.52Y-111.54
X171.52Y-114.08
X171.52Y-116.62
X171.52Y-119.16
X171.52Y-121.7
X171.52Y-124.24
X171.52Y-126.78
T3
X86.4Y-46.0
X86.4Y-136.0
X88.94Y-46.0
X88.94Y-136.0
X88.96Y-57.6
X88.96Y-60.14
X88.96Y-62.68
X88.96Y-65.22
X88.96Y-67.76
X88.96Y-70.3
X88.96Y-72.84
X88.96Y-75.38
X88.99Y-106.6
X88.99Y-109.14
X88.99Y-111.68
X88.99Y-114.22
X88.99Y-116.76
X88.99Y-119.3
X88.99Y-121.84
X88.99Y-124.38
X91.48Y-46.0
X91.48Y-136.0
X91.5Y-57.6
X91.5Y-60.14
X91.5Y-62.68
X91.5Y-65.22
X91.5Y-67.76
X91.5Y-70.3
X91.5Y-72.84
X91.5Y-75.38
X91.53Y-106.6
X91.53Y-109.14
X91.53Y-111.68
X91.53Y-114.22
X91.53Y-116.76
X91.53Y-119.3
X91.53Y-121.84
X91.53Y-124.38
X94.02Y-46.0
X94.02Y-136.0
X96.56Y-46.0
X96.56Y-136.0
X99.1Y-46.0
X99.1Y-136.0
X101.64Y-46.0
X101.64Y-136.0
X104.18Y-46.0
X104.18Y-136.0
X106.72Y-46.0
X106.72Y-136.0
X109.26Y-46.0
X109.26Y-136.0
X111.8Y-46.0
X111.8Y-136.0
X114.34Y-46.0
X114.34Y-136.0
X116.88Y-46.0
X116.88Y-136.0
X119.42Y-46.0
X119.42Y-136.0
X121.96Y-46.0
X121.96Y-136.0
X124.5Y-46.0
X124.5Y-136.0
X127.04Y-46.0
X127.04Y-136.0
X129.58Y-46.0
X129.58Y-136.0
X132.12Y-46.0
X132.12Y-136.0
X134.66Y-46.0
X134.66Y-136.0
X137.2Y-46.0
X137.2Y-136.0
X139.74Y-46.0
X139.74Y-136.0
X142.28Y-46.0
X142.28Y-136.0
X144.82Y-46.0
X144.82Y-136.0
X147.36Y-46.0
X147.36Y-136.0
X149.9Y-46.0
X149.9Y-136.0
X152.44Y-46.0
X152.44Y-136.0
X154.98Y-46.0
X154.98Y-136.0
X157.52Y-46.0
X157.52Y-136.0
X160.06Y-46.0
X160.06Y-136.0
X162.6Y-46.0
X162.6Y-136.0
X165.14Y-46.0
X165.14Y-136.0
X167.68Y-46.0
X167.68Y-136.0
X170.22Y-46.0
X170.22Y-136.0
X172.76Y-46.0
X172.76Y-136.0
X175.3Y-46.0
X175.3Y-136.0
X177.84Y-46.0
X177.84Y-136.0
X180.38Y-46.0
X180.38Y-136.0
X182.9Y-57.6
X182.9Y-60.14
X182.9Y-62.68
X182.9Y-65.22
X182.9Y-67.76
X182.9Y-70.3
X182.9Y-72.84
X182.9Y-75.38
X182.9Y-106.6
X182.9Y-109.14
X182.9Y-111.68
X182.9Y-114.22
X182.9Y-116.76
X182.9Y-119.3
X182.9Y-121.84
X182.9Y-124.38
X182.92Y-46.0
X182.92Y-136.0
X185.46Y-46.0
X185.46Y-136.0
T0
M30
