G04 #@! TF.GenerationSoftware,KiCad,Pcbnew,(5.1.9)-1*
G04 #@! TF.CreationDate,2022-07-23T12:09:39-04:00*
G04 #@! TF.ProjectId,alu,616c752e-6b69-4636-9164-5f7063625858,1.0*
G04 #@! TF.SameCoordinates,Original*
G04 #@! TF.FileFunction,Soldermask,Bot*
G04 #@! TF.FilePolarity,Negative*
%FSLAX46Y46*%
G04 Gerber Fmt 4.6, Leading zero omitted, Abs format (unit mm)*
G04 Created by KiCad (PCBNEW (5.1.9)-1) date 2022-07-23 12:09:39*
%MOMM*%
%LPD*%
G01*
G04 APERTURE LIST*
%ADD10O,1.700000X1.700000*%
%ADD11R,1.700000X1.700000*%
%ADD12O,1.600000X1.600000*%
%ADD13R,1.600000X1.600000*%
G04 APERTURE END LIST*
D10*
X88960000Y-75380000D03*
X91500000Y-75380000D03*
X88960000Y-72840000D03*
X91500000Y-72840000D03*
X88960000Y-70300000D03*
X91500000Y-70300000D03*
X88960000Y-67760000D03*
X91500000Y-67760000D03*
X88960000Y-65220000D03*
X91500000Y-65220000D03*
X88960000Y-62680000D03*
X91500000Y-62680000D03*
X88960000Y-60140000D03*
X91500000Y-60140000D03*
X88960000Y-57600000D03*
D11*
X91500000Y-57600000D03*
D10*
X182900000Y-75380000D03*
X182900000Y-72840000D03*
X182900000Y-70300000D03*
X182900000Y-67760000D03*
X182900000Y-65220000D03*
X182900000Y-62680000D03*
X182900000Y-60140000D03*
D11*
X182900000Y-57600000D03*
D12*
X125140000Y-71800000D03*
X109900000Y-99740000D03*
X125140000Y-74340000D03*
X109900000Y-97200000D03*
X125140000Y-76880000D03*
X109900000Y-94660000D03*
X125140000Y-79420000D03*
X109900000Y-92120000D03*
X125140000Y-81960000D03*
X109900000Y-89580000D03*
X125140000Y-84500000D03*
X109900000Y-87040000D03*
X125140000Y-87040000D03*
X109900000Y-84500000D03*
X125140000Y-89580000D03*
X109900000Y-81960000D03*
X125140000Y-92120000D03*
X109900000Y-79420000D03*
X125140000Y-94660000D03*
X109900000Y-76880000D03*
X125140000Y-97200000D03*
X109900000Y-74340000D03*
X125140000Y-99740000D03*
D13*
X109900000Y-71800000D03*
D10*
X182900000Y-124380000D03*
X182900000Y-121840000D03*
X182900000Y-119300000D03*
X182900000Y-116760000D03*
X182900000Y-114220000D03*
X182900000Y-111680000D03*
X182900000Y-109140000D03*
D11*
X182900000Y-106600000D03*
D12*
X100800000Y-51780000D03*
X123660000Y-59400000D03*
X103340000Y-51780000D03*
X121120000Y-59400000D03*
X105880000Y-51780000D03*
X118580000Y-59400000D03*
X108420000Y-51780000D03*
X116040000Y-59400000D03*
X110960000Y-51780000D03*
X113500000Y-59400000D03*
X113500000Y-51780000D03*
X110960000Y-59400000D03*
X116040000Y-51780000D03*
X108420000Y-59400000D03*
X118580000Y-51780000D03*
X105880000Y-59400000D03*
X121120000Y-51780000D03*
X103340000Y-59400000D03*
X123660000Y-51780000D03*
D13*
X100800000Y-59400000D03*
D12*
X101800000Y-110980000D03*
X124660000Y-118600000D03*
X104340000Y-110980000D03*
X122120000Y-118600000D03*
X106880000Y-110980000D03*
X119580000Y-118600000D03*
X109420000Y-110980000D03*
X117040000Y-118600000D03*
X111960000Y-110980000D03*
X114500000Y-118600000D03*
X114500000Y-110980000D03*
X111960000Y-118600000D03*
X117040000Y-110980000D03*
X109420000Y-118600000D03*
X119580000Y-110980000D03*
X106880000Y-118600000D03*
X122120000Y-110980000D03*
X104340000Y-118600000D03*
X124660000Y-110980000D03*
D13*
X101800000Y-118600000D03*
D12*
X152440000Y-71800000D03*
X137200000Y-99740000D03*
X152440000Y-74340000D03*
X137200000Y-97200000D03*
X152440000Y-76880000D03*
X137200000Y-94660000D03*
X152440000Y-79420000D03*
X137200000Y-92120000D03*
X152440000Y-81960000D03*
X137200000Y-89580000D03*
X152440000Y-84500000D03*
X137200000Y-87040000D03*
X152440000Y-87040000D03*
X137200000Y-84500000D03*
X152440000Y-89580000D03*
X137200000Y-81960000D03*
X152440000Y-92120000D03*
X137200000Y-79420000D03*
X152440000Y-94660000D03*
X137200000Y-76880000D03*
X152440000Y-97200000D03*
X137200000Y-74340000D03*
X152440000Y-99740000D03*
D13*
X137200000Y-71800000D03*
D12*
X101800000Y-122180000D03*
X124660000Y-129800000D03*
X104340000Y-122180000D03*
X122120000Y-129800000D03*
X106880000Y-122180000D03*
X119580000Y-129800000D03*
X109420000Y-122180000D03*
X117040000Y-129800000D03*
X111960000Y-122180000D03*
X114500000Y-129800000D03*
X114500000Y-122180000D03*
X111960000Y-129800000D03*
X117040000Y-122180000D03*
X109420000Y-129800000D03*
X119580000Y-122180000D03*
X106880000Y-129800000D03*
X122120000Y-122180000D03*
X104340000Y-129800000D03*
X124660000Y-122180000D03*
D13*
X101800000Y-129800000D03*
D12*
X171520000Y-109000000D03*
X163900000Y-126780000D03*
X171520000Y-111540000D03*
X163900000Y-124240000D03*
X171520000Y-114080000D03*
X163900000Y-121700000D03*
X171520000Y-116620000D03*
X163900000Y-119160000D03*
X171520000Y-119160000D03*
X163900000Y-116620000D03*
X171520000Y-121700000D03*
X163900000Y-114080000D03*
X171520000Y-124240000D03*
X163900000Y-111540000D03*
X171520000Y-126780000D03*
D13*
X163900000Y-109000000D03*
D12*
X158520000Y-109000000D03*
X150900000Y-126780000D03*
X158520000Y-111540000D03*
X150900000Y-124240000D03*
X158520000Y-114080000D03*
X150900000Y-121700000D03*
X158520000Y-116620000D03*
X150900000Y-119160000D03*
X158520000Y-119160000D03*
X150900000Y-116620000D03*
X158520000Y-121700000D03*
X150900000Y-114080000D03*
X158520000Y-124240000D03*
X150900000Y-111540000D03*
X158520000Y-126780000D03*
D13*
X150900000Y-109000000D03*
D12*
X171320000Y-79300000D03*
X163700000Y-94540000D03*
X171320000Y-81840000D03*
X163700000Y-92000000D03*
X171320000Y-84380000D03*
X163700000Y-89460000D03*
X171320000Y-86920000D03*
X163700000Y-86920000D03*
X171320000Y-89460000D03*
X163700000Y-84380000D03*
X171320000Y-92000000D03*
X163700000Y-81840000D03*
X171320000Y-94540000D03*
D13*
X163700000Y-79300000D03*
D10*
X88990000Y-124380000D03*
X91530000Y-124380000D03*
X88990000Y-121840000D03*
X91530000Y-121840000D03*
X88990000Y-119300000D03*
X91530000Y-119300000D03*
X88990000Y-116760000D03*
X91530000Y-116760000D03*
X88990000Y-114220000D03*
X91530000Y-114220000D03*
X88990000Y-111680000D03*
X91530000Y-111680000D03*
X88990000Y-109140000D03*
X91530000Y-109140000D03*
X88990000Y-106600000D03*
D11*
X91530000Y-106600000D03*
D10*
X185460000Y-136000000D03*
X182920000Y-136000000D03*
X180380000Y-136000000D03*
X177840000Y-136000000D03*
X175300000Y-136000000D03*
X172760000Y-136000000D03*
X170220000Y-136000000D03*
X167680000Y-136000000D03*
X165140000Y-136000000D03*
X162600000Y-136000000D03*
X160060000Y-136000000D03*
X157520000Y-136000000D03*
X154980000Y-136000000D03*
X152440000Y-136000000D03*
X149900000Y-136000000D03*
X147360000Y-136000000D03*
X144820000Y-136000000D03*
X142280000Y-136000000D03*
X139740000Y-136000000D03*
X137200000Y-136000000D03*
X134660000Y-136000000D03*
X132120000Y-136000000D03*
X129580000Y-136000000D03*
X127040000Y-136000000D03*
X124500000Y-136000000D03*
X121960000Y-136000000D03*
X119420000Y-136000000D03*
X116880000Y-136000000D03*
X114340000Y-136000000D03*
X111800000Y-136000000D03*
X109260000Y-136000000D03*
X106720000Y-136000000D03*
X104180000Y-136000000D03*
X101640000Y-136000000D03*
X99100000Y-136000000D03*
X96560000Y-136000000D03*
X94020000Y-136000000D03*
X91480000Y-136000000D03*
X88940000Y-136000000D03*
D11*
X86400000Y-136000000D03*
D10*
X185460000Y-46000000D03*
X182920000Y-46000000D03*
X180380000Y-46000000D03*
X177840000Y-46000000D03*
X175300000Y-46000000D03*
X172760000Y-46000000D03*
X170220000Y-46000000D03*
X167680000Y-46000000D03*
X165140000Y-46000000D03*
X162600000Y-46000000D03*
X160060000Y-46000000D03*
X157520000Y-46000000D03*
X154980000Y-46000000D03*
X152440000Y-46000000D03*
X149900000Y-46000000D03*
X147360000Y-46000000D03*
X144820000Y-46000000D03*
X142280000Y-46000000D03*
X139740000Y-46000000D03*
X137200000Y-46000000D03*
X134660000Y-46000000D03*
X132120000Y-46000000D03*
X129580000Y-46000000D03*
X127040000Y-46000000D03*
X124500000Y-46000000D03*
X121960000Y-46000000D03*
X119420000Y-46000000D03*
X116880000Y-46000000D03*
X114340000Y-46000000D03*
X111800000Y-46000000D03*
X109260000Y-46000000D03*
X106720000Y-46000000D03*
X104180000Y-46000000D03*
X101640000Y-46000000D03*
X99100000Y-46000000D03*
X96560000Y-46000000D03*
X94020000Y-46000000D03*
X91480000Y-46000000D03*
X88940000Y-46000000D03*
D11*
X86400000Y-46000000D03*
M02*
