%FSLAX45Y45*%
G04 Gerber Fmt 4.5, Leading zero omitted, Abs format (unit mm)*
G04 Created by KiCad (PCBNEW (5.1.9)-1) date 2022-11-18 18:44:12*
%MOMM*%
%LPD*%
G01*
G04 APERTURE LIST*
%TA.AperFunction,Profile*%
%ADD10C,0.100000*%
%TD*%
%ADD11C,0.200000*%
%ADD12C,0.300000*%
G04 APERTURE END LIST*
D10*
X39740000Y-16900000D02*
X39740000Y-4100000D01*
X3740000Y-16900000D02*
X39740000Y-16900000D01*
X3740000Y-4100000D02*
X3740000Y-16900000D01*
X39740000Y-4100000D02*
X3740000Y-4100000D01*
D11*
X15660000Y-4670000D02*
X15720000Y-4730000D01*
X15720000Y-4670000D02*
X15660000Y-4730000D01*
X15660000Y-10570000D02*
X15720000Y-10630000D01*
X15720000Y-10570000D02*
X15660000Y-10630000D01*
X15660000Y-11370000D02*
X15720000Y-11430000D01*
X15720000Y-11370000D02*
X15660000Y-11430000D01*
X15660000Y-15470000D02*
X15720000Y-15530000D01*
X15720000Y-15470000D02*
X15660000Y-15530000D01*
X15660000Y-16270000D02*
X15720000Y-16330000D01*
X15720000Y-16270000D02*
X15660000Y-16330000D01*
X15670000Y-6460000D02*
X15730000Y-6520000D01*
X15730000Y-6460000D02*
X15670000Y-6520000D01*
X15810000Y-4670000D02*
X15870000Y-4730000D01*
X15870000Y-4670000D02*
X15810000Y-4730000D01*
X15810000Y-10570000D02*
X15870000Y-10630000D01*
X15870000Y-10570000D02*
X15810000Y-10630000D01*
X15810000Y-11370000D02*
X15870000Y-11430000D01*
X15870000Y-11370000D02*
X15810000Y-11430000D01*
X15810000Y-15470000D02*
X15870000Y-15530000D01*
X15870000Y-15470000D02*
X15810000Y-15530000D01*
X15810000Y-16270000D02*
X15870000Y-16330000D01*
X15870000Y-16270000D02*
X15810000Y-16330000D01*
X15820000Y-6460000D02*
X15880000Y-6520000D01*
X15880000Y-6460000D02*
X15820000Y-6520000D01*
X27600000Y-15470000D02*
X27660000Y-15530000D01*
X27660000Y-15470000D02*
X27600000Y-15530000D01*
X27600000Y-16270000D02*
X27660000Y-16330000D01*
X27660000Y-16270000D02*
X27600000Y-16330000D01*
X27610000Y-4670000D02*
X27670000Y-4730000D01*
X27670000Y-4670000D02*
X27610000Y-4730000D01*
X27610000Y-6470000D02*
X27670000Y-6530000D01*
X27670000Y-6470000D02*
X27610000Y-6530000D01*
X27610000Y-10570000D02*
X27670000Y-10630000D01*
X27670000Y-10570000D02*
X27610000Y-10630000D01*
X27610000Y-11370000D02*
X27670000Y-11430000D01*
X27670000Y-11370000D02*
X27610000Y-11430000D01*
X27750000Y-15470000D02*
X27810000Y-15530000D01*
X27810000Y-15470000D02*
X27750000Y-15530000D01*
X27750000Y-16270000D02*
X27810000Y-16330000D01*
X27810000Y-16270000D02*
X27750000Y-16330000D01*
X27760000Y-4670000D02*
X27820000Y-4730000D01*
X27820000Y-4670000D02*
X27760000Y-4730000D01*
X27760000Y-6470000D02*
X27820000Y-6530000D01*
X27820000Y-6470000D02*
X27760000Y-6530000D01*
X27760000Y-10570000D02*
X27820000Y-10630000D01*
X27820000Y-10570000D02*
X27760000Y-10630000D01*
X27760000Y-11370000D02*
X27820000Y-11430000D01*
X27820000Y-11370000D02*
X27760000Y-11430000D01*
X4830000Y-4700000D02*
G75*
G03*
X4830000Y-4700000I-50000J0D01*
G01*
X4830000Y-6500000D02*
G75*
G03*
X4830000Y-6500000I-50000J0D01*
G01*
X4830000Y-10600000D02*
G75*
G03*
X4830000Y-10600000I-50000J0D01*
G01*
X4830000Y-11400000D02*
G75*
G03*
X4830000Y-11400000I-50000J0D01*
G01*
X4830000Y-15500000D02*
G75*
G03*
X4830000Y-15500000I-50000J0D01*
G01*
X4830000Y-16300000D02*
G75*
G03*
X4830000Y-16300000I-50000J0D01*
G01*
X5084000Y-4700000D02*
G75*
G03*
X5084000Y-4700000I-50000J0D01*
G01*
X5084000Y-6500000D02*
G75*
G03*
X5084000Y-6500000I-50000J0D01*
G01*
X5084000Y-10600000D02*
G75*
G03*
X5084000Y-10600000I-50000J0D01*
G01*
X5084000Y-11400000D02*
G75*
G03*
X5084000Y-11400000I-50000J0D01*
G01*
X5084000Y-15500000D02*
G75*
G03*
X5084000Y-15500000I-50000J0D01*
G01*
X5084000Y-16300000D02*
G75*
G03*
X5084000Y-16300000I-50000J0D01*
G01*
X5338000Y-4700000D02*
G75*
G03*
X5338000Y-4700000I-50000J0D01*
G01*
X5338000Y-6500000D02*
G75*
G03*
X5338000Y-6500000I-50000J0D01*
G01*
X5338000Y-10600000D02*
G75*
G03*
X5338000Y-10600000I-50000J0D01*
G01*
X5338000Y-11400000D02*
G75*
G03*
X5338000Y-11400000I-50000J0D01*
G01*
X5338000Y-15500000D02*
G75*
G03*
X5338000Y-15500000I-50000J0D01*
G01*
X5338000Y-16300000D02*
G75*
G03*
X5338000Y-16300000I-50000J0D01*
G01*
X5592000Y-4700000D02*
G75*
G03*
X5592000Y-4700000I-50000J0D01*
G01*
X5592000Y-6500000D02*
G75*
G03*
X5592000Y-6500000I-50000J0D01*
G01*
X5592000Y-10600000D02*
G75*
G03*
X5592000Y-10600000I-50000J0D01*
G01*
X5592000Y-11400000D02*
G75*
G03*
X5592000Y-11400000I-50000J0D01*
G01*
X5592000Y-15500000D02*
G75*
G03*
X5592000Y-15500000I-50000J0D01*
G01*
X5592000Y-16300000D02*
G75*
G03*
X5592000Y-16300000I-50000J0D01*
G01*
X5846000Y-4700000D02*
G75*
G03*
X5846000Y-4700000I-50000J0D01*
G01*
X5846000Y-6500000D02*
G75*
G03*
X5846000Y-6500000I-50000J0D01*
G01*
X5846000Y-10600000D02*
G75*
G03*
X5846000Y-10600000I-50000J0D01*
G01*
X5846000Y-11400000D02*
G75*
G03*
X5846000Y-11400000I-50000J0D01*
G01*
X5846000Y-15500000D02*
G75*
G03*
X5846000Y-15500000I-50000J0D01*
G01*
X5846000Y-16300000D02*
G75*
G03*
X5846000Y-16300000I-50000J0D01*
G01*
X6100000Y-4700000D02*
G75*
G03*
X6100000Y-4700000I-50000J0D01*
G01*
X6100000Y-6500000D02*
G75*
G03*
X6100000Y-6500000I-50000J0D01*
G01*
X6100000Y-10600000D02*
G75*
G03*
X6100000Y-10600000I-50000J0D01*
G01*
X6100000Y-11400000D02*
G75*
G03*
X6100000Y-11400000I-50000J0D01*
G01*
X6100000Y-15500000D02*
G75*
G03*
X6100000Y-15500000I-50000J0D01*
G01*
X6100000Y-16300000D02*
G75*
G03*
X6100000Y-16300000I-50000J0D01*
G01*
X6354000Y-4700000D02*
G75*
G03*
X6354000Y-4700000I-50000J0D01*
G01*
X6354000Y-6500000D02*
G75*
G03*
X6354000Y-6500000I-50000J0D01*
G01*
X6354000Y-10600000D02*
G75*
G03*
X6354000Y-10600000I-50000J0D01*
G01*
X6354000Y-11400000D02*
G75*
G03*
X6354000Y-11400000I-50000J0D01*
G01*
X6354000Y-15500000D02*
G75*
G03*
X6354000Y-15500000I-50000J0D01*
G01*
X6354000Y-16300000D02*
G75*
G03*
X6354000Y-16300000I-50000J0D01*
G01*
X6608000Y-4700000D02*
G75*
G03*
X6608000Y-4700000I-50000J0D01*
G01*
X6608000Y-6500000D02*
G75*
G03*
X6608000Y-6500000I-50000J0D01*
G01*
X6608000Y-10600000D02*
G75*
G03*
X6608000Y-10600000I-50000J0D01*
G01*
X6608000Y-11400000D02*
G75*
G03*
X6608000Y-11400000I-50000J0D01*
G01*
X6608000Y-15500000D02*
G75*
G03*
X6608000Y-15500000I-50000J0D01*
G01*
X6608000Y-16300000D02*
G75*
G03*
X6608000Y-16300000I-50000J0D01*
G01*
X6862000Y-4700000D02*
G75*
G03*
X6862000Y-4700000I-50000J0D01*
G01*
X6862000Y-6500000D02*
G75*
G03*
X6862000Y-6500000I-50000J0D01*
G01*
X6862000Y-10600000D02*
G75*
G03*
X6862000Y-10600000I-50000J0D01*
G01*
X6862000Y-11400000D02*
G75*
G03*
X6862000Y-11400000I-50000J0D01*
G01*
X6862000Y-15500000D02*
G75*
G03*
X6862000Y-15500000I-50000J0D01*
G01*
X6862000Y-16300000D02*
G75*
G03*
X6862000Y-16300000I-50000J0D01*
G01*
X7116000Y-4700000D02*
G75*
G03*
X7116000Y-4700000I-50000J0D01*
G01*
X7116000Y-6500000D02*
G75*
G03*
X7116000Y-6500000I-50000J0D01*
G01*
X7116000Y-10600000D02*
G75*
G03*
X7116000Y-10600000I-50000J0D01*
G01*
X7116000Y-11400000D02*
G75*
G03*
X7116000Y-11400000I-50000J0D01*
G01*
X7116000Y-15500000D02*
G75*
G03*
X7116000Y-15500000I-50000J0D01*
G01*
X7116000Y-16300000D02*
G75*
G03*
X7116000Y-16300000I-50000J0D01*
G01*
X7370000Y-4700000D02*
G75*
G03*
X7370000Y-4700000I-50000J0D01*
G01*
X7370000Y-6500000D02*
G75*
G03*
X7370000Y-6500000I-50000J0D01*
G01*
X7370000Y-10600000D02*
G75*
G03*
X7370000Y-10600000I-50000J0D01*
G01*
X7370000Y-11400000D02*
G75*
G03*
X7370000Y-11400000I-50000J0D01*
G01*
X7370000Y-15500000D02*
G75*
G03*
X7370000Y-15500000I-50000J0D01*
G01*
X7370000Y-16300000D02*
G75*
G03*
X7370000Y-16300000I-50000J0D01*
G01*
X7624000Y-4700000D02*
G75*
G03*
X7624000Y-4700000I-50000J0D01*
G01*
X7624000Y-6500000D02*
G75*
G03*
X7624000Y-6500000I-50000J0D01*
G01*
X7624000Y-10600000D02*
G75*
G03*
X7624000Y-10600000I-50000J0D01*
G01*
X7624000Y-11400000D02*
G75*
G03*
X7624000Y-11400000I-50000J0D01*
G01*
X7624000Y-15500000D02*
G75*
G03*
X7624000Y-15500000I-50000J0D01*
G01*
X7624000Y-16300000D02*
G75*
G03*
X7624000Y-16300000I-50000J0D01*
G01*
X7878000Y-4700000D02*
G75*
G03*
X7878000Y-4700000I-50000J0D01*
G01*
X7878000Y-6500000D02*
G75*
G03*
X7878000Y-6500000I-50000J0D01*
G01*
X7878000Y-10600000D02*
G75*
G03*
X7878000Y-10600000I-50000J0D01*
G01*
X7878000Y-11400000D02*
G75*
G03*
X7878000Y-11400000I-50000J0D01*
G01*
X7878000Y-15500000D02*
G75*
G03*
X7878000Y-15500000I-50000J0D01*
G01*
X7878000Y-16300000D02*
G75*
G03*
X7878000Y-16300000I-50000J0D01*
G01*
X8132000Y-4700000D02*
G75*
G03*
X8132000Y-4700000I-50000J0D01*
G01*
X8132000Y-6500000D02*
G75*
G03*
X8132000Y-6500000I-50000J0D01*
G01*
X8132000Y-10600000D02*
G75*
G03*
X8132000Y-10600000I-50000J0D01*
G01*
X8132000Y-11400000D02*
G75*
G03*
X8132000Y-11400000I-50000J0D01*
G01*
X8132000Y-15500000D02*
G75*
G03*
X8132000Y-15500000I-50000J0D01*
G01*
X8132000Y-16300000D02*
G75*
G03*
X8132000Y-16300000I-50000J0D01*
G01*
X8386000Y-4700000D02*
G75*
G03*
X8386000Y-4700000I-50000J0D01*
G01*
X8386000Y-6500000D02*
G75*
G03*
X8386000Y-6500000I-50000J0D01*
G01*
X8386000Y-10600000D02*
G75*
G03*
X8386000Y-10600000I-50000J0D01*
G01*
X8386000Y-11400000D02*
G75*
G03*
X8386000Y-11400000I-50000J0D01*
G01*
X8386000Y-15500000D02*
G75*
G03*
X8386000Y-15500000I-50000J0D01*
G01*
X8386000Y-16300000D02*
G75*
G03*
X8386000Y-16300000I-50000J0D01*
G01*
X8640000Y-4700000D02*
G75*
G03*
X8640000Y-4700000I-50000J0D01*
G01*
X8640000Y-6500000D02*
G75*
G03*
X8640000Y-6500000I-50000J0D01*
G01*
X8640000Y-10600000D02*
G75*
G03*
X8640000Y-10600000I-50000J0D01*
G01*
X8640000Y-11400000D02*
G75*
G03*
X8640000Y-11400000I-50000J0D01*
G01*
X8640000Y-15500000D02*
G75*
G03*
X8640000Y-15500000I-50000J0D01*
G01*
X8640000Y-16300000D02*
G75*
G03*
X8640000Y-16300000I-50000J0D01*
G01*
X8894000Y-4700000D02*
G75*
G03*
X8894000Y-4700000I-50000J0D01*
G01*
X8894000Y-6500000D02*
G75*
G03*
X8894000Y-6500000I-50000J0D01*
G01*
X8894000Y-10600000D02*
G75*
G03*
X8894000Y-10600000I-50000J0D01*
G01*
X8894000Y-11400000D02*
G75*
G03*
X8894000Y-11400000I-50000J0D01*
G01*
X8894000Y-15500000D02*
G75*
G03*
X8894000Y-15500000I-50000J0D01*
G01*
X8894000Y-16300000D02*
G75*
G03*
X8894000Y-16300000I-50000J0D01*
G01*
X9148000Y-4700000D02*
G75*
G03*
X9148000Y-4700000I-50000J0D01*
G01*
X9148000Y-6500000D02*
G75*
G03*
X9148000Y-6500000I-50000J0D01*
G01*
X9148000Y-10600000D02*
G75*
G03*
X9148000Y-10600000I-50000J0D01*
G01*
X9148000Y-11400000D02*
G75*
G03*
X9148000Y-11400000I-50000J0D01*
G01*
X9148000Y-15500000D02*
G75*
G03*
X9148000Y-15500000I-50000J0D01*
G01*
X9148000Y-16300000D02*
G75*
G03*
X9148000Y-16300000I-50000J0D01*
G01*
X9402000Y-4700000D02*
G75*
G03*
X9402000Y-4700000I-50000J0D01*
G01*
X9402000Y-6500000D02*
G75*
G03*
X9402000Y-6500000I-50000J0D01*
G01*
X9402000Y-10600000D02*
G75*
G03*
X9402000Y-10600000I-50000J0D01*
G01*
X9402000Y-11400000D02*
G75*
G03*
X9402000Y-11400000I-50000J0D01*
G01*
X9402000Y-15500000D02*
G75*
G03*
X9402000Y-15500000I-50000J0D01*
G01*
X9402000Y-16300000D02*
G75*
G03*
X9402000Y-16300000I-50000J0D01*
G01*
X9656000Y-4700000D02*
G75*
G03*
X9656000Y-4700000I-50000J0D01*
G01*
X9656000Y-6500000D02*
G75*
G03*
X9656000Y-6500000I-50000J0D01*
G01*
X9656000Y-10600000D02*
G75*
G03*
X9656000Y-10600000I-50000J0D01*
G01*
X9656000Y-11400000D02*
G75*
G03*
X9656000Y-11400000I-50000J0D01*
G01*
X9656000Y-15500000D02*
G75*
G03*
X9656000Y-15500000I-50000J0D01*
G01*
X9656000Y-16300000D02*
G75*
G03*
X9656000Y-16300000I-50000J0D01*
G01*
X9910000Y-4700000D02*
G75*
G03*
X9910000Y-4700000I-50000J0D01*
G01*
X9910000Y-6500000D02*
G75*
G03*
X9910000Y-6500000I-50000J0D01*
G01*
X9910000Y-10600000D02*
G75*
G03*
X9910000Y-10600000I-50000J0D01*
G01*
X9910000Y-11400000D02*
G75*
G03*
X9910000Y-11400000I-50000J0D01*
G01*
X9910000Y-15500000D02*
G75*
G03*
X9910000Y-15500000I-50000J0D01*
G01*
X9910000Y-16300000D02*
G75*
G03*
X9910000Y-16300000I-50000J0D01*
G01*
X10164000Y-4700000D02*
G75*
G03*
X10164000Y-4700000I-50000J0D01*
G01*
X10164000Y-6500000D02*
G75*
G03*
X10164000Y-6500000I-50000J0D01*
G01*
X10164000Y-10600000D02*
G75*
G03*
X10164000Y-10600000I-50000J0D01*
G01*
X10164000Y-11400000D02*
G75*
G03*
X10164000Y-11400000I-50000J0D01*
G01*
X10164000Y-15500000D02*
G75*
G03*
X10164000Y-15500000I-50000J0D01*
G01*
X10164000Y-16300000D02*
G75*
G03*
X10164000Y-16300000I-50000J0D01*
G01*
X10418000Y-4700000D02*
G75*
G03*
X10418000Y-4700000I-50000J0D01*
G01*
X10418000Y-6500000D02*
G75*
G03*
X10418000Y-6500000I-50000J0D01*
G01*
X10418000Y-10600000D02*
G75*
G03*
X10418000Y-10600000I-50000J0D01*
G01*
X10418000Y-11400000D02*
G75*
G03*
X10418000Y-11400000I-50000J0D01*
G01*
X10418000Y-15500000D02*
G75*
G03*
X10418000Y-15500000I-50000J0D01*
G01*
X10418000Y-16300000D02*
G75*
G03*
X10418000Y-16300000I-50000J0D01*
G01*
X10672000Y-4700000D02*
G75*
G03*
X10672000Y-4700000I-50000J0D01*
G01*
X10672000Y-6500000D02*
G75*
G03*
X10672000Y-6500000I-50000J0D01*
G01*
X10672000Y-10600000D02*
G75*
G03*
X10672000Y-10600000I-50000J0D01*
G01*
X10672000Y-11400000D02*
G75*
G03*
X10672000Y-11400000I-50000J0D01*
G01*
X10672000Y-15500000D02*
G75*
G03*
X10672000Y-15500000I-50000J0D01*
G01*
X10672000Y-16300000D02*
G75*
G03*
X10672000Y-16300000I-50000J0D01*
G01*
X10926000Y-4700000D02*
G75*
G03*
X10926000Y-4700000I-50000J0D01*
G01*
X10926000Y-6500000D02*
G75*
G03*
X10926000Y-6500000I-50000J0D01*
G01*
X10926000Y-10600000D02*
G75*
G03*
X10926000Y-10600000I-50000J0D01*
G01*
X10926000Y-11400000D02*
G75*
G03*
X10926000Y-11400000I-50000J0D01*
G01*
X10926000Y-15500000D02*
G75*
G03*
X10926000Y-15500000I-50000J0D01*
G01*
X10926000Y-16300000D02*
G75*
G03*
X10926000Y-16300000I-50000J0D01*
G01*
X11180000Y-4700000D02*
G75*
G03*
X11180000Y-4700000I-50000J0D01*
G01*
X11180000Y-6500000D02*
G75*
G03*
X11180000Y-6500000I-50000J0D01*
G01*
X11180000Y-10600000D02*
G75*
G03*
X11180000Y-10600000I-50000J0D01*
G01*
X11180000Y-11400000D02*
G75*
G03*
X11180000Y-11400000I-50000J0D01*
G01*
X11180000Y-15500000D02*
G75*
G03*
X11180000Y-15500000I-50000J0D01*
G01*
X11180000Y-16300000D02*
G75*
G03*
X11180000Y-16300000I-50000J0D01*
G01*
X11434000Y-4700000D02*
G75*
G03*
X11434000Y-4700000I-50000J0D01*
G01*
X11434000Y-6500000D02*
G75*
G03*
X11434000Y-6500000I-50000J0D01*
G01*
X11434000Y-10600000D02*
G75*
G03*
X11434000Y-10600000I-50000J0D01*
G01*
X11434000Y-11400000D02*
G75*
G03*
X11434000Y-11400000I-50000J0D01*
G01*
X11434000Y-15500000D02*
G75*
G03*
X11434000Y-15500000I-50000J0D01*
G01*
X11434000Y-16300000D02*
G75*
G03*
X11434000Y-16300000I-50000J0D01*
G01*
X11688000Y-4700000D02*
G75*
G03*
X11688000Y-4700000I-50000J0D01*
G01*
X11688000Y-6500000D02*
G75*
G03*
X11688000Y-6500000I-50000J0D01*
G01*
X11688000Y-10600000D02*
G75*
G03*
X11688000Y-10600000I-50000J0D01*
G01*
X11688000Y-11400000D02*
G75*
G03*
X11688000Y-11400000I-50000J0D01*
G01*
X11688000Y-15500000D02*
G75*
G03*
X11688000Y-15500000I-50000J0D01*
G01*
X11688000Y-16300000D02*
G75*
G03*
X11688000Y-16300000I-50000J0D01*
G01*
X11942000Y-4700000D02*
G75*
G03*
X11942000Y-4700000I-50000J0D01*
G01*
X11942000Y-6500000D02*
G75*
G03*
X11942000Y-6500000I-50000J0D01*
G01*
X11942000Y-10600000D02*
G75*
G03*
X11942000Y-10600000I-50000J0D01*
G01*
X11942000Y-11400000D02*
G75*
G03*
X11942000Y-11400000I-50000J0D01*
G01*
X11942000Y-15500000D02*
G75*
G03*
X11942000Y-15500000I-50000J0D01*
G01*
X11942000Y-16300000D02*
G75*
G03*
X11942000Y-16300000I-50000J0D01*
G01*
X12196000Y-4700000D02*
G75*
G03*
X12196000Y-4700000I-50000J0D01*
G01*
X12196000Y-6500000D02*
G75*
G03*
X12196000Y-6500000I-50000J0D01*
G01*
X12196000Y-10600000D02*
G75*
G03*
X12196000Y-10600000I-50000J0D01*
G01*
X12196000Y-11400000D02*
G75*
G03*
X12196000Y-11400000I-50000J0D01*
G01*
X12196000Y-15500000D02*
G75*
G03*
X12196000Y-15500000I-50000J0D01*
G01*
X12196000Y-16300000D02*
G75*
G03*
X12196000Y-16300000I-50000J0D01*
G01*
X12450000Y-4700000D02*
G75*
G03*
X12450000Y-4700000I-50000J0D01*
G01*
X12450000Y-6500000D02*
G75*
G03*
X12450000Y-6500000I-50000J0D01*
G01*
X12450000Y-10600000D02*
G75*
G03*
X12450000Y-10600000I-50000J0D01*
G01*
X12450000Y-11400000D02*
G75*
G03*
X12450000Y-11400000I-50000J0D01*
G01*
X12450000Y-15500000D02*
G75*
G03*
X12450000Y-15500000I-50000J0D01*
G01*
X12450000Y-16300000D02*
G75*
G03*
X12450000Y-16300000I-50000J0D01*
G01*
X12704000Y-4700000D02*
G75*
G03*
X12704000Y-4700000I-50000J0D01*
G01*
X12704000Y-6500000D02*
G75*
G03*
X12704000Y-6500000I-50000J0D01*
G01*
X12704000Y-10600000D02*
G75*
G03*
X12704000Y-10600000I-50000J0D01*
G01*
X12704000Y-11400000D02*
G75*
G03*
X12704000Y-11400000I-50000J0D01*
G01*
X12704000Y-15500000D02*
G75*
G03*
X12704000Y-15500000I-50000J0D01*
G01*
X12704000Y-16300000D02*
G75*
G03*
X12704000Y-16300000I-50000J0D01*
G01*
X12958000Y-4700000D02*
G75*
G03*
X12958000Y-4700000I-50000J0D01*
G01*
X12958000Y-6500000D02*
G75*
G03*
X12958000Y-6500000I-50000J0D01*
G01*
X12958000Y-10600000D02*
G75*
G03*
X12958000Y-10600000I-50000J0D01*
G01*
X12958000Y-11400000D02*
G75*
G03*
X12958000Y-11400000I-50000J0D01*
G01*
X12958000Y-15500000D02*
G75*
G03*
X12958000Y-15500000I-50000J0D01*
G01*
X12958000Y-16300000D02*
G75*
G03*
X12958000Y-16300000I-50000J0D01*
G01*
X13212000Y-4700000D02*
G75*
G03*
X13212000Y-4700000I-50000J0D01*
G01*
X13212000Y-6500000D02*
G75*
G03*
X13212000Y-6500000I-50000J0D01*
G01*
X13212000Y-10600000D02*
G75*
G03*
X13212000Y-10600000I-50000J0D01*
G01*
X13212000Y-11400000D02*
G75*
G03*
X13212000Y-11400000I-50000J0D01*
G01*
X13212000Y-15500000D02*
G75*
G03*
X13212000Y-15500000I-50000J0D01*
G01*
X13212000Y-16300000D02*
G75*
G03*
X13212000Y-16300000I-50000J0D01*
G01*
X13466000Y-4700000D02*
G75*
G03*
X13466000Y-4700000I-50000J0D01*
G01*
X13466000Y-6500000D02*
G75*
G03*
X13466000Y-6500000I-50000J0D01*
G01*
X13466000Y-10600000D02*
G75*
G03*
X13466000Y-10600000I-50000J0D01*
G01*
X13466000Y-11400000D02*
G75*
G03*
X13466000Y-11400000I-50000J0D01*
G01*
X13466000Y-15500000D02*
G75*
G03*
X13466000Y-15500000I-50000J0D01*
G01*
X13466000Y-16300000D02*
G75*
G03*
X13466000Y-16300000I-50000J0D01*
G01*
X13720000Y-4700000D02*
G75*
G03*
X13720000Y-4700000I-50000J0D01*
G01*
X13720000Y-6500000D02*
G75*
G03*
X13720000Y-6500000I-50000J0D01*
G01*
X13720000Y-10600000D02*
G75*
G03*
X13720000Y-10600000I-50000J0D01*
G01*
X13720000Y-11400000D02*
G75*
G03*
X13720000Y-11400000I-50000J0D01*
G01*
X13720000Y-15500000D02*
G75*
G03*
X13720000Y-15500000I-50000J0D01*
G01*
X13720000Y-16300000D02*
G75*
G03*
X13720000Y-16300000I-50000J0D01*
G01*
X13974000Y-4700000D02*
G75*
G03*
X13974000Y-4700000I-50000J0D01*
G01*
X13974000Y-6500000D02*
G75*
G03*
X13974000Y-6500000I-50000J0D01*
G01*
X13974000Y-10600000D02*
G75*
G03*
X13974000Y-10600000I-50000J0D01*
G01*
X13974000Y-11400000D02*
G75*
G03*
X13974000Y-11400000I-50000J0D01*
G01*
X13974000Y-15500000D02*
G75*
G03*
X13974000Y-15500000I-50000J0D01*
G01*
X13974000Y-16300000D02*
G75*
G03*
X13974000Y-16300000I-50000J0D01*
G01*
X14226000Y-7660000D02*
G75*
G03*
X14226000Y-7660000I-50000J0D01*
G01*
X14226000Y-7914000D02*
G75*
G03*
X14226000Y-7914000I-50000J0D01*
G01*
X14226000Y-8168000D02*
G75*
G03*
X14226000Y-8168000I-50000J0D01*
G01*
X14226000Y-8422000D02*
G75*
G03*
X14226000Y-8422000I-50000J0D01*
G01*
X14226000Y-8676000D02*
G75*
G03*
X14226000Y-8676000I-50000J0D01*
G01*
X14226000Y-8930000D02*
G75*
G03*
X14226000Y-8930000I-50000J0D01*
G01*
X14226000Y-9184000D02*
G75*
G03*
X14226000Y-9184000I-50000J0D01*
G01*
X14226000Y-9438000D02*
G75*
G03*
X14226000Y-9438000I-50000J0D01*
G01*
X14226000Y-12560000D02*
G75*
G03*
X14226000Y-12560000I-50000J0D01*
G01*
X14226000Y-12814000D02*
G75*
G03*
X14226000Y-12814000I-50000J0D01*
G01*
X14226000Y-13068000D02*
G75*
G03*
X14226000Y-13068000I-50000J0D01*
G01*
X14226000Y-13322000D02*
G75*
G03*
X14226000Y-13322000I-50000J0D01*
G01*
X14226000Y-13576000D02*
G75*
G03*
X14226000Y-13576000I-50000J0D01*
G01*
X14226000Y-13830000D02*
G75*
G03*
X14226000Y-13830000I-50000J0D01*
G01*
X14226000Y-14084000D02*
G75*
G03*
X14226000Y-14084000I-50000J0D01*
G01*
X14226000Y-14338000D02*
G75*
G03*
X14226000Y-14338000I-50000J0D01*
G01*
X14228000Y-4700000D02*
G75*
G03*
X14228000Y-4700000I-50000J0D01*
G01*
X14228000Y-6500000D02*
G75*
G03*
X14228000Y-6500000I-50000J0D01*
G01*
X14228000Y-10600000D02*
G75*
G03*
X14228000Y-10600000I-50000J0D01*
G01*
X14228000Y-11400000D02*
G75*
G03*
X14228000Y-11400000I-50000J0D01*
G01*
X14228000Y-15500000D02*
G75*
G03*
X14228000Y-15500000I-50000J0D01*
G01*
X14228000Y-16300000D02*
G75*
G03*
X14228000Y-16300000I-50000J0D01*
G01*
X14480000Y-7660000D02*
G75*
G03*
X14480000Y-7660000I-50000J0D01*
G01*
X14480000Y-7914000D02*
G75*
G03*
X14480000Y-7914000I-50000J0D01*
G01*
X14480000Y-8168000D02*
G75*
G03*
X14480000Y-8168000I-50000J0D01*
G01*
X14480000Y-8422000D02*
G75*
G03*
X14480000Y-8422000I-50000J0D01*
G01*
X14480000Y-8676000D02*
G75*
G03*
X14480000Y-8676000I-50000J0D01*
G01*
X14480000Y-8930000D02*
G75*
G03*
X14480000Y-8930000I-50000J0D01*
G01*
X14480000Y-9184000D02*
G75*
G03*
X14480000Y-9184000I-50000J0D01*
G01*
X14480000Y-9438000D02*
G75*
G03*
X14480000Y-9438000I-50000J0D01*
G01*
X14480000Y-12560000D02*
G75*
G03*
X14480000Y-12560000I-50000J0D01*
G01*
X14480000Y-12814000D02*
G75*
G03*
X14480000Y-12814000I-50000J0D01*
G01*
X14480000Y-13068000D02*
G75*
G03*
X14480000Y-13068000I-50000J0D01*
G01*
X14480000Y-13322000D02*
G75*
G03*
X14480000Y-13322000I-50000J0D01*
G01*
X14480000Y-13576000D02*
G75*
G03*
X14480000Y-13576000I-50000J0D01*
G01*
X14480000Y-13830000D02*
G75*
G03*
X14480000Y-13830000I-50000J0D01*
G01*
X14480000Y-14084000D02*
G75*
G03*
X14480000Y-14084000I-50000J0D01*
G01*
X14480000Y-14338000D02*
G75*
G03*
X14480000Y-14338000I-50000J0D01*
G01*
X14482000Y-4700000D02*
G75*
G03*
X14482000Y-4700000I-50000J0D01*
G01*
X14482000Y-6500000D02*
G75*
G03*
X14482000Y-6500000I-50000J0D01*
G01*
X14482000Y-10600000D02*
G75*
G03*
X14482000Y-10600000I-50000J0D01*
G01*
X14482000Y-11400000D02*
G75*
G03*
X14482000Y-11400000I-50000J0D01*
G01*
X14482000Y-15500000D02*
G75*
G03*
X14482000Y-15500000I-50000J0D01*
G01*
X14482000Y-16300000D02*
G75*
G03*
X14482000Y-16300000I-50000J0D01*
G01*
X14736000Y-4700000D02*
G75*
G03*
X14736000Y-4700000I-50000J0D01*
G01*
X14736000Y-6500000D02*
G75*
G03*
X14736000Y-6500000I-50000J0D01*
G01*
X14736000Y-10600000D02*
G75*
G03*
X14736000Y-10600000I-50000J0D01*
G01*
X14736000Y-11400000D02*
G75*
G03*
X14736000Y-11400000I-50000J0D01*
G01*
X14736000Y-15500000D02*
G75*
G03*
X14736000Y-15500000I-50000J0D01*
G01*
X14736000Y-16300000D02*
G75*
G03*
X14736000Y-16300000I-50000J0D01*
G01*
X16830000Y-4700000D02*
G75*
G03*
X16830000Y-4700000I-50000J0D01*
G01*
X16830000Y-6500000D02*
G75*
G03*
X16830000Y-6500000I-50000J0D01*
G01*
X16830000Y-10600000D02*
G75*
G03*
X16830000Y-10600000I-50000J0D01*
G01*
X16830000Y-11400000D02*
G75*
G03*
X16830000Y-11400000I-50000J0D01*
G01*
X16830000Y-15500000D02*
G75*
G03*
X16830000Y-15500000I-50000J0D01*
G01*
X16830000Y-16300000D02*
G75*
G03*
X16830000Y-16300000I-50000J0D01*
G01*
X17076000Y-7660000D02*
G75*
G03*
X17076000Y-7660000I-50000J0D01*
G01*
X17076000Y-7914000D02*
G75*
G03*
X17076000Y-7914000I-50000J0D01*
G01*
X17076000Y-8168000D02*
G75*
G03*
X17076000Y-8168000I-50000J0D01*
G01*
X17076000Y-8422000D02*
G75*
G03*
X17076000Y-8422000I-50000J0D01*
G01*
X17076000Y-8676000D02*
G75*
G03*
X17076000Y-8676000I-50000J0D01*
G01*
X17076000Y-8930000D02*
G75*
G03*
X17076000Y-8930000I-50000J0D01*
G01*
X17076000Y-9184000D02*
G75*
G03*
X17076000Y-9184000I-50000J0D01*
G01*
X17076000Y-9438000D02*
G75*
G03*
X17076000Y-9438000I-50000J0D01*
G01*
X17084000Y-4700000D02*
G75*
G03*
X17084000Y-4700000I-50000J0D01*
G01*
X17084000Y-6500000D02*
G75*
G03*
X17084000Y-6500000I-50000J0D01*
G01*
X17084000Y-10600000D02*
G75*
G03*
X17084000Y-10600000I-50000J0D01*
G01*
X17084000Y-11400000D02*
G75*
G03*
X17084000Y-11400000I-50000J0D01*
G01*
X17084000Y-15500000D02*
G75*
G03*
X17084000Y-15500000I-50000J0D01*
G01*
X17084000Y-16300000D02*
G75*
G03*
X17084000Y-16300000I-50000J0D01*
G01*
X17086000Y-12560000D02*
G75*
G03*
X17086000Y-12560000I-50000J0D01*
G01*
X17086000Y-12814000D02*
G75*
G03*
X17086000Y-12814000I-50000J0D01*
G01*
X17086000Y-13068000D02*
G75*
G03*
X17086000Y-13068000I-50000J0D01*
G01*
X17086000Y-13322000D02*
G75*
G03*
X17086000Y-13322000I-50000J0D01*
G01*
X17086000Y-13576000D02*
G75*
G03*
X17086000Y-13576000I-50000J0D01*
G01*
X17086000Y-13830000D02*
G75*
G03*
X17086000Y-13830000I-50000J0D01*
G01*
X17086000Y-14084000D02*
G75*
G03*
X17086000Y-14084000I-50000J0D01*
G01*
X17086000Y-14338000D02*
G75*
G03*
X17086000Y-14338000I-50000J0D01*
G01*
X17330000Y-7660000D02*
G75*
G03*
X17330000Y-7660000I-50000J0D01*
G01*
X17330000Y-7914000D02*
G75*
G03*
X17330000Y-7914000I-50000J0D01*
G01*
X17330000Y-8168000D02*
G75*
G03*
X17330000Y-8168000I-50000J0D01*
G01*
X17330000Y-8422000D02*
G75*
G03*
X17330000Y-8422000I-50000J0D01*
G01*
X17330000Y-8676000D02*
G75*
G03*
X17330000Y-8676000I-50000J0D01*
G01*
X17330000Y-8930000D02*
G75*
G03*
X17330000Y-8930000I-50000J0D01*
G01*
X17330000Y-9184000D02*
G75*
G03*
X17330000Y-9184000I-50000J0D01*
G01*
X17330000Y-9438000D02*
G75*
G03*
X17330000Y-9438000I-50000J0D01*
G01*
X17338000Y-4700000D02*
G75*
G03*
X17338000Y-4700000I-50000J0D01*
G01*
X17338000Y-6500000D02*
G75*
G03*
X17338000Y-6500000I-50000J0D01*
G01*
X17338000Y-10600000D02*
G75*
G03*
X17338000Y-10600000I-50000J0D01*
G01*
X17338000Y-11400000D02*
G75*
G03*
X17338000Y-11400000I-50000J0D01*
G01*
X17338000Y-15500000D02*
G75*
G03*
X17338000Y-15500000I-50000J0D01*
G01*
X17338000Y-16300000D02*
G75*
G03*
X17338000Y-16300000I-50000J0D01*
G01*
X17340000Y-12560000D02*
G75*
G03*
X17340000Y-12560000I-50000J0D01*
G01*
X17340000Y-12814000D02*
G75*
G03*
X17340000Y-12814000I-50000J0D01*
G01*
X17340000Y-13068000D02*
G75*
G03*
X17340000Y-13068000I-50000J0D01*
G01*
X17340000Y-13322000D02*
G75*
G03*
X17340000Y-13322000I-50000J0D01*
G01*
X17340000Y-13576000D02*
G75*
G03*
X17340000Y-13576000I-50000J0D01*
G01*
X17340000Y-13830000D02*
G75*
G03*
X17340000Y-13830000I-50000J0D01*
G01*
X17340000Y-14084000D02*
G75*
G03*
X17340000Y-14084000I-50000J0D01*
G01*
X17340000Y-14338000D02*
G75*
G03*
X17340000Y-14338000I-50000J0D01*
G01*
X17592000Y-4700000D02*
G75*
G03*
X17592000Y-4700000I-50000J0D01*
G01*
X17592000Y-6500000D02*
G75*
G03*
X17592000Y-6500000I-50000J0D01*
G01*
X17592000Y-10600000D02*
G75*
G03*
X17592000Y-10600000I-50000J0D01*
G01*
X17592000Y-11400000D02*
G75*
G03*
X17592000Y-11400000I-50000J0D01*
G01*
X17592000Y-15500000D02*
G75*
G03*
X17592000Y-15500000I-50000J0D01*
G01*
X17592000Y-16300000D02*
G75*
G03*
X17592000Y-16300000I-50000J0D01*
G01*
X17846000Y-4700000D02*
G75*
G03*
X17846000Y-4700000I-50000J0D01*
G01*
X17846000Y-6500000D02*
G75*
G03*
X17846000Y-6500000I-50000J0D01*
G01*
X17846000Y-10600000D02*
G75*
G03*
X17846000Y-10600000I-50000J0D01*
G01*
X17846000Y-11400000D02*
G75*
G03*
X17846000Y-11400000I-50000J0D01*
G01*
X17846000Y-15500000D02*
G75*
G03*
X17846000Y-15500000I-50000J0D01*
G01*
X17846000Y-16300000D02*
G75*
G03*
X17846000Y-16300000I-50000J0D01*
G01*
X18100000Y-4700000D02*
G75*
G03*
X18100000Y-4700000I-50000J0D01*
G01*
X18100000Y-6500000D02*
G75*
G03*
X18100000Y-6500000I-50000J0D01*
G01*
X18100000Y-10600000D02*
G75*
G03*
X18100000Y-10600000I-50000J0D01*
G01*
X18100000Y-11400000D02*
G75*
G03*
X18100000Y-11400000I-50000J0D01*
G01*
X18100000Y-15500000D02*
G75*
G03*
X18100000Y-15500000I-50000J0D01*
G01*
X18100000Y-16300000D02*
G75*
G03*
X18100000Y-16300000I-50000J0D01*
G01*
X18354000Y-4700000D02*
G75*
G03*
X18354000Y-4700000I-50000J0D01*
G01*
X18354000Y-6500000D02*
G75*
G03*
X18354000Y-6500000I-50000J0D01*
G01*
X18354000Y-10600000D02*
G75*
G03*
X18354000Y-10600000I-50000J0D01*
G01*
X18354000Y-11400000D02*
G75*
G03*
X18354000Y-11400000I-50000J0D01*
G01*
X18354000Y-15500000D02*
G75*
G03*
X18354000Y-15500000I-50000J0D01*
G01*
X18354000Y-16300000D02*
G75*
G03*
X18354000Y-16300000I-50000J0D01*
G01*
X18608000Y-4700000D02*
G75*
G03*
X18608000Y-4700000I-50000J0D01*
G01*
X18608000Y-6500000D02*
G75*
G03*
X18608000Y-6500000I-50000J0D01*
G01*
X18608000Y-10600000D02*
G75*
G03*
X18608000Y-10600000I-50000J0D01*
G01*
X18608000Y-11400000D02*
G75*
G03*
X18608000Y-11400000I-50000J0D01*
G01*
X18608000Y-15500000D02*
G75*
G03*
X18608000Y-15500000I-50000J0D01*
G01*
X18608000Y-16300000D02*
G75*
G03*
X18608000Y-16300000I-50000J0D01*
G01*
X18862000Y-4700000D02*
G75*
G03*
X18862000Y-4700000I-50000J0D01*
G01*
X18862000Y-6500000D02*
G75*
G03*
X18862000Y-6500000I-50000J0D01*
G01*
X18862000Y-10600000D02*
G75*
G03*
X18862000Y-10600000I-50000J0D01*
G01*
X18862000Y-11400000D02*
G75*
G03*
X18862000Y-11400000I-50000J0D01*
G01*
X18862000Y-15500000D02*
G75*
G03*
X18862000Y-15500000I-50000J0D01*
G01*
X18862000Y-16300000D02*
G75*
G03*
X18862000Y-16300000I-50000J0D01*
G01*
X19116000Y-4700000D02*
G75*
G03*
X19116000Y-4700000I-50000J0D01*
G01*
X19116000Y-6500000D02*
G75*
G03*
X19116000Y-6500000I-50000J0D01*
G01*
X19116000Y-10600000D02*
G75*
G03*
X19116000Y-10600000I-50000J0D01*
G01*
X19116000Y-11400000D02*
G75*
G03*
X19116000Y-11400000I-50000J0D01*
G01*
X19116000Y-15500000D02*
G75*
G03*
X19116000Y-15500000I-50000J0D01*
G01*
X19116000Y-16300000D02*
G75*
G03*
X19116000Y-16300000I-50000J0D01*
G01*
X19370000Y-4700000D02*
G75*
G03*
X19370000Y-4700000I-50000J0D01*
G01*
X19370000Y-6500000D02*
G75*
G03*
X19370000Y-6500000I-50000J0D01*
G01*
X19370000Y-10600000D02*
G75*
G03*
X19370000Y-10600000I-50000J0D01*
G01*
X19370000Y-11400000D02*
G75*
G03*
X19370000Y-11400000I-50000J0D01*
G01*
X19370000Y-15500000D02*
G75*
G03*
X19370000Y-15500000I-50000J0D01*
G01*
X19370000Y-16300000D02*
G75*
G03*
X19370000Y-16300000I-50000J0D01*
G01*
X19624000Y-4700000D02*
G75*
G03*
X19624000Y-4700000I-50000J0D01*
G01*
X19624000Y-6500000D02*
G75*
G03*
X19624000Y-6500000I-50000J0D01*
G01*
X19624000Y-10600000D02*
G75*
G03*
X19624000Y-10600000I-50000J0D01*
G01*
X19624000Y-11400000D02*
G75*
G03*
X19624000Y-11400000I-50000J0D01*
G01*
X19624000Y-15500000D02*
G75*
G03*
X19624000Y-15500000I-50000J0D01*
G01*
X19624000Y-16300000D02*
G75*
G03*
X19624000Y-16300000I-50000J0D01*
G01*
X19878000Y-4700000D02*
G75*
G03*
X19878000Y-4700000I-50000J0D01*
G01*
X19878000Y-6500000D02*
G75*
G03*
X19878000Y-6500000I-50000J0D01*
G01*
X19878000Y-10600000D02*
G75*
G03*
X19878000Y-10600000I-50000J0D01*
G01*
X19878000Y-11400000D02*
G75*
G03*
X19878000Y-11400000I-50000J0D01*
G01*
X19878000Y-15500000D02*
G75*
G03*
X19878000Y-15500000I-50000J0D01*
G01*
X19878000Y-16300000D02*
G75*
G03*
X19878000Y-16300000I-50000J0D01*
G01*
X20132000Y-4700000D02*
G75*
G03*
X20132000Y-4700000I-50000J0D01*
G01*
X20132000Y-6500000D02*
G75*
G03*
X20132000Y-6500000I-50000J0D01*
G01*
X20132000Y-10600000D02*
G75*
G03*
X20132000Y-10600000I-50000J0D01*
G01*
X20132000Y-11400000D02*
G75*
G03*
X20132000Y-11400000I-50000J0D01*
G01*
X20132000Y-15500000D02*
G75*
G03*
X20132000Y-15500000I-50000J0D01*
G01*
X20132000Y-16300000D02*
G75*
G03*
X20132000Y-16300000I-50000J0D01*
G01*
X20386000Y-4700000D02*
G75*
G03*
X20386000Y-4700000I-50000J0D01*
G01*
X20386000Y-6500000D02*
G75*
G03*
X20386000Y-6500000I-50000J0D01*
G01*
X20386000Y-10600000D02*
G75*
G03*
X20386000Y-10600000I-50000J0D01*
G01*
X20386000Y-11400000D02*
G75*
G03*
X20386000Y-11400000I-50000J0D01*
G01*
X20386000Y-15500000D02*
G75*
G03*
X20386000Y-15500000I-50000J0D01*
G01*
X20386000Y-16300000D02*
G75*
G03*
X20386000Y-16300000I-50000J0D01*
G01*
X20640000Y-4700000D02*
G75*
G03*
X20640000Y-4700000I-50000J0D01*
G01*
X20640000Y-6500000D02*
G75*
G03*
X20640000Y-6500000I-50000J0D01*
G01*
X20640000Y-10600000D02*
G75*
G03*
X20640000Y-10600000I-50000J0D01*
G01*
X20640000Y-11400000D02*
G75*
G03*
X20640000Y-11400000I-50000J0D01*
G01*
X20640000Y-15500000D02*
G75*
G03*
X20640000Y-15500000I-50000J0D01*
G01*
X20640000Y-16300000D02*
G75*
G03*
X20640000Y-16300000I-50000J0D01*
G01*
X20894000Y-4700000D02*
G75*
G03*
X20894000Y-4700000I-50000J0D01*
G01*
X20894000Y-6500000D02*
G75*
G03*
X20894000Y-6500000I-50000J0D01*
G01*
X20894000Y-10600000D02*
G75*
G03*
X20894000Y-10600000I-50000J0D01*
G01*
X20894000Y-11400000D02*
G75*
G03*
X20894000Y-11400000I-50000J0D01*
G01*
X20894000Y-15500000D02*
G75*
G03*
X20894000Y-15500000I-50000J0D01*
G01*
X20894000Y-16300000D02*
G75*
G03*
X20894000Y-16300000I-50000J0D01*
G01*
X21148000Y-4700000D02*
G75*
G03*
X21148000Y-4700000I-50000J0D01*
G01*
X21148000Y-6500000D02*
G75*
G03*
X21148000Y-6500000I-50000J0D01*
G01*
X21148000Y-10600000D02*
G75*
G03*
X21148000Y-10600000I-50000J0D01*
G01*
X21148000Y-11400000D02*
G75*
G03*
X21148000Y-11400000I-50000J0D01*
G01*
X21148000Y-15500000D02*
G75*
G03*
X21148000Y-15500000I-50000J0D01*
G01*
X21148000Y-16300000D02*
G75*
G03*
X21148000Y-16300000I-50000J0D01*
G01*
X21402000Y-4700000D02*
G75*
G03*
X21402000Y-4700000I-50000J0D01*
G01*
X21402000Y-6500000D02*
G75*
G03*
X21402000Y-6500000I-50000J0D01*
G01*
X21402000Y-10600000D02*
G75*
G03*
X21402000Y-10600000I-50000J0D01*
G01*
X21402000Y-11400000D02*
G75*
G03*
X21402000Y-11400000I-50000J0D01*
G01*
X21402000Y-15500000D02*
G75*
G03*
X21402000Y-15500000I-50000J0D01*
G01*
X21402000Y-16300000D02*
G75*
G03*
X21402000Y-16300000I-50000J0D01*
G01*
X21656000Y-4700000D02*
G75*
G03*
X21656000Y-4700000I-50000J0D01*
G01*
X21656000Y-6500000D02*
G75*
G03*
X21656000Y-6500000I-50000J0D01*
G01*
X21656000Y-10600000D02*
G75*
G03*
X21656000Y-10600000I-50000J0D01*
G01*
X21656000Y-11400000D02*
G75*
G03*
X21656000Y-11400000I-50000J0D01*
G01*
X21656000Y-15500000D02*
G75*
G03*
X21656000Y-15500000I-50000J0D01*
G01*
X21656000Y-16300000D02*
G75*
G03*
X21656000Y-16300000I-50000J0D01*
G01*
X21910000Y-4700000D02*
G75*
G03*
X21910000Y-4700000I-50000J0D01*
G01*
X21910000Y-6500000D02*
G75*
G03*
X21910000Y-6500000I-50000J0D01*
G01*
X21910000Y-10600000D02*
G75*
G03*
X21910000Y-10600000I-50000J0D01*
G01*
X21910000Y-11400000D02*
G75*
G03*
X21910000Y-11400000I-50000J0D01*
G01*
X21910000Y-15500000D02*
G75*
G03*
X21910000Y-15500000I-50000J0D01*
G01*
X21910000Y-16300000D02*
G75*
G03*
X21910000Y-16300000I-50000J0D01*
G01*
X22164000Y-4700000D02*
G75*
G03*
X22164000Y-4700000I-50000J0D01*
G01*
X22164000Y-6500000D02*
G75*
G03*
X22164000Y-6500000I-50000J0D01*
G01*
X22164000Y-10600000D02*
G75*
G03*
X22164000Y-10600000I-50000J0D01*
G01*
X22164000Y-11400000D02*
G75*
G03*
X22164000Y-11400000I-50000J0D01*
G01*
X22164000Y-15500000D02*
G75*
G03*
X22164000Y-15500000I-50000J0D01*
G01*
X22164000Y-16300000D02*
G75*
G03*
X22164000Y-16300000I-50000J0D01*
G01*
X22418000Y-4700000D02*
G75*
G03*
X22418000Y-4700000I-50000J0D01*
G01*
X22418000Y-6500000D02*
G75*
G03*
X22418000Y-6500000I-50000J0D01*
G01*
X22418000Y-10600000D02*
G75*
G03*
X22418000Y-10600000I-50000J0D01*
G01*
X22418000Y-11400000D02*
G75*
G03*
X22418000Y-11400000I-50000J0D01*
G01*
X22418000Y-15500000D02*
G75*
G03*
X22418000Y-15500000I-50000J0D01*
G01*
X22418000Y-16300000D02*
G75*
G03*
X22418000Y-16300000I-50000J0D01*
G01*
X22672000Y-4700000D02*
G75*
G03*
X22672000Y-4700000I-50000J0D01*
G01*
X22672000Y-6500000D02*
G75*
G03*
X22672000Y-6500000I-50000J0D01*
G01*
X22672000Y-10600000D02*
G75*
G03*
X22672000Y-10600000I-50000J0D01*
G01*
X22672000Y-11400000D02*
G75*
G03*
X22672000Y-11400000I-50000J0D01*
G01*
X22672000Y-15500000D02*
G75*
G03*
X22672000Y-15500000I-50000J0D01*
G01*
X22672000Y-16300000D02*
G75*
G03*
X22672000Y-16300000I-50000J0D01*
G01*
X22926000Y-4700000D02*
G75*
G03*
X22926000Y-4700000I-50000J0D01*
G01*
X22926000Y-6500000D02*
G75*
G03*
X22926000Y-6500000I-50000J0D01*
G01*
X22926000Y-10600000D02*
G75*
G03*
X22926000Y-10600000I-50000J0D01*
G01*
X22926000Y-11400000D02*
G75*
G03*
X22926000Y-11400000I-50000J0D01*
G01*
X22926000Y-15500000D02*
G75*
G03*
X22926000Y-15500000I-50000J0D01*
G01*
X22926000Y-16300000D02*
G75*
G03*
X22926000Y-16300000I-50000J0D01*
G01*
X23180000Y-4700000D02*
G75*
G03*
X23180000Y-4700000I-50000J0D01*
G01*
X23180000Y-6500000D02*
G75*
G03*
X23180000Y-6500000I-50000J0D01*
G01*
X23180000Y-10600000D02*
G75*
G03*
X23180000Y-10600000I-50000J0D01*
G01*
X23180000Y-11400000D02*
G75*
G03*
X23180000Y-11400000I-50000J0D01*
G01*
X23180000Y-15500000D02*
G75*
G03*
X23180000Y-15500000I-50000J0D01*
G01*
X23180000Y-16300000D02*
G75*
G03*
X23180000Y-16300000I-50000J0D01*
G01*
X23434000Y-4700000D02*
G75*
G03*
X23434000Y-4700000I-50000J0D01*
G01*
X23434000Y-6500000D02*
G75*
G03*
X23434000Y-6500000I-50000J0D01*
G01*
X23434000Y-10600000D02*
G75*
G03*
X23434000Y-10600000I-50000J0D01*
G01*
X23434000Y-11400000D02*
G75*
G03*
X23434000Y-11400000I-50000J0D01*
G01*
X23434000Y-15500000D02*
G75*
G03*
X23434000Y-15500000I-50000J0D01*
G01*
X23434000Y-16300000D02*
G75*
G03*
X23434000Y-16300000I-50000J0D01*
G01*
X23688000Y-4700000D02*
G75*
G03*
X23688000Y-4700000I-50000J0D01*
G01*
X23688000Y-6500000D02*
G75*
G03*
X23688000Y-6500000I-50000J0D01*
G01*
X23688000Y-10600000D02*
G75*
G03*
X23688000Y-10600000I-50000J0D01*
G01*
X23688000Y-11400000D02*
G75*
G03*
X23688000Y-11400000I-50000J0D01*
G01*
X23688000Y-15500000D02*
G75*
G03*
X23688000Y-15500000I-50000J0D01*
G01*
X23688000Y-16300000D02*
G75*
G03*
X23688000Y-16300000I-50000J0D01*
G01*
X23942000Y-4700000D02*
G75*
G03*
X23942000Y-4700000I-50000J0D01*
G01*
X23942000Y-6500000D02*
G75*
G03*
X23942000Y-6500000I-50000J0D01*
G01*
X23942000Y-10600000D02*
G75*
G03*
X23942000Y-10600000I-50000J0D01*
G01*
X23942000Y-11400000D02*
G75*
G03*
X23942000Y-11400000I-50000J0D01*
G01*
X23942000Y-15500000D02*
G75*
G03*
X23942000Y-15500000I-50000J0D01*
G01*
X23942000Y-16300000D02*
G75*
G03*
X23942000Y-16300000I-50000J0D01*
G01*
X24196000Y-4700000D02*
G75*
G03*
X24196000Y-4700000I-50000J0D01*
G01*
X24196000Y-6500000D02*
G75*
G03*
X24196000Y-6500000I-50000J0D01*
G01*
X24196000Y-10600000D02*
G75*
G03*
X24196000Y-10600000I-50000J0D01*
G01*
X24196000Y-11400000D02*
G75*
G03*
X24196000Y-11400000I-50000J0D01*
G01*
X24196000Y-15500000D02*
G75*
G03*
X24196000Y-15500000I-50000J0D01*
G01*
X24196000Y-16300000D02*
G75*
G03*
X24196000Y-16300000I-50000J0D01*
G01*
X24450000Y-4700000D02*
G75*
G03*
X24450000Y-4700000I-50000J0D01*
G01*
X24450000Y-6500000D02*
G75*
G03*
X24450000Y-6500000I-50000J0D01*
G01*
X24450000Y-10600000D02*
G75*
G03*
X24450000Y-10600000I-50000J0D01*
G01*
X24450000Y-11400000D02*
G75*
G03*
X24450000Y-11400000I-50000J0D01*
G01*
X24450000Y-15500000D02*
G75*
G03*
X24450000Y-15500000I-50000J0D01*
G01*
X24450000Y-16300000D02*
G75*
G03*
X24450000Y-16300000I-50000J0D01*
G01*
X24704000Y-4700000D02*
G75*
G03*
X24704000Y-4700000I-50000J0D01*
G01*
X24704000Y-6500000D02*
G75*
G03*
X24704000Y-6500000I-50000J0D01*
G01*
X24704000Y-10600000D02*
G75*
G03*
X24704000Y-10600000I-50000J0D01*
G01*
X24704000Y-11400000D02*
G75*
G03*
X24704000Y-11400000I-50000J0D01*
G01*
X24704000Y-15500000D02*
G75*
G03*
X24704000Y-15500000I-50000J0D01*
G01*
X24704000Y-16300000D02*
G75*
G03*
X24704000Y-16300000I-50000J0D01*
G01*
X24958000Y-4700000D02*
G75*
G03*
X24958000Y-4700000I-50000J0D01*
G01*
X24958000Y-6500000D02*
G75*
G03*
X24958000Y-6500000I-50000J0D01*
G01*
X24958000Y-10600000D02*
G75*
G03*
X24958000Y-10600000I-50000J0D01*
G01*
X24958000Y-11400000D02*
G75*
G03*
X24958000Y-11400000I-50000J0D01*
G01*
X24958000Y-15500000D02*
G75*
G03*
X24958000Y-15500000I-50000J0D01*
G01*
X24958000Y-16300000D02*
G75*
G03*
X24958000Y-16300000I-50000J0D01*
G01*
X25212000Y-4700000D02*
G75*
G03*
X25212000Y-4700000I-50000J0D01*
G01*
X25212000Y-6500000D02*
G75*
G03*
X25212000Y-6500000I-50000J0D01*
G01*
X25212000Y-10600000D02*
G75*
G03*
X25212000Y-10600000I-50000J0D01*
G01*
X25212000Y-11400000D02*
G75*
G03*
X25212000Y-11400000I-50000J0D01*
G01*
X25212000Y-15500000D02*
G75*
G03*
X25212000Y-15500000I-50000J0D01*
G01*
X25212000Y-16300000D02*
G75*
G03*
X25212000Y-16300000I-50000J0D01*
G01*
X25466000Y-4700000D02*
G75*
G03*
X25466000Y-4700000I-50000J0D01*
G01*
X25466000Y-6500000D02*
G75*
G03*
X25466000Y-6500000I-50000J0D01*
G01*
X25466000Y-10600000D02*
G75*
G03*
X25466000Y-10600000I-50000J0D01*
G01*
X25466000Y-11400000D02*
G75*
G03*
X25466000Y-11400000I-50000J0D01*
G01*
X25466000Y-15500000D02*
G75*
G03*
X25466000Y-15500000I-50000J0D01*
G01*
X25466000Y-16300000D02*
G75*
G03*
X25466000Y-16300000I-50000J0D01*
G01*
X25720000Y-4700000D02*
G75*
G03*
X25720000Y-4700000I-50000J0D01*
G01*
X25720000Y-6500000D02*
G75*
G03*
X25720000Y-6500000I-50000J0D01*
G01*
X25720000Y-10600000D02*
G75*
G03*
X25720000Y-10600000I-50000J0D01*
G01*
X25720000Y-11400000D02*
G75*
G03*
X25720000Y-11400000I-50000J0D01*
G01*
X25720000Y-15500000D02*
G75*
G03*
X25720000Y-15500000I-50000J0D01*
G01*
X25720000Y-16300000D02*
G75*
G03*
X25720000Y-16300000I-50000J0D01*
G01*
X25974000Y-4700000D02*
G75*
G03*
X25974000Y-4700000I-50000J0D01*
G01*
X25974000Y-6500000D02*
G75*
G03*
X25974000Y-6500000I-50000J0D01*
G01*
X25974000Y-10600000D02*
G75*
G03*
X25974000Y-10600000I-50000J0D01*
G01*
X25974000Y-11400000D02*
G75*
G03*
X25974000Y-11400000I-50000J0D01*
G01*
X25974000Y-15500000D02*
G75*
G03*
X25974000Y-15500000I-50000J0D01*
G01*
X25974000Y-16300000D02*
G75*
G03*
X25974000Y-16300000I-50000J0D01*
G01*
X26226000Y-12560000D02*
G75*
G03*
X26226000Y-12560000I-50000J0D01*
G01*
X26226000Y-12814000D02*
G75*
G03*
X26226000Y-12814000I-50000J0D01*
G01*
X26226000Y-13068000D02*
G75*
G03*
X26226000Y-13068000I-50000J0D01*
G01*
X26226000Y-13322000D02*
G75*
G03*
X26226000Y-13322000I-50000J0D01*
G01*
X26226000Y-13576000D02*
G75*
G03*
X26226000Y-13576000I-50000J0D01*
G01*
X26226000Y-13830000D02*
G75*
G03*
X26226000Y-13830000I-50000J0D01*
G01*
X26226000Y-14084000D02*
G75*
G03*
X26226000Y-14084000I-50000J0D01*
G01*
X26226000Y-14338000D02*
G75*
G03*
X26226000Y-14338000I-50000J0D01*
G01*
X26228000Y-4700000D02*
G75*
G03*
X26228000Y-4700000I-50000J0D01*
G01*
X26228000Y-6500000D02*
G75*
G03*
X26228000Y-6500000I-50000J0D01*
G01*
X26228000Y-10600000D02*
G75*
G03*
X26228000Y-10600000I-50000J0D01*
G01*
X26228000Y-11400000D02*
G75*
G03*
X26228000Y-11400000I-50000J0D01*
G01*
X26228000Y-15500000D02*
G75*
G03*
X26228000Y-15500000I-50000J0D01*
G01*
X26228000Y-16300000D02*
G75*
G03*
X26228000Y-16300000I-50000J0D01*
G01*
X26230000Y-7660000D02*
G75*
G03*
X26230000Y-7660000I-50000J0D01*
G01*
X26230000Y-7914000D02*
G75*
G03*
X26230000Y-7914000I-50000J0D01*
G01*
X26230000Y-8168000D02*
G75*
G03*
X26230000Y-8168000I-50000J0D01*
G01*
X26230000Y-8422000D02*
G75*
G03*
X26230000Y-8422000I-50000J0D01*
G01*
X26230000Y-8676000D02*
G75*
G03*
X26230000Y-8676000I-50000J0D01*
G01*
X26230000Y-8930000D02*
G75*
G03*
X26230000Y-8930000I-50000J0D01*
G01*
X26230000Y-9184000D02*
G75*
G03*
X26230000Y-9184000I-50000J0D01*
G01*
X26230000Y-9438000D02*
G75*
G03*
X26230000Y-9438000I-50000J0D01*
G01*
X26480000Y-12560000D02*
G75*
G03*
X26480000Y-12560000I-50000J0D01*
G01*
X26480000Y-12814000D02*
G75*
G03*
X26480000Y-12814000I-50000J0D01*
G01*
X26480000Y-13068000D02*
G75*
G03*
X26480000Y-13068000I-50000J0D01*
G01*
X26480000Y-13322000D02*
G75*
G03*
X26480000Y-13322000I-50000J0D01*
G01*
X26480000Y-13576000D02*
G75*
G03*
X26480000Y-13576000I-50000J0D01*
G01*
X26480000Y-13830000D02*
G75*
G03*
X26480000Y-13830000I-50000J0D01*
G01*
X26480000Y-14084000D02*
G75*
G03*
X26480000Y-14084000I-50000J0D01*
G01*
X26480000Y-14338000D02*
G75*
G03*
X26480000Y-14338000I-50000J0D01*
G01*
X26482000Y-4700000D02*
G75*
G03*
X26482000Y-4700000I-50000J0D01*
G01*
X26482000Y-6500000D02*
G75*
G03*
X26482000Y-6500000I-50000J0D01*
G01*
X26482000Y-10600000D02*
G75*
G03*
X26482000Y-10600000I-50000J0D01*
G01*
X26482000Y-11400000D02*
G75*
G03*
X26482000Y-11400000I-50000J0D01*
G01*
X26482000Y-15500000D02*
G75*
G03*
X26482000Y-15500000I-50000J0D01*
G01*
X26482000Y-16300000D02*
G75*
G03*
X26482000Y-16300000I-50000J0D01*
G01*
X26484000Y-7660000D02*
G75*
G03*
X26484000Y-7660000I-50000J0D01*
G01*
X26484000Y-7914000D02*
G75*
G03*
X26484000Y-7914000I-50000J0D01*
G01*
X26484000Y-8168000D02*
G75*
G03*
X26484000Y-8168000I-50000J0D01*
G01*
X26484000Y-8422000D02*
G75*
G03*
X26484000Y-8422000I-50000J0D01*
G01*
X26484000Y-8676000D02*
G75*
G03*
X26484000Y-8676000I-50000J0D01*
G01*
X26484000Y-8930000D02*
G75*
G03*
X26484000Y-8930000I-50000J0D01*
G01*
X26484000Y-9184000D02*
G75*
G03*
X26484000Y-9184000I-50000J0D01*
G01*
X26484000Y-9438000D02*
G75*
G03*
X26484000Y-9438000I-50000J0D01*
G01*
X26736000Y-4700000D02*
G75*
G03*
X26736000Y-4700000I-50000J0D01*
G01*
X26736000Y-6500000D02*
G75*
G03*
X26736000Y-6500000I-50000J0D01*
G01*
X26736000Y-10600000D02*
G75*
G03*
X26736000Y-10600000I-50000J0D01*
G01*
X26736000Y-11400000D02*
G75*
G03*
X26736000Y-11400000I-50000J0D01*
G01*
X26736000Y-15500000D02*
G75*
G03*
X26736000Y-15500000I-50000J0D01*
G01*
X26736000Y-16300000D02*
G75*
G03*
X26736000Y-16300000I-50000J0D01*
G01*
X28830000Y-4700000D02*
G75*
G03*
X28830000Y-4700000I-50000J0D01*
G01*
X28830000Y-6500000D02*
G75*
G03*
X28830000Y-6500000I-50000J0D01*
G01*
X28830000Y-10600000D02*
G75*
G03*
X28830000Y-10600000I-50000J0D01*
G01*
X28830000Y-15500000D02*
G75*
G03*
X28830000Y-15500000I-50000J0D01*
G01*
X28830000Y-16300000D02*
G75*
G03*
X28830000Y-16300000I-50000J0D01*
G01*
X28830104Y-11400000D02*
G75*
G03*
X28830104Y-11400000I-50000J0D01*
G01*
X29084000Y-4700000D02*
G75*
G03*
X29084000Y-4700000I-50000J0D01*
G01*
X29084000Y-6500000D02*
G75*
G03*
X29084000Y-6500000I-50000J0D01*
G01*
X29084000Y-10600000D02*
G75*
G03*
X29084000Y-10600000I-50000J0D01*
G01*
X29084000Y-15500000D02*
G75*
G03*
X29084000Y-15500000I-50000J0D01*
G01*
X29084000Y-16300000D02*
G75*
G03*
X29084000Y-16300000I-50000J0D01*
G01*
X29084104Y-11400000D02*
G75*
G03*
X29084104Y-11400000I-50000J0D01*
G01*
X29086000Y-7660000D02*
G75*
G03*
X29086000Y-7660000I-50000J0D01*
G01*
X29086000Y-7914000D02*
G75*
G03*
X29086000Y-7914000I-50000J0D01*
G01*
X29086000Y-8168000D02*
G75*
G03*
X29086000Y-8168000I-50000J0D01*
G01*
X29086000Y-8422000D02*
G75*
G03*
X29086000Y-8422000I-50000J0D01*
G01*
X29086000Y-8676000D02*
G75*
G03*
X29086000Y-8676000I-50000J0D01*
G01*
X29086000Y-8930000D02*
G75*
G03*
X29086000Y-8930000I-50000J0D01*
G01*
X29086000Y-9184000D02*
G75*
G03*
X29086000Y-9184000I-50000J0D01*
G01*
X29086000Y-9438000D02*
G75*
G03*
X29086000Y-9438000I-50000J0D01*
G01*
X29086000Y-12560000D02*
G75*
G03*
X29086000Y-12560000I-50000J0D01*
G01*
X29086000Y-12814000D02*
G75*
G03*
X29086000Y-12814000I-50000J0D01*
G01*
X29086000Y-13068000D02*
G75*
G03*
X29086000Y-13068000I-50000J0D01*
G01*
X29086000Y-13322000D02*
G75*
G03*
X29086000Y-13322000I-50000J0D01*
G01*
X29086000Y-13576000D02*
G75*
G03*
X29086000Y-13576000I-50000J0D01*
G01*
X29086000Y-13830000D02*
G75*
G03*
X29086000Y-13830000I-50000J0D01*
G01*
X29086000Y-14084000D02*
G75*
G03*
X29086000Y-14084000I-50000J0D01*
G01*
X29086000Y-14338000D02*
G75*
G03*
X29086000Y-14338000I-50000J0D01*
G01*
X29338000Y-4700000D02*
G75*
G03*
X29338000Y-4700000I-50000J0D01*
G01*
X29338000Y-6500000D02*
G75*
G03*
X29338000Y-6500000I-50000J0D01*
G01*
X29338000Y-10600000D02*
G75*
G03*
X29338000Y-10600000I-50000J0D01*
G01*
X29338000Y-15500000D02*
G75*
G03*
X29338000Y-15500000I-50000J0D01*
G01*
X29338000Y-16300000D02*
G75*
G03*
X29338000Y-16300000I-50000J0D01*
G01*
X29338104Y-11400000D02*
G75*
G03*
X29338104Y-11400000I-50000J0D01*
G01*
X29340000Y-7660000D02*
G75*
G03*
X29340000Y-7660000I-50000J0D01*
G01*
X29340000Y-7914000D02*
G75*
G03*
X29340000Y-7914000I-50000J0D01*
G01*
X29340000Y-8168000D02*
G75*
G03*
X29340000Y-8168000I-50000J0D01*
G01*
X29340000Y-8422000D02*
G75*
G03*
X29340000Y-8422000I-50000J0D01*
G01*
X29340000Y-8676000D02*
G75*
G03*
X29340000Y-8676000I-50000J0D01*
G01*
X29340000Y-8930000D02*
G75*
G03*
X29340000Y-8930000I-50000J0D01*
G01*
X29340000Y-9184000D02*
G75*
G03*
X29340000Y-9184000I-50000J0D01*
G01*
X29340000Y-9438000D02*
G75*
G03*
X29340000Y-9438000I-50000J0D01*
G01*
X29340000Y-12560000D02*
G75*
G03*
X29340000Y-12560000I-50000J0D01*
G01*
X29340000Y-12814000D02*
G75*
G03*
X29340000Y-12814000I-50000J0D01*
G01*
X29340000Y-13068000D02*
G75*
G03*
X29340000Y-13068000I-50000J0D01*
G01*
X29340000Y-13322000D02*
G75*
G03*
X29340000Y-13322000I-50000J0D01*
G01*
X29340000Y-13576000D02*
G75*
G03*
X29340000Y-13576000I-50000J0D01*
G01*
X29340000Y-13830000D02*
G75*
G03*
X29340000Y-13830000I-50000J0D01*
G01*
X29340000Y-14084000D02*
G75*
G03*
X29340000Y-14084000I-50000J0D01*
G01*
X29340000Y-14338000D02*
G75*
G03*
X29340000Y-14338000I-50000J0D01*
G01*
X29592000Y-4700000D02*
G75*
G03*
X29592000Y-4700000I-50000J0D01*
G01*
X29592000Y-6500000D02*
G75*
G03*
X29592000Y-6500000I-50000J0D01*
G01*
X29592000Y-10600000D02*
G75*
G03*
X29592000Y-10600000I-50000J0D01*
G01*
X29592000Y-15500000D02*
G75*
G03*
X29592000Y-15500000I-50000J0D01*
G01*
X29592000Y-16300000D02*
G75*
G03*
X29592000Y-16300000I-50000J0D01*
G01*
X29592104Y-11400000D02*
G75*
G03*
X29592104Y-11400000I-50000J0D01*
G01*
X29846000Y-4700000D02*
G75*
G03*
X29846000Y-4700000I-50000J0D01*
G01*
X29846000Y-6500000D02*
G75*
G03*
X29846000Y-6500000I-50000J0D01*
G01*
X29846000Y-10600000D02*
G75*
G03*
X29846000Y-10600000I-50000J0D01*
G01*
X29846000Y-15500000D02*
G75*
G03*
X29846000Y-15500000I-50000J0D01*
G01*
X29846000Y-16300000D02*
G75*
G03*
X29846000Y-16300000I-50000J0D01*
G01*
X29846104Y-11400000D02*
G75*
G03*
X29846104Y-11400000I-50000J0D01*
G01*
X30100000Y-4700000D02*
G75*
G03*
X30100000Y-4700000I-50000J0D01*
G01*
X30100000Y-6500000D02*
G75*
G03*
X30100000Y-6500000I-50000J0D01*
G01*
X30100000Y-10600000D02*
G75*
G03*
X30100000Y-10600000I-50000J0D01*
G01*
X30100000Y-15500000D02*
G75*
G03*
X30100000Y-15500000I-50000J0D01*
G01*
X30100000Y-16300000D02*
G75*
G03*
X30100000Y-16300000I-50000J0D01*
G01*
X30100104Y-11400000D02*
G75*
G03*
X30100104Y-11400000I-50000J0D01*
G01*
X30354000Y-4700000D02*
G75*
G03*
X30354000Y-4700000I-50000J0D01*
G01*
X30354000Y-6500000D02*
G75*
G03*
X30354000Y-6500000I-50000J0D01*
G01*
X30354000Y-10600000D02*
G75*
G03*
X30354000Y-10600000I-50000J0D01*
G01*
X30354000Y-15500000D02*
G75*
G03*
X30354000Y-15500000I-50000J0D01*
G01*
X30354000Y-16300000D02*
G75*
G03*
X30354000Y-16300000I-50000J0D01*
G01*
X30354104Y-11400000D02*
G75*
G03*
X30354104Y-11400000I-50000J0D01*
G01*
X30608000Y-4700000D02*
G75*
G03*
X30608000Y-4700000I-50000J0D01*
G01*
X30608000Y-6500000D02*
G75*
G03*
X30608000Y-6500000I-50000J0D01*
G01*
X30608000Y-10600000D02*
G75*
G03*
X30608000Y-10600000I-50000J0D01*
G01*
X30608000Y-15500000D02*
G75*
G03*
X30608000Y-15500000I-50000J0D01*
G01*
X30608000Y-16300000D02*
G75*
G03*
X30608000Y-16300000I-50000J0D01*
G01*
X30608104Y-11400000D02*
G75*
G03*
X30608104Y-11400000I-50000J0D01*
G01*
X30862000Y-4700000D02*
G75*
G03*
X30862000Y-4700000I-50000J0D01*
G01*
X30862000Y-6500000D02*
G75*
G03*
X30862000Y-6500000I-50000J0D01*
G01*
X30862000Y-10600000D02*
G75*
G03*
X30862000Y-10600000I-50000J0D01*
G01*
X30862000Y-15500000D02*
G75*
G03*
X30862000Y-15500000I-50000J0D01*
G01*
X30862000Y-16300000D02*
G75*
G03*
X30862000Y-16300000I-50000J0D01*
G01*
X30862104Y-11400000D02*
G75*
G03*
X30862104Y-11400000I-50000J0D01*
G01*
X31116000Y-4700000D02*
G75*
G03*
X31116000Y-4700000I-50000J0D01*
G01*
X31116000Y-6500000D02*
G75*
G03*
X31116000Y-6500000I-50000J0D01*
G01*
X31116000Y-10600000D02*
G75*
G03*
X31116000Y-10600000I-50000J0D01*
G01*
X31116000Y-15500000D02*
G75*
G03*
X31116000Y-15500000I-50000J0D01*
G01*
X31116000Y-16300000D02*
G75*
G03*
X31116000Y-16300000I-50000J0D01*
G01*
X31116104Y-11400000D02*
G75*
G03*
X31116104Y-11400000I-50000J0D01*
G01*
X31370000Y-4700000D02*
G75*
G03*
X31370000Y-4700000I-50000J0D01*
G01*
X31370000Y-6500000D02*
G75*
G03*
X31370000Y-6500000I-50000J0D01*
G01*
X31370000Y-10600000D02*
G75*
G03*
X31370000Y-10600000I-50000J0D01*
G01*
X31370000Y-15500000D02*
G75*
G03*
X31370000Y-15500000I-50000J0D01*
G01*
X31370000Y-16300000D02*
G75*
G03*
X31370000Y-16300000I-50000J0D01*
G01*
X31370104Y-11400000D02*
G75*
G03*
X31370104Y-11400000I-50000J0D01*
G01*
X31624000Y-4700000D02*
G75*
G03*
X31624000Y-4700000I-50000J0D01*
G01*
X31624000Y-6500000D02*
G75*
G03*
X31624000Y-6500000I-50000J0D01*
G01*
X31624000Y-10600000D02*
G75*
G03*
X31624000Y-10600000I-50000J0D01*
G01*
X31624000Y-15500000D02*
G75*
G03*
X31624000Y-15500000I-50000J0D01*
G01*
X31624000Y-16300000D02*
G75*
G03*
X31624000Y-16300000I-50000J0D01*
G01*
X31624104Y-11400000D02*
G75*
G03*
X31624104Y-11400000I-50000J0D01*
G01*
X31878000Y-4700000D02*
G75*
G03*
X31878000Y-4700000I-50000J0D01*
G01*
X31878000Y-6500000D02*
G75*
G03*
X31878000Y-6500000I-50000J0D01*
G01*
X31878000Y-10600000D02*
G75*
G03*
X31878000Y-10600000I-50000J0D01*
G01*
X31878000Y-15500000D02*
G75*
G03*
X31878000Y-15500000I-50000J0D01*
G01*
X31878000Y-16300000D02*
G75*
G03*
X31878000Y-16300000I-50000J0D01*
G01*
X31878104Y-11400000D02*
G75*
G03*
X31878104Y-11400000I-50000J0D01*
G01*
X32132000Y-4700000D02*
G75*
G03*
X32132000Y-4700000I-50000J0D01*
G01*
X32132000Y-6500000D02*
G75*
G03*
X32132000Y-6500000I-50000J0D01*
G01*
X32132000Y-10600000D02*
G75*
G03*
X32132000Y-10600000I-50000J0D01*
G01*
X32132000Y-15500000D02*
G75*
G03*
X32132000Y-15500000I-50000J0D01*
G01*
X32132000Y-16300000D02*
G75*
G03*
X32132000Y-16300000I-50000J0D01*
G01*
X32132104Y-11400000D02*
G75*
G03*
X32132104Y-11400000I-50000J0D01*
G01*
X32386000Y-4700000D02*
G75*
G03*
X32386000Y-4700000I-50000J0D01*
G01*
X32386000Y-6500000D02*
G75*
G03*
X32386000Y-6500000I-50000J0D01*
G01*
X32386000Y-10600000D02*
G75*
G03*
X32386000Y-10600000I-50000J0D01*
G01*
X32386000Y-15500000D02*
G75*
G03*
X32386000Y-15500000I-50000J0D01*
G01*
X32386000Y-16300000D02*
G75*
G03*
X32386000Y-16300000I-50000J0D01*
G01*
X32386104Y-11400000D02*
G75*
G03*
X32386104Y-11400000I-50000J0D01*
G01*
X32640000Y-4700000D02*
G75*
G03*
X32640000Y-4700000I-50000J0D01*
G01*
X32640000Y-6500000D02*
G75*
G03*
X32640000Y-6500000I-50000J0D01*
G01*
X32640000Y-10600000D02*
G75*
G03*
X32640000Y-10600000I-50000J0D01*
G01*
X32640000Y-15500000D02*
G75*
G03*
X32640000Y-15500000I-50000J0D01*
G01*
X32640000Y-16300000D02*
G75*
G03*
X32640000Y-16300000I-50000J0D01*
G01*
X32640104Y-11400000D02*
G75*
G03*
X32640104Y-11400000I-50000J0D01*
G01*
X32894000Y-4700000D02*
G75*
G03*
X32894000Y-4700000I-50000J0D01*
G01*
X32894000Y-6500000D02*
G75*
G03*
X32894000Y-6500000I-50000J0D01*
G01*
X32894000Y-10600000D02*
G75*
G03*
X32894000Y-10600000I-50000J0D01*
G01*
X32894000Y-15500000D02*
G75*
G03*
X32894000Y-15500000I-50000J0D01*
G01*
X32894000Y-16300000D02*
G75*
G03*
X32894000Y-16300000I-50000J0D01*
G01*
X32894104Y-11400000D02*
G75*
G03*
X32894104Y-11400000I-50000J0D01*
G01*
X33148000Y-4700000D02*
G75*
G03*
X33148000Y-4700000I-50000J0D01*
G01*
X33148000Y-6500000D02*
G75*
G03*
X33148000Y-6500000I-50000J0D01*
G01*
X33148000Y-10600000D02*
G75*
G03*
X33148000Y-10600000I-50000J0D01*
G01*
X33148000Y-15500000D02*
G75*
G03*
X33148000Y-15500000I-50000J0D01*
G01*
X33148000Y-16300000D02*
G75*
G03*
X33148000Y-16300000I-50000J0D01*
G01*
X33148104Y-11400000D02*
G75*
G03*
X33148104Y-11400000I-50000J0D01*
G01*
X33402000Y-4700000D02*
G75*
G03*
X33402000Y-4700000I-50000J0D01*
G01*
X33402000Y-6500000D02*
G75*
G03*
X33402000Y-6500000I-50000J0D01*
G01*
X33402000Y-10600000D02*
G75*
G03*
X33402000Y-10600000I-50000J0D01*
G01*
X33402000Y-15500000D02*
G75*
G03*
X33402000Y-15500000I-50000J0D01*
G01*
X33402000Y-16300000D02*
G75*
G03*
X33402000Y-16300000I-50000J0D01*
G01*
X33402104Y-11400000D02*
G75*
G03*
X33402104Y-11400000I-50000J0D01*
G01*
X33656000Y-4700000D02*
G75*
G03*
X33656000Y-4700000I-50000J0D01*
G01*
X33656000Y-6500000D02*
G75*
G03*
X33656000Y-6500000I-50000J0D01*
G01*
X33656000Y-10600000D02*
G75*
G03*
X33656000Y-10600000I-50000J0D01*
G01*
X33656000Y-15500000D02*
G75*
G03*
X33656000Y-15500000I-50000J0D01*
G01*
X33656000Y-16300000D02*
G75*
G03*
X33656000Y-16300000I-50000J0D01*
G01*
X33656104Y-11400000D02*
G75*
G03*
X33656104Y-11400000I-50000J0D01*
G01*
X33910000Y-4700000D02*
G75*
G03*
X33910000Y-4700000I-50000J0D01*
G01*
X33910000Y-6500000D02*
G75*
G03*
X33910000Y-6500000I-50000J0D01*
G01*
X33910000Y-10600000D02*
G75*
G03*
X33910000Y-10600000I-50000J0D01*
G01*
X33910000Y-15500000D02*
G75*
G03*
X33910000Y-15500000I-50000J0D01*
G01*
X33910000Y-16300000D02*
G75*
G03*
X33910000Y-16300000I-50000J0D01*
G01*
X33910104Y-11400000D02*
G75*
G03*
X33910104Y-11400000I-50000J0D01*
G01*
X34164000Y-4700000D02*
G75*
G03*
X34164000Y-4700000I-50000J0D01*
G01*
X34164000Y-6500000D02*
G75*
G03*
X34164000Y-6500000I-50000J0D01*
G01*
X34164000Y-10600000D02*
G75*
G03*
X34164000Y-10600000I-50000J0D01*
G01*
X34164000Y-15500000D02*
G75*
G03*
X34164000Y-15500000I-50000J0D01*
G01*
X34164000Y-16300000D02*
G75*
G03*
X34164000Y-16300000I-50000J0D01*
G01*
X34164104Y-11400000D02*
G75*
G03*
X34164104Y-11400000I-50000J0D01*
G01*
X34418000Y-4700000D02*
G75*
G03*
X34418000Y-4700000I-50000J0D01*
G01*
X34418000Y-6500000D02*
G75*
G03*
X34418000Y-6500000I-50000J0D01*
G01*
X34418000Y-10600000D02*
G75*
G03*
X34418000Y-10600000I-50000J0D01*
G01*
X34418000Y-15500000D02*
G75*
G03*
X34418000Y-15500000I-50000J0D01*
G01*
X34418000Y-16300000D02*
G75*
G03*
X34418000Y-16300000I-50000J0D01*
G01*
X34418104Y-11400000D02*
G75*
G03*
X34418104Y-11400000I-50000J0D01*
G01*
X34672000Y-4700000D02*
G75*
G03*
X34672000Y-4700000I-50000J0D01*
G01*
X34672000Y-6500000D02*
G75*
G03*
X34672000Y-6500000I-50000J0D01*
G01*
X34672000Y-10600000D02*
G75*
G03*
X34672000Y-10600000I-50000J0D01*
G01*
X34672000Y-15500000D02*
G75*
G03*
X34672000Y-15500000I-50000J0D01*
G01*
X34672000Y-16300000D02*
G75*
G03*
X34672000Y-16300000I-50000J0D01*
G01*
X34672104Y-11400000D02*
G75*
G03*
X34672104Y-11400000I-50000J0D01*
G01*
X34926000Y-4700000D02*
G75*
G03*
X34926000Y-4700000I-50000J0D01*
G01*
X34926000Y-6500000D02*
G75*
G03*
X34926000Y-6500000I-50000J0D01*
G01*
X34926000Y-10600000D02*
G75*
G03*
X34926000Y-10600000I-50000J0D01*
G01*
X34926000Y-15500000D02*
G75*
G03*
X34926000Y-15500000I-50000J0D01*
G01*
X34926000Y-16300000D02*
G75*
G03*
X34926000Y-16300000I-50000J0D01*
G01*
X34926104Y-11400000D02*
G75*
G03*
X34926104Y-11400000I-50000J0D01*
G01*
X35180000Y-4700000D02*
G75*
G03*
X35180000Y-4700000I-50000J0D01*
G01*
X35180000Y-6500000D02*
G75*
G03*
X35180000Y-6500000I-50000J0D01*
G01*
X35180000Y-10600000D02*
G75*
G03*
X35180000Y-10600000I-50000J0D01*
G01*
X35180000Y-15500000D02*
G75*
G03*
X35180000Y-15500000I-50000J0D01*
G01*
X35180000Y-16300000D02*
G75*
G03*
X35180000Y-16300000I-50000J0D01*
G01*
X35180104Y-11400000D02*
G75*
G03*
X35180104Y-11400000I-50000J0D01*
G01*
X35434000Y-4700000D02*
G75*
G03*
X35434000Y-4700000I-50000J0D01*
G01*
X35434000Y-6500000D02*
G75*
G03*
X35434000Y-6500000I-50000J0D01*
G01*
X35434000Y-10600000D02*
G75*
G03*
X35434000Y-10600000I-50000J0D01*
G01*
X35434000Y-15500000D02*
G75*
G03*
X35434000Y-15500000I-50000J0D01*
G01*
X35434000Y-16300000D02*
G75*
G03*
X35434000Y-16300000I-50000J0D01*
G01*
X35434104Y-11400000D02*
G75*
G03*
X35434104Y-11400000I-50000J0D01*
G01*
X35688000Y-4700000D02*
G75*
G03*
X35688000Y-4700000I-50000J0D01*
G01*
X35688000Y-6500000D02*
G75*
G03*
X35688000Y-6500000I-50000J0D01*
G01*
X35688000Y-10600000D02*
G75*
G03*
X35688000Y-10600000I-50000J0D01*
G01*
X35688000Y-15500000D02*
G75*
G03*
X35688000Y-15500000I-50000J0D01*
G01*
X35688000Y-16300000D02*
G75*
G03*
X35688000Y-16300000I-50000J0D01*
G01*
X35688104Y-11400000D02*
G75*
G03*
X35688104Y-11400000I-50000J0D01*
G01*
X35942000Y-4700000D02*
G75*
G03*
X35942000Y-4700000I-50000J0D01*
G01*
X35942000Y-6500000D02*
G75*
G03*
X35942000Y-6500000I-50000J0D01*
G01*
X35942000Y-10600000D02*
G75*
G03*
X35942000Y-10600000I-50000J0D01*
G01*
X35942000Y-15500000D02*
G75*
G03*
X35942000Y-15500000I-50000J0D01*
G01*
X35942000Y-16300000D02*
G75*
G03*
X35942000Y-16300000I-50000J0D01*
G01*
X35942104Y-11400000D02*
G75*
G03*
X35942104Y-11400000I-50000J0D01*
G01*
X36196000Y-4700000D02*
G75*
G03*
X36196000Y-4700000I-50000J0D01*
G01*
X36196000Y-6500000D02*
G75*
G03*
X36196000Y-6500000I-50000J0D01*
G01*
X36196000Y-10600000D02*
G75*
G03*
X36196000Y-10600000I-50000J0D01*
G01*
X36196000Y-15500000D02*
G75*
G03*
X36196000Y-15500000I-50000J0D01*
G01*
X36196000Y-16300000D02*
G75*
G03*
X36196000Y-16300000I-50000J0D01*
G01*
X36196104Y-11400000D02*
G75*
G03*
X36196104Y-11400000I-50000J0D01*
G01*
X36450000Y-4700000D02*
G75*
G03*
X36450000Y-4700000I-50000J0D01*
G01*
X36450000Y-6500000D02*
G75*
G03*
X36450000Y-6500000I-50000J0D01*
G01*
X36450000Y-10600000D02*
G75*
G03*
X36450000Y-10600000I-50000J0D01*
G01*
X36450000Y-15500000D02*
G75*
G03*
X36450000Y-15500000I-50000J0D01*
G01*
X36450000Y-16300000D02*
G75*
G03*
X36450000Y-16300000I-50000J0D01*
G01*
X36450104Y-11400000D02*
G75*
G03*
X36450104Y-11400000I-50000J0D01*
G01*
X36704000Y-4700000D02*
G75*
G03*
X36704000Y-4700000I-50000J0D01*
G01*
X36704000Y-6500000D02*
G75*
G03*
X36704000Y-6500000I-50000J0D01*
G01*
X36704000Y-10600000D02*
G75*
G03*
X36704000Y-10600000I-50000J0D01*
G01*
X36704000Y-15500000D02*
G75*
G03*
X36704000Y-15500000I-50000J0D01*
G01*
X36704000Y-16300000D02*
G75*
G03*
X36704000Y-16300000I-50000J0D01*
G01*
X36704104Y-11400000D02*
G75*
G03*
X36704104Y-11400000I-50000J0D01*
G01*
X36958000Y-4700000D02*
G75*
G03*
X36958000Y-4700000I-50000J0D01*
G01*
X36958000Y-6500000D02*
G75*
G03*
X36958000Y-6500000I-50000J0D01*
G01*
X36958000Y-10600000D02*
G75*
G03*
X36958000Y-10600000I-50000J0D01*
G01*
X36958000Y-15500000D02*
G75*
G03*
X36958000Y-15500000I-50000J0D01*
G01*
X36958000Y-16300000D02*
G75*
G03*
X36958000Y-16300000I-50000J0D01*
G01*
X36958104Y-11400000D02*
G75*
G03*
X36958104Y-11400000I-50000J0D01*
G01*
X37212000Y-4700000D02*
G75*
G03*
X37212000Y-4700000I-50000J0D01*
G01*
X37212000Y-6500000D02*
G75*
G03*
X37212000Y-6500000I-50000J0D01*
G01*
X37212000Y-10600000D02*
G75*
G03*
X37212000Y-10600000I-50000J0D01*
G01*
X37212000Y-15500000D02*
G75*
G03*
X37212000Y-15500000I-50000J0D01*
G01*
X37212000Y-16300000D02*
G75*
G03*
X37212000Y-16300000I-50000J0D01*
G01*
X37212104Y-11400000D02*
G75*
G03*
X37212104Y-11400000I-50000J0D01*
G01*
X37466000Y-4700000D02*
G75*
G03*
X37466000Y-4700000I-50000J0D01*
G01*
X37466000Y-6500000D02*
G75*
G03*
X37466000Y-6500000I-50000J0D01*
G01*
X37466000Y-10600000D02*
G75*
G03*
X37466000Y-10600000I-50000J0D01*
G01*
X37466000Y-15500000D02*
G75*
G03*
X37466000Y-15500000I-50000J0D01*
G01*
X37466000Y-16300000D02*
G75*
G03*
X37466000Y-16300000I-50000J0D01*
G01*
X37466104Y-11400000D02*
G75*
G03*
X37466104Y-11400000I-50000J0D01*
G01*
X37720000Y-4700000D02*
G75*
G03*
X37720000Y-4700000I-50000J0D01*
G01*
X37720000Y-6500000D02*
G75*
G03*
X37720000Y-6500000I-50000J0D01*
G01*
X37720000Y-10600000D02*
G75*
G03*
X37720000Y-10600000I-50000J0D01*
G01*
X37720000Y-15500000D02*
G75*
G03*
X37720000Y-15500000I-50000J0D01*
G01*
X37720000Y-16300000D02*
G75*
G03*
X37720000Y-16300000I-50000J0D01*
G01*
X37720104Y-11400000D02*
G75*
G03*
X37720104Y-11400000I-50000J0D01*
G01*
X37974000Y-4700000D02*
G75*
G03*
X37974000Y-4700000I-50000J0D01*
G01*
X37974000Y-6500000D02*
G75*
G03*
X37974000Y-6500000I-50000J0D01*
G01*
X37974000Y-10600000D02*
G75*
G03*
X37974000Y-10600000I-50000J0D01*
G01*
X37974000Y-15500000D02*
G75*
G03*
X37974000Y-15500000I-50000J0D01*
G01*
X37974000Y-16300000D02*
G75*
G03*
X37974000Y-16300000I-50000J0D01*
G01*
X37974104Y-11400000D02*
G75*
G03*
X37974104Y-11400000I-50000J0D01*
G01*
X38228000Y-4700000D02*
G75*
G03*
X38228000Y-4700000I-50000J0D01*
G01*
X38228000Y-6500000D02*
G75*
G03*
X38228000Y-6500000I-50000J0D01*
G01*
X38228000Y-10600000D02*
G75*
G03*
X38228000Y-10600000I-50000J0D01*
G01*
X38228000Y-15500000D02*
G75*
G03*
X38228000Y-15500000I-50000J0D01*
G01*
X38228000Y-16300000D02*
G75*
G03*
X38228000Y-16300000I-50000J0D01*
G01*
X38228104Y-11400000D02*
G75*
G03*
X38228104Y-11400000I-50000J0D01*
G01*
X38482000Y-4700000D02*
G75*
G03*
X38482000Y-4700000I-50000J0D01*
G01*
X38482000Y-6500000D02*
G75*
G03*
X38482000Y-6500000I-50000J0D01*
G01*
X38482000Y-10600000D02*
G75*
G03*
X38482000Y-10600000I-50000J0D01*
G01*
X38482000Y-15500000D02*
G75*
G03*
X38482000Y-15500000I-50000J0D01*
G01*
X38482000Y-16300000D02*
G75*
G03*
X38482000Y-16300000I-50000J0D01*
G01*
X38482104Y-11400000D02*
G75*
G03*
X38482104Y-11400000I-50000J0D01*
G01*
X38736000Y-4700000D02*
G75*
G03*
X38736000Y-4700000I-50000J0D01*
G01*
X38736000Y-6500000D02*
G75*
G03*
X38736000Y-6500000I-50000J0D01*
G01*
X38736000Y-10600000D02*
G75*
G03*
X38736000Y-10600000I-50000J0D01*
G01*
X38736000Y-15500000D02*
G75*
G03*
X38736000Y-15500000I-50000J0D01*
G01*
X38736000Y-16300000D02*
G75*
G03*
X38736000Y-16300000I-50000J0D01*
G01*
X38736104Y-11400000D02*
G75*
G03*
X38736104Y-11400000I-50000J0D01*
G01*
X4300000Y-12990000D02*
X4300000Y-13120000D01*
X4235000Y-13055000D02*
X4365000Y-13055000D01*
X4300000Y-13490000D02*
X4300000Y-13620000D01*
X4235000Y-13555000D02*
X4365000Y-13555000D01*
X4310000Y-8346000D02*
X4310000Y-8476000D01*
X4245000Y-8411000D02*
X4375000Y-8411000D01*
X4310000Y-8846000D02*
X4310000Y-8976000D01*
X4245000Y-8911000D02*
X4375000Y-8911000D01*
X39191000Y-13000000D02*
X39191000Y-13130000D01*
X39126000Y-13065000D02*
X39256000Y-13065000D01*
X39191000Y-13500000D02*
X39191000Y-13630000D01*
X39126000Y-13565000D02*
X39256000Y-13565000D01*
X39195000Y-8347000D02*
X39195000Y-8477000D01*
X39130000Y-8412000D02*
X39260000Y-8412000D01*
X39195000Y-8847000D02*
X39195000Y-8977000D01*
X39130000Y-8912000D02*
X39260000Y-8912000D01*
D12*
X4021428Y-17370714D02*
X4021428Y-17070714D01*
X4092857Y-17070714D01*
X4135714Y-17085000D01*
X4164286Y-17113572D01*
X4178571Y-17142143D01*
X4192857Y-17199286D01*
X4192857Y-17242143D01*
X4178571Y-17299286D01*
X4164286Y-17327857D01*
X4135714Y-17356429D01*
X4092857Y-17370714D01*
X4021428Y-17370714D01*
X4321428Y-17370714D02*
X4321428Y-17170714D01*
X4321428Y-17227857D02*
X4335714Y-17199286D01*
X4350000Y-17185000D01*
X4378571Y-17170714D01*
X4407143Y-17170714D01*
X4507143Y-17370714D02*
X4507143Y-17170714D01*
X4507143Y-17070714D02*
X4492857Y-17085000D01*
X4507143Y-17099286D01*
X4521428Y-17085000D01*
X4507143Y-17070714D01*
X4507143Y-17099286D01*
X4692857Y-17370714D02*
X4664286Y-17356429D01*
X4650000Y-17327857D01*
X4650000Y-17070714D01*
X4850000Y-17370714D02*
X4821428Y-17356429D01*
X4807143Y-17327857D01*
X4807143Y-17070714D01*
X5192857Y-17370714D02*
X5192857Y-17070714D01*
X5292857Y-17285000D01*
X5392857Y-17070714D01*
X5392857Y-17370714D01*
X5664286Y-17370714D02*
X5664286Y-17213572D01*
X5650000Y-17185000D01*
X5621428Y-17170714D01*
X5564286Y-17170714D01*
X5535714Y-17185000D01*
X5664286Y-17356429D02*
X5635714Y-17370714D01*
X5564286Y-17370714D01*
X5535714Y-17356429D01*
X5521428Y-17327857D01*
X5521428Y-17299286D01*
X5535714Y-17270714D01*
X5564286Y-17256429D01*
X5635714Y-17256429D01*
X5664286Y-17242143D01*
X5807143Y-17170714D02*
X5807143Y-17470714D01*
X5807143Y-17185000D02*
X5835714Y-17170714D01*
X5892857Y-17170714D01*
X5921428Y-17185000D01*
X5935714Y-17199286D01*
X5950000Y-17227857D01*
X5950000Y-17313572D01*
X5935714Y-17342143D01*
X5921428Y-17356429D01*
X5892857Y-17370714D01*
X5835714Y-17370714D01*
X5807143Y-17356429D01*
X6078571Y-17342143D02*
X6092857Y-17356429D01*
X6078571Y-17370714D01*
X6064286Y-17356429D01*
X6078571Y-17342143D01*
X6078571Y-17370714D01*
X6078571Y-17185000D02*
X6092857Y-17199286D01*
X6078571Y-17213572D01*
X6064286Y-17199286D01*
X6078571Y-17185000D01*
X6078571Y-17213572D01*
X3675000Y-17835000D02*
X3735000Y-17895000D01*
X3735000Y-17835000D02*
X3675000Y-17895000D01*
X4078571Y-17700714D02*
X4107143Y-17700714D01*
X4135714Y-17715000D01*
X4150000Y-17729286D01*
X4164286Y-17757857D01*
X4178571Y-17815000D01*
X4178571Y-17886429D01*
X4164286Y-17943572D01*
X4150000Y-17972143D01*
X4135714Y-17986429D01*
X4107143Y-18000714D01*
X4078571Y-18000714D01*
X4050000Y-17986429D01*
X4035714Y-17972143D01*
X4021428Y-17943572D01*
X4007143Y-17886429D01*
X4007143Y-17815000D01*
X4021428Y-17757857D01*
X4035714Y-17729286D01*
X4050000Y-17715000D01*
X4078571Y-17700714D01*
X4307143Y-17972143D02*
X4321428Y-17986429D01*
X4307143Y-18000714D01*
X4292857Y-17986429D01*
X4307143Y-17972143D01*
X4307143Y-18000714D01*
X4578571Y-17700714D02*
X4521428Y-17700714D01*
X4492857Y-17715000D01*
X4478571Y-17729286D01*
X4450000Y-17772143D01*
X4435714Y-17829286D01*
X4435714Y-17943572D01*
X4450000Y-17972143D01*
X4464286Y-17986429D01*
X4492857Y-18000714D01*
X4550000Y-18000714D01*
X4578571Y-17986429D01*
X4592857Y-17972143D01*
X4607143Y-17943572D01*
X4607143Y-17872143D01*
X4592857Y-17843572D01*
X4578571Y-17829286D01*
X4550000Y-17815000D01*
X4492857Y-17815000D01*
X4464286Y-17829286D01*
X4450000Y-17843572D01*
X4435714Y-17872143D01*
X4792857Y-17700714D02*
X4821428Y-17700714D01*
X4850000Y-17715000D01*
X4864286Y-17729286D01*
X4878571Y-17757857D01*
X4892857Y-17815000D01*
X4892857Y-17886429D01*
X4878571Y-17943572D01*
X4864286Y-17972143D01*
X4850000Y-17986429D01*
X4821428Y-18000714D01*
X4792857Y-18000714D01*
X4764286Y-17986429D01*
X4750000Y-17972143D01*
X4735714Y-17943572D01*
X4721428Y-17886429D01*
X4721428Y-17815000D01*
X4735714Y-17757857D01*
X4750000Y-17729286D01*
X4764286Y-17715000D01*
X4792857Y-17700714D01*
X5021428Y-18000714D02*
X5021428Y-17800714D01*
X5021428Y-17829286D02*
X5035714Y-17815000D01*
X5064286Y-17800714D01*
X5107143Y-17800714D01*
X5135714Y-17815000D01*
X5150000Y-17843572D01*
X5150000Y-18000714D01*
X5150000Y-17843572D02*
X5164286Y-17815000D01*
X5192857Y-17800714D01*
X5235714Y-17800714D01*
X5264286Y-17815000D01*
X5278571Y-17843572D01*
X5278571Y-18000714D01*
X5421428Y-18000714D02*
X5421428Y-17800714D01*
X5421428Y-17829286D02*
X5435714Y-17815000D01*
X5464286Y-17800714D01*
X5507143Y-17800714D01*
X5535714Y-17815000D01*
X5550000Y-17843572D01*
X5550000Y-18000714D01*
X5550000Y-17843572D02*
X5564286Y-17815000D01*
X5592857Y-17800714D01*
X5635714Y-17800714D01*
X5664286Y-17815000D01*
X5678571Y-17843572D01*
X5678571Y-18000714D01*
X6264286Y-17686429D02*
X6007143Y-18072143D01*
X6650000Y-17700714D02*
X6678571Y-17700714D01*
X6707143Y-17715000D01*
X6721428Y-17729286D01*
X6735714Y-17757857D01*
X6750000Y-17815000D01*
X6750000Y-17886429D01*
X6735714Y-17943572D01*
X6721428Y-17972143D01*
X6707143Y-17986429D01*
X6678571Y-18000714D01*
X6650000Y-18000714D01*
X6621428Y-17986429D01*
X6607143Y-17972143D01*
X6592857Y-17943572D01*
X6578571Y-17886429D01*
X6578571Y-17815000D01*
X6592857Y-17757857D01*
X6607143Y-17729286D01*
X6621428Y-17715000D01*
X6650000Y-17700714D01*
X6878571Y-17972143D02*
X6892857Y-17986429D01*
X6878571Y-18000714D01*
X6864286Y-17986429D01*
X6878571Y-17972143D01*
X6878571Y-18000714D01*
X7078571Y-17700714D02*
X7107143Y-17700714D01*
X7135714Y-17715000D01*
X7150000Y-17729286D01*
X7164286Y-17757857D01*
X7178571Y-17815000D01*
X7178571Y-17886429D01*
X7164286Y-17943572D01*
X7150000Y-17972143D01*
X7135714Y-17986429D01*
X7107143Y-18000714D01*
X7078571Y-18000714D01*
X7050000Y-17986429D01*
X7035714Y-17972143D01*
X7021428Y-17943572D01*
X7007143Y-17886429D01*
X7007143Y-17815000D01*
X7021428Y-17757857D01*
X7035714Y-17729286D01*
X7050000Y-17715000D01*
X7078571Y-17700714D01*
X7292857Y-17729286D02*
X7307143Y-17715000D01*
X7335714Y-17700714D01*
X7407143Y-17700714D01*
X7435714Y-17715000D01*
X7450000Y-17729286D01*
X7464286Y-17757857D01*
X7464286Y-17786429D01*
X7450000Y-17829286D01*
X7278571Y-18000714D01*
X7464286Y-18000714D01*
X7721428Y-17800714D02*
X7721428Y-18000714D01*
X7650000Y-17686429D02*
X7578571Y-17900714D01*
X7764286Y-17900714D01*
X7864286Y-17700714D02*
X7864286Y-17757857D01*
X7978571Y-17700714D02*
X7978571Y-17757857D01*
X8421428Y-18115000D02*
X8407143Y-18100714D01*
X8378571Y-18057857D01*
X8364286Y-18029286D01*
X8350000Y-17986429D01*
X8335714Y-17915000D01*
X8335714Y-17857857D01*
X8350000Y-17786429D01*
X8364286Y-17743572D01*
X8378571Y-17715000D01*
X8407143Y-17672143D01*
X8421428Y-17657857D01*
X8521428Y-17729286D02*
X8535714Y-17715000D01*
X8564286Y-17700714D01*
X8635714Y-17700714D01*
X8664286Y-17715000D01*
X8678571Y-17729286D01*
X8692857Y-17757857D01*
X8692857Y-17786429D01*
X8678571Y-17829286D01*
X8507143Y-18000714D01*
X8692857Y-18000714D01*
X8950000Y-17800714D02*
X8950000Y-18000714D01*
X8878571Y-17686429D02*
X8807143Y-17900714D01*
X8992857Y-17900714D01*
X9335714Y-18000714D02*
X9335714Y-17700714D01*
X9464286Y-18000714D02*
X9464286Y-17843572D01*
X9450000Y-17815000D01*
X9421428Y-17800714D01*
X9378571Y-17800714D01*
X9350000Y-17815000D01*
X9335714Y-17829286D01*
X9650000Y-18000714D02*
X9621428Y-17986429D01*
X9607143Y-17972143D01*
X9592857Y-17943572D01*
X9592857Y-17857857D01*
X9607143Y-17829286D01*
X9621428Y-17815000D01*
X9650000Y-17800714D01*
X9692857Y-17800714D01*
X9721428Y-17815000D01*
X9735714Y-17829286D01*
X9750000Y-17857857D01*
X9750000Y-17943572D01*
X9735714Y-17972143D01*
X9721428Y-17986429D01*
X9692857Y-18000714D01*
X9650000Y-18000714D01*
X9921428Y-18000714D02*
X9892857Y-17986429D01*
X9878571Y-17957857D01*
X9878571Y-17700714D01*
X10150000Y-17986429D02*
X10121428Y-18000714D01*
X10064286Y-18000714D01*
X10035714Y-17986429D01*
X10021428Y-17957857D01*
X10021428Y-17843572D01*
X10035714Y-17815000D01*
X10064286Y-17800714D01*
X10121428Y-17800714D01*
X10150000Y-17815000D01*
X10164286Y-17843572D01*
X10164286Y-17872143D01*
X10021428Y-17900714D01*
X10278571Y-17986429D02*
X10307143Y-18000714D01*
X10364286Y-18000714D01*
X10392857Y-17986429D01*
X10407143Y-17957857D01*
X10407143Y-17943572D01*
X10392857Y-17915000D01*
X10364286Y-17900714D01*
X10321428Y-17900714D01*
X10292857Y-17886429D01*
X10278571Y-17857857D01*
X10278571Y-17843572D01*
X10292857Y-17815000D01*
X10321428Y-17800714D01*
X10364286Y-17800714D01*
X10392857Y-17815000D01*
X10507143Y-18115000D02*
X10521428Y-18100714D01*
X10550000Y-18057857D01*
X10564286Y-18029286D01*
X10578571Y-17986429D01*
X10592857Y-17915000D01*
X10592857Y-17857857D01*
X10578571Y-17786429D01*
X10564286Y-17743572D01*
X10550000Y-17715000D01*
X10521428Y-17672143D01*
X10507143Y-17657857D01*
X3735000Y-18261000D02*
G75*
G03*
X3735000Y-18261000I-50000J0D01*
G01*
X4178571Y-18396714D02*
X4007143Y-18396714D01*
X4092857Y-18396714D02*
X4092857Y-18096714D01*
X4064286Y-18139572D01*
X4035714Y-18168143D01*
X4007143Y-18182429D01*
X4307143Y-18368143D02*
X4321428Y-18382429D01*
X4307143Y-18396714D01*
X4292857Y-18382429D01*
X4307143Y-18368143D01*
X4307143Y-18396714D01*
X4507143Y-18096714D02*
X4535714Y-18096714D01*
X4564286Y-18111000D01*
X4578571Y-18125286D01*
X4592857Y-18153857D01*
X4607143Y-18211000D01*
X4607143Y-18282429D01*
X4592857Y-18339572D01*
X4578571Y-18368143D01*
X4564286Y-18382429D01*
X4535714Y-18396714D01*
X4507143Y-18396714D01*
X4478571Y-18382429D01*
X4464286Y-18368143D01*
X4450000Y-18339572D01*
X4435714Y-18282429D01*
X4435714Y-18211000D01*
X4450000Y-18153857D01*
X4464286Y-18125286D01*
X4478571Y-18111000D01*
X4507143Y-18096714D01*
X4792857Y-18096714D02*
X4821428Y-18096714D01*
X4850000Y-18111000D01*
X4864286Y-18125286D01*
X4878571Y-18153857D01*
X4892857Y-18211000D01*
X4892857Y-18282429D01*
X4878571Y-18339572D01*
X4864286Y-18368143D01*
X4850000Y-18382429D01*
X4821428Y-18396714D01*
X4792857Y-18396714D01*
X4764286Y-18382429D01*
X4750000Y-18368143D01*
X4735714Y-18339572D01*
X4721428Y-18282429D01*
X4721428Y-18211000D01*
X4735714Y-18153857D01*
X4750000Y-18125286D01*
X4764286Y-18111000D01*
X4792857Y-18096714D01*
X5021428Y-18396714D02*
X5021428Y-18196714D01*
X5021428Y-18225286D02*
X5035714Y-18211000D01*
X5064286Y-18196714D01*
X5107143Y-18196714D01*
X5135714Y-18211000D01*
X5150000Y-18239572D01*
X5150000Y-18396714D01*
X5150000Y-18239572D02*
X5164286Y-18211000D01*
X5192857Y-18196714D01*
X5235714Y-18196714D01*
X5264286Y-18211000D01*
X5278571Y-18239572D01*
X5278571Y-18396714D01*
X5421428Y-18396714D02*
X5421428Y-18196714D01*
X5421428Y-18225286D02*
X5435714Y-18211000D01*
X5464286Y-18196714D01*
X5507143Y-18196714D01*
X5535714Y-18211000D01*
X5550000Y-18239572D01*
X5550000Y-18396714D01*
X5550000Y-18239572D02*
X5564286Y-18211000D01*
X5592857Y-18196714D01*
X5635714Y-18196714D01*
X5664286Y-18211000D01*
X5678571Y-18239572D01*
X5678571Y-18396714D01*
X6264286Y-18082429D02*
X6007143Y-18468143D01*
X6650000Y-18096714D02*
X6678571Y-18096714D01*
X6707143Y-18111000D01*
X6721428Y-18125286D01*
X6735714Y-18153857D01*
X6750000Y-18211000D01*
X6750000Y-18282429D01*
X6735714Y-18339572D01*
X6721428Y-18368143D01*
X6707143Y-18382429D01*
X6678571Y-18396714D01*
X6650000Y-18396714D01*
X6621428Y-18382429D01*
X6607143Y-18368143D01*
X6592857Y-18339572D01*
X6578571Y-18282429D01*
X6578571Y-18211000D01*
X6592857Y-18153857D01*
X6607143Y-18125286D01*
X6621428Y-18111000D01*
X6650000Y-18096714D01*
X6878571Y-18368143D02*
X6892857Y-18382429D01*
X6878571Y-18396714D01*
X6864286Y-18382429D01*
X6878571Y-18368143D01*
X6878571Y-18396714D01*
X7078571Y-18096714D02*
X7107143Y-18096714D01*
X7135714Y-18111000D01*
X7150000Y-18125286D01*
X7164286Y-18153857D01*
X7178571Y-18211000D01*
X7178571Y-18282429D01*
X7164286Y-18339572D01*
X7150000Y-18368143D01*
X7135714Y-18382429D01*
X7107143Y-18396714D01*
X7078571Y-18396714D01*
X7050000Y-18382429D01*
X7035714Y-18368143D01*
X7021428Y-18339572D01*
X7007143Y-18282429D01*
X7007143Y-18211000D01*
X7021428Y-18153857D01*
X7035714Y-18125286D01*
X7050000Y-18111000D01*
X7078571Y-18096714D01*
X7278571Y-18096714D02*
X7464286Y-18096714D01*
X7364286Y-18211000D01*
X7407143Y-18211000D01*
X7435714Y-18225286D01*
X7450000Y-18239572D01*
X7464286Y-18268143D01*
X7464286Y-18339572D01*
X7450000Y-18368143D01*
X7435714Y-18382429D01*
X7407143Y-18396714D01*
X7321428Y-18396714D01*
X7292857Y-18382429D01*
X7278571Y-18368143D01*
X7607143Y-18396714D02*
X7664286Y-18396714D01*
X7692857Y-18382429D01*
X7707143Y-18368143D01*
X7735714Y-18325286D01*
X7750000Y-18268143D01*
X7750000Y-18153857D01*
X7735714Y-18125286D01*
X7721428Y-18111000D01*
X7692857Y-18096714D01*
X7635714Y-18096714D01*
X7607143Y-18111000D01*
X7592857Y-18125286D01*
X7578571Y-18153857D01*
X7578571Y-18225286D01*
X7592857Y-18253857D01*
X7607143Y-18268143D01*
X7635714Y-18282429D01*
X7692857Y-18282429D01*
X7721428Y-18268143D01*
X7735714Y-18253857D01*
X7750000Y-18225286D01*
X7864286Y-18096714D02*
X7864286Y-18153857D01*
X7978571Y-18096714D02*
X7978571Y-18153857D01*
X8421428Y-18511000D02*
X8407143Y-18496714D01*
X8378571Y-18453857D01*
X8364286Y-18425286D01*
X8350000Y-18382429D01*
X8335714Y-18311000D01*
X8335714Y-18253857D01*
X8350000Y-18182429D01*
X8364286Y-18139572D01*
X8378571Y-18111000D01*
X8407143Y-18068143D01*
X8421428Y-18053857D01*
X8578571Y-18225286D02*
X8550000Y-18211000D01*
X8535714Y-18196714D01*
X8521428Y-18168143D01*
X8521428Y-18153857D01*
X8535714Y-18125286D01*
X8550000Y-18111000D01*
X8578571Y-18096714D01*
X8635714Y-18096714D01*
X8664286Y-18111000D01*
X8678571Y-18125286D01*
X8692857Y-18153857D01*
X8692857Y-18168143D01*
X8678571Y-18196714D01*
X8664286Y-18211000D01*
X8635714Y-18225286D01*
X8578571Y-18225286D01*
X8550000Y-18239572D01*
X8535714Y-18253857D01*
X8521428Y-18282429D01*
X8521428Y-18339572D01*
X8535714Y-18368143D01*
X8550000Y-18382429D01*
X8578571Y-18396714D01*
X8635714Y-18396714D01*
X8664286Y-18382429D01*
X8678571Y-18368143D01*
X8692857Y-18339572D01*
X8692857Y-18282429D01*
X8678571Y-18253857D01*
X8664286Y-18239572D01*
X8635714Y-18225286D01*
X8950000Y-18196714D02*
X8950000Y-18396714D01*
X8878571Y-18082429D02*
X8807143Y-18296714D01*
X8992857Y-18296714D01*
X9150000Y-18225286D02*
X9121428Y-18211000D01*
X9107143Y-18196714D01*
X9092857Y-18168143D01*
X9092857Y-18153857D01*
X9107143Y-18125286D01*
X9121428Y-18111000D01*
X9150000Y-18096714D01*
X9207143Y-18096714D01*
X9235714Y-18111000D01*
X9250000Y-18125286D01*
X9264286Y-18153857D01*
X9264286Y-18168143D01*
X9250000Y-18196714D01*
X9235714Y-18211000D01*
X9207143Y-18225286D01*
X9150000Y-18225286D01*
X9121428Y-18239572D01*
X9107143Y-18253857D01*
X9092857Y-18282429D01*
X9092857Y-18339572D01*
X9107143Y-18368143D01*
X9121428Y-18382429D01*
X9150000Y-18396714D01*
X9207143Y-18396714D01*
X9235714Y-18382429D01*
X9250000Y-18368143D01*
X9264286Y-18339572D01*
X9264286Y-18282429D01*
X9250000Y-18253857D01*
X9235714Y-18239572D01*
X9207143Y-18225286D01*
X9621428Y-18396714D02*
X9621428Y-18096714D01*
X9750000Y-18396714D02*
X9750000Y-18239572D01*
X9735714Y-18211000D01*
X9707143Y-18196714D01*
X9664286Y-18196714D01*
X9635714Y-18211000D01*
X9621428Y-18225286D01*
X9935714Y-18396714D02*
X9907143Y-18382429D01*
X9892857Y-18368143D01*
X9878571Y-18339572D01*
X9878571Y-18253857D01*
X9892857Y-18225286D01*
X9907143Y-18211000D01*
X9935714Y-18196714D01*
X9978571Y-18196714D01*
X10007143Y-18211000D01*
X10021428Y-18225286D01*
X10035714Y-18253857D01*
X10035714Y-18339572D01*
X10021428Y-18368143D01*
X10007143Y-18382429D01*
X9978571Y-18396714D01*
X9935714Y-18396714D01*
X10207143Y-18396714D02*
X10178571Y-18382429D01*
X10164286Y-18353857D01*
X10164286Y-18096714D01*
X10435714Y-18382429D02*
X10407143Y-18396714D01*
X10350000Y-18396714D01*
X10321428Y-18382429D01*
X10307143Y-18353857D01*
X10307143Y-18239572D01*
X10321428Y-18211000D01*
X10350000Y-18196714D01*
X10407143Y-18196714D01*
X10435714Y-18211000D01*
X10450000Y-18239572D01*
X10450000Y-18268143D01*
X10307143Y-18296714D01*
X10564286Y-18382429D02*
X10592857Y-18396714D01*
X10650000Y-18396714D01*
X10678571Y-18382429D01*
X10692857Y-18353857D01*
X10692857Y-18339572D01*
X10678571Y-18311000D01*
X10650000Y-18296714D01*
X10607143Y-18296714D01*
X10578571Y-18282429D01*
X10564286Y-18253857D01*
X10564286Y-18239572D01*
X10578571Y-18211000D01*
X10607143Y-18196714D01*
X10650000Y-18196714D01*
X10678571Y-18211000D01*
X10792857Y-18511000D02*
X10807143Y-18496714D01*
X10835714Y-18453857D01*
X10850000Y-18425286D01*
X10864286Y-18382429D01*
X10878571Y-18311000D01*
X10878571Y-18253857D01*
X10864286Y-18182429D01*
X10850000Y-18139572D01*
X10835714Y-18111000D01*
X10807143Y-18068143D01*
X10792857Y-18053857D01*
X3670000Y-18592000D02*
X3670000Y-18722000D01*
X3605000Y-18657000D02*
X3735000Y-18657000D01*
X4178571Y-18792714D02*
X4007143Y-18792714D01*
X4092857Y-18792714D02*
X4092857Y-18492714D01*
X4064286Y-18535572D01*
X4035714Y-18564143D01*
X4007143Y-18578429D01*
X4307143Y-18764143D02*
X4321428Y-18778429D01*
X4307143Y-18792714D01*
X4292857Y-18778429D01*
X4307143Y-18764143D01*
X4307143Y-18792714D01*
X4421428Y-18492714D02*
X4607143Y-18492714D01*
X4507143Y-18607000D01*
X4550000Y-18607000D01*
X4578571Y-18621286D01*
X4592857Y-18635572D01*
X4607143Y-18664143D01*
X4607143Y-18735572D01*
X4592857Y-18764143D01*
X4578571Y-18778429D01*
X4550000Y-18792714D01*
X4464286Y-18792714D01*
X4435714Y-18778429D01*
X4421428Y-18764143D01*
X4792857Y-18492714D02*
X4821428Y-18492714D01*
X4850000Y-18507000D01*
X4864286Y-18521286D01*
X4878571Y-18549857D01*
X4892857Y-18607000D01*
X4892857Y-18678429D01*
X4878571Y-18735572D01*
X4864286Y-18764143D01*
X4850000Y-18778429D01*
X4821428Y-18792714D01*
X4792857Y-18792714D01*
X4764286Y-18778429D01*
X4750000Y-18764143D01*
X4735714Y-18735572D01*
X4721428Y-18678429D01*
X4721428Y-18607000D01*
X4735714Y-18549857D01*
X4750000Y-18521286D01*
X4764286Y-18507000D01*
X4792857Y-18492714D01*
X5021428Y-18792714D02*
X5021428Y-18592714D01*
X5021428Y-18621286D02*
X5035714Y-18607000D01*
X5064286Y-18592714D01*
X5107143Y-18592714D01*
X5135714Y-18607000D01*
X5150000Y-18635572D01*
X5150000Y-18792714D01*
X5150000Y-18635572D02*
X5164286Y-18607000D01*
X5192857Y-18592714D01*
X5235714Y-18592714D01*
X5264286Y-18607000D01*
X5278571Y-18635572D01*
X5278571Y-18792714D01*
X5421428Y-18792714D02*
X5421428Y-18592714D01*
X5421428Y-18621286D02*
X5435714Y-18607000D01*
X5464286Y-18592714D01*
X5507143Y-18592714D01*
X5535714Y-18607000D01*
X5550000Y-18635572D01*
X5550000Y-18792714D01*
X5550000Y-18635572D02*
X5564286Y-18607000D01*
X5592857Y-18592714D01*
X5635714Y-18592714D01*
X5664286Y-18607000D01*
X5678571Y-18635572D01*
X5678571Y-18792714D01*
X6264286Y-18478429D02*
X6007143Y-18864143D01*
X6650000Y-18492714D02*
X6678571Y-18492714D01*
X6707143Y-18507000D01*
X6721428Y-18521286D01*
X6735714Y-18549857D01*
X6750000Y-18607000D01*
X6750000Y-18678429D01*
X6735714Y-18735572D01*
X6721428Y-18764143D01*
X6707143Y-18778429D01*
X6678571Y-18792714D01*
X6650000Y-18792714D01*
X6621428Y-18778429D01*
X6607143Y-18764143D01*
X6592857Y-18735572D01*
X6578571Y-18678429D01*
X6578571Y-18607000D01*
X6592857Y-18549857D01*
X6607143Y-18521286D01*
X6621428Y-18507000D01*
X6650000Y-18492714D01*
X6878571Y-18764143D02*
X6892857Y-18778429D01*
X6878571Y-18792714D01*
X6864286Y-18778429D01*
X6878571Y-18764143D01*
X6878571Y-18792714D01*
X7078571Y-18492714D02*
X7107143Y-18492714D01*
X7135714Y-18507000D01*
X7150000Y-18521286D01*
X7164286Y-18549857D01*
X7178571Y-18607000D01*
X7178571Y-18678429D01*
X7164286Y-18735572D01*
X7150000Y-18764143D01*
X7135714Y-18778429D01*
X7107143Y-18792714D01*
X7078571Y-18792714D01*
X7050000Y-18778429D01*
X7035714Y-18764143D01*
X7021428Y-18735572D01*
X7007143Y-18678429D01*
X7007143Y-18607000D01*
X7021428Y-18549857D01*
X7035714Y-18521286D01*
X7050000Y-18507000D01*
X7078571Y-18492714D01*
X7450000Y-18492714D02*
X7307143Y-18492714D01*
X7292857Y-18635572D01*
X7307143Y-18621286D01*
X7335714Y-18607000D01*
X7407143Y-18607000D01*
X7435714Y-18621286D01*
X7450000Y-18635572D01*
X7464286Y-18664143D01*
X7464286Y-18735572D01*
X7450000Y-18764143D01*
X7435714Y-18778429D01*
X7407143Y-18792714D01*
X7335714Y-18792714D01*
X7307143Y-18778429D01*
X7292857Y-18764143D01*
X7750000Y-18792714D02*
X7578571Y-18792714D01*
X7664286Y-18792714D02*
X7664286Y-18492714D01*
X7635714Y-18535572D01*
X7607143Y-18564143D01*
X7578571Y-18578429D01*
X7864286Y-18492714D02*
X7864286Y-18549857D01*
X7978571Y-18492714D02*
X7978571Y-18549857D01*
X8421428Y-18907000D02*
X8407143Y-18892714D01*
X8378571Y-18849857D01*
X8364286Y-18821286D01*
X8350000Y-18778429D01*
X8335714Y-18707000D01*
X8335714Y-18649857D01*
X8350000Y-18578429D01*
X8364286Y-18535572D01*
X8378571Y-18507000D01*
X8407143Y-18464143D01*
X8421428Y-18449857D01*
X8578571Y-18621286D02*
X8550000Y-18607000D01*
X8535714Y-18592714D01*
X8521428Y-18564143D01*
X8521428Y-18549857D01*
X8535714Y-18521286D01*
X8550000Y-18507000D01*
X8578571Y-18492714D01*
X8635714Y-18492714D01*
X8664286Y-18507000D01*
X8678571Y-18521286D01*
X8692857Y-18549857D01*
X8692857Y-18564143D01*
X8678571Y-18592714D01*
X8664286Y-18607000D01*
X8635714Y-18621286D01*
X8578571Y-18621286D01*
X8550000Y-18635572D01*
X8535714Y-18649857D01*
X8521428Y-18678429D01*
X8521428Y-18735572D01*
X8535714Y-18764143D01*
X8550000Y-18778429D01*
X8578571Y-18792714D01*
X8635714Y-18792714D01*
X8664286Y-18778429D01*
X8678571Y-18764143D01*
X8692857Y-18735572D01*
X8692857Y-18678429D01*
X8678571Y-18649857D01*
X8664286Y-18635572D01*
X8635714Y-18621286D01*
X9050000Y-18792714D02*
X9050000Y-18492714D01*
X9178571Y-18792714D02*
X9178571Y-18635572D01*
X9164286Y-18607000D01*
X9135714Y-18592714D01*
X9092857Y-18592714D01*
X9064286Y-18607000D01*
X9050000Y-18621286D01*
X9364286Y-18792714D02*
X9335714Y-18778429D01*
X9321428Y-18764143D01*
X9307143Y-18735572D01*
X9307143Y-18649857D01*
X9321428Y-18621286D01*
X9335714Y-18607000D01*
X9364286Y-18592714D01*
X9407143Y-18592714D01*
X9435714Y-18607000D01*
X9450000Y-18621286D01*
X9464286Y-18649857D01*
X9464286Y-18735572D01*
X9450000Y-18764143D01*
X9435714Y-18778429D01*
X9407143Y-18792714D01*
X9364286Y-18792714D01*
X9635714Y-18792714D02*
X9607143Y-18778429D01*
X9592857Y-18749857D01*
X9592857Y-18492714D01*
X9864286Y-18778429D02*
X9835714Y-18792714D01*
X9778571Y-18792714D01*
X9750000Y-18778429D01*
X9735714Y-18749857D01*
X9735714Y-18635572D01*
X9750000Y-18607000D01*
X9778571Y-18592714D01*
X9835714Y-18592714D01*
X9864286Y-18607000D01*
X9878571Y-18635572D01*
X9878571Y-18664143D01*
X9735714Y-18692714D01*
X9992857Y-18778429D02*
X10021428Y-18792714D01*
X10078571Y-18792714D01*
X10107143Y-18778429D01*
X10121428Y-18749857D01*
X10121428Y-18735572D01*
X10107143Y-18707000D01*
X10078571Y-18692714D01*
X10035714Y-18692714D01*
X10007143Y-18678429D01*
X9992857Y-18649857D01*
X9992857Y-18635572D01*
X10007143Y-18607000D01*
X10035714Y-18592714D01*
X10078571Y-18592714D01*
X10107143Y-18607000D01*
X10221428Y-18907000D02*
X10235714Y-18892714D01*
X10264286Y-18849857D01*
X10278571Y-18821286D01*
X10292857Y-18778429D01*
X10307143Y-18707000D01*
X10307143Y-18649857D01*
X10292857Y-18578429D01*
X10278571Y-18535572D01*
X10264286Y-18507000D01*
X10235714Y-18464143D01*
X10221428Y-18449857D01*
M02*
