M48
; DRILL file {KiCad (5.1.9)-1} date 10/03/21 21:19:07
; FORMAT={-:-/ absolute / metric / decimal}
; #@! TF.CreationDate,2021-10-03T21:19:07-04:00
; #@! TF.GenerationSoftware,Kicad,Pcbnew,(5.1.9)-1
; #@! TF.FileFunction,Plated,1,2,PTH
FMAT,2
METRIC
T1C0.600
T2C1.000
%
G90
G05
T1
X156.9Y-47.0
X156.9Y-106.0
X156.9Y-114.0
X156.9Y-155.0
X156.9Y-163.0
X157.0Y-64.9
X158.4Y-47.0
X158.4Y-106.0
X158.4Y-114.0
X158.4Y-155.0
X158.4Y-163.0
X158.5Y-64.9
X276.3Y-155.0
X276.3Y-163.0
X276.4Y-47.0
X276.4Y-65.0
X276.4Y-106.0
X276.4Y-114.0
X277.8Y-155.0
X277.8Y-163.0
X277.9Y-47.0
X277.9Y-65.0
X277.9Y-106.0
X277.9Y-114.0
T2
X47.8Y-47.0
X47.8Y-65.0
X47.8Y-106.0
X47.8Y-114.0
X47.8Y-155.0
X47.8Y-163.0
X50.34Y-47.0
X50.34Y-65.0
X50.34Y-106.0
X50.34Y-114.0
X50.34Y-155.0
X50.34Y-163.0
X52.88Y-47.0
X52.88Y-65.0
X52.88Y-106.0
X52.88Y-114.0
X52.88Y-155.0
X52.88Y-163.0
X55.42Y-47.0
X55.42Y-65.0
X55.42Y-106.0
X55.42Y-114.0
X55.42Y-155.0
X55.42Y-163.0
X57.96Y-47.0
X57.96Y-65.0
X57.96Y-106.0
X57.96Y-114.0
X57.96Y-155.0
X57.96Y-163.0
X60.5Y-47.0
X60.5Y-65.0
X60.5Y-106.0
X60.5Y-114.0
X60.5Y-155.0
X60.5Y-163.0
X63.04Y-47.0
X63.04Y-65.0
X63.04Y-106.0
X63.04Y-114.0
X63.04Y-155.0
X63.04Y-163.0
X65.58Y-47.0
X65.58Y-65.0
X65.58Y-106.0
X65.58Y-114.0
X65.58Y-155.0
X65.58Y-163.0
X68.12Y-47.0
X68.12Y-65.0
X68.12Y-106.0
X68.12Y-114.0
X68.12Y-155.0
X68.12Y-163.0
X70.66Y-47.0
X70.66Y-65.0
X70.66Y-106.0
X70.66Y-114.0
X70.66Y-155.0
X70.66Y-163.0
X73.2Y-47.0
X73.2Y-65.0
X73.2Y-106.0
X73.2Y-114.0
X73.2Y-155.0
X73.2Y-163.0
X75.74Y-47.0
X75.74Y-65.0
X75.74Y-106.0
X75.74Y-114.0
X75.74Y-155.0
X75.74Y-163.0
X78.28Y-47.0
X78.28Y-65.0
X78.28Y-106.0
X78.28Y-114.0
X78.28Y-155.0
X78.28Y-163.0
X80.82Y-47.0
X80.82Y-65.0
X80.82Y-106.0
X80.82Y-114.0
X80.82Y-155.0
X80.82Y-163.0
X83.36Y-47.0
X83.36Y-65.0
X83.36Y-106.0
X83.36Y-114.0
X83.36Y-155.0
X83.36Y-163.0
X85.9Y-47.0
X85.9Y-65.0
X85.9Y-106.0
X85.9Y-114.0
X85.9Y-155.0
X85.9Y-163.0
X88.44Y-47.0
X88.44Y-65.0
X88.44Y-106.0
X88.44Y-114.0
X88.44Y-155.0
X88.44Y-163.0
X90.98Y-47.0
X90.98Y-65.0
X90.98Y-106.0
X90.98Y-114.0
X90.98Y-155.0
X90.98Y-163.0
X93.52Y-47.0
X93.52Y-65.0
X93.52Y-106.0
X93.52Y-114.0
X93.52Y-155.0
X93.52Y-163.0
X96.06Y-47.0
X96.06Y-65.0
X96.06Y-106.0
X96.06Y-114.0
X96.06Y-155.0
X96.06Y-163.0
X98.6Y-47.0
X98.6Y-65.0
X98.6Y-106.0
X98.6Y-114.0
X98.6Y-155.0
X98.6Y-163.0
X101.14Y-47.0
X101.14Y-65.0
X101.14Y-106.0
X101.14Y-114.0
X101.14Y-155.0
X101.14Y-163.0
X103.68Y-47.0
X103.68Y-65.0
X103.68Y-106.0
X103.68Y-114.0
X103.68Y-155.0
X103.68Y-163.0
X106.22Y-47.0
X106.22Y-65.0
X106.22Y-106.0
X106.22Y-114.0
X106.22Y-155.0
X106.22Y-163.0
X108.76Y-47.0
X108.76Y-65.0
X108.76Y-106.0
X108.76Y-114.0
X108.76Y-155.0
X108.76Y-163.0
X111.3Y-47.0
X111.3Y-65.0
X111.3Y-106.0
X111.3Y-114.0
X111.3Y-155.0
X111.3Y-163.0
X113.84Y-47.0
X113.84Y-65.0
X113.84Y-106.0
X113.84Y-114.0
X113.84Y-155.0
X113.84Y-163.0
X116.38Y-47.0
X116.38Y-65.0
X116.38Y-106.0
X116.38Y-114.0
X116.38Y-155.0
X116.38Y-163.0
X118.92Y-47.0
X118.92Y-65.0
X118.92Y-106.0
X118.92Y-114.0
X118.92Y-155.0
X118.92Y-163.0
X121.46Y-47.0
X121.46Y-65.0
X121.46Y-106.0
X121.46Y-114.0
X121.46Y-155.0
X121.46Y-163.0
X124.0Y-47.0
X124.0Y-65.0
X124.0Y-106.0
X124.0Y-114.0
X124.0Y-155.0
X124.0Y-163.0
X126.54Y-47.0
X126.54Y-65.0
X126.54Y-106.0
X126.54Y-114.0
X126.54Y-155.0
X126.54Y-163.0
X129.08Y-47.0
X129.08Y-65.0
X129.08Y-106.0
X129.08Y-114.0
X129.08Y-155.0
X129.08Y-163.0
X131.62Y-47.0
X131.62Y-65.0
X131.62Y-106.0
X131.62Y-114.0
X131.62Y-155.0
X131.62Y-163.0
X134.16Y-47.0
X134.16Y-65.0
X134.16Y-106.0
X134.16Y-114.0
X134.16Y-155.0
X134.16Y-163.0
X136.7Y-47.0
X136.7Y-65.0
X136.7Y-106.0
X136.7Y-114.0
X136.7Y-155.0
X136.7Y-163.0
X139.24Y-47.0
X139.24Y-65.0
X139.24Y-106.0
X139.24Y-114.0
X139.24Y-155.0
X139.24Y-163.0
X141.76Y-76.6
X141.76Y-79.14
X141.76Y-81.68
X141.76Y-84.22
X141.76Y-86.76
X141.76Y-89.3
X141.76Y-91.84
X141.76Y-94.38
X141.76Y-125.6
X141.76Y-128.14
X141.76Y-130.68
X141.76Y-133.22
X141.76Y-135.76
X141.76Y-138.3
X141.76Y-140.84
X141.76Y-143.38
X141.78Y-47.0
X141.78Y-65.0
X141.78Y-106.0
X141.78Y-114.0
X141.78Y-155.0
X141.78Y-163.0
X144.3Y-76.6
X144.3Y-79.14
X144.3Y-81.68
X144.3Y-84.22
X144.3Y-86.76
X144.3Y-89.3
X144.3Y-91.84
X144.3Y-94.38
X144.3Y-125.6
X144.3Y-128.14
X144.3Y-130.68
X144.3Y-133.22
X144.3Y-135.76
X144.3Y-138.3
X144.3Y-140.84
X144.3Y-143.38
X144.32Y-47.0
X144.32Y-65.0
X144.32Y-106.0
X144.32Y-114.0
X144.32Y-155.0
X144.32Y-163.0
X146.86Y-47.0
X146.86Y-65.0
X146.86Y-106.0
X146.86Y-114.0
X146.86Y-155.0
X146.86Y-163.0
X167.8Y-47.0
X167.8Y-65.0
X167.8Y-106.0
X167.8Y-114.0
X167.8Y-155.0
X167.8Y-163.0
X170.26Y-76.6
X170.26Y-79.14
X170.26Y-81.68
X170.26Y-84.22
X170.26Y-86.76
X170.26Y-89.3
X170.26Y-91.84
X170.26Y-94.38
X170.34Y-47.0
X170.34Y-65.0
X170.34Y-106.0
X170.34Y-114.0
X170.34Y-155.0
X170.34Y-163.0
X170.36Y-125.6
X170.36Y-128.14
X170.36Y-130.68
X170.36Y-133.22
X170.36Y-135.76
X170.36Y-138.3
X170.36Y-140.84
X170.36Y-143.38
X172.8Y-76.6
X172.8Y-79.14
X172.8Y-81.68
X172.8Y-84.22
X172.8Y-86.76
X172.8Y-89.3
X172.8Y-91.84
X172.8Y-94.38
X172.88Y-47.0
X172.88Y-65.0
X172.88Y-106.0
X172.88Y-114.0
X172.88Y-155.0
X172.88Y-163.0
X172.9Y-125.6
X172.9Y-128.14
X172.9Y-130.68
X172.9Y-133.22
X172.9Y-135.76
X172.9Y-138.3
X172.9Y-140.84
X172.9Y-143.38
X175.42Y-47.0
X175.42Y-65.0
X175.42Y-106.0
X175.42Y-114.0
X175.42Y-155.0
X175.42Y-163.0
X177.96Y-47.0
X177.96Y-65.0
X177.96Y-106.0
X177.96Y-114.0
X177.96Y-155.0
X177.96Y-163.0
X180.5Y-47.0
X180.5Y-65.0
X180.5Y-106.0
X180.5Y-114.0
X180.5Y-155.0
X180.5Y-163.0
X183.04Y-47.0
X183.04Y-65.0
X183.04Y-106.0
X183.04Y-114.0
X183.04Y-155.0
X183.04Y-163.0
X185.58Y-47.0
X185.58Y-65.0
X185.58Y-106.0
X185.58Y-114.0
X185.58Y-155.0
X185.58Y-163.0
X188.12Y-47.0
X188.12Y-65.0
X188.12Y-106.0
X188.12Y-114.0
X188.12Y-155.0
X188.12Y-163.0
X190.66Y-47.0
X190.66Y-65.0
X190.66Y-106.0
X190.66Y-114.0
X190.66Y-155.0
X190.66Y-163.0
X193.2Y-47.0
X193.2Y-65.0
X193.2Y-106.0
X193.2Y-114.0
X193.2Y-155.0
X193.2Y-163.0
X195.74Y-47.0
X195.74Y-65.0
X195.74Y-106.0
X195.74Y-114.0
X195.74Y-155.0
X195.74Y-163.0
X198.28Y-47.0
X198.28Y-65.0
X198.28Y-106.0
X198.28Y-114.0
X198.28Y-155.0
X198.28Y-163.0
X200.82Y-47.0
X200.82Y-65.0
X200.82Y-106.0
X200.82Y-114.0
X200.82Y-155.0
X200.82Y-163.0
X203.36Y-47.0
X203.36Y-65.0
X203.36Y-106.0
X203.36Y-114.0
X203.36Y-155.0
X203.36Y-163.0
X205.9Y-47.0
X205.9Y-65.0
X205.9Y-106.0
X205.9Y-114.0
X205.9Y-155.0
X205.9Y-163.0
X208.44Y-47.0
X208.44Y-65.0
X208.44Y-106.0
X208.44Y-114.0
X208.44Y-155.0
X208.44Y-163.0
X210.98Y-47.0
X210.98Y-65.0
X210.98Y-106.0
X210.98Y-114.0
X210.98Y-155.0
X210.98Y-163.0
X213.52Y-47.0
X213.52Y-65.0
X213.52Y-106.0
X213.52Y-114.0
X213.52Y-155.0
X213.52Y-163.0
X216.06Y-47.0
X216.06Y-65.0
X216.06Y-106.0
X216.06Y-114.0
X216.06Y-155.0
X216.06Y-163.0
X218.6Y-47.0
X218.6Y-65.0
X218.6Y-106.0
X218.6Y-114.0
X218.6Y-155.0
X218.6Y-163.0
X221.14Y-47.0
X221.14Y-65.0
X221.14Y-106.0
X221.14Y-114.0
X221.14Y-155.0
X221.14Y-163.0
X223.68Y-47.0
X223.68Y-65.0
X223.68Y-106.0
X223.68Y-114.0
X223.68Y-155.0
X223.68Y-163.0
X226.22Y-47.0
X226.22Y-65.0
X226.22Y-106.0
X226.22Y-114.0
X226.22Y-155.0
X226.22Y-163.0
X228.76Y-47.0
X228.76Y-65.0
X228.76Y-106.0
X228.76Y-114.0
X228.76Y-155.0
X228.76Y-163.0
X231.3Y-47.0
X231.3Y-65.0
X231.3Y-106.0
X231.3Y-114.0
X231.3Y-155.0
X231.3Y-163.0
X233.84Y-47.0
X233.84Y-65.0
X233.84Y-106.0
X233.84Y-114.0
X233.84Y-155.0
X233.84Y-163.0
X236.38Y-47.0
X236.38Y-65.0
X236.38Y-106.0
X236.38Y-114.0
X236.38Y-155.0
X236.38Y-163.0
X238.92Y-47.0
X238.92Y-65.0
X238.92Y-106.0
X238.92Y-114.0
X238.92Y-155.0
X238.92Y-163.0
X241.46Y-47.0
X241.46Y-65.0
X241.46Y-106.0
X241.46Y-114.0
X241.46Y-155.0
X241.46Y-163.0
X244.0Y-47.0
X244.0Y-65.0
X244.0Y-106.0
X244.0Y-114.0
X244.0Y-155.0
X244.0Y-163.0
X246.54Y-47.0
X246.54Y-65.0
X246.54Y-106.0
X246.54Y-114.0
X246.54Y-155.0
X246.54Y-163.0
X249.08Y-47.0
X249.08Y-65.0
X249.08Y-106.0
X249.08Y-114.0
X249.08Y-155.0
X249.08Y-163.0
X251.62Y-47.0
X251.62Y-65.0
X251.62Y-106.0
X251.62Y-114.0
X251.62Y-155.0
X251.62Y-163.0
X254.16Y-47.0
X254.16Y-65.0
X254.16Y-106.0
X254.16Y-114.0
X254.16Y-155.0
X254.16Y-163.0
X256.7Y-47.0
X256.7Y-65.0
X256.7Y-106.0
X256.7Y-114.0
X256.7Y-155.0
X256.7Y-163.0
X259.24Y-47.0
X259.24Y-65.0
X259.24Y-106.0
X259.24Y-114.0
X259.24Y-155.0
X259.24Y-163.0
X261.76Y-125.6
X261.76Y-128.14
X261.76Y-130.68
X261.76Y-133.22
X261.76Y-135.76
X261.76Y-138.3
X261.76Y-140.84
X261.76Y-143.38
X261.78Y-47.0
X261.78Y-65.0
X261.78Y-106.0
X261.78Y-114.0
X261.78Y-155.0
X261.78Y-163.0
X261.8Y-76.6
X261.8Y-79.14
X261.8Y-81.68
X261.8Y-84.22
X261.8Y-86.76
X261.8Y-89.3
X261.8Y-91.84
X261.8Y-94.38
X264.3Y-125.6
X264.3Y-128.14
X264.3Y-130.68
X264.3Y-133.22
X264.3Y-135.76
X264.3Y-138.3
X264.3Y-140.84
X264.3Y-143.38
X264.32Y-47.0
X264.32Y-65.0
X264.32Y-106.0
X264.32Y-114.0
X264.32Y-155.0
X264.32Y-163.0
X264.34Y-76.6
X264.34Y-79.14
X264.34Y-81.68
X264.34Y-84.22
X264.34Y-86.76
X264.34Y-89.3
X264.34Y-91.84
X264.34Y-94.38
X266.86Y-47.0
X266.86Y-65.0
X266.86Y-106.0
X266.86Y-114.0
X266.86Y-155.0
X266.86Y-163.0
X287.8Y-47.0
X287.8Y-65.0
X287.8Y-106.0
X287.8Y-155.0
X287.8Y-163.0
X287.801Y-114.0
X290.34Y-47.0
X290.34Y-65.0
X290.34Y-106.0
X290.34Y-155.0
X290.34Y-163.0
X290.341Y-114.0
X290.36Y-76.6
X290.36Y-79.14
X290.36Y-81.68
X290.36Y-84.22
X290.36Y-86.76
X290.36Y-89.3
X290.36Y-91.84
X290.36Y-94.38
X290.36Y-125.6
X290.36Y-128.14
X290.36Y-130.68
X290.36Y-133.22
X290.36Y-135.76
X290.36Y-138.3
X290.36Y-140.84
X290.36Y-143.38
X292.88Y-47.0
X292.88Y-65.0
X292.88Y-106.0
X292.88Y-155.0
X292.88Y-163.0
X292.881Y-114.0
X292.9Y-76.6
X292.9Y-79.14
X292.9Y-81.68
X292.9Y-84.22
X292.9Y-86.76
X292.9Y-89.3
X292.9Y-91.84
X292.9Y-94.38
X292.9Y-125.6
X292.9Y-128.14
X292.9Y-130.68
X292.9Y-133.22
X292.9Y-135.76
X292.9Y-138.3
X292.9Y-140.84
X292.9Y-143.38
X295.42Y-47.0
X295.42Y-65.0
X295.42Y-106.0
X295.42Y-155.0
X295.42Y-163.0
X295.421Y-114.0
X297.96Y-47.0
X297.96Y-65.0
X297.96Y-106.0
X297.96Y-155.0
X297.96Y-163.0
X297.961Y-114.0
X300.5Y-47.0
X300.5Y-65.0
X300.5Y-106.0
X300.5Y-155.0
X300.5Y-163.0
X300.501Y-114.0
X303.04Y-47.0
X303.04Y-65.0
X303.04Y-106.0
X303.04Y-155.0
X303.04Y-163.0
X303.041Y-114.0
X305.58Y-47.0
X305.58Y-65.0
X305.58Y-106.0
X305.58Y-155.0
X305.58Y-163.0
X305.581Y-114.0
X308.12Y-47.0
X308.12Y-65.0
X308.12Y-106.0
X308.12Y-155.0
X308.12Y-163.0
X308.121Y-114.0
X310.66Y-47.0
X310.66Y-65.0
X310.66Y-106.0
X310.66Y-155.0
X310.66Y-163.0
X310.661Y-114.0
X313.2Y-47.0
X313.2Y-65.0
X313.2Y-106.0
X313.2Y-155.0
X313.2Y-163.0
X313.201Y-114.0
X315.74Y-47.0
X315.74Y-65.0
X315.74Y-106.0
X315.74Y-155.0
X315.74Y-163.0
X315.741Y-114.0
X318.28Y-47.0
X318.28Y-65.0
X318.28Y-106.0
X318.28Y-155.0
X318.28Y-163.0
X318.281Y-114.0
X320.82Y-47.0
X320.82Y-65.0
X320.82Y-106.0
X320.82Y-155.0
X320.82Y-163.0
X320.821Y-114.0
X323.36Y-47.0
X323.36Y-65.0
X323.36Y-106.0
X323.36Y-155.0
X323.36Y-163.0
X323.361Y-114.0
X325.9Y-47.0
X325.9Y-65.0
X325.9Y-106.0
X325.9Y-155.0
X325.9Y-163.0
X325.901Y-114.0
X328.44Y-47.0
X328.44Y-65.0
X328.44Y-106.0
X328.44Y-155.0
X328.44Y-163.0
X328.441Y-114.0
X330.98Y-47.0
X330.98Y-65.0
X330.98Y-106.0
X330.98Y-155.0
X330.98Y-163.0
X330.981Y-114.0
X333.52Y-47.0
X333.52Y-65.0
X333.52Y-106.0
X333.52Y-155.0
X333.52Y-163.0
X333.521Y-114.0
X336.06Y-47.0
X336.06Y-65.0
X336.06Y-106.0
X336.06Y-155.0
X336.06Y-163.0
X336.061Y-114.0
X338.6Y-47.0
X338.6Y-65.0
X338.6Y-106.0
X338.6Y-155.0
X338.6Y-163.0
X338.601Y-114.0
X341.14Y-47.0
X341.14Y-65.0
X341.14Y-106.0
X341.14Y-155.0
X341.14Y-163.0
X341.141Y-114.0
X343.68Y-47.0
X343.68Y-65.0
X343.68Y-106.0
X343.68Y-155.0
X343.68Y-163.0
X343.681Y-114.0
X346.22Y-47.0
X346.22Y-65.0
X346.22Y-106.0
X346.22Y-155.0
X346.22Y-163.0
X346.221Y-114.0
X348.76Y-47.0
X348.76Y-65.0
X348.76Y-106.0
X348.76Y-155.0
X348.76Y-163.0
X348.761Y-114.0
X351.3Y-47.0
X351.3Y-65.0
X351.3Y-106.0
X351.3Y-155.0
X351.3Y-163.0
X351.301Y-114.0
X353.84Y-47.0
X353.84Y-65.0
X353.84Y-106.0
X353.84Y-155.0
X353.84Y-163.0
X353.841Y-114.0
X356.38Y-47.0
X356.38Y-65.0
X356.38Y-106.0
X356.38Y-155.0
X356.38Y-163.0
X356.381Y-114.0
X358.92Y-47.0
X358.92Y-65.0
X358.92Y-106.0
X358.92Y-155.0
X358.92Y-163.0
X358.921Y-114.0
X361.46Y-47.0
X361.46Y-65.0
X361.46Y-106.0
X361.46Y-155.0
X361.46Y-163.0
X361.461Y-114.0
X364.0Y-47.0
X364.0Y-65.0
X364.0Y-106.0
X364.0Y-155.0
X364.0Y-163.0
X364.001Y-114.0
X366.54Y-47.0
X366.54Y-65.0
X366.54Y-106.0
X366.54Y-155.0
X366.54Y-163.0
X366.541Y-114.0
X369.08Y-47.0
X369.08Y-65.0
X369.08Y-106.0
X369.08Y-155.0
X369.08Y-163.0
X369.081Y-114.0
X371.62Y-47.0
X371.62Y-65.0
X371.62Y-106.0
X371.62Y-155.0
X371.62Y-163.0
X371.621Y-114.0
X374.16Y-47.0
X374.16Y-65.0
X374.16Y-106.0
X374.16Y-155.0
X374.16Y-163.0
X374.161Y-114.0
X376.7Y-47.0
X376.7Y-65.0
X376.7Y-106.0
X376.7Y-155.0
X376.7Y-163.0
X376.701Y-114.0
X379.24Y-47.0
X379.24Y-65.0
X379.24Y-106.0
X379.24Y-155.0
X379.24Y-163.0
X379.241Y-114.0
X381.78Y-47.0
X381.78Y-65.0
X381.78Y-106.0
X381.78Y-155.0
X381.78Y-163.0
X381.781Y-114.0
X384.32Y-47.0
X384.32Y-65.0
X384.32Y-106.0
X384.32Y-155.0
X384.32Y-163.0
X384.321Y-114.0
X386.86Y-47.0
X386.86Y-65.0
X386.86Y-106.0
X386.86Y-155.0
X386.86Y-163.0
X386.861Y-114.0
T0
M30
