G04 #@! TF.GenerationSoftware,KiCad,Pcbnew,(5.1.9)-1*
G04 #@! TF.CreationDate,2021-11-21T16:09:14-05:00*
G04 #@! TF.ProjectId,flags,666c6167-732e-46b6-9963-61645f706362,1.0*
G04 #@! TF.SameCoordinates,Original*
G04 #@! TF.FileFunction,Soldermask,Top*
G04 #@! TF.FilePolarity,Negative*
%FSLAX46Y46*%
G04 Gerber Fmt 4.6, Leading zero omitted, Abs format (unit mm)*
G04 Created by KiCad (PCBNEW (5.1.9)-1) date 2021-11-21 16:09:14*
%MOMM*%
%LPD*%
G01*
G04 APERTURE LIST*
%ADD10O,1.700000X1.700000*%
%ADD11R,1.700000X1.700000*%
%ADD12O,1.600000X1.600000*%
%ADD13R,1.600000X1.600000*%
G04 APERTURE END LIST*
G36*
G01*
X176900000Y-57850001D02*
X176900000Y-56949999D01*
G75*
G02*
X177149999Y-56700000I249999J0D01*
G01*
X177850001Y-56700000D01*
G75*
G02*
X178100000Y-56949999I0J-249999D01*
G01*
X178100000Y-57850001D01*
G75*
G02*
X177850001Y-58100000I-249999J0D01*
G01*
X177149999Y-58100000D01*
G75*
G02*
X176900000Y-57850001I0J249999D01*
G01*
G37*
G36*
G01*
X174900000Y-57850001D02*
X174900000Y-56949999D01*
G75*
G02*
X175149999Y-56700000I249999J0D01*
G01*
X175850001Y-56700000D01*
G75*
G02*
X176100000Y-56949999I0J-249999D01*
G01*
X176100000Y-57850001D01*
G75*
G02*
X175850001Y-58100000I-249999J0D01*
G01*
X175149999Y-58100000D01*
G75*
G02*
X174900000Y-57850001I0J249999D01*
G01*
G37*
G36*
G01*
X176950000Y-61250001D02*
X176950000Y-60349999D01*
G75*
G02*
X177199999Y-60100000I249999J0D01*
G01*
X177850001Y-60100000D01*
G75*
G02*
X178100000Y-60349999I0J-249999D01*
G01*
X178100000Y-61250001D01*
G75*
G02*
X177850001Y-61500000I-249999J0D01*
G01*
X177199999Y-61500000D01*
G75*
G02*
X176950000Y-61250001I0J249999D01*
G01*
G37*
G36*
G01*
X174900000Y-61250001D02*
X174900000Y-60349999D01*
G75*
G02*
X175149999Y-60100000I249999J0D01*
G01*
X175800001Y-60100000D01*
G75*
G02*
X176050000Y-60349999I0J-249999D01*
G01*
X176050000Y-61250001D01*
G75*
G02*
X175800001Y-61500000I-249999J0D01*
G01*
X175149999Y-61500000D01*
G75*
G02*
X174900000Y-61250001I0J249999D01*
G01*
G37*
G36*
G01*
X97950000Y-112925000D02*
X97950000Y-113875000D01*
G75*
G02*
X97700000Y-114125000I-250000J0D01*
G01*
X97025000Y-114125000D01*
G75*
G02*
X96775000Y-113875000I0J250000D01*
G01*
X96775000Y-112925000D01*
G75*
G02*
X97025000Y-112675000I250000J0D01*
G01*
X97700000Y-112675000D01*
G75*
G02*
X97950000Y-112925000I0J-250000D01*
G01*
G37*
G36*
G01*
X100025000Y-112925000D02*
X100025000Y-113875000D01*
G75*
G02*
X99775000Y-114125000I-250000J0D01*
G01*
X99100000Y-114125000D01*
G75*
G02*
X98850000Y-113875000I0J250000D01*
G01*
X98850000Y-112925000D01*
G75*
G02*
X99100000Y-112675000I250000J0D01*
G01*
X99775000Y-112675000D01*
G75*
G02*
X100025000Y-112925000I0J-250000D01*
G01*
G37*
D10*
X88900000Y-124400000D03*
X88900000Y-121860000D03*
X88900000Y-119320000D03*
X88900000Y-116780000D03*
X88900000Y-114240000D03*
X88900000Y-111700000D03*
X88900000Y-109160000D03*
D11*
X88900000Y-106620000D03*
D10*
X89000000Y-75380000D03*
X89000000Y-72840000D03*
X89000000Y-70300000D03*
X89000000Y-67760000D03*
X89000000Y-65220000D03*
X89000000Y-62680000D03*
X89000000Y-60140000D03*
D11*
X89000000Y-57600000D03*
G36*
G01*
X134200000Y-110750001D02*
X134200000Y-109849999D01*
G75*
G02*
X134449999Y-109600000I249999J0D01*
G01*
X135150001Y-109600000D01*
G75*
G02*
X135400000Y-109849999I0J-249999D01*
G01*
X135400000Y-110750001D01*
G75*
G02*
X135150001Y-111000000I-249999J0D01*
G01*
X134449999Y-111000000D01*
G75*
G02*
X134200000Y-110750001I0J249999D01*
G01*
G37*
G36*
G01*
X132200000Y-110750001D02*
X132200000Y-109849999D01*
G75*
G02*
X132449999Y-109600000I249999J0D01*
G01*
X133150001Y-109600000D01*
G75*
G02*
X133400000Y-109849999I0J-249999D01*
G01*
X133400000Y-110750001D01*
G75*
G02*
X133150001Y-111000000I-249999J0D01*
G01*
X132449999Y-111000000D01*
G75*
G02*
X132200000Y-110750001I0J249999D01*
G01*
G37*
G36*
G01*
X141500000Y-110750001D02*
X141500000Y-109849999D01*
G75*
G02*
X141749999Y-109600000I249999J0D01*
G01*
X142450001Y-109600000D01*
G75*
G02*
X142700000Y-109849999I0J-249999D01*
G01*
X142700000Y-110750001D01*
G75*
G02*
X142450001Y-111000000I-249999J0D01*
G01*
X141749999Y-111000000D01*
G75*
G02*
X141500000Y-110750001I0J249999D01*
G01*
G37*
G36*
G01*
X139500000Y-110750001D02*
X139500000Y-109849999D01*
G75*
G02*
X139749999Y-109600000I249999J0D01*
G01*
X140450001Y-109600000D01*
G75*
G02*
X140700000Y-109849999I0J-249999D01*
G01*
X140700000Y-110750001D01*
G75*
G02*
X140450001Y-111000000I-249999J0D01*
G01*
X139749999Y-111000000D01*
G75*
G02*
X139500000Y-110750001I0J249999D01*
G01*
G37*
G36*
G01*
X148700000Y-110750001D02*
X148700000Y-109849999D01*
G75*
G02*
X148949999Y-109600000I249999J0D01*
G01*
X149650001Y-109600000D01*
G75*
G02*
X149900000Y-109849999I0J-249999D01*
G01*
X149900000Y-110750001D01*
G75*
G02*
X149650001Y-111000000I-249999J0D01*
G01*
X148949999Y-111000000D01*
G75*
G02*
X148700000Y-110750001I0J249999D01*
G01*
G37*
G36*
G01*
X146700000Y-110750001D02*
X146700000Y-109849999D01*
G75*
G02*
X146949999Y-109600000I249999J0D01*
G01*
X147650001Y-109600000D01*
G75*
G02*
X147900000Y-109849999I0J-249999D01*
G01*
X147900000Y-110750001D01*
G75*
G02*
X147650001Y-111000000I-249999J0D01*
G01*
X146949999Y-111000000D01*
G75*
G02*
X146700000Y-110750001I0J249999D01*
G01*
G37*
G36*
G01*
X134250000Y-114150001D02*
X134250000Y-113249999D01*
G75*
G02*
X134499999Y-113000000I249999J0D01*
G01*
X135150001Y-113000000D01*
G75*
G02*
X135400000Y-113249999I0J-249999D01*
G01*
X135400000Y-114150001D01*
G75*
G02*
X135150001Y-114400000I-249999J0D01*
G01*
X134499999Y-114400000D01*
G75*
G02*
X134250000Y-114150001I0J249999D01*
G01*
G37*
G36*
G01*
X132200000Y-114150001D02*
X132200000Y-113249999D01*
G75*
G02*
X132449999Y-113000000I249999J0D01*
G01*
X133100001Y-113000000D01*
G75*
G02*
X133350000Y-113249999I0J-249999D01*
G01*
X133350000Y-114150001D01*
G75*
G02*
X133100001Y-114400000I-249999J0D01*
G01*
X132449999Y-114400000D01*
G75*
G02*
X132200000Y-114150001I0J249999D01*
G01*
G37*
G36*
G01*
X141516666Y-114150001D02*
X141516666Y-113249999D01*
G75*
G02*
X141766665Y-113000000I249999J0D01*
G01*
X142416667Y-113000000D01*
G75*
G02*
X142666666Y-113249999I0J-249999D01*
G01*
X142666666Y-114150001D01*
G75*
G02*
X142416667Y-114400000I-249999J0D01*
G01*
X141766665Y-114400000D01*
G75*
G02*
X141516666Y-114150001I0J249999D01*
G01*
G37*
G36*
G01*
X139466666Y-114150001D02*
X139466666Y-113249999D01*
G75*
G02*
X139716665Y-113000000I249999J0D01*
G01*
X140366667Y-113000000D01*
G75*
G02*
X140616666Y-113249999I0J-249999D01*
G01*
X140616666Y-114150001D01*
G75*
G02*
X140366667Y-114400000I-249999J0D01*
G01*
X139716665Y-114400000D01*
G75*
G02*
X139466666Y-114150001I0J249999D01*
G01*
G37*
G36*
G01*
X148783332Y-114150001D02*
X148783332Y-113249999D01*
G75*
G02*
X149033331Y-113000000I249999J0D01*
G01*
X149683333Y-113000000D01*
G75*
G02*
X149933332Y-113249999I0J-249999D01*
G01*
X149933332Y-114150001D01*
G75*
G02*
X149683333Y-114400000I-249999J0D01*
G01*
X149033331Y-114400000D01*
G75*
G02*
X148783332Y-114150001I0J249999D01*
G01*
G37*
G36*
G01*
X146733332Y-114150001D02*
X146733332Y-113249999D01*
G75*
G02*
X146983331Y-113000000I249999J0D01*
G01*
X147633333Y-113000000D01*
G75*
G02*
X147883332Y-113249999I0J-249999D01*
G01*
X147883332Y-114150001D01*
G75*
G02*
X147633333Y-114400000I-249999J0D01*
G01*
X146983331Y-114400000D01*
G75*
G02*
X146733332Y-114150001I0J249999D01*
G01*
G37*
G36*
G01*
X156000000Y-110750001D02*
X156000000Y-109849999D01*
G75*
G02*
X156249999Y-109600000I249999J0D01*
G01*
X156950001Y-109600000D01*
G75*
G02*
X157200000Y-109849999I0J-249999D01*
G01*
X157200000Y-110750001D01*
G75*
G02*
X156950001Y-111000000I-249999J0D01*
G01*
X156249999Y-111000000D01*
G75*
G02*
X156000000Y-110750001I0J249999D01*
G01*
G37*
G36*
G01*
X154000000Y-110750001D02*
X154000000Y-109849999D01*
G75*
G02*
X154249999Y-109600000I249999J0D01*
G01*
X154950001Y-109600000D01*
G75*
G02*
X155200000Y-109849999I0J-249999D01*
G01*
X155200000Y-110750001D01*
G75*
G02*
X154950001Y-111000000I-249999J0D01*
G01*
X154249999Y-111000000D01*
G75*
G02*
X154000000Y-110750001I0J249999D01*
G01*
G37*
G36*
G01*
X156050000Y-114150001D02*
X156050000Y-113249999D01*
G75*
G02*
X156299999Y-113000000I249999J0D01*
G01*
X156950001Y-113000000D01*
G75*
G02*
X157200000Y-113249999I0J-249999D01*
G01*
X157200000Y-114150001D01*
G75*
G02*
X156950001Y-114400000I-249999J0D01*
G01*
X156299999Y-114400000D01*
G75*
G02*
X156050000Y-114150001I0J249999D01*
G01*
G37*
G36*
G01*
X154000000Y-114150001D02*
X154000000Y-113249999D01*
G75*
G02*
X154249999Y-113000000I249999J0D01*
G01*
X154900001Y-113000000D01*
G75*
G02*
X155150000Y-113249999I0J-249999D01*
G01*
X155150000Y-114150001D01*
G75*
G02*
X154900001Y-114400000I-249999J0D01*
G01*
X154249999Y-114400000D01*
G75*
G02*
X154000000Y-114150001I0J249999D01*
G01*
G37*
G36*
G01*
X176950000Y-74075000D02*
X176950000Y-73125000D01*
G75*
G02*
X177200000Y-72875000I250000J0D01*
G01*
X177875000Y-72875000D01*
G75*
G02*
X178125000Y-73125000I0J-250000D01*
G01*
X178125000Y-74075000D01*
G75*
G02*
X177875000Y-74325000I-250000J0D01*
G01*
X177200000Y-74325000D01*
G75*
G02*
X176950000Y-74075000I0J250000D01*
G01*
G37*
G36*
G01*
X174875000Y-74075000D02*
X174875000Y-73125000D01*
G75*
G02*
X175125000Y-72875000I250000J0D01*
G01*
X175800000Y-72875000D01*
G75*
G02*
X176050000Y-73125000I0J-250000D01*
G01*
X176050000Y-74075000D01*
G75*
G02*
X175800000Y-74325000I-250000J0D01*
G01*
X175125000Y-74325000D01*
G75*
G02*
X174875000Y-74075000I0J250000D01*
G01*
G37*
G36*
G01*
X137750000Y-59375000D02*
X137750000Y-58425000D01*
G75*
G02*
X138000000Y-58175000I250000J0D01*
G01*
X138675000Y-58175000D01*
G75*
G02*
X138925000Y-58425000I0J-250000D01*
G01*
X138925000Y-59375000D01*
G75*
G02*
X138675000Y-59625000I-250000J0D01*
G01*
X138000000Y-59625000D01*
G75*
G02*
X137750000Y-59375000I0J250000D01*
G01*
G37*
G36*
G01*
X135675000Y-59375000D02*
X135675000Y-58425000D01*
G75*
G02*
X135925000Y-58175000I250000J0D01*
G01*
X136600000Y-58175000D01*
G75*
G02*
X136850000Y-58425000I0J-250000D01*
G01*
X136850000Y-59375000D01*
G75*
G02*
X136600000Y-59625000I-250000J0D01*
G01*
X135925000Y-59625000D01*
G75*
G02*
X135675000Y-59375000I0J250000D01*
G01*
G37*
G36*
G01*
X156150000Y-76825000D02*
X156150000Y-77775000D01*
G75*
G02*
X155900000Y-78025000I-250000J0D01*
G01*
X155225000Y-78025000D01*
G75*
G02*
X154975000Y-77775000I0J250000D01*
G01*
X154975000Y-76825000D01*
G75*
G02*
X155225000Y-76575000I250000J0D01*
G01*
X155900000Y-76575000D01*
G75*
G02*
X156150000Y-76825000I0J-250000D01*
G01*
G37*
G36*
G01*
X158225000Y-76825000D02*
X158225000Y-77775000D01*
G75*
G02*
X157975000Y-78025000I-250000J0D01*
G01*
X157300000Y-78025000D01*
G75*
G02*
X157050000Y-77775000I0J250000D01*
G01*
X157050000Y-76825000D01*
G75*
G02*
X157300000Y-76575000I250000J0D01*
G01*
X157975000Y-76575000D01*
G75*
G02*
X158225000Y-76825000I0J-250000D01*
G01*
G37*
D12*
X177520000Y-78200000D03*
X169900000Y-93440000D03*
X177520000Y-80740000D03*
X169900000Y-90900000D03*
X177520000Y-83280000D03*
X169900000Y-88360000D03*
X177520000Y-85820000D03*
X169900000Y-85820000D03*
X177520000Y-88360000D03*
X169900000Y-83280000D03*
X177520000Y-90900000D03*
X169900000Y-80740000D03*
X177520000Y-93440000D03*
D13*
X169900000Y-78200000D03*
D12*
X141700000Y-58880000D03*
X156940000Y-66500000D03*
X144240000Y-58880000D03*
X154400000Y-66500000D03*
X146780000Y-58880000D03*
X151860000Y-66500000D03*
X149320000Y-58880000D03*
X149320000Y-66500000D03*
X151860000Y-58880000D03*
X146780000Y-66500000D03*
X154400000Y-58880000D03*
X144240000Y-66500000D03*
X156940000Y-58880000D03*
D13*
X141700000Y-66500000D03*
D12*
X97300000Y-116080000D03*
X120160000Y-123700000D03*
X99840000Y-116080000D03*
X117620000Y-123700000D03*
X102380000Y-116080000D03*
X115080000Y-123700000D03*
X104920000Y-116080000D03*
X112540000Y-123700000D03*
X107460000Y-116080000D03*
X110000000Y-123700000D03*
X110000000Y-116080000D03*
X107460000Y-123700000D03*
X112540000Y-116080000D03*
X104920000Y-123700000D03*
X115080000Y-116080000D03*
X102380000Y-123700000D03*
X117620000Y-116080000D03*
X99840000Y-123700000D03*
X120160000Y-116080000D03*
D13*
X97300000Y-123700000D03*
D12*
X155620000Y-81220000D03*
X148000000Y-99000000D03*
X155620000Y-83760000D03*
X148000000Y-96460000D03*
X155620000Y-86300000D03*
X148000000Y-93920000D03*
X155620000Y-88840000D03*
X148000000Y-91380000D03*
X155620000Y-91380000D03*
X148000000Y-88840000D03*
X155620000Y-93920000D03*
X148000000Y-86300000D03*
X155620000Y-96460000D03*
X148000000Y-83760000D03*
X155620000Y-99000000D03*
D13*
X148000000Y-81220000D03*
D12*
X114020000Y-83800000D03*
X106400000Y-99040000D03*
X114020000Y-86340000D03*
X106400000Y-96500000D03*
X114020000Y-88880000D03*
X106400000Y-93960000D03*
X114020000Y-91420000D03*
X106400000Y-91420000D03*
X114020000Y-93960000D03*
X106400000Y-88880000D03*
X114020000Y-96500000D03*
X106400000Y-86340000D03*
X114020000Y-99040000D03*
D13*
X106400000Y-83800000D03*
D12*
X133220000Y-83800000D03*
X125600000Y-99040000D03*
X133220000Y-86340000D03*
X125600000Y-96500000D03*
X133220000Y-88880000D03*
X125600000Y-93960000D03*
X133220000Y-91420000D03*
X125600000Y-91420000D03*
X133220000Y-93960000D03*
X125600000Y-88880000D03*
X133220000Y-96500000D03*
X125600000Y-86340000D03*
X133220000Y-99040000D03*
D13*
X125600000Y-83800000D03*
D12*
X107300000Y-58880000D03*
X125080000Y-66500000D03*
X109840000Y-58880000D03*
X122540000Y-66500000D03*
X112380000Y-58880000D03*
X120000000Y-66500000D03*
X114920000Y-58880000D03*
X117460000Y-66500000D03*
X117460000Y-58880000D03*
X114920000Y-66500000D03*
X120000000Y-58880000D03*
X112380000Y-66500000D03*
X122540000Y-58880000D03*
X109840000Y-66500000D03*
X125080000Y-58880000D03*
D13*
X107300000Y-66500000D03*
G36*
G01*
X111400000Y-112550001D02*
X111400000Y-111649999D01*
G75*
G02*
X111649999Y-111400000I249999J0D01*
G01*
X112350001Y-111400000D01*
G75*
G02*
X112600000Y-111649999I0J-249999D01*
G01*
X112600000Y-112550001D01*
G75*
G02*
X112350001Y-112800000I-249999J0D01*
G01*
X111649999Y-112800000D01*
G75*
G02*
X111400000Y-112550001I0J249999D01*
G01*
G37*
G36*
G01*
X109400000Y-112550001D02*
X109400000Y-111649999D01*
G75*
G02*
X109649999Y-111400000I249999J0D01*
G01*
X110350001Y-111400000D01*
G75*
G02*
X110600000Y-111649999I0J-249999D01*
G01*
X110600000Y-112550001D01*
G75*
G02*
X110350001Y-112800000I-249999J0D01*
G01*
X109649999Y-112800000D01*
G75*
G02*
X109400000Y-112550001I0J249999D01*
G01*
G37*
G36*
G01*
X114650000Y-79325000D02*
X114650000Y-80275000D01*
G75*
G02*
X114400000Y-80525000I-250000J0D01*
G01*
X113725000Y-80525000D01*
G75*
G02*
X113475000Y-80275000I0J250000D01*
G01*
X113475000Y-79325000D01*
G75*
G02*
X113725000Y-79075000I250000J0D01*
G01*
X114400000Y-79075000D01*
G75*
G02*
X114650000Y-79325000I0J-250000D01*
G01*
G37*
G36*
G01*
X116725000Y-79325000D02*
X116725000Y-80275000D01*
G75*
G02*
X116475000Y-80525000I-250000J0D01*
G01*
X115800000Y-80525000D01*
G75*
G02*
X115550000Y-80275000I0J250000D01*
G01*
X115550000Y-79325000D01*
G75*
G02*
X115800000Y-79075000I250000J0D01*
G01*
X116475000Y-79075000D01*
G75*
G02*
X116725000Y-79325000I0J-250000D01*
G01*
G37*
G36*
G01*
X133850000Y-79425000D02*
X133850000Y-80375000D01*
G75*
G02*
X133600000Y-80625000I-250000J0D01*
G01*
X132925000Y-80625000D01*
G75*
G02*
X132675000Y-80375000I0J250000D01*
G01*
X132675000Y-79425000D01*
G75*
G02*
X132925000Y-79175000I250000J0D01*
G01*
X133600000Y-79175000D01*
G75*
G02*
X133850000Y-79425000I0J-250000D01*
G01*
G37*
G36*
G01*
X135925000Y-79425000D02*
X135925000Y-80375000D01*
G75*
G02*
X135675000Y-80625000I-250000J0D01*
G01*
X135000000Y-80625000D01*
G75*
G02*
X134750000Y-80375000I0J250000D01*
G01*
X134750000Y-79425000D01*
G75*
G02*
X135000000Y-79175000I250000J0D01*
G01*
X135675000Y-79175000D01*
G75*
G02*
X135925000Y-79425000I0J-250000D01*
G01*
G37*
G36*
G01*
X103250000Y-59375000D02*
X103250000Y-58425000D01*
G75*
G02*
X103500000Y-58175000I250000J0D01*
G01*
X104175000Y-58175000D01*
G75*
G02*
X104425000Y-58425000I0J-250000D01*
G01*
X104425000Y-59375000D01*
G75*
G02*
X104175000Y-59625000I-250000J0D01*
G01*
X103500000Y-59625000D01*
G75*
G02*
X103250000Y-59375000I0J250000D01*
G01*
G37*
G36*
G01*
X101175000Y-59375000D02*
X101175000Y-58425000D01*
G75*
G02*
X101425000Y-58175000I250000J0D01*
G01*
X102100000Y-58175000D01*
G75*
G02*
X102350000Y-58425000I0J-250000D01*
G01*
X102350000Y-59375000D01*
G75*
G02*
X102100000Y-59625000I-250000J0D01*
G01*
X101425000Y-59625000D01*
G75*
G02*
X101175000Y-59375000I0J250000D01*
G01*
G37*
D10*
X185460000Y-136000000D03*
X182920000Y-136000000D03*
X180380000Y-136000000D03*
X177840000Y-136000000D03*
X175300000Y-136000000D03*
X172760000Y-136000000D03*
X170220000Y-136000000D03*
X167680000Y-136000000D03*
X165140000Y-136000000D03*
X162600000Y-136000000D03*
X160060000Y-136000000D03*
X157520000Y-136000000D03*
X154980000Y-136000000D03*
X152440000Y-136000000D03*
X149900000Y-136000000D03*
X147360000Y-136000000D03*
X144820000Y-136000000D03*
X142280000Y-136000000D03*
X139740000Y-136000000D03*
X137200000Y-136000000D03*
X134660000Y-136000000D03*
X132120000Y-136000000D03*
X129580000Y-136000000D03*
X127040000Y-136000000D03*
X124500000Y-136000000D03*
X121960000Y-136000000D03*
X119420000Y-136000000D03*
X116880000Y-136000000D03*
X114340000Y-136000000D03*
X111800000Y-136000000D03*
X109260000Y-136000000D03*
X106720000Y-136000000D03*
X104180000Y-136000000D03*
X101640000Y-136000000D03*
X99100000Y-136000000D03*
X96560000Y-136000000D03*
X94020000Y-136000000D03*
X91480000Y-136000000D03*
X88940000Y-136000000D03*
D11*
X86400000Y-136000000D03*
D10*
X185460000Y-46000000D03*
X182920000Y-46000000D03*
X180380000Y-46000000D03*
X177840000Y-46000000D03*
X175300000Y-46000000D03*
X172760000Y-46000000D03*
X170220000Y-46000000D03*
X167680000Y-46000000D03*
X165140000Y-46000000D03*
X162600000Y-46000000D03*
X160060000Y-46000000D03*
X157520000Y-46000000D03*
X154980000Y-46000000D03*
X152440000Y-46000000D03*
X149900000Y-46000000D03*
X147360000Y-46000000D03*
X144820000Y-46000000D03*
X142280000Y-46000000D03*
X139740000Y-46000000D03*
X137200000Y-46000000D03*
X134660000Y-46000000D03*
X132120000Y-46000000D03*
X129580000Y-46000000D03*
X127040000Y-46000000D03*
X124500000Y-46000000D03*
X121960000Y-46000000D03*
X119420000Y-46000000D03*
X116880000Y-46000000D03*
X114340000Y-46000000D03*
X111800000Y-46000000D03*
X109260000Y-46000000D03*
X106720000Y-46000000D03*
X104180000Y-46000000D03*
X101640000Y-46000000D03*
X99100000Y-46000000D03*
X96560000Y-46000000D03*
X94020000Y-46000000D03*
X91480000Y-46000000D03*
X88940000Y-46000000D03*
D11*
X86400000Y-46000000D03*
M02*
