M48
; DRILL file {KiCad (5.1.9)-1} date 11/21/21 16:09:23
; FORMAT={-:-/ absolute / metric / decimal}
; #@! TF.CreationDate,2021-11-21T16:09:23-05:00
; #@! TF.GenerationSoftware,Kicad,Pcbnew,(5.1.9)-1
; #@! TF.FileFunction,Plated,1,2,PTH
FMAT,2
METRIC
T1C0.400
T2C0.800
T3C1.000
%
G90
G05
T1
X112.9Y-70.1
X118.8Y-69.2
X127.6Y-80.9
X127.7Y-70.9
X131.9Y-107.4
X136.7Y-113.7
X138.1Y-74.0
X138.15Y-106.35
X143.9Y-113.7
X144.15Y-105.15
X144.442Y-99.04
X151.1Y-113.7
X158.2Y-113.7
X159.7Y-90.2
X159.7Y-120.225
X171.475Y-115.575
X176.4Y-115.6
X179.4Y-60.8
X180.4Y-120.2
T2
X97.3Y-116.08
X97.3Y-123.7
X99.84Y-116.08
X99.84Y-123.7
X102.38Y-116.08
X102.38Y-123.7
X104.92Y-116.08
X104.92Y-123.7
X106.4Y-83.8
X106.4Y-86.34
X106.4Y-88.88
X106.4Y-91.42
X106.4Y-93.96
X106.4Y-96.5
X106.4Y-99.04
X107.3Y-58.88
X107.3Y-66.5
X107.46Y-116.08
X107.46Y-123.7
X109.84Y-58.88
X109.84Y-66.5
X110.0Y-116.08
X110.0Y-123.7
X112.38Y-58.88
X112.38Y-66.5
X112.54Y-116.08
X112.54Y-123.7
X114.02Y-83.8
X114.02Y-86.34
X114.02Y-88.88
X114.02Y-91.42
X114.02Y-93.96
X114.02Y-96.5
X114.02Y-99.04
X114.92Y-58.88
X114.92Y-66.5
X115.08Y-116.08
X115.08Y-123.7
X117.46Y-58.88
X117.46Y-66.5
X117.62Y-116.08
X117.62Y-123.7
X120.0Y-58.88
X120.0Y-66.5
X120.16Y-116.08
X120.16Y-123.7
X122.54Y-58.88
X122.54Y-66.5
X125.08Y-58.88
X125.08Y-66.5
X125.6Y-83.8
X125.6Y-86.34
X125.6Y-88.88
X125.6Y-91.42
X125.6Y-93.96
X125.6Y-96.5
X125.6Y-99.04
X133.22Y-83.8
X133.22Y-86.34
X133.22Y-88.88
X133.22Y-91.42
X133.22Y-93.96
X133.22Y-96.5
X133.22Y-99.04
X141.7Y-58.88
X141.7Y-66.5
X144.24Y-58.88
X144.24Y-66.5
X146.78Y-58.88
X146.78Y-66.5
X148.0Y-81.22
X148.0Y-83.76
X148.0Y-86.3
X148.0Y-88.84
X148.0Y-91.38
X148.0Y-93.92
X148.0Y-96.46
X148.0Y-99.0
X149.32Y-58.88
X149.32Y-66.5
X151.86Y-58.88
X151.86Y-66.5
X154.4Y-58.88
X154.4Y-66.5
X155.62Y-81.22
X155.62Y-83.76
X155.62Y-86.3
X155.62Y-88.84
X155.62Y-91.38
X155.62Y-93.92
X155.62Y-96.46
X155.62Y-99.0
X156.94Y-58.88
X156.94Y-66.5
X169.9Y-78.2
X169.9Y-80.74
X169.9Y-83.28
X169.9Y-85.82
X169.9Y-88.36
X169.9Y-90.9
X169.9Y-93.44
X177.52Y-78.2
X177.52Y-80.74
X177.52Y-83.28
X177.52Y-85.82
X177.52Y-88.36
X177.52Y-90.9
X177.52Y-93.44
T3
X86.4Y-46.0
X86.4Y-136.0
X88.9Y-106.62
X88.9Y-109.16
X88.9Y-111.7
X88.9Y-114.24
X88.9Y-116.78
X88.9Y-119.32
X88.9Y-121.86
X88.9Y-124.4
X88.94Y-46.0
X88.94Y-136.0
X89.0Y-57.6
X89.0Y-60.14
X89.0Y-62.68
X89.0Y-65.22
X89.0Y-67.76
X89.0Y-70.3
X89.0Y-72.84
X89.0Y-75.38
X91.48Y-46.0
X91.48Y-136.0
X94.02Y-46.0
X94.02Y-136.0
X96.56Y-46.0
X96.56Y-136.0
X99.1Y-46.0
X99.1Y-136.0
X101.64Y-46.0
X101.64Y-136.0
X104.18Y-46.0
X104.18Y-136.0
X106.72Y-46.0
X106.72Y-136.0
X109.26Y-46.0
X109.26Y-136.0
X111.8Y-46.0
X111.8Y-136.0
X114.34Y-46.0
X114.34Y-136.0
X116.88Y-46.0
X116.88Y-136.0
X119.42Y-46.0
X119.42Y-136.0
X121.96Y-46.0
X121.96Y-136.0
X124.5Y-46.0
X124.5Y-136.0
X127.04Y-46.0
X127.04Y-136.0
X129.58Y-46.0
X129.58Y-136.0
X132.12Y-46.0
X132.12Y-136.0
X134.66Y-46.0
X134.66Y-136.0
X137.2Y-46.0
X137.2Y-136.0
X139.74Y-46.0
X139.74Y-136.0
X142.28Y-46.0
X142.28Y-136.0
X144.82Y-46.0
X144.82Y-136.0
X147.36Y-46.0
X147.36Y-136.0
X149.9Y-46.0
X149.9Y-136.0
X152.44Y-46.0
X152.44Y-136.0
X154.98Y-46.0
X154.98Y-136.0
X157.52Y-46.0
X157.52Y-136.0
X160.06Y-46.0
X160.06Y-136.0
X162.6Y-46.0
X162.6Y-136.0
X165.14Y-46.0
X165.14Y-136.0
X167.68Y-46.0
X167.68Y-136.0
X170.22Y-46.0
X170.22Y-136.0
X172.76Y-46.0
X172.76Y-136.0
X175.3Y-46.0
X175.3Y-136.0
X177.84Y-46.0
X177.84Y-136.0
X180.38Y-46.0
X180.38Y-136.0
X182.92Y-46.0
X182.92Y-136.0
X185.46Y-46.0
X185.46Y-136.0
T0
M30
