G04 #@! TF.GenerationSoftware,KiCad,Pcbnew,(5.1.9)-1*
G04 #@! TF.CreationDate,2021-11-21T16:09:14-05:00*
G04 #@! TF.ProjectId,flags,666c6167-732e-46b6-9963-61645f706362,1.0*
G04 #@! TF.SameCoordinates,Original*
G04 #@! TF.FileFunction,Legend,Bot*
G04 #@! TF.FilePolarity,Positive*
%FSLAX46Y46*%
G04 Gerber Fmt 4.6, Leading zero omitted, Abs format (unit mm)*
G04 Created by KiCad (PCBNEW (5.1.9)-1) date 2021-11-21 16:09:14*
%MOMM*%
%LPD*%
G01*
G04 APERTURE LIST*
%ADD10C,0.150000*%
%ADD11C,0.120000*%
%ADD12O,1.700000X1.700000*%
%ADD13R,1.700000X1.700000*%
%ADD14O,1.600000X1.600000*%
%ADD15R,1.600000X1.600000*%
G04 APERTURE END LIST*
D10*
X181315000Y-134102500D02*
X181315000Y-133340595D01*
X180947619Y-133578690D02*
X180233333Y-133578690D01*
X180090476Y-133626309D01*
X179995238Y-133721547D01*
X179947619Y-133864404D01*
X179947619Y-133959642D01*
X181315000Y-133340595D02*
X181315000Y-132197738D01*
X179947619Y-133102500D02*
X180947619Y-133102500D01*
X180233333Y-132769166D01*
X180947619Y-132435833D01*
X179947619Y-132435833D01*
X181315000Y-132197738D02*
X181315000Y-131197738D01*
X179947619Y-131959642D02*
X180947619Y-131959642D01*
X180947619Y-131578690D01*
X180900000Y-131483452D01*
X180852380Y-131435833D01*
X180757142Y-131388214D01*
X180614285Y-131388214D01*
X180519047Y-131435833D01*
X180471428Y-131483452D01*
X180423809Y-131578690D01*
X180423809Y-131959642D01*
X179485000Y-48097500D02*
X179485000Y-48859404D01*
X179852380Y-48621309D02*
X180566666Y-48621309D01*
X180709523Y-48573690D01*
X180804761Y-48478452D01*
X180852380Y-48335595D01*
X180852380Y-48240357D01*
X179485000Y-48859404D02*
X179485000Y-50002261D01*
X180852380Y-49097500D02*
X179852380Y-49097500D01*
X180566666Y-49430833D01*
X179852380Y-49764166D01*
X180852380Y-49764166D01*
X179485000Y-50002261D02*
X179485000Y-51002261D01*
X180852380Y-50240357D02*
X179852380Y-50240357D01*
X179852380Y-50621309D01*
X179900000Y-50716547D01*
X179947619Y-50764166D01*
X180042857Y-50811785D01*
X180185714Y-50811785D01*
X180280952Y-50764166D01*
X180328571Y-50716547D01*
X180376190Y-50621309D01*
X180376190Y-50240357D01*
X147704761Y-48287976D02*
X147752380Y-48430833D01*
X147752380Y-48668928D01*
X147704761Y-48764166D01*
X147657142Y-48811785D01*
X147561904Y-48859404D01*
X147466666Y-48859404D01*
X147371428Y-48811785D01*
X147323809Y-48764166D01*
X147276190Y-48668928D01*
X147228571Y-48478452D01*
X147180952Y-48383214D01*
X147133333Y-48335595D01*
X147038095Y-48287976D01*
X146942857Y-48287976D01*
X146847619Y-48335595D01*
X146800000Y-48383214D01*
X146752380Y-48478452D01*
X146752380Y-48716547D01*
X146800000Y-48859404D01*
X147228571Y-49287976D02*
X147228571Y-49621309D01*
X147752380Y-49764166D02*
X147752380Y-49287976D01*
X146752380Y-49287976D01*
X146752380Y-49764166D01*
X146895238Y-133912023D02*
X146847619Y-133769166D01*
X146847619Y-133531071D01*
X146895238Y-133435833D01*
X146942857Y-133388214D01*
X147038095Y-133340595D01*
X147133333Y-133340595D01*
X147228571Y-133388214D01*
X147276190Y-133435833D01*
X147323809Y-133531071D01*
X147371428Y-133721547D01*
X147419047Y-133816785D01*
X147466666Y-133864404D01*
X147561904Y-133912023D01*
X147657142Y-133912023D01*
X147752380Y-133864404D01*
X147800000Y-133816785D01*
X147847619Y-133721547D01*
X147847619Y-133483452D01*
X147800000Y-133340595D01*
X147371428Y-132912023D02*
X147371428Y-132578690D01*
X146847619Y-132435833D02*
X146847619Y-132912023D01*
X147847619Y-132912023D01*
X147847619Y-132435833D01*
X97052380Y-48335595D02*
X96052380Y-48335595D01*
X96052380Y-48573690D01*
X96100000Y-48716547D01*
X96195238Y-48811785D01*
X96290476Y-48859404D01*
X96480952Y-48907023D01*
X96623809Y-48907023D01*
X96814285Y-48859404D01*
X96909523Y-48811785D01*
X97004761Y-48716547D01*
X97052380Y-48573690D01*
X97052380Y-48335595D01*
X96052380Y-49764166D02*
X96052380Y-49573690D01*
X96100000Y-49478452D01*
X96147619Y-49430833D01*
X96290476Y-49335595D01*
X96480952Y-49287976D01*
X96861904Y-49287976D01*
X96957142Y-49335595D01*
X97004761Y-49383214D01*
X97052380Y-49478452D01*
X97052380Y-49668928D01*
X97004761Y-49764166D01*
X96957142Y-49811785D01*
X96861904Y-49859404D01*
X96623809Y-49859404D01*
X96528571Y-49811785D01*
X96480952Y-49764166D01*
X96433333Y-49668928D01*
X96433333Y-49478452D01*
X96480952Y-49383214D01*
X96528571Y-49335595D01*
X96623809Y-49287976D01*
X116352380Y-48240357D02*
X117352380Y-48478452D01*
X116638095Y-48668928D01*
X117352380Y-48859404D01*
X116352380Y-49097500D01*
X117352380Y-50049880D02*
X116876190Y-49716547D01*
X117352380Y-49478452D02*
X116352380Y-49478452D01*
X116352380Y-49859404D01*
X116400000Y-49954642D01*
X116447619Y-50002261D01*
X116542857Y-50049880D01*
X116685714Y-50049880D01*
X116780952Y-50002261D01*
X116828571Y-49954642D01*
X116876190Y-49859404D01*
X116876190Y-49478452D01*
X116447619Y-50430833D02*
X116400000Y-50478452D01*
X116352380Y-50573690D01*
X116352380Y-50811785D01*
X116400000Y-50907023D01*
X116447619Y-50954642D01*
X116542857Y-51002261D01*
X116638095Y-51002261D01*
X116780952Y-50954642D01*
X117352380Y-50383214D01*
X117352380Y-51002261D01*
X127454761Y-48907023D02*
X126978571Y-48573690D01*
X127454761Y-48335595D02*
X126454761Y-48335595D01*
X126454761Y-48716547D01*
X126502381Y-48811785D01*
X126550000Y-48859404D01*
X126645238Y-48907023D01*
X126788095Y-48907023D01*
X126883333Y-48859404D01*
X126930952Y-48811785D01*
X126978571Y-48716547D01*
X126978571Y-48335595D01*
X127454761Y-49907023D02*
X126978571Y-49573690D01*
X127454761Y-49335595D02*
X126454761Y-49335595D01*
X126454761Y-49716547D01*
X126502381Y-49811785D01*
X126550000Y-49859404D01*
X126645238Y-49907023D01*
X126788095Y-49907023D01*
X126883333Y-49859404D01*
X126930952Y-49811785D01*
X126978571Y-49716547D01*
X126978571Y-49335595D01*
X126550000Y-50287976D02*
X126502381Y-50335595D01*
X126454761Y-50430833D01*
X126454761Y-50668928D01*
X126502381Y-50764166D01*
X126550000Y-50811785D01*
X126645238Y-50859404D01*
X126740476Y-50859404D01*
X126883333Y-50811785D01*
X127454761Y-50240357D01*
X127454761Y-50859404D01*
X94552380Y-48335595D02*
X93552380Y-48335595D01*
X93552380Y-48573690D01*
X93600000Y-48716547D01*
X93695238Y-48811785D01*
X93790476Y-48859404D01*
X93980952Y-48907023D01*
X94123809Y-48907023D01*
X94314285Y-48859404D01*
X94409523Y-48811785D01*
X94504761Y-48716547D01*
X94552380Y-48573690D01*
X94552380Y-48335595D01*
X93552380Y-49240357D02*
X93552380Y-49907023D01*
X94552380Y-49478452D01*
X124954761Y-48907023D02*
X124478571Y-48573690D01*
X124954761Y-48335595D02*
X123954761Y-48335595D01*
X123954761Y-48716547D01*
X124002381Y-48811785D01*
X124050000Y-48859404D01*
X124145238Y-48907023D01*
X124288095Y-48907023D01*
X124383333Y-48859404D01*
X124430952Y-48811785D01*
X124478571Y-48716547D01*
X124478571Y-48335595D01*
X124954761Y-49907023D02*
X124478571Y-49573690D01*
X124954761Y-49335595D02*
X123954761Y-49335595D01*
X123954761Y-49716547D01*
X124002381Y-49811785D01*
X124050000Y-49859404D01*
X124145238Y-49907023D01*
X124288095Y-49907023D01*
X124383333Y-49859404D01*
X124430952Y-49811785D01*
X124478571Y-49716547D01*
X124478571Y-49335595D01*
X123954761Y-50240357D02*
X123954761Y-50859404D01*
X124335714Y-50526071D01*
X124335714Y-50668928D01*
X124383333Y-50764166D01*
X124430952Y-50811785D01*
X124526190Y-50859404D01*
X124764285Y-50859404D01*
X124859523Y-50811785D01*
X124907142Y-50764166D01*
X124954761Y-50668928D01*
X124954761Y-50383214D01*
X124907142Y-50287976D01*
X124859523Y-50240357D01*
X112252380Y-48335595D02*
X111252380Y-48335595D01*
X111252380Y-48573690D01*
X111300000Y-48716547D01*
X111395238Y-48811785D01*
X111490476Y-48859404D01*
X111680952Y-48907023D01*
X111823809Y-48907023D01*
X112014285Y-48859404D01*
X112109523Y-48811785D01*
X112204761Y-48716547D01*
X112252380Y-48573690D01*
X112252380Y-48335595D01*
X111252380Y-49526071D02*
X111252380Y-49621309D01*
X111300000Y-49716547D01*
X111347619Y-49764166D01*
X111442857Y-49811785D01*
X111633333Y-49859404D01*
X111871428Y-49859404D01*
X112061904Y-49811785D01*
X112157142Y-49764166D01*
X112204761Y-49716547D01*
X112252380Y-49621309D01*
X112252380Y-49526071D01*
X112204761Y-49430833D01*
X112157142Y-49383214D01*
X112061904Y-49335595D01*
X111871428Y-49287976D01*
X111633333Y-49287976D01*
X111442857Y-49335595D01*
X111347619Y-49383214D01*
X111300000Y-49430833D01*
X111252380Y-49526071D01*
X137128571Y-48668928D02*
X137128571Y-48335595D01*
X137652380Y-48335595D02*
X136652380Y-48335595D01*
X136652380Y-48811785D01*
X136652380Y-49049880D02*
X137652380Y-49383214D01*
X136652380Y-49716547D01*
X113752380Y-48240357D02*
X114752380Y-48478452D01*
X114038095Y-48668928D01*
X114752380Y-48859404D01*
X113752380Y-49097500D01*
X114752380Y-50049880D02*
X114276190Y-49716547D01*
X114752380Y-49478452D02*
X113752380Y-49478452D01*
X113752380Y-49859404D01*
X113800000Y-49954642D01*
X113847619Y-50002261D01*
X113942857Y-50049880D01*
X114085714Y-50049880D01*
X114180952Y-50002261D01*
X114228571Y-49954642D01*
X114276190Y-49859404D01*
X114276190Y-49478452D01*
X113752380Y-50383214D02*
X113752380Y-51002261D01*
X114133333Y-50668928D01*
X114133333Y-50811785D01*
X114180952Y-50907023D01*
X114228571Y-50954642D01*
X114323809Y-51002261D01*
X114561904Y-51002261D01*
X114657142Y-50954642D01*
X114704761Y-50907023D01*
X114752380Y-50811785D01*
X114752380Y-50526071D01*
X114704761Y-50430833D01*
X114657142Y-50383214D01*
X104652380Y-48335595D02*
X103652380Y-48335595D01*
X103652380Y-48573690D01*
X103700000Y-48716547D01*
X103795238Y-48811785D01*
X103890476Y-48859404D01*
X104080952Y-48907023D01*
X104223809Y-48907023D01*
X104414285Y-48859404D01*
X104509523Y-48811785D01*
X104604761Y-48716547D01*
X104652380Y-48573690D01*
X104652380Y-48335595D01*
X103652380Y-49240357D02*
X103652380Y-49859404D01*
X104033333Y-49526071D01*
X104033333Y-49668928D01*
X104080952Y-49764166D01*
X104128571Y-49811785D01*
X104223809Y-49859404D01*
X104461904Y-49859404D01*
X104557142Y-49811785D01*
X104604761Y-49764166D01*
X104652380Y-49668928D01*
X104652380Y-49383214D01*
X104604761Y-49287976D01*
X104557142Y-49240357D01*
X107252380Y-48335595D02*
X106252380Y-48335595D01*
X106252380Y-48573690D01*
X106300000Y-48716547D01*
X106395238Y-48811785D01*
X106490476Y-48859404D01*
X106680952Y-48907023D01*
X106823809Y-48907023D01*
X107014285Y-48859404D01*
X107109523Y-48811785D01*
X107204761Y-48716547D01*
X107252380Y-48573690D01*
X107252380Y-48335595D01*
X106347619Y-49287976D02*
X106300000Y-49335595D01*
X106252380Y-49430833D01*
X106252380Y-49668928D01*
X106300000Y-49764166D01*
X106347619Y-49811785D01*
X106442857Y-49859404D01*
X106538095Y-49859404D01*
X106680952Y-49811785D01*
X107252380Y-49240357D01*
X107252380Y-49859404D01*
X134528571Y-48668928D02*
X134528571Y-48335595D01*
X135052380Y-48335595D02*
X134052380Y-48335595D01*
X134052380Y-48811785D01*
X135052380Y-49192738D02*
X134052380Y-49192738D01*
X135052380Y-49764166D01*
X134052380Y-49764166D01*
X102052380Y-48335595D02*
X101052380Y-48335595D01*
X101052380Y-48573690D01*
X101100000Y-48716547D01*
X101195238Y-48811785D01*
X101290476Y-48859404D01*
X101480952Y-48907023D01*
X101623809Y-48907023D01*
X101814285Y-48859404D01*
X101909523Y-48811785D01*
X102004761Y-48716547D01*
X102052380Y-48573690D01*
X102052380Y-48335595D01*
X101385714Y-49764166D02*
X102052380Y-49764166D01*
X101004761Y-49526071D02*
X101719047Y-49287976D01*
X101719047Y-49907023D01*
X130054761Y-48907023D02*
X129578571Y-48573690D01*
X130054761Y-48335595D02*
X129054761Y-48335595D01*
X129054761Y-48716547D01*
X129102381Y-48811785D01*
X129150000Y-48859404D01*
X129245238Y-48907023D01*
X129388095Y-48907023D01*
X129483333Y-48859404D01*
X129530952Y-48811785D01*
X129578571Y-48716547D01*
X129578571Y-48335595D01*
X130054761Y-49907023D02*
X129578571Y-49573690D01*
X130054761Y-49335595D02*
X129054761Y-49335595D01*
X129054761Y-49716547D01*
X129102381Y-49811785D01*
X129150000Y-49859404D01*
X129245238Y-49907023D01*
X129388095Y-49907023D01*
X129483333Y-49859404D01*
X129530952Y-49811785D01*
X129578571Y-49716547D01*
X129578571Y-49335595D01*
X130054761Y-50859404D02*
X130054761Y-50287976D01*
X130054761Y-50573690D02*
X129054761Y-50573690D01*
X129197619Y-50478452D01*
X129292857Y-50383214D01*
X129340476Y-50287976D01*
X118852380Y-48240357D02*
X119852380Y-48478452D01*
X119138095Y-48668928D01*
X119852380Y-48859404D01*
X118852380Y-49097500D01*
X119852380Y-50049880D02*
X119376190Y-49716547D01*
X119852380Y-49478452D02*
X118852380Y-49478452D01*
X118852380Y-49859404D01*
X118900000Y-49954642D01*
X118947619Y-50002261D01*
X119042857Y-50049880D01*
X119185714Y-50049880D01*
X119280952Y-50002261D01*
X119328571Y-49954642D01*
X119376190Y-49859404D01*
X119376190Y-49478452D01*
X119852380Y-51002261D02*
X119852380Y-50430833D01*
X119852380Y-50716547D02*
X118852380Y-50716547D01*
X118995238Y-50621309D01*
X119090476Y-50526071D01*
X119138095Y-50430833D01*
X121497618Y-48240357D02*
X122497618Y-48478452D01*
X121783333Y-48668928D01*
X122497618Y-48859404D01*
X121497618Y-49097500D01*
X122497618Y-50049880D02*
X122021428Y-49716547D01*
X122497618Y-49478452D02*
X121497618Y-49478452D01*
X121497618Y-49859404D01*
X121545238Y-49954642D01*
X121592857Y-50002261D01*
X121688095Y-50049880D01*
X121830952Y-50049880D01*
X121926190Y-50002261D01*
X121973809Y-49954642D01*
X122021428Y-49859404D01*
X122021428Y-49478452D01*
X121497618Y-50668928D02*
X121497618Y-50764166D01*
X121545238Y-50859404D01*
X121592857Y-50907023D01*
X121688095Y-50954642D01*
X121878571Y-51002261D01*
X122116666Y-51002261D01*
X122307142Y-50954642D01*
X122402380Y-50907023D01*
X122449999Y-50859404D01*
X122497618Y-50764166D01*
X122497618Y-50668928D01*
X122449999Y-50573690D01*
X122402380Y-50526071D01*
X122307142Y-50478452D01*
X122116666Y-50430833D01*
X121878571Y-50430833D01*
X121688095Y-50478452D01*
X121592857Y-50526071D01*
X121545238Y-50573690D01*
X121497618Y-50668928D01*
X85900000Y-48859404D02*
X85852380Y-48764166D01*
X85852380Y-48621309D01*
X85900000Y-48478452D01*
X85995238Y-48383214D01*
X86090476Y-48335595D01*
X86280952Y-48287976D01*
X86423809Y-48287976D01*
X86614285Y-48335595D01*
X86709523Y-48383214D01*
X86804761Y-48478452D01*
X86852380Y-48621309D01*
X86852380Y-48716547D01*
X86804761Y-48859404D01*
X86757142Y-48907023D01*
X86423809Y-48907023D01*
X86423809Y-48716547D01*
X86852380Y-49335595D02*
X85852380Y-49335595D01*
X86852380Y-49907023D01*
X85852380Y-49907023D01*
X86852380Y-50383214D02*
X85852380Y-50383214D01*
X85852380Y-50621309D01*
X85900000Y-50764166D01*
X85995238Y-50859404D01*
X86090476Y-50907023D01*
X86280952Y-50954642D01*
X86423809Y-50954642D01*
X86614285Y-50907023D01*
X86709523Y-50859404D01*
X86804761Y-50764166D01*
X86852380Y-50621309D01*
X86852380Y-50383214D01*
X109752380Y-48335595D02*
X108752380Y-48335595D01*
X108752380Y-48573690D01*
X108800000Y-48716547D01*
X108895238Y-48811785D01*
X108990476Y-48859404D01*
X109180952Y-48907023D01*
X109323809Y-48907023D01*
X109514285Y-48859404D01*
X109609523Y-48811785D01*
X109704761Y-48716547D01*
X109752380Y-48573690D01*
X109752380Y-48335595D01*
X109752380Y-49859404D02*
X109752380Y-49287976D01*
X109752380Y-49573690D02*
X108752380Y-49573690D01*
X108895238Y-49478452D01*
X108990476Y-49383214D01*
X109038095Y-49287976D01*
X99552380Y-48335595D02*
X98552380Y-48335595D01*
X98552380Y-48573690D01*
X98600000Y-48716547D01*
X98695238Y-48811785D01*
X98790476Y-48859404D01*
X98980952Y-48907023D01*
X99123809Y-48907023D01*
X99314285Y-48859404D01*
X99409523Y-48811785D01*
X99504761Y-48716547D01*
X99552380Y-48573690D01*
X99552380Y-48335595D01*
X98552380Y-49811785D02*
X98552380Y-49335595D01*
X99028571Y-49287976D01*
X98980952Y-49335595D01*
X98933333Y-49430833D01*
X98933333Y-49668928D01*
X98980952Y-49764166D01*
X99028571Y-49811785D01*
X99123809Y-49859404D01*
X99361904Y-49859404D01*
X99457142Y-49811785D01*
X99504761Y-49764166D01*
X99552380Y-49668928D01*
X99552380Y-49430833D01*
X99504761Y-49335595D01*
X99457142Y-49287976D01*
X132554761Y-48907023D02*
X132078571Y-48573690D01*
X132554761Y-48335595D02*
X131554761Y-48335595D01*
X131554761Y-48716547D01*
X131602381Y-48811785D01*
X131650000Y-48859404D01*
X131745238Y-48907023D01*
X131888095Y-48907023D01*
X131983333Y-48859404D01*
X132030952Y-48811785D01*
X132078571Y-48716547D01*
X132078571Y-48335595D01*
X132554761Y-49907023D02*
X132078571Y-49573690D01*
X132554761Y-49335595D02*
X131554761Y-49335595D01*
X131554761Y-49716547D01*
X131602381Y-49811785D01*
X131650000Y-49859404D01*
X131745238Y-49907023D01*
X131888095Y-49907023D01*
X131983333Y-49859404D01*
X132030952Y-49811785D01*
X132078571Y-49716547D01*
X132078571Y-49335595D01*
X131554761Y-50526071D02*
X131554761Y-50621309D01*
X131602381Y-50716547D01*
X131650000Y-50764166D01*
X131745238Y-50811785D01*
X131935714Y-50859404D01*
X132173809Y-50859404D01*
X132364285Y-50811785D01*
X132459523Y-50764166D01*
X132507142Y-50716547D01*
X132554761Y-50621309D01*
X132554761Y-50526071D01*
X132507142Y-50430833D01*
X132459523Y-50383214D01*
X132364285Y-50335595D01*
X132173809Y-50287976D01*
X131935714Y-50287976D01*
X131745238Y-50335595D01*
X131650000Y-50383214D01*
X131602381Y-50430833D01*
X131554761Y-50526071D01*
X170652380Y-48335595D02*
X169652380Y-48335595D01*
X170652380Y-48907023D01*
X169652380Y-48907023D01*
X173152380Y-48335595D02*
X172152380Y-48335595D01*
X172152380Y-48716547D01*
X172200000Y-48811785D01*
X172247619Y-48859404D01*
X172342857Y-48907023D01*
X172485714Y-48907023D01*
X172580952Y-48859404D01*
X172628571Y-48811785D01*
X172676190Y-48716547D01*
X172676190Y-48335595D01*
X173152380Y-49335595D02*
X172152380Y-49335595D01*
X181985000Y-48097500D02*
X181985000Y-49097500D01*
X183352380Y-48907023D02*
X182876190Y-48573690D01*
X183352380Y-48335595D02*
X182352380Y-48335595D01*
X182352380Y-48716547D01*
X182400000Y-48811785D01*
X182447619Y-48859404D01*
X182542857Y-48907023D01*
X182685714Y-48907023D01*
X182780952Y-48859404D01*
X182828571Y-48811785D01*
X182876190Y-48716547D01*
X182876190Y-48335595D01*
X181985000Y-49097500D02*
X181985000Y-50049880D01*
X183304761Y-49287976D02*
X183352380Y-49430833D01*
X183352380Y-49668928D01*
X183304761Y-49764166D01*
X183257142Y-49811785D01*
X183161904Y-49859404D01*
X183066666Y-49859404D01*
X182971428Y-49811785D01*
X182923809Y-49764166D01*
X182876190Y-49668928D01*
X182828571Y-49478452D01*
X182780952Y-49383214D01*
X182733333Y-49335595D01*
X182638095Y-49287976D01*
X182542857Y-49287976D01*
X182447619Y-49335595D01*
X182400000Y-49383214D01*
X182352380Y-49478452D01*
X182352380Y-49716547D01*
X182400000Y-49859404D01*
X181985000Y-50049880D02*
X181985000Y-50811785D01*
X182352380Y-50145119D02*
X182352380Y-50716547D01*
X183352380Y-50430833D02*
X182352380Y-50430833D01*
X165552380Y-48811785D02*
X165552380Y-48335595D01*
X164552380Y-48335595D01*
X165028571Y-49478452D02*
X165028571Y-49145119D01*
X165552380Y-49145119D02*
X164552380Y-49145119D01*
X164552380Y-49621309D01*
X166785000Y-48097500D02*
X166785000Y-48859404D01*
X167152380Y-48621309D02*
X167866666Y-48621309D01*
X168009523Y-48573690D01*
X168104761Y-48478452D01*
X168152380Y-48335595D01*
X168152380Y-48240357D01*
X166785000Y-48859404D02*
X166785000Y-49764166D01*
X167628571Y-49097500D02*
X167628571Y-49430833D01*
X168152380Y-49573690D02*
X168152380Y-49097500D01*
X167152380Y-49097500D01*
X167152380Y-49573690D01*
X185571428Y-48335595D02*
X185571428Y-49097500D01*
X185952380Y-48716547D02*
X185190476Y-48716547D01*
X184952380Y-50049880D02*
X184952380Y-49573690D01*
X185428571Y-49526071D01*
X185380952Y-49573690D01*
X185333333Y-49668928D01*
X185333333Y-49907023D01*
X185380952Y-50002261D01*
X185428571Y-50049880D01*
X185523809Y-50097500D01*
X185761904Y-50097500D01*
X185857142Y-50049880D01*
X185904761Y-50002261D01*
X185952380Y-49907023D01*
X185952380Y-49668928D01*
X185904761Y-49573690D01*
X185857142Y-49526071D01*
X184952380Y-50383214D02*
X185952380Y-50716547D01*
X184952380Y-51049880D01*
X150259523Y-48907023D02*
X150307142Y-48859404D01*
X150354761Y-48716547D01*
X150354761Y-48621309D01*
X150307142Y-48478452D01*
X150211904Y-48383214D01*
X150116666Y-48335595D01*
X149926190Y-48287976D01*
X149783333Y-48287976D01*
X149592857Y-48335595D01*
X149497619Y-48383214D01*
X149402381Y-48478452D01*
X149354761Y-48621309D01*
X149354761Y-48716547D01*
X149402381Y-48859404D01*
X149450000Y-48907023D01*
X150354761Y-49859404D02*
X150354761Y-49287976D01*
X150354761Y-49573690D02*
X149354761Y-49573690D01*
X149497619Y-49478452D01*
X149592857Y-49383214D01*
X149640476Y-49287976D01*
X155357142Y-48907023D02*
X155404761Y-48859404D01*
X155452380Y-48716547D01*
X155452380Y-48621309D01*
X155404761Y-48478452D01*
X155309523Y-48383214D01*
X155214285Y-48335595D01*
X155023809Y-48287976D01*
X154880952Y-48287976D01*
X154690476Y-48335595D01*
X154595238Y-48383214D01*
X154500000Y-48478452D01*
X154452380Y-48621309D01*
X154452380Y-48716547D01*
X154500000Y-48859404D01*
X154547619Y-48907023D01*
X155404761Y-49287976D02*
X155452380Y-49430833D01*
X155452380Y-49668928D01*
X155404761Y-49764166D01*
X155357142Y-49811785D01*
X155261904Y-49859404D01*
X155166666Y-49859404D01*
X155071428Y-49811785D01*
X155023809Y-49764166D01*
X154976190Y-49668928D01*
X154928571Y-49478452D01*
X154880952Y-49383214D01*
X154833333Y-49335595D01*
X154738095Y-49287976D01*
X154642857Y-49287976D01*
X154547619Y-49335595D01*
X154500000Y-49383214D01*
X154452380Y-49478452D01*
X154452380Y-49716547D01*
X154500000Y-49859404D01*
X163052380Y-48335595D02*
X162052380Y-48335595D01*
X162766666Y-48668928D01*
X162052380Y-49002261D01*
X163052380Y-49002261D01*
X162052380Y-49668928D02*
X162052380Y-49764166D01*
X162100000Y-49859404D01*
X162147619Y-49907023D01*
X162242857Y-49954642D01*
X162433333Y-50002261D01*
X162671428Y-50002261D01*
X162861904Y-49954642D01*
X162957142Y-49907023D01*
X163004761Y-49859404D01*
X163052380Y-49764166D01*
X163052380Y-49668928D01*
X163004761Y-49573690D01*
X162957142Y-49526071D01*
X162861904Y-49478452D01*
X162671428Y-49430833D01*
X162433333Y-49430833D01*
X162242857Y-49478452D01*
X162147619Y-49526071D01*
X162100000Y-49573690D01*
X162052380Y-49668928D01*
X152757142Y-48907023D02*
X152804761Y-48859404D01*
X152852380Y-48716547D01*
X152852380Y-48621309D01*
X152804761Y-48478452D01*
X152709523Y-48383214D01*
X152614285Y-48335595D01*
X152423809Y-48287976D01*
X152280952Y-48287976D01*
X152090476Y-48335595D01*
X151995238Y-48383214D01*
X151900000Y-48478452D01*
X151852380Y-48621309D01*
X151852380Y-48716547D01*
X151900000Y-48859404D01*
X151947619Y-48907023D01*
X151852380Y-49526071D02*
X151852380Y-49621309D01*
X151900000Y-49716547D01*
X151947619Y-49764166D01*
X152042857Y-49811785D01*
X152233333Y-49859404D01*
X152471428Y-49859404D01*
X152661904Y-49811785D01*
X152757142Y-49764166D01*
X152804761Y-49716547D01*
X152852380Y-49621309D01*
X152852380Y-49526071D01*
X152804761Y-49430833D01*
X152757142Y-49383214D01*
X152661904Y-49335595D01*
X152471428Y-49287976D01*
X152233333Y-49287976D01*
X152042857Y-49335595D01*
X151947619Y-49383214D01*
X151900000Y-49430833D01*
X151852380Y-49526071D01*
X160452380Y-48335595D02*
X159452380Y-48335595D01*
X160166666Y-48668928D01*
X159452380Y-49002261D01*
X160452380Y-49002261D01*
X160452380Y-50002261D02*
X160452380Y-49430833D01*
X160452380Y-49716547D02*
X159452380Y-49716547D01*
X159595238Y-49621309D01*
X159690476Y-49526071D01*
X159738095Y-49430833D01*
X175657142Y-48907023D02*
X175704761Y-48859404D01*
X175752380Y-48716547D01*
X175752380Y-48621309D01*
X175704761Y-48478452D01*
X175609523Y-48383214D01*
X175514285Y-48335595D01*
X175323809Y-48287976D01*
X175180952Y-48287976D01*
X174990476Y-48335595D01*
X174895238Y-48383214D01*
X174800000Y-48478452D01*
X174752380Y-48621309D01*
X174752380Y-48716547D01*
X174800000Y-48859404D01*
X174847619Y-48907023D01*
X175752380Y-49811785D02*
X175752380Y-49335595D01*
X174752380Y-49335595D01*
X175752380Y-50145119D02*
X174752380Y-50145119D01*
X175752380Y-50716547D02*
X175180952Y-50287976D01*
X174752380Y-50716547D02*
X175323809Y-50145119D01*
X139628571Y-48668928D02*
X139628571Y-48335595D01*
X140152380Y-48335595D02*
X139152380Y-48335595D01*
X139152380Y-48811785D01*
X139152380Y-49097500D02*
X139152380Y-49764166D01*
X140152380Y-49097500D01*
X140152380Y-49764166D01*
X144728571Y-48668928D02*
X144728571Y-48335595D01*
X145252380Y-48335595D02*
X144252380Y-48335595D01*
X144252380Y-48811785D01*
X144728571Y-49526071D02*
X144776190Y-49668928D01*
X144823809Y-49716547D01*
X144919047Y-49764166D01*
X145061904Y-49764166D01*
X145157142Y-49716547D01*
X145204761Y-49668928D01*
X145252380Y-49573690D01*
X145252380Y-49192738D01*
X144252380Y-49192738D01*
X144252380Y-49526071D01*
X144300000Y-49621309D01*
X144347619Y-49668928D01*
X144442857Y-49716547D01*
X144538095Y-49716547D01*
X144633333Y-49668928D01*
X144680952Y-49621309D01*
X144728571Y-49526071D01*
X144728571Y-49192738D01*
X142228571Y-48668928D02*
X142228571Y-48335595D01*
X142752380Y-48335595D02*
X141752380Y-48335595D01*
X141752380Y-48811785D01*
X142657142Y-49764166D02*
X142704761Y-49716547D01*
X142752380Y-49573690D01*
X142752380Y-49478452D01*
X142704761Y-49335595D01*
X142609523Y-49240357D01*
X142514285Y-49192738D01*
X142323809Y-49145119D01*
X142180952Y-49145119D01*
X141990476Y-49192738D01*
X141895238Y-49240357D01*
X141800000Y-49335595D01*
X141752380Y-49478452D01*
X141752380Y-49573690D01*
X141800000Y-49716547D01*
X141847619Y-49764166D01*
X157907142Y-48907023D02*
X157954761Y-48859404D01*
X158002380Y-48716547D01*
X158002380Y-48621309D01*
X157954761Y-48478452D01*
X157859523Y-48383214D01*
X157764285Y-48335595D01*
X157573809Y-48287976D01*
X157430952Y-48287976D01*
X157240476Y-48335595D01*
X157145238Y-48383214D01*
X157050000Y-48478452D01*
X157002380Y-48621309D01*
X157002380Y-48716547D01*
X157050000Y-48859404D01*
X157097619Y-48907023D01*
X157907142Y-49907023D02*
X157954761Y-49859404D01*
X158002380Y-49716547D01*
X158002380Y-49621309D01*
X157954761Y-49478452D01*
X157859523Y-49383214D01*
X157764285Y-49335595D01*
X157573809Y-49287976D01*
X157430952Y-49287976D01*
X157240476Y-49335595D01*
X157145238Y-49383214D01*
X157050000Y-49478452D01*
X157002380Y-49621309D01*
X157002380Y-49716547D01*
X157050000Y-49859404D01*
X157097619Y-49907023D01*
X162054762Y-133864404D02*
X163054762Y-133864404D01*
X162340476Y-133531071D01*
X163054762Y-133197738D01*
X162054762Y-133197738D01*
X163054762Y-132531071D02*
X163054762Y-132435833D01*
X163007143Y-132340595D01*
X162959523Y-132292976D01*
X162864285Y-132245357D01*
X162673809Y-132197738D01*
X162435714Y-132197738D01*
X162245238Y-132245357D01*
X162150000Y-132292976D01*
X162102381Y-132340595D01*
X162054762Y-132435833D01*
X162054762Y-132531071D01*
X162102381Y-132626309D01*
X162150000Y-132673928D01*
X162245238Y-132721547D01*
X162435714Y-132769166D01*
X162673809Y-132769166D01*
X162864285Y-132721547D01*
X162959523Y-132673928D01*
X163007143Y-132626309D01*
X163054762Y-132531071D01*
X129150000Y-133292976D02*
X129626190Y-133626309D01*
X129150000Y-133864404D02*
X130150000Y-133864404D01*
X130150000Y-133483452D01*
X130102381Y-133388214D01*
X130054761Y-133340595D01*
X129959523Y-133292976D01*
X129816666Y-133292976D01*
X129721428Y-133340595D01*
X129673809Y-133388214D01*
X129626190Y-133483452D01*
X129626190Y-133864404D01*
X129150000Y-132292976D02*
X129626190Y-132626309D01*
X129150000Y-132864404D02*
X130150000Y-132864404D01*
X130150000Y-132483452D01*
X130102381Y-132388214D01*
X130054761Y-132340595D01*
X129959523Y-132292976D01*
X129816666Y-132292976D01*
X129721428Y-132340595D01*
X129673809Y-132388214D01*
X129626190Y-132483452D01*
X129626190Y-132864404D01*
X129150000Y-131340595D02*
X129150000Y-131912023D01*
X129150000Y-131626309D02*
X130150000Y-131626309D01*
X130007142Y-131721547D01*
X129911904Y-131816785D01*
X129864285Y-131912023D01*
X154645238Y-133292976D02*
X154597619Y-133340595D01*
X154550000Y-133483452D01*
X154550000Y-133578690D01*
X154597619Y-133721547D01*
X154692857Y-133816785D01*
X154788095Y-133864404D01*
X154978571Y-133912023D01*
X155121428Y-133912023D01*
X155311904Y-133864404D01*
X155407142Y-133816785D01*
X155502381Y-133721547D01*
X155550000Y-133578690D01*
X155550000Y-133483452D01*
X155502381Y-133340595D01*
X155454761Y-133292976D01*
X154597619Y-132912023D02*
X154550000Y-132769166D01*
X154550000Y-132531071D01*
X154597619Y-132435833D01*
X154645238Y-132388214D01*
X154740476Y-132340595D01*
X154835714Y-132340595D01*
X154930952Y-132388214D01*
X154978571Y-132435833D01*
X155026190Y-132531071D01*
X155073809Y-132721547D01*
X155121428Y-132816785D01*
X155169047Y-132864404D01*
X155264285Y-132912023D01*
X155359523Y-132912023D01*
X155454761Y-132864404D01*
X155502381Y-132816785D01*
X155550000Y-132721547D01*
X155550000Y-132483452D01*
X155502381Y-132340595D01*
X86900000Y-133340595D02*
X86947619Y-133435833D01*
X86947619Y-133578690D01*
X86900000Y-133721547D01*
X86804761Y-133816785D01*
X86709523Y-133864404D01*
X86519047Y-133912023D01*
X86376190Y-133912023D01*
X86185714Y-133864404D01*
X86090476Y-133816785D01*
X85995238Y-133721547D01*
X85947619Y-133578690D01*
X85947619Y-133483452D01*
X85995238Y-133340595D01*
X86042857Y-133292976D01*
X86376190Y-133292976D01*
X86376190Y-133483452D01*
X85947619Y-132864404D02*
X86947619Y-132864404D01*
X85947619Y-132292976D01*
X86947619Y-132292976D01*
X85947619Y-131816785D02*
X86947619Y-131816785D01*
X86947619Y-131578690D01*
X86900000Y-131435833D01*
X86804761Y-131340595D01*
X86709523Y-131292976D01*
X86519047Y-131245357D01*
X86376190Y-131245357D01*
X86185714Y-131292976D01*
X86090476Y-131340595D01*
X85995238Y-131435833D01*
X85947619Y-131578690D01*
X85947619Y-131816785D01*
X142478571Y-133531071D02*
X142478571Y-133864404D01*
X141954762Y-133864404D02*
X142954762Y-133864404D01*
X142954762Y-133388214D01*
X142050000Y-132435833D02*
X142002381Y-132483452D01*
X141954762Y-132626309D01*
X141954762Y-132721547D01*
X142002381Y-132864404D01*
X142097619Y-132959642D01*
X142192857Y-133007261D01*
X142383333Y-133054880D01*
X142526190Y-133054880D01*
X142716666Y-133007261D01*
X142811904Y-132959642D01*
X142907143Y-132864404D01*
X142954762Y-132721547D01*
X142954762Y-132626309D01*
X142907143Y-132483452D01*
X142859523Y-132435833D01*
X185428571Y-133864404D02*
X185428571Y-133102500D01*
X185047619Y-133483452D02*
X185809523Y-133483452D01*
X186047619Y-132150119D02*
X186047619Y-132626309D01*
X185571428Y-132673928D01*
X185619047Y-132626309D01*
X185666666Y-132531071D01*
X185666666Y-132292976D01*
X185619047Y-132197738D01*
X185571428Y-132150119D01*
X185476190Y-132102500D01*
X185238095Y-132102500D01*
X185142857Y-132150119D01*
X185095238Y-132197738D01*
X185047619Y-132292976D01*
X185047619Y-132531071D01*
X185095238Y-132626309D01*
X185142857Y-132673928D01*
X186047619Y-131816785D02*
X185047619Y-131483452D01*
X186047619Y-131150119D01*
X137171428Y-133531071D02*
X137171428Y-133864404D01*
X136647619Y-133864404D02*
X137647619Y-133864404D01*
X137647619Y-133388214D01*
X137647619Y-133150119D02*
X136647619Y-132816785D01*
X137647619Y-132483452D01*
X114847619Y-133959642D02*
X113847619Y-133721547D01*
X114561904Y-133531071D01*
X113847619Y-133340595D01*
X114847619Y-133102500D01*
X113847619Y-132150119D02*
X114323809Y-132483452D01*
X113847619Y-132721547D02*
X114847619Y-132721547D01*
X114847619Y-132340595D01*
X114800000Y-132245357D01*
X114752380Y-132197738D01*
X114657142Y-132150119D01*
X114514285Y-132150119D01*
X114419047Y-132197738D01*
X114371428Y-132245357D01*
X114323809Y-132340595D01*
X114323809Y-132721547D01*
X114847619Y-131816785D02*
X114847619Y-131197738D01*
X114466666Y-131531071D01*
X114466666Y-131388214D01*
X114419047Y-131292976D01*
X114371428Y-131245357D01*
X114276190Y-131197738D01*
X114038095Y-131197738D01*
X113942857Y-131245357D01*
X113895238Y-131292976D01*
X113847619Y-131388214D01*
X113847619Y-131673928D01*
X113895238Y-131769166D01*
X113942857Y-131816785D01*
X93547619Y-133864404D02*
X94547619Y-133864404D01*
X94547619Y-133626309D01*
X94500000Y-133483452D01*
X94404761Y-133388214D01*
X94309523Y-133340595D01*
X94119047Y-133292976D01*
X93976190Y-133292976D01*
X93785714Y-133340595D01*
X93690476Y-133388214D01*
X93595238Y-133483452D01*
X93547619Y-133626309D01*
X93547619Y-133864404D01*
X94547619Y-132959642D02*
X94547619Y-132292976D01*
X93547619Y-132721547D01*
X134671428Y-133531071D02*
X134671428Y-133864404D01*
X134147619Y-133864404D02*
X135147619Y-133864404D01*
X135147619Y-133388214D01*
X134147619Y-133007261D02*
X135147619Y-133007261D01*
X134147619Y-132435833D01*
X135147619Y-132435833D01*
X106247619Y-133864404D02*
X107247619Y-133864404D01*
X107247619Y-133626309D01*
X107200000Y-133483452D01*
X107104761Y-133388214D01*
X107009523Y-133340595D01*
X106819047Y-133292976D01*
X106676190Y-133292976D01*
X106485714Y-133340595D01*
X106390476Y-133388214D01*
X106295238Y-133483452D01*
X106247619Y-133626309D01*
X106247619Y-133864404D01*
X107152380Y-132912023D02*
X107200000Y-132864404D01*
X107247619Y-132769166D01*
X107247619Y-132531071D01*
X107200000Y-132435833D01*
X107152380Y-132388214D01*
X107057142Y-132340595D01*
X106961904Y-132340595D01*
X106819047Y-132388214D01*
X106247619Y-132959642D01*
X106247619Y-132340595D01*
X172247619Y-133864404D02*
X173247619Y-133864404D01*
X173247619Y-133483452D01*
X173200000Y-133388214D01*
X173152380Y-133340595D01*
X173057142Y-133292976D01*
X172914285Y-133292976D01*
X172819047Y-133340595D01*
X172771428Y-133388214D01*
X172723809Y-133483452D01*
X172723809Y-133864404D01*
X172247619Y-132864404D02*
X173247619Y-132864404D01*
X98647619Y-133864404D02*
X99647619Y-133864404D01*
X99647619Y-133626309D01*
X99600000Y-133483452D01*
X99504761Y-133388214D01*
X99409523Y-133340595D01*
X99219047Y-133292976D01*
X99076190Y-133292976D01*
X98885714Y-133340595D01*
X98790476Y-133388214D01*
X98695238Y-133483452D01*
X98647619Y-133626309D01*
X98647619Y-133864404D01*
X99647619Y-132388214D02*
X99647619Y-132864404D01*
X99171428Y-132912023D01*
X99219047Y-132864404D01*
X99266666Y-132769166D01*
X99266666Y-132531071D01*
X99219047Y-132435833D01*
X99171428Y-132388214D01*
X99076190Y-132340595D01*
X98838095Y-132340595D01*
X98742857Y-132388214D01*
X98695238Y-132435833D01*
X98647619Y-132531071D01*
X98647619Y-132769166D01*
X98695238Y-132864404D01*
X98742857Y-132912023D01*
X139771428Y-133531071D02*
X139771428Y-133864404D01*
X139247619Y-133864404D02*
X140247619Y-133864404D01*
X140247619Y-133388214D01*
X140247619Y-133102500D02*
X140247619Y-132435833D01*
X139247619Y-133102500D01*
X139247619Y-132435833D01*
X152045238Y-133292976D02*
X151997619Y-133340595D01*
X151950000Y-133483452D01*
X151950000Y-133578690D01*
X151997619Y-133721547D01*
X152092857Y-133816785D01*
X152188095Y-133864404D01*
X152378571Y-133912023D01*
X152521428Y-133912023D01*
X152711904Y-133864404D01*
X152807142Y-133816785D01*
X152902381Y-133721547D01*
X152950000Y-133578690D01*
X152950000Y-133483452D01*
X152902381Y-133340595D01*
X152854761Y-133292976D01*
X152950000Y-132673928D02*
X152950000Y-132578690D01*
X152902381Y-132483452D01*
X152854761Y-132435833D01*
X152759523Y-132388214D01*
X152569047Y-132340595D01*
X152330952Y-132340595D01*
X152140476Y-132388214D01*
X152045238Y-132435833D01*
X151997619Y-132483452D01*
X151950000Y-132578690D01*
X151950000Y-132673928D01*
X151997619Y-132769166D01*
X152045238Y-132816785D01*
X152140476Y-132864404D01*
X152330952Y-132912023D01*
X152569047Y-132912023D01*
X152759523Y-132864404D01*
X152854761Y-132816785D01*
X152902381Y-132769166D01*
X152950000Y-132673928D01*
X183715000Y-134102500D02*
X183715000Y-133102500D01*
X182347619Y-133292976D02*
X182823809Y-133626309D01*
X182347619Y-133864404D02*
X183347619Y-133864404D01*
X183347619Y-133483452D01*
X183300000Y-133388214D01*
X183252380Y-133340595D01*
X183157142Y-133292976D01*
X183014285Y-133292976D01*
X182919047Y-133340595D01*
X182871428Y-133388214D01*
X182823809Y-133483452D01*
X182823809Y-133864404D01*
X183715000Y-133102500D02*
X183715000Y-132150119D01*
X182395238Y-132912023D02*
X182347619Y-132769166D01*
X182347619Y-132531071D01*
X182395238Y-132435833D01*
X182442857Y-132388214D01*
X182538095Y-132340595D01*
X182633333Y-132340595D01*
X182728571Y-132388214D01*
X182776190Y-132435833D01*
X182823809Y-132531071D01*
X182871428Y-132721547D01*
X182919047Y-132816785D01*
X182966666Y-132864404D01*
X183061904Y-132912023D01*
X183157142Y-132912023D01*
X183252380Y-132864404D01*
X183300000Y-132816785D01*
X183347619Y-132721547D01*
X183347619Y-132483452D01*
X183300000Y-132340595D01*
X183715000Y-132150119D02*
X183715000Y-131388214D01*
X183347619Y-132054880D02*
X183347619Y-131483452D01*
X182347619Y-131769166D02*
X183347619Y-131769166D01*
X122547619Y-133959642D02*
X121547619Y-133721547D01*
X122261904Y-133531071D01*
X121547619Y-133340595D01*
X122547619Y-133102500D01*
X121547619Y-132150119D02*
X122023809Y-132483452D01*
X121547619Y-132721547D02*
X122547619Y-132721547D01*
X122547619Y-132340595D01*
X122500000Y-132245357D01*
X122452380Y-132197738D01*
X122357142Y-132150119D01*
X122214285Y-132150119D01*
X122119047Y-132197738D01*
X122071428Y-132245357D01*
X122023809Y-132340595D01*
X122023809Y-132721547D01*
X122547619Y-131531071D02*
X122547619Y-131435833D01*
X122500000Y-131340595D01*
X122452380Y-131292976D01*
X122357142Y-131245357D01*
X122166666Y-131197738D01*
X121928571Y-131197738D01*
X121738095Y-131245357D01*
X121642857Y-131292976D01*
X121595238Y-131340595D01*
X121547619Y-131435833D01*
X121547619Y-131531071D01*
X121595238Y-131626309D01*
X121642857Y-131673928D01*
X121738095Y-131721547D01*
X121928571Y-131769166D01*
X122166666Y-131769166D01*
X122357142Y-131721547D01*
X122452380Y-131673928D01*
X122500000Y-131626309D01*
X122547619Y-131531071D01*
X126550000Y-133292976D02*
X127026190Y-133626309D01*
X126550000Y-133864404D02*
X127550000Y-133864404D01*
X127550000Y-133483452D01*
X127502381Y-133388214D01*
X127454761Y-133340595D01*
X127359523Y-133292976D01*
X127216666Y-133292976D01*
X127121428Y-133340595D01*
X127073809Y-133388214D01*
X127026190Y-133483452D01*
X127026190Y-133864404D01*
X126550000Y-132292976D02*
X127026190Y-132626309D01*
X126550000Y-132864404D02*
X127550000Y-132864404D01*
X127550000Y-132483452D01*
X127502381Y-132388214D01*
X127454761Y-132340595D01*
X127359523Y-132292976D01*
X127216666Y-132292976D01*
X127121428Y-132340595D01*
X127073809Y-132388214D01*
X127026190Y-132483452D01*
X127026190Y-132864404D01*
X127454761Y-131912023D02*
X127502381Y-131864404D01*
X127550000Y-131769166D01*
X127550000Y-131531071D01*
X127502381Y-131435833D01*
X127454761Y-131388214D01*
X127359523Y-131340595D01*
X127264285Y-131340595D01*
X127121428Y-131388214D01*
X126550000Y-131959642D01*
X126550000Y-131340595D01*
X124047619Y-133292976D02*
X124523809Y-133626309D01*
X124047619Y-133864404D02*
X125047619Y-133864404D01*
X125047619Y-133483452D01*
X125000000Y-133388214D01*
X124952380Y-133340595D01*
X124857142Y-133292976D01*
X124714285Y-133292976D01*
X124619047Y-133340595D01*
X124571428Y-133388214D01*
X124523809Y-133483452D01*
X124523809Y-133864404D01*
X124047619Y-132292976D02*
X124523809Y-132626309D01*
X124047619Y-132864404D02*
X125047619Y-132864404D01*
X125047619Y-132483452D01*
X125000000Y-132388214D01*
X124952380Y-132340595D01*
X124857142Y-132292976D01*
X124714285Y-132292976D01*
X124619047Y-132340595D01*
X124571428Y-132388214D01*
X124523809Y-132483452D01*
X124523809Y-132864404D01*
X125047619Y-131959642D02*
X125047619Y-131340595D01*
X124666666Y-131673928D01*
X124666666Y-131531071D01*
X124619047Y-131435833D01*
X124571428Y-131388214D01*
X124476190Y-131340595D01*
X124238095Y-131340595D01*
X124142857Y-131388214D01*
X124095238Y-131435833D01*
X124047619Y-131531071D01*
X124047619Y-131816785D01*
X124095238Y-131912023D01*
X124142857Y-131959642D01*
X131750000Y-133292976D02*
X132226190Y-133626309D01*
X131750000Y-133864404D02*
X132750000Y-133864404D01*
X132750000Y-133483452D01*
X132702381Y-133388214D01*
X132654761Y-133340595D01*
X132559523Y-133292976D01*
X132416666Y-133292976D01*
X132321428Y-133340595D01*
X132273809Y-133388214D01*
X132226190Y-133483452D01*
X132226190Y-133864404D01*
X131750000Y-132292976D02*
X132226190Y-132626309D01*
X131750000Y-132864404D02*
X132750000Y-132864404D01*
X132750000Y-132483452D01*
X132702381Y-132388214D01*
X132654761Y-132340595D01*
X132559523Y-132292976D01*
X132416666Y-132292976D01*
X132321428Y-132340595D01*
X132273809Y-132388214D01*
X132226190Y-132483452D01*
X132226190Y-132864404D01*
X132750000Y-131673928D02*
X132750000Y-131578690D01*
X132702381Y-131483452D01*
X132654761Y-131435833D01*
X132559523Y-131388214D01*
X132369047Y-131340595D01*
X132130952Y-131340595D01*
X131940476Y-131388214D01*
X131845238Y-131435833D01*
X131797619Y-131483452D01*
X131750000Y-131578690D01*
X131750000Y-131673928D01*
X131797619Y-131769166D01*
X131845238Y-131816785D01*
X131940476Y-131864404D01*
X132130952Y-131912023D01*
X132369047Y-131912023D01*
X132559523Y-131864404D01*
X132654761Y-131816785D01*
X132702381Y-131769166D01*
X132750000Y-131673928D01*
X159547619Y-133864404D02*
X160547619Y-133864404D01*
X159833333Y-133531071D01*
X160547619Y-133197738D01*
X159547619Y-133197738D01*
X159547619Y-132197738D02*
X159547619Y-132769166D01*
X159547619Y-132483452D02*
X160547619Y-132483452D01*
X160404761Y-132578690D01*
X160309523Y-132673928D01*
X160261904Y-132769166D01*
X174802381Y-133292976D02*
X174754762Y-133340595D01*
X174707143Y-133483452D01*
X174707143Y-133578690D01*
X174754762Y-133721547D01*
X174850000Y-133816785D01*
X174945238Y-133864404D01*
X175135714Y-133912023D01*
X175278571Y-133912023D01*
X175469047Y-133864404D01*
X175564285Y-133816785D01*
X175659524Y-133721547D01*
X175707143Y-133578690D01*
X175707143Y-133483452D01*
X175659524Y-133340595D01*
X175611904Y-133292976D01*
X174707143Y-132388214D02*
X174707143Y-132864404D01*
X175707143Y-132864404D01*
X174707143Y-132054880D02*
X175707143Y-132054880D01*
X174707143Y-131483452D02*
X175278571Y-131912023D01*
X175707143Y-131483452D02*
X175135714Y-132054880D01*
X108747619Y-133864404D02*
X109747619Y-133864404D01*
X109747619Y-133626309D01*
X109700000Y-133483452D01*
X109604761Y-133388214D01*
X109509523Y-133340595D01*
X109319047Y-133292976D01*
X109176190Y-133292976D01*
X108985714Y-133340595D01*
X108890476Y-133388214D01*
X108795238Y-133483452D01*
X108747619Y-133626309D01*
X108747619Y-133864404D01*
X108747619Y-132340595D02*
X108747619Y-132912023D01*
X108747619Y-132626309D02*
X109747619Y-132626309D01*
X109604761Y-132721547D01*
X109509523Y-132816785D01*
X109461904Y-132912023D01*
X149545238Y-133292976D02*
X149497619Y-133340595D01*
X149450000Y-133483452D01*
X149450000Y-133578690D01*
X149497619Y-133721547D01*
X149592857Y-133816785D01*
X149688095Y-133864404D01*
X149878571Y-133912023D01*
X150021428Y-133912023D01*
X150211904Y-133864404D01*
X150307142Y-133816785D01*
X150402381Y-133721547D01*
X150450000Y-133578690D01*
X150450000Y-133483452D01*
X150402381Y-133340595D01*
X150354761Y-133292976D01*
X149450000Y-132340595D02*
X149450000Y-132912023D01*
X149450000Y-132626309D02*
X150450000Y-132626309D01*
X150307142Y-132721547D01*
X150211904Y-132816785D01*
X150164285Y-132912023D01*
X144878571Y-133531071D02*
X144878571Y-133864404D01*
X144354762Y-133864404D02*
X145354762Y-133864404D01*
X145354762Y-133388214D01*
X144878571Y-132673928D02*
X144830952Y-132531071D01*
X144783333Y-132483452D01*
X144688095Y-132435833D01*
X144545238Y-132435833D01*
X144450000Y-132483452D01*
X144402381Y-132531071D01*
X144354762Y-132626309D01*
X144354762Y-133007261D01*
X145354762Y-133007261D01*
X145354762Y-132673928D01*
X145307143Y-132578690D01*
X145259523Y-132531071D01*
X145164285Y-132483452D01*
X145069047Y-132483452D01*
X144973809Y-132531071D01*
X144926190Y-132578690D01*
X144878571Y-132673928D01*
X144878571Y-133007261D01*
X119947619Y-133959642D02*
X118947619Y-133721547D01*
X119661904Y-133531071D01*
X118947619Y-133340595D01*
X119947619Y-133102500D01*
X118947619Y-132150119D02*
X119423809Y-132483452D01*
X118947619Y-132721547D02*
X119947619Y-132721547D01*
X119947619Y-132340595D01*
X119900000Y-132245357D01*
X119852380Y-132197738D01*
X119757142Y-132150119D01*
X119614285Y-132150119D01*
X119519047Y-132197738D01*
X119471428Y-132245357D01*
X119423809Y-132340595D01*
X119423809Y-132721547D01*
X118947619Y-131197738D02*
X118947619Y-131769166D01*
X118947619Y-131483452D02*
X119947619Y-131483452D01*
X119804761Y-131578690D01*
X119709523Y-131673928D01*
X119661904Y-131769166D01*
X164647619Y-133388214D02*
X164647619Y-133864404D01*
X165647619Y-133864404D01*
X165171428Y-132721547D02*
X165171428Y-133054880D01*
X164647619Y-133054880D02*
X165647619Y-133054880D01*
X165647619Y-132578690D01*
X96047619Y-133864404D02*
X97047619Y-133864404D01*
X97047619Y-133626309D01*
X97000000Y-133483452D01*
X96904761Y-133388214D01*
X96809523Y-133340595D01*
X96619047Y-133292976D01*
X96476190Y-133292976D01*
X96285714Y-133340595D01*
X96190476Y-133388214D01*
X96095238Y-133483452D01*
X96047619Y-133626309D01*
X96047619Y-133864404D01*
X97047619Y-132435833D02*
X97047619Y-132626309D01*
X97000000Y-132721547D01*
X96952380Y-132769166D01*
X96809523Y-132864404D01*
X96619047Y-132912023D01*
X96238095Y-132912023D01*
X96142857Y-132864404D01*
X96095238Y-132816785D01*
X96047619Y-132721547D01*
X96047619Y-132531071D01*
X96095238Y-132435833D01*
X96142857Y-132388214D01*
X96238095Y-132340595D01*
X96476190Y-132340595D01*
X96571428Y-132388214D01*
X96619047Y-132435833D01*
X96666666Y-132531071D01*
X96666666Y-132721547D01*
X96619047Y-132816785D01*
X96571428Y-132864404D01*
X96476190Y-132912023D01*
X117447619Y-133959642D02*
X116447619Y-133721547D01*
X117161904Y-133531071D01*
X116447619Y-133340595D01*
X117447619Y-133102500D01*
X116447619Y-132150119D02*
X116923809Y-132483452D01*
X116447619Y-132721547D02*
X117447619Y-132721547D01*
X117447619Y-132340595D01*
X117400000Y-132245357D01*
X117352380Y-132197738D01*
X117257142Y-132150119D01*
X117114285Y-132150119D01*
X117019047Y-132197738D01*
X116971428Y-132245357D01*
X116923809Y-132340595D01*
X116923809Y-132721547D01*
X117352380Y-131769166D02*
X117400000Y-131721547D01*
X117447619Y-131626309D01*
X117447619Y-131388214D01*
X117400000Y-131292976D01*
X117352380Y-131245357D01*
X117257142Y-131197738D01*
X117161904Y-131197738D01*
X117019047Y-131245357D01*
X116447619Y-131816785D01*
X116447619Y-131197738D01*
X111347619Y-133864404D02*
X112347619Y-133864404D01*
X112347619Y-133626309D01*
X112300000Y-133483452D01*
X112204761Y-133388214D01*
X112109523Y-133340595D01*
X111919047Y-133292976D01*
X111776190Y-133292976D01*
X111585714Y-133340595D01*
X111490476Y-133388214D01*
X111395238Y-133483452D01*
X111347619Y-133626309D01*
X111347619Y-133864404D01*
X112347619Y-132673928D02*
X112347619Y-132578690D01*
X112300000Y-132483452D01*
X112252380Y-132435833D01*
X112157142Y-132388214D01*
X111966666Y-132340595D01*
X111728571Y-132340595D01*
X111538095Y-132388214D01*
X111442857Y-132435833D01*
X111395238Y-132483452D01*
X111347619Y-132578690D01*
X111347619Y-132673928D01*
X111395238Y-132769166D01*
X111442857Y-132816785D01*
X111538095Y-132864404D01*
X111728571Y-132912023D01*
X111966666Y-132912023D01*
X112157142Y-132864404D01*
X112252380Y-132816785D01*
X112300000Y-132769166D01*
X112347619Y-132673928D01*
X101147619Y-133864404D02*
X102147619Y-133864404D01*
X102147619Y-133626309D01*
X102100000Y-133483452D01*
X102004761Y-133388214D01*
X101909523Y-133340595D01*
X101719047Y-133292976D01*
X101576190Y-133292976D01*
X101385714Y-133340595D01*
X101290476Y-133388214D01*
X101195238Y-133483452D01*
X101147619Y-133626309D01*
X101147619Y-133864404D01*
X101814285Y-132435833D02*
X101147619Y-132435833D01*
X102195238Y-132673928D02*
X101480952Y-132912023D01*
X101480952Y-132292976D01*
X169747619Y-133864404D02*
X170747619Y-133864404D01*
X169747619Y-133292976D01*
X170747619Y-133292976D01*
X103747619Y-133864404D02*
X104747619Y-133864404D01*
X104747619Y-133626309D01*
X104700000Y-133483452D01*
X104604761Y-133388214D01*
X104509523Y-133340595D01*
X104319047Y-133292976D01*
X104176190Y-133292976D01*
X103985714Y-133340595D01*
X103890476Y-133388214D01*
X103795238Y-133483452D01*
X103747619Y-133626309D01*
X103747619Y-133864404D01*
X104747619Y-132959642D02*
X104747619Y-132340595D01*
X104366666Y-132673928D01*
X104366666Y-132531071D01*
X104319047Y-132435833D01*
X104271428Y-132388214D01*
X104176190Y-132340595D01*
X103938095Y-132340595D01*
X103842857Y-132388214D01*
X103795238Y-132435833D01*
X103747619Y-132531071D01*
X103747619Y-132816785D01*
X103795238Y-132912023D01*
X103842857Y-132959642D01*
X157192857Y-133292976D02*
X157145238Y-133340595D01*
X157097619Y-133483452D01*
X157097619Y-133578690D01*
X157145238Y-133721547D01*
X157240476Y-133816785D01*
X157335714Y-133864404D01*
X157526190Y-133912023D01*
X157669047Y-133912023D01*
X157859523Y-133864404D01*
X157954761Y-133816785D01*
X158050000Y-133721547D01*
X158097619Y-133578690D01*
X158097619Y-133483452D01*
X158050000Y-133340595D01*
X158002380Y-133292976D01*
X157192857Y-132292976D02*
X157145238Y-132340595D01*
X157097619Y-132483452D01*
X157097619Y-132578690D01*
X157145238Y-132721547D01*
X157240476Y-132816785D01*
X157335714Y-132864404D01*
X157526190Y-132912023D01*
X157669047Y-132912023D01*
X157859523Y-132864404D01*
X157954761Y-132816785D01*
X158050000Y-132721547D01*
X158097619Y-132578690D01*
X158097619Y-132483452D01*
X158050000Y-132340595D01*
X158002380Y-132292976D01*
X168615000Y-134102500D02*
X168615000Y-133340595D01*
X168247619Y-133578690D02*
X167533333Y-133578690D01*
X167390476Y-133626309D01*
X167295238Y-133721547D01*
X167247619Y-133864404D01*
X167247619Y-133959642D01*
X168615000Y-133340595D02*
X168615000Y-132435833D01*
X167771428Y-133102500D02*
X167771428Y-132769166D01*
X167247619Y-132626309D02*
X167247619Y-133102500D01*
X168247619Y-133102500D01*
X168247619Y-132626309D01*
D11*
X90230000Y-105290000D02*
X88900000Y-105290000D01*
X90230000Y-106620000D02*
X90230000Y-105290000D01*
X90230000Y-107890000D02*
X87570000Y-107890000D01*
X87570000Y-107890000D02*
X87570000Y-125730000D01*
X90230000Y-107890000D02*
X90230000Y-125730000D01*
X90230000Y-125730000D02*
X87570000Y-125730000D01*
X90330000Y-56270000D02*
X89000000Y-56270000D01*
X90330000Y-57600000D02*
X90330000Y-56270000D01*
X90330000Y-58870000D02*
X87670000Y-58870000D01*
X87670000Y-58870000D02*
X87670000Y-76710000D01*
X90330000Y-58870000D02*
X90330000Y-76710000D01*
X90330000Y-76710000D02*
X87670000Y-76710000D01*
X186790000Y-134670000D02*
X186790000Y-137330000D01*
X87670000Y-134670000D02*
X186790000Y-134670000D01*
X87670000Y-137330000D02*
X186790000Y-137330000D01*
X87670000Y-134670000D02*
X87670000Y-137330000D01*
X86400000Y-134670000D02*
X85070000Y-134670000D01*
X85070000Y-134670000D02*
X85070000Y-136000000D01*
X186790000Y-44670000D02*
X186790000Y-47330000D01*
X87670000Y-44670000D02*
X186790000Y-44670000D01*
X87670000Y-47330000D02*
X186790000Y-47330000D01*
X87670000Y-44670000D02*
X87670000Y-47330000D01*
X86400000Y-44670000D02*
X85070000Y-44670000D01*
X85070000Y-44670000D02*
X85070000Y-46000000D01*
D10*
X89233333Y-103742380D02*
X89233333Y-104456666D01*
X89280952Y-104599523D01*
X89376190Y-104694761D01*
X89519047Y-104742380D01*
X89614285Y-104742380D01*
X88328571Y-104075714D02*
X88328571Y-104742380D01*
X88566666Y-103694761D02*
X88804761Y-104409047D01*
X88185714Y-104409047D01*
X89333333Y-54722380D02*
X89333333Y-55436666D01*
X89380952Y-55579523D01*
X89476190Y-55674761D01*
X89619047Y-55722380D01*
X89714285Y-55722380D01*
X88952380Y-54722380D02*
X88333333Y-54722380D01*
X88666666Y-55103333D01*
X88523809Y-55103333D01*
X88428571Y-55150952D01*
X88380952Y-55198571D01*
X88333333Y-55293809D01*
X88333333Y-55531904D01*
X88380952Y-55627142D01*
X88428571Y-55674761D01*
X88523809Y-55722380D01*
X88809523Y-55722380D01*
X88904761Y-55674761D01*
X88952380Y-55627142D01*
X83522380Y-135666666D02*
X84236666Y-135666666D01*
X84379523Y-135619047D01*
X84474761Y-135523809D01*
X84522380Y-135380952D01*
X84522380Y-135285714D01*
X83617619Y-136095238D02*
X83570000Y-136142857D01*
X83522380Y-136238095D01*
X83522380Y-136476190D01*
X83570000Y-136571428D01*
X83617619Y-136619047D01*
X83712857Y-136666666D01*
X83808095Y-136666666D01*
X83950952Y-136619047D01*
X84522380Y-136047619D01*
X84522380Y-136666666D01*
X83522380Y-45666666D02*
X84236666Y-45666666D01*
X84379523Y-45619047D01*
X84474761Y-45523809D01*
X84522380Y-45380952D01*
X84522380Y-45285714D01*
X84522380Y-46666666D02*
X84522380Y-46095238D01*
X84522380Y-46380952D02*
X83522380Y-46380952D01*
X83665238Y-46285714D01*
X83760476Y-46190476D01*
X83808095Y-46095238D01*
%LPC*%
D12*
X88900000Y-124400000D03*
X88900000Y-121860000D03*
X88900000Y-119320000D03*
X88900000Y-116780000D03*
X88900000Y-114240000D03*
X88900000Y-111700000D03*
X88900000Y-109160000D03*
D13*
X88900000Y-106620000D03*
D12*
X89000000Y-75380000D03*
X89000000Y-72840000D03*
X89000000Y-70300000D03*
X89000000Y-67760000D03*
X89000000Y-65220000D03*
X89000000Y-62680000D03*
X89000000Y-60140000D03*
D13*
X89000000Y-57600000D03*
D14*
X177520000Y-78200000D03*
X169900000Y-93440000D03*
X177520000Y-80740000D03*
X169900000Y-90900000D03*
X177520000Y-83280000D03*
X169900000Y-88360000D03*
X177520000Y-85820000D03*
X169900000Y-85820000D03*
X177520000Y-88360000D03*
X169900000Y-83280000D03*
X177520000Y-90900000D03*
X169900000Y-80740000D03*
X177520000Y-93440000D03*
D15*
X169900000Y-78200000D03*
D14*
X141700000Y-58880000D03*
X156940000Y-66500000D03*
X144240000Y-58880000D03*
X154400000Y-66500000D03*
X146780000Y-58880000D03*
X151860000Y-66500000D03*
X149320000Y-58880000D03*
X149320000Y-66500000D03*
X151860000Y-58880000D03*
X146780000Y-66500000D03*
X154400000Y-58880000D03*
X144240000Y-66500000D03*
X156940000Y-58880000D03*
D15*
X141700000Y-66500000D03*
D14*
X97300000Y-116080000D03*
X120160000Y-123700000D03*
X99840000Y-116080000D03*
X117620000Y-123700000D03*
X102380000Y-116080000D03*
X115080000Y-123700000D03*
X104920000Y-116080000D03*
X112540000Y-123700000D03*
X107460000Y-116080000D03*
X110000000Y-123700000D03*
X110000000Y-116080000D03*
X107460000Y-123700000D03*
X112540000Y-116080000D03*
X104920000Y-123700000D03*
X115080000Y-116080000D03*
X102380000Y-123700000D03*
X117620000Y-116080000D03*
X99840000Y-123700000D03*
X120160000Y-116080000D03*
D15*
X97300000Y-123700000D03*
D14*
X155620000Y-81220000D03*
X148000000Y-99000000D03*
X155620000Y-83760000D03*
X148000000Y-96460000D03*
X155620000Y-86300000D03*
X148000000Y-93920000D03*
X155620000Y-88840000D03*
X148000000Y-91380000D03*
X155620000Y-91380000D03*
X148000000Y-88840000D03*
X155620000Y-93920000D03*
X148000000Y-86300000D03*
X155620000Y-96460000D03*
X148000000Y-83760000D03*
X155620000Y-99000000D03*
D15*
X148000000Y-81220000D03*
D14*
X114020000Y-83800000D03*
X106400000Y-99040000D03*
X114020000Y-86340000D03*
X106400000Y-96500000D03*
X114020000Y-88880000D03*
X106400000Y-93960000D03*
X114020000Y-91420000D03*
X106400000Y-91420000D03*
X114020000Y-93960000D03*
X106400000Y-88880000D03*
X114020000Y-96500000D03*
X106400000Y-86340000D03*
X114020000Y-99040000D03*
D15*
X106400000Y-83800000D03*
D14*
X133220000Y-83800000D03*
X125600000Y-99040000D03*
X133220000Y-86340000D03*
X125600000Y-96500000D03*
X133220000Y-88880000D03*
X125600000Y-93960000D03*
X133220000Y-91420000D03*
X125600000Y-91420000D03*
X133220000Y-93960000D03*
X125600000Y-88880000D03*
X133220000Y-96500000D03*
X125600000Y-86340000D03*
X133220000Y-99040000D03*
D15*
X125600000Y-83800000D03*
D14*
X107300000Y-58880000D03*
X125080000Y-66500000D03*
X109840000Y-58880000D03*
X122540000Y-66500000D03*
X112380000Y-58880000D03*
X120000000Y-66500000D03*
X114920000Y-58880000D03*
X117460000Y-66500000D03*
X117460000Y-58880000D03*
X114920000Y-66500000D03*
X120000000Y-58880000D03*
X112380000Y-66500000D03*
X122540000Y-58880000D03*
X109840000Y-66500000D03*
X125080000Y-58880000D03*
D15*
X107300000Y-66500000D03*
D12*
X185460000Y-136000000D03*
X182920000Y-136000000D03*
X180380000Y-136000000D03*
X177840000Y-136000000D03*
X175300000Y-136000000D03*
X172760000Y-136000000D03*
X170220000Y-136000000D03*
X167680000Y-136000000D03*
X165140000Y-136000000D03*
X162600000Y-136000000D03*
X160060000Y-136000000D03*
X157520000Y-136000000D03*
X154980000Y-136000000D03*
X152440000Y-136000000D03*
X149900000Y-136000000D03*
X147360000Y-136000000D03*
X144820000Y-136000000D03*
X142280000Y-136000000D03*
X139740000Y-136000000D03*
X137200000Y-136000000D03*
X134660000Y-136000000D03*
X132120000Y-136000000D03*
X129580000Y-136000000D03*
X127040000Y-136000000D03*
X124500000Y-136000000D03*
X121960000Y-136000000D03*
X119420000Y-136000000D03*
X116880000Y-136000000D03*
X114340000Y-136000000D03*
X111800000Y-136000000D03*
X109260000Y-136000000D03*
X106720000Y-136000000D03*
X104180000Y-136000000D03*
X101640000Y-136000000D03*
X99100000Y-136000000D03*
X96560000Y-136000000D03*
X94020000Y-136000000D03*
X91480000Y-136000000D03*
X88940000Y-136000000D03*
D13*
X86400000Y-136000000D03*
D12*
X185460000Y-46000000D03*
X182920000Y-46000000D03*
X180380000Y-46000000D03*
X177840000Y-46000000D03*
X175300000Y-46000000D03*
X172760000Y-46000000D03*
X170220000Y-46000000D03*
X167680000Y-46000000D03*
X165140000Y-46000000D03*
X162600000Y-46000000D03*
X160060000Y-46000000D03*
X157520000Y-46000000D03*
X154980000Y-46000000D03*
X152440000Y-46000000D03*
X149900000Y-46000000D03*
X147360000Y-46000000D03*
X144820000Y-46000000D03*
X142280000Y-46000000D03*
X139740000Y-46000000D03*
X137200000Y-46000000D03*
X134660000Y-46000000D03*
X132120000Y-46000000D03*
X129580000Y-46000000D03*
X127040000Y-46000000D03*
X124500000Y-46000000D03*
X121960000Y-46000000D03*
X119420000Y-46000000D03*
X116880000Y-46000000D03*
X114340000Y-46000000D03*
X111800000Y-46000000D03*
X109260000Y-46000000D03*
X106720000Y-46000000D03*
X104180000Y-46000000D03*
X101640000Y-46000000D03*
X99100000Y-46000000D03*
X96560000Y-46000000D03*
X94020000Y-46000000D03*
X91480000Y-46000000D03*
X88940000Y-46000000D03*
D13*
X86400000Y-46000000D03*
M02*
