G04 #@! TF.GenerationSoftware,KiCad,Pcbnew,(5.1.9)-1*
G04 #@! TF.CreationDate,2021-10-24T09:52:52-04:00*
G04 #@! TF.ProjectId,microcode,6d696372-6f63-46f6-9465-2e6b69636164,1.0*
G04 #@! TF.SameCoordinates,Original*
G04 #@! TF.FileFunction,Legend,Bot*
G04 #@! TF.FilePolarity,Positive*
%FSLAX46Y46*%
G04 Gerber Fmt 4.6, Leading zero omitted, Abs format (unit mm)*
G04 Created by KiCad (PCBNEW (5.1.9)-1) date 2021-10-24 09:52:52*
%MOMM*%
%LPD*%
G01*
G04 APERTURE LIST*
%ADD10C,0.120000*%
%ADD11C,0.150000*%
%ADD12O,1.700000X1.700000*%
%ADD13R,1.700000X1.700000*%
%ADD14O,1.600000X1.600000*%
%ADD15R,1.600000X1.600000*%
G04 APERTURE END LIST*
D10*
X90230000Y-56270000D02*
X88900000Y-56270000D01*
X90230000Y-57600000D02*
X90230000Y-56270000D01*
X90230000Y-58870000D02*
X87570000Y-58870000D01*
X87570000Y-58870000D02*
X87570000Y-66550000D01*
X90230000Y-58870000D02*
X90230000Y-66550000D01*
X90230000Y-66550000D02*
X87570000Y-66550000D01*
X184230000Y-105270000D02*
X182900000Y-105270000D01*
X184230000Y-106600000D02*
X184230000Y-105270000D01*
X184230000Y-107870000D02*
X181570000Y-107870000D01*
X181570000Y-107870000D02*
X181570000Y-125710000D01*
X184230000Y-107870000D02*
X184230000Y-125710000D01*
X184230000Y-125710000D02*
X181570000Y-125710000D01*
X184230000Y-56270000D02*
X182900000Y-56270000D01*
X184230000Y-57600000D02*
X184230000Y-56270000D01*
X184230000Y-58870000D02*
X181570000Y-58870000D01*
X181570000Y-58870000D02*
X181570000Y-76710000D01*
X184230000Y-58870000D02*
X184230000Y-76710000D01*
X184230000Y-76710000D02*
X181570000Y-76710000D01*
X186790000Y-134670000D02*
X186790000Y-137330000D01*
X87670000Y-134670000D02*
X186790000Y-134670000D01*
X87670000Y-137330000D02*
X186790000Y-137330000D01*
X87670000Y-134670000D02*
X87670000Y-137330000D01*
X86400000Y-134670000D02*
X85070000Y-134670000D01*
X85070000Y-134670000D02*
X85070000Y-136000000D01*
X186790000Y-44670000D02*
X186790000Y-47330000D01*
X87670000Y-44670000D02*
X186790000Y-44670000D01*
X87670000Y-47330000D02*
X186790000Y-47330000D01*
X87670000Y-44670000D02*
X87670000Y-47330000D01*
X86400000Y-44670000D02*
X85070000Y-44670000D01*
X85070000Y-44670000D02*
X85070000Y-46000000D01*
D11*
X89233333Y-54722380D02*
X89233333Y-55436666D01*
X89280952Y-55579523D01*
X89376190Y-55674761D01*
X89519047Y-55722380D01*
X89614285Y-55722380D01*
X88852380Y-54722380D02*
X88233333Y-54722380D01*
X88566666Y-55103333D01*
X88423809Y-55103333D01*
X88328571Y-55150952D01*
X88280952Y-55198571D01*
X88233333Y-55293809D01*
X88233333Y-55531904D01*
X88280952Y-55627142D01*
X88328571Y-55674761D01*
X88423809Y-55722380D01*
X88709523Y-55722380D01*
X88804761Y-55674761D01*
X88852380Y-55627142D01*
X183233333Y-103722380D02*
X183233333Y-104436666D01*
X183280952Y-104579523D01*
X183376190Y-104674761D01*
X183519047Y-104722380D01*
X183614285Y-104722380D01*
X182328571Y-103722380D02*
X182519047Y-103722380D01*
X182614285Y-103770000D01*
X182661904Y-103817619D01*
X182757142Y-103960476D01*
X182804761Y-104150952D01*
X182804761Y-104531904D01*
X182757142Y-104627142D01*
X182709523Y-104674761D01*
X182614285Y-104722380D01*
X182423809Y-104722380D01*
X182328571Y-104674761D01*
X182280952Y-104627142D01*
X182233333Y-104531904D01*
X182233333Y-104293809D01*
X182280952Y-104198571D01*
X182328571Y-104150952D01*
X182423809Y-104103333D01*
X182614285Y-104103333D01*
X182709523Y-104150952D01*
X182757142Y-104198571D01*
X182804761Y-104293809D01*
X183233333Y-54722380D02*
X183233333Y-55436666D01*
X183280952Y-55579523D01*
X183376190Y-55674761D01*
X183519047Y-55722380D01*
X183614285Y-55722380D01*
X182280952Y-54722380D02*
X182757142Y-54722380D01*
X182804761Y-55198571D01*
X182757142Y-55150952D01*
X182661904Y-55103333D01*
X182423809Y-55103333D01*
X182328571Y-55150952D01*
X182280952Y-55198571D01*
X182233333Y-55293809D01*
X182233333Y-55531904D01*
X182280952Y-55627142D01*
X182328571Y-55674761D01*
X182423809Y-55722380D01*
X182661904Y-55722380D01*
X182757142Y-55674761D01*
X182804761Y-55627142D01*
X83522380Y-135666666D02*
X84236666Y-135666666D01*
X84379523Y-135619047D01*
X84474761Y-135523809D01*
X84522380Y-135380952D01*
X84522380Y-135285714D01*
X83617619Y-136095238D02*
X83570000Y-136142857D01*
X83522380Y-136238095D01*
X83522380Y-136476190D01*
X83570000Y-136571428D01*
X83617619Y-136619047D01*
X83712857Y-136666666D01*
X83808095Y-136666666D01*
X83950952Y-136619047D01*
X84522380Y-136047619D01*
X84522380Y-136666666D01*
X83522380Y-45666666D02*
X84236666Y-45666666D01*
X84379523Y-45619047D01*
X84474761Y-45523809D01*
X84522380Y-45380952D01*
X84522380Y-45285714D01*
X84522380Y-46666666D02*
X84522380Y-46095238D01*
X84522380Y-46380952D02*
X83522380Y-46380952D01*
X83665238Y-46285714D01*
X83760476Y-46190476D01*
X83808095Y-46095238D01*
%LPC*%
D12*
X88900000Y-65220000D03*
X88900000Y-62680000D03*
X88900000Y-60140000D03*
D13*
X88900000Y-57600000D03*
D12*
X182900000Y-124380000D03*
X182900000Y-121840000D03*
X182900000Y-119300000D03*
X182900000Y-116760000D03*
X182900000Y-114220000D03*
X182900000Y-111680000D03*
X182900000Y-109140000D03*
D13*
X182900000Y-106600000D03*
D12*
X182900000Y-75380000D03*
X182900000Y-72840000D03*
X182900000Y-70300000D03*
X182900000Y-67760000D03*
X182900000Y-65220000D03*
X182900000Y-62680000D03*
X182900000Y-60140000D03*
D13*
X182900000Y-57600000D03*
D14*
X150560000Y-93800000D03*
X165800000Y-60780000D03*
X150560000Y-91260000D03*
X165800000Y-63320000D03*
X150560000Y-88720000D03*
X165800000Y-65860000D03*
X150560000Y-86180000D03*
X165800000Y-68400000D03*
X150560000Y-83640000D03*
X165800000Y-70940000D03*
X150560000Y-81100000D03*
X165800000Y-73480000D03*
X150560000Y-78560000D03*
X165800000Y-76020000D03*
X150560000Y-76020000D03*
X165800000Y-78560000D03*
X150560000Y-73480000D03*
X165800000Y-81100000D03*
X150560000Y-70940000D03*
X165800000Y-83640000D03*
X150560000Y-68400000D03*
X165800000Y-86180000D03*
X150560000Y-65860000D03*
X165800000Y-88720000D03*
X150560000Y-63320000D03*
X165800000Y-91260000D03*
X150560000Y-60780000D03*
D15*
X165800000Y-93800000D03*
D14*
X123060000Y-93800000D03*
X138300000Y-60780000D03*
X123060000Y-91260000D03*
X138300000Y-63320000D03*
X123060000Y-88720000D03*
X138300000Y-65860000D03*
X123060000Y-86180000D03*
X138300000Y-68400000D03*
X123060000Y-83640000D03*
X138300000Y-70940000D03*
X123060000Y-81100000D03*
X138300000Y-73480000D03*
X123060000Y-78560000D03*
X138300000Y-76020000D03*
X123060000Y-76020000D03*
X138300000Y-78560000D03*
X123060000Y-73480000D03*
X138300000Y-81100000D03*
X123060000Y-70940000D03*
X138300000Y-83640000D03*
X123060000Y-68400000D03*
X138300000Y-86180000D03*
X123060000Y-65860000D03*
X138300000Y-88720000D03*
X123060000Y-63320000D03*
X138300000Y-91260000D03*
X123060000Y-60780000D03*
D15*
X138300000Y-93800000D03*
D14*
X95960000Y-93800000D03*
X111200000Y-60780000D03*
X95960000Y-91260000D03*
X111200000Y-63320000D03*
X95960000Y-88720000D03*
X111200000Y-65860000D03*
X95960000Y-86180000D03*
X111200000Y-68400000D03*
X95960000Y-83640000D03*
X111200000Y-70940000D03*
X95960000Y-81100000D03*
X111200000Y-73480000D03*
X95960000Y-78560000D03*
X111200000Y-76020000D03*
X95960000Y-76020000D03*
X111200000Y-78560000D03*
X95960000Y-73480000D03*
X111200000Y-81100000D03*
X95960000Y-70940000D03*
X111200000Y-83640000D03*
X95960000Y-68400000D03*
X111200000Y-86180000D03*
X95960000Y-65860000D03*
X111200000Y-88720000D03*
X95960000Y-63320000D03*
X111200000Y-91260000D03*
X95960000Y-60780000D03*
D15*
X111200000Y-93800000D03*
D12*
X185460000Y-136000000D03*
X182920000Y-136000000D03*
X180380000Y-136000000D03*
X177840000Y-136000000D03*
X175300000Y-136000000D03*
X172760000Y-136000000D03*
X170220000Y-136000000D03*
X167680000Y-136000000D03*
X165140000Y-136000000D03*
X162600000Y-136000000D03*
X160060000Y-136000000D03*
X157520000Y-136000000D03*
X154980000Y-136000000D03*
X152440000Y-136000000D03*
X149900000Y-136000000D03*
X147360000Y-136000000D03*
X144820000Y-136000000D03*
X142280000Y-136000000D03*
X139740000Y-136000000D03*
X137200000Y-136000000D03*
X134660000Y-136000000D03*
X132120000Y-136000000D03*
X129580000Y-136000000D03*
X127040000Y-136000000D03*
X124500000Y-136000000D03*
X121960000Y-136000000D03*
X119420000Y-136000000D03*
X116880000Y-136000000D03*
X114340000Y-136000000D03*
X111800000Y-136000000D03*
X109260000Y-136000000D03*
X106720000Y-136000000D03*
X104180000Y-136000000D03*
X101640000Y-136000000D03*
X99100000Y-136000000D03*
X96560000Y-136000000D03*
X94020000Y-136000000D03*
X91480000Y-136000000D03*
X88940000Y-136000000D03*
D13*
X86400000Y-136000000D03*
D12*
X185460000Y-46000000D03*
X182920000Y-46000000D03*
X180380000Y-46000000D03*
X177840000Y-46000000D03*
X175300000Y-46000000D03*
X172760000Y-46000000D03*
X170220000Y-46000000D03*
X167680000Y-46000000D03*
X165140000Y-46000000D03*
X162600000Y-46000000D03*
X160060000Y-46000000D03*
X157520000Y-46000000D03*
X154980000Y-46000000D03*
X152440000Y-46000000D03*
X149900000Y-46000000D03*
X147360000Y-46000000D03*
X144820000Y-46000000D03*
X142280000Y-46000000D03*
X139740000Y-46000000D03*
X137200000Y-46000000D03*
X134660000Y-46000000D03*
X132120000Y-46000000D03*
X129580000Y-46000000D03*
X127040000Y-46000000D03*
X124500000Y-46000000D03*
X121960000Y-46000000D03*
X119420000Y-46000000D03*
X116880000Y-46000000D03*
X114340000Y-46000000D03*
X111800000Y-46000000D03*
X109260000Y-46000000D03*
X106720000Y-46000000D03*
X104180000Y-46000000D03*
X101640000Y-46000000D03*
X99100000Y-46000000D03*
X96560000Y-46000000D03*
X94020000Y-46000000D03*
X91480000Y-46000000D03*
X88940000Y-46000000D03*
D13*
X86400000Y-46000000D03*
M02*
