G04 #@! TF.GenerationSoftware,KiCad,Pcbnew,(5.1.9)-1*
G04 #@! TF.CreationDate,2021-10-24T09:52:52-04:00*
G04 #@! TF.ProjectId,microcode,6d696372-6f63-46f6-9465-2e6b69636164,1.0*
G04 #@! TF.SameCoordinates,Original*
G04 #@! TF.FileFunction,Legend,Top*
G04 #@! TF.FilePolarity,Positive*
%FSLAX46Y46*%
G04 Gerber Fmt 4.6, Leading zero omitted, Abs format (unit mm)*
G04 Created by KiCad (PCBNEW (5.1.9)-1) date 2021-10-24 09:52:52*
%MOMM*%
%LPD*%
G01*
G04 APERTURE LIST*
%ADD10C,0.150000*%
%ADD11C,0.300000*%
%ADD12C,0.170000*%
%ADD13C,0.120000*%
%ADD14O,1.700000X1.700000*%
%ADD15R,1.700000X1.700000*%
%ADD16O,1.600000X1.600000*%
%ADD17R,1.600000X1.600000*%
G04 APERTURE END LIST*
D10*
X146995238Y-48087976D02*
X146947619Y-48230833D01*
X146947619Y-48468928D01*
X146995238Y-48564166D01*
X147042857Y-48611785D01*
X147138095Y-48659404D01*
X147233333Y-48659404D01*
X147328571Y-48611785D01*
X147376190Y-48564166D01*
X147423809Y-48468928D01*
X147471428Y-48278452D01*
X147519047Y-48183214D01*
X147566666Y-48135595D01*
X147661904Y-48087976D01*
X147757142Y-48087976D01*
X147852380Y-48135595D01*
X147900000Y-48183214D01*
X147947619Y-48278452D01*
X147947619Y-48516547D01*
X147900000Y-48659404D01*
X147471428Y-49087976D02*
X147471428Y-49421309D01*
X146947619Y-49564166D02*
X146947619Y-49087976D01*
X147947619Y-49087976D01*
X147947619Y-49564166D01*
X91361904Y-65952380D02*
X90885714Y-65952380D01*
X90885714Y-64952380D01*
X91695238Y-65571428D02*
X92457142Y-65571428D01*
X92885714Y-65666666D02*
X93361904Y-65666666D01*
X92790476Y-65952380D02*
X93123809Y-64952380D01*
X93457142Y-65952380D01*
X90695238Y-59485000D02*
X91695238Y-59485000D01*
X91504761Y-60757142D02*
X91457142Y-60804761D01*
X91314285Y-60852380D01*
X91219047Y-60852380D01*
X91076190Y-60804761D01*
X90980952Y-60709523D01*
X90933333Y-60614285D01*
X90885714Y-60423809D01*
X90885714Y-60280952D01*
X90933333Y-60090476D01*
X90980952Y-59995238D01*
X91076190Y-59900000D01*
X91219047Y-59852380D01*
X91314285Y-59852380D01*
X91457142Y-59900000D01*
X91504761Y-59947619D01*
X91695238Y-59485000D02*
X92504761Y-59485000D01*
X92409523Y-60852380D02*
X91933333Y-60852380D01*
X91933333Y-59852380D01*
X92504761Y-59485000D02*
X93504761Y-59485000D01*
X92742857Y-60852380D02*
X92742857Y-59852380D01*
X93314285Y-60852380D02*
X92885714Y-60280952D01*
X93314285Y-59852380D02*
X92742857Y-60423809D01*
X175980952Y-65752380D02*
X175504761Y-65752380D01*
X175504761Y-64752380D01*
X176314285Y-65752380D02*
X176314285Y-64752380D01*
X176552380Y-64752380D01*
X176695238Y-64800000D01*
X176790476Y-64895238D01*
X176838095Y-64990476D01*
X176885714Y-65180952D01*
X176885714Y-65323809D01*
X176838095Y-65514285D01*
X176790476Y-65609523D01*
X176695238Y-65704761D01*
X176552380Y-65752380D01*
X176314285Y-65752380D01*
X177314285Y-65371428D02*
X178076190Y-65371428D01*
X178504761Y-65466666D02*
X178980952Y-65466666D01*
X178409523Y-65752380D02*
X178742857Y-64752380D01*
X179076190Y-65752380D01*
X179980952Y-65657142D02*
X179933333Y-65704761D01*
X179790476Y-65752380D01*
X179695238Y-65752380D01*
X179552380Y-65704761D01*
X179457142Y-65609523D01*
X179409523Y-65514285D01*
X179361904Y-65323809D01*
X179361904Y-65180952D01*
X179409523Y-64990476D01*
X179457142Y-64895238D01*
X179552380Y-64800000D01*
X179695238Y-64752380D01*
X179790476Y-64752380D01*
X179933333Y-64800000D01*
X179980952Y-64847619D01*
X180266666Y-64752380D02*
X180838095Y-64752380D01*
X180552380Y-65752380D02*
X180552380Y-64752380D01*
X179004761Y-63057142D02*
X178957142Y-63104761D01*
X178814285Y-63152380D01*
X178719047Y-63152380D01*
X178576190Y-63104761D01*
X178480952Y-63009523D01*
X178433333Y-62914285D01*
X178385714Y-62723809D01*
X178385714Y-62580952D01*
X178433333Y-62390476D01*
X178480952Y-62295238D01*
X178576190Y-62200000D01*
X178719047Y-62152380D01*
X178814285Y-62152380D01*
X178957142Y-62200000D01*
X179004761Y-62247619D01*
X179909523Y-63152380D02*
X179433333Y-63152380D01*
X179433333Y-62152380D01*
X180242857Y-63152380D02*
X180242857Y-62152380D01*
X180814285Y-63152380D02*
X180385714Y-62580952D01*
X180814285Y-62152380D02*
X180242857Y-62723809D01*
X178195238Y-59285000D02*
X179195238Y-59285000D01*
X179004761Y-60557142D02*
X178957142Y-60604761D01*
X178814285Y-60652380D01*
X178719047Y-60652380D01*
X178576190Y-60604761D01*
X178480952Y-60509523D01*
X178433333Y-60414285D01*
X178385714Y-60223809D01*
X178385714Y-60080952D01*
X178433333Y-59890476D01*
X178480952Y-59795238D01*
X178576190Y-59700000D01*
X178719047Y-59652380D01*
X178814285Y-59652380D01*
X178957142Y-59700000D01*
X179004761Y-59747619D01*
X179195238Y-59285000D02*
X180004761Y-59285000D01*
X179909523Y-60652380D02*
X179433333Y-60652380D01*
X179433333Y-59652380D01*
X180004761Y-59285000D02*
X181004761Y-59285000D01*
X180242857Y-60652380D02*
X180242857Y-59652380D01*
X180814285Y-60652380D02*
X180385714Y-60080952D01*
X180814285Y-59652380D02*
X180242857Y-60223809D01*
X178242857Y-56685000D02*
X179242857Y-56685000D01*
X179052380Y-58052380D02*
X178719047Y-57576190D01*
X178480952Y-58052380D02*
X178480952Y-57052380D01*
X178861904Y-57052380D01*
X178957142Y-57100000D01*
X179004761Y-57147619D01*
X179052380Y-57242857D01*
X179052380Y-57385714D01*
X179004761Y-57480952D01*
X178957142Y-57528571D01*
X178861904Y-57576190D01*
X178480952Y-57576190D01*
X179242857Y-56685000D02*
X180195238Y-56685000D01*
X179433333Y-58004761D02*
X179576190Y-58052380D01*
X179814285Y-58052380D01*
X179909523Y-58004761D01*
X179957142Y-57957142D01*
X180004761Y-57861904D01*
X180004761Y-57766666D01*
X179957142Y-57671428D01*
X179909523Y-57623809D01*
X179814285Y-57576190D01*
X179623809Y-57528571D01*
X179528571Y-57480952D01*
X179480952Y-57433333D01*
X179433333Y-57338095D01*
X179433333Y-57242857D01*
X179480952Y-57147619D01*
X179528571Y-57100000D01*
X179623809Y-57052380D01*
X179861904Y-57052380D01*
X180004761Y-57100000D01*
X180195238Y-56685000D02*
X180957142Y-56685000D01*
X180290476Y-57052380D02*
X180861904Y-57052380D01*
X180576190Y-58052380D02*
X180576190Y-57052380D01*
X183800000Y-48100000D02*
X183800000Y-50500000D01*
X92664166Y-132485714D02*
X92664166Y-133295238D01*
X92616547Y-133390476D01*
X92568928Y-133438095D01*
X92473690Y-133485714D01*
X92330833Y-133485714D01*
X92235595Y-133438095D01*
X92664166Y-133104761D02*
X92568928Y-133152380D01*
X92378452Y-133152380D01*
X92283214Y-133104761D01*
X92235595Y-133057142D01*
X92187976Y-132961904D01*
X92187976Y-132676190D01*
X92235595Y-132580952D01*
X92283214Y-132533333D01*
X92378452Y-132485714D01*
X92568928Y-132485714D01*
X92664166Y-132533333D01*
X93140357Y-133152380D02*
X93140357Y-132485714D01*
X93140357Y-132152380D02*
X93092738Y-132200000D01*
X93140357Y-132247619D01*
X93187976Y-132200000D01*
X93140357Y-132152380D01*
X93140357Y-132247619D01*
X93473690Y-132485714D02*
X93854642Y-132485714D01*
X93616547Y-132152380D02*
X93616547Y-133009523D01*
X93664166Y-133104761D01*
X93759404Y-133152380D01*
X93854642Y-133152380D01*
X94187976Y-133152380D02*
X94187976Y-132152380D01*
X94616547Y-133152380D02*
X94616547Y-132628571D01*
X94568928Y-132533333D01*
X94473690Y-132485714D01*
X94330833Y-132485714D01*
X94235595Y-132533333D01*
X94187976Y-132580952D01*
X95521309Y-132485714D02*
X95521309Y-133152380D01*
X95092738Y-132485714D02*
X95092738Y-133009523D01*
X95140357Y-133104761D01*
X95235595Y-133152380D01*
X95378452Y-133152380D01*
X95473690Y-133104761D01*
X95521309Y-133057142D01*
X95997500Y-133152380D02*
X95997500Y-132152380D01*
X95997500Y-132533333D02*
X96092738Y-132485714D01*
X96283214Y-132485714D01*
X96378452Y-132533333D01*
X96426071Y-132580952D01*
X96473690Y-132676190D01*
X96473690Y-132961904D01*
X96426071Y-133057142D01*
X96378452Y-133104761D01*
X96283214Y-133152380D01*
X96092738Y-133152380D01*
X95997500Y-133104761D01*
X96902261Y-133057142D02*
X96949880Y-133104761D01*
X96902261Y-133152380D01*
X96854642Y-133104761D01*
X96902261Y-133057142D01*
X96902261Y-133152380D01*
X97807023Y-133104761D02*
X97711785Y-133152380D01*
X97521309Y-133152380D01*
X97426071Y-133104761D01*
X97378452Y-133057142D01*
X97330833Y-132961904D01*
X97330833Y-132676190D01*
X97378452Y-132580952D01*
X97426071Y-132533333D01*
X97521309Y-132485714D01*
X97711785Y-132485714D01*
X97807023Y-132533333D01*
X98378452Y-133152380D02*
X98283214Y-133104761D01*
X98235595Y-133057142D01*
X98187976Y-132961904D01*
X98187976Y-132676190D01*
X98235595Y-132580952D01*
X98283214Y-132533333D01*
X98378452Y-132485714D01*
X98521309Y-132485714D01*
X98616547Y-132533333D01*
X98664166Y-132580952D01*
X98711785Y-132676190D01*
X98711785Y-132961904D01*
X98664166Y-133057142D01*
X98616547Y-133104761D01*
X98521309Y-133152380D01*
X98378452Y-133152380D01*
X99140357Y-133152380D02*
X99140357Y-132485714D01*
X99140357Y-132580952D02*
X99187976Y-132533333D01*
X99283214Y-132485714D01*
X99426071Y-132485714D01*
X99521309Y-132533333D01*
X99568928Y-132628571D01*
X99568928Y-133152380D01*
X99568928Y-132628571D02*
X99616547Y-132533333D01*
X99711785Y-132485714D01*
X99854642Y-132485714D01*
X99949880Y-132533333D01*
X99997500Y-132628571D01*
X99997500Y-133152380D01*
X101187976Y-132104761D02*
X100330833Y-133390476D01*
X101378452Y-132152380D02*
X101949880Y-132152380D01*
X101664166Y-133152380D02*
X101664166Y-132152380D01*
X102426071Y-133152380D02*
X102330833Y-133104761D01*
X102283214Y-133057142D01*
X102235595Y-132961904D01*
X102235595Y-132676190D01*
X102283214Y-132580952D01*
X102330833Y-132533333D01*
X102426071Y-132485714D01*
X102568928Y-132485714D01*
X102664166Y-132533333D01*
X102711785Y-132580952D01*
X102759404Y-132676190D01*
X102759404Y-132961904D01*
X102711785Y-133057142D01*
X102664166Y-133104761D01*
X102568928Y-133152380D01*
X102426071Y-133152380D01*
X103187976Y-133152380D02*
X103187976Y-132485714D01*
X103187976Y-132580952D02*
X103235595Y-132533333D01*
X103330833Y-132485714D01*
X103473690Y-132485714D01*
X103568928Y-132533333D01*
X103616547Y-132628571D01*
X103616547Y-133152380D01*
X103616547Y-132628571D02*
X103664166Y-132533333D01*
X103759404Y-132485714D01*
X103902261Y-132485714D01*
X103997500Y-132533333D01*
X104045119Y-132628571D01*
X104045119Y-133152380D01*
X104521309Y-133152380D02*
X104521309Y-132152380D01*
X105092738Y-133152380D01*
X105092738Y-132152380D01*
X105568928Y-133152380D02*
X105568928Y-132485714D01*
X105568928Y-132152380D02*
X105521309Y-132200000D01*
X105568928Y-132247619D01*
X105616547Y-132200000D01*
X105568928Y-132152380D01*
X105568928Y-132247619D01*
X105997500Y-133104761D02*
X106092738Y-133152380D01*
X106283214Y-133152380D01*
X106378452Y-133104761D01*
X106426071Y-133009523D01*
X106426071Y-132961904D01*
X106378452Y-132866666D01*
X106283214Y-132819047D01*
X106140357Y-132819047D01*
X106045119Y-132771428D01*
X105997500Y-132676190D01*
X105997500Y-132628571D01*
X106045119Y-132533333D01*
X106140357Y-132485714D01*
X106283214Y-132485714D01*
X106378452Y-132533333D01*
X106854642Y-133152380D02*
X106854642Y-132152380D01*
X106854642Y-132533333D02*
X106949880Y-132485714D01*
X107140357Y-132485714D01*
X107235595Y-132533333D01*
X107283214Y-132580952D01*
X107330833Y-132676190D01*
X107330833Y-132961904D01*
X107283214Y-133057142D01*
X107235595Y-133104761D01*
X107140357Y-133152380D01*
X106949880Y-133152380D01*
X106854642Y-133104761D01*
X108140357Y-133104761D02*
X108045119Y-133152380D01*
X107854642Y-133152380D01*
X107759404Y-133104761D01*
X107711785Y-133009523D01*
X107711785Y-132628571D01*
X107759404Y-132533333D01*
X107854642Y-132485714D01*
X108045119Y-132485714D01*
X108140357Y-132533333D01*
X108187976Y-132628571D01*
X108187976Y-132723809D01*
X107711785Y-132819047D01*
X108473690Y-132485714D02*
X108854642Y-132485714D01*
X108616547Y-132152380D02*
X108616547Y-133009523D01*
X108664166Y-133104761D01*
X108759404Y-133152380D01*
X108854642Y-133152380D01*
X109902261Y-132104761D02*
X109045119Y-133390476D01*
X110235595Y-132485714D02*
X110235595Y-133152380D01*
X110235595Y-132580952D02*
X110283214Y-132533333D01*
X110378452Y-132485714D01*
X110521309Y-132485714D01*
X110616547Y-132533333D01*
X110664166Y-132628571D01*
X110664166Y-133152380D01*
X111568928Y-132485714D02*
X111568928Y-133485714D01*
X111568928Y-133104761D02*
X111473690Y-133152380D01*
X111283214Y-133152380D01*
X111187976Y-133104761D01*
X111140357Y-133057142D01*
X111092738Y-132961904D01*
X111092738Y-132676190D01*
X111140357Y-132580952D01*
X111187976Y-132533333D01*
X111283214Y-132485714D01*
X111473690Y-132485714D01*
X111568928Y-132533333D01*
X111997500Y-133104761D02*
X112092738Y-133152380D01*
X112283214Y-133152380D01*
X112378452Y-133104761D01*
X112426071Y-133009523D01*
X112426071Y-132961904D01*
X112378452Y-132866666D01*
X112283214Y-132819047D01*
X112140357Y-132819047D01*
X112045119Y-132771428D01*
X111997500Y-132676190D01*
X111997500Y-132628571D01*
X112045119Y-132533333D01*
X112140357Y-132485714D01*
X112283214Y-132485714D01*
X112378452Y-132533333D01*
X113283214Y-133152380D02*
X113283214Y-132628571D01*
X113235595Y-132533333D01*
X113140357Y-132485714D01*
X112949880Y-132485714D01*
X112854642Y-132533333D01*
X113283214Y-133104761D02*
X113187976Y-133152380D01*
X112949880Y-133152380D01*
X112854642Y-133104761D01*
X112807023Y-133009523D01*
X112807023Y-132914285D01*
X112854642Y-132819047D01*
X112949880Y-132771428D01*
X113187976Y-132771428D01*
X113283214Y-132723809D01*
X113759404Y-132485714D02*
X113759404Y-133485714D01*
X113759404Y-132533333D02*
X113854642Y-132485714D01*
X114045119Y-132485714D01*
X114140357Y-132533333D01*
X114187976Y-132580952D01*
X114235595Y-132676190D01*
X114235595Y-132961904D01*
X114187976Y-133057142D01*
X114140357Y-133104761D01*
X114045119Y-133152380D01*
X113854642Y-133152380D01*
X113759404Y-133104761D01*
X114664166Y-132771428D02*
X115426071Y-132771428D01*
X115902261Y-132485714D02*
X115902261Y-133485714D01*
X115902261Y-132533333D02*
X115997499Y-132485714D01*
X116187976Y-132485714D01*
X116283214Y-132533333D01*
X116330833Y-132580952D01*
X116378452Y-132676190D01*
X116378452Y-132961904D01*
X116330833Y-133057142D01*
X116283214Y-133104761D01*
X116187976Y-133152380D01*
X115997499Y-133152380D01*
X115902261Y-133104761D01*
X117235595Y-133104761D02*
X117140357Y-133152380D01*
X116949880Y-133152380D01*
X116854642Y-133104761D01*
X116807023Y-133057142D01*
X116759404Y-132961904D01*
X116759404Y-132676190D01*
X116807023Y-132580952D01*
X116854642Y-132533333D01*
X116949880Y-132485714D01*
X117140357Y-132485714D01*
X117235595Y-132533333D01*
X117664166Y-133152380D02*
X117664166Y-132152380D01*
X117664166Y-132533333D02*
X117759404Y-132485714D01*
X117949880Y-132485714D01*
X118045119Y-132533333D01*
X118092738Y-132580952D01*
X118140357Y-132676190D01*
X118140357Y-132961904D01*
X118092738Y-133057142D01*
X118045119Y-133104761D01*
X117949880Y-133152380D01*
X117759404Y-133152380D01*
X117664166Y-133104761D01*
X173687976Y-132347619D02*
X173735595Y-132300000D01*
X173830833Y-132252380D01*
X174068928Y-132252380D01*
X174164166Y-132300000D01*
X174211785Y-132347619D01*
X174259404Y-132442857D01*
X174259404Y-132538095D01*
X174211785Y-132680952D01*
X173640357Y-133252380D01*
X174259404Y-133252380D01*
X174878452Y-132252380D02*
X174973690Y-132252380D01*
X175068928Y-132300000D01*
X175116547Y-132347619D01*
X175164166Y-132442857D01*
X175211785Y-132633333D01*
X175211785Y-132871428D01*
X175164166Y-133061904D01*
X175116547Y-133157142D01*
X175068928Y-133204761D01*
X174973690Y-133252380D01*
X174878452Y-133252380D01*
X174783214Y-133204761D01*
X174735595Y-133157142D01*
X174687976Y-133061904D01*
X174640357Y-132871428D01*
X174640357Y-132633333D01*
X174687976Y-132442857D01*
X174735595Y-132347619D01*
X174783214Y-132300000D01*
X174878452Y-132252380D01*
X175592738Y-132347619D02*
X175640357Y-132300000D01*
X175735595Y-132252380D01*
X175973690Y-132252380D01*
X176068928Y-132300000D01*
X176116547Y-132347619D01*
X176164166Y-132442857D01*
X176164166Y-132538095D01*
X176116547Y-132680952D01*
X175545119Y-133252380D01*
X176164166Y-133252380D01*
X177116547Y-133252380D02*
X176545119Y-133252380D01*
X176830833Y-133252380D02*
X176830833Y-132252380D01*
X176735595Y-132395238D01*
X176640357Y-132490476D01*
X176545119Y-132538095D01*
X178211785Y-132585714D02*
X178449880Y-133252380D01*
X178687976Y-132585714D01*
X179592738Y-133252380D02*
X179021309Y-133252380D01*
X179307023Y-133252380D02*
X179307023Y-132252380D01*
X179211785Y-132395238D01*
X179116547Y-132490476D01*
X179021309Y-132538095D01*
X180021309Y-133157142D02*
X180068928Y-133204761D01*
X180021309Y-133252380D01*
X179973690Y-133204761D01*
X180021309Y-133157142D01*
X180021309Y-133252380D01*
X180687976Y-132252380D02*
X180783214Y-132252380D01*
X180878452Y-132300000D01*
X180926071Y-132347619D01*
X180973690Y-132442857D01*
X181021309Y-132633333D01*
X181021309Y-132871428D01*
X180973690Y-133061904D01*
X180926071Y-133157142D01*
X180878452Y-133204761D01*
X180783214Y-133252380D01*
X180687976Y-133252380D01*
X180592738Y-133204761D01*
X180545119Y-133157142D01*
X180497500Y-133061904D01*
X180449880Y-132871428D01*
X180449880Y-132633333D01*
X180497500Y-132442857D01*
X180545119Y-132347619D01*
X180592738Y-132300000D01*
X180687976Y-132252380D01*
X177385714Y-124852380D02*
X177385714Y-123852380D01*
X177719047Y-124566666D01*
X178052380Y-123852380D01*
X178052380Y-124852380D01*
X178480952Y-124566666D02*
X178957142Y-124566666D01*
X178385714Y-124852380D02*
X178719047Y-123852380D01*
X179052380Y-124852380D01*
X179909523Y-124852380D02*
X179338095Y-124852380D01*
X179623809Y-124852380D02*
X179623809Y-123852380D01*
X179528571Y-123995238D01*
X179433333Y-124090476D01*
X179338095Y-124138095D01*
X180861904Y-124852380D02*
X180290476Y-124852380D01*
X180576190Y-124852380D02*
X180576190Y-123852380D01*
X180480952Y-123995238D01*
X180385714Y-124090476D01*
X180290476Y-124138095D01*
X177485714Y-122252380D02*
X177485714Y-121252380D01*
X177819047Y-121966666D01*
X178152380Y-121252380D01*
X178152380Y-122252380D01*
X178580952Y-121966666D02*
X179057142Y-121966666D01*
X178485714Y-122252380D02*
X178819047Y-121252380D01*
X179152380Y-122252380D01*
X180009523Y-122252380D02*
X179438095Y-122252380D01*
X179723809Y-122252380D02*
X179723809Y-121252380D01*
X179628571Y-121395238D01*
X179533333Y-121490476D01*
X179438095Y-121538095D01*
X180628571Y-121252380D02*
X180723809Y-121252380D01*
X180819047Y-121300000D01*
X180866666Y-121347619D01*
X180914285Y-121442857D01*
X180961904Y-121633333D01*
X180961904Y-121871428D01*
X180914285Y-122061904D01*
X180866666Y-122157142D01*
X180819047Y-122204761D01*
X180723809Y-122252380D01*
X180628571Y-122252380D01*
X180533333Y-122204761D01*
X180485714Y-122157142D01*
X180438095Y-122061904D01*
X180390476Y-121871428D01*
X180390476Y-121633333D01*
X180438095Y-121442857D01*
X180485714Y-121347619D01*
X180533333Y-121300000D01*
X180628571Y-121252380D01*
X177961904Y-119752380D02*
X177961904Y-118752380D01*
X178295238Y-119466666D01*
X178628571Y-118752380D01*
X178628571Y-119752380D01*
X179057142Y-119466666D02*
X179533333Y-119466666D01*
X178961904Y-119752380D02*
X179295238Y-118752380D01*
X179628571Y-119752380D01*
X180009523Y-119752380D02*
X180200000Y-119752380D01*
X180295238Y-119704761D01*
X180342857Y-119657142D01*
X180438095Y-119514285D01*
X180485714Y-119323809D01*
X180485714Y-118942857D01*
X180438095Y-118847619D01*
X180390476Y-118800000D01*
X180295238Y-118752380D01*
X180104761Y-118752380D01*
X180009523Y-118800000D01*
X179961904Y-118847619D01*
X179914285Y-118942857D01*
X179914285Y-119180952D01*
X179961904Y-119276190D01*
X180009523Y-119323809D01*
X180104761Y-119371428D01*
X180295238Y-119371428D01*
X180390476Y-119323809D01*
X180438095Y-119276190D01*
X180485714Y-119180952D01*
X177961904Y-117252380D02*
X177961904Y-116252380D01*
X178295238Y-116966666D01*
X178628571Y-116252380D01*
X178628571Y-117252380D01*
X179057142Y-116966666D02*
X179533333Y-116966666D01*
X178961904Y-117252380D02*
X179295238Y-116252380D01*
X179628571Y-117252380D01*
X180104761Y-116680952D02*
X180009523Y-116633333D01*
X179961904Y-116585714D01*
X179914285Y-116490476D01*
X179914285Y-116442857D01*
X179961904Y-116347619D01*
X180009523Y-116300000D01*
X180104761Y-116252380D01*
X180295238Y-116252380D01*
X180390476Y-116300000D01*
X180438095Y-116347619D01*
X180485714Y-116442857D01*
X180485714Y-116490476D01*
X180438095Y-116585714D01*
X180390476Y-116633333D01*
X180295238Y-116680952D01*
X180104761Y-116680952D01*
X180009523Y-116728571D01*
X179961904Y-116776190D01*
X179914285Y-116871428D01*
X179914285Y-117061904D01*
X179961904Y-117157142D01*
X180009523Y-117204761D01*
X180104761Y-117252380D01*
X180295238Y-117252380D01*
X180390476Y-117204761D01*
X180438095Y-117157142D01*
X180485714Y-117061904D01*
X180485714Y-116871428D01*
X180438095Y-116776190D01*
X180390476Y-116728571D01*
X180295238Y-116680952D01*
X177961904Y-114652380D02*
X177961904Y-113652380D01*
X178295238Y-114366666D01*
X178628571Y-113652380D01*
X178628571Y-114652380D01*
X179057142Y-114366666D02*
X179533333Y-114366666D01*
X178961904Y-114652380D02*
X179295238Y-113652380D01*
X179628571Y-114652380D01*
X179866666Y-113652380D02*
X180533333Y-113652380D01*
X180104761Y-114652380D01*
X177961904Y-112152380D02*
X177961904Y-111152380D01*
X178295238Y-111866666D01*
X178628571Y-111152380D01*
X178628571Y-112152380D01*
X179057142Y-111866666D02*
X179533333Y-111866666D01*
X178961904Y-112152380D02*
X179295238Y-111152380D01*
X179628571Y-112152380D01*
X180390476Y-111152380D02*
X180200000Y-111152380D01*
X180104761Y-111200000D01*
X180057142Y-111247619D01*
X179961904Y-111390476D01*
X179914285Y-111580952D01*
X179914285Y-111961904D01*
X179961904Y-112057142D01*
X180009523Y-112104761D01*
X180104761Y-112152380D01*
X180295238Y-112152380D01*
X180390476Y-112104761D01*
X180438095Y-112057142D01*
X180485714Y-111961904D01*
X180485714Y-111723809D01*
X180438095Y-111628571D01*
X180390476Y-111580952D01*
X180295238Y-111533333D01*
X180104761Y-111533333D01*
X180009523Y-111580952D01*
X179961904Y-111628571D01*
X179914285Y-111723809D01*
X177961904Y-109552380D02*
X177961904Y-108552380D01*
X178295238Y-109266666D01*
X178628571Y-108552380D01*
X178628571Y-109552380D01*
X179057142Y-109266666D02*
X179533333Y-109266666D01*
X178961904Y-109552380D02*
X179295238Y-108552380D01*
X179628571Y-109552380D01*
X180438095Y-108552380D02*
X179961904Y-108552380D01*
X179914285Y-109028571D01*
X179961904Y-108980952D01*
X180057142Y-108933333D01*
X180295238Y-108933333D01*
X180390476Y-108980952D01*
X180438095Y-109028571D01*
X180485714Y-109123809D01*
X180485714Y-109361904D01*
X180438095Y-109457142D01*
X180390476Y-109504761D01*
X180295238Y-109552380D01*
X180057142Y-109552380D01*
X179961904Y-109504761D01*
X179914285Y-109457142D01*
X177961904Y-107052380D02*
X177961904Y-106052380D01*
X178295238Y-106766666D01*
X178628571Y-106052380D01*
X178628571Y-107052380D01*
X179057142Y-106766666D02*
X179533333Y-106766666D01*
X178961904Y-107052380D02*
X179295238Y-106052380D01*
X179628571Y-107052380D01*
X180390476Y-106385714D02*
X180390476Y-107052380D01*
X180152380Y-106004761D02*
X179914285Y-106719047D01*
X180533333Y-106719047D01*
X178261904Y-75852380D02*
X178261904Y-74852380D01*
X178595238Y-75566666D01*
X178928571Y-74852380D01*
X178928571Y-75852380D01*
X179357142Y-75566666D02*
X179833333Y-75566666D01*
X179261904Y-75852380D02*
X179595238Y-74852380D01*
X179928571Y-75852380D01*
X180166666Y-74852380D02*
X180785714Y-74852380D01*
X180452380Y-75233333D01*
X180595238Y-75233333D01*
X180690476Y-75280952D01*
X180738095Y-75328571D01*
X180785714Y-75423809D01*
X180785714Y-75661904D01*
X180738095Y-75757142D01*
X180690476Y-75804761D01*
X180595238Y-75852380D01*
X180309523Y-75852380D01*
X180214285Y-75804761D01*
X180166666Y-75757142D01*
X178261904Y-73252380D02*
X178261904Y-72252380D01*
X178595238Y-72966666D01*
X178928571Y-72252380D01*
X178928571Y-73252380D01*
X179357142Y-72966666D02*
X179833333Y-72966666D01*
X179261904Y-73252380D02*
X179595238Y-72252380D01*
X179928571Y-73252380D01*
X180214285Y-72347619D02*
X180261904Y-72300000D01*
X180357142Y-72252380D01*
X180595238Y-72252380D01*
X180690476Y-72300000D01*
X180738095Y-72347619D01*
X180785714Y-72442857D01*
X180785714Y-72538095D01*
X180738095Y-72680952D01*
X180166666Y-73252380D01*
X180785714Y-73252380D01*
X178261904Y-70752380D02*
X178261904Y-69752380D01*
X178595238Y-70466666D01*
X178928571Y-69752380D01*
X178928571Y-70752380D01*
X179357142Y-70466666D02*
X179833333Y-70466666D01*
X179261904Y-70752380D02*
X179595238Y-69752380D01*
X179928571Y-70752380D01*
X180785714Y-70752380D02*
X180214285Y-70752380D01*
X180500000Y-70752380D02*
X180500000Y-69752380D01*
X180404761Y-69895238D01*
X180309523Y-69990476D01*
X180214285Y-70038095D01*
X178261904Y-68252380D02*
X178261904Y-67252380D01*
X178595238Y-67966666D01*
X178928571Y-67252380D01*
X178928571Y-68252380D01*
X179357142Y-67966666D02*
X179833333Y-67966666D01*
X179261904Y-68252380D02*
X179595238Y-67252380D01*
X179928571Y-68252380D01*
X180452380Y-67252380D02*
X180547619Y-67252380D01*
X180642857Y-67300000D01*
X180690476Y-67347619D01*
X180738095Y-67442857D01*
X180785714Y-67633333D01*
X180785714Y-67871428D01*
X180738095Y-68061904D01*
X180690476Y-68157142D01*
X180642857Y-68204761D01*
X180547619Y-68252380D01*
X180452380Y-68252380D01*
X180357142Y-68204761D01*
X180309523Y-68157142D01*
X180261904Y-68061904D01*
X180214285Y-67871428D01*
X180214285Y-67633333D01*
X180261904Y-67442857D01*
X180309523Y-67347619D01*
X180357142Y-67300000D01*
X180452380Y-67252380D01*
D11*
X121904761Y-129809523D02*
X121904761Y-125809523D01*
X123238095Y-128666666D01*
X124571428Y-125809523D01*
X124571428Y-129809523D01*
X126476190Y-129809523D02*
X126476190Y-127142857D01*
X126476190Y-125809523D02*
X126285714Y-126000000D01*
X126476190Y-126190476D01*
X126666666Y-126000000D01*
X126476190Y-125809523D01*
X126476190Y-126190476D01*
X130095238Y-129619047D02*
X129714285Y-129809523D01*
X128952380Y-129809523D01*
X128571428Y-129619047D01*
X128380952Y-129428571D01*
X128190476Y-129047619D01*
X128190476Y-127904761D01*
X128380952Y-127523809D01*
X128571428Y-127333333D01*
X128952380Y-127142857D01*
X129714285Y-127142857D01*
X130095238Y-127333333D01*
X131809523Y-129809523D02*
X131809523Y-127142857D01*
X131809523Y-127904761D02*
X132000000Y-127523809D01*
X132190476Y-127333333D01*
X132571428Y-127142857D01*
X132952380Y-127142857D01*
X134857142Y-129809523D02*
X134476190Y-129619047D01*
X134285714Y-129428571D01*
X134095238Y-129047619D01*
X134095238Y-127904761D01*
X134285714Y-127523809D01*
X134476190Y-127333333D01*
X134857142Y-127142857D01*
X135428571Y-127142857D01*
X135809523Y-127333333D01*
X136000000Y-127523809D01*
X136190476Y-127904761D01*
X136190476Y-129047619D01*
X136000000Y-129428571D01*
X135809523Y-129619047D01*
X135428571Y-129809523D01*
X134857142Y-129809523D01*
X139619047Y-129619047D02*
X139238095Y-129809523D01*
X138476190Y-129809523D01*
X138095238Y-129619047D01*
X137904761Y-129428571D01*
X137714285Y-129047619D01*
X137714285Y-127904761D01*
X137904761Y-127523809D01*
X138095238Y-127333333D01*
X138476190Y-127142857D01*
X139238095Y-127142857D01*
X139619047Y-127333333D01*
X141904761Y-129809523D02*
X141523809Y-129619047D01*
X141333333Y-129428571D01*
X141142857Y-129047619D01*
X141142857Y-127904761D01*
X141333333Y-127523809D01*
X141523809Y-127333333D01*
X141904761Y-127142857D01*
X142476190Y-127142857D01*
X142857142Y-127333333D01*
X143047619Y-127523809D01*
X143238095Y-127904761D01*
X143238095Y-129047619D01*
X143047619Y-129428571D01*
X142857142Y-129619047D01*
X142476190Y-129809523D01*
X141904761Y-129809523D01*
X146666666Y-129809523D02*
X146666666Y-125809523D01*
X146666666Y-129619047D02*
X146285714Y-129809523D01*
X145523809Y-129809523D01*
X145142857Y-129619047D01*
X144952380Y-129428571D01*
X144761904Y-129047619D01*
X144761904Y-127904761D01*
X144952380Y-127523809D01*
X145142857Y-127333333D01*
X145523809Y-127142857D01*
X146285714Y-127142857D01*
X146666666Y-127333333D01*
X150095238Y-129619047D02*
X149714285Y-129809523D01*
X148952380Y-129809523D01*
X148571428Y-129619047D01*
X148380952Y-129238095D01*
X148380952Y-127714285D01*
X148571428Y-127333333D01*
X148952380Y-127142857D01*
X149714285Y-127142857D01*
X150095238Y-127333333D01*
X150285714Y-127714285D01*
X150285714Y-128095238D01*
X148380952Y-128476190D01*
D12*
X170057142Y-93542857D02*
X169142857Y-93885714D01*
X170057142Y-94228571D01*
X170628571Y-93885714D02*
X171542857Y-93885714D01*
X172114285Y-93885714D02*
X173028571Y-93885714D01*
X174514285Y-94342857D02*
X174514285Y-93142857D01*
X174971428Y-93142857D01*
X175085714Y-93200000D01*
X175142857Y-93257142D01*
X175200000Y-93371428D01*
X175200000Y-93542857D01*
X175142857Y-93657142D01*
X175085714Y-93714285D01*
X174971428Y-93771428D01*
X174514285Y-93771428D01*
X175714285Y-94342857D02*
X175714285Y-93542857D01*
X175714285Y-93142857D02*
X175657142Y-93200000D01*
X175714285Y-93257142D01*
X175771428Y-93200000D01*
X175714285Y-93142857D01*
X175714285Y-93257142D01*
X176285714Y-93542857D02*
X176285714Y-94342857D01*
X176285714Y-93657142D02*
X176342857Y-93600000D01*
X176457142Y-93542857D01*
X176628571Y-93542857D01*
X176742857Y-93600000D01*
X176800000Y-93714285D01*
X176800000Y-94342857D01*
X178914285Y-94342857D02*
X178228571Y-94342857D01*
X178571428Y-94342857D02*
X178571428Y-93142857D01*
X178457142Y-93314285D01*
X178342857Y-93428571D01*
X178228571Y-93485714D01*
D10*
X168247619Y-48421309D02*
X167533333Y-48421309D01*
X167390476Y-48373690D01*
X167295238Y-48278452D01*
X167247619Y-48135595D01*
X167247619Y-48040357D01*
X167771428Y-48897500D02*
X167771428Y-49230833D01*
X167247619Y-49373690D02*
X167247619Y-48897500D01*
X168247619Y-48897500D01*
X168247619Y-49373690D01*
X149542857Y-48707023D02*
X149495238Y-48659404D01*
X149447619Y-48516547D01*
X149447619Y-48421309D01*
X149495238Y-48278452D01*
X149590476Y-48183214D01*
X149685714Y-48135595D01*
X149876190Y-48087976D01*
X150019047Y-48087976D01*
X150209523Y-48135595D01*
X150304761Y-48183214D01*
X150400000Y-48278452D01*
X150447619Y-48421309D01*
X150447619Y-48516547D01*
X150400000Y-48659404D01*
X150352380Y-48707023D01*
X149447619Y-49659404D02*
X149447619Y-49087976D01*
X149447619Y-49373690D02*
X150447619Y-49373690D01*
X150304761Y-49278452D01*
X150209523Y-49183214D01*
X150161904Y-49087976D01*
X157142857Y-48707023D02*
X157095238Y-48659404D01*
X157047619Y-48516547D01*
X157047619Y-48421309D01*
X157095238Y-48278452D01*
X157190476Y-48183214D01*
X157285714Y-48135595D01*
X157476190Y-48087976D01*
X157619047Y-48087976D01*
X157809523Y-48135595D01*
X157904761Y-48183214D01*
X158000000Y-48278452D01*
X158047619Y-48421309D01*
X158047619Y-48516547D01*
X158000000Y-48659404D01*
X157952380Y-48707023D01*
X157142857Y-49707023D02*
X157095238Y-49659404D01*
X157047619Y-49516547D01*
X157047619Y-49421309D01*
X157095238Y-49278452D01*
X157190476Y-49183214D01*
X157285714Y-49135595D01*
X157476190Y-49087976D01*
X157619047Y-49087976D01*
X157809523Y-49135595D01*
X157904761Y-49183214D01*
X158000000Y-49278452D01*
X158047619Y-49421309D01*
X158047619Y-49516547D01*
X158000000Y-49659404D01*
X157952380Y-49707023D01*
X159547619Y-48135595D02*
X160547619Y-48135595D01*
X159833333Y-48468928D01*
X160547619Y-48802261D01*
X159547619Y-48802261D01*
X159547619Y-49802261D02*
X159547619Y-49230833D01*
X159547619Y-49516547D02*
X160547619Y-49516547D01*
X160404761Y-49421309D01*
X160309523Y-49326071D01*
X160261904Y-49230833D01*
X142371428Y-48468928D02*
X142371428Y-48135595D01*
X141847619Y-48135595D02*
X142847619Y-48135595D01*
X142847619Y-48611785D01*
X141942857Y-49564166D02*
X141895238Y-49516547D01*
X141847619Y-49373690D01*
X141847619Y-49278452D01*
X141895238Y-49135595D01*
X141990476Y-49040357D01*
X142085714Y-48992738D01*
X142276190Y-48945119D01*
X142419047Y-48945119D01*
X142609523Y-48992738D01*
X142704761Y-49040357D01*
X142800000Y-49135595D01*
X142847619Y-49278452D01*
X142847619Y-49373690D01*
X142800000Y-49516547D01*
X142752380Y-49564166D01*
X137271428Y-48468928D02*
X137271428Y-48135595D01*
X136747619Y-48135595D02*
X137747619Y-48135595D01*
X137747619Y-48611785D01*
X137747619Y-48849880D02*
X136747619Y-49183214D01*
X137747619Y-49516547D01*
X174942857Y-48707023D02*
X174895238Y-48659404D01*
X174847619Y-48516547D01*
X174847619Y-48421309D01*
X174895238Y-48278452D01*
X174990476Y-48183214D01*
X175085714Y-48135595D01*
X175276190Y-48087976D01*
X175419047Y-48087976D01*
X175609523Y-48135595D01*
X175704761Y-48183214D01*
X175800000Y-48278452D01*
X175847619Y-48421309D01*
X175847619Y-48516547D01*
X175800000Y-48659404D01*
X175752380Y-48707023D01*
X174847619Y-49611785D02*
X174847619Y-49135595D01*
X175847619Y-49135595D01*
X174847619Y-49945119D02*
X175847619Y-49945119D01*
X174847619Y-50516547D02*
X175419047Y-50087976D01*
X175847619Y-50516547D02*
X175276190Y-49945119D01*
X154642857Y-48707023D02*
X154595238Y-48659404D01*
X154547619Y-48516547D01*
X154547619Y-48421309D01*
X154595238Y-48278452D01*
X154690476Y-48183214D01*
X154785714Y-48135595D01*
X154976190Y-48087976D01*
X155119047Y-48087976D01*
X155309523Y-48135595D01*
X155404761Y-48183214D01*
X155500000Y-48278452D01*
X155547619Y-48421309D01*
X155547619Y-48516547D01*
X155500000Y-48659404D01*
X155452380Y-48707023D01*
X154595238Y-49087976D02*
X154547619Y-49230833D01*
X154547619Y-49468928D01*
X154595238Y-49564166D01*
X154642857Y-49611785D01*
X154738095Y-49659404D01*
X154833333Y-49659404D01*
X154928571Y-49611785D01*
X154976190Y-49564166D01*
X155023809Y-49468928D01*
X155071428Y-49278452D01*
X155119047Y-49183214D01*
X155166666Y-49135595D01*
X155261904Y-49087976D01*
X155357142Y-49087976D01*
X155452380Y-49135595D01*
X155500000Y-49183214D01*
X155547619Y-49278452D01*
X155547619Y-49516547D01*
X155500000Y-49659404D01*
X144771428Y-48468928D02*
X144771428Y-48135595D01*
X144247619Y-48135595D02*
X145247619Y-48135595D01*
X145247619Y-48611785D01*
X144771428Y-49326071D02*
X144723809Y-49468928D01*
X144676190Y-49516547D01*
X144580952Y-49564166D01*
X144438095Y-49564166D01*
X144342857Y-49516547D01*
X144295238Y-49468928D01*
X144247619Y-49373690D01*
X144247619Y-48992738D01*
X145247619Y-48992738D01*
X145247619Y-49326071D01*
X145200000Y-49421309D01*
X145152380Y-49468928D01*
X145057142Y-49516547D01*
X144961904Y-49516547D01*
X144866666Y-49468928D01*
X144819047Y-49421309D01*
X144771428Y-49326071D01*
X144771428Y-48992738D01*
X139771428Y-48468928D02*
X139771428Y-48135595D01*
X139247619Y-48135595D02*
X140247619Y-48135595D01*
X140247619Y-48611785D01*
X140247619Y-48897500D02*
X140247619Y-49564166D01*
X139247619Y-48897500D01*
X139247619Y-49564166D01*
X172347619Y-48135595D02*
X173347619Y-48135595D01*
X173347619Y-48516547D01*
X173300000Y-48611785D01*
X173252380Y-48659404D01*
X173157142Y-48707023D01*
X173014285Y-48707023D01*
X172919047Y-48659404D01*
X172871428Y-48611785D01*
X172823809Y-48516547D01*
X172823809Y-48135595D01*
X172347619Y-49135595D02*
X173347619Y-49135595D01*
X164647619Y-48611785D02*
X164647619Y-48135595D01*
X165647619Y-48135595D01*
X165171428Y-49278452D02*
X165171428Y-48945119D01*
X164647619Y-48945119D02*
X165647619Y-48945119D01*
X165647619Y-49421309D01*
X182447619Y-48707023D02*
X182923809Y-48373690D01*
X182447619Y-48135595D02*
X183447619Y-48135595D01*
X183447619Y-48516547D01*
X183400000Y-48611785D01*
X183352380Y-48659404D01*
X183257142Y-48707023D01*
X183114285Y-48707023D01*
X183019047Y-48659404D01*
X182971428Y-48611785D01*
X182923809Y-48516547D01*
X182923809Y-48135595D01*
X182495238Y-49087976D02*
X182447619Y-49230833D01*
X182447619Y-49468928D01*
X182495238Y-49564166D01*
X182542857Y-49611785D01*
X182638095Y-49659404D01*
X182733333Y-49659404D01*
X182828571Y-49611785D01*
X182876190Y-49564166D01*
X182923809Y-49468928D01*
X182971428Y-49278452D01*
X183019047Y-49183214D01*
X183066666Y-49135595D01*
X183161904Y-49087976D01*
X183257142Y-49087976D01*
X183352380Y-49135595D01*
X183400000Y-49183214D01*
X183447619Y-49278452D01*
X183447619Y-49516547D01*
X183400000Y-49659404D01*
X183447619Y-49945119D02*
X183447619Y-50516547D01*
X182447619Y-50230833D02*
X183447619Y-50230833D01*
X152042857Y-48707023D02*
X151995238Y-48659404D01*
X151947619Y-48516547D01*
X151947619Y-48421309D01*
X151995238Y-48278452D01*
X152090476Y-48183214D01*
X152185714Y-48135595D01*
X152376190Y-48087976D01*
X152519047Y-48087976D01*
X152709523Y-48135595D01*
X152804761Y-48183214D01*
X152900000Y-48278452D01*
X152947619Y-48421309D01*
X152947619Y-48516547D01*
X152900000Y-48659404D01*
X152852380Y-48707023D01*
X152947619Y-49326071D02*
X152947619Y-49421309D01*
X152900000Y-49516547D01*
X152852380Y-49564166D01*
X152757142Y-49611785D01*
X152566666Y-49659404D01*
X152328571Y-49659404D01*
X152138095Y-49611785D01*
X152042857Y-49564166D01*
X151995238Y-49516547D01*
X151947619Y-49421309D01*
X151947619Y-49326071D01*
X151995238Y-49230833D01*
X152042857Y-49183214D01*
X152138095Y-49135595D01*
X152328571Y-49087976D01*
X152566666Y-49087976D01*
X152757142Y-49135595D01*
X152852380Y-49183214D01*
X152900000Y-49230833D01*
X152947619Y-49326071D01*
X169747619Y-48135595D02*
X170747619Y-48135595D01*
X169747619Y-48707023D01*
X170747619Y-48707023D01*
X185428571Y-48135595D02*
X185428571Y-48897500D01*
X185047619Y-48516547D02*
X185809523Y-48516547D01*
X186047619Y-49849880D02*
X186047619Y-49373690D01*
X185571428Y-49326071D01*
X185619047Y-49373690D01*
X185666666Y-49468928D01*
X185666666Y-49707023D01*
X185619047Y-49802261D01*
X185571428Y-49849880D01*
X185476190Y-49897500D01*
X185238095Y-49897500D01*
X185142857Y-49849880D01*
X185095238Y-49802261D01*
X185047619Y-49707023D01*
X185047619Y-49468928D01*
X185095238Y-49373690D01*
X185142857Y-49326071D01*
X186047619Y-50183214D02*
X185047619Y-50516547D01*
X186047619Y-50849880D01*
X162147619Y-48135595D02*
X163147619Y-48135595D01*
X162433333Y-48468928D01*
X163147619Y-48802261D01*
X162147619Y-48802261D01*
X163147619Y-49468928D02*
X163147619Y-49564166D01*
X163100000Y-49659404D01*
X163052380Y-49707023D01*
X162957142Y-49754642D01*
X162766666Y-49802261D01*
X162528571Y-49802261D01*
X162338095Y-49754642D01*
X162242857Y-49707023D01*
X162195238Y-49659404D01*
X162147619Y-49564166D01*
X162147619Y-49468928D01*
X162195238Y-49373690D01*
X162242857Y-49326071D01*
X162338095Y-49278452D01*
X162528571Y-49230833D01*
X162766666Y-49230833D01*
X162957142Y-49278452D01*
X163052380Y-49326071D01*
X163100000Y-49373690D01*
X163147619Y-49468928D01*
X86900000Y-48659404D02*
X86947619Y-48564166D01*
X86947619Y-48421309D01*
X86900000Y-48278452D01*
X86804761Y-48183214D01*
X86709523Y-48135595D01*
X86519047Y-48087976D01*
X86376190Y-48087976D01*
X86185714Y-48135595D01*
X86090476Y-48183214D01*
X85995238Y-48278452D01*
X85947619Y-48421309D01*
X85947619Y-48516547D01*
X85995238Y-48659404D01*
X86042857Y-48707023D01*
X86376190Y-48707023D01*
X86376190Y-48516547D01*
X85947619Y-49135595D02*
X86947619Y-49135595D01*
X85947619Y-49707023D01*
X86947619Y-49707023D01*
X85947619Y-50183214D02*
X86947619Y-50183214D01*
X86947619Y-50421309D01*
X86900000Y-50564166D01*
X86804761Y-50659404D01*
X86709523Y-50707023D01*
X86519047Y-50754642D01*
X86376190Y-50754642D01*
X86185714Y-50707023D01*
X86090476Y-50659404D01*
X85995238Y-50564166D01*
X85947619Y-50421309D01*
X85947619Y-50183214D01*
X101247619Y-48135595D02*
X102247619Y-48135595D01*
X102247619Y-48373690D01*
X102200000Y-48516547D01*
X102104761Y-48611785D01*
X102009523Y-48659404D01*
X101819047Y-48707023D01*
X101676190Y-48707023D01*
X101485714Y-48659404D01*
X101390476Y-48611785D01*
X101295238Y-48516547D01*
X101247619Y-48373690D01*
X101247619Y-48135595D01*
X101914285Y-49564166D02*
X101247619Y-49564166D01*
X102295238Y-49326071D02*
X101580952Y-49087976D01*
X101580952Y-49707023D01*
X111347619Y-48135595D02*
X112347619Y-48135595D01*
X112347619Y-48373690D01*
X112300000Y-48516547D01*
X112204761Y-48611785D01*
X112109523Y-48659404D01*
X111919047Y-48707023D01*
X111776190Y-48707023D01*
X111585714Y-48659404D01*
X111490476Y-48611785D01*
X111395238Y-48516547D01*
X111347619Y-48373690D01*
X111347619Y-48135595D01*
X112347619Y-49326071D02*
X112347619Y-49421309D01*
X112300000Y-49516547D01*
X112252380Y-49564166D01*
X112157142Y-49611785D01*
X111966666Y-49659404D01*
X111728571Y-49659404D01*
X111538095Y-49611785D01*
X111442857Y-49564166D01*
X111395238Y-49516547D01*
X111347619Y-49421309D01*
X111347619Y-49326071D01*
X111395238Y-49230833D01*
X111442857Y-49183214D01*
X111538095Y-49135595D01*
X111728571Y-49087976D01*
X111966666Y-49087976D01*
X112157142Y-49135595D01*
X112252380Y-49183214D01*
X112300000Y-49230833D01*
X112347619Y-49326071D01*
X98647619Y-48135595D02*
X99647619Y-48135595D01*
X99647619Y-48373690D01*
X99600000Y-48516547D01*
X99504761Y-48611785D01*
X99409523Y-48659404D01*
X99219047Y-48707023D01*
X99076190Y-48707023D01*
X98885714Y-48659404D01*
X98790476Y-48611785D01*
X98695238Y-48516547D01*
X98647619Y-48373690D01*
X98647619Y-48135595D01*
X99647619Y-49611785D02*
X99647619Y-49135595D01*
X99171428Y-49087976D01*
X99219047Y-49135595D01*
X99266666Y-49230833D01*
X99266666Y-49468928D01*
X99219047Y-49564166D01*
X99171428Y-49611785D01*
X99076190Y-49659404D01*
X98838095Y-49659404D01*
X98742857Y-49611785D01*
X98695238Y-49564166D01*
X98647619Y-49468928D01*
X98647619Y-49230833D01*
X98695238Y-49135595D01*
X98742857Y-49087976D01*
X114847619Y-48040357D02*
X113847619Y-48278452D01*
X114561904Y-48468928D01*
X113847619Y-48659404D01*
X114847619Y-48897500D01*
X113847619Y-49849880D02*
X114323809Y-49516547D01*
X113847619Y-49278452D02*
X114847619Y-49278452D01*
X114847619Y-49659404D01*
X114800000Y-49754642D01*
X114752380Y-49802261D01*
X114657142Y-49849880D01*
X114514285Y-49849880D01*
X114419047Y-49802261D01*
X114371428Y-49754642D01*
X114323809Y-49659404D01*
X114323809Y-49278452D01*
X114847619Y-50183214D02*
X114847619Y-50802261D01*
X114466666Y-50468928D01*
X114466666Y-50611785D01*
X114419047Y-50707023D01*
X114371428Y-50754642D01*
X114276190Y-50802261D01*
X114038095Y-50802261D01*
X113942857Y-50754642D01*
X113895238Y-50707023D01*
X113847619Y-50611785D01*
X113847619Y-50326071D01*
X113895238Y-50230833D01*
X113942857Y-50183214D01*
X108847619Y-48135595D02*
X109847619Y-48135595D01*
X109847619Y-48373690D01*
X109800000Y-48516547D01*
X109704761Y-48611785D01*
X109609523Y-48659404D01*
X109419047Y-48707023D01*
X109276190Y-48707023D01*
X109085714Y-48659404D01*
X108990476Y-48611785D01*
X108895238Y-48516547D01*
X108847619Y-48373690D01*
X108847619Y-48135595D01*
X108847619Y-49659404D02*
X108847619Y-49087976D01*
X108847619Y-49373690D02*
X109847619Y-49373690D01*
X109704761Y-49278452D01*
X109609523Y-49183214D01*
X109561904Y-49087976D01*
X103747619Y-48135595D02*
X104747619Y-48135595D01*
X104747619Y-48373690D01*
X104700000Y-48516547D01*
X104604761Y-48611785D01*
X104509523Y-48659404D01*
X104319047Y-48707023D01*
X104176190Y-48707023D01*
X103985714Y-48659404D01*
X103890476Y-48611785D01*
X103795238Y-48516547D01*
X103747619Y-48373690D01*
X103747619Y-48135595D01*
X104747619Y-49040357D02*
X104747619Y-49659404D01*
X104366666Y-49326071D01*
X104366666Y-49468928D01*
X104319047Y-49564166D01*
X104271428Y-49611785D01*
X104176190Y-49659404D01*
X103938095Y-49659404D01*
X103842857Y-49611785D01*
X103795238Y-49564166D01*
X103747619Y-49468928D01*
X103747619Y-49183214D01*
X103795238Y-49087976D01*
X103842857Y-49040357D01*
X96147619Y-48135595D02*
X97147619Y-48135595D01*
X97147619Y-48373690D01*
X97100000Y-48516547D01*
X97004761Y-48611785D01*
X96909523Y-48659404D01*
X96719047Y-48707023D01*
X96576190Y-48707023D01*
X96385714Y-48659404D01*
X96290476Y-48611785D01*
X96195238Y-48516547D01*
X96147619Y-48373690D01*
X96147619Y-48135595D01*
X97147619Y-49564166D02*
X97147619Y-49373690D01*
X97100000Y-49278452D01*
X97052380Y-49230833D01*
X96909523Y-49135595D01*
X96719047Y-49087976D01*
X96338095Y-49087976D01*
X96242857Y-49135595D01*
X96195238Y-49183214D01*
X96147619Y-49278452D01*
X96147619Y-49468928D01*
X96195238Y-49564166D01*
X96242857Y-49611785D01*
X96338095Y-49659404D01*
X96576190Y-49659404D01*
X96671428Y-49611785D01*
X96719047Y-49564166D01*
X96766666Y-49468928D01*
X96766666Y-49278452D01*
X96719047Y-49183214D01*
X96671428Y-49135595D01*
X96576190Y-49087976D01*
X93547619Y-48135595D02*
X94547619Y-48135595D01*
X94547619Y-48373690D01*
X94500000Y-48516547D01*
X94404761Y-48611785D01*
X94309523Y-48659404D01*
X94119047Y-48707023D01*
X93976190Y-48707023D01*
X93785714Y-48659404D01*
X93690476Y-48611785D01*
X93595238Y-48516547D01*
X93547619Y-48373690D01*
X93547619Y-48135595D01*
X94547619Y-49040357D02*
X94547619Y-49707023D01*
X93547619Y-49278452D01*
X106247619Y-48135595D02*
X107247619Y-48135595D01*
X107247619Y-48373690D01*
X107200000Y-48516547D01*
X107104761Y-48611785D01*
X107009523Y-48659404D01*
X106819047Y-48707023D01*
X106676190Y-48707023D01*
X106485714Y-48659404D01*
X106390476Y-48611785D01*
X106295238Y-48516547D01*
X106247619Y-48373690D01*
X106247619Y-48135595D01*
X107152380Y-49087976D02*
X107200000Y-49135595D01*
X107247619Y-49230833D01*
X107247619Y-49468928D01*
X107200000Y-49564166D01*
X107152380Y-49611785D01*
X107057142Y-49659404D01*
X106961904Y-49659404D01*
X106819047Y-49611785D01*
X106247619Y-49040357D01*
X106247619Y-49659404D01*
X134671428Y-48468928D02*
X134671428Y-48135595D01*
X134147619Y-48135595D02*
X135147619Y-48135595D01*
X135147619Y-48611785D01*
X134147619Y-48992738D02*
X135147619Y-48992738D01*
X134147619Y-49564166D01*
X135147619Y-49564166D01*
X117447619Y-48040357D02*
X116447619Y-48278452D01*
X117161904Y-48468928D01*
X116447619Y-48659404D01*
X117447619Y-48897500D01*
X116447619Y-49849880D02*
X116923809Y-49516547D01*
X116447619Y-49278452D02*
X117447619Y-49278452D01*
X117447619Y-49659404D01*
X117400000Y-49754642D01*
X117352380Y-49802261D01*
X117257142Y-49849880D01*
X117114285Y-49849880D01*
X117019047Y-49802261D01*
X116971428Y-49754642D01*
X116923809Y-49659404D01*
X116923809Y-49278452D01*
X117352380Y-50230833D02*
X117400000Y-50278452D01*
X117447619Y-50373690D01*
X117447619Y-50611785D01*
X117400000Y-50707023D01*
X117352380Y-50754642D01*
X117257142Y-50802261D01*
X117161904Y-50802261D01*
X117019047Y-50754642D01*
X116447619Y-50183214D01*
X116447619Y-50802261D01*
X119947619Y-48040357D02*
X118947619Y-48278452D01*
X119661904Y-48468928D01*
X118947619Y-48659404D01*
X119947619Y-48897500D01*
X118947619Y-49849880D02*
X119423809Y-49516547D01*
X118947619Y-49278452D02*
X119947619Y-49278452D01*
X119947619Y-49659404D01*
X119900000Y-49754642D01*
X119852380Y-49802261D01*
X119757142Y-49849880D01*
X119614285Y-49849880D01*
X119519047Y-49802261D01*
X119471428Y-49754642D01*
X119423809Y-49659404D01*
X119423809Y-49278452D01*
X118947619Y-50802261D02*
X118947619Y-50230833D01*
X118947619Y-50516547D02*
X119947619Y-50516547D01*
X119804761Y-50421309D01*
X119709523Y-50326071D01*
X119661904Y-50230833D01*
X129147619Y-48707023D02*
X129623809Y-48373690D01*
X129147619Y-48135595D02*
X130147619Y-48135595D01*
X130147619Y-48516547D01*
X130100000Y-48611785D01*
X130052380Y-48659404D01*
X129957142Y-48707023D01*
X129814285Y-48707023D01*
X129719047Y-48659404D01*
X129671428Y-48611785D01*
X129623809Y-48516547D01*
X129623809Y-48135595D01*
X129147619Y-49707023D02*
X129623809Y-49373690D01*
X129147619Y-49135595D02*
X130147619Y-49135595D01*
X130147619Y-49516547D01*
X130100000Y-49611785D01*
X130052380Y-49659404D01*
X129957142Y-49707023D01*
X129814285Y-49707023D01*
X129719047Y-49659404D01*
X129671428Y-49611785D01*
X129623809Y-49516547D01*
X129623809Y-49135595D01*
X129147619Y-50659404D02*
X129147619Y-50087976D01*
X129147619Y-50373690D02*
X130147619Y-50373690D01*
X130004761Y-50278452D01*
X129909523Y-50183214D01*
X129861904Y-50087976D01*
X131747619Y-48707023D02*
X132223809Y-48373690D01*
X131747619Y-48135595D02*
X132747619Y-48135595D01*
X132747619Y-48516547D01*
X132700000Y-48611785D01*
X132652380Y-48659404D01*
X132557142Y-48707023D01*
X132414285Y-48707023D01*
X132319047Y-48659404D01*
X132271428Y-48611785D01*
X132223809Y-48516547D01*
X132223809Y-48135595D01*
X131747619Y-49707023D02*
X132223809Y-49373690D01*
X131747619Y-49135595D02*
X132747619Y-49135595D01*
X132747619Y-49516547D01*
X132700000Y-49611785D01*
X132652380Y-49659404D01*
X132557142Y-49707023D01*
X132414285Y-49707023D01*
X132319047Y-49659404D01*
X132271428Y-49611785D01*
X132223809Y-49516547D01*
X132223809Y-49135595D01*
X132747619Y-50326071D02*
X132747619Y-50421309D01*
X132700000Y-50516547D01*
X132652380Y-50564166D01*
X132557142Y-50611785D01*
X132366666Y-50659404D01*
X132128571Y-50659404D01*
X131938095Y-50611785D01*
X131842857Y-50564166D01*
X131795238Y-50516547D01*
X131747619Y-50421309D01*
X131747619Y-50326071D01*
X131795238Y-50230833D01*
X131842857Y-50183214D01*
X131938095Y-50135595D01*
X132128571Y-50087976D01*
X132366666Y-50087976D01*
X132557142Y-50135595D01*
X132652380Y-50183214D01*
X132700000Y-50230833D01*
X132747619Y-50326071D01*
X124047619Y-48707023D02*
X124523809Y-48373690D01*
X124047619Y-48135595D02*
X125047619Y-48135595D01*
X125047619Y-48516547D01*
X125000000Y-48611785D01*
X124952380Y-48659404D01*
X124857142Y-48707023D01*
X124714285Y-48707023D01*
X124619047Y-48659404D01*
X124571428Y-48611785D01*
X124523809Y-48516547D01*
X124523809Y-48135595D01*
X124047619Y-49707023D02*
X124523809Y-49373690D01*
X124047619Y-49135595D02*
X125047619Y-49135595D01*
X125047619Y-49516547D01*
X125000000Y-49611785D01*
X124952380Y-49659404D01*
X124857142Y-49707023D01*
X124714285Y-49707023D01*
X124619047Y-49659404D01*
X124571428Y-49611785D01*
X124523809Y-49516547D01*
X124523809Y-49135595D01*
X125047619Y-50040357D02*
X125047619Y-50659404D01*
X124666666Y-50326071D01*
X124666666Y-50468928D01*
X124619047Y-50564166D01*
X124571428Y-50611785D01*
X124476190Y-50659404D01*
X124238095Y-50659404D01*
X124142857Y-50611785D01*
X124095238Y-50564166D01*
X124047619Y-50468928D01*
X124047619Y-50183214D01*
X124095238Y-50087976D01*
X124142857Y-50040357D01*
X122547619Y-48040357D02*
X121547619Y-48278452D01*
X122261904Y-48468928D01*
X121547619Y-48659404D01*
X122547619Y-48897500D01*
X121547619Y-49849880D02*
X122023809Y-49516547D01*
X121547619Y-49278452D02*
X122547619Y-49278452D01*
X122547619Y-49659404D01*
X122500000Y-49754642D01*
X122452380Y-49802261D01*
X122357142Y-49849880D01*
X122214285Y-49849880D01*
X122119047Y-49802261D01*
X122071428Y-49754642D01*
X122023809Y-49659404D01*
X122023809Y-49278452D01*
X122547619Y-50468928D02*
X122547619Y-50564166D01*
X122500000Y-50659404D01*
X122452380Y-50707023D01*
X122357142Y-50754642D01*
X122166666Y-50802261D01*
X121928571Y-50802261D01*
X121738095Y-50754642D01*
X121642857Y-50707023D01*
X121595238Y-50659404D01*
X121547619Y-50564166D01*
X121547619Y-50468928D01*
X121595238Y-50373690D01*
X121642857Y-50326071D01*
X121738095Y-50278452D01*
X121928571Y-50230833D01*
X122166666Y-50230833D01*
X122357142Y-50278452D01*
X122452380Y-50326071D01*
X122500000Y-50373690D01*
X122547619Y-50468928D01*
X126547619Y-48707023D02*
X127023809Y-48373690D01*
X126547619Y-48135595D02*
X127547619Y-48135595D01*
X127547619Y-48516547D01*
X127500000Y-48611785D01*
X127452380Y-48659404D01*
X127357142Y-48707023D01*
X127214285Y-48707023D01*
X127119047Y-48659404D01*
X127071428Y-48611785D01*
X127023809Y-48516547D01*
X127023809Y-48135595D01*
X126547619Y-49707023D02*
X127023809Y-49373690D01*
X126547619Y-49135595D02*
X127547619Y-49135595D01*
X127547619Y-49516547D01*
X127500000Y-49611785D01*
X127452380Y-49659404D01*
X127357142Y-49707023D01*
X127214285Y-49707023D01*
X127119047Y-49659404D01*
X127071428Y-49611785D01*
X127023809Y-49516547D01*
X127023809Y-49135595D01*
X127452380Y-50087976D02*
X127500000Y-50135595D01*
X127547619Y-50230833D01*
X127547619Y-50468928D01*
X127500000Y-50564166D01*
X127452380Y-50611785D01*
X127357142Y-50659404D01*
X127261904Y-50659404D01*
X127119047Y-50611785D01*
X126547619Y-50040357D01*
X126547619Y-50659404D01*
X185571428Y-133864404D02*
X185571428Y-133102500D01*
X185952380Y-133483452D02*
X185190476Y-133483452D01*
X184952380Y-132150119D02*
X184952380Y-132626309D01*
X185428571Y-132673928D01*
X185380952Y-132626309D01*
X185333333Y-132531071D01*
X185333333Y-132292976D01*
X185380952Y-132197738D01*
X185428571Y-132150119D01*
X185523809Y-132102500D01*
X185761904Y-132102500D01*
X185857142Y-132150119D01*
X185904761Y-132197738D01*
X185952380Y-132292976D01*
X185952380Y-132531071D01*
X185904761Y-132626309D01*
X185857142Y-132673928D01*
X184952380Y-131816785D02*
X185952380Y-131483452D01*
X184952380Y-131150119D01*
X85900000Y-133340595D02*
X85852380Y-133435833D01*
X85852380Y-133578690D01*
X85900000Y-133721547D01*
X85995238Y-133816785D01*
X86090476Y-133864404D01*
X86280952Y-133912023D01*
X86423809Y-133912023D01*
X86614285Y-133864404D01*
X86709523Y-133816785D01*
X86804761Y-133721547D01*
X86852380Y-133578690D01*
X86852380Y-133483452D01*
X86804761Y-133340595D01*
X86757142Y-133292976D01*
X86423809Y-133292976D01*
X86423809Y-133483452D01*
X86852380Y-132864404D02*
X85852380Y-132864404D01*
X86852380Y-132292976D01*
X85852380Y-132292976D01*
X86852380Y-131816785D02*
X85852380Y-131816785D01*
X85852380Y-131578690D01*
X85900000Y-131435833D01*
X85995238Y-131340595D01*
X86090476Y-131292976D01*
X86280952Y-131245357D01*
X86423809Y-131245357D01*
X86614285Y-131292976D01*
X86709523Y-131340595D01*
X86804761Y-131435833D01*
X86852380Y-131578690D01*
X86852380Y-131816785D01*
D13*
X173772936Y-117835000D02*
X174227064Y-117835000D01*
X173772936Y-116365000D02*
X174227064Y-116365000D01*
X167272936Y-117835000D02*
X167727064Y-117835000D01*
X167272936Y-116365000D02*
X167727064Y-116365000D01*
X160772936Y-117835000D02*
X161227064Y-117835000D01*
X160772936Y-116365000D02*
X161227064Y-116365000D01*
X154172936Y-117835000D02*
X154627064Y-117835000D01*
X154172936Y-116365000D02*
X154627064Y-116365000D01*
X173772936Y-106335000D02*
X174227064Y-106335000D01*
X173772936Y-104865000D02*
X174227064Y-104865000D01*
X167272936Y-106335000D02*
X167727064Y-106335000D01*
X167272936Y-104865000D02*
X167727064Y-104865000D01*
X160772936Y-106335000D02*
X161227064Y-106335000D01*
X160772936Y-104865000D02*
X161227064Y-104865000D01*
X154272936Y-106335000D02*
X154727064Y-106335000D01*
X154272936Y-104865000D02*
X154727064Y-104865000D01*
X142472936Y-117835000D02*
X142927064Y-117835000D01*
X142472936Y-116365000D02*
X142927064Y-116365000D01*
X135972936Y-117835000D02*
X136427064Y-117835000D01*
X135972936Y-116365000D02*
X136427064Y-116365000D01*
X129472936Y-117835000D02*
X129927064Y-117835000D01*
X129472936Y-116365000D02*
X129927064Y-116365000D01*
X122972936Y-117835000D02*
X123427064Y-117835000D01*
X122972936Y-116365000D02*
X123427064Y-116365000D01*
X142472936Y-106335000D02*
X142927064Y-106335000D01*
X142472936Y-104865000D02*
X142927064Y-104865000D01*
X135972936Y-106335000D02*
X136427064Y-106335000D01*
X135972936Y-104865000D02*
X136427064Y-104865000D01*
X129472936Y-106335000D02*
X129927064Y-106335000D01*
X129472936Y-104865000D02*
X129927064Y-104865000D01*
X122972936Y-106335000D02*
X123427064Y-106335000D01*
X122972936Y-104865000D02*
X123427064Y-104865000D01*
X111172936Y-117835000D02*
X111627064Y-117835000D01*
X111172936Y-116365000D02*
X111627064Y-116365000D01*
X104672936Y-117835000D02*
X105127064Y-117835000D01*
X104672936Y-116365000D02*
X105127064Y-116365000D01*
X98172936Y-117835000D02*
X98627064Y-117835000D01*
X98172936Y-116365000D02*
X98627064Y-116365000D01*
X91672936Y-117835000D02*
X92127064Y-117835000D01*
X91672936Y-116365000D02*
X92127064Y-116365000D01*
X111172936Y-106335000D02*
X111627064Y-106335000D01*
X111172936Y-104865000D02*
X111627064Y-104865000D01*
X104672936Y-106335000D02*
X105127064Y-106335000D01*
X104672936Y-104865000D02*
X105127064Y-104865000D01*
X98172936Y-106335000D02*
X98627064Y-106335000D01*
X98172936Y-104865000D02*
X98627064Y-104865000D01*
X91672936Y-106335000D02*
X92127064Y-106335000D01*
X91672936Y-104865000D02*
X92127064Y-104865000D01*
X172140000Y-121560000D02*
X175000000Y-121560000D01*
X172140000Y-119640000D02*
X172140000Y-121560000D01*
X175000000Y-119640000D02*
X172140000Y-119640000D01*
X165640000Y-121560000D02*
X168500000Y-121560000D01*
X165640000Y-119640000D02*
X165640000Y-121560000D01*
X168500000Y-119640000D02*
X165640000Y-119640000D01*
X159140000Y-121560000D02*
X162000000Y-121560000D01*
X159140000Y-119640000D02*
X159140000Y-121560000D01*
X162000000Y-119640000D02*
X159140000Y-119640000D01*
X152640000Y-121560000D02*
X155500000Y-121560000D01*
X152640000Y-119640000D02*
X152640000Y-121560000D01*
X155500000Y-119640000D02*
X152640000Y-119640000D01*
X172140000Y-109960000D02*
X175000000Y-109960000D01*
X172140000Y-108040000D02*
X172140000Y-109960000D01*
X175000000Y-108040000D02*
X172140000Y-108040000D01*
X165640000Y-109960000D02*
X168500000Y-109960000D01*
X165640000Y-108040000D02*
X165640000Y-109960000D01*
X168500000Y-108040000D02*
X165640000Y-108040000D01*
X159140000Y-109960000D02*
X162000000Y-109960000D01*
X159140000Y-108040000D02*
X159140000Y-109960000D01*
X162000000Y-108040000D02*
X159140000Y-108040000D01*
X152640000Y-109960000D02*
X155500000Y-109960000D01*
X152640000Y-108040000D02*
X152640000Y-109960000D01*
X155500000Y-108040000D02*
X152640000Y-108040000D01*
X140840000Y-121560000D02*
X143700000Y-121560000D01*
X140840000Y-119640000D02*
X140840000Y-121560000D01*
X143700000Y-119640000D02*
X140840000Y-119640000D01*
X134340000Y-121560000D02*
X137200000Y-121560000D01*
X134340000Y-119640000D02*
X134340000Y-121560000D01*
X137200000Y-119640000D02*
X134340000Y-119640000D01*
X127840000Y-121560000D02*
X130700000Y-121560000D01*
X127840000Y-119640000D02*
X127840000Y-121560000D01*
X130700000Y-119640000D02*
X127840000Y-119640000D01*
X121340000Y-121560000D02*
X124200000Y-121560000D01*
X121340000Y-119640000D02*
X121340000Y-121560000D01*
X124200000Y-119640000D02*
X121340000Y-119640000D01*
X140840000Y-109960000D02*
X143700000Y-109960000D01*
X140840000Y-108040000D02*
X140840000Y-109960000D01*
X143700000Y-108040000D02*
X140840000Y-108040000D01*
X134340000Y-109960000D02*
X137200000Y-109960000D01*
X134340000Y-108040000D02*
X134340000Y-109960000D01*
X137200000Y-108040000D02*
X134340000Y-108040000D01*
X127840000Y-109960000D02*
X130700000Y-109960000D01*
X127840000Y-108040000D02*
X127840000Y-109960000D01*
X130700000Y-108040000D02*
X127840000Y-108040000D01*
X121340000Y-109960000D02*
X124200000Y-109960000D01*
X121340000Y-108040000D02*
X121340000Y-109960000D01*
X124200000Y-108040000D02*
X121340000Y-108040000D01*
X109540000Y-121560000D02*
X112400000Y-121560000D01*
X109540000Y-119640000D02*
X109540000Y-121560000D01*
X112400000Y-119640000D02*
X109540000Y-119640000D01*
X103040000Y-121560000D02*
X105900000Y-121560000D01*
X103040000Y-119640000D02*
X103040000Y-121560000D01*
X105900000Y-119640000D02*
X103040000Y-119640000D01*
X96540000Y-121560000D02*
X99400000Y-121560000D01*
X96540000Y-119640000D02*
X96540000Y-121560000D01*
X99400000Y-119640000D02*
X96540000Y-119640000D01*
X90040000Y-121560000D02*
X92900000Y-121560000D01*
X90040000Y-119640000D02*
X90040000Y-121560000D01*
X92900000Y-119640000D02*
X90040000Y-119640000D01*
X109515000Y-109960000D02*
X112375000Y-109960000D01*
X109515000Y-108040000D02*
X109515000Y-109960000D01*
X112375000Y-108040000D02*
X109515000Y-108040000D01*
X103040000Y-109960000D02*
X105900000Y-109960000D01*
X103040000Y-108040000D02*
X103040000Y-109960000D01*
X105900000Y-108040000D02*
X103040000Y-108040000D01*
X96540000Y-109960000D02*
X99400000Y-109960000D01*
X96540000Y-108040000D02*
X96540000Y-109960000D01*
X99400000Y-108040000D02*
X96540000Y-108040000D01*
X90040000Y-109960000D02*
X92900000Y-109960000D01*
X90040000Y-108040000D02*
X90040000Y-109960000D01*
X92900000Y-108040000D02*
X90040000Y-108040000D01*
X149230000Y-95190000D02*
X167130000Y-95190000D01*
X149230000Y-59390000D02*
X149230000Y-95190000D01*
X167130000Y-59390000D02*
X149230000Y-59390000D01*
X167130000Y-95190000D02*
X167130000Y-59390000D01*
X151720000Y-95130000D02*
X157180000Y-95130000D01*
X151720000Y-59450000D02*
X151720000Y-95130000D01*
X164640000Y-59450000D02*
X151720000Y-59450000D01*
X164640000Y-95130000D02*
X164640000Y-59450000D01*
X159180000Y-95130000D02*
X164640000Y-95130000D01*
X157180000Y-95130000D02*
G75*
G02*
X159180000Y-95130000I1000000J0D01*
G01*
X121730000Y-95190000D02*
X139630000Y-95190000D01*
X121730000Y-59390000D02*
X121730000Y-95190000D01*
X139630000Y-59390000D02*
X121730000Y-59390000D01*
X139630000Y-95190000D02*
X139630000Y-59390000D01*
X124220000Y-95130000D02*
X129680000Y-95130000D01*
X124220000Y-59450000D02*
X124220000Y-95130000D01*
X137140000Y-59450000D02*
X124220000Y-59450000D01*
X137140000Y-95130000D02*
X137140000Y-59450000D01*
X131680000Y-95130000D02*
X137140000Y-95130000D01*
X129680000Y-95130000D02*
G75*
G02*
X131680000Y-95130000I1000000J0D01*
G01*
X94630000Y-95190000D02*
X112530000Y-95190000D01*
X94630000Y-59390000D02*
X94630000Y-95190000D01*
X112530000Y-59390000D02*
X94630000Y-59390000D01*
X112530000Y-95190000D02*
X112530000Y-59390000D01*
X97120000Y-95130000D02*
X102580000Y-95130000D01*
X97120000Y-59450000D02*
X97120000Y-95130000D01*
X110040000Y-59450000D02*
X97120000Y-59450000D01*
X110040000Y-95130000D02*
X110040000Y-59450000D01*
X104580000Y-95130000D02*
X110040000Y-95130000D01*
X102580000Y-95130000D02*
G75*
G02*
X104580000Y-95130000I1000000J0D01*
G01*
X146435000Y-95061252D02*
X146435000Y-94538748D01*
X144965000Y-95061252D02*
X144965000Y-94538748D01*
X118935000Y-95061252D02*
X118935000Y-94538748D01*
X117465000Y-95061252D02*
X117465000Y-94538748D01*
X91835000Y-95161252D02*
X91835000Y-94638748D01*
X90365000Y-95161252D02*
X90365000Y-94638748D01*
D10*
X173357142Y-115902380D02*
X173023809Y-115426190D01*
X172785714Y-115902380D02*
X172785714Y-114902380D01*
X173166666Y-114902380D01*
X173261904Y-114950000D01*
X173309523Y-114997619D01*
X173357142Y-115092857D01*
X173357142Y-115235714D01*
X173309523Y-115330952D01*
X173261904Y-115378571D01*
X173166666Y-115426190D01*
X172785714Y-115426190D01*
X173738095Y-114997619D02*
X173785714Y-114950000D01*
X173880952Y-114902380D01*
X174119047Y-114902380D01*
X174214285Y-114950000D01*
X174261904Y-114997619D01*
X174309523Y-115092857D01*
X174309523Y-115188095D01*
X174261904Y-115330952D01*
X173690476Y-115902380D01*
X174309523Y-115902380D01*
X175166666Y-115235714D02*
X175166666Y-115902380D01*
X174928571Y-114854761D02*
X174690476Y-115569047D01*
X175309523Y-115569047D01*
X166857142Y-115902380D02*
X166523809Y-115426190D01*
X166285714Y-115902380D02*
X166285714Y-114902380D01*
X166666666Y-114902380D01*
X166761904Y-114950000D01*
X166809523Y-114997619D01*
X166857142Y-115092857D01*
X166857142Y-115235714D01*
X166809523Y-115330952D01*
X166761904Y-115378571D01*
X166666666Y-115426190D01*
X166285714Y-115426190D01*
X167238095Y-114997619D02*
X167285714Y-114950000D01*
X167380952Y-114902380D01*
X167619047Y-114902380D01*
X167714285Y-114950000D01*
X167761904Y-114997619D01*
X167809523Y-115092857D01*
X167809523Y-115188095D01*
X167761904Y-115330952D01*
X167190476Y-115902380D01*
X167809523Y-115902380D01*
X168142857Y-114902380D02*
X168761904Y-114902380D01*
X168428571Y-115283333D01*
X168571428Y-115283333D01*
X168666666Y-115330952D01*
X168714285Y-115378571D01*
X168761904Y-115473809D01*
X168761904Y-115711904D01*
X168714285Y-115807142D01*
X168666666Y-115854761D01*
X168571428Y-115902380D01*
X168285714Y-115902380D01*
X168190476Y-115854761D01*
X168142857Y-115807142D01*
X160357142Y-115902380D02*
X160023809Y-115426190D01*
X159785714Y-115902380D02*
X159785714Y-114902380D01*
X160166666Y-114902380D01*
X160261904Y-114950000D01*
X160309523Y-114997619D01*
X160357142Y-115092857D01*
X160357142Y-115235714D01*
X160309523Y-115330952D01*
X160261904Y-115378571D01*
X160166666Y-115426190D01*
X159785714Y-115426190D01*
X160738095Y-114997619D02*
X160785714Y-114950000D01*
X160880952Y-114902380D01*
X161119047Y-114902380D01*
X161214285Y-114950000D01*
X161261904Y-114997619D01*
X161309523Y-115092857D01*
X161309523Y-115188095D01*
X161261904Y-115330952D01*
X160690476Y-115902380D01*
X161309523Y-115902380D01*
X161690476Y-114997619D02*
X161738095Y-114950000D01*
X161833333Y-114902380D01*
X162071428Y-114902380D01*
X162166666Y-114950000D01*
X162214285Y-114997619D01*
X162261904Y-115092857D01*
X162261904Y-115188095D01*
X162214285Y-115330952D01*
X161642857Y-115902380D01*
X162261904Y-115902380D01*
X153757142Y-115902380D02*
X153423809Y-115426190D01*
X153185714Y-115902380D02*
X153185714Y-114902380D01*
X153566666Y-114902380D01*
X153661904Y-114950000D01*
X153709523Y-114997619D01*
X153757142Y-115092857D01*
X153757142Y-115235714D01*
X153709523Y-115330952D01*
X153661904Y-115378571D01*
X153566666Y-115426190D01*
X153185714Y-115426190D01*
X154138095Y-114997619D02*
X154185714Y-114950000D01*
X154280952Y-114902380D01*
X154519047Y-114902380D01*
X154614285Y-114950000D01*
X154661904Y-114997619D01*
X154709523Y-115092857D01*
X154709523Y-115188095D01*
X154661904Y-115330952D01*
X154090476Y-115902380D01*
X154709523Y-115902380D01*
X155661904Y-115902380D02*
X155090476Y-115902380D01*
X155376190Y-115902380D02*
X155376190Y-114902380D01*
X155280952Y-115045238D01*
X155185714Y-115140476D01*
X155090476Y-115188095D01*
X173357142Y-104402380D02*
X173023809Y-103926190D01*
X172785714Y-104402380D02*
X172785714Y-103402380D01*
X173166666Y-103402380D01*
X173261904Y-103450000D01*
X173309523Y-103497619D01*
X173357142Y-103592857D01*
X173357142Y-103735714D01*
X173309523Y-103830952D01*
X173261904Y-103878571D01*
X173166666Y-103926190D01*
X172785714Y-103926190D01*
X173738095Y-103497619D02*
X173785714Y-103450000D01*
X173880952Y-103402380D01*
X174119047Y-103402380D01*
X174214285Y-103450000D01*
X174261904Y-103497619D01*
X174309523Y-103592857D01*
X174309523Y-103688095D01*
X174261904Y-103830952D01*
X173690476Y-104402380D01*
X174309523Y-104402380D01*
X174928571Y-103402380D02*
X175023809Y-103402380D01*
X175119047Y-103450000D01*
X175166666Y-103497619D01*
X175214285Y-103592857D01*
X175261904Y-103783333D01*
X175261904Y-104021428D01*
X175214285Y-104211904D01*
X175166666Y-104307142D01*
X175119047Y-104354761D01*
X175023809Y-104402380D01*
X174928571Y-104402380D01*
X174833333Y-104354761D01*
X174785714Y-104307142D01*
X174738095Y-104211904D01*
X174690476Y-104021428D01*
X174690476Y-103783333D01*
X174738095Y-103592857D01*
X174785714Y-103497619D01*
X174833333Y-103450000D01*
X174928571Y-103402380D01*
X166857142Y-104402380D02*
X166523809Y-103926190D01*
X166285714Y-104402380D02*
X166285714Y-103402380D01*
X166666666Y-103402380D01*
X166761904Y-103450000D01*
X166809523Y-103497619D01*
X166857142Y-103592857D01*
X166857142Y-103735714D01*
X166809523Y-103830952D01*
X166761904Y-103878571D01*
X166666666Y-103926190D01*
X166285714Y-103926190D01*
X167809523Y-104402380D02*
X167238095Y-104402380D01*
X167523809Y-104402380D02*
X167523809Y-103402380D01*
X167428571Y-103545238D01*
X167333333Y-103640476D01*
X167238095Y-103688095D01*
X168285714Y-104402380D02*
X168476190Y-104402380D01*
X168571428Y-104354761D01*
X168619047Y-104307142D01*
X168714285Y-104164285D01*
X168761904Y-103973809D01*
X168761904Y-103592857D01*
X168714285Y-103497619D01*
X168666666Y-103450000D01*
X168571428Y-103402380D01*
X168380952Y-103402380D01*
X168285714Y-103450000D01*
X168238095Y-103497619D01*
X168190476Y-103592857D01*
X168190476Y-103830952D01*
X168238095Y-103926190D01*
X168285714Y-103973809D01*
X168380952Y-104021428D01*
X168571428Y-104021428D01*
X168666666Y-103973809D01*
X168714285Y-103926190D01*
X168761904Y-103830952D01*
X160357142Y-104402380D02*
X160023809Y-103926190D01*
X159785714Y-104402380D02*
X159785714Y-103402380D01*
X160166666Y-103402380D01*
X160261904Y-103450000D01*
X160309523Y-103497619D01*
X160357142Y-103592857D01*
X160357142Y-103735714D01*
X160309523Y-103830952D01*
X160261904Y-103878571D01*
X160166666Y-103926190D01*
X159785714Y-103926190D01*
X161309523Y-104402380D02*
X160738095Y-104402380D01*
X161023809Y-104402380D02*
X161023809Y-103402380D01*
X160928571Y-103545238D01*
X160833333Y-103640476D01*
X160738095Y-103688095D01*
X161880952Y-103830952D02*
X161785714Y-103783333D01*
X161738095Y-103735714D01*
X161690476Y-103640476D01*
X161690476Y-103592857D01*
X161738095Y-103497619D01*
X161785714Y-103450000D01*
X161880952Y-103402380D01*
X162071428Y-103402380D01*
X162166666Y-103450000D01*
X162214285Y-103497619D01*
X162261904Y-103592857D01*
X162261904Y-103640476D01*
X162214285Y-103735714D01*
X162166666Y-103783333D01*
X162071428Y-103830952D01*
X161880952Y-103830952D01*
X161785714Y-103878571D01*
X161738095Y-103926190D01*
X161690476Y-104021428D01*
X161690476Y-104211904D01*
X161738095Y-104307142D01*
X161785714Y-104354761D01*
X161880952Y-104402380D01*
X162071428Y-104402380D01*
X162166666Y-104354761D01*
X162214285Y-104307142D01*
X162261904Y-104211904D01*
X162261904Y-104021428D01*
X162214285Y-103926190D01*
X162166666Y-103878571D01*
X162071428Y-103830952D01*
X153857142Y-104402380D02*
X153523809Y-103926190D01*
X153285714Y-104402380D02*
X153285714Y-103402380D01*
X153666666Y-103402380D01*
X153761904Y-103450000D01*
X153809523Y-103497619D01*
X153857142Y-103592857D01*
X153857142Y-103735714D01*
X153809523Y-103830952D01*
X153761904Y-103878571D01*
X153666666Y-103926190D01*
X153285714Y-103926190D01*
X154809523Y-104402380D02*
X154238095Y-104402380D01*
X154523809Y-104402380D02*
X154523809Y-103402380D01*
X154428571Y-103545238D01*
X154333333Y-103640476D01*
X154238095Y-103688095D01*
X155142857Y-103402380D02*
X155809523Y-103402380D01*
X155380952Y-104402380D01*
X142057142Y-115902380D02*
X141723809Y-115426190D01*
X141485714Y-115902380D02*
X141485714Y-114902380D01*
X141866666Y-114902380D01*
X141961904Y-114950000D01*
X142009523Y-114997619D01*
X142057142Y-115092857D01*
X142057142Y-115235714D01*
X142009523Y-115330952D01*
X141961904Y-115378571D01*
X141866666Y-115426190D01*
X141485714Y-115426190D01*
X143009523Y-115902380D02*
X142438095Y-115902380D01*
X142723809Y-115902380D02*
X142723809Y-114902380D01*
X142628571Y-115045238D01*
X142533333Y-115140476D01*
X142438095Y-115188095D01*
X143866666Y-114902380D02*
X143676190Y-114902380D01*
X143580952Y-114950000D01*
X143533333Y-114997619D01*
X143438095Y-115140476D01*
X143390476Y-115330952D01*
X143390476Y-115711904D01*
X143438095Y-115807142D01*
X143485714Y-115854761D01*
X143580952Y-115902380D01*
X143771428Y-115902380D01*
X143866666Y-115854761D01*
X143914285Y-115807142D01*
X143961904Y-115711904D01*
X143961904Y-115473809D01*
X143914285Y-115378571D01*
X143866666Y-115330952D01*
X143771428Y-115283333D01*
X143580952Y-115283333D01*
X143485714Y-115330952D01*
X143438095Y-115378571D01*
X143390476Y-115473809D01*
X135557142Y-115902380D02*
X135223809Y-115426190D01*
X134985714Y-115902380D02*
X134985714Y-114902380D01*
X135366666Y-114902380D01*
X135461904Y-114950000D01*
X135509523Y-114997619D01*
X135557142Y-115092857D01*
X135557142Y-115235714D01*
X135509523Y-115330952D01*
X135461904Y-115378571D01*
X135366666Y-115426190D01*
X134985714Y-115426190D01*
X136509523Y-115902380D02*
X135938095Y-115902380D01*
X136223809Y-115902380D02*
X136223809Y-114902380D01*
X136128571Y-115045238D01*
X136033333Y-115140476D01*
X135938095Y-115188095D01*
X137414285Y-114902380D02*
X136938095Y-114902380D01*
X136890476Y-115378571D01*
X136938095Y-115330952D01*
X137033333Y-115283333D01*
X137271428Y-115283333D01*
X137366666Y-115330952D01*
X137414285Y-115378571D01*
X137461904Y-115473809D01*
X137461904Y-115711904D01*
X137414285Y-115807142D01*
X137366666Y-115854761D01*
X137271428Y-115902380D01*
X137033333Y-115902380D01*
X136938095Y-115854761D01*
X136890476Y-115807142D01*
X129057142Y-115902380D02*
X128723809Y-115426190D01*
X128485714Y-115902380D02*
X128485714Y-114902380D01*
X128866666Y-114902380D01*
X128961904Y-114950000D01*
X129009523Y-114997619D01*
X129057142Y-115092857D01*
X129057142Y-115235714D01*
X129009523Y-115330952D01*
X128961904Y-115378571D01*
X128866666Y-115426190D01*
X128485714Y-115426190D01*
X130009523Y-115902380D02*
X129438095Y-115902380D01*
X129723809Y-115902380D02*
X129723809Y-114902380D01*
X129628571Y-115045238D01*
X129533333Y-115140476D01*
X129438095Y-115188095D01*
X130866666Y-115235714D02*
X130866666Y-115902380D01*
X130628571Y-114854761D02*
X130390476Y-115569047D01*
X131009523Y-115569047D01*
X122557142Y-115902380D02*
X122223809Y-115426190D01*
X121985714Y-115902380D02*
X121985714Y-114902380D01*
X122366666Y-114902380D01*
X122461904Y-114950000D01*
X122509523Y-114997619D01*
X122557142Y-115092857D01*
X122557142Y-115235714D01*
X122509523Y-115330952D01*
X122461904Y-115378571D01*
X122366666Y-115426190D01*
X121985714Y-115426190D01*
X123509523Y-115902380D02*
X122938095Y-115902380D01*
X123223809Y-115902380D02*
X123223809Y-114902380D01*
X123128571Y-115045238D01*
X123033333Y-115140476D01*
X122938095Y-115188095D01*
X123842857Y-114902380D02*
X124461904Y-114902380D01*
X124128571Y-115283333D01*
X124271428Y-115283333D01*
X124366666Y-115330952D01*
X124414285Y-115378571D01*
X124461904Y-115473809D01*
X124461904Y-115711904D01*
X124414285Y-115807142D01*
X124366666Y-115854761D01*
X124271428Y-115902380D01*
X123985714Y-115902380D01*
X123890476Y-115854761D01*
X123842857Y-115807142D01*
X142057142Y-104402380D02*
X141723809Y-103926190D01*
X141485714Y-104402380D02*
X141485714Y-103402380D01*
X141866666Y-103402380D01*
X141961904Y-103450000D01*
X142009523Y-103497619D01*
X142057142Y-103592857D01*
X142057142Y-103735714D01*
X142009523Y-103830952D01*
X141961904Y-103878571D01*
X141866666Y-103926190D01*
X141485714Y-103926190D01*
X143009523Y-104402380D02*
X142438095Y-104402380D01*
X142723809Y-104402380D02*
X142723809Y-103402380D01*
X142628571Y-103545238D01*
X142533333Y-103640476D01*
X142438095Y-103688095D01*
X143390476Y-103497619D02*
X143438095Y-103450000D01*
X143533333Y-103402380D01*
X143771428Y-103402380D01*
X143866666Y-103450000D01*
X143914285Y-103497619D01*
X143961904Y-103592857D01*
X143961904Y-103688095D01*
X143914285Y-103830952D01*
X143342857Y-104402380D01*
X143961904Y-104402380D01*
X135557142Y-104402380D02*
X135223809Y-103926190D01*
X134985714Y-104402380D02*
X134985714Y-103402380D01*
X135366666Y-103402380D01*
X135461904Y-103450000D01*
X135509523Y-103497619D01*
X135557142Y-103592857D01*
X135557142Y-103735714D01*
X135509523Y-103830952D01*
X135461904Y-103878571D01*
X135366666Y-103926190D01*
X134985714Y-103926190D01*
X136509523Y-104402380D02*
X135938095Y-104402380D01*
X136223809Y-104402380D02*
X136223809Y-103402380D01*
X136128571Y-103545238D01*
X136033333Y-103640476D01*
X135938095Y-103688095D01*
X137461904Y-104402380D02*
X136890476Y-104402380D01*
X137176190Y-104402380D02*
X137176190Y-103402380D01*
X137080952Y-103545238D01*
X136985714Y-103640476D01*
X136890476Y-103688095D01*
X129057142Y-104402380D02*
X128723809Y-103926190D01*
X128485714Y-104402380D02*
X128485714Y-103402380D01*
X128866666Y-103402380D01*
X128961904Y-103450000D01*
X129009523Y-103497619D01*
X129057142Y-103592857D01*
X129057142Y-103735714D01*
X129009523Y-103830952D01*
X128961904Y-103878571D01*
X128866666Y-103926190D01*
X128485714Y-103926190D01*
X130009523Y-104402380D02*
X129438095Y-104402380D01*
X129723809Y-104402380D02*
X129723809Y-103402380D01*
X129628571Y-103545238D01*
X129533333Y-103640476D01*
X129438095Y-103688095D01*
X130628571Y-103402380D02*
X130723809Y-103402380D01*
X130819047Y-103450000D01*
X130866666Y-103497619D01*
X130914285Y-103592857D01*
X130961904Y-103783333D01*
X130961904Y-104021428D01*
X130914285Y-104211904D01*
X130866666Y-104307142D01*
X130819047Y-104354761D01*
X130723809Y-104402380D01*
X130628571Y-104402380D01*
X130533333Y-104354761D01*
X130485714Y-104307142D01*
X130438095Y-104211904D01*
X130390476Y-104021428D01*
X130390476Y-103783333D01*
X130438095Y-103592857D01*
X130485714Y-103497619D01*
X130533333Y-103450000D01*
X130628571Y-103402380D01*
X123033333Y-104402380D02*
X122700000Y-103926190D01*
X122461904Y-104402380D02*
X122461904Y-103402380D01*
X122842857Y-103402380D01*
X122938095Y-103450000D01*
X122985714Y-103497619D01*
X123033333Y-103592857D01*
X123033333Y-103735714D01*
X122985714Y-103830952D01*
X122938095Y-103878571D01*
X122842857Y-103926190D01*
X122461904Y-103926190D01*
X123509523Y-104402380D02*
X123700000Y-104402380D01*
X123795238Y-104354761D01*
X123842857Y-104307142D01*
X123938095Y-104164285D01*
X123985714Y-103973809D01*
X123985714Y-103592857D01*
X123938095Y-103497619D01*
X123890476Y-103450000D01*
X123795238Y-103402380D01*
X123604761Y-103402380D01*
X123509523Y-103450000D01*
X123461904Y-103497619D01*
X123414285Y-103592857D01*
X123414285Y-103830952D01*
X123461904Y-103926190D01*
X123509523Y-103973809D01*
X123604761Y-104021428D01*
X123795238Y-104021428D01*
X123890476Y-103973809D01*
X123938095Y-103926190D01*
X123985714Y-103830952D01*
X111233333Y-115902380D02*
X110900000Y-115426190D01*
X110661904Y-115902380D02*
X110661904Y-114902380D01*
X111042857Y-114902380D01*
X111138095Y-114950000D01*
X111185714Y-114997619D01*
X111233333Y-115092857D01*
X111233333Y-115235714D01*
X111185714Y-115330952D01*
X111138095Y-115378571D01*
X111042857Y-115426190D01*
X110661904Y-115426190D01*
X111804761Y-115330952D02*
X111709523Y-115283333D01*
X111661904Y-115235714D01*
X111614285Y-115140476D01*
X111614285Y-115092857D01*
X111661904Y-114997619D01*
X111709523Y-114950000D01*
X111804761Y-114902380D01*
X111995238Y-114902380D01*
X112090476Y-114950000D01*
X112138095Y-114997619D01*
X112185714Y-115092857D01*
X112185714Y-115140476D01*
X112138095Y-115235714D01*
X112090476Y-115283333D01*
X111995238Y-115330952D01*
X111804761Y-115330952D01*
X111709523Y-115378571D01*
X111661904Y-115426190D01*
X111614285Y-115521428D01*
X111614285Y-115711904D01*
X111661904Y-115807142D01*
X111709523Y-115854761D01*
X111804761Y-115902380D01*
X111995238Y-115902380D01*
X112090476Y-115854761D01*
X112138095Y-115807142D01*
X112185714Y-115711904D01*
X112185714Y-115521428D01*
X112138095Y-115426190D01*
X112090476Y-115378571D01*
X111995238Y-115330952D01*
X104733333Y-115902380D02*
X104400000Y-115426190D01*
X104161904Y-115902380D02*
X104161904Y-114902380D01*
X104542857Y-114902380D01*
X104638095Y-114950000D01*
X104685714Y-114997619D01*
X104733333Y-115092857D01*
X104733333Y-115235714D01*
X104685714Y-115330952D01*
X104638095Y-115378571D01*
X104542857Y-115426190D01*
X104161904Y-115426190D01*
X105066666Y-114902380D02*
X105733333Y-114902380D01*
X105304761Y-115902380D01*
X98233333Y-115902380D02*
X97900000Y-115426190D01*
X97661904Y-115902380D02*
X97661904Y-114902380D01*
X98042857Y-114902380D01*
X98138095Y-114950000D01*
X98185714Y-114997619D01*
X98233333Y-115092857D01*
X98233333Y-115235714D01*
X98185714Y-115330952D01*
X98138095Y-115378571D01*
X98042857Y-115426190D01*
X97661904Y-115426190D01*
X99090476Y-114902380D02*
X98900000Y-114902380D01*
X98804761Y-114950000D01*
X98757142Y-114997619D01*
X98661904Y-115140476D01*
X98614285Y-115330952D01*
X98614285Y-115711904D01*
X98661904Y-115807142D01*
X98709523Y-115854761D01*
X98804761Y-115902380D01*
X98995238Y-115902380D01*
X99090476Y-115854761D01*
X99138095Y-115807142D01*
X99185714Y-115711904D01*
X99185714Y-115473809D01*
X99138095Y-115378571D01*
X99090476Y-115330952D01*
X98995238Y-115283333D01*
X98804761Y-115283333D01*
X98709523Y-115330952D01*
X98661904Y-115378571D01*
X98614285Y-115473809D01*
X91733333Y-115902380D02*
X91400000Y-115426190D01*
X91161904Y-115902380D02*
X91161904Y-114902380D01*
X91542857Y-114902380D01*
X91638095Y-114950000D01*
X91685714Y-114997619D01*
X91733333Y-115092857D01*
X91733333Y-115235714D01*
X91685714Y-115330952D01*
X91638095Y-115378571D01*
X91542857Y-115426190D01*
X91161904Y-115426190D01*
X92638095Y-114902380D02*
X92161904Y-114902380D01*
X92114285Y-115378571D01*
X92161904Y-115330952D01*
X92257142Y-115283333D01*
X92495238Y-115283333D01*
X92590476Y-115330952D01*
X92638095Y-115378571D01*
X92685714Y-115473809D01*
X92685714Y-115711904D01*
X92638095Y-115807142D01*
X92590476Y-115854761D01*
X92495238Y-115902380D01*
X92257142Y-115902380D01*
X92161904Y-115854761D01*
X92114285Y-115807142D01*
X111233333Y-104402380D02*
X110900000Y-103926190D01*
X110661904Y-104402380D02*
X110661904Y-103402380D01*
X111042857Y-103402380D01*
X111138095Y-103450000D01*
X111185714Y-103497619D01*
X111233333Y-103592857D01*
X111233333Y-103735714D01*
X111185714Y-103830952D01*
X111138095Y-103878571D01*
X111042857Y-103926190D01*
X110661904Y-103926190D01*
X112090476Y-103735714D02*
X112090476Y-104402380D01*
X111852380Y-103354761D02*
X111614285Y-104069047D01*
X112233333Y-104069047D01*
X104733333Y-104402380D02*
X104400000Y-103926190D01*
X104161904Y-104402380D02*
X104161904Y-103402380D01*
X104542857Y-103402380D01*
X104638095Y-103450000D01*
X104685714Y-103497619D01*
X104733333Y-103592857D01*
X104733333Y-103735714D01*
X104685714Y-103830952D01*
X104638095Y-103878571D01*
X104542857Y-103926190D01*
X104161904Y-103926190D01*
X105066666Y-103402380D02*
X105685714Y-103402380D01*
X105352380Y-103783333D01*
X105495238Y-103783333D01*
X105590476Y-103830952D01*
X105638095Y-103878571D01*
X105685714Y-103973809D01*
X105685714Y-104211904D01*
X105638095Y-104307142D01*
X105590476Y-104354761D01*
X105495238Y-104402380D01*
X105209523Y-104402380D01*
X105114285Y-104354761D01*
X105066666Y-104307142D01*
X98233333Y-104402380D02*
X97900000Y-103926190D01*
X97661904Y-104402380D02*
X97661904Y-103402380D01*
X98042857Y-103402380D01*
X98138095Y-103450000D01*
X98185714Y-103497619D01*
X98233333Y-103592857D01*
X98233333Y-103735714D01*
X98185714Y-103830952D01*
X98138095Y-103878571D01*
X98042857Y-103926190D01*
X97661904Y-103926190D01*
X98614285Y-103497619D02*
X98661904Y-103450000D01*
X98757142Y-103402380D01*
X98995238Y-103402380D01*
X99090476Y-103450000D01*
X99138095Y-103497619D01*
X99185714Y-103592857D01*
X99185714Y-103688095D01*
X99138095Y-103830952D01*
X98566666Y-104402380D01*
X99185714Y-104402380D01*
X91733333Y-104402380D02*
X91400000Y-103926190D01*
X91161904Y-104402380D02*
X91161904Y-103402380D01*
X91542857Y-103402380D01*
X91638095Y-103450000D01*
X91685714Y-103497619D01*
X91733333Y-103592857D01*
X91733333Y-103735714D01*
X91685714Y-103830952D01*
X91638095Y-103878571D01*
X91542857Y-103926190D01*
X91161904Y-103926190D01*
X92685714Y-104402380D02*
X92114285Y-104402380D01*
X92400000Y-104402380D02*
X92400000Y-103402380D01*
X92304761Y-103545238D01*
X92209523Y-103640476D01*
X92114285Y-103688095D01*
X172785714Y-119402380D02*
X172785714Y-118402380D01*
X173023809Y-118402380D01*
X173166666Y-118450000D01*
X173261904Y-118545238D01*
X173309523Y-118640476D01*
X173357142Y-118830952D01*
X173357142Y-118973809D01*
X173309523Y-119164285D01*
X173261904Y-119259523D01*
X173166666Y-119354761D01*
X173023809Y-119402380D01*
X172785714Y-119402380D01*
X173738095Y-118497619D02*
X173785714Y-118450000D01*
X173880952Y-118402380D01*
X174119047Y-118402380D01*
X174214285Y-118450000D01*
X174261904Y-118497619D01*
X174309523Y-118592857D01*
X174309523Y-118688095D01*
X174261904Y-118830952D01*
X173690476Y-119402380D01*
X174309523Y-119402380D01*
X175166666Y-118735714D02*
X175166666Y-119402380D01*
X174928571Y-118354761D02*
X174690476Y-119069047D01*
X175309523Y-119069047D01*
D12*
X173250000Y-123478571D02*
X173250000Y-121978571D01*
X173821428Y-121978571D01*
X173964285Y-122050000D01*
X174035714Y-122121428D01*
X174107142Y-122264285D01*
X174107142Y-122478571D01*
X174035714Y-122621428D01*
X173964285Y-122692857D01*
X173821428Y-122764285D01*
X173250000Y-122764285D01*
X174750000Y-123478571D02*
X174750000Y-121978571D01*
D10*
X166285714Y-119402380D02*
X166285714Y-118402380D01*
X166523809Y-118402380D01*
X166666666Y-118450000D01*
X166761904Y-118545238D01*
X166809523Y-118640476D01*
X166857142Y-118830952D01*
X166857142Y-118973809D01*
X166809523Y-119164285D01*
X166761904Y-119259523D01*
X166666666Y-119354761D01*
X166523809Y-119402380D01*
X166285714Y-119402380D01*
X167238095Y-118497619D02*
X167285714Y-118450000D01*
X167380952Y-118402380D01*
X167619047Y-118402380D01*
X167714285Y-118450000D01*
X167761904Y-118497619D01*
X167809523Y-118592857D01*
X167809523Y-118688095D01*
X167761904Y-118830952D01*
X167190476Y-119402380D01*
X167809523Y-119402380D01*
X168142857Y-118402380D02*
X168761904Y-118402380D01*
X168428571Y-118783333D01*
X168571428Y-118783333D01*
X168666666Y-118830952D01*
X168714285Y-118878571D01*
X168761904Y-118973809D01*
X168761904Y-119211904D01*
X168714285Y-119307142D01*
X168666666Y-119354761D01*
X168571428Y-119402380D01*
X168285714Y-119402380D01*
X168190476Y-119354761D01*
X168142857Y-119307142D01*
D12*
X167071428Y-123478571D02*
X167071428Y-121978571D01*
X167928571Y-123478571D01*
X167928571Y-121978571D01*
D10*
X159785714Y-119402380D02*
X159785714Y-118402380D01*
X160023809Y-118402380D01*
X160166666Y-118450000D01*
X160261904Y-118545238D01*
X160309523Y-118640476D01*
X160357142Y-118830952D01*
X160357142Y-118973809D01*
X160309523Y-119164285D01*
X160261904Y-119259523D01*
X160166666Y-119354761D01*
X160023809Y-119402380D01*
X159785714Y-119402380D01*
X160738095Y-118497619D02*
X160785714Y-118450000D01*
X160880952Y-118402380D01*
X161119047Y-118402380D01*
X161214285Y-118450000D01*
X161261904Y-118497619D01*
X161309523Y-118592857D01*
X161309523Y-118688095D01*
X161261904Y-118830952D01*
X160690476Y-119402380D01*
X161309523Y-119402380D01*
X161690476Y-118497619D02*
X161738095Y-118450000D01*
X161833333Y-118402380D01*
X162071428Y-118402380D01*
X162166666Y-118450000D01*
X162214285Y-118497619D01*
X162261904Y-118592857D01*
X162261904Y-118688095D01*
X162214285Y-118830952D01*
X161642857Y-119402380D01*
X162261904Y-119402380D01*
D12*
X160535714Y-121978571D02*
X160535714Y-123050000D01*
X160464285Y-123264285D01*
X160321428Y-123407142D01*
X160107142Y-123478571D01*
X159964285Y-123478571D01*
X161250000Y-122692857D02*
X161750000Y-122692857D01*
X161964285Y-123478571D02*
X161250000Y-123478571D01*
X161250000Y-121978571D01*
X161964285Y-121978571D01*
D10*
X153285714Y-119402380D02*
X153285714Y-118402380D01*
X153523809Y-118402380D01*
X153666666Y-118450000D01*
X153761904Y-118545238D01*
X153809523Y-118640476D01*
X153857142Y-118830952D01*
X153857142Y-118973809D01*
X153809523Y-119164285D01*
X153761904Y-119259523D01*
X153666666Y-119354761D01*
X153523809Y-119402380D01*
X153285714Y-119402380D01*
X154238095Y-118497619D02*
X154285714Y-118450000D01*
X154380952Y-118402380D01*
X154619047Y-118402380D01*
X154714285Y-118450000D01*
X154761904Y-118497619D01*
X154809523Y-118592857D01*
X154809523Y-118688095D01*
X154761904Y-118830952D01*
X154190476Y-119402380D01*
X154809523Y-119402380D01*
X155761904Y-119402380D02*
X155190476Y-119402380D01*
X155476190Y-119402380D02*
X155476190Y-118402380D01*
X155380952Y-118545238D01*
X155285714Y-118640476D01*
X155190476Y-118688095D01*
D12*
X154321428Y-123478571D02*
X153607142Y-123478571D01*
X153607142Y-121978571D01*
X155321428Y-122692857D02*
X154821428Y-122692857D01*
X154821428Y-123478571D02*
X154821428Y-121978571D01*
X155535714Y-121978571D01*
D10*
X172785714Y-107802380D02*
X172785714Y-106802380D01*
X173023809Y-106802380D01*
X173166666Y-106850000D01*
X173261904Y-106945238D01*
X173309523Y-107040476D01*
X173357142Y-107230952D01*
X173357142Y-107373809D01*
X173309523Y-107564285D01*
X173261904Y-107659523D01*
X173166666Y-107754761D01*
X173023809Y-107802380D01*
X172785714Y-107802380D01*
X173738095Y-106897619D02*
X173785714Y-106850000D01*
X173880952Y-106802380D01*
X174119047Y-106802380D01*
X174214285Y-106850000D01*
X174261904Y-106897619D01*
X174309523Y-106992857D01*
X174309523Y-107088095D01*
X174261904Y-107230952D01*
X173690476Y-107802380D01*
X174309523Y-107802380D01*
X174928571Y-106802380D02*
X175023809Y-106802380D01*
X175119047Y-106850000D01*
X175166666Y-106897619D01*
X175214285Y-106992857D01*
X175261904Y-107183333D01*
X175261904Y-107421428D01*
X175214285Y-107611904D01*
X175166666Y-107707142D01*
X175119047Y-107754761D01*
X175023809Y-107802380D01*
X174928571Y-107802380D01*
X174833333Y-107754761D01*
X174785714Y-107707142D01*
X174738095Y-107611904D01*
X174690476Y-107421428D01*
X174690476Y-107183333D01*
X174738095Y-106992857D01*
X174785714Y-106897619D01*
X174833333Y-106850000D01*
X174928571Y-106802380D01*
D12*
X172785714Y-111878571D02*
X172785714Y-110378571D01*
X173285714Y-111450000D01*
X173785714Y-110378571D01*
X173785714Y-111878571D01*
X174785714Y-110378571D02*
X174928571Y-110378571D01*
X175071428Y-110450000D01*
X175142857Y-110521428D01*
X175214285Y-110664285D01*
X175285714Y-110950000D01*
X175285714Y-111307142D01*
X175214285Y-111592857D01*
X175142857Y-111735714D01*
X175071428Y-111807142D01*
X174928571Y-111878571D01*
X174785714Y-111878571D01*
X174642857Y-111807142D01*
X174571428Y-111735714D01*
X174500000Y-111592857D01*
X174428571Y-111307142D01*
X174428571Y-110950000D01*
X174500000Y-110664285D01*
X174571428Y-110521428D01*
X174642857Y-110450000D01*
X174785714Y-110378571D01*
D10*
X166285714Y-107802380D02*
X166285714Y-106802380D01*
X166523809Y-106802380D01*
X166666666Y-106850000D01*
X166761904Y-106945238D01*
X166809523Y-107040476D01*
X166857142Y-107230952D01*
X166857142Y-107373809D01*
X166809523Y-107564285D01*
X166761904Y-107659523D01*
X166666666Y-107754761D01*
X166523809Y-107802380D01*
X166285714Y-107802380D01*
X167809523Y-107802380D02*
X167238095Y-107802380D01*
X167523809Y-107802380D02*
X167523809Y-106802380D01*
X167428571Y-106945238D01*
X167333333Y-107040476D01*
X167238095Y-107088095D01*
X168285714Y-107802380D02*
X168476190Y-107802380D01*
X168571428Y-107754761D01*
X168619047Y-107707142D01*
X168714285Y-107564285D01*
X168761904Y-107373809D01*
X168761904Y-106992857D01*
X168714285Y-106897619D01*
X168666666Y-106850000D01*
X168571428Y-106802380D01*
X168380952Y-106802380D01*
X168285714Y-106850000D01*
X168238095Y-106897619D01*
X168190476Y-106992857D01*
X168190476Y-107230952D01*
X168238095Y-107326190D01*
X168285714Y-107373809D01*
X168380952Y-107421428D01*
X168571428Y-107421428D01*
X168666666Y-107373809D01*
X168714285Y-107326190D01*
X168761904Y-107230952D01*
D12*
X166285714Y-111878571D02*
X166285714Y-110378571D01*
X166785714Y-111450000D01*
X167285714Y-110378571D01*
X167285714Y-111878571D01*
X168785714Y-111878571D02*
X167928571Y-111878571D01*
X168357142Y-111878571D02*
X168357142Y-110378571D01*
X168214285Y-110592857D01*
X168071428Y-110735714D01*
X167928571Y-110807142D01*
D10*
X159785714Y-107802380D02*
X159785714Y-106802380D01*
X160023809Y-106802380D01*
X160166666Y-106850000D01*
X160261904Y-106945238D01*
X160309523Y-107040476D01*
X160357142Y-107230952D01*
X160357142Y-107373809D01*
X160309523Y-107564285D01*
X160261904Y-107659523D01*
X160166666Y-107754761D01*
X160023809Y-107802380D01*
X159785714Y-107802380D01*
X161309523Y-107802380D02*
X160738095Y-107802380D01*
X161023809Y-107802380D02*
X161023809Y-106802380D01*
X160928571Y-106945238D01*
X160833333Y-107040476D01*
X160738095Y-107088095D01*
X161880952Y-107230952D02*
X161785714Y-107183333D01*
X161738095Y-107135714D01*
X161690476Y-107040476D01*
X161690476Y-106992857D01*
X161738095Y-106897619D01*
X161785714Y-106850000D01*
X161880952Y-106802380D01*
X162071428Y-106802380D01*
X162166666Y-106850000D01*
X162214285Y-106897619D01*
X162261904Y-106992857D01*
X162261904Y-107040476D01*
X162214285Y-107135714D01*
X162166666Y-107183333D01*
X162071428Y-107230952D01*
X161880952Y-107230952D01*
X161785714Y-107278571D01*
X161738095Y-107326190D01*
X161690476Y-107421428D01*
X161690476Y-107611904D01*
X161738095Y-107707142D01*
X161785714Y-107754761D01*
X161880952Y-107802380D01*
X162071428Y-107802380D01*
X162166666Y-107754761D01*
X162214285Y-107707142D01*
X162261904Y-107611904D01*
X162261904Y-107421428D01*
X162214285Y-107326190D01*
X162166666Y-107278571D01*
X162071428Y-107230952D01*
D12*
X160714285Y-111735714D02*
X160642857Y-111807142D01*
X160428571Y-111878571D01*
X160285714Y-111878571D01*
X160071428Y-111807142D01*
X159928571Y-111664285D01*
X159857142Y-111521428D01*
X159785714Y-111235714D01*
X159785714Y-111021428D01*
X159857142Y-110735714D01*
X159928571Y-110592857D01*
X160071428Y-110450000D01*
X160285714Y-110378571D01*
X160428571Y-110378571D01*
X160642857Y-110450000D01*
X160714285Y-110521428D01*
X162214285Y-111735714D02*
X162142857Y-111807142D01*
X161928571Y-111878571D01*
X161785714Y-111878571D01*
X161571428Y-111807142D01*
X161428571Y-111664285D01*
X161357142Y-111521428D01*
X161285714Y-111235714D01*
X161285714Y-111021428D01*
X161357142Y-110735714D01*
X161428571Y-110592857D01*
X161571428Y-110450000D01*
X161785714Y-110378571D01*
X161928571Y-110378571D01*
X162142857Y-110450000D01*
X162214285Y-110521428D01*
D10*
X153285714Y-107802380D02*
X153285714Y-106802380D01*
X153523809Y-106802380D01*
X153666666Y-106850000D01*
X153761904Y-106945238D01*
X153809523Y-107040476D01*
X153857142Y-107230952D01*
X153857142Y-107373809D01*
X153809523Y-107564285D01*
X153761904Y-107659523D01*
X153666666Y-107754761D01*
X153523809Y-107802380D01*
X153285714Y-107802380D01*
X154809523Y-107802380D02*
X154238095Y-107802380D01*
X154523809Y-107802380D02*
X154523809Y-106802380D01*
X154428571Y-106945238D01*
X154333333Y-107040476D01*
X154238095Y-107088095D01*
X155142857Y-106802380D02*
X155809523Y-106802380D01*
X155380952Y-107802380D01*
D12*
X154250000Y-111735714D02*
X154178571Y-111807142D01*
X153964285Y-111878571D01*
X153821428Y-111878571D01*
X153607142Y-111807142D01*
X153464285Y-111664285D01*
X153392857Y-111521428D01*
X153321428Y-111235714D01*
X153321428Y-111021428D01*
X153392857Y-110735714D01*
X153464285Y-110592857D01*
X153607142Y-110450000D01*
X153821428Y-110378571D01*
X153964285Y-110378571D01*
X154178571Y-110450000D01*
X154250000Y-110521428D01*
X154821428Y-111807142D02*
X155035714Y-111878571D01*
X155392857Y-111878571D01*
X155535714Y-111807142D01*
X155607142Y-111735714D01*
X155678571Y-111592857D01*
X155678571Y-111450000D01*
X155607142Y-111307142D01*
X155535714Y-111235714D01*
X155392857Y-111164285D01*
X155107142Y-111092857D01*
X154964285Y-111021428D01*
X154892857Y-110950000D01*
X154821428Y-110807142D01*
X154821428Y-110664285D01*
X154892857Y-110521428D01*
X154964285Y-110450000D01*
X155107142Y-110378571D01*
X155464285Y-110378571D01*
X155678571Y-110450000D01*
D10*
X141485714Y-119402380D02*
X141485714Y-118402380D01*
X141723809Y-118402380D01*
X141866666Y-118450000D01*
X141961904Y-118545238D01*
X142009523Y-118640476D01*
X142057142Y-118830952D01*
X142057142Y-118973809D01*
X142009523Y-119164285D01*
X141961904Y-119259523D01*
X141866666Y-119354761D01*
X141723809Y-119402380D01*
X141485714Y-119402380D01*
X143009523Y-119402380D02*
X142438095Y-119402380D01*
X142723809Y-119402380D02*
X142723809Y-118402380D01*
X142628571Y-118545238D01*
X142533333Y-118640476D01*
X142438095Y-118688095D01*
X143866666Y-118402380D02*
X143676190Y-118402380D01*
X143580952Y-118450000D01*
X143533333Y-118497619D01*
X143438095Y-118640476D01*
X143390476Y-118830952D01*
X143390476Y-119211904D01*
X143438095Y-119307142D01*
X143485714Y-119354761D01*
X143580952Y-119402380D01*
X143771428Y-119402380D01*
X143866666Y-119354761D01*
X143914285Y-119307142D01*
X143961904Y-119211904D01*
X143961904Y-118973809D01*
X143914285Y-118878571D01*
X143866666Y-118830952D01*
X143771428Y-118783333D01*
X143580952Y-118783333D01*
X143485714Y-118830952D01*
X143438095Y-118878571D01*
X143390476Y-118973809D01*
D12*
X142450000Y-123335714D02*
X142378571Y-123407142D01*
X142164285Y-123478571D01*
X142021428Y-123478571D01*
X141807142Y-123407142D01*
X141664285Y-123264285D01*
X141592857Y-123121428D01*
X141521428Y-122835714D01*
X141521428Y-122621428D01*
X141592857Y-122335714D01*
X141664285Y-122192857D01*
X141807142Y-122050000D01*
X142021428Y-121978571D01*
X142164285Y-121978571D01*
X142378571Y-122050000D01*
X142450000Y-122121428D01*
X143378571Y-121978571D02*
X143521428Y-121978571D01*
X143664285Y-122050000D01*
X143735714Y-122121428D01*
X143807142Y-122264285D01*
X143878571Y-122550000D01*
X143878571Y-122907142D01*
X143807142Y-123192857D01*
X143735714Y-123335714D01*
X143664285Y-123407142D01*
X143521428Y-123478571D01*
X143378571Y-123478571D01*
X143235714Y-123407142D01*
X143164285Y-123335714D01*
X143092857Y-123192857D01*
X143021428Y-122907142D01*
X143021428Y-122550000D01*
X143092857Y-122264285D01*
X143164285Y-122121428D01*
X143235714Y-122050000D01*
X143378571Y-121978571D01*
D10*
X134985714Y-119402380D02*
X134985714Y-118402380D01*
X135223809Y-118402380D01*
X135366666Y-118450000D01*
X135461904Y-118545238D01*
X135509523Y-118640476D01*
X135557142Y-118830952D01*
X135557142Y-118973809D01*
X135509523Y-119164285D01*
X135461904Y-119259523D01*
X135366666Y-119354761D01*
X135223809Y-119402380D01*
X134985714Y-119402380D01*
X136509523Y-119402380D02*
X135938095Y-119402380D01*
X136223809Y-119402380D02*
X136223809Y-118402380D01*
X136128571Y-118545238D01*
X136033333Y-118640476D01*
X135938095Y-118688095D01*
X137414285Y-118402380D02*
X136938095Y-118402380D01*
X136890476Y-118878571D01*
X136938095Y-118830952D01*
X137033333Y-118783333D01*
X137271428Y-118783333D01*
X137366666Y-118830952D01*
X137414285Y-118878571D01*
X137461904Y-118973809D01*
X137461904Y-119211904D01*
X137414285Y-119307142D01*
X137366666Y-119354761D01*
X137271428Y-119402380D01*
X137033333Y-119402380D01*
X136938095Y-119354761D01*
X136890476Y-119307142D01*
D12*
X135950000Y-123335714D02*
X135878571Y-123407142D01*
X135664285Y-123478571D01*
X135521428Y-123478571D01*
X135307142Y-123407142D01*
X135164285Y-123264285D01*
X135092857Y-123121428D01*
X135021428Y-122835714D01*
X135021428Y-122621428D01*
X135092857Y-122335714D01*
X135164285Y-122192857D01*
X135307142Y-122050000D01*
X135521428Y-121978571D01*
X135664285Y-121978571D01*
X135878571Y-122050000D01*
X135950000Y-122121428D01*
X137378571Y-123478571D02*
X136521428Y-123478571D01*
X136950000Y-123478571D02*
X136950000Y-121978571D01*
X136807142Y-122192857D01*
X136664285Y-122335714D01*
X136521428Y-122407142D01*
D10*
X128485714Y-119402380D02*
X128485714Y-118402380D01*
X128723809Y-118402380D01*
X128866666Y-118450000D01*
X128961904Y-118545238D01*
X129009523Y-118640476D01*
X129057142Y-118830952D01*
X129057142Y-118973809D01*
X129009523Y-119164285D01*
X128961904Y-119259523D01*
X128866666Y-119354761D01*
X128723809Y-119402380D01*
X128485714Y-119402380D01*
X130009523Y-119402380D02*
X129438095Y-119402380D01*
X129723809Y-119402380D02*
X129723809Y-118402380D01*
X129628571Y-118545238D01*
X129533333Y-118640476D01*
X129438095Y-118688095D01*
X130866666Y-118735714D02*
X130866666Y-119402380D01*
X130628571Y-118354761D02*
X130390476Y-119069047D01*
X131009523Y-119069047D01*
D12*
X128592857Y-123407142D02*
X128807142Y-123478571D01*
X129164285Y-123478571D01*
X129307142Y-123407142D01*
X129378571Y-123335714D01*
X129450000Y-123192857D01*
X129450000Y-123050000D01*
X129378571Y-122907142D01*
X129307142Y-122835714D01*
X129164285Y-122764285D01*
X128878571Y-122692857D01*
X128735714Y-122621428D01*
X128664285Y-122550000D01*
X128592857Y-122407142D01*
X128592857Y-122264285D01*
X128664285Y-122121428D01*
X128735714Y-122050000D01*
X128878571Y-121978571D01*
X129235714Y-121978571D01*
X129450000Y-122050000D01*
X130092857Y-122692857D02*
X130592857Y-122692857D01*
X130807142Y-123478571D02*
X130092857Y-123478571D01*
X130092857Y-121978571D01*
X130807142Y-121978571D01*
D10*
X121985714Y-119402380D02*
X121985714Y-118402380D01*
X122223809Y-118402380D01*
X122366666Y-118450000D01*
X122461904Y-118545238D01*
X122509523Y-118640476D01*
X122557142Y-118830952D01*
X122557142Y-118973809D01*
X122509523Y-119164285D01*
X122461904Y-119259523D01*
X122366666Y-119354761D01*
X122223809Y-119402380D01*
X121985714Y-119402380D01*
X123509523Y-119402380D02*
X122938095Y-119402380D01*
X123223809Y-119402380D02*
X123223809Y-118402380D01*
X123128571Y-118545238D01*
X123033333Y-118640476D01*
X122938095Y-118688095D01*
X123842857Y-118402380D02*
X124461904Y-118402380D01*
X124128571Y-118783333D01*
X124271428Y-118783333D01*
X124366666Y-118830952D01*
X124414285Y-118878571D01*
X124461904Y-118973809D01*
X124461904Y-119211904D01*
X124414285Y-119307142D01*
X124366666Y-119354761D01*
X124271428Y-119402380D01*
X123985714Y-119402380D01*
X123890476Y-119354761D01*
X123842857Y-119307142D01*
D12*
X122664285Y-122692857D02*
X122164285Y-122692857D01*
X122164285Y-123478571D02*
X122164285Y-121978571D01*
X122878571Y-121978571D01*
X123950000Y-122692857D02*
X124164285Y-122764285D01*
X124235714Y-122835714D01*
X124307142Y-122978571D01*
X124307142Y-123192857D01*
X124235714Y-123335714D01*
X124164285Y-123407142D01*
X124021428Y-123478571D01*
X123450000Y-123478571D01*
X123450000Y-121978571D01*
X123950000Y-121978571D01*
X124092857Y-122050000D01*
X124164285Y-122121428D01*
X124235714Y-122264285D01*
X124235714Y-122407142D01*
X124164285Y-122550000D01*
X124092857Y-122621428D01*
X123950000Y-122692857D01*
X123450000Y-122692857D01*
D10*
X141485714Y-107802380D02*
X141485714Y-106802380D01*
X141723809Y-106802380D01*
X141866666Y-106850000D01*
X141961904Y-106945238D01*
X142009523Y-107040476D01*
X142057142Y-107230952D01*
X142057142Y-107373809D01*
X142009523Y-107564285D01*
X141961904Y-107659523D01*
X141866666Y-107754761D01*
X141723809Y-107802380D01*
X141485714Y-107802380D01*
X143009523Y-107802380D02*
X142438095Y-107802380D01*
X142723809Y-107802380D02*
X142723809Y-106802380D01*
X142628571Y-106945238D01*
X142533333Y-107040476D01*
X142438095Y-107088095D01*
X143390476Y-106897619D02*
X143438095Y-106850000D01*
X143533333Y-106802380D01*
X143771428Y-106802380D01*
X143866666Y-106850000D01*
X143914285Y-106897619D01*
X143961904Y-106992857D01*
X143961904Y-107088095D01*
X143914285Y-107230952D01*
X143342857Y-107802380D01*
X143961904Y-107802380D01*
D12*
X142164285Y-111092857D02*
X141664285Y-111092857D01*
X141664285Y-111878571D02*
X141664285Y-110378571D01*
X142378571Y-110378571D01*
X143807142Y-111735714D02*
X143735714Y-111807142D01*
X143521428Y-111878571D01*
X143378571Y-111878571D01*
X143164285Y-111807142D01*
X143021428Y-111664285D01*
X142950000Y-111521428D01*
X142878571Y-111235714D01*
X142878571Y-111021428D01*
X142950000Y-110735714D01*
X143021428Y-110592857D01*
X143164285Y-110450000D01*
X143378571Y-110378571D01*
X143521428Y-110378571D01*
X143735714Y-110450000D01*
X143807142Y-110521428D01*
D10*
X134985714Y-107802380D02*
X134985714Y-106802380D01*
X135223809Y-106802380D01*
X135366666Y-106850000D01*
X135461904Y-106945238D01*
X135509523Y-107040476D01*
X135557142Y-107230952D01*
X135557142Y-107373809D01*
X135509523Y-107564285D01*
X135461904Y-107659523D01*
X135366666Y-107754761D01*
X135223809Y-107802380D01*
X134985714Y-107802380D01*
X136509523Y-107802380D02*
X135938095Y-107802380D01*
X136223809Y-107802380D02*
X136223809Y-106802380D01*
X136128571Y-106945238D01*
X136033333Y-107040476D01*
X135938095Y-107088095D01*
X137461904Y-107802380D02*
X136890476Y-107802380D01*
X137176190Y-107802380D02*
X137176190Y-106802380D01*
X137080952Y-106945238D01*
X136985714Y-107040476D01*
X136890476Y-107088095D01*
D12*
X135700000Y-111092857D02*
X135200000Y-111092857D01*
X135200000Y-111878571D02*
X135200000Y-110378571D01*
X135914285Y-110378571D01*
X136342857Y-110378571D02*
X137342857Y-110378571D01*
X136342857Y-111878571D01*
X137342857Y-111878571D01*
D10*
X128485714Y-107802380D02*
X128485714Y-106802380D01*
X128723809Y-106802380D01*
X128866666Y-106850000D01*
X128961904Y-106945238D01*
X129009523Y-107040476D01*
X129057142Y-107230952D01*
X129057142Y-107373809D01*
X129009523Y-107564285D01*
X128961904Y-107659523D01*
X128866666Y-107754761D01*
X128723809Y-107802380D01*
X128485714Y-107802380D01*
X130009523Y-107802380D02*
X129438095Y-107802380D01*
X129723809Y-107802380D02*
X129723809Y-106802380D01*
X129628571Y-106945238D01*
X129533333Y-107040476D01*
X129438095Y-107088095D01*
X130628571Y-106802380D02*
X130723809Y-106802380D01*
X130819047Y-106850000D01*
X130866666Y-106897619D01*
X130914285Y-106992857D01*
X130961904Y-107183333D01*
X130961904Y-107421428D01*
X130914285Y-107611904D01*
X130866666Y-107707142D01*
X130819047Y-107754761D01*
X130723809Y-107802380D01*
X130628571Y-107802380D01*
X130533333Y-107754761D01*
X130485714Y-107707142D01*
X130438095Y-107611904D01*
X130390476Y-107421428D01*
X130390476Y-107183333D01*
X130438095Y-106992857D01*
X130485714Y-106897619D01*
X130533333Y-106850000D01*
X130628571Y-106802380D01*
D12*
X129271428Y-111092857D02*
X128771428Y-111092857D01*
X128771428Y-111878571D02*
X128771428Y-110378571D01*
X129485714Y-110378571D01*
X129842857Y-110378571D02*
X130342857Y-111878571D01*
X130842857Y-110378571D01*
D10*
X122461904Y-107802380D02*
X122461904Y-106802380D01*
X122700000Y-106802380D01*
X122842857Y-106850000D01*
X122938095Y-106945238D01*
X122985714Y-107040476D01*
X123033333Y-107230952D01*
X123033333Y-107373809D01*
X122985714Y-107564285D01*
X122938095Y-107659523D01*
X122842857Y-107754761D01*
X122700000Y-107802380D01*
X122461904Y-107802380D01*
X123509523Y-107802380D02*
X123700000Y-107802380D01*
X123795238Y-107754761D01*
X123842857Y-107707142D01*
X123938095Y-107564285D01*
X123985714Y-107373809D01*
X123985714Y-106992857D01*
X123938095Y-106897619D01*
X123890476Y-106850000D01*
X123795238Y-106802380D01*
X123604761Y-106802380D01*
X123509523Y-106850000D01*
X123461904Y-106897619D01*
X123414285Y-106992857D01*
X123414285Y-107230952D01*
X123461904Y-107326190D01*
X123509523Y-107373809D01*
X123604761Y-107421428D01*
X123795238Y-107421428D01*
X123890476Y-107373809D01*
X123938095Y-107326190D01*
X123985714Y-107230952D01*
D12*
X122628571Y-111092857D02*
X122128571Y-111092857D01*
X122128571Y-111878571D02*
X122128571Y-110378571D01*
X122842857Y-110378571D01*
X123414285Y-111878571D02*
X123414285Y-110378571D01*
X124271428Y-111878571D01*
X124271428Y-110378571D01*
D10*
X110661904Y-119402380D02*
X110661904Y-118402380D01*
X110900000Y-118402380D01*
X111042857Y-118450000D01*
X111138095Y-118545238D01*
X111185714Y-118640476D01*
X111233333Y-118830952D01*
X111233333Y-118973809D01*
X111185714Y-119164285D01*
X111138095Y-119259523D01*
X111042857Y-119354761D01*
X110900000Y-119402380D01*
X110661904Y-119402380D01*
X111804761Y-118830952D02*
X111709523Y-118783333D01*
X111661904Y-118735714D01*
X111614285Y-118640476D01*
X111614285Y-118592857D01*
X111661904Y-118497619D01*
X111709523Y-118450000D01*
X111804761Y-118402380D01*
X111995238Y-118402380D01*
X112090476Y-118450000D01*
X112138095Y-118497619D01*
X112185714Y-118592857D01*
X112185714Y-118640476D01*
X112138095Y-118735714D01*
X112090476Y-118783333D01*
X111995238Y-118830952D01*
X111804761Y-118830952D01*
X111709523Y-118878571D01*
X111661904Y-118926190D01*
X111614285Y-119021428D01*
X111614285Y-119211904D01*
X111661904Y-119307142D01*
X111709523Y-119354761D01*
X111804761Y-119402380D01*
X111995238Y-119402380D01*
X112090476Y-119354761D01*
X112138095Y-119307142D01*
X112185714Y-119211904D01*
X112185714Y-119021428D01*
X112138095Y-118926190D01*
X112090476Y-118878571D01*
X111995238Y-118830952D01*
D12*
X110400000Y-123478571D02*
X109900000Y-122764285D01*
X109542857Y-123478571D02*
X109542857Y-121978571D01*
X110114285Y-121978571D01*
X110257142Y-122050000D01*
X110328571Y-122121428D01*
X110400000Y-122264285D01*
X110400000Y-122478571D01*
X110328571Y-122621428D01*
X110257142Y-122692857D01*
X110114285Y-122764285D01*
X109542857Y-122764285D01*
X111900000Y-123478571D02*
X111400000Y-122764285D01*
X111042857Y-123478571D02*
X111042857Y-121978571D01*
X111614285Y-121978571D01*
X111757142Y-122050000D01*
X111828571Y-122121428D01*
X111900000Y-122264285D01*
X111900000Y-122478571D01*
X111828571Y-122621428D01*
X111757142Y-122692857D01*
X111614285Y-122764285D01*
X111042857Y-122764285D01*
X112828571Y-121978571D02*
X112971428Y-121978571D01*
X113114285Y-122050000D01*
X113185714Y-122121428D01*
X113257142Y-122264285D01*
X113328571Y-122550000D01*
X113328571Y-122907142D01*
X113257142Y-123192857D01*
X113185714Y-123335714D01*
X113114285Y-123407142D01*
X112971428Y-123478571D01*
X112828571Y-123478571D01*
X112685714Y-123407142D01*
X112614285Y-123335714D01*
X112542857Y-123192857D01*
X112471428Y-122907142D01*
X112471428Y-122550000D01*
X112542857Y-122264285D01*
X112614285Y-122121428D01*
X112685714Y-122050000D01*
X112828571Y-121978571D01*
D10*
X104161904Y-119402380D02*
X104161904Y-118402380D01*
X104400000Y-118402380D01*
X104542857Y-118450000D01*
X104638095Y-118545238D01*
X104685714Y-118640476D01*
X104733333Y-118830952D01*
X104733333Y-118973809D01*
X104685714Y-119164285D01*
X104638095Y-119259523D01*
X104542857Y-119354761D01*
X104400000Y-119402380D01*
X104161904Y-119402380D01*
X105066666Y-118402380D02*
X105733333Y-118402380D01*
X105304761Y-119402380D01*
D12*
X103900000Y-123478571D02*
X103400000Y-122764285D01*
X103042857Y-123478571D02*
X103042857Y-121978571D01*
X103614285Y-121978571D01*
X103757142Y-122050000D01*
X103828571Y-122121428D01*
X103900000Y-122264285D01*
X103900000Y-122478571D01*
X103828571Y-122621428D01*
X103757142Y-122692857D01*
X103614285Y-122764285D01*
X103042857Y-122764285D01*
X105400000Y-123478571D02*
X104900000Y-122764285D01*
X104542857Y-123478571D02*
X104542857Y-121978571D01*
X105114285Y-121978571D01*
X105257142Y-122050000D01*
X105328571Y-122121428D01*
X105400000Y-122264285D01*
X105400000Y-122478571D01*
X105328571Y-122621428D01*
X105257142Y-122692857D01*
X105114285Y-122764285D01*
X104542857Y-122764285D01*
X106828571Y-123478571D02*
X105971428Y-123478571D01*
X106400000Y-123478571D02*
X106400000Y-121978571D01*
X106257142Y-122192857D01*
X106114285Y-122335714D01*
X105971428Y-122407142D01*
D10*
X97661904Y-119402380D02*
X97661904Y-118402380D01*
X97900000Y-118402380D01*
X98042857Y-118450000D01*
X98138095Y-118545238D01*
X98185714Y-118640476D01*
X98233333Y-118830952D01*
X98233333Y-118973809D01*
X98185714Y-119164285D01*
X98138095Y-119259523D01*
X98042857Y-119354761D01*
X97900000Y-119402380D01*
X97661904Y-119402380D01*
X99090476Y-118402380D02*
X98900000Y-118402380D01*
X98804761Y-118450000D01*
X98757142Y-118497619D01*
X98661904Y-118640476D01*
X98614285Y-118830952D01*
X98614285Y-119211904D01*
X98661904Y-119307142D01*
X98709523Y-119354761D01*
X98804761Y-119402380D01*
X98995238Y-119402380D01*
X99090476Y-119354761D01*
X99138095Y-119307142D01*
X99185714Y-119211904D01*
X99185714Y-118973809D01*
X99138095Y-118878571D01*
X99090476Y-118830952D01*
X98995238Y-118783333D01*
X98804761Y-118783333D01*
X98709523Y-118830952D01*
X98661904Y-118878571D01*
X98614285Y-118973809D01*
D12*
X97400000Y-123478571D02*
X96900000Y-122764285D01*
X96542857Y-123478571D02*
X96542857Y-121978571D01*
X97114285Y-121978571D01*
X97257142Y-122050000D01*
X97328571Y-122121428D01*
X97400000Y-122264285D01*
X97400000Y-122478571D01*
X97328571Y-122621428D01*
X97257142Y-122692857D01*
X97114285Y-122764285D01*
X96542857Y-122764285D01*
X98900000Y-123478571D02*
X98400000Y-122764285D01*
X98042857Y-123478571D02*
X98042857Y-121978571D01*
X98614285Y-121978571D01*
X98757142Y-122050000D01*
X98828571Y-122121428D01*
X98900000Y-122264285D01*
X98900000Y-122478571D01*
X98828571Y-122621428D01*
X98757142Y-122692857D01*
X98614285Y-122764285D01*
X98042857Y-122764285D01*
X99471428Y-122121428D02*
X99542857Y-122050000D01*
X99685714Y-121978571D01*
X100042857Y-121978571D01*
X100185714Y-122050000D01*
X100257142Y-122121428D01*
X100328571Y-122264285D01*
X100328571Y-122407142D01*
X100257142Y-122621428D01*
X99400000Y-123478571D01*
X100328571Y-123478571D01*
D10*
X91161904Y-119402380D02*
X91161904Y-118402380D01*
X91400000Y-118402380D01*
X91542857Y-118450000D01*
X91638095Y-118545238D01*
X91685714Y-118640476D01*
X91733333Y-118830952D01*
X91733333Y-118973809D01*
X91685714Y-119164285D01*
X91638095Y-119259523D01*
X91542857Y-119354761D01*
X91400000Y-119402380D01*
X91161904Y-119402380D01*
X92638095Y-118402380D02*
X92161904Y-118402380D01*
X92114285Y-118878571D01*
X92161904Y-118830952D01*
X92257142Y-118783333D01*
X92495238Y-118783333D01*
X92590476Y-118830952D01*
X92638095Y-118878571D01*
X92685714Y-118973809D01*
X92685714Y-119211904D01*
X92638095Y-119307142D01*
X92590476Y-119354761D01*
X92495238Y-119402380D01*
X92257142Y-119402380D01*
X92161904Y-119354761D01*
X92114285Y-119307142D01*
D12*
X90900000Y-123478571D02*
X90400000Y-122764285D01*
X90042857Y-123478571D02*
X90042857Y-121978571D01*
X90614285Y-121978571D01*
X90757142Y-122050000D01*
X90828571Y-122121428D01*
X90900000Y-122264285D01*
X90900000Y-122478571D01*
X90828571Y-122621428D01*
X90757142Y-122692857D01*
X90614285Y-122764285D01*
X90042857Y-122764285D01*
X92400000Y-123478571D02*
X91900000Y-122764285D01*
X91542857Y-123478571D02*
X91542857Y-121978571D01*
X92114285Y-121978571D01*
X92257142Y-122050000D01*
X92328571Y-122121428D01*
X92400000Y-122264285D01*
X92400000Y-122478571D01*
X92328571Y-122621428D01*
X92257142Y-122692857D01*
X92114285Y-122764285D01*
X91542857Y-122764285D01*
X92900000Y-121978571D02*
X93828571Y-121978571D01*
X93328571Y-122550000D01*
X93542857Y-122550000D01*
X93685714Y-122621428D01*
X93757142Y-122692857D01*
X93828571Y-122835714D01*
X93828571Y-123192857D01*
X93757142Y-123335714D01*
X93685714Y-123407142D01*
X93542857Y-123478571D01*
X93114285Y-123478571D01*
X92971428Y-123407142D01*
X92900000Y-123335714D01*
D10*
X110636904Y-107802380D02*
X110636904Y-106802380D01*
X110875000Y-106802380D01*
X111017857Y-106850000D01*
X111113095Y-106945238D01*
X111160714Y-107040476D01*
X111208333Y-107230952D01*
X111208333Y-107373809D01*
X111160714Y-107564285D01*
X111113095Y-107659523D01*
X111017857Y-107754761D01*
X110875000Y-107802380D01*
X110636904Y-107802380D01*
X112065476Y-107135714D02*
X112065476Y-107802380D01*
X111827380Y-106754761D02*
X111589285Y-107469047D01*
X112208333Y-107469047D01*
D12*
X109192857Y-110378571D02*
X109550000Y-111878571D01*
X109835714Y-110807142D01*
X110121428Y-111878571D01*
X110478571Y-110378571D01*
X111907142Y-111878571D02*
X111407142Y-111164285D01*
X111050000Y-111878571D02*
X111050000Y-110378571D01*
X111621428Y-110378571D01*
X111764285Y-110450000D01*
X111835714Y-110521428D01*
X111907142Y-110664285D01*
X111907142Y-110878571D01*
X111835714Y-111021428D01*
X111764285Y-111092857D01*
X111621428Y-111164285D01*
X111050000Y-111164285D01*
X112835714Y-110378571D02*
X112978571Y-110378571D01*
X113121428Y-110450000D01*
X113192857Y-110521428D01*
X113264285Y-110664285D01*
X113335714Y-110950000D01*
X113335714Y-111307142D01*
X113264285Y-111592857D01*
X113192857Y-111735714D01*
X113121428Y-111807142D01*
X112978571Y-111878571D01*
X112835714Y-111878571D01*
X112692857Y-111807142D01*
X112621428Y-111735714D01*
X112550000Y-111592857D01*
X112478571Y-111307142D01*
X112478571Y-110950000D01*
X112550000Y-110664285D01*
X112621428Y-110521428D01*
X112692857Y-110450000D01*
X112835714Y-110378571D01*
D10*
X104161904Y-107802380D02*
X104161904Y-106802380D01*
X104400000Y-106802380D01*
X104542857Y-106850000D01*
X104638095Y-106945238D01*
X104685714Y-107040476D01*
X104733333Y-107230952D01*
X104733333Y-107373809D01*
X104685714Y-107564285D01*
X104638095Y-107659523D01*
X104542857Y-107754761D01*
X104400000Y-107802380D01*
X104161904Y-107802380D01*
X105066666Y-106802380D02*
X105685714Y-106802380D01*
X105352380Y-107183333D01*
X105495238Y-107183333D01*
X105590476Y-107230952D01*
X105638095Y-107278571D01*
X105685714Y-107373809D01*
X105685714Y-107611904D01*
X105638095Y-107707142D01*
X105590476Y-107754761D01*
X105495238Y-107802380D01*
X105209523Y-107802380D01*
X105114285Y-107754761D01*
X105066666Y-107707142D01*
D12*
X102792857Y-110378571D02*
X103150000Y-111878571D01*
X103435714Y-110807142D01*
X103721428Y-111878571D01*
X104078571Y-110378571D01*
X105507142Y-111878571D02*
X105007142Y-111164285D01*
X104650000Y-111878571D02*
X104650000Y-110378571D01*
X105221428Y-110378571D01*
X105364285Y-110450000D01*
X105435714Y-110521428D01*
X105507142Y-110664285D01*
X105507142Y-110878571D01*
X105435714Y-111021428D01*
X105364285Y-111092857D01*
X105221428Y-111164285D01*
X104650000Y-111164285D01*
X106935714Y-111878571D02*
X106078571Y-111878571D01*
X106507142Y-111878571D02*
X106507142Y-110378571D01*
X106364285Y-110592857D01*
X106221428Y-110735714D01*
X106078571Y-110807142D01*
D10*
X97661904Y-107802380D02*
X97661904Y-106802380D01*
X97900000Y-106802380D01*
X98042857Y-106850000D01*
X98138095Y-106945238D01*
X98185714Y-107040476D01*
X98233333Y-107230952D01*
X98233333Y-107373809D01*
X98185714Y-107564285D01*
X98138095Y-107659523D01*
X98042857Y-107754761D01*
X97900000Y-107802380D01*
X97661904Y-107802380D01*
X98614285Y-106897619D02*
X98661904Y-106850000D01*
X98757142Y-106802380D01*
X98995238Y-106802380D01*
X99090476Y-106850000D01*
X99138095Y-106897619D01*
X99185714Y-106992857D01*
X99185714Y-107088095D01*
X99138095Y-107230952D01*
X98566666Y-107802380D01*
X99185714Y-107802380D01*
D12*
X96292857Y-110378571D02*
X96650000Y-111878571D01*
X96935714Y-110807142D01*
X97221428Y-111878571D01*
X97578571Y-110378571D01*
X99007142Y-111878571D02*
X98507142Y-111164285D01*
X98150000Y-111878571D02*
X98150000Y-110378571D01*
X98721428Y-110378571D01*
X98864285Y-110450000D01*
X98935714Y-110521428D01*
X99007142Y-110664285D01*
X99007142Y-110878571D01*
X98935714Y-111021428D01*
X98864285Y-111092857D01*
X98721428Y-111164285D01*
X98150000Y-111164285D01*
X99578571Y-110521428D02*
X99650000Y-110450000D01*
X99792857Y-110378571D01*
X100150000Y-110378571D01*
X100292857Y-110450000D01*
X100364285Y-110521428D01*
X100435714Y-110664285D01*
X100435714Y-110807142D01*
X100364285Y-111021428D01*
X99507142Y-111878571D01*
X100435714Y-111878571D01*
D10*
X91161904Y-107802380D02*
X91161904Y-106802380D01*
X91400000Y-106802380D01*
X91542857Y-106850000D01*
X91638095Y-106945238D01*
X91685714Y-107040476D01*
X91733333Y-107230952D01*
X91733333Y-107373809D01*
X91685714Y-107564285D01*
X91638095Y-107659523D01*
X91542857Y-107754761D01*
X91400000Y-107802380D01*
X91161904Y-107802380D01*
X92685714Y-107802380D02*
X92114285Y-107802380D01*
X92400000Y-107802380D02*
X92400000Y-106802380D01*
X92304761Y-106945238D01*
X92209523Y-107040476D01*
X92114285Y-107088095D01*
D12*
X89792857Y-110378571D02*
X90150000Y-111878571D01*
X90435714Y-110807142D01*
X90721428Y-111878571D01*
X91078571Y-110378571D01*
X92507142Y-111878571D02*
X92007142Y-111164285D01*
X91650000Y-111878571D02*
X91650000Y-110378571D01*
X92221428Y-110378571D01*
X92364285Y-110450000D01*
X92435714Y-110521428D01*
X92507142Y-110664285D01*
X92507142Y-110878571D01*
X92435714Y-111021428D01*
X92364285Y-111092857D01*
X92221428Y-111164285D01*
X91650000Y-111164285D01*
X93007142Y-110378571D02*
X93935714Y-110378571D01*
X93435714Y-110950000D01*
X93650000Y-110950000D01*
X93792857Y-111021428D01*
X93864285Y-111092857D01*
X93935714Y-111235714D01*
X93935714Y-111592857D01*
X93864285Y-111735714D01*
X93792857Y-111807142D01*
X93650000Y-111878571D01*
X93221428Y-111878571D01*
X93078571Y-111807142D01*
X93007142Y-111735714D01*
D10*
X157418095Y-95582380D02*
X157418095Y-96391904D01*
X157465714Y-96487142D01*
X157513333Y-96534761D01*
X157608571Y-96582380D01*
X157799047Y-96582380D01*
X157894285Y-96534761D01*
X157941904Y-96487142D01*
X157989523Y-96391904D01*
X157989523Y-95582380D01*
X158370476Y-95582380D02*
X158989523Y-95582380D01*
X158656190Y-95963333D01*
X158799047Y-95963333D01*
X158894285Y-96010952D01*
X158941904Y-96058571D01*
X158989523Y-96153809D01*
X158989523Y-96391904D01*
X158941904Y-96487142D01*
X158894285Y-96534761D01*
X158799047Y-96582380D01*
X158513333Y-96582380D01*
X158418095Y-96534761D01*
X158370476Y-96487142D01*
X155409523Y-52647619D02*
X155457142Y-52600000D01*
X155552380Y-52552380D01*
X155790476Y-52552380D01*
X155885714Y-52600000D01*
X155933333Y-52647619D01*
X155980952Y-52742857D01*
X155980952Y-52838095D01*
X155933333Y-52980952D01*
X155361904Y-53552380D01*
X155980952Y-53552380D01*
X156552380Y-52980952D02*
X156457142Y-52933333D01*
X156409523Y-52885714D01*
X156361904Y-52790476D01*
X156361904Y-52742857D01*
X156409523Y-52647619D01*
X156457142Y-52600000D01*
X156552380Y-52552380D01*
X156742857Y-52552380D01*
X156838095Y-52600000D01*
X156885714Y-52647619D01*
X156933333Y-52742857D01*
X156933333Y-52790476D01*
X156885714Y-52885714D01*
X156838095Y-52933333D01*
X156742857Y-52980952D01*
X156552380Y-52980952D01*
X156457142Y-53028571D01*
X156409523Y-53076190D01*
X156361904Y-53171428D01*
X156361904Y-53361904D01*
X156409523Y-53457142D01*
X156457142Y-53504761D01*
X156552380Y-53552380D01*
X156742857Y-53552380D01*
X156838095Y-53504761D01*
X156885714Y-53457142D01*
X156933333Y-53361904D01*
X156933333Y-53171428D01*
X156885714Y-53076190D01*
X156838095Y-53028571D01*
X156742857Y-52980952D01*
X157933333Y-53457142D02*
X157885714Y-53504761D01*
X157742857Y-53552380D01*
X157647619Y-53552380D01*
X157504761Y-53504761D01*
X157409523Y-53409523D01*
X157361904Y-53314285D01*
X157314285Y-53123809D01*
X157314285Y-52980952D01*
X157361904Y-52790476D01*
X157409523Y-52695238D01*
X157504761Y-52600000D01*
X157647619Y-52552380D01*
X157742857Y-52552380D01*
X157885714Y-52600000D01*
X157933333Y-52647619D01*
X158314285Y-52647619D02*
X158361904Y-52600000D01*
X158457142Y-52552380D01*
X158695238Y-52552380D01*
X158790476Y-52600000D01*
X158838095Y-52647619D01*
X158885714Y-52742857D01*
X158885714Y-52838095D01*
X158838095Y-52980952D01*
X158266666Y-53552380D01*
X158885714Y-53552380D01*
X159790476Y-52552380D02*
X159314285Y-52552380D01*
X159266666Y-53028571D01*
X159314285Y-52980952D01*
X159409523Y-52933333D01*
X159647619Y-52933333D01*
X159742857Y-52980952D01*
X159790476Y-53028571D01*
X159838095Y-53123809D01*
X159838095Y-53361904D01*
X159790476Y-53457142D01*
X159742857Y-53504761D01*
X159647619Y-53552380D01*
X159409523Y-53552380D01*
X159314285Y-53504761D01*
X159266666Y-53457142D01*
X160695238Y-52552380D02*
X160504761Y-52552380D01*
X160409523Y-52600000D01*
X160361904Y-52647619D01*
X160266666Y-52790476D01*
X160219047Y-52980952D01*
X160219047Y-53361904D01*
X160266666Y-53457142D01*
X160314285Y-53504761D01*
X160409523Y-53552380D01*
X160600000Y-53552380D01*
X160695238Y-53504761D01*
X160742857Y-53457142D01*
X160790476Y-53361904D01*
X160790476Y-53123809D01*
X160742857Y-53028571D01*
X160695238Y-52980952D01*
X160600000Y-52933333D01*
X160409523Y-52933333D01*
X160314285Y-52980952D01*
X160266666Y-53028571D01*
X160219047Y-53123809D01*
X146252380Y-78561904D02*
X145776190Y-78895238D01*
X146252380Y-79133333D02*
X145252380Y-79133333D01*
X145252380Y-78752380D01*
X145300000Y-78657142D01*
X145347619Y-78609523D01*
X145442857Y-78561904D01*
X145585714Y-78561904D01*
X145680952Y-78609523D01*
X145728571Y-78657142D01*
X145776190Y-78752380D01*
X145776190Y-79133333D01*
X145252380Y-77942857D02*
X145252380Y-77752380D01*
X145300000Y-77657142D01*
X145395238Y-77561904D01*
X145585714Y-77514285D01*
X145919047Y-77514285D01*
X146109523Y-77561904D01*
X146204761Y-77657142D01*
X146252380Y-77752380D01*
X146252380Y-77942857D01*
X146204761Y-78038095D01*
X146109523Y-78133333D01*
X145919047Y-78180952D01*
X145585714Y-78180952D01*
X145395238Y-78133333D01*
X145300000Y-78038095D01*
X145252380Y-77942857D01*
X146252380Y-77085714D02*
X145252380Y-77085714D01*
X145966666Y-76752380D01*
X145252380Y-76419047D01*
X146252380Y-76419047D01*
X145252380Y-75752380D02*
X145252380Y-75657142D01*
X145300000Y-75561904D01*
X145347619Y-75514285D01*
X145442857Y-75466666D01*
X145633333Y-75419047D01*
X145871428Y-75419047D01*
X146061904Y-75466666D01*
X146157142Y-75514285D01*
X146204761Y-75561904D01*
X146252380Y-75657142D01*
X146252380Y-75752380D01*
X146204761Y-75847619D01*
X146157142Y-75895238D01*
X146061904Y-75942857D01*
X145871428Y-75990476D01*
X145633333Y-75990476D01*
X145442857Y-75942857D01*
X145347619Y-75895238D01*
X145300000Y-75847619D01*
X145252380Y-75752380D01*
X146652380Y-83571428D02*
X146652380Y-82952380D01*
X147033333Y-83285714D01*
X147033333Y-83142857D01*
X147080952Y-83047619D01*
X147128571Y-83000000D01*
X147223809Y-82952380D01*
X147461904Y-82952380D01*
X147557142Y-83000000D01*
X147604761Y-83047619D01*
X147652380Y-83142857D01*
X147652380Y-83428571D01*
X147604761Y-83523809D01*
X147557142Y-83571428D01*
X146747619Y-82571428D02*
X146700000Y-82523809D01*
X146652380Y-82428571D01*
X146652380Y-82190476D01*
X146700000Y-82095238D01*
X146747619Y-82047619D01*
X146842857Y-82000000D01*
X146938095Y-82000000D01*
X147080952Y-82047619D01*
X147652380Y-82619047D01*
X147652380Y-82000000D01*
X147652380Y-81571428D02*
X146652380Y-81571428D01*
X147652380Y-81000000D02*
X147080952Y-81428571D01*
X146652380Y-81000000D02*
X147223809Y-81571428D01*
X147652380Y-80666666D02*
X146985714Y-80142857D01*
X146985714Y-80666666D02*
X147652380Y-80142857D01*
X147080952Y-79619047D02*
X147033333Y-79714285D01*
X146985714Y-79761904D01*
X146890476Y-79809523D01*
X146842857Y-79809523D01*
X146747619Y-79761904D01*
X146700000Y-79714285D01*
X146652380Y-79619047D01*
X146652380Y-79428571D01*
X146700000Y-79333333D01*
X146747619Y-79285714D01*
X146842857Y-79238095D01*
X146890476Y-79238095D01*
X146985714Y-79285714D01*
X147033333Y-79333333D01*
X147080952Y-79428571D01*
X147080952Y-79619047D01*
X147128571Y-79714285D01*
X147176190Y-79761904D01*
X147271428Y-79809523D01*
X147461904Y-79809523D01*
X147557142Y-79761904D01*
X147604761Y-79714285D01*
X147652380Y-79619047D01*
X147652380Y-79428571D01*
X147604761Y-79333333D01*
X147557142Y-79285714D01*
X147461904Y-79238095D01*
X147271428Y-79238095D01*
X147176190Y-79285714D01*
X147128571Y-79333333D01*
X147080952Y-79428571D01*
X147128571Y-78047619D02*
X147128571Y-77714285D01*
X147652380Y-77571428D02*
X147652380Y-78047619D01*
X146652380Y-78047619D01*
X146652380Y-77571428D01*
X147128571Y-77142857D02*
X147128571Y-76809523D01*
X147652380Y-76666666D02*
X147652380Y-77142857D01*
X146652380Y-77142857D01*
X146652380Y-76666666D01*
X147652380Y-76238095D02*
X146652380Y-76238095D01*
X146652380Y-75857142D01*
X146700000Y-75761904D01*
X146747619Y-75714285D01*
X146842857Y-75666666D01*
X146985714Y-75666666D01*
X147080952Y-75714285D01*
X147128571Y-75761904D01*
X147176190Y-75857142D01*
X147176190Y-76238095D01*
X147652380Y-74666666D02*
X147176190Y-75000000D01*
X147652380Y-75238095D02*
X146652380Y-75238095D01*
X146652380Y-74857142D01*
X146700000Y-74761904D01*
X146747619Y-74714285D01*
X146842857Y-74666666D01*
X146985714Y-74666666D01*
X147080952Y-74714285D01*
X147128571Y-74761904D01*
X147176190Y-74857142D01*
X147176190Y-75238095D01*
X146652380Y-74047619D02*
X146652380Y-73857142D01*
X146700000Y-73761904D01*
X146795238Y-73666666D01*
X146985714Y-73619047D01*
X147319047Y-73619047D01*
X147509523Y-73666666D01*
X147604761Y-73761904D01*
X147652380Y-73857142D01*
X147652380Y-74047619D01*
X147604761Y-74142857D01*
X147509523Y-74238095D01*
X147319047Y-74285714D01*
X146985714Y-74285714D01*
X146795238Y-74238095D01*
X146700000Y-74142857D01*
X146652380Y-74047619D01*
X147652380Y-73190476D02*
X146652380Y-73190476D01*
X147366666Y-72857142D01*
X146652380Y-72523809D01*
X147652380Y-72523809D01*
X129918095Y-95582380D02*
X129918095Y-96391904D01*
X129965714Y-96487142D01*
X130013333Y-96534761D01*
X130108571Y-96582380D01*
X130299047Y-96582380D01*
X130394285Y-96534761D01*
X130441904Y-96487142D01*
X130489523Y-96391904D01*
X130489523Y-95582380D01*
X130918095Y-95677619D02*
X130965714Y-95630000D01*
X131060952Y-95582380D01*
X131299047Y-95582380D01*
X131394285Y-95630000D01*
X131441904Y-95677619D01*
X131489523Y-95772857D01*
X131489523Y-95868095D01*
X131441904Y-96010952D01*
X130870476Y-96582380D01*
X131489523Y-96582380D01*
X128109523Y-52647619D02*
X128157142Y-52600000D01*
X128252380Y-52552380D01*
X128490476Y-52552380D01*
X128585714Y-52600000D01*
X128633333Y-52647619D01*
X128680952Y-52742857D01*
X128680952Y-52838095D01*
X128633333Y-52980952D01*
X128061904Y-53552380D01*
X128680952Y-53552380D01*
X129252380Y-52980952D02*
X129157142Y-52933333D01*
X129109523Y-52885714D01*
X129061904Y-52790476D01*
X129061904Y-52742857D01*
X129109523Y-52647619D01*
X129157142Y-52600000D01*
X129252380Y-52552380D01*
X129442857Y-52552380D01*
X129538095Y-52600000D01*
X129585714Y-52647619D01*
X129633333Y-52742857D01*
X129633333Y-52790476D01*
X129585714Y-52885714D01*
X129538095Y-52933333D01*
X129442857Y-52980952D01*
X129252380Y-52980952D01*
X129157142Y-53028571D01*
X129109523Y-53076190D01*
X129061904Y-53171428D01*
X129061904Y-53361904D01*
X129109523Y-53457142D01*
X129157142Y-53504761D01*
X129252380Y-53552380D01*
X129442857Y-53552380D01*
X129538095Y-53504761D01*
X129585714Y-53457142D01*
X129633333Y-53361904D01*
X129633333Y-53171428D01*
X129585714Y-53076190D01*
X129538095Y-53028571D01*
X129442857Y-52980952D01*
X130633333Y-53457142D02*
X130585714Y-53504761D01*
X130442857Y-53552380D01*
X130347619Y-53552380D01*
X130204761Y-53504761D01*
X130109523Y-53409523D01*
X130061904Y-53314285D01*
X130014285Y-53123809D01*
X130014285Y-52980952D01*
X130061904Y-52790476D01*
X130109523Y-52695238D01*
X130204761Y-52600000D01*
X130347619Y-52552380D01*
X130442857Y-52552380D01*
X130585714Y-52600000D01*
X130633333Y-52647619D01*
X131014285Y-52647619D02*
X131061904Y-52600000D01*
X131157142Y-52552380D01*
X131395238Y-52552380D01*
X131490476Y-52600000D01*
X131538095Y-52647619D01*
X131585714Y-52742857D01*
X131585714Y-52838095D01*
X131538095Y-52980952D01*
X130966666Y-53552380D01*
X131585714Y-53552380D01*
X132490476Y-52552380D02*
X132014285Y-52552380D01*
X131966666Y-53028571D01*
X132014285Y-52980952D01*
X132109523Y-52933333D01*
X132347619Y-52933333D01*
X132442857Y-52980952D01*
X132490476Y-53028571D01*
X132538095Y-53123809D01*
X132538095Y-53361904D01*
X132490476Y-53457142D01*
X132442857Y-53504761D01*
X132347619Y-53552380D01*
X132109523Y-53552380D01*
X132014285Y-53504761D01*
X131966666Y-53457142D01*
X133395238Y-52552380D02*
X133204761Y-52552380D01*
X133109523Y-52600000D01*
X133061904Y-52647619D01*
X132966666Y-52790476D01*
X132919047Y-52980952D01*
X132919047Y-53361904D01*
X132966666Y-53457142D01*
X133014285Y-53504761D01*
X133109523Y-53552380D01*
X133300000Y-53552380D01*
X133395238Y-53504761D01*
X133442857Y-53457142D01*
X133490476Y-53361904D01*
X133490476Y-53123809D01*
X133442857Y-53028571D01*
X133395238Y-52980952D01*
X133300000Y-52933333D01*
X133109523Y-52933333D01*
X133014285Y-52980952D01*
X132966666Y-53028571D01*
X132919047Y-53123809D01*
X118652380Y-78361904D02*
X118176190Y-78695238D01*
X118652380Y-78933333D02*
X117652380Y-78933333D01*
X117652380Y-78552380D01*
X117700000Y-78457142D01*
X117747619Y-78409523D01*
X117842857Y-78361904D01*
X117985714Y-78361904D01*
X118080952Y-78409523D01*
X118128571Y-78457142D01*
X118176190Y-78552380D01*
X118176190Y-78933333D01*
X117652380Y-77742857D02*
X117652380Y-77552380D01*
X117700000Y-77457142D01*
X117795238Y-77361904D01*
X117985714Y-77314285D01*
X118319047Y-77314285D01*
X118509523Y-77361904D01*
X118604761Y-77457142D01*
X118652380Y-77552380D01*
X118652380Y-77742857D01*
X118604761Y-77838095D01*
X118509523Y-77933333D01*
X118319047Y-77980952D01*
X117985714Y-77980952D01*
X117795238Y-77933333D01*
X117700000Y-77838095D01*
X117652380Y-77742857D01*
X118652380Y-76885714D02*
X117652380Y-76885714D01*
X118366666Y-76552380D01*
X117652380Y-76219047D01*
X118652380Y-76219047D01*
X118652380Y-75219047D02*
X118652380Y-75790476D01*
X118652380Y-75504761D02*
X117652380Y-75504761D01*
X117795238Y-75600000D01*
X117890476Y-75695238D01*
X117938095Y-75790476D01*
X119152380Y-83471428D02*
X119152380Y-82852380D01*
X119533333Y-83185714D01*
X119533333Y-83042857D01*
X119580952Y-82947619D01*
X119628571Y-82900000D01*
X119723809Y-82852380D01*
X119961904Y-82852380D01*
X120057142Y-82900000D01*
X120104761Y-82947619D01*
X120152380Y-83042857D01*
X120152380Y-83328571D01*
X120104761Y-83423809D01*
X120057142Y-83471428D01*
X119247619Y-82471428D02*
X119200000Y-82423809D01*
X119152380Y-82328571D01*
X119152380Y-82090476D01*
X119200000Y-81995238D01*
X119247619Y-81947619D01*
X119342857Y-81900000D01*
X119438095Y-81900000D01*
X119580952Y-81947619D01*
X120152380Y-82519047D01*
X120152380Y-81900000D01*
X120152380Y-81471428D02*
X119152380Y-81471428D01*
X120152380Y-80900000D02*
X119580952Y-81328571D01*
X119152380Y-80900000D02*
X119723809Y-81471428D01*
X120152380Y-80566666D02*
X119485714Y-80042857D01*
X119485714Y-80566666D02*
X120152380Y-80042857D01*
X119580952Y-79519047D02*
X119533333Y-79614285D01*
X119485714Y-79661904D01*
X119390476Y-79709523D01*
X119342857Y-79709523D01*
X119247619Y-79661904D01*
X119200000Y-79614285D01*
X119152380Y-79519047D01*
X119152380Y-79328571D01*
X119200000Y-79233333D01*
X119247619Y-79185714D01*
X119342857Y-79138095D01*
X119390476Y-79138095D01*
X119485714Y-79185714D01*
X119533333Y-79233333D01*
X119580952Y-79328571D01*
X119580952Y-79519047D01*
X119628571Y-79614285D01*
X119676190Y-79661904D01*
X119771428Y-79709523D01*
X119961904Y-79709523D01*
X120057142Y-79661904D01*
X120104761Y-79614285D01*
X120152380Y-79519047D01*
X120152380Y-79328571D01*
X120104761Y-79233333D01*
X120057142Y-79185714D01*
X119961904Y-79138095D01*
X119771428Y-79138095D01*
X119676190Y-79185714D01*
X119628571Y-79233333D01*
X119580952Y-79328571D01*
X119628571Y-77947619D02*
X119628571Y-77614285D01*
X120152380Y-77471428D02*
X120152380Y-77947619D01*
X119152380Y-77947619D01*
X119152380Y-77471428D01*
X119628571Y-77042857D02*
X119628571Y-76709523D01*
X120152380Y-76566666D02*
X120152380Y-77042857D01*
X119152380Y-77042857D01*
X119152380Y-76566666D01*
X120152380Y-76138095D02*
X119152380Y-76138095D01*
X119152380Y-75757142D01*
X119200000Y-75661904D01*
X119247619Y-75614285D01*
X119342857Y-75566666D01*
X119485714Y-75566666D01*
X119580952Y-75614285D01*
X119628571Y-75661904D01*
X119676190Y-75757142D01*
X119676190Y-76138095D01*
X120152380Y-74566666D02*
X119676190Y-74900000D01*
X120152380Y-75138095D02*
X119152380Y-75138095D01*
X119152380Y-74757142D01*
X119200000Y-74661904D01*
X119247619Y-74614285D01*
X119342857Y-74566666D01*
X119485714Y-74566666D01*
X119580952Y-74614285D01*
X119628571Y-74661904D01*
X119676190Y-74757142D01*
X119676190Y-75138095D01*
X119152380Y-73947619D02*
X119152380Y-73757142D01*
X119200000Y-73661904D01*
X119295238Y-73566666D01*
X119485714Y-73519047D01*
X119819047Y-73519047D01*
X120009523Y-73566666D01*
X120104761Y-73661904D01*
X120152380Y-73757142D01*
X120152380Y-73947619D01*
X120104761Y-74042857D01*
X120009523Y-74138095D01*
X119819047Y-74185714D01*
X119485714Y-74185714D01*
X119295238Y-74138095D01*
X119200000Y-74042857D01*
X119152380Y-73947619D01*
X120152380Y-73090476D02*
X119152380Y-73090476D01*
X119866666Y-72757142D01*
X119152380Y-72423809D01*
X120152380Y-72423809D01*
X102818095Y-95582380D02*
X102818095Y-96391904D01*
X102865714Y-96487142D01*
X102913333Y-96534761D01*
X103008571Y-96582380D01*
X103199047Y-96582380D01*
X103294285Y-96534761D01*
X103341904Y-96487142D01*
X103389523Y-96391904D01*
X103389523Y-95582380D01*
X104389523Y-96582380D02*
X103818095Y-96582380D01*
X104103809Y-96582380D02*
X104103809Y-95582380D01*
X104008571Y-95725238D01*
X103913333Y-95820476D01*
X103818095Y-95868095D01*
X101009523Y-52647619D02*
X101057142Y-52600000D01*
X101152380Y-52552380D01*
X101390476Y-52552380D01*
X101485714Y-52600000D01*
X101533333Y-52647619D01*
X101580952Y-52742857D01*
X101580952Y-52838095D01*
X101533333Y-52980952D01*
X100961904Y-53552380D01*
X101580952Y-53552380D01*
X102152380Y-52980952D02*
X102057142Y-52933333D01*
X102009523Y-52885714D01*
X101961904Y-52790476D01*
X101961904Y-52742857D01*
X102009523Y-52647619D01*
X102057142Y-52600000D01*
X102152380Y-52552380D01*
X102342857Y-52552380D01*
X102438095Y-52600000D01*
X102485714Y-52647619D01*
X102533333Y-52742857D01*
X102533333Y-52790476D01*
X102485714Y-52885714D01*
X102438095Y-52933333D01*
X102342857Y-52980952D01*
X102152380Y-52980952D01*
X102057142Y-53028571D01*
X102009523Y-53076190D01*
X101961904Y-53171428D01*
X101961904Y-53361904D01*
X102009523Y-53457142D01*
X102057142Y-53504761D01*
X102152380Y-53552380D01*
X102342857Y-53552380D01*
X102438095Y-53504761D01*
X102485714Y-53457142D01*
X102533333Y-53361904D01*
X102533333Y-53171428D01*
X102485714Y-53076190D01*
X102438095Y-53028571D01*
X102342857Y-52980952D01*
X103533333Y-53457142D02*
X103485714Y-53504761D01*
X103342857Y-53552380D01*
X103247619Y-53552380D01*
X103104761Y-53504761D01*
X103009523Y-53409523D01*
X102961904Y-53314285D01*
X102914285Y-53123809D01*
X102914285Y-52980952D01*
X102961904Y-52790476D01*
X103009523Y-52695238D01*
X103104761Y-52600000D01*
X103247619Y-52552380D01*
X103342857Y-52552380D01*
X103485714Y-52600000D01*
X103533333Y-52647619D01*
X103914285Y-52647619D02*
X103961904Y-52600000D01*
X104057142Y-52552380D01*
X104295238Y-52552380D01*
X104390476Y-52600000D01*
X104438095Y-52647619D01*
X104485714Y-52742857D01*
X104485714Y-52838095D01*
X104438095Y-52980952D01*
X103866666Y-53552380D01*
X104485714Y-53552380D01*
X105390476Y-52552380D02*
X104914285Y-52552380D01*
X104866666Y-53028571D01*
X104914285Y-52980952D01*
X105009523Y-52933333D01*
X105247619Y-52933333D01*
X105342857Y-52980952D01*
X105390476Y-53028571D01*
X105438095Y-53123809D01*
X105438095Y-53361904D01*
X105390476Y-53457142D01*
X105342857Y-53504761D01*
X105247619Y-53552380D01*
X105009523Y-53552380D01*
X104914285Y-53504761D01*
X104866666Y-53457142D01*
X106295238Y-52552380D02*
X106104761Y-52552380D01*
X106009523Y-52600000D01*
X105961904Y-52647619D01*
X105866666Y-52790476D01*
X105819047Y-52980952D01*
X105819047Y-53361904D01*
X105866666Y-53457142D01*
X105914285Y-53504761D01*
X106009523Y-53552380D01*
X106200000Y-53552380D01*
X106295238Y-53504761D01*
X106342857Y-53457142D01*
X106390476Y-53361904D01*
X106390476Y-53123809D01*
X106342857Y-53028571D01*
X106295238Y-52980952D01*
X106200000Y-52933333D01*
X106009523Y-52933333D01*
X105914285Y-52980952D01*
X105866666Y-53028571D01*
X105819047Y-53123809D01*
X91552380Y-78361904D02*
X91076190Y-78695238D01*
X91552380Y-78933333D02*
X90552380Y-78933333D01*
X90552380Y-78552380D01*
X90600000Y-78457142D01*
X90647619Y-78409523D01*
X90742857Y-78361904D01*
X90885714Y-78361904D01*
X90980952Y-78409523D01*
X91028571Y-78457142D01*
X91076190Y-78552380D01*
X91076190Y-78933333D01*
X90552380Y-77742857D02*
X90552380Y-77552380D01*
X90600000Y-77457142D01*
X90695238Y-77361904D01*
X90885714Y-77314285D01*
X91219047Y-77314285D01*
X91409523Y-77361904D01*
X91504761Y-77457142D01*
X91552380Y-77552380D01*
X91552380Y-77742857D01*
X91504761Y-77838095D01*
X91409523Y-77933333D01*
X91219047Y-77980952D01*
X90885714Y-77980952D01*
X90695238Y-77933333D01*
X90600000Y-77838095D01*
X90552380Y-77742857D01*
X91552380Y-76885714D02*
X90552380Y-76885714D01*
X91266666Y-76552380D01*
X90552380Y-76219047D01*
X91552380Y-76219047D01*
X90647619Y-75790476D02*
X90600000Y-75742857D01*
X90552380Y-75647619D01*
X90552380Y-75409523D01*
X90600000Y-75314285D01*
X90647619Y-75266666D01*
X90742857Y-75219047D01*
X90838095Y-75219047D01*
X90980952Y-75266666D01*
X91552380Y-75838095D01*
X91552380Y-75219047D01*
X92052380Y-83471428D02*
X92052380Y-82852380D01*
X92433333Y-83185714D01*
X92433333Y-83042857D01*
X92480952Y-82947619D01*
X92528571Y-82900000D01*
X92623809Y-82852380D01*
X92861904Y-82852380D01*
X92957142Y-82900000D01*
X93004761Y-82947619D01*
X93052380Y-83042857D01*
X93052380Y-83328571D01*
X93004761Y-83423809D01*
X92957142Y-83471428D01*
X92147619Y-82471428D02*
X92100000Y-82423809D01*
X92052380Y-82328571D01*
X92052380Y-82090476D01*
X92100000Y-81995238D01*
X92147619Y-81947619D01*
X92242857Y-81900000D01*
X92338095Y-81900000D01*
X92480952Y-81947619D01*
X93052380Y-82519047D01*
X93052380Y-81900000D01*
X93052380Y-81471428D02*
X92052380Y-81471428D01*
X93052380Y-80900000D02*
X92480952Y-81328571D01*
X92052380Y-80900000D02*
X92623809Y-81471428D01*
X93052380Y-80566666D02*
X92385714Y-80042857D01*
X92385714Y-80566666D02*
X93052380Y-80042857D01*
X92480952Y-79519047D02*
X92433333Y-79614285D01*
X92385714Y-79661904D01*
X92290476Y-79709523D01*
X92242857Y-79709523D01*
X92147619Y-79661904D01*
X92100000Y-79614285D01*
X92052380Y-79519047D01*
X92052380Y-79328571D01*
X92100000Y-79233333D01*
X92147619Y-79185714D01*
X92242857Y-79138095D01*
X92290476Y-79138095D01*
X92385714Y-79185714D01*
X92433333Y-79233333D01*
X92480952Y-79328571D01*
X92480952Y-79519047D01*
X92528571Y-79614285D01*
X92576190Y-79661904D01*
X92671428Y-79709523D01*
X92861904Y-79709523D01*
X92957142Y-79661904D01*
X93004761Y-79614285D01*
X93052380Y-79519047D01*
X93052380Y-79328571D01*
X93004761Y-79233333D01*
X92957142Y-79185714D01*
X92861904Y-79138095D01*
X92671428Y-79138095D01*
X92576190Y-79185714D01*
X92528571Y-79233333D01*
X92480952Y-79328571D01*
X92528571Y-77947619D02*
X92528571Y-77614285D01*
X93052380Y-77471428D02*
X93052380Y-77947619D01*
X92052380Y-77947619D01*
X92052380Y-77471428D01*
X92528571Y-77042857D02*
X92528571Y-76709523D01*
X93052380Y-76566666D02*
X93052380Y-77042857D01*
X92052380Y-77042857D01*
X92052380Y-76566666D01*
X93052380Y-76138095D02*
X92052380Y-76138095D01*
X92052380Y-75757142D01*
X92100000Y-75661904D01*
X92147619Y-75614285D01*
X92242857Y-75566666D01*
X92385714Y-75566666D01*
X92480952Y-75614285D01*
X92528571Y-75661904D01*
X92576190Y-75757142D01*
X92576190Y-76138095D01*
X93052380Y-74566666D02*
X92576190Y-74900000D01*
X93052380Y-75138095D02*
X92052380Y-75138095D01*
X92052380Y-74757142D01*
X92100000Y-74661904D01*
X92147619Y-74614285D01*
X92242857Y-74566666D01*
X92385714Y-74566666D01*
X92480952Y-74614285D01*
X92528571Y-74661904D01*
X92576190Y-74757142D01*
X92576190Y-75138095D01*
X92052380Y-73947619D02*
X92052380Y-73757142D01*
X92100000Y-73661904D01*
X92195238Y-73566666D01*
X92385714Y-73519047D01*
X92719047Y-73519047D01*
X92909523Y-73566666D01*
X93004761Y-73661904D01*
X93052380Y-73757142D01*
X93052380Y-73947619D01*
X93004761Y-74042857D01*
X92909523Y-74138095D01*
X92719047Y-74185714D01*
X92385714Y-74185714D01*
X92195238Y-74138095D01*
X92100000Y-74042857D01*
X92052380Y-73947619D01*
X93052380Y-73090476D02*
X92052380Y-73090476D01*
X92766666Y-72757142D01*
X92052380Y-72423809D01*
X93052380Y-72423809D01*
X144377142Y-94966666D02*
X144424761Y-95014285D01*
X144472380Y-95157142D01*
X144472380Y-95252380D01*
X144424761Y-95395238D01*
X144329523Y-95490476D01*
X144234285Y-95538095D01*
X144043809Y-95585714D01*
X143900952Y-95585714D01*
X143710476Y-95538095D01*
X143615238Y-95490476D01*
X143520000Y-95395238D01*
X143472380Y-95252380D01*
X143472380Y-95157142D01*
X143520000Y-95014285D01*
X143567619Y-94966666D01*
X143472380Y-94633333D02*
X143472380Y-94014285D01*
X143853333Y-94347619D01*
X143853333Y-94204761D01*
X143900952Y-94109523D01*
X143948571Y-94061904D01*
X144043809Y-94014285D01*
X144281904Y-94014285D01*
X144377142Y-94061904D01*
X144424761Y-94109523D01*
X144472380Y-94204761D01*
X144472380Y-94490476D01*
X144424761Y-94585714D01*
X144377142Y-94633333D01*
X116877142Y-94966666D02*
X116924761Y-95014285D01*
X116972380Y-95157142D01*
X116972380Y-95252380D01*
X116924761Y-95395238D01*
X116829523Y-95490476D01*
X116734285Y-95538095D01*
X116543809Y-95585714D01*
X116400952Y-95585714D01*
X116210476Y-95538095D01*
X116115238Y-95490476D01*
X116020000Y-95395238D01*
X115972380Y-95252380D01*
X115972380Y-95157142D01*
X116020000Y-95014285D01*
X116067619Y-94966666D01*
X116067619Y-94585714D02*
X116020000Y-94538095D01*
X115972380Y-94442857D01*
X115972380Y-94204761D01*
X116020000Y-94109523D01*
X116067619Y-94061904D01*
X116162857Y-94014285D01*
X116258095Y-94014285D01*
X116400952Y-94061904D01*
X116972380Y-94633333D01*
X116972380Y-94014285D01*
X89777142Y-95066666D02*
X89824761Y-95114285D01*
X89872380Y-95257142D01*
X89872380Y-95352380D01*
X89824761Y-95495238D01*
X89729523Y-95590476D01*
X89634285Y-95638095D01*
X89443809Y-95685714D01*
X89300952Y-95685714D01*
X89110476Y-95638095D01*
X89015238Y-95590476D01*
X88920000Y-95495238D01*
X88872380Y-95352380D01*
X88872380Y-95257142D01*
X88920000Y-95114285D01*
X88967619Y-95066666D01*
X89872380Y-94114285D02*
X89872380Y-94685714D01*
X89872380Y-94400000D02*
X88872380Y-94400000D01*
X89015238Y-94495238D01*
X89110476Y-94590476D01*
X89158095Y-94685714D01*
%LPC*%
D14*
X88900000Y-65220000D03*
X88900000Y-62680000D03*
X88900000Y-60140000D03*
D15*
X88900000Y-57600000D03*
D14*
X182900000Y-124380000D03*
X182900000Y-121840000D03*
X182900000Y-119300000D03*
X182900000Y-116760000D03*
X182900000Y-114220000D03*
X182900000Y-111680000D03*
X182900000Y-109140000D03*
D15*
X182900000Y-106600000D03*
D14*
X182900000Y-75380000D03*
X182900000Y-72840000D03*
X182900000Y-70300000D03*
X182900000Y-67760000D03*
X182900000Y-65220000D03*
X182900000Y-62680000D03*
X182900000Y-60140000D03*
D15*
X182900000Y-57600000D03*
G36*
G01*
X174400000Y-117550001D02*
X174400000Y-116649999D01*
G75*
G02*
X174649999Y-116400000I249999J0D01*
G01*
X175350001Y-116400000D01*
G75*
G02*
X175600000Y-116649999I0J-249999D01*
G01*
X175600000Y-117550001D01*
G75*
G02*
X175350001Y-117800000I-249999J0D01*
G01*
X174649999Y-117800000D01*
G75*
G02*
X174400000Y-117550001I0J249999D01*
G01*
G37*
G36*
G01*
X172400000Y-117550001D02*
X172400000Y-116649999D01*
G75*
G02*
X172649999Y-116400000I249999J0D01*
G01*
X173350001Y-116400000D01*
G75*
G02*
X173600000Y-116649999I0J-249999D01*
G01*
X173600000Y-117550001D01*
G75*
G02*
X173350001Y-117800000I-249999J0D01*
G01*
X172649999Y-117800000D01*
G75*
G02*
X172400000Y-117550001I0J249999D01*
G01*
G37*
G36*
G01*
X167900000Y-117550001D02*
X167900000Y-116649999D01*
G75*
G02*
X168149999Y-116400000I249999J0D01*
G01*
X168850001Y-116400000D01*
G75*
G02*
X169100000Y-116649999I0J-249999D01*
G01*
X169100000Y-117550001D01*
G75*
G02*
X168850001Y-117800000I-249999J0D01*
G01*
X168149999Y-117800000D01*
G75*
G02*
X167900000Y-117550001I0J249999D01*
G01*
G37*
G36*
G01*
X165900000Y-117550001D02*
X165900000Y-116649999D01*
G75*
G02*
X166149999Y-116400000I249999J0D01*
G01*
X166850001Y-116400000D01*
G75*
G02*
X167100000Y-116649999I0J-249999D01*
G01*
X167100000Y-117550001D01*
G75*
G02*
X166850001Y-117800000I-249999J0D01*
G01*
X166149999Y-117800000D01*
G75*
G02*
X165900000Y-117550001I0J249999D01*
G01*
G37*
G36*
G01*
X161400000Y-117550001D02*
X161400000Y-116649999D01*
G75*
G02*
X161649999Y-116400000I249999J0D01*
G01*
X162350001Y-116400000D01*
G75*
G02*
X162600000Y-116649999I0J-249999D01*
G01*
X162600000Y-117550001D01*
G75*
G02*
X162350001Y-117800000I-249999J0D01*
G01*
X161649999Y-117800000D01*
G75*
G02*
X161400000Y-117550001I0J249999D01*
G01*
G37*
G36*
G01*
X159400000Y-117550001D02*
X159400000Y-116649999D01*
G75*
G02*
X159649999Y-116400000I249999J0D01*
G01*
X160350001Y-116400000D01*
G75*
G02*
X160600000Y-116649999I0J-249999D01*
G01*
X160600000Y-117550001D01*
G75*
G02*
X160350001Y-117800000I-249999J0D01*
G01*
X159649999Y-117800000D01*
G75*
G02*
X159400000Y-117550001I0J249999D01*
G01*
G37*
G36*
G01*
X154800000Y-117550001D02*
X154800000Y-116649999D01*
G75*
G02*
X155049999Y-116400000I249999J0D01*
G01*
X155750001Y-116400000D01*
G75*
G02*
X156000000Y-116649999I0J-249999D01*
G01*
X156000000Y-117550001D01*
G75*
G02*
X155750001Y-117800000I-249999J0D01*
G01*
X155049999Y-117800000D01*
G75*
G02*
X154800000Y-117550001I0J249999D01*
G01*
G37*
G36*
G01*
X152800000Y-117550001D02*
X152800000Y-116649999D01*
G75*
G02*
X153049999Y-116400000I249999J0D01*
G01*
X153750001Y-116400000D01*
G75*
G02*
X154000000Y-116649999I0J-249999D01*
G01*
X154000000Y-117550001D01*
G75*
G02*
X153750001Y-117800000I-249999J0D01*
G01*
X153049999Y-117800000D01*
G75*
G02*
X152800000Y-117550001I0J249999D01*
G01*
G37*
G36*
G01*
X174400000Y-106050001D02*
X174400000Y-105149999D01*
G75*
G02*
X174649999Y-104900000I249999J0D01*
G01*
X175350001Y-104900000D01*
G75*
G02*
X175600000Y-105149999I0J-249999D01*
G01*
X175600000Y-106050001D01*
G75*
G02*
X175350001Y-106300000I-249999J0D01*
G01*
X174649999Y-106300000D01*
G75*
G02*
X174400000Y-106050001I0J249999D01*
G01*
G37*
G36*
G01*
X172400000Y-106050001D02*
X172400000Y-105149999D01*
G75*
G02*
X172649999Y-104900000I249999J0D01*
G01*
X173350001Y-104900000D01*
G75*
G02*
X173600000Y-105149999I0J-249999D01*
G01*
X173600000Y-106050001D01*
G75*
G02*
X173350001Y-106300000I-249999J0D01*
G01*
X172649999Y-106300000D01*
G75*
G02*
X172400000Y-106050001I0J249999D01*
G01*
G37*
G36*
G01*
X167900000Y-106050001D02*
X167900000Y-105149999D01*
G75*
G02*
X168149999Y-104900000I249999J0D01*
G01*
X168850001Y-104900000D01*
G75*
G02*
X169100000Y-105149999I0J-249999D01*
G01*
X169100000Y-106050001D01*
G75*
G02*
X168850001Y-106300000I-249999J0D01*
G01*
X168149999Y-106300000D01*
G75*
G02*
X167900000Y-106050001I0J249999D01*
G01*
G37*
G36*
G01*
X165900000Y-106050001D02*
X165900000Y-105149999D01*
G75*
G02*
X166149999Y-104900000I249999J0D01*
G01*
X166850001Y-104900000D01*
G75*
G02*
X167100000Y-105149999I0J-249999D01*
G01*
X167100000Y-106050001D01*
G75*
G02*
X166850001Y-106300000I-249999J0D01*
G01*
X166149999Y-106300000D01*
G75*
G02*
X165900000Y-106050001I0J249999D01*
G01*
G37*
G36*
G01*
X161400000Y-106050001D02*
X161400000Y-105149999D01*
G75*
G02*
X161649999Y-104900000I249999J0D01*
G01*
X162350001Y-104900000D01*
G75*
G02*
X162600000Y-105149999I0J-249999D01*
G01*
X162600000Y-106050001D01*
G75*
G02*
X162350001Y-106300000I-249999J0D01*
G01*
X161649999Y-106300000D01*
G75*
G02*
X161400000Y-106050001I0J249999D01*
G01*
G37*
G36*
G01*
X159400000Y-106050001D02*
X159400000Y-105149999D01*
G75*
G02*
X159649999Y-104900000I249999J0D01*
G01*
X160350001Y-104900000D01*
G75*
G02*
X160600000Y-105149999I0J-249999D01*
G01*
X160600000Y-106050001D01*
G75*
G02*
X160350001Y-106300000I-249999J0D01*
G01*
X159649999Y-106300000D01*
G75*
G02*
X159400000Y-106050001I0J249999D01*
G01*
G37*
G36*
G01*
X154900000Y-106050001D02*
X154900000Y-105149999D01*
G75*
G02*
X155149999Y-104900000I249999J0D01*
G01*
X155850001Y-104900000D01*
G75*
G02*
X156100000Y-105149999I0J-249999D01*
G01*
X156100000Y-106050001D01*
G75*
G02*
X155850001Y-106300000I-249999J0D01*
G01*
X155149999Y-106300000D01*
G75*
G02*
X154900000Y-106050001I0J249999D01*
G01*
G37*
G36*
G01*
X152900000Y-106050001D02*
X152900000Y-105149999D01*
G75*
G02*
X153149999Y-104900000I249999J0D01*
G01*
X153850001Y-104900000D01*
G75*
G02*
X154100000Y-105149999I0J-249999D01*
G01*
X154100000Y-106050001D01*
G75*
G02*
X153850001Y-106300000I-249999J0D01*
G01*
X153149999Y-106300000D01*
G75*
G02*
X152900000Y-106050001I0J249999D01*
G01*
G37*
G36*
G01*
X143100000Y-117550001D02*
X143100000Y-116649999D01*
G75*
G02*
X143349999Y-116400000I249999J0D01*
G01*
X144050001Y-116400000D01*
G75*
G02*
X144300000Y-116649999I0J-249999D01*
G01*
X144300000Y-117550001D01*
G75*
G02*
X144050001Y-117800000I-249999J0D01*
G01*
X143349999Y-117800000D01*
G75*
G02*
X143100000Y-117550001I0J249999D01*
G01*
G37*
G36*
G01*
X141100000Y-117550001D02*
X141100000Y-116649999D01*
G75*
G02*
X141349999Y-116400000I249999J0D01*
G01*
X142050001Y-116400000D01*
G75*
G02*
X142300000Y-116649999I0J-249999D01*
G01*
X142300000Y-117550001D01*
G75*
G02*
X142050001Y-117800000I-249999J0D01*
G01*
X141349999Y-117800000D01*
G75*
G02*
X141100000Y-117550001I0J249999D01*
G01*
G37*
G36*
G01*
X136600000Y-117550001D02*
X136600000Y-116649999D01*
G75*
G02*
X136849999Y-116400000I249999J0D01*
G01*
X137550001Y-116400000D01*
G75*
G02*
X137800000Y-116649999I0J-249999D01*
G01*
X137800000Y-117550001D01*
G75*
G02*
X137550001Y-117800000I-249999J0D01*
G01*
X136849999Y-117800000D01*
G75*
G02*
X136600000Y-117550001I0J249999D01*
G01*
G37*
G36*
G01*
X134600000Y-117550001D02*
X134600000Y-116649999D01*
G75*
G02*
X134849999Y-116400000I249999J0D01*
G01*
X135550001Y-116400000D01*
G75*
G02*
X135800000Y-116649999I0J-249999D01*
G01*
X135800000Y-117550001D01*
G75*
G02*
X135550001Y-117800000I-249999J0D01*
G01*
X134849999Y-117800000D01*
G75*
G02*
X134600000Y-117550001I0J249999D01*
G01*
G37*
G36*
G01*
X130100000Y-117550001D02*
X130100000Y-116649999D01*
G75*
G02*
X130349999Y-116400000I249999J0D01*
G01*
X131050001Y-116400000D01*
G75*
G02*
X131300000Y-116649999I0J-249999D01*
G01*
X131300000Y-117550001D01*
G75*
G02*
X131050001Y-117800000I-249999J0D01*
G01*
X130349999Y-117800000D01*
G75*
G02*
X130100000Y-117550001I0J249999D01*
G01*
G37*
G36*
G01*
X128100000Y-117550001D02*
X128100000Y-116649999D01*
G75*
G02*
X128349999Y-116400000I249999J0D01*
G01*
X129050001Y-116400000D01*
G75*
G02*
X129300000Y-116649999I0J-249999D01*
G01*
X129300000Y-117550001D01*
G75*
G02*
X129050001Y-117800000I-249999J0D01*
G01*
X128349999Y-117800000D01*
G75*
G02*
X128100000Y-117550001I0J249999D01*
G01*
G37*
G36*
G01*
X123600000Y-117550001D02*
X123600000Y-116649999D01*
G75*
G02*
X123849999Y-116400000I249999J0D01*
G01*
X124550001Y-116400000D01*
G75*
G02*
X124800000Y-116649999I0J-249999D01*
G01*
X124800000Y-117550001D01*
G75*
G02*
X124550001Y-117800000I-249999J0D01*
G01*
X123849999Y-117800000D01*
G75*
G02*
X123600000Y-117550001I0J249999D01*
G01*
G37*
G36*
G01*
X121600000Y-117550001D02*
X121600000Y-116649999D01*
G75*
G02*
X121849999Y-116400000I249999J0D01*
G01*
X122550001Y-116400000D01*
G75*
G02*
X122800000Y-116649999I0J-249999D01*
G01*
X122800000Y-117550001D01*
G75*
G02*
X122550001Y-117800000I-249999J0D01*
G01*
X121849999Y-117800000D01*
G75*
G02*
X121600000Y-117550001I0J249999D01*
G01*
G37*
G36*
G01*
X143100000Y-106050001D02*
X143100000Y-105149999D01*
G75*
G02*
X143349999Y-104900000I249999J0D01*
G01*
X144050001Y-104900000D01*
G75*
G02*
X144300000Y-105149999I0J-249999D01*
G01*
X144300000Y-106050001D01*
G75*
G02*
X144050001Y-106300000I-249999J0D01*
G01*
X143349999Y-106300000D01*
G75*
G02*
X143100000Y-106050001I0J249999D01*
G01*
G37*
G36*
G01*
X141100000Y-106050001D02*
X141100000Y-105149999D01*
G75*
G02*
X141349999Y-104900000I249999J0D01*
G01*
X142050001Y-104900000D01*
G75*
G02*
X142300000Y-105149999I0J-249999D01*
G01*
X142300000Y-106050001D01*
G75*
G02*
X142050001Y-106300000I-249999J0D01*
G01*
X141349999Y-106300000D01*
G75*
G02*
X141100000Y-106050001I0J249999D01*
G01*
G37*
G36*
G01*
X136600000Y-106050001D02*
X136600000Y-105149999D01*
G75*
G02*
X136849999Y-104900000I249999J0D01*
G01*
X137550001Y-104900000D01*
G75*
G02*
X137800000Y-105149999I0J-249999D01*
G01*
X137800000Y-106050001D01*
G75*
G02*
X137550001Y-106300000I-249999J0D01*
G01*
X136849999Y-106300000D01*
G75*
G02*
X136600000Y-106050001I0J249999D01*
G01*
G37*
G36*
G01*
X134600000Y-106050001D02*
X134600000Y-105149999D01*
G75*
G02*
X134849999Y-104900000I249999J0D01*
G01*
X135550001Y-104900000D01*
G75*
G02*
X135800000Y-105149999I0J-249999D01*
G01*
X135800000Y-106050001D01*
G75*
G02*
X135550001Y-106300000I-249999J0D01*
G01*
X134849999Y-106300000D01*
G75*
G02*
X134600000Y-106050001I0J249999D01*
G01*
G37*
G36*
G01*
X130100000Y-106050001D02*
X130100000Y-105149999D01*
G75*
G02*
X130349999Y-104900000I249999J0D01*
G01*
X131050001Y-104900000D01*
G75*
G02*
X131300000Y-105149999I0J-249999D01*
G01*
X131300000Y-106050001D01*
G75*
G02*
X131050001Y-106300000I-249999J0D01*
G01*
X130349999Y-106300000D01*
G75*
G02*
X130100000Y-106050001I0J249999D01*
G01*
G37*
G36*
G01*
X128100000Y-106050001D02*
X128100000Y-105149999D01*
G75*
G02*
X128349999Y-104900000I249999J0D01*
G01*
X129050001Y-104900000D01*
G75*
G02*
X129300000Y-105149999I0J-249999D01*
G01*
X129300000Y-106050001D01*
G75*
G02*
X129050001Y-106300000I-249999J0D01*
G01*
X128349999Y-106300000D01*
G75*
G02*
X128100000Y-106050001I0J249999D01*
G01*
G37*
G36*
G01*
X123600000Y-106050001D02*
X123600000Y-105149999D01*
G75*
G02*
X123849999Y-104900000I249999J0D01*
G01*
X124550001Y-104900000D01*
G75*
G02*
X124800000Y-105149999I0J-249999D01*
G01*
X124800000Y-106050001D01*
G75*
G02*
X124550001Y-106300000I-249999J0D01*
G01*
X123849999Y-106300000D01*
G75*
G02*
X123600000Y-106050001I0J249999D01*
G01*
G37*
G36*
G01*
X121600000Y-106050001D02*
X121600000Y-105149999D01*
G75*
G02*
X121849999Y-104900000I249999J0D01*
G01*
X122550001Y-104900000D01*
G75*
G02*
X122800000Y-105149999I0J-249999D01*
G01*
X122800000Y-106050001D01*
G75*
G02*
X122550001Y-106300000I-249999J0D01*
G01*
X121849999Y-106300000D01*
G75*
G02*
X121600000Y-106050001I0J249999D01*
G01*
G37*
G36*
G01*
X111800000Y-117550001D02*
X111800000Y-116649999D01*
G75*
G02*
X112049999Y-116400000I249999J0D01*
G01*
X112750001Y-116400000D01*
G75*
G02*
X113000000Y-116649999I0J-249999D01*
G01*
X113000000Y-117550001D01*
G75*
G02*
X112750001Y-117800000I-249999J0D01*
G01*
X112049999Y-117800000D01*
G75*
G02*
X111800000Y-117550001I0J249999D01*
G01*
G37*
G36*
G01*
X109800000Y-117550001D02*
X109800000Y-116649999D01*
G75*
G02*
X110049999Y-116400000I249999J0D01*
G01*
X110750001Y-116400000D01*
G75*
G02*
X111000000Y-116649999I0J-249999D01*
G01*
X111000000Y-117550001D01*
G75*
G02*
X110750001Y-117800000I-249999J0D01*
G01*
X110049999Y-117800000D01*
G75*
G02*
X109800000Y-117550001I0J249999D01*
G01*
G37*
G36*
G01*
X105300000Y-117550001D02*
X105300000Y-116649999D01*
G75*
G02*
X105549999Y-116400000I249999J0D01*
G01*
X106250001Y-116400000D01*
G75*
G02*
X106500000Y-116649999I0J-249999D01*
G01*
X106500000Y-117550001D01*
G75*
G02*
X106250001Y-117800000I-249999J0D01*
G01*
X105549999Y-117800000D01*
G75*
G02*
X105300000Y-117550001I0J249999D01*
G01*
G37*
G36*
G01*
X103300000Y-117550001D02*
X103300000Y-116649999D01*
G75*
G02*
X103549999Y-116400000I249999J0D01*
G01*
X104250001Y-116400000D01*
G75*
G02*
X104500000Y-116649999I0J-249999D01*
G01*
X104500000Y-117550001D01*
G75*
G02*
X104250001Y-117800000I-249999J0D01*
G01*
X103549999Y-117800000D01*
G75*
G02*
X103300000Y-117550001I0J249999D01*
G01*
G37*
G36*
G01*
X98800000Y-117550001D02*
X98800000Y-116649999D01*
G75*
G02*
X99049999Y-116400000I249999J0D01*
G01*
X99750001Y-116400000D01*
G75*
G02*
X100000000Y-116649999I0J-249999D01*
G01*
X100000000Y-117550001D01*
G75*
G02*
X99750001Y-117800000I-249999J0D01*
G01*
X99049999Y-117800000D01*
G75*
G02*
X98800000Y-117550001I0J249999D01*
G01*
G37*
G36*
G01*
X96800000Y-117550001D02*
X96800000Y-116649999D01*
G75*
G02*
X97049999Y-116400000I249999J0D01*
G01*
X97750001Y-116400000D01*
G75*
G02*
X98000000Y-116649999I0J-249999D01*
G01*
X98000000Y-117550001D01*
G75*
G02*
X97750001Y-117800000I-249999J0D01*
G01*
X97049999Y-117800000D01*
G75*
G02*
X96800000Y-117550001I0J249999D01*
G01*
G37*
G36*
G01*
X92300000Y-117550001D02*
X92300000Y-116649999D01*
G75*
G02*
X92549999Y-116400000I249999J0D01*
G01*
X93250001Y-116400000D01*
G75*
G02*
X93500000Y-116649999I0J-249999D01*
G01*
X93500000Y-117550001D01*
G75*
G02*
X93250001Y-117800000I-249999J0D01*
G01*
X92549999Y-117800000D01*
G75*
G02*
X92300000Y-117550001I0J249999D01*
G01*
G37*
G36*
G01*
X90300000Y-117550001D02*
X90300000Y-116649999D01*
G75*
G02*
X90549999Y-116400000I249999J0D01*
G01*
X91250001Y-116400000D01*
G75*
G02*
X91500000Y-116649999I0J-249999D01*
G01*
X91500000Y-117550001D01*
G75*
G02*
X91250001Y-117800000I-249999J0D01*
G01*
X90549999Y-117800000D01*
G75*
G02*
X90300000Y-117550001I0J249999D01*
G01*
G37*
G36*
G01*
X111800000Y-106050001D02*
X111800000Y-105149999D01*
G75*
G02*
X112049999Y-104900000I249999J0D01*
G01*
X112750001Y-104900000D01*
G75*
G02*
X113000000Y-105149999I0J-249999D01*
G01*
X113000000Y-106050001D01*
G75*
G02*
X112750001Y-106300000I-249999J0D01*
G01*
X112049999Y-106300000D01*
G75*
G02*
X111800000Y-106050001I0J249999D01*
G01*
G37*
G36*
G01*
X109800000Y-106050001D02*
X109800000Y-105149999D01*
G75*
G02*
X110049999Y-104900000I249999J0D01*
G01*
X110750001Y-104900000D01*
G75*
G02*
X111000000Y-105149999I0J-249999D01*
G01*
X111000000Y-106050001D01*
G75*
G02*
X110750001Y-106300000I-249999J0D01*
G01*
X110049999Y-106300000D01*
G75*
G02*
X109800000Y-106050001I0J249999D01*
G01*
G37*
G36*
G01*
X105300000Y-106050001D02*
X105300000Y-105149999D01*
G75*
G02*
X105549999Y-104900000I249999J0D01*
G01*
X106250001Y-104900000D01*
G75*
G02*
X106500000Y-105149999I0J-249999D01*
G01*
X106500000Y-106050001D01*
G75*
G02*
X106250001Y-106300000I-249999J0D01*
G01*
X105549999Y-106300000D01*
G75*
G02*
X105300000Y-106050001I0J249999D01*
G01*
G37*
G36*
G01*
X103300000Y-106050001D02*
X103300000Y-105149999D01*
G75*
G02*
X103549999Y-104900000I249999J0D01*
G01*
X104250001Y-104900000D01*
G75*
G02*
X104500000Y-105149999I0J-249999D01*
G01*
X104500000Y-106050001D01*
G75*
G02*
X104250001Y-106300000I-249999J0D01*
G01*
X103549999Y-106300000D01*
G75*
G02*
X103300000Y-106050001I0J249999D01*
G01*
G37*
G36*
G01*
X98800000Y-106050001D02*
X98800000Y-105149999D01*
G75*
G02*
X99049999Y-104900000I249999J0D01*
G01*
X99750001Y-104900000D01*
G75*
G02*
X100000000Y-105149999I0J-249999D01*
G01*
X100000000Y-106050001D01*
G75*
G02*
X99750001Y-106300000I-249999J0D01*
G01*
X99049999Y-106300000D01*
G75*
G02*
X98800000Y-106050001I0J249999D01*
G01*
G37*
G36*
G01*
X96800000Y-106050001D02*
X96800000Y-105149999D01*
G75*
G02*
X97049999Y-104900000I249999J0D01*
G01*
X97750001Y-104900000D01*
G75*
G02*
X98000000Y-105149999I0J-249999D01*
G01*
X98000000Y-106050001D01*
G75*
G02*
X97750001Y-106300000I-249999J0D01*
G01*
X97049999Y-106300000D01*
G75*
G02*
X96800000Y-106050001I0J249999D01*
G01*
G37*
G36*
G01*
X92300000Y-106050001D02*
X92300000Y-105149999D01*
G75*
G02*
X92549999Y-104900000I249999J0D01*
G01*
X93250001Y-104900000D01*
G75*
G02*
X93500000Y-105149999I0J-249999D01*
G01*
X93500000Y-106050001D01*
G75*
G02*
X93250001Y-106300000I-249999J0D01*
G01*
X92549999Y-106300000D01*
G75*
G02*
X92300000Y-106050001I0J249999D01*
G01*
G37*
G36*
G01*
X90300000Y-106050001D02*
X90300000Y-105149999D01*
G75*
G02*
X90549999Y-104900000I249999J0D01*
G01*
X91250001Y-104900000D01*
G75*
G02*
X91500000Y-105149999I0J-249999D01*
G01*
X91500000Y-106050001D01*
G75*
G02*
X91250001Y-106300000I-249999J0D01*
G01*
X90549999Y-106300000D01*
G75*
G02*
X90300000Y-106050001I0J249999D01*
G01*
G37*
G36*
G01*
X174450000Y-121050001D02*
X174450000Y-120149999D01*
G75*
G02*
X174699999Y-119900000I249999J0D01*
G01*
X175350001Y-119900000D01*
G75*
G02*
X175600000Y-120149999I0J-249999D01*
G01*
X175600000Y-121050001D01*
G75*
G02*
X175350001Y-121300000I-249999J0D01*
G01*
X174699999Y-121300000D01*
G75*
G02*
X174450000Y-121050001I0J249999D01*
G01*
G37*
G36*
G01*
X172400000Y-121050001D02*
X172400000Y-120149999D01*
G75*
G02*
X172649999Y-119900000I249999J0D01*
G01*
X173300001Y-119900000D01*
G75*
G02*
X173550000Y-120149999I0J-249999D01*
G01*
X173550000Y-121050001D01*
G75*
G02*
X173300001Y-121300000I-249999J0D01*
G01*
X172649999Y-121300000D01*
G75*
G02*
X172400000Y-121050001I0J249999D01*
G01*
G37*
G36*
G01*
X167950000Y-121050001D02*
X167950000Y-120149999D01*
G75*
G02*
X168199999Y-119900000I249999J0D01*
G01*
X168850001Y-119900000D01*
G75*
G02*
X169100000Y-120149999I0J-249999D01*
G01*
X169100000Y-121050001D01*
G75*
G02*
X168850001Y-121300000I-249999J0D01*
G01*
X168199999Y-121300000D01*
G75*
G02*
X167950000Y-121050001I0J249999D01*
G01*
G37*
G36*
G01*
X165900000Y-121050001D02*
X165900000Y-120149999D01*
G75*
G02*
X166149999Y-119900000I249999J0D01*
G01*
X166800001Y-119900000D01*
G75*
G02*
X167050000Y-120149999I0J-249999D01*
G01*
X167050000Y-121050001D01*
G75*
G02*
X166800001Y-121300000I-249999J0D01*
G01*
X166149999Y-121300000D01*
G75*
G02*
X165900000Y-121050001I0J249999D01*
G01*
G37*
G36*
G01*
X161450000Y-121050001D02*
X161450000Y-120149999D01*
G75*
G02*
X161699999Y-119900000I249999J0D01*
G01*
X162350001Y-119900000D01*
G75*
G02*
X162600000Y-120149999I0J-249999D01*
G01*
X162600000Y-121050001D01*
G75*
G02*
X162350001Y-121300000I-249999J0D01*
G01*
X161699999Y-121300000D01*
G75*
G02*
X161450000Y-121050001I0J249999D01*
G01*
G37*
G36*
G01*
X159400000Y-121050001D02*
X159400000Y-120149999D01*
G75*
G02*
X159649999Y-119900000I249999J0D01*
G01*
X160300001Y-119900000D01*
G75*
G02*
X160550000Y-120149999I0J-249999D01*
G01*
X160550000Y-121050001D01*
G75*
G02*
X160300001Y-121300000I-249999J0D01*
G01*
X159649999Y-121300000D01*
G75*
G02*
X159400000Y-121050001I0J249999D01*
G01*
G37*
G36*
G01*
X154950000Y-121050001D02*
X154950000Y-120149999D01*
G75*
G02*
X155199999Y-119900000I249999J0D01*
G01*
X155850001Y-119900000D01*
G75*
G02*
X156100000Y-120149999I0J-249999D01*
G01*
X156100000Y-121050001D01*
G75*
G02*
X155850001Y-121300000I-249999J0D01*
G01*
X155199999Y-121300000D01*
G75*
G02*
X154950000Y-121050001I0J249999D01*
G01*
G37*
G36*
G01*
X152900000Y-121050001D02*
X152900000Y-120149999D01*
G75*
G02*
X153149999Y-119900000I249999J0D01*
G01*
X153800001Y-119900000D01*
G75*
G02*
X154050000Y-120149999I0J-249999D01*
G01*
X154050000Y-121050001D01*
G75*
G02*
X153800001Y-121300000I-249999J0D01*
G01*
X153149999Y-121300000D01*
G75*
G02*
X152900000Y-121050001I0J249999D01*
G01*
G37*
G36*
G01*
X174450000Y-109450001D02*
X174450000Y-108549999D01*
G75*
G02*
X174699999Y-108300000I249999J0D01*
G01*
X175350001Y-108300000D01*
G75*
G02*
X175600000Y-108549999I0J-249999D01*
G01*
X175600000Y-109450001D01*
G75*
G02*
X175350001Y-109700000I-249999J0D01*
G01*
X174699999Y-109700000D01*
G75*
G02*
X174450000Y-109450001I0J249999D01*
G01*
G37*
G36*
G01*
X172400000Y-109450001D02*
X172400000Y-108549999D01*
G75*
G02*
X172649999Y-108300000I249999J0D01*
G01*
X173300001Y-108300000D01*
G75*
G02*
X173550000Y-108549999I0J-249999D01*
G01*
X173550000Y-109450001D01*
G75*
G02*
X173300001Y-109700000I-249999J0D01*
G01*
X172649999Y-109700000D01*
G75*
G02*
X172400000Y-109450001I0J249999D01*
G01*
G37*
G36*
G01*
X167950000Y-109450001D02*
X167950000Y-108549999D01*
G75*
G02*
X168199999Y-108300000I249999J0D01*
G01*
X168850001Y-108300000D01*
G75*
G02*
X169100000Y-108549999I0J-249999D01*
G01*
X169100000Y-109450001D01*
G75*
G02*
X168850001Y-109700000I-249999J0D01*
G01*
X168199999Y-109700000D01*
G75*
G02*
X167950000Y-109450001I0J249999D01*
G01*
G37*
G36*
G01*
X165900000Y-109450001D02*
X165900000Y-108549999D01*
G75*
G02*
X166149999Y-108300000I249999J0D01*
G01*
X166800001Y-108300000D01*
G75*
G02*
X167050000Y-108549999I0J-249999D01*
G01*
X167050000Y-109450001D01*
G75*
G02*
X166800001Y-109700000I-249999J0D01*
G01*
X166149999Y-109700000D01*
G75*
G02*
X165900000Y-109450001I0J249999D01*
G01*
G37*
G36*
G01*
X161450000Y-109450001D02*
X161450000Y-108549999D01*
G75*
G02*
X161699999Y-108300000I249999J0D01*
G01*
X162350001Y-108300000D01*
G75*
G02*
X162600000Y-108549999I0J-249999D01*
G01*
X162600000Y-109450001D01*
G75*
G02*
X162350001Y-109700000I-249999J0D01*
G01*
X161699999Y-109700000D01*
G75*
G02*
X161450000Y-109450001I0J249999D01*
G01*
G37*
G36*
G01*
X159400000Y-109450001D02*
X159400000Y-108549999D01*
G75*
G02*
X159649999Y-108300000I249999J0D01*
G01*
X160300001Y-108300000D01*
G75*
G02*
X160550000Y-108549999I0J-249999D01*
G01*
X160550000Y-109450001D01*
G75*
G02*
X160300001Y-109700000I-249999J0D01*
G01*
X159649999Y-109700000D01*
G75*
G02*
X159400000Y-109450001I0J249999D01*
G01*
G37*
G36*
G01*
X154950000Y-109450001D02*
X154950000Y-108549999D01*
G75*
G02*
X155199999Y-108300000I249999J0D01*
G01*
X155850001Y-108300000D01*
G75*
G02*
X156100000Y-108549999I0J-249999D01*
G01*
X156100000Y-109450001D01*
G75*
G02*
X155850001Y-109700000I-249999J0D01*
G01*
X155199999Y-109700000D01*
G75*
G02*
X154950000Y-109450001I0J249999D01*
G01*
G37*
G36*
G01*
X152900000Y-109450001D02*
X152900000Y-108549999D01*
G75*
G02*
X153149999Y-108300000I249999J0D01*
G01*
X153800001Y-108300000D01*
G75*
G02*
X154050000Y-108549999I0J-249999D01*
G01*
X154050000Y-109450001D01*
G75*
G02*
X153800001Y-109700000I-249999J0D01*
G01*
X153149999Y-109700000D01*
G75*
G02*
X152900000Y-109450001I0J249999D01*
G01*
G37*
G36*
G01*
X143150000Y-121050001D02*
X143150000Y-120149999D01*
G75*
G02*
X143399999Y-119900000I249999J0D01*
G01*
X144050001Y-119900000D01*
G75*
G02*
X144300000Y-120149999I0J-249999D01*
G01*
X144300000Y-121050001D01*
G75*
G02*
X144050001Y-121300000I-249999J0D01*
G01*
X143399999Y-121300000D01*
G75*
G02*
X143150000Y-121050001I0J249999D01*
G01*
G37*
G36*
G01*
X141100000Y-121050001D02*
X141100000Y-120149999D01*
G75*
G02*
X141349999Y-119900000I249999J0D01*
G01*
X142000001Y-119900000D01*
G75*
G02*
X142250000Y-120149999I0J-249999D01*
G01*
X142250000Y-121050001D01*
G75*
G02*
X142000001Y-121300000I-249999J0D01*
G01*
X141349999Y-121300000D01*
G75*
G02*
X141100000Y-121050001I0J249999D01*
G01*
G37*
G36*
G01*
X136650000Y-121050001D02*
X136650000Y-120149999D01*
G75*
G02*
X136899999Y-119900000I249999J0D01*
G01*
X137550001Y-119900000D01*
G75*
G02*
X137800000Y-120149999I0J-249999D01*
G01*
X137800000Y-121050001D01*
G75*
G02*
X137550001Y-121300000I-249999J0D01*
G01*
X136899999Y-121300000D01*
G75*
G02*
X136650000Y-121050001I0J249999D01*
G01*
G37*
G36*
G01*
X134600000Y-121050001D02*
X134600000Y-120149999D01*
G75*
G02*
X134849999Y-119900000I249999J0D01*
G01*
X135500001Y-119900000D01*
G75*
G02*
X135750000Y-120149999I0J-249999D01*
G01*
X135750000Y-121050001D01*
G75*
G02*
X135500001Y-121300000I-249999J0D01*
G01*
X134849999Y-121300000D01*
G75*
G02*
X134600000Y-121050001I0J249999D01*
G01*
G37*
G36*
G01*
X130150000Y-121050001D02*
X130150000Y-120149999D01*
G75*
G02*
X130399999Y-119900000I249999J0D01*
G01*
X131050001Y-119900000D01*
G75*
G02*
X131300000Y-120149999I0J-249999D01*
G01*
X131300000Y-121050001D01*
G75*
G02*
X131050001Y-121300000I-249999J0D01*
G01*
X130399999Y-121300000D01*
G75*
G02*
X130150000Y-121050001I0J249999D01*
G01*
G37*
G36*
G01*
X128100000Y-121050001D02*
X128100000Y-120149999D01*
G75*
G02*
X128349999Y-119900000I249999J0D01*
G01*
X129000001Y-119900000D01*
G75*
G02*
X129250000Y-120149999I0J-249999D01*
G01*
X129250000Y-121050001D01*
G75*
G02*
X129000001Y-121300000I-249999J0D01*
G01*
X128349999Y-121300000D01*
G75*
G02*
X128100000Y-121050001I0J249999D01*
G01*
G37*
G36*
G01*
X123650000Y-121050001D02*
X123650000Y-120149999D01*
G75*
G02*
X123899999Y-119900000I249999J0D01*
G01*
X124550001Y-119900000D01*
G75*
G02*
X124800000Y-120149999I0J-249999D01*
G01*
X124800000Y-121050001D01*
G75*
G02*
X124550001Y-121300000I-249999J0D01*
G01*
X123899999Y-121300000D01*
G75*
G02*
X123650000Y-121050001I0J249999D01*
G01*
G37*
G36*
G01*
X121600000Y-121050001D02*
X121600000Y-120149999D01*
G75*
G02*
X121849999Y-119900000I249999J0D01*
G01*
X122500001Y-119900000D01*
G75*
G02*
X122750000Y-120149999I0J-249999D01*
G01*
X122750000Y-121050001D01*
G75*
G02*
X122500001Y-121300000I-249999J0D01*
G01*
X121849999Y-121300000D01*
G75*
G02*
X121600000Y-121050001I0J249999D01*
G01*
G37*
G36*
G01*
X143150000Y-109450001D02*
X143150000Y-108549999D01*
G75*
G02*
X143399999Y-108300000I249999J0D01*
G01*
X144050001Y-108300000D01*
G75*
G02*
X144300000Y-108549999I0J-249999D01*
G01*
X144300000Y-109450001D01*
G75*
G02*
X144050001Y-109700000I-249999J0D01*
G01*
X143399999Y-109700000D01*
G75*
G02*
X143150000Y-109450001I0J249999D01*
G01*
G37*
G36*
G01*
X141100000Y-109450001D02*
X141100000Y-108549999D01*
G75*
G02*
X141349999Y-108300000I249999J0D01*
G01*
X142000001Y-108300000D01*
G75*
G02*
X142250000Y-108549999I0J-249999D01*
G01*
X142250000Y-109450001D01*
G75*
G02*
X142000001Y-109700000I-249999J0D01*
G01*
X141349999Y-109700000D01*
G75*
G02*
X141100000Y-109450001I0J249999D01*
G01*
G37*
G36*
G01*
X136650000Y-109450001D02*
X136650000Y-108549999D01*
G75*
G02*
X136899999Y-108300000I249999J0D01*
G01*
X137550001Y-108300000D01*
G75*
G02*
X137800000Y-108549999I0J-249999D01*
G01*
X137800000Y-109450001D01*
G75*
G02*
X137550001Y-109700000I-249999J0D01*
G01*
X136899999Y-109700000D01*
G75*
G02*
X136650000Y-109450001I0J249999D01*
G01*
G37*
G36*
G01*
X134600000Y-109450001D02*
X134600000Y-108549999D01*
G75*
G02*
X134849999Y-108300000I249999J0D01*
G01*
X135500001Y-108300000D01*
G75*
G02*
X135750000Y-108549999I0J-249999D01*
G01*
X135750000Y-109450001D01*
G75*
G02*
X135500001Y-109700000I-249999J0D01*
G01*
X134849999Y-109700000D01*
G75*
G02*
X134600000Y-109450001I0J249999D01*
G01*
G37*
G36*
G01*
X130150000Y-109450001D02*
X130150000Y-108549999D01*
G75*
G02*
X130399999Y-108300000I249999J0D01*
G01*
X131050001Y-108300000D01*
G75*
G02*
X131300000Y-108549999I0J-249999D01*
G01*
X131300000Y-109450001D01*
G75*
G02*
X131050001Y-109700000I-249999J0D01*
G01*
X130399999Y-109700000D01*
G75*
G02*
X130150000Y-109450001I0J249999D01*
G01*
G37*
G36*
G01*
X128100000Y-109450001D02*
X128100000Y-108549999D01*
G75*
G02*
X128349999Y-108300000I249999J0D01*
G01*
X129000001Y-108300000D01*
G75*
G02*
X129250000Y-108549999I0J-249999D01*
G01*
X129250000Y-109450001D01*
G75*
G02*
X129000001Y-109700000I-249999J0D01*
G01*
X128349999Y-109700000D01*
G75*
G02*
X128100000Y-109450001I0J249999D01*
G01*
G37*
G36*
G01*
X123650000Y-109450001D02*
X123650000Y-108549999D01*
G75*
G02*
X123899999Y-108300000I249999J0D01*
G01*
X124550001Y-108300000D01*
G75*
G02*
X124800000Y-108549999I0J-249999D01*
G01*
X124800000Y-109450001D01*
G75*
G02*
X124550001Y-109700000I-249999J0D01*
G01*
X123899999Y-109700000D01*
G75*
G02*
X123650000Y-109450001I0J249999D01*
G01*
G37*
G36*
G01*
X121600000Y-109450001D02*
X121600000Y-108549999D01*
G75*
G02*
X121849999Y-108300000I249999J0D01*
G01*
X122500001Y-108300000D01*
G75*
G02*
X122750000Y-108549999I0J-249999D01*
G01*
X122750000Y-109450001D01*
G75*
G02*
X122500001Y-109700000I-249999J0D01*
G01*
X121849999Y-109700000D01*
G75*
G02*
X121600000Y-109450001I0J249999D01*
G01*
G37*
G36*
G01*
X111850000Y-121050001D02*
X111850000Y-120149999D01*
G75*
G02*
X112099999Y-119900000I249999J0D01*
G01*
X112750001Y-119900000D01*
G75*
G02*
X113000000Y-120149999I0J-249999D01*
G01*
X113000000Y-121050001D01*
G75*
G02*
X112750001Y-121300000I-249999J0D01*
G01*
X112099999Y-121300000D01*
G75*
G02*
X111850000Y-121050001I0J249999D01*
G01*
G37*
G36*
G01*
X109800000Y-121050001D02*
X109800000Y-120149999D01*
G75*
G02*
X110049999Y-119900000I249999J0D01*
G01*
X110700001Y-119900000D01*
G75*
G02*
X110950000Y-120149999I0J-249999D01*
G01*
X110950000Y-121050001D01*
G75*
G02*
X110700001Y-121300000I-249999J0D01*
G01*
X110049999Y-121300000D01*
G75*
G02*
X109800000Y-121050001I0J249999D01*
G01*
G37*
G36*
G01*
X105350000Y-121050001D02*
X105350000Y-120149999D01*
G75*
G02*
X105599999Y-119900000I249999J0D01*
G01*
X106250001Y-119900000D01*
G75*
G02*
X106500000Y-120149999I0J-249999D01*
G01*
X106500000Y-121050001D01*
G75*
G02*
X106250001Y-121300000I-249999J0D01*
G01*
X105599999Y-121300000D01*
G75*
G02*
X105350000Y-121050001I0J249999D01*
G01*
G37*
G36*
G01*
X103300000Y-121050001D02*
X103300000Y-120149999D01*
G75*
G02*
X103549999Y-119900000I249999J0D01*
G01*
X104200001Y-119900000D01*
G75*
G02*
X104450000Y-120149999I0J-249999D01*
G01*
X104450000Y-121050001D01*
G75*
G02*
X104200001Y-121300000I-249999J0D01*
G01*
X103549999Y-121300000D01*
G75*
G02*
X103300000Y-121050001I0J249999D01*
G01*
G37*
G36*
G01*
X98850000Y-121050001D02*
X98850000Y-120149999D01*
G75*
G02*
X99099999Y-119900000I249999J0D01*
G01*
X99750001Y-119900000D01*
G75*
G02*
X100000000Y-120149999I0J-249999D01*
G01*
X100000000Y-121050001D01*
G75*
G02*
X99750001Y-121300000I-249999J0D01*
G01*
X99099999Y-121300000D01*
G75*
G02*
X98850000Y-121050001I0J249999D01*
G01*
G37*
G36*
G01*
X96800000Y-121050001D02*
X96800000Y-120149999D01*
G75*
G02*
X97049999Y-119900000I249999J0D01*
G01*
X97700001Y-119900000D01*
G75*
G02*
X97950000Y-120149999I0J-249999D01*
G01*
X97950000Y-121050001D01*
G75*
G02*
X97700001Y-121300000I-249999J0D01*
G01*
X97049999Y-121300000D01*
G75*
G02*
X96800000Y-121050001I0J249999D01*
G01*
G37*
G36*
G01*
X92350000Y-121050001D02*
X92350000Y-120149999D01*
G75*
G02*
X92599999Y-119900000I249999J0D01*
G01*
X93250001Y-119900000D01*
G75*
G02*
X93500000Y-120149999I0J-249999D01*
G01*
X93500000Y-121050001D01*
G75*
G02*
X93250001Y-121300000I-249999J0D01*
G01*
X92599999Y-121300000D01*
G75*
G02*
X92350000Y-121050001I0J249999D01*
G01*
G37*
G36*
G01*
X90300000Y-121050001D02*
X90300000Y-120149999D01*
G75*
G02*
X90549999Y-119900000I249999J0D01*
G01*
X91200001Y-119900000D01*
G75*
G02*
X91450000Y-120149999I0J-249999D01*
G01*
X91450000Y-121050001D01*
G75*
G02*
X91200001Y-121300000I-249999J0D01*
G01*
X90549999Y-121300000D01*
G75*
G02*
X90300000Y-121050001I0J249999D01*
G01*
G37*
G36*
G01*
X111825000Y-109450001D02*
X111825000Y-108549999D01*
G75*
G02*
X112074999Y-108300000I249999J0D01*
G01*
X112725001Y-108300000D01*
G75*
G02*
X112975000Y-108549999I0J-249999D01*
G01*
X112975000Y-109450001D01*
G75*
G02*
X112725001Y-109700000I-249999J0D01*
G01*
X112074999Y-109700000D01*
G75*
G02*
X111825000Y-109450001I0J249999D01*
G01*
G37*
G36*
G01*
X109775000Y-109450001D02*
X109775000Y-108549999D01*
G75*
G02*
X110024999Y-108300000I249999J0D01*
G01*
X110675001Y-108300000D01*
G75*
G02*
X110925000Y-108549999I0J-249999D01*
G01*
X110925000Y-109450001D01*
G75*
G02*
X110675001Y-109700000I-249999J0D01*
G01*
X110024999Y-109700000D01*
G75*
G02*
X109775000Y-109450001I0J249999D01*
G01*
G37*
G36*
G01*
X105350000Y-109450001D02*
X105350000Y-108549999D01*
G75*
G02*
X105599999Y-108300000I249999J0D01*
G01*
X106250001Y-108300000D01*
G75*
G02*
X106500000Y-108549999I0J-249999D01*
G01*
X106500000Y-109450001D01*
G75*
G02*
X106250001Y-109700000I-249999J0D01*
G01*
X105599999Y-109700000D01*
G75*
G02*
X105350000Y-109450001I0J249999D01*
G01*
G37*
G36*
G01*
X103300000Y-109450001D02*
X103300000Y-108549999D01*
G75*
G02*
X103549999Y-108300000I249999J0D01*
G01*
X104200001Y-108300000D01*
G75*
G02*
X104450000Y-108549999I0J-249999D01*
G01*
X104450000Y-109450001D01*
G75*
G02*
X104200001Y-109700000I-249999J0D01*
G01*
X103549999Y-109700000D01*
G75*
G02*
X103300000Y-109450001I0J249999D01*
G01*
G37*
G36*
G01*
X98850000Y-109450001D02*
X98850000Y-108549999D01*
G75*
G02*
X99099999Y-108300000I249999J0D01*
G01*
X99750001Y-108300000D01*
G75*
G02*
X100000000Y-108549999I0J-249999D01*
G01*
X100000000Y-109450001D01*
G75*
G02*
X99750001Y-109700000I-249999J0D01*
G01*
X99099999Y-109700000D01*
G75*
G02*
X98850000Y-109450001I0J249999D01*
G01*
G37*
G36*
G01*
X96800000Y-109450001D02*
X96800000Y-108549999D01*
G75*
G02*
X97049999Y-108300000I249999J0D01*
G01*
X97700001Y-108300000D01*
G75*
G02*
X97950000Y-108549999I0J-249999D01*
G01*
X97950000Y-109450001D01*
G75*
G02*
X97700001Y-109700000I-249999J0D01*
G01*
X97049999Y-109700000D01*
G75*
G02*
X96800000Y-109450001I0J249999D01*
G01*
G37*
G36*
G01*
X92350000Y-109450001D02*
X92350000Y-108549999D01*
G75*
G02*
X92599999Y-108300000I249999J0D01*
G01*
X93250001Y-108300000D01*
G75*
G02*
X93500000Y-108549999I0J-249999D01*
G01*
X93500000Y-109450001D01*
G75*
G02*
X93250001Y-109700000I-249999J0D01*
G01*
X92599999Y-109700000D01*
G75*
G02*
X92350000Y-109450001I0J249999D01*
G01*
G37*
G36*
G01*
X90300000Y-109450001D02*
X90300000Y-108549999D01*
G75*
G02*
X90549999Y-108300000I249999J0D01*
G01*
X91200001Y-108300000D01*
G75*
G02*
X91450000Y-108549999I0J-249999D01*
G01*
X91450000Y-109450001D01*
G75*
G02*
X91200001Y-109700000I-249999J0D01*
G01*
X90549999Y-109700000D01*
G75*
G02*
X90300000Y-109450001I0J249999D01*
G01*
G37*
D16*
X150560000Y-93800000D03*
X165800000Y-60780000D03*
X150560000Y-91260000D03*
X165800000Y-63320000D03*
X150560000Y-88720000D03*
X165800000Y-65860000D03*
X150560000Y-86180000D03*
X165800000Y-68400000D03*
X150560000Y-83640000D03*
X165800000Y-70940000D03*
X150560000Y-81100000D03*
X165800000Y-73480000D03*
X150560000Y-78560000D03*
X165800000Y-76020000D03*
X150560000Y-76020000D03*
X165800000Y-78560000D03*
X150560000Y-73480000D03*
X165800000Y-81100000D03*
X150560000Y-70940000D03*
X165800000Y-83640000D03*
X150560000Y-68400000D03*
X165800000Y-86180000D03*
X150560000Y-65860000D03*
X165800000Y-88720000D03*
X150560000Y-63320000D03*
X165800000Y-91260000D03*
X150560000Y-60780000D03*
D17*
X165800000Y-93800000D03*
D16*
X123060000Y-93800000D03*
X138300000Y-60780000D03*
X123060000Y-91260000D03*
X138300000Y-63320000D03*
X123060000Y-88720000D03*
X138300000Y-65860000D03*
X123060000Y-86180000D03*
X138300000Y-68400000D03*
X123060000Y-83640000D03*
X138300000Y-70940000D03*
X123060000Y-81100000D03*
X138300000Y-73480000D03*
X123060000Y-78560000D03*
X138300000Y-76020000D03*
X123060000Y-76020000D03*
X138300000Y-78560000D03*
X123060000Y-73480000D03*
X138300000Y-81100000D03*
X123060000Y-70940000D03*
X138300000Y-83640000D03*
X123060000Y-68400000D03*
X138300000Y-86180000D03*
X123060000Y-65860000D03*
X138300000Y-88720000D03*
X123060000Y-63320000D03*
X138300000Y-91260000D03*
X123060000Y-60780000D03*
D17*
X138300000Y-93800000D03*
D16*
X95960000Y-93800000D03*
X111200000Y-60780000D03*
X95960000Y-91260000D03*
X111200000Y-63320000D03*
X95960000Y-88720000D03*
X111200000Y-65860000D03*
X95960000Y-86180000D03*
X111200000Y-68400000D03*
X95960000Y-83640000D03*
X111200000Y-70940000D03*
X95960000Y-81100000D03*
X111200000Y-73480000D03*
X95960000Y-78560000D03*
X111200000Y-76020000D03*
X95960000Y-76020000D03*
X111200000Y-78560000D03*
X95960000Y-73480000D03*
X111200000Y-81100000D03*
X95960000Y-70940000D03*
X111200000Y-83640000D03*
X95960000Y-68400000D03*
X111200000Y-86180000D03*
X95960000Y-65860000D03*
X111200000Y-88720000D03*
X95960000Y-63320000D03*
X111200000Y-91260000D03*
X95960000Y-60780000D03*
D17*
X111200000Y-93800000D03*
G36*
G01*
X146175000Y-94350000D02*
X145225000Y-94350000D01*
G75*
G02*
X144975000Y-94100000I0J250000D01*
G01*
X144975000Y-93425000D01*
G75*
G02*
X145225000Y-93175000I250000J0D01*
G01*
X146175000Y-93175000D01*
G75*
G02*
X146425000Y-93425000I0J-250000D01*
G01*
X146425000Y-94100000D01*
G75*
G02*
X146175000Y-94350000I-250000J0D01*
G01*
G37*
G36*
G01*
X146175000Y-96425000D02*
X145225000Y-96425000D01*
G75*
G02*
X144975000Y-96175000I0J250000D01*
G01*
X144975000Y-95500000D01*
G75*
G02*
X145225000Y-95250000I250000J0D01*
G01*
X146175000Y-95250000D01*
G75*
G02*
X146425000Y-95500000I0J-250000D01*
G01*
X146425000Y-96175000D01*
G75*
G02*
X146175000Y-96425000I-250000J0D01*
G01*
G37*
G36*
G01*
X118675000Y-94350000D02*
X117725000Y-94350000D01*
G75*
G02*
X117475000Y-94100000I0J250000D01*
G01*
X117475000Y-93425000D01*
G75*
G02*
X117725000Y-93175000I250000J0D01*
G01*
X118675000Y-93175000D01*
G75*
G02*
X118925000Y-93425000I0J-250000D01*
G01*
X118925000Y-94100000D01*
G75*
G02*
X118675000Y-94350000I-250000J0D01*
G01*
G37*
G36*
G01*
X118675000Y-96425000D02*
X117725000Y-96425000D01*
G75*
G02*
X117475000Y-96175000I0J250000D01*
G01*
X117475000Y-95500000D01*
G75*
G02*
X117725000Y-95250000I250000J0D01*
G01*
X118675000Y-95250000D01*
G75*
G02*
X118925000Y-95500000I0J-250000D01*
G01*
X118925000Y-96175000D01*
G75*
G02*
X118675000Y-96425000I-250000J0D01*
G01*
G37*
G36*
G01*
X91575000Y-94450000D02*
X90625000Y-94450000D01*
G75*
G02*
X90375000Y-94200000I0J250000D01*
G01*
X90375000Y-93525000D01*
G75*
G02*
X90625000Y-93275000I250000J0D01*
G01*
X91575000Y-93275000D01*
G75*
G02*
X91825000Y-93525000I0J-250000D01*
G01*
X91825000Y-94200000D01*
G75*
G02*
X91575000Y-94450000I-250000J0D01*
G01*
G37*
G36*
G01*
X91575000Y-96525000D02*
X90625000Y-96525000D01*
G75*
G02*
X90375000Y-96275000I0J250000D01*
G01*
X90375000Y-95600000D01*
G75*
G02*
X90625000Y-95350000I250000J0D01*
G01*
X91575000Y-95350000D01*
G75*
G02*
X91825000Y-95600000I0J-250000D01*
G01*
X91825000Y-96275000D01*
G75*
G02*
X91575000Y-96525000I-250000J0D01*
G01*
G37*
D14*
X185460000Y-136000000D03*
X182920000Y-136000000D03*
X180380000Y-136000000D03*
X177840000Y-136000000D03*
X175300000Y-136000000D03*
X172760000Y-136000000D03*
X170220000Y-136000000D03*
X167680000Y-136000000D03*
X165140000Y-136000000D03*
X162600000Y-136000000D03*
X160060000Y-136000000D03*
X157520000Y-136000000D03*
X154980000Y-136000000D03*
X152440000Y-136000000D03*
X149900000Y-136000000D03*
X147360000Y-136000000D03*
X144820000Y-136000000D03*
X142280000Y-136000000D03*
X139740000Y-136000000D03*
X137200000Y-136000000D03*
X134660000Y-136000000D03*
X132120000Y-136000000D03*
X129580000Y-136000000D03*
X127040000Y-136000000D03*
X124500000Y-136000000D03*
X121960000Y-136000000D03*
X119420000Y-136000000D03*
X116880000Y-136000000D03*
X114340000Y-136000000D03*
X111800000Y-136000000D03*
X109260000Y-136000000D03*
X106720000Y-136000000D03*
X104180000Y-136000000D03*
X101640000Y-136000000D03*
X99100000Y-136000000D03*
X96560000Y-136000000D03*
X94020000Y-136000000D03*
X91480000Y-136000000D03*
X88940000Y-136000000D03*
D15*
X86400000Y-136000000D03*
D14*
X185460000Y-46000000D03*
X182920000Y-46000000D03*
X180380000Y-46000000D03*
X177840000Y-46000000D03*
X175300000Y-46000000D03*
X172760000Y-46000000D03*
X170220000Y-46000000D03*
X167680000Y-46000000D03*
X165140000Y-46000000D03*
X162600000Y-46000000D03*
X160060000Y-46000000D03*
X157520000Y-46000000D03*
X154980000Y-46000000D03*
X152440000Y-46000000D03*
X149900000Y-46000000D03*
X147360000Y-46000000D03*
X144820000Y-46000000D03*
X142280000Y-46000000D03*
X139740000Y-46000000D03*
X137200000Y-46000000D03*
X134660000Y-46000000D03*
X132120000Y-46000000D03*
X129580000Y-46000000D03*
X127040000Y-46000000D03*
X124500000Y-46000000D03*
X121960000Y-46000000D03*
X119420000Y-46000000D03*
X116880000Y-46000000D03*
X114340000Y-46000000D03*
X111800000Y-46000000D03*
X109260000Y-46000000D03*
X106720000Y-46000000D03*
X104180000Y-46000000D03*
X101640000Y-46000000D03*
X99100000Y-46000000D03*
X96560000Y-46000000D03*
X94020000Y-46000000D03*
X91480000Y-46000000D03*
X88940000Y-46000000D03*
D15*
X86400000Y-46000000D03*
M02*
