M48
; DRILL file {KiCad (5.1.9)-1} date 10/24/21 09:52:55
; FORMAT={-:-/ absolute / metric / decimal}
; #@! TF.CreationDate,2021-10-24T09:52:55-04:00
; #@! TF.GenerationSoftware,Kicad,Pcbnew,(5.1.9)-1
; #@! TF.FileFunction,Plated,1,2,PTH
FMAT,2
METRIC
T1C0.400
T2C0.800
T3C1.000
%
G90
G05
T1
X126.7Y-62.4
X153.7Y-70.3
X155.1Y-91.9
X156.0Y-64.555
X176.5Y-53.74
T2
X95.96Y-60.78
X95.96Y-63.32
X95.96Y-65.86
X95.96Y-68.4
X95.96Y-70.94
X95.96Y-73.48
X95.96Y-76.02
X95.96Y-78.56
X95.96Y-81.1
X95.96Y-83.64
X95.96Y-86.18
X95.96Y-88.72
X95.96Y-91.26
X95.96Y-93.8
X111.2Y-60.78
X111.2Y-63.32
X111.2Y-65.86
X111.2Y-68.4
X111.2Y-70.94
X111.2Y-73.48
X111.2Y-76.02
X111.2Y-78.56
X111.2Y-81.1
X111.2Y-83.64
X111.2Y-86.18
X111.2Y-88.72
X111.2Y-91.26
X111.2Y-93.8
X123.06Y-60.78
X123.06Y-63.32
X123.06Y-65.86
X123.06Y-68.4
X123.06Y-70.94
X123.06Y-73.48
X123.06Y-76.02
X123.06Y-78.56
X123.06Y-81.1
X123.06Y-83.64
X123.06Y-86.18
X123.06Y-88.72
X123.06Y-91.26
X123.06Y-93.8
X138.3Y-60.78
X138.3Y-63.32
X138.3Y-65.86
X138.3Y-68.4
X138.3Y-70.94
X138.3Y-73.48
X138.3Y-76.02
X138.3Y-78.56
X138.3Y-81.1
X138.3Y-83.64
X138.3Y-86.18
X138.3Y-88.72
X138.3Y-91.26
X138.3Y-93.8
X150.56Y-60.78
X150.56Y-63.32
X150.56Y-65.86
X150.56Y-68.4
X150.56Y-70.94
X150.56Y-73.48
X150.56Y-76.02
X150.56Y-78.56
X150.56Y-81.1
X150.56Y-83.64
X150.56Y-86.18
X150.56Y-88.72
X150.56Y-91.26
X150.56Y-93.8
X165.8Y-60.78
X165.8Y-63.32
X165.8Y-65.86
X165.8Y-68.4
X165.8Y-70.94
X165.8Y-73.48
X165.8Y-76.02
X165.8Y-78.56
X165.8Y-81.1
X165.8Y-83.64
X165.8Y-86.18
X165.8Y-88.72
X165.8Y-91.26
X165.8Y-93.8
T3
X86.4Y-46.0
X86.4Y-136.0
X88.9Y-57.6
X88.9Y-60.14
X88.9Y-62.68
X88.9Y-65.22
X88.94Y-46.0
X88.94Y-136.0
X91.48Y-46.0
X91.48Y-136.0
X94.02Y-46.0
X94.02Y-136.0
X96.56Y-46.0
X96.56Y-136.0
X99.1Y-46.0
X99.1Y-136.0
X101.64Y-46.0
X101.64Y-136.0
X104.18Y-46.0
X104.18Y-136.0
X106.72Y-46.0
X106.72Y-136.0
X109.26Y-46.0
X109.26Y-136.0
X111.8Y-46.0
X111.8Y-136.0
X114.34Y-46.0
X114.34Y-136.0
X116.88Y-46.0
X116.88Y-136.0
X119.42Y-46.0
X119.42Y-136.0
X121.96Y-46.0
X121.96Y-136.0
X124.5Y-46.0
X124.5Y-136.0
X127.04Y-46.0
X127.04Y-136.0
X129.58Y-46.0
X129.58Y-136.0
X132.12Y-46.0
X132.12Y-136.0
X134.66Y-46.0
X134.66Y-136.0
X137.2Y-46.0
X137.2Y-136.0
X139.74Y-46.0
X139.74Y-136.0
X142.28Y-46.0
X142.28Y-136.0
X144.82Y-46.0
X144.82Y-136.0
X147.36Y-46.0
X147.36Y-136.0
X149.9Y-46.0
X149.9Y-136.0
X152.44Y-46.0
X152.44Y-136.0
X154.98Y-46.0
X154.98Y-136.0
X157.52Y-46.0
X157.52Y-136.0
X160.06Y-46.0
X160.06Y-136.0
X162.6Y-46.0
X162.6Y-136.0
X165.14Y-46.0
X165.14Y-136.0
X167.68Y-46.0
X167.68Y-136.0
X170.22Y-46.0
X170.22Y-136.0
X172.76Y-46.0
X172.76Y-136.0
X175.3Y-46.0
X175.3Y-136.0
X177.84Y-46.0
X177.84Y-136.0
X180.38Y-46.0
X180.38Y-136.0
X182.9Y-57.6
X182.9Y-60.14
X182.9Y-62.68
X182.9Y-65.22
X182.9Y-67.76
X182.9Y-70.3
X182.9Y-72.84
X182.9Y-75.38
X182.9Y-106.6
X182.9Y-109.14
X182.9Y-111.68
X182.9Y-114.22
X182.9Y-116.76
X182.9Y-119.3
X182.9Y-121.84
X182.9Y-124.38
X182.92Y-46.0
X182.92Y-136.0
X185.46Y-46.0
X185.46Y-136.0
T0
M30
