G04 #@! TF.GenerationSoftware,KiCad,Pcbnew,(5.1.9)-1*
G04 #@! TF.CreationDate,2021-10-24T09:52:52-04:00*
G04 #@! TF.ProjectId,microcode,6d696372-6f63-46f6-9465-2e6b69636164,1.0*
G04 #@! TF.SameCoordinates,Original*
G04 #@! TF.FileFunction,Soldermask,Bot*
G04 #@! TF.FilePolarity,Negative*
%FSLAX46Y46*%
G04 Gerber Fmt 4.6, Leading zero omitted, Abs format (unit mm)*
G04 Created by KiCad (PCBNEW (5.1.9)-1) date 2021-10-24 09:52:52*
%MOMM*%
%LPD*%
G01*
G04 APERTURE LIST*
%ADD10O,1.700000X1.700000*%
%ADD11R,1.700000X1.700000*%
%ADD12O,1.600000X1.600000*%
%ADD13R,1.600000X1.600000*%
G04 APERTURE END LIST*
D10*
X88900000Y-65220000D03*
X88900000Y-62680000D03*
X88900000Y-60140000D03*
D11*
X88900000Y-57600000D03*
D10*
X182900000Y-124380000D03*
X182900000Y-121840000D03*
X182900000Y-119300000D03*
X182900000Y-116760000D03*
X182900000Y-114220000D03*
X182900000Y-111680000D03*
X182900000Y-109140000D03*
D11*
X182900000Y-106600000D03*
D10*
X182900000Y-75380000D03*
X182900000Y-72840000D03*
X182900000Y-70300000D03*
X182900000Y-67760000D03*
X182900000Y-65220000D03*
X182900000Y-62680000D03*
X182900000Y-60140000D03*
D11*
X182900000Y-57600000D03*
D12*
X150560000Y-93800000D03*
X165800000Y-60780000D03*
X150560000Y-91260000D03*
X165800000Y-63320000D03*
X150560000Y-88720000D03*
X165800000Y-65860000D03*
X150560000Y-86180000D03*
X165800000Y-68400000D03*
X150560000Y-83640000D03*
X165800000Y-70940000D03*
X150560000Y-81100000D03*
X165800000Y-73480000D03*
X150560000Y-78560000D03*
X165800000Y-76020000D03*
X150560000Y-76020000D03*
X165800000Y-78560000D03*
X150560000Y-73480000D03*
X165800000Y-81100000D03*
X150560000Y-70940000D03*
X165800000Y-83640000D03*
X150560000Y-68400000D03*
X165800000Y-86180000D03*
X150560000Y-65860000D03*
X165800000Y-88720000D03*
X150560000Y-63320000D03*
X165800000Y-91260000D03*
X150560000Y-60780000D03*
D13*
X165800000Y-93800000D03*
D12*
X123060000Y-93800000D03*
X138300000Y-60780000D03*
X123060000Y-91260000D03*
X138300000Y-63320000D03*
X123060000Y-88720000D03*
X138300000Y-65860000D03*
X123060000Y-86180000D03*
X138300000Y-68400000D03*
X123060000Y-83640000D03*
X138300000Y-70940000D03*
X123060000Y-81100000D03*
X138300000Y-73480000D03*
X123060000Y-78560000D03*
X138300000Y-76020000D03*
X123060000Y-76020000D03*
X138300000Y-78560000D03*
X123060000Y-73480000D03*
X138300000Y-81100000D03*
X123060000Y-70940000D03*
X138300000Y-83640000D03*
X123060000Y-68400000D03*
X138300000Y-86180000D03*
X123060000Y-65860000D03*
X138300000Y-88720000D03*
X123060000Y-63320000D03*
X138300000Y-91260000D03*
X123060000Y-60780000D03*
D13*
X138300000Y-93800000D03*
D12*
X95960000Y-93800000D03*
X111200000Y-60780000D03*
X95960000Y-91260000D03*
X111200000Y-63320000D03*
X95960000Y-88720000D03*
X111200000Y-65860000D03*
X95960000Y-86180000D03*
X111200000Y-68400000D03*
X95960000Y-83640000D03*
X111200000Y-70940000D03*
X95960000Y-81100000D03*
X111200000Y-73480000D03*
X95960000Y-78560000D03*
X111200000Y-76020000D03*
X95960000Y-76020000D03*
X111200000Y-78560000D03*
X95960000Y-73480000D03*
X111200000Y-81100000D03*
X95960000Y-70940000D03*
X111200000Y-83640000D03*
X95960000Y-68400000D03*
X111200000Y-86180000D03*
X95960000Y-65860000D03*
X111200000Y-88720000D03*
X95960000Y-63320000D03*
X111200000Y-91260000D03*
X95960000Y-60780000D03*
D13*
X111200000Y-93800000D03*
D10*
X185460000Y-136000000D03*
X182920000Y-136000000D03*
X180380000Y-136000000D03*
X177840000Y-136000000D03*
X175300000Y-136000000D03*
X172760000Y-136000000D03*
X170220000Y-136000000D03*
X167680000Y-136000000D03*
X165140000Y-136000000D03*
X162600000Y-136000000D03*
X160060000Y-136000000D03*
X157520000Y-136000000D03*
X154980000Y-136000000D03*
X152440000Y-136000000D03*
X149900000Y-136000000D03*
X147360000Y-136000000D03*
X144820000Y-136000000D03*
X142280000Y-136000000D03*
X139740000Y-136000000D03*
X137200000Y-136000000D03*
X134660000Y-136000000D03*
X132120000Y-136000000D03*
X129580000Y-136000000D03*
X127040000Y-136000000D03*
X124500000Y-136000000D03*
X121960000Y-136000000D03*
X119420000Y-136000000D03*
X116880000Y-136000000D03*
X114340000Y-136000000D03*
X111800000Y-136000000D03*
X109260000Y-136000000D03*
X106720000Y-136000000D03*
X104180000Y-136000000D03*
X101640000Y-136000000D03*
X99100000Y-136000000D03*
X96560000Y-136000000D03*
X94020000Y-136000000D03*
X91480000Y-136000000D03*
X88940000Y-136000000D03*
D11*
X86400000Y-136000000D03*
D10*
X185460000Y-46000000D03*
X182920000Y-46000000D03*
X180380000Y-46000000D03*
X177840000Y-46000000D03*
X175300000Y-46000000D03*
X172760000Y-46000000D03*
X170220000Y-46000000D03*
X167680000Y-46000000D03*
X165140000Y-46000000D03*
X162600000Y-46000000D03*
X160060000Y-46000000D03*
X157520000Y-46000000D03*
X154980000Y-46000000D03*
X152440000Y-46000000D03*
X149900000Y-46000000D03*
X147360000Y-46000000D03*
X144820000Y-46000000D03*
X142280000Y-46000000D03*
X139740000Y-46000000D03*
X137200000Y-46000000D03*
X134660000Y-46000000D03*
X132120000Y-46000000D03*
X129580000Y-46000000D03*
X127040000Y-46000000D03*
X124500000Y-46000000D03*
X121960000Y-46000000D03*
X119420000Y-46000000D03*
X116880000Y-46000000D03*
X114340000Y-46000000D03*
X111800000Y-46000000D03*
X109260000Y-46000000D03*
X106720000Y-46000000D03*
X104180000Y-46000000D03*
X101640000Y-46000000D03*
X99100000Y-46000000D03*
X96560000Y-46000000D03*
X94020000Y-46000000D03*
X91480000Y-46000000D03*
X88940000Y-46000000D03*
D11*
X86400000Y-46000000D03*
M02*
