G04 #@! TF.GenerationSoftware,KiCad,Pcbnew,(5.1.9)-1*
G04 #@! TF.CreationDate,2022-01-17T22:46:32-05:00*
G04 #@! TF.ProjectId,pc-sp,70632d73-702e-46b6-9963-61645f706362,1.1*
G04 #@! TF.SameCoordinates,Original*
G04 #@! TF.FileFunction,Legend,Bot*
G04 #@! TF.FilePolarity,Positive*
%FSLAX46Y46*%
G04 Gerber Fmt 4.6, Leading zero omitted, Abs format (unit mm)*
G04 Created by KiCad (PCBNEW (5.1.9)-1) date 2022-01-17 22:46:32*
%MOMM*%
%LPD*%
G01*
G04 APERTURE LIST*
%ADD10C,0.120000*%
%ADD11C,0.150000*%
%ADD12O,1.600000X1.600000*%
%ADD13R,1.600000X1.600000*%
%ADD14O,1.700000X1.700000*%
%ADD15R,1.700000X1.700000*%
G04 APERTURE END LIST*
D10*
X90330000Y-105270000D02*
X89000000Y-105270000D01*
X90330000Y-106600000D02*
X90330000Y-105270000D01*
X90330000Y-107870000D02*
X87670000Y-107870000D01*
X87670000Y-107870000D02*
X87670000Y-125710000D01*
X90330000Y-107870000D02*
X90330000Y-125710000D01*
X90330000Y-125710000D02*
X87670000Y-125710000D01*
X186790000Y-134670000D02*
X186790000Y-137330000D01*
X87670000Y-134670000D02*
X186790000Y-134670000D01*
X87670000Y-137330000D02*
X186790000Y-137330000D01*
X87670000Y-134670000D02*
X87670000Y-137330000D01*
X86400000Y-134670000D02*
X85070000Y-134670000D01*
X85070000Y-134670000D02*
X85070000Y-136000000D01*
X186790000Y-44670000D02*
X186790000Y-47330000D01*
X87670000Y-44670000D02*
X186790000Y-44670000D01*
X87670000Y-47330000D02*
X186790000Y-47330000D01*
X87670000Y-44670000D02*
X87670000Y-47330000D01*
X86400000Y-44670000D02*
X85070000Y-44670000D01*
X85070000Y-44670000D02*
X85070000Y-46000000D01*
D11*
X89333333Y-103722380D02*
X89333333Y-104436666D01*
X89380952Y-104579523D01*
X89476190Y-104674761D01*
X89619047Y-104722380D01*
X89714285Y-104722380D01*
X88428571Y-104055714D02*
X88428571Y-104722380D01*
X88666666Y-103674761D02*
X88904761Y-104389047D01*
X88285714Y-104389047D01*
X83522380Y-135666666D02*
X84236666Y-135666666D01*
X84379523Y-135619047D01*
X84474761Y-135523809D01*
X84522380Y-135380952D01*
X84522380Y-135285714D01*
X83617619Y-136095238D02*
X83570000Y-136142857D01*
X83522380Y-136238095D01*
X83522380Y-136476190D01*
X83570000Y-136571428D01*
X83617619Y-136619047D01*
X83712857Y-136666666D01*
X83808095Y-136666666D01*
X83950952Y-136619047D01*
X84522380Y-136047619D01*
X84522380Y-136666666D01*
X83522380Y-45666666D02*
X84236666Y-45666666D01*
X84379523Y-45619047D01*
X84474761Y-45523809D01*
X84522380Y-45380952D01*
X84522380Y-45285714D01*
X84522380Y-46666666D02*
X84522380Y-46095238D01*
X84522380Y-46380952D02*
X83522380Y-46380952D01*
X83665238Y-46285714D01*
X83760476Y-46190476D01*
X83808095Y-46095238D01*
%LPC*%
D12*
X120000000Y-81620000D03*
X102220000Y-74000000D03*
X117460000Y-81620000D03*
X104760000Y-74000000D03*
X114920000Y-81620000D03*
X107300000Y-74000000D03*
X112380000Y-81620000D03*
X109840000Y-74000000D03*
X109840000Y-81620000D03*
X112380000Y-74000000D03*
X107300000Y-81620000D03*
X114920000Y-74000000D03*
X104760000Y-81620000D03*
X117460000Y-74000000D03*
X102220000Y-81620000D03*
D13*
X120000000Y-74000000D03*
D12*
X146400000Y-81710000D03*
X128620000Y-74090000D03*
X143860000Y-81710000D03*
X131160000Y-74090000D03*
X141320000Y-81710000D03*
X133700000Y-74090000D03*
X138780000Y-81710000D03*
X136240000Y-74090000D03*
X136240000Y-81710000D03*
X138780000Y-74090000D03*
X133700000Y-81710000D03*
X141320000Y-74090000D03*
X131160000Y-81710000D03*
X143860000Y-74090000D03*
X128620000Y-81710000D03*
D13*
X146400000Y-74090000D03*
D14*
X89000000Y-124380000D03*
X89000000Y-121840000D03*
X89000000Y-119300000D03*
X89000000Y-116760000D03*
X89000000Y-114220000D03*
X89000000Y-111680000D03*
X89000000Y-109140000D03*
D15*
X89000000Y-106600000D03*
D12*
X166420000Y-83600000D03*
X158800000Y-98840000D03*
X166420000Y-86140000D03*
X158800000Y-96300000D03*
X166420000Y-88680000D03*
X158800000Y-93760000D03*
X166420000Y-91220000D03*
X158800000Y-91220000D03*
X166420000Y-93760000D03*
X158800000Y-88680000D03*
X166420000Y-96300000D03*
X158800000Y-86140000D03*
X166420000Y-98840000D03*
D13*
X158800000Y-83600000D03*
D12*
X122860000Y-127870000D03*
X100000000Y-120250000D03*
X120320000Y-127870000D03*
X102540000Y-120250000D03*
X117780000Y-127870000D03*
X105080000Y-120250000D03*
X115240000Y-127870000D03*
X107620000Y-120250000D03*
X112700000Y-127870000D03*
X110160000Y-120250000D03*
X110160000Y-127870000D03*
X112700000Y-120250000D03*
X107620000Y-127870000D03*
X115240000Y-120250000D03*
X105080000Y-127870000D03*
X117780000Y-120250000D03*
X102540000Y-127870000D03*
X120320000Y-120250000D03*
X100000000Y-127870000D03*
D13*
X122860000Y-120250000D03*
D12*
X181210000Y-83520000D03*
X173590000Y-98760000D03*
X181210000Y-86060000D03*
X173590000Y-96220000D03*
X181210000Y-88600000D03*
X173590000Y-93680000D03*
X181210000Y-91140000D03*
X173590000Y-91140000D03*
X181210000Y-93680000D03*
X173590000Y-88600000D03*
X181210000Y-96220000D03*
X173590000Y-86060000D03*
X181210000Y-98760000D03*
D13*
X173590000Y-83520000D03*
D12*
X120000000Y-107750000D03*
X102220000Y-100130000D03*
X117460000Y-107750000D03*
X104760000Y-100130000D03*
X114920000Y-107750000D03*
X107300000Y-100130000D03*
X112380000Y-107750000D03*
X109840000Y-100130000D03*
X109840000Y-107750000D03*
X112380000Y-100130000D03*
X107300000Y-107750000D03*
X114920000Y-100130000D03*
X104760000Y-107750000D03*
X117460000Y-100130000D03*
X102220000Y-107750000D03*
D13*
X120000000Y-100130000D03*
D12*
X146400000Y-107740000D03*
X128620000Y-100120000D03*
X143860000Y-107740000D03*
X131160000Y-100120000D03*
X141320000Y-107740000D03*
X133700000Y-100120000D03*
X138780000Y-107740000D03*
X136240000Y-100120000D03*
X136240000Y-107740000D03*
X138780000Y-100120000D03*
X133700000Y-107740000D03*
X141320000Y-100120000D03*
X131160000Y-107740000D03*
X143860000Y-100120000D03*
X128620000Y-107740000D03*
D13*
X146400000Y-100120000D03*
D12*
X122900000Y-61720000D03*
X100040000Y-54100000D03*
X120360000Y-61720000D03*
X102580000Y-54100000D03*
X117820000Y-61720000D03*
X105120000Y-54100000D03*
X115280000Y-61720000D03*
X107660000Y-54100000D03*
X112740000Y-61720000D03*
X110200000Y-54100000D03*
X110200000Y-61720000D03*
X112740000Y-54100000D03*
X107660000Y-61720000D03*
X115280000Y-54100000D03*
X105120000Y-61720000D03*
X117820000Y-54100000D03*
X102580000Y-61720000D03*
X120360000Y-54100000D03*
X100040000Y-61720000D03*
D13*
X122900000Y-54100000D03*
D14*
X185460000Y-136000000D03*
X182920000Y-136000000D03*
X180380000Y-136000000D03*
X177840000Y-136000000D03*
X175300000Y-136000000D03*
X172760000Y-136000000D03*
X170220000Y-136000000D03*
X167680000Y-136000000D03*
X165140000Y-136000000D03*
X162600000Y-136000000D03*
X160060000Y-136000000D03*
X157520000Y-136000000D03*
X154980000Y-136000000D03*
X152440000Y-136000000D03*
X149900000Y-136000000D03*
X147360000Y-136000000D03*
X144820000Y-136000000D03*
X142280000Y-136000000D03*
X139740000Y-136000000D03*
X137200000Y-136000000D03*
X134660000Y-136000000D03*
X132120000Y-136000000D03*
X129580000Y-136000000D03*
X127040000Y-136000000D03*
X124500000Y-136000000D03*
X121960000Y-136000000D03*
X119420000Y-136000000D03*
X116880000Y-136000000D03*
X114340000Y-136000000D03*
X111800000Y-136000000D03*
X109260000Y-136000000D03*
X106720000Y-136000000D03*
X104180000Y-136000000D03*
X101640000Y-136000000D03*
X99100000Y-136000000D03*
X96560000Y-136000000D03*
X94020000Y-136000000D03*
X91480000Y-136000000D03*
X88940000Y-136000000D03*
D15*
X86400000Y-136000000D03*
D14*
X185460000Y-46000000D03*
X182920000Y-46000000D03*
X180380000Y-46000000D03*
X177840000Y-46000000D03*
X175300000Y-46000000D03*
X172760000Y-46000000D03*
X170220000Y-46000000D03*
X167680000Y-46000000D03*
X165140000Y-46000000D03*
X162600000Y-46000000D03*
X160060000Y-46000000D03*
X157520000Y-46000000D03*
X154980000Y-46000000D03*
X152440000Y-46000000D03*
X149900000Y-46000000D03*
X147360000Y-46000000D03*
X144820000Y-46000000D03*
X142280000Y-46000000D03*
X139740000Y-46000000D03*
X137200000Y-46000000D03*
X134660000Y-46000000D03*
X132120000Y-46000000D03*
X129580000Y-46000000D03*
X127040000Y-46000000D03*
X124500000Y-46000000D03*
X121960000Y-46000000D03*
X119420000Y-46000000D03*
X116880000Y-46000000D03*
X114340000Y-46000000D03*
X111800000Y-46000000D03*
X109260000Y-46000000D03*
X106720000Y-46000000D03*
X104180000Y-46000000D03*
X101640000Y-46000000D03*
X99100000Y-46000000D03*
X96560000Y-46000000D03*
X94020000Y-46000000D03*
X91480000Y-46000000D03*
X88940000Y-46000000D03*
D15*
X86400000Y-46000000D03*
M02*
