M48
; DRILL file {KiCad (5.1.9)-1} date 01/17/22 22:46:38
; FORMAT={-:-/ absolute / metric / decimal}
; #@! TF.CreationDate,2022-01-17T22:46:38-05:00
; #@! TF.GenerationSoftware,Kicad,Pcbnew,(5.1.9)-1
; #@! TF.FileFunction,Plated,1,2,PTH
FMAT,2
METRIC
T1C0.400
T2C0.800
T3C1.000
%
G90
G05
T1
X91.6Y-60.5
X106.3Y-79.6
X106.795Y-115.995
X109.275Y-116.055
X114.31Y-116.1
X116.7Y-115.125
X127.765Y-120.405
X128.69Y-116.725
X128.69Y-118.03
X129.1Y-53.7
X129.38Y-120.34
X130.5Y-53.7
X132.9Y-127.4
X144.6Y-97.5
X145.2Y-113.125
X146.3Y-84.8
X152.0Y-108.2
X159.065Y-107.435
X161.0Y-87.3
X165.075Y-73.125
X165.6Y-109.6
X166.007Y-77.607
X167.1Y-109.5
X168.3Y-109.6
X169.2Y-106.1
X169.3Y-113.1
T2
X100.0Y-120.25
X100.0Y-127.87
X100.04Y-54.1
X100.04Y-61.72
X102.22Y-74.0
X102.22Y-81.62
X102.22Y-100.13
X102.22Y-107.75
X102.54Y-120.25
X102.54Y-127.87
X102.58Y-54.1
X102.58Y-61.72
X104.76Y-74.0
X104.76Y-81.62
X104.76Y-100.13
X104.76Y-107.75
X105.08Y-120.25
X105.08Y-127.87
X105.12Y-54.1
X105.12Y-61.72
X107.3Y-74.0
X107.3Y-81.62
X107.3Y-100.13
X107.3Y-107.75
X107.62Y-120.25
X107.62Y-127.87
X107.66Y-54.1
X107.66Y-61.72
X109.84Y-74.0
X109.84Y-81.62
X109.84Y-100.13
X109.84Y-107.75
X110.16Y-120.25
X110.16Y-127.87
X110.2Y-54.1
X110.2Y-61.72
X112.38Y-74.0
X112.38Y-81.62
X112.38Y-100.13
X112.38Y-107.75
X112.7Y-120.25
X112.7Y-127.87
X112.74Y-54.1
X112.74Y-61.72
X114.92Y-74.0
X114.92Y-81.62
X114.92Y-100.13
X114.92Y-107.75
X115.24Y-120.25
X115.24Y-127.87
X115.28Y-54.1
X115.28Y-61.72
X117.46Y-74.0
X117.46Y-81.62
X117.46Y-100.13
X117.46Y-107.75
X117.78Y-120.25
X117.78Y-127.87
X117.82Y-54.1
X117.82Y-61.72
X120.0Y-74.0
X120.0Y-81.62
X120.0Y-100.13
X120.0Y-107.75
X120.32Y-120.25
X120.32Y-127.87
X120.36Y-54.1
X120.36Y-61.72
X122.86Y-120.25
X122.86Y-127.87
X122.9Y-54.1
X122.9Y-61.72
X128.62Y-74.09
X128.62Y-81.71
X128.62Y-100.12
X128.62Y-107.74
X131.16Y-74.09
X131.16Y-81.71
X131.16Y-100.12
X131.16Y-107.74
X133.7Y-74.09
X133.7Y-81.71
X133.7Y-100.12
X133.7Y-107.74
X136.24Y-74.09
X136.24Y-81.71
X136.24Y-100.12
X136.24Y-107.74
X138.78Y-74.09
X138.78Y-81.71
X138.78Y-100.12
X138.78Y-107.74
X141.32Y-74.09
X141.32Y-81.71
X141.32Y-100.12
X141.32Y-107.74
X143.86Y-74.09
X143.86Y-81.71
X143.86Y-100.12
X143.86Y-107.74
X146.4Y-74.09
X146.4Y-81.71
X146.4Y-100.12
X146.4Y-107.74
X158.8Y-83.6
X158.8Y-86.14
X158.8Y-88.68
X158.8Y-91.22
X158.8Y-93.76
X158.8Y-96.3
X158.8Y-98.84
X166.42Y-83.6
X166.42Y-86.14
X166.42Y-88.68
X166.42Y-91.22
X166.42Y-93.76
X166.42Y-96.3
X166.42Y-98.84
X173.59Y-83.52
X173.59Y-86.06
X173.59Y-88.6
X173.59Y-91.14
X173.59Y-93.68
X173.59Y-96.22
X173.59Y-98.76
X181.21Y-83.52
X181.21Y-86.06
X181.21Y-88.6
X181.21Y-91.14
X181.21Y-93.68
X181.21Y-96.22
X181.21Y-98.76
T3
X86.4Y-46.0
X86.4Y-136.0
X88.94Y-46.0
X88.94Y-136.0
X89.0Y-106.6
X89.0Y-109.14
X89.0Y-111.68
X89.0Y-114.22
X89.0Y-116.76
X89.0Y-119.3
X89.0Y-121.84
X89.0Y-124.38
X91.48Y-46.0
X91.48Y-136.0
X94.02Y-46.0
X94.02Y-136.0
X96.56Y-46.0
X96.56Y-136.0
X99.1Y-46.0
X99.1Y-136.0
X101.64Y-46.0
X101.64Y-136.0
X104.18Y-46.0
X104.18Y-136.0
X106.72Y-46.0
X106.72Y-136.0
X109.26Y-46.0
X109.26Y-136.0
X111.8Y-46.0
X111.8Y-136.0
X114.34Y-46.0
X114.34Y-136.0
X116.88Y-46.0
X116.88Y-136.0
X119.42Y-46.0
X119.42Y-136.0
X121.96Y-46.0
X121.96Y-136.0
X124.5Y-46.0
X124.5Y-136.0
X127.04Y-46.0
X127.04Y-136.0
X129.58Y-46.0
X129.58Y-136.0
X132.12Y-46.0
X132.12Y-136.0
X134.66Y-46.0
X134.66Y-136.0
X137.2Y-46.0
X137.2Y-136.0
X139.74Y-46.0
X139.74Y-136.0
X142.28Y-46.0
X142.28Y-136.0
X144.82Y-46.0
X144.82Y-136.0
X147.36Y-46.0
X147.36Y-136.0
X149.9Y-46.0
X149.9Y-136.0
X152.44Y-46.0
X152.44Y-136.0
X154.98Y-46.0
X154.98Y-136.0
X157.52Y-46.0
X157.52Y-136.0
X160.06Y-46.0
X160.06Y-136.0
X162.6Y-46.0
X162.6Y-136.0
X165.14Y-46.0
X165.14Y-136.0
X167.68Y-46.0
X167.68Y-136.0
X170.22Y-46.0
X170.22Y-136.0
X172.76Y-46.0
X172.76Y-136.0
X175.3Y-46.0
X175.3Y-136.0
X177.84Y-46.0
X177.84Y-136.0
X180.38Y-46.0
X180.38Y-136.0
X182.92Y-46.0
X182.92Y-136.0
X185.46Y-46.0
X185.46Y-136.0
T0
M30
