G04 #@! TF.GenerationSoftware,KiCad,Pcbnew,(5.1.9)-1*
G04 #@! TF.CreationDate,2022-07-23T11:52:42-04:00*
G04 #@! TF.ProjectId,pc-sp,70632d73-702e-46b6-9963-61645f706362,1.1*
G04 #@! TF.SameCoordinates,Original*
G04 #@! TF.FileFunction,Paste,Top*
G04 #@! TF.FilePolarity,Positive*
%FSLAX46Y46*%
G04 Gerber Fmt 4.6, Leading zero omitted, Abs format (unit mm)*
G04 Created by KiCad (PCBNEW (5.1.9)-1) date 2022-07-23 11:52:42*
%MOMM*%
%LPD*%
G01*
G04 APERTURE LIST*
G04 APERTURE END LIST*
G36*
G01*
X172700000Y-106550001D02*
X172700000Y-105649999D01*
G75*
G02*
X172949999Y-105400000I249999J0D01*
G01*
X173650001Y-105400000D01*
G75*
G02*
X173900000Y-105649999I0J-249999D01*
G01*
X173900000Y-106550001D01*
G75*
G02*
X173650001Y-106800000I-249999J0D01*
G01*
X172949999Y-106800000D01*
G75*
G02*
X172700000Y-106550001I0J249999D01*
G01*
G37*
G36*
G01*
X170700000Y-106550001D02*
X170700000Y-105649999D01*
G75*
G02*
X170949999Y-105400000I249999J0D01*
G01*
X171650001Y-105400000D01*
G75*
G02*
X171900000Y-105649999I0J-249999D01*
G01*
X171900000Y-106550001D01*
G75*
G02*
X171650001Y-106800000I-249999J0D01*
G01*
X170949999Y-106800000D01*
G75*
G02*
X170700000Y-106550001I0J249999D01*
G01*
G37*
G36*
G01*
X172700000Y-110050001D02*
X172700000Y-109149999D01*
G75*
G02*
X172949999Y-108900000I249999J0D01*
G01*
X173650001Y-108900000D01*
G75*
G02*
X173900000Y-109149999I0J-249999D01*
G01*
X173900000Y-110050001D01*
G75*
G02*
X173650001Y-110300000I-249999J0D01*
G01*
X172949999Y-110300000D01*
G75*
G02*
X172700000Y-110050001I0J249999D01*
G01*
G37*
G36*
G01*
X170700000Y-110050001D02*
X170700000Y-109149999D01*
G75*
G02*
X170949999Y-108900000I249999J0D01*
G01*
X171650001Y-108900000D01*
G75*
G02*
X171900000Y-109149999I0J-249999D01*
G01*
X171900000Y-110050001D01*
G75*
G02*
X171650001Y-110300000I-249999J0D01*
G01*
X170949999Y-110300000D01*
G75*
G02*
X170700000Y-110050001I0J249999D01*
G01*
G37*
G36*
G01*
X172700000Y-113550001D02*
X172700000Y-112649999D01*
G75*
G02*
X172949999Y-112400000I249999J0D01*
G01*
X173650001Y-112400000D01*
G75*
G02*
X173900000Y-112649999I0J-249999D01*
G01*
X173900000Y-113550001D01*
G75*
G02*
X173650001Y-113800000I-249999J0D01*
G01*
X172949999Y-113800000D01*
G75*
G02*
X172700000Y-113550001I0J249999D01*
G01*
G37*
G36*
G01*
X170700000Y-113550001D02*
X170700000Y-112649999D01*
G75*
G02*
X170949999Y-112400000I249999J0D01*
G01*
X171650001Y-112400000D01*
G75*
G02*
X171900000Y-112649999I0J-249999D01*
G01*
X171900000Y-113550001D01*
G75*
G02*
X171650001Y-113800000I-249999J0D01*
G01*
X170949999Y-113800000D01*
G75*
G02*
X170700000Y-113550001I0J249999D01*
G01*
G37*
G36*
G01*
X176150000Y-105649999D02*
X176150000Y-106550001D01*
G75*
G02*
X175900001Y-106800000I-249999J0D01*
G01*
X175249999Y-106800000D01*
G75*
G02*
X175000000Y-106550001I0J249999D01*
G01*
X175000000Y-105649999D01*
G75*
G02*
X175249999Y-105400000I249999J0D01*
G01*
X175900001Y-105400000D01*
G75*
G02*
X176150000Y-105649999I0J-249999D01*
G01*
G37*
G36*
G01*
X178200000Y-105649999D02*
X178200000Y-106550001D01*
G75*
G02*
X177950001Y-106800000I-249999J0D01*
G01*
X177299999Y-106800000D01*
G75*
G02*
X177050000Y-106550001I0J249999D01*
G01*
X177050000Y-105649999D01*
G75*
G02*
X177299999Y-105400000I249999J0D01*
G01*
X177950001Y-105400000D01*
G75*
G02*
X178200000Y-105649999I0J-249999D01*
G01*
G37*
G36*
G01*
X176050000Y-109149999D02*
X176050000Y-110050001D01*
G75*
G02*
X175800001Y-110300000I-249999J0D01*
G01*
X175149999Y-110300000D01*
G75*
G02*
X174900000Y-110050001I0J249999D01*
G01*
X174900000Y-109149999D01*
G75*
G02*
X175149999Y-108900000I249999J0D01*
G01*
X175800001Y-108900000D01*
G75*
G02*
X176050000Y-109149999I0J-249999D01*
G01*
G37*
G36*
G01*
X178100000Y-109149999D02*
X178100000Y-110050001D01*
G75*
G02*
X177850001Y-110300000I-249999J0D01*
G01*
X177199999Y-110300000D01*
G75*
G02*
X176950000Y-110050001I0J249999D01*
G01*
X176950000Y-109149999D01*
G75*
G02*
X177199999Y-108900000I249999J0D01*
G01*
X177850001Y-108900000D01*
G75*
G02*
X178100000Y-109149999I0J-249999D01*
G01*
G37*
G36*
G01*
X176150000Y-112649999D02*
X176150000Y-113550001D01*
G75*
G02*
X175900001Y-113800000I-249999J0D01*
G01*
X175249999Y-113800000D01*
G75*
G02*
X175000000Y-113550001I0J249999D01*
G01*
X175000000Y-112649999D01*
G75*
G02*
X175249999Y-112400000I249999J0D01*
G01*
X175900001Y-112400000D01*
G75*
G02*
X176150000Y-112649999I0J-249999D01*
G01*
G37*
G36*
G01*
X178200000Y-112649999D02*
X178200000Y-113550001D01*
G75*
G02*
X177950001Y-113800000I-249999J0D01*
G01*
X177299999Y-113800000D01*
G75*
G02*
X177050000Y-113550001I0J249999D01*
G01*
X177050000Y-112649999D01*
G75*
G02*
X177299999Y-112400000I249999J0D01*
G01*
X177950001Y-112400000D01*
G75*
G02*
X178200000Y-112649999I0J-249999D01*
G01*
G37*
G36*
G01*
X181850000Y-79725000D02*
X181850000Y-80675000D01*
G75*
G02*
X181600000Y-80925000I-250000J0D01*
G01*
X180925000Y-80925000D01*
G75*
G02*
X180675000Y-80675000I0J250000D01*
G01*
X180675000Y-79725000D01*
G75*
G02*
X180925000Y-79475000I250000J0D01*
G01*
X181600000Y-79475000D01*
G75*
G02*
X181850000Y-79725000I0J-250000D01*
G01*
G37*
G36*
G01*
X183925000Y-79725000D02*
X183925000Y-80675000D01*
G75*
G02*
X183675000Y-80925000I-250000J0D01*
G01*
X183000000Y-80925000D01*
G75*
G02*
X182750000Y-80675000I0J250000D01*
G01*
X182750000Y-79725000D01*
G75*
G02*
X183000000Y-79475000I250000J0D01*
G01*
X183675000Y-79475000D01*
G75*
G02*
X183925000Y-79725000I0J-250000D01*
G01*
G37*
G36*
G01*
X156000000Y-112450001D02*
X156000000Y-111549999D01*
G75*
G02*
X156249999Y-111300000I249999J0D01*
G01*
X156950001Y-111300000D01*
G75*
G02*
X157200000Y-111549999I0J-249999D01*
G01*
X157200000Y-112450001D01*
G75*
G02*
X156950001Y-112700000I-249999J0D01*
G01*
X156249999Y-112700000D01*
G75*
G02*
X156000000Y-112450001I0J249999D01*
G01*
G37*
G36*
G01*
X154000000Y-112450001D02*
X154000000Y-111549999D01*
G75*
G02*
X154249999Y-111300000I249999J0D01*
G01*
X154950001Y-111300000D01*
G75*
G02*
X155200000Y-111549999I0J-249999D01*
G01*
X155200000Y-112450001D01*
G75*
G02*
X154950001Y-112700000I-249999J0D01*
G01*
X154249999Y-112700000D01*
G75*
G02*
X154000000Y-112450001I0J249999D01*
G01*
G37*
G36*
G01*
X163200000Y-112550001D02*
X163200000Y-111649999D01*
G75*
G02*
X163449999Y-111400000I249999J0D01*
G01*
X164150001Y-111400000D01*
G75*
G02*
X164400000Y-111649999I0J-249999D01*
G01*
X164400000Y-112550001D01*
G75*
G02*
X164150001Y-112800000I-249999J0D01*
G01*
X163449999Y-112800000D01*
G75*
G02*
X163200000Y-112550001I0J249999D01*
G01*
G37*
G36*
G01*
X161200000Y-112550001D02*
X161200000Y-111649999D01*
G75*
G02*
X161449999Y-111400000I249999J0D01*
G01*
X162150001Y-111400000D01*
G75*
G02*
X162400000Y-111649999I0J-249999D01*
G01*
X162400000Y-112550001D01*
G75*
G02*
X162150001Y-112800000I-249999J0D01*
G01*
X161449999Y-112800000D01*
G75*
G02*
X161200000Y-112550001I0J249999D01*
G01*
G37*
G36*
G01*
X169300000Y-69150001D02*
X169300000Y-68249999D01*
G75*
G02*
X169549999Y-68000000I249999J0D01*
G01*
X170250001Y-68000000D01*
G75*
G02*
X170500000Y-68249999I0J-249999D01*
G01*
X170500000Y-69150001D01*
G75*
G02*
X170250001Y-69400000I-249999J0D01*
G01*
X169549999Y-69400000D01*
G75*
G02*
X169300000Y-69150001I0J249999D01*
G01*
G37*
G36*
G01*
X167300000Y-69150001D02*
X167300000Y-68249999D01*
G75*
G02*
X167549999Y-68000000I249999J0D01*
G01*
X168250001Y-68000000D01*
G75*
G02*
X168500000Y-68249999I0J-249999D01*
G01*
X168500000Y-69150001D01*
G75*
G02*
X168250001Y-69400000I-249999J0D01*
G01*
X167549999Y-69400000D01*
G75*
G02*
X167300000Y-69150001I0J249999D01*
G01*
G37*
G36*
G01*
X143570000Y-63250001D02*
X143570000Y-62349999D01*
G75*
G02*
X143819999Y-62100000I249999J0D01*
G01*
X144520001Y-62100000D01*
G75*
G02*
X144770000Y-62349999I0J-249999D01*
G01*
X144770000Y-63250001D01*
G75*
G02*
X144520001Y-63500000I-249999J0D01*
G01*
X143819999Y-63500000D01*
G75*
G02*
X143570000Y-63250001I0J249999D01*
G01*
G37*
G36*
G01*
X141570000Y-63250001D02*
X141570000Y-62349999D01*
G75*
G02*
X141819999Y-62100000I249999J0D01*
G01*
X142520001Y-62100000D01*
G75*
G02*
X142770000Y-62349999I0J-249999D01*
G01*
X142770000Y-63250001D01*
G75*
G02*
X142520001Y-63500000I-249999J0D01*
G01*
X141819999Y-63500000D01*
G75*
G02*
X141570000Y-63250001I0J249999D01*
G01*
G37*
G36*
G01*
X149000000Y-63250001D02*
X149000000Y-62349999D01*
G75*
G02*
X149249999Y-62100000I249999J0D01*
G01*
X149950001Y-62100000D01*
G75*
G02*
X150200000Y-62349999I0J-249999D01*
G01*
X150200000Y-63250001D01*
G75*
G02*
X149950001Y-63500000I-249999J0D01*
G01*
X149249999Y-63500000D01*
G75*
G02*
X149000000Y-63250001I0J249999D01*
G01*
G37*
G36*
G01*
X147000000Y-63250001D02*
X147000000Y-62349999D01*
G75*
G02*
X147249999Y-62100000I249999J0D01*
G01*
X147950001Y-62100000D01*
G75*
G02*
X148200000Y-62349999I0J-249999D01*
G01*
X148200000Y-63250001D01*
G75*
G02*
X147950001Y-63500000I-249999J0D01*
G01*
X147249999Y-63500000D01*
G75*
G02*
X147000000Y-63250001I0J249999D01*
G01*
G37*
G36*
G01*
X154481428Y-63250001D02*
X154481428Y-62349999D01*
G75*
G02*
X154731427Y-62100000I249999J0D01*
G01*
X155431429Y-62100000D01*
G75*
G02*
X155681428Y-62349999I0J-249999D01*
G01*
X155681428Y-63250001D01*
G75*
G02*
X155431429Y-63500000I-249999J0D01*
G01*
X154731427Y-63500000D01*
G75*
G02*
X154481428Y-63250001I0J249999D01*
G01*
G37*
G36*
G01*
X152481428Y-63250001D02*
X152481428Y-62349999D01*
G75*
G02*
X152731427Y-62100000I249999J0D01*
G01*
X153431429Y-62100000D01*
G75*
G02*
X153681428Y-62349999I0J-249999D01*
G01*
X153681428Y-63250001D01*
G75*
G02*
X153431429Y-63500000I-249999J0D01*
G01*
X152731427Y-63500000D01*
G75*
G02*
X152481428Y-63250001I0J249999D01*
G01*
G37*
G36*
G01*
X159937142Y-63200001D02*
X159937142Y-62299999D01*
G75*
G02*
X160187141Y-62050000I249999J0D01*
G01*
X160887143Y-62050000D01*
G75*
G02*
X161137142Y-62299999I0J-249999D01*
G01*
X161137142Y-63200001D01*
G75*
G02*
X160887143Y-63450000I-249999J0D01*
G01*
X160187141Y-63450000D01*
G75*
G02*
X159937142Y-63200001I0J249999D01*
G01*
G37*
G36*
G01*
X157937142Y-63200001D02*
X157937142Y-62299999D01*
G75*
G02*
X158187141Y-62050000I249999J0D01*
G01*
X158887143Y-62050000D01*
G75*
G02*
X159137142Y-62299999I0J-249999D01*
G01*
X159137142Y-63200001D01*
G75*
G02*
X158887143Y-63450000I-249999J0D01*
G01*
X158187141Y-63450000D01*
G75*
G02*
X157937142Y-63200001I0J249999D01*
G01*
G37*
G36*
G01*
X165392856Y-63200001D02*
X165392856Y-62299999D01*
G75*
G02*
X165642855Y-62050000I249999J0D01*
G01*
X166342857Y-62050000D01*
G75*
G02*
X166592856Y-62299999I0J-249999D01*
G01*
X166592856Y-63200001D01*
G75*
G02*
X166342857Y-63450000I-249999J0D01*
G01*
X165642855Y-63450000D01*
G75*
G02*
X165392856Y-63200001I0J249999D01*
G01*
G37*
G36*
G01*
X163392856Y-63200001D02*
X163392856Y-62299999D01*
G75*
G02*
X163642855Y-62050000I249999J0D01*
G01*
X164342857Y-62050000D01*
G75*
G02*
X164592856Y-62299999I0J-249999D01*
G01*
X164592856Y-63200001D01*
G75*
G02*
X164342857Y-63450000I-249999J0D01*
G01*
X163642855Y-63450000D01*
G75*
G02*
X163392856Y-63200001I0J249999D01*
G01*
G37*
G36*
G01*
X170848570Y-63200001D02*
X170848570Y-62299999D01*
G75*
G02*
X171098569Y-62050000I249999J0D01*
G01*
X171798571Y-62050000D01*
G75*
G02*
X172048570Y-62299999I0J-249999D01*
G01*
X172048570Y-63200001D01*
G75*
G02*
X171798571Y-63450000I-249999J0D01*
G01*
X171098569Y-63450000D01*
G75*
G02*
X170848570Y-63200001I0J249999D01*
G01*
G37*
G36*
G01*
X168848570Y-63200001D02*
X168848570Y-62299999D01*
G75*
G02*
X169098569Y-62050000I249999J0D01*
G01*
X169798571Y-62050000D01*
G75*
G02*
X170048570Y-62299999I0J-249999D01*
G01*
X170048570Y-63200001D01*
G75*
G02*
X169798571Y-63450000I-249999J0D01*
G01*
X169098569Y-63450000D01*
G75*
G02*
X168848570Y-63200001I0J249999D01*
G01*
G37*
G36*
G01*
X176304284Y-63200001D02*
X176304284Y-62299999D01*
G75*
G02*
X176554283Y-62050000I249999J0D01*
G01*
X177254285Y-62050000D01*
G75*
G02*
X177504284Y-62299999I0J-249999D01*
G01*
X177504284Y-63200001D01*
G75*
G02*
X177254285Y-63450000I-249999J0D01*
G01*
X176554283Y-63450000D01*
G75*
G02*
X176304284Y-63200001I0J249999D01*
G01*
G37*
G36*
G01*
X174304284Y-63200001D02*
X174304284Y-62299999D01*
G75*
G02*
X174554283Y-62050000I249999J0D01*
G01*
X175254285Y-62050000D01*
G75*
G02*
X175504284Y-62299999I0J-249999D01*
G01*
X175504284Y-63200001D01*
G75*
G02*
X175254285Y-63450000I-249999J0D01*
G01*
X174554283Y-63450000D01*
G75*
G02*
X174304284Y-63200001I0J249999D01*
G01*
G37*
G36*
G01*
X181760000Y-63200001D02*
X181760000Y-62299999D01*
G75*
G02*
X182009999Y-62050000I249999J0D01*
G01*
X182710001Y-62050000D01*
G75*
G02*
X182960000Y-62299999I0J-249999D01*
G01*
X182960000Y-63200001D01*
G75*
G02*
X182710001Y-63450000I-249999J0D01*
G01*
X182009999Y-63450000D01*
G75*
G02*
X181760000Y-63200001I0J249999D01*
G01*
G37*
G36*
G01*
X179760000Y-63200001D02*
X179760000Y-62299999D01*
G75*
G02*
X180009999Y-62050000I249999J0D01*
G01*
X180710001Y-62050000D01*
G75*
G02*
X180960000Y-62299999I0J-249999D01*
G01*
X180960000Y-63200001D01*
G75*
G02*
X180710001Y-63450000I-249999J0D01*
G01*
X180009999Y-63450000D01*
G75*
G02*
X179760000Y-63200001I0J249999D01*
G01*
G37*
G36*
G01*
X156055000Y-108850001D02*
X156055000Y-107949999D01*
G75*
G02*
X156304999Y-107700000I249999J0D01*
G01*
X156955001Y-107700000D01*
G75*
G02*
X157205000Y-107949999I0J-249999D01*
G01*
X157205000Y-108850001D01*
G75*
G02*
X156955001Y-109100000I-249999J0D01*
G01*
X156304999Y-109100000D01*
G75*
G02*
X156055000Y-108850001I0J249999D01*
G01*
G37*
G36*
G01*
X154005000Y-108850001D02*
X154005000Y-107949999D01*
G75*
G02*
X154254999Y-107700000I249999J0D01*
G01*
X154905001Y-107700000D01*
G75*
G02*
X155155000Y-107949999I0J-249999D01*
G01*
X155155000Y-108850001D01*
G75*
G02*
X154905001Y-109100000I-249999J0D01*
G01*
X154254999Y-109100000D01*
G75*
G02*
X154005000Y-108850001I0J249999D01*
G01*
G37*
G36*
G01*
X163280000Y-108910001D02*
X163280000Y-108009999D01*
G75*
G02*
X163529999Y-107760000I249999J0D01*
G01*
X164180001Y-107760000D01*
G75*
G02*
X164430000Y-108009999I0J-249999D01*
G01*
X164430000Y-108910001D01*
G75*
G02*
X164180001Y-109160000I-249999J0D01*
G01*
X163529999Y-109160000D01*
G75*
G02*
X163280000Y-108910001I0J249999D01*
G01*
G37*
G36*
G01*
X161230000Y-108910001D02*
X161230000Y-108009999D01*
G75*
G02*
X161479999Y-107760000I249999J0D01*
G01*
X162130001Y-107760000D01*
G75*
G02*
X162380000Y-108009999I0J-249999D01*
G01*
X162380000Y-108910001D01*
G75*
G02*
X162130001Y-109160000I-249999J0D01*
G01*
X161479999Y-109160000D01*
G75*
G02*
X161230000Y-108910001I0J249999D01*
G01*
G37*
G36*
G01*
X169350000Y-72550001D02*
X169350000Y-71649999D01*
G75*
G02*
X169599999Y-71400000I249999J0D01*
G01*
X170250001Y-71400000D01*
G75*
G02*
X170500000Y-71649999I0J-249999D01*
G01*
X170500000Y-72550001D01*
G75*
G02*
X170250001Y-72800000I-249999J0D01*
G01*
X169599999Y-72800000D01*
G75*
G02*
X169350000Y-72550001I0J249999D01*
G01*
G37*
G36*
G01*
X167300000Y-72550001D02*
X167300000Y-71649999D01*
G75*
G02*
X167549999Y-71400000I249999J0D01*
G01*
X168200001Y-71400000D01*
G75*
G02*
X168450000Y-71649999I0J-249999D01*
G01*
X168450000Y-72550001D01*
G75*
G02*
X168200001Y-72800000I-249999J0D01*
G01*
X167549999Y-72800000D01*
G75*
G02*
X167300000Y-72550001I0J249999D01*
G01*
G37*
G36*
G01*
X143630000Y-59640001D02*
X143630000Y-58739999D01*
G75*
G02*
X143879999Y-58490000I249999J0D01*
G01*
X144530001Y-58490000D01*
G75*
G02*
X144780000Y-58739999I0J-249999D01*
G01*
X144780000Y-59640001D01*
G75*
G02*
X144530001Y-59890000I-249999J0D01*
G01*
X143879999Y-59890000D01*
G75*
G02*
X143630000Y-59640001I0J249999D01*
G01*
G37*
G36*
G01*
X141580000Y-59640001D02*
X141580000Y-58739999D01*
G75*
G02*
X141829999Y-58490000I249999J0D01*
G01*
X142480001Y-58490000D01*
G75*
G02*
X142730000Y-58739999I0J-249999D01*
G01*
X142730000Y-59640001D01*
G75*
G02*
X142480001Y-59890000I-249999J0D01*
G01*
X141829999Y-59890000D01*
G75*
G02*
X141580000Y-59640001I0J249999D01*
G01*
G37*
G36*
G01*
X149105714Y-59620001D02*
X149105714Y-58719999D01*
G75*
G02*
X149355713Y-58470000I249999J0D01*
G01*
X150005715Y-58470000D01*
G75*
G02*
X150255714Y-58719999I0J-249999D01*
G01*
X150255714Y-59620001D01*
G75*
G02*
X150005715Y-59870000I-249999J0D01*
G01*
X149355713Y-59870000D01*
G75*
G02*
X149105714Y-59620001I0J249999D01*
G01*
G37*
G36*
G01*
X147055714Y-59620001D02*
X147055714Y-58719999D01*
G75*
G02*
X147305713Y-58470000I249999J0D01*
G01*
X147955715Y-58470000D01*
G75*
G02*
X148205714Y-58719999I0J-249999D01*
G01*
X148205714Y-59620001D01*
G75*
G02*
X147955715Y-59870000I-249999J0D01*
G01*
X147305713Y-59870000D01*
G75*
G02*
X147055714Y-59620001I0J249999D01*
G01*
G37*
G36*
G01*
X154561428Y-59620001D02*
X154561428Y-58719999D01*
G75*
G02*
X154811427Y-58470000I249999J0D01*
G01*
X155461429Y-58470000D01*
G75*
G02*
X155711428Y-58719999I0J-249999D01*
G01*
X155711428Y-59620001D01*
G75*
G02*
X155461429Y-59870000I-249999J0D01*
G01*
X154811427Y-59870000D01*
G75*
G02*
X154561428Y-59620001I0J249999D01*
G01*
G37*
G36*
G01*
X152511428Y-59620001D02*
X152511428Y-58719999D01*
G75*
G02*
X152761427Y-58470000I249999J0D01*
G01*
X153411429Y-58470000D01*
G75*
G02*
X153661428Y-58719999I0J-249999D01*
G01*
X153661428Y-59620001D01*
G75*
G02*
X153411429Y-59870000I-249999J0D01*
G01*
X152761427Y-59870000D01*
G75*
G02*
X152511428Y-59620001I0J249999D01*
G01*
G37*
G36*
G01*
X160017142Y-59620001D02*
X160017142Y-58719999D01*
G75*
G02*
X160267141Y-58470000I249999J0D01*
G01*
X160917143Y-58470000D01*
G75*
G02*
X161167142Y-58719999I0J-249999D01*
G01*
X161167142Y-59620001D01*
G75*
G02*
X160917143Y-59870000I-249999J0D01*
G01*
X160267141Y-59870000D01*
G75*
G02*
X160017142Y-59620001I0J249999D01*
G01*
G37*
G36*
G01*
X157967142Y-59620001D02*
X157967142Y-58719999D01*
G75*
G02*
X158217141Y-58470000I249999J0D01*
G01*
X158867143Y-58470000D01*
G75*
G02*
X159117142Y-58719999I0J-249999D01*
G01*
X159117142Y-59620001D01*
G75*
G02*
X158867143Y-59870000I-249999J0D01*
G01*
X158217141Y-59870000D01*
G75*
G02*
X157967142Y-59620001I0J249999D01*
G01*
G37*
G36*
G01*
X165472856Y-59620001D02*
X165472856Y-58719999D01*
G75*
G02*
X165722855Y-58470000I249999J0D01*
G01*
X166372857Y-58470000D01*
G75*
G02*
X166622856Y-58719999I0J-249999D01*
G01*
X166622856Y-59620001D01*
G75*
G02*
X166372857Y-59870000I-249999J0D01*
G01*
X165722855Y-59870000D01*
G75*
G02*
X165472856Y-59620001I0J249999D01*
G01*
G37*
G36*
G01*
X163422856Y-59620001D02*
X163422856Y-58719999D01*
G75*
G02*
X163672855Y-58470000I249999J0D01*
G01*
X164322857Y-58470000D01*
G75*
G02*
X164572856Y-58719999I0J-249999D01*
G01*
X164572856Y-59620001D01*
G75*
G02*
X164322857Y-59870000I-249999J0D01*
G01*
X163672855Y-59870000D01*
G75*
G02*
X163422856Y-59620001I0J249999D01*
G01*
G37*
G36*
G01*
X170928570Y-59620001D02*
X170928570Y-58719999D01*
G75*
G02*
X171178569Y-58470000I249999J0D01*
G01*
X171828571Y-58470000D01*
G75*
G02*
X172078570Y-58719999I0J-249999D01*
G01*
X172078570Y-59620001D01*
G75*
G02*
X171828571Y-59870000I-249999J0D01*
G01*
X171178569Y-59870000D01*
G75*
G02*
X170928570Y-59620001I0J249999D01*
G01*
G37*
G36*
G01*
X168878570Y-59620001D02*
X168878570Y-58719999D01*
G75*
G02*
X169128569Y-58470000I249999J0D01*
G01*
X169778571Y-58470000D01*
G75*
G02*
X170028570Y-58719999I0J-249999D01*
G01*
X170028570Y-59620001D01*
G75*
G02*
X169778571Y-59870000I-249999J0D01*
G01*
X169128569Y-59870000D01*
G75*
G02*
X168878570Y-59620001I0J249999D01*
G01*
G37*
G36*
G01*
X176384284Y-59620001D02*
X176384284Y-58719999D01*
G75*
G02*
X176634283Y-58470000I249999J0D01*
G01*
X177284285Y-58470000D01*
G75*
G02*
X177534284Y-58719999I0J-249999D01*
G01*
X177534284Y-59620001D01*
G75*
G02*
X177284285Y-59870000I-249999J0D01*
G01*
X176634283Y-59870000D01*
G75*
G02*
X176384284Y-59620001I0J249999D01*
G01*
G37*
G36*
G01*
X174334284Y-59620001D02*
X174334284Y-58719999D01*
G75*
G02*
X174584283Y-58470000I249999J0D01*
G01*
X175234285Y-58470000D01*
G75*
G02*
X175484284Y-58719999I0J-249999D01*
G01*
X175484284Y-59620001D01*
G75*
G02*
X175234285Y-59870000I-249999J0D01*
G01*
X174584283Y-59870000D01*
G75*
G02*
X174334284Y-59620001I0J249999D01*
G01*
G37*
G36*
G01*
X181840000Y-59620001D02*
X181840000Y-58719999D01*
G75*
G02*
X182089999Y-58470000I249999J0D01*
G01*
X182740001Y-58470000D01*
G75*
G02*
X182990000Y-58719999I0J-249999D01*
G01*
X182990000Y-59620001D01*
G75*
G02*
X182740001Y-59870000I-249999J0D01*
G01*
X182089999Y-59870000D01*
G75*
G02*
X181840000Y-59620001I0J249999D01*
G01*
G37*
G36*
G01*
X179790000Y-59620001D02*
X179790000Y-58719999D01*
G75*
G02*
X180039999Y-58470000I249999J0D01*
G01*
X180690001Y-58470000D01*
G75*
G02*
X180940000Y-58719999I0J-249999D01*
G01*
X180940000Y-59620001D01*
G75*
G02*
X180690001Y-59870000I-249999J0D01*
G01*
X180039999Y-59870000D01*
G75*
G02*
X179790000Y-59620001I0J249999D01*
G01*
G37*
G36*
G01*
X167050000Y-79725000D02*
X167050000Y-80675000D01*
G75*
G02*
X166800000Y-80925000I-250000J0D01*
G01*
X166125000Y-80925000D01*
G75*
G02*
X165875000Y-80675000I0J250000D01*
G01*
X165875000Y-79725000D01*
G75*
G02*
X166125000Y-79475000I250000J0D01*
G01*
X166800000Y-79475000D01*
G75*
G02*
X167050000Y-79725000I0J-250000D01*
G01*
G37*
G36*
G01*
X169125000Y-79725000D02*
X169125000Y-80675000D01*
G75*
G02*
X168875000Y-80925000I-250000J0D01*
G01*
X168200000Y-80925000D01*
G75*
G02*
X167950000Y-80675000I0J250000D01*
G01*
X167950000Y-79725000D01*
G75*
G02*
X168200000Y-79475000I250000J0D01*
G01*
X168875000Y-79475000D01*
G75*
G02*
X169125000Y-79725000I0J-250000D01*
G01*
G37*
G36*
G01*
X123775000Y-108350000D02*
X122825000Y-108350000D01*
G75*
G02*
X122575000Y-108100000I0J250000D01*
G01*
X122575000Y-107425000D01*
G75*
G02*
X122825000Y-107175000I250000J0D01*
G01*
X123775000Y-107175000D01*
G75*
G02*
X124025000Y-107425000I0J-250000D01*
G01*
X124025000Y-108100000D01*
G75*
G02*
X123775000Y-108350000I-250000J0D01*
G01*
G37*
G36*
G01*
X123775000Y-110425000D02*
X122825000Y-110425000D01*
G75*
G02*
X122575000Y-110175000I0J250000D01*
G01*
X122575000Y-109500000D01*
G75*
G02*
X122825000Y-109250000I250000J0D01*
G01*
X123775000Y-109250000D01*
G75*
G02*
X124025000Y-109500000I0J-250000D01*
G01*
X124025000Y-110175000D01*
G75*
G02*
X123775000Y-110425000I-250000J0D01*
G01*
G37*
G36*
G01*
X123412500Y-130125000D02*
X123412500Y-131075000D01*
G75*
G02*
X123162500Y-131325000I-250000J0D01*
G01*
X122487500Y-131325000D01*
G75*
G02*
X122237500Y-131075000I0J250000D01*
G01*
X122237500Y-130125000D01*
G75*
G02*
X122487500Y-129875000I250000J0D01*
G01*
X123162500Y-129875000D01*
G75*
G02*
X123412500Y-130125000I0J-250000D01*
G01*
G37*
G36*
G01*
X125487500Y-130125000D02*
X125487500Y-131075000D01*
G75*
G02*
X125237500Y-131325000I-250000J0D01*
G01*
X124562500Y-131325000D01*
G75*
G02*
X124312500Y-131075000I0J250000D01*
G01*
X124312500Y-130125000D01*
G75*
G02*
X124562500Y-129875000I250000J0D01*
G01*
X125237500Y-129875000D01*
G75*
G02*
X125487500Y-130125000I0J-250000D01*
G01*
G37*
G36*
G01*
X120550000Y-84225000D02*
X120550000Y-85175000D01*
G75*
G02*
X120300000Y-85425000I-250000J0D01*
G01*
X119625000Y-85425000D01*
G75*
G02*
X119375000Y-85175000I0J250000D01*
G01*
X119375000Y-84225000D01*
G75*
G02*
X119625000Y-83975000I250000J0D01*
G01*
X120300000Y-83975000D01*
G75*
G02*
X120550000Y-84225000I0J-250000D01*
G01*
G37*
G36*
G01*
X122625000Y-84225000D02*
X122625000Y-85175000D01*
G75*
G02*
X122375000Y-85425000I-250000J0D01*
G01*
X121700000Y-85425000D01*
G75*
G02*
X121450000Y-85175000I0J250000D01*
G01*
X121450000Y-84225000D01*
G75*
G02*
X121700000Y-83975000I250000J0D01*
G01*
X122375000Y-83975000D01*
G75*
G02*
X122625000Y-84225000I0J-250000D01*
G01*
G37*
G36*
G01*
X150025000Y-81050000D02*
X150975000Y-81050000D01*
G75*
G02*
X151225000Y-81300000I0J-250000D01*
G01*
X151225000Y-81975000D01*
G75*
G02*
X150975000Y-82225000I-250000J0D01*
G01*
X150025000Y-82225000D01*
G75*
G02*
X149775000Y-81975000I0J250000D01*
G01*
X149775000Y-81300000D01*
G75*
G02*
X150025000Y-81050000I250000J0D01*
G01*
G37*
G36*
G01*
X150025000Y-78975000D02*
X150975000Y-78975000D01*
G75*
G02*
X151225000Y-79225000I0J-250000D01*
G01*
X151225000Y-79900000D01*
G75*
G02*
X150975000Y-80150000I-250000J0D01*
G01*
X150025000Y-80150000D01*
G75*
G02*
X149775000Y-79900000I0J250000D01*
G01*
X149775000Y-79225000D01*
G75*
G02*
X150025000Y-78975000I250000J0D01*
G01*
G37*
G36*
G01*
X126525000Y-60950000D02*
X127475000Y-60950000D01*
G75*
G02*
X127725000Y-61200000I0J-250000D01*
G01*
X127725000Y-61875000D01*
G75*
G02*
X127475000Y-62125000I-250000J0D01*
G01*
X126525000Y-62125000D01*
G75*
G02*
X126275000Y-61875000I0J250000D01*
G01*
X126275000Y-61200000D01*
G75*
G02*
X126525000Y-60950000I250000J0D01*
G01*
G37*
G36*
G01*
X126525000Y-58875000D02*
X127475000Y-58875000D01*
G75*
G02*
X127725000Y-59125000I0J-250000D01*
G01*
X127725000Y-59800000D01*
G75*
G02*
X127475000Y-60050000I-250000J0D01*
G01*
X126525000Y-60050000D01*
G75*
G02*
X126275000Y-59800000I0J250000D01*
G01*
X126275000Y-59125000D01*
G75*
G02*
X126525000Y-58875000I250000J0D01*
G01*
G37*
G36*
G01*
X149225000Y-107150000D02*
X150175000Y-107150000D01*
G75*
G02*
X150425000Y-107400000I0J-250000D01*
G01*
X150425000Y-108075000D01*
G75*
G02*
X150175000Y-108325000I-250000J0D01*
G01*
X149225000Y-108325000D01*
G75*
G02*
X148975000Y-108075000I0J250000D01*
G01*
X148975000Y-107400000D01*
G75*
G02*
X149225000Y-107150000I250000J0D01*
G01*
G37*
G36*
G01*
X149225000Y-105075000D02*
X150175000Y-105075000D01*
G75*
G02*
X150425000Y-105325000I0J-250000D01*
G01*
X150425000Y-106000000D01*
G75*
G02*
X150175000Y-106250000I-250000J0D01*
G01*
X149225000Y-106250000D01*
G75*
G02*
X148975000Y-106000000I0J250000D01*
G01*
X148975000Y-105325000D01*
G75*
G02*
X149225000Y-105075000I250000J0D01*
G01*
G37*
G36*
G01*
X162000000Y-69150001D02*
X162000000Y-68249999D01*
G75*
G02*
X162249999Y-68000000I249999J0D01*
G01*
X162950001Y-68000000D01*
G75*
G02*
X163200000Y-68249999I0J-249999D01*
G01*
X163200000Y-69150001D01*
G75*
G02*
X162950001Y-69400000I-249999J0D01*
G01*
X162249999Y-69400000D01*
G75*
G02*
X162000000Y-69150001I0J249999D01*
G01*
G37*
G36*
G01*
X160000000Y-69150001D02*
X160000000Y-68249999D01*
G75*
G02*
X160249999Y-68000000I249999J0D01*
G01*
X160950001Y-68000000D01*
G75*
G02*
X161200000Y-68249999I0J-249999D01*
G01*
X161200000Y-69150001D01*
G75*
G02*
X160950001Y-69400000I-249999J0D01*
G01*
X160249999Y-69400000D01*
G75*
G02*
X160000000Y-69150001I0J249999D01*
G01*
G37*
G36*
G01*
X162030000Y-72570001D02*
X162030000Y-71669999D01*
G75*
G02*
X162279999Y-71420000I249999J0D01*
G01*
X162930001Y-71420000D01*
G75*
G02*
X163180000Y-71669999I0J-249999D01*
G01*
X163180000Y-72570001D01*
G75*
G02*
X162930001Y-72820000I-249999J0D01*
G01*
X162279999Y-72820000D01*
G75*
G02*
X162030000Y-72570001I0J249999D01*
G01*
G37*
G36*
G01*
X159980000Y-72570001D02*
X159980000Y-71669999D01*
G75*
G02*
X160229999Y-71420000I249999J0D01*
G01*
X160880001Y-71420000D01*
G75*
G02*
X161130000Y-71669999I0J-249999D01*
G01*
X161130000Y-72570001D01*
G75*
G02*
X160880001Y-72820000I-249999J0D01*
G01*
X160229999Y-72820000D01*
G75*
G02*
X159980000Y-72570001I0J249999D01*
G01*
G37*
G36*
G01*
X143500000Y-119660001D02*
X143500000Y-118759999D01*
G75*
G02*
X143749999Y-118510000I249999J0D01*
G01*
X144450001Y-118510000D01*
G75*
G02*
X144700000Y-118759999I0J-249999D01*
G01*
X144700000Y-119660001D01*
G75*
G02*
X144450001Y-119910000I-249999J0D01*
G01*
X143749999Y-119910000D01*
G75*
G02*
X143500000Y-119660001I0J249999D01*
G01*
G37*
G36*
G01*
X141500000Y-119660001D02*
X141500000Y-118759999D01*
G75*
G02*
X141749999Y-118510000I249999J0D01*
G01*
X142450001Y-118510000D01*
G75*
G02*
X142700000Y-118759999I0J-249999D01*
G01*
X142700000Y-119660001D01*
G75*
G02*
X142450001Y-119910000I-249999J0D01*
G01*
X141749999Y-119910000D01*
G75*
G02*
X141500000Y-119660001I0J249999D01*
G01*
G37*
G36*
G01*
X149014285Y-119660001D02*
X149014285Y-118759999D01*
G75*
G02*
X149264284Y-118510000I249999J0D01*
G01*
X149964286Y-118510000D01*
G75*
G02*
X150214285Y-118759999I0J-249999D01*
G01*
X150214285Y-119660001D01*
G75*
G02*
X149964286Y-119910000I-249999J0D01*
G01*
X149264284Y-119910000D01*
G75*
G02*
X149014285Y-119660001I0J249999D01*
G01*
G37*
G36*
G01*
X147014285Y-119660001D02*
X147014285Y-118759999D01*
G75*
G02*
X147264284Y-118510000I249999J0D01*
G01*
X147964286Y-118510000D01*
G75*
G02*
X148214285Y-118759999I0J-249999D01*
G01*
X148214285Y-119660001D01*
G75*
G02*
X147964286Y-119910000I-249999J0D01*
G01*
X147264284Y-119910000D01*
G75*
G02*
X147014285Y-119660001I0J249999D01*
G01*
G37*
G36*
G01*
X154528570Y-119660001D02*
X154528570Y-118759999D01*
G75*
G02*
X154778569Y-118510000I249999J0D01*
G01*
X155478571Y-118510000D01*
G75*
G02*
X155728570Y-118759999I0J-249999D01*
G01*
X155728570Y-119660001D01*
G75*
G02*
X155478571Y-119910000I-249999J0D01*
G01*
X154778569Y-119910000D01*
G75*
G02*
X154528570Y-119660001I0J249999D01*
G01*
G37*
G36*
G01*
X152528570Y-119660001D02*
X152528570Y-118759999D01*
G75*
G02*
X152778569Y-118510000I249999J0D01*
G01*
X153478571Y-118510000D01*
G75*
G02*
X153728570Y-118759999I0J-249999D01*
G01*
X153728570Y-119660001D01*
G75*
G02*
X153478571Y-119910000I-249999J0D01*
G01*
X152778569Y-119910000D01*
G75*
G02*
X152528570Y-119660001I0J249999D01*
G01*
G37*
G36*
G01*
X160042855Y-119660001D02*
X160042855Y-118759999D01*
G75*
G02*
X160292854Y-118510000I249999J0D01*
G01*
X160992856Y-118510000D01*
G75*
G02*
X161242855Y-118759999I0J-249999D01*
G01*
X161242855Y-119660001D01*
G75*
G02*
X160992856Y-119910000I-249999J0D01*
G01*
X160292854Y-119910000D01*
G75*
G02*
X160042855Y-119660001I0J249999D01*
G01*
G37*
G36*
G01*
X158042855Y-119660001D02*
X158042855Y-118759999D01*
G75*
G02*
X158292854Y-118510000I249999J0D01*
G01*
X158992856Y-118510000D01*
G75*
G02*
X159242855Y-118759999I0J-249999D01*
G01*
X159242855Y-119660001D01*
G75*
G02*
X158992856Y-119910000I-249999J0D01*
G01*
X158292854Y-119910000D01*
G75*
G02*
X158042855Y-119660001I0J249999D01*
G01*
G37*
G36*
G01*
X165557140Y-119660001D02*
X165557140Y-118759999D01*
G75*
G02*
X165807139Y-118510000I249999J0D01*
G01*
X166507141Y-118510000D01*
G75*
G02*
X166757140Y-118759999I0J-249999D01*
G01*
X166757140Y-119660001D01*
G75*
G02*
X166507141Y-119910000I-249999J0D01*
G01*
X165807139Y-119910000D01*
G75*
G02*
X165557140Y-119660001I0J249999D01*
G01*
G37*
G36*
G01*
X163557140Y-119660001D02*
X163557140Y-118759999D01*
G75*
G02*
X163807139Y-118510000I249999J0D01*
G01*
X164507141Y-118510000D01*
G75*
G02*
X164757140Y-118759999I0J-249999D01*
G01*
X164757140Y-119660001D01*
G75*
G02*
X164507141Y-119910000I-249999J0D01*
G01*
X163807139Y-119910000D01*
G75*
G02*
X163557140Y-119660001I0J249999D01*
G01*
G37*
G36*
G01*
X171071425Y-119660001D02*
X171071425Y-118759999D01*
G75*
G02*
X171321424Y-118510000I249999J0D01*
G01*
X172021426Y-118510000D01*
G75*
G02*
X172271425Y-118759999I0J-249999D01*
G01*
X172271425Y-119660001D01*
G75*
G02*
X172021426Y-119910000I-249999J0D01*
G01*
X171321424Y-119910000D01*
G75*
G02*
X171071425Y-119660001I0J249999D01*
G01*
G37*
G36*
G01*
X169071425Y-119660001D02*
X169071425Y-118759999D01*
G75*
G02*
X169321424Y-118510000I249999J0D01*
G01*
X170021426Y-118510000D01*
G75*
G02*
X170271425Y-118759999I0J-249999D01*
G01*
X170271425Y-119660001D01*
G75*
G02*
X170021426Y-119910000I-249999J0D01*
G01*
X169321424Y-119910000D01*
G75*
G02*
X169071425Y-119660001I0J249999D01*
G01*
G37*
G36*
G01*
X176585710Y-119660001D02*
X176585710Y-118759999D01*
G75*
G02*
X176835709Y-118510000I249999J0D01*
G01*
X177535711Y-118510000D01*
G75*
G02*
X177785710Y-118759999I0J-249999D01*
G01*
X177785710Y-119660001D01*
G75*
G02*
X177535711Y-119910000I-249999J0D01*
G01*
X176835709Y-119910000D01*
G75*
G02*
X176585710Y-119660001I0J249999D01*
G01*
G37*
G36*
G01*
X174585710Y-119660001D02*
X174585710Y-118759999D01*
G75*
G02*
X174835709Y-118510000I249999J0D01*
G01*
X175535711Y-118510000D01*
G75*
G02*
X175785710Y-118759999I0J-249999D01*
G01*
X175785710Y-119660001D01*
G75*
G02*
X175535711Y-119910000I-249999J0D01*
G01*
X174835709Y-119910000D01*
G75*
G02*
X174585710Y-119660001I0J249999D01*
G01*
G37*
G36*
G01*
X182100000Y-119660001D02*
X182100000Y-118759999D01*
G75*
G02*
X182349999Y-118510000I249999J0D01*
G01*
X183050001Y-118510000D01*
G75*
G02*
X183300000Y-118759999I0J-249999D01*
G01*
X183300000Y-119660001D01*
G75*
G02*
X183050001Y-119910000I-249999J0D01*
G01*
X182349999Y-119910000D01*
G75*
G02*
X182100000Y-119660001I0J249999D01*
G01*
G37*
G36*
G01*
X180100000Y-119660001D02*
X180100000Y-118759999D01*
G75*
G02*
X180349999Y-118510000I249999J0D01*
G01*
X181050001Y-118510000D01*
G75*
G02*
X181300000Y-118759999I0J-249999D01*
G01*
X181300000Y-119660001D01*
G75*
G02*
X181050001Y-119910000I-249999J0D01*
G01*
X180349999Y-119910000D01*
G75*
G02*
X180100000Y-119660001I0J249999D01*
G01*
G37*
G36*
G01*
X143550000Y-123250001D02*
X143550000Y-122349999D01*
G75*
G02*
X143799999Y-122100000I249999J0D01*
G01*
X144450001Y-122100000D01*
G75*
G02*
X144700000Y-122349999I0J-249999D01*
G01*
X144700000Y-123250001D01*
G75*
G02*
X144450001Y-123500000I-249999J0D01*
G01*
X143799999Y-123500000D01*
G75*
G02*
X143550000Y-123250001I0J249999D01*
G01*
G37*
G36*
G01*
X141500000Y-123250001D02*
X141500000Y-122349999D01*
G75*
G02*
X141749999Y-122100000I249999J0D01*
G01*
X142400001Y-122100000D01*
G75*
G02*
X142650000Y-122349999I0J-249999D01*
G01*
X142650000Y-123250001D01*
G75*
G02*
X142400001Y-123500000I-249999J0D01*
G01*
X141749999Y-123500000D01*
G75*
G02*
X141500000Y-123250001I0J249999D01*
G01*
G37*
G36*
G01*
X149064285Y-123250001D02*
X149064285Y-122349999D01*
G75*
G02*
X149314284Y-122100000I249999J0D01*
G01*
X149964286Y-122100000D01*
G75*
G02*
X150214285Y-122349999I0J-249999D01*
G01*
X150214285Y-123250001D01*
G75*
G02*
X149964286Y-123500000I-249999J0D01*
G01*
X149314284Y-123500000D01*
G75*
G02*
X149064285Y-123250001I0J249999D01*
G01*
G37*
G36*
G01*
X147014285Y-123250001D02*
X147014285Y-122349999D01*
G75*
G02*
X147264284Y-122100000I249999J0D01*
G01*
X147914286Y-122100000D01*
G75*
G02*
X148164285Y-122349999I0J-249999D01*
G01*
X148164285Y-123250001D01*
G75*
G02*
X147914286Y-123500000I-249999J0D01*
G01*
X147264284Y-123500000D01*
G75*
G02*
X147014285Y-123250001I0J249999D01*
G01*
G37*
G36*
G01*
X154578570Y-123250001D02*
X154578570Y-122349999D01*
G75*
G02*
X154828569Y-122100000I249999J0D01*
G01*
X155478571Y-122100000D01*
G75*
G02*
X155728570Y-122349999I0J-249999D01*
G01*
X155728570Y-123250001D01*
G75*
G02*
X155478571Y-123500000I-249999J0D01*
G01*
X154828569Y-123500000D01*
G75*
G02*
X154578570Y-123250001I0J249999D01*
G01*
G37*
G36*
G01*
X152528570Y-123250001D02*
X152528570Y-122349999D01*
G75*
G02*
X152778569Y-122100000I249999J0D01*
G01*
X153428571Y-122100000D01*
G75*
G02*
X153678570Y-122349999I0J-249999D01*
G01*
X153678570Y-123250001D01*
G75*
G02*
X153428571Y-123500000I-249999J0D01*
G01*
X152778569Y-123500000D01*
G75*
G02*
X152528570Y-123250001I0J249999D01*
G01*
G37*
G36*
G01*
X160092855Y-123250001D02*
X160092855Y-122349999D01*
G75*
G02*
X160342854Y-122100000I249999J0D01*
G01*
X160992856Y-122100000D01*
G75*
G02*
X161242855Y-122349999I0J-249999D01*
G01*
X161242855Y-123250001D01*
G75*
G02*
X160992856Y-123500000I-249999J0D01*
G01*
X160342854Y-123500000D01*
G75*
G02*
X160092855Y-123250001I0J249999D01*
G01*
G37*
G36*
G01*
X158042855Y-123250001D02*
X158042855Y-122349999D01*
G75*
G02*
X158292854Y-122100000I249999J0D01*
G01*
X158942856Y-122100000D01*
G75*
G02*
X159192855Y-122349999I0J-249999D01*
G01*
X159192855Y-123250001D01*
G75*
G02*
X158942856Y-123500000I-249999J0D01*
G01*
X158292854Y-123500000D01*
G75*
G02*
X158042855Y-123250001I0J249999D01*
G01*
G37*
G36*
G01*
X165607140Y-123250001D02*
X165607140Y-122349999D01*
G75*
G02*
X165857139Y-122100000I249999J0D01*
G01*
X166507141Y-122100000D01*
G75*
G02*
X166757140Y-122349999I0J-249999D01*
G01*
X166757140Y-123250001D01*
G75*
G02*
X166507141Y-123500000I-249999J0D01*
G01*
X165857139Y-123500000D01*
G75*
G02*
X165607140Y-123250001I0J249999D01*
G01*
G37*
G36*
G01*
X163557140Y-123250001D02*
X163557140Y-122349999D01*
G75*
G02*
X163807139Y-122100000I249999J0D01*
G01*
X164457141Y-122100000D01*
G75*
G02*
X164707140Y-122349999I0J-249999D01*
G01*
X164707140Y-123250001D01*
G75*
G02*
X164457141Y-123500000I-249999J0D01*
G01*
X163807139Y-123500000D01*
G75*
G02*
X163557140Y-123250001I0J249999D01*
G01*
G37*
G36*
G01*
X171121425Y-123250001D02*
X171121425Y-122349999D01*
G75*
G02*
X171371424Y-122100000I249999J0D01*
G01*
X172021426Y-122100000D01*
G75*
G02*
X172271425Y-122349999I0J-249999D01*
G01*
X172271425Y-123250001D01*
G75*
G02*
X172021426Y-123500000I-249999J0D01*
G01*
X171371424Y-123500000D01*
G75*
G02*
X171121425Y-123250001I0J249999D01*
G01*
G37*
G36*
G01*
X169071425Y-123250001D02*
X169071425Y-122349999D01*
G75*
G02*
X169321424Y-122100000I249999J0D01*
G01*
X169971426Y-122100000D01*
G75*
G02*
X170221425Y-122349999I0J-249999D01*
G01*
X170221425Y-123250001D01*
G75*
G02*
X169971426Y-123500000I-249999J0D01*
G01*
X169321424Y-123500000D01*
G75*
G02*
X169071425Y-123250001I0J249999D01*
G01*
G37*
G36*
G01*
X176635710Y-123250001D02*
X176635710Y-122349999D01*
G75*
G02*
X176885709Y-122100000I249999J0D01*
G01*
X177535711Y-122100000D01*
G75*
G02*
X177785710Y-122349999I0J-249999D01*
G01*
X177785710Y-123250001D01*
G75*
G02*
X177535711Y-123500000I-249999J0D01*
G01*
X176885709Y-123500000D01*
G75*
G02*
X176635710Y-123250001I0J249999D01*
G01*
G37*
G36*
G01*
X174585710Y-123250001D02*
X174585710Y-122349999D01*
G75*
G02*
X174835709Y-122100000I249999J0D01*
G01*
X175485711Y-122100000D01*
G75*
G02*
X175735710Y-122349999I0J-249999D01*
G01*
X175735710Y-123250001D01*
G75*
G02*
X175485711Y-123500000I-249999J0D01*
G01*
X174835709Y-123500000D01*
G75*
G02*
X174585710Y-123250001I0J249999D01*
G01*
G37*
G36*
G01*
X182150000Y-123250001D02*
X182150000Y-122349999D01*
G75*
G02*
X182399999Y-122100000I249999J0D01*
G01*
X183050001Y-122100000D01*
G75*
G02*
X183300000Y-122349999I0J-249999D01*
G01*
X183300000Y-123250001D01*
G75*
G02*
X183050001Y-123500000I-249999J0D01*
G01*
X182399999Y-123500000D01*
G75*
G02*
X182150000Y-123250001I0J249999D01*
G01*
G37*
G36*
G01*
X180100000Y-123250001D02*
X180100000Y-122349999D01*
G75*
G02*
X180349999Y-122100000I249999J0D01*
G01*
X181000001Y-122100000D01*
G75*
G02*
X181250000Y-122349999I0J-249999D01*
G01*
X181250000Y-123250001D01*
G75*
G02*
X181000001Y-123500000I-249999J0D01*
G01*
X180349999Y-123500000D01*
G75*
G02*
X180100000Y-123250001I0J249999D01*
G01*
G37*
M02*
