%FSLAX45Y45*%
G04 Gerber Fmt 4.5, Leading zero omitted, Abs format (unit mm)*
G04 Created by KiCad (PCBNEW (5.1.9)-1) date 2021-11-21 15:00:35*
%MOMM*%
%LPD*%
G01*
G04 APERTURE LIST*
%TA.AperFunction,Profile*%
%ADD10C,0.100000*%
%TD*%
%ADD11C,0.200000*%
%ADD12C,0.300000*%
G04 APERTURE END LIST*
D10*
X8500000Y-13900000D02*
X8500000Y-4300000D01*
X18700000Y-13900000D02*
X8500000Y-13900000D01*
X18700000Y-4300000D02*
X18700000Y-13900000D01*
X8500000Y-4300000D02*
X18700000Y-4300000D01*
D11*
X9640000Y-10440000D02*
X9680000Y-10480000D01*
X9680000Y-10440000D02*
X9640000Y-10480000D01*
X12100000Y-10260500D02*
X12140000Y-10300500D01*
X12140000Y-10260500D02*
X12100000Y-10300500D01*
X12170000Y-10360000D02*
X12210000Y-10400000D01*
X12210000Y-10360000D02*
X12170000Y-10400000D01*
X12280000Y-10440000D02*
X12320000Y-10480000D01*
X12320000Y-10440000D02*
X12280000Y-10480000D01*
X12300000Y-11530000D02*
X12340000Y-11570000D01*
X12340000Y-11530000D02*
X12300000Y-11570000D01*
X12650000Y-4790000D02*
X12690000Y-4830000D01*
X12690000Y-4790000D02*
X12650000Y-4830000D01*
X13050000Y-9310000D02*
X13090000Y-9350000D01*
X13090000Y-9310000D02*
X13050000Y-9350000D01*
X13270000Y-11640000D02*
X13310000Y-11680000D01*
X13310000Y-11640000D02*
X13270000Y-11680000D01*
X13450000Y-11110000D02*
X13490000Y-11150000D01*
X13490000Y-11110000D02*
X13450000Y-11150000D01*
X13485000Y-9235000D02*
X13525000Y-9275000D01*
X13525000Y-9235000D02*
X13485000Y-9275000D01*
X13850000Y-6300000D02*
X13890000Y-6340000D01*
X13890000Y-6300000D02*
X13850000Y-6340000D01*
X14090000Y-6690000D02*
X14130000Y-6730000D01*
X14130000Y-6690000D02*
X14090000Y-6730000D01*
X14100000Y-11390000D02*
X14140000Y-11430000D01*
X14140000Y-11390000D02*
X14100000Y-11430000D01*
X14830000Y-6987492D02*
X14870000Y-7027492D01*
X14870000Y-6987492D02*
X14830000Y-7027492D01*
X15610000Y-9230000D02*
X15650000Y-9270000D01*
X15650000Y-9230000D02*
X15610000Y-9270000D01*
X15682500Y-6980000D02*
X15722500Y-7020000D01*
X15722500Y-6980000D02*
X15682500Y-7020000D01*
X16110000Y-12157499D02*
X16150000Y-12197499D01*
X16150000Y-12157499D02*
X16110000Y-12197499D01*
X16240000Y-12230000D02*
X16280000Y-12270000D01*
X16280000Y-12230000D02*
X16240000Y-12270000D01*
X16420000Y-12300000D02*
X16460000Y-12340000D01*
X16460000Y-12300000D02*
X16420000Y-12340000D01*
X16570000Y-12410000D02*
X16610000Y-12450000D01*
X16610000Y-12410000D02*
X16570000Y-12450000D01*
X16580000Y-12950000D02*
X16620000Y-12990000D01*
X16620000Y-12950000D02*
X16580000Y-12990000D01*
X17370000Y-5590000D02*
X17410000Y-5630000D01*
X17410000Y-5590000D02*
X17370000Y-5630000D01*
X17442500Y-5512500D02*
X17482500Y-5552500D01*
X17482500Y-5512500D02*
X17442500Y-5552500D01*
X17530000Y-5440000D02*
X17570000Y-5480000D01*
X17570000Y-5440000D02*
X17530000Y-5480000D01*
X17620000Y-5360000D02*
X17660000Y-5400000D01*
X17660000Y-5360000D02*
X17620000Y-5400000D01*
X17710000Y-5300000D02*
X17750000Y-5340000D01*
X17750000Y-5300000D02*
X17710000Y-5340000D01*
X17800000Y-5770000D02*
X17840000Y-5810000D01*
X17840000Y-5770000D02*
X17800000Y-5810000D01*
X18010000Y-9540000D02*
X18050000Y-9580000D01*
X18050000Y-9540000D02*
X18010000Y-9580000D01*
X18275000Y-8115000D02*
X18315000Y-8155000D01*
X18315000Y-8115000D02*
X18275000Y-8155000D01*
X18280000Y-9990000D02*
X18320000Y-10030000D01*
X18320000Y-9990000D02*
X18280000Y-10030000D01*
X9450000Y-5688000D02*
G75*
G03*
X9450000Y-5688000I-40000J0D01*
G01*
X9450000Y-6450000D02*
G75*
G03*
X9450000Y-6450000I-40000J0D01*
G01*
X9450000Y-6938000D02*
G75*
G03*
X9450000Y-6938000I-40000J0D01*
G01*
X9450000Y-7700000D02*
G75*
G03*
X9450000Y-7700000I-40000J0D01*
G01*
X9450000Y-8588000D02*
G75*
G03*
X9450000Y-8588000I-40000J0D01*
G01*
X9450000Y-9350000D02*
G75*
G03*
X9450000Y-9350000I-40000J0D01*
G01*
X9450000Y-10168000D02*
G75*
G03*
X9450000Y-10168000I-40000J0D01*
G01*
X9450000Y-10930000D02*
G75*
G03*
X9450000Y-10930000I-40000J0D01*
G01*
X9450000Y-11618000D02*
G75*
G03*
X9450000Y-11618000I-40000J0D01*
G01*
X9450000Y-12380000D02*
G75*
G03*
X9450000Y-12380000I-40000J0D01*
G01*
X9704000Y-5688000D02*
G75*
G03*
X9704000Y-5688000I-40000J0D01*
G01*
X9704000Y-6450000D02*
G75*
G03*
X9704000Y-6450000I-40000J0D01*
G01*
X9704000Y-6938000D02*
G75*
G03*
X9704000Y-6938000I-40000J0D01*
G01*
X9704000Y-7700000D02*
G75*
G03*
X9704000Y-7700000I-40000J0D01*
G01*
X9704000Y-8588000D02*
G75*
G03*
X9704000Y-8588000I-40000J0D01*
G01*
X9704000Y-9350000D02*
G75*
G03*
X9704000Y-9350000I-40000J0D01*
G01*
X9704000Y-10168000D02*
G75*
G03*
X9704000Y-10168000I-40000J0D01*
G01*
X9704000Y-10930000D02*
G75*
G03*
X9704000Y-10930000I-40000J0D01*
G01*
X9704000Y-11618000D02*
G75*
G03*
X9704000Y-11618000I-40000J0D01*
G01*
X9704000Y-12380000D02*
G75*
G03*
X9704000Y-12380000I-40000J0D01*
G01*
X9958000Y-5688000D02*
G75*
G03*
X9958000Y-5688000I-40000J0D01*
G01*
X9958000Y-6450000D02*
G75*
G03*
X9958000Y-6450000I-40000J0D01*
G01*
X9958000Y-6938000D02*
G75*
G03*
X9958000Y-6938000I-40000J0D01*
G01*
X9958000Y-7700000D02*
G75*
G03*
X9958000Y-7700000I-40000J0D01*
G01*
X9958000Y-8588000D02*
G75*
G03*
X9958000Y-8588000I-40000J0D01*
G01*
X9958000Y-9350000D02*
G75*
G03*
X9958000Y-9350000I-40000J0D01*
G01*
X9958000Y-10168000D02*
G75*
G03*
X9958000Y-10168000I-40000J0D01*
G01*
X9958000Y-10930000D02*
G75*
G03*
X9958000Y-10930000I-40000J0D01*
G01*
X9958000Y-11618000D02*
G75*
G03*
X9958000Y-11618000I-40000J0D01*
G01*
X9958000Y-12380000D02*
G75*
G03*
X9958000Y-12380000I-40000J0D01*
G01*
X10212000Y-5688000D02*
G75*
G03*
X10212000Y-5688000I-40000J0D01*
G01*
X10212000Y-6450000D02*
G75*
G03*
X10212000Y-6450000I-40000J0D01*
G01*
X10212000Y-6938000D02*
G75*
G03*
X10212000Y-6938000I-40000J0D01*
G01*
X10212000Y-7700000D02*
G75*
G03*
X10212000Y-7700000I-40000J0D01*
G01*
X10212000Y-8588000D02*
G75*
G03*
X10212000Y-8588000I-40000J0D01*
G01*
X10212000Y-9350000D02*
G75*
G03*
X10212000Y-9350000I-40000J0D01*
G01*
X10212000Y-10168000D02*
G75*
G03*
X10212000Y-10168000I-40000J0D01*
G01*
X10212000Y-10930000D02*
G75*
G03*
X10212000Y-10930000I-40000J0D01*
G01*
X10212000Y-11618000D02*
G75*
G03*
X10212000Y-11618000I-40000J0D01*
G01*
X10212000Y-12380000D02*
G75*
G03*
X10212000Y-12380000I-40000J0D01*
G01*
X10466000Y-5688000D02*
G75*
G03*
X10466000Y-5688000I-40000J0D01*
G01*
X10466000Y-6450000D02*
G75*
G03*
X10466000Y-6450000I-40000J0D01*
G01*
X10466000Y-6938000D02*
G75*
G03*
X10466000Y-6938000I-40000J0D01*
G01*
X10466000Y-7700000D02*
G75*
G03*
X10466000Y-7700000I-40000J0D01*
G01*
X10466000Y-8588000D02*
G75*
G03*
X10466000Y-8588000I-40000J0D01*
G01*
X10466000Y-9350000D02*
G75*
G03*
X10466000Y-9350000I-40000J0D01*
G01*
X10466000Y-10168000D02*
G75*
G03*
X10466000Y-10168000I-40000J0D01*
G01*
X10466000Y-10930000D02*
G75*
G03*
X10466000Y-10930000I-40000J0D01*
G01*
X10466000Y-11618000D02*
G75*
G03*
X10466000Y-11618000I-40000J0D01*
G01*
X10466000Y-12380000D02*
G75*
G03*
X10466000Y-12380000I-40000J0D01*
G01*
X10720000Y-5688000D02*
G75*
G03*
X10720000Y-5688000I-40000J0D01*
G01*
X10720000Y-6450000D02*
G75*
G03*
X10720000Y-6450000I-40000J0D01*
G01*
X10720000Y-6938000D02*
G75*
G03*
X10720000Y-6938000I-40000J0D01*
G01*
X10720000Y-7700000D02*
G75*
G03*
X10720000Y-7700000I-40000J0D01*
G01*
X10720000Y-8588000D02*
G75*
G03*
X10720000Y-8588000I-40000J0D01*
G01*
X10720000Y-9350000D02*
G75*
G03*
X10720000Y-9350000I-40000J0D01*
G01*
X10720000Y-10168000D02*
G75*
G03*
X10720000Y-10168000I-40000J0D01*
G01*
X10720000Y-10930000D02*
G75*
G03*
X10720000Y-10930000I-40000J0D01*
G01*
X10720000Y-11618000D02*
G75*
G03*
X10720000Y-11618000I-40000J0D01*
G01*
X10720000Y-12380000D02*
G75*
G03*
X10720000Y-12380000I-40000J0D01*
G01*
X10974000Y-5688000D02*
G75*
G03*
X10974000Y-5688000I-40000J0D01*
G01*
X10974000Y-6450000D02*
G75*
G03*
X10974000Y-6450000I-40000J0D01*
G01*
X10974000Y-6938000D02*
G75*
G03*
X10974000Y-6938000I-40000J0D01*
G01*
X10974000Y-7700000D02*
G75*
G03*
X10974000Y-7700000I-40000J0D01*
G01*
X10974000Y-8588000D02*
G75*
G03*
X10974000Y-8588000I-40000J0D01*
G01*
X10974000Y-9350000D02*
G75*
G03*
X10974000Y-9350000I-40000J0D01*
G01*
X10974000Y-10168000D02*
G75*
G03*
X10974000Y-10168000I-40000J0D01*
G01*
X10974000Y-10930000D02*
G75*
G03*
X10974000Y-10930000I-40000J0D01*
G01*
X10974000Y-11618000D02*
G75*
G03*
X10974000Y-11618000I-40000J0D01*
G01*
X10974000Y-12380000D02*
G75*
G03*
X10974000Y-12380000I-40000J0D01*
G01*
X11228000Y-5688000D02*
G75*
G03*
X11228000Y-5688000I-40000J0D01*
G01*
X11228000Y-6450000D02*
G75*
G03*
X11228000Y-6450000I-40000J0D01*
G01*
X11228000Y-6938000D02*
G75*
G03*
X11228000Y-6938000I-40000J0D01*
G01*
X11228000Y-7700000D02*
G75*
G03*
X11228000Y-7700000I-40000J0D01*
G01*
X11228000Y-8588000D02*
G75*
G03*
X11228000Y-8588000I-40000J0D01*
G01*
X11228000Y-9350000D02*
G75*
G03*
X11228000Y-9350000I-40000J0D01*
G01*
X11228000Y-10168000D02*
G75*
G03*
X11228000Y-10168000I-40000J0D01*
G01*
X11228000Y-10930000D02*
G75*
G03*
X11228000Y-10930000I-40000J0D01*
G01*
X11228000Y-11618000D02*
G75*
G03*
X11228000Y-11618000I-40000J0D01*
G01*
X11228000Y-12380000D02*
G75*
G03*
X11228000Y-12380000I-40000J0D01*
G01*
X11482000Y-5688000D02*
G75*
G03*
X11482000Y-5688000I-40000J0D01*
G01*
X11482000Y-6450000D02*
G75*
G03*
X11482000Y-6450000I-40000J0D01*
G01*
X11482000Y-6938000D02*
G75*
G03*
X11482000Y-6938000I-40000J0D01*
G01*
X11482000Y-7700000D02*
G75*
G03*
X11482000Y-7700000I-40000J0D01*
G01*
X11482000Y-8588000D02*
G75*
G03*
X11482000Y-8588000I-40000J0D01*
G01*
X11482000Y-9350000D02*
G75*
G03*
X11482000Y-9350000I-40000J0D01*
G01*
X11482000Y-10168000D02*
G75*
G03*
X11482000Y-10168000I-40000J0D01*
G01*
X11482000Y-10930000D02*
G75*
G03*
X11482000Y-10930000I-40000J0D01*
G01*
X11482000Y-11618000D02*
G75*
G03*
X11482000Y-11618000I-40000J0D01*
G01*
X11482000Y-12380000D02*
G75*
G03*
X11482000Y-12380000I-40000J0D01*
G01*
X11736000Y-5688000D02*
G75*
G03*
X11736000Y-5688000I-40000J0D01*
G01*
X11736000Y-6450000D02*
G75*
G03*
X11736000Y-6450000I-40000J0D01*
G01*
X11736000Y-6938000D02*
G75*
G03*
X11736000Y-6938000I-40000J0D01*
G01*
X11736000Y-7700000D02*
G75*
G03*
X11736000Y-7700000I-40000J0D01*
G01*
X11736000Y-8588000D02*
G75*
G03*
X11736000Y-8588000I-40000J0D01*
G01*
X11736000Y-9350000D02*
G75*
G03*
X11736000Y-9350000I-40000J0D01*
G01*
X11736000Y-10168000D02*
G75*
G03*
X11736000Y-10168000I-40000J0D01*
G01*
X11736000Y-10930000D02*
G75*
G03*
X11736000Y-10930000I-40000J0D01*
G01*
X11736000Y-11618000D02*
G75*
G03*
X11736000Y-11618000I-40000J0D01*
G01*
X11736000Y-12380000D02*
G75*
G03*
X11736000Y-12380000I-40000J0D01*
G01*
X14010000Y-5108000D02*
G75*
G03*
X14010000Y-5108000I-40000J0D01*
G01*
X14010000Y-5870000D02*
G75*
G03*
X14010000Y-5870000I-40000J0D01*
G01*
X14010000Y-12428000D02*
G75*
G03*
X14010000Y-12428000I-40000J0D01*
G01*
X14010000Y-13190000D02*
G75*
G03*
X14010000Y-13190000I-40000J0D01*
G01*
X14264000Y-5108000D02*
G75*
G03*
X14264000Y-5108000I-40000J0D01*
G01*
X14264000Y-5870000D02*
G75*
G03*
X14264000Y-5870000I-40000J0D01*
G01*
X14264000Y-12428000D02*
G75*
G03*
X14264000Y-12428000I-40000J0D01*
G01*
X14264000Y-13190000D02*
G75*
G03*
X14264000Y-13190000I-40000J0D01*
G01*
X14518000Y-5108000D02*
G75*
G03*
X14518000Y-5108000I-40000J0D01*
G01*
X14518000Y-5870000D02*
G75*
G03*
X14518000Y-5870000I-40000J0D01*
G01*
X14518000Y-12428000D02*
G75*
G03*
X14518000Y-12428000I-40000J0D01*
G01*
X14518000Y-13190000D02*
G75*
G03*
X14518000Y-13190000I-40000J0D01*
G01*
X14772000Y-5108000D02*
G75*
G03*
X14772000Y-5108000I-40000J0D01*
G01*
X14772000Y-5870000D02*
G75*
G03*
X14772000Y-5870000I-40000J0D01*
G01*
X14772000Y-12428000D02*
G75*
G03*
X14772000Y-12428000I-40000J0D01*
G01*
X14772000Y-13190000D02*
G75*
G03*
X14772000Y-13190000I-40000J0D01*
G01*
X15026000Y-5108000D02*
G75*
G03*
X15026000Y-5108000I-40000J0D01*
G01*
X15026000Y-5870000D02*
G75*
G03*
X15026000Y-5870000I-40000J0D01*
G01*
X15026000Y-12428000D02*
G75*
G03*
X15026000Y-12428000I-40000J0D01*
G01*
X15026000Y-13190000D02*
G75*
G03*
X15026000Y-13190000I-40000J0D01*
G01*
X15280000Y-5108000D02*
G75*
G03*
X15280000Y-5108000I-40000J0D01*
G01*
X15280000Y-5870000D02*
G75*
G03*
X15280000Y-5870000I-40000J0D01*
G01*
X15280000Y-12428000D02*
G75*
G03*
X15280000Y-12428000I-40000J0D01*
G01*
X15280000Y-13190000D02*
G75*
G03*
X15280000Y-13190000I-40000J0D01*
G01*
X15534000Y-5108000D02*
G75*
G03*
X15534000Y-5108000I-40000J0D01*
G01*
X15534000Y-5870000D02*
G75*
G03*
X15534000Y-5870000I-40000J0D01*
G01*
X15534000Y-12428000D02*
G75*
G03*
X15534000Y-12428000I-40000J0D01*
G01*
X15534000Y-13190000D02*
G75*
G03*
X15534000Y-13190000I-40000J0D01*
G01*
X15788000Y-5108000D02*
G75*
G03*
X15788000Y-5108000I-40000J0D01*
G01*
X15788000Y-5870000D02*
G75*
G03*
X15788000Y-5870000I-40000J0D01*
G01*
X15788000Y-12428000D02*
G75*
G03*
X15788000Y-12428000I-40000J0D01*
G01*
X15788000Y-13190000D02*
G75*
G03*
X15788000Y-13190000I-40000J0D01*
G01*
X8640000Y-4550000D02*
X8640000Y-4650000D01*
X8590000Y-4600000D02*
X8690000Y-4600000D01*
X8640000Y-13550000D02*
X8640000Y-13650000D01*
X8590000Y-13600000D02*
X8690000Y-13600000D01*
X8894000Y-4550000D02*
X8894000Y-4650000D01*
X8844000Y-4600000D02*
X8944000Y-4600000D01*
X8894000Y-13550000D02*
X8894000Y-13650000D01*
X8844000Y-13600000D02*
X8944000Y-13600000D01*
X9148000Y-4550000D02*
X9148000Y-4650000D01*
X9098000Y-4600000D02*
X9198000Y-4600000D01*
X9148000Y-13550000D02*
X9148000Y-13650000D01*
X9098000Y-13600000D02*
X9198000Y-13600000D01*
X9402000Y-4550000D02*
X9402000Y-4650000D01*
X9352000Y-4600000D02*
X9452000Y-4600000D01*
X9402000Y-13550000D02*
X9402000Y-13650000D01*
X9352000Y-13600000D02*
X9452000Y-13600000D01*
X9656000Y-4550000D02*
X9656000Y-4650000D01*
X9606000Y-4600000D02*
X9706000Y-4600000D01*
X9656000Y-13550000D02*
X9656000Y-13650000D01*
X9606000Y-13600000D02*
X9706000Y-13600000D01*
X9910000Y-4550000D02*
X9910000Y-4650000D01*
X9860000Y-4600000D02*
X9960000Y-4600000D01*
X9910000Y-13550000D02*
X9910000Y-13650000D01*
X9860000Y-13600000D02*
X9960000Y-13600000D01*
X10164000Y-4550000D02*
X10164000Y-4650000D01*
X10114000Y-4600000D02*
X10214000Y-4600000D01*
X10164000Y-13550000D02*
X10164000Y-13650000D01*
X10114000Y-13600000D02*
X10214000Y-13600000D01*
X10418000Y-4550000D02*
X10418000Y-4650000D01*
X10368000Y-4600000D02*
X10468000Y-4600000D01*
X10418000Y-13550000D02*
X10418000Y-13650000D01*
X10368000Y-13600000D02*
X10468000Y-13600000D01*
X10672000Y-4550000D02*
X10672000Y-4650000D01*
X10622000Y-4600000D02*
X10722000Y-4600000D01*
X10672000Y-13550000D02*
X10672000Y-13650000D01*
X10622000Y-13600000D02*
X10722000Y-13600000D01*
X10926000Y-4550000D02*
X10926000Y-4650000D01*
X10876000Y-4600000D02*
X10976000Y-4600000D01*
X10926000Y-13550000D02*
X10926000Y-13650000D01*
X10876000Y-13600000D02*
X10976000Y-13600000D01*
X11180000Y-4550000D02*
X11180000Y-4650000D01*
X11130000Y-4600000D02*
X11230000Y-4600000D01*
X11180000Y-13550000D02*
X11180000Y-13650000D01*
X11130000Y-13600000D02*
X11230000Y-13600000D01*
X11434000Y-4550000D02*
X11434000Y-4650000D01*
X11384000Y-4600000D02*
X11484000Y-4600000D01*
X11434000Y-13550000D02*
X11434000Y-13650000D01*
X11384000Y-13600000D02*
X11484000Y-13600000D01*
X11688000Y-4550000D02*
X11688000Y-4650000D01*
X11638000Y-4600000D02*
X11738000Y-4600000D01*
X11688000Y-13550000D02*
X11688000Y-13650000D01*
X11638000Y-13600000D02*
X11738000Y-13600000D01*
X11942000Y-4550000D02*
X11942000Y-4650000D01*
X11892000Y-4600000D02*
X11992000Y-4600000D01*
X11942000Y-13550000D02*
X11942000Y-13650000D01*
X11892000Y-13600000D02*
X11992000Y-13600000D01*
X12196000Y-4550000D02*
X12196000Y-4650000D01*
X12146000Y-4600000D02*
X12246000Y-4600000D01*
X12196000Y-13550000D02*
X12196000Y-13650000D01*
X12146000Y-13600000D02*
X12246000Y-13600000D01*
X12450000Y-4550000D02*
X12450000Y-4650000D01*
X12400000Y-4600000D02*
X12500000Y-4600000D01*
X12450000Y-13550000D02*
X12450000Y-13650000D01*
X12400000Y-13600000D02*
X12500000Y-13600000D01*
X12704000Y-4550000D02*
X12704000Y-4650000D01*
X12654000Y-4600000D02*
X12754000Y-4600000D01*
X12704000Y-13550000D02*
X12704000Y-13650000D01*
X12654000Y-13600000D02*
X12754000Y-13600000D01*
X12958000Y-4550000D02*
X12958000Y-4650000D01*
X12908000Y-4600000D02*
X13008000Y-4600000D01*
X12958000Y-13550000D02*
X12958000Y-13650000D01*
X12908000Y-13600000D02*
X13008000Y-13600000D01*
X13212000Y-4550000D02*
X13212000Y-4650000D01*
X13162000Y-4600000D02*
X13262000Y-4600000D01*
X13212000Y-13550000D02*
X13212000Y-13650000D01*
X13162000Y-13600000D02*
X13262000Y-13600000D01*
X13466000Y-4550000D02*
X13466000Y-4650000D01*
X13416000Y-4600000D02*
X13516000Y-4600000D01*
X13466000Y-13550000D02*
X13466000Y-13650000D01*
X13416000Y-13600000D02*
X13516000Y-13600000D01*
X13720000Y-4550000D02*
X13720000Y-4650000D01*
X13670000Y-4600000D02*
X13770000Y-4600000D01*
X13720000Y-13550000D02*
X13720000Y-13650000D01*
X13670000Y-13600000D02*
X13770000Y-13600000D01*
X13974000Y-4550000D02*
X13974000Y-4650000D01*
X13924000Y-4600000D02*
X14024000Y-4600000D01*
X13974000Y-13550000D02*
X13974000Y-13650000D01*
X13924000Y-13600000D02*
X14024000Y-13600000D01*
X14228000Y-4550000D02*
X14228000Y-4650000D01*
X14178000Y-4600000D02*
X14278000Y-4600000D01*
X14228000Y-13550000D02*
X14228000Y-13650000D01*
X14178000Y-13600000D02*
X14278000Y-13600000D01*
X14482000Y-4550000D02*
X14482000Y-4650000D01*
X14432000Y-4600000D02*
X14532000Y-4600000D01*
X14482000Y-13550000D02*
X14482000Y-13650000D01*
X14432000Y-13600000D02*
X14532000Y-13600000D01*
X14736000Y-4550000D02*
X14736000Y-4650000D01*
X14686000Y-4600000D02*
X14786000Y-4600000D01*
X14736000Y-13550000D02*
X14736000Y-13650000D01*
X14686000Y-13600000D02*
X14786000Y-13600000D01*
X14990000Y-4550000D02*
X14990000Y-4650000D01*
X14940000Y-4600000D02*
X15040000Y-4600000D01*
X14990000Y-13550000D02*
X14990000Y-13650000D01*
X14940000Y-13600000D02*
X15040000Y-13600000D01*
X15244000Y-4550000D02*
X15244000Y-4650000D01*
X15194000Y-4600000D02*
X15294000Y-4600000D01*
X15244000Y-13550000D02*
X15244000Y-13650000D01*
X15194000Y-13600000D02*
X15294000Y-13600000D01*
X15498000Y-4550000D02*
X15498000Y-4650000D01*
X15448000Y-4600000D02*
X15548000Y-4600000D01*
X15498000Y-13550000D02*
X15498000Y-13650000D01*
X15448000Y-13600000D02*
X15548000Y-13600000D01*
X15752000Y-4550000D02*
X15752000Y-4650000D01*
X15702000Y-4600000D02*
X15802000Y-4600000D01*
X15752000Y-13550000D02*
X15752000Y-13650000D01*
X15702000Y-13600000D02*
X15802000Y-13600000D01*
X16006000Y-4550000D02*
X16006000Y-4650000D01*
X15956000Y-4600000D02*
X16056000Y-4600000D01*
X16006000Y-13550000D02*
X16006000Y-13650000D01*
X15956000Y-13600000D02*
X16056000Y-13600000D01*
X16260000Y-4550000D02*
X16260000Y-4650000D01*
X16210000Y-4600000D02*
X16310000Y-4600000D01*
X16260000Y-13550000D02*
X16260000Y-13650000D01*
X16210000Y-13600000D02*
X16310000Y-13600000D01*
X16514000Y-4550000D02*
X16514000Y-4650000D01*
X16464000Y-4600000D02*
X16564000Y-4600000D01*
X16514000Y-13550000D02*
X16514000Y-13650000D01*
X16464000Y-13600000D02*
X16564000Y-13600000D01*
X16768000Y-4550000D02*
X16768000Y-4650000D01*
X16718000Y-4600000D02*
X16818000Y-4600000D01*
X16768000Y-13550000D02*
X16768000Y-13650000D01*
X16718000Y-13600000D02*
X16818000Y-13600000D01*
X17022000Y-4550000D02*
X17022000Y-4650000D01*
X16972000Y-4600000D02*
X17072000Y-4600000D01*
X17022000Y-13550000D02*
X17022000Y-13650000D01*
X16972000Y-13600000D02*
X17072000Y-13600000D01*
X17276000Y-4550000D02*
X17276000Y-4650000D01*
X17226000Y-4600000D02*
X17326000Y-4600000D01*
X17276000Y-13550000D02*
X17276000Y-13650000D01*
X17226000Y-13600000D02*
X17326000Y-13600000D01*
X17530000Y-4550000D02*
X17530000Y-4650000D01*
X17480000Y-4600000D02*
X17580000Y-4600000D01*
X17530000Y-13550000D02*
X17530000Y-13650000D01*
X17480000Y-13600000D02*
X17580000Y-13600000D01*
X17784000Y-4550000D02*
X17784000Y-4650000D01*
X17734000Y-4600000D02*
X17834000Y-4600000D01*
X17784000Y-13550000D02*
X17784000Y-13650000D01*
X17734000Y-13600000D02*
X17834000Y-13600000D01*
X18036000Y-5710000D02*
X18036000Y-5810000D01*
X17986000Y-5760000D02*
X18086000Y-5760000D01*
X18036000Y-5964000D02*
X18036000Y-6064000D01*
X17986000Y-6014000D02*
X18086000Y-6014000D01*
X18036000Y-6218000D02*
X18036000Y-6318000D01*
X17986000Y-6268000D02*
X18086000Y-6268000D01*
X18036000Y-6472000D02*
X18036000Y-6572000D01*
X17986000Y-6522000D02*
X18086000Y-6522000D01*
X18036000Y-6726000D02*
X18036000Y-6826000D01*
X17986000Y-6776000D02*
X18086000Y-6776000D01*
X18036000Y-6980000D02*
X18036000Y-7080000D01*
X17986000Y-7030000D02*
X18086000Y-7030000D01*
X18036000Y-7234000D02*
X18036000Y-7334000D01*
X17986000Y-7284000D02*
X18086000Y-7284000D01*
X18036000Y-7488000D02*
X18036000Y-7588000D01*
X17986000Y-7538000D02*
X18086000Y-7538000D01*
X18036000Y-10610000D02*
X18036000Y-10710000D01*
X17986000Y-10660000D02*
X18086000Y-10660000D01*
X18036000Y-10864000D02*
X18036000Y-10964000D01*
X17986000Y-10914000D02*
X18086000Y-10914000D01*
X18036000Y-11118000D02*
X18036000Y-11218000D01*
X17986000Y-11168000D02*
X18086000Y-11168000D01*
X18036000Y-11372000D02*
X18036000Y-11472000D01*
X17986000Y-11422000D02*
X18086000Y-11422000D01*
X18036000Y-11626000D02*
X18036000Y-11726000D01*
X17986000Y-11676000D02*
X18086000Y-11676000D01*
X18036000Y-11880000D02*
X18036000Y-11980000D01*
X17986000Y-11930000D02*
X18086000Y-11930000D01*
X18036000Y-12134000D02*
X18036000Y-12234000D01*
X17986000Y-12184000D02*
X18086000Y-12184000D01*
X18036000Y-12388000D02*
X18036000Y-12488000D01*
X17986000Y-12438000D02*
X18086000Y-12438000D01*
X18038000Y-4550000D02*
X18038000Y-4650000D01*
X17988000Y-4600000D02*
X18088000Y-4600000D01*
X18038000Y-13550000D02*
X18038000Y-13650000D01*
X17988000Y-13600000D02*
X18088000Y-13600000D01*
X18290000Y-5710000D02*
X18290000Y-5810000D01*
X18240000Y-5760000D02*
X18340000Y-5760000D01*
X18290000Y-5964000D02*
X18290000Y-6064000D01*
X18240000Y-6014000D02*
X18340000Y-6014000D01*
X18290000Y-6218000D02*
X18290000Y-6318000D01*
X18240000Y-6268000D02*
X18340000Y-6268000D01*
X18290000Y-6472000D02*
X18290000Y-6572000D01*
X18240000Y-6522000D02*
X18340000Y-6522000D01*
X18290000Y-6726000D02*
X18290000Y-6826000D01*
X18240000Y-6776000D02*
X18340000Y-6776000D01*
X18290000Y-6980000D02*
X18290000Y-7080000D01*
X18240000Y-7030000D02*
X18340000Y-7030000D01*
X18290000Y-7234000D02*
X18290000Y-7334000D01*
X18240000Y-7284000D02*
X18340000Y-7284000D01*
X18290000Y-7488000D02*
X18290000Y-7588000D01*
X18240000Y-7538000D02*
X18340000Y-7538000D01*
X18290000Y-10610000D02*
X18290000Y-10710000D01*
X18240000Y-10660000D02*
X18340000Y-10660000D01*
X18290000Y-10864000D02*
X18290000Y-10964000D01*
X18240000Y-10914000D02*
X18340000Y-10914000D01*
X18290000Y-11118000D02*
X18290000Y-11218000D01*
X18240000Y-11168000D02*
X18340000Y-11168000D01*
X18290000Y-11372000D02*
X18290000Y-11472000D01*
X18240000Y-11422000D02*
X18340000Y-11422000D01*
X18290000Y-11626000D02*
X18290000Y-11726000D01*
X18240000Y-11676000D02*
X18340000Y-11676000D01*
X18290000Y-11880000D02*
X18290000Y-11980000D01*
X18240000Y-11930000D02*
X18340000Y-11930000D01*
X18290000Y-12134000D02*
X18290000Y-12234000D01*
X18240000Y-12184000D02*
X18340000Y-12184000D01*
X18290000Y-12388000D02*
X18290000Y-12488000D01*
X18240000Y-12438000D02*
X18340000Y-12438000D01*
X18292000Y-4550000D02*
X18292000Y-4650000D01*
X18242000Y-4600000D02*
X18342000Y-4600000D01*
X18292000Y-13550000D02*
X18292000Y-13650000D01*
X18242000Y-13600000D02*
X18342000Y-13600000D01*
X18546000Y-4550000D02*
X18546000Y-4650000D01*
X18496000Y-4600000D02*
X18596000Y-4600000D01*
X18546000Y-13550000D02*
X18546000Y-13650000D01*
X18496000Y-13600000D02*
X18596000Y-13600000D01*
D12*
X8781428Y-14370714D02*
X8781428Y-14070714D01*
X8852857Y-14070714D01*
X8895714Y-14085000D01*
X8924286Y-14113571D01*
X8938571Y-14142143D01*
X8952857Y-14199286D01*
X8952857Y-14242143D01*
X8938571Y-14299286D01*
X8924286Y-14327857D01*
X8895714Y-14356429D01*
X8852857Y-14370714D01*
X8781428Y-14370714D01*
X9081428Y-14370714D02*
X9081428Y-14170714D01*
X9081428Y-14227857D02*
X9095714Y-14199286D01*
X9110000Y-14185000D01*
X9138571Y-14170714D01*
X9167143Y-14170714D01*
X9267143Y-14370714D02*
X9267143Y-14170714D01*
X9267143Y-14070714D02*
X9252857Y-14085000D01*
X9267143Y-14099286D01*
X9281428Y-14085000D01*
X9267143Y-14070714D01*
X9267143Y-14099286D01*
X9452857Y-14370714D02*
X9424286Y-14356429D01*
X9410000Y-14327857D01*
X9410000Y-14070714D01*
X9610000Y-14370714D02*
X9581428Y-14356429D01*
X9567143Y-14327857D01*
X9567143Y-14070714D01*
X9952857Y-14370714D02*
X9952857Y-14070714D01*
X10052857Y-14285000D01*
X10152857Y-14070714D01*
X10152857Y-14370714D01*
X10424286Y-14370714D02*
X10424286Y-14213571D01*
X10410000Y-14185000D01*
X10381428Y-14170714D01*
X10324286Y-14170714D01*
X10295714Y-14185000D01*
X10424286Y-14356429D02*
X10395714Y-14370714D01*
X10324286Y-14370714D01*
X10295714Y-14356429D01*
X10281428Y-14327857D01*
X10281428Y-14299286D01*
X10295714Y-14270714D01*
X10324286Y-14256429D01*
X10395714Y-14256429D01*
X10424286Y-14242143D01*
X10567143Y-14170714D02*
X10567143Y-14470714D01*
X10567143Y-14185000D02*
X10595714Y-14170714D01*
X10652857Y-14170714D01*
X10681428Y-14185000D01*
X10695714Y-14199286D01*
X10710000Y-14227857D01*
X10710000Y-14313571D01*
X10695714Y-14342143D01*
X10681428Y-14356429D01*
X10652857Y-14370714D01*
X10595714Y-14370714D01*
X10567143Y-14356429D01*
X10838571Y-14342143D02*
X10852857Y-14356429D01*
X10838571Y-14370714D01*
X10824286Y-14356429D01*
X10838571Y-14342143D01*
X10838571Y-14370714D01*
X10838571Y-14185000D02*
X10852857Y-14199286D01*
X10838571Y-14213571D01*
X10824286Y-14199286D01*
X10838571Y-14185000D01*
X10838571Y-14213571D01*
X8455000Y-14845000D02*
X8495000Y-14885000D01*
X8495000Y-14845000D02*
X8455000Y-14885000D01*
X8838571Y-14700714D02*
X8867143Y-14700714D01*
X8895714Y-14715000D01*
X8910000Y-14729286D01*
X8924286Y-14757857D01*
X8938571Y-14815000D01*
X8938571Y-14886429D01*
X8924286Y-14943571D01*
X8910000Y-14972143D01*
X8895714Y-14986429D01*
X8867143Y-15000714D01*
X8838571Y-15000714D01*
X8810000Y-14986429D01*
X8795714Y-14972143D01*
X8781428Y-14943571D01*
X8767143Y-14886429D01*
X8767143Y-14815000D01*
X8781428Y-14757857D01*
X8795714Y-14729286D01*
X8810000Y-14715000D01*
X8838571Y-14700714D01*
X9067143Y-14972143D02*
X9081428Y-14986429D01*
X9067143Y-15000714D01*
X9052857Y-14986429D01*
X9067143Y-14972143D01*
X9067143Y-15000714D01*
X9338571Y-14800714D02*
X9338571Y-15000714D01*
X9267143Y-14686429D02*
X9195714Y-14900714D01*
X9381428Y-14900714D01*
X9552857Y-14700714D02*
X9581428Y-14700714D01*
X9610000Y-14715000D01*
X9624286Y-14729286D01*
X9638571Y-14757857D01*
X9652857Y-14815000D01*
X9652857Y-14886429D01*
X9638571Y-14943571D01*
X9624286Y-14972143D01*
X9610000Y-14986429D01*
X9581428Y-15000714D01*
X9552857Y-15000714D01*
X9524286Y-14986429D01*
X9510000Y-14972143D01*
X9495714Y-14943571D01*
X9481428Y-14886429D01*
X9481428Y-14815000D01*
X9495714Y-14757857D01*
X9510000Y-14729286D01*
X9524286Y-14715000D01*
X9552857Y-14700714D01*
X9781428Y-15000714D02*
X9781428Y-14800714D01*
X9781428Y-14829286D02*
X9795714Y-14815000D01*
X9824286Y-14800714D01*
X9867143Y-14800714D01*
X9895714Y-14815000D01*
X9910000Y-14843571D01*
X9910000Y-15000714D01*
X9910000Y-14843571D02*
X9924286Y-14815000D01*
X9952857Y-14800714D01*
X9995714Y-14800714D01*
X10024286Y-14815000D01*
X10038571Y-14843571D01*
X10038571Y-15000714D01*
X10181428Y-15000714D02*
X10181428Y-14800714D01*
X10181428Y-14829286D02*
X10195714Y-14815000D01*
X10224286Y-14800714D01*
X10267143Y-14800714D01*
X10295714Y-14815000D01*
X10310000Y-14843571D01*
X10310000Y-15000714D01*
X10310000Y-14843571D02*
X10324286Y-14815000D01*
X10352857Y-14800714D01*
X10395714Y-14800714D01*
X10424286Y-14815000D01*
X10438571Y-14843571D01*
X10438571Y-15000714D01*
X11024286Y-14686429D02*
X10767143Y-15072143D01*
X11410000Y-14700714D02*
X11438571Y-14700714D01*
X11467143Y-14715000D01*
X11481428Y-14729286D01*
X11495714Y-14757857D01*
X11510000Y-14815000D01*
X11510000Y-14886429D01*
X11495714Y-14943571D01*
X11481428Y-14972143D01*
X11467143Y-14986429D01*
X11438571Y-15000714D01*
X11410000Y-15000714D01*
X11381428Y-14986429D01*
X11367143Y-14972143D01*
X11352857Y-14943571D01*
X11338571Y-14886429D01*
X11338571Y-14815000D01*
X11352857Y-14757857D01*
X11367143Y-14729286D01*
X11381428Y-14715000D01*
X11410000Y-14700714D01*
X11638571Y-14972143D02*
X11652857Y-14986429D01*
X11638571Y-15000714D01*
X11624286Y-14986429D01*
X11638571Y-14972143D01*
X11638571Y-15000714D01*
X11838571Y-14700714D02*
X11867143Y-14700714D01*
X11895714Y-14715000D01*
X11910000Y-14729286D01*
X11924286Y-14757857D01*
X11938571Y-14815000D01*
X11938571Y-14886429D01*
X11924286Y-14943571D01*
X11910000Y-14972143D01*
X11895714Y-14986429D01*
X11867143Y-15000714D01*
X11838571Y-15000714D01*
X11810000Y-14986429D01*
X11795714Y-14972143D01*
X11781428Y-14943571D01*
X11767143Y-14886429D01*
X11767143Y-14815000D01*
X11781428Y-14757857D01*
X11795714Y-14729286D01*
X11810000Y-14715000D01*
X11838571Y-14700714D01*
X12224286Y-15000714D02*
X12052857Y-15000714D01*
X12138571Y-15000714D02*
X12138571Y-14700714D01*
X12110000Y-14743571D01*
X12081428Y-14772143D01*
X12052857Y-14786429D01*
X12481428Y-14700714D02*
X12424286Y-14700714D01*
X12395714Y-14715000D01*
X12381428Y-14729286D01*
X12352857Y-14772143D01*
X12338571Y-14829286D01*
X12338571Y-14943571D01*
X12352857Y-14972143D01*
X12367143Y-14986429D01*
X12395714Y-15000714D01*
X12452857Y-15000714D01*
X12481428Y-14986429D01*
X12495714Y-14972143D01*
X12510000Y-14943571D01*
X12510000Y-14872143D01*
X12495714Y-14843571D01*
X12481428Y-14829286D01*
X12452857Y-14815000D01*
X12395714Y-14815000D01*
X12367143Y-14829286D01*
X12352857Y-14843571D01*
X12338571Y-14872143D01*
X12624286Y-14700714D02*
X12624286Y-14757857D01*
X12738571Y-14700714D02*
X12738571Y-14757857D01*
X13181428Y-15115000D02*
X13167143Y-15100714D01*
X13138571Y-15057857D01*
X13124286Y-15029286D01*
X13110000Y-14986429D01*
X13095714Y-14915000D01*
X13095714Y-14857857D01*
X13110000Y-14786429D01*
X13124286Y-14743571D01*
X13138571Y-14715000D01*
X13167143Y-14672143D01*
X13181428Y-14657857D01*
X13267143Y-14700714D02*
X13452857Y-14700714D01*
X13352857Y-14815000D01*
X13395714Y-14815000D01*
X13424286Y-14829286D01*
X13438571Y-14843571D01*
X13452857Y-14872143D01*
X13452857Y-14943571D01*
X13438571Y-14972143D01*
X13424286Y-14986429D01*
X13395714Y-15000714D01*
X13310000Y-15000714D01*
X13281428Y-14986429D01*
X13267143Y-14972143D01*
X13638571Y-14700714D02*
X13667143Y-14700714D01*
X13695714Y-14715000D01*
X13710000Y-14729286D01*
X13724286Y-14757857D01*
X13738571Y-14815000D01*
X13738571Y-14886429D01*
X13724286Y-14943571D01*
X13710000Y-14972143D01*
X13695714Y-14986429D01*
X13667143Y-15000714D01*
X13638571Y-15000714D01*
X13610000Y-14986429D01*
X13595714Y-14972143D01*
X13581428Y-14943571D01*
X13567143Y-14886429D01*
X13567143Y-14815000D01*
X13581428Y-14757857D01*
X13595714Y-14729286D01*
X13610000Y-14715000D01*
X13638571Y-14700714D01*
X14095714Y-15000714D02*
X14095714Y-14700714D01*
X14224286Y-15000714D02*
X14224286Y-14843571D01*
X14210000Y-14815000D01*
X14181428Y-14800714D01*
X14138571Y-14800714D01*
X14110000Y-14815000D01*
X14095714Y-14829286D01*
X14410000Y-15000714D02*
X14381428Y-14986429D01*
X14367143Y-14972143D01*
X14352857Y-14943571D01*
X14352857Y-14857857D01*
X14367143Y-14829286D01*
X14381428Y-14815000D01*
X14410000Y-14800714D01*
X14452857Y-14800714D01*
X14481428Y-14815000D01*
X14495714Y-14829286D01*
X14510000Y-14857857D01*
X14510000Y-14943571D01*
X14495714Y-14972143D01*
X14481428Y-14986429D01*
X14452857Y-15000714D01*
X14410000Y-15000714D01*
X14681428Y-15000714D02*
X14652857Y-14986429D01*
X14638571Y-14957857D01*
X14638571Y-14700714D01*
X14910000Y-14986429D02*
X14881428Y-15000714D01*
X14824286Y-15000714D01*
X14795714Y-14986429D01*
X14781428Y-14957857D01*
X14781428Y-14843571D01*
X14795714Y-14815000D01*
X14824286Y-14800714D01*
X14881428Y-14800714D01*
X14910000Y-14815000D01*
X14924286Y-14843571D01*
X14924286Y-14872143D01*
X14781428Y-14900714D01*
X15038571Y-14986429D02*
X15067143Y-15000714D01*
X15124286Y-15000714D01*
X15152857Y-14986429D01*
X15167143Y-14957857D01*
X15167143Y-14943571D01*
X15152857Y-14915000D01*
X15124286Y-14900714D01*
X15081428Y-14900714D01*
X15052857Y-14886429D01*
X15038571Y-14857857D01*
X15038571Y-14843571D01*
X15052857Y-14815000D01*
X15081428Y-14800714D01*
X15124286Y-14800714D01*
X15152857Y-14815000D01*
X15267143Y-15115000D02*
X15281428Y-15100714D01*
X15310000Y-15057857D01*
X15324286Y-15029286D01*
X15338571Y-14986429D01*
X15352857Y-14915000D01*
X15352857Y-14857857D01*
X15338571Y-14786429D01*
X15324286Y-14743571D01*
X15310000Y-14715000D01*
X15281428Y-14672143D01*
X15267143Y-14657857D01*
X8495000Y-15261000D02*
G75*
G03*
X8495000Y-15261000I-40000J0D01*
G01*
X8838571Y-15096714D02*
X8867143Y-15096714D01*
X8895714Y-15111000D01*
X8910000Y-15125286D01*
X8924286Y-15153857D01*
X8938571Y-15211000D01*
X8938571Y-15282429D01*
X8924286Y-15339571D01*
X8910000Y-15368143D01*
X8895714Y-15382429D01*
X8867143Y-15396714D01*
X8838571Y-15396714D01*
X8810000Y-15382429D01*
X8795714Y-15368143D01*
X8781428Y-15339571D01*
X8767143Y-15282429D01*
X8767143Y-15211000D01*
X8781428Y-15153857D01*
X8795714Y-15125286D01*
X8810000Y-15111000D01*
X8838571Y-15096714D01*
X9067143Y-15368143D02*
X9081428Y-15382429D01*
X9067143Y-15396714D01*
X9052857Y-15382429D01*
X9067143Y-15368143D01*
X9067143Y-15396714D01*
X9252857Y-15225286D02*
X9224286Y-15211000D01*
X9210000Y-15196714D01*
X9195714Y-15168143D01*
X9195714Y-15153857D01*
X9210000Y-15125286D01*
X9224286Y-15111000D01*
X9252857Y-15096714D01*
X9310000Y-15096714D01*
X9338571Y-15111000D01*
X9352857Y-15125286D01*
X9367143Y-15153857D01*
X9367143Y-15168143D01*
X9352857Y-15196714D01*
X9338571Y-15211000D01*
X9310000Y-15225286D01*
X9252857Y-15225286D01*
X9224286Y-15239571D01*
X9210000Y-15253857D01*
X9195714Y-15282429D01*
X9195714Y-15339571D01*
X9210000Y-15368143D01*
X9224286Y-15382429D01*
X9252857Y-15396714D01*
X9310000Y-15396714D01*
X9338571Y-15382429D01*
X9352857Y-15368143D01*
X9367143Y-15339571D01*
X9367143Y-15282429D01*
X9352857Y-15253857D01*
X9338571Y-15239571D01*
X9310000Y-15225286D01*
X9552857Y-15096714D02*
X9581428Y-15096714D01*
X9610000Y-15111000D01*
X9624286Y-15125286D01*
X9638571Y-15153857D01*
X9652857Y-15211000D01*
X9652857Y-15282429D01*
X9638571Y-15339571D01*
X9624286Y-15368143D01*
X9610000Y-15382429D01*
X9581428Y-15396714D01*
X9552857Y-15396714D01*
X9524286Y-15382429D01*
X9510000Y-15368143D01*
X9495714Y-15339571D01*
X9481428Y-15282429D01*
X9481428Y-15211000D01*
X9495714Y-15153857D01*
X9510000Y-15125286D01*
X9524286Y-15111000D01*
X9552857Y-15096714D01*
X9781428Y-15396714D02*
X9781428Y-15196714D01*
X9781428Y-15225286D02*
X9795714Y-15211000D01*
X9824286Y-15196714D01*
X9867143Y-15196714D01*
X9895714Y-15211000D01*
X9910000Y-15239571D01*
X9910000Y-15396714D01*
X9910000Y-15239571D02*
X9924286Y-15211000D01*
X9952857Y-15196714D01*
X9995714Y-15196714D01*
X10024286Y-15211000D01*
X10038571Y-15239571D01*
X10038571Y-15396714D01*
X10181428Y-15396714D02*
X10181428Y-15196714D01*
X10181428Y-15225286D02*
X10195714Y-15211000D01*
X10224286Y-15196714D01*
X10267143Y-15196714D01*
X10295714Y-15211000D01*
X10310000Y-15239571D01*
X10310000Y-15396714D01*
X10310000Y-15239571D02*
X10324286Y-15211000D01*
X10352857Y-15196714D01*
X10395714Y-15196714D01*
X10424286Y-15211000D01*
X10438571Y-15239571D01*
X10438571Y-15396714D01*
X11024286Y-15082429D02*
X10767143Y-15468143D01*
X11410000Y-15096714D02*
X11438571Y-15096714D01*
X11467143Y-15111000D01*
X11481428Y-15125286D01*
X11495714Y-15153857D01*
X11510000Y-15211000D01*
X11510000Y-15282429D01*
X11495714Y-15339571D01*
X11481428Y-15368143D01*
X11467143Y-15382429D01*
X11438571Y-15396714D01*
X11410000Y-15396714D01*
X11381428Y-15382429D01*
X11367143Y-15368143D01*
X11352857Y-15339571D01*
X11338571Y-15282429D01*
X11338571Y-15211000D01*
X11352857Y-15153857D01*
X11367143Y-15125286D01*
X11381428Y-15111000D01*
X11410000Y-15096714D01*
X11638571Y-15368143D02*
X11652857Y-15382429D01*
X11638571Y-15396714D01*
X11624286Y-15382429D01*
X11638571Y-15368143D01*
X11638571Y-15396714D01*
X11838571Y-15096714D02*
X11867143Y-15096714D01*
X11895714Y-15111000D01*
X11910000Y-15125286D01*
X11924286Y-15153857D01*
X11938571Y-15211000D01*
X11938571Y-15282429D01*
X11924286Y-15339571D01*
X11910000Y-15368143D01*
X11895714Y-15382429D01*
X11867143Y-15396714D01*
X11838571Y-15396714D01*
X11810000Y-15382429D01*
X11795714Y-15368143D01*
X11781428Y-15339571D01*
X11767143Y-15282429D01*
X11767143Y-15211000D01*
X11781428Y-15153857D01*
X11795714Y-15125286D01*
X11810000Y-15111000D01*
X11838571Y-15096714D01*
X12038571Y-15096714D02*
X12224286Y-15096714D01*
X12124286Y-15211000D01*
X12167143Y-15211000D01*
X12195714Y-15225286D01*
X12210000Y-15239571D01*
X12224286Y-15268143D01*
X12224286Y-15339571D01*
X12210000Y-15368143D01*
X12195714Y-15382429D01*
X12167143Y-15396714D01*
X12081428Y-15396714D01*
X12052857Y-15382429D01*
X12038571Y-15368143D01*
X12510000Y-15396714D02*
X12338571Y-15396714D01*
X12424286Y-15396714D02*
X12424286Y-15096714D01*
X12395714Y-15139571D01*
X12367143Y-15168143D01*
X12338571Y-15182429D01*
X12624286Y-15096714D02*
X12624286Y-15153857D01*
X12738571Y-15096714D02*
X12738571Y-15153857D01*
X13181428Y-15511000D02*
X13167143Y-15496714D01*
X13138571Y-15453857D01*
X13124286Y-15425286D01*
X13110000Y-15382429D01*
X13095714Y-15311000D01*
X13095714Y-15253857D01*
X13110000Y-15182429D01*
X13124286Y-15139571D01*
X13138571Y-15111000D01*
X13167143Y-15068143D01*
X13181428Y-15053857D01*
X13452857Y-15396714D02*
X13281428Y-15396714D01*
X13367143Y-15396714D02*
X13367143Y-15096714D01*
X13338571Y-15139571D01*
X13310000Y-15168143D01*
X13281428Y-15182429D01*
X13552857Y-15096714D02*
X13738571Y-15096714D01*
X13638571Y-15211000D01*
X13681428Y-15211000D01*
X13710000Y-15225286D01*
X13724286Y-15239571D01*
X13738571Y-15268143D01*
X13738571Y-15339571D01*
X13724286Y-15368143D01*
X13710000Y-15382429D01*
X13681428Y-15396714D01*
X13595714Y-15396714D01*
X13567143Y-15382429D01*
X13552857Y-15368143D01*
X13852857Y-15125286D02*
X13867143Y-15111000D01*
X13895714Y-15096714D01*
X13967143Y-15096714D01*
X13995714Y-15111000D01*
X14010000Y-15125286D01*
X14024286Y-15153857D01*
X14024286Y-15182429D01*
X14010000Y-15225286D01*
X13838571Y-15396714D01*
X14024286Y-15396714D01*
X14381428Y-15396714D02*
X14381428Y-15096714D01*
X14510000Y-15396714D02*
X14510000Y-15239571D01*
X14495714Y-15211000D01*
X14467143Y-15196714D01*
X14424286Y-15196714D01*
X14395714Y-15211000D01*
X14381428Y-15225286D01*
X14695714Y-15396714D02*
X14667143Y-15382429D01*
X14652857Y-15368143D01*
X14638571Y-15339571D01*
X14638571Y-15253857D01*
X14652857Y-15225286D01*
X14667143Y-15211000D01*
X14695714Y-15196714D01*
X14738571Y-15196714D01*
X14767143Y-15211000D01*
X14781428Y-15225286D01*
X14795714Y-15253857D01*
X14795714Y-15339571D01*
X14781428Y-15368143D01*
X14767143Y-15382429D01*
X14738571Y-15396714D01*
X14695714Y-15396714D01*
X14967143Y-15396714D02*
X14938571Y-15382429D01*
X14924286Y-15353857D01*
X14924286Y-15096714D01*
X15195714Y-15382429D02*
X15167143Y-15396714D01*
X15110000Y-15396714D01*
X15081428Y-15382429D01*
X15067143Y-15353857D01*
X15067143Y-15239571D01*
X15081428Y-15211000D01*
X15110000Y-15196714D01*
X15167143Y-15196714D01*
X15195714Y-15211000D01*
X15210000Y-15239571D01*
X15210000Y-15268143D01*
X15067143Y-15296714D01*
X15324286Y-15382429D02*
X15352857Y-15396714D01*
X15410000Y-15396714D01*
X15438571Y-15382429D01*
X15452857Y-15353857D01*
X15452857Y-15339571D01*
X15438571Y-15311000D01*
X15410000Y-15296714D01*
X15367143Y-15296714D01*
X15338571Y-15282429D01*
X15324286Y-15253857D01*
X15324286Y-15239571D01*
X15338571Y-15211000D01*
X15367143Y-15196714D01*
X15410000Y-15196714D01*
X15438571Y-15211000D01*
X15552857Y-15511000D02*
X15567143Y-15496714D01*
X15595714Y-15453857D01*
X15610000Y-15425286D01*
X15624286Y-15382429D01*
X15638571Y-15311000D01*
X15638571Y-15253857D01*
X15624286Y-15182429D01*
X15610000Y-15139571D01*
X15595714Y-15111000D01*
X15567143Y-15068143D01*
X15552857Y-15053857D01*
X8445000Y-15607000D02*
X8445000Y-15707000D01*
X8395000Y-15657000D02*
X8495000Y-15657000D01*
X8938571Y-15792714D02*
X8767143Y-15792714D01*
X8852857Y-15792714D02*
X8852857Y-15492714D01*
X8824286Y-15535571D01*
X8795714Y-15564143D01*
X8767143Y-15578429D01*
X9067143Y-15764143D02*
X9081428Y-15778429D01*
X9067143Y-15792714D01*
X9052857Y-15778429D01*
X9067143Y-15764143D01*
X9067143Y-15792714D01*
X9267143Y-15492714D02*
X9295714Y-15492714D01*
X9324286Y-15507000D01*
X9338571Y-15521286D01*
X9352857Y-15549857D01*
X9367143Y-15607000D01*
X9367143Y-15678429D01*
X9352857Y-15735571D01*
X9338571Y-15764143D01*
X9324286Y-15778429D01*
X9295714Y-15792714D01*
X9267143Y-15792714D01*
X9238571Y-15778429D01*
X9224286Y-15764143D01*
X9210000Y-15735571D01*
X9195714Y-15678429D01*
X9195714Y-15607000D01*
X9210000Y-15549857D01*
X9224286Y-15521286D01*
X9238571Y-15507000D01*
X9267143Y-15492714D01*
X9552857Y-15492714D02*
X9581428Y-15492714D01*
X9610000Y-15507000D01*
X9624286Y-15521286D01*
X9638571Y-15549857D01*
X9652857Y-15607000D01*
X9652857Y-15678429D01*
X9638571Y-15735571D01*
X9624286Y-15764143D01*
X9610000Y-15778429D01*
X9581428Y-15792714D01*
X9552857Y-15792714D01*
X9524286Y-15778429D01*
X9510000Y-15764143D01*
X9495714Y-15735571D01*
X9481428Y-15678429D01*
X9481428Y-15607000D01*
X9495714Y-15549857D01*
X9510000Y-15521286D01*
X9524286Y-15507000D01*
X9552857Y-15492714D01*
X9781428Y-15792714D02*
X9781428Y-15592714D01*
X9781428Y-15621286D02*
X9795714Y-15607000D01*
X9824286Y-15592714D01*
X9867143Y-15592714D01*
X9895714Y-15607000D01*
X9910000Y-15635571D01*
X9910000Y-15792714D01*
X9910000Y-15635571D02*
X9924286Y-15607000D01*
X9952857Y-15592714D01*
X9995714Y-15592714D01*
X10024286Y-15607000D01*
X10038571Y-15635571D01*
X10038571Y-15792714D01*
X10181428Y-15792714D02*
X10181428Y-15592714D01*
X10181428Y-15621286D02*
X10195714Y-15607000D01*
X10224286Y-15592714D01*
X10267143Y-15592714D01*
X10295714Y-15607000D01*
X10310000Y-15635571D01*
X10310000Y-15792714D01*
X10310000Y-15635571D02*
X10324286Y-15607000D01*
X10352857Y-15592714D01*
X10395714Y-15592714D01*
X10424286Y-15607000D01*
X10438571Y-15635571D01*
X10438571Y-15792714D01*
X11024286Y-15478429D02*
X10767143Y-15864143D01*
X11410000Y-15492714D02*
X11438571Y-15492714D01*
X11467143Y-15507000D01*
X11481428Y-15521286D01*
X11495714Y-15549857D01*
X11510000Y-15607000D01*
X11510000Y-15678429D01*
X11495714Y-15735571D01*
X11481428Y-15764143D01*
X11467143Y-15778429D01*
X11438571Y-15792714D01*
X11410000Y-15792714D01*
X11381428Y-15778429D01*
X11367143Y-15764143D01*
X11352857Y-15735571D01*
X11338571Y-15678429D01*
X11338571Y-15607000D01*
X11352857Y-15549857D01*
X11367143Y-15521286D01*
X11381428Y-15507000D01*
X11410000Y-15492714D01*
X11638571Y-15764143D02*
X11652857Y-15778429D01*
X11638571Y-15792714D01*
X11624286Y-15778429D01*
X11638571Y-15764143D01*
X11638571Y-15792714D01*
X11838571Y-15492714D02*
X11867143Y-15492714D01*
X11895714Y-15507000D01*
X11910000Y-15521286D01*
X11924286Y-15549857D01*
X11938571Y-15607000D01*
X11938571Y-15678429D01*
X11924286Y-15735571D01*
X11910000Y-15764143D01*
X11895714Y-15778429D01*
X11867143Y-15792714D01*
X11838571Y-15792714D01*
X11810000Y-15778429D01*
X11795714Y-15764143D01*
X11781428Y-15735571D01*
X11767143Y-15678429D01*
X11767143Y-15607000D01*
X11781428Y-15549857D01*
X11795714Y-15521286D01*
X11810000Y-15507000D01*
X11838571Y-15492714D01*
X12038571Y-15492714D02*
X12224286Y-15492714D01*
X12124286Y-15607000D01*
X12167143Y-15607000D01*
X12195714Y-15621286D01*
X12210000Y-15635571D01*
X12224286Y-15664143D01*
X12224286Y-15735571D01*
X12210000Y-15764143D01*
X12195714Y-15778429D01*
X12167143Y-15792714D01*
X12081428Y-15792714D01*
X12052857Y-15778429D01*
X12038571Y-15764143D01*
X12367143Y-15792714D02*
X12424286Y-15792714D01*
X12452857Y-15778429D01*
X12467143Y-15764143D01*
X12495714Y-15721286D01*
X12510000Y-15664143D01*
X12510000Y-15549857D01*
X12495714Y-15521286D01*
X12481428Y-15507000D01*
X12452857Y-15492714D01*
X12395714Y-15492714D01*
X12367143Y-15507000D01*
X12352857Y-15521286D01*
X12338571Y-15549857D01*
X12338571Y-15621286D01*
X12352857Y-15649857D01*
X12367143Y-15664143D01*
X12395714Y-15678429D01*
X12452857Y-15678429D01*
X12481428Y-15664143D01*
X12495714Y-15649857D01*
X12510000Y-15621286D01*
X12624286Y-15492714D02*
X12624286Y-15549857D01*
X12738571Y-15492714D02*
X12738571Y-15549857D01*
X13181428Y-15907000D02*
X13167143Y-15892714D01*
X13138571Y-15849857D01*
X13124286Y-15821286D01*
X13110000Y-15778429D01*
X13095714Y-15707000D01*
X13095714Y-15649857D01*
X13110000Y-15578429D01*
X13124286Y-15535571D01*
X13138571Y-15507000D01*
X13167143Y-15464143D01*
X13181428Y-15449857D01*
X13452857Y-15792714D02*
X13281428Y-15792714D01*
X13367143Y-15792714D02*
X13367143Y-15492714D01*
X13338571Y-15535571D01*
X13310000Y-15564143D01*
X13281428Y-15578429D01*
X13738571Y-15792714D02*
X13567143Y-15792714D01*
X13652857Y-15792714D02*
X13652857Y-15492714D01*
X13624286Y-15535571D01*
X13595714Y-15564143D01*
X13567143Y-15578429D01*
X13852857Y-15521286D02*
X13867143Y-15507000D01*
X13895714Y-15492714D01*
X13967143Y-15492714D01*
X13995714Y-15507000D01*
X14010000Y-15521286D01*
X14024286Y-15549857D01*
X14024286Y-15578429D01*
X14010000Y-15621286D01*
X13838571Y-15792714D01*
X14024286Y-15792714D01*
X14381428Y-15792714D02*
X14381428Y-15492714D01*
X14510000Y-15792714D02*
X14510000Y-15635571D01*
X14495714Y-15607000D01*
X14467143Y-15592714D01*
X14424286Y-15592714D01*
X14395714Y-15607000D01*
X14381428Y-15621286D01*
X14695714Y-15792714D02*
X14667143Y-15778429D01*
X14652857Y-15764143D01*
X14638571Y-15735571D01*
X14638571Y-15649857D01*
X14652857Y-15621286D01*
X14667143Y-15607000D01*
X14695714Y-15592714D01*
X14738571Y-15592714D01*
X14767143Y-15607000D01*
X14781428Y-15621286D01*
X14795714Y-15649857D01*
X14795714Y-15735571D01*
X14781428Y-15764143D01*
X14767143Y-15778429D01*
X14738571Y-15792714D01*
X14695714Y-15792714D01*
X14967143Y-15792714D02*
X14938571Y-15778429D01*
X14924286Y-15749857D01*
X14924286Y-15492714D01*
X15195714Y-15778429D02*
X15167143Y-15792714D01*
X15110000Y-15792714D01*
X15081428Y-15778429D01*
X15067143Y-15749857D01*
X15067143Y-15635571D01*
X15081428Y-15607000D01*
X15110000Y-15592714D01*
X15167143Y-15592714D01*
X15195714Y-15607000D01*
X15210000Y-15635571D01*
X15210000Y-15664143D01*
X15067143Y-15692714D01*
X15324286Y-15778429D02*
X15352857Y-15792714D01*
X15410000Y-15792714D01*
X15438571Y-15778429D01*
X15452857Y-15749857D01*
X15452857Y-15735571D01*
X15438571Y-15707000D01*
X15410000Y-15692714D01*
X15367143Y-15692714D01*
X15338571Y-15678429D01*
X15324286Y-15649857D01*
X15324286Y-15635571D01*
X15338571Y-15607000D01*
X15367143Y-15592714D01*
X15410000Y-15592714D01*
X15438571Y-15607000D01*
X15552857Y-15907000D02*
X15567143Y-15892714D01*
X15595714Y-15849857D01*
X15610000Y-15821286D01*
X15624286Y-15778429D01*
X15638571Y-15707000D01*
X15638571Y-15649857D01*
X15624286Y-15578429D01*
X15610000Y-15535571D01*
X15595714Y-15507000D01*
X15567143Y-15464143D01*
X15552857Y-15449857D01*
M02*
