G04 #@! TF.GenerationSoftware,KiCad,Pcbnew,(5.1.9)-1*
G04 #@! TF.CreationDate,2021-11-21T15:00:31-05:00*
G04 #@! TF.ProjectId,ab-register,61622d72-6567-4697-9374-65722e6b6963,2.0*
G04 #@! TF.SameCoordinates,Original*
G04 #@! TF.FileFunction,Copper,L2,Bot*
G04 #@! TF.FilePolarity,Positive*
%FSLAX46Y46*%
G04 Gerber Fmt 4.6, Leading zero omitted, Abs format (unit mm)*
G04 Created by KiCad (PCBNEW (5.1.9)-1) date 2021-11-21 15:00:31*
%MOMM*%
%LPD*%
G01*
G04 APERTURE LIST*
G04 #@! TA.AperFunction,ComponentPad*
%ADD10O,1.600000X1.600000*%
G04 #@! TD*
G04 #@! TA.AperFunction,ComponentPad*
%ADD11R,1.600000X1.600000*%
G04 #@! TD*
G04 #@! TA.AperFunction,ComponentPad*
%ADD12O,1.700000X1.700000*%
G04 #@! TD*
G04 #@! TA.AperFunction,ComponentPad*
%ADD13R,1.700000X1.700000*%
G04 #@! TD*
G04 #@! TA.AperFunction,ViaPad*
%ADD14C,0.800000*%
G04 #@! TD*
G04 #@! TA.AperFunction,Conductor*
%ADD15C,0.250000*%
G04 #@! TD*
G04 #@! TA.AperFunction,Conductor*
%ADD16C,0.254000*%
G04 #@! TD*
G04 #@! TA.AperFunction,Conductor*
%ADD17C,0.100000*%
G04 #@! TD*
G04 APERTURE END LIST*
D10*
X139700000Y-51080000D03*
X157480000Y-58700000D03*
X142240000Y-51080000D03*
X154940000Y-58700000D03*
X144780000Y-51080000D03*
X152400000Y-58700000D03*
X147320000Y-51080000D03*
X149860000Y-58700000D03*
X149860000Y-51080000D03*
X147320000Y-58700000D03*
X152400000Y-51080000D03*
X144780000Y-58700000D03*
X154940000Y-51080000D03*
X142240000Y-58700000D03*
X157480000Y-51080000D03*
D11*
X139700000Y-58700000D03*
D10*
X139700000Y-124280000D03*
X157480000Y-131900000D03*
X142240000Y-124280000D03*
X154940000Y-131900000D03*
X144780000Y-124280000D03*
X152400000Y-131900000D03*
X147320000Y-124280000D03*
X149860000Y-131900000D03*
X149860000Y-124280000D03*
X147320000Y-131900000D03*
X152400000Y-124280000D03*
X144780000Y-131900000D03*
X154940000Y-124280000D03*
X142240000Y-131900000D03*
X157480000Y-124280000D03*
D11*
X139700000Y-131900000D03*
D10*
X94100000Y-101680000D03*
X116960000Y-109300000D03*
X96640000Y-101680000D03*
X114420000Y-109300000D03*
X99180000Y-101680000D03*
X111880000Y-109300000D03*
X101720000Y-101680000D03*
X109340000Y-109300000D03*
X104260000Y-101680000D03*
X106800000Y-109300000D03*
X106800000Y-101680000D03*
X104260000Y-109300000D03*
X109340000Y-101680000D03*
X101720000Y-109300000D03*
X111880000Y-101680000D03*
X99180000Y-109300000D03*
X114420000Y-101680000D03*
X96640000Y-109300000D03*
X116960000Y-101680000D03*
D11*
X94100000Y-109300000D03*
D10*
X94100000Y-56880000D03*
X116960000Y-64500000D03*
X96640000Y-56880000D03*
X114420000Y-64500000D03*
X99180000Y-56880000D03*
X111880000Y-64500000D03*
X101720000Y-56880000D03*
X109340000Y-64500000D03*
X104260000Y-56880000D03*
X106800000Y-64500000D03*
X106800000Y-56880000D03*
X104260000Y-64500000D03*
X109340000Y-56880000D03*
X101720000Y-64500000D03*
X111880000Y-56880000D03*
X99180000Y-64500000D03*
X114420000Y-56880000D03*
X96640000Y-64500000D03*
X116960000Y-56880000D03*
D11*
X94100000Y-64500000D03*
D10*
X94100000Y-69380000D03*
X116960000Y-77000000D03*
X96640000Y-69380000D03*
X114420000Y-77000000D03*
X99180000Y-69380000D03*
X111880000Y-77000000D03*
X101720000Y-69380000D03*
X109340000Y-77000000D03*
X104260000Y-69380000D03*
X106800000Y-77000000D03*
X106800000Y-69380000D03*
X104260000Y-77000000D03*
X109340000Y-69380000D03*
X101720000Y-77000000D03*
X111880000Y-69380000D03*
X99180000Y-77000000D03*
X114420000Y-69380000D03*
X96640000Y-77000000D03*
X116960000Y-69380000D03*
D11*
X94100000Y-77000000D03*
D12*
X180360000Y-124380000D03*
X182900000Y-124380000D03*
X180360000Y-121840000D03*
X182900000Y-121840000D03*
X180360000Y-119300000D03*
X182900000Y-119300000D03*
X180360000Y-116760000D03*
X182900000Y-116760000D03*
X180360000Y-114220000D03*
X182900000Y-114220000D03*
X180360000Y-111680000D03*
X182900000Y-111680000D03*
X180360000Y-109140000D03*
X182900000Y-109140000D03*
X180360000Y-106600000D03*
D13*
X182900000Y-106600000D03*
D10*
X94100000Y-116180000D03*
X116960000Y-123800000D03*
X96640000Y-116180000D03*
X114420000Y-123800000D03*
X99180000Y-116180000D03*
X111880000Y-123800000D03*
X101720000Y-116180000D03*
X109340000Y-123800000D03*
X104260000Y-116180000D03*
X106800000Y-123800000D03*
X106800000Y-116180000D03*
X104260000Y-123800000D03*
X109340000Y-116180000D03*
X101720000Y-123800000D03*
X111880000Y-116180000D03*
X99180000Y-123800000D03*
X114420000Y-116180000D03*
X96640000Y-123800000D03*
X116960000Y-116180000D03*
D11*
X94100000Y-123800000D03*
D10*
X94100000Y-85880000D03*
X116960000Y-93500000D03*
X96640000Y-85880000D03*
X114420000Y-93500000D03*
X99180000Y-85880000D03*
X111880000Y-93500000D03*
X101720000Y-85880000D03*
X109340000Y-93500000D03*
X104260000Y-85880000D03*
X106800000Y-93500000D03*
X106800000Y-85880000D03*
X104260000Y-93500000D03*
X109340000Y-85880000D03*
X101720000Y-93500000D03*
X111880000Y-85880000D03*
X99180000Y-93500000D03*
X114420000Y-85880000D03*
X96640000Y-93500000D03*
X116960000Y-85880000D03*
D11*
X94100000Y-93500000D03*
D12*
X180360000Y-75380000D03*
X182900000Y-75380000D03*
X180360000Y-72840000D03*
X182900000Y-72840000D03*
X180360000Y-70300000D03*
X182900000Y-70300000D03*
X180360000Y-67760000D03*
X182900000Y-67760000D03*
X180360000Y-65220000D03*
X182900000Y-65220000D03*
X180360000Y-62680000D03*
X182900000Y-62680000D03*
X180360000Y-60140000D03*
X182900000Y-60140000D03*
X180360000Y-57600000D03*
D13*
X182900000Y-57600000D03*
D12*
X185460000Y-136000000D03*
X182920000Y-136000000D03*
X180380000Y-136000000D03*
X177840000Y-136000000D03*
X175300000Y-136000000D03*
X172760000Y-136000000D03*
X170220000Y-136000000D03*
X167680000Y-136000000D03*
X165140000Y-136000000D03*
X162600000Y-136000000D03*
X160060000Y-136000000D03*
X157520000Y-136000000D03*
X154980000Y-136000000D03*
X152440000Y-136000000D03*
X149900000Y-136000000D03*
X147360000Y-136000000D03*
X144820000Y-136000000D03*
X142280000Y-136000000D03*
X139740000Y-136000000D03*
X137200000Y-136000000D03*
X134660000Y-136000000D03*
X132120000Y-136000000D03*
X129580000Y-136000000D03*
X127040000Y-136000000D03*
X124500000Y-136000000D03*
X121960000Y-136000000D03*
X119420000Y-136000000D03*
X116880000Y-136000000D03*
X114340000Y-136000000D03*
X111800000Y-136000000D03*
X109260000Y-136000000D03*
X106720000Y-136000000D03*
X104180000Y-136000000D03*
X101640000Y-136000000D03*
X99100000Y-136000000D03*
X96560000Y-136000000D03*
X94020000Y-136000000D03*
X91480000Y-136000000D03*
X88940000Y-136000000D03*
D13*
X86400000Y-136000000D03*
D12*
X185460000Y-46000000D03*
X182920000Y-46000000D03*
X180380000Y-46000000D03*
X177840000Y-46000000D03*
X175300000Y-46000000D03*
X172760000Y-46000000D03*
X170220000Y-46000000D03*
X167680000Y-46000000D03*
X165140000Y-46000000D03*
X162600000Y-46000000D03*
X160060000Y-46000000D03*
X157520000Y-46000000D03*
X154980000Y-46000000D03*
X152440000Y-46000000D03*
X149900000Y-46000000D03*
X147360000Y-46000000D03*
X144820000Y-46000000D03*
X142280000Y-46000000D03*
X139740000Y-46000000D03*
X137200000Y-46000000D03*
X134660000Y-46000000D03*
X132120000Y-46000000D03*
X129580000Y-46000000D03*
X127040000Y-46000000D03*
X124500000Y-46000000D03*
X121960000Y-46000000D03*
X119420000Y-46000000D03*
X116880000Y-46000000D03*
X114340000Y-46000000D03*
X111800000Y-46000000D03*
X109260000Y-46000000D03*
X106720000Y-46000000D03*
X104180000Y-46000000D03*
X101640000Y-46000000D03*
X99100000Y-46000000D03*
X96560000Y-46000000D03*
X94020000Y-46000000D03*
X91480000Y-46000000D03*
X88940000Y-46000000D03*
D13*
X86400000Y-46000000D03*
D14*
X138700000Y-63200000D03*
X134700000Y-111300000D03*
X126700000Y-48100000D03*
X182950000Y-81350000D03*
X183000000Y-100100004D03*
X141100000Y-67100000D03*
X148500000Y-70074924D03*
X141200000Y-114100000D03*
X96600000Y-104600000D03*
X123000000Y-104600000D03*
X135050000Y-92550000D03*
X156300000Y-92500000D03*
X132900000Y-116600000D03*
X176399998Y-53800002D03*
X177300000Y-53200000D03*
X164400000Y-123200000D03*
X165900000Y-124300000D03*
X174625000Y-55325000D03*
X173900000Y-56100000D03*
X175500000Y-54600000D03*
X166000000Y-129700000D03*
X162600000Y-122499998D03*
X161299998Y-121774988D03*
X123199998Y-115500000D03*
X121900000Y-103799998D03*
X180300000Y-95600000D03*
X121200000Y-102805001D03*
X130700000Y-93300000D03*
X178200000Y-57900000D03*
X157025000Y-70000000D03*
D15*
X116960000Y-69380000D02*
X119500000Y-66840000D01*
X119500000Y-55300000D02*
X126700000Y-48100000D01*
X119500000Y-66840000D02*
X119500000Y-55300000D01*
X118535011Y-116269991D02*
X118535011Y-87455011D01*
X115704999Y-119100003D02*
X118535011Y-116269991D01*
X115704999Y-136564001D02*
X115704999Y-119100003D01*
X116315999Y-137175001D02*
X115704999Y-136564001D01*
X118535011Y-87455011D02*
X116960000Y-85880000D01*
X174124999Y-137175001D02*
X116315999Y-137175001D01*
X175300000Y-136000000D02*
X174124999Y-137175001D01*
X114420000Y-133380000D02*
X111800000Y-136000000D01*
X114420000Y-123920000D02*
X114420000Y-133380000D01*
X114420000Y-114276410D02*
X114420000Y-109300000D01*
X113294999Y-115401411D02*
X114420000Y-114276410D01*
X113294999Y-122674999D02*
X113294999Y-115401411D01*
X114420000Y-123800000D02*
X113294999Y-122674999D01*
X115545001Y-102220001D02*
X115545001Y-89545001D01*
X115545001Y-89545001D02*
X111880000Y-85880000D01*
X114420000Y-103345002D02*
X115545001Y-102220001D01*
X114420000Y-109300000D02*
X114420000Y-103345002D01*
X111800000Y-51720000D02*
X116960000Y-56880000D01*
X111800000Y-46000000D02*
X111800000Y-51720000D01*
X115834999Y-65425001D02*
X111880000Y-69380000D01*
X115834999Y-58005001D02*
X115834999Y-65425001D01*
X116960000Y-56880000D02*
X115834999Y-58005001D01*
X111880000Y-133380000D02*
X109260000Y-136000000D01*
X111880000Y-123920000D02*
X111880000Y-133380000D01*
X110754999Y-115401411D02*
X111880000Y-114276410D01*
X111880000Y-114276410D02*
X111880000Y-109300000D01*
X110754999Y-122674999D02*
X110754999Y-115401411D01*
X111880000Y-123800000D02*
X110754999Y-122674999D01*
X113005001Y-102220001D02*
X113005001Y-94625001D01*
X113005001Y-94625001D02*
X111880000Y-93500000D01*
X111880000Y-103345002D02*
X113005001Y-102220001D01*
X111880000Y-109300000D02*
X111880000Y-103345002D01*
X109260000Y-51720000D02*
X114420000Y-56880000D01*
X109260000Y-46000000D02*
X109260000Y-51720000D01*
X110754999Y-75874999D02*
X111880000Y-77000000D01*
X110754999Y-68839999D02*
X110754999Y-75874999D01*
X113294999Y-66299999D02*
X110754999Y-68839999D01*
X113294999Y-58005001D02*
X113294999Y-66299999D01*
X114420000Y-56880000D02*
X113294999Y-58005001D01*
X109340000Y-133380000D02*
X106720000Y-136000000D01*
X109340000Y-123920000D02*
X109340000Y-133380000D01*
X109340000Y-114276410D02*
X109340000Y-109300000D01*
X108214999Y-115401411D02*
X109340000Y-114276410D01*
X108214999Y-122674999D02*
X108214999Y-115401411D01*
X109340000Y-123800000D02*
X108214999Y-122674999D01*
X110465001Y-87005001D02*
X109340000Y-85880000D01*
X110465001Y-102234999D02*
X110465001Y-87005001D01*
X109340000Y-103360000D02*
X110465001Y-102234999D01*
X109340000Y-109300000D02*
X109340000Y-103360000D01*
X106720000Y-51720000D02*
X111880000Y-56880000D01*
X106720000Y-46000000D02*
X106720000Y-51720000D01*
X110754999Y-67965001D02*
X109340000Y-69380000D01*
X110754999Y-58005001D02*
X110754999Y-67965001D01*
X111880000Y-56880000D02*
X110754999Y-58005001D01*
X106800000Y-133380000D02*
X104180000Y-136000000D01*
X106800000Y-123920000D02*
X106800000Y-133380000D01*
X106800000Y-114276410D02*
X106800000Y-109300000D01*
X105674999Y-115401411D02*
X106800000Y-114276410D01*
X105674999Y-122674999D02*
X105674999Y-115401411D01*
X106800000Y-123800000D02*
X105674999Y-122674999D01*
X108214999Y-94625001D02*
X109340000Y-93500000D01*
X108214999Y-101930003D02*
X108214999Y-94625001D01*
X106800000Y-103345002D02*
X108214999Y-101930003D01*
X106800000Y-109300000D02*
X106800000Y-103345002D01*
X104180000Y-51720000D02*
X109340000Y-56880000D01*
X104180000Y-46000000D02*
X104180000Y-51720000D01*
X109300000Y-77000000D02*
X109340000Y-77000000D01*
X107925001Y-75625001D02*
X109300000Y-77000000D01*
X107925001Y-58294999D02*
X107925001Y-75625001D01*
X109340000Y-56880000D02*
X107925001Y-58294999D01*
X104260000Y-133380000D02*
X101640000Y-136000000D01*
X104260000Y-123920000D02*
X104260000Y-133380000D01*
X104260000Y-114276410D02*
X104260000Y-109300000D01*
X103134999Y-115401411D02*
X104260000Y-114276410D01*
X103134999Y-122674999D02*
X103134999Y-115401411D01*
X104260000Y-123800000D02*
X103134999Y-122674999D01*
X105385001Y-89545001D02*
X101720000Y-85880000D01*
X105385001Y-102220001D02*
X105385001Y-89545001D01*
X104260000Y-103345002D02*
X105385001Y-102220001D01*
X104260000Y-109300000D02*
X104260000Y-103345002D01*
X101640000Y-51720000D02*
X106800000Y-56880000D01*
X101640000Y-46000000D02*
X101640000Y-51720000D01*
X105385001Y-65714999D02*
X101720000Y-69380000D01*
X105385001Y-58294999D02*
X105385001Y-65714999D01*
X106800000Y-56880000D02*
X105385001Y-58294999D01*
X101720000Y-133380000D02*
X99100000Y-136000000D01*
X101720000Y-123920000D02*
X101720000Y-133380000D01*
X101720000Y-114276410D02*
X101720000Y-109300000D01*
X100594999Y-115401411D02*
X101720000Y-114276410D01*
X100594999Y-122674999D02*
X100594999Y-115401411D01*
X101720000Y-123800000D02*
X100594999Y-122674999D01*
X102845001Y-94625001D02*
X101720000Y-93500000D01*
X102845001Y-102220001D02*
X102845001Y-94625001D01*
X101720000Y-103345002D02*
X102845001Y-102220001D01*
X101720000Y-109300000D02*
X101720000Y-103345002D01*
X99100000Y-51720000D02*
X104260000Y-56880000D01*
X99100000Y-46000000D02*
X99100000Y-51720000D01*
X104260000Y-56880000D02*
X102845001Y-58294999D01*
X100594999Y-75874999D02*
X101720000Y-77000000D01*
X100594999Y-68839999D02*
X100594999Y-75874999D01*
X102845001Y-66589997D02*
X100594999Y-68839999D01*
X102845001Y-58294999D02*
X102845001Y-66589997D01*
X99180000Y-133380000D02*
X96560000Y-136000000D01*
X99180000Y-123920000D02*
X99180000Y-133380000D01*
X98054999Y-110425001D02*
X99180000Y-109300000D01*
X98054999Y-122674999D02*
X98054999Y-110425001D01*
X99180000Y-123800000D02*
X98054999Y-122674999D01*
X96560000Y-51720000D02*
X101720000Y-56880000D01*
X96560000Y-46000000D02*
X96560000Y-51720000D01*
X100594999Y-67965001D02*
X99180000Y-69380000D01*
X100594999Y-58005001D02*
X100594999Y-67965001D01*
X101720000Y-56880000D02*
X100594999Y-58005001D01*
X100305001Y-87005001D02*
X99180000Y-85880000D01*
X100305001Y-108174999D02*
X100305001Y-87005001D01*
X99180000Y-109300000D02*
X100305001Y-108174999D01*
X96640000Y-133380000D02*
X94020000Y-136000000D01*
X96640000Y-123920000D02*
X96640000Y-133380000D01*
X95514999Y-110425001D02*
X96640000Y-109300000D01*
X95514999Y-122674999D02*
X95514999Y-110425001D01*
X96640000Y-123800000D02*
X95514999Y-122674999D01*
X94020000Y-51720000D02*
X99180000Y-56880000D01*
X94020000Y-46000000D02*
X94020000Y-51720000D01*
X98054999Y-75874999D02*
X99180000Y-77000000D01*
X98054999Y-58005001D02*
X98054999Y-75874999D01*
X99180000Y-56880000D02*
X98054999Y-58005001D01*
X97900000Y-94780000D02*
X99180000Y-93500000D01*
X97900000Y-108173004D02*
X97900000Y-94780000D01*
X96773004Y-109300000D02*
X97900000Y-108173004D01*
X96640000Y-109300000D02*
X96773004Y-109300000D01*
X182900000Y-57600000D02*
X184099999Y-58799999D01*
X184099999Y-80200001D02*
X182950000Y-81350000D01*
X184099999Y-58799999D02*
X184099999Y-80200001D01*
X118085001Y-89545001D02*
X118085001Y-115054999D01*
X118085001Y-115054999D02*
X116960000Y-116180000D01*
X114420000Y-85880000D02*
X118085001Y-89545001D01*
X115545001Y-103094999D02*
X116960000Y-101680000D01*
X115545001Y-115054999D02*
X115545001Y-103094999D01*
X114420000Y-116180000D02*
X115545001Y-115054999D01*
X113005001Y-103094999D02*
X114420000Y-101680000D01*
X113005001Y-115054999D02*
X113005001Y-103094999D01*
X111880000Y-116180000D02*
X113005001Y-115054999D01*
X110754999Y-102805001D02*
X111880000Y-101680000D01*
X110754999Y-114765001D02*
X110754999Y-102805001D01*
X109340000Y-116180000D02*
X110754999Y-114765001D01*
X108214999Y-102805001D02*
X109340000Y-101680000D01*
X108214999Y-114765001D02*
X108214999Y-102805001D01*
X106800000Y-116180000D02*
X108214999Y-114765001D01*
X105674999Y-102805001D02*
X106800000Y-101680000D01*
X105674999Y-114765001D02*
X105674999Y-102805001D01*
X104260000Y-116180000D02*
X105674999Y-114765001D01*
X103134999Y-102805001D02*
X104260000Y-101680000D01*
X103134999Y-114765001D02*
X103134999Y-102805001D01*
X101720000Y-116180000D02*
X103134999Y-114765001D01*
X100594999Y-108521412D02*
X100920001Y-108196410D01*
X99180000Y-116180000D02*
X100594999Y-114765001D01*
X100594999Y-114765001D02*
X100594999Y-108521412D01*
X100920001Y-108196410D02*
X100920001Y-102479999D01*
X100920001Y-102479999D02*
X101720000Y-101680000D01*
X184075001Y-101175005D02*
X183000000Y-100100004D01*
X182900000Y-124380000D02*
X184075001Y-123204999D01*
X184075001Y-123204999D02*
X184075001Y-101175005D01*
X141100000Y-52220000D02*
X141100000Y-67100000D01*
X142240000Y-51080000D02*
X141100000Y-52220000D01*
X130074999Y-78125001D02*
X141100000Y-67100000D01*
X95225001Y-78125001D02*
X130074999Y-78125001D01*
X94100000Y-77000000D02*
X95225001Y-78125001D01*
X142240000Y-124280000D02*
X143365001Y-125405001D01*
X143365001Y-125405001D02*
X147860001Y-125405001D01*
X148445001Y-70129923D02*
X148500000Y-70074924D01*
X148445001Y-124820001D02*
X148445001Y-70129923D01*
X147860001Y-125405001D02*
X148445001Y-124820001D01*
X95225001Y-103225001D02*
X96600000Y-104600000D01*
X94100000Y-93500000D02*
X95225001Y-94625001D01*
X95225001Y-94625001D02*
X95225001Y-103225001D01*
X141200000Y-114100000D02*
X132500000Y-114100000D01*
X132500000Y-114100000D02*
X123000000Y-104600000D01*
X135050000Y-92550000D02*
X123000000Y-104600000D01*
X147605001Y-52205001D02*
X145905001Y-52205001D01*
X145905001Y-52205001D02*
X144780000Y-51080000D01*
X153700000Y-58300000D02*
X147605001Y-52205001D01*
X153700000Y-59125002D02*
X153700000Y-58300000D01*
X156300000Y-61725002D02*
X153700000Y-59125002D01*
X156300000Y-92500000D02*
X156300000Y-61725002D01*
X137100000Y-116600000D02*
X132900000Y-116600000D01*
X144780000Y-124280000D02*
X137100000Y-116600000D01*
X180360000Y-67760000D02*
X176399998Y-63799998D01*
X176399998Y-63799998D02*
X176399998Y-53800002D01*
X180360000Y-65220000D02*
X177300000Y-62160000D01*
X177300000Y-62160000D02*
X177300000Y-53200000D01*
X168300000Y-119300000D02*
X180360000Y-119300000D01*
X164400000Y-123200000D02*
X168300000Y-119300000D01*
X168360000Y-121840000D02*
X180360000Y-121840000D01*
X165900000Y-124300000D02*
X168360000Y-121840000D01*
X180360000Y-72840000D02*
X174625000Y-67105000D01*
X174625000Y-67105000D02*
X174625000Y-55325000D01*
X173900000Y-68920000D02*
X173900000Y-56100000D01*
X180360000Y-75380000D02*
X173900000Y-68920000D01*
X180360000Y-70300000D02*
X175500000Y-65440000D01*
X175500000Y-65440000D02*
X175500000Y-54600000D01*
X180340000Y-124400000D02*
X180360000Y-124380000D01*
X171300000Y-124400000D02*
X180340000Y-124400000D01*
X166000000Y-129700000D02*
X171300000Y-124400000D01*
X180360000Y-116760000D02*
X168339998Y-116760000D01*
X168339998Y-116760000D02*
X162600000Y-122499998D01*
X180360000Y-114220000D02*
X168854986Y-114220000D01*
X168854986Y-114220000D02*
X161299998Y-121774988D01*
X147320000Y-124280000D02*
X138540000Y-115500000D01*
X138540000Y-115500000D02*
X123200000Y-115500000D01*
X123200000Y-115500000D02*
X123199998Y-115500000D01*
X123200000Y-115500000D02*
X121900000Y-114200000D01*
X121900000Y-114200000D02*
X121900000Y-103799998D01*
X180300000Y-106540000D02*
X180360000Y-106600000D01*
X180300000Y-95600000D02*
X180300000Y-106540000D01*
X121200000Y-102800000D02*
X130700000Y-93300000D01*
X121200000Y-102805001D02*
X121200000Y-102800000D01*
X178200000Y-60520000D02*
X178200000Y-57900000D01*
X180360000Y-62680000D02*
X178200000Y-60520000D01*
X157025000Y-60785000D02*
X154940000Y-58700000D01*
X157025000Y-70000000D02*
X157025000Y-60785000D01*
D16*
X186315000Y-44794057D02*
X186226920Y-44728359D01*
X185964099Y-44603175D01*
X185816890Y-44558524D01*
X185587000Y-44679845D01*
X185587000Y-45873000D01*
X185607000Y-45873000D01*
X185607000Y-46127000D01*
X185587000Y-46127000D01*
X185587000Y-47320155D01*
X185816890Y-47441476D01*
X185964099Y-47396825D01*
X186226920Y-47271641D01*
X186315000Y-47205943D01*
X186315001Y-134794058D01*
X186226920Y-134728359D01*
X185964099Y-134603175D01*
X185816890Y-134558524D01*
X185587000Y-134679845D01*
X185587000Y-135873000D01*
X185607000Y-135873000D01*
X185607000Y-136127000D01*
X185587000Y-136127000D01*
X185587000Y-137320155D01*
X185816890Y-137441476D01*
X185964099Y-137396825D01*
X186226920Y-137271641D01*
X186315001Y-137205942D01*
X186315001Y-138315000D01*
X85685000Y-138315000D01*
X85685000Y-137488072D01*
X87250000Y-137488072D01*
X87374482Y-137475812D01*
X87494180Y-137439502D01*
X87604494Y-137380537D01*
X87701185Y-137301185D01*
X87780537Y-137204494D01*
X87839502Y-137094180D01*
X87861513Y-137021620D01*
X87993368Y-137153475D01*
X88236589Y-137315990D01*
X88506842Y-137427932D01*
X88793740Y-137485000D01*
X89086260Y-137485000D01*
X89373158Y-137427932D01*
X89643411Y-137315990D01*
X89886632Y-137153475D01*
X90093475Y-136946632D01*
X90210000Y-136772240D01*
X90326525Y-136946632D01*
X90533368Y-137153475D01*
X90776589Y-137315990D01*
X91046842Y-137427932D01*
X91333740Y-137485000D01*
X91626260Y-137485000D01*
X91913158Y-137427932D01*
X92183411Y-137315990D01*
X92426632Y-137153475D01*
X92633475Y-136946632D01*
X92750000Y-136772240D01*
X92866525Y-136946632D01*
X93073368Y-137153475D01*
X93316589Y-137315990D01*
X93586842Y-137427932D01*
X93873740Y-137485000D01*
X94166260Y-137485000D01*
X94453158Y-137427932D01*
X94723411Y-137315990D01*
X94966632Y-137153475D01*
X95173475Y-136946632D01*
X95290000Y-136772240D01*
X95406525Y-136946632D01*
X95613368Y-137153475D01*
X95856589Y-137315990D01*
X96126842Y-137427932D01*
X96413740Y-137485000D01*
X96706260Y-137485000D01*
X96993158Y-137427932D01*
X97263411Y-137315990D01*
X97506632Y-137153475D01*
X97713475Y-136946632D01*
X97830000Y-136772240D01*
X97946525Y-136946632D01*
X98153368Y-137153475D01*
X98396589Y-137315990D01*
X98666842Y-137427932D01*
X98953740Y-137485000D01*
X99246260Y-137485000D01*
X99533158Y-137427932D01*
X99803411Y-137315990D01*
X100046632Y-137153475D01*
X100253475Y-136946632D01*
X100370000Y-136772240D01*
X100486525Y-136946632D01*
X100693368Y-137153475D01*
X100936589Y-137315990D01*
X101206842Y-137427932D01*
X101493740Y-137485000D01*
X101786260Y-137485000D01*
X102073158Y-137427932D01*
X102343411Y-137315990D01*
X102586632Y-137153475D01*
X102793475Y-136946632D01*
X102910000Y-136772240D01*
X103026525Y-136946632D01*
X103233368Y-137153475D01*
X103476589Y-137315990D01*
X103746842Y-137427932D01*
X104033740Y-137485000D01*
X104326260Y-137485000D01*
X104613158Y-137427932D01*
X104883411Y-137315990D01*
X105126632Y-137153475D01*
X105333475Y-136946632D01*
X105450000Y-136772240D01*
X105566525Y-136946632D01*
X105773368Y-137153475D01*
X106016589Y-137315990D01*
X106286842Y-137427932D01*
X106573740Y-137485000D01*
X106866260Y-137485000D01*
X107153158Y-137427932D01*
X107423411Y-137315990D01*
X107666632Y-137153475D01*
X107873475Y-136946632D01*
X107990000Y-136772240D01*
X108106525Y-136946632D01*
X108313368Y-137153475D01*
X108556589Y-137315990D01*
X108826842Y-137427932D01*
X109113740Y-137485000D01*
X109406260Y-137485000D01*
X109693158Y-137427932D01*
X109963411Y-137315990D01*
X110206632Y-137153475D01*
X110413475Y-136946632D01*
X110530000Y-136772240D01*
X110646525Y-136946632D01*
X110853368Y-137153475D01*
X111096589Y-137315990D01*
X111366842Y-137427932D01*
X111653740Y-137485000D01*
X111946260Y-137485000D01*
X112233158Y-137427932D01*
X112503411Y-137315990D01*
X112746632Y-137153475D01*
X112953475Y-136946632D01*
X113070000Y-136772240D01*
X113186525Y-136946632D01*
X113393368Y-137153475D01*
X113636589Y-137315990D01*
X113906842Y-137427932D01*
X114193740Y-137485000D01*
X114486260Y-137485000D01*
X114773158Y-137427932D01*
X115043411Y-137315990D01*
X115246492Y-137180296D01*
X115752204Y-137686009D01*
X115775998Y-137715002D01*
X115804991Y-137738796D01*
X115804995Y-137738800D01*
X115875684Y-137796812D01*
X115891723Y-137809975D01*
X116023752Y-137880547D01*
X116167013Y-137924004D01*
X116278666Y-137935001D01*
X116278675Y-137935001D01*
X116315998Y-137938677D01*
X116353321Y-137935001D01*
X174087677Y-137935001D01*
X174124999Y-137938677D01*
X174162321Y-137935001D01*
X174162332Y-137935001D01*
X174273985Y-137924004D01*
X174417246Y-137880547D01*
X174549275Y-137809975D01*
X174665000Y-137715002D01*
X174688803Y-137685998D01*
X174933592Y-137441209D01*
X175153740Y-137485000D01*
X175446260Y-137485000D01*
X175733158Y-137427932D01*
X176003411Y-137315990D01*
X176246632Y-137153475D01*
X176453475Y-136946632D01*
X176570000Y-136772240D01*
X176686525Y-136946632D01*
X176893368Y-137153475D01*
X177136589Y-137315990D01*
X177406842Y-137427932D01*
X177693740Y-137485000D01*
X177986260Y-137485000D01*
X178273158Y-137427932D01*
X178543411Y-137315990D01*
X178786632Y-137153475D01*
X178993475Y-136946632D01*
X179110000Y-136772240D01*
X179226525Y-136946632D01*
X179433368Y-137153475D01*
X179676589Y-137315990D01*
X179946842Y-137427932D01*
X180233740Y-137485000D01*
X180526260Y-137485000D01*
X180813158Y-137427932D01*
X181083411Y-137315990D01*
X181326632Y-137153475D01*
X181533475Y-136946632D01*
X181650000Y-136772240D01*
X181766525Y-136946632D01*
X181973368Y-137153475D01*
X182216589Y-137315990D01*
X182486842Y-137427932D01*
X182773740Y-137485000D01*
X183066260Y-137485000D01*
X183353158Y-137427932D01*
X183623411Y-137315990D01*
X183866632Y-137153475D01*
X184073475Y-136946632D01*
X184195195Y-136764466D01*
X184264822Y-136881355D01*
X184459731Y-137097588D01*
X184693080Y-137271641D01*
X184955901Y-137396825D01*
X185103110Y-137441476D01*
X185333000Y-137320155D01*
X185333000Y-136127000D01*
X185313000Y-136127000D01*
X185313000Y-135873000D01*
X185333000Y-135873000D01*
X185333000Y-134679845D01*
X185103110Y-134558524D01*
X184955901Y-134603175D01*
X184693080Y-134728359D01*
X184459731Y-134902412D01*
X184264822Y-135118645D01*
X184195195Y-135235534D01*
X184073475Y-135053368D01*
X183866632Y-134846525D01*
X183623411Y-134684010D01*
X183353158Y-134572068D01*
X183066260Y-134515000D01*
X182773740Y-134515000D01*
X182486842Y-134572068D01*
X182216589Y-134684010D01*
X181973368Y-134846525D01*
X181766525Y-135053368D01*
X181650000Y-135227760D01*
X181533475Y-135053368D01*
X181326632Y-134846525D01*
X181083411Y-134684010D01*
X180813158Y-134572068D01*
X180526260Y-134515000D01*
X180233740Y-134515000D01*
X179946842Y-134572068D01*
X179676589Y-134684010D01*
X179433368Y-134846525D01*
X179226525Y-135053368D01*
X179110000Y-135227760D01*
X178993475Y-135053368D01*
X178786632Y-134846525D01*
X178543411Y-134684010D01*
X178273158Y-134572068D01*
X177986260Y-134515000D01*
X177693740Y-134515000D01*
X177406842Y-134572068D01*
X177136589Y-134684010D01*
X176893368Y-134846525D01*
X176686525Y-135053368D01*
X176570000Y-135227760D01*
X176453475Y-135053368D01*
X176246632Y-134846525D01*
X176003411Y-134684010D01*
X175733158Y-134572068D01*
X175446260Y-134515000D01*
X175153740Y-134515000D01*
X174866842Y-134572068D01*
X174596589Y-134684010D01*
X174353368Y-134846525D01*
X174146525Y-135053368D01*
X174030000Y-135227760D01*
X173913475Y-135053368D01*
X173706632Y-134846525D01*
X173463411Y-134684010D01*
X173193158Y-134572068D01*
X172906260Y-134515000D01*
X172613740Y-134515000D01*
X172326842Y-134572068D01*
X172056589Y-134684010D01*
X171813368Y-134846525D01*
X171606525Y-135053368D01*
X171490000Y-135227760D01*
X171373475Y-135053368D01*
X171166632Y-134846525D01*
X170923411Y-134684010D01*
X170653158Y-134572068D01*
X170366260Y-134515000D01*
X170073740Y-134515000D01*
X169786842Y-134572068D01*
X169516589Y-134684010D01*
X169273368Y-134846525D01*
X169066525Y-135053368D01*
X168950000Y-135227760D01*
X168833475Y-135053368D01*
X168626632Y-134846525D01*
X168383411Y-134684010D01*
X168113158Y-134572068D01*
X167826260Y-134515000D01*
X167533740Y-134515000D01*
X167246842Y-134572068D01*
X166976589Y-134684010D01*
X166733368Y-134846525D01*
X166526525Y-135053368D01*
X166410000Y-135227760D01*
X166293475Y-135053368D01*
X166086632Y-134846525D01*
X165843411Y-134684010D01*
X165573158Y-134572068D01*
X165286260Y-134515000D01*
X164993740Y-134515000D01*
X164706842Y-134572068D01*
X164436589Y-134684010D01*
X164193368Y-134846525D01*
X163986525Y-135053368D01*
X163870000Y-135227760D01*
X163753475Y-135053368D01*
X163546632Y-134846525D01*
X163303411Y-134684010D01*
X163033158Y-134572068D01*
X162746260Y-134515000D01*
X162453740Y-134515000D01*
X162166842Y-134572068D01*
X161896589Y-134684010D01*
X161653368Y-134846525D01*
X161446525Y-135053368D01*
X161330000Y-135227760D01*
X161213475Y-135053368D01*
X161006632Y-134846525D01*
X160763411Y-134684010D01*
X160493158Y-134572068D01*
X160206260Y-134515000D01*
X159913740Y-134515000D01*
X159626842Y-134572068D01*
X159356589Y-134684010D01*
X159113368Y-134846525D01*
X158906525Y-135053368D01*
X158790000Y-135227760D01*
X158673475Y-135053368D01*
X158466632Y-134846525D01*
X158223411Y-134684010D01*
X157953158Y-134572068D01*
X157666260Y-134515000D01*
X157373740Y-134515000D01*
X157086842Y-134572068D01*
X156816589Y-134684010D01*
X156573368Y-134846525D01*
X156366525Y-135053368D01*
X156250000Y-135227760D01*
X156133475Y-135053368D01*
X155926632Y-134846525D01*
X155683411Y-134684010D01*
X155413158Y-134572068D01*
X155126260Y-134515000D01*
X154833740Y-134515000D01*
X154546842Y-134572068D01*
X154276589Y-134684010D01*
X154033368Y-134846525D01*
X153826525Y-135053368D01*
X153710000Y-135227760D01*
X153593475Y-135053368D01*
X153386632Y-134846525D01*
X153143411Y-134684010D01*
X152873158Y-134572068D01*
X152586260Y-134515000D01*
X152293740Y-134515000D01*
X152006842Y-134572068D01*
X151736589Y-134684010D01*
X151493368Y-134846525D01*
X151286525Y-135053368D01*
X151170000Y-135227760D01*
X151053475Y-135053368D01*
X150846632Y-134846525D01*
X150603411Y-134684010D01*
X150333158Y-134572068D01*
X150046260Y-134515000D01*
X149753740Y-134515000D01*
X149466842Y-134572068D01*
X149196589Y-134684010D01*
X148953368Y-134846525D01*
X148746525Y-135053368D01*
X148630000Y-135227760D01*
X148513475Y-135053368D01*
X148306632Y-134846525D01*
X148063411Y-134684010D01*
X147793158Y-134572068D01*
X147506260Y-134515000D01*
X147213740Y-134515000D01*
X146926842Y-134572068D01*
X146656589Y-134684010D01*
X146413368Y-134846525D01*
X146206525Y-135053368D01*
X146090000Y-135227760D01*
X145973475Y-135053368D01*
X145766632Y-134846525D01*
X145523411Y-134684010D01*
X145253158Y-134572068D01*
X144966260Y-134515000D01*
X144673740Y-134515000D01*
X144386842Y-134572068D01*
X144116589Y-134684010D01*
X143873368Y-134846525D01*
X143666525Y-135053368D01*
X143550000Y-135227760D01*
X143433475Y-135053368D01*
X143226632Y-134846525D01*
X142983411Y-134684010D01*
X142713158Y-134572068D01*
X142426260Y-134515000D01*
X142133740Y-134515000D01*
X141846842Y-134572068D01*
X141576589Y-134684010D01*
X141333368Y-134846525D01*
X141126525Y-135053368D01*
X141010000Y-135227760D01*
X140893475Y-135053368D01*
X140686632Y-134846525D01*
X140443411Y-134684010D01*
X140173158Y-134572068D01*
X139886260Y-134515000D01*
X139593740Y-134515000D01*
X139306842Y-134572068D01*
X139036589Y-134684010D01*
X138793368Y-134846525D01*
X138586525Y-135053368D01*
X138470000Y-135227760D01*
X138353475Y-135053368D01*
X138146632Y-134846525D01*
X137903411Y-134684010D01*
X137633158Y-134572068D01*
X137346260Y-134515000D01*
X137053740Y-134515000D01*
X136766842Y-134572068D01*
X136496589Y-134684010D01*
X136253368Y-134846525D01*
X136046525Y-135053368D01*
X135930000Y-135227760D01*
X135813475Y-135053368D01*
X135606632Y-134846525D01*
X135363411Y-134684010D01*
X135093158Y-134572068D01*
X134806260Y-134515000D01*
X134513740Y-134515000D01*
X134226842Y-134572068D01*
X133956589Y-134684010D01*
X133713368Y-134846525D01*
X133506525Y-135053368D01*
X133390000Y-135227760D01*
X133273475Y-135053368D01*
X133066632Y-134846525D01*
X132823411Y-134684010D01*
X132553158Y-134572068D01*
X132266260Y-134515000D01*
X131973740Y-134515000D01*
X131686842Y-134572068D01*
X131416589Y-134684010D01*
X131173368Y-134846525D01*
X130966525Y-135053368D01*
X130850000Y-135227760D01*
X130733475Y-135053368D01*
X130526632Y-134846525D01*
X130283411Y-134684010D01*
X130013158Y-134572068D01*
X129726260Y-134515000D01*
X129433740Y-134515000D01*
X129146842Y-134572068D01*
X128876589Y-134684010D01*
X128633368Y-134846525D01*
X128426525Y-135053368D01*
X128310000Y-135227760D01*
X128193475Y-135053368D01*
X127986632Y-134846525D01*
X127743411Y-134684010D01*
X127473158Y-134572068D01*
X127186260Y-134515000D01*
X126893740Y-134515000D01*
X126606842Y-134572068D01*
X126336589Y-134684010D01*
X126093368Y-134846525D01*
X125886525Y-135053368D01*
X125770000Y-135227760D01*
X125653475Y-135053368D01*
X125446632Y-134846525D01*
X125203411Y-134684010D01*
X124933158Y-134572068D01*
X124646260Y-134515000D01*
X124353740Y-134515000D01*
X124066842Y-134572068D01*
X123796589Y-134684010D01*
X123553368Y-134846525D01*
X123346525Y-135053368D01*
X123230000Y-135227760D01*
X123113475Y-135053368D01*
X122906632Y-134846525D01*
X122663411Y-134684010D01*
X122393158Y-134572068D01*
X122106260Y-134515000D01*
X121813740Y-134515000D01*
X121526842Y-134572068D01*
X121256589Y-134684010D01*
X121013368Y-134846525D01*
X120806525Y-135053368D01*
X120690000Y-135227760D01*
X120573475Y-135053368D01*
X120366632Y-134846525D01*
X120123411Y-134684010D01*
X119853158Y-134572068D01*
X119566260Y-134515000D01*
X119273740Y-134515000D01*
X118986842Y-134572068D01*
X118716589Y-134684010D01*
X118473368Y-134846525D01*
X118266525Y-135053368D01*
X118150000Y-135227760D01*
X118033475Y-135053368D01*
X117826632Y-134846525D01*
X117583411Y-134684010D01*
X117313158Y-134572068D01*
X117026260Y-134515000D01*
X116733740Y-134515000D01*
X116464999Y-134568456D01*
X116464999Y-131100000D01*
X138261928Y-131100000D01*
X138261928Y-132700000D01*
X138274188Y-132824482D01*
X138310498Y-132944180D01*
X138369463Y-133054494D01*
X138448815Y-133151185D01*
X138545506Y-133230537D01*
X138655820Y-133289502D01*
X138775518Y-133325812D01*
X138900000Y-133338072D01*
X140500000Y-133338072D01*
X140624482Y-133325812D01*
X140744180Y-133289502D01*
X140854494Y-133230537D01*
X140951185Y-133151185D01*
X141030537Y-133054494D01*
X141089502Y-132944180D01*
X141125812Y-132824482D01*
X141126643Y-132816039D01*
X141325241Y-133014637D01*
X141560273Y-133171680D01*
X141821426Y-133279853D01*
X142098665Y-133335000D01*
X142381335Y-133335000D01*
X142658574Y-133279853D01*
X142919727Y-133171680D01*
X143154759Y-133014637D01*
X143354637Y-132814759D01*
X143510000Y-132582241D01*
X143665363Y-132814759D01*
X143865241Y-133014637D01*
X144100273Y-133171680D01*
X144361426Y-133279853D01*
X144638665Y-133335000D01*
X144921335Y-133335000D01*
X145198574Y-133279853D01*
X145459727Y-133171680D01*
X145694759Y-133014637D01*
X145894637Y-132814759D01*
X146050000Y-132582241D01*
X146205363Y-132814759D01*
X146405241Y-133014637D01*
X146640273Y-133171680D01*
X146901426Y-133279853D01*
X147178665Y-133335000D01*
X147461335Y-133335000D01*
X147738574Y-133279853D01*
X147999727Y-133171680D01*
X148234759Y-133014637D01*
X148434637Y-132814759D01*
X148590000Y-132582241D01*
X148745363Y-132814759D01*
X148945241Y-133014637D01*
X149180273Y-133171680D01*
X149441426Y-133279853D01*
X149718665Y-133335000D01*
X150001335Y-133335000D01*
X150278574Y-133279853D01*
X150539727Y-133171680D01*
X150774759Y-133014637D01*
X150974637Y-132814759D01*
X151130000Y-132582241D01*
X151285363Y-132814759D01*
X151485241Y-133014637D01*
X151720273Y-133171680D01*
X151981426Y-133279853D01*
X152258665Y-133335000D01*
X152541335Y-133335000D01*
X152818574Y-133279853D01*
X153079727Y-133171680D01*
X153314759Y-133014637D01*
X153514637Y-132814759D01*
X153670000Y-132582241D01*
X153825363Y-132814759D01*
X154025241Y-133014637D01*
X154260273Y-133171680D01*
X154521426Y-133279853D01*
X154798665Y-133335000D01*
X155081335Y-133335000D01*
X155358574Y-133279853D01*
X155619727Y-133171680D01*
X155854759Y-133014637D01*
X156054637Y-132814759D01*
X156210000Y-132582241D01*
X156365363Y-132814759D01*
X156565241Y-133014637D01*
X156800273Y-133171680D01*
X157061426Y-133279853D01*
X157338665Y-133335000D01*
X157621335Y-133335000D01*
X157898574Y-133279853D01*
X158159727Y-133171680D01*
X158394759Y-133014637D01*
X158594637Y-132814759D01*
X158751680Y-132579727D01*
X158859853Y-132318574D01*
X158915000Y-132041335D01*
X158915000Y-131758665D01*
X158859853Y-131481426D01*
X158751680Y-131220273D01*
X158594637Y-130985241D01*
X158394759Y-130785363D01*
X158159727Y-130628320D01*
X157898574Y-130520147D01*
X157621335Y-130465000D01*
X157338665Y-130465000D01*
X157061426Y-130520147D01*
X156800273Y-130628320D01*
X156565241Y-130785363D01*
X156365363Y-130985241D01*
X156210000Y-131217759D01*
X156054637Y-130985241D01*
X155854759Y-130785363D01*
X155619727Y-130628320D01*
X155358574Y-130520147D01*
X155081335Y-130465000D01*
X154798665Y-130465000D01*
X154521426Y-130520147D01*
X154260273Y-130628320D01*
X154025241Y-130785363D01*
X153825363Y-130985241D01*
X153670000Y-131217759D01*
X153514637Y-130985241D01*
X153314759Y-130785363D01*
X153079727Y-130628320D01*
X152818574Y-130520147D01*
X152541335Y-130465000D01*
X152258665Y-130465000D01*
X151981426Y-130520147D01*
X151720273Y-130628320D01*
X151485241Y-130785363D01*
X151285363Y-130985241D01*
X151130000Y-131217759D01*
X150974637Y-130985241D01*
X150774759Y-130785363D01*
X150539727Y-130628320D01*
X150278574Y-130520147D01*
X150001335Y-130465000D01*
X149718665Y-130465000D01*
X149441426Y-130520147D01*
X149180273Y-130628320D01*
X148945241Y-130785363D01*
X148745363Y-130985241D01*
X148590000Y-131217759D01*
X148434637Y-130985241D01*
X148234759Y-130785363D01*
X147999727Y-130628320D01*
X147738574Y-130520147D01*
X147461335Y-130465000D01*
X147178665Y-130465000D01*
X146901426Y-130520147D01*
X146640273Y-130628320D01*
X146405241Y-130785363D01*
X146205363Y-130985241D01*
X146050000Y-131217759D01*
X145894637Y-130985241D01*
X145694759Y-130785363D01*
X145459727Y-130628320D01*
X145198574Y-130520147D01*
X144921335Y-130465000D01*
X144638665Y-130465000D01*
X144361426Y-130520147D01*
X144100273Y-130628320D01*
X143865241Y-130785363D01*
X143665363Y-130985241D01*
X143510000Y-131217759D01*
X143354637Y-130985241D01*
X143154759Y-130785363D01*
X142919727Y-130628320D01*
X142658574Y-130520147D01*
X142381335Y-130465000D01*
X142098665Y-130465000D01*
X141821426Y-130520147D01*
X141560273Y-130628320D01*
X141325241Y-130785363D01*
X141126643Y-130983961D01*
X141125812Y-130975518D01*
X141089502Y-130855820D01*
X141030537Y-130745506D01*
X140951185Y-130648815D01*
X140854494Y-130569463D01*
X140744180Y-130510498D01*
X140624482Y-130474188D01*
X140500000Y-130461928D01*
X138900000Y-130461928D01*
X138775518Y-130474188D01*
X138655820Y-130510498D01*
X138545506Y-130569463D01*
X138448815Y-130648815D01*
X138369463Y-130745506D01*
X138310498Y-130855820D01*
X138274188Y-130975518D01*
X138261928Y-131100000D01*
X116464999Y-131100000D01*
X116464999Y-125148196D01*
X116541426Y-125179853D01*
X116818665Y-125235000D01*
X117101335Y-125235000D01*
X117378574Y-125179853D01*
X117639727Y-125071680D01*
X117874759Y-124914637D01*
X118074637Y-124714759D01*
X118131912Y-124629040D01*
X138308091Y-124629040D01*
X138402930Y-124893881D01*
X138547615Y-125135131D01*
X138736586Y-125343519D01*
X138962580Y-125511037D01*
X139216913Y-125631246D01*
X139350961Y-125671904D01*
X139573000Y-125549915D01*
X139573000Y-124407000D01*
X138429376Y-124407000D01*
X138308091Y-124629040D01*
X118131912Y-124629040D01*
X118231680Y-124479727D01*
X118339853Y-124218574D01*
X118395000Y-123941335D01*
X118395000Y-123930960D01*
X138308091Y-123930960D01*
X138429376Y-124153000D01*
X139573000Y-124153000D01*
X139573000Y-123010085D01*
X139350961Y-122888096D01*
X139216913Y-122928754D01*
X138962580Y-123048963D01*
X138736586Y-123216481D01*
X138547615Y-123424869D01*
X138402930Y-123666119D01*
X138308091Y-123930960D01*
X118395000Y-123930960D01*
X118395000Y-123658665D01*
X118339853Y-123381426D01*
X118231680Y-123120273D01*
X118074637Y-122885241D01*
X117874759Y-122685363D01*
X117639727Y-122528320D01*
X117378574Y-122420147D01*
X117101335Y-122365000D01*
X116818665Y-122365000D01*
X116541426Y-122420147D01*
X116464999Y-122451804D01*
X116464999Y-119414804D01*
X119046015Y-116833789D01*
X119075012Y-116809992D01*
X119169985Y-116694267D01*
X119240557Y-116562238D01*
X119284014Y-116418977D01*
X119295011Y-116307324D01*
X119295011Y-116307315D01*
X119298687Y-116269992D01*
X119295011Y-116232669D01*
X119295011Y-102703062D01*
X120165000Y-102703062D01*
X120165000Y-102906940D01*
X120204774Y-103106899D01*
X120282795Y-103295257D01*
X120396063Y-103464775D01*
X120540226Y-103608938D01*
X120709744Y-103722206D01*
X120865000Y-103786516D01*
X120865000Y-103901937D01*
X120904774Y-104101896D01*
X120982795Y-104290254D01*
X121096063Y-104459772D01*
X121140001Y-104503710D01*
X121140000Y-114162678D01*
X121136324Y-114200000D01*
X121140000Y-114237322D01*
X121140000Y-114237332D01*
X121150997Y-114348985D01*
X121174176Y-114425396D01*
X121194454Y-114492246D01*
X121265026Y-114624276D01*
X121281440Y-114644276D01*
X121359999Y-114740001D01*
X121389003Y-114763804D01*
X122164998Y-115539800D01*
X122164998Y-115601939D01*
X122204772Y-115801898D01*
X122282793Y-115990256D01*
X122396061Y-116159774D01*
X122540224Y-116303937D01*
X122709742Y-116417205D01*
X122898100Y-116495226D01*
X123098059Y-116535000D01*
X123301937Y-116535000D01*
X123501896Y-116495226D01*
X123690254Y-116417205D01*
X123859772Y-116303937D01*
X123903709Y-116260000D01*
X131920556Y-116260000D01*
X131904774Y-116298102D01*
X131865000Y-116498061D01*
X131865000Y-116701939D01*
X131904774Y-116901898D01*
X131982795Y-117090256D01*
X132096063Y-117259774D01*
X132240226Y-117403937D01*
X132409744Y-117517205D01*
X132598102Y-117595226D01*
X132798061Y-117635000D01*
X133001939Y-117635000D01*
X133201898Y-117595226D01*
X133390256Y-117517205D01*
X133559774Y-117403937D01*
X133603711Y-117360000D01*
X136785199Y-117360000D01*
X142270198Y-122845000D01*
X142098665Y-122845000D01*
X141821426Y-122900147D01*
X141560273Y-123008320D01*
X141325241Y-123165363D01*
X141125363Y-123365241D01*
X140968320Y-123600273D01*
X140963933Y-123610865D01*
X140852385Y-123424869D01*
X140663414Y-123216481D01*
X140437420Y-123048963D01*
X140183087Y-122928754D01*
X140049039Y-122888096D01*
X139827000Y-123010085D01*
X139827000Y-124153000D01*
X139847000Y-124153000D01*
X139847000Y-124407000D01*
X139827000Y-124407000D01*
X139827000Y-125549915D01*
X140049039Y-125671904D01*
X140183087Y-125631246D01*
X140437420Y-125511037D01*
X140663414Y-125343519D01*
X140852385Y-125135131D01*
X140963933Y-124949135D01*
X140968320Y-124959727D01*
X141125363Y-125194759D01*
X141325241Y-125394637D01*
X141560273Y-125551680D01*
X141821426Y-125659853D01*
X142098665Y-125715000D01*
X142381335Y-125715000D01*
X142563886Y-125678688D01*
X142801202Y-125916004D01*
X142825000Y-125945002D01*
X142940725Y-126039975D01*
X143072754Y-126110547D01*
X143216015Y-126154004D01*
X143327668Y-126165001D01*
X143327676Y-126165001D01*
X143365001Y-126168677D01*
X143402326Y-126165001D01*
X147822679Y-126165001D01*
X147860001Y-126168677D01*
X147897323Y-126165001D01*
X147897334Y-126165001D01*
X148008987Y-126154004D01*
X148152248Y-126110547D01*
X148284277Y-126039975D01*
X148400002Y-125945002D01*
X148423804Y-125915999D01*
X148945204Y-125394600D01*
X148945241Y-125394637D01*
X149180273Y-125551680D01*
X149441426Y-125659853D01*
X149718665Y-125715000D01*
X150001335Y-125715000D01*
X150278574Y-125659853D01*
X150539727Y-125551680D01*
X150774759Y-125394637D01*
X150974637Y-125194759D01*
X151130000Y-124962241D01*
X151285363Y-125194759D01*
X151485241Y-125394637D01*
X151720273Y-125551680D01*
X151981426Y-125659853D01*
X152258665Y-125715000D01*
X152541335Y-125715000D01*
X152818574Y-125659853D01*
X153079727Y-125551680D01*
X153314759Y-125394637D01*
X153514637Y-125194759D01*
X153670000Y-124962241D01*
X153825363Y-125194759D01*
X154025241Y-125394637D01*
X154260273Y-125551680D01*
X154521426Y-125659853D01*
X154798665Y-125715000D01*
X155081335Y-125715000D01*
X155358574Y-125659853D01*
X155619727Y-125551680D01*
X155854759Y-125394637D01*
X156054637Y-125194759D01*
X156210000Y-124962241D01*
X156365363Y-125194759D01*
X156565241Y-125394637D01*
X156800273Y-125551680D01*
X157061426Y-125659853D01*
X157338665Y-125715000D01*
X157621335Y-125715000D01*
X157898574Y-125659853D01*
X158159727Y-125551680D01*
X158394759Y-125394637D01*
X158594637Y-125194759D01*
X158751680Y-124959727D01*
X158859853Y-124698574D01*
X158915000Y-124421335D01*
X158915000Y-124138665D01*
X158859853Y-123861426D01*
X158751680Y-123600273D01*
X158594637Y-123365241D01*
X158394759Y-123165363D01*
X158159727Y-123008320D01*
X157898574Y-122900147D01*
X157621335Y-122845000D01*
X157338665Y-122845000D01*
X157061426Y-122900147D01*
X156800273Y-123008320D01*
X156565241Y-123165363D01*
X156365363Y-123365241D01*
X156210000Y-123597759D01*
X156054637Y-123365241D01*
X155854759Y-123165363D01*
X155619727Y-123008320D01*
X155358574Y-122900147D01*
X155081335Y-122845000D01*
X154798665Y-122845000D01*
X154521426Y-122900147D01*
X154260273Y-123008320D01*
X154025241Y-123165363D01*
X153825363Y-123365241D01*
X153670000Y-123597759D01*
X153514637Y-123365241D01*
X153314759Y-123165363D01*
X153079727Y-123008320D01*
X152818574Y-122900147D01*
X152541335Y-122845000D01*
X152258665Y-122845000D01*
X151981426Y-122900147D01*
X151720273Y-123008320D01*
X151485241Y-123165363D01*
X151285363Y-123365241D01*
X151130000Y-123597759D01*
X150974637Y-123365241D01*
X150774759Y-123165363D01*
X150539727Y-123008320D01*
X150278574Y-122900147D01*
X150001335Y-122845000D01*
X149718665Y-122845000D01*
X149441426Y-122900147D01*
X149205001Y-122998077D01*
X149205001Y-121673049D01*
X160264998Y-121673049D01*
X160264998Y-121876927D01*
X160304772Y-122076886D01*
X160382793Y-122265244D01*
X160496061Y-122434762D01*
X160640224Y-122578925D01*
X160809742Y-122692193D01*
X160998100Y-122770214D01*
X161198059Y-122809988D01*
X161401937Y-122809988D01*
X161598602Y-122770869D01*
X161604774Y-122801896D01*
X161682795Y-122990254D01*
X161796063Y-123159772D01*
X161940226Y-123303935D01*
X162109744Y-123417203D01*
X162298102Y-123495224D01*
X162498061Y-123534998D01*
X162701939Y-123534998D01*
X162901898Y-123495224D01*
X163090256Y-123417203D01*
X163259774Y-123303935D01*
X163365000Y-123198709D01*
X163365000Y-123301939D01*
X163404774Y-123501898D01*
X163482795Y-123690256D01*
X163596063Y-123859774D01*
X163740226Y-124003937D01*
X163909744Y-124117205D01*
X164098102Y-124195226D01*
X164298061Y-124235000D01*
X164501939Y-124235000D01*
X164701898Y-124195226D01*
X164880259Y-124121346D01*
X164865000Y-124198061D01*
X164865000Y-124401939D01*
X164904774Y-124601898D01*
X164982795Y-124790256D01*
X165096063Y-124959774D01*
X165240226Y-125103937D01*
X165409744Y-125217205D01*
X165598102Y-125295226D01*
X165798061Y-125335000D01*
X166001939Y-125335000D01*
X166201898Y-125295226D01*
X166390256Y-125217205D01*
X166559774Y-125103937D01*
X166703937Y-124959774D01*
X166817205Y-124790256D01*
X166895226Y-124601898D01*
X166935000Y-124401939D01*
X166935000Y-124339801D01*
X168674802Y-122600000D01*
X179081822Y-122600000D01*
X179206525Y-122786632D01*
X179413368Y-122993475D01*
X179587760Y-123110000D01*
X179413368Y-123226525D01*
X179206525Y-123433368D01*
X179068458Y-123640000D01*
X171337323Y-123640000D01*
X171300000Y-123636324D01*
X171262677Y-123640000D01*
X171262667Y-123640000D01*
X171151014Y-123650997D01*
X171007753Y-123694454D01*
X170875723Y-123765026D01*
X170833108Y-123800000D01*
X170759999Y-123859999D01*
X170736201Y-123888997D01*
X165960199Y-128665000D01*
X165898061Y-128665000D01*
X165698102Y-128704774D01*
X165509744Y-128782795D01*
X165340226Y-128896063D01*
X165196063Y-129040226D01*
X165082795Y-129209744D01*
X165004774Y-129398102D01*
X164965000Y-129598061D01*
X164965000Y-129801939D01*
X165004774Y-130001898D01*
X165082795Y-130190256D01*
X165196063Y-130359774D01*
X165340226Y-130503937D01*
X165509744Y-130617205D01*
X165698102Y-130695226D01*
X165898061Y-130735000D01*
X166101939Y-130735000D01*
X166301898Y-130695226D01*
X166490256Y-130617205D01*
X166659774Y-130503937D01*
X166803937Y-130359774D01*
X166917205Y-130190256D01*
X166995226Y-130001898D01*
X167035000Y-129801939D01*
X167035000Y-129739801D01*
X171614802Y-125160000D01*
X179095185Y-125160000D01*
X179206525Y-125326632D01*
X179413368Y-125533475D01*
X179656589Y-125695990D01*
X179926842Y-125807932D01*
X180213740Y-125865000D01*
X180506260Y-125865000D01*
X180793158Y-125807932D01*
X181063411Y-125695990D01*
X181306632Y-125533475D01*
X181513475Y-125326632D01*
X181630000Y-125152240D01*
X181746525Y-125326632D01*
X181953368Y-125533475D01*
X182196589Y-125695990D01*
X182466842Y-125807932D01*
X182753740Y-125865000D01*
X183046260Y-125865000D01*
X183333158Y-125807932D01*
X183603411Y-125695990D01*
X183846632Y-125533475D01*
X184053475Y-125326632D01*
X184215990Y-125083411D01*
X184327932Y-124813158D01*
X184385000Y-124526260D01*
X184385000Y-124233740D01*
X184341210Y-124013592D01*
X184586005Y-123768797D01*
X184615002Y-123745000D01*
X184709975Y-123629275D01*
X184780547Y-123497246D01*
X184824004Y-123353985D01*
X184835001Y-123242332D01*
X184835001Y-123242323D01*
X184838677Y-123205000D01*
X184835001Y-123167677D01*
X184835001Y-101212327D01*
X184838677Y-101175005D01*
X184835001Y-101137682D01*
X184835001Y-101137672D01*
X184824004Y-101026019D01*
X184780547Y-100882758D01*
X184714812Y-100759778D01*
X184709975Y-100750728D01*
X184638800Y-100664002D01*
X184615002Y-100635004D01*
X184586004Y-100611206D01*
X184035000Y-100060203D01*
X184035000Y-99998065D01*
X183995226Y-99798106D01*
X183917205Y-99609748D01*
X183803937Y-99440230D01*
X183659774Y-99296067D01*
X183490256Y-99182799D01*
X183301898Y-99104778D01*
X183101939Y-99065004D01*
X182898061Y-99065004D01*
X182698102Y-99104778D01*
X182509744Y-99182799D01*
X182340226Y-99296067D01*
X182196063Y-99440230D01*
X182082795Y-99609748D01*
X182004774Y-99798106D01*
X181965000Y-99998065D01*
X181965000Y-100201943D01*
X182004774Y-100401902D01*
X182082795Y-100590260D01*
X182196063Y-100759778D01*
X182340226Y-100903941D01*
X182509744Y-101017209D01*
X182698102Y-101095230D01*
X182898061Y-101135004D01*
X182960199Y-101135004D01*
X183315002Y-101489808D01*
X183315002Y-105111928D01*
X182050000Y-105111928D01*
X181925518Y-105124188D01*
X181805820Y-105160498D01*
X181695506Y-105219463D01*
X181598815Y-105298815D01*
X181519463Y-105395506D01*
X181460498Y-105505820D01*
X181438487Y-105578380D01*
X181306632Y-105446525D01*
X181063411Y-105284010D01*
X181060000Y-105282597D01*
X181060000Y-96303711D01*
X181103937Y-96259774D01*
X181217205Y-96090256D01*
X181295226Y-95901898D01*
X181335000Y-95701939D01*
X181335000Y-95498061D01*
X181295226Y-95298102D01*
X181217205Y-95109744D01*
X181103937Y-94940226D01*
X180959774Y-94796063D01*
X180790256Y-94682795D01*
X180601898Y-94604774D01*
X180401939Y-94565000D01*
X180198061Y-94565000D01*
X179998102Y-94604774D01*
X179809744Y-94682795D01*
X179640226Y-94796063D01*
X179496063Y-94940226D01*
X179382795Y-95109744D01*
X179304774Y-95298102D01*
X179265000Y-95498061D01*
X179265000Y-95701939D01*
X179304774Y-95901898D01*
X179382795Y-96090256D01*
X179496063Y-96259774D01*
X179540000Y-96303711D01*
X179540001Y-105361912D01*
X179413368Y-105446525D01*
X179206525Y-105653368D01*
X179044010Y-105896589D01*
X178932068Y-106166842D01*
X178875000Y-106453740D01*
X178875000Y-106746260D01*
X178932068Y-107033158D01*
X179044010Y-107303411D01*
X179206525Y-107546632D01*
X179413368Y-107753475D01*
X179587760Y-107870000D01*
X179413368Y-107986525D01*
X179206525Y-108193368D01*
X179044010Y-108436589D01*
X178932068Y-108706842D01*
X178875000Y-108993740D01*
X178875000Y-109286260D01*
X178932068Y-109573158D01*
X179044010Y-109843411D01*
X179206525Y-110086632D01*
X179413368Y-110293475D01*
X179587760Y-110410000D01*
X179413368Y-110526525D01*
X179206525Y-110733368D01*
X179044010Y-110976589D01*
X178932068Y-111246842D01*
X178875000Y-111533740D01*
X178875000Y-111826260D01*
X178932068Y-112113158D01*
X179044010Y-112383411D01*
X179206525Y-112626632D01*
X179413368Y-112833475D01*
X179587760Y-112950000D01*
X179413368Y-113066525D01*
X179206525Y-113273368D01*
X179081822Y-113460000D01*
X168892308Y-113460000D01*
X168854985Y-113456324D01*
X168817662Y-113460000D01*
X168817653Y-113460000D01*
X168706000Y-113470997D01*
X168562739Y-113514454D01*
X168430710Y-113585026D01*
X168430708Y-113585027D01*
X168430709Y-113585027D01*
X168343982Y-113656201D01*
X168343978Y-113656205D01*
X168314985Y-113679999D01*
X168291191Y-113708992D01*
X161260197Y-120739988D01*
X161198059Y-120739988D01*
X160998100Y-120779762D01*
X160809742Y-120857783D01*
X160640224Y-120971051D01*
X160496061Y-121115214D01*
X160382793Y-121284732D01*
X160304772Y-121473090D01*
X160264998Y-121673049D01*
X149205001Y-121673049D01*
X149205001Y-70833634D01*
X149303937Y-70734698D01*
X149417205Y-70565180D01*
X149495226Y-70376822D01*
X149535000Y-70176863D01*
X149535000Y-69972985D01*
X149495226Y-69773026D01*
X149417205Y-69584668D01*
X149303937Y-69415150D01*
X149159774Y-69270987D01*
X148990256Y-69157719D01*
X148801898Y-69079698D01*
X148601939Y-69039924D01*
X148398061Y-69039924D01*
X148198102Y-69079698D01*
X148009744Y-69157719D01*
X147840226Y-69270987D01*
X147696063Y-69415150D01*
X147582795Y-69584668D01*
X147504774Y-69773026D01*
X147465000Y-69972985D01*
X147465000Y-70176863D01*
X147504774Y-70376822D01*
X147582795Y-70565180D01*
X147685002Y-70718144D01*
X147685001Y-122889491D01*
X147461335Y-122845000D01*
X147178665Y-122845000D01*
X146996114Y-122881312D01*
X139103804Y-114989003D01*
X139080001Y-114959999D01*
X138964276Y-114865026D01*
X138954873Y-114860000D01*
X140496289Y-114860000D01*
X140540226Y-114903937D01*
X140709744Y-115017205D01*
X140898102Y-115095226D01*
X141098061Y-115135000D01*
X141301939Y-115135000D01*
X141501898Y-115095226D01*
X141690256Y-115017205D01*
X141859774Y-114903937D01*
X142003937Y-114759774D01*
X142117205Y-114590256D01*
X142195226Y-114401898D01*
X142235000Y-114201939D01*
X142235000Y-113998061D01*
X142195226Y-113798102D01*
X142117205Y-113609744D01*
X142003937Y-113440226D01*
X141859774Y-113296063D01*
X141690256Y-113182795D01*
X141501898Y-113104774D01*
X141301939Y-113065000D01*
X141098061Y-113065000D01*
X140898102Y-113104774D01*
X140709744Y-113182795D01*
X140540226Y-113296063D01*
X140496289Y-113340000D01*
X132814802Y-113340000D01*
X124074801Y-104600000D01*
X135089803Y-93585000D01*
X135151939Y-93585000D01*
X135351898Y-93545226D01*
X135540256Y-93467205D01*
X135709774Y-93353937D01*
X135853937Y-93209774D01*
X135967205Y-93040256D01*
X136045226Y-92851898D01*
X136085000Y-92651939D01*
X136085000Y-92448061D01*
X136045226Y-92248102D01*
X135967205Y-92059744D01*
X135853937Y-91890226D01*
X135709774Y-91746063D01*
X135540256Y-91632795D01*
X135351898Y-91554774D01*
X135151939Y-91515000D01*
X134948061Y-91515000D01*
X134748102Y-91554774D01*
X134559744Y-91632795D01*
X134390226Y-91746063D01*
X134246063Y-91890226D01*
X134132795Y-92059744D01*
X134054774Y-92248102D01*
X134015000Y-92448061D01*
X134015000Y-92510197D01*
X122960199Y-103565000D01*
X122908533Y-103565000D01*
X122895226Y-103498100D01*
X122817205Y-103309742D01*
X122703937Y-103140224D01*
X122559774Y-102996061D01*
X122390256Y-102882793D01*
X122250074Y-102824727D01*
X130739802Y-94335000D01*
X130801939Y-94335000D01*
X131001898Y-94295226D01*
X131190256Y-94217205D01*
X131359774Y-94103937D01*
X131503937Y-93959774D01*
X131617205Y-93790256D01*
X131695226Y-93601898D01*
X131735000Y-93401939D01*
X131735000Y-93198061D01*
X131695226Y-92998102D01*
X131617205Y-92809744D01*
X131503937Y-92640226D01*
X131359774Y-92496063D01*
X131190256Y-92382795D01*
X131001898Y-92304774D01*
X130801939Y-92265000D01*
X130598061Y-92265000D01*
X130398102Y-92304774D01*
X130209744Y-92382795D01*
X130040226Y-92496063D01*
X129896063Y-92640226D01*
X129782795Y-92809744D01*
X129704774Y-92998102D01*
X129665000Y-93198061D01*
X129665000Y-93260198D01*
X121155198Y-101770001D01*
X121098061Y-101770001D01*
X120898102Y-101809775D01*
X120709744Y-101887796D01*
X120540226Y-102001064D01*
X120396063Y-102145227D01*
X120282795Y-102314745D01*
X120204774Y-102503103D01*
X120165000Y-102703062D01*
X119295011Y-102703062D01*
X119295011Y-87492334D01*
X119298687Y-87455011D01*
X119295011Y-87417688D01*
X119295011Y-87417678D01*
X119284014Y-87306025D01*
X119240557Y-87162764D01*
X119212908Y-87111037D01*
X119169985Y-87030734D01*
X119098810Y-86944008D01*
X119075012Y-86915010D01*
X119046014Y-86891212D01*
X118358688Y-86203886D01*
X118395000Y-86021335D01*
X118395000Y-85738665D01*
X118339853Y-85461426D01*
X118231680Y-85200273D01*
X118074637Y-84965241D01*
X117874759Y-84765363D01*
X117639727Y-84608320D01*
X117378574Y-84500147D01*
X117101335Y-84445000D01*
X116818665Y-84445000D01*
X116541426Y-84500147D01*
X116280273Y-84608320D01*
X116045241Y-84765363D01*
X115845363Y-84965241D01*
X115690000Y-85197759D01*
X115534637Y-84965241D01*
X115334759Y-84765363D01*
X115099727Y-84608320D01*
X114838574Y-84500147D01*
X114561335Y-84445000D01*
X114278665Y-84445000D01*
X114001426Y-84500147D01*
X113740273Y-84608320D01*
X113505241Y-84765363D01*
X113305363Y-84965241D01*
X113150000Y-85197759D01*
X112994637Y-84965241D01*
X112794759Y-84765363D01*
X112559727Y-84608320D01*
X112298574Y-84500147D01*
X112021335Y-84445000D01*
X111738665Y-84445000D01*
X111461426Y-84500147D01*
X111200273Y-84608320D01*
X110965241Y-84765363D01*
X110765363Y-84965241D01*
X110610000Y-85197759D01*
X110454637Y-84965241D01*
X110254759Y-84765363D01*
X110019727Y-84608320D01*
X109758574Y-84500147D01*
X109481335Y-84445000D01*
X109198665Y-84445000D01*
X108921426Y-84500147D01*
X108660273Y-84608320D01*
X108425241Y-84765363D01*
X108225363Y-84965241D01*
X108070000Y-85197759D01*
X107914637Y-84965241D01*
X107714759Y-84765363D01*
X107479727Y-84608320D01*
X107218574Y-84500147D01*
X106941335Y-84445000D01*
X106658665Y-84445000D01*
X106381426Y-84500147D01*
X106120273Y-84608320D01*
X105885241Y-84765363D01*
X105685363Y-84965241D01*
X105530000Y-85197759D01*
X105374637Y-84965241D01*
X105174759Y-84765363D01*
X104939727Y-84608320D01*
X104678574Y-84500147D01*
X104401335Y-84445000D01*
X104118665Y-84445000D01*
X103841426Y-84500147D01*
X103580273Y-84608320D01*
X103345241Y-84765363D01*
X103145363Y-84965241D01*
X102990000Y-85197759D01*
X102834637Y-84965241D01*
X102634759Y-84765363D01*
X102399727Y-84608320D01*
X102138574Y-84500147D01*
X101861335Y-84445000D01*
X101578665Y-84445000D01*
X101301426Y-84500147D01*
X101040273Y-84608320D01*
X100805241Y-84765363D01*
X100605363Y-84965241D01*
X100450000Y-85197759D01*
X100294637Y-84965241D01*
X100094759Y-84765363D01*
X99859727Y-84608320D01*
X99598574Y-84500147D01*
X99321335Y-84445000D01*
X99038665Y-84445000D01*
X98761426Y-84500147D01*
X98500273Y-84608320D01*
X98265241Y-84765363D01*
X98065363Y-84965241D01*
X97910000Y-85197759D01*
X97754637Y-84965241D01*
X97554759Y-84765363D01*
X97319727Y-84608320D01*
X97058574Y-84500147D01*
X96781335Y-84445000D01*
X96498665Y-84445000D01*
X96221426Y-84500147D01*
X95960273Y-84608320D01*
X95725241Y-84765363D01*
X95525363Y-84965241D01*
X95368320Y-85200273D01*
X95363933Y-85210865D01*
X95252385Y-85024869D01*
X95063414Y-84816481D01*
X94837420Y-84648963D01*
X94583087Y-84528754D01*
X94449039Y-84488096D01*
X94227000Y-84610085D01*
X94227000Y-85753000D01*
X94247000Y-85753000D01*
X94247000Y-86007000D01*
X94227000Y-86007000D01*
X94227000Y-87149915D01*
X94449039Y-87271904D01*
X94583087Y-87231246D01*
X94837420Y-87111037D01*
X95063414Y-86943519D01*
X95252385Y-86735131D01*
X95363933Y-86549135D01*
X95368320Y-86559727D01*
X95525363Y-86794759D01*
X95725241Y-86994637D01*
X95960273Y-87151680D01*
X96221426Y-87259853D01*
X96498665Y-87315000D01*
X96781335Y-87315000D01*
X97058574Y-87259853D01*
X97319727Y-87151680D01*
X97554759Y-86994637D01*
X97754637Y-86794759D01*
X97910000Y-86562241D01*
X98065363Y-86794759D01*
X98265241Y-86994637D01*
X98500273Y-87151680D01*
X98761426Y-87259853D01*
X99038665Y-87315000D01*
X99321335Y-87315000D01*
X99503886Y-87278688D01*
X99545002Y-87319804D01*
X99545002Y-92109491D01*
X99321335Y-92065000D01*
X99038665Y-92065000D01*
X98761426Y-92120147D01*
X98500273Y-92228320D01*
X98265241Y-92385363D01*
X98065363Y-92585241D01*
X97910000Y-92817759D01*
X97754637Y-92585241D01*
X97554759Y-92385363D01*
X97319727Y-92228320D01*
X97058574Y-92120147D01*
X96781335Y-92065000D01*
X96498665Y-92065000D01*
X96221426Y-92120147D01*
X95960273Y-92228320D01*
X95725241Y-92385363D01*
X95526643Y-92583961D01*
X95525812Y-92575518D01*
X95489502Y-92455820D01*
X95430537Y-92345506D01*
X95351185Y-92248815D01*
X95254494Y-92169463D01*
X95144180Y-92110498D01*
X95024482Y-92074188D01*
X94900000Y-92061928D01*
X93300000Y-92061928D01*
X93175518Y-92074188D01*
X93055820Y-92110498D01*
X92945506Y-92169463D01*
X92848815Y-92248815D01*
X92769463Y-92345506D01*
X92710498Y-92455820D01*
X92674188Y-92575518D01*
X92661928Y-92700000D01*
X92661928Y-94300000D01*
X92674188Y-94424482D01*
X92710498Y-94544180D01*
X92769463Y-94654494D01*
X92848815Y-94751185D01*
X92945506Y-94830537D01*
X93055820Y-94889502D01*
X93175518Y-94925812D01*
X93300000Y-94938072D01*
X94463270Y-94938072D01*
X94465001Y-94939803D01*
X94465002Y-100292938D01*
X94449039Y-100288096D01*
X94227000Y-100410085D01*
X94227000Y-101553000D01*
X94247000Y-101553000D01*
X94247000Y-101807000D01*
X94227000Y-101807000D01*
X94227000Y-102949915D01*
X94449039Y-103071904D01*
X94465002Y-103067062D01*
X94465002Y-103187669D01*
X94461325Y-103225001D01*
X94465002Y-103262334D01*
X94475999Y-103373987D01*
X94480021Y-103387245D01*
X94519455Y-103517247D01*
X94590027Y-103649277D01*
X94617535Y-103682795D01*
X94685001Y-103765002D01*
X94713999Y-103788800D01*
X95565000Y-104639802D01*
X95565000Y-104701939D01*
X95604774Y-104901898D01*
X95682795Y-105090256D01*
X95796063Y-105259774D01*
X95940226Y-105403937D01*
X96109744Y-105517205D01*
X96298102Y-105595226D01*
X96498061Y-105635000D01*
X96701939Y-105635000D01*
X96901898Y-105595226D01*
X97090256Y-105517205D01*
X97140000Y-105483967D01*
X97140000Y-107858202D01*
X97072349Y-107925853D01*
X97058574Y-107920147D01*
X96781335Y-107865000D01*
X96498665Y-107865000D01*
X96221426Y-107920147D01*
X95960273Y-108028320D01*
X95725241Y-108185363D01*
X95526643Y-108383961D01*
X95525812Y-108375518D01*
X95489502Y-108255820D01*
X95430537Y-108145506D01*
X95351185Y-108048815D01*
X95254494Y-107969463D01*
X95144180Y-107910498D01*
X95024482Y-107874188D01*
X94900000Y-107861928D01*
X93300000Y-107861928D01*
X93175518Y-107874188D01*
X93055820Y-107910498D01*
X92945506Y-107969463D01*
X92848815Y-108048815D01*
X92769463Y-108145506D01*
X92710498Y-108255820D01*
X92674188Y-108375518D01*
X92661928Y-108500000D01*
X92661928Y-110100000D01*
X92674188Y-110224482D01*
X92710498Y-110344180D01*
X92769463Y-110454494D01*
X92848815Y-110551185D01*
X92945506Y-110630537D01*
X93055820Y-110689502D01*
X93175518Y-110725812D01*
X93300000Y-110738072D01*
X94755000Y-110738072D01*
X94755000Y-114910007D01*
X94583087Y-114828754D01*
X94449039Y-114788096D01*
X94227000Y-114910085D01*
X94227000Y-116053000D01*
X94247000Y-116053000D01*
X94247000Y-116307000D01*
X94227000Y-116307000D01*
X94227000Y-117449915D01*
X94449039Y-117571904D01*
X94583087Y-117531246D01*
X94754999Y-117449993D01*
X94754999Y-122361928D01*
X93300000Y-122361928D01*
X93175518Y-122374188D01*
X93055820Y-122410498D01*
X92945506Y-122469463D01*
X92848815Y-122548815D01*
X92769463Y-122645506D01*
X92710498Y-122755820D01*
X92674188Y-122875518D01*
X92661928Y-123000000D01*
X92661928Y-124600000D01*
X92674188Y-124724482D01*
X92710498Y-124844180D01*
X92769463Y-124954494D01*
X92848815Y-125051185D01*
X92945506Y-125130537D01*
X93055820Y-125189502D01*
X93175518Y-125225812D01*
X93300000Y-125238072D01*
X94900000Y-125238072D01*
X95024482Y-125225812D01*
X95144180Y-125189502D01*
X95254494Y-125130537D01*
X95351185Y-125051185D01*
X95430537Y-124954494D01*
X95489502Y-124844180D01*
X95525812Y-124724482D01*
X95526643Y-124716039D01*
X95725241Y-124914637D01*
X95880000Y-125018043D01*
X95880001Y-133065197D01*
X94386408Y-134558791D01*
X94166260Y-134515000D01*
X93873740Y-134515000D01*
X93586842Y-134572068D01*
X93316589Y-134684010D01*
X93073368Y-134846525D01*
X92866525Y-135053368D01*
X92750000Y-135227760D01*
X92633475Y-135053368D01*
X92426632Y-134846525D01*
X92183411Y-134684010D01*
X91913158Y-134572068D01*
X91626260Y-134515000D01*
X91333740Y-134515000D01*
X91046842Y-134572068D01*
X90776589Y-134684010D01*
X90533368Y-134846525D01*
X90326525Y-135053368D01*
X90210000Y-135227760D01*
X90093475Y-135053368D01*
X89886632Y-134846525D01*
X89643411Y-134684010D01*
X89373158Y-134572068D01*
X89086260Y-134515000D01*
X88793740Y-134515000D01*
X88506842Y-134572068D01*
X88236589Y-134684010D01*
X87993368Y-134846525D01*
X87861513Y-134978380D01*
X87839502Y-134905820D01*
X87780537Y-134795506D01*
X87701185Y-134698815D01*
X87604494Y-134619463D01*
X87494180Y-134560498D01*
X87374482Y-134524188D01*
X87250000Y-134511928D01*
X85685000Y-134511928D01*
X85685000Y-116529040D01*
X92708091Y-116529040D01*
X92802930Y-116793881D01*
X92947615Y-117035131D01*
X93136586Y-117243519D01*
X93362580Y-117411037D01*
X93616913Y-117531246D01*
X93750961Y-117571904D01*
X93973000Y-117449915D01*
X93973000Y-116307000D01*
X92829376Y-116307000D01*
X92708091Y-116529040D01*
X85685000Y-116529040D01*
X85685000Y-115830960D01*
X92708091Y-115830960D01*
X92829376Y-116053000D01*
X93973000Y-116053000D01*
X93973000Y-114910085D01*
X93750961Y-114788096D01*
X93616913Y-114828754D01*
X93362580Y-114948963D01*
X93136586Y-115116481D01*
X92947615Y-115324869D01*
X92802930Y-115566119D01*
X92708091Y-115830960D01*
X85685000Y-115830960D01*
X85685000Y-102029040D01*
X92708091Y-102029040D01*
X92802930Y-102293881D01*
X92947615Y-102535131D01*
X93136586Y-102743519D01*
X93362580Y-102911037D01*
X93616913Y-103031246D01*
X93750961Y-103071904D01*
X93973000Y-102949915D01*
X93973000Y-101807000D01*
X92829376Y-101807000D01*
X92708091Y-102029040D01*
X85685000Y-102029040D01*
X85685000Y-101330960D01*
X92708091Y-101330960D01*
X92829376Y-101553000D01*
X93973000Y-101553000D01*
X93973000Y-100410085D01*
X93750961Y-100288096D01*
X93616913Y-100328754D01*
X93362580Y-100448963D01*
X93136586Y-100616481D01*
X92947615Y-100824869D01*
X92802930Y-101066119D01*
X92708091Y-101330960D01*
X85685000Y-101330960D01*
X85685000Y-86229040D01*
X92708091Y-86229040D01*
X92802930Y-86493881D01*
X92947615Y-86735131D01*
X93136586Y-86943519D01*
X93362580Y-87111037D01*
X93616913Y-87231246D01*
X93750961Y-87271904D01*
X93973000Y-87149915D01*
X93973000Y-86007000D01*
X92829376Y-86007000D01*
X92708091Y-86229040D01*
X85685000Y-86229040D01*
X85685000Y-85530960D01*
X92708091Y-85530960D01*
X92829376Y-85753000D01*
X93973000Y-85753000D01*
X93973000Y-84610085D01*
X93750961Y-84488096D01*
X93616913Y-84528754D01*
X93362580Y-84648963D01*
X93136586Y-84816481D01*
X92947615Y-85024869D01*
X92802930Y-85266119D01*
X92708091Y-85530960D01*
X85685000Y-85530960D01*
X85685000Y-69729040D01*
X92708091Y-69729040D01*
X92802930Y-69993881D01*
X92947615Y-70235131D01*
X93136586Y-70443519D01*
X93362580Y-70611037D01*
X93616913Y-70731246D01*
X93750961Y-70771904D01*
X93973000Y-70649915D01*
X93973000Y-69507000D01*
X92829376Y-69507000D01*
X92708091Y-69729040D01*
X85685000Y-69729040D01*
X85685000Y-69030960D01*
X92708091Y-69030960D01*
X92829376Y-69253000D01*
X93973000Y-69253000D01*
X93973000Y-68110085D01*
X93750961Y-67988096D01*
X93616913Y-68028754D01*
X93362580Y-68148963D01*
X93136586Y-68316481D01*
X92947615Y-68524869D01*
X92802930Y-68766119D01*
X92708091Y-69030960D01*
X85685000Y-69030960D01*
X85685000Y-65300000D01*
X92661928Y-65300000D01*
X92674188Y-65424482D01*
X92710498Y-65544180D01*
X92769463Y-65654494D01*
X92848815Y-65751185D01*
X92945506Y-65830537D01*
X93055820Y-65889502D01*
X93175518Y-65925812D01*
X93300000Y-65938072D01*
X93814250Y-65935000D01*
X93973000Y-65776250D01*
X93973000Y-64627000D01*
X92823750Y-64627000D01*
X92665000Y-64785750D01*
X92661928Y-65300000D01*
X85685000Y-65300000D01*
X85685000Y-63700000D01*
X92661928Y-63700000D01*
X92665000Y-64214250D01*
X92823750Y-64373000D01*
X93973000Y-64373000D01*
X93973000Y-63223750D01*
X93814250Y-63065000D01*
X93300000Y-63061928D01*
X93175518Y-63074188D01*
X93055820Y-63110498D01*
X92945506Y-63169463D01*
X92848815Y-63248815D01*
X92769463Y-63345506D01*
X92710498Y-63455820D01*
X92674188Y-63575518D01*
X92661928Y-63700000D01*
X85685000Y-63700000D01*
X85685000Y-57229040D01*
X92708091Y-57229040D01*
X92802930Y-57493881D01*
X92947615Y-57735131D01*
X93136586Y-57943519D01*
X93362580Y-58111037D01*
X93616913Y-58231246D01*
X93750961Y-58271904D01*
X93973000Y-58149915D01*
X93973000Y-57007000D01*
X92829376Y-57007000D01*
X92708091Y-57229040D01*
X85685000Y-57229040D01*
X85685000Y-56530960D01*
X92708091Y-56530960D01*
X92829376Y-56753000D01*
X93973000Y-56753000D01*
X93973000Y-55610085D01*
X93750961Y-55488096D01*
X93616913Y-55528754D01*
X93362580Y-55648963D01*
X93136586Y-55816481D01*
X92947615Y-56024869D01*
X92802930Y-56266119D01*
X92708091Y-56530960D01*
X85685000Y-56530960D01*
X85685000Y-47488072D01*
X87250000Y-47488072D01*
X87374482Y-47475812D01*
X87494180Y-47439502D01*
X87604494Y-47380537D01*
X87701185Y-47301185D01*
X87780537Y-47204494D01*
X87839502Y-47094180D01*
X87861513Y-47021620D01*
X87993368Y-47153475D01*
X88236589Y-47315990D01*
X88506842Y-47427932D01*
X88793740Y-47485000D01*
X89086260Y-47485000D01*
X89373158Y-47427932D01*
X89643411Y-47315990D01*
X89886632Y-47153475D01*
X90093475Y-46946632D01*
X90210000Y-46772240D01*
X90326525Y-46946632D01*
X90533368Y-47153475D01*
X90776589Y-47315990D01*
X91046842Y-47427932D01*
X91333740Y-47485000D01*
X91626260Y-47485000D01*
X91913158Y-47427932D01*
X92183411Y-47315990D01*
X92426632Y-47153475D01*
X92633475Y-46946632D01*
X92750000Y-46772240D01*
X92866525Y-46946632D01*
X93073368Y-47153475D01*
X93260000Y-47278179D01*
X93260001Y-51682668D01*
X93256324Y-51720000D01*
X93270998Y-51868985D01*
X93314454Y-52012246D01*
X93385026Y-52144276D01*
X93447172Y-52220000D01*
X93480000Y-52260001D01*
X93508998Y-52283799D01*
X96670198Y-55445000D01*
X96498665Y-55445000D01*
X96221426Y-55500147D01*
X95960273Y-55608320D01*
X95725241Y-55765363D01*
X95525363Y-55965241D01*
X95368320Y-56200273D01*
X95363933Y-56210865D01*
X95252385Y-56024869D01*
X95063414Y-55816481D01*
X94837420Y-55648963D01*
X94583087Y-55528754D01*
X94449039Y-55488096D01*
X94227000Y-55610085D01*
X94227000Y-56753000D01*
X94247000Y-56753000D01*
X94247000Y-57007000D01*
X94227000Y-57007000D01*
X94227000Y-58149915D01*
X94449039Y-58271904D01*
X94583087Y-58231246D01*
X94837420Y-58111037D01*
X95063414Y-57943519D01*
X95252385Y-57735131D01*
X95363933Y-57549135D01*
X95368320Y-57559727D01*
X95525363Y-57794759D01*
X95725241Y-57994637D01*
X95960273Y-58151680D01*
X96221426Y-58259853D01*
X96498665Y-58315000D01*
X96781335Y-58315000D01*
X97058574Y-58259853D01*
X97294999Y-58161923D01*
X97294999Y-63218077D01*
X97058574Y-63120147D01*
X96781335Y-63065000D01*
X96498665Y-63065000D01*
X96221426Y-63120147D01*
X95960273Y-63228320D01*
X95725241Y-63385363D01*
X95526643Y-63583961D01*
X95525812Y-63575518D01*
X95489502Y-63455820D01*
X95430537Y-63345506D01*
X95351185Y-63248815D01*
X95254494Y-63169463D01*
X95144180Y-63110498D01*
X95024482Y-63074188D01*
X94900000Y-63061928D01*
X94385750Y-63065000D01*
X94227000Y-63223750D01*
X94227000Y-64373000D01*
X94247000Y-64373000D01*
X94247000Y-64627000D01*
X94227000Y-64627000D01*
X94227000Y-65776250D01*
X94385750Y-65935000D01*
X94900000Y-65938072D01*
X95024482Y-65925812D01*
X95144180Y-65889502D01*
X95254494Y-65830537D01*
X95351185Y-65751185D01*
X95430537Y-65654494D01*
X95489502Y-65544180D01*
X95525812Y-65424482D01*
X95526643Y-65416039D01*
X95725241Y-65614637D01*
X95960273Y-65771680D01*
X96221426Y-65879853D01*
X96498665Y-65935000D01*
X96781335Y-65935000D01*
X97058574Y-65879853D01*
X97294999Y-65781922D01*
X97295000Y-68098078D01*
X97058574Y-68000147D01*
X96781335Y-67945000D01*
X96498665Y-67945000D01*
X96221426Y-68000147D01*
X95960273Y-68108320D01*
X95725241Y-68265363D01*
X95525363Y-68465241D01*
X95368320Y-68700273D01*
X95363933Y-68710865D01*
X95252385Y-68524869D01*
X95063414Y-68316481D01*
X94837420Y-68148963D01*
X94583087Y-68028754D01*
X94449039Y-67988096D01*
X94227000Y-68110085D01*
X94227000Y-69253000D01*
X94247000Y-69253000D01*
X94247000Y-69507000D01*
X94227000Y-69507000D01*
X94227000Y-70649915D01*
X94449039Y-70771904D01*
X94583087Y-70731246D01*
X94837420Y-70611037D01*
X95063414Y-70443519D01*
X95252385Y-70235131D01*
X95363933Y-70049135D01*
X95368320Y-70059727D01*
X95525363Y-70294759D01*
X95725241Y-70494637D01*
X95960273Y-70651680D01*
X96221426Y-70759853D01*
X96498665Y-70815000D01*
X96781335Y-70815000D01*
X97058574Y-70759853D01*
X97295000Y-70661922D01*
X97295000Y-75718078D01*
X97058574Y-75620147D01*
X96781335Y-75565000D01*
X96498665Y-75565000D01*
X96221426Y-75620147D01*
X95960273Y-75728320D01*
X95725241Y-75885363D01*
X95526643Y-76083961D01*
X95525812Y-76075518D01*
X95489502Y-75955820D01*
X95430537Y-75845506D01*
X95351185Y-75748815D01*
X95254494Y-75669463D01*
X95144180Y-75610498D01*
X95024482Y-75574188D01*
X94900000Y-75561928D01*
X93300000Y-75561928D01*
X93175518Y-75574188D01*
X93055820Y-75610498D01*
X92945506Y-75669463D01*
X92848815Y-75748815D01*
X92769463Y-75845506D01*
X92710498Y-75955820D01*
X92674188Y-76075518D01*
X92661928Y-76200000D01*
X92661928Y-77800000D01*
X92674188Y-77924482D01*
X92710498Y-78044180D01*
X92769463Y-78154494D01*
X92848815Y-78251185D01*
X92945506Y-78330537D01*
X93055820Y-78389502D01*
X93175518Y-78425812D01*
X93300000Y-78438072D01*
X94463270Y-78438072D01*
X94661202Y-78636004D01*
X94685000Y-78665002D01*
X94800725Y-78759975D01*
X94932754Y-78830547D01*
X95076015Y-78874004D01*
X95187668Y-78885001D01*
X95187676Y-78885001D01*
X95225001Y-78888677D01*
X95262326Y-78885001D01*
X130037677Y-78885001D01*
X130074999Y-78888677D01*
X130112321Y-78885001D01*
X130112332Y-78885001D01*
X130223985Y-78874004D01*
X130367246Y-78830547D01*
X130499275Y-78759975D01*
X130615000Y-78665002D01*
X130638803Y-78635998D01*
X141139802Y-68135000D01*
X141201939Y-68135000D01*
X141401898Y-68095226D01*
X141590256Y-68017205D01*
X141759774Y-67903937D01*
X141903937Y-67759774D01*
X142017205Y-67590256D01*
X142095226Y-67401898D01*
X142135000Y-67201939D01*
X142135000Y-66998061D01*
X142095226Y-66798102D01*
X142017205Y-66609744D01*
X141903937Y-66440226D01*
X141860000Y-66396289D01*
X141860000Y-60087526D01*
X142098665Y-60135000D01*
X142381335Y-60135000D01*
X142658574Y-60079853D01*
X142919727Y-59971680D01*
X143154759Y-59814637D01*
X143354637Y-59614759D01*
X143510000Y-59382241D01*
X143665363Y-59614759D01*
X143865241Y-59814637D01*
X144100273Y-59971680D01*
X144361426Y-60079853D01*
X144638665Y-60135000D01*
X144921335Y-60135000D01*
X145198574Y-60079853D01*
X145459727Y-59971680D01*
X145694759Y-59814637D01*
X145894637Y-59614759D01*
X146050000Y-59382241D01*
X146205363Y-59614759D01*
X146405241Y-59814637D01*
X146640273Y-59971680D01*
X146901426Y-60079853D01*
X147178665Y-60135000D01*
X147461335Y-60135000D01*
X147738574Y-60079853D01*
X147999727Y-59971680D01*
X148234759Y-59814637D01*
X148434637Y-59614759D01*
X148590000Y-59382241D01*
X148745363Y-59614759D01*
X148945241Y-59814637D01*
X149180273Y-59971680D01*
X149441426Y-60079853D01*
X149718665Y-60135000D01*
X150001335Y-60135000D01*
X150278574Y-60079853D01*
X150539727Y-59971680D01*
X150774759Y-59814637D01*
X150974637Y-59614759D01*
X151130000Y-59382241D01*
X151285363Y-59614759D01*
X151485241Y-59814637D01*
X151720273Y-59971680D01*
X151981426Y-60079853D01*
X152258665Y-60135000D01*
X152541335Y-60135000D01*
X152818574Y-60079853D01*
X153079727Y-59971680D01*
X153314759Y-59814637D01*
X153314796Y-59814600D01*
X155540001Y-62039805D01*
X155540000Y-91796289D01*
X155496063Y-91840226D01*
X155382795Y-92009744D01*
X155304774Y-92198102D01*
X155265000Y-92398061D01*
X155265000Y-92601939D01*
X155304774Y-92801898D01*
X155382795Y-92990256D01*
X155496063Y-93159774D01*
X155640226Y-93303937D01*
X155809744Y-93417205D01*
X155998102Y-93495226D01*
X156198061Y-93535000D01*
X156401939Y-93535000D01*
X156601898Y-93495226D01*
X156790256Y-93417205D01*
X156959774Y-93303937D01*
X157103937Y-93159774D01*
X157217205Y-92990256D01*
X157295226Y-92801898D01*
X157335000Y-92601939D01*
X157335000Y-92398061D01*
X157295226Y-92198102D01*
X157217205Y-92009744D01*
X157103937Y-91840226D01*
X157060000Y-91796289D01*
X157060000Y-71035000D01*
X157126939Y-71035000D01*
X157326898Y-70995226D01*
X157515256Y-70917205D01*
X157684774Y-70803937D01*
X157828937Y-70659774D01*
X157942205Y-70490256D01*
X158020226Y-70301898D01*
X158060000Y-70101939D01*
X158060000Y-69898061D01*
X158020226Y-69698102D01*
X157942205Y-69509744D01*
X157828937Y-69340226D01*
X157785000Y-69296289D01*
X157785000Y-60822322D01*
X157788676Y-60784999D01*
X157785000Y-60747676D01*
X157785000Y-60747667D01*
X157774003Y-60636014D01*
X157730546Y-60492753D01*
X157659974Y-60360724D01*
X157565001Y-60244999D01*
X157536003Y-60221201D01*
X157449802Y-60135000D01*
X157621335Y-60135000D01*
X157898574Y-60079853D01*
X158159727Y-59971680D01*
X158394759Y-59814637D01*
X158594637Y-59614759D01*
X158751680Y-59379727D01*
X158859853Y-59118574D01*
X158915000Y-58841335D01*
X158915000Y-58558665D01*
X158859853Y-58281426D01*
X158751680Y-58020273D01*
X158594637Y-57785241D01*
X158394759Y-57585363D01*
X158159727Y-57428320D01*
X157898574Y-57320147D01*
X157621335Y-57265000D01*
X157338665Y-57265000D01*
X157061426Y-57320147D01*
X156800273Y-57428320D01*
X156565241Y-57585363D01*
X156365363Y-57785241D01*
X156210000Y-58017759D01*
X156054637Y-57785241D01*
X155854759Y-57585363D01*
X155619727Y-57428320D01*
X155358574Y-57320147D01*
X155081335Y-57265000D01*
X154798665Y-57265000D01*
X154521426Y-57320147D01*
X154260273Y-57428320D01*
X154046176Y-57571374D01*
X152472863Y-55998061D01*
X172865000Y-55998061D01*
X172865000Y-56201939D01*
X172904774Y-56401898D01*
X172982795Y-56590256D01*
X173096063Y-56759774D01*
X173140001Y-56803712D01*
X173140000Y-68882678D01*
X173136324Y-68920000D01*
X173140000Y-68957322D01*
X173140000Y-68957332D01*
X173150997Y-69068985D01*
X173177914Y-69157719D01*
X173194454Y-69212246D01*
X173265026Y-69344276D01*
X173272488Y-69353368D01*
X173359999Y-69460001D01*
X173389003Y-69483804D01*
X178918790Y-75013592D01*
X178875000Y-75233740D01*
X178875000Y-75526260D01*
X178932068Y-75813158D01*
X179044010Y-76083411D01*
X179206525Y-76326632D01*
X179413368Y-76533475D01*
X179656589Y-76695990D01*
X179926842Y-76807932D01*
X180213740Y-76865000D01*
X180506260Y-76865000D01*
X180793158Y-76807932D01*
X181063411Y-76695990D01*
X181306632Y-76533475D01*
X181513475Y-76326632D01*
X181630000Y-76152240D01*
X181746525Y-76326632D01*
X181953368Y-76533475D01*
X182196589Y-76695990D01*
X182466842Y-76807932D01*
X182753740Y-76865000D01*
X183046260Y-76865000D01*
X183333158Y-76807932D01*
X183340000Y-76805098D01*
X183340000Y-79885198D01*
X182910199Y-80315000D01*
X182848061Y-80315000D01*
X182648102Y-80354774D01*
X182459744Y-80432795D01*
X182290226Y-80546063D01*
X182146063Y-80690226D01*
X182032795Y-80859744D01*
X181954774Y-81048102D01*
X181915000Y-81248061D01*
X181915000Y-81451939D01*
X181954774Y-81651898D01*
X182032795Y-81840256D01*
X182146063Y-82009774D01*
X182290226Y-82153937D01*
X182459744Y-82267205D01*
X182648102Y-82345226D01*
X182848061Y-82385000D01*
X183051939Y-82385000D01*
X183251898Y-82345226D01*
X183440256Y-82267205D01*
X183609774Y-82153937D01*
X183753937Y-82009774D01*
X183867205Y-81840256D01*
X183945226Y-81651898D01*
X183985000Y-81451939D01*
X183985000Y-81389801D01*
X184611002Y-80763800D01*
X184640000Y-80740002D01*
X184734973Y-80624277D01*
X184805545Y-80492248D01*
X184849002Y-80348987D01*
X184859999Y-80237334D01*
X184859999Y-80237325D01*
X184863675Y-80200002D01*
X184859999Y-80162679D01*
X184859999Y-58837322D01*
X184863675Y-58799999D01*
X184859999Y-58762676D01*
X184859999Y-58762666D01*
X184849002Y-58651013D01*
X184805545Y-58507752D01*
X184734973Y-58375723D01*
X184640000Y-58259998D01*
X184611003Y-58236201D01*
X184388072Y-58013270D01*
X184388072Y-56750000D01*
X184375812Y-56625518D01*
X184339502Y-56505820D01*
X184280537Y-56395506D01*
X184201185Y-56298815D01*
X184104494Y-56219463D01*
X183994180Y-56160498D01*
X183874482Y-56124188D01*
X183750000Y-56111928D01*
X182050000Y-56111928D01*
X181925518Y-56124188D01*
X181805820Y-56160498D01*
X181695506Y-56219463D01*
X181598815Y-56298815D01*
X181519463Y-56395506D01*
X181460498Y-56505820D01*
X181438487Y-56578380D01*
X181306632Y-56446525D01*
X181063411Y-56284010D01*
X180793158Y-56172068D01*
X180506260Y-56115000D01*
X180213740Y-56115000D01*
X179926842Y-56172068D01*
X179656589Y-56284010D01*
X179413368Y-56446525D01*
X179206525Y-56653368D01*
X179044010Y-56896589D01*
X178932068Y-57166842D01*
X178931817Y-57168106D01*
X178859774Y-57096063D01*
X178690256Y-56982795D01*
X178501898Y-56904774D01*
X178301939Y-56865000D01*
X178098061Y-56865000D01*
X178060000Y-56872571D01*
X178060000Y-53903711D01*
X178103937Y-53859774D01*
X178217205Y-53690256D01*
X178295226Y-53501898D01*
X178335000Y-53301939D01*
X178335000Y-53098061D01*
X178295226Y-52898102D01*
X178217205Y-52709744D01*
X178103937Y-52540226D01*
X177959774Y-52396063D01*
X177790256Y-52282795D01*
X177601898Y-52204774D01*
X177401939Y-52165000D01*
X177198061Y-52165000D01*
X176998102Y-52204774D01*
X176809744Y-52282795D01*
X176640226Y-52396063D01*
X176496063Y-52540226D01*
X176382795Y-52709744D01*
X176359906Y-52765002D01*
X176298059Y-52765002D01*
X176098100Y-52804776D01*
X175909742Y-52882797D01*
X175740224Y-52996065D01*
X175596061Y-53140228D01*
X175482793Y-53309746D01*
X175404772Y-53498104D01*
X175391194Y-53566366D01*
X175198102Y-53604774D01*
X175009744Y-53682795D01*
X174840226Y-53796063D01*
X174696063Y-53940226D01*
X174582795Y-54109744D01*
X174506789Y-54293237D01*
X174323102Y-54329774D01*
X174134744Y-54407795D01*
X173965226Y-54521063D01*
X173821063Y-54665226D01*
X173707795Y-54834744D01*
X173629774Y-55023102D01*
X173614164Y-55101579D01*
X173598102Y-55104774D01*
X173409744Y-55182795D01*
X173240226Y-55296063D01*
X173096063Y-55440226D01*
X172982795Y-55609744D01*
X172904774Y-55798102D01*
X172865000Y-55998061D01*
X152472863Y-55998061D01*
X148448625Y-51973824D01*
X148590000Y-51762241D01*
X148745363Y-51994759D01*
X148945241Y-52194637D01*
X149180273Y-52351680D01*
X149441426Y-52459853D01*
X149718665Y-52515000D01*
X150001335Y-52515000D01*
X150278574Y-52459853D01*
X150539727Y-52351680D01*
X150774759Y-52194637D01*
X150974637Y-51994759D01*
X151130000Y-51762241D01*
X151285363Y-51994759D01*
X151485241Y-52194637D01*
X151720273Y-52351680D01*
X151981426Y-52459853D01*
X152258665Y-52515000D01*
X152541335Y-52515000D01*
X152818574Y-52459853D01*
X153079727Y-52351680D01*
X153314759Y-52194637D01*
X153514637Y-51994759D01*
X153670000Y-51762241D01*
X153825363Y-51994759D01*
X154025241Y-52194637D01*
X154260273Y-52351680D01*
X154521426Y-52459853D01*
X154798665Y-52515000D01*
X155081335Y-52515000D01*
X155358574Y-52459853D01*
X155619727Y-52351680D01*
X155854759Y-52194637D01*
X156054637Y-51994759D01*
X156210000Y-51762241D01*
X156365363Y-51994759D01*
X156565241Y-52194637D01*
X156800273Y-52351680D01*
X157061426Y-52459853D01*
X157338665Y-52515000D01*
X157621335Y-52515000D01*
X157898574Y-52459853D01*
X158159727Y-52351680D01*
X158394759Y-52194637D01*
X158594637Y-51994759D01*
X158751680Y-51759727D01*
X158859853Y-51498574D01*
X158915000Y-51221335D01*
X158915000Y-50938665D01*
X158859853Y-50661426D01*
X158751680Y-50400273D01*
X158594637Y-50165241D01*
X158394759Y-49965363D01*
X158159727Y-49808320D01*
X157898574Y-49700147D01*
X157621335Y-49645000D01*
X157338665Y-49645000D01*
X157061426Y-49700147D01*
X156800273Y-49808320D01*
X156565241Y-49965363D01*
X156365363Y-50165241D01*
X156210000Y-50397759D01*
X156054637Y-50165241D01*
X155854759Y-49965363D01*
X155619727Y-49808320D01*
X155358574Y-49700147D01*
X155081335Y-49645000D01*
X154798665Y-49645000D01*
X154521426Y-49700147D01*
X154260273Y-49808320D01*
X154025241Y-49965363D01*
X153825363Y-50165241D01*
X153670000Y-50397759D01*
X153514637Y-50165241D01*
X153314759Y-49965363D01*
X153079727Y-49808320D01*
X152818574Y-49700147D01*
X152541335Y-49645000D01*
X152258665Y-49645000D01*
X151981426Y-49700147D01*
X151720273Y-49808320D01*
X151485241Y-49965363D01*
X151285363Y-50165241D01*
X151130000Y-50397759D01*
X150974637Y-50165241D01*
X150774759Y-49965363D01*
X150539727Y-49808320D01*
X150278574Y-49700147D01*
X150001335Y-49645000D01*
X149718665Y-49645000D01*
X149441426Y-49700147D01*
X149180273Y-49808320D01*
X148945241Y-49965363D01*
X148745363Y-50165241D01*
X148590000Y-50397759D01*
X148434637Y-50165241D01*
X148234759Y-49965363D01*
X147999727Y-49808320D01*
X147738574Y-49700147D01*
X147461335Y-49645000D01*
X147178665Y-49645000D01*
X146901426Y-49700147D01*
X146640273Y-49808320D01*
X146405241Y-49965363D01*
X146205363Y-50165241D01*
X146050000Y-50397759D01*
X145894637Y-50165241D01*
X145694759Y-49965363D01*
X145459727Y-49808320D01*
X145198574Y-49700147D01*
X144921335Y-49645000D01*
X144638665Y-49645000D01*
X144361426Y-49700147D01*
X144100273Y-49808320D01*
X143865241Y-49965363D01*
X143665363Y-50165241D01*
X143510000Y-50397759D01*
X143354637Y-50165241D01*
X143154759Y-49965363D01*
X142919727Y-49808320D01*
X142658574Y-49700147D01*
X142381335Y-49645000D01*
X142098665Y-49645000D01*
X141821426Y-49700147D01*
X141560273Y-49808320D01*
X141325241Y-49965363D01*
X141125363Y-50165241D01*
X140968320Y-50400273D01*
X140963933Y-50410865D01*
X140852385Y-50224869D01*
X140663414Y-50016481D01*
X140437420Y-49848963D01*
X140183087Y-49728754D01*
X140049039Y-49688096D01*
X139827000Y-49810085D01*
X139827000Y-50953000D01*
X139847000Y-50953000D01*
X139847000Y-51207000D01*
X139827000Y-51207000D01*
X139827000Y-52349915D01*
X140049039Y-52471904D01*
X140183087Y-52431246D01*
X140340000Y-52357082D01*
X140340000Y-57261928D01*
X138900000Y-57261928D01*
X138775518Y-57274188D01*
X138655820Y-57310498D01*
X138545506Y-57369463D01*
X138448815Y-57448815D01*
X138369463Y-57545506D01*
X138310498Y-57655820D01*
X138274188Y-57775518D01*
X138261928Y-57900000D01*
X138261928Y-59500000D01*
X138274188Y-59624482D01*
X138310498Y-59744180D01*
X138369463Y-59854494D01*
X138448815Y-59951185D01*
X138545506Y-60030537D01*
X138655820Y-60089502D01*
X138775518Y-60125812D01*
X138900000Y-60138072D01*
X140340001Y-60138072D01*
X140340001Y-66396288D01*
X140296063Y-66440226D01*
X140182795Y-66609744D01*
X140104774Y-66798102D01*
X140065000Y-66998061D01*
X140065000Y-67060198D01*
X129760198Y-77365001D01*
X118350509Y-77365001D01*
X118395000Y-77141335D01*
X118395000Y-76858665D01*
X118339853Y-76581426D01*
X118231680Y-76320273D01*
X118074637Y-76085241D01*
X117874759Y-75885363D01*
X117639727Y-75728320D01*
X117378574Y-75620147D01*
X117101335Y-75565000D01*
X116818665Y-75565000D01*
X116541426Y-75620147D01*
X116280273Y-75728320D01*
X116045241Y-75885363D01*
X115845363Y-76085241D01*
X115690000Y-76317759D01*
X115534637Y-76085241D01*
X115334759Y-75885363D01*
X115099727Y-75728320D01*
X114838574Y-75620147D01*
X114561335Y-75565000D01*
X114278665Y-75565000D01*
X114001426Y-75620147D01*
X113740273Y-75728320D01*
X113505241Y-75885363D01*
X113305363Y-76085241D01*
X113150000Y-76317759D01*
X112994637Y-76085241D01*
X112794759Y-75885363D01*
X112559727Y-75728320D01*
X112298574Y-75620147D01*
X112021335Y-75565000D01*
X111738665Y-75565000D01*
X111556113Y-75601312D01*
X111514999Y-75560198D01*
X111514999Y-70770509D01*
X111738665Y-70815000D01*
X112021335Y-70815000D01*
X112298574Y-70759853D01*
X112559727Y-70651680D01*
X112794759Y-70494637D01*
X112994637Y-70294759D01*
X113150000Y-70062241D01*
X113305363Y-70294759D01*
X113505241Y-70494637D01*
X113740273Y-70651680D01*
X114001426Y-70759853D01*
X114278665Y-70815000D01*
X114561335Y-70815000D01*
X114838574Y-70759853D01*
X115099727Y-70651680D01*
X115334759Y-70494637D01*
X115534637Y-70294759D01*
X115690000Y-70062241D01*
X115845363Y-70294759D01*
X116045241Y-70494637D01*
X116280273Y-70651680D01*
X116541426Y-70759853D01*
X116818665Y-70815000D01*
X117101335Y-70815000D01*
X117378574Y-70759853D01*
X117639727Y-70651680D01*
X117874759Y-70494637D01*
X118074637Y-70294759D01*
X118231680Y-70059727D01*
X118339853Y-69798574D01*
X118395000Y-69521335D01*
X118395000Y-69238665D01*
X118358688Y-69056114D01*
X120011009Y-67403794D01*
X120040001Y-67380001D01*
X120063795Y-67351008D01*
X120063799Y-67351004D01*
X120134973Y-67264277D01*
X120134974Y-67264276D01*
X120205546Y-67132247D01*
X120249003Y-66988986D01*
X120260000Y-66877333D01*
X120260000Y-66877324D01*
X120263676Y-66840001D01*
X120260000Y-66802678D01*
X120260000Y-55614801D01*
X124445761Y-51429040D01*
X138308091Y-51429040D01*
X138402930Y-51693881D01*
X138547615Y-51935131D01*
X138736586Y-52143519D01*
X138962580Y-52311037D01*
X139216913Y-52431246D01*
X139350961Y-52471904D01*
X139573000Y-52349915D01*
X139573000Y-51207000D01*
X138429376Y-51207000D01*
X138308091Y-51429040D01*
X124445761Y-51429040D01*
X125143841Y-50730960D01*
X138308091Y-50730960D01*
X138429376Y-50953000D01*
X139573000Y-50953000D01*
X139573000Y-49810085D01*
X139350961Y-49688096D01*
X139216913Y-49728754D01*
X138962580Y-49848963D01*
X138736586Y-50016481D01*
X138547615Y-50224869D01*
X138402930Y-50466119D01*
X138308091Y-50730960D01*
X125143841Y-50730960D01*
X126739802Y-49135000D01*
X126801939Y-49135000D01*
X127001898Y-49095226D01*
X127190256Y-49017205D01*
X127359774Y-48903937D01*
X127503937Y-48759774D01*
X127617205Y-48590256D01*
X127695226Y-48401898D01*
X127735000Y-48201939D01*
X127735000Y-47998061D01*
X127695226Y-47798102D01*
X127617205Y-47609744D01*
X127503937Y-47440226D01*
X127486229Y-47422518D01*
X127743411Y-47315990D01*
X127986632Y-47153475D01*
X128193475Y-46946632D01*
X128310000Y-46772240D01*
X128426525Y-46946632D01*
X128633368Y-47153475D01*
X128876589Y-47315990D01*
X129146842Y-47427932D01*
X129433740Y-47485000D01*
X129726260Y-47485000D01*
X130013158Y-47427932D01*
X130283411Y-47315990D01*
X130526632Y-47153475D01*
X130733475Y-46946632D01*
X130850000Y-46772240D01*
X130966525Y-46946632D01*
X131173368Y-47153475D01*
X131416589Y-47315990D01*
X131686842Y-47427932D01*
X131973740Y-47485000D01*
X132266260Y-47485000D01*
X132553158Y-47427932D01*
X132823411Y-47315990D01*
X133066632Y-47153475D01*
X133273475Y-46946632D01*
X133390000Y-46772240D01*
X133506525Y-46946632D01*
X133713368Y-47153475D01*
X133956589Y-47315990D01*
X134226842Y-47427932D01*
X134513740Y-47485000D01*
X134806260Y-47485000D01*
X135093158Y-47427932D01*
X135363411Y-47315990D01*
X135606632Y-47153475D01*
X135813475Y-46946632D01*
X135930000Y-46772240D01*
X136046525Y-46946632D01*
X136253368Y-47153475D01*
X136496589Y-47315990D01*
X136766842Y-47427932D01*
X137053740Y-47485000D01*
X137346260Y-47485000D01*
X137633158Y-47427932D01*
X137903411Y-47315990D01*
X138146632Y-47153475D01*
X138353475Y-46946632D01*
X138470000Y-46772240D01*
X138586525Y-46946632D01*
X138793368Y-47153475D01*
X139036589Y-47315990D01*
X139306842Y-47427932D01*
X139593740Y-47485000D01*
X139886260Y-47485000D01*
X140173158Y-47427932D01*
X140443411Y-47315990D01*
X140686632Y-47153475D01*
X140893475Y-46946632D01*
X141010000Y-46772240D01*
X141126525Y-46946632D01*
X141333368Y-47153475D01*
X141576589Y-47315990D01*
X141846842Y-47427932D01*
X142133740Y-47485000D01*
X142426260Y-47485000D01*
X142713158Y-47427932D01*
X142983411Y-47315990D01*
X143226632Y-47153475D01*
X143433475Y-46946632D01*
X143550000Y-46772240D01*
X143666525Y-46946632D01*
X143873368Y-47153475D01*
X144116589Y-47315990D01*
X144386842Y-47427932D01*
X144673740Y-47485000D01*
X144966260Y-47485000D01*
X145253158Y-47427932D01*
X145523411Y-47315990D01*
X145766632Y-47153475D01*
X145973475Y-46946632D01*
X146090000Y-46772240D01*
X146206525Y-46946632D01*
X146413368Y-47153475D01*
X146656589Y-47315990D01*
X146926842Y-47427932D01*
X147213740Y-47485000D01*
X147506260Y-47485000D01*
X147793158Y-47427932D01*
X148063411Y-47315990D01*
X148306632Y-47153475D01*
X148513475Y-46946632D01*
X148630000Y-46772240D01*
X148746525Y-46946632D01*
X148953368Y-47153475D01*
X149196589Y-47315990D01*
X149466842Y-47427932D01*
X149753740Y-47485000D01*
X150046260Y-47485000D01*
X150333158Y-47427932D01*
X150603411Y-47315990D01*
X150846632Y-47153475D01*
X151053475Y-46946632D01*
X151170000Y-46772240D01*
X151286525Y-46946632D01*
X151493368Y-47153475D01*
X151736589Y-47315990D01*
X152006842Y-47427932D01*
X152293740Y-47485000D01*
X152586260Y-47485000D01*
X152873158Y-47427932D01*
X153143411Y-47315990D01*
X153386632Y-47153475D01*
X153593475Y-46946632D01*
X153710000Y-46772240D01*
X153826525Y-46946632D01*
X154033368Y-47153475D01*
X154276589Y-47315990D01*
X154546842Y-47427932D01*
X154833740Y-47485000D01*
X155126260Y-47485000D01*
X155413158Y-47427932D01*
X155683411Y-47315990D01*
X155926632Y-47153475D01*
X156133475Y-46946632D01*
X156250000Y-46772240D01*
X156366525Y-46946632D01*
X156573368Y-47153475D01*
X156816589Y-47315990D01*
X157086842Y-47427932D01*
X157373740Y-47485000D01*
X157666260Y-47485000D01*
X157953158Y-47427932D01*
X158223411Y-47315990D01*
X158466632Y-47153475D01*
X158673475Y-46946632D01*
X158790000Y-46772240D01*
X158906525Y-46946632D01*
X159113368Y-47153475D01*
X159356589Y-47315990D01*
X159626842Y-47427932D01*
X159913740Y-47485000D01*
X160206260Y-47485000D01*
X160493158Y-47427932D01*
X160763411Y-47315990D01*
X161006632Y-47153475D01*
X161213475Y-46946632D01*
X161330000Y-46772240D01*
X161446525Y-46946632D01*
X161653368Y-47153475D01*
X161896589Y-47315990D01*
X162166842Y-47427932D01*
X162453740Y-47485000D01*
X162746260Y-47485000D01*
X163033158Y-47427932D01*
X163303411Y-47315990D01*
X163546632Y-47153475D01*
X163753475Y-46946632D01*
X163870000Y-46772240D01*
X163986525Y-46946632D01*
X164193368Y-47153475D01*
X164436589Y-47315990D01*
X164706842Y-47427932D01*
X164993740Y-47485000D01*
X165286260Y-47485000D01*
X165573158Y-47427932D01*
X165843411Y-47315990D01*
X166086632Y-47153475D01*
X166293475Y-46946632D01*
X166410000Y-46772240D01*
X166526525Y-46946632D01*
X166733368Y-47153475D01*
X166976589Y-47315990D01*
X167246842Y-47427932D01*
X167533740Y-47485000D01*
X167826260Y-47485000D01*
X168113158Y-47427932D01*
X168383411Y-47315990D01*
X168626632Y-47153475D01*
X168833475Y-46946632D01*
X168950000Y-46772240D01*
X169066525Y-46946632D01*
X169273368Y-47153475D01*
X169516589Y-47315990D01*
X169786842Y-47427932D01*
X170073740Y-47485000D01*
X170366260Y-47485000D01*
X170653158Y-47427932D01*
X170923411Y-47315990D01*
X171166632Y-47153475D01*
X171373475Y-46946632D01*
X171490000Y-46772240D01*
X171606525Y-46946632D01*
X171813368Y-47153475D01*
X172056589Y-47315990D01*
X172326842Y-47427932D01*
X172613740Y-47485000D01*
X172906260Y-47485000D01*
X173193158Y-47427932D01*
X173463411Y-47315990D01*
X173706632Y-47153475D01*
X173913475Y-46946632D01*
X174030000Y-46772240D01*
X174146525Y-46946632D01*
X174353368Y-47153475D01*
X174596589Y-47315990D01*
X174866842Y-47427932D01*
X175153740Y-47485000D01*
X175446260Y-47485000D01*
X175733158Y-47427932D01*
X176003411Y-47315990D01*
X176246632Y-47153475D01*
X176453475Y-46946632D01*
X176570000Y-46772240D01*
X176686525Y-46946632D01*
X176893368Y-47153475D01*
X177136589Y-47315990D01*
X177406842Y-47427932D01*
X177693740Y-47485000D01*
X177986260Y-47485000D01*
X178273158Y-47427932D01*
X178543411Y-47315990D01*
X178786632Y-47153475D01*
X178993475Y-46946632D01*
X179110000Y-46772240D01*
X179226525Y-46946632D01*
X179433368Y-47153475D01*
X179676589Y-47315990D01*
X179946842Y-47427932D01*
X180233740Y-47485000D01*
X180526260Y-47485000D01*
X180813158Y-47427932D01*
X181083411Y-47315990D01*
X181326632Y-47153475D01*
X181533475Y-46946632D01*
X181650000Y-46772240D01*
X181766525Y-46946632D01*
X181973368Y-47153475D01*
X182216589Y-47315990D01*
X182486842Y-47427932D01*
X182773740Y-47485000D01*
X183066260Y-47485000D01*
X183353158Y-47427932D01*
X183623411Y-47315990D01*
X183866632Y-47153475D01*
X184073475Y-46946632D01*
X184195195Y-46764466D01*
X184264822Y-46881355D01*
X184459731Y-47097588D01*
X184693080Y-47271641D01*
X184955901Y-47396825D01*
X185103110Y-47441476D01*
X185333000Y-47320155D01*
X185333000Y-46127000D01*
X185313000Y-46127000D01*
X185313000Y-45873000D01*
X185333000Y-45873000D01*
X185333000Y-44679845D01*
X185103110Y-44558524D01*
X184955901Y-44603175D01*
X184693080Y-44728359D01*
X184459731Y-44902412D01*
X184264822Y-45118645D01*
X184195195Y-45235534D01*
X184073475Y-45053368D01*
X183866632Y-44846525D01*
X183623411Y-44684010D01*
X183353158Y-44572068D01*
X183066260Y-44515000D01*
X182773740Y-44515000D01*
X182486842Y-44572068D01*
X182216589Y-44684010D01*
X181973368Y-44846525D01*
X181766525Y-45053368D01*
X181650000Y-45227760D01*
X181533475Y-45053368D01*
X181326632Y-44846525D01*
X181083411Y-44684010D01*
X180813158Y-44572068D01*
X180526260Y-44515000D01*
X180233740Y-44515000D01*
X179946842Y-44572068D01*
X179676589Y-44684010D01*
X179433368Y-44846525D01*
X179226525Y-45053368D01*
X179110000Y-45227760D01*
X178993475Y-45053368D01*
X178786632Y-44846525D01*
X178543411Y-44684010D01*
X178273158Y-44572068D01*
X177986260Y-44515000D01*
X177693740Y-44515000D01*
X177406842Y-44572068D01*
X177136589Y-44684010D01*
X176893368Y-44846525D01*
X176686525Y-45053368D01*
X176570000Y-45227760D01*
X176453475Y-45053368D01*
X176246632Y-44846525D01*
X176003411Y-44684010D01*
X175733158Y-44572068D01*
X175446260Y-44515000D01*
X175153740Y-44515000D01*
X174866842Y-44572068D01*
X174596589Y-44684010D01*
X174353368Y-44846525D01*
X174146525Y-45053368D01*
X174030000Y-45227760D01*
X173913475Y-45053368D01*
X173706632Y-44846525D01*
X173463411Y-44684010D01*
X173193158Y-44572068D01*
X172906260Y-44515000D01*
X172613740Y-44515000D01*
X172326842Y-44572068D01*
X172056589Y-44684010D01*
X171813368Y-44846525D01*
X171606525Y-45053368D01*
X171490000Y-45227760D01*
X171373475Y-45053368D01*
X171166632Y-44846525D01*
X170923411Y-44684010D01*
X170653158Y-44572068D01*
X170366260Y-44515000D01*
X170073740Y-44515000D01*
X169786842Y-44572068D01*
X169516589Y-44684010D01*
X169273368Y-44846525D01*
X169066525Y-45053368D01*
X168950000Y-45227760D01*
X168833475Y-45053368D01*
X168626632Y-44846525D01*
X168383411Y-44684010D01*
X168113158Y-44572068D01*
X167826260Y-44515000D01*
X167533740Y-44515000D01*
X167246842Y-44572068D01*
X166976589Y-44684010D01*
X166733368Y-44846525D01*
X166526525Y-45053368D01*
X166410000Y-45227760D01*
X166293475Y-45053368D01*
X166086632Y-44846525D01*
X165843411Y-44684010D01*
X165573158Y-44572068D01*
X165286260Y-44515000D01*
X164993740Y-44515000D01*
X164706842Y-44572068D01*
X164436589Y-44684010D01*
X164193368Y-44846525D01*
X163986525Y-45053368D01*
X163870000Y-45227760D01*
X163753475Y-45053368D01*
X163546632Y-44846525D01*
X163303411Y-44684010D01*
X163033158Y-44572068D01*
X162746260Y-44515000D01*
X162453740Y-44515000D01*
X162166842Y-44572068D01*
X161896589Y-44684010D01*
X161653368Y-44846525D01*
X161446525Y-45053368D01*
X161330000Y-45227760D01*
X161213475Y-45053368D01*
X161006632Y-44846525D01*
X160763411Y-44684010D01*
X160493158Y-44572068D01*
X160206260Y-44515000D01*
X159913740Y-44515000D01*
X159626842Y-44572068D01*
X159356589Y-44684010D01*
X159113368Y-44846525D01*
X158906525Y-45053368D01*
X158790000Y-45227760D01*
X158673475Y-45053368D01*
X158466632Y-44846525D01*
X158223411Y-44684010D01*
X157953158Y-44572068D01*
X157666260Y-44515000D01*
X157373740Y-44515000D01*
X157086842Y-44572068D01*
X156816589Y-44684010D01*
X156573368Y-44846525D01*
X156366525Y-45053368D01*
X156250000Y-45227760D01*
X156133475Y-45053368D01*
X155926632Y-44846525D01*
X155683411Y-44684010D01*
X155413158Y-44572068D01*
X155126260Y-44515000D01*
X154833740Y-44515000D01*
X154546842Y-44572068D01*
X154276589Y-44684010D01*
X154033368Y-44846525D01*
X153826525Y-45053368D01*
X153710000Y-45227760D01*
X153593475Y-45053368D01*
X153386632Y-44846525D01*
X153143411Y-44684010D01*
X152873158Y-44572068D01*
X152586260Y-44515000D01*
X152293740Y-44515000D01*
X152006842Y-44572068D01*
X151736589Y-44684010D01*
X151493368Y-44846525D01*
X151286525Y-45053368D01*
X151170000Y-45227760D01*
X151053475Y-45053368D01*
X150846632Y-44846525D01*
X150603411Y-44684010D01*
X150333158Y-44572068D01*
X150046260Y-44515000D01*
X149753740Y-44515000D01*
X149466842Y-44572068D01*
X149196589Y-44684010D01*
X148953368Y-44846525D01*
X148746525Y-45053368D01*
X148630000Y-45227760D01*
X148513475Y-45053368D01*
X148306632Y-44846525D01*
X148063411Y-44684010D01*
X147793158Y-44572068D01*
X147506260Y-44515000D01*
X147213740Y-44515000D01*
X146926842Y-44572068D01*
X146656589Y-44684010D01*
X146413368Y-44846525D01*
X146206525Y-45053368D01*
X146090000Y-45227760D01*
X145973475Y-45053368D01*
X145766632Y-44846525D01*
X145523411Y-44684010D01*
X145253158Y-44572068D01*
X144966260Y-44515000D01*
X144673740Y-44515000D01*
X144386842Y-44572068D01*
X144116589Y-44684010D01*
X143873368Y-44846525D01*
X143666525Y-45053368D01*
X143550000Y-45227760D01*
X143433475Y-45053368D01*
X143226632Y-44846525D01*
X142983411Y-44684010D01*
X142713158Y-44572068D01*
X142426260Y-44515000D01*
X142133740Y-44515000D01*
X141846842Y-44572068D01*
X141576589Y-44684010D01*
X141333368Y-44846525D01*
X141126525Y-45053368D01*
X141010000Y-45227760D01*
X140893475Y-45053368D01*
X140686632Y-44846525D01*
X140443411Y-44684010D01*
X140173158Y-44572068D01*
X139886260Y-44515000D01*
X139593740Y-44515000D01*
X139306842Y-44572068D01*
X139036589Y-44684010D01*
X138793368Y-44846525D01*
X138586525Y-45053368D01*
X138470000Y-45227760D01*
X138353475Y-45053368D01*
X138146632Y-44846525D01*
X137903411Y-44684010D01*
X137633158Y-44572068D01*
X137346260Y-44515000D01*
X137053740Y-44515000D01*
X136766842Y-44572068D01*
X136496589Y-44684010D01*
X136253368Y-44846525D01*
X136046525Y-45053368D01*
X135930000Y-45227760D01*
X135813475Y-45053368D01*
X135606632Y-44846525D01*
X135363411Y-44684010D01*
X135093158Y-44572068D01*
X134806260Y-44515000D01*
X134513740Y-44515000D01*
X134226842Y-44572068D01*
X133956589Y-44684010D01*
X133713368Y-44846525D01*
X133506525Y-45053368D01*
X133390000Y-45227760D01*
X133273475Y-45053368D01*
X133066632Y-44846525D01*
X132823411Y-44684010D01*
X132553158Y-44572068D01*
X132266260Y-44515000D01*
X131973740Y-44515000D01*
X131686842Y-44572068D01*
X131416589Y-44684010D01*
X131173368Y-44846525D01*
X130966525Y-45053368D01*
X130850000Y-45227760D01*
X130733475Y-45053368D01*
X130526632Y-44846525D01*
X130283411Y-44684010D01*
X130013158Y-44572068D01*
X129726260Y-44515000D01*
X129433740Y-44515000D01*
X129146842Y-44572068D01*
X128876589Y-44684010D01*
X128633368Y-44846525D01*
X128426525Y-45053368D01*
X128310000Y-45227760D01*
X128193475Y-45053368D01*
X127986632Y-44846525D01*
X127743411Y-44684010D01*
X127473158Y-44572068D01*
X127186260Y-44515000D01*
X126893740Y-44515000D01*
X126606842Y-44572068D01*
X126336589Y-44684010D01*
X126093368Y-44846525D01*
X125886525Y-45053368D01*
X125770000Y-45227760D01*
X125653475Y-45053368D01*
X125446632Y-44846525D01*
X125203411Y-44684010D01*
X124933158Y-44572068D01*
X124646260Y-44515000D01*
X124353740Y-44515000D01*
X124066842Y-44572068D01*
X123796589Y-44684010D01*
X123553368Y-44846525D01*
X123346525Y-45053368D01*
X123230000Y-45227760D01*
X123113475Y-45053368D01*
X122906632Y-44846525D01*
X122663411Y-44684010D01*
X122393158Y-44572068D01*
X122106260Y-44515000D01*
X121813740Y-44515000D01*
X121526842Y-44572068D01*
X121256589Y-44684010D01*
X121013368Y-44846525D01*
X120806525Y-45053368D01*
X120690000Y-45227760D01*
X120573475Y-45053368D01*
X120366632Y-44846525D01*
X120123411Y-44684010D01*
X119853158Y-44572068D01*
X119566260Y-44515000D01*
X119273740Y-44515000D01*
X118986842Y-44572068D01*
X118716589Y-44684010D01*
X118473368Y-44846525D01*
X118266525Y-45053368D01*
X118150000Y-45227760D01*
X118033475Y-45053368D01*
X117826632Y-44846525D01*
X117583411Y-44684010D01*
X117313158Y-44572068D01*
X117026260Y-44515000D01*
X116733740Y-44515000D01*
X116446842Y-44572068D01*
X116176589Y-44684010D01*
X115933368Y-44846525D01*
X115726525Y-45053368D01*
X115610000Y-45227760D01*
X115493475Y-45053368D01*
X115286632Y-44846525D01*
X115043411Y-44684010D01*
X114773158Y-44572068D01*
X114486260Y-44515000D01*
X114193740Y-44515000D01*
X113906842Y-44572068D01*
X113636589Y-44684010D01*
X113393368Y-44846525D01*
X113186525Y-45053368D01*
X113070000Y-45227760D01*
X112953475Y-45053368D01*
X112746632Y-44846525D01*
X112503411Y-44684010D01*
X112233158Y-44572068D01*
X111946260Y-44515000D01*
X111653740Y-44515000D01*
X111366842Y-44572068D01*
X111096589Y-44684010D01*
X110853368Y-44846525D01*
X110646525Y-45053368D01*
X110530000Y-45227760D01*
X110413475Y-45053368D01*
X110206632Y-44846525D01*
X109963411Y-44684010D01*
X109693158Y-44572068D01*
X109406260Y-44515000D01*
X109113740Y-44515000D01*
X108826842Y-44572068D01*
X108556589Y-44684010D01*
X108313368Y-44846525D01*
X108106525Y-45053368D01*
X107990000Y-45227760D01*
X107873475Y-45053368D01*
X107666632Y-44846525D01*
X107423411Y-44684010D01*
X107153158Y-44572068D01*
X106866260Y-44515000D01*
X106573740Y-44515000D01*
X106286842Y-44572068D01*
X106016589Y-44684010D01*
X105773368Y-44846525D01*
X105566525Y-45053368D01*
X105450000Y-45227760D01*
X105333475Y-45053368D01*
X105126632Y-44846525D01*
X104883411Y-44684010D01*
X104613158Y-44572068D01*
X104326260Y-44515000D01*
X104033740Y-44515000D01*
X103746842Y-44572068D01*
X103476589Y-44684010D01*
X103233368Y-44846525D01*
X103026525Y-45053368D01*
X102910000Y-45227760D01*
X102793475Y-45053368D01*
X102586632Y-44846525D01*
X102343411Y-44684010D01*
X102073158Y-44572068D01*
X101786260Y-44515000D01*
X101493740Y-44515000D01*
X101206842Y-44572068D01*
X100936589Y-44684010D01*
X100693368Y-44846525D01*
X100486525Y-45053368D01*
X100370000Y-45227760D01*
X100253475Y-45053368D01*
X100046632Y-44846525D01*
X99803411Y-44684010D01*
X99533158Y-44572068D01*
X99246260Y-44515000D01*
X98953740Y-44515000D01*
X98666842Y-44572068D01*
X98396589Y-44684010D01*
X98153368Y-44846525D01*
X97946525Y-45053368D01*
X97830000Y-45227760D01*
X97713475Y-45053368D01*
X97506632Y-44846525D01*
X97263411Y-44684010D01*
X96993158Y-44572068D01*
X96706260Y-44515000D01*
X96413740Y-44515000D01*
X96126842Y-44572068D01*
X95856589Y-44684010D01*
X95613368Y-44846525D01*
X95406525Y-45053368D01*
X95290000Y-45227760D01*
X95173475Y-45053368D01*
X94966632Y-44846525D01*
X94723411Y-44684010D01*
X94453158Y-44572068D01*
X94166260Y-44515000D01*
X93873740Y-44515000D01*
X93586842Y-44572068D01*
X93316589Y-44684010D01*
X93073368Y-44846525D01*
X92866525Y-45053368D01*
X92750000Y-45227760D01*
X92633475Y-45053368D01*
X92426632Y-44846525D01*
X92183411Y-44684010D01*
X91913158Y-44572068D01*
X91626260Y-44515000D01*
X91333740Y-44515000D01*
X91046842Y-44572068D01*
X90776589Y-44684010D01*
X90533368Y-44846525D01*
X90326525Y-45053368D01*
X90210000Y-45227760D01*
X90093475Y-45053368D01*
X89886632Y-44846525D01*
X89643411Y-44684010D01*
X89373158Y-44572068D01*
X89086260Y-44515000D01*
X88793740Y-44515000D01*
X88506842Y-44572068D01*
X88236589Y-44684010D01*
X87993368Y-44846525D01*
X87861513Y-44978380D01*
X87839502Y-44905820D01*
X87780537Y-44795506D01*
X87701185Y-44698815D01*
X87604494Y-44619463D01*
X87494180Y-44560498D01*
X87374482Y-44524188D01*
X87250000Y-44511928D01*
X85685000Y-44511928D01*
X85685000Y-43685000D01*
X186315000Y-43685000D01*
X186315000Y-44794057D01*
G04 #@! TA.AperFunction,Conductor*
D17*
G36*
X186315000Y-44794057D02*
G01*
X186226920Y-44728359D01*
X185964099Y-44603175D01*
X185816890Y-44558524D01*
X185587000Y-44679845D01*
X185587000Y-45873000D01*
X185607000Y-45873000D01*
X185607000Y-46127000D01*
X185587000Y-46127000D01*
X185587000Y-47320155D01*
X185816890Y-47441476D01*
X185964099Y-47396825D01*
X186226920Y-47271641D01*
X186315000Y-47205943D01*
X186315001Y-134794058D01*
X186226920Y-134728359D01*
X185964099Y-134603175D01*
X185816890Y-134558524D01*
X185587000Y-134679845D01*
X185587000Y-135873000D01*
X185607000Y-135873000D01*
X185607000Y-136127000D01*
X185587000Y-136127000D01*
X185587000Y-137320155D01*
X185816890Y-137441476D01*
X185964099Y-137396825D01*
X186226920Y-137271641D01*
X186315001Y-137205942D01*
X186315001Y-138315000D01*
X85685000Y-138315000D01*
X85685000Y-137488072D01*
X87250000Y-137488072D01*
X87374482Y-137475812D01*
X87494180Y-137439502D01*
X87604494Y-137380537D01*
X87701185Y-137301185D01*
X87780537Y-137204494D01*
X87839502Y-137094180D01*
X87861513Y-137021620D01*
X87993368Y-137153475D01*
X88236589Y-137315990D01*
X88506842Y-137427932D01*
X88793740Y-137485000D01*
X89086260Y-137485000D01*
X89373158Y-137427932D01*
X89643411Y-137315990D01*
X89886632Y-137153475D01*
X90093475Y-136946632D01*
X90210000Y-136772240D01*
X90326525Y-136946632D01*
X90533368Y-137153475D01*
X90776589Y-137315990D01*
X91046842Y-137427932D01*
X91333740Y-137485000D01*
X91626260Y-137485000D01*
X91913158Y-137427932D01*
X92183411Y-137315990D01*
X92426632Y-137153475D01*
X92633475Y-136946632D01*
X92750000Y-136772240D01*
X92866525Y-136946632D01*
X93073368Y-137153475D01*
X93316589Y-137315990D01*
X93586842Y-137427932D01*
X93873740Y-137485000D01*
X94166260Y-137485000D01*
X94453158Y-137427932D01*
X94723411Y-137315990D01*
X94966632Y-137153475D01*
X95173475Y-136946632D01*
X95290000Y-136772240D01*
X95406525Y-136946632D01*
X95613368Y-137153475D01*
X95856589Y-137315990D01*
X96126842Y-137427932D01*
X96413740Y-137485000D01*
X96706260Y-137485000D01*
X96993158Y-137427932D01*
X97263411Y-137315990D01*
X97506632Y-137153475D01*
X97713475Y-136946632D01*
X97830000Y-136772240D01*
X97946525Y-136946632D01*
X98153368Y-137153475D01*
X98396589Y-137315990D01*
X98666842Y-137427932D01*
X98953740Y-137485000D01*
X99246260Y-137485000D01*
X99533158Y-137427932D01*
X99803411Y-137315990D01*
X100046632Y-137153475D01*
X100253475Y-136946632D01*
X100370000Y-136772240D01*
X100486525Y-136946632D01*
X100693368Y-137153475D01*
X100936589Y-137315990D01*
X101206842Y-137427932D01*
X101493740Y-137485000D01*
X101786260Y-137485000D01*
X102073158Y-137427932D01*
X102343411Y-137315990D01*
X102586632Y-137153475D01*
X102793475Y-136946632D01*
X102910000Y-136772240D01*
X103026525Y-136946632D01*
X103233368Y-137153475D01*
X103476589Y-137315990D01*
X103746842Y-137427932D01*
X104033740Y-137485000D01*
X104326260Y-137485000D01*
X104613158Y-137427932D01*
X104883411Y-137315990D01*
X105126632Y-137153475D01*
X105333475Y-136946632D01*
X105450000Y-136772240D01*
X105566525Y-136946632D01*
X105773368Y-137153475D01*
X106016589Y-137315990D01*
X106286842Y-137427932D01*
X106573740Y-137485000D01*
X106866260Y-137485000D01*
X107153158Y-137427932D01*
X107423411Y-137315990D01*
X107666632Y-137153475D01*
X107873475Y-136946632D01*
X107990000Y-136772240D01*
X108106525Y-136946632D01*
X108313368Y-137153475D01*
X108556589Y-137315990D01*
X108826842Y-137427932D01*
X109113740Y-137485000D01*
X109406260Y-137485000D01*
X109693158Y-137427932D01*
X109963411Y-137315990D01*
X110206632Y-137153475D01*
X110413475Y-136946632D01*
X110530000Y-136772240D01*
X110646525Y-136946632D01*
X110853368Y-137153475D01*
X111096589Y-137315990D01*
X111366842Y-137427932D01*
X111653740Y-137485000D01*
X111946260Y-137485000D01*
X112233158Y-137427932D01*
X112503411Y-137315990D01*
X112746632Y-137153475D01*
X112953475Y-136946632D01*
X113070000Y-136772240D01*
X113186525Y-136946632D01*
X113393368Y-137153475D01*
X113636589Y-137315990D01*
X113906842Y-137427932D01*
X114193740Y-137485000D01*
X114486260Y-137485000D01*
X114773158Y-137427932D01*
X115043411Y-137315990D01*
X115246492Y-137180296D01*
X115752204Y-137686009D01*
X115775998Y-137715002D01*
X115804991Y-137738796D01*
X115804995Y-137738800D01*
X115875684Y-137796812D01*
X115891723Y-137809975D01*
X116023752Y-137880547D01*
X116167013Y-137924004D01*
X116278666Y-137935001D01*
X116278675Y-137935001D01*
X116315998Y-137938677D01*
X116353321Y-137935001D01*
X174087677Y-137935001D01*
X174124999Y-137938677D01*
X174162321Y-137935001D01*
X174162332Y-137935001D01*
X174273985Y-137924004D01*
X174417246Y-137880547D01*
X174549275Y-137809975D01*
X174665000Y-137715002D01*
X174688803Y-137685998D01*
X174933592Y-137441209D01*
X175153740Y-137485000D01*
X175446260Y-137485000D01*
X175733158Y-137427932D01*
X176003411Y-137315990D01*
X176246632Y-137153475D01*
X176453475Y-136946632D01*
X176570000Y-136772240D01*
X176686525Y-136946632D01*
X176893368Y-137153475D01*
X177136589Y-137315990D01*
X177406842Y-137427932D01*
X177693740Y-137485000D01*
X177986260Y-137485000D01*
X178273158Y-137427932D01*
X178543411Y-137315990D01*
X178786632Y-137153475D01*
X178993475Y-136946632D01*
X179110000Y-136772240D01*
X179226525Y-136946632D01*
X179433368Y-137153475D01*
X179676589Y-137315990D01*
X179946842Y-137427932D01*
X180233740Y-137485000D01*
X180526260Y-137485000D01*
X180813158Y-137427932D01*
X181083411Y-137315990D01*
X181326632Y-137153475D01*
X181533475Y-136946632D01*
X181650000Y-136772240D01*
X181766525Y-136946632D01*
X181973368Y-137153475D01*
X182216589Y-137315990D01*
X182486842Y-137427932D01*
X182773740Y-137485000D01*
X183066260Y-137485000D01*
X183353158Y-137427932D01*
X183623411Y-137315990D01*
X183866632Y-137153475D01*
X184073475Y-136946632D01*
X184195195Y-136764466D01*
X184264822Y-136881355D01*
X184459731Y-137097588D01*
X184693080Y-137271641D01*
X184955901Y-137396825D01*
X185103110Y-137441476D01*
X185333000Y-137320155D01*
X185333000Y-136127000D01*
X185313000Y-136127000D01*
X185313000Y-135873000D01*
X185333000Y-135873000D01*
X185333000Y-134679845D01*
X185103110Y-134558524D01*
X184955901Y-134603175D01*
X184693080Y-134728359D01*
X184459731Y-134902412D01*
X184264822Y-135118645D01*
X184195195Y-135235534D01*
X184073475Y-135053368D01*
X183866632Y-134846525D01*
X183623411Y-134684010D01*
X183353158Y-134572068D01*
X183066260Y-134515000D01*
X182773740Y-134515000D01*
X182486842Y-134572068D01*
X182216589Y-134684010D01*
X181973368Y-134846525D01*
X181766525Y-135053368D01*
X181650000Y-135227760D01*
X181533475Y-135053368D01*
X181326632Y-134846525D01*
X181083411Y-134684010D01*
X180813158Y-134572068D01*
X180526260Y-134515000D01*
X180233740Y-134515000D01*
X179946842Y-134572068D01*
X179676589Y-134684010D01*
X179433368Y-134846525D01*
X179226525Y-135053368D01*
X179110000Y-135227760D01*
X178993475Y-135053368D01*
X178786632Y-134846525D01*
X178543411Y-134684010D01*
X178273158Y-134572068D01*
X177986260Y-134515000D01*
X177693740Y-134515000D01*
X177406842Y-134572068D01*
X177136589Y-134684010D01*
X176893368Y-134846525D01*
X176686525Y-135053368D01*
X176570000Y-135227760D01*
X176453475Y-135053368D01*
X176246632Y-134846525D01*
X176003411Y-134684010D01*
X175733158Y-134572068D01*
X175446260Y-134515000D01*
X175153740Y-134515000D01*
X174866842Y-134572068D01*
X174596589Y-134684010D01*
X174353368Y-134846525D01*
X174146525Y-135053368D01*
X174030000Y-135227760D01*
X173913475Y-135053368D01*
X173706632Y-134846525D01*
X173463411Y-134684010D01*
X173193158Y-134572068D01*
X172906260Y-134515000D01*
X172613740Y-134515000D01*
X172326842Y-134572068D01*
X172056589Y-134684010D01*
X171813368Y-134846525D01*
X171606525Y-135053368D01*
X171490000Y-135227760D01*
X171373475Y-135053368D01*
X171166632Y-134846525D01*
X170923411Y-134684010D01*
X170653158Y-134572068D01*
X170366260Y-134515000D01*
X170073740Y-134515000D01*
X169786842Y-134572068D01*
X169516589Y-134684010D01*
X169273368Y-134846525D01*
X169066525Y-135053368D01*
X168950000Y-135227760D01*
X168833475Y-135053368D01*
X168626632Y-134846525D01*
X168383411Y-134684010D01*
X168113158Y-134572068D01*
X167826260Y-134515000D01*
X167533740Y-134515000D01*
X167246842Y-134572068D01*
X166976589Y-134684010D01*
X166733368Y-134846525D01*
X166526525Y-135053368D01*
X166410000Y-135227760D01*
X166293475Y-135053368D01*
X166086632Y-134846525D01*
X165843411Y-134684010D01*
X165573158Y-134572068D01*
X165286260Y-134515000D01*
X164993740Y-134515000D01*
X164706842Y-134572068D01*
X164436589Y-134684010D01*
X164193368Y-134846525D01*
X163986525Y-135053368D01*
X163870000Y-135227760D01*
X163753475Y-135053368D01*
X163546632Y-134846525D01*
X163303411Y-134684010D01*
X163033158Y-134572068D01*
X162746260Y-134515000D01*
X162453740Y-134515000D01*
X162166842Y-134572068D01*
X161896589Y-134684010D01*
X161653368Y-134846525D01*
X161446525Y-135053368D01*
X161330000Y-135227760D01*
X161213475Y-135053368D01*
X161006632Y-134846525D01*
X160763411Y-134684010D01*
X160493158Y-134572068D01*
X160206260Y-134515000D01*
X159913740Y-134515000D01*
X159626842Y-134572068D01*
X159356589Y-134684010D01*
X159113368Y-134846525D01*
X158906525Y-135053368D01*
X158790000Y-135227760D01*
X158673475Y-135053368D01*
X158466632Y-134846525D01*
X158223411Y-134684010D01*
X157953158Y-134572068D01*
X157666260Y-134515000D01*
X157373740Y-134515000D01*
X157086842Y-134572068D01*
X156816589Y-134684010D01*
X156573368Y-134846525D01*
X156366525Y-135053368D01*
X156250000Y-135227760D01*
X156133475Y-135053368D01*
X155926632Y-134846525D01*
X155683411Y-134684010D01*
X155413158Y-134572068D01*
X155126260Y-134515000D01*
X154833740Y-134515000D01*
X154546842Y-134572068D01*
X154276589Y-134684010D01*
X154033368Y-134846525D01*
X153826525Y-135053368D01*
X153710000Y-135227760D01*
X153593475Y-135053368D01*
X153386632Y-134846525D01*
X153143411Y-134684010D01*
X152873158Y-134572068D01*
X152586260Y-134515000D01*
X152293740Y-134515000D01*
X152006842Y-134572068D01*
X151736589Y-134684010D01*
X151493368Y-134846525D01*
X151286525Y-135053368D01*
X151170000Y-135227760D01*
X151053475Y-135053368D01*
X150846632Y-134846525D01*
X150603411Y-134684010D01*
X150333158Y-134572068D01*
X150046260Y-134515000D01*
X149753740Y-134515000D01*
X149466842Y-134572068D01*
X149196589Y-134684010D01*
X148953368Y-134846525D01*
X148746525Y-135053368D01*
X148630000Y-135227760D01*
X148513475Y-135053368D01*
X148306632Y-134846525D01*
X148063411Y-134684010D01*
X147793158Y-134572068D01*
X147506260Y-134515000D01*
X147213740Y-134515000D01*
X146926842Y-134572068D01*
X146656589Y-134684010D01*
X146413368Y-134846525D01*
X146206525Y-135053368D01*
X146090000Y-135227760D01*
X145973475Y-135053368D01*
X145766632Y-134846525D01*
X145523411Y-134684010D01*
X145253158Y-134572068D01*
X144966260Y-134515000D01*
X144673740Y-134515000D01*
X144386842Y-134572068D01*
X144116589Y-134684010D01*
X143873368Y-134846525D01*
X143666525Y-135053368D01*
X143550000Y-135227760D01*
X143433475Y-135053368D01*
X143226632Y-134846525D01*
X142983411Y-134684010D01*
X142713158Y-134572068D01*
X142426260Y-134515000D01*
X142133740Y-134515000D01*
X141846842Y-134572068D01*
X141576589Y-134684010D01*
X141333368Y-134846525D01*
X141126525Y-135053368D01*
X141010000Y-135227760D01*
X140893475Y-135053368D01*
X140686632Y-134846525D01*
X140443411Y-134684010D01*
X140173158Y-134572068D01*
X139886260Y-134515000D01*
X139593740Y-134515000D01*
X139306842Y-134572068D01*
X139036589Y-134684010D01*
X138793368Y-134846525D01*
X138586525Y-135053368D01*
X138470000Y-135227760D01*
X138353475Y-135053368D01*
X138146632Y-134846525D01*
X137903411Y-134684010D01*
X137633158Y-134572068D01*
X137346260Y-134515000D01*
X137053740Y-134515000D01*
X136766842Y-134572068D01*
X136496589Y-134684010D01*
X136253368Y-134846525D01*
X136046525Y-135053368D01*
X135930000Y-135227760D01*
X135813475Y-135053368D01*
X135606632Y-134846525D01*
X135363411Y-134684010D01*
X135093158Y-134572068D01*
X134806260Y-134515000D01*
X134513740Y-134515000D01*
X134226842Y-134572068D01*
X133956589Y-134684010D01*
X133713368Y-134846525D01*
X133506525Y-135053368D01*
X133390000Y-135227760D01*
X133273475Y-135053368D01*
X133066632Y-134846525D01*
X132823411Y-134684010D01*
X132553158Y-134572068D01*
X132266260Y-134515000D01*
X131973740Y-134515000D01*
X131686842Y-134572068D01*
X131416589Y-134684010D01*
X131173368Y-134846525D01*
X130966525Y-135053368D01*
X130850000Y-135227760D01*
X130733475Y-135053368D01*
X130526632Y-134846525D01*
X130283411Y-134684010D01*
X130013158Y-134572068D01*
X129726260Y-134515000D01*
X129433740Y-134515000D01*
X129146842Y-134572068D01*
X128876589Y-134684010D01*
X128633368Y-134846525D01*
X128426525Y-135053368D01*
X128310000Y-135227760D01*
X128193475Y-135053368D01*
X127986632Y-134846525D01*
X127743411Y-134684010D01*
X127473158Y-134572068D01*
X127186260Y-134515000D01*
X126893740Y-134515000D01*
X126606842Y-134572068D01*
X126336589Y-134684010D01*
X126093368Y-134846525D01*
X125886525Y-135053368D01*
X125770000Y-135227760D01*
X125653475Y-135053368D01*
X125446632Y-134846525D01*
X125203411Y-134684010D01*
X124933158Y-134572068D01*
X124646260Y-134515000D01*
X124353740Y-134515000D01*
X124066842Y-134572068D01*
X123796589Y-134684010D01*
X123553368Y-134846525D01*
X123346525Y-135053368D01*
X123230000Y-135227760D01*
X123113475Y-135053368D01*
X122906632Y-134846525D01*
X122663411Y-134684010D01*
X122393158Y-134572068D01*
X122106260Y-134515000D01*
X121813740Y-134515000D01*
X121526842Y-134572068D01*
X121256589Y-134684010D01*
X121013368Y-134846525D01*
X120806525Y-135053368D01*
X120690000Y-135227760D01*
X120573475Y-135053368D01*
X120366632Y-134846525D01*
X120123411Y-134684010D01*
X119853158Y-134572068D01*
X119566260Y-134515000D01*
X119273740Y-134515000D01*
X118986842Y-134572068D01*
X118716589Y-134684010D01*
X118473368Y-134846525D01*
X118266525Y-135053368D01*
X118150000Y-135227760D01*
X118033475Y-135053368D01*
X117826632Y-134846525D01*
X117583411Y-134684010D01*
X117313158Y-134572068D01*
X117026260Y-134515000D01*
X116733740Y-134515000D01*
X116464999Y-134568456D01*
X116464999Y-131100000D01*
X138261928Y-131100000D01*
X138261928Y-132700000D01*
X138274188Y-132824482D01*
X138310498Y-132944180D01*
X138369463Y-133054494D01*
X138448815Y-133151185D01*
X138545506Y-133230537D01*
X138655820Y-133289502D01*
X138775518Y-133325812D01*
X138900000Y-133338072D01*
X140500000Y-133338072D01*
X140624482Y-133325812D01*
X140744180Y-133289502D01*
X140854494Y-133230537D01*
X140951185Y-133151185D01*
X141030537Y-133054494D01*
X141089502Y-132944180D01*
X141125812Y-132824482D01*
X141126643Y-132816039D01*
X141325241Y-133014637D01*
X141560273Y-133171680D01*
X141821426Y-133279853D01*
X142098665Y-133335000D01*
X142381335Y-133335000D01*
X142658574Y-133279853D01*
X142919727Y-133171680D01*
X143154759Y-133014637D01*
X143354637Y-132814759D01*
X143510000Y-132582241D01*
X143665363Y-132814759D01*
X143865241Y-133014637D01*
X144100273Y-133171680D01*
X144361426Y-133279853D01*
X144638665Y-133335000D01*
X144921335Y-133335000D01*
X145198574Y-133279853D01*
X145459727Y-133171680D01*
X145694759Y-133014637D01*
X145894637Y-132814759D01*
X146050000Y-132582241D01*
X146205363Y-132814759D01*
X146405241Y-133014637D01*
X146640273Y-133171680D01*
X146901426Y-133279853D01*
X147178665Y-133335000D01*
X147461335Y-133335000D01*
X147738574Y-133279853D01*
X147999727Y-133171680D01*
X148234759Y-133014637D01*
X148434637Y-132814759D01*
X148590000Y-132582241D01*
X148745363Y-132814759D01*
X148945241Y-133014637D01*
X149180273Y-133171680D01*
X149441426Y-133279853D01*
X149718665Y-133335000D01*
X150001335Y-133335000D01*
X150278574Y-133279853D01*
X150539727Y-133171680D01*
X150774759Y-133014637D01*
X150974637Y-132814759D01*
X151130000Y-132582241D01*
X151285363Y-132814759D01*
X151485241Y-133014637D01*
X151720273Y-133171680D01*
X151981426Y-133279853D01*
X152258665Y-133335000D01*
X152541335Y-133335000D01*
X152818574Y-133279853D01*
X153079727Y-133171680D01*
X153314759Y-133014637D01*
X153514637Y-132814759D01*
X153670000Y-132582241D01*
X153825363Y-132814759D01*
X154025241Y-133014637D01*
X154260273Y-133171680D01*
X154521426Y-133279853D01*
X154798665Y-133335000D01*
X155081335Y-133335000D01*
X155358574Y-133279853D01*
X155619727Y-133171680D01*
X155854759Y-133014637D01*
X156054637Y-132814759D01*
X156210000Y-132582241D01*
X156365363Y-132814759D01*
X156565241Y-133014637D01*
X156800273Y-133171680D01*
X157061426Y-133279853D01*
X157338665Y-133335000D01*
X157621335Y-133335000D01*
X157898574Y-133279853D01*
X158159727Y-133171680D01*
X158394759Y-133014637D01*
X158594637Y-132814759D01*
X158751680Y-132579727D01*
X158859853Y-132318574D01*
X158915000Y-132041335D01*
X158915000Y-131758665D01*
X158859853Y-131481426D01*
X158751680Y-131220273D01*
X158594637Y-130985241D01*
X158394759Y-130785363D01*
X158159727Y-130628320D01*
X157898574Y-130520147D01*
X157621335Y-130465000D01*
X157338665Y-130465000D01*
X157061426Y-130520147D01*
X156800273Y-130628320D01*
X156565241Y-130785363D01*
X156365363Y-130985241D01*
X156210000Y-131217759D01*
X156054637Y-130985241D01*
X155854759Y-130785363D01*
X155619727Y-130628320D01*
X155358574Y-130520147D01*
X155081335Y-130465000D01*
X154798665Y-130465000D01*
X154521426Y-130520147D01*
X154260273Y-130628320D01*
X154025241Y-130785363D01*
X153825363Y-130985241D01*
X153670000Y-131217759D01*
X153514637Y-130985241D01*
X153314759Y-130785363D01*
X153079727Y-130628320D01*
X152818574Y-130520147D01*
X152541335Y-130465000D01*
X152258665Y-130465000D01*
X151981426Y-130520147D01*
X151720273Y-130628320D01*
X151485241Y-130785363D01*
X151285363Y-130985241D01*
X151130000Y-131217759D01*
X150974637Y-130985241D01*
X150774759Y-130785363D01*
X150539727Y-130628320D01*
X150278574Y-130520147D01*
X150001335Y-130465000D01*
X149718665Y-130465000D01*
X149441426Y-130520147D01*
X149180273Y-130628320D01*
X148945241Y-130785363D01*
X148745363Y-130985241D01*
X148590000Y-131217759D01*
X148434637Y-130985241D01*
X148234759Y-130785363D01*
X147999727Y-130628320D01*
X147738574Y-130520147D01*
X147461335Y-130465000D01*
X147178665Y-130465000D01*
X146901426Y-130520147D01*
X146640273Y-130628320D01*
X146405241Y-130785363D01*
X146205363Y-130985241D01*
X146050000Y-131217759D01*
X145894637Y-130985241D01*
X145694759Y-130785363D01*
X145459727Y-130628320D01*
X145198574Y-130520147D01*
X144921335Y-130465000D01*
X144638665Y-130465000D01*
X144361426Y-130520147D01*
X144100273Y-130628320D01*
X143865241Y-130785363D01*
X143665363Y-130985241D01*
X143510000Y-131217759D01*
X143354637Y-130985241D01*
X143154759Y-130785363D01*
X142919727Y-130628320D01*
X142658574Y-130520147D01*
X142381335Y-130465000D01*
X142098665Y-130465000D01*
X141821426Y-130520147D01*
X141560273Y-130628320D01*
X141325241Y-130785363D01*
X141126643Y-130983961D01*
X141125812Y-130975518D01*
X141089502Y-130855820D01*
X141030537Y-130745506D01*
X140951185Y-130648815D01*
X140854494Y-130569463D01*
X140744180Y-130510498D01*
X140624482Y-130474188D01*
X140500000Y-130461928D01*
X138900000Y-130461928D01*
X138775518Y-130474188D01*
X138655820Y-130510498D01*
X138545506Y-130569463D01*
X138448815Y-130648815D01*
X138369463Y-130745506D01*
X138310498Y-130855820D01*
X138274188Y-130975518D01*
X138261928Y-131100000D01*
X116464999Y-131100000D01*
X116464999Y-125148196D01*
X116541426Y-125179853D01*
X116818665Y-125235000D01*
X117101335Y-125235000D01*
X117378574Y-125179853D01*
X117639727Y-125071680D01*
X117874759Y-124914637D01*
X118074637Y-124714759D01*
X118131912Y-124629040D01*
X138308091Y-124629040D01*
X138402930Y-124893881D01*
X138547615Y-125135131D01*
X138736586Y-125343519D01*
X138962580Y-125511037D01*
X139216913Y-125631246D01*
X139350961Y-125671904D01*
X139573000Y-125549915D01*
X139573000Y-124407000D01*
X138429376Y-124407000D01*
X138308091Y-124629040D01*
X118131912Y-124629040D01*
X118231680Y-124479727D01*
X118339853Y-124218574D01*
X118395000Y-123941335D01*
X118395000Y-123930960D01*
X138308091Y-123930960D01*
X138429376Y-124153000D01*
X139573000Y-124153000D01*
X139573000Y-123010085D01*
X139350961Y-122888096D01*
X139216913Y-122928754D01*
X138962580Y-123048963D01*
X138736586Y-123216481D01*
X138547615Y-123424869D01*
X138402930Y-123666119D01*
X138308091Y-123930960D01*
X118395000Y-123930960D01*
X118395000Y-123658665D01*
X118339853Y-123381426D01*
X118231680Y-123120273D01*
X118074637Y-122885241D01*
X117874759Y-122685363D01*
X117639727Y-122528320D01*
X117378574Y-122420147D01*
X117101335Y-122365000D01*
X116818665Y-122365000D01*
X116541426Y-122420147D01*
X116464999Y-122451804D01*
X116464999Y-119414804D01*
X119046015Y-116833789D01*
X119075012Y-116809992D01*
X119169985Y-116694267D01*
X119240557Y-116562238D01*
X119284014Y-116418977D01*
X119295011Y-116307324D01*
X119295011Y-116307315D01*
X119298687Y-116269992D01*
X119295011Y-116232669D01*
X119295011Y-102703062D01*
X120165000Y-102703062D01*
X120165000Y-102906940D01*
X120204774Y-103106899D01*
X120282795Y-103295257D01*
X120396063Y-103464775D01*
X120540226Y-103608938D01*
X120709744Y-103722206D01*
X120865000Y-103786516D01*
X120865000Y-103901937D01*
X120904774Y-104101896D01*
X120982795Y-104290254D01*
X121096063Y-104459772D01*
X121140001Y-104503710D01*
X121140000Y-114162678D01*
X121136324Y-114200000D01*
X121140000Y-114237322D01*
X121140000Y-114237332D01*
X121150997Y-114348985D01*
X121174176Y-114425396D01*
X121194454Y-114492246D01*
X121265026Y-114624276D01*
X121281440Y-114644276D01*
X121359999Y-114740001D01*
X121389003Y-114763804D01*
X122164998Y-115539800D01*
X122164998Y-115601939D01*
X122204772Y-115801898D01*
X122282793Y-115990256D01*
X122396061Y-116159774D01*
X122540224Y-116303937D01*
X122709742Y-116417205D01*
X122898100Y-116495226D01*
X123098059Y-116535000D01*
X123301937Y-116535000D01*
X123501896Y-116495226D01*
X123690254Y-116417205D01*
X123859772Y-116303937D01*
X123903709Y-116260000D01*
X131920556Y-116260000D01*
X131904774Y-116298102D01*
X131865000Y-116498061D01*
X131865000Y-116701939D01*
X131904774Y-116901898D01*
X131982795Y-117090256D01*
X132096063Y-117259774D01*
X132240226Y-117403937D01*
X132409744Y-117517205D01*
X132598102Y-117595226D01*
X132798061Y-117635000D01*
X133001939Y-117635000D01*
X133201898Y-117595226D01*
X133390256Y-117517205D01*
X133559774Y-117403937D01*
X133603711Y-117360000D01*
X136785199Y-117360000D01*
X142270198Y-122845000D01*
X142098665Y-122845000D01*
X141821426Y-122900147D01*
X141560273Y-123008320D01*
X141325241Y-123165363D01*
X141125363Y-123365241D01*
X140968320Y-123600273D01*
X140963933Y-123610865D01*
X140852385Y-123424869D01*
X140663414Y-123216481D01*
X140437420Y-123048963D01*
X140183087Y-122928754D01*
X140049039Y-122888096D01*
X139827000Y-123010085D01*
X139827000Y-124153000D01*
X139847000Y-124153000D01*
X139847000Y-124407000D01*
X139827000Y-124407000D01*
X139827000Y-125549915D01*
X140049039Y-125671904D01*
X140183087Y-125631246D01*
X140437420Y-125511037D01*
X140663414Y-125343519D01*
X140852385Y-125135131D01*
X140963933Y-124949135D01*
X140968320Y-124959727D01*
X141125363Y-125194759D01*
X141325241Y-125394637D01*
X141560273Y-125551680D01*
X141821426Y-125659853D01*
X142098665Y-125715000D01*
X142381335Y-125715000D01*
X142563886Y-125678688D01*
X142801202Y-125916004D01*
X142825000Y-125945002D01*
X142940725Y-126039975D01*
X143072754Y-126110547D01*
X143216015Y-126154004D01*
X143327668Y-126165001D01*
X143327676Y-126165001D01*
X143365001Y-126168677D01*
X143402326Y-126165001D01*
X147822679Y-126165001D01*
X147860001Y-126168677D01*
X147897323Y-126165001D01*
X147897334Y-126165001D01*
X148008987Y-126154004D01*
X148152248Y-126110547D01*
X148284277Y-126039975D01*
X148400002Y-125945002D01*
X148423804Y-125915999D01*
X148945204Y-125394600D01*
X148945241Y-125394637D01*
X149180273Y-125551680D01*
X149441426Y-125659853D01*
X149718665Y-125715000D01*
X150001335Y-125715000D01*
X150278574Y-125659853D01*
X150539727Y-125551680D01*
X150774759Y-125394637D01*
X150974637Y-125194759D01*
X151130000Y-124962241D01*
X151285363Y-125194759D01*
X151485241Y-125394637D01*
X151720273Y-125551680D01*
X151981426Y-125659853D01*
X152258665Y-125715000D01*
X152541335Y-125715000D01*
X152818574Y-125659853D01*
X153079727Y-125551680D01*
X153314759Y-125394637D01*
X153514637Y-125194759D01*
X153670000Y-124962241D01*
X153825363Y-125194759D01*
X154025241Y-125394637D01*
X154260273Y-125551680D01*
X154521426Y-125659853D01*
X154798665Y-125715000D01*
X155081335Y-125715000D01*
X155358574Y-125659853D01*
X155619727Y-125551680D01*
X155854759Y-125394637D01*
X156054637Y-125194759D01*
X156210000Y-124962241D01*
X156365363Y-125194759D01*
X156565241Y-125394637D01*
X156800273Y-125551680D01*
X157061426Y-125659853D01*
X157338665Y-125715000D01*
X157621335Y-125715000D01*
X157898574Y-125659853D01*
X158159727Y-125551680D01*
X158394759Y-125394637D01*
X158594637Y-125194759D01*
X158751680Y-124959727D01*
X158859853Y-124698574D01*
X158915000Y-124421335D01*
X158915000Y-124138665D01*
X158859853Y-123861426D01*
X158751680Y-123600273D01*
X158594637Y-123365241D01*
X158394759Y-123165363D01*
X158159727Y-123008320D01*
X157898574Y-122900147D01*
X157621335Y-122845000D01*
X157338665Y-122845000D01*
X157061426Y-122900147D01*
X156800273Y-123008320D01*
X156565241Y-123165363D01*
X156365363Y-123365241D01*
X156210000Y-123597759D01*
X156054637Y-123365241D01*
X155854759Y-123165363D01*
X155619727Y-123008320D01*
X155358574Y-122900147D01*
X155081335Y-122845000D01*
X154798665Y-122845000D01*
X154521426Y-122900147D01*
X154260273Y-123008320D01*
X154025241Y-123165363D01*
X153825363Y-123365241D01*
X153670000Y-123597759D01*
X153514637Y-123365241D01*
X153314759Y-123165363D01*
X153079727Y-123008320D01*
X152818574Y-122900147D01*
X152541335Y-122845000D01*
X152258665Y-122845000D01*
X151981426Y-122900147D01*
X151720273Y-123008320D01*
X151485241Y-123165363D01*
X151285363Y-123365241D01*
X151130000Y-123597759D01*
X150974637Y-123365241D01*
X150774759Y-123165363D01*
X150539727Y-123008320D01*
X150278574Y-122900147D01*
X150001335Y-122845000D01*
X149718665Y-122845000D01*
X149441426Y-122900147D01*
X149205001Y-122998077D01*
X149205001Y-121673049D01*
X160264998Y-121673049D01*
X160264998Y-121876927D01*
X160304772Y-122076886D01*
X160382793Y-122265244D01*
X160496061Y-122434762D01*
X160640224Y-122578925D01*
X160809742Y-122692193D01*
X160998100Y-122770214D01*
X161198059Y-122809988D01*
X161401937Y-122809988D01*
X161598602Y-122770869D01*
X161604774Y-122801896D01*
X161682795Y-122990254D01*
X161796063Y-123159772D01*
X161940226Y-123303935D01*
X162109744Y-123417203D01*
X162298102Y-123495224D01*
X162498061Y-123534998D01*
X162701939Y-123534998D01*
X162901898Y-123495224D01*
X163090256Y-123417203D01*
X163259774Y-123303935D01*
X163365000Y-123198709D01*
X163365000Y-123301939D01*
X163404774Y-123501898D01*
X163482795Y-123690256D01*
X163596063Y-123859774D01*
X163740226Y-124003937D01*
X163909744Y-124117205D01*
X164098102Y-124195226D01*
X164298061Y-124235000D01*
X164501939Y-124235000D01*
X164701898Y-124195226D01*
X164880259Y-124121346D01*
X164865000Y-124198061D01*
X164865000Y-124401939D01*
X164904774Y-124601898D01*
X164982795Y-124790256D01*
X165096063Y-124959774D01*
X165240226Y-125103937D01*
X165409744Y-125217205D01*
X165598102Y-125295226D01*
X165798061Y-125335000D01*
X166001939Y-125335000D01*
X166201898Y-125295226D01*
X166390256Y-125217205D01*
X166559774Y-125103937D01*
X166703937Y-124959774D01*
X166817205Y-124790256D01*
X166895226Y-124601898D01*
X166935000Y-124401939D01*
X166935000Y-124339801D01*
X168674802Y-122600000D01*
X179081822Y-122600000D01*
X179206525Y-122786632D01*
X179413368Y-122993475D01*
X179587760Y-123110000D01*
X179413368Y-123226525D01*
X179206525Y-123433368D01*
X179068458Y-123640000D01*
X171337323Y-123640000D01*
X171300000Y-123636324D01*
X171262677Y-123640000D01*
X171262667Y-123640000D01*
X171151014Y-123650997D01*
X171007753Y-123694454D01*
X170875723Y-123765026D01*
X170833108Y-123800000D01*
X170759999Y-123859999D01*
X170736201Y-123888997D01*
X165960199Y-128665000D01*
X165898061Y-128665000D01*
X165698102Y-128704774D01*
X165509744Y-128782795D01*
X165340226Y-128896063D01*
X165196063Y-129040226D01*
X165082795Y-129209744D01*
X165004774Y-129398102D01*
X164965000Y-129598061D01*
X164965000Y-129801939D01*
X165004774Y-130001898D01*
X165082795Y-130190256D01*
X165196063Y-130359774D01*
X165340226Y-130503937D01*
X165509744Y-130617205D01*
X165698102Y-130695226D01*
X165898061Y-130735000D01*
X166101939Y-130735000D01*
X166301898Y-130695226D01*
X166490256Y-130617205D01*
X166659774Y-130503937D01*
X166803937Y-130359774D01*
X166917205Y-130190256D01*
X166995226Y-130001898D01*
X167035000Y-129801939D01*
X167035000Y-129739801D01*
X171614802Y-125160000D01*
X179095185Y-125160000D01*
X179206525Y-125326632D01*
X179413368Y-125533475D01*
X179656589Y-125695990D01*
X179926842Y-125807932D01*
X180213740Y-125865000D01*
X180506260Y-125865000D01*
X180793158Y-125807932D01*
X181063411Y-125695990D01*
X181306632Y-125533475D01*
X181513475Y-125326632D01*
X181630000Y-125152240D01*
X181746525Y-125326632D01*
X181953368Y-125533475D01*
X182196589Y-125695990D01*
X182466842Y-125807932D01*
X182753740Y-125865000D01*
X183046260Y-125865000D01*
X183333158Y-125807932D01*
X183603411Y-125695990D01*
X183846632Y-125533475D01*
X184053475Y-125326632D01*
X184215990Y-125083411D01*
X184327932Y-124813158D01*
X184385000Y-124526260D01*
X184385000Y-124233740D01*
X184341210Y-124013592D01*
X184586005Y-123768797D01*
X184615002Y-123745000D01*
X184709975Y-123629275D01*
X184780547Y-123497246D01*
X184824004Y-123353985D01*
X184835001Y-123242332D01*
X184835001Y-123242323D01*
X184838677Y-123205000D01*
X184835001Y-123167677D01*
X184835001Y-101212327D01*
X184838677Y-101175005D01*
X184835001Y-101137682D01*
X184835001Y-101137672D01*
X184824004Y-101026019D01*
X184780547Y-100882758D01*
X184714812Y-100759778D01*
X184709975Y-100750728D01*
X184638800Y-100664002D01*
X184615002Y-100635004D01*
X184586004Y-100611206D01*
X184035000Y-100060203D01*
X184035000Y-99998065D01*
X183995226Y-99798106D01*
X183917205Y-99609748D01*
X183803937Y-99440230D01*
X183659774Y-99296067D01*
X183490256Y-99182799D01*
X183301898Y-99104778D01*
X183101939Y-99065004D01*
X182898061Y-99065004D01*
X182698102Y-99104778D01*
X182509744Y-99182799D01*
X182340226Y-99296067D01*
X182196063Y-99440230D01*
X182082795Y-99609748D01*
X182004774Y-99798106D01*
X181965000Y-99998065D01*
X181965000Y-100201943D01*
X182004774Y-100401902D01*
X182082795Y-100590260D01*
X182196063Y-100759778D01*
X182340226Y-100903941D01*
X182509744Y-101017209D01*
X182698102Y-101095230D01*
X182898061Y-101135004D01*
X182960199Y-101135004D01*
X183315002Y-101489808D01*
X183315002Y-105111928D01*
X182050000Y-105111928D01*
X181925518Y-105124188D01*
X181805820Y-105160498D01*
X181695506Y-105219463D01*
X181598815Y-105298815D01*
X181519463Y-105395506D01*
X181460498Y-105505820D01*
X181438487Y-105578380D01*
X181306632Y-105446525D01*
X181063411Y-105284010D01*
X181060000Y-105282597D01*
X181060000Y-96303711D01*
X181103937Y-96259774D01*
X181217205Y-96090256D01*
X181295226Y-95901898D01*
X181335000Y-95701939D01*
X181335000Y-95498061D01*
X181295226Y-95298102D01*
X181217205Y-95109744D01*
X181103937Y-94940226D01*
X180959774Y-94796063D01*
X180790256Y-94682795D01*
X180601898Y-94604774D01*
X180401939Y-94565000D01*
X180198061Y-94565000D01*
X179998102Y-94604774D01*
X179809744Y-94682795D01*
X179640226Y-94796063D01*
X179496063Y-94940226D01*
X179382795Y-95109744D01*
X179304774Y-95298102D01*
X179265000Y-95498061D01*
X179265000Y-95701939D01*
X179304774Y-95901898D01*
X179382795Y-96090256D01*
X179496063Y-96259774D01*
X179540000Y-96303711D01*
X179540001Y-105361912D01*
X179413368Y-105446525D01*
X179206525Y-105653368D01*
X179044010Y-105896589D01*
X178932068Y-106166842D01*
X178875000Y-106453740D01*
X178875000Y-106746260D01*
X178932068Y-107033158D01*
X179044010Y-107303411D01*
X179206525Y-107546632D01*
X179413368Y-107753475D01*
X179587760Y-107870000D01*
X179413368Y-107986525D01*
X179206525Y-108193368D01*
X179044010Y-108436589D01*
X178932068Y-108706842D01*
X178875000Y-108993740D01*
X178875000Y-109286260D01*
X178932068Y-109573158D01*
X179044010Y-109843411D01*
X179206525Y-110086632D01*
X179413368Y-110293475D01*
X179587760Y-110410000D01*
X179413368Y-110526525D01*
X179206525Y-110733368D01*
X179044010Y-110976589D01*
X178932068Y-111246842D01*
X178875000Y-111533740D01*
X178875000Y-111826260D01*
X178932068Y-112113158D01*
X179044010Y-112383411D01*
X179206525Y-112626632D01*
X179413368Y-112833475D01*
X179587760Y-112950000D01*
X179413368Y-113066525D01*
X179206525Y-113273368D01*
X179081822Y-113460000D01*
X168892308Y-113460000D01*
X168854985Y-113456324D01*
X168817662Y-113460000D01*
X168817653Y-113460000D01*
X168706000Y-113470997D01*
X168562739Y-113514454D01*
X168430710Y-113585026D01*
X168430708Y-113585027D01*
X168430709Y-113585027D01*
X168343982Y-113656201D01*
X168343978Y-113656205D01*
X168314985Y-113679999D01*
X168291191Y-113708992D01*
X161260197Y-120739988D01*
X161198059Y-120739988D01*
X160998100Y-120779762D01*
X160809742Y-120857783D01*
X160640224Y-120971051D01*
X160496061Y-121115214D01*
X160382793Y-121284732D01*
X160304772Y-121473090D01*
X160264998Y-121673049D01*
X149205001Y-121673049D01*
X149205001Y-70833634D01*
X149303937Y-70734698D01*
X149417205Y-70565180D01*
X149495226Y-70376822D01*
X149535000Y-70176863D01*
X149535000Y-69972985D01*
X149495226Y-69773026D01*
X149417205Y-69584668D01*
X149303937Y-69415150D01*
X149159774Y-69270987D01*
X148990256Y-69157719D01*
X148801898Y-69079698D01*
X148601939Y-69039924D01*
X148398061Y-69039924D01*
X148198102Y-69079698D01*
X148009744Y-69157719D01*
X147840226Y-69270987D01*
X147696063Y-69415150D01*
X147582795Y-69584668D01*
X147504774Y-69773026D01*
X147465000Y-69972985D01*
X147465000Y-70176863D01*
X147504774Y-70376822D01*
X147582795Y-70565180D01*
X147685002Y-70718144D01*
X147685001Y-122889491D01*
X147461335Y-122845000D01*
X147178665Y-122845000D01*
X146996114Y-122881312D01*
X139103804Y-114989003D01*
X139080001Y-114959999D01*
X138964276Y-114865026D01*
X138954873Y-114860000D01*
X140496289Y-114860000D01*
X140540226Y-114903937D01*
X140709744Y-115017205D01*
X140898102Y-115095226D01*
X141098061Y-115135000D01*
X141301939Y-115135000D01*
X141501898Y-115095226D01*
X141690256Y-115017205D01*
X141859774Y-114903937D01*
X142003937Y-114759774D01*
X142117205Y-114590256D01*
X142195226Y-114401898D01*
X142235000Y-114201939D01*
X142235000Y-113998061D01*
X142195226Y-113798102D01*
X142117205Y-113609744D01*
X142003937Y-113440226D01*
X141859774Y-113296063D01*
X141690256Y-113182795D01*
X141501898Y-113104774D01*
X141301939Y-113065000D01*
X141098061Y-113065000D01*
X140898102Y-113104774D01*
X140709744Y-113182795D01*
X140540226Y-113296063D01*
X140496289Y-113340000D01*
X132814802Y-113340000D01*
X124074801Y-104600000D01*
X135089803Y-93585000D01*
X135151939Y-93585000D01*
X135351898Y-93545226D01*
X135540256Y-93467205D01*
X135709774Y-93353937D01*
X135853937Y-93209774D01*
X135967205Y-93040256D01*
X136045226Y-92851898D01*
X136085000Y-92651939D01*
X136085000Y-92448061D01*
X136045226Y-92248102D01*
X135967205Y-92059744D01*
X135853937Y-91890226D01*
X135709774Y-91746063D01*
X135540256Y-91632795D01*
X135351898Y-91554774D01*
X135151939Y-91515000D01*
X134948061Y-91515000D01*
X134748102Y-91554774D01*
X134559744Y-91632795D01*
X134390226Y-91746063D01*
X134246063Y-91890226D01*
X134132795Y-92059744D01*
X134054774Y-92248102D01*
X134015000Y-92448061D01*
X134015000Y-92510197D01*
X122960199Y-103565000D01*
X122908533Y-103565000D01*
X122895226Y-103498100D01*
X122817205Y-103309742D01*
X122703937Y-103140224D01*
X122559774Y-102996061D01*
X122390256Y-102882793D01*
X122250074Y-102824727D01*
X130739802Y-94335000D01*
X130801939Y-94335000D01*
X131001898Y-94295226D01*
X131190256Y-94217205D01*
X131359774Y-94103937D01*
X131503937Y-93959774D01*
X131617205Y-93790256D01*
X131695226Y-93601898D01*
X131735000Y-93401939D01*
X131735000Y-93198061D01*
X131695226Y-92998102D01*
X131617205Y-92809744D01*
X131503937Y-92640226D01*
X131359774Y-92496063D01*
X131190256Y-92382795D01*
X131001898Y-92304774D01*
X130801939Y-92265000D01*
X130598061Y-92265000D01*
X130398102Y-92304774D01*
X130209744Y-92382795D01*
X130040226Y-92496063D01*
X129896063Y-92640226D01*
X129782795Y-92809744D01*
X129704774Y-92998102D01*
X129665000Y-93198061D01*
X129665000Y-93260198D01*
X121155198Y-101770001D01*
X121098061Y-101770001D01*
X120898102Y-101809775D01*
X120709744Y-101887796D01*
X120540226Y-102001064D01*
X120396063Y-102145227D01*
X120282795Y-102314745D01*
X120204774Y-102503103D01*
X120165000Y-102703062D01*
X119295011Y-102703062D01*
X119295011Y-87492334D01*
X119298687Y-87455011D01*
X119295011Y-87417688D01*
X119295011Y-87417678D01*
X119284014Y-87306025D01*
X119240557Y-87162764D01*
X119212908Y-87111037D01*
X119169985Y-87030734D01*
X119098810Y-86944008D01*
X119075012Y-86915010D01*
X119046014Y-86891212D01*
X118358688Y-86203886D01*
X118395000Y-86021335D01*
X118395000Y-85738665D01*
X118339853Y-85461426D01*
X118231680Y-85200273D01*
X118074637Y-84965241D01*
X117874759Y-84765363D01*
X117639727Y-84608320D01*
X117378574Y-84500147D01*
X117101335Y-84445000D01*
X116818665Y-84445000D01*
X116541426Y-84500147D01*
X116280273Y-84608320D01*
X116045241Y-84765363D01*
X115845363Y-84965241D01*
X115690000Y-85197759D01*
X115534637Y-84965241D01*
X115334759Y-84765363D01*
X115099727Y-84608320D01*
X114838574Y-84500147D01*
X114561335Y-84445000D01*
X114278665Y-84445000D01*
X114001426Y-84500147D01*
X113740273Y-84608320D01*
X113505241Y-84765363D01*
X113305363Y-84965241D01*
X113150000Y-85197759D01*
X112994637Y-84965241D01*
X112794759Y-84765363D01*
X112559727Y-84608320D01*
X112298574Y-84500147D01*
X112021335Y-84445000D01*
X111738665Y-84445000D01*
X111461426Y-84500147D01*
X111200273Y-84608320D01*
X110965241Y-84765363D01*
X110765363Y-84965241D01*
X110610000Y-85197759D01*
X110454637Y-84965241D01*
X110254759Y-84765363D01*
X110019727Y-84608320D01*
X109758574Y-84500147D01*
X109481335Y-84445000D01*
X109198665Y-84445000D01*
X108921426Y-84500147D01*
X108660273Y-84608320D01*
X108425241Y-84765363D01*
X108225363Y-84965241D01*
X108070000Y-85197759D01*
X107914637Y-84965241D01*
X107714759Y-84765363D01*
X107479727Y-84608320D01*
X107218574Y-84500147D01*
X106941335Y-84445000D01*
X106658665Y-84445000D01*
X106381426Y-84500147D01*
X106120273Y-84608320D01*
X105885241Y-84765363D01*
X105685363Y-84965241D01*
X105530000Y-85197759D01*
X105374637Y-84965241D01*
X105174759Y-84765363D01*
X104939727Y-84608320D01*
X104678574Y-84500147D01*
X104401335Y-84445000D01*
X104118665Y-84445000D01*
X103841426Y-84500147D01*
X103580273Y-84608320D01*
X103345241Y-84765363D01*
X103145363Y-84965241D01*
X102990000Y-85197759D01*
X102834637Y-84965241D01*
X102634759Y-84765363D01*
X102399727Y-84608320D01*
X102138574Y-84500147D01*
X101861335Y-84445000D01*
X101578665Y-84445000D01*
X101301426Y-84500147D01*
X101040273Y-84608320D01*
X100805241Y-84765363D01*
X100605363Y-84965241D01*
X100450000Y-85197759D01*
X100294637Y-84965241D01*
X100094759Y-84765363D01*
X99859727Y-84608320D01*
X99598574Y-84500147D01*
X99321335Y-84445000D01*
X99038665Y-84445000D01*
X98761426Y-84500147D01*
X98500273Y-84608320D01*
X98265241Y-84765363D01*
X98065363Y-84965241D01*
X97910000Y-85197759D01*
X97754637Y-84965241D01*
X97554759Y-84765363D01*
X97319727Y-84608320D01*
X97058574Y-84500147D01*
X96781335Y-84445000D01*
X96498665Y-84445000D01*
X96221426Y-84500147D01*
X95960273Y-84608320D01*
X95725241Y-84765363D01*
X95525363Y-84965241D01*
X95368320Y-85200273D01*
X95363933Y-85210865D01*
X95252385Y-85024869D01*
X95063414Y-84816481D01*
X94837420Y-84648963D01*
X94583087Y-84528754D01*
X94449039Y-84488096D01*
X94227000Y-84610085D01*
X94227000Y-85753000D01*
X94247000Y-85753000D01*
X94247000Y-86007000D01*
X94227000Y-86007000D01*
X94227000Y-87149915D01*
X94449039Y-87271904D01*
X94583087Y-87231246D01*
X94837420Y-87111037D01*
X95063414Y-86943519D01*
X95252385Y-86735131D01*
X95363933Y-86549135D01*
X95368320Y-86559727D01*
X95525363Y-86794759D01*
X95725241Y-86994637D01*
X95960273Y-87151680D01*
X96221426Y-87259853D01*
X96498665Y-87315000D01*
X96781335Y-87315000D01*
X97058574Y-87259853D01*
X97319727Y-87151680D01*
X97554759Y-86994637D01*
X97754637Y-86794759D01*
X97910000Y-86562241D01*
X98065363Y-86794759D01*
X98265241Y-86994637D01*
X98500273Y-87151680D01*
X98761426Y-87259853D01*
X99038665Y-87315000D01*
X99321335Y-87315000D01*
X99503886Y-87278688D01*
X99545002Y-87319804D01*
X99545002Y-92109491D01*
X99321335Y-92065000D01*
X99038665Y-92065000D01*
X98761426Y-92120147D01*
X98500273Y-92228320D01*
X98265241Y-92385363D01*
X98065363Y-92585241D01*
X97910000Y-92817759D01*
X97754637Y-92585241D01*
X97554759Y-92385363D01*
X97319727Y-92228320D01*
X97058574Y-92120147D01*
X96781335Y-92065000D01*
X96498665Y-92065000D01*
X96221426Y-92120147D01*
X95960273Y-92228320D01*
X95725241Y-92385363D01*
X95526643Y-92583961D01*
X95525812Y-92575518D01*
X95489502Y-92455820D01*
X95430537Y-92345506D01*
X95351185Y-92248815D01*
X95254494Y-92169463D01*
X95144180Y-92110498D01*
X95024482Y-92074188D01*
X94900000Y-92061928D01*
X93300000Y-92061928D01*
X93175518Y-92074188D01*
X93055820Y-92110498D01*
X92945506Y-92169463D01*
X92848815Y-92248815D01*
X92769463Y-92345506D01*
X92710498Y-92455820D01*
X92674188Y-92575518D01*
X92661928Y-92700000D01*
X92661928Y-94300000D01*
X92674188Y-94424482D01*
X92710498Y-94544180D01*
X92769463Y-94654494D01*
X92848815Y-94751185D01*
X92945506Y-94830537D01*
X93055820Y-94889502D01*
X93175518Y-94925812D01*
X93300000Y-94938072D01*
X94463270Y-94938072D01*
X94465001Y-94939803D01*
X94465002Y-100292938D01*
X94449039Y-100288096D01*
X94227000Y-100410085D01*
X94227000Y-101553000D01*
X94247000Y-101553000D01*
X94247000Y-101807000D01*
X94227000Y-101807000D01*
X94227000Y-102949915D01*
X94449039Y-103071904D01*
X94465002Y-103067062D01*
X94465002Y-103187669D01*
X94461325Y-103225001D01*
X94465002Y-103262334D01*
X94475999Y-103373987D01*
X94480021Y-103387245D01*
X94519455Y-103517247D01*
X94590027Y-103649277D01*
X94617535Y-103682795D01*
X94685001Y-103765002D01*
X94713999Y-103788800D01*
X95565000Y-104639802D01*
X95565000Y-104701939D01*
X95604774Y-104901898D01*
X95682795Y-105090256D01*
X95796063Y-105259774D01*
X95940226Y-105403937D01*
X96109744Y-105517205D01*
X96298102Y-105595226D01*
X96498061Y-105635000D01*
X96701939Y-105635000D01*
X96901898Y-105595226D01*
X97090256Y-105517205D01*
X97140000Y-105483967D01*
X97140000Y-107858202D01*
X97072349Y-107925853D01*
X97058574Y-107920147D01*
X96781335Y-107865000D01*
X96498665Y-107865000D01*
X96221426Y-107920147D01*
X95960273Y-108028320D01*
X95725241Y-108185363D01*
X95526643Y-108383961D01*
X95525812Y-108375518D01*
X95489502Y-108255820D01*
X95430537Y-108145506D01*
X95351185Y-108048815D01*
X95254494Y-107969463D01*
X95144180Y-107910498D01*
X95024482Y-107874188D01*
X94900000Y-107861928D01*
X93300000Y-107861928D01*
X93175518Y-107874188D01*
X93055820Y-107910498D01*
X92945506Y-107969463D01*
X92848815Y-108048815D01*
X92769463Y-108145506D01*
X92710498Y-108255820D01*
X92674188Y-108375518D01*
X92661928Y-108500000D01*
X92661928Y-110100000D01*
X92674188Y-110224482D01*
X92710498Y-110344180D01*
X92769463Y-110454494D01*
X92848815Y-110551185D01*
X92945506Y-110630537D01*
X93055820Y-110689502D01*
X93175518Y-110725812D01*
X93300000Y-110738072D01*
X94755000Y-110738072D01*
X94755000Y-114910007D01*
X94583087Y-114828754D01*
X94449039Y-114788096D01*
X94227000Y-114910085D01*
X94227000Y-116053000D01*
X94247000Y-116053000D01*
X94247000Y-116307000D01*
X94227000Y-116307000D01*
X94227000Y-117449915D01*
X94449039Y-117571904D01*
X94583087Y-117531246D01*
X94754999Y-117449993D01*
X94754999Y-122361928D01*
X93300000Y-122361928D01*
X93175518Y-122374188D01*
X93055820Y-122410498D01*
X92945506Y-122469463D01*
X92848815Y-122548815D01*
X92769463Y-122645506D01*
X92710498Y-122755820D01*
X92674188Y-122875518D01*
X92661928Y-123000000D01*
X92661928Y-124600000D01*
X92674188Y-124724482D01*
X92710498Y-124844180D01*
X92769463Y-124954494D01*
X92848815Y-125051185D01*
X92945506Y-125130537D01*
X93055820Y-125189502D01*
X93175518Y-125225812D01*
X93300000Y-125238072D01*
X94900000Y-125238072D01*
X95024482Y-125225812D01*
X95144180Y-125189502D01*
X95254494Y-125130537D01*
X95351185Y-125051185D01*
X95430537Y-124954494D01*
X95489502Y-124844180D01*
X95525812Y-124724482D01*
X95526643Y-124716039D01*
X95725241Y-124914637D01*
X95880000Y-125018043D01*
X95880001Y-133065197D01*
X94386408Y-134558791D01*
X94166260Y-134515000D01*
X93873740Y-134515000D01*
X93586842Y-134572068D01*
X93316589Y-134684010D01*
X93073368Y-134846525D01*
X92866525Y-135053368D01*
X92750000Y-135227760D01*
X92633475Y-135053368D01*
X92426632Y-134846525D01*
X92183411Y-134684010D01*
X91913158Y-134572068D01*
X91626260Y-134515000D01*
X91333740Y-134515000D01*
X91046842Y-134572068D01*
X90776589Y-134684010D01*
X90533368Y-134846525D01*
X90326525Y-135053368D01*
X90210000Y-135227760D01*
X90093475Y-135053368D01*
X89886632Y-134846525D01*
X89643411Y-134684010D01*
X89373158Y-134572068D01*
X89086260Y-134515000D01*
X88793740Y-134515000D01*
X88506842Y-134572068D01*
X88236589Y-134684010D01*
X87993368Y-134846525D01*
X87861513Y-134978380D01*
X87839502Y-134905820D01*
X87780537Y-134795506D01*
X87701185Y-134698815D01*
X87604494Y-134619463D01*
X87494180Y-134560498D01*
X87374482Y-134524188D01*
X87250000Y-134511928D01*
X85685000Y-134511928D01*
X85685000Y-116529040D01*
X92708091Y-116529040D01*
X92802930Y-116793881D01*
X92947615Y-117035131D01*
X93136586Y-117243519D01*
X93362580Y-117411037D01*
X93616913Y-117531246D01*
X93750961Y-117571904D01*
X93973000Y-117449915D01*
X93973000Y-116307000D01*
X92829376Y-116307000D01*
X92708091Y-116529040D01*
X85685000Y-116529040D01*
X85685000Y-115830960D01*
X92708091Y-115830960D01*
X92829376Y-116053000D01*
X93973000Y-116053000D01*
X93973000Y-114910085D01*
X93750961Y-114788096D01*
X93616913Y-114828754D01*
X93362580Y-114948963D01*
X93136586Y-115116481D01*
X92947615Y-115324869D01*
X92802930Y-115566119D01*
X92708091Y-115830960D01*
X85685000Y-115830960D01*
X85685000Y-102029040D01*
X92708091Y-102029040D01*
X92802930Y-102293881D01*
X92947615Y-102535131D01*
X93136586Y-102743519D01*
X93362580Y-102911037D01*
X93616913Y-103031246D01*
X93750961Y-103071904D01*
X93973000Y-102949915D01*
X93973000Y-101807000D01*
X92829376Y-101807000D01*
X92708091Y-102029040D01*
X85685000Y-102029040D01*
X85685000Y-101330960D01*
X92708091Y-101330960D01*
X92829376Y-101553000D01*
X93973000Y-101553000D01*
X93973000Y-100410085D01*
X93750961Y-100288096D01*
X93616913Y-100328754D01*
X93362580Y-100448963D01*
X93136586Y-100616481D01*
X92947615Y-100824869D01*
X92802930Y-101066119D01*
X92708091Y-101330960D01*
X85685000Y-101330960D01*
X85685000Y-86229040D01*
X92708091Y-86229040D01*
X92802930Y-86493881D01*
X92947615Y-86735131D01*
X93136586Y-86943519D01*
X93362580Y-87111037D01*
X93616913Y-87231246D01*
X93750961Y-87271904D01*
X93973000Y-87149915D01*
X93973000Y-86007000D01*
X92829376Y-86007000D01*
X92708091Y-86229040D01*
X85685000Y-86229040D01*
X85685000Y-85530960D01*
X92708091Y-85530960D01*
X92829376Y-85753000D01*
X93973000Y-85753000D01*
X93973000Y-84610085D01*
X93750961Y-84488096D01*
X93616913Y-84528754D01*
X93362580Y-84648963D01*
X93136586Y-84816481D01*
X92947615Y-85024869D01*
X92802930Y-85266119D01*
X92708091Y-85530960D01*
X85685000Y-85530960D01*
X85685000Y-69729040D01*
X92708091Y-69729040D01*
X92802930Y-69993881D01*
X92947615Y-70235131D01*
X93136586Y-70443519D01*
X93362580Y-70611037D01*
X93616913Y-70731246D01*
X93750961Y-70771904D01*
X93973000Y-70649915D01*
X93973000Y-69507000D01*
X92829376Y-69507000D01*
X92708091Y-69729040D01*
X85685000Y-69729040D01*
X85685000Y-69030960D01*
X92708091Y-69030960D01*
X92829376Y-69253000D01*
X93973000Y-69253000D01*
X93973000Y-68110085D01*
X93750961Y-67988096D01*
X93616913Y-68028754D01*
X93362580Y-68148963D01*
X93136586Y-68316481D01*
X92947615Y-68524869D01*
X92802930Y-68766119D01*
X92708091Y-69030960D01*
X85685000Y-69030960D01*
X85685000Y-65300000D01*
X92661928Y-65300000D01*
X92674188Y-65424482D01*
X92710498Y-65544180D01*
X92769463Y-65654494D01*
X92848815Y-65751185D01*
X92945506Y-65830537D01*
X93055820Y-65889502D01*
X93175518Y-65925812D01*
X93300000Y-65938072D01*
X93814250Y-65935000D01*
X93973000Y-65776250D01*
X93973000Y-64627000D01*
X92823750Y-64627000D01*
X92665000Y-64785750D01*
X92661928Y-65300000D01*
X85685000Y-65300000D01*
X85685000Y-63700000D01*
X92661928Y-63700000D01*
X92665000Y-64214250D01*
X92823750Y-64373000D01*
X93973000Y-64373000D01*
X93973000Y-63223750D01*
X93814250Y-63065000D01*
X93300000Y-63061928D01*
X93175518Y-63074188D01*
X93055820Y-63110498D01*
X92945506Y-63169463D01*
X92848815Y-63248815D01*
X92769463Y-63345506D01*
X92710498Y-63455820D01*
X92674188Y-63575518D01*
X92661928Y-63700000D01*
X85685000Y-63700000D01*
X85685000Y-57229040D01*
X92708091Y-57229040D01*
X92802930Y-57493881D01*
X92947615Y-57735131D01*
X93136586Y-57943519D01*
X93362580Y-58111037D01*
X93616913Y-58231246D01*
X93750961Y-58271904D01*
X93973000Y-58149915D01*
X93973000Y-57007000D01*
X92829376Y-57007000D01*
X92708091Y-57229040D01*
X85685000Y-57229040D01*
X85685000Y-56530960D01*
X92708091Y-56530960D01*
X92829376Y-56753000D01*
X93973000Y-56753000D01*
X93973000Y-55610085D01*
X93750961Y-55488096D01*
X93616913Y-55528754D01*
X93362580Y-55648963D01*
X93136586Y-55816481D01*
X92947615Y-56024869D01*
X92802930Y-56266119D01*
X92708091Y-56530960D01*
X85685000Y-56530960D01*
X85685000Y-47488072D01*
X87250000Y-47488072D01*
X87374482Y-47475812D01*
X87494180Y-47439502D01*
X87604494Y-47380537D01*
X87701185Y-47301185D01*
X87780537Y-47204494D01*
X87839502Y-47094180D01*
X87861513Y-47021620D01*
X87993368Y-47153475D01*
X88236589Y-47315990D01*
X88506842Y-47427932D01*
X88793740Y-47485000D01*
X89086260Y-47485000D01*
X89373158Y-47427932D01*
X89643411Y-47315990D01*
X89886632Y-47153475D01*
X90093475Y-46946632D01*
X90210000Y-46772240D01*
X90326525Y-46946632D01*
X90533368Y-47153475D01*
X90776589Y-47315990D01*
X91046842Y-47427932D01*
X91333740Y-47485000D01*
X91626260Y-47485000D01*
X91913158Y-47427932D01*
X92183411Y-47315990D01*
X92426632Y-47153475D01*
X92633475Y-46946632D01*
X92750000Y-46772240D01*
X92866525Y-46946632D01*
X93073368Y-47153475D01*
X93260000Y-47278179D01*
X93260001Y-51682668D01*
X93256324Y-51720000D01*
X93270998Y-51868985D01*
X93314454Y-52012246D01*
X93385026Y-52144276D01*
X93447172Y-52220000D01*
X93480000Y-52260001D01*
X93508998Y-52283799D01*
X96670198Y-55445000D01*
X96498665Y-55445000D01*
X96221426Y-55500147D01*
X95960273Y-55608320D01*
X95725241Y-55765363D01*
X95525363Y-55965241D01*
X95368320Y-56200273D01*
X95363933Y-56210865D01*
X95252385Y-56024869D01*
X95063414Y-55816481D01*
X94837420Y-55648963D01*
X94583087Y-55528754D01*
X94449039Y-55488096D01*
X94227000Y-55610085D01*
X94227000Y-56753000D01*
X94247000Y-56753000D01*
X94247000Y-57007000D01*
X94227000Y-57007000D01*
X94227000Y-58149915D01*
X94449039Y-58271904D01*
X94583087Y-58231246D01*
X94837420Y-58111037D01*
X95063414Y-57943519D01*
X95252385Y-57735131D01*
X95363933Y-57549135D01*
X95368320Y-57559727D01*
X95525363Y-57794759D01*
X95725241Y-57994637D01*
X95960273Y-58151680D01*
X96221426Y-58259853D01*
X96498665Y-58315000D01*
X96781335Y-58315000D01*
X97058574Y-58259853D01*
X97294999Y-58161923D01*
X97294999Y-63218077D01*
X97058574Y-63120147D01*
X96781335Y-63065000D01*
X96498665Y-63065000D01*
X96221426Y-63120147D01*
X95960273Y-63228320D01*
X95725241Y-63385363D01*
X95526643Y-63583961D01*
X95525812Y-63575518D01*
X95489502Y-63455820D01*
X95430537Y-63345506D01*
X95351185Y-63248815D01*
X95254494Y-63169463D01*
X95144180Y-63110498D01*
X95024482Y-63074188D01*
X94900000Y-63061928D01*
X94385750Y-63065000D01*
X94227000Y-63223750D01*
X94227000Y-64373000D01*
X94247000Y-64373000D01*
X94247000Y-64627000D01*
X94227000Y-64627000D01*
X94227000Y-65776250D01*
X94385750Y-65935000D01*
X94900000Y-65938072D01*
X95024482Y-65925812D01*
X95144180Y-65889502D01*
X95254494Y-65830537D01*
X95351185Y-65751185D01*
X95430537Y-65654494D01*
X95489502Y-65544180D01*
X95525812Y-65424482D01*
X95526643Y-65416039D01*
X95725241Y-65614637D01*
X95960273Y-65771680D01*
X96221426Y-65879853D01*
X96498665Y-65935000D01*
X96781335Y-65935000D01*
X97058574Y-65879853D01*
X97294999Y-65781922D01*
X97295000Y-68098078D01*
X97058574Y-68000147D01*
X96781335Y-67945000D01*
X96498665Y-67945000D01*
X96221426Y-68000147D01*
X95960273Y-68108320D01*
X95725241Y-68265363D01*
X95525363Y-68465241D01*
X95368320Y-68700273D01*
X95363933Y-68710865D01*
X95252385Y-68524869D01*
X95063414Y-68316481D01*
X94837420Y-68148963D01*
X94583087Y-68028754D01*
X94449039Y-67988096D01*
X94227000Y-68110085D01*
X94227000Y-69253000D01*
X94247000Y-69253000D01*
X94247000Y-69507000D01*
X94227000Y-69507000D01*
X94227000Y-70649915D01*
X94449039Y-70771904D01*
X94583087Y-70731246D01*
X94837420Y-70611037D01*
X95063414Y-70443519D01*
X95252385Y-70235131D01*
X95363933Y-70049135D01*
X95368320Y-70059727D01*
X95525363Y-70294759D01*
X95725241Y-70494637D01*
X95960273Y-70651680D01*
X96221426Y-70759853D01*
X96498665Y-70815000D01*
X96781335Y-70815000D01*
X97058574Y-70759853D01*
X97295000Y-70661922D01*
X97295000Y-75718078D01*
X97058574Y-75620147D01*
X96781335Y-75565000D01*
X96498665Y-75565000D01*
X96221426Y-75620147D01*
X95960273Y-75728320D01*
X95725241Y-75885363D01*
X95526643Y-76083961D01*
X95525812Y-76075518D01*
X95489502Y-75955820D01*
X95430537Y-75845506D01*
X95351185Y-75748815D01*
X95254494Y-75669463D01*
X95144180Y-75610498D01*
X95024482Y-75574188D01*
X94900000Y-75561928D01*
X93300000Y-75561928D01*
X93175518Y-75574188D01*
X93055820Y-75610498D01*
X92945506Y-75669463D01*
X92848815Y-75748815D01*
X92769463Y-75845506D01*
X92710498Y-75955820D01*
X92674188Y-76075518D01*
X92661928Y-76200000D01*
X92661928Y-77800000D01*
X92674188Y-77924482D01*
X92710498Y-78044180D01*
X92769463Y-78154494D01*
X92848815Y-78251185D01*
X92945506Y-78330537D01*
X93055820Y-78389502D01*
X93175518Y-78425812D01*
X93300000Y-78438072D01*
X94463270Y-78438072D01*
X94661202Y-78636004D01*
X94685000Y-78665002D01*
X94800725Y-78759975D01*
X94932754Y-78830547D01*
X95076015Y-78874004D01*
X95187668Y-78885001D01*
X95187676Y-78885001D01*
X95225001Y-78888677D01*
X95262326Y-78885001D01*
X130037677Y-78885001D01*
X130074999Y-78888677D01*
X130112321Y-78885001D01*
X130112332Y-78885001D01*
X130223985Y-78874004D01*
X130367246Y-78830547D01*
X130499275Y-78759975D01*
X130615000Y-78665002D01*
X130638803Y-78635998D01*
X141139802Y-68135000D01*
X141201939Y-68135000D01*
X141401898Y-68095226D01*
X141590256Y-68017205D01*
X141759774Y-67903937D01*
X141903937Y-67759774D01*
X142017205Y-67590256D01*
X142095226Y-67401898D01*
X142135000Y-67201939D01*
X142135000Y-66998061D01*
X142095226Y-66798102D01*
X142017205Y-66609744D01*
X141903937Y-66440226D01*
X141860000Y-66396289D01*
X141860000Y-60087526D01*
X142098665Y-60135000D01*
X142381335Y-60135000D01*
X142658574Y-60079853D01*
X142919727Y-59971680D01*
X143154759Y-59814637D01*
X143354637Y-59614759D01*
X143510000Y-59382241D01*
X143665363Y-59614759D01*
X143865241Y-59814637D01*
X144100273Y-59971680D01*
X144361426Y-60079853D01*
X144638665Y-60135000D01*
X144921335Y-60135000D01*
X145198574Y-60079853D01*
X145459727Y-59971680D01*
X145694759Y-59814637D01*
X145894637Y-59614759D01*
X146050000Y-59382241D01*
X146205363Y-59614759D01*
X146405241Y-59814637D01*
X146640273Y-59971680D01*
X146901426Y-60079853D01*
X147178665Y-60135000D01*
X147461335Y-60135000D01*
X147738574Y-60079853D01*
X147999727Y-59971680D01*
X148234759Y-59814637D01*
X148434637Y-59614759D01*
X148590000Y-59382241D01*
X148745363Y-59614759D01*
X148945241Y-59814637D01*
X149180273Y-59971680D01*
X149441426Y-60079853D01*
X149718665Y-60135000D01*
X150001335Y-60135000D01*
X150278574Y-60079853D01*
X150539727Y-59971680D01*
X150774759Y-59814637D01*
X150974637Y-59614759D01*
X151130000Y-59382241D01*
X151285363Y-59614759D01*
X151485241Y-59814637D01*
X151720273Y-59971680D01*
X151981426Y-60079853D01*
X152258665Y-60135000D01*
X152541335Y-60135000D01*
X152818574Y-60079853D01*
X153079727Y-59971680D01*
X153314759Y-59814637D01*
X153314796Y-59814600D01*
X155540001Y-62039805D01*
X155540000Y-91796289D01*
X155496063Y-91840226D01*
X155382795Y-92009744D01*
X155304774Y-92198102D01*
X155265000Y-92398061D01*
X155265000Y-92601939D01*
X155304774Y-92801898D01*
X155382795Y-92990256D01*
X155496063Y-93159774D01*
X155640226Y-93303937D01*
X155809744Y-93417205D01*
X155998102Y-93495226D01*
X156198061Y-93535000D01*
X156401939Y-93535000D01*
X156601898Y-93495226D01*
X156790256Y-93417205D01*
X156959774Y-93303937D01*
X157103937Y-93159774D01*
X157217205Y-92990256D01*
X157295226Y-92801898D01*
X157335000Y-92601939D01*
X157335000Y-92398061D01*
X157295226Y-92198102D01*
X157217205Y-92009744D01*
X157103937Y-91840226D01*
X157060000Y-91796289D01*
X157060000Y-71035000D01*
X157126939Y-71035000D01*
X157326898Y-70995226D01*
X157515256Y-70917205D01*
X157684774Y-70803937D01*
X157828937Y-70659774D01*
X157942205Y-70490256D01*
X158020226Y-70301898D01*
X158060000Y-70101939D01*
X158060000Y-69898061D01*
X158020226Y-69698102D01*
X157942205Y-69509744D01*
X157828937Y-69340226D01*
X157785000Y-69296289D01*
X157785000Y-60822322D01*
X157788676Y-60784999D01*
X157785000Y-60747676D01*
X157785000Y-60747667D01*
X157774003Y-60636014D01*
X157730546Y-60492753D01*
X157659974Y-60360724D01*
X157565001Y-60244999D01*
X157536003Y-60221201D01*
X157449802Y-60135000D01*
X157621335Y-60135000D01*
X157898574Y-60079853D01*
X158159727Y-59971680D01*
X158394759Y-59814637D01*
X158594637Y-59614759D01*
X158751680Y-59379727D01*
X158859853Y-59118574D01*
X158915000Y-58841335D01*
X158915000Y-58558665D01*
X158859853Y-58281426D01*
X158751680Y-58020273D01*
X158594637Y-57785241D01*
X158394759Y-57585363D01*
X158159727Y-57428320D01*
X157898574Y-57320147D01*
X157621335Y-57265000D01*
X157338665Y-57265000D01*
X157061426Y-57320147D01*
X156800273Y-57428320D01*
X156565241Y-57585363D01*
X156365363Y-57785241D01*
X156210000Y-58017759D01*
X156054637Y-57785241D01*
X155854759Y-57585363D01*
X155619727Y-57428320D01*
X155358574Y-57320147D01*
X155081335Y-57265000D01*
X154798665Y-57265000D01*
X154521426Y-57320147D01*
X154260273Y-57428320D01*
X154046176Y-57571374D01*
X152472863Y-55998061D01*
X172865000Y-55998061D01*
X172865000Y-56201939D01*
X172904774Y-56401898D01*
X172982795Y-56590256D01*
X173096063Y-56759774D01*
X173140001Y-56803712D01*
X173140000Y-68882678D01*
X173136324Y-68920000D01*
X173140000Y-68957322D01*
X173140000Y-68957332D01*
X173150997Y-69068985D01*
X173177914Y-69157719D01*
X173194454Y-69212246D01*
X173265026Y-69344276D01*
X173272488Y-69353368D01*
X173359999Y-69460001D01*
X173389003Y-69483804D01*
X178918790Y-75013592D01*
X178875000Y-75233740D01*
X178875000Y-75526260D01*
X178932068Y-75813158D01*
X179044010Y-76083411D01*
X179206525Y-76326632D01*
X179413368Y-76533475D01*
X179656589Y-76695990D01*
X179926842Y-76807932D01*
X180213740Y-76865000D01*
X180506260Y-76865000D01*
X180793158Y-76807932D01*
X181063411Y-76695990D01*
X181306632Y-76533475D01*
X181513475Y-76326632D01*
X181630000Y-76152240D01*
X181746525Y-76326632D01*
X181953368Y-76533475D01*
X182196589Y-76695990D01*
X182466842Y-76807932D01*
X182753740Y-76865000D01*
X183046260Y-76865000D01*
X183333158Y-76807932D01*
X183340000Y-76805098D01*
X183340000Y-79885198D01*
X182910199Y-80315000D01*
X182848061Y-80315000D01*
X182648102Y-80354774D01*
X182459744Y-80432795D01*
X182290226Y-80546063D01*
X182146063Y-80690226D01*
X182032795Y-80859744D01*
X181954774Y-81048102D01*
X181915000Y-81248061D01*
X181915000Y-81451939D01*
X181954774Y-81651898D01*
X182032795Y-81840256D01*
X182146063Y-82009774D01*
X182290226Y-82153937D01*
X182459744Y-82267205D01*
X182648102Y-82345226D01*
X182848061Y-82385000D01*
X183051939Y-82385000D01*
X183251898Y-82345226D01*
X183440256Y-82267205D01*
X183609774Y-82153937D01*
X183753937Y-82009774D01*
X183867205Y-81840256D01*
X183945226Y-81651898D01*
X183985000Y-81451939D01*
X183985000Y-81389801D01*
X184611002Y-80763800D01*
X184640000Y-80740002D01*
X184734973Y-80624277D01*
X184805545Y-80492248D01*
X184849002Y-80348987D01*
X184859999Y-80237334D01*
X184859999Y-80237325D01*
X184863675Y-80200002D01*
X184859999Y-80162679D01*
X184859999Y-58837322D01*
X184863675Y-58799999D01*
X184859999Y-58762676D01*
X184859999Y-58762666D01*
X184849002Y-58651013D01*
X184805545Y-58507752D01*
X184734973Y-58375723D01*
X184640000Y-58259998D01*
X184611003Y-58236201D01*
X184388072Y-58013270D01*
X184388072Y-56750000D01*
X184375812Y-56625518D01*
X184339502Y-56505820D01*
X184280537Y-56395506D01*
X184201185Y-56298815D01*
X184104494Y-56219463D01*
X183994180Y-56160498D01*
X183874482Y-56124188D01*
X183750000Y-56111928D01*
X182050000Y-56111928D01*
X181925518Y-56124188D01*
X181805820Y-56160498D01*
X181695506Y-56219463D01*
X181598815Y-56298815D01*
X181519463Y-56395506D01*
X181460498Y-56505820D01*
X181438487Y-56578380D01*
X181306632Y-56446525D01*
X181063411Y-56284010D01*
X180793158Y-56172068D01*
X180506260Y-56115000D01*
X180213740Y-56115000D01*
X179926842Y-56172068D01*
X179656589Y-56284010D01*
X179413368Y-56446525D01*
X179206525Y-56653368D01*
X179044010Y-56896589D01*
X178932068Y-57166842D01*
X178931817Y-57168106D01*
X178859774Y-57096063D01*
X178690256Y-56982795D01*
X178501898Y-56904774D01*
X178301939Y-56865000D01*
X178098061Y-56865000D01*
X178060000Y-56872571D01*
X178060000Y-53903711D01*
X178103937Y-53859774D01*
X178217205Y-53690256D01*
X178295226Y-53501898D01*
X178335000Y-53301939D01*
X178335000Y-53098061D01*
X178295226Y-52898102D01*
X178217205Y-52709744D01*
X178103937Y-52540226D01*
X177959774Y-52396063D01*
X177790256Y-52282795D01*
X177601898Y-52204774D01*
X177401939Y-52165000D01*
X177198061Y-52165000D01*
X176998102Y-52204774D01*
X176809744Y-52282795D01*
X176640226Y-52396063D01*
X176496063Y-52540226D01*
X176382795Y-52709744D01*
X176359906Y-52765002D01*
X176298059Y-52765002D01*
X176098100Y-52804776D01*
X175909742Y-52882797D01*
X175740224Y-52996065D01*
X175596061Y-53140228D01*
X175482793Y-53309746D01*
X175404772Y-53498104D01*
X175391194Y-53566366D01*
X175198102Y-53604774D01*
X175009744Y-53682795D01*
X174840226Y-53796063D01*
X174696063Y-53940226D01*
X174582795Y-54109744D01*
X174506789Y-54293237D01*
X174323102Y-54329774D01*
X174134744Y-54407795D01*
X173965226Y-54521063D01*
X173821063Y-54665226D01*
X173707795Y-54834744D01*
X173629774Y-55023102D01*
X173614164Y-55101579D01*
X173598102Y-55104774D01*
X173409744Y-55182795D01*
X173240226Y-55296063D01*
X173096063Y-55440226D01*
X172982795Y-55609744D01*
X172904774Y-55798102D01*
X172865000Y-55998061D01*
X152472863Y-55998061D01*
X148448625Y-51973824D01*
X148590000Y-51762241D01*
X148745363Y-51994759D01*
X148945241Y-52194637D01*
X149180273Y-52351680D01*
X149441426Y-52459853D01*
X149718665Y-52515000D01*
X150001335Y-52515000D01*
X150278574Y-52459853D01*
X150539727Y-52351680D01*
X150774759Y-52194637D01*
X150974637Y-51994759D01*
X151130000Y-51762241D01*
X151285363Y-51994759D01*
X151485241Y-52194637D01*
X151720273Y-52351680D01*
X151981426Y-52459853D01*
X152258665Y-52515000D01*
X152541335Y-52515000D01*
X152818574Y-52459853D01*
X153079727Y-52351680D01*
X153314759Y-52194637D01*
X153514637Y-51994759D01*
X153670000Y-51762241D01*
X153825363Y-51994759D01*
X154025241Y-52194637D01*
X154260273Y-52351680D01*
X154521426Y-52459853D01*
X154798665Y-52515000D01*
X155081335Y-52515000D01*
X155358574Y-52459853D01*
X155619727Y-52351680D01*
X155854759Y-52194637D01*
X156054637Y-51994759D01*
X156210000Y-51762241D01*
X156365363Y-51994759D01*
X156565241Y-52194637D01*
X156800273Y-52351680D01*
X157061426Y-52459853D01*
X157338665Y-52515000D01*
X157621335Y-52515000D01*
X157898574Y-52459853D01*
X158159727Y-52351680D01*
X158394759Y-52194637D01*
X158594637Y-51994759D01*
X158751680Y-51759727D01*
X158859853Y-51498574D01*
X158915000Y-51221335D01*
X158915000Y-50938665D01*
X158859853Y-50661426D01*
X158751680Y-50400273D01*
X158594637Y-50165241D01*
X158394759Y-49965363D01*
X158159727Y-49808320D01*
X157898574Y-49700147D01*
X157621335Y-49645000D01*
X157338665Y-49645000D01*
X157061426Y-49700147D01*
X156800273Y-49808320D01*
X156565241Y-49965363D01*
X156365363Y-50165241D01*
X156210000Y-50397759D01*
X156054637Y-50165241D01*
X155854759Y-49965363D01*
X155619727Y-49808320D01*
X155358574Y-49700147D01*
X155081335Y-49645000D01*
X154798665Y-49645000D01*
X154521426Y-49700147D01*
X154260273Y-49808320D01*
X154025241Y-49965363D01*
X153825363Y-50165241D01*
X153670000Y-50397759D01*
X153514637Y-50165241D01*
X153314759Y-49965363D01*
X153079727Y-49808320D01*
X152818574Y-49700147D01*
X152541335Y-49645000D01*
X152258665Y-49645000D01*
X151981426Y-49700147D01*
X151720273Y-49808320D01*
X151485241Y-49965363D01*
X151285363Y-50165241D01*
X151130000Y-50397759D01*
X150974637Y-50165241D01*
X150774759Y-49965363D01*
X150539727Y-49808320D01*
X150278574Y-49700147D01*
X150001335Y-49645000D01*
X149718665Y-49645000D01*
X149441426Y-49700147D01*
X149180273Y-49808320D01*
X148945241Y-49965363D01*
X148745363Y-50165241D01*
X148590000Y-50397759D01*
X148434637Y-50165241D01*
X148234759Y-49965363D01*
X147999727Y-49808320D01*
X147738574Y-49700147D01*
X147461335Y-49645000D01*
X147178665Y-49645000D01*
X146901426Y-49700147D01*
X146640273Y-49808320D01*
X146405241Y-49965363D01*
X146205363Y-50165241D01*
X146050000Y-50397759D01*
X145894637Y-50165241D01*
X145694759Y-49965363D01*
X145459727Y-49808320D01*
X145198574Y-49700147D01*
X144921335Y-49645000D01*
X144638665Y-49645000D01*
X144361426Y-49700147D01*
X144100273Y-49808320D01*
X143865241Y-49965363D01*
X143665363Y-50165241D01*
X143510000Y-50397759D01*
X143354637Y-50165241D01*
X143154759Y-49965363D01*
X142919727Y-49808320D01*
X142658574Y-49700147D01*
X142381335Y-49645000D01*
X142098665Y-49645000D01*
X141821426Y-49700147D01*
X141560273Y-49808320D01*
X141325241Y-49965363D01*
X141125363Y-50165241D01*
X140968320Y-50400273D01*
X140963933Y-50410865D01*
X140852385Y-50224869D01*
X140663414Y-50016481D01*
X140437420Y-49848963D01*
X140183087Y-49728754D01*
X140049039Y-49688096D01*
X139827000Y-49810085D01*
X139827000Y-50953000D01*
X139847000Y-50953000D01*
X139847000Y-51207000D01*
X139827000Y-51207000D01*
X139827000Y-52349915D01*
X140049039Y-52471904D01*
X140183087Y-52431246D01*
X140340000Y-52357082D01*
X140340000Y-57261928D01*
X138900000Y-57261928D01*
X138775518Y-57274188D01*
X138655820Y-57310498D01*
X138545506Y-57369463D01*
X138448815Y-57448815D01*
X138369463Y-57545506D01*
X138310498Y-57655820D01*
X138274188Y-57775518D01*
X138261928Y-57900000D01*
X138261928Y-59500000D01*
X138274188Y-59624482D01*
X138310498Y-59744180D01*
X138369463Y-59854494D01*
X138448815Y-59951185D01*
X138545506Y-60030537D01*
X138655820Y-60089502D01*
X138775518Y-60125812D01*
X138900000Y-60138072D01*
X140340001Y-60138072D01*
X140340001Y-66396288D01*
X140296063Y-66440226D01*
X140182795Y-66609744D01*
X140104774Y-66798102D01*
X140065000Y-66998061D01*
X140065000Y-67060198D01*
X129760198Y-77365001D01*
X118350509Y-77365001D01*
X118395000Y-77141335D01*
X118395000Y-76858665D01*
X118339853Y-76581426D01*
X118231680Y-76320273D01*
X118074637Y-76085241D01*
X117874759Y-75885363D01*
X117639727Y-75728320D01*
X117378574Y-75620147D01*
X117101335Y-75565000D01*
X116818665Y-75565000D01*
X116541426Y-75620147D01*
X116280273Y-75728320D01*
X116045241Y-75885363D01*
X115845363Y-76085241D01*
X115690000Y-76317759D01*
X115534637Y-76085241D01*
X115334759Y-75885363D01*
X115099727Y-75728320D01*
X114838574Y-75620147D01*
X114561335Y-75565000D01*
X114278665Y-75565000D01*
X114001426Y-75620147D01*
X113740273Y-75728320D01*
X113505241Y-75885363D01*
X113305363Y-76085241D01*
X113150000Y-76317759D01*
X112994637Y-76085241D01*
X112794759Y-75885363D01*
X112559727Y-75728320D01*
X112298574Y-75620147D01*
X112021335Y-75565000D01*
X111738665Y-75565000D01*
X111556113Y-75601312D01*
X111514999Y-75560198D01*
X111514999Y-70770509D01*
X111738665Y-70815000D01*
X112021335Y-70815000D01*
X112298574Y-70759853D01*
X112559727Y-70651680D01*
X112794759Y-70494637D01*
X112994637Y-70294759D01*
X113150000Y-70062241D01*
X113305363Y-70294759D01*
X113505241Y-70494637D01*
X113740273Y-70651680D01*
X114001426Y-70759853D01*
X114278665Y-70815000D01*
X114561335Y-70815000D01*
X114838574Y-70759853D01*
X115099727Y-70651680D01*
X115334759Y-70494637D01*
X115534637Y-70294759D01*
X115690000Y-70062241D01*
X115845363Y-70294759D01*
X116045241Y-70494637D01*
X116280273Y-70651680D01*
X116541426Y-70759853D01*
X116818665Y-70815000D01*
X117101335Y-70815000D01*
X117378574Y-70759853D01*
X117639727Y-70651680D01*
X117874759Y-70494637D01*
X118074637Y-70294759D01*
X118231680Y-70059727D01*
X118339853Y-69798574D01*
X118395000Y-69521335D01*
X118395000Y-69238665D01*
X118358688Y-69056114D01*
X120011009Y-67403794D01*
X120040001Y-67380001D01*
X120063795Y-67351008D01*
X120063799Y-67351004D01*
X120134973Y-67264277D01*
X120134974Y-67264276D01*
X120205546Y-67132247D01*
X120249003Y-66988986D01*
X120260000Y-66877333D01*
X120260000Y-66877324D01*
X120263676Y-66840001D01*
X120260000Y-66802678D01*
X120260000Y-55614801D01*
X124445761Y-51429040D01*
X138308091Y-51429040D01*
X138402930Y-51693881D01*
X138547615Y-51935131D01*
X138736586Y-52143519D01*
X138962580Y-52311037D01*
X139216913Y-52431246D01*
X139350961Y-52471904D01*
X139573000Y-52349915D01*
X139573000Y-51207000D01*
X138429376Y-51207000D01*
X138308091Y-51429040D01*
X124445761Y-51429040D01*
X125143841Y-50730960D01*
X138308091Y-50730960D01*
X138429376Y-50953000D01*
X139573000Y-50953000D01*
X139573000Y-49810085D01*
X139350961Y-49688096D01*
X139216913Y-49728754D01*
X138962580Y-49848963D01*
X138736586Y-50016481D01*
X138547615Y-50224869D01*
X138402930Y-50466119D01*
X138308091Y-50730960D01*
X125143841Y-50730960D01*
X126739802Y-49135000D01*
X126801939Y-49135000D01*
X127001898Y-49095226D01*
X127190256Y-49017205D01*
X127359774Y-48903937D01*
X127503937Y-48759774D01*
X127617205Y-48590256D01*
X127695226Y-48401898D01*
X127735000Y-48201939D01*
X127735000Y-47998061D01*
X127695226Y-47798102D01*
X127617205Y-47609744D01*
X127503937Y-47440226D01*
X127486229Y-47422518D01*
X127743411Y-47315990D01*
X127986632Y-47153475D01*
X128193475Y-46946632D01*
X128310000Y-46772240D01*
X128426525Y-46946632D01*
X128633368Y-47153475D01*
X128876589Y-47315990D01*
X129146842Y-47427932D01*
X129433740Y-47485000D01*
X129726260Y-47485000D01*
X130013158Y-47427932D01*
X130283411Y-47315990D01*
X130526632Y-47153475D01*
X130733475Y-46946632D01*
X130850000Y-46772240D01*
X130966525Y-46946632D01*
X131173368Y-47153475D01*
X131416589Y-47315990D01*
X131686842Y-47427932D01*
X131973740Y-47485000D01*
X132266260Y-47485000D01*
X132553158Y-47427932D01*
X132823411Y-47315990D01*
X133066632Y-47153475D01*
X133273475Y-46946632D01*
X133390000Y-46772240D01*
X133506525Y-46946632D01*
X133713368Y-47153475D01*
X133956589Y-47315990D01*
X134226842Y-47427932D01*
X134513740Y-47485000D01*
X134806260Y-47485000D01*
X135093158Y-47427932D01*
X135363411Y-47315990D01*
X135606632Y-47153475D01*
X135813475Y-46946632D01*
X135930000Y-46772240D01*
X136046525Y-46946632D01*
X136253368Y-47153475D01*
X136496589Y-47315990D01*
X136766842Y-47427932D01*
X137053740Y-47485000D01*
X137346260Y-47485000D01*
X137633158Y-47427932D01*
X137903411Y-47315990D01*
X138146632Y-47153475D01*
X138353475Y-46946632D01*
X138470000Y-46772240D01*
X138586525Y-46946632D01*
X138793368Y-47153475D01*
X139036589Y-47315990D01*
X139306842Y-47427932D01*
X139593740Y-47485000D01*
X139886260Y-47485000D01*
X140173158Y-47427932D01*
X140443411Y-47315990D01*
X140686632Y-47153475D01*
X140893475Y-46946632D01*
X141010000Y-46772240D01*
X141126525Y-46946632D01*
X141333368Y-47153475D01*
X141576589Y-47315990D01*
X141846842Y-47427932D01*
X142133740Y-47485000D01*
X142426260Y-47485000D01*
X142713158Y-47427932D01*
X142983411Y-47315990D01*
X143226632Y-47153475D01*
X143433475Y-46946632D01*
X143550000Y-46772240D01*
X143666525Y-46946632D01*
X143873368Y-47153475D01*
X144116589Y-47315990D01*
X144386842Y-47427932D01*
X144673740Y-47485000D01*
X144966260Y-47485000D01*
X145253158Y-47427932D01*
X145523411Y-47315990D01*
X145766632Y-47153475D01*
X145973475Y-46946632D01*
X146090000Y-46772240D01*
X146206525Y-46946632D01*
X146413368Y-47153475D01*
X146656589Y-47315990D01*
X146926842Y-47427932D01*
X147213740Y-47485000D01*
X147506260Y-47485000D01*
X147793158Y-47427932D01*
X148063411Y-47315990D01*
X148306632Y-47153475D01*
X148513475Y-46946632D01*
X148630000Y-46772240D01*
X148746525Y-46946632D01*
X148953368Y-47153475D01*
X149196589Y-47315990D01*
X149466842Y-47427932D01*
X149753740Y-47485000D01*
X150046260Y-47485000D01*
X150333158Y-47427932D01*
X150603411Y-47315990D01*
X150846632Y-47153475D01*
X151053475Y-46946632D01*
X151170000Y-46772240D01*
X151286525Y-46946632D01*
X151493368Y-47153475D01*
X151736589Y-47315990D01*
X152006842Y-47427932D01*
X152293740Y-47485000D01*
X152586260Y-47485000D01*
X152873158Y-47427932D01*
X153143411Y-47315990D01*
X153386632Y-47153475D01*
X153593475Y-46946632D01*
X153710000Y-46772240D01*
X153826525Y-46946632D01*
X154033368Y-47153475D01*
X154276589Y-47315990D01*
X154546842Y-47427932D01*
X154833740Y-47485000D01*
X155126260Y-47485000D01*
X155413158Y-47427932D01*
X155683411Y-47315990D01*
X155926632Y-47153475D01*
X156133475Y-46946632D01*
X156250000Y-46772240D01*
X156366525Y-46946632D01*
X156573368Y-47153475D01*
X156816589Y-47315990D01*
X157086842Y-47427932D01*
X157373740Y-47485000D01*
X157666260Y-47485000D01*
X157953158Y-47427932D01*
X158223411Y-47315990D01*
X158466632Y-47153475D01*
X158673475Y-46946632D01*
X158790000Y-46772240D01*
X158906525Y-46946632D01*
X159113368Y-47153475D01*
X159356589Y-47315990D01*
X159626842Y-47427932D01*
X159913740Y-47485000D01*
X160206260Y-47485000D01*
X160493158Y-47427932D01*
X160763411Y-47315990D01*
X161006632Y-47153475D01*
X161213475Y-46946632D01*
X161330000Y-46772240D01*
X161446525Y-46946632D01*
X161653368Y-47153475D01*
X161896589Y-47315990D01*
X162166842Y-47427932D01*
X162453740Y-47485000D01*
X162746260Y-47485000D01*
X163033158Y-47427932D01*
X163303411Y-47315990D01*
X163546632Y-47153475D01*
X163753475Y-46946632D01*
X163870000Y-46772240D01*
X163986525Y-46946632D01*
X164193368Y-47153475D01*
X164436589Y-47315990D01*
X164706842Y-47427932D01*
X164993740Y-47485000D01*
X165286260Y-47485000D01*
X165573158Y-47427932D01*
X165843411Y-47315990D01*
X166086632Y-47153475D01*
X166293475Y-46946632D01*
X166410000Y-46772240D01*
X166526525Y-46946632D01*
X166733368Y-47153475D01*
X166976589Y-47315990D01*
X167246842Y-47427932D01*
X167533740Y-47485000D01*
X167826260Y-47485000D01*
X168113158Y-47427932D01*
X168383411Y-47315990D01*
X168626632Y-47153475D01*
X168833475Y-46946632D01*
X168950000Y-46772240D01*
X169066525Y-46946632D01*
X169273368Y-47153475D01*
X169516589Y-47315990D01*
X169786842Y-47427932D01*
X170073740Y-47485000D01*
X170366260Y-47485000D01*
X170653158Y-47427932D01*
X170923411Y-47315990D01*
X171166632Y-47153475D01*
X171373475Y-46946632D01*
X171490000Y-46772240D01*
X171606525Y-46946632D01*
X171813368Y-47153475D01*
X172056589Y-47315990D01*
X172326842Y-47427932D01*
X172613740Y-47485000D01*
X172906260Y-47485000D01*
X173193158Y-47427932D01*
X173463411Y-47315990D01*
X173706632Y-47153475D01*
X173913475Y-46946632D01*
X174030000Y-46772240D01*
X174146525Y-46946632D01*
X174353368Y-47153475D01*
X174596589Y-47315990D01*
X174866842Y-47427932D01*
X175153740Y-47485000D01*
X175446260Y-47485000D01*
X175733158Y-47427932D01*
X176003411Y-47315990D01*
X176246632Y-47153475D01*
X176453475Y-46946632D01*
X176570000Y-46772240D01*
X176686525Y-46946632D01*
X176893368Y-47153475D01*
X177136589Y-47315990D01*
X177406842Y-47427932D01*
X177693740Y-47485000D01*
X177986260Y-47485000D01*
X178273158Y-47427932D01*
X178543411Y-47315990D01*
X178786632Y-47153475D01*
X178993475Y-46946632D01*
X179110000Y-46772240D01*
X179226525Y-46946632D01*
X179433368Y-47153475D01*
X179676589Y-47315990D01*
X179946842Y-47427932D01*
X180233740Y-47485000D01*
X180526260Y-47485000D01*
X180813158Y-47427932D01*
X181083411Y-47315990D01*
X181326632Y-47153475D01*
X181533475Y-46946632D01*
X181650000Y-46772240D01*
X181766525Y-46946632D01*
X181973368Y-47153475D01*
X182216589Y-47315990D01*
X182486842Y-47427932D01*
X182773740Y-47485000D01*
X183066260Y-47485000D01*
X183353158Y-47427932D01*
X183623411Y-47315990D01*
X183866632Y-47153475D01*
X184073475Y-46946632D01*
X184195195Y-46764466D01*
X184264822Y-46881355D01*
X184459731Y-47097588D01*
X184693080Y-47271641D01*
X184955901Y-47396825D01*
X185103110Y-47441476D01*
X185333000Y-47320155D01*
X185333000Y-46127000D01*
X185313000Y-46127000D01*
X185313000Y-45873000D01*
X185333000Y-45873000D01*
X185333000Y-44679845D01*
X185103110Y-44558524D01*
X184955901Y-44603175D01*
X184693080Y-44728359D01*
X184459731Y-44902412D01*
X184264822Y-45118645D01*
X184195195Y-45235534D01*
X184073475Y-45053368D01*
X183866632Y-44846525D01*
X183623411Y-44684010D01*
X183353158Y-44572068D01*
X183066260Y-44515000D01*
X182773740Y-44515000D01*
X182486842Y-44572068D01*
X182216589Y-44684010D01*
X181973368Y-44846525D01*
X181766525Y-45053368D01*
X181650000Y-45227760D01*
X181533475Y-45053368D01*
X181326632Y-44846525D01*
X181083411Y-44684010D01*
X180813158Y-44572068D01*
X180526260Y-44515000D01*
X180233740Y-44515000D01*
X179946842Y-44572068D01*
X179676589Y-44684010D01*
X179433368Y-44846525D01*
X179226525Y-45053368D01*
X179110000Y-45227760D01*
X178993475Y-45053368D01*
X178786632Y-44846525D01*
X178543411Y-44684010D01*
X178273158Y-44572068D01*
X177986260Y-44515000D01*
X177693740Y-44515000D01*
X177406842Y-44572068D01*
X177136589Y-44684010D01*
X176893368Y-44846525D01*
X176686525Y-45053368D01*
X176570000Y-45227760D01*
X176453475Y-45053368D01*
X176246632Y-44846525D01*
X176003411Y-44684010D01*
X175733158Y-44572068D01*
X175446260Y-44515000D01*
X175153740Y-44515000D01*
X174866842Y-44572068D01*
X174596589Y-44684010D01*
X174353368Y-44846525D01*
X174146525Y-45053368D01*
X174030000Y-45227760D01*
X173913475Y-45053368D01*
X173706632Y-44846525D01*
X173463411Y-44684010D01*
X173193158Y-44572068D01*
X172906260Y-44515000D01*
X172613740Y-44515000D01*
X172326842Y-44572068D01*
X172056589Y-44684010D01*
X171813368Y-44846525D01*
X171606525Y-45053368D01*
X171490000Y-45227760D01*
X171373475Y-45053368D01*
X171166632Y-44846525D01*
X170923411Y-44684010D01*
X170653158Y-44572068D01*
X170366260Y-44515000D01*
X170073740Y-44515000D01*
X169786842Y-44572068D01*
X169516589Y-44684010D01*
X169273368Y-44846525D01*
X169066525Y-45053368D01*
X168950000Y-45227760D01*
X168833475Y-45053368D01*
X168626632Y-44846525D01*
X168383411Y-44684010D01*
X168113158Y-44572068D01*
X167826260Y-44515000D01*
X167533740Y-44515000D01*
X167246842Y-44572068D01*
X166976589Y-44684010D01*
X166733368Y-44846525D01*
X166526525Y-45053368D01*
X166410000Y-45227760D01*
X166293475Y-45053368D01*
X166086632Y-44846525D01*
X165843411Y-44684010D01*
X165573158Y-44572068D01*
X165286260Y-44515000D01*
X164993740Y-44515000D01*
X164706842Y-44572068D01*
X164436589Y-44684010D01*
X164193368Y-44846525D01*
X163986525Y-45053368D01*
X163870000Y-45227760D01*
X163753475Y-45053368D01*
X163546632Y-44846525D01*
X163303411Y-44684010D01*
X163033158Y-44572068D01*
X162746260Y-44515000D01*
X162453740Y-44515000D01*
X162166842Y-44572068D01*
X161896589Y-44684010D01*
X161653368Y-44846525D01*
X161446525Y-45053368D01*
X161330000Y-45227760D01*
X161213475Y-45053368D01*
X161006632Y-44846525D01*
X160763411Y-44684010D01*
X160493158Y-44572068D01*
X160206260Y-44515000D01*
X159913740Y-44515000D01*
X159626842Y-44572068D01*
X159356589Y-44684010D01*
X159113368Y-44846525D01*
X158906525Y-45053368D01*
X158790000Y-45227760D01*
X158673475Y-45053368D01*
X158466632Y-44846525D01*
X158223411Y-44684010D01*
X157953158Y-44572068D01*
X157666260Y-44515000D01*
X157373740Y-44515000D01*
X157086842Y-44572068D01*
X156816589Y-44684010D01*
X156573368Y-44846525D01*
X156366525Y-45053368D01*
X156250000Y-45227760D01*
X156133475Y-45053368D01*
X155926632Y-44846525D01*
X155683411Y-44684010D01*
X155413158Y-44572068D01*
X155126260Y-44515000D01*
X154833740Y-44515000D01*
X154546842Y-44572068D01*
X154276589Y-44684010D01*
X154033368Y-44846525D01*
X153826525Y-45053368D01*
X153710000Y-45227760D01*
X153593475Y-45053368D01*
X153386632Y-44846525D01*
X153143411Y-44684010D01*
X152873158Y-44572068D01*
X152586260Y-44515000D01*
X152293740Y-44515000D01*
X152006842Y-44572068D01*
X151736589Y-44684010D01*
X151493368Y-44846525D01*
X151286525Y-45053368D01*
X151170000Y-45227760D01*
X151053475Y-45053368D01*
X150846632Y-44846525D01*
X150603411Y-44684010D01*
X150333158Y-44572068D01*
X150046260Y-44515000D01*
X149753740Y-44515000D01*
X149466842Y-44572068D01*
X149196589Y-44684010D01*
X148953368Y-44846525D01*
X148746525Y-45053368D01*
X148630000Y-45227760D01*
X148513475Y-45053368D01*
X148306632Y-44846525D01*
X148063411Y-44684010D01*
X147793158Y-44572068D01*
X147506260Y-44515000D01*
X147213740Y-44515000D01*
X146926842Y-44572068D01*
X146656589Y-44684010D01*
X146413368Y-44846525D01*
X146206525Y-45053368D01*
X146090000Y-45227760D01*
X145973475Y-45053368D01*
X145766632Y-44846525D01*
X145523411Y-44684010D01*
X145253158Y-44572068D01*
X144966260Y-44515000D01*
X144673740Y-44515000D01*
X144386842Y-44572068D01*
X144116589Y-44684010D01*
X143873368Y-44846525D01*
X143666525Y-45053368D01*
X143550000Y-45227760D01*
X143433475Y-45053368D01*
X143226632Y-44846525D01*
X142983411Y-44684010D01*
X142713158Y-44572068D01*
X142426260Y-44515000D01*
X142133740Y-44515000D01*
X141846842Y-44572068D01*
X141576589Y-44684010D01*
X141333368Y-44846525D01*
X141126525Y-45053368D01*
X141010000Y-45227760D01*
X140893475Y-45053368D01*
X140686632Y-44846525D01*
X140443411Y-44684010D01*
X140173158Y-44572068D01*
X139886260Y-44515000D01*
X139593740Y-44515000D01*
X139306842Y-44572068D01*
X139036589Y-44684010D01*
X138793368Y-44846525D01*
X138586525Y-45053368D01*
X138470000Y-45227760D01*
X138353475Y-45053368D01*
X138146632Y-44846525D01*
X137903411Y-44684010D01*
X137633158Y-44572068D01*
X137346260Y-44515000D01*
X137053740Y-44515000D01*
X136766842Y-44572068D01*
X136496589Y-44684010D01*
X136253368Y-44846525D01*
X136046525Y-45053368D01*
X135930000Y-45227760D01*
X135813475Y-45053368D01*
X135606632Y-44846525D01*
X135363411Y-44684010D01*
X135093158Y-44572068D01*
X134806260Y-44515000D01*
X134513740Y-44515000D01*
X134226842Y-44572068D01*
X133956589Y-44684010D01*
X133713368Y-44846525D01*
X133506525Y-45053368D01*
X133390000Y-45227760D01*
X133273475Y-45053368D01*
X133066632Y-44846525D01*
X132823411Y-44684010D01*
X132553158Y-44572068D01*
X132266260Y-44515000D01*
X131973740Y-44515000D01*
X131686842Y-44572068D01*
X131416589Y-44684010D01*
X131173368Y-44846525D01*
X130966525Y-45053368D01*
X130850000Y-45227760D01*
X130733475Y-45053368D01*
X130526632Y-44846525D01*
X130283411Y-44684010D01*
X130013158Y-44572068D01*
X129726260Y-44515000D01*
X129433740Y-44515000D01*
X129146842Y-44572068D01*
X128876589Y-44684010D01*
X128633368Y-44846525D01*
X128426525Y-45053368D01*
X128310000Y-45227760D01*
X128193475Y-45053368D01*
X127986632Y-44846525D01*
X127743411Y-44684010D01*
X127473158Y-44572068D01*
X127186260Y-44515000D01*
X126893740Y-44515000D01*
X126606842Y-44572068D01*
X126336589Y-44684010D01*
X126093368Y-44846525D01*
X125886525Y-45053368D01*
X125770000Y-45227760D01*
X125653475Y-45053368D01*
X125446632Y-44846525D01*
X125203411Y-44684010D01*
X124933158Y-44572068D01*
X124646260Y-44515000D01*
X124353740Y-44515000D01*
X124066842Y-44572068D01*
X123796589Y-44684010D01*
X123553368Y-44846525D01*
X123346525Y-45053368D01*
X123230000Y-45227760D01*
X123113475Y-45053368D01*
X122906632Y-44846525D01*
X122663411Y-44684010D01*
X122393158Y-44572068D01*
X122106260Y-44515000D01*
X121813740Y-44515000D01*
X121526842Y-44572068D01*
X121256589Y-44684010D01*
X121013368Y-44846525D01*
X120806525Y-45053368D01*
X120690000Y-45227760D01*
X120573475Y-45053368D01*
X120366632Y-44846525D01*
X120123411Y-44684010D01*
X119853158Y-44572068D01*
X119566260Y-44515000D01*
X119273740Y-44515000D01*
X118986842Y-44572068D01*
X118716589Y-44684010D01*
X118473368Y-44846525D01*
X118266525Y-45053368D01*
X118150000Y-45227760D01*
X118033475Y-45053368D01*
X117826632Y-44846525D01*
X117583411Y-44684010D01*
X117313158Y-44572068D01*
X117026260Y-44515000D01*
X116733740Y-44515000D01*
X116446842Y-44572068D01*
X116176589Y-44684010D01*
X115933368Y-44846525D01*
X115726525Y-45053368D01*
X115610000Y-45227760D01*
X115493475Y-45053368D01*
X115286632Y-44846525D01*
X115043411Y-44684010D01*
X114773158Y-44572068D01*
X114486260Y-44515000D01*
X114193740Y-44515000D01*
X113906842Y-44572068D01*
X113636589Y-44684010D01*
X113393368Y-44846525D01*
X113186525Y-45053368D01*
X113070000Y-45227760D01*
X112953475Y-45053368D01*
X112746632Y-44846525D01*
X112503411Y-44684010D01*
X112233158Y-44572068D01*
X111946260Y-44515000D01*
X111653740Y-44515000D01*
X111366842Y-44572068D01*
X111096589Y-44684010D01*
X110853368Y-44846525D01*
X110646525Y-45053368D01*
X110530000Y-45227760D01*
X110413475Y-45053368D01*
X110206632Y-44846525D01*
X109963411Y-44684010D01*
X109693158Y-44572068D01*
X109406260Y-44515000D01*
X109113740Y-44515000D01*
X108826842Y-44572068D01*
X108556589Y-44684010D01*
X108313368Y-44846525D01*
X108106525Y-45053368D01*
X107990000Y-45227760D01*
X107873475Y-45053368D01*
X107666632Y-44846525D01*
X107423411Y-44684010D01*
X107153158Y-44572068D01*
X106866260Y-44515000D01*
X106573740Y-44515000D01*
X106286842Y-44572068D01*
X106016589Y-44684010D01*
X105773368Y-44846525D01*
X105566525Y-45053368D01*
X105450000Y-45227760D01*
X105333475Y-45053368D01*
X105126632Y-44846525D01*
X104883411Y-44684010D01*
X104613158Y-44572068D01*
X104326260Y-44515000D01*
X104033740Y-44515000D01*
X103746842Y-44572068D01*
X103476589Y-44684010D01*
X103233368Y-44846525D01*
X103026525Y-45053368D01*
X102910000Y-45227760D01*
X102793475Y-45053368D01*
X102586632Y-44846525D01*
X102343411Y-44684010D01*
X102073158Y-44572068D01*
X101786260Y-44515000D01*
X101493740Y-44515000D01*
X101206842Y-44572068D01*
X100936589Y-44684010D01*
X100693368Y-44846525D01*
X100486525Y-45053368D01*
X100370000Y-45227760D01*
X100253475Y-45053368D01*
X100046632Y-44846525D01*
X99803411Y-44684010D01*
X99533158Y-44572068D01*
X99246260Y-44515000D01*
X98953740Y-44515000D01*
X98666842Y-44572068D01*
X98396589Y-44684010D01*
X98153368Y-44846525D01*
X97946525Y-45053368D01*
X97830000Y-45227760D01*
X97713475Y-45053368D01*
X97506632Y-44846525D01*
X97263411Y-44684010D01*
X96993158Y-44572068D01*
X96706260Y-44515000D01*
X96413740Y-44515000D01*
X96126842Y-44572068D01*
X95856589Y-44684010D01*
X95613368Y-44846525D01*
X95406525Y-45053368D01*
X95290000Y-45227760D01*
X95173475Y-45053368D01*
X94966632Y-44846525D01*
X94723411Y-44684010D01*
X94453158Y-44572068D01*
X94166260Y-44515000D01*
X93873740Y-44515000D01*
X93586842Y-44572068D01*
X93316589Y-44684010D01*
X93073368Y-44846525D01*
X92866525Y-45053368D01*
X92750000Y-45227760D01*
X92633475Y-45053368D01*
X92426632Y-44846525D01*
X92183411Y-44684010D01*
X91913158Y-44572068D01*
X91626260Y-44515000D01*
X91333740Y-44515000D01*
X91046842Y-44572068D01*
X90776589Y-44684010D01*
X90533368Y-44846525D01*
X90326525Y-45053368D01*
X90210000Y-45227760D01*
X90093475Y-45053368D01*
X89886632Y-44846525D01*
X89643411Y-44684010D01*
X89373158Y-44572068D01*
X89086260Y-44515000D01*
X88793740Y-44515000D01*
X88506842Y-44572068D01*
X88236589Y-44684010D01*
X87993368Y-44846525D01*
X87861513Y-44978380D01*
X87839502Y-44905820D01*
X87780537Y-44795506D01*
X87701185Y-44698815D01*
X87604494Y-44619463D01*
X87494180Y-44560498D01*
X87374482Y-44524188D01*
X87250000Y-44511928D01*
X85685000Y-44511928D01*
X85685000Y-43685000D01*
X186315000Y-43685000D01*
X186315000Y-44794057D01*
G37*
G04 #@! TD.AperFunction*
M02*
