M48
; DRILL file {KiCad (5.1.9)-1} date 11/21/21 15:00:34
; FORMAT={-:-/ absolute / metric / decimal}
; #@! TF.CreationDate,2021-11-21T15:00:34-05:00
; #@! TF.GenerationSoftware,Kicad,Pcbnew,(5.1.9)-1
; #@! TF.FileFunction,Plated,1,2,PTH
FMAT,2
METRIC
T1C0.400
T2C0.800
T3C1.000
%
G90
G05
T1
X96.6Y-104.6
X121.2Y-102.805
X121.9Y-103.8
X123.0Y-104.6
X123.2Y-115.5
X126.7Y-48.1
X130.7Y-93.3
X132.9Y-116.6
X134.7Y-111.3
X135.05Y-92.55
X138.7Y-63.2
X141.1Y-67.1
X141.2Y-114.1
X148.5Y-70.075
X156.3Y-92.5
X157.025Y-70.0
X161.3Y-121.775
X162.6Y-122.5
X164.4Y-123.2
X165.9Y-124.3
X166.0Y-129.7
X173.9Y-56.1
X174.625Y-55.325
X175.5Y-54.6
X176.4Y-53.8
X177.3Y-53.2
X178.2Y-57.9
X180.3Y-95.6
X182.95Y-81.35
X183.0Y-100.1
T2
X94.1Y-56.88
X94.1Y-64.5
X94.1Y-69.38
X94.1Y-77.0
X94.1Y-85.88
X94.1Y-93.5
X94.1Y-101.68
X94.1Y-109.3
X94.1Y-116.18
X94.1Y-123.8
X96.64Y-56.88
X96.64Y-64.5
X96.64Y-69.38
X96.64Y-77.0
X96.64Y-85.88
X96.64Y-93.5
X96.64Y-101.68
X96.64Y-109.3
X96.64Y-116.18
X96.64Y-123.8
X99.18Y-56.88
X99.18Y-64.5
X99.18Y-69.38
X99.18Y-77.0
X99.18Y-85.88
X99.18Y-93.5
X99.18Y-101.68
X99.18Y-109.3
X99.18Y-116.18
X99.18Y-123.8
X101.72Y-56.88
X101.72Y-64.5
X101.72Y-69.38
X101.72Y-77.0
X101.72Y-85.88
X101.72Y-93.5
X101.72Y-101.68
X101.72Y-109.3
X101.72Y-116.18
X101.72Y-123.8
X104.26Y-56.88
X104.26Y-64.5
X104.26Y-69.38
X104.26Y-77.0
X104.26Y-85.88
X104.26Y-93.5
X104.26Y-101.68
X104.26Y-109.3
X104.26Y-116.18
X104.26Y-123.8
X106.8Y-56.88
X106.8Y-64.5
X106.8Y-69.38
X106.8Y-77.0
X106.8Y-85.88
X106.8Y-93.5
X106.8Y-101.68
X106.8Y-109.3
X106.8Y-116.18
X106.8Y-123.8
X109.34Y-56.88
X109.34Y-64.5
X109.34Y-69.38
X109.34Y-77.0
X109.34Y-85.88
X109.34Y-93.5
X109.34Y-101.68
X109.34Y-109.3
X109.34Y-116.18
X109.34Y-123.8
X111.88Y-56.88
X111.88Y-64.5
X111.88Y-69.38
X111.88Y-77.0
X111.88Y-85.88
X111.88Y-93.5
X111.88Y-101.68
X111.88Y-109.3
X111.88Y-116.18
X111.88Y-123.8
X114.42Y-56.88
X114.42Y-64.5
X114.42Y-69.38
X114.42Y-77.0
X114.42Y-85.88
X114.42Y-93.5
X114.42Y-101.68
X114.42Y-109.3
X114.42Y-116.18
X114.42Y-123.8
X116.96Y-56.88
X116.96Y-64.5
X116.96Y-69.38
X116.96Y-77.0
X116.96Y-85.88
X116.96Y-93.5
X116.96Y-101.68
X116.96Y-109.3
X116.96Y-116.18
X116.96Y-123.8
X139.7Y-51.08
X139.7Y-58.7
X139.7Y-124.28
X139.7Y-131.9
X142.24Y-51.08
X142.24Y-58.7
X142.24Y-124.28
X142.24Y-131.9
X144.78Y-51.08
X144.78Y-58.7
X144.78Y-124.28
X144.78Y-131.9
X147.32Y-51.08
X147.32Y-58.7
X147.32Y-124.28
X147.32Y-131.9
X149.86Y-51.08
X149.86Y-58.7
X149.86Y-124.28
X149.86Y-131.9
X152.4Y-51.08
X152.4Y-58.7
X152.4Y-124.28
X152.4Y-131.9
X154.94Y-51.08
X154.94Y-58.7
X154.94Y-124.28
X154.94Y-131.9
X157.48Y-51.08
X157.48Y-58.7
X157.48Y-124.28
X157.48Y-131.9
T3
X86.4Y-46.0
X86.4Y-136.0
X88.94Y-46.0
X88.94Y-136.0
X91.48Y-46.0
X91.48Y-136.0
X94.02Y-46.0
X94.02Y-136.0
X96.56Y-46.0
X96.56Y-136.0
X99.1Y-46.0
X99.1Y-136.0
X101.64Y-46.0
X101.64Y-136.0
X104.18Y-46.0
X104.18Y-136.0
X106.72Y-46.0
X106.72Y-136.0
X109.26Y-46.0
X109.26Y-136.0
X111.8Y-46.0
X111.8Y-136.0
X114.34Y-46.0
X114.34Y-136.0
X116.88Y-46.0
X116.88Y-136.0
X119.42Y-46.0
X119.42Y-136.0
X121.96Y-46.0
X121.96Y-136.0
X124.5Y-46.0
X124.5Y-136.0
X127.04Y-46.0
X127.04Y-136.0
X129.58Y-46.0
X129.58Y-136.0
X132.12Y-46.0
X132.12Y-136.0
X134.66Y-46.0
X134.66Y-136.0
X137.2Y-46.0
X137.2Y-136.0
X139.74Y-46.0
X139.74Y-136.0
X142.28Y-46.0
X142.28Y-136.0
X144.82Y-46.0
X144.82Y-136.0
X147.36Y-46.0
X147.36Y-136.0
X149.9Y-46.0
X149.9Y-136.0
X152.44Y-46.0
X152.44Y-136.0
X154.98Y-46.0
X154.98Y-136.0
X157.52Y-46.0
X157.52Y-136.0
X160.06Y-46.0
X160.06Y-136.0
X162.6Y-46.0
X162.6Y-136.0
X165.14Y-46.0
X165.14Y-136.0
X167.68Y-46.0
X167.68Y-136.0
X170.22Y-46.0
X170.22Y-136.0
X172.76Y-46.0
X172.76Y-136.0
X175.3Y-46.0
X175.3Y-136.0
X177.84Y-46.0
X177.84Y-136.0
X180.36Y-57.6
X180.36Y-60.14
X180.36Y-62.68
X180.36Y-65.22
X180.36Y-67.76
X180.36Y-70.3
X180.36Y-72.84
X180.36Y-75.38
X180.36Y-106.6
X180.36Y-109.14
X180.36Y-111.68
X180.36Y-114.22
X180.36Y-116.76
X180.36Y-119.3
X180.36Y-121.84
X180.36Y-124.38
X180.38Y-46.0
X180.38Y-136.0
X182.9Y-57.6
X182.9Y-60.14
X182.9Y-62.68
X182.9Y-65.22
X182.9Y-67.76
X182.9Y-70.3
X182.9Y-72.84
X182.9Y-75.38
X182.9Y-106.6
X182.9Y-109.14
X182.9Y-111.68
X182.9Y-114.22
X182.9Y-116.76
X182.9Y-119.3
X182.9Y-121.84
X182.9Y-124.38
X182.92Y-46.0
X182.92Y-136.0
X185.46Y-46.0
X185.46Y-136.0
T0
M30
