G04 #@! TF.GenerationSoftware,KiCad,Pcbnew,(5.1.9)-1*
G04 #@! TF.CreationDate,2021-11-21T15:00:31-05:00*
G04 #@! TF.ProjectId,ab-register,61622d72-6567-4697-9374-65722e6b6963,2.0*
G04 #@! TF.SameCoordinates,Original*
G04 #@! TF.FileFunction,Soldermask,Bot*
G04 #@! TF.FilePolarity,Negative*
%FSLAX46Y46*%
G04 Gerber Fmt 4.6, Leading zero omitted, Abs format (unit mm)*
G04 Created by KiCad (PCBNEW (5.1.9)-1) date 2021-11-21 15:00:31*
%MOMM*%
%LPD*%
G01*
G04 APERTURE LIST*
%ADD10O,1.600000X1.600000*%
%ADD11R,1.600000X1.600000*%
%ADD12O,1.700000X1.700000*%
%ADD13R,1.700000X1.700000*%
G04 APERTURE END LIST*
D10*
X139700000Y-51080000D03*
X157480000Y-58700000D03*
X142240000Y-51080000D03*
X154940000Y-58700000D03*
X144780000Y-51080000D03*
X152400000Y-58700000D03*
X147320000Y-51080000D03*
X149860000Y-58700000D03*
X149860000Y-51080000D03*
X147320000Y-58700000D03*
X152400000Y-51080000D03*
X144780000Y-58700000D03*
X154940000Y-51080000D03*
X142240000Y-58700000D03*
X157480000Y-51080000D03*
D11*
X139700000Y-58700000D03*
D10*
X139700000Y-124280000D03*
X157480000Y-131900000D03*
X142240000Y-124280000D03*
X154940000Y-131900000D03*
X144780000Y-124280000D03*
X152400000Y-131900000D03*
X147320000Y-124280000D03*
X149860000Y-131900000D03*
X149860000Y-124280000D03*
X147320000Y-131900000D03*
X152400000Y-124280000D03*
X144780000Y-131900000D03*
X154940000Y-124280000D03*
X142240000Y-131900000D03*
X157480000Y-124280000D03*
D11*
X139700000Y-131900000D03*
D10*
X94100000Y-101680000D03*
X116960000Y-109300000D03*
X96640000Y-101680000D03*
X114420000Y-109300000D03*
X99180000Y-101680000D03*
X111880000Y-109300000D03*
X101720000Y-101680000D03*
X109340000Y-109300000D03*
X104260000Y-101680000D03*
X106800000Y-109300000D03*
X106800000Y-101680000D03*
X104260000Y-109300000D03*
X109340000Y-101680000D03*
X101720000Y-109300000D03*
X111880000Y-101680000D03*
X99180000Y-109300000D03*
X114420000Y-101680000D03*
X96640000Y-109300000D03*
X116960000Y-101680000D03*
D11*
X94100000Y-109300000D03*
D10*
X94100000Y-56880000D03*
X116960000Y-64500000D03*
X96640000Y-56880000D03*
X114420000Y-64500000D03*
X99180000Y-56880000D03*
X111880000Y-64500000D03*
X101720000Y-56880000D03*
X109340000Y-64500000D03*
X104260000Y-56880000D03*
X106800000Y-64500000D03*
X106800000Y-56880000D03*
X104260000Y-64500000D03*
X109340000Y-56880000D03*
X101720000Y-64500000D03*
X111880000Y-56880000D03*
X99180000Y-64500000D03*
X114420000Y-56880000D03*
X96640000Y-64500000D03*
X116960000Y-56880000D03*
D11*
X94100000Y-64500000D03*
D10*
X94100000Y-69380000D03*
X116960000Y-77000000D03*
X96640000Y-69380000D03*
X114420000Y-77000000D03*
X99180000Y-69380000D03*
X111880000Y-77000000D03*
X101720000Y-69380000D03*
X109340000Y-77000000D03*
X104260000Y-69380000D03*
X106800000Y-77000000D03*
X106800000Y-69380000D03*
X104260000Y-77000000D03*
X109340000Y-69380000D03*
X101720000Y-77000000D03*
X111880000Y-69380000D03*
X99180000Y-77000000D03*
X114420000Y-69380000D03*
X96640000Y-77000000D03*
X116960000Y-69380000D03*
D11*
X94100000Y-77000000D03*
D12*
X180360000Y-124380000D03*
X182900000Y-124380000D03*
X180360000Y-121840000D03*
X182900000Y-121840000D03*
X180360000Y-119300000D03*
X182900000Y-119300000D03*
X180360000Y-116760000D03*
X182900000Y-116760000D03*
X180360000Y-114220000D03*
X182900000Y-114220000D03*
X180360000Y-111680000D03*
X182900000Y-111680000D03*
X180360000Y-109140000D03*
X182900000Y-109140000D03*
X180360000Y-106600000D03*
D13*
X182900000Y-106600000D03*
D10*
X94100000Y-116180000D03*
X116960000Y-123800000D03*
X96640000Y-116180000D03*
X114420000Y-123800000D03*
X99180000Y-116180000D03*
X111880000Y-123800000D03*
X101720000Y-116180000D03*
X109340000Y-123800000D03*
X104260000Y-116180000D03*
X106800000Y-123800000D03*
X106800000Y-116180000D03*
X104260000Y-123800000D03*
X109340000Y-116180000D03*
X101720000Y-123800000D03*
X111880000Y-116180000D03*
X99180000Y-123800000D03*
X114420000Y-116180000D03*
X96640000Y-123800000D03*
X116960000Y-116180000D03*
D11*
X94100000Y-123800000D03*
D10*
X94100000Y-85880000D03*
X116960000Y-93500000D03*
X96640000Y-85880000D03*
X114420000Y-93500000D03*
X99180000Y-85880000D03*
X111880000Y-93500000D03*
X101720000Y-85880000D03*
X109340000Y-93500000D03*
X104260000Y-85880000D03*
X106800000Y-93500000D03*
X106800000Y-85880000D03*
X104260000Y-93500000D03*
X109340000Y-85880000D03*
X101720000Y-93500000D03*
X111880000Y-85880000D03*
X99180000Y-93500000D03*
X114420000Y-85880000D03*
X96640000Y-93500000D03*
X116960000Y-85880000D03*
D11*
X94100000Y-93500000D03*
D12*
X180360000Y-75380000D03*
X182900000Y-75380000D03*
X180360000Y-72840000D03*
X182900000Y-72840000D03*
X180360000Y-70300000D03*
X182900000Y-70300000D03*
X180360000Y-67760000D03*
X182900000Y-67760000D03*
X180360000Y-65220000D03*
X182900000Y-65220000D03*
X180360000Y-62680000D03*
X182900000Y-62680000D03*
X180360000Y-60140000D03*
X182900000Y-60140000D03*
X180360000Y-57600000D03*
D13*
X182900000Y-57600000D03*
D12*
X185460000Y-136000000D03*
X182920000Y-136000000D03*
X180380000Y-136000000D03*
X177840000Y-136000000D03*
X175300000Y-136000000D03*
X172760000Y-136000000D03*
X170220000Y-136000000D03*
X167680000Y-136000000D03*
X165140000Y-136000000D03*
X162600000Y-136000000D03*
X160060000Y-136000000D03*
X157520000Y-136000000D03*
X154980000Y-136000000D03*
X152440000Y-136000000D03*
X149900000Y-136000000D03*
X147360000Y-136000000D03*
X144820000Y-136000000D03*
X142280000Y-136000000D03*
X139740000Y-136000000D03*
X137200000Y-136000000D03*
X134660000Y-136000000D03*
X132120000Y-136000000D03*
X129580000Y-136000000D03*
X127040000Y-136000000D03*
X124500000Y-136000000D03*
X121960000Y-136000000D03*
X119420000Y-136000000D03*
X116880000Y-136000000D03*
X114340000Y-136000000D03*
X111800000Y-136000000D03*
X109260000Y-136000000D03*
X106720000Y-136000000D03*
X104180000Y-136000000D03*
X101640000Y-136000000D03*
X99100000Y-136000000D03*
X96560000Y-136000000D03*
X94020000Y-136000000D03*
X91480000Y-136000000D03*
X88940000Y-136000000D03*
D13*
X86400000Y-136000000D03*
D12*
X185460000Y-46000000D03*
X182920000Y-46000000D03*
X180380000Y-46000000D03*
X177840000Y-46000000D03*
X175300000Y-46000000D03*
X172760000Y-46000000D03*
X170220000Y-46000000D03*
X167680000Y-46000000D03*
X165140000Y-46000000D03*
X162600000Y-46000000D03*
X160060000Y-46000000D03*
X157520000Y-46000000D03*
X154980000Y-46000000D03*
X152440000Y-46000000D03*
X149900000Y-46000000D03*
X147360000Y-46000000D03*
X144820000Y-46000000D03*
X142280000Y-46000000D03*
X139740000Y-46000000D03*
X137200000Y-46000000D03*
X134660000Y-46000000D03*
X132120000Y-46000000D03*
X129580000Y-46000000D03*
X127040000Y-46000000D03*
X124500000Y-46000000D03*
X121960000Y-46000000D03*
X119420000Y-46000000D03*
X116880000Y-46000000D03*
X114340000Y-46000000D03*
X111800000Y-46000000D03*
X109260000Y-46000000D03*
X106720000Y-46000000D03*
X104180000Y-46000000D03*
X101640000Y-46000000D03*
X99100000Y-46000000D03*
X96560000Y-46000000D03*
X94020000Y-46000000D03*
X91480000Y-46000000D03*
X88940000Y-46000000D03*
D13*
X86400000Y-46000000D03*
M02*
