M48
; DRILL file {KiCad (5.1.9)-1} date 10/03/21 23:50:17
; FORMAT={-:-/ absolute / metric / decimal}
; #@! TF.CreationDate,2021-10-03T23:50:17-04:00
; #@! TF.GenerationSoftware,Kicad,Pcbnew,(5.1.9)-1
; #@! TF.FileFunction,Plated,1,2,PTH
FMAT,2
METRIC
T1C0.400
T2C0.800
T3C1.000
%
G90
G05
T1
X91.3Y-63.2
X95.1Y-87.4
X96.0Y-105.7
X105.5Y-114.4
X105.9Y-110.3
X106.0Y-77.725
X107.0Y-91.8
X109.9Y-89.3
X110.0Y-76.5
X110.0Y-96.7
X111.3Y-108.0
X116.9Y-94.3
X118.2Y-72.7
X118.2Y-79.9
X118.2Y-62.6
X122.8Y-86.3
X122.8Y-94.4
X124.2Y-103.6
X127.1Y-106.5
X128.1Y-51.9
X131.3Y-104.1
X131.4Y-130.6
X148.55Y-51.95
X157.2Y-54.4
X157.2Y-113.8
X165.2Y-115.0
X166.0Y-126.7
X170.4Y-53.8
T2
X96.64Y-56.9
X96.64Y-64.52
X96.64Y-116.3
X96.64Y-123.92
X99.18Y-56.9
X99.18Y-64.52
X99.18Y-116.3
X99.18Y-123.92
X101.72Y-56.9
X101.72Y-64.52
X101.72Y-116.3
X101.72Y-123.92
X104.26Y-56.9
X104.26Y-64.52
X104.26Y-116.3
X104.26Y-123.92
X106.8Y-56.9
X106.8Y-64.52
X106.8Y-116.3
X106.8Y-123.92
X109.34Y-56.9
X109.34Y-64.52
X109.34Y-116.3
X109.34Y-123.92
X111.88Y-56.9
X111.88Y-64.52
X111.88Y-116.3
X111.88Y-123.92
X114.42Y-56.9
X114.42Y-64.52
X114.42Y-116.3
X114.42Y-123.92
X116.96Y-56.9
X116.96Y-64.52
X116.96Y-116.3
X116.96Y-123.92
X119.5Y-56.9
X119.5Y-64.52
X119.5Y-116.3
X119.5Y-123.92
X130.64Y-56.9
X130.64Y-64.52
X130.64Y-116.3
X130.64Y-123.92
X133.18Y-56.9
X133.18Y-64.52
X133.18Y-116.3
X133.18Y-123.92
X135.72Y-56.9
X135.72Y-64.52
X135.72Y-116.3
X135.72Y-123.92
X138.26Y-56.9
X138.26Y-64.52
X138.26Y-116.3
X138.26Y-123.92
X140.8Y-56.9
X140.8Y-64.52
X140.8Y-116.3
X140.8Y-123.92
X143.34Y-56.9
X143.34Y-64.52
X143.34Y-116.3
X143.34Y-123.92
X145.88Y-56.9
X145.88Y-64.52
X145.88Y-116.3
X145.88Y-123.92
X148.42Y-56.9
X148.42Y-64.52
X148.42Y-116.3
X148.42Y-123.92
X150.96Y-56.9
X150.96Y-64.52
X150.96Y-116.3
X150.96Y-123.92
X153.5Y-56.9
X153.5Y-64.52
X153.5Y-116.3
X153.5Y-123.92
T3
X86.4Y-46.0
X86.4Y-136.0
X88.94Y-46.0
X88.94Y-136.0
X91.48Y-46.0
X91.48Y-136.0
X94.02Y-46.0
X94.02Y-136.0
X96.56Y-46.0
X96.56Y-136.0
X99.1Y-46.0
X99.1Y-136.0
X101.64Y-46.0
X101.64Y-136.0
X104.18Y-46.0
X104.18Y-136.0
X106.72Y-46.0
X106.72Y-136.0
X109.26Y-46.0
X109.26Y-136.0
X111.8Y-46.0
X111.8Y-136.0
X114.34Y-46.0
X114.34Y-136.0
X116.88Y-46.0
X116.88Y-136.0
X119.42Y-46.0
X119.42Y-136.0
X121.96Y-46.0
X121.96Y-136.0
X124.5Y-46.0
X124.5Y-136.0
X127.04Y-46.0
X127.04Y-136.0
X129.58Y-46.0
X129.58Y-136.0
X132.12Y-46.0
X132.12Y-136.0
X134.66Y-46.0
X134.66Y-136.0
X137.2Y-46.0
X137.2Y-136.0
X139.74Y-46.0
X139.74Y-136.0
X142.28Y-46.0
X142.28Y-136.0
X144.82Y-46.0
X144.82Y-136.0
X147.36Y-46.0
X147.36Y-136.0
X149.9Y-46.0
X149.9Y-136.0
X152.44Y-46.0
X152.44Y-136.0
X154.98Y-46.0
X154.98Y-136.0
X157.52Y-46.0
X157.52Y-136.0
X160.06Y-46.0
X160.06Y-136.0
X162.6Y-46.0
X162.6Y-136.0
X165.14Y-46.0
X165.14Y-136.0
X167.68Y-46.0
X167.68Y-136.0
X170.22Y-46.0
X170.22Y-136.0
X172.76Y-46.0
X172.76Y-136.0
X175.3Y-46.0
X175.3Y-136.0
X177.84Y-46.0
X177.84Y-136.0
X180.36Y-57.6
X180.36Y-60.14
X180.36Y-62.68
X180.36Y-65.22
X180.36Y-67.76
X180.36Y-70.3
X180.36Y-72.84
X180.36Y-75.38
X180.36Y-106.6
X180.36Y-109.14
X180.36Y-111.68
X180.36Y-114.22
X180.36Y-116.76
X180.36Y-119.3
X180.36Y-121.84
X180.36Y-124.38
X180.38Y-46.0
X180.38Y-136.0
X182.9Y-57.6
X182.9Y-60.14
X182.9Y-62.68
X182.9Y-65.22
X182.9Y-67.76
X182.9Y-70.3
X182.9Y-72.84
X182.9Y-75.38
X182.9Y-106.6
X182.9Y-109.14
X182.9Y-111.68
X182.9Y-114.22
X182.9Y-116.76
X182.9Y-119.3
X182.9Y-121.84
X182.9Y-124.38
X182.92Y-46.0
X182.92Y-136.0
X185.46Y-46.0
X185.46Y-136.0
T0
M30
