G04 #@! TF.GenerationSoftware,KiCad,Pcbnew,(5.1.9)-1*
G04 #@! TF.CreationDate,2021-10-03T23:50:10-04:00*
G04 #@! TF.ProjectId,ab-register,61622d72-6567-4697-9374-65722e6b6963,1.0*
G04 #@! TF.SameCoordinates,Original*
G04 #@! TF.FileFunction,Legend,Top*
G04 #@! TF.FilePolarity,Positive*
%FSLAX46Y46*%
G04 Gerber Fmt 4.6, Leading zero omitted, Abs format (unit mm)*
G04 Created by KiCad (PCBNEW (5.1.9)-1) date 2021-10-03 23:50:10*
%MOMM*%
%LPD*%
G01*
G04 APERTURE LIST*
%ADD10C,0.150000*%
%ADD11C,0.200000*%
%ADD12C,0.300000*%
%ADD13C,0.120000*%
%ADD14C,0.170000*%
%ADD15O,1.600000X1.600000*%
%ADD16R,1.600000X1.600000*%
%ADD17O,1.700000X1.700000*%
%ADD18R,1.700000X1.700000*%
G04 APERTURE END LIST*
D10*
X157600000Y-132385714D02*
X157600000Y-133195238D01*
X157552380Y-133290476D01*
X157504761Y-133338095D01*
X157409523Y-133385714D01*
X157266666Y-133385714D01*
X157171428Y-133338095D01*
X157600000Y-133004761D02*
X157504761Y-133052380D01*
X157314285Y-133052380D01*
X157219047Y-133004761D01*
X157171428Y-132957142D01*
X157123809Y-132861904D01*
X157123809Y-132576190D01*
X157171428Y-132480952D01*
X157219047Y-132433333D01*
X157314285Y-132385714D01*
X157504761Y-132385714D01*
X157600000Y-132433333D01*
X158076190Y-133052380D02*
X158076190Y-132385714D01*
X158076190Y-132052380D02*
X158028571Y-132100000D01*
X158076190Y-132147619D01*
X158123809Y-132100000D01*
X158076190Y-132052380D01*
X158076190Y-132147619D01*
X158409523Y-132385714D02*
X158790476Y-132385714D01*
X158552380Y-132052380D02*
X158552380Y-132909523D01*
X158600000Y-133004761D01*
X158695238Y-133052380D01*
X158790476Y-133052380D01*
X159123809Y-133052380D02*
X159123809Y-132052380D01*
X159552380Y-133052380D02*
X159552380Y-132528571D01*
X159504761Y-132433333D01*
X159409523Y-132385714D01*
X159266666Y-132385714D01*
X159171428Y-132433333D01*
X159123809Y-132480952D01*
X160457142Y-132385714D02*
X160457142Y-133052380D01*
X160028571Y-132385714D02*
X160028571Y-132909523D01*
X160076190Y-133004761D01*
X160171428Y-133052380D01*
X160314285Y-133052380D01*
X160409523Y-133004761D01*
X160457142Y-132957142D01*
X160933333Y-133052380D02*
X160933333Y-132052380D01*
X160933333Y-132433333D02*
X161028571Y-132385714D01*
X161219047Y-132385714D01*
X161314285Y-132433333D01*
X161361904Y-132480952D01*
X161409523Y-132576190D01*
X161409523Y-132861904D01*
X161361904Y-132957142D01*
X161314285Y-133004761D01*
X161219047Y-133052380D01*
X161028571Y-133052380D01*
X160933333Y-133004761D01*
X161838095Y-132957142D02*
X161885714Y-133004761D01*
X161838095Y-133052380D01*
X161790476Y-133004761D01*
X161838095Y-132957142D01*
X161838095Y-133052380D01*
X162742857Y-133004761D02*
X162647619Y-133052380D01*
X162457142Y-133052380D01*
X162361904Y-133004761D01*
X162314285Y-132957142D01*
X162266666Y-132861904D01*
X162266666Y-132576190D01*
X162314285Y-132480952D01*
X162361904Y-132433333D01*
X162457142Y-132385714D01*
X162647619Y-132385714D01*
X162742857Y-132433333D01*
X163314285Y-133052380D02*
X163219047Y-133004761D01*
X163171428Y-132957142D01*
X163123809Y-132861904D01*
X163123809Y-132576190D01*
X163171428Y-132480952D01*
X163219047Y-132433333D01*
X163314285Y-132385714D01*
X163457142Y-132385714D01*
X163552380Y-132433333D01*
X163600000Y-132480952D01*
X163647619Y-132576190D01*
X163647619Y-132861904D01*
X163600000Y-132957142D01*
X163552380Y-133004761D01*
X163457142Y-133052380D01*
X163314285Y-133052380D01*
X164076190Y-133052380D02*
X164076190Y-132385714D01*
X164076190Y-132480952D02*
X164123809Y-132433333D01*
X164219047Y-132385714D01*
X164361904Y-132385714D01*
X164457142Y-132433333D01*
X164504761Y-132528571D01*
X164504761Y-133052380D01*
X164504761Y-132528571D02*
X164552380Y-132433333D01*
X164647619Y-132385714D01*
X164790476Y-132385714D01*
X164885714Y-132433333D01*
X164933333Y-132528571D01*
X164933333Y-133052380D01*
X166123809Y-132004761D02*
X165266666Y-133290476D01*
X166314285Y-132052380D02*
X166885714Y-132052380D01*
X166600000Y-133052380D02*
X166600000Y-132052380D01*
X167361904Y-133052380D02*
X167266666Y-133004761D01*
X167219047Y-132957142D01*
X167171428Y-132861904D01*
X167171428Y-132576190D01*
X167219047Y-132480952D01*
X167266666Y-132433333D01*
X167361904Y-132385714D01*
X167504761Y-132385714D01*
X167600000Y-132433333D01*
X167647619Y-132480952D01*
X167695238Y-132576190D01*
X167695238Y-132861904D01*
X167647619Y-132957142D01*
X167600000Y-133004761D01*
X167504761Y-133052380D01*
X167361904Y-133052380D01*
X168123809Y-133052380D02*
X168123809Y-132385714D01*
X168123809Y-132480952D02*
X168171428Y-132433333D01*
X168266666Y-132385714D01*
X168409523Y-132385714D01*
X168504761Y-132433333D01*
X168552380Y-132528571D01*
X168552380Y-133052380D01*
X168552380Y-132528571D02*
X168600000Y-132433333D01*
X168695238Y-132385714D01*
X168838095Y-132385714D01*
X168933333Y-132433333D01*
X168980952Y-132528571D01*
X168980952Y-133052380D01*
X169457142Y-133052380D02*
X169457142Y-132052380D01*
X170028571Y-133052380D01*
X170028571Y-132052380D01*
X170504761Y-133052380D02*
X170504761Y-132385714D01*
X170504761Y-132052380D02*
X170457142Y-132100000D01*
X170504761Y-132147619D01*
X170552380Y-132100000D01*
X170504761Y-132052380D01*
X170504761Y-132147619D01*
X170933333Y-133004761D02*
X171028571Y-133052380D01*
X171219047Y-133052380D01*
X171314285Y-133004761D01*
X171361904Y-132909523D01*
X171361904Y-132861904D01*
X171314285Y-132766666D01*
X171219047Y-132719047D01*
X171076190Y-132719047D01*
X170980952Y-132671428D01*
X170933333Y-132576190D01*
X170933333Y-132528571D01*
X170980952Y-132433333D01*
X171076190Y-132385714D01*
X171219047Y-132385714D01*
X171314285Y-132433333D01*
X171790476Y-133052380D02*
X171790476Y-132052380D01*
X171790476Y-132433333D02*
X171885714Y-132385714D01*
X172076190Y-132385714D01*
X172171428Y-132433333D01*
X172219047Y-132480952D01*
X172266666Y-132576190D01*
X172266666Y-132861904D01*
X172219047Y-132957142D01*
X172171428Y-133004761D01*
X172076190Y-133052380D01*
X171885714Y-133052380D01*
X171790476Y-133004761D01*
X173076190Y-133004761D02*
X172980952Y-133052380D01*
X172790476Y-133052380D01*
X172695238Y-133004761D01*
X172647619Y-132909523D01*
X172647619Y-132528571D01*
X172695238Y-132433333D01*
X172790476Y-132385714D01*
X172980952Y-132385714D01*
X173076190Y-132433333D01*
X173123809Y-132528571D01*
X173123809Y-132623809D01*
X172647619Y-132719047D01*
X173409523Y-132385714D02*
X173790476Y-132385714D01*
X173552380Y-132052380D02*
X173552380Y-132909523D01*
X173600000Y-133004761D01*
X173695238Y-133052380D01*
X173790476Y-133052380D01*
X174838095Y-132004761D02*
X173980952Y-133290476D01*
X175171428Y-132385714D02*
X175171428Y-133052380D01*
X175171428Y-132480952D02*
X175219047Y-132433333D01*
X175314285Y-132385714D01*
X175457142Y-132385714D01*
X175552380Y-132433333D01*
X175600000Y-132528571D01*
X175600000Y-133052380D01*
X176504761Y-132385714D02*
X176504761Y-133385714D01*
X176504761Y-133004761D02*
X176409523Y-133052380D01*
X176219047Y-133052380D01*
X176123809Y-133004761D01*
X176076190Y-132957142D01*
X176028571Y-132861904D01*
X176028571Y-132576190D01*
X176076190Y-132480952D01*
X176123809Y-132433333D01*
X176219047Y-132385714D01*
X176409523Y-132385714D01*
X176504761Y-132433333D01*
X176933333Y-133004761D02*
X177028571Y-133052380D01*
X177219047Y-133052380D01*
X177314285Y-133004761D01*
X177361904Y-132909523D01*
X177361904Y-132861904D01*
X177314285Y-132766666D01*
X177219047Y-132719047D01*
X177076190Y-132719047D01*
X176980952Y-132671428D01*
X176933333Y-132576190D01*
X176933333Y-132528571D01*
X176980952Y-132433333D01*
X177076190Y-132385714D01*
X177219047Y-132385714D01*
X177314285Y-132433333D01*
X178219047Y-133052380D02*
X178219047Y-132528571D01*
X178171428Y-132433333D01*
X178076190Y-132385714D01*
X177885714Y-132385714D01*
X177790476Y-132433333D01*
X178219047Y-133004761D02*
X178123809Y-133052380D01*
X177885714Y-133052380D01*
X177790476Y-133004761D01*
X177742857Y-132909523D01*
X177742857Y-132814285D01*
X177790476Y-132719047D01*
X177885714Y-132671428D01*
X178123809Y-132671428D01*
X178219047Y-132623809D01*
X178695238Y-132385714D02*
X178695238Y-133385714D01*
X178695238Y-132433333D02*
X178790476Y-132385714D01*
X178980952Y-132385714D01*
X179076190Y-132433333D01*
X179123809Y-132480952D01*
X179171428Y-132576190D01*
X179171428Y-132861904D01*
X179123809Y-132957142D01*
X179076190Y-133004761D01*
X178980952Y-133052380D01*
X178790476Y-133052380D01*
X178695238Y-133004761D01*
X179600000Y-132671428D02*
X180361904Y-132671428D01*
X180838095Y-132385714D02*
X180838095Y-133385714D01*
X180838095Y-132433333D02*
X180933333Y-132385714D01*
X181123809Y-132385714D01*
X181219047Y-132433333D01*
X181266666Y-132480952D01*
X181314285Y-132576190D01*
X181314285Y-132861904D01*
X181266666Y-132957142D01*
X181219047Y-133004761D01*
X181123809Y-133052380D01*
X180933333Y-133052380D01*
X180838095Y-133004761D01*
X182171428Y-133004761D02*
X182076190Y-133052380D01*
X181885714Y-133052380D01*
X181790476Y-133004761D01*
X181742857Y-132957142D01*
X181695238Y-132861904D01*
X181695238Y-132576190D01*
X181742857Y-132480952D01*
X181790476Y-132433333D01*
X181885714Y-132385714D01*
X182076190Y-132385714D01*
X182171428Y-132433333D01*
X182600000Y-133052380D02*
X182600000Y-132052380D01*
X182600000Y-132433333D02*
X182695238Y-132385714D01*
X182885714Y-132385714D01*
X182980952Y-132433333D01*
X183028571Y-132480952D01*
X183076190Y-132576190D01*
X183076190Y-132861904D01*
X183028571Y-132957142D01*
X182980952Y-133004761D01*
X182885714Y-133052380D01*
X182695238Y-133052380D01*
X182600000Y-133004761D01*
X177633333Y-48347619D02*
X177680952Y-48300000D01*
X177776190Y-48252380D01*
X178014285Y-48252380D01*
X178109523Y-48300000D01*
X178157142Y-48347619D01*
X178204761Y-48442857D01*
X178204761Y-48538095D01*
X178157142Y-48680952D01*
X177585714Y-49252380D01*
X178204761Y-49252380D01*
X178823809Y-48252380D02*
X178919047Y-48252380D01*
X179014285Y-48300000D01*
X179061904Y-48347619D01*
X179109523Y-48442857D01*
X179157142Y-48633333D01*
X179157142Y-48871428D01*
X179109523Y-49061904D01*
X179061904Y-49157142D01*
X179014285Y-49204761D01*
X178919047Y-49252380D01*
X178823809Y-49252380D01*
X178728571Y-49204761D01*
X178680952Y-49157142D01*
X178633333Y-49061904D01*
X178585714Y-48871428D01*
X178585714Y-48633333D01*
X178633333Y-48442857D01*
X178680952Y-48347619D01*
X178728571Y-48300000D01*
X178823809Y-48252380D01*
X179538095Y-48347619D02*
X179585714Y-48300000D01*
X179680952Y-48252380D01*
X179919047Y-48252380D01*
X180014285Y-48300000D01*
X180061904Y-48347619D01*
X180109523Y-48442857D01*
X180109523Y-48538095D01*
X180061904Y-48680952D01*
X179490476Y-49252380D01*
X180109523Y-49252380D01*
X181061904Y-49252380D02*
X180490476Y-49252380D01*
X180776190Y-49252380D02*
X180776190Y-48252380D01*
X180680952Y-48395238D01*
X180585714Y-48490476D01*
X180490476Y-48538095D01*
X182157142Y-48585714D02*
X182395238Y-49252380D01*
X182633333Y-48585714D01*
X183538095Y-49252380D02*
X182966666Y-49252380D01*
X183252380Y-49252380D02*
X183252380Y-48252380D01*
X183157142Y-48395238D01*
X183061904Y-48490476D01*
X182966666Y-48538095D01*
X183966666Y-49157142D02*
X184014285Y-49204761D01*
X183966666Y-49252380D01*
X183919047Y-49204761D01*
X183966666Y-49157142D01*
X183966666Y-49252380D01*
X184633333Y-48252380D02*
X184728571Y-48252380D01*
X184823809Y-48300000D01*
X184871428Y-48347619D01*
X184919047Y-48442857D01*
X184966666Y-48633333D01*
X184966666Y-48871428D01*
X184919047Y-49061904D01*
X184871428Y-49157142D01*
X184823809Y-49204761D01*
X184728571Y-49252380D01*
X184633333Y-49252380D01*
X184538095Y-49204761D01*
X184490476Y-49157142D01*
X184442857Y-49061904D01*
X184395238Y-48871428D01*
X184395238Y-48633333D01*
X184442857Y-48442857D01*
X184490476Y-48347619D01*
X184538095Y-48300000D01*
X184633333Y-48252380D01*
D11*
X89452380Y-100404761D02*
X88785714Y-99452380D01*
X88309523Y-100404761D02*
X88309523Y-98404761D01*
X89071428Y-98404761D01*
X89261904Y-98500000D01*
X89357142Y-98595238D01*
X89452380Y-98785714D01*
X89452380Y-99071428D01*
X89357142Y-99261904D01*
X89261904Y-99357142D01*
X89071428Y-99452380D01*
X88309523Y-99452380D01*
X91071428Y-100309523D02*
X90880952Y-100404761D01*
X90500000Y-100404761D01*
X90309523Y-100309523D01*
X90214285Y-100119047D01*
X90214285Y-99357142D01*
X90309523Y-99166666D01*
X90500000Y-99071428D01*
X90880952Y-99071428D01*
X91071428Y-99166666D01*
X91166666Y-99357142D01*
X91166666Y-99547619D01*
X90214285Y-99738095D01*
X92880952Y-100404761D02*
X92880952Y-99357142D01*
X92785714Y-99166666D01*
X92595238Y-99071428D01*
X92214285Y-99071428D01*
X92023809Y-99166666D01*
X92880952Y-100309523D02*
X92690476Y-100404761D01*
X92214285Y-100404761D01*
X92023809Y-100309523D01*
X91928571Y-100119047D01*
X91928571Y-99928571D01*
X92023809Y-99738095D01*
X92214285Y-99642857D01*
X92690476Y-99642857D01*
X92880952Y-99547619D01*
X94690476Y-100404761D02*
X94690476Y-98404761D01*
X94690476Y-100309523D02*
X94500000Y-100404761D01*
X94119047Y-100404761D01*
X93928571Y-100309523D01*
X93833333Y-100214285D01*
X93738095Y-100023809D01*
X93738095Y-99452380D01*
X93833333Y-99261904D01*
X93928571Y-99166666D01*
X94119047Y-99071428D01*
X94500000Y-99071428D01*
X94690476Y-99166666D01*
X86452380Y-103509523D02*
X86738095Y-103604761D01*
X87214285Y-103604761D01*
X87404761Y-103509523D01*
X87500000Y-103414285D01*
X87595238Y-103223809D01*
X87595238Y-103033333D01*
X87500000Y-102842857D01*
X87404761Y-102747619D01*
X87214285Y-102652380D01*
X86833333Y-102557142D01*
X86642857Y-102461904D01*
X86547619Y-102366666D01*
X86452380Y-102176190D01*
X86452380Y-101985714D01*
X86547619Y-101795238D01*
X86642857Y-101700000D01*
X86833333Y-101604761D01*
X87309523Y-101604761D01*
X87595238Y-101700000D01*
X89214285Y-103509523D02*
X89023809Y-103604761D01*
X88642857Y-103604761D01*
X88452380Y-103509523D01*
X88357142Y-103319047D01*
X88357142Y-102557142D01*
X88452380Y-102366666D01*
X88642857Y-102271428D01*
X89023809Y-102271428D01*
X89214285Y-102366666D01*
X89309523Y-102557142D01*
X89309523Y-102747619D01*
X88357142Y-102938095D01*
X90452380Y-103604761D02*
X90261904Y-103509523D01*
X90166666Y-103319047D01*
X90166666Y-101604761D01*
X91976190Y-103509523D02*
X91785714Y-103604761D01*
X91404761Y-103604761D01*
X91214285Y-103509523D01*
X91119047Y-103319047D01*
X91119047Y-102557142D01*
X91214285Y-102366666D01*
X91404761Y-102271428D01*
X91785714Y-102271428D01*
X91976190Y-102366666D01*
X92071428Y-102557142D01*
X92071428Y-102747619D01*
X91119047Y-102938095D01*
X93785714Y-103509523D02*
X93595238Y-103604761D01*
X93214285Y-103604761D01*
X93023809Y-103509523D01*
X92928571Y-103414285D01*
X92833333Y-103223809D01*
X92833333Y-102652380D01*
X92928571Y-102461904D01*
X93023809Y-102366666D01*
X93214285Y-102271428D01*
X93595238Y-102271428D01*
X93785714Y-102366666D01*
X94357142Y-102271428D02*
X95119047Y-102271428D01*
X94642857Y-101604761D02*
X94642857Y-103319047D01*
X94738095Y-103509523D01*
X94928571Y-103604761D01*
X95119047Y-103604761D01*
X95690476Y-103509523D02*
X95880952Y-103604761D01*
X96261904Y-103604761D01*
X96452380Y-103509523D01*
X96547619Y-103319047D01*
X96547619Y-103223809D01*
X96452380Y-103033333D01*
X96261904Y-102938095D01*
X95976190Y-102938095D01*
X95785714Y-102842857D01*
X95690476Y-102652380D01*
X95690476Y-102557142D01*
X95785714Y-102366666D01*
X95976190Y-102271428D01*
X96261904Y-102271428D01*
X96452380Y-102366666D01*
X88119047Y-78104761D02*
X88595238Y-80104761D01*
X88976190Y-78676190D01*
X89357142Y-80104761D01*
X89833333Y-78104761D01*
X90595238Y-80104761D02*
X90595238Y-78771428D01*
X90595238Y-79152380D02*
X90690476Y-78961904D01*
X90785714Y-78866666D01*
X90976190Y-78771428D01*
X91166666Y-78771428D01*
X91833333Y-80104761D02*
X91833333Y-78771428D01*
X91833333Y-78104761D02*
X91738095Y-78200000D01*
X91833333Y-78295238D01*
X91928571Y-78200000D01*
X91833333Y-78104761D01*
X91833333Y-78295238D01*
X92500000Y-78771428D02*
X93261904Y-78771428D01*
X92785714Y-78104761D02*
X92785714Y-79819047D01*
X92880952Y-80009523D01*
X93071428Y-80104761D01*
X93261904Y-80104761D01*
X94690476Y-80009523D02*
X94500000Y-80104761D01*
X94119047Y-80104761D01*
X93928571Y-80009523D01*
X93833333Y-79819047D01*
X93833333Y-79057142D01*
X93928571Y-78866666D01*
X94119047Y-78771428D01*
X94500000Y-78771428D01*
X94690476Y-78866666D01*
X94785714Y-79057142D01*
X94785714Y-79247619D01*
X93833333Y-79438095D01*
X86452380Y-83209523D02*
X86738095Y-83304761D01*
X87214285Y-83304761D01*
X87404761Y-83209523D01*
X87500000Y-83114285D01*
X87595238Y-82923809D01*
X87595238Y-82733333D01*
X87500000Y-82542857D01*
X87404761Y-82447619D01*
X87214285Y-82352380D01*
X86833333Y-82257142D01*
X86642857Y-82161904D01*
X86547619Y-82066666D01*
X86452380Y-81876190D01*
X86452380Y-81685714D01*
X86547619Y-81495238D01*
X86642857Y-81400000D01*
X86833333Y-81304761D01*
X87309523Y-81304761D01*
X87595238Y-81400000D01*
X89214285Y-83209523D02*
X89023809Y-83304761D01*
X88642857Y-83304761D01*
X88452380Y-83209523D01*
X88357142Y-83019047D01*
X88357142Y-82257142D01*
X88452380Y-82066666D01*
X88642857Y-81971428D01*
X89023809Y-81971428D01*
X89214285Y-82066666D01*
X89309523Y-82257142D01*
X89309523Y-82447619D01*
X88357142Y-82638095D01*
X90452380Y-83304761D02*
X90261904Y-83209523D01*
X90166666Y-83019047D01*
X90166666Y-81304761D01*
X91976190Y-83209523D02*
X91785714Y-83304761D01*
X91404761Y-83304761D01*
X91214285Y-83209523D01*
X91119047Y-83019047D01*
X91119047Y-82257142D01*
X91214285Y-82066666D01*
X91404761Y-81971428D01*
X91785714Y-81971428D01*
X91976190Y-82066666D01*
X92071428Y-82257142D01*
X92071428Y-82447619D01*
X91119047Y-82638095D01*
X93785714Y-83209523D02*
X93595238Y-83304761D01*
X93214285Y-83304761D01*
X93023809Y-83209523D01*
X92928571Y-83114285D01*
X92833333Y-82923809D01*
X92833333Y-82352380D01*
X92928571Y-82161904D01*
X93023809Y-82066666D01*
X93214285Y-81971428D01*
X93595238Y-81971428D01*
X93785714Y-82066666D01*
X94357142Y-81971428D02*
X95119047Y-81971428D01*
X94642857Y-81304761D02*
X94642857Y-83019047D01*
X94738095Y-83209523D01*
X94928571Y-83304761D01*
X95119047Y-83304761D01*
X95690476Y-83209523D02*
X95880952Y-83304761D01*
X96261904Y-83304761D01*
X96452380Y-83209523D01*
X96547619Y-83019047D01*
X96547619Y-82923809D01*
X96452380Y-82733333D01*
X96261904Y-82638095D01*
X95976190Y-82638095D01*
X95785714Y-82542857D01*
X95690476Y-82352380D01*
X95690476Y-82257142D01*
X95785714Y-82066666D01*
X95976190Y-81971428D01*
X96261904Y-81971428D01*
X96452380Y-82066666D01*
D12*
X140233333Y-75266666D02*
X142138095Y-75266666D01*
X139852380Y-76409523D02*
X141185714Y-72409523D01*
X142519047Y-76409523D01*
X149185714Y-76409523D02*
X147852380Y-74504761D01*
X146900000Y-76409523D02*
X146900000Y-72409523D01*
X148423809Y-72409523D01*
X148804761Y-72600000D01*
X148995238Y-72790476D01*
X149185714Y-73171428D01*
X149185714Y-73742857D01*
X148995238Y-74123809D01*
X148804761Y-74314285D01*
X148423809Y-74504761D01*
X146900000Y-74504761D01*
X152423809Y-76219047D02*
X152042857Y-76409523D01*
X151280952Y-76409523D01*
X150900000Y-76219047D01*
X150709523Y-75838095D01*
X150709523Y-74314285D01*
X150900000Y-73933333D01*
X151280952Y-73742857D01*
X152042857Y-73742857D01*
X152423809Y-73933333D01*
X152614285Y-74314285D01*
X152614285Y-74695238D01*
X150709523Y-75076190D01*
X156042857Y-73742857D02*
X156042857Y-76980952D01*
X155852380Y-77361904D01*
X155661904Y-77552380D01*
X155280952Y-77742857D01*
X154709523Y-77742857D01*
X154328571Y-77552380D01*
X156042857Y-76219047D02*
X155661904Y-76409523D01*
X154900000Y-76409523D01*
X154519047Y-76219047D01*
X154328571Y-76028571D01*
X154138095Y-75647619D01*
X154138095Y-74504761D01*
X154328571Y-74123809D01*
X154519047Y-73933333D01*
X154900000Y-73742857D01*
X155661904Y-73742857D01*
X156042857Y-73933333D01*
X157947619Y-76409523D02*
X157947619Y-73742857D01*
X157947619Y-72409523D02*
X157757142Y-72600000D01*
X157947619Y-72790476D01*
X158138095Y-72600000D01*
X157947619Y-72409523D01*
X157947619Y-72790476D01*
X159661904Y-76219047D02*
X160042857Y-76409523D01*
X160804761Y-76409523D01*
X161185714Y-76219047D01*
X161376190Y-75838095D01*
X161376190Y-75647619D01*
X161185714Y-75266666D01*
X160804761Y-75076190D01*
X160233333Y-75076190D01*
X159852380Y-74885714D01*
X159661904Y-74504761D01*
X159661904Y-74314285D01*
X159852380Y-73933333D01*
X160233333Y-73742857D01*
X160804761Y-73742857D01*
X161185714Y-73933333D01*
X162519047Y-73742857D02*
X164042857Y-73742857D01*
X163090476Y-72409523D02*
X163090476Y-75838095D01*
X163280952Y-76219047D01*
X163661904Y-76409523D01*
X164042857Y-76409523D01*
X166900000Y-76219047D02*
X166519047Y-76409523D01*
X165757142Y-76409523D01*
X165376190Y-76219047D01*
X165185714Y-75838095D01*
X165185714Y-74314285D01*
X165376190Y-73933333D01*
X165757142Y-73742857D01*
X166519047Y-73742857D01*
X166900000Y-73933333D01*
X167090476Y-74314285D01*
X167090476Y-74695238D01*
X165185714Y-75076190D01*
X168804761Y-76409523D02*
X168804761Y-73742857D01*
X168804761Y-74504761D02*
X168995238Y-74123809D01*
X169185714Y-73933333D01*
X169566666Y-73742857D01*
X169947619Y-73742857D01*
X141471428Y-107514285D02*
X142042857Y-107704761D01*
X142233333Y-107895238D01*
X142423809Y-108276190D01*
X142423809Y-108847619D01*
X142233333Y-109228571D01*
X142042857Y-109419047D01*
X141661904Y-109609523D01*
X140138095Y-109609523D01*
X140138095Y-105609523D01*
X141471428Y-105609523D01*
X141852380Y-105800000D01*
X142042857Y-105990476D01*
X142233333Y-106371428D01*
X142233333Y-106752380D01*
X142042857Y-107133333D01*
X141852380Y-107323809D01*
X141471428Y-107514285D01*
X140138095Y-107514285D01*
X149471428Y-109609523D02*
X148138095Y-107704761D01*
X147185714Y-109609523D02*
X147185714Y-105609523D01*
X148709523Y-105609523D01*
X149090476Y-105800000D01*
X149280952Y-105990476D01*
X149471428Y-106371428D01*
X149471428Y-106942857D01*
X149280952Y-107323809D01*
X149090476Y-107514285D01*
X148709523Y-107704761D01*
X147185714Y-107704761D01*
X152709523Y-109419047D02*
X152328571Y-109609523D01*
X151566666Y-109609523D01*
X151185714Y-109419047D01*
X150995238Y-109038095D01*
X150995238Y-107514285D01*
X151185714Y-107133333D01*
X151566666Y-106942857D01*
X152328571Y-106942857D01*
X152709523Y-107133333D01*
X152900000Y-107514285D01*
X152900000Y-107895238D01*
X150995238Y-108276190D01*
X156328571Y-106942857D02*
X156328571Y-110180952D01*
X156138095Y-110561904D01*
X155947619Y-110752380D01*
X155566666Y-110942857D01*
X154995238Y-110942857D01*
X154614285Y-110752380D01*
X156328571Y-109419047D02*
X155947619Y-109609523D01*
X155185714Y-109609523D01*
X154804761Y-109419047D01*
X154614285Y-109228571D01*
X154423809Y-108847619D01*
X154423809Y-107704761D01*
X154614285Y-107323809D01*
X154804761Y-107133333D01*
X155185714Y-106942857D01*
X155947619Y-106942857D01*
X156328571Y-107133333D01*
X158233333Y-109609523D02*
X158233333Y-106942857D01*
X158233333Y-105609523D02*
X158042857Y-105800000D01*
X158233333Y-105990476D01*
X158423809Y-105800000D01*
X158233333Y-105609523D01*
X158233333Y-105990476D01*
X159947619Y-109419047D02*
X160328571Y-109609523D01*
X161090476Y-109609523D01*
X161471428Y-109419047D01*
X161661904Y-109038095D01*
X161661904Y-108847619D01*
X161471428Y-108466666D01*
X161090476Y-108276190D01*
X160519047Y-108276190D01*
X160138095Y-108085714D01*
X159947619Y-107704761D01*
X159947619Y-107514285D01*
X160138095Y-107133333D01*
X160519047Y-106942857D01*
X161090476Y-106942857D01*
X161471428Y-107133333D01*
X162804761Y-106942857D02*
X164328571Y-106942857D01*
X163376190Y-105609523D02*
X163376190Y-109038095D01*
X163566666Y-109419047D01*
X163947619Y-109609523D01*
X164328571Y-109609523D01*
X167185714Y-109419047D02*
X166804761Y-109609523D01*
X166042857Y-109609523D01*
X165661904Y-109419047D01*
X165471428Y-109038095D01*
X165471428Y-107514285D01*
X165661904Y-107133333D01*
X166042857Y-106942857D01*
X166804761Y-106942857D01*
X167185714Y-107133333D01*
X167376190Y-107514285D01*
X167376190Y-107895238D01*
X165471428Y-108276190D01*
X169090476Y-109609523D02*
X169090476Y-106942857D01*
X169090476Y-107704761D02*
X169280952Y-107323809D01*
X169471428Y-107133333D01*
X169852380Y-106942857D01*
X170233333Y-106942857D01*
D10*
X116000000Y-111000000D02*
X85000000Y-111000000D01*
X116000000Y-91000000D02*
X116000000Y-111000000D01*
X116000000Y-71000000D02*
X85000000Y-71000000D01*
X116000000Y-91000000D02*
X116000000Y-71000000D01*
X187000000Y-91000000D02*
X116000000Y-91000000D01*
D13*
X160327064Y-114535000D02*
X159872936Y-114535000D01*
X160327064Y-113065000D02*
X159872936Y-113065000D01*
X160327064Y-55135000D02*
X159872936Y-55135000D01*
X160327064Y-53665000D02*
X159872936Y-53665000D01*
X139472936Y-129865000D02*
X139927064Y-129865000D01*
X139472936Y-131335000D02*
X139927064Y-131335000D01*
X139672936Y-69465000D02*
X140127064Y-69465000D01*
X139672936Y-70935000D02*
X140127064Y-70935000D01*
X161100000Y-115340000D02*
X158240000Y-115340000D01*
X158240000Y-115340000D02*
X158240000Y-117260000D01*
X158240000Y-117260000D02*
X161100000Y-117260000D01*
X161100000Y-55940000D02*
X158240000Y-55940000D01*
X158240000Y-55940000D02*
X158240000Y-57860000D01*
X158240000Y-57860000D02*
X161100000Y-57860000D01*
X135700000Y-129640000D02*
X132840000Y-129640000D01*
X132840000Y-129640000D02*
X132840000Y-131560000D01*
X132840000Y-131560000D02*
X135700000Y-131560000D01*
X135700000Y-69240000D02*
X132840000Y-69240000D01*
X132840000Y-69240000D02*
X132840000Y-71160000D01*
X132840000Y-71160000D02*
X135700000Y-71160000D01*
X123561252Y-123165000D02*
X123038748Y-123165000D01*
X123561252Y-124635000D02*
X123038748Y-124635000D01*
X157461252Y-123165000D02*
X156938748Y-123165000D01*
X157461252Y-124635000D02*
X156938748Y-124635000D01*
X123461252Y-63765000D02*
X122938748Y-63765000D01*
X123461252Y-65235000D02*
X122938748Y-65235000D01*
X157561252Y-63765000D02*
X157038748Y-63765000D01*
X157561252Y-65235000D02*
X157038748Y-65235000D01*
X111261252Y-93965000D02*
X110738748Y-93965000D01*
X111261252Y-95435000D02*
X110738748Y-95435000D01*
X111261252Y-73765000D02*
X110738748Y-73765000D01*
X111261252Y-75235000D02*
X110738748Y-75235000D01*
X120830000Y-63360000D02*
X120830000Y-61710000D01*
X95310000Y-63360000D02*
X120830000Y-63360000D01*
X95310000Y-58060000D02*
X95310000Y-63360000D01*
X120830000Y-58060000D02*
X95310000Y-58060000D01*
X120830000Y-59710000D02*
X120830000Y-58060000D01*
X120830000Y-61710000D02*
G75*
G02*
X120830000Y-59710000I0J1000000D01*
G01*
X154830000Y-63360000D02*
X154830000Y-61710000D01*
X129310000Y-63360000D02*
X154830000Y-63360000D01*
X129310000Y-58060000D02*
X129310000Y-63360000D01*
X154830000Y-58060000D02*
X129310000Y-58060000D01*
X154830000Y-59710000D02*
X154830000Y-58060000D01*
X154830000Y-61710000D02*
G75*
G02*
X154830000Y-59710000I0J1000000D01*
G01*
X120830000Y-122760000D02*
X120830000Y-121110000D01*
X95310000Y-122760000D02*
X120830000Y-122760000D01*
X95310000Y-117460000D02*
X95310000Y-122760000D01*
X120830000Y-117460000D02*
X95310000Y-117460000D01*
X120830000Y-119110000D02*
X120830000Y-117460000D01*
X120830000Y-121110000D02*
G75*
G02*
X120830000Y-119110000I0J1000000D01*
G01*
X154830000Y-122760000D02*
X154830000Y-121110000D01*
X129310000Y-122760000D02*
X154830000Y-122760000D01*
X129310000Y-117460000D02*
X129310000Y-122760000D01*
X154830000Y-117460000D02*
X129310000Y-117460000D01*
X154830000Y-119110000D02*
X154830000Y-117460000D01*
X154830000Y-121110000D02*
G75*
G02*
X154830000Y-119110000I0J1000000D01*
G01*
X99340000Y-96095000D02*
X97525000Y-96095000D01*
X99340000Y-95840000D02*
X99340000Y-96095000D01*
X103200000Y-95840000D02*
X99340000Y-95840000D01*
X107060000Y-95840000D02*
X107060000Y-96095000D01*
X103200000Y-95840000D02*
X107060000Y-95840000D01*
X99340000Y-106360000D02*
X99340000Y-106105000D01*
X103200000Y-106360000D02*
X99340000Y-106360000D01*
X107060000Y-106360000D02*
X107060000Y-106105000D01*
X103200000Y-106360000D02*
X107060000Y-106360000D01*
X99340000Y-75895000D02*
X97525000Y-75895000D01*
X99340000Y-75640000D02*
X99340000Y-75895000D01*
X103200000Y-75640000D02*
X99340000Y-75640000D01*
X107060000Y-75640000D02*
X107060000Y-75895000D01*
X103200000Y-75640000D02*
X107060000Y-75640000D01*
X99340000Y-86160000D02*
X99340000Y-85905000D01*
X103200000Y-86160000D02*
X99340000Y-86160000D01*
X107060000Y-86160000D02*
X107060000Y-85905000D01*
X103200000Y-86160000D02*
X107060000Y-86160000D01*
X127872936Y-98235000D02*
X128327064Y-98235000D01*
X127872936Y-96765000D02*
X128327064Y-96765000D01*
X134015793Y-98235000D02*
X134469921Y-98235000D01*
X134015793Y-96765000D02*
X134469921Y-96765000D01*
X140158650Y-98235000D02*
X140612778Y-98235000D01*
X140158650Y-96765000D02*
X140612778Y-96765000D01*
X146301507Y-98235000D02*
X146755635Y-98235000D01*
X146301507Y-96765000D02*
X146755635Y-96765000D01*
X152444364Y-98235000D02*
X152898492Y-98235000D01*
X152444364Y-96765000D02*
X152898492Y-96765000D01*
X158587221Y-98235000D02*
X159041349Y-98235000D01*
X158587221Y-96765000D02*
X159041349Y-96765000D01*
X164730078Y-98235000D02*
X165184206Y-98235000D01*
X164730078Y-96765000D02*
X165184206Y-96765000D01*
X170872936Y-98235000D02*
X171327064Y-98235000D01*
X170872936Y-96765000D02*
X171327064Y-96765000D01*
X127872936Y-85235000D02*
X128327064Y-85235000D01*
X127872936Y-83765000D02*
X128327064Y-83765000D01*
X134015793Y-85235000D02*
X134469921Y-85235000D01*
X134015793Y-83765000D02*
X134469921Y-83765000D01*
X140158650Y-85235000D02*
X140612778Y-85235000D01*
X140158650Y-83765000D02*
X140612778Y-83765000D01*
X146301507Y-85235000D02*
X146755635Y-85235000D01*
X146301507Y-83765000D02*
X146755635Y-83765000D01*
X152444364Y-85235000D02*
X152898492Y-85235000D01*
X152444364Y-83765000D02*
X152898492Y-83765000D01*
X158587221Y-85235000D02*
X159041349Y-85235000D01*
X158587221Y-83765000D02*
X159041349Y-83765000D01*
X164730078Y-85235000D02*
X165184206Y-85235000D01*
X164730078Y-83765000D02*
X165184206Y-83765000D01*
X170872936Y-85235000D02*
X171327064Y-85235000D01*
X170872936Y-83765000D02*
X171327064Y-83765000D01*
X129960000Y-100740000D02*
X127100000Y-100740000D01*
X129960000Y-102660000D02*
X129960000Y-100740000D01*
X127100000Y-102660000D02*
X129960000Y-102660000D01*
X136102857Y-100740000D02*
X133242857Y-100740000D01*
X136102857Y-102660000D02*
X136102857Y-100740000D01*
X133242857Y-102660000D02*
X136102857Y-102660000D01*
X142245714Y-100740000D02*
X139385714Y-100740000D01*
X142245714Y-102660000D02*
X142245714Y-100740000D01*
X139385714Y-102660000D02*
X142245714Y-102660000D01*
X148388571Y-100740000D02*
X145528571Y-100740000D01*
X148388571Y-102660000D02*
X148388571Y-100740000D01*
X145528571Y-102660000D02*
X148388571Y-102660000D01*
X154531428Y-100740000D02*
X151671428Y-100740000D01*
X154531428Y-102660000D02*
X154531428Y-100740000D01*
X151671428Y-102660000D02*
X154531428Y-102660000D01*
X160674285Y-100740000D02*
X157814285Y-100740000D01*
X160674285Y-102660000D02*
X160674285Y-100740000D01*
X157814285Y-102660000D02*
X160674285Y-102660000D01*
X166817142Y-100740000D02*
X163957142Y-100740000D01*
X166817142Y-102660000D02*
X166817142Y-100740000D01*
X163957142Y-102660000D02*
X166817142Y-102660000D01*
X172960000Y-100740000D02*
X170100000Y-100740000D01*
X172960000Y-102660000D02*
X172960000Y-100740000D01*
X170100000Y-102660000D02*
X172960000Y-102660000D01*
X129960000Y-79340000D02*
X127100000Y-79340000D01*
X129960000Y-81260000D02*
X129960000Y-79340000D01*
X127100000Y-81260000D02*
X129960000Y-81260000D01*
X136102857Y-79340000D02*
X133242857Y-79340000D01*
X136102857Y-81260000D02*
X136102857Y-79340000D01*
X133242857Y-81260000D02*
X136102857Y-81260000D01*
X142245714Y-79340000D02*
X139385714Y-79340000D01*
X142245714Y-81260000D02*
X142245714Y-79340000D01*
X139385714Y-81260000D02*
X142245714Y-81260000D01*
X148388571Y-79340000D02*
X145528571Y-79340000D01*
X148388571Y-81260000D02*
X148388571Y-79340000D01*
X145528571Y-81260000D02*
X148388571Y-81260000D01*
X154531428Y-79340000D02*
X151671428Y-79340000D01*
X154531428Y-81260000D02*
X154531428Y-79340000D01*
X151671428Y-81260000D02*
X154531428Y-81260000D01*
X160674285Y-79340000D02*
X157814285Y-79340000D01*
X160674285Y-81260000D02*
X160674285Y-79340000D01*
X157814285Y-81260000D02*
X160674285Y-81260000D01*
X166817142Y-79340000D02*
X163957142Y-79340000D01*
X166817142Y-81260000D02*
X166817142Y-79340000D01*
X163957142Y-81260000D02*
X166817142Y-81260000D01*
X172960000Y-79340000D02*
X170100000Y-79340000D01*
X172960000Y-81260000D02*
X172960000Y-79340000D01*
X170100000Y-81260000D02*
X172960000Y-81260000D01*
D10*
X163357142Y-114352380D02*
X163023809Y-113876190D01*
X162785714Y-114352380D02*
X162785714Y-113352380D01*
X163166666Y-113352380D01*
X163261904Y-113400000D01*
X163309523Y-113447619D01*
X163357142Y-113542857D01*
X163357142Y-113685714D01*
X163309523Y-113780952D01*
X163261904Y-113828571D01*
X163166666Y-113876190D01*
X162785714Y-113876190D01*
X163738095Y-113447619D02*
X163785714Y-113400000D01*
X163880952Y-113352380D01*
X164119047Y-113352380D01*
X164214285Y-113400000D01*
X164261904Y-113447619D01*
X164309523Y-113542857D01*
X164309523Y-113638095D01*
X164261904Y-113780952D01*
X163690476Y-114352380D01*
X164309523Y-114352380D01*
X164928571Y-113352380D02*
X165023809Y-113352380D01*
X165119047Y-113400000D01*
X165166666Y-113447619D01*
X165214285Y-113542857D01*
X165261904Y-113733333D01*
X165261904Y-113971428D01*
X165214285Y-114161904D01*
X165166666Y-114257142D01*
X165119047Y-114304761D01*
X165023809Y-114352380D01*
X164928571Y-114352380D01*
X164833333Y-114304761D01*
X164785714Y-114257142D01*
X164738095Y-114161904D01*
X164690476Y-113971428D01*
X164690476Y-113733333D01*
X164738095Y-113542857D01*
X164785714Y-113447619D01*
X164833333Y-113400000D01*
X164928571Y-113352380D01*
X163057142Y-54852380D02*
X162723809Y-54376190D01*
X162485714Y-54852380D02*
X162485714Y-53852380D01*
X162866666Y-53852380D01*
X162961904Y-53900000D01*
X163009523Y-53947619D01*
X163057142Y-54042857D01*
X163057142Y-54185714D01*
X163009523Y-54280952D01*
X162961904Y-54328571D01*
X162866666Y-54376190D01*
X162485714Y-54376190D01*
X164009523Y-54852380D02*
X163438095Y-54852380D01*
X163723809Y-54852380D02*
X163723809Y-53852380D01*
X163628571Y-53995238D01*
X163533333Y-54090476D01*
X163438095Y-54138095D01*
X164485714Y-54852380D02*
X164676190Y-54852380D01*
X164771428Y-54804761D01*
X164819047Y-54757142D01*
X164914285Y-54614285D01*
X164961904Y-54423809D01*
X164961904Y-54042857D01*
X164914285Y-53947619D01*
X164866666Y-53900000D01*
X164771428Y-53852380D01*
X164580952Y-53852380D01*
X164485714Y-53900000D01*
X164438095Y-53947619D01*
X164390476Y-54042857D01*
X164390476Y-54280952D01*
X164438095Y-54376190D01*
X164485714Y-54423809D01*
X164580952Y-54471428D01*
X164771428Y-54471428D01*
X164866666Y-54423809D01*
X164914285Y-54376190D01*
X164961904Y-54280952D01*
X139057142Y-129402380D02*
X138723809Y-128926190D01*
X138485714Y-129402380D02*
X138485714Y-128402380D01*
X138866666Y-128402380D01*
X138961904Y-128450000D01*
X139009523Y-128497619D01*
X139057142Y-128592857D01*
X139057142Y-128735714D01*
X139009523Y-128830952D01*
X138961904Y-128878571D01*
X138866666Y-128926190D01*
X138485714Y-128926190D01*
X140009523Y-129402380D02*
X139438095Y-129402380D01*
X139723809Y-129402380D02*
X139723809Y-128402380D01*
X139628571Y-128545238D01*
X139533333Y-128640476D01*
X139438095Y-128688095D01*
X140580952Y-128830952D02*
X140485714Y-128783333D01*
X140438095Y-128735714D01*
X140390476Y-128640476D01*
X140390476Y-128592857D01*
X140438095Y-128497619D01*
X140485714Y-128450000D01*
X140580952Y-128402380D01*
X140771428Y-128402380D01*
X140866666Y-128450000D01*
X140914285Y-128497619D01*
X140961904Y-128592857D01*
X140961904Y-128640476D01*
X140914285Y-128735714D01*
X140866666Y-128783333D01*
X140771428Y-128830952D01*
X140580952Y-128830952D01*
X140485714Y-128878571D01*
X140438095Y-128926190D01*
X140390476Y-129021428D01*
X140390476Y-129211904D01*
X140438095Y-129307142D01*
X140485714Y-129354761D01*
X140580952Y-129402380D01*
X140771428Y-129402380D01*
X140866666Y-129354761D01*
X140914285Y-129307142D01*
X140961904Y-129211904D01*
X140961904Y-129021428D01*
X140914285Y-128926190D01*
X140866666Y-128878571D01*
X140771428Y-128830952D01*
X139257142Y-69002380D02*
X138923809Y-68526190D01*
X138685714Y-69002380D02*
X138685714Y-68002380D01*
X139066666Y-68002380D01*
X139161904Y-68050000D01*
X139209523Y-68097619D01*
X139257142Y-68192857D01*
X139257142Y-68335714D01*
X139209523Y-68430952D01*
X139161904Y-68478571D01*
X139066666Y-68526190D01*
X138685714Y-68526190D01*
X140209523Y-69002380D02*
X139638095Y-69002380D01*
X139923809Y-69002380D02*
X139923809Y-68002380D01*
X139828571Y-68145238D01*
X139733333Y-68240476D01*
X139638095Y-68288095D01*
X140542857Y-68002380D02*
X141209523Y-68002380D01*
X140780952Y-69002380D01*
X162785714Y-116752380D02*
X162785714Y-115752380D01*
X163023809Y-115752380D01*
X163166666Y-115800000D01*
X163261904Y-115895238D01*
X163309523Y-115990476D01*
X163357142Y-116180952D01*
X163357142Y-116323809D01*
X163309523Y-116514285D01*
X163261904Y-116609523D01*
X163166666Y-116704761D01*
X163023809Y-116752380D01*
X162785714Y-116752380D01*
X163738095Y-115847619D02*
X163785714Y-115800000D01*
X163880952Y-115752380D01*
X164119047Y-115752380D01*
X164214285Y-115800000D01*
X164261904Y-115847619D01*
X164309523Y-115942857D01*
X164309523Y-116038095D01*
X164261904Y-116180952D01*
X163690476Y-116752380D01*
X164309523Y-116752380D01*
X164928571Y-115752380D02*
X165023809Y-115752380D01*
X165119047Y-115800000D01*
X165166666Y-115847619D01*
X165214285Y-115942857D01*
X165261904Y-116133333D01*
X165261904Y-116371428D01*
X165214285Y-116561904D01*
X165166666Y-116657142D01*
X165119047Y-116704761D01*
X165023809Y-116752380D01*
X164928571Y-116752380D01*
X164833333Y-116704761D01*
X164785714Y-116657142D01*
X164738095Y-116561904D01*
X164690476Y-116371428D01*
X164690476Y-116133333D01*
X164738095Y-115942857D01*
X164785714Y-115847619D01*
X164833333Y-115800000D01*
X164928571Y-115752380D01*
D14*
X157100000Y-117678571D02*
X157457142Y-119178571D01*
X157742857Y-118107142D01*
X158028571Y-119178571D01*
X158385714Y-117678571D01*
X159814285Y-119178571D02*
X159314285Y-118464285D01*
X158957142Y-119178571D02*
X158957142Y-117678571D01*
X159528571Y-117678571D01*
X159671428Y-117750000D01*
X159742857Y-117821428D01*
X159814285Y-117964285D01*
X159814285Y-118178571D01*
X159742857Y-118321428D01*
X159671428Y-118392857D01*
X159528571Y-118464285D01*
X158957142Y-118464285D01*
X160457142Y-119178571D02*
X160457142Y-117678571D01*
X160957142Y-117678571D02*
X161814285Y-117678571D01*
X161385714Y-119178571D02*
X161385714Y-117678571D01*
X162314285Y-118392857D02*
X162814285Y-118392857D01*
X163028571Y-119178571D02*
X162314285Y-119178571D01*
X162314285Y-117678571D01*
X163028571Y-117678571D01*
D10*
X162485714Y-57352380D02*
X162485714Y-56352380D01*
X162723809Y-56352380D01*
X162866666Y-56400000D01*
X162961904Y-56495238D01*
X163009523Y-56590476D01*
X163057142Y-56780952D01*
X163057142Y-56923809D01*
X163009523Y-57114285D01*
X162961904Y-57209523D01*
X162866666Y-57304761D01*
X162723809Y-57352380D01*
X162485714Y-57352380D01*
X164009523Y-57352380D02*
X163438095Y-57352380D01*
X163723809Y-57352380D02*
X163723809Y-56352380D01*
X163628571Y-56495238D01*
X163533333Y-56590476D01*
X163438095Y-56638095D01*
X164485714Y-57352380D02*
X164676190Y-57352380D01*
X164771428Y-57304761D01*
X164819047Y-57257142D01*
X164914285Y-57114285D01*
X164961904Y-56923809D01*
X164961904Y-56542857D01*
X164914285Y-56447619D01*
X164866666Y-56400000D01*
X164771428Y-56352380D01*
X164580952Y-56352380D01*
X164485714Y-56400000D01*
X164438095Y-56447619D01*
X164390476Y-56542857D01*
X164390476Y-56780952D01*
X164438095Y-56876190D01*
X164485714Y-56923809D01*
X164580952Y-56971428D01*
X164771428Y-56971428D01*
X164866666Y-56923809D01*
X164914285Y-56876190D01*
X164961904Y-56780952D01*
D14*
X157100000Y-58278571D02*
X157457142Y-59778571D01*
X157742857Y-58707142D01*
X158028571Y-59778571D01*
X158385714Y-58278571D01*
X159814285Y-59778571D02*
X159314285Y-59064285D01*
X158957142Y-59778571D02*
X158957142Y-58278571D01*
X159528571Y-58278571D01*
X159671428Y-58350000D01*
X159742857Y-58421428D01*
X159814285Y-58564285D01*
X159814285Y-58778571D01*
X159742857Y-58921428D01*
X159671428Y-58992857D01*
X159528571Y-59064285D01*
X158957142Y-59064285D01*
X160457142Y-59778571D02*
X160457142Y-58278571D01*
X160957142Y-58278571D02*
X161814285Y-58278571D01*
X161385714Y-59778571D02*
X161385714Y-58278571D01*
X162314285Y-58992857D02*
X162814285Y-58992857D01*
X163028571Y-59778571D02*
X162314285Y-59778571D01*
X162314285Y-58278571D01*
X163028571Y-58278571D01*
D10*
X133485714Y-129402380D02*
X133485714Y-128402380D01*
X133723809Y-128402380D01*
X133866666Y-128450000D01*
X133961904Y-128545238D01*
X134009523Y-128640476D01*
X134057142Y-128830952D01*
X134057142Y-128973809D01*
X134009523Y-129164285D01*
X133961904Y-129259523D01*
X133866666Y-129354761D01*
X133723809Y-129402380D01*
X133485714Y-129402380D01*
X135009523Y-129402380D02*
X134438095Y-129402380D01*
X134723809Y-129402380D02*
X134723809Y-128402380D01*
X134628571Y-128545238D01*
X134533333Y-128640476D01*
X134438095Y-128688095D01*
X135580952Y-128830952D02*
X135485714Y-128783333D01*
X135438095Y-128735714D01*
X135390476Y-128640476D01*
X135390476Y-128592857D01*
X135438095Y-128497619D01*
X135485714Y-128450000D01*
X135580952Y-128402380D01*
X135771428Y-128402380D01*
X135866666Y-128450000D01*
X135914285Y-128497619D01*
X135961904Y-128592857D01*
X135961904Y-128640476D01*
X135914285Y-128735714D01*
X135866666Y-128783333D01*
X135771428Y-128830952D01*
X135580952Y-128830952D01*
X135485714Y-128878571D01*
X135438095Y-128926190D01*
X135390476Y-129021428D01*
X135390476Y-129211904D01*
X135438095Y-129307142D01*
X135485714Y-129354761D01*
X135580952Y-129402380D01*
X135771428Y-129402380D01*
X135866666Y-129354761D01*
X135914285Y-129307142D01*
X135961904Y-129211904D01*
X135961904Y-129021428D01*
X135914285Y-128926190D01*
X135866666Y-128878571D01*
X135771428Y-128830952D01*
D14*
X133092857Y-133578571D02*
X132592857Y-132864285D01*
X132235714Y-133578571D02*
X132235714Y-132078571D01*
X132807142Y-132078571D01*
X132950000Y-132150000D01*
X133021428Y-132221428D01*
X133092857Y-132364285D01*
X133092857Y-132578571D01*
X133021428Y-132721428D01*
X132950000Y-132792857D01*
X132807142Y-132864285D01*
X132235714Y-132864285D01*
X133735714Y-132792857D02*
X134235714Y-132792857D01*
X134450000Y-133578571D02*
X133735714Y-133578571D01*
X133735714Y-132078571D01*
X134450000Y-132078571D01*
X135021428Y-133150000D02*
X135735714Y-133150000D01*
X134878571Y-133578571D02*
X135378571Y-132078571D01*
X135878571Y-133578571D01*
X136378571Y-133578571D02*
X136378571Y-132078571D01*
X136735714Y-132078571D01*
X136950000Y-132150000D01*
X137092857Y-132292857D01*
X137164285Y-132435714D01*
X137235714Y-132721428D01*
X137235714Y-132935714D01*
X137164285Y-133221428D01*
X137092857Y-133364285D01*
X136950000Y-133507142D01*
X136735714Y-133578571D01*
X136378571Y-133578571D01*
D10*
X133485714Y-69002380D02*
X133485714Y-68002380D01*
X133723809Y-68002380D01*
X133866666Y-68050000D01*
X133961904Y-68145238D01*
X134009523Y-68240476D01*
X134057142Y-68430952D01*
X134057142Y-68573809D01*
X134009523Y-68764285D01*
X133961904Y-68859523D01*
X133866666Y-68954761D01*
X133723809Y-69002380D01*
X133485714Y-69002380D01*
X135009523Y-69002380D02*
X134438095Y-69002380D01*
X134723809Y-69002380D02*
X134723809Y-68002380D01*
X134628571Y-68145238D01*
X134533333Y-68240476D01*
X134438095Y-68288095D01*
X135342857Y-68002380D02*
X136009523Y-68002380D01*
X135580952Y-69002380D01*
D14*
X133092857Y-72978571D02*
X132592857Y-72264285D01*
X132235714Y-72978571D02*
X132235714Y-71478571D01*
X132807142Y-71478571D01*
X132950000Y-71550000D01*
X133021428Y-71621428D01*
X133092857Y-71764285D01*
X133092857Y-71978571D01*
X133021428Y-72121428D01*
X132950000Y-72192857D01*
X132807142Y-72264285D01*
X132235714Y-72264285D01*
X133735714Y-72192857D02*
X134235714Y-72192857D01*
X134450000Y-72978571D02*
X133735714Y-72978571D01*
X133735714Y-71478571D01*
X134450000Y-71478571D01*
X135021428Y-72550000D02*
X135735714Y-72550000D01*
X134878571Y-72978571D02*
X135378571Y-71478571D01*
X135878571Y-72978571D01*
X136378571Y-72978571D02*
X136378571Y-71478571D01*
X136735714Y-71478571D01*
X136950000Y-71550000D01*
X137092857Y-71692857D01*
X137164285Y-71835714D01*
X137235714Y-72121428D01*
X137235714Y-72335714D01*
X137164285Y-72621428D01*
X137092857Y-72764285D01*
X136950000Y-72907142D01*
X136735714Y-72978571D01*
X136378571Y-72978571D01*
D10*
X123133333Y-125937142D02*
X123085714Y-125984761D01*
X122942857Y-126032380D01*
X122847619Y-126032380D01*
X122704761Y-125984761D01*
X122609523Y-125889523D01*
X122561904Y-125794285D01*
X122514285Y-125603809D01*
X122514285Y-125460952D01*
X122561904Y-125270476D01*
X122609523Y-125175238D01*
X122704761Y-125080000D01*
X122847619Y-125032380D01*
X122942857Y-125032380D01*
X123085714Y-125080000D01*
X123133333Y-125127619D01*
X123990476Y-125365714D02*
X123990476Y-126032380D01*
X123752380Y-124984761D02*
X123514285Y-125699047D01*
X124133333Y-125699047D01*
X157033333Y-125937142D02*
X156985714Y-125984761D01*
X156842857Y-126032380D01*
X156747619Y-126032380D01*
X156604761Y-125984761D01*
X156509523Y-125889523D01*
X156461904Y-125794285D01*
X156414285Y-125603809D01*
X156414285Y-125460952D01*
X156461904Y-125270476D01*
X156509523Y-125175238D01*
X156604761Y-125080000D01*
X156747619Y-125032380D01*
X156842857Y-125032380D01*
X156985714Y-125080000D01*
X157033333Y-125127619D01*
X157366666Y-125032380D02*
X157985714Y-125032380D01*
X157652380Y-125413333D01*
X157795238Y-125413333D01*
X157890476Y-125460952D01*
X157938095Y-125508571D01*
X157985714Y-125603809D01*
X157985714Y-125841904D01*
X157938095Y-125937142D01*
X157890476Y-125984761D01*
X157795238Y-126032380D01*
X157509523Y-126032380D01*
X157414285Y-125984761D01*
X157366666Y-125937142D01*
X123033333Y-66537142D02*
X122985714Y-66584761D01*
X122842857Y-66632380D01*
X122747619Y-66632380D01*
X122604761Y-66584761D01*
X122509523Y-66489523D01*
X122461904Y-66394285D01*
X122414285Y-66203809D01*
X122414285Y-66060952D01*
X122461904Y-65870476D01*
X122509523Y-65775238D01*
X122604761Y-65680000D01*
X122747619Y-65632380D01*
X122842857Y-65632380D01*
X122985714Y-65680000D01*
X123033333Y-65727619D01*
X123414285Y-65727619D02*
X123461904Y-65680000D01*
X123557142Y-65632380D01*
X123795238Y-65632380D01*
X123890476Y-65680000D01*
X123938095Y-65727619D01*
X123985714Y-65822857D01*
X123985714Y-65918095D01*
X123938095Y-66060952D01*
X123366666Y-66632380D01*
X123985714Y-66632380D01*
X157133333Y-66537142D02*
X157085714Y-66584761D01*
X156942857Y-66632380D01*
X156847619Y-66632380D01*
X156704761Y-66584761D01*
X156609523Y-66489523D01*
X156561904Y-66394285D01*
X156514285Y-66203809D01*
X156514285Y-66060952D01*
X156561904Y-65870476D01*
X156609523Y-65775238D01*
X156704761Y-65680000D01*
X156847619Y-65632380D01*
X156942857Y-65632380D01*
X157085714Y-65680000D01*
X157133333Y-65727619D01*
X158085714Y-66632380D02*
X157514285Y-66632380D01*
X157800000Y-66632380D02*
X157800000Y-65632380D01*
X157704761Y-65775238D01*
X157609523Y-65870476D01*
X157514285Y-65918095D01*
X110833333Y-93257142D02*
X110785714Y-93304761D01*
X110642857Y-93352380D01*
X110547619Y-93352380D01*
X110404761Y-93304761D01*
X110309523Y-93209523D01*
X110261904Y-93114285D01*
X110214285Y-92923809D01*
X110214285Y-92780952D01*
X110261904Y-92590476D01*
X110309523Y-92495238D01*
X110404761Y-92400000D01*
X110547619Y-92352380D01*
X110642857Y-92352380D01*
X110785714Y-92400000D01*
X110833333Y-92447619D01*
X111690476Y-92352380D02*
X111500000Y-92352380D01*
X111404761Y-92400000D01*
X111357142Y-92447619D01*
X111261904Y-92590476D01*
X111214285Y-92780952D01*
X111214285Y-93161904D01*
X111261904Y-93257142D01*
X111309523Y-93304761D01*
X111404761Y-93352380D01*
X111595238Y-93352380D01*
X111690476Y-93304761D01*
X111738095Y-93257142D01*
X111785714Y-93161904D01*
X111785714Y-92923809D01*
X111738095Y-92828571D01*
X111690476Y-92780952D01*
X111595238Y-92733333D01*
X111404761Y-92733333D01*
X111309523Y-92780952D01*
X111261904Y-92828571D01*
X111214285Y-92923809D01*
X110833333Y-73157142D02*
X110785714Y-73204761D01*
X110642857Y-73252380D01*
X110547619Y-73252380D01*
X110404761Y-73204761D01*
X110309523Y-73109523D01*
X110261904Y-73014285D01*
X110214285Y-72823809D01*
X110214285Y-72680952D01*
X110261904Y-72490476D01*
X110309523Y-72395238D01*
X110404761Y-72300000D01*
X110547619Y-72252380D01*
X110642857Y-72252380D01*
X110785714Y-72300000D01*
X110833333Y-72347619D01*
X111738095Y-72252380D02*
X111261904Y-72252380D01*
X111214285Y-72728571D01*
X111261904Y-72680952D01*
X111357142Y-72633333D01*
X111595238Y-72633333D01*
X111690476Y-72680952D01*
X111738095Y-72728571D01*
X111785714Y-72823809D01*
X111785714Y-73061904D01*
X111738095Y-73157142D01*
X111690476Y-73204761D01*
X111595238Y-73252380D01*
X111357142Y-73252380D01*
X111261904Y-73204761D01*
X111214285Y-73157142D01*
X121282380Y-61471904D02*
X122091904Y-61471904D01*
X122187142Y-61424285D01*
X122234761Y-61376666D01*
X122282380Y-61281428D01*
X122282380Y-61090952D01*
X122234761Y-60995714D01*
X122187142Y-60948095D01*
X122091904Y-60900476D01*
X121282380Y-60900476D01*
X121377619Y-60471904D02*
X121330000Y-60424285D01*
X121282380Y-60329047D01*
X121282380Y-60090952D01*
X121330000Y-59995714D01*
X121377619Y-59948095D01*
X121472857Y-59900476D01*
X121568095Y-59900476D01*
X121710952Y-59948095D01*
X122282380Y-60519523D01*
X122282380Y-59900476D01*
X93762380Y-63829047D02*
X93762380Y-63162380D01*
X94762380Y-63590952D01*
X94095714Y-62352857D02*
X94762380Y-62352857D01*
X93714761Y-62590952D02*
X94429047Y-62829047D01*
X94429047Y-62210000D01*
X94762380Y-61352857D02*
X94762380Y-61829047D01*
X93762380Y-61829047D01*
X94714761Y-61067142D02*
X94762380Y-60924285D01*
X94762380Y-60686190D01*
X94714761Y-60590952D01*
X94667142Y-60543333D01*
X94571904Y-60495714D01*
X94476666Y-60495714D01*
X94381428Y-60543333D01*
X94333809Y-60590952D01*
X94286190Y-60686190D01*
X94238571Y-60876666D01*
X94190952Y-60971904D01*
X94143333Y-61019523D01*
X94048095Y-61067142D01*
X93952857Y-61067142D01*
X93857619Y-61019523D01*
X93810000Y-60971904D01*
X93762380Y-60876666D01*
X93762380Y-60638571D01*
X93810000Y-60495714D01*
X93857619Y-60114761D02*
X93810000Y-60067142D01*
X93762380Y-59971904D01*
X93762380Y-59733809D01*
X93810000Y-59638571D01*
X93857619Y-59590952D01*
X93952857Y-59543333D01*
X94048095Y-59543333D01*
X94190952Y-59590952D01*
X94762380Y-60162380D01*
X94762380Y-59543333D01*
X94095714Y-58686190D02*
X94762380Y-58686190D01*
X93714761Y-58924285D02*
X94429047Y-59162380D01*
X94429047Y-58543333D01*
X93762380Y-57686190D02*
X93762380Y-58162380D01*
X94238571Y-58210000D01*
X94190952Y-58162380D01*
X94143333Y-58067142D01*
X94143333Y-57829047D01*
X94190952Y-57733809D01*
X94238571Y-57686190D01*
X94333809Y-57638571D01*
X94571904Y-57638571D01*
X94667142Y-57686190D01*
X94714761Y-57733809D01*
X94762380Y-57829047D01*
X94762380Y-58067142D01*
X94714761Y-58162380D01*
X94667142Y-58210000D01*
X102719047Y-54528571D02*
X102861904Y-54576190D01*
X102909523Y-54623809D01*
X102957142Y-54719047D01*
X102957142Y-54861904D01*
X102909523Y-54957142D01*
X102861904Y-55004761D01*
X102766666Y-55052380D01*
X102385714Y-55052380D01*
X102385714Y-54052380D01*
X102719047Y-54052380D01*
X102814285Y-54100000D01*
X102861904Y-54147619D01*
X102909523Y-54242857D01*
X102909523Y-54338095D01*
X102861904Y-54433333D01*
X102814285Y-54480952D01*
X102719047Y-54528571D01*
X102385714Y-54528571D01*
X103814285Y-54385714D02*
X103814285Y-55052380D01*
X103385714Y-54385714D02*
X103385714Y-54909523D01*
X103433333Y-55004761D01*
X103528571Y-55052380D01*
X103671428Y-55052380D01*
X103766666Y-55004761D01*
X103814285Y-54957142D01*
X104242857Y-55004761D02*
X104338095Y-55052380D01*
X104528571Y-55052380D01*
X104623809Y-55004761D01*
X104671428Y-54909523D01*
X104671428Y-54861904D01*
X104623809Y-54766666D01*
X104528571Y-54719047D01*
X104385714Y-54719047D01*
X104290476Y-54671428D01*
X104242857Y-54576190D01*
X104242857Y-54528571D01*
X104290476Y-54433333D01*
X104385714Y-54385714D01*
X104528571Y-54385714D01*
X104623809Y-54433333D01*
X105719047Y-54052380D02*
X106290476Y-54052380D01*
X106004761Y-55052380D02*
X106004761Y-54052380D01*
X106623809Y-55052380D02*
X106623809Y-54385714D01*
X106623809Y-54576190D02*
X106671428Y-54480952D01*
X106719047Y-54433333D01*
X106814285Y-54385714D01*
X106909523Y-54385714D01*
X107671428Y-55052380D02*
X107671428Y-54528571D01*
X107623809Y-54433333D01*
X107528571Y-54385714D01*
X107338095Y-54385714D01*
X107242857Y-54433333D01*
X107671428Y-55004761D02*
X107576190Y-55052380D01*
X107338095Y-55052380D01*
X107242857Y-55004761D01*
X107195238Y-54909523D01*
X107195238Y-54814285D01*
X107242857Y-54719047D01*
X107338095Y-54671428D01*
X107576190Y-54671428D01*
X107671428Y-54623809D01*
X108147619Y-54385714D02*
X108147619Y-55052380D01*
X108147619Y-54480952D02*
X108195238Y-54433333D01*
X108290476Y-54385714D01*
X108433333Y-54385714D01*
X108528571Y-54433333D01*
X108576190Y-54528571D01*
X108576190Y-55052380D01*
X109004761Y-55004761D02*
X109100000Y-55052380D01*
X109290476Y-55052380D01*
X109385714Y-55004761D01*
X109433333Y-54909523D01*
X109433333Y-54861904D01*
X109385714Y-54766666D01*
X109290476Y-54719047D01*
X109147619Y-54719047D01*
X109052380Y-54671428D01*
X109004761Y-54576190D01*
X109004761Y-54528571D01*
X109052380Y-54433333D01*
X109147619Y-54385714D01*
X109290476Y-54385714D01*
X109385714Y-54433333D01*
X110290476Y-55004761D02*
X110195238Y-55052380D01*
X110004761Y-55052380D01*
X109909523Y-55004761D01*
X109861904Y-54957142D01*
X109814285Y-54861904D01*
X109814285Y-54576190D01*
X109861904Y-54480952D01*
X109909523Y-54433333D01*
X110004761Y-54385714D01*
X110195238Y-54385714D01*
X110290476Y-54433333D01*
X111100000Y-55004761D02*
X111004761Y-55052380D01*
X110814285Y-55052380D01*
X110719047Y-55004761D01*
X110671428Y-54909523D01*
X110671428Y-54528571D01*
X110719047Y-54433333D01*
X110814285Y-54385714D01*
X111004761Y-54385714D01*
X111100000Y-54433333D01*
X111147619Y-54528571D01*
X111147619Y-54623809D01*
X110671428Y-54719047D01*
X111576190Y-55052380D02*
X111576190Y-54385714D01*
X111576190Y-54052380D02*
X111528571Y-54100000D01*
X111576190Y-54147619D01*
X111623809Y-54100000D01*
X111576190Y-54052380D01*
X111576190Y-54147619D01*
X111957142Y-54385714D02*
X112195238Y-55052380D01*
X112433333Y-54385714D01*
X113195238Y-55004761D02*
X113100000Y-55052380D01*
X112909523Y-55052380D01*
X112814285Y-55004761D01*
X112766666Y-54909523D01*
X112766666Y-54528571D01*
X112814285Y-54433333D01*
X112909523Y-54385714D01*
X113100000Y-54385714D01*
X113195238Y-54433333D01*
X113242857Y-54528571D01*
X113242857Y-54623809D01*
X112766666Y-54719047D01*
X113671428Y-55052380D02*
X113671428Y-54385714D01*
X113671428Y-54576190D02*
X113719047Y-54480952D01*
X113766666Y-54433333D01*
X113861904Y-54385714D01*
X113957142Y-54385714D01*
X155282380Y-61471904D02*
X156091904Y-61471904D01*
X156187142Y-61424285D01*
X156234761Y-61376666D01*
X156282380Y-61281428D01*
X156282380Y-61090952D01*
X156234761Y-60995714D01*
X156187142Y-60948095D01*
X156091904Y-60900476D01*
X155282380Y-60900476D01*
X156282380Y-59900476D02*
X156282380Y-60471904D01*
X156282380Y-60186190D02*
X155282380Y-60186190D01*
X155425238Y-60281428D01*
X155520476Y-60376666D01*
X155568095Y-60471904D01*
X127762380Y-63829047D02*
X127762380Y-63162380D01*
X128762380Y-63590952D01*
X128095714Y-62352857D02*
X128762380Y-62352857D01*
X127714761Y-62590952D02*
X128429047Y-62829047D01*
X128429047Y-62210000D01*
X128762380Y-61352857D02*
X128762380Y-61829047D01*
X127762380Y-61829047D01*
X128714761Y-61067142D02*
X128762380Y-60924285D01*
X128762380Y-60686190D01*
X128714761Y-60590952D01*
X128667142Y-60543333D01*
X128571904Y-60495714D01*
X128476666Y-60495714D01*
X128381428Y-60543333D01*
X128333809Y-60590952D01*
X128286190Y-60686190D01*
X128238571Y-60876666D01*
X128190952Y-60971904D01*
X128143333Y-61019523D01*
X128048095Y-61067142D01*
X127952857Y-61067142D01*
X127857619Y-61019523D01*
X127810000Y-60971904D01*
X127762380Y-60876666D01*
X127762380Y-60638571D01*
X127810000Y-60495714D01*
X127762380Y-60162380D02*
X127762380Y-59543333D01*
X128143333Y-59876666D01*
X128143333Y-59733809D01*
X128190952Y-59638571D01*
X128238571Y-59590952D01*
X128333809Y-59543333D01*
X128571904Y-59543333D01*
X128667142Y-59590952D01*
X128714761Y-59638571D01*
X128762380Y-59733809D01*
X128762380Y-60019523D01*
X128714761Y-60114761D01*
X128667142Y-60162380D01*
X127762380Y-59210000D02*
X127762380Y-58543333D01*
X128762380Y-58971904D01*
X127762380Y-58257619D02*
X127762380Y-57590952D01*
X128762380Y-58019523D01*
X139961904Y-55052380D02*
X139628571Y-54576190D01*
X139390476Y-55052380D02*
X139390476Y-54052380D01*
X139771428Y-54052380D01*
X139866666Y-54100000D01*
X139914285Y-54147619D01*
X139961904Y-54242857D01*
X139961904Y-54385714D01*
X139914285Y-54480952D01*
X139866666Y-54528571D01*
X139771428Y-54576190D01*
X139390476Y-54576190D01*
X140771428Y-55004761D02*
X140676190Y-55052380D01*
X140485714Y-55052380D01*
X140390476Y-55004761D01*
X140342857Y-54909523D01*
X140342857Y-54528571D01*
X140390476Y-54433333D01*
X140485714Y-54385714D01*
X140676190Y-54385714D01*
X140771428Y-54433333D01*
X140819047Y-54528571D01*
X140819047Y-54623809D01*
X140342857Y-54719047D01*
X141676190Y-54385714D02*
X141676190Y-55195238D01*
X141628571Y-55290476D01*
X141580952Y-55338095D01*
X141485714Y-55385714D01*
X141342857Y-55385714D01*
X141247619Y-55338095D01*
X141676190Y-55004761D02*
X141580952Y-55052380D01*
X141390476Y-55052380D01*
X141295238Y-55004761D01*
X141247619Y-54957142D01*
X141200000Y-54861904D01*
X141200000Y-54576190D01*
X141247619Y-54480952D01*
X141295238Y-54433333D01*
X141390476Y-54385714D01*
X141580952Y-54385714D01*
X141676190Y-54433333D01*
X142152380Y-55052380D02*
X142152380Y-54385714D01*
X142152380Y-54052380D02*
X142104761Y-54100000D01*
X142152380Y-54147619D01*
X142200000Y-54100000D01*
X142152380Y-54052380D01*
X142152380Y-54147619D01*
X142580952Y-55004761D02*
X142676190Y-55052380D01*
X142866666Y-55052380D01*
X142961904Y-55004761D01*
X143009523Y-54909523D01*
X143009523Y-54861904D01*
X142961904Y-54766666D01*
X142866666Y-54719047D01*
X142723809Y-54719047D01*
X142628571Y-54671428D01*
X142580952Y-54576190D01*
X142580952Y-54528571D01*
X142628571Y-54433333D01*
X142723809Y-54385714D01*
X142866666Y-54385714D01*
X142961904Y-54433333D01*
X143295238Y-54385714D02*
X143676190Y-54385714D01*
X143438095Y-54052380D02*
X143438095Y-54909523D01*
X143485714Y-55004761D01*
X143580952Y-55052380D01*
X143676190Y-55052380D01*
X144390476Y-55004761D02*
X144295238Y-55052380D01*
X144104761Y-55052380D01*
X144009523Y-55004761D01*
X143961904Y-54909523D01*
X143961904Y-54528571D01*
X144009523Y-54433333D01*
X144104761Y-54385714D01*
X144295238Y-54385714D01*
X144390476Y-54433333D01*
X144438095Y-54528571D01*
X144438095Y-54623809D01*
X143961904Y-54719047D01*
X144866666Y-55052380D02*
X144866666Y-54385714D01*
X144866666Y-54576190D02*
X144914285Y-54480952D01*
X144961904Y-54433333D01*
X145057142Y-54385714D01*
X145152380Y-54385714D01*
X121282380Y-120871904D02*
X122091904Y-120871904D01*
X122187142Y-120824285D01*
X122234761Y-120776666D01*
X122282380Y-120681428D01*
X122282380Y-120490952D01*
X122234761Y-120395714D01*
X122187142Y-120348095D01*
X122091904Y-120300476D01*
X121282380Y-120300476D01*
X121615714Y-119395714D02*
X122282380Y-119395714D01*
X121234761Y-119633809D02*
X121949047Y-119871904D01*
X121949047Y-119252857D01*
X93762380Y-123229047D02*
X93762380Y-122562380D01*
X94762380Y-122990952D01*
X94095714Y-121752857D02*
X94762380Y-121752857D01*
X93714761Y-121990952D02*
X94429047Y-122229047D01*
X94429047Y-121610000D01*
X94762380Y-120752857D02*
X94762380Y-121229047D01*
X93762380Y-121229047D01*
X94714761Y-120467142D02*
X94762380Y-120324285D01*
X94762380Y-120086190D01*
X94714761Y-119990952D01*
X94667142Y-119943333D01*
X94571904Y-119895714D01*
X94476666Y-119895714D01*
X94381428Y-119943333D01*
X94333809Y-119990952D01*
X94286190Y-120086190D01*
X94238571Y-120276666D01*
X94190952Y-120371904D01*
X94143333Y-120419523D01*
X94048095Y-120467142D01*
X93952857Y-120467142D01*
X93857619Y-120419523D01*
X93810000Y-120371904D01*
X93762380Y-120276666D01*
X93762380Y-120038571D01*
X93810000Y-119895714D01*
X93857619Y-119514761D02*
X93810000Y-119467142D01*
X93762380Y-119371904D01*
X93762380Y-119133809D01*
X93810000Y-119038571D01*
X93857619Y-118990952D01*
X93952857Y-118943333D01*
X94048095Y-118943333D01*
X94190952Y-118990952D01*
X94762380Y-119562380D01*
X94762380Y-118943333D01*
X94095714Y-118086190D02*
X94762380Y-118086190D01*
X93714761Y-118324285D02*
X94429047Y-118562380D01*
X94429047Y-117943333D01*
X93762380Y-117086190D02*
X93762380Y-117562380D01*
X94238571Y-117610000D01*
X94190952Y-117562380D01*
X94143333Y-117467142D01*
X94143333Y-117229047D01*
X94190952Y-117133809D01*
X94238571Y-117086190D01*
X94333809Y-117038571D01*
X94571904Y-117038571D01*
X94667142Y-117086190D01*
X94714761Y-117133809D01*
X94762380Y-117229047D01*
X94762380Y-117467142D01*
X94714761Y-117562380D01*
X94667142Y-117610000D01*
X102819047Y-113928571D02*
X102961904Y-113976190D01*
X103009523Y-114023809D01*
X103057142Y-114119047D01*
X103057142Y-114261904D01*
X103009523Y-114357142D01*
X102961904Y-114404761D01*
X102866666Y-114452380D01*
X102485714Y-114452380D01*
X102485714Y-113452380D01*
X102819047Y-113452380D01*
X102914285Y-113500000D01*
X102961904Y-113547619D01*
X103009523Y-113642857D01*
X103009523Y-113738095D01*
X102961904Y-113833333D01*
X102914285Y-113880952D01*
X102819047Y-113928571D01*
X102485714Y-113928571D01*
X103914285Y-113785714D02*
X103914285Y-114452380D01*
X103485714Y-113785714D02*
X103485714Y-114309523D01*
X103533333Y-114404761D01*
X103628571Y-114452380D01*
X103771428Y-114452380D01*
X103866666Y-114404761D01*
X103914285Y-114357142D01*
X104342857Y-114404761D02*
X104438095Y-114452380D01*
X104628571Y-114452380D01*
X104723809Y-114404761D01*
X104771428Y-114309523D01*
X104771428Y-114261904D01*
X104723809Y-114166666D01*
X104628571Y-114119047D01*
X104485714Y-114119047D01*
X104390476Y-114071428D01*
X104342857Y-113976190D01*
X104342857Y-113928571D01*
X104390476Y-113833333D01*
X104485714Y-113785714D01*
X104628571Y-113785714D01*
X104723809Y-113833333D01*
X105819047Y-113452380D02*
X106390476Y-113452380D01*
X106104761Y-114452380D02*
X106104761Y-113452380D01*
X106723809Y-114452380D02*
X106723809Y-113785714D01*
X106723809Y-113976190D02*
X106771428Y-113880952D01*
X106819047Y-113833333D01*
X106914285Y-113785714D01*
X107009523Y-113785714D01*
X107771428Y-114452380D02*
X107771428Y-113928571D01*
X107723809Y-113833333D01*
X107628571Y-113785714D01*
X107438095Y-113785714D01*
X107342857Y-113833333D01*
X107771428Y-114404761D02*
X107676190Y-114452380D01*
X107438095Y-114452380D01*
X107342857Y-114404761D01*
X107295238Y-114309523D01*
X107295238Y-114214285D01*
X107342857Y-114119047D01*
X107438095Y-114071428D01*
X107676190Y-114071428D01*
X107771428Y-114023809D01*
X108247619Y-113785714D02*
X108247619Y-114452380D01*
X108247619Y-113880952D02*
X108295238Y-113833333D01*
X108390476Y-113785714D01*
X108533333Y-113785714D01*
X108628571Y-113833333D01*
X108676190Y-113928571D01*
X108676190Y-114452380D01*
X109104761Y-114404761D02*
X109200000Y-114452380D01*
X109390476Y-114452380D01*
X109485714Y-114404761D01*
X109533333Y-114309523D01*
X109533333Y-114261904D01*
X109485714Y-114166666D01*
X109390476Y-114119047D01*
X109247619Y-114119047D01*
X109152380Y-114071428D01*
X109104761Y-113976190D01*
X109104761Y-113928571D01*
X109152380Y-113833333D01*
X109247619Y-113785714D01*
X109390476Y-113785714D01*
X109485714Y-113833333D01*
X110390476Y-114404761D02*
X110295238Y-114452380D01*
X110104761Y-114452380D01*
X110009523Y-114404761D01*
X109961904Y-114357142D01*
X109914285Y-114261904D01*
X109914285Y-113976190D01*
X109961904Y-113880952D01*
X110009523Y-113833333D01*
X110104761Y-113785714D01*
X110295238Y-113785714D01*
X110390476Y-113833333D01*
X111200000Y-114404761D02*
X111104761Y-114452380D01*
X110914285Y-114452380D01*
X110819047Y-114404761D01*
X110771428Y-114309523D01*
X110771428Y-113928571D01*
X110819047Y-113833333D01*
X110914285Y-113785714D01*
X111104761Y-113785714D01*
X111200000Y-113833333D01*
X111247619Y-113928571D01*
X111247619Y-114023809D01*
X110771428Y-114119047D01*
X111676190Y-114452380D02*
X111676190Y-113785714D01*
X111676190Y-113452380D02*
X111628571Y-113500000D01*
X111676190Y-113547619D01*
X111723809Y-113500000D01*
X111676190Y-113452380D01*
X111676190Y-113547619D01*
X112057142Y-113785714D02*
X112295238Y-114452380D01*
X112533333Y-113785714D01*
X113295238Y-114404761D02*
X113200000Y-114452380D01*
X113009523Y-114452380D01*
X112914285Y-114404761D01*
X112866666Y-114309523D01*
X112866666Y-113928571D01*
X112914285Y-113833333D01*
X113009523Y-113785714D01*
X113200000Y-113785714D01*
X113295238Y-113833333D01*
X113342857Y-113928571D01*
X113342857Y-114023809D01*
X112866666Y-114119047D01*
X113771428Y-114452380D02*
X113771428Y-113785714D01*
X113771428Y-113976190D02*
X113819047Y-113880952D01*
X113866666Y-113833333D01*
X113961904Y-113785714D01*
X114057142Y-113785714D01*
X155282380Y-120871904D02*
X156091904Y-120871904D01*
X156187142Y-120824285D01*
X156234761Y-120776666D01*
X156282380Y-120681428D01*
X156282380Y-120490952D01*
X156234761Y-120395714D01*
X156187142Y-120348095D01*
X156091904Y-120300476D01*
X155282380Y-120300476D01*
X155282380Y-119919523D02*
X155282380Y-119300476D01*
X155663333Y-119633809D01*
X155663333Y-119490952D01*
X155710952Y-119395714D01*
X155758571Y-119348095D01*
X155853809Y-119300476D01*
X156091904Y-119300476D01*
X156187142Y-119348095D01*
X156234761Y-119395714D01*
X156282380Y-119490952D01*
X156282380Y-119776666D01*
X156234761Y-119871904D01*
X156187142Y-119919523D01*
X127762380Y-123229047D02*
X127762380Y-122562380D01*
X128762380Y-122990952D01*
X128095714Y-121752857D02*
X128762380Y-121752857D01*
X127714761Y-121990952D02*
X128429047Y-122229047D01*
X128429047Y-121610000D01*
X128762380Y-120752857D02*
X128762380Y-121229047D01*
X127762380Y-121229047D01*
X128714761Y-120467142D02*
X128762380Y-120324285D01*
X128762380Y-120086190D01*
X128714761Y-119990952D01*
X128667142Y-119943333D01*
X128571904Y-119895714D01*
X128476666Y-119895714D01*
X128381428Y-119943333D01*
X128333809Y-119990952D01*
X128286190Y-120086190D01*
X128238571Y-120276666D01*
X128190952Y-120371904D01*
X128143333Y-120419523D01*
X128048095Y-120467142D01*
X127952857Y-120467142D01*
X127857619Y-120419523D01*
X127810000Y-120371904D01*
X127762380Y-120276666D01*
X127762380Y-120038571D01*
X127810000Y-119895714D01*
X127762380Y-119562380D02*
X127762380Y-118943333D01*
X128143333Y-119276666D01*
X128143333Y-119133809D01*
X128190952Y-119038571D01*
X128238571Y-118990952D01*
X128333809Y-118943333D01*
X128571904Y-118943333D01*
X128667142Y-118990952D01*
X128714761Y-119038571D01*
X128762380Y-119133809D01*
X128762380Y-119419523D01*
X128714761Y-119514761D01*
X128667142Y-119562380D01*
X127762380Y-118610000D02*
X127762380Y-117943333D01*
X128762380Y-118371904D01*
X127762380Y-117657619D02*
X127762380Y-116990952D01*
X128762380Y-117419523D01*
X139861904Y-114452380D02*
X139528571Y-113976190D01*
X139290476Y-114452380D02*
X139290476Y-113452380D01*
X139671428Y-113452380D01*
X139766666Y-113500000D01*
X139814285Y-113547619D01*
X139861904Y-113642857D01*
X139861904Y-113785714D01*
X139814285Y-113880952D01*
X139766666Y-113928571D01*
X139671428Y-113976190D01*
X139290476Y-113976190D01*
X140671428Y-114404761D02*
X140576190Y-114452380D01*
X140385714Y-114452380D01*
X140290476Y-114404761D01*
X140242857Y-114309523D01*
X140242857Y-113928571D01*
X140290476Y-113833333D01*
X140385714Y-113785714D01*
X140576190Y-113785714D01*
X140671428Y-113833333D01*
X140719047Y-113928571D01*
X140719047Y-114023809D01*
X140242857Y-114119047D01*
X141576190Y-113785714D02*
X141576190Y-114595238D01*
X141528571Y-114690476D01*
X141480952Y-114738095D01*
X141385714Y-114785714D01*
X141242857Y-114785714D01*
X141147619Y-114738095D01*
X141576190Y-114404761D02*
X141480952Y-114452380D01*
X141290476Y-114452380D01*
X141195238Y-114404761D01*
X141147619Y-114357142D01*
X141100000Y-114261904D01*
X141100000Y-113976190D01*
X141147619Y-113880952D01*
X141195238Y-113833333D01*
X141290476Y-113785714D01*
X141480952Y-113785714D01*
X141576190Y-113833333D01*
X142052380Y-114452380D02*
X142052380Y-113785714D01*
X142052380Y-113452380D02*
X142004761Y-113500000D01*
X142052380Y-113547619D01*
X142100000Y-113500000D01*
X142052380Y-113452380D01*
X142052380Y-113547619D01*
X142480952Y-114404761D02*
X142576190Y-114452380D01*
X142766666Y-114452380D01*
X142861904Y-114404761D01*
X142909523Y-114309523D01*
X142909523Y-114261904D01*
X142861904Y-114166666D01*
X142766666Y-114119047D01*
X142623809Y-114119047D01*
X142528571Y-114071428D01*
X142480952Y-113976190D01*
X142480952Y-113928571D01*
X142528571Y-113833333D01*
X142623809Y-113785714D01*
X142766666Y-113785714D01*
X142861904Y-113833333D01*
X143195238Y-113785714D02*
X143576190Y-113785714D01*
X143338095Y-113452380D02*
X143338095Y-114309523D01*
X143385714Y-114404761D01*
X143480952Y-114452380D01*
X143576190Y-114452380D01*
X144290476Y-114404761D02*
X144195238Y-114452380D01*
X144004761Y-114452380D01*
X143909523Y-114404761D01*
X143861904Y-114309523D01*
X143861904Y-113928571D01*
X143909523Y-113833333D01*
X144004761Y-113785714D01*
X144195238Y-113785714D01*
X144290476Y-113833333D01*
X144338095Y-113928571D01*
X144338095Y-114023809D01*
X143861904Y-114119047D01*
X144766666Y-114452380D02*
X144766666Y-113785714D01*
X144766666Y-113976190D02*
X144814285Y-113880952D01*
X144861904Y-113833333D01*
X144957142Y-113785714D01*
X145052380Y-113785714D01*
X102438095Y-94452380D02*
X102438095Y-95261904D01*
X102485714Y-95357142D01*
X102533333Y-95404761D01*
X102628571Y-95452380D01*
X102819047Y-95452380D01*
X102914285Y-95404761D01*
X102961904Y-95357142D01*
X103009523Y-95261904D01*
X103009523Y-94452380D01*
X103914285Y-94452380D02*
X103723809Y-94452380D01*
X103628571Y-94500000D01*
X103580952Y-94547619D01*
X103485714Y-94690476D01*
X103438095Y-94880952D01*
X103438095Y-95261904D01*
X103485714Y-95357142D01*
X103533333Y-95404761D01*
X103628571Y-95452380D01*
X103819047Y-95452380D01*
X103914285Y-95404761D01*
X103961904Y-95357142D01*
X104009523Y-95261904D01*
X104009523Y-95023809D01*
X103961904Y-94928571D01*
X103914285Y-94880952D01*
X103819047Y-94833333D01*
X103628571Y-94833333D01*
X103533333Y-94880952D01*
X103485714Y-94928571D01*
X103438095Y-95023809D01*
X100080952Y-106852380D02*
X100747619Y-106852380D01*
X100319047Y-107852380D01*
X101557142Y-107185714D02*
X101557142Y-107852380D01*
X101319047Y-106804761D02*
X101080952Y-107519047D01*
X101700000Y-107519047D01*
X102557142Y-107852380D02*
X102080952Y-107852380D01*
X102080952Y-106852380D01*
X102842857Y-107804761D02*
X102985714Y-107852380D01*
X103223809Y-107852380D01*
X103319047Y-107804761D01*
X103366666Y-107757142D01*
X103414285Y-107661904D01*
X103414285Y-107566666D01*
X103366666Y-107471428D01*
X103319047Y-107423809D01*
X103223809Y-107376190D01*
X103033333Y-107328571D01*
X102938095Y-107280952D01*
X102890476Y-107233333D01*
X102842857Y-107138095D01*
X102842857Y-107042857D01*
X102890476Y-106947619D01*
X102938095Y-106900000D01*
X103033333Y-106852380D01*
X103271428Y-106852380D01*
X103414285Y-106900000D01*
X104366666Y-107852380D02*
X103795238Y-107852380D01*
X104080952Y-107852380D02*
X104080952Y-106852380D01*
X103985714Y-106995238D01*
X103890476Y-107090476D01*
X103795238Y-107138095D01*
X104700000Y-106852380D02*
X105319047Y-106852380D01*
X104985714Y-107233333D01*
X105128571Y-107233333D01*
X105223809Y-107280952D01*
X105271428Y-107328571D01*
X105319047Y-107423809D01*
X105319047Y-107661904D01*
X105271428Y-107757142D01*
X105223809Y-107804761D01*
X105128571Y-107852380D01*
X104842857Y-107852380D01*
X104747619Y-107804761D01*
X104700000Y-107757142D01*
X105890476Y-107280952D02*
X105795238Y-107233333D01*
X105747619Y-107185714D01*
X105700000Y-107090476D01*
X105700000Y-107042857D01*
X105747619Y-106947619D01*
X105795238Y-106900000D01*
X105890476Y-106852380D01*
X106080952Y-106852380D01*
X106176190Y-106900000D01*
X106223809Y-106947619D01*
X106271428Y-107042857D01*
X106271428Y-107090476D01*
X106223809Y-107185714D01*
X106176190Y-107233333D01*
X106080952Y-107280952D01*
X105890476Y-107280952D01*
X105795238Y-107328571D01*
X105747619Y-107376190D01*
X105700000Y-107471428D01*
X105700000Y-107661904D01*
X105747619Y-107757142D01*
X105795238Y-107804761D01*
X105890476Y-107852380D01*
X106080952Y-107852380D01*
X106176190Y-107804761D01*
X106223809Y-107757142D01*
X106271428Y-107661904D01*
X106271428Y-107471428D01*
X106223809Y-107376190D01*
X106176190Y-107328571D01*
X106080952Y-107280952D01*
X97033333Y-108152380D02*
X97652380Y-108152380D01*
X97319047Y-108533333D01*
X97461904Y-108533333D01*
X97557142Y-108580952D01*
X97604761Y-108628571D01*
X97652380Y-108723809D01*
X97652380Y-108961904D01*
X97604761Y-109057142D01*
X97557142Y-109104761D01*
X97461904Y-109152380D01*
X97176190Y-109152380D01*
X97080952Y-109104761D01*
X97033333Y-109057142D01*
X98080952Y-108771428D02*
X98842857Y-108771428D01*
X99176190Y-108485714D02*
X99557142Y-108485714D01*
X99319047Y-108152380D02*
X99319047Y-109009523D01*
X99366666Y-109104761D01*
X99461904Y-109152380D01*
X99557142Y-109152380D01*
X100033333Y-109152380D02*
X99938095Y-109104761D01*
X99890476Y-109057142D01*
X99842857Y-108961904D01*
X99842857Y-108676190D01*
X99890476Y-108580952D01*
X99938095Y-108533333D01*
X100033333Y-108485714D01*
X100176190Y-108485714D01*
X100271428Y-108533333D01*
X100319047Y-108580952D01*
X100366666Y-108676190D01*
X100366666Y-108961904D01*
X100319047Y-109057142D01*
X100271428Y-109104761D01*
X100176190Y-109152380D01*
X100033333Y-109152380D01*
X100795238Y-108771428D02*
X101557142Y-108771428D01*
X102176190Y-108580952D02*
X102080952Y-108533333D01*
X102033333Y-108485714D01*
X101985714Y-108390476D01*
X101985714Y-108342857D01*
X102033333Y-108247619D01*
X102080952Y-108200000D01*
X102176190Y-108152380D01*
X102366666Y-108152380D01*
X102461904Y-108200000D01*
X102509523Y-108247619D01*
X102557142Y-108342857D01*
X102557142Y-108390476D01*
X102509523Y-108485714D01*
X102461904Y-108533333D01*
X102366666Y-108580952D01*
X102176190Y-108580952D01*
X102080952Y-108628571D01*
X102033333Y-108676190D01*
X101985714Y-108771428D01*
X101985714Y-108961904D01*
X102033333Y-109057142D01*
X102080952Y-109104761D01*
X102176190Y-109152380D01*
X102366666Y-109152380D01*
X102461904Y-109104761D01*
X102509523Y-109057142D01*
X102557142Y-108961904D01*
X102557142Y-108771428D01*
X102509523Y-108676190D01*
X102461904Y-108628571D01*
X102366666Y-108580952D01*
X103747619Y-109152380D02*
X103747619Y-108152380D01*
X103985714Y-108152380D01*
X104128571Y-108200000D01*
X104223809Y-108295238D01*
X104271428Y-108390476D01*
X104319047Y-108580952D01*
X104319047Y-108723809D01*
X104271428Y-108914285D01*
X104223809Y-109009523D01*
X104128571Y-109104761D01*
X103985714Y-109152380D01*
X103747619Y-109152380D01*
X105128571Y-109104761D02*
X105033333Y-109152380D01*
X104842857Y-109152380D01*
X104747619Y-109104761D01*
X104700000Y-109009523D01*
X104700000Y-108628571D01*
X104747619Y-108533333D01*
X104842857Y-108485714D01*
X105033333Y-108485714D01*
X105128571Y-108533333D01*
X105176190Y-108628571D01*
X105176190Y-108723809D01*
X104700000Y-108819047D01*
X106033333Y-109104761D02*
X105938095Y-109152380D01*
X105747619Y-109152380D01*
X105652380Y-109104761D01*
X105604761Y-109057142D01*
X105557142Y-108961904D01*
X105557142Y-108676190D01*
X105604761Y-108580952D01*
X105652380Y-108533333D01*
X105747619Y-108485714D01*
X105938095Y-108485714D01*
X106033333Y-108533333D01*
X106604761Y-109152380D02*
X106509523Y-109104761D01*
X106461904Y-109057142D01*
X106414285Y-108961904D01*
X106414285Y-108676190D01*
X106461904Y-108580952D01*
X106509523Y-108533333D01*
X106604761Y-108485714D01*
X106747619Y-108485714D01*
X106842857Y-108533333D01*
X106890476Y-108580952D01*
X106938095Y-108676190D01*
X106938095Y-108961904D01*
X106890476Y-109057142D01*
X106842857Y-109104761D01*
X106747619Y-109152380D01*
X106604761Y-109152380D01*
X107795238Y-109152380D02*
X107795238Y-108152380D01*
X107795238Y-109104761D02*
X107700000Y-109152380D01*
X107509523Y-109152380D01*
X107414285Y-109104761D01*
X107366666Y-109057142D01*
X107319047Y-108961904D01*
X107319047Y-108676190D01*
X107366666Y-108580952D01*
X107414285Y-108533333D01*
X107509523Y-108485714D01*
X107700000Y-108485714D01*
X107795238Y-108533333D01*
X108652380Y-109104761D02*
X108557142Y-109152380D01*
X108366666Y-109152380D01*
X108271428Y-109104761D01*
X108223809Y-109009523D01*
X108223809Y-108628571D01*
X108271428Y-108533333D01*
X108366666Y-108485714D01*
X108557142Y-108485714D01*
X108652380Y-108533333D01*
X108700000Y-108628571D01*
X108700000Y-108723809D01*
X108223809Y-108819047D01*
X109128571Y-109152380D02*
X109128571Y-108485714D01*
X109128571Y-108676190D02*
X109176190Y-108580952D01*
X109223809Y-108533333D01*
X109319047Y-108485714D01*
X109414285Y-108485714D01*
X102438095Y-74252380D02*
X102438095Y-75061904D01*
X102485714Y-75157142D01*
X102533333Y-75204761D01*
X102628571Y-75252380D01*
X102819047Y-75252380D01*
X102914285Y-75204761D01*
X102961904Y-75157142D01*
X103009523Y-75061904D01*
X103009523Y-74252380D01*
X103961904Y-74252380D02*
X103485714Y-74252380D01*
X103438095Y-74728571D01*
X103485714Y-74680952D01*
X103580952Y-74633333D01*
X103819047Y-74633333D01*
X103914285Y-74680952D01*
X103961904Y-74728571D01*
X104009523Y-74823809D01*
X104009523Y-75061904D01*
X103961904Y-75157142D01*
X103914285Y-75204761D01*
X103819047Y-75252380D01*
X103580952Y-75252380D01*
X103485714Y-75204761D01*
X103438095Y-75157142D01*
X100080952Y-86552380D02*
X100747619Y-86552380D01*
X100319047Y-87552380D01*
X101557142Y-86885714D02*
X101557142Y-87552380D01*
X101319047Y-86504761D02*
X101080952Y-87219047D01*
X101700000Y-87219047D01*
X102557142Y-87552380D02*
X102080952Y-87552380D01*
X102080952Y-86552380D01*
X102842857Y-87504761D02*
X102985714Y-87552380D01*
X103223809Y-87552380D01*
X103319047Y-87504761D01*
X103366666Y-87457142D01*
X103414285Y-87361904D01*
X103414285Y-87266666D01*
X103366666Y-87171428D01*
X103319047Y-87123809D01*
X103223809Y-87076190D01*
X103033333Y-87028571D01*
X102938095Y-86980952D01*
X102890476Y-86933333D01*
X102842857Y-86838095D01*
X102842857Y-86742857D01*
X102890476Y-86647619D01*
X102938095Y-86600000D01*
X103033333Y-86552380D01*
X103271428Y-86552380D01*
X103414285Y-86600000D01*
X104366666Y-87552380D02*
X103795238Y-87552380D01*
X104080952Y-87552380D02*
X104080952Y-86552380D01*
X103985714Y-86695238D01*
X103890476Y-86790476D01*
X103795238Y-86838095D01*
X104700000Y-86552380D02*
X105319047Y-86552380D01*
X104985714Y-86933333D01*
X105128571Y-86933333D01*
X105223809Y-86980952D01*
X105271428Y-87028571D01*
X105319047Y-87123809D01*
X105319047Y-87361904D01*
X105271428Y-87457142D01*
X105223809Y-87504761D01*
X105128571Y-87552380D01*
X104842857Y-87552380D01*
X104747619Y-87504761D01*
X104700000Y-87457142D01*
X105890476Y-86980952D02*
X105795238Y-86933333D01*
X105747619Y-86885714D01*
X105700000Y-86790476D01*
X105700000Y-86742857D01*
X105747619Y-86647619D01*
X105795238Y-86600000D01*
X105890476Y-86552380D01*
X106080952Y-86552380D01*
X106176190Y-86600000D01*
X106223809Y-86647619D01*
X106271428Y-86742857D01*
X106271428Y-86790476D01*
X106223809Y-86885714D01*
X106176190Y-86933333D01*
X106080952Y-86980952D01*
X105890476Y-86980952D01*
X105795238Y-87028571D01*
X105747619Y-87076190D01*
X105700000Y-87171428D01*
X105700000Y-87361904D01*
X105747619Y-87457142D01*
X105795238Y-87504761D01*
X105890476Y-87552380D01*
X106080952Y-87552380D01*
X106176190Y-87504761D01*
X106223809Y-87457142D01*
X106271428Y-87361904D01*
X106271428Y-87171428D01*
X106223809Y-87076190D01*
X106176190Y-87028571D01*
X106080952Y-86980952D01*
X97033333Y-87952380D02*
X97652380Y-87952380D01*
X97319047Y-88333333D01*
X97461904Y-88333333D01*
X97557142Y-88380952D01*
X97604761Y-88428571D01*
X97652380Y-88523809D01*
X97652380Y-88761904D01*
X97604761Y-88857142D01*
X97557142Y-88904761D01*
X97461904Y-88952380D01*
X97176190Y-88952380D01*
X97080952Y-88904761D01*
X97033333Y-88857142D01*
X98080952Y-88571428D02*
X98842857Y-88571428D01*
X99176190Y-88285714D02*
X99557142Y-88285714D01*
X99319047Y-87952380D02*
X99319047Y-88809523D01*
X99366666Y-88904761D01*
X99461904Y-88952380D01*
X99557142Y-88952380D01*
X100033333Y-88952380D02*
X99938095Y-88904761D01*
X99890476Y-88857142D01*
X99842857Y-88761904D01*
X99842857Y-88476190D01*
X99890476Y-88380952D01*
X99938095Y-88333333D01*
X100033333Y-88285714D01*
X100176190Y-88285714D01*
X100271428Y-88333333D01*
X100319047Y-88380952D01*
X100366666Y-88476190D01*
X100366666Y-88761904D01*
X100319047Y-88857142D01*
X100271428Y-88904761D01*
X100176190Y-88952380D01*
X100033333Y-88952380D01*
X100795238Y-88571428D02*
X101557142Y-88571428D01*
X102176190Y-88380952D02*
X102080952Y-88333333D01*
X102033333Y-88285714D01*
X101985714Y-88190476D01*
X101985714Y-88142857D01*
X102033333Y-88047619D01*
X102080952Y-88000000D01*
X102176190Y-87952380D01*
X102366666Y-87952380D01*
X102461904Y-88000000D01*
X102509523Y-88047619D01*
X102557142Y-88142857D01*
X102557142Y-88190476D01*
X102509523Y-88285714D01*
X102461904Y-88333333D01*
X102366666Y-88380952D01*
X102176190Y-88380952D01*
X102080952Y-88428571D01*
X102033333Y-88476190D01*
X101985714Y-88571428D01*
X101985714Y-88761904D01*
X102033333Y-88857142D01*
X102080952Y-88904761D01*
X102176190Y-88952380D01*
X102366666Y-88952380D01*
X102461904Y-88904761D01*
X102509523Y-88857142D01*
X102557142Y-88761904D01*
X102557142Y-88571428D01*
X102509523Y-88476190D01*
X102461904Y-88428571D01*
X102366666Y-88380952D01*
X103747619Y-88952380D02*
X103747619Y-87952380D01*
X103985714Y-87952380D01*
X104128571Y-88000000D01*
X104223809Y-88095238D01*
X104271428Y-88190476D01*
X104319047Y-88380952D01*
X104319047Y-88523809D01*
X104271428Y-88714285D01*
X104223809Y-88809523D01*
X104128571Y-88904761D01*
X103985714Y-88952380D01*
X103747619Y-88952380D01*
X105128571Y-88904761D02*
X105033333Y-88952380D01*
X104842857Y-88952380D01*
X104747619Y-88904761D01*
X104700000Y-88809523D01*
X104700000Y-88428571D01*
X104747619Y-88333333D01*
X104842857Y-88285714D01*
X105033333Y-88285714D01*
X105128571Y-88333333D01*
X105176190Y-88428571D01*
X105176190Y-88523809D01*
X104700000Y-88619047D01*
X106033333Y-88904761D02*
X105938095Y-88952380D01*
X105747619Y-88952380D01*
X105652380Y-88904761D01*
X105604761Y-88857142D01*
X105557142Y-88761904D01*
X105557142Y-88476190D01*
X105604761Y-88380952D01*
X105652380Y-88333333D01*
X105747619Y-88285714D01*
X105938095Y-88285714D01*
X106033333Y-88333333D01*
X106604761Y-88952380D02*
X106509523Y-88904761D01*
X106461904Y-88857142D01*
X106414285Y-88761904D01*
X106414285Y-88476190D01*
X106461904Y-88380952D01*
X106509523Y-88333333D01*
X106604761Y-88285714D01*
X106747619Y-88285714D01*
X106842857Y-88333333D01*
X106890476Y-88380952D01*
X106938095Y-88476190D01*
X106938095Y-88761904D01*
X106890476Y-88857142D01*
X106842857Y-88904761D01*
X106747619Y-88952380D01*
X106604761Y-88952380D01*
X107795238Y-88952380D02*
X107795238Y-87952380D01*
X107795238Y-88904761D02*
X107700000Y-88952380D01*
X107509523Y-88952380D01*
X107414285Y-88904761D01*
X107366666Y-88857142D01*
X107319047Y-88761904D01*
X107319047Y-88476190D01*
X107366666Y-88380952D01*
X107414285Y-88333333D01*
X107509523Y-88285714D01*
X107700000Y-88285714D01*
X107795238Y-88333333D01*
X108652380Y-88904761D02*
X108557142Y-88952380D01*
X108366666Y-88952380D01*
X108271428Y-88904761D01*
X108223809Y-88809523D01*
X108223809Y-88428571D01*
X108271428Y-88333333D01*
X108366666Y-88285714D01*
X108557142Y-88285714D01*
X108652380Y-88333333D01*
X108700000Y-88428571D01*
X108700000Y-88523809D01*
X108223809Y-88619047D01*
X109128571Y-88952380D02*
X109128571Y-88285714D01*
X109128571Y-88476190D02*
X109176190Y-88380952D01*
X109223809Y-88333333D01*
X109319047Y-88285714D01*
X109414285Y-88285714D01*
X127457142Y-96302380D02*
X127123809Y-95826190D01*
X126885714Y-96302380D02*
X126885714Y-95302380D01*
X127266666Y-95302380D01*
X127361904Y-95350000D01*
X127409523Y-95397619D01*
X127457142Y-95492857D01*
X127457142Y-95635714D01*
X127409523Y-95730952D01*
X127361904Y-95778571D01*
X127266666Y-95826190D01*
X126885714Y-95826190D01*
X128409523Y-96302380D02*
X127838095Y-96302380D01*
X128123809Y-96302380D02*
X128123809Y-95302380D01*
X128028571Y-95445238D01*
X127933333Y-95540476D01*
X127838095Y-95588095D01*
X129266666Y-95302380D02*
X129076190Y-95302380D01*
X128980952Y-95350000D01*
X128933333Y-95397619D01*
X128838095Y-95540476D01*
X128790476Y-95730952D01*
X128790476Y-96111904D01*
X128838095Y-96207142D01*
X128885714Y-96254761D01*
X128980952Y-96302380D01*
X129171428Y-96302380D01*
X129266666Y-96254761D01*
X129314285Y-96207142D01*
X129361904Y-96111904D01*
X129361904Y-95873809D01*
X129314285Y-95778571D01*
X129266666Y-95730952D01*
X129171428Y-95683333D01*
X128980952Y-95683333D01*
X128885714Y-95730952D01*
X128838095Y-95778571D01*
X128790476Y-95873809D01*
X133599999Y-96302380D02*
X133266666Y-95826190D01*
X133028571Y-96302380D02*
X133028571Y-95302380D01*
X133409523Y-95302380D01*
X133504761Y-95350000D01*
X133552380Y-95397619D01*
X133599999Y-95492857D01*
X133599999Y-95635714D01*
X133552380Y-95730952D01*
X133504761Y-95778571D01*
X133409523Y-95826190D01*
X133028571Y-95826190D01*
X134552380Y-96302380D02*
X133980952Y-96302380D01*
X134266666Y-96302380D02*
X134266666Y-95302380D01*
X134171428Y-95445238D01*
X134076190Y-95540476D01*
X133980952Y-95588095D01*
X135457142Y-95302380D02*
X134980952Y-95302380D01*
X134933333Y-95778571D01*
X134980952Y-95730952D01*
X135076190Y-95683333D01*
X135314285Y-95683333D01*
X135409523Y-95730952D01*
X135457142Y-95778571D01*
X135504761Y-95873809D01*
X135504761Y-96111904D01*
X135457142Y-96207142D01*
X135409523Y-96254761D01*
X135314285Y-96302380D01*
X135076190Y-96302380D01*
X134980952Y-96254761D01*
X134933333Y-96207142D01*
X139742856Y-96302380D02*
X139409523Y-95826190D01*
X139171428Y-96302380D02*
X139171428Y-95302380D01*
X139552380Y-95302380D01*
X139647618Y-95350000D01*
X139695237Y-95397619D01*
X139742856Y-95492857D01*
X139742856Y-95635714D01*
X139695237Y-95730952D01*
X139647618Y-95778571D01*
X139552380Y-95826190D01*
X139171428Y-95826190D01*
X140695237Y-96302380D02*
X140123809Y-96302380D01*
X140409523Y-96302380D02*
X140409523Y-95302380D01*
X140314285Y-95445238D01*
X140219047Y-95540476D01*
X140123809Y-95588095D01*
X141552380Y-95635714D02*
X141552380Y-96302380D01*
X141314285Y-95254761D02*
X141076190Y-95969047D01*
X141695237Y-95969047D01*
X145885713Y-96302380D02*
X145552380Y-95826190D01*
X145314285Y-96302380D02*
X145314285Y-95302380D01*
X145695237Y-95302380D01*
X145790475Y-95350000D01*
X145838094Y-95397619D01*
X145885713Y-95492857D01*
X145885713Y-95635714D01*
X145838094Y-95730952D01*
X145790475Y-95778571D01*
X145695237Y-95826190D01*
X145314285Y-95826190D01*
X146838094Y-96302380D02*
X146266666Y-96302380D01*
X146552380Y-96302380D02*
X146552380Y-95302380D01*
X146457142Y-95445238D01*
X146361904Y-95540476D01*
X146266666Y-95588095D01*
X147171428Y-95302380D02*
X147790475Y-95302380D01*
X147457142Y-95683333D01*
X147599999Y-95683333D01*
X147695237Y-95730952D01*
X147742856Y-95778571D01*
X147790475Y-95873809D01*
X147790475Y-96111904D01*
X147742856Y-96207142D01*
X147695237Y-96254761D01*
X147599999Y-96302380D01*
X147314285Y-96302380D01*
X147219047Y-96254761D01*
X147171428Y-96207142D01*
X152028570Y-96302380D02*
X151695237Y-95826190D01*
X151457142Y-96302380D02*
X151457142Y-95302380D01*
X151838094Y-95302380D01*
X151933332Y-95350000D01*
X151980951Y-95397619D01*
X152028570Y-95492857D01*
X152028570Y-95635714D01*
X151980951Y-95730952D01*
X151933332Y-95778571D01*
X151838094Y-95826190D01*
X151457142Y-95826190D01*
X152980951Y-96302380D02*
X152409523Y-96302380D01*
X152695237Y-96302380D02*
X152695237Y-95302380D01*
X152599999Y-95445238D01*
X152504761Y-95540476D01*
X152409523Y-95588095D01*
X153361904Y-95397619D02*
X153409523Y-95350000D01*
X153504761Y-95302380D01*
X153742856Y-95302380D01*
X153838094Y-95350000D01*
X153885713Y-95397619D01*
X153933332Y-95492857D01*
X153933332Y-95588095D01*
X153885713Y-95730952D01*
X153314285Y-96302380D01*
X153933332Y-96302380D01*
X158171427Y-96302380D02*
X157838094Y-95826190D01*
X157599999Y-96302380D02*
X157599999Y-95302380D01*
X157980951Y-95302380D01*
X158076189Y-95350000D01*
X158123808Y-95397619D01*
X158171427Y-95492857D01*
X158171427Y-95635714D01*
X158123808Y-95730952D01*
X158076189Y-95778571D01*
X157980951Y-95826190D01*
X157599999Y-95826190D01*
X159123808Y-96302380D02*
X158552380Y-96302380D01*
X158838094Y-96302380D02*
X158838094Y-95302380D01*
X158742856Y-95445238D01*
X158647618Y-95540476D01*
X158552380Y-95588095D01*
X160076189Y-96302380D02*
X159504761Y-96302380D01*
X159790475Y-96302380D02*
X159790475Y-95302380D01*
X159695237Y-95445238D01*
X159599999Y-95540476D01*
X159504761Y-95588095D01*
X164314284Y-96302380D02*
X163980951Y-95826190D01*
X163742856Y-96302380D02*
X163742856Y-95302380D01*
X164123808Y-95302380D01*
X164219046Y-95350000D01*
X164266665Y-95397619D01*
X164314284Y-95492857D01*
X164314284Y-95635714D01*
X164266665Y-95730952D01*
X164219046Y-95778571D01*
X164123808Y-95826190D01*
X163742856Y-95826190D01*
X165266665Y-96302380D02*
X164695237Y-96302380D01*
X164980951Y-96302380D02*
X164980951Y-95302380D01*
X164885713Y-95445238D01*
X164790475Y-95540476D01*
X164695237Y-95588095D01*
X165885713Y-95302380D02*
X165980951Y-95302380D01*
X166076189Y-95350000D01*
X166123808Y-95397619D01*
X166171427Y-95492857D01*
X166219046Y-95683333D01*
X166219046Y-95921428D01*
X166171427Y-96111904D01*
X166123808Y-96207142D01*
X166076189Y-96254761D01*
X165980951Y-96302380D01*
X165885713Y-96302380D01*
X165790475Y-96254761D01*
X165742856Y-96207142D01*
X165695237Y-96111904D01*
X165647618Y-95921428D01*
X165647618Y-95683333D01*
X165695237Y-95492857D01*
X165742856Y-95397619D01*
X165790475Y-95350000D01*
X165885713Y-95302380D01*
X170933333Y-96302380D02*
X170600000Y-95826190D01*
X170361904Y-96302380D02*
X170361904Y-95302380D01*
X170742857Y-95302380D01*
X170838095Y-95350000D01*
X170885714Y-95397619D01*
X170933333Y-95492857D01*
X170933333Y-95635714D01*
X170885714Y-95730952D01*
X170838095Y-95778571D01*
X170742857Y-95826190D01*
X170361904Y-95826190D01*
X171409523Y-96302380D02*
X171600000Y-96302380D01*
X171695238Y-96254761D01*
X171742857Y-96207142D01*
X171838095Y-96064285D01*
X171885714Y-95873809D01*
X171885714Y-95492857D01*
X171838095Y-95397619D01*
X171790476Y-95350000D01*
X171695238Y-95302380D01*
X171504761Y-95302380D01*
X171409523Y-95350000D01*
X171361904Y-95397619D01*
X171314285Y-95492857D01*
X171314285Y-95730952D01*
X171361904Y-95826190D01*
X171409523Y-95873809D01*
X171504761Y-95921428D01*
X171695238Y-95921428D01*
X171790476Y-95873809D01*
X171838095Y-95826190D01*
X171885714Y-95730952D01*
X127933333Y-86652380D02*
X127600000Y-86176190D01*
X127361904Y-86652380D02*
X127361904Y-85652380D01*
X127742857Y-85652380D01*
X127838095Y-85700000D01*
X127885714Y-85747619D01*
X127933333Y-85842857D01*
X127933333Y-85985714D01*
X127885714Y-86080952D01*
X127838095Y-86128571D01*
X127742857Y-86176190D01*
X127361904Y-86176190D01*
X128504761Y-86080952D02*
X128409523Y-86033333D01*
X128361904Y-85985714D01*
X128314285Y-85890476D01*
X128314285Y-85842857D01*
X128361904Y-85747619D01*
X128409523Y-85700000D01*
X128504761Y-85652380D01*
X128695238Y-85652380D01*
X128790476Y-85700000D01*
X128838095Y-85747619D01*
X128885714Y-85842857D01*
X128885714Y-85890476D01*
X128838095Y-85985714D01*
X128790476Y-86033333D01*
X128695238Y-86080952D01*
X128504761Y-86080952D01*
X128409523Y-86128571D01*
X128361904Y-86176190D01*
X128314285Y-86271428D01*
X128314285Y-86461904D01*
X128361904Y-86557142D01*
X128409523Y-86604761D01*
X128504761Y-86652380D01*
X128695238Y-86652380D01*
X128790476Y-86604761D01*
X128838095Y-86557142D01*
X128885714Y-86461904D01*
X128885714Y-86271428D01*
X128838095Y-86176190D01*
X128790476Y-86128571D01*
X128695238Y-86080952D01*
X134076190Y-86652380D02*
X133742857Y-86176190D01*
X133504761Y-86652380D02*
X133504761Y-85652380D01*
X133885714Y-85652380D01*
X133980952Y-85700000D01*
X134028571Y-85747619D01*
X134076190Y-85842857D01*
X134076190Y-85985714D01*
X134028571Y-86080952D01*
X133980952Y-86128571D01*
X133885714Y-86176190D01*
X133504761Y-86176190D01*
X134409523Y-85652380D02*
X135076190Y-85652380D01*
X134647618Y-86652380D01*
X140219047Y-86652380D02*
X139885714Y-86176190D01*
X139647618Y-86652380D02*
X139647618Y-85652380D01*
X140028571Y-85652380D01*
X140123809Y-85700000D01*
X140171428Y-85747619D01*
X140219047Y-85842857D01*
X140219047Y-85985714D01*
X140171428Y-86080952D01*
X140123809Y-86128571D01*
X140028571Y-86176190D01*
X139647618Y-86176190D01*
X141076190Y-85652380D02*
X140885714Y-85652380D01*
X140790475Y-85700000D01*
X140742856Y-85747619D01*
X140647618Y-85890476D01*
X140599999Y-86080952D01*
X140599999Y-86461904D01*
X140647618Y-86557142D01*
X140695237Y-86604761D01*
X140790475Y-86652380D01*
X140980952Y-86652380D01*
X141076190Y-86604761D01*
X141123809Y-86557142D01*
X141171428Y-86461904D01*
X141171428Y-86223809D01*
X141123809Y-86128571D01*
X141076190Y-86080952D01*
X140980952Y-86033333D01*
X140790475Y-86033333D01*
X140695237Y-86080952D01*
X140647618Y-86128571D01*
X140599999Y-86223809D01*
X146361904Y-86652380D02*
X146028571Y-86176190D01*
X145790475Y-86652380D02*
X145790475Y-85652380D01*
X146171428Y-85652380D01*
X146266666Y-85700000D01*
X146314285Y-85747619D01*
X146361904Y-85842857D01*
X146361904Y-85985714D01*
X146314285Y-86080952D01*
X146266666Y-86128571D01*
X146171428Y-86176190D01*
X145790475Y-86176190D01*
X147266666Y-85652380D02*
X146790475Y-85652380D01*
X146742856Y-86128571D01*
X146790475Y-86080952D01*
X146885713Y-86033333D01*
X147123809Y-86033333D01*
X147219047Y-86080952D01*
X147266666Y-86128571D01*
X147314285Y-86223809D01*
X147314285Y-86461904D01*
X147266666Y-86557142D01*
X147219047Y-86604761D01*
X147123809Y-86652380D01*
X146885713Y-86652380D01*
X146790475Y-86604761D01*
X146742856Y-86557142D01*
X152504761Y-86652380D02*
X152171428Y-86176190D01*
X151933332Y-86652380D02*
X151933332Y-85652380D01*
X152314285Y-85652380D01*
X152409523Y-85700000D01*
X152457142Y-85747619D01*
X152504761Y-85842857D01*
X152504761Y-85985714D01*
X152457142Y-86080952D01*
X152409523Y-86128571D01*
X152314285Y-86176190D01*
X151933332Y-86176190D01*
X153361904Y-85985714D02*
X153361904Y-86652380D01*
X153123808Y-85604761D02*
X152885713Y-86319047D01*
X153504761Y-86319047D01*
X158647618Y-86652380D02*
X158314285Y-86176190D01*
X158076189Y-86652380D02*
X158076189Y-85652380D01*
X158457142Y-85652380D01*
X158552380Y-85700000D01*
X158599999Y-85747619D01*
X158647618Y-85842857D01*
X158647618Y-85985714D01*
X158599999Y-86080952D01*
X158552380Y-86128571D01*
X158457142Y-86176190D01*
X158076189Y-86176190D01*
X158980951Y-85652380D02*
X159599999Y-85652380D01*
X159266665Y-86033333D01*
X159409523Y-86033333D01*
X159504761Y-86080952D01*
X159552380Y-86128571D01*
X159599999Y-86223809D01*
X159599999Y-86461904D01*
X159552380Y-86557142D01*
X159504761Y-86604761D01*
X159409523Y-86652380D01*
X159123808Y-86652380D01*
X159028570Y-86604761D01*
X158980951Y-86557142D01*
X164790475Y-86652380D02*
X164457142Y-86176190D01*
X164219046Y-86652380D02*
X164219046Y-85652380D01*
X164599999Y-85652380D01*
X164695237Y-85700000D01*
X164742856Y-85747619D01*
X164790475Y-85842857D01*
X164790475Y-85985714D01*
X164742856Y-86080952D01*
X164695237Y-86128571D01*
X164599999Y-86176190D01*
X164219046Y-86176190D01*
X165171427Y-85747619D02*
X165219046Y-85700000D01*
X165314284Y-85652380D01*
X165552380Y-85652380D01*
X165647618Y-85700000D01*
X165695237Y-85747619D01*
X165742856Y-85842857D01*
X165742856Y-85938095D01*
X165695237Y-86080952D01*
X165123808Y-86652380D01*
X165742856Y-86652380D01*
X170933333Y-86652380D02*
X170600000Y-86176190D01*
X170361904Y-86652380D02*
X170361904Y-85652380D01*
X170742857Y-85652380D01*
X170838095Y-85700000D01*
X170885714Y-85747619D01*
X170933333Y-85842857D01*
X170933333Y-85985714D01*
X170885714Y-86080952D01*
X170838095Y-86128571D01*
X170742857Y-86176190D01*
X170361904Y-86176190D01*
X171885714Y-86652380D02*
X171314285Y-86652380D01*
X171600000Y-86652380D02*
X171600000Y-85652380D01*
X171504761Y-85795238D01*
X171409523Y-85890476D01*
X171314285Y-85938095D01*
X126885714Y-100552380D02*
X126885714Y-99552380D01*
X127123809Y-99552380D01*
X127266666Y-99600000D01*
X127361904Y-99695238D01*
X127409523Y-99790476D01*
X127457142Y-99980952D01*
X127457142Y-100123809D01*
X127409523Y-100314285D01*
X127361904Y-100409523D01*
X127266666Y-100504761D01*
X127123809Y-100552380D01*
X126885714Y-100552380D01*
X128409523Y-100552380D02*
X127838095Y-100552380D01*
X128123809Y-100552380D02*
X128123809Y-99552380D01*
X128028571Y-99695238D01*
X127933333Y-99790476D01*
X127838095Y-99838095D01*
X129266666Y-99552380D02*
X129076190Y-99552380D01*
X128980952Y-99600000D01*
X128933333Y-99647619D01*
X128838095Y-99790476D01*
X128790476Y-99980952D01*
X128790476Y-100361904D01*
X128838095Y-100457142D01*
X128885714Y-100504761D01*
X128980952Y-100552380D01*
X129171428Y-100552380D01*
X129266666Y-100504761D01*
X129314285Y-100457142D01*
X129361904Y-100361904D01*
X129361904Y-100123809D01*
X129314285Y-100028571D01*
X129266666Y-99980952D01*
X129171428Y-99933333D01*
X128980952Y-99933333D01*
X128885714Y-99980952D01*
X128838095Y-100028571D01*
X128790476Y-100123809D01*
D14*
X127492857Y-103692857D02*
X127707142Y-103764285D01*
X127778571Y-103835714D01*
X127850000Y-103978571D01*
X127850000Y-104192857D01*
X127778571Y-104335714D01*
X127707142Y-104407142D01*
X127564285Y-104478571D01*
X126992857Y-104478571D01*
X126992857Y-102978571D01*
X127492857Y-102978571D01*
X127635714Y-103050000D01*
X127707142Y-103121428D01*
X127778571Y-103264285D01*
X127778571Y-103407142D01*
X127707142Y-103550000D01*
X127635714Y-103621428D01*
X127492857Y-103692857D01*
X126992857Y-103692857D01*
X128350000Y-102978571D02*
X129350000Y-102978571D01*
X128707142Y-104478571D01*
D10*
X133028571Y-100552380D02*
X133028571Y-99552380D01*
X133266666Y-99552380D01*
X133409523Y-99600000D01*
X133504761Y-99695238D01*
X133552380Y-99790476D01*
X133599999Y-99980952D01*
X133599999Y-100123809D01*
X133552380Y-100314285D01*
X133504761Y-100409523D01*
X133409523Y-100504761D01*
X133266666Y-100552380D01*
X133028571Y-100552380D01*
X134552380Y-100552380D02*
X133980952Y-100552380D01*
X134266666Y-100552380D02*
X134266666Y-99552380D01*
X134171428Y-99695238D01*
X134076190Y-99790476D01*
X133980952Y-99838095D01*
X135457142Y-99552380D02*
X134980952Y-99552380D01*
X134933333Y-100028571D01*
X134980952Y-99980952D01*
X135076190Y-99933333D01*
X135314285Y-99933333D01*
X135409523Y-99980952D01*
X135457142Y-100028571D01*
X135504761Y-100123809D01*
X135504761Y-100361904D01*
X135457142Y-100457142D01*
X135409523Y-100504761D01*
X135314285Y-100552380D01*
X135076190Y-100552380D01*
X134980952Y-100504761D01*
X134933333Y-100457142D01*
D14*
X133592857Y-103692857D02*
X133807142Y-103764285D01*
X133878571Y-103835714D01*
X133950000Y-103978571D01*
X133950000Y-104192857D01*
X133878571Y-104335714D01*
X133807142Y-104407142D01*
X133664285Y-104478571D01*
X133092857Y-104478571D01*
X133092857Y-102978571D01*
X133592857Y-102978571D01*
X133735714Y-103050000D01*
X133807142Y-103121428D01*
X133878571Y-103264285D01*
X133878571Y-103407142D01*
X133807142Y-103550000D01*
X133735714Y-103621428D01*
X133592857Y-103692857D01*
X133092857Y-103692857D01*
X135235714Y-102978571D02*
X134950000Y-102978571D01*
X134807142Y-103050000D01*
X134735714Y-103121428D01*
X134592857Y-103335714D01*
X134521428Y-103621428D01*
X134521428Y-104192857D01*
X134592857Y-104335714D01*
X134664285Y-104407142D01*
X134807142Y-104478571D01*
X135092857Y-104478571D01*
X135235714Y-104407142D01*
X135307142Y-104335714D01*
X135378571Y-104192857D01*
X135378571Y-103835714D01*
X135307142Y-103692857D01*
X135235714Y-103621428D01*
X135092857Y-103550000D01*
X134807142Y-103550000D01*
X134664285Y-103621428D01*
X134592857Y-103692857D01*
X134521428Y-103835714D01*
D10*
X139171428Y-100552380D02*
X139171428Y-99552380D01*
X139409523Y-99552380D01*
X139552380Y-99600000D01*
X139647618Y-99695238D01*
X139695237Y-99790476D01*
X139742856Y-99980952D01*
X139742856Y-100123809D01*
X139695237Y-100314285D01*
X139647618Y-100409523D01*
X139552380Y-100504761D01*
X139409523Y-100552380D01*
X139171428Y-100552380D01*
X140695237Y-100552380D02*
X140123809Y-100552380D01*
X140409523Y-100552380D02*
X140409523Y-99552380D01*
X140314285Y-99695238D01*
X140219047Y-99790476D01*
X140123809Y-99838095D01*
X141552380Y-99885714D02*
X141552380Y-100552380D01*
X141314285Y-99504761D02*
X141076190Y-100219047D01*
X141695237Y-100219047D01*
D14*
X139792857Y-103692857D02*
X140007142Y-103764285D01*
X140078571Y-103835714D01*
X140150000Y-103978571D01*
X140150000Y-104192857D01*
X140078571Y-104335714D01*
X140007142Y-104407142D01*
X139864285Y-104478571D01*
X139292857Y-104478571D01*
X139292857Y-102978571D01*
X139792857Y-102978571D01*
X139935714Y-103050000D01*
X140007142Y-103121428D01*
X140078571Y-103264285D01*
X140078571Y-103407142D01*
X140007142Y-103550000D01*
X139935714Y-103621428D01*
X139792857Y-103692857D01*
X139292857Y-103692857D01*
X141507142Y-102978571D02*
X140792857Y-102978571D01*
X140721428Y-103692857D01*
X140792857Y-103621428D01*
X140935714Y-103550000D01*
X141292857Y-103550000D01*
X141435714Y-103621428D01*
X141507142Y-103692857D01*
X141578571Y-103835714D01*
X141578571Y-104192857D01*
X141507142Y-104335714D01*
X141435714Y-104407142D01*
X141292857Y-104478571D01*
X140935714Y-104478571D01*
X140792857Y-104407142D01*
X140721428Y-104335714D01*
D10*
X145314285Y-100552380D02*
X145314285Y-99552380D01*
X145552380Y-99552380D01*
X145695237Y-99600000D01*
X145790475Y-99695238D01*
X145838094Y-99790476D01*
X145885713Y-99980952D01*
X145885713Y-100123809D01*
X145838094Y-100314285D01*
X145790475Y-100409523D01*
X145695237Y-100504761D01*
X145552380Y-100552380D01*
X145314285Y-100552380D01*
X146838094Y-100552380D02*
X146266666Y-100552380D01*
X146552380Y-100552380D02*
X146552380Y-99552380D01*
X146457142Y-99695238D01*
X146361904Y-99790476D01*
X146266666Y-99838095D01*
X147171428Y-99552380D02*
X147790475Y-99552380D01*
X147457142Y-99933333D01*
X147599999Y-99933333D01*
X147695237Y-99980952D01*
X147742856Y-100028571D01*
X147790475Y-100123809D01*
X147790475Y-100361904D01*
X147742856Y-100457142D01*
X147695237Y-100504761D01*
X147599999Y-100552380D01*
X147314285Y-100552380D01*
X147219047Y-100504761D01*
X147171428Y-100457142D01*
D14*
X145892857Y-103692857D02*
X146107142Y-103764285D01*
X146178571Y-103835714D01*
X146250000Y-103978571D01*
X146250000Y-104192857D01*
X146178571Y-104335714D01*
X146107142Y-104407142D01*
X145964285Y-104478571D01*
X145392857Y-104478571D01*
X145392857Y-102978571D01*
X145892857Y-102978571D01*
X146035714Y-103050000D01*
X146107142Y-103121428D01*
X146178571Y-103264285D01*
X146178571Y-103407142D01*
X146107142Y-103550000D01*
X146035714Y-103621428D01*
X145892857Y-103692857D01*
X145392857Y-103692857D01*
X147535714Y-103478571D02*
X147535714Y-104478571D01*
X147178571Y-102907142D02*
X146821428Y-103978571D01*
X147750000Y-103978571D01*
D10*
X151457142Y-100552380D02*
X151457142Y-99552380D01*
X151695237Y-99552380D01*
X151838094Y-99600000D01*
X151933332Y-99695238D01*
X151980951Y-99790476D01*
X152028570Y-99980952D01*
X152028570Y-100123809D01*
X151980951Y-100314285D01*
X151933332Y-100409523D01*
X151838094Y-100504761D01*
X151695237Y-100552380D01*
X151457142Y-100552380D01*
X152980951Y-100552380D02*
X152409523Y-100552380D01*
X152695237Y-100552380D02*
X152695237Y-99552380D01*
X152599999Y-99695238D01*
X152504761Y-99790476D01*
X152409523Y-99838095D01*
X153361904Y-99647619D02*
X153409523Y-99600000D01*
X153504761Y-99552380D01*
X153742856Y-99552380D01*
X153838094Y-99600000D01*
X153885713Y-99647619D01*
X153933332Y-99742857D01*
X153933332Y-99838095D01*
X153885713Y-99980952D01*
X153314285Y-100552380D01*
X153933332Y-100552380D01*
D14*
X152092857Y-103692857D02*
X152307142Y-103764285D01*
X152378571Y-103835714D01*
X152450000Y-103978571D01*
X152450000Y-104192857D01*
X152378571Y-104335714D01*
X152307142Y-104407142D01*
X152164285Y-104478571D01*
X151592857Y-104478571D01*
X151592857Y-102978571D01*
X152092857Y-102978571D01*
X152235714Y-103050000D01*
X152307142Y-103121428D01*
X152378571Y-103264285D01*
X152378571Y-103407142D01*
X152307142Y-103550000D01*
X152235714Y-103621428D01*
X152092857Y-103692857D01*
X151592857Y-103692857D01*
X152950000Y-102978571D02*
X153878571Y-102978571D01*
X153378571Y-103550000D01*
X153592857Y-103550000D01*
X153735714Y-103621428D01*
X153807142Y-103692857D01*
X153878571Y-103835714D01*
X153878571Y-104192857D01*
X153807142Y-104335714D01*
X153735714Y-104407142D01*
X153592857Y-104478571D01*
X153164285Y-104478571D01*
X153021428Y-104407142D01*
X152950000Y-104335714D01*
D10*
X157585714Y-100552380D02*
X157585714Y-99552380D01*
X157823809Y-99552380D01*
X157966666Y-99600000D01*
X158061904Y-99695238D01*
X158109523Y-99790476D01*
X158157142Y-99980952D01*
X158157142Y-100123809D01*
X158109523Y-100314285D01*
X158061904Y-100409523D01*
X157966666Y-100504761D01*
X157823809Y-100552380D01*
X157585714Y-100552380D01*
X159109523Y-100552380D02*
X158538095Y-100552380D01*
X158823809Y-100552380D02*
X158823809Y-99552380D01*
X158728571Y-99695238D01*
X158633333Y-99790476D01*
X158538095Y-99838095D01*
X160061904Y-100552380D02*
X159490476Y-100552380D01*
X159776190Y-100552380D02*
X159776190Y-99552380D01*
X159680952Y-99695238D01*
X159585714Y-99790476D01*
X159490476Y-99838095D01*
D14*
X158192857Y-103692857D02*
X158407142Y-103764285D01*
X158478571Y-103835714D01*
X158550000Y-103978571D01*
X158550000Y-104192857D01*
X158478571Y-104335714D01*
X158407142Y-104407142D01*
X158264285Y-104478571D01*
X157692857Y-104478571D01*
X157692857Y-102978571D01*
X158192857Y-102978571D01*
X158335714Y-103050000D01*
X158407142Y-103121428D01*
X158478571Y-103264285D01*
X158478571Y-103407142D01*
X158407142Y-103550000D01*
X158335714Y-103621428D01*
X158192857Y-103692857D01*
X157692857Y-103692857D01*
X159121428Y-103121428D02*
X159192857Y-103050000D01*
X159335714Y-102978571D01*
X159692857Y-102978571D01*
X159835714Y-103050000D01*
X159907142Y-103121428D01*
X159978571Y-103264285D01*
X159978571Y-103407142D01*
X159907142Y-103621428D01*
X159050000Y-104478571D01*
X159978571Y-104478571D01*
D10*
X163742856Y-100552380D02*
X163742856Y-99552380D01*
X163980951Y-99552380D01*
X164123808Y-99600000D01*
X164219046Y-99695238D01*
X164266665Y-99790476D01*
X164314284Y-99980952D01*
X164314284Y-100123809D01*
X164266665Y-100314285D01*
X164219046Y-100409523D01*
X164123808Y-100504761D01*
X163980951Y-100552380D01*
X163742856Y-100552380D01*
X165266665Y-100552380D02*
X164695237Y-100552380D01*
X164980951Y-100552380D02*
X164980951Y-99552380D01*
X164885713Y-99695238D01*
X164790475Y-99790476D01*
X164695237Y-99838095D01*
X165885713Y-99552380D02*
X165980951Y-99552380D01*
X166076189Y-99600000D01*
X166123808Y-99647619D01*
X166171427Y-99742857D01*
X166219046Y-99933333D01*
X166219046Y-100171428D01*
X166171427Y-100361904D01*
X166123808Y-100457142D01*
X166076189Y-100504761D01*
X165980951Y-100552380D01*
X165885713Y-100552380D01*
X165790475Y-100504761D01*
X165742856Y-100457142D01*
X165695237Y-100361904D01*
X165647618Y-100171428D01*
X165647618Y-99933333D01*
X165695237Y-99742857D01*
X165742856Y-99647619D01*
X165790475Y-99600000D01*
X165885713Y-99552380D01*
D14*
X164392857Y-103692857D02*
X164607142Y-103764285D01*
X164678571Y-103835714D01*
X164750000Y-103978571D01*
X164750000Y-104192857D01*
X164678571Y-104335714D01*
X164607142Y-104407142D01*
X164464285Y-104478571D01*
X163892857Y-104478571D01*
X163892857Y-102978571D01*
X164392857Y-102978571D01*
X164535714Y-103050000D01*
X164607142Y-103121428D01*
X164678571Y-103264285D01*
X164678571Y-103407142D01*
X164607142Y-103550000D01*
X164535714Y-103621428D01*
X164392857Y-103692857D01*
X163892857Y-103692857D01*
X166178571Y-104478571D02*
X165321428Y-104478571D01*
X165750000Y-104478571D02*
X165750000Y-102978571D01*
X165607142Y-103192857D01*
X165464285Y-103335714D01*
X165321428Y-103407142D01*
D10*
X170361904Y-100552380D02*
X170361904Y-99552380D01*
X170600000Y-99552380D01*
X170742857Y-99600000D01*
X170838095Y-99695238D01*
X170885714Y-99790476D01*
X170933333Y-99980952D01*
X170933333Y-100123809D01*
X170885714Y-100314285D01*
X170838095Y-100409523D01*
X170742857Y-100504761D01*
X170600000Y-100552380D01*
X170361904Y-100552380D01*
X171409523Y-100552380D02*
X171600000Y-100552380D01*
X171695238Y-100504761D01*
X171742857Y-100457142D01*
X171838095Y-100314285D01*
X171885714Y-100123809D01*
X171885714Y-99742857D01*
X171838095Y-99647619D01*
X171790476Y-99600000D01*
X171695238Y-99552380D01*
X171504761Y-99552380D01*
X171409523Y-99600000D01*
X171361904Y-99647619D01*
X171314285Y-99742857D01*
X171314285Y-99980952D01*
X171361904Y-100076190D01*
X171409523Y-100123809D01*
X171504761Y-100171428D01*
X171695238Y-100171428D01*
X171790476Y-100123809D01*
X171838095Y-100076190D01*
X171885714Y-99980952D01*
D14*
X170492857Y-103692857D02*
X170707142Y-103764285D01*
X170778571Y-103835714D01*
X170850000Y-103978571D01*
X170850000Y-104192857D01*
X170778571Y-104335714D01*
X170707142Y-104407142D01*
X170564285Y-104478571D01*
X169992857Y-104478571D01*
X169992857Y-102978571D01*
X170492857Y-102978571D01*
X170635714Y-103050000D01*
X170707142Y-103121428D01*
X170778571Y-103264285D01*
X170778571Y-103407142D01*
X170707142Y-103550000D01*
X170635714Y-103621428D01*
X170492857Y-103692857D01*
X169992857Y-103692857D01*
X171778571Y-102978571D02*
X171921428Y-102978571D01*
X172064285Y-103050000D01*
X172135714Y-103121428D01*
X172207142Y-103264285D01*
X172278571Y-103550000D01*
X172278571Y-103907142D01*
X172207142Y-104192857D01*
X172135714Y-104335714D01*
X172064285Y-104407142D01*
X171921428Y-104478571D01*
X171778571Y-104478571D01*
X171635714Y-104407142D01*
X171564285Y-104335714D01*
X171492857Y-104192857D01*
X171421428Y-103907142D01*
X171421428Y-103550000D01*
X171492857Y-103264285D01*
X171564285Y-103121428D01*
X171635714Y-103050000D01*
X171778571Y-102978571D01*
D10*
X127361904Y-82402380D02*
X127361904Y-81402380D01*
X127600000Y-81402380D01*
X127742857Y-81450000D01*
X127838095Y-81545238D01*
X127885714Y-81640476D01*
X127933333Y-81830952D01*
X127933333Y-81973809D01*
X127885714Y-82164285D01*
X127838095Y-82259523D01*
X127742857Y-82354761D01*
X127600000Y-82402380D01*
X127361904Y-82402380D01*
X128504761Y-81830952D02*
X128409523Y-81783333D01*
X128361904Y-81735714D01*
X128314285Y-81640476D01*
X128314285Y-81592857D01*
X128361904Y-81497619D01*
X128409523Y-81450000D01*
X128504761Y-81402380D01*
X128695238Y-81402380D01*
X128790476Y-81450000D01*
X128838095Y-81497619D01*
X128885714Y-81592857D01*
X128885714Y-81640476D01*
X128838095Y-81735714D01*
X128790476Y-81783333D01*
X128695238Y-81830952D01*
X128504761Y-81830952D01*
X128409523Y-81878571D01*
X128361904Y-81926190D01*
X128314285Y-82021428D01*
X128314285Y-82211904D01*
X128361904Y-82307142D01*
X128409523Y-82354761D01*
X128504761Y-82402380D01*
X128695238Y-82402380D01*
X128790476Y-82354761D01*
X128838095Y-82307142D01*
X128885714Y-82211904D01*
X128885714Y-82021428D01*
X128838095Y-81926190D01*
X128790476Y-81878571D01*
X128695238Y-81830952D01*
D14*
X127028571Y-78650000D02*
X127742857Y-78650000D01*
X126885714Y-79078571D02*
X127385714Y-77578571D01*
X127885714Y-79078571D01*
X128242857Y-77578571D02*
X129242857Y-77578571D01*
X128600000Y-79078571D01*
D10*
X133504761Y-82402380D02*
X133504761Y-81402380D01*
X133742857Y-81402380D01*
X133885714Y-81450000D01*
X133980952Y-81545238D01*
X134028571Y-81640476D01*
X134076190Y-81830952D01*
X134076190Y-81973809D01*
X134028571Y-82164285D01*
X133980952Y-82259523D01*
X133885714Y-82354761D01*
X133742857Y-82402380D01*
X133504761Y-82402380D01*
X134409523Y-81402380D02*
X135076190Y-81402380D01*
X134647618Y-82402380D01*
D14*
X133171428Y-78650000D02*
X133885714Y-78650000D01*
X133028571Y-79078571D02*
X133528571Y-77578571D01*
X134028571Y-79078571D01*
X135171428Y-77578571D02*
X134885714Y-77578571D01*
X134742857Y-77650000D01*
X134671428Y-77721428D01*
X134528571Y-77935714D01*
X134457142Y-78221428D01*
X134457142Y-78792857D01*
X134528571Y-78935714D01*
X134599999Y-79007142D01*
X134742857Y-79078571D01*
X135028571Y-79078571D01*
X135171428Y-79007142D01*
X135242857Y-78935714D01*
X135314285Y-78792857D01*
X135314285Y-78435714D01*
X135242857Y-78292857D01*
X135171428Y-78221428D01*
X135028571Y-78150000D01*
X134742857Y-78150000D01*
X134599999Y-78221428D01*
X134528571Y-78292857D01*
X134457142Y-78435714D01*
D10*
X139647618Y-82402380D02*
X139647618Y-81402380D01*
X139885714Y-81402380D01*
X140028571Y-81450000D01*
X140123809Y-81545238D01*
X140171428Y-81640476D01*
X140219047Y-81830952D01*
X140219047Y-81973809D01*
X140171428Y-82164285D01*
X140123809Y-82259523D01*
X140028571Y-82354761D01*
X139885714Y-82402380D01*
X139647618Y-82402380D01*
X141076190Y-81402380D02*
X140885714Y-81402380D01*
X140790475Y-81450000D01*
X140742856Y-81497619D01*
X140647618Y-81640476D01*
X140599999Y-81830952D01*
X140599999Y-82211904D01*
X140647618Y-82307142D01*
X140695237Y-82354761D01*
X140790475Y-82402380D01*
X140980952Y-82402380D01*
X141076190Y-82354761D01*
X141123809Y-82307142D01*
X141171428Y-82211904D01*
X141171428Y-81973809D01*
X141123809Y-81878571D01*
X141076190Y-81830952D01*
X140980952Y-81783333D01*
X140790475Y-81783333D01*
X140695237Y-81830952D01*
X140647618Y-81878571D01*
X140599999Y-81973809D01*
D14*
X139314285Y-78650000D02*
X140028571Y-78650000D01*
X139171428Y-79078571D02*
X139671428Y-77578571D01*
X140171428Y-79078571D01*
X141385714Y-77578571D02*
X140671428Y-77578571D01*
X140599999Y-78292857D01*
X140671428Y-78221428D01*
X140814285Y-78150000D01*
X141171428Y-78150000D01*
X141314285Y-78221428D01*
X141385714Y-78292857D01*
X141457142Y-78435714D01*
X141457142Y-78792857D01*
X141385714Y-78935714D01*
X141314285Y-79007142D01*
X141171428Y-79078571D01*
X140814285Y-79078571D01*
X140671428Y-79007142D01*
X140599999Y-78935714D01*
D10*
X145790475Y-82402380D02*
X145790475Y-81402380D01*
X146028571Y-81402380D01*
X146171428Y-81450000D01*
X146266666Y-81545238D01*
X146314285Y-81640476D01*
X146361904Y-81830952D01*
X146361904Y-81973809D01*
X146314285Y-82164285D01*
X146266666Y-82259523D01*
X146171428Y-82354761D01*
X146028571Y-82402380D01*
X145790475Y-82402380D01*
X147266666Y-81402380D02*
X146790475Y-81402380D01*
X146742856Y-81878571D01*
X146790475Y-81830952D01*
X146885713Y-81783333D01*
X147123809Y-81783333D01*
X147219047Y-81830952D01*
X147266666Y-81878571D01*
X147314285Y-81973809D01*
X147314285Y-82211904D01*
X147266666Y-82307142D01*
X147219047Y-82354761D01*
X147123809Y-82402380D01*
X146885713Y-82402380D01*
X146790475Y-82354761D01*
X146742856Y-82307142D01*
D14*
X145428571Y-78650000D02*
X146142857Y-78650000D01*
X145285714Y-79078571D02*
X145785714Y-77578571D01*
X146285714Y-79078571D01*
X147428571Y-78078571D02*
X147428571Y-79078571D01*
X147071428Y-77507142D02*
X146714285Y-78578571D01*
X147642857Y-78578571D01*
D10*
X151933332Y-82402380D02*
X151933332Y-81402380D01*
X152171428Y-81402380D01*
X152314285Y-81450000D01*
X152409523Y-81545238D01*
X152457142Y-81640476D01*
X152504761Y-81830952D01*
X152504761Y-81973809D01*
X152457142Y-82164285D01*
X152409523Y-82259523D01*
X152314285Y-82354761D01*
X152171428Y-82402380D01*
X151933332Y-82402380D01*
X153361904Y-81735714D02*
X153361904Y-82402380D01*
X153123808Y-81354761D02*
X152885713Y-82069047D01*
X153504761Y-82069047D01*
D14*
X151599999Y-78650000D02*
X152314285Y-78650000D01*
X151457142Y-79078571D02*
X151957142Y-77578571D01*
X152457142Y-79078571D01*
X152814285Y-77578571D02*
X153742856Y-77578571D01*
X153242856Y-78150000D01*
X153457142Y-78150000D01*
X153599999Y-78221428D01*
X153671428Y-78292857D01*
X153742856Y-78435714D01*
X153742856Y-78792857D01*
X153671428Y-78935714D01*
X153599999Y-79007142D01*
X153457142Y-79078571D01*
X153028570Y-79078571D01*
X152885713Y-79007142D01*
X152814285Y-78935714D01*
D10*
X158076189Y-82402380D02*
X158076189Y-81402380D01*
X158314285Y-81402380D01*
X158457142Y-81450000D01*
X158552380Y-81545238D01*
X158599999Y-81640476D01*
X158647618Y-81830952D01*
X158647618Y-81973809D01*
X158599999Y-82164285D01*
X158552380Y-82259523D01*
X158457142Y-82354761D01*
X158314285Y-82402380D01*
X158076189Y-82402380D01*
X158980951Y-81402380D02*
X159599999Y-81402380D01*
X159266665Y-81783333D01*
X159409523Y-81783333D01*
X159504761Y-81830952D01*
X159552380Y-81878571D01*
X159599999Y-81973809D01*
X159599999Y-82211904D01*
X159552380Y-82307142D01*
X159504761Y-82354761D01*
X159409523Y-82402380D01*
X159123808Y-82402380D01*
X159028570Y-82354761D01*
X158980951Y-82307142D01*
D14*
X157742856Y-78650000D02*
X158457142Y-78650000D01*
X157599999Y-79078571D02*
X158099999Y-77578571D01*
X158599999Y-79078571D01*
X159028570Y-77721428D02*
X159099999Y-77650000D01*
X159242856Y-77578571D01*
X159599999Y-77578571D01*
X159742856Y-77650000D01*
X159814285Y-77721428D01*
X159885713Y-77864285D01*
X159885713Y-78007142D01*
X159814285Y-78221428D01*
X158957142Y-79078571D01*
X159885713Y-79078571D01*
D10*
X164219046Y-82402380D02*
X164219046Y-81402380D01*
X164457142Y-81402380D01*
X164599999Y-81450000D01*
X164695237Y-81545238D01*
X164742856Y-81640476D01*
X164790475Y-81830952D01*
X164790475Y-81973809D01*
X164742856Y-82164285D01*
X164695237Y-82259523D01*
X164599999Y-82354761D01*
X164457142Y-82402380D01*
X164219046Y-82402380D01*
X165171427Y-81497619D02*
X165219046Y-81450000D01*
X165314284Y-81402380D01*
X165552380Y-81402380D01*
X165647618Y-81450000D01*
X165695237Y-81497619D01*
X165742856Y-81592857D01*
X165742856Y-81688095D01*
X165695237Y-81830952D01*
X165123808Y-82402380D01*
X165742856Y-82402380D01*
D14*
X163885713Y-78650000D02*
X164599999Y-78650000D01*
X163742856Y-79078571D02*
X164242856Y-77578571D01*
X164742856Y-79078571D01*
X166028570Y-79078571D02*
X165171427Y-79078571D01*
X165599999Y-79078571D02*
X165599999Y-77578571D01*
X165457142Y-77792857D01*
X165314284Y-77935714D01*
X165171427Y-78007142D01*
D10*
X170361904Y-82402380D02*
X170361904Y-81402380D01*
X170600000Y-81402380D01*
X170742857Y-81450000D01*
X170838095Y-81545238D01*
X170885714Y-81640476D01*
X170933333Y-81830952D01*
X170933333Y-81973809D01*
X170885714Y-82164285D01*
X170838095Y-82259523D01*
X170742857Y-82354761D01*
X170600000Y-82402380D01*
X170361904Y-82402380D01*
X171885714Y-82402380D02*
X171314285Y-82402380D01*
X171600000Y-82402380D02*
X171600000Y-81402380D01*
X171504761Y-81545238D01*
X171409523Y-81640476D01*
X171314285Y-81688095D01*
D14*
X170028571Y-78650000D02*
X170742857Y-78650000D01*
X169885714Y-79078571D02*
X170385714Y-77578571D01*
X170885714Y-79078571D01*
X171671428Y-77578571D02*
X171814285Y-77578571D01*
X171957142Y-77650000D01*
X172028571Y-77721428D01*
X172100000Y-77864285D01*
X172171428Y-78150000D01*
X172171428Y-78507142D01*
X172100000Y-78792857D01*
X172028571Y-78935714D01*
X171957142Y-79007142D01*
X171814285Y-79078571D01*
X171671428Y-79078571D01*
X171528571Y-79007142D01*
X171457142Y-78935714D01*
X171385714Y-78792857D01*
X171314285Y-78507142D01*
X171314285Y-78150000D01*
X171385714Y-77864285D01*
X171457142Y-77721428D01*
X171528571Y-77650000D01*
X171671428Y-77578571D01*
%LPC*%
G36*
G01*
X159700000Y-113349999D02*
X159700000Y-114250001D01*
G75*
G02*
X159450001Y-114500000I-249999J0D01*
G01*
X158749999Y-114500000D01*
G75*
G02*
X158500000Y-114250001I0J249999D01*
G01*
X158500000Y-113349999D01*
G75*
G02*
X158749999Y-113100000I249999J0D01*
G01*
X159450001Y-113100000D01*
G75*
G02*
X159700000Y-113349999I0J-249999D01*
G01*
G37*
G36*
G01*
X161700000Y-113349999D02*
X161700000Y-114250001D01*
G75*
G02*
X161450001Y-114500000I-249999J0D01*
G01*
X160749999Y-114500000D01*
G75*
G02*
X160500000Y-114250001I0J249999D01*
G01*
X160500000Y-113349999D01*
G75*
G02*
X160749999Y-113100000I249999J0D01*
G01*
X161450001Y-113100000D01*
G75*
G02*
X161700000Y-113349999I0J-249999D01*
G01*
G37*
G36*
G01*
X159700000Y-53949999D02*
X159700000Y-54850001D01*
G75*
G02*
X159450001Y-55100000I-249999J0D01*
G01*
X158749999Y-55100000D01*
G75*
G02*
X158500000Y-54850001I0J249999D01*
G01*
X158500000Y-53949999D01*
G75*
G02*
X158749999Y-53700000I249999J0D01*
G01*
X159450001Y-53700000D01*
G75*
G02*
X159700000Y-53949999I0J-249999D01*
G01*
G37*
G36*
G01*
X161700000Y-53949999D02*
X161700000Y-54850001D01*
G75*
G02*
X161450001Y-55100000I-249999J0D01*
G01*
X160749999Y-55100000D01*
G75*
G02*
X160500000Y-54850001I0J249999D01*
G01*
X160500000Y-53949999D01*
G75*
G02*
X160749999Y-53700000I249999J0D01*
G01*
X161450001Y-53700000D01*
G75*
G02*
X161700000Y-53949999I0J-249999D01*
G01*
G37*
G36*
G01*
X140100000Y-131050001D02*
X140100000Y-130149999D01*
G75*
G02*
X140349999Y-129900000I249999J0D01*
G01*
X141050001Y-129900000D01*
G75*
G02*
X141300000Y-130149999I0J-249999D01*
G01*
X141300000Y-131050001D01*
G75*
G02*
X141050001Y-131300000I-249999J0D01*
G01*
X140349999Y-131300000D01*
G75*
G02*
X140100000Y-131050001I0J249999D01*
G01*
G37*
G36*
G01*
X138100000Y-131050001D02*
X138100000Y-130149999D01*
G75*
G02*
X138349999Y-129900000I249999J0D01*
G01*
X139050001Y-129900000D01*
G75*
G02*
X139300000Y-130149999I0J-249999D01*
G01*
X139300000Y-131050001D01*
G75*
G02*
X139050001Y-131300000I-249999J0D01*
G01*
X138349999Y-131300000D01*
G75*
G02*
X138100000Y-131050001I0J249999D01*
G01*
G37*
G36*
G01*
X140300000Y-70650001D02*
X140300000Y-69749999D01*
G75*
G02*
X140549999Y-69500000I249999J0D01*
G01*
X141250001Y-69500000D01*
G75*
G02*
X141500000Y-69749999I0J-249999D01*
G01*
X141500000Y-70650001D01*
G75*
G02*
X141250001Y-70900000I-249999J0D01*
G01*
X140549999Y-70900000D01*
G75*
G02*
X140300000Y-70650001I0J249999D01*
G01*
G37*
G36*
G01*
X138300000Y-70650001D02*
X138300000Y-69749999D01*
G75*
G02*
X138549999Y-69500000I249999J0D01*
G01*
X139250001Y-69500000D01*
G75*
G02*
X139500000Y-69749999I0J-249999D01*
G01*
X139500000Y-70650001D01*
G75*
G02*
X139250001Y-70900000I-249999J0D01*
G01*
X138549999Y-70900000D01*
G75*
G02*
X138300000Y-70650001I0J249999D01*
G01*
G37*
G36*
G01*
X160550000Y-116750001D02*
X160550000Y-115849999D01*
G75*
G02*
X160799999Y-115600000I249999J0D01*
G01*
X161450001Y-115600000D01*
G75*
G02*
X161700000Y-115849999I0J-249999D01*
G01*
X161700000Y-116750001D01*
G75*
G02*
X161450001Y-117000000I-249999J0D01*
G01*
X160799999Y-117000000D01*
G75*
G02*
X160550000Y-116750001I0J249999D01*
G01*
G37*
G36*
G01*
X158500000Y-116750001D02*
X158500000Y-115849999D01*
G75*
G02*
X158749999Y-115600000I249999J0D01*
G01*
X159400001Y-115600000D01*
G75*
G02*
X159650000Y-115849999I0J-249999D01*
G01*
X159650000Y-116750001D01*
G75*
G02*
X159400001Y-117000000I-249999J0D01*
G01*
X158749999Y-117000000D01*
G75*
G02*
X158500000Y-116750001I0J249999D01*
G01*
G37*
G36*
G01*
X160550000Y-57350001D02*
X160550000Y-56449999D01*
G75*
G02*
X160799999Y-56200000I249999J0D01*
G01*
X161450001Y-56200000D01*
G75*
G02*
X161700000Y-56449999I0J-249999D01*
G01*
X161700000Y-57350001D01*
G75*
G02*
X161450001Y-57600000I-249999J0D01*
G01*
X160799999Y-57600000D01*
G75*
G02*
X160550000Y-57350001I0J249999D01*
G01*
G37*
G36*
G01*
X158500000Y-57350001D02*
X158500000Y-56449999D01*
G75*
G02*
X158749999Y-56200000I249999J0D01*
G01*
X159400001Y-56200000D01*
G75*
G02*
X159650000Y-56449999I0J-249999D01*
G01*
X159650000Y-57350001D01*
G75*
G02*
X159400001Y-57600000I-249999J0D01*
G01*
X158749999Y-57600000D01*
G75*
G02*
X158500000Y-57350001I0J249999D01*
G01*
G37*
G36*
G01*
X135150000Y-131050001D02*
X135150000Y-130149999D01*
G75*
G02*
X135399999Y-129900000I249999J0D01*
G01*
X136050001Y-129900000D01*
G75*
G02*
X136300000Y-130149999I0J-249999D01*
G01*
X136300000Y-131050001D01*
G75*
G02*
X136050001Y-131300000I-249999J0D01*
G01*
X135399999Y-131300000D01*
G75*
G02*
X135150000Y-131050001I0J249999D01*
G01*
G37*
G36*
G01*
X133100000Y-131050001D02*
X133100000Y-130149999D01*
G75*
G02*
X133349999Y-129900000I249999J0D01*
G01*
X134000001Y-129900000D01*
G75*
G02*
X134250000Y-130149999I0J-249999D01*
G01*
X134250000Y-131050001D01*
G75*
G02*
X134000001Y-131300000I-249999J0D01*
G01*
X133349999Y-131300000D01*
G75*
G02*
X133100000Y-131050001I0J249999D01*
G01*
G37*
G36*
G01*
X135150000Y-70650001D02*
X135150000Y-69749999D01*
G75*
G02*
X135399999Y-69500000I249999J0D01*
G01*
X136050001Y-69500000D01*
G75*
G02*
X136300000Y-69749999I0J-249999D01*
G01*
X136300000Y-70650001D01*
G75*
G02*
X136050001Y-70900000I-249999J0D01*
G01*
X135399999Y-70900000D01*
G75*
G02*
X135150000Y-70650001I0J249999D01*
G01*
G37*
G36*
G01*
X133100000Y-70650001D02*
X133100000Y-69749999D01*
G75*
G02*
X133349999Y-69500000I249999J0D01*
G01*
X134000001Y-69500000D01*
G75*
G02*
X134250000Y-69749999I0J-249999D01*
G01*
X134250000Y-70650001D01*
G75*
G02*
X134000001Y-70900000I-249999J0D01*
G01*
X133349999Y-70900000D01*
G75*
G02*
X133100000Y-70650001I0J249999D01*
G01*
G37*
G36*
G01*
X122850000Y-123425000D02*
X122850000Y-124375000D01*
G75*
G02*
X122600000Y-124625000I-250000J0D01*
G01*
X121925000Y-124625000D01*
G75*
G02*
X121675000Y-124375000I0J250000D01*
G01*
X121675000Y-123425000D01*
G75*
G02*
X121925000Y-123175000I250000J0D01*
G01*
X122600000Y-123175000D01*
G75*
G02*
X122850000Y-123425000I0J-250000D01*
G01*
G37*
G36*
G01*
X124925000Y-123425000D02*
X124925000Y-124375000D01*
G75*
G02*
X124675000Y-124625000I-250000J0D01*
G01*
X124000000Y-124625000D01*
G75*
G02*
X123750000Y-124375000I0J250000D01*
G01*
X123750000Y-123425000D01*
G75*
G02*
X124000000Y-123175000I250000J0D01*
G01*
X124675000Y-123175000D01*
G75*
G02*
X124925000Y-123425000I0J-250000D01*
G01*
G37*
G36*
G01*
X156750000Y-123425000D02*
X156750000Y-124375000D01*
G75*
G02*
X156500000Y-124625000I-250000J0D01*
G01*
X155825000Y-124625000D01*
G75*
G02*
X155575000Y-124375000I0J250000D01*
G01*
X155575000Y-123425000D01*
G75*
G02*
X155825000Y-123175000I250000J0D01*
G01*
X156500000Y-123175000D01*
G75*
G02*
X156750000Y-123425000I0J-250000D01*
G01*
G37*
G36*
G01*
X158825000Y-123425000D02*
X158825000Y-124375000D01*
G75*
G02*
X158575000Y-124625000I-250000J0D01*
G01*
X157900000Y-124625000D01*
G75*
G02*
X157650000Y-124375000I0J250000D01*
G01*
X157650000Y-123425000D01*
G75*
G02*
X157900000Y-123175000I250000J0D01*
G01*
X158575000Y-123175000D01*
G75*
G02*
X158825000Y-123425000I0J-250000D01*
G01*
G37*
G36*
G01*
X122750000Y-64025000D02*
X122750000Y-64975000D01*
G75*
G02*
X122500000Y-65225000I-250000J0D01*
G01*
X121825000Y-65225000D01*
G75*
G02*
X121575000Y-64975000I0J250000D01*
G01*
X121575000Y-64025000D01*
G75*
G02*
X121825000Y-63775000I250000J0D01*
G01*
X122500000Y-63775000D01*
G75*
G02*
X122750000Y-64025000I0J-250000D01*
G01*
G37*
G36*
G01*
X124825000Y-64025000D02*
X124825000Y-64975000D01*
G75*
G02*
X124575000Y-65225000I-250000J0D01*
G01*
X123900000Y-65225000D01*
G75*
G02*
X123650000Y-64975000I0J250000D01*
G01*
X123650000Y-64025000D01*
G75*
G02*
X123900000Y-63775000I250000J0D01*
G01*
X124575000Y-63775000D01*
G75*
G02*
X124825000Y-64025000I0J-250000D01*
G01*
G37*
G36*
G01*
X156850000Y-64025000D02*
X156850000Y-64975000D01*
G75*
G02*
X156600000Y-65225000I-250000J0D01*
G01*
X155925000Y-65225000D01*
G75*
G02*
X155675000Y-64975000I0J250000D01*
G01*
X155675000Y-64025000D01*
G75*
G02*
X155925000Y-63775000I250000J0D01*
G01*
X156600000Y-63775000D01*
G75*
G02*
X156850000Y-64025000I0J-250000D01*
G01*
G37*
G36*
G01*
X158925000Y-64025000D02*
X158925000Y-64975000D01*
G75*
G02*
X158675000Y-65225000I-250000J0D01*
G01*
X158000000Y-65225000D01*
G75*
G02*
X157750000Y-64975000I0J250000D01*
G01*
X157750000Y-64025000D01*
G75*
G02*
X158000000Y-63775000I250000J0D01*
G01*
X158675000Y-63775000D01*
G75*
G02*
X158925000Y-64025000I0J-250000D01*
G01*
G37*
G36*
G01*
X110550000Y-94225000D02*
X110550000Y-95175000D01*
G75*
G02*
X110300000Y-95425000I-250000J0D01*
G01*
X109625000Y-95425000D01*
G75*
G02*
X109375000Y-95175000I0J250000D01*
G01*
X109375000Y-94225000D01*
G75*
G02*
X109625000Y-93975000I250000J0D01*
G01*
X110300000Y-93975000D01*
G75*
G02*
X110550000Y-94225000I0J-250000D01*
G01*
G37*
G36*
G01*
X112625000Y-94225000D02*
X112625000Y-95175000D01*
G75*
G02*
X112375000Y-95425000I-250000J0D01*
G01*
X111700000Y-95425000D01*
G75*
G02*
X111450000Y-95175000I0J250000D01*
G01*
X111450000Y-94225000D01*
G75*
G02*
X111700000Y-93975000I250000J0D01*
G01*
X112375000Y-93975000D01*
G75*
G02*
X112625000Y-94225000I0J-250000D01*
G01*
G37*
G36*
G01*
X110550000Y-74025000D02*
X110550000Y-74975000D01*
G75*
G02*
X110300000Y-75225000I-250000J0D01*
G01*
X109625000Y-75225000D01*
G75*
G02*
X109375000Y-74975000I0J250000D01*
G01*
X109375000Y-74025000D01*
G75*
G02*
X109625000Y-73775000I250000J0D01*
G01*
X110300000Y-73775000D01*
G75*
G02*
X110550000Y-74025000I0J-250000D01*
G01*
G37*
G36*
G01*
X112625000Y-74025000D02*
X112625000Y-74975000D01*
G75*
G02*
X112375000Y-75225000I-250000J0D01*
G01*
X111700000Y-75225000D01*
G75*
G02*
X111450000Y-74975000I0J250000D01*
G01*
X111450000Y-74025000D01*
G75*
G02*
X111700000Y-73775000I250000J0D01*
G01*
X112375000Y-73775000D01*
G75*
G02*
X112625000Y-74025000I0J-250000D01*
G01*
G37*
D15*
X119500000Y-64520000D03*
X96640000Y-56900000D03*
X116960000Y-64520000D03*
X99180000Y-56900000D03*
X114420000Y-64520000D03*
X101720000Y-56900000D03*
X111880000Y-64520000D03*
X104260000Y-56900000D03*
X109340000Y-64520000D03*
X106800000Y-56900000D03*
X106800000Y-64520000D03*
X109340000Y-56900000D03*
X104260000Y-64520000D03*
X111880000Y-56900000D03*
X101720000Y-64520000D03*
X114420000Y-56900000D03*
X99180000Y-64520000D03*
X116960000Y-56900000D03*
X96640000Y-64520000D03*
D16*
X119500000Y-56900000D03*
D15*
X153500000Y-64520000D03*
X130640000Y-56900000D03*
X150960000Y-64520000D03*
X133180000Y-56900000D03*
X148420000Y-64520000D03*
X135720000Y-56900000D03*
X145880000Y-64520000D03*
X138260000Y-56900000D03*
X143340000Y-64520000D03*
X140800000Y-56900000D03*
X140800000Y-64520000D03*
X143340000Y-56900000D03*
X138260000Y-64520000D03*
X145880000Y-56900000D03*
X135720000Y-64520000D03*
X148420000Y-56900000D03*
X133180000Y-64520000D03*
X150960000Y-56900000D03*
X130640000Y-64520000D03*
D16*
X153500000Y-56900000D03*
D17*
X180360000Y-124380000D03*
X182900000Y-124380000D03*
X180360000Y-121840000D03*
X182900000Y-121840000D03*
X180360000Y-119300000D03*
X182900000Y-119300000D03*
X180360000Y-116760000D03*
X182900000Y-116760000D03*
X180360000Y-114220000D03*
X182900000Y-114220000D03*
X180360000Y-111680000D03*
X182900000Y-111680000D03*
X180360000Y-109140000D03*
X182900000Y-109140000D03*
X180360000Y-106600000D03*
D18*
X182900000Y-106600000D03*
D15*
X119500000Y-123920000D03*
X96640000Y-116300000D03*
X116960000Y-123920000D03*
X99180000Y-116300000D03*
X114420000Y-123920000D03*
X101720000Y-116300000D03*
X111880000Y-123920000D03*
X104260000Y-116300000D03*
X109340000Y-123920000D03*
X106800000Y-116300000D03*
X106800000Y-123920000D03*
X109340000Y-116300000D03*
X104260000Y-123920000D03*
X111880000Y-116300000D03*
X101720000Y-123920000D03*
X114420000Y-116300000D03*
X99180000Y-123920000D03*
X116960000Y-116300000D03*
X96640000Y-123920000D03*
D16*
X119500000Y-116300000D03*
D15*
X153500000Y-123920000D03*
X130640000Y-116300000D03*
X150960000Y-123920000D03*
X133180000Y-116300000D03*
X148420000Y-123920000D03*
X135720000Y-116300000D03*
X145880000Y-123920000D03*
X138260000Y-116300000D03*
X143340000Y-123920000D03*
X140800000Y-116300000D03*
X140800000Y-123920000D03*
X143340000Y-116300000D03*
X138260000Y-123920000D03*
X145880000Y-116300000D03*
X135720000Y-123920000D03*
X148420000Y-116300000D03*
X133180000Y-123920000D03*
X150960000Y-116300000D03*
X130640000Y-123920000D03*
D16*
X153500000Y-116300000D03*
G36*
G01*
X106825000Y-96805000D02*
X106825000Y-96505000D01*
G75*
G02*
X106975000Y-96355000I150000J0D01*
G01*
X108725000Y-96355000D01*
G75*
G02*
X108875000Y-96505000I0J-150000D01*
G01*
X108875000Y-96805000D01*
G75*
G02*
X108725000Y-96955000I-150000J0D01*
G01*
X106975000Y-96955000D01*
G75*
G02*
X106825000Y-96805000I0J150000D01*
G01*
G37*
G36*
G01*
X106825000Y-98075000D02*
X106825000Y-97775000D01*
G75*
G02*
X106975000Y-97625000I150000J0D01*
G01*
X108725000Y-97625000D01*
G75*
G02*
X108875000Y-97775000I0J-150000D01*
G01*
X108875000Y-98075000D01*
G75*
G02*
X108725000Y-98225000I-150000J0D01*
G01*
X106975000Y-98225000D01*
G75*
G02*
X106825000Y-98075000I0J150000D01*
G01*
G37*
G36*
G01*
X106825000Y-99345000D02*
X106825000Y-99045000D01*
G75*
G02*
X106975000Y-98895000I150000J0D01*
G01*
X108725000Y-98895000D01*
G75*
G02*
X108875000Y-99045000I0J-150000D01*
G01*
X108875000Y-99345000D01*
G75*
G02*
X108725000Y-99495000I-150000J0D01*
G01*
X106975000Y-99495000D01*
G75*
G02*
X106825000Y-99345000I0J150000D01*
G01*
G37*
G36*
G01*
X106825000Y-100615000D02*
X106825000Y-100315000D01*
G75*
G02*
X106975000Y-100165000I150000J0D01*
G01*
X108725000Y-100165000D01*
G75*
G02*
X108875000Y-100315000I0J-150000D01*
G01*
X108875000Y-100615000D01*
G75*
G02*
X108725000Y-100765000I-150000J0D01*
G01*
X106975000Y-100765000D01*
G75*
G02*
X106825000Y-100615000I0J150000D01*
G01*
G37*
G36*
G01*
X106825000Y-101885000D02*
X106825000Y-101585000D01*
G75*
G02*
X106975000Y-101435000I150000J0D01*
G01*
X108725000Y-101435000D01*
G75*
G02*
X108875000Y-101585000I0J-150000D01*
G01*
X108875000Y-101885000D01*
G75*
G02*
X108725000Y-102035000I-150000J0D01*
G01*
X106975000Y-102035000D01*
G75*
G02*
X106825000Y-101885000I0J150000D01*
G01*
G37*
G36*
G01*
X106825000Y-103155000D02*
X106825000Y-102855000D01*
G75*
G02*
X106975000Y-102705000I150000J0D01*
G01*
X108725000Y-102705000D01*
G75*
G02*
X108875000Y-102855000I0J-150000D01*
G01*
X108875000Y-103155000D01*
G75*
G02*
X108725000Y-103305000I-150000J0D01*
G01*
X106975000Y-103305000D01*
G75*
G02*
X106825000Y-103155000I0J150000D01*
G01*
G37*
G36*
G01*
X106825000Y-104425000D02*
X106825000Y-104125000D01*
G75*
G02*
X106975000Y-103975000I150000J0D01*
G01*
X108725000Y-103975000D01*
G75*
G02*
X108875000Y-104125000I0J-150000D01*
G01*
X108875000Y-104425000D01*
G75*
G02*
X108725000Y-104575000I-150000J0D01*
G01*
X106975000Y-104575000D01*
G75*
G02*
X106825000Y-104425000I0J150000D01*
G01*
G37*
G36*
G01*
X106825000Y-105695000D02*
X106825000Y-105395000D01*
G75*
G02*
X106975000Y-105245000I150000J0D01*
G01*
X108725000Y-105245000D01*
G75*
G02*
X108875000Y-105395000I0J-150000D01*
G01*
X108875000Y-105695000D01*
G75*
G02*
X108725000Y-105845000I-150000J0D01*
G01*
X106975000Y-105845000D01*
G75*
G02*
X106825000Y-105695000I0J150000D01*
G01*
G37*
G36*
G01*
X97525000Y-105695000D02*
X97525000Y-105395000D01*
G75*
G02*
X97675000Y-105245000I150000J0D01*
G01*
X99425000Y-105245000D01*
G75*
G02*
X99575000Y-105395000I0J-150000D01*
G01*
X99575000Y-105695000D01*
G75*
G02*
X99425000Y-105845000I-150000J0D01*
G01*
X97675000Y-105845000D01*
G75*
G02*
X97525000Y-105695000I0J150000D01*
G01*
G37*
G36*
G01*
X97525000Y-104425000D02*
X97525000Y-104125000D01*
G75*
G02*
X97675000Y-103975000I150000J0D01*
G01*
X99425000Y-103975000D01*
G75*
G02*
X99575000Y-104125000I0J-150000D01*
G01*
X99575000Y-104425000D01*
G75*
G02*
X99425000Y-104575000I-150000J0D01*
G01*
X97675000Y-104575000D01*
G75*
G02*
X97525000Y-104425000I0J150000D01*
G01*
G37*
G36*
G01*
X97525000Y-103155000D02*
X97525000Y-102855000D01*
G75*
G02*
X97675000Y-102705000I150000J0D01*
G01*
X99425000Y-102705000D01*
G75*
G02*
X99575000Y-102855000I0J-150000D01*
G01*
X99575000Y-103155000D01*
G75*
G02*
X99425000Y-103305000I-150000J0D01*
G01*
X97675000Y-103305000D01*
G75*
G02*
X97525000Y-103155000I0J150000D01*
G01*
G37*
G36*
G01*
X97525000Y-101885000D02*
X97525000Y-101585000D01*
G75*
G02*
X97675000Y-101435000I150000J0D01*
G01*
X99425000Y-101435000D01*
G75*
G02*
X99575000Y-101585000I0J-150000D01*
G01*
X99575000Y-101885000D01*
G75*
G02*
X99425000Y-102035000I-150000J0D01*
G01*
X97675000Y-102035000D01*
G75*
G02*
X97525000Y-101885000I0J150000D01*
G01*
G37*
G36*
G01*
X97525000Y-100615000D02*
X97525000Y-100315000D01*
G75*
G02*
X97675000Y-100165000I150000J0D01*
G01*
X99425000Y-100165000D01*
G75*
G02*
X99575000Y-100315000I0J-150000D01*
G01*
X99575000Y-100615000D01*
G75*
G02*
X99425000Y-100765000I-150000J0D01*
G01*
X97675000Y-100765000D01*
G75*
G02*
X97525000Y-100615000I0J150000D01*
G01*
G37*
G36*
G01*
X97525000Y-99345000D02*
X97525000Y-99045000D01*
G75*
G02*
X97675000Y-98895000I150000J0D01*
G01*
X99425000Y-98895000D01*
G75*
G02*
X99575000Y-99045000I0J-150000D01*
G01*
X99575000Y-99345000D01*
G75*
G02*
X99425000Y-99495000I-150000J0D01*
G01*
X97675000Y-99495000D01*
G75*
G02*
X97525000Y-99345000I0J150000D01*
G01*
G37*
G36*
G01*
X97525000Y-98075000D02*
X97525000Y-97775000D01*
G75*
G02*
X97675000Y-97625000I150000J0D01*
G01*
X99425000Y-97625000D01*
G75*
G02*
X99575000Y-97775000I0J-150000D01*
G01*
X99575000Y-98075000D01*
G75*
G02*
X99425000Y-98225000I-150000J0D01*
G01*
X97675000Y-98225000D01*
G75*
G02*
X97525000Y-98075000I0J150000D01*
G01*
G37*
G36*
G01*
X97525000Y-96805000D02*
X97525000Y-96505000D01*
G75*
G02*
X97675000Y-96355000I150000J0D01*
G01*
X99425000Y-96355000D01*
G75*
G02*
X99575000Y-96505000I0J-150000D01*
G01*
X99575000Y-96805000D01*
G75*
G02*
X99425000Y-96955000I-150000J0D01*
G01*
X97675000Y-96955000D01*
G75*
G02*
X97525000Y-96805000I0J150000D01*
G01*
G37*
G36*
G01*
X106825000Y-76605000D02*
X106825000Y-76305000D01*
G75*
G02*
X106975000Y-76155000I150000J0D01*
G01*
X108725000Y-76155000D01*
G75*
G02*
X108875000Y-76305000I0J-150000D01*
G01*
X108875000Y-76605000D01*
G75*
G02*
X108725000Y-76755000I-150000J0D01*
G01*
X106975000Y-76755000D01*
G75*
G02*
X106825000Y-76605000I0J150000D01*
G01*
G37*
G36*
G01*
X106825000Y-77875000D02*
X106825000Y-77575000D01*
G75*
G02*
X106975000Y-77425000I150000J0D01*
G01*
X108725000Y-77425000D01*
G75*
G02*
X108875000Y-77575000I0J-150000D01*
G01*
X108875000Y-77875000D01*
G75*
G02*
X108725000Y-78025000I-150000J0D01*
G01*
X106975000Y-78025000D01*
G75*
G02*
X106825000Y-77875000I0J150000D01*
G01*
G37*
G36*
G01*
X106825000Y-79145000D02*
X106825000Y-78845000D01*
G75*
G02*
X106975000Y-78695000I150000J0D01*
G01*
X108725000Y-78695000D01*
G75*
G02*
X108875000Y-78845000I0J-150000D01*
G01*
X108875000Y-79145000D01*
G75*
G02*
X108725000Y-79295000I-150000J0D01*
G01*
X106975000Y-79295000D01*
G75*
G02*
X106825000Y-79145000I0J150000D01*
G01*
G37*
G36*
G01*
X106825000Y-80415000D02*
X106825000Y-80115000D01*
G75*
G02*
X106975000Y-79965000I150000J0D01*
G01*
X108725000Y-79965000D01*
G75*
G02*
X108875000Y-80115000I0J-150000D01*
G01*
X108875000Y-80415000D01*
G75*
G02*
X108725000Y-80565000I-150000J0D01*
G01*
X106975000Y-80565000D01*
G75*
G02*
X106825000Y-80415000I0J150000D01*
G01*
G37*
G36*
G01*
X106825000Y-81685000D02*
X106825000Y-81385000D01*
G75*
G02*
X106975000Y-81235000I150000J0D01*
G01*
X108725000Y-81235000D01*
G75*
G02*
X108875000Y-81385000I0J-150000D01*
G01*
X108875000Y-81685000D01*
G75*
G02*
X108725000Y-81835000I-150000J0D01*
G01*
X106975000Y-81835000D01*
G75*
G02*
X106825000Y-81685000I0J150000D01*
G01*
G37*
G36*
G01*
X106825000Y-82955000D02*
X106825000Y-82655000D01*
G75*
G02*
X106975000Y-82505000I150000J0D01*
G01*
X108725000Y-82505000D01*
G75*
G02*
X108875000Y-82655000I0J-150000D01*
G01*
X108875000Y-82955000D01*
G75*
G02*
X108725000Y-83105000I-150000J0D01*
G01*
X106975000Y-83105000D01*
G75*
G02*
X106825000Y-82955000I0J150000D01*
G01*
G37*
G36*
G01*
X106825000Y-84225000D02*
X106825000Y-83925000D01*
G75*
G02*
X106975000Y-83775000I150000J0D01*
G01*
X108725000Y-83775000D01*
G75*
G02*
X108875000Y-83925000I0J-150000D01*
G01*
X108875000Y-84225000D01*
G75*
G02*
X108725000Y-84375000I-150000J0D01*
G01*
X106975000Y-84375000D01*
G75*
G02*
X106825000Y-84225000I0J150000D01*
G01*
G37*
G36*
G01*
X106825000Y-85495000D02*
X106825000Y-85195000D01*
G75*
G02*
X106975000Y-85045000I150000J0D01*
G01*
X108725000Y-85045000D01*
G75*
G02*
X108875000Y-85195000I0J-150000D01*
G01*
X108875000Y-85495000D01*
G75*
G02*
X108725000Y-85645000I-150000J0D01*
G01*
X106975000Y-85645000D01*
G75*
G02*
X106825000Y-85495000I0J150000D01*
G01*
G37*
G36*
G01*
X97525000Y-85495000D02*
X97525000Y-85195000D01*
G75*
G02*
X97675000Y-85045000I150000J0D01*
G01*
X99425000Y-85045000D01*
G75*
G02*
X99575000Y-85195000I0J-150000D01*
G01*
X99575000Y-85495000D01*
G75*
G02*
X99425000Y-85645000I-150000J0D01*
G01*
X97675000Y-85645000D01*
G75*
G02*
X97525000Y-85495000I0J150000D01*
G01*
G37*
G36*
G01*
X97525000Y-84225000D02*
X97525000Y-83925000D01*
G75*
G02*
X97675000Y-83775000I150000J0D01*
G01*
X99425000Y-83775000D01*
G75*
G02*
X99575000Y-83925000I0J-150000D01*
G01*
X99575000Y-84225000D01*
G75*
G02*
X99425000Y-84375000I-150000J0D01*
G01*
X97675000Y-84375000D01*
G75*
G02*
X97525000Y-84225000I0J150000D01*
G01*
G37*
G36*
G01*
X97525000Y-82955000D02*
X97525000Y-82655000D01*
G75*
G02*
X97675000Y-82505000I150000J0D01*
G01*
X99425000Y-82505000D01*
G75*
G02*
X99575000Y-82655000I0J-150000D01*
G01*
X99575000Y-82955000D01*
G75*
G02*
X99425000Y-83105000I-150000J0D01*
G01*
X97675000Y-83105000D01*
G75*
G02*
X97525000Y-82955000I0J150000D01*
G01*
G37*
G36*
G01*
X97525000Y-81685000D02*
X97525000Y-81385000D01*
G75*
G02*
X97675000Y-81235000I150000J0D01*
G01*
X99425000Y-81235000D01*
G75*
G02*
X99575000Y-81385000I0J-150000D01*
G01*
X99575000Y-81685000D01*
G75*
G02*
X99425000Y-81835000I-150000J0D01*
G01*
X97675000Y-81835000D01*
G75*
G02*
X97525000Y-81685000I0J150000D01*
G01*
G37*
G36*
G01*
X97525000Y-80415000D02*
X97525000Y-80115000D01*
G75*
G02*
X97675000Y-79965000I150000J0D01*
G01*
X99425000Y-79965000D01*
G75*
G02*
X99575000Y-80115000I0J-150000D01*
G01*
X99575000Y-80415000D01*
G75*
G02*
X99425000Y-80565000I-150000J0D01*
G01*
X97675000Y-80565000D01*
G75*
G02*
X97525000Y-80415000I0J150000D01*
G01*
G37*
G36*
G01*
X97525000Y-79145000D02*
X97525000Y-78845000D01*
G75*
G02*
X97675000Y-78695000I150000J0D01*
G01*
X99425000Y-78695000D01*
G75*
G02*
X99575000Y-78845000I0J-150000D01*
G01*
X99575000Y-79145000D01*
G75*
G02*
X99425000Y-79295000I-150000J0D01*
G01*
X97675000Y-79295000D01*
G75*
G02*
X97525000Y-79145000I0J150000D01*
G01*
G37*
G36*
G01*
X97525000Y-77875000D02*
X97525000Y-77575000D01*
G75*
G02*
X97675000Y-77425000I150000J0D01*
G01*
X99425000Y-77425000D01*
G75*
G02*
X99575000Y-77575000I0J-150000D01*
G01*
X99575000Y-77875000D01*
G75*
G02*
X99425000Y-78025000I-150000J0D01*
G01*
X97675000Y-78025000D01*
G75*
G02*
X97525000Y-77875000I0J150000D01*
G01*
G37*
G36*
G01*
X97525000Y-76605000D02*
X97525000Y-76305000D01*
G75*
G02*
X97675000Y-76155000I150000J0D01*
G01*
X99425000Y-76155000D01*
G75*
G02*
X99575000Y-76305000I0J-150000D01*
G01*
X99575000Y-76605000D01*
G75*
G02*
X99425000Y-76755000I-150000J0D01*
G01*
X97675000Y-76755000D01*
G75*
G02*
X97525000Y-76605000I0J150000D01*
G01*
G37*
G36*
G01*
X128500000Y-97950001D02*
X128500000Y-97049999D01*
G75*
G02*
X128749999Y-96800000I249999J0D01*
G01*
X129450001Y-96800000D01*
G75*
G02*
X129700000Y-97049999I0J-249999D01*
G01*
X129700000Y-97950001D01*
G75*
G02*
X129450001Y-98200000I-249999J0D01*
G01*
X128749999Y-98200000D01*
G75*
G02*
X128500000Y-97950001I0J249999D01*
G01*
G37*
G36*
G01*
X126500000Y-97950001D02*
X126500000Y-97049999D01*
G75*
G02*
X126749999Y-96800000I249999J0D01*
G01*
X127450001Y-96800000D01*
G75*
G02*
X127700000Y-97049999I0J-249999D01*
G01*
X127700000Y-97950001D01*
G75*
G02*
X127450001Y-98200000I-249999J0D01*
G01*
X126749999Y-98200000D01*
G75*
G02*
X126500000Y-97950001I0J249999D01*
G01*
G37*
G36*
G01*
X134642857Y-97950001D02*
X134642857Y-97049999D01*
G75*
G02*
X134892856Y-96800000I249999J0D01*
G01*
X135592858Y-96800000D01*
G75*
G02*
X135842857Y-97049999I0J-249999D01*
G01*
X135842857Y-97950001D01*
G75*
G02*
X135592858Y-98200000I-249999J0D01*
G01*
X134892856Y-98200000D01*
G75*
G02*
X134642857Y-97950001I0J249999D01*
G01*
G37*
G36*
G01*
X132642857Y-97950001D02*
X132642857Y-97049999D01*
G75*
G02*
X132892856Y-96800000I249999J0D01*
G01*
X133592858Y-96800000D01*
G75*
G02*
X133842857Y-97049999I0J-249999D01*
G01*
X133842857Y-97950001D01*
G75*
G02*
X133592858Y-98200000I-249999J0D01*
G01*
X132892856Y-98200000D01*
G75*
G02*
X132642857Y-97950001I0J249999D01*
G01*
G37*
G36*
G01*
X140785714Y-97950001D02*
X140785714Y-97049999D01*
G75*
G02*
X141035713Y-96800000I249999J0D01*
G01*
X141735715Y-96800000D01*
G75*
G02*
X141985714Y-97049999I0J-249999D01*
G01*
X141985714Y-97950001D01*
G75*
G02*
X141735715Y-98200000I-249999J0D01*
G01*
X141035713Y-98200000D01*
G75*
G02*
X140785714Y-97950001I0J249999D01*
G01*
G37*
G36*
G01*
X138785714Y-97950001D02*
X138785714Y-97049999D01*
G75*
G02*
X139035713Y-96800000I249999J0D01*
G01*
X139735715Y-96800000D01*
G75*
G02*
X139985714Y-97049999I0J-249999D01*
G01*
X139985714Y-97950001D01*
G75*
G02*
X139735715Y-98200000I-249999J0D01*
G01*
X139035713Y-98200000D01*
G75*
G02*
X138785714Y-97950001I0J249999D01*
G01*
G37*
G36*
G01*
X146928571Y-97950001D02*
X146928571Y-97049999D01*
G75*
G02*
X147178570Y-96800000I249999J0D01*
G01*
X147878572Y-96800000D01*
G75*
G02*
X148128571Y-97049999I0J-249999D01*
G01*
X148128571Y-97950001D01*
G75*
G02*
X147878572Y-98200000I-249999J0D01*
G01*
X147178570Y-98200000D01*
G75*
G02*
X146928571Y-97950001I0J249999D01*
G01*
G37*
G36*
G01*
X144928571Y-97950001D02*
X144928571Y-97049999D01*
G75*
G02*
X145178570Y-96800000I249999J0D01*
G01*
X145878572Y-96800000D01*
G75*
G02*
X146128571Y-97049999I0J-249999D01*
G01*
X146128571Y-97950001D01*
G75*
G02*
X145878572Y-98200000I-249999J0D01*
G01*
X145178570Y-98200000D01*
G75*
G02*
X144928571Y-97950001I0J249999D01*
G01*
G37*
G36*
G01*
X153071428Y-97950001D02*
X153071428Y-97049999D01*
G75*
G02*
X153321427Y-96800000I249999J0D01*
G01*
X154021429Y-96800000D01*
G75*
G02*
X154271428Y-97049999I0J-249999D01*
G01*
X154271428Y-97950001D01*
G75*
G02*
X154021429Y-98200000I-249999J0D01*
G01*
X153321427Y-98200000D01*
G75*
G02*
X153071428Y-97950001I0J249999D01*
G01*
G37*
G36*
G01*
X151071428Y-97950001D02*
X151071428Y-97049999D01*
G75*
G02*
X151321427Y-96800000I249999J0D01*
G01*
X152021429Y-96800000D01*
G75*
G02*
X152271428Y-97049999I0J-249999D01*
G01*
X152271428Y-97950001D01*
G75*
G02*
X152021429Y-98200000I-249999J0D01*
G01*
X151321427Y-98200000D01*
G75*
G02*
X151071428Y-97950001I0J249999D01*
G01*
G37*
G36*
G01*
X159214285Y-97950001D02*
X159214285Y-97049999D01*
G75*
G02*
X159464284Y-96800000I249999J0D01*
G01*
X160164286Y-96800000D01*
G75*
G02*
X160414285Y-97049999I0J-249999D01*
G01*
X160414285Y-97950001D01*
G75*
G02*
X160164286Y-98200000I-249999J0D01*
G01*
X159464284Y-98200000D01*
G75*
G02*
X159214285Y-97950001I0J249999D01*
G01*
G37*
G36*
G01*
X157214285Y-97950001D02*
X157214285Y-97049999D01*
G75*
G02*
X157464284Y-96800000I249999J0D01*
G01*
X158164286Y-96800000D01*
G75*
G02*
X158414285Y-97049999I0J-249999D01*
G01*
X158414285Y-97950001D01*
G75*
G02*
X158164286Y-98200000I-249999J0D01*
G01*
X157464284Y-98200000D01*
G75*
G02*
X157214285Y-97950001I0J249999D01*
G01*
G37*
G36*
G01*
X165357142Y-97950001D02*
X165357142Y-97049999D01*
G75*
G02*
X165607141Y-96800000I249999J0D01*
G01*
X166307143Y-96800000D01*
G75*
G02*
X166557142Y-97049999I0J-249999D01*
G01*
X166557142Y-97950001D01*
G75*
G02*
X166307143Y-98200000I-249999J0D01*
G01*
X165607141Y-98200000D01*
G75*
G02*
X165357142Y-97950001I0J249999D01*
G01*
G37*
G36*
G01*
X163357142Y-97950001D02*
X163357142Y-97049999D01*
G75*
G02*
X163607141Y-96800000I249999J0D01*
G01*
X164307143Y-96800000D01*
G75*
G02*
X164557142Y-97049999I0J-249999D01*
G01*
X164557142Y-97950001D01*
G75*
G02*
X164307143Y-98200000I-249999J0D01*
G01*
X163607141Y-98200000D01*
G75*
G02*
X163357142Y-97950001I0J249999D01*
G01*
G37*
G36*
G01*
X171500000Y-97950001D02*
X171500000Y-97049999D01*
G75*
G02*
X171749999Y-96800000I249999J0D01*
G01*
X172450001Y-96800000D01*
G75*
G02*
X172700000Y-97049999I0J-249999D01*
G01*
X172700000Y-97950001D01*
G75*
G02*
X172450001Y-98200000I-249999J0D01*
G01*
X171749999Y-98200000D01*
G75*
G02*
X171500000Y-97950001I0J249999D01*
G01*
G37*
G36*
G01*
X169500000Y-97950001D02*
X169500000Y-97049999D01*
G75*
G02*
X169749999Y-96800000I249999J0D01*
G01*
X170450001Y-96800000D01*
G75*
G02*
X170700000Y-97049999I0J-249999D01*
G01*
X170700000Y-97950001D01*
G75*
G02*
X170450001Y-98200000I-249999J0D01*
G01*
X169749999Y-98200000D01*
G75*
G02*
X169500000Y-97950001I0J249999D01*
G01*
G37*
G36*
G01*
X128500000Y-84950001D02*
X128500000Y-84049999D01*
G75*
G02*
X128749999Y-83800000I249999J0D01*
G01*
X129450001Y-83800000D01*
G75*
G02*
X129700000Y-84049999I0J-249999D01*
G01*
X129700000Y-84950001D01*
G75*
G02*
X129450001Y-85200000I-249999J0D01*
G01*
X128749999Y-85200000D01*
G75*
G02*
X128500000Y-84950001I0J249999D01*
G01*
G37*
G36*
G01*
X126500000Y-84950001D02*
X126500000Y-84049999D01*
G75*
G02*
X126749999Y-83800000I249999J0D01*
G01*
X127450001Y-83800000D01*
G75*
G02*
X127700000Y-84049999I0J-249999D01*
G01*
X127700000Y-84950001D01*
G75*
G02*
X127450001Y-85200000I-249999J0D01*
G01*
X126749999Y-85200000D01*
G75*
G02*
X126500000Y-84950001I0J249999D01*
G01*
G37*
G36*
G01*
X134642857Y-84950001D02*
X134642857Y-84049999D01*
G75*
G02*
X134892856Y-83800000I249999J0D01*
G01*
X135592858Y-83800000D01*
G75*
G02*
X135842857Y-84049999I0J-249999D01*
G01*
X135842857Y-84950001D01*
G75*
G02*
X135592858Y-85200000I-249999J0D01*
G01*
X134892856Y-85200000D01*
G75*
G02*
X134642857Y-84950001I0J249999D01*
G01*
G37*
G36*
G01*
X132642857Y-84950001D02*
X132642857Y-84049999D01*
G75*
G02*
X132892856Y-83800000I249999J0D01*
G01*
X133592858Y-83800000D01*
G75*
G02*
X133842857Y-84049999I0J-249999D01*
G01*
X133842857Y-84950001D01*
G75*
G02*
X133592858Y-85200000I-249999J0D01*
G01*
X132892856Y-85200000D01*
G75*
G02*
X132642857Y-84950001I0J249999D01*
G01*
G37*
G36*
G01*
X140785714Y-84950001D02*
X140785714Y-84049999D01*
G75*
G02*
X141035713Y-83800000I249999J0D01*
G01*
X141735715Y-83800000D01*
G75*
G02*
X141985714Y-84049999I0J-249999D01*
G01*
X141985714Y-84950001D01*
G75*
G02*
X141735715Y-85200000I-249999J0D01*
G01*
X141035713Y-85200000D01*
G75*
G02*
X140785714Y-84950001I0J249999D01*
G01*
G37*
G36*
G01*
X138785714Y-84950001D02*
X138785714Y-84049999D01*
G75*
G02*
X139035713Y-83800000I249999J0D01*
G01*
X139735715Y-83800000D01*
G75*
G02*
X139985714Y-84049999I0J-249999D01*
G01*
X139985714Y-84950001D01*
G75*
G02*
X139735715Y-85200000I-249999J0D01*
G01*
X139035713Y-85200000D01*
G75*
G02*
X138785714Y-84950001I0J249999D01*
G01*
G37*
G36*
G01*
X146928571Y-84950001D02*
X146928571Y-84049999D01*
G75*
G02*
X147178570Y-83800000I249999J0D01*
G01*
X147878572Y-83800000D01*
G75*
G02*
X148128571Y-84049999I0J-249999D01*
G01*
X148128571Y-84950001D01*
G75*
G02*
X147878572Y-85200000I-249999J0D01*
G01*
X147178570Y-85200000D01*
G75*
G02*
X146928571Y-84950001I0J249999D01*
G01*
G37*
G36*
G01*
X144928571Y-84950001D02*
X144928571Y-84049999D01*
G75*
G02*
X145178570Y-83800000I249999J0D01*
G01*
X145878572Y-83800000D01*
G75*
G02*
X146128571Y-84049999I0J-249999D01*
G01*
X146128571Y-84950001D01*
G75*
G02*
X145878572Y-85200000I-249999J0D01*
G01*
X145178570Y-85200000D01*
G75*
G02*
X144928571Y-84950001I0J249999D01*
G01*
G37*
G36*
G01*
X153071428Y-84950001D02*
X153071428Y-84049999D01*
G75*
G02*
X153321427Y-83800000I249999J0D01*
G01*
X154021429Y-83800000D01*
G75*
G02*
X154271428Y-84049999I0J-249999D01*
G01*
X154271428Y-84950001D01*
G75*
G02*
X154021429Y-85200000I-249999J0D01*
G01*
X153321427Y-85200000D01*
G75*
G02*
X153071428Y-84950001I0J249999D01*
G01*
G37*
G36*
G01*
X151071428Y-84950001D02*
X151071428Y-84049999D01*
G75*
G02*
X151321427Y-83800000I249999J0D01*
G01*
X152021429Y-83800000D01*
G75*
G02*
X152271428Y-84049999I0J-249999D01*
G01*
X152271428Y-84950001D01*
G75*
G02*
X152021429Y-85200000I-249999J0D01*
G01*
X151321427Y-85200000D01*
G75*
G02*
X151071428Y-84950001I0J249999D01*
G01*
G37*
G36*
G01*
X159214285Y-84950001D02*
X159214285Y-84049999D01*
G75*
G02*
X159464284Y-83800000I249999J0D01*
G01*
X160164286Y-83800000D01*
G75*
G02*
X160414285Y-84049999I0J-249999D01*
G01*
X160414285Y-84950001D01*
G75*
G02*
X160164286Y-85200000I-249999J0D01*
G01*
X159464284Y-85200000D01*
G75*
G02*
X159214285Y-84950001I0J249999D01*
G01*
G37*
G36*
G01*
X157214285Y-84950001D02*
X157214285Y-84049999D01*
G75*
G02*
X157464284Y-83800000I249999J0D01*
G01*
X158164286Y-83800000D01*
G75*
G02*
X158414285Y-84049999I0J-249999D01*
G01*
X158414285Y-84950001D01*
G75*
G02*
X158164286Y-85200000I-249999J0D01*
G01*
X157464284Y-85200000D01*
G75*
G02*
X157214285Y-84950001I0J249999D01*
G01*
G37*
G36*
G01*
X165357142Y-84950001D02*
X165357142Y-84049999D01*
G75*
G02*
X165607141Y-83800000I249999J0D01*
G01*
X166307143Y-83800000D01*
G75*
G02*
X166557142Y-84049999I0J-249999D01*
G01*
X166557142Y-84950001D01*
G75*
G02*
X166307143Y-85200000I-249999J0D01*
G01*
X165607141Y-85200000D01*
G75*
G02*
X165357142Y-84950001I0J249999D01*
G01*
G37*
G36*
G01*
X163357142Y-84950001D02*
X163357142Y-84049999D01*
G75*
G02*
X163607141Y-83800000I249999J0D01*
G01*
X164307143Y-83800000D01*
G75*
G02*
X164557142Y-84049999I0J-249999D01*
G01*
X164557142Y-84950001D01*
G75*
G02*
X164307143Y-85200000I-249999J0D01*
G01*
X163607141Y-85200000D01*
G75*
G02*
X163357142Y-84950001I0J249999D01*
G01*
G37*
G36*
G01*
X171500000Y-84950001D02*
X171500000Y-84049999D01*
G75*
G02*
X171749999Y-83800000I249999J0D01*
G01*
X172450001Y-83800000D01*
G75*
G02*
X172700000Y-84049999I0J-249999D01*
G01*
X172700000Y-84950001D01*
G75*
G02*
X172450001Y-85200000I-249999J0D01*
G01*
X171749999Y-85200000D01*
G75*
G02*
X171500000Y-84950001I0J249999D01*
G01*
G37*
G36*
G01*
X169500000Y-84950001D02*
X169500000Y-84049999D01*
G75*
G02*
X169749999Y-83800000I249999J0D01*
G01*
X170450001Y-83800000D01*
G75*
G02*
X170700000Y-84049999I0J-249999D01*
G01*
X170700000Y-84950001D01*
G75*
G02*
X170450001Y-85200000I-249999J0D01*
G01*
X169749999Y-85200000D01*
G75*
G02*
X169500000Y-84950001I0J249999D01*
G01*
G37*
G36*
G01*
X127650000Y-101249999D02*
X127650000Y-102150001D01*
G75*
G02*
X127400001Y-102400000I-249999J0D01*
G01*
X126749999Y-102400000D01*
G75*
G02*
X126500000Y-102150001I0J249999D01*
G01*
X126500000Y-101249999D01*
G75*
G02*
X126749999Y-101000000I249999J0D01*
G01*
X127400001Y-101000000D01*
G75*
G02*
X127650000Y-101249999I0J-249999D01*
G01*
G37*
G36*
G01*
X129700000Y-101249999D02*
X129700000Y-102150001D01*
G75*
G02*
X129450001Y-102400000I-249999J0D01*
G01*
X128799999Y-102400000D01*
G75*
G02*
X128550000Y-102150001I0J249999D01*
G01*
X128550000Y-101249999D01*
G75*
G02*
X128799999Y-101000000I249999J0D01*
G01*
X129450001Y-101000000D01*
G75*
G02*
X129700000Y-101249999I0J-249999D01*
G01*
G37*
G36*
G01*
X133792857Y-101249999D02*
X133792857Y-102150001D01*
G75*
G02*
X133542858Y-102400000I-249999J0D01*
G01*
X132892856Y-102400000D01*
G75*
G02*
X132642857Y-102150001I0J249999D01*
G01*
X132642857Y-101249999D01*
G75*
G02*
X132892856Y-101000000I249999J0D01*
G01*
X133542858Y-101000000D01*
G75*
G02*
X133792857Y-101249999I0J-249999D01*
G01*
G37*
G36*
G01*
X135842857Y-101249999D02*
X135842857Y-102150001D01*
G75*
G02*
X135592858Y-102400000I-249999J0D01*
G01*
X134942856Y-102400000D01*
G75*
G02*
X134692857Y-102150001I0J249999D01*
G01*
X134692857Y-101249999D01*
G75*
G02*
X134942856Y-101000000I249999J0D01*
G01*
X135592858Y-101000000D01*
G75*
G02*
X135842857Y-101249999I0J-249999D01*
G01*
G37*
G36*
G01*
X139935714Y-101249999D02*
X139935714Y-102150001D01*
G75*
G02*
X139685715Y-102400000I-249999J0D01*
G01*
X139035713Y-102400000D01*
G75*
G02*
X138785714Y-102150001I0J249999D01*
G01*
X138785714Y-101249999D01*
G75*
G02*
X139035713Y-101000000I249999J0D01*
G01*
X139685715Y-101000000D01*
G75*
G02*
X139935714Y-101249999I0J-249999D01*
G01*
G37*
G36*
G01*
X141985714Y-101249999D02*
X141985714Y-102150001D01*
G75*
G02*
X141735715Y-102400000I-249999J0D01*
G01*
X141085713Y-102400000D01*
G75*
G02*
X140835714Y-102150001I0J249999D01*
G01*
X140835714Y-101249999D01*
G75*
G02*
X141085713Y-101000000I249999J0D01*
G01*
X141735715Y-101000000D01*
G75*
G02*
X141985714Y-101249999I0J-249999D01*
G01*
G37*
G36*
G01*
X146078571Y-101249999D02*
X146078571Y-102150001D01*
G75*
G02*
X145828572Y-102400000I-249999J0D01*
G01*
X145178570Y-102400000D01*
G75*
G02*
X144928571Y-102150001I0J249999D01*
G01*
X144928571Y-101249999D01*
G75*
G02*
X145178570Y-101000000I249999J0D01*
G01*
X145828572Y-101000000D01*
G75*
G02*
X146078571Y-101249999I0J-249999D01*
G01*
G37*
G36*
G01*
X148128571Y-101249999D02*
X148128571Y-102150001D01*
G75*
G02*
X147878572Y-102400000I-249999J0D01*
G01*
X147228570Y-102400000D01*
G75*
G02*
X146978571Y-102150001I0J249999D01*
G01*
X146978571Y-101249999D01*
G75*
G02*
X147228570Y-101000000I249999J0D01*
G01*
X147878572Y-101000000D01*
G75*
G02*
X148128571Y-101249999I0J-249999D01*
G01*
G37*
G36*
G01*
X152221428Y-101249999D02*
X152221428Y-102150001D01*
G75*
G02*
X151971429Y-102400000I-249999J0D01*
G01*
X151321427Y-102400000D01*
G75*
G02*
X151071428Y-102150001I0J249999D01*
G01*
X151071428Y-101249999D01*
G75*
G02*
X151321427Y-101000000I249999J0D01*
G01*
X151971429Y-101000000D01*
G75*
G02*
X152221428Y-101249999I0J-249999D01*
G01*
G37*
G36*
G01*
X154271428Y-101249999D02*
X154271428Y-102150001D01*
G75*
G02*
X154021429Y-102400000I-249999J0D01*
G01*
X153371427Y-102400000D01*
G75*
G02*
X153121428Y-102150001I0J249999D01*
G01*
X153121428Y-101249999D01*
G75*
G02*
X153371427Y-101000000I249999J0D01*
G01*
X154021429Y-101000000D01*
G75*
G02*
X154271428Y-101249999I0J-249999D01*
G01*
G37*
G36*
G01*
X158364285Y-101249999D02*
X158364285Y-102150001D01*
G75*
G02*
X158114286Y-102400000I-249999J0D01*
G01*
X157464284Y-102400000D01*
G75*
G02*
X157214285Y-102150001I0J249999D01*
G01*
X157214285Y-101249999D01*
G75*
G02*
X157464284Y-101000000I249999J0D01*
G01*
X158114286Y-101000000D01*
G75*
G02*
X158364285Y-101249999I0J-249999D01*
G01*
G37*
G36*
G01*
X160414285Y-101249999D02*
X160414285Y-102150001D01*
G75*
G02*
X160164286Y-102400000I-249999J0D01*
G01*
X159514284Y-102400000D01*
G75*
G02*
X159264285Y-102150001I0J249999D01*
G01*
X159264285Y-101249999D01*
G75*
G02*
X159514284Y-101000000I249999J0D01*
G01*
X160164286Y-101000000D01*
G75*
G02*
X160414285Y-101249999I0J-249999D01*
G01*
G37*
G36*
G01*
X164507142Y-101249999D02*
X164507142Y-102150001D01*
G75*
G02*
X164257143Y-102400000I-249999J0D01*
G01*
X163607141Y-102400000D01*
G75*
G02*
X163357142Y-102150001I0J249999D01*
G01*
X163357142Y-101249999D01*
G75*
G02*
X163607141Y-101000000I249999J0D01*
G01*
X164257143Y-101000000D01*
G75*
G02*
X164507142Y-101249999I0J-249999D01*
G01*
G37*
G36*
G01*
X166557142Y-101249999D02*
X166557142Y-102150001D01*
G75*
G02*
X166307143Y-102400000I-249999J0D01*
G01*
X165657141Y-102400000D01*
G75*
G02*
X165407142Y-102150001I0J249999D01*
G01*
X165407142Y-101249999D01*
G75*
G02*
X165657141Y-101000000I249999J0D01*
G01*
X166307143Y-101000000D01*
G75*
G02*
X166557142Y-101249999I0J-249999D01*
G01*
G37*
G36*
G01*
X170650000Y-101249999D02*
X170650000Y-102150001D01*
G75*
G02*
X170400001Y-102400000I-249999J0D01*
G01*
X169749999Y-102400000D01*
G75*
G02*
X169500000Y-102150001I0J249999D01*
G01*
X169500000Y-101249999D01*
G75*
G02*
X169749999Y-101000000I249999J0D01*
G01*
X170400001Y-101000000D01*
G75*
G02*
X170650000Y-101249999I0J-249999D01*
G01*
G37*
G36*
G01*
X172700000Y-101249999D02*
X172700000Y-102150001D01*
G75*
G02*
X172450001Y-102400000I-249999J0D01*
G01*
X171799999Y-102400000D01*
G75*
G02*
X171550000Y-102150001I0J249999D01*
G01*
X171550000Y-101249999D01*
G75*
G02*
X171799999Y-101000000I249999J0D01*
G01*
X172450001Y-101000000D01*
G75*
G02*
X172700000Y-101249999I0J-249999D01*
G01*
G37*
G36*
G01*
X127650000Y-79849999D02*
X127650000Y-80750001D01*
G75*
G02*
X127400001Y-81000000I-249999J0D01*
G01*
X126749999Y-81000000D01*
G75*
G02*
X126500000Y-80750001I0J249999D01*
G01*
X126500000Y-79849999D01*
G75*
G02*
X126749999Y-79600000I249999J0D01*
G01*
X127400001Y-79600000D01*
G75*
G02*
X127650000Y-79849999I0J-249999D01*
G01*
G37*
G36*
G01*
X129700000Y-79849999D02*
X129700000Y-80750001D01*
G75*
G02*
X129450001Y-81000000I-249999J0D01*
G01*
X128799999Y-81000000D01*
G75*
G02*
X128550000Y-80750001I0J249999D01*
G01*
X128550000Y-79849999D01*
G75*
G02*
X128799999Y-79600000I249999J0D01*
G01*
X129450001Y-79600000D01*
G75*
G02*
X129700000Y-79849999I0J-249999D01*
G01*
G37*
G36*
G01*
X133792857Y-79849999D02*
X133792857Y-80750001D01*
G75*
G02*
X133542858Y-81000000I-249999J0D01*
G01*
X132892856Y-81000000D01*
G75*
G02*
X132642857Y-80750001I0J249999D01*
G01*
X132642857Y-79849999D01*
G75*
G02*
X132892856Y-79600000I249999J0D01*
G01*
X133542858Y-79600000D01*
G75*
G02*
X133792857Y-79849999I0J-249999D01*
G01*
G37*
G36*
G01*
X135842857Y-79849999D02*
X135842857Y-80750001D01*
G75*
G02*
X135592858Y-81000000I-249999J0D01*
G01*
X134942856Y-81000000D01*
G75*
G02*
X134692857Y-80750001I0J249999D01*
G01*
X134692857Y-79849999D01*
G75*
G02*
X134942856Y-79600000I249999J0D01*
G01*
X135592858Y-79600000D01*
G75*
G02*
X135842857Y-79849999I0J-249999D01*
G01*
G37*
G36*
G01*
X139935714Y-79849999D02*
X139935714Y-80750001D01*
G75*
G02*
X139685715Y-81000000I-249999J0D01*
G01*
X139035713Y-81000000D01*
G75*
G02*
X138785714Y-80750001I0J249999D01*
G01*
X138785714Y-79849999D01*
G75*
G02*
X139035713Y-79600000I249999J0D01*
G01*
X139685715Y-79600000D01*
G75*
G02*
X139935714Y-79849999I0J-249999D01*
G01*
G37*
G36*
G01*
X141985714Y-79849999D02*
X141985714Y-80750001D01*
G75*
G02*
X141735715Y-81000000I-249999J0D01*
G01*
X141085713Y-81000000D01*
G75*
G02*
X140835714Y-80750001I0J249999D01*
G01*
X140835714Y-79849999D01*
G75*
G02*
X141085713Y-79600000I249999J0D01*
G01*
X141735715Y-79600000D01*
G75*
G02*
X141985714Y-79849999I0J-249999D01*
G01*
G37*
G36*
G01*
X146078571Y-79849999D02*
X146078571Y-80750001D01*
G75*
G02*
X145828572Y-81000000I-249999J0D01*
G01*
X145178570Y-81000000D01*
G75*
G02*
X144928571Y-80750001I0J249999D01*
G01*
X144928571Y-79849999D01*
G75*
G02*
X145178570Y-79600000I249999J0D01*
G01*
X145828572Y-79600000D01*
G75*
G02*
X146078571Y-79849999I0J-249999D01*
G01*
G37*
G36*
G01*
X148128571Y-79849999D02*
X148128571Y-80750001D01*
G75*
G02*
X147878572Y-81000000I-249999J0D01*
G01*
X147228570Y-81000000D01*
G75*
G02*
X146978571Y-80750001I0J249999D01*
G01*
X146978571Y-79849999D01*
G75*
G02*
X147228570Y-79600000I249999J0D01*
G01*
X147878572Y-79600000D01*
G75*
G02*
X148128571Y-79849999I0J-249999D01*
G01*
G37*
G36*
G01*
X152221428Y-79849999D02*
X152221428Y-80750001D01*
G75*
G02*
X151971429Y-81000000I-249999J0D01*
G01*
X151321427Y-81000000D01*
G75*
G02*
X151071428Y-80750001I0J249999D01*
G01*
X151071428Y-79849999D01*
G75*
G02*
X151321427Y-79600000I249999J0D01*
G01*
X151971429Y-79600000D01*
G75*
G02*
X152221428Y-79849999I0J-249999D01*
G01*
G37*
G36*
G01*
X154271428Y-79849999D02*
X154271428Y-80750001D01*
G75*
G02*
X154021429Y-81000000I-249999J0D01*
G01*
X153371427Y-81000000D01*
G75*
G02*
X153121428Y-80750001I0J249999D01*
G01*
X153121428Y-79849999D01*
G75*
G02*
X153371427Y-79600000I249999J0D01*
G01*
X154021429Y-79600000D01*
G75*
G02*
X154271428Y-79849999I0J-249999D01*
G01*
G37*
G36*
G01*
X158364285Y-79849999D02*
X158364285Y-80750001D01*
G75*
G02*
X158114286Y-81000000I-249999J0D01*
G01*
X157464284Y-81000000D01*
G75*
G02*
X157214285Y-80750001I0J249999D01*
G01*
X157214285Y-79849999D01*
G75*
G02*
X157464284Y-79600000I249999J0D01*
G01*
X158114286Y-79600000D01*
G75*
G02*
X158364285Y-79849999I0J-249999D01*
G01*
G37*
G36*
G01*
X160414285Y-79849999D02*
X160414285Y-80750001D01*
G75*
G02*
X160164286Y-81000000I-249999J0D01*
G01*
X159514284Y-81000000D01*
G75*
G02*
X159264285Y-80750001I0J249999D01*
G01*
X159264285Y-79849999D01*
G75*
G02*
X159514284Y-79600000I249999J0D01*
G01*
X160164286Y-79600000D01*
G75*
G02*
X160414285Y-79849999I0J-249999D01*
G01*
G37*
G36*
G01*
X164507142Y-79849999D02*
X164507142Y-80750001D01*
G75*
G02*
X164257143Y-81000000I-249999J0D01*
G01*
X163607141Y-81000000D01*
G75*
G02*
X163357142Y-80750001I0J249999D01*
G01*
X163357142Y-79849999D01*
G75*
G02*
X163607141Y-79600000I249999J0D01*
G01*
X164257143Y-79600000D01*
G75*
G02*
X164507142Y-79849999I0J-249999D01*
G01*
G37*
G36*
G01*
X166557142Y-79849999D02*
X166557142Y-80750001D01*
G75*
G02*
X166307143Y-81000000I-249999J0D01*
G01*
X165657141Y-81000000D01*
G75*
G02*
X165407142Y-80750001I0J249999D01*
G01*
X165407142Y-79849999D01*
G75*
G02*
X165657141Y-79600000I249999J0D01*
G01*
X166307143Y-79600000D01*
G75*
G02*
X166557142Y-79849999I0J-249999D01*
G01*
G37*
G36*
G01*
X170650000Y-79849999D02*
X170650000Y-80750001D01*
G75*
G02*
X170400001Y-81000000I-249999J0D01*
G01*
X169749999Y-81000000D01*
G75*
G02*
X169500000Y-80750001I0J249999D01*
G01*
X169500000Y-79849999D01*
G75*
G02*
X169749999Y-79600000I249999J0D01*
G01*
X170400001Y-79600000D01*
G75*
G02*
X170650000Y-79849999I0J-249999D01*
G01*
G37*
G36*
G01*
X172700000Y-79849999D02*
X172700000Y-80750001D01*
G75*
G02*
X172450001Y-81000000I-249999J0D01*
G01*
X171799999Y-81000000D01*
G75*
G02*
X171550000Y-80750001I0J249999D01*
G01*
X171550000Y-79849999D01*
G75*
G02*
X171799999Y-79600000I249999J0D01*
G01*
X172450001Y-79600000D01*
G75*
G02*
X172700000Y-79849999I0J-249999D01*
G01*
G37*
D17*
X180360000Y-75380000D03*
X182900000Y-75380000D03*
X180360000Y-72840000D03*
X182900000Y-72840000D03*
X180360000Y-70300000D03*
X182900000Y-70300000D03*
X180360000Y-67760000D03*
X182900000Y-67760000D03*
X180360000Y-65220000D03*
X182900000Y-65220000D03*
X180360000Y-62680000D03*
X182900000Y-62680000D03*
X180360000Y-60140000D03*
X182900000Y-60140000D03*
X180360000Y-57600000D03*
D18*
X182900000Y-57600000D03*
D17*
X185460000Y-136000000D03*
X182920000Y-136000000D03*
X180380000Y-136000000D03*
X177840000Y-136000000D03*
X175300000Y-136000000D03*
X172760000Y-136000000D03*
X170220000Y-136000000D03*
X167680000Y-136000000D03*
X165140000Y-136000000D03*
X162600000Y-136000000D03*
X160060000Y-136000000D03*
X157520000Y-136000000D03*
X154980000Y-136000000D03*
X152440000Y-136000000D03*
X149900000Y-136000000D03*
X147360000Y-136000000D03*
X144820000Y-136000000D03*
X142280000Y-136000000D03*
X139740000Y-136000000D03*
X137200000Y-136000000D03*
X134660000Y-136000000D03*
X132120000Y-136000000D03*
X129580000Y-136000000D03*
X127040000Y-136000000D03*
X124500000Y-136000000D03*
X121960000Y-136000000D03*
X119420000Y-136000000D03*
X116880000Y-136000000D03*
X114340000Y-136000000D03*
X111800000Y-136000000D03*
X109260000Y-136000000D03*
X106720000Y-136000000D03*
X104180000Y-136000000D03*
X101640000Y-136000000D03*
X99100000Y-136000000D03*
X96560000Y-136000000D03*
X94020000Y-136000000D03*
X91480000Y-136000000D03*
X88940000Y-136000000D03*
D18*
X86400000Y-136000000D03*
D17*
X185460000Y-46000000D03*
X182920000Y-46000000D03*
X180380000Y-46000000D03*
X177840000Y-46000000D03*
X175300000Y-46000000D03*
X172760000Y-46000000D03*
X170220000Y-46000000D03*
X167680000Y-46000000D03*
X165140000Y-46000000D03*
X162600000Y-46000000D03*
X160060000Y-46000000D03*
X157520000Y-46000000D03*
X154980000Y-46000000D03*
X152440000Y-46000000D03*
X149900000Y-46000000D03*
X147360000Y-46000000D03*
X144820000Y-46000000D03*
X142280000Y-46000000D03*
X139740000Y-46000000D03*
X137200000Y-46000000D03*
X134660000Y-46000000D03*
X132120000Y-46000000D03*
X129580000Y-46000000D03*
X127040000Y-46000000D03*
X124500000Y-46000000D03*
X121960000Y-46000000D03*
X119420000Y-46000000D03*
X116880000Y-46000000D03*
X114340000Y-46000000D03*
X111800000Y-46000000D03*
X109260000Y-46000000D03*
X106720000Y-46000000D03*
X104180000Y-46000000D03*
X101640000Y-46000000D03*
X99100000Y-46000000D03*
X96560000Y-46000000D03*
X94020000Y-46000000D03*
X91480000Y-46000000D03*
X88940000Y-46000000D03*
D18*
X86400000Y-46000000D03*
M02*
