G04 #@! TF.GenerationSoftware,KiCad,Pcbnew,(5.1.9)-1*
G04 #@! TF.CreationDate,2021-11-21T15:00:31-05:00*
G04 #@! TF.ProjectId,ab-register,61622d72-6567-4697-9374-65722e6b6963,2.0*
G04 #@! TF.SameCoordinates,Original*
G04 #@! TF.FileFunction,Legend,Bot*
G04 #@! TF.FilePolarity,Positive*
%FSLAX46Y46*%
G04 Gerber Fmt 4.6, Leading zero omitted, Abs format (unit mm)*
G04 Created by KiCad (PCBNEW (5.1.9)-1) date 2021-11-21 15:00:31*
%MOMM*%
%LPD*%
G01*
G04 APERTURE LIST*
%ADD10C,0.120000*%
%ADD11C,0.150000*%
%ADD12O,1.600000X1.600000*%
%ADD13R,1.600000X1.600000*%
%ADD14O,1.700000X1.700000*%
%ADD15R,1.700000X1.700000*%
G04 APERTURE END LIST*
D10*
X184230000Y-125710000D02*
X179030000Y-125710000D01*
X184230000Y-107870000D02*
X184230000Y-125710000D01*
X179030000Y-105270000D02*
X179030000Y-125710000D01*
X184230000Y-107870000D02*
X181630000Y-107870000D01*
X181630000Y-107870000D02*
X181630000Y-105270000D01*
X181630000Y-105270000D02*
X179030000Y-105270000D01*
X184230000Y-106600000D02*
X184230000Y-105270000D01*
X184230000Y-105270000D02*
X182900000Y-105270000D01*
X184230000Y-76710000D02*
X179030000Y-76710000D01*
X184230000Y-58870000D02*
X184230000Y-76710000D01*
X179030000Y-56270000D02*
X179030000Y-76710000D01*
X184230000Y-58870000D02*
X181630000Y-58870000D01*
X181630000Y-58870000D02*
X181630000Y-56270000D01*
X181630000Y-56270000D02*
X179030000Y-56270000D01*
X184230000Y-57600000D02*
X184230000Y-56270000D01*
X184230000Y-56270000D02*
X182900000Y-56270000D01*
X186790000Y-134670000D02*
X186790000Y-137330000D01*
X87670000Y-134670000D02*
X186790000Y-134670000D01*
X87670000Y-137330000D02*
X186790000Y-137330000D01*
X87670000Y-134670000D02*
X87670000Y-137330000D01*
X86400000Y-134670000D02*
X85070000Y-134670000D01*
X85070000Y-134670000D02*
X85070000Y-136000000D01*
X186790000Y-44670000D02*
X186790000Y-47330000D01*
X87670000Y-44670000D02*
X186790000Y-44670000D01*
X87670000Y-47330000D02*
X186790000Y-47330000D01*
X87670000Y-44670000D02*
X87670000Y-47330000D01*
X86400000Y-44670000D02*
X85070000Y-44670000D01*
X85070000Y-44670000D02*
X85070000Y-46000000D01*
D11*
X181963333Y-103722380D02*
X181963333Y-104436666D01*
X182010952Y-104579523D01*
X182106190Y-104674761D01*
X182249047Y-104722380D01*
X182344285Y-104722380D01*
X181058571Y-103722380D02*
X181249047Y-103722380D01*
X181344285Y-103770000D01*
X181391904Y-103817619D01*
X181487142Y-103960476D01*
X181534761Y-104150952D01*
X181534761Y-104531904D01*
X181487142Y-104627142D01*
X181439523Y-104674761D01*
X181344285Y-104722380D01*
X181153809Y-104722380D01*
X181058571Y-104674761D01*
X181010952Y-104627142D01*
X180963333Y-104531904D01*
X180963333Y-104293809D01*
X181010952Y-104198571D01*
X181058571Y-104150952D01*
X181153809Y-104103333D01*
X181344285Y-104103333D01*
X181439523Y-104150952D01*
X181487142Y-104198571D01*
X181534761Y-104293809D01*
X181963333Y-54722380D02*
X181963333Y-55436666D01*
X182010952Y-55579523D01*
X182106190Y-55674761D01*
X182249047Y-55722380D01*
X182344285Y-55722380D01*
X181010952Y-54722380D02*
X181487142Y-54722380D01*
X181534761Y-55198571D01*
X181487142Y-55150952D01*
X181391904Y-55103333D01*
X181153809Y-55103333D01*
X181058571Y-55150952D01*
X181010952Y-55198571D01*
X180963333Y-55293809D01*
X180963333Y-55531904D01*
X181010952Y-55627142D01*
X181058571Y-55674761D01*
X181153809Y-55722380D01*
X181391904Y-55722380D01*
X181487142Y-55674761D01*
X181534761Y-55627142D01*
X83522380Y-135666666D02*
X84236666Y-135666666D01*
X84379523Y-135619047D01*
X84474761Y-135523809D01*
X84522380Y-135380952D01*
X84522380Y-135285714D01*
X83617619Y-136095238D02*
X83570000Y-136142857D01*
X83522380Y-136238095D01*
X83522380Y-136476190D01*
X83570000Y-136571428D01*
X83617619Y-136619047D01*
X83712857Y-136666666D01*
X83808095Y-136666666D01*
X83950952Y-136619047D01*
X84522380Y-136047619D01*
X84522380Y-136666666D01*
X83522380Y-45666666D02*
X84236666Y-45666666D01*
X84379523Y-45619047D01*
X84474761Y-45523809D01*
X84522380Y-45380952D01*
X84522380Y-45285714D01*
X84522380Y-46666666D02*
X84522380Y-46095238D01*
X84522380Y-46380952D02*
X83522380Y-46380952D01*
X83665238Y-46285714D01*
X83760476Y-46190476D01*
X83808095Y-46095238D01*
%LPC*%
D12*
X139700000Y-51080000D03*
X157480000Y-58700000D03*
X142240000Y-51080000D03*
X154940000Y-58700000D03*
X144780000Y-51080000D03*
X152400000Y-58700000D03*
X147320000Y-51080000D03*
X149860000Y-58700000D03*
X149860000Y-51080000D03*
X147320000Y-58700000D03*
X152400000Y-51080000D03*
X144780000Y-58700000D03*
X154940000Y-51080000D03*
X142240000Y-58700000D03*
X157480000Y-51080000D03*
D13*
X139700000Y-58700000D03*
D12*
X139700000Y-124280000D03*
X157480000Y-131900000D03*
X142240000Y-124280000D03*
X154940000Y-131900000D03*
X144780000Y-124280000D03*
X152400000Y-131900000D03*
X147320000Y-124280000D03*
X149860000Y-131900000D03*
X149860000Y-124280000D03*
X147320000Y-131900000D03*
X152400000Y-124280000D03*
X144780000Y-131900000D03*
X154940000Y-124280000D03*
X142240000Y-131900000D03*
X157480000Y-124280000D03*
D13*
X139700000Y-131900000D03*
D12*
X94100000Y-101680000D03*
X116960000Y-109300000D03*
X96640000Y-101680000D03*
X114420000Y-109300000D03*
X99180000Y-101680000D03*
X111880000Y-109300000D03*
X101720000Y-101680000D03*
X109340000Y-109300000D03*
X104260000Y-101680000D03*
X106800000Y-109300000D03*
X106800000Y-101680000D03*
X104260000Y-109300000D03*
X109340000Y-101680000D03*
X101720000Y-109300000D03*
X111880000Y-101680000D03*
X99180000Y-109300000D03*
X114420000Y-101680000D03*
X96640000Y-109300000D03*
X116960000Y-101680000D03*
D13*
X94100000Y-109300000D03*
D12*
X94100000Y-56880000D03*
X116960000Y-64500000D03*
X96640000Y-56880000D03*
X114420000Y-64500000D03*
X99180000Y-56880000D03*
X111880000Y-64500000D03*
X101720000Y-56880000D03*
X109340000Y-64500000D03*
X104260000Y-56880000D03*
X106800000Y-64500000D03*
X106800000Y-56880000D03*
X104260000Y-64500000D03*
X109340000Y-56880000D03*
X101720000Y-64500000D03*
X111880000Y-56880000D03*
X99180000Y-64500000D03*
X114420000Y-56880000D03*
X96640000Y-64500000D03*
X116960000Y-56880000D03*
D13*
X94100000Y-64500000D03*
D12*
X94100000Y-69380000D03*
X116960000Y-77000000D03*
X96640000Y-69380000D03*
X114420000Y-77000000D03*
X99180000Y-69380000D03*
X111880000Y-77000000D03*
X101720000Y-69380000D03*
X109340000Y-77000000D03*
X104260000Y-69380000D03*
X106800000Y-77000000D03*
X106800000Y-69380000D03*
X104260000Y-77000000D03*
X109340000Y-69380000D03*
X101720000Y-77000000D03*
X111880000Y-69380000D03*
X99180000Y-77000000D03*
X114420000Y-69380000D03*
X96640000Y-77000000D03*
X116960000Y-69380000D03*
D13*
X94100000Y-77000000D03*
D14*
X180360000Y-124380000D03*
X182900000Y-124380000D03*
X180360000Y-121840000D03*
X182900000Y-121840000D03*
X180360000Y-119300000D03*
X182900000Y-119300000D03*
X180360000Y-116760000D03*
X182900000Y-116760000D03*
X180360000Y-114220000D03*
X182900000Y-114220000D03*
X180360000Y-111680000D03*
X182900000Y-111680000D03*
X180360000Y-109140000D03*
X182900000Y-109140000D03*
X180360000Y-106600000D03*
D15*
X182900000Y-106600000D03*
D12*
X94100000Y-116180000D03*
X116960000Y-123800000D03*
X96640000Y-116180000D03*
X114420000Y-123800000D03*
X99180000Y-116180000D03*
X111880000Y-123800000D03*
X101720000Y-116180000D03*
X109340000Y-123800000D03*
X104260000Y-116180000D03*
X106800000Y-123800000D03*
X106800000Y-116180000D03*
X104260000Y-123800000D03*
X109340000Y-116180000D03*
X101720000Y-123800000D03*
X111880000Y-116180000D03*
X99180000Y-123800000D03*
X114420000Y-116180000D03*
X96640000Y-123800000D03*
X116960000Y-116180000D03*
D13*
X94100000Y-123800000D03*
D12*
X94100000Y-85880000D03*
X116960000Y-93500000D03*
X96640000Y-85880000D03*
X114420000Y-93500000D03*
X99180000Y-85880000D03*
X111880000Y-93500000D03*
X101720000Y-85880000D03*
X109340000Y-93500000D03*
X104260000Y-85880000D03*
X106800000Y-93500000D03*
X106800000Y-85880000D03*
X104260000Y-93500000D03*
X109340000Y-85880000D03*
X101720000Y-93500000D03*
X111880000Y-85880000D03*
X99180000Y-93500000D03*
X114420000Y-85880000D03*
X96640000Y-93500000D03*
X116960000Y-85880000D03*
D13*
X94100000Y-93500000D03*
D14*
X180360000Y-75380000D03*
X182900000Y-75380000D03*
X180360000Y-72840000D03*
X182900000Y-72840000D03*
X180360000Y-70300000D03*
X182900000Y-70300000D03*
X180360000Y-67760000D03*
X182900000Y-67760000D03*
X180360000Y-65220000D03*
X182900000Y-65220000D03*
X180360000Y-62680000D03*
X182900000Y-62680000D03*
X180360000Y-60140000D03*
X182900000Y-60140000D03*
X180360000Y-57600000D03*
D15*
X182900000Y-57600000D03*
D14*
X185460000Y-136000000D03*
X182920000Y-136000000D03*
X180380000Y-136000000D03*
X177840000Y-136000000D03*
X175300000Y-136000000D03*
X172760000Y-136000000D03*
X170220000Y-136000000D03*
X167680000Y-136000000D03*
X165140000Y-136000000D03*
X162600000Y-136000000D03*
X160060000Y-136000000D03*
X157520000Y-136000000D03*
X154980000Y-136000000D03*
X152440000Y-136000000D03*
X149900000Y-136000000D03*
X147360000Y-136000000D03*
X144820000Y-136000000D03*
X142280000Y-136000000D03*
X139740000Y-136000000D03*
X137200000Y-136000000D03*
X134660000Y-136000000D03*
X132120000Y-136000000D03*
X129580000Y-136000000D03*
X127040000Y-136000000D03*
X124500000Y-136000000D03*
X121960000Y-136000000D03*
X119420000Y-136000000D03*
X116880000Y-136000000D03*
X114340000Y-136000000D03*
X111800000Y-136000000D03*
X109260000Y-136000000D03*
X106720000Y-136000000D03*
X104180000Y-136000000D03*
X101640000Y-136000000D03*
X99100000Y-136000000D03*
X96560000Y-136000000D03*
X94020000Y-136000000D03*
X91480000Y-136000000D03*
X88940000Y-136000000D03*
D15*
X86400000Y-136000000D03*
D14*
X185460000Y-46000000D03*
X182920000Y-46000000D03*
X180380000Y-46000000D03*
X177840000Y-46000000D03*
X175300000Y-46000000D03*
X172760000Y-46000000D03*
X170220000Y-46000000D03*
X167680000Y-46000000D03*
X165140000Y-46000000D03*
X162600000Y-46000000D03*
X160060000Y-46000000D03*
X157520000Y-46000000D03*
X154980000Y-46000000D03*
X152440000Y-46000000D03*
X149900000Y-46000000D03*
X147360000Y-46000000D03*
X144820000Y-46000000D03*
X142280000Y-46000000D03*
X139740000Y-46000000D03*
X137200000Y-46000000D03*
X134660000Y-46000000D03*
X132120000Y-46000000D03*
X129580000Y-46000000D03*
X127040000Y-46000000D03*
X124500000Y-46000000D03*
X121960000Y-46000000D03*
X119420000Y-46000000D03*
X116880000Y-46000000D03*
X114340000Y-46000000D03*
X111800000Y-46000000D03*
X109260000Y-46000000D03*
X106720000Y-46000000D03*
X104180000Y-46000000D03*
X101640000Y-46000000D03*
X99100000Y-46000000D03*
X96560000Y-46000000D03*
X94020000Y-46000000D03*
X91480000Y-46000000D03*
X88940000Y-46000000D03*
D15*
X86400000Y-46000000D03*
M02*
