G04 #@! TF.GenerationSoftware,KiCad,Pcbnew,(5.1.9)-1*
G04 #@! TF.CreationDate,2021-10-24T00:32:31-04:00*
G04 #@! TF.ProjectId,bus-connect,6275732d-636f-46e6-9e65-63742e6b6963,rev?*
G04 #@! TF.SameCoordinates,Original*
G04 #@! TF.FileFunction,Paste,Top*
G04 #@! TF.FilePolarity,Positive*
%FSLAX46Y46*%
G04 Gerber Fmt 4.6, Leading zero omitted, Abs format (unit mm)*
G04 Created by KiCad (PCBNEW (5.1.9)-1) date 2021-10-24 00:32:31*
%MOMM*%
%LPD*%
G01*
G04 APERTURE LIST*
G04 APERTURE END LIST*
G36*
G01*
X115000000Y-91449999D02*
X115000000Y-92350001D01*
G75*
G02*
X114750001Y-92600000I-249999J0D01*
G01*
X114049999Y-92600000D01*
G75*
G02*
X113800000Y-92350001I0J249999D01*
G01*
X113800000Y-91449999D01*
G75*
G02*
X114049999Y-91200000I249999J0D01*
G01*
X114750001Y-91200000D01*
G75*
G02*
X115000000Y-91449999I0J-249999D01*
G01*
G37*
G36*
G01*
X117000000Y-91449999D02*
X117000000Y-92350001D01*
G75*
G02*
X116750001Y-92600000I-249999J0D01*
G01*
X116049999Y-92600000D01*
G75*
G02*
X115800000Y-92350001I0J249999D01*
G01*
X115800000Y-91449999D01*
G75*
G02*
X116049999Y-91200000I249999J0D01*
G01*
X116750001Y-91200000D01*
G75*
G02*
X117000000Y-91449999I0J-249999D01*
G01*
G37*
G36*
G01*
X122614285Y-91449999D02*
X122614285Y-92350001D01*
G75*
G02*
X122364286Y-92600000I-249999J0D01*
G01*
X121664284Y-92600000D01*
G75*
G02*
X121414285Y-92350001I0J249999D01*
G01*
X121414285Y-91449999D01*
G75*
G02*
X121664284Y-91200000I249999J0D01*
G01*
X122364286Y-91200000D01*
G75*
G02*
X122614285Y-91449999I0J-249999D01*
G01*
G37*
G36*
G01*
X124614285Y-91449999D02*
X124614285Y-92350001D01*
G75*
G02*
X124364286Y-92600000I-249999J0D01*
G01*
X123664284Y-92600000D01*
G75*
G02*
X123414285Y-92350001I0J249999D01*
G01*
X123414285Y-91449999D01*
G75*
G02*
X123664284Y-91200000I249999J0D01*
G01*
X124364286Y-91200000D01*
G75*
G02*
X124614285Y-91449999I0J-249999D01*
G01*
G37*
G36*
G01*
X130228570Y-91449999D02*
X130228570Y-92350001D01*
G75*
G02*
X129978571Y-92600000I-249999J0D01*
G01*
X129278569Y-92600000D01*
G75*
G02*
X129028570Y-92350001I0J249999D01*
G01*
X129028570Y-91449999D01*
G75*
G02*
X129278569Y-91200000I249999J0D01*
G01*
X129978571Y-91200000D01*
G75*
G02*
X130228570Y-91449999I0J-249999D01*
G01*
G37*
G36*
G01*
X132228570Y-91449999D02*
X132228570Y-92350001D01*
G75*
G02*
X131978571Y-92600000I-249999J0D01*
G01*
X131278569Y-92600000D01*
G75*
G02*
X131028570Y-92350001I0J249999D01*
G01*
X131028570Y-91449999D01*
G75*
G02*
X131278569Y-91200000I249999J0D01*
G01*
X131978571Y-91200000D01*
G75*
G02*
X132228570Y-91449999I0J-249999D01*
G01*
G37*
G36*
G01*
X137842855Y-91449999D02*
X137842855Y-92350001D01*
G75*
G02*
X137592856Y-92600000I-249999J0D01*
G01*
X136892854Y-92600000D01*
G75*
G02*
X136642855Y-92350001I0J249999D01*
G01*
X136642855Y-91449999D01*
G75*
G02*
X136892854Y-91200000I249999J0D01*
G01*
X137592856Y-91200000D01*
G75*
G02*
X137842855Y-91449999I0J-249999D01*
G01*
G37*
G36*
G01*
X139842855Y-91449999D02*
X139842855Y-92350001D01*
G75*
G02*
X139592856Y-92600000I-249999J0D01*
G01*
X138892854Y-92600000D01*
G75*
G02*
X138642855Y-92350001I0J249999D01*
G01*
X138642855Y-91449999D01*
G75*
G02*
X138892854Y-91200000I249999J0D01*
G01*
X139592856Y-91200000D01*
G75*
G02*
X139842855Y-91449999I0J-249999D01*
G01*
G37*
G36*
G01*
X145457140Y-91449999D02*
X145457140Y-92350001D01*
G75*
G02*
X145207141Y-92600000I-249999J0D01*
G01*
X144507139Y-92600000D01*
G75*
G02*
X144257140Y-92350001I0J249999D01*
G01*
X144257140Y-91449999D01*
G75*
G02*
X144507139Y-91200000I249999J0D01*
G01*
X145207141Y-91200000D01*
G75*
G02*
X145457140Y-91449999I0J-249999D01*
G01*
G37*
G36*
G01*
X147457140Y-91449999D02*
X147457140Y-92350001D01*
G75*
G02*
X147207141Y-92600000I-249999J0D01*
G01*
X146507139Y-92600000D01*
G75*
G02*
X146257140Y-92350001I0J249999D01*
G01*
X146257140Y-91449999D01*
G75*
G02*
X146507139Y-91200000I249999J0D01*
G01*
X147207141Y-91200000D01*
G75*
G02*
X147457140Y-91449999I0J-249999D01*
G01*
G37*
G36*
G01*
X153071425Y-91449999D02*
X153071425Y-92350001D01*
G75*
G02*
X152821426Y-92600000I-249999J0D01*
G01*
X152121424Y-92600000D01*
G75*
G02*
X151871425Y-92350001I0J249999D01*
G01*
X151871425Y-91449999D01*
G75*
G02*
X152121424Y-91200000I249999J0D01*
G01*
X152821426Y-91200000D01*
G75*
G02*
X153071425Y-91449999I0J-249999D01*
G01*
G37*
G36*
G01*
X155071425Y-91449999D02*
X155071425Y-92350001D01*
G75*
G02*
X154821426Y-92600000I-249999J0D01*
G01*
X154121424Y-92600000D01*
G75*
G02*
X153871425Y-92350001I0J249999D01*
G01*
X153871425Y-91449999D01*
G75*
G02*
X154121424Y-91200000I249999J0D01*
G01*
X154821426Y-91200000D01*
G75*
G02*
X155071425Y-91449999I0J-249999D01*
G01*
G37*
G36*
G01*
X160685710Y-91449999D02*
X160685710Y-92350001D01*
G75*
G02*
X160435711Y-92600000I-249999J0D01*
G01*
X159735709Y-92600000D01*
G75*
G02*
X159485710Y-92350001I0J249999D01*
G01*
X159485710Y-91449999D01*
G75*
G02*
X159735709Y-91200000I249999J0D01*
G01*
X160435711Y-91200000D01*
G75*
G02*
X160685710Y-91449999I0J-249999D01*
G01*
G37*
G36*
G01*
X162685710Y-91449999D02*
X162685710Y-92350001D01*
G75*
G02*
X162435711Y-92600000I-249999J0D01*
G01*
X161735709Y-92600000D01*
G75*
G02*
X161485710Y-92350001I0J249999D01*
G01*
X161485710Y-91449999D01*
G75*
G02*
X161735709Y-91200000I249999J0D01*
G01*
X162435711Y-91200000D01*
G75*
G02*
X162685710Y-91449999I0J-249999D01*
G01*
G37*
G36*
G01*
X168300000Y-91449999D02*
X168300000Y-92350001D01*
G75*
G02*
X168050001Y-92600000I-249999J0D01*
G01*
X167349999Y-92600000D01*
G75*
G02*
X167100000Y-92350001I0J249999D01*
G01*
X167100000Y-91449999D01*
G75*
G02*
X167349999Y-91200000I249999J0D01*
G01*
X168050001Y-91200000D01*
G75*
G02*
X168300000Y-91449999I0J-249999D01*
G01*
G37*
G36*
G01*
X170300000Y-91449999D02*
X170300000Y-92350001D01*
G75*
G02*
X170050001Y-92600000I-249999J0D01*
G01*
X169349999Y-92600000D01*
G75*
G02*
X169100000Y-92350001I0J249999D01*
G01*
X169100000Y-91449999D01*
G75*
G02*
X169349999Y-91200000I249999J0D01*
G01*
X170050001Y-91200000D01*
G75*
G02*
X170300000Y-91449999I0J-249999D01*
G01*
G37*
G36*
G01*
X114950000Y-84849999D02*
X114950000Y-85750001D01*
G75*
G02*
X114700001Y-86000000I-249999J0D01*
G01*
X114049999Y-86000000D01*
G75*
G02*
X113800000Y-85750001I0J249999D01*
G01*
X113800000Y-84849999D01*
G75*
G02*
X114049999Y-84600000I249999J0D01*
G01*
X114700001Y-84600000D01*
G75*
G02*
X114950000Y-84849999I0J-249999D01*
G01*
G37*
G36*
G01*
X117000000Y-84849999D02*
X117000000Y-85750001D01*
G75*
G02*
X116750001Y-86000000I-249999J0D01*
G01*
X116099999Y-86000000D01*
G75*
G02*
X115850000Y-85750001I0J249999D01*
G01*
X115850000Y-84849999D01*
G75*
G02*
X116099999Y-84600000I249999J0D01*
G01*
X116750001Y-84600000D01*
G75*
G02*
X117000000Y-84849999I0J-249999D01*
G01*
G37*
G36*
G01*
X122564285Y-84849999D02*
X122564285Y-85750001D01*
G75*
G02*
X122314286Y-86000000I-249999J0D01*
G01*
X121664284Y-86000000D01*
G75*
G02*
X121414285Y-85750001I0J249999D01*
G01*
X121414285Y-84849999D01*
G75*
G02*
X121664284Y-84600000I249999J0D01*
G01*
X122314286Y-84600000D01*
G75*
G02*
X122564285Y-84849999I0J-249999D01*
G01*
G37*
G36*
G01*
X124614285Y-84849999D02*
X124614285Y-85750001D01*
G75*
G02*
X124364286Y-86000000I-249999J0D01*
G01*
X123714284Y-86000000D01*
G75*
G02*
X123464285Y-85750001I0J249999D01*
G01*
X123464285Y-84849999D01*
G75*
G02*
X123714284Y-84600000I249999J0D01*
G01*
X124364286Y-84600000D01*
G75*
G02*
X124614285Y-84849999I0J-249999D01*
G01*
G37*
G36*
G01*
X130178570Y-84849999D02*
X130178570Y-85750001D01*
G75*
G02*
X129928571Y-86000000I-249999J0D01*
G01*
X129278569Y-86000000D01*
G75*
G02*
X129028570Y-85750001I0J249999D01*
G01*
X129028570Y-84849999D01*
G75*
G02*
X129278569Y-84600000I249999J0D01*
G01*
X129928571Y-84600000D01*
G75*
G02*
X130178570Y-84849999I0J-249999D01*
G01*
G37*
G36*
G01*
X132228570Y-84849999D02*
X132228570Y-85750001D01*
G75*
G02*
X131978571Y-86000000I-249999J0D01*
G01*
X131328569Y-86000000D01*
G75*
G02*
X131078570Y-85750001I0J249999D01*
G01*
X131078570Y-84849999D01*
G75*
G02*
X131328569Y-84600000I249999J0D01*
G01*
X131978571Y-84600000D01*
G75*
G02*
X132228570Y-84849999I0J-249999D01*
G01*
G37*
G36*
G01*
X137792855Y-84849999D02*
X137792855Y-85750001D01*
G75*
G02*
X137542856Y-86000000I-249999J0D01*
G01*
X136892854Y-86000000D01*
G75*
G02*
X136642855Y-85750001I0J249999D01*
G01*
X136642855Y-84849999D01*
G75*
G02*
X136892854Y-84600000I249999J0D01*
G01*
X137542856Y-84600000D01*
G75*
G02*
X137792855Y-84849999I0J-249999D01*
G01*
G37*
G36*
G01*
X139842855Y-84849999D02*
X139842855Y-85750001D01*
G75*
G02*
X139592856Y-86000000I-249999J0D01*
G01*
X138942854Y-86000000D01*
G75*
G02*
X138692855Y-85750001I0J249999D01*
G01*
X138692855Y-84849999D01*
G75*
G02*
X138942854Y-84600000I249999J0D01*
G01*
X139592856Y-84600000D01*
G75*
G02*
X139842855Y-84849999I0J-249999D01*
G01*
G37*
G36*
G01*
X145407140Y-84849999D02*
X145407140Y-85750001D01*
G75*
G02*
X145157141Y-86000000I-249999J0D01*
G01*
X144507139Y-86000000D01*
G75*
G02*
X144257140Y-85750001I0J249999D01*
G01*
X144257140Y-84849999D01*
G75*
G02*
X144507139Y-84600000I249999J0D01*
G01*
X145157141Y-84600000D01*
G75*
G02*
X145407140Y-84849999I0J-249999D01*
G01*
G37*
G36*
G01*
X147457140Y-84849999D02*
X147457140Y-85750001D01*
G75*
G02*
X147207141Y-86000000I-249999J0D01*
G01*
X146557139Y-86000000D01*
G75*
G02*
X146307140Y-85750001I0J249999D01*
G01*
X146307140Y-84849999D01*
G75*
G02*
X146557139Y-84600000I249999J0D01*
G01*
X147207141Y-84600000D01*
G75*
G02*
X147457140Y-84849999I0J-249999D01*
G01*
G37*
G36*
G01*
X153021425Y-84849999D02*
X153021425Y-85750001D01*
G75*
G02*
X152771426Y-86000000I-249999J0D01*
G01*
X152121424Y-86000000D01*
G75*
G02*
X151871425Y-85750001I0J249999D01*
G01*
X151871425Y-84849999D01*
G75*
G02*
X152121424Y-84600000I249999J0D01*
G01*
X152771426Y-84600000D01*
G75*
G02*
X153021425Y-84849999I0J-249999D01*
G01*
G37*
G36*
G01*
X155071425Y-84849999D02*
X155071425Y-85750001D01*
G75*
G02*
X154821426Y-86000000I-249999J0D01*
G01*
X154171424Y-86000000D01*
G75*
G02*
X153921425Y-85750001I0J249999D01*
G01*
X153921425Y-84849999D01*
G75*
G02*
X154171424Y-84600000I249999J0D01*
G01*
X154821426Y-84600000D01*
G75*
G02*
X155071425Y-84849999I0J-249999D01*
G01*
G37*
G36*
G01*
X160635710Y-84849999D02*
X160635710Y-85750001D01*
G75*
G02*
X160385711Y-86000000I-249999J0D01*
G01*
X159735709Y-86000000D01*
G75*
G02*
X159485710Y-85750001I0J249999D01*
G01*
X159485710Y-84849999D01*
G75*
G02*
X159735709Y-84600000I249999J0D01*
G01*
X160385711Y-84600000D01*
G75*
G02*
X160635710Y-84849999I0J-249999D01*
G01*
G37*
G36*
G01*
X162685710Y-84849999D02*
X162685710Y-85750001D01*
G75*
G02*
X162435711Y-86000000I-249999J0D01*
G01*
X161785709Y-86000000D01*
G75*
G02*
X161535710Y-85750001I0J249999D01*
G01*
X161535710Y-84849999D01*
G75*
G02*
X161785709Y-84600000I249999J0D01*
G01*
X162435711Y-84600000D01*
G75*
G02*
X162685710Y-84849999I0J-249999D01*
G01*
G37*
G36*
G01*
X168250000Y-84849999D02*
X168250000Y-85750001D01*
G75*
G02*
X168000001Y-86000000I-249999J0D01*
G01*
X167349999Y-86000000D01*
G75*
G02*
X167100000Y-85750001I0J249999D01*
G01*
X167100000Y-84849999D01*
G75*
G02*
X167349999Y-84600000I249999J0D01*
G01*
X168000001Y-84600000D01*
G75*
G02*
X168250000Y-84849999I0J-249999D01*
G01*
G37*
G36*
G01*
X170300000Y-84849999D02*
X170300000Y-85750001D01*
G75*
G02*
X170050001Y-86000000I-249999J0D01*
G01*
X169399999Y-86000000D01*
G75*
G02*
X169150000Y-85750001I0J249999D01*
G01*
X169150000Y-84849999D01*
G75*
G02*
X169399999Y-84600000I249999J0D01*
G01*
X170050001Y-84600000D01*
G75*
G02*
X170300000Y-84849999I0J-249999D01*
G01*
G37*
M02*
