M48
; DRILL file {KiCad (5.1.9)-1} date 10/03/21 21:12:45
; FORMAT={-:-/ absolute / metric / decimal}
; #@! TF.CreationDate,2021-10-03T21:12:45-04:00
; #@! TF.GenerationSoftware,Kicad,Pcbnew,(5.1.9)-1
; #@! TF.FileFunction,Plated,1,2,PTH
FMAT,2
METRIC
T1C1.000
%
G90
G05
T1
X92.5Y-80.0
X92.5Y-96.0
X95.04Y-80.0
X95.04Y-96.0
X97.58Y-80.0
X97.58Y-96.0
X100.12Y-80.0
X100.12Y-96.0
X102.66Y-80.0
X102.66Y-96.0
X105.2Y-80.0
X105.2Y-96.0
X107.74Y-80.0
X107.74Y-96.0
X110.28Y-80.0
X110.28Y-96.0
X112.82Y-80.0
X112.82Y-96.0
X115.36Y-80.0
X115.36Y-96.0
X117.9Y-80.0
X117.9Y-96.0
X120.44Y-80.0
X120.44Y-96.0
X122.98Y-80.0
X122.98Y-96.0
X125.52Y-80.0
X125.52Y-96.0
X128.06Y-80.0
X128.06Y-96.0
X130.6Y-80.0
X130.6Y-96.0
X133.14Y-80.0
X133.14Y-96.0
X135.68Y-80.0
X135.68Y-96.0
X138.22Y-80.0
X138.22Y-96.0
X140.76Y-80.0
X140.76Y-96.0
X143.3Y-80.0
X143.3Y-96.0
X145.84Y-80.0
X145.84Y-96.0
X148.38Y-80.0
X148.38Y-96.0
X150.92Y-80.0
X150.92Y-96.0
X153.46Y-80.0
X153.46Y-96.0
X156.0Y-80.0
X156.0Y-96.0
X158.54Y-80.0
X158.54Y-96.0
X161.08Y-80.0
X161.08Y-96.0
X163.62Y-80.0
X163.62Y-96.0
X166.16Y-80.0
X166.16Y-96.0
X168.7Y-80.0
X168.7Y-96.0
X171.24Y-80.0
X171.24Y-96.0
X173.78Y-80.0
X173.78Y-96.0
X176.32Y-80.0
X176.32Y-96.0
X178.86Y-80.0
X178.86Y-96.0
X181.4Y-80.0
X181.4Y-96.0
X183.94Y-80.0
X183.94Y-96.0
X186.48Y-80.0
X186.48Y-96.0
X189.02Y-80.0
X189.02Y-96.0
X191.56Y-80.0
X191.56Y-96.0
T0
M30
