G04 #@! TF.GenerationSoftware,KiCad,Pcbnew,(5.1.9)-1*
G04 #@! TF.CreationDate,2022-07-23T11:33:05-04:00*
G04 #@! TF.ProjectId,xy-register,78792d72-6567-4697-9374-65722e6b6963,2.0*
G04 #@! TF.SameCoordinates,Original*
G04 #@! TF.FileFunction,Soldermask,Bot*
G04 #@! TF.FilePolarity,Negative*
%FSLAX46Y46*%
G04 Gerber Fmt 4.6, Leading zero omitted, Abs format (unit mm)*
G04 Created by KiCad (PCBNEW (5.1.9)-1) date 2022-07-23 11:33:05*
%MOMM*%
%LPD*%
G01*
G04 APERTURE LIST*
%ADD10O,1.700000X1.700000*%
%ADD11R,1.700000X1.700000*%
%ADD12O,1.600000X1.600000*%
%ADD13R,1.600000X1.600000*%
G04 APERTURE END LIST*
D10*
X89000000Y-65220000D03*
X89000000Y-62680000D03*
X89000000Y-60140000D03*
D11*
X89000000Y-57600000D03*
D12*
X103600000Y-101580000D03*
X126460000Y-109200000D03*
X106140000Y-101580000D03*
X123920000Y-109200000D03*
X108680000Y-101580000D03*
X121380000Y-109200000D03*
X111220000Y-101580000D03*
X118840000Y-109200000D03*
X113760000Y-101580000D03*
X116300000Y-109200000D03*
X116300000Y-101580000D03*
X113760000Y-109200000D03*
X118840000Y-101580000D03*
X111220000Y-109200000D03*
X121380000Y-101580000D03*
X108680000Y-109200000D03*
X123920000Y-101580000D03*
X106140000Y-109200000D03*
X126460000Y-101580000D03*
D13*
X103600000Y-109200000D03*
D12*
X162360000Y-87880000D03*
X180140000Y-95500000D03*
X164900000Y-87880000D03*
X177600000Y-95500000D03*
X167440000Y-87880000D03*
X175060000Y-95500000D03*
X169980000Y-87880000D03*
X172520000Y-95500000D03*
X172520000Y-87880000D03*
X169980000Y-95500000D03*
X175060000Y-87880000D03*
X167440000Y-95500000D03*
X177600000Y-87880000D03*
X164900000Y-95500000D03*
X180140000Y-87880000D03*
D13*
X162360000Y-95500000D03*
D12*
X135900000Y-87880000D03*
X153680000Y-95500000D03*
X138440000Y-87880000D03*
X151140000Y-95500000D03*
X140980000Y-87880000D03*
X148600000Y-95500000D03*
X143520000Y-87880000D03*
X146060000Y-95500000D03*
X146060000Y-87880000D03*
X143520000Y-95500000D03*
X148600000Y-87880000D03*
X140980000Y-95500000D03*
X151140000Y-87880000D03*
X138440000Y-95500000D03*
X153680000Y-87880000D03*
D13*
X135900000Y-95500000D03*
D10*
X89000000Y-124380000D03*
X89000000Y-121840000D03*
X89000000Y-119300000D03*
X89000000Y-116760000D03*
X89000000Y-114220000D03*
X89000000Y-111680000D03*
X89000000Y-109140000D03*
D11*
X89000000Y-106600000D03*
D12*
X103700000Y-56780000D03*
X126560000Y-64400000D03*
X106240000Y-56780000D03*
X124020000Y-64400000D03*
X108780000Y-56780000D03*
X121480000Y-64400000D03*
X111320000Y-56780000D03*
X118940000Y-64400000D03*
X113860000Y-56780000D03*
X116400000Y-64400000D03*
X116400000Y-56780000D03*
X113860000Y-64400000D03*
X118940000Y-56780000D03*
X111320000Y-64400000D03*
X121480000Y-56780000D03*
X108780000Y-64400000D03*
X124020000Y-56780000D03*
X106240000Y-64400000D03*
X126560000Y-56780000D03*
D13*
X103700000Y-64400000D03*
D12*
X103600000Y-72880000D03*
X126460000Y-80500000D03*
X106140000Y-72880000D03*
X123920000Y-80500000D03*
X108680000Y-72880000D03*
X121380000Y-80500000D03*
X111220000Y-72880000D03*
X118840000Y-80500000D03*
X113760000Y-72880000D03*
X116300000Y-80500000D03*
X116300000Y-72880000D03*
X113760000Y-80500000D03*
X118840000Y-72880000D03*
X111220000Y-80500000D03*
X121380000Y-72880000D03*
X108680000Y-80500000D03*
X123920000Y-72880000D03*
X106140000Y-80500000D03*
X126460000Y-72880000D03*
D13*
X103600000Y-80500000D03*
D12*
X103800000Y-117680000D03*
X126660000Y-125300000D03*
X106340000Y-117680000D03*
X124120000Y-125300000D03*
X108880000Y-117680000D03*
X121580000Y-125300000D03*
X111420000Y-117680000D03*
X119040000Y-125300000D03*
X113960000Y-117680000D03*
X116500000Y-125300000D03*
X116500000Y-117680000D03*
X113960000Y-125300000D03*
X119040000Y-117680000D03*
X111420000Y-125300000D03*
X121580000Y-117680000D03*
X108880000Y-125300000D03*
X124120000Y-117680000D03*
X106340000Y-125300000D03*
X126660000Y-117680000D03*
D13*
X103800000Y-125300000D03*
D10*
X185460000Y-136000000D03*
X182920000Y-136000000D03*
X180380000Y-136000000D03*
X177840000Y-136000000D03*
X175300000Y-136000000D03*
X172760000Y-136000000D03*
X170220000Y-136000000D03*
X167680000Y-136000000D03*
X165140000Y-136000000D03*
X162600000Y-136000000D03*
X160060000Y-136000000D03*
X157520000Y-136000000D03*
X154980000Y-136000000D03*
X152440000Y-136000000D03*
X149900000Y-136000000D03*
X147360000Y-136000000D03*
X144820000Y-136000000D03*
X142280000Y-136000000D03*
X139740000Y-136000000D03*
X137200000Y-136000000D03*
X134660000Y-136000000D03*
X132120000Y-136000000D03*
X129580000Y-136000000D03*
X127040000Y-136000000D03*
X124500000Y-136000000D03*
X121960000Y-136000000D03*
X119420000Y-136000000D03*
X116880000Y-136000000D03*
X114340000Y-136000000D03*
X111800000Y-136000000D03*
X109260000Y-136000000D03*
X106720000Y-136000000D03*
X104180000Y-136000000D03*
X101640000Y-136000000D03*
X99100000Y-136000000D03*
X96560000Y-136000000D03*
X94020000Y-136000000D03*
X91480000Y-136000000D03*
X88940000Y-136000000D03*
D11*
X86400000Y-136000000D03*
D10*
X185460000Y-46000000D03*
X182920000Y-46000000D03*
X180380000Y-46000000D03*
X177840000Y-46000000D03*
X175300000Y-46000000D03*
X172760000Y-46000000D03*
X170220000Y-46000000D03*
X167680000Y-46000000D03*
X165140000Y-46000000D03*
X162600000Y-46000000D03*
X160060000Y-46000000D03*
X157520000Y-46000000D03*
X154980000Y-46000000D03*
X152440000Y-46000000D03*
X149900000Y-46000000D03*
X147360000Y-46000000D03*
X144820000Y-46000000D03*
X142280000Y-46000000D03*
X139740000Y-46000000D03*
X137200000Y-46000000D03*
X134660000Y-46000000D03*
X132120000Y-46000000D03*
X129580000Y-46000000D03*
X127040000Y-46000000D03*
X124500000Y-46000000D03*
X121960000Y-46000000D03*
X119420000Y-46000000D03*
X116880000Y-46000000D03*
X114340000Y-46000000D03*
X111800000Y-46000000D03*
X109260000Y-46000000D03*
X106720000Y-46000000D03*
X104180000Y-46000000D03*
X101640000Y-46000000D03*
X99100000Y-46000000D03*
X96560000Y-46000000D03*
X94020000Y-46000000D03*
X91480000Y-46000000D03*
X88940000Y-46000000D03*
D11*
X86400000Y-46000000D03*
M02*
