%FSLAX45Y45*%
G04 Gerber Fmt 4.5, Leading zero omitted, Abs format (unit mm)*
G04 Created by KiCad (PCBNEW (5.1.9)-1) date 2022-07-23 11:33:27*
%MOMM*%
%LPD*%
G01*
G04 APERTURE LIST*
%TA.AperFunction,Profile*%
%ADD10C,0.100000*%
%TD*%
%ADD11C,0.200000*%
%ADD12C,0.300000*%
G04 APERTURE END LIST*
D10*
X8500000Y-13900000D02*
X8500000Y-4300000D01*
X18700000Y-13900000D02*
X8500000Y-13900000D01*
X18700000Y-4300000D02*
X18700000Y-13900000D01*
X8500000Y-4300000D02*
X18700000Y-4300000D01*
D11*
X8762500Y-9896500D02*
X8802500Y-9936500D01*
X8802500Y-9896500D02*
X8762500Y-9936500D01*
X8880000Y-9810000D02*
X8920000Y-9850000D01*
X8920000Y-9810000D02*
X8880000Y-9850000D01*
X9070000Y-9119289D02*
X9110000Y-9159289D01*
X9110000Y-9119289D02*
X9070000Y-9159289D01*
X9180000Y-9190000D02*
X9220000Y-9230000D01*
X9220000Y-9190000D02*
X9180000Y-9230000D01*
X9260000Y-9032501D02*
X9300000Y-9072501D01*
X9300000Y-9032501D02*
X9260000Y-9072501D01*
X9340000Y-9270000D02*
X9380000Y-9310000D01*
X9380000Y-9270000D02*
X9340000Y-9310000D01*
X9420000Y-8960000D02*
X9460000Y-9000000D01*
X9460000Y-8960000D02*
X9420000Y-9000000D01*
X9502500Y-9342500D02*
X9542500Y-9382500D01*
X9542500Y-9342500D02*
X9502500Y-9382500D01*
X9590500Y-8880500D02*
X9630500Y-8920500D01*
X9630500Y-8880500D02*
X9590500Y-8920500D01*
X9682500Y-9417500D02*
X9722500Y-9457500D01*
X9722500Y-9417500D02*
X9682500Y-9457500D01*
X13000000Y-8160000D02*
X13040000Y-8200000D01*
X13040000Y-8160000D02*
X13000000Y-8200000D01*
X13030000Y-10600000D02*
X13070000Y-10640000D01*
X13070000Y-10600000D02*
X13030000Y-10640000D01*
X13180000Y-5260000D02*
X13220000Y-5300000D01*
X13220000Y-5260000D02*
X13180000Y-5300000D01*
X13559340Y-11539340D02*
X13599340Y-11579340D01*
X13599340Y-11539340D02*
X13559340Y-11579340D01*
X13750000Y-6880000D02*
X13790000Y-6920000D01*
X13790000Y-6880000D02*
X13750000Y-6920000D01*
X13760000Y-8510000D02*
X13800000Y-8550000D01*
X13800000Y-8510000D02*
X13760000Y-8550000D01*
X13790000Y-10380000D02*
X13830000Y-10420000D01*
X13830000Y-10380000D02*
X13790000Y-10420000D01*
X13880000Y-5690000D02*
X13920000Y-5730000D01*
X13920000Y-5690000D02*
X13880000Y-5730000D01*
X13930000Y-12390000D02*
X13970000Y-12430000D01*
X13970000Y-12390000D02*
X13930000Y-12430000D01*
X14170000Y-12680000D02*
X14210000Y-12720000D01*
X14210000Y-12680000D02*
X14170000Y-12720000D01*
X14250000Y-11080000D02*
X14290000Y-11120000D01*
X14290000Y-11080000D02*
X14250000Y-11120000D01*
X14264286Y-7080000D02*
X14304286Y-7120000D01*
X14304286Y-7080000D02*
X14264286Y-7120000D01*
X14770000Y-10980000D02*
X14810000Y-11020000D01*
X14810000Y-10980000D02*
X14770000Y-11020000D01*
X14778571Y-7180000D02*
X14818571Y-7220000D01*
X14818571Y-7180000D02*
X14778571Y-7220000D01*
X15280000Y-10880000D02*
X15320000Y-10920000D01*
X15320000Y-10880000D02*
X15280000Y-10920000D01*
X15292857Y-7280000D02*
X15332857Y-7320000D01*
X15332857Y-7280000D02*
X15292857Y-7320000D01*
X15800000Y-10780000D02*
X15840000Y-10820000D01*
X15840000Y-10780000D02*
X15800000Y-10820000D01*
X15807143Y-7380000D02*
X15847143Y-7420000D01*
X15847143Y-7380000D02*
X15807143Y-7420000D01*
X16020000Y-10290000D02*
X16060000Y-10330000D01*
X16060000Y-10290000D02*
X16020000Y-10330000D01*
X16170000Y-10200000D02*
X16210000Y-10240000D01*
X16210000Y-10200000D02*
X16170000Y-10240000D01*
X16310000Y-10680000D02*
X16350000Y-10720000D01*
X16350000Y-10680000D02*
X16310000Y-10720000D01*
X16320000Y-7480000D02*
X16360000Y-7520000D01*
X16360000Y-7480000D02*
X16320000Y-7520000D01*
X16820000Y-10580000D02*
X16860000Y-10620000D01*
X16860000Y-10580000D02*
X16820000Y-10620000D01*
X16835714Y-7580000D02*
X16875714Y-7620000D01*
X16875714Y-7580000D02*
X16835714Y-7620000D01*
X17340000Y-10480000D02*
X17380000Y-10520000D01*
X17380000Y-10480000D02*
X17340000Y-10520000D01*
X17350000Y-7680000D02*
X17390000Y-7720000D01*
X17390000Y-7680000D02*
X17350000Y-7720000D01*
X10400000Y-7288000D02*
G75*
G03*
X10400000Y-7288000I-40000J0D01*
G01*
X10400000Y-8050000D02*
G75*
G03*
X10400000Y-8050000I-40000J0D01*
G01*
X10400000Y-10158000D02*
G75*
G03*
X10400000Y-10158000I-40000J0D01*
G01*
X10400000Y-10920000D02*
G75*
G03*
X10400000Y-10920000I-40000J0D01*
G01*
X10410000Y-5678000D02*
G75*
G03*
X10410000Y-5678000I-40000J0D01*
G01*
X10410000Y-6440000D02*
G75*
G03*
X10410000Y-6440000I-40000J0D01*
G01*
X10420000Y-11768000D02*
G75*
G03*
X10420000Y-11768000I-40000J0D01*
G01*
X10420000Y-12530000D02*
G75*
G03*
X10420000Y-12530000I-40000J0D01*
G01*
X10654000Y-7288000D02*
G75*
G03*
X10654000Y-7288000I-40000J0D01*
G01*
X10654000Y-8050000D02*
G75*
G03*
X10654000Y-8050000I-40000J0D01*
G01*
X10654000Y-10158000D02*
G75*
G03*
X10654000Y-10158000I-40000J0D01*
G01*
X10654000Y-10920000D02*
G75*
G03*
X10654000Y-10920000I-40000J0D01*
G01*
X10664000Y-5678000D02*
G75*
G03*
X10664000Y-5678000I-40000J0D01*
G01*
X10664000Y-6440000D02*
G75*
G03*
X10664000Y-6440000I-40000J0D01*
G01*
X10674000Y-11768000D02*
G75*
G03*
X10674000Y-11768000I-40000J0D01*
G01*
X10674000Y-12530000D02*
G75*
G03*
X10674000Y-12530000I-40000J0D01*
G01*
X10908000Y-7288000D02*
G75*
G03*
X10908000Y-7288000I-40000J0D01*
G01*
X10908000Y-8050000D02*
G75*
G03*
X10908000Y-8050000I-40000J0D01*
G01*
X10908000Y-10158000D02*
G75*
G03*
X10908000Y-10158000I-40000J0D01*
G01*
X10908000Y-10920000D02*
G75*
G03*
X10908000Y-10920000I-40000J0D01*
G01*
X10918000Y-5678000D02*
G75*
G03*
X10918000Y-5678000I-40000J0D01*
G01*
X10918000Y-6440000D02*
G75*
G03*
X10918000Y-6440000I-40000J0D01*
G01*
X10928000Y-11768000D02*
G75*
G03*
X10928000Y-11768000I-40000J0D01*
G01*
X10928000Y-12530000D02*
G75*
G03*
X10928000Y-12530000I-40000J0D01*
G01*
X11162000Y-7288000D02*
G75*
G03*
X11162000Y-7288000I-40000J0D01*
G01*
X11162000Y-8050000D02*
G75*
G03*
X11162000Y-8050000I-40000J0D01*
G01*
X11162000Y-10158000D02*
G75*
G03*
X11162000Y-10158000I-40000J0D01*
G01*
X11162000Y-10920000D02*
G75*
G03*
X11162000Y-10920000I-40000J0D01*
G01*
X11172000Y-5678000D02*
G75*
G03*
X11172000Y-5678000I-40000J0D01*
G01*
X11172000Y-6440000D02*
G75*
G03*
X11172000Y-6440000I-40000J0D01*
G01*
X11182000Y-11768000D02*
G75*
G03*
X11182000Y-11768000I-40000J0D01*
G01*
X11182000Y-12530000D02*
G75*
G03*
X11182000Y-12530000I-40000J0D01*
G01*
X11416000Y-7288000D02*
G75*
G03*
X11416000Y-7288000I-40000J0D01*
G01*
X11416000Y-8050000D02*
G75*
G03*
X11416000Y-8050000I-40000J0D01*
G01*
X11416000Y-10158000D02*
G75*
G03*
X11416000Y-10158000I-40000J0D01*
G01*
X11416000Y-10920000D02*
G75*
G03*
X11416000Y-10920000I-40000J0D01*
G01*
X11426000Y-5678000D02*
G75*
G03*
X11426000Y-5678000I-40000J0D01*
G01*
X11426000Y-6440000D02*
G75*
G03*
X11426000Y-6440000I-40000J0D01*
G01*
X11436000Y-11768000D02*
G75*
G03*
X11436000Y-11768000I-40000J0D01*
G01*
X11436000Y-12530000D02*
G75*
G03*
X11436000Y-12530000I-40000J0D01*
G01*
X11670000Y-7288000D02*
G75*
G03*
X11670000Y-7288000I-40000J0D01*
G01*
X11670000Y-8050000D02*
G75*
G03*
X11670000Y-8050000I-40000J0D01*
G01*
X11670000Y-10158000D02*
G75*
G03*
X11670000Y-10158000I-40000J0D01*
G01*
X11670000Y-10920000D02*
G75*
G03*
X11670000Y-10920000I-40000J0D01*
G01*
X11680000Y-5678000D02*
G75*
G03*
X11680000Y-5678000I-40000J0D01*
G01*
X11680000Y-6440000D02*
G75*
G03*
X11680000Y-6440000I-40000J0D01*
G01*
X11690000Y-11768000D02*
G75*
G03*
X11690000Y-11768000I-40000J0D01*
G01*
X11690000Y-12530000D02*
G75*
G03*
X11690000Y-12530000I-40000J0D01*
G01*
X11924000Y-7288000D02*
G75*
G03*
X11924000Y-7288000I-40000J0D01*
G01*
X11924000Y-8050000D02*
G75*
G03*
X11924000Y-8050000I-40000J0D01*
G01*
X11924000Y-10158000D02*
G75*
G03*
X11924000Y-10158000I-40000J0D01*
G01*
X11924000Y-10920000D02*
G75*
G03*
X11924000Y-10920000I-40000J0D01*
G01*
X11934000Y-5678000D02*
G75*
G03*
X11934000Y-5678000I-40000J0D01*
G01*
X11934000Y-6440000D02*
G75*
G03*
X11934000Y-6440000I-40000J0D01*
G01*
X11944000Y-11768000D02*
G75*
G03*
X11944000Y-11768000I-40000J0D01*
G01*
X11944000Y-12530000D02*
G75*
G03*
X11944000Y-12530000I-40000J0D01*
G01*
X12178000Y-7288000D02*
G75*
G03*
X12178000Y-7288000I-40000J0D01*
G01*
X12178000Y-8050000D02*
G75*
G03*
X12178000Y-8050000I-40000J0D01*
G01*
X12178000Y-10158000D02*
G75*
G03*
X12178000Y-10158000I-40000J0D01*
G01*
X12178000Y-10920000D02*
G75*
G03*
X12178000Y-10920000I-40000J0D01*
G01*
X12188000Y-5678000D02*
G75*
G03*
X12188000Y-5678000I-40000J0D01*
G01*
X12188000Y-6440000D02*
G75*
G03*
X12188000Y-6440000I-40000J0D01*
G01*
X12198000Y-11768000D02*
G75*
G03*
X12198000Y-11768000I-40000J0D01*
G01*
X12198000Y-12530000D02*
G75*
G03*
X12198000Y-12530000I-40000J0D01*
G01*
X12432000Y-7288000D02*
G75*
G03*
X12432000Y-7288000I-40000J0D01*
G01*
X12432000Y-8050000D02*
G75*
G03*
X12432000Y-8050000I-40000J0D01*
G01*
X12432000Y-10158000D02*
G75*
G03*
X12432000Y-10158000I-40000J0D01*
G01*
X12432000Y-10920000D02*
G75*
G03*
X12432000Y-10920000I-40000J0D01*
G01*
X12442000Y-5678000D02*
G75*
G03*
X12442000Y-5678000I-40000J0D01*
G01*
X12442000Y-6440000D02*
G75*
G03*
X12442000Y-6440000I-40000J0D01*
G01*
X12452000Y-11768000D02*
G75*
G03*
X12452000Y-11768000I-40000J0D01*
G01*
X12452000Y-12530000D02*
G75*
G03*
X12452000Y-12530000I-40000J0D01*
G01*
X12686000Y-7288000D02*
G75*
G03*
X12686000Y-7288000I-40000J0D01*
G01*
X12686000Y-8050000D02*
G75*
G03*
X12686000Y-8050000I-40000J0D01*
G01*
X12686000Y-10158000D02*
G75*
G03*
X12686000Y-10158000I-40000J0D01*
G01*
X12686000Y-10920000D02*
G75*
G03*
X12686000Y-10920000I-40000J0D01*
G01*
X12696000Y-5678000D02*
G75*
G03*
X12696000Y-5678000I-40000J0D01*
G01*
X12696000Y-6440000D02*
G75*
G03*
X12696000Y-6440000I-40000J0D01*
G01*
X12706000Y-11768000D02*
G75*
G03*
X12706000Y-11768000I-40000J0D01*
G01*
X12706000Y-12530000D02*
G75*
G03*
X12706000Y-12530000I-40000J0D01*
G01*
X13630000Y-8788000D02*
G75*
G03*
X13630000Y-8788000I-40000J0D01*
G01*
X13630000Y-9550000D02*
G75*
G03*
X13630000Y-9550000I-40000J0D01*
G01*
X13884000Y-8788000D02*
G75*
G03*
X13884000Y-8788000I-40000J0D01*
G01*
X13884000Y-9550000D02*
G75*
G03*
X13884000Y-9550000I-40000J0D01*
G01*
X14138000Y-8788000D02*
G75*
G03*
X14138000Y-8788000I-40000J0D01*
G01*
X14138000Y-9550000D02*
G75*
G03*
X14138000Y-9550000I-40000J0D01*
G01*
X14392000Y-8788000D02*
G75*
G03*
X14392000Y-8788000I-40000J0D01*
G01*
X14392000Y-9550000D02*
G75*
G03*
X14392000Y-9550000I-40000J0D01*
G01*
X14646000Y-8788000D02*
G75*
G03*
X14646000Y-8788000I-40000J0D01*
G01*
X14646000Y-9550000D02*
G75*
G03*
X14646000Y-9550000I-40000J0D01*
G01*
X14900000Y-8788000D02*
G75*
G03*
X14900000Y-8788000I-40000J0D01*
G01*
X14900000Y-9550000D02*
G75*
G03*
X14900000Y-9550000I-40000J0D01*
G01*
X15154000Y-8788000D02*
G75*
G03*
X15154000Y-8788000I-40000J0D01*
G01*
X15154000Y-9550000D02*
G75*
G03*
X15154000Y-9550000I-40000J0D01*
G01*
X15408000Y-8788000D02*
G75*
G03*
X15408000Y-8788000I-40000J0D01*
G01*
X15408000Y-9550000D02*
G75*
G03*
X15408000Y-9550000I-40000J0D01*
G01*
X16276000Y-8788000D02*
G75*
G03*
X16276000Y-8788000I-40000J0D01*
G01*
X16276000Y-9550000D02*
G75*
G03*
X16276000Y-9550000I-40000J0D01*
G01*
X16530000Y-8788000D02*
G75*
G03*
X16530000Y-8788000I-40000J0D01*
G01*
X16530000Y-9550000D02*
G75*
G03*
X16530000Y-9550000I-40000J0D01*
G01*
X16784000Y-8788000D02*
G75*
G03*
X16784000Y-8788000I-40000J0D01*
G01*
X16784000Y-9550000D02*
G75*
G03*
X16784000Y-9550000I-40000J0D01*
G01*
X17038000Y-8788000D02*
G75*
G03*
X17038000Y-8788000I-40000J0D01*
G01*
X17038000Y-9550000D02*
G75*
G03*
X17038000Y-9550000I-40000J0D01*
G01*
X17292000Y-8788000D02*
G75*
G03*
X17292000Y-8788000I-40000J0D01*
G01*
X17292000Y-9550000D02*
G75*
G03*
X17292000Y-9550000I-40000J0D01*
G01*
X17546000Y-8788000D02*
G75*
G03*
X17546000Y-8788000I-40000J0D01*
G01*
X17546000Y-9550000D02*
G75*
G03*
X17546000Y-9550000I-40000J0D01*
G01*
X17800000Y-8788000D02*
G75*
G03*
X17800000Y-8788000I-40000J0D01*
G01*
X17800000Y-9550000D02*
G75*
G03*
X17800000Y-9550000I-40000J0D01*
G01*
X18054000Y-8788000D02*
G75*
G03*
X18054000Y-8788000I-40000J0D01*
G01*
X18054000Y-9550000D02*
G75*
G03*
X18054000Y-9550000I-40000J0D01*
G01*
X8640000Y-4550000D02*
X8640000Y-4650000D01*
X8590000Y-4600000D02*
X8690000Y-4600000D01*
X8640000Y-13550000D02*
X8640000Y-13650000D01*
X8590000Y-13600000D02*
X8690000Y-13600000D01*
X8894000Y-4550000D02*
X8894000Y-4650000D01*
X8844000Y-4600000D02*
X8944000Y-4600000D01*
X8894000Y-13550000D02*
X8894000Y-13650000D01*
X8844000Y-13600000D02*
X8944000Y-13600000D01*
X8900000Y-5710000D02*
X8900000Y-5810000D01*
X8850000Y-5760000D02*
X8950000Y-5760000D01*
X8900000Y-5964000D02*
X8900000Y-6064000D01*
X8850000Y-6014000D02*
X8950000Y-6014000D01*
X8900000Y-6218000D02*
X8900000Y-6318000D01*
X8850000Y-6268000D02*
X8950000Y-6268000D01*
X8900000Y-6472000D02*
X8900000Y-6572000D01*
X8850000Y-6522000D02*
X8950000Y-6522000D01*
X8900000Y-10610000D02*
X8900000Y-10710000D01*
X8850000Y-10660000D02*
X8950000Y-10660000D01*
X8900000Y-10864000D02*
X8900000Y-10964000D01*
X8850000Y-10914000D02*
X8950000Y-10914000D01*
X8900000Y-11118000D02*
X8900000Y-11218000D01*
X8850000Y-11168000D02*
X8950000Y-11168000D01*
X8900000Y-11372000D02*
X8900000Y-11472000D01*
X8850000Y-11422000D02*
X8950000Y-11422000D01*
X8900000Y-11626000D02*
X8900000Y-11726000D01*
X8850000Y-11676000D02*
X8950000Y-11676000D01*
X8900000Y-11880000D02*
X8900000Y-11980000D01*
X8850000Y-11930000D02*
X8950000Y-11930000D01*
X8900000Y-12134000D02*
X8900000Y-12234000D01*
X8850000Y-12184000D02*
X8950000Y-12184000D01*
X8900000Y-12388000D02*
X8900000Y-12488000D01*
X8850000Y-12438000D02*
X8950000Y-12438000D01*
X9148000Y-4550000D02*
X9148000Y-4650000D01*
X9098000Y-4600000D02*
X9198000Y-4600000D01*
X9148000Y-13550000D02*
X9148000Y-13650000D01*
X9098000Y-13600000D02*
X9198000Y-13600000D01*
X9402000Y-4550000D02*
X9402000Y-4650000D01*
X9352000Y-4600000D02*
X9452000Y-4600000D01*
X9402000Y-13550000D02*
X9402000Y-13650000D01*
X9352000Y-13600000D02*
X9452000Y-13600000D01*
X9656000Y-4550000D02*
X9656000Y-4650000D01*
X9606000Y-4600000D02*
X9706000Y-4600000D01*
X9656000Y-13550000D02*
X9656000Y-13650000D01*
X9606000Y-13600000D02*
X9706000Y-13600000D01*
X9910000Y-4550000D02*
X9910000Y-4650000D01*
X9860000Y-4600000D02*
X9960000Y-4600000D01*
X9910000Y-13550000D02*
X9910000Y-13650000D01*
X9860000Y-13600000D02*
X9960000Y-13600000D01*
X10164000Y-4550000D02*
X10164000Y-4650000D01*
X10114000Y-4600000D02*
X10214000Y-4600000D01*
X10164000Y-13550000D02*
X10164000Y-13650000D01*
X10114000Y-13600000D02*
X10214000Y-13600000D01*
X10418000Y-4550000D02*
X10418000Y-4650000D01*
X10368000Y-4600000D02*
X10468000Y-4600000D01*
X10418000Y-13550000D02*
X10418000Y-13650000D01*
X10368000Y-13600000D02*
X10468000Y-13600000D01*
X10672000Y-4550000D02*
X10672000Y-4650000D01*
X10622000Y-4600000D02*
X10722000Y-4600000D01*
X10672000Y-13550000D02*
X10672000Y-13650000D01*
X10622000Y-13600000D02*
X10722000Y-13600000D01*
X10926000Y-4550000D02*
X10926000Y-4650000D01*
X10876000Y-4600000D02*
X10976000Y-4600000D01*
X10926000Y-13550000D02*
X10926000Y-13650000D01*
X10876000Y-13600000D02*
X10976000Y-13600000D01*
X11180000Y-4550000D02*
X11180000Y-4650000D01*
X11130000Y-4600000D02*
X11230000Y-4600000D01*
X11180000Y-13550000D02*
X11180000Y-13650000D01*
X11130000Y-13600000D02*
X11230000Y-13600000D01*
X11434000Y-4550000D02*
X11434000Y-4650000D01*
X11384000Y-4600000D02*
X11484000Y-4600000D01*
X11434000Y-13550000D02*
X11434000Y-13650000D01*
X11384000Y-13600000D02*
X11484000Y-13600000D01*
X11688000Y-4550000D02*
X11688000Y-4650000D01*
X11638000Y-4600000D02*
X11738000Y-4600000D01*
X11688000Y-13550000D02*
X11688000Y-13650000D01*
X11638000Y-13600000D02*
X11738000Y-13600000D01*
X11942000Y-4550000D02*
X11942000Y-4650000D01*
X11892000Y-4600000D02*
X11992000Y-4600000D01*
X11942000Y-13550000D02*
X11942000Y-13650000D01*
X11892000Y-13600000D02*
X11992000Y-13600000D01*
X12196000Y-4550000D02*
X12196000Y-4650000D01*
X12146000Y-4600000D02*
X12246000Y-4600000D01*
X12196000Y-13550000D02*
X12196000Y-13650000D01*
X12146000Y-13600000D02*
X12246000Y-13600000D01*
X12450000Y-4550000D02*
X12450000Y-4650000D01*
X12400000Y-4600000D02*
X12500000Y-4600000D01*
X12450000Y-13550000D02*
X12450000Y-13650000D01*
X12400000Y-13600000D02*
X12500000Y-13600000D01*
X12704000Y-4550000D02*
X12704000Y-4650000D01*
X12654000Y-4600000D02*
X12754000Y-4600000D01*
X12704000Y-13550000D02*
X12704000Y-13650000D01*
X12654000Y-13600000D02*
X12754000Y-13600000D01*
X12958000Y-4550000D02*
X12958000Y-4650000D01*
X12908000Y-4600000D02*
X13008000Y-4600000D01*
X12958000Y-13550000D02*
X12958000Y-13650000D01*
X12908000Y-13600000D02*
X13008000Y-13600000D01*
X13212000Y-4550000D02*
X13212000Y-4650000D01*
X13162000Y-4600000D02*
X13262000Y-4600000D01*
X13212000Y-13550000D02*
X13212000Y-13650000D01*
X13162000Y-13600000D02*
X13262000Y-13600000D01*
X13466000Y-4550000D02*
X13466000Y-4650000D01*
X13416000Y-4600000D02*
X13516000Y-4600000D01*
X13466000Y-13550000D02*
X13466000Y-13650000D01*
X13416000Y-13600000D02*
X13516000Y-13600000D01*
X13720000Y-4550000D02*
X13720000Y-4650000D01*
X13670000Y-4600000D02*
X13770000Y-4600000D01*
X13720000Y-13550000D02*
X13720000Y-13650000D01*
X13670000Y-13600000D02*
X13770000Y-13600000D01*
X13974000Y-4550000D02*
X13974000Y-4650000D01*
X13924000Y-4600000D02*
X14024000Y-4600000D01*
X13974000Y-13550000D02*
X13974000Y-13650000D01*
X13924000Y-13600000D02*
X14024000Y-13600000D01*
X14228000Y-4550000D02*
X14228000Y-4650000D01*
X14178000Y-4600000D02*
X14278000Y-4600000D01*
X14228000Y-13550000D02*
X14228000Y-13650000D01*
X14178000Y-13600000D02*
X14278000Y-13600000D01*
X14482000Y-4550000D02*
X14482000Y-4650000D01*
X14432000Y-4600000D02*
X14532000Y-4600000D01*
X14482000Y-13550000D02*
X14482000Y-13650000D01*
X14432000Y-13600000D02*
X14532000Y-13600000D01*
X14736000Y-4550000D02*
X14736000Y-4650000D01*
X14686000Y-4600000D02*
X14786000Y-4600000D01*
X14736000Y-13550000D02*
X14736000Y-13650000D01*
X14686000Y-13600000D02*
X14786000Y-13600000D01*
X14990000Y-4550000D02*
X14990000Y-4650000D01*
X14940000Y-4600000D02*
X15040000Y-4600000D01*
X14990000Y-13550000D02*
X14990000Y-13650000D01*
X14940000Y-13600000D02*
X15040000Y-13600000D01*
X15244000Y-4550000D02*
X15244000Y-4650000D01*
X15194000Y-4600000D02*
X15294000Y-4600000D01*
X15244000Y-13550000D02*
X15244000Y-13650000D01*
X15194000Y-13600000D02*
X15294000Y-13600000D01*
X15498000Y-4550000D02*
X15498000Y-4650000D01*
X15448000Y-4600000D02*
X15548000Y-4600000D01*
X15498000Y-13550000D02*
X15498000Y-13650000D01*
X15448000Y-13600000D02*
X15548000Y-13600000D01*
X15752000Y-4550000D02*
X15752000Y-4650000D01*
X15702000Y-4600000D02*
X15802000Y-4600000D01*
X15752000Y-13550000D02*
X15752000Y-13650000D01*
X15702000Y-13600000D02*
X15802000Y-13600000D01*
X16006000Y-4550000D02*
X16006000Y-4650000D01*
X15956000Y-4600000D02*
X16056000Y-4600000D01*
X16006000Y-13550000D02*
X16006000Y-13650000D01*
X15956000Y-13600000D02*
X16056000Y-13600000D01*
X16260000Y-4550000D02*
X16260000Y-4650000D01*
X16210000Y-4600000D02*
X16310000Y-4600000D01*
X16260000Y-13550000D02*
X16260000Y-13650000D01*
X16210000Y-13600000D02*
X16310000Y-13600000D01*
X16514000Y-4550000D02*
X16514000Y-4650000D01*
X16464000Y-4600000D02*
X16564000Y-4600000D01*
X16514000Y-13550000D02*
X16514000Y-13650000D01*
X16464000Y-13600000D02*
X16564000Y-13600000D01*
X16768000Y-4550000D02*
X16768000Y-4650000D01*
X16718000Y-4600000D02*
X16818000Y-4600000D01*
X16768000Y-13550000D02*
X16768000Y-13650000D01*
X16718000Y-13600000D02*
X16818000Y-13600000D01*
X17022000Y-4550000D02*
X17022000Y-4650000D01*
X16972000Y-4600000D02*
X17072000Y-4600000D01*
X17022000Y-13550000D02*
X17022000Y-13650000D01*
X16972000Y-13600000D02*
X17072000Y-13600000D01*
X17276000Y-4550000D02*
X17276000Y-4650000D01*
X17226000Y-4600000D02*
X17326000Y-4600000D01*
X17276000Y-13550000D02*
X17276000Y-13650000D01*
X17226000Y-13600000D02*
X17326000Y-13600000D01*
X17530000Y-4550000D02*
X17530000Y-4650000D01*
X17480000Y-4600000D02*
X17580000Y-4600000D01*
X17530000Y-13550000D02*
X17530000Y-13650000D01*
X17480000Y-13600000D02*
X17580000Y-13600000D01*
X17784000Y-4550000D02*
X17784000Y-4650000D01*
X17734000Y-4600000D02*
X17834000Y-4600000D01*
X17784000Y-13550000D02*
X17784000Y-13650000D01*
X17734000Y-13600000D02*
X17834000Y-13600000D01*
X18038000Y-4550000D02*
X18038000Y-4650000D01*
X17988000Y-4600000D02*
X18088000Y-4600000D01*
X18038000Y-13550000D02*
X18038000Y-13650000D01*
X17988000Y-13600000D02*
X18088000Y-13600000D01*
X18292000Y-4550000D02*
X18292000Y-4650000D01*
X18242000Y-4600000D02*
X18342000Y-4600000D01*
X18292000Y-13550000D02*
X18292000Y-13650000D01*
X18242000Y-13600000D02*
X18342000Y-13600000D01*
X18546000Y-4550000D02*
X18546000Y-4650000D01*
X18496000Y-4600000D02*
X18596000Y-4600000D01*
X18546000Y-13550000D02*
X18546000Y-13650000D01*
X18496000Y-13600000D02*
X18596000Y-13600000D01*
D12*
X8781428Y-14370714D02*
X8781428Y-14070714D01*
X8852857Y-14070714D01*
X8895714Y-14085000D01*
X8924286Y-14113571D01*
X8938571Y-14142143D01*
X8952857Y-14199286D01*
X8952857Y-14242143D01*
X8938571Y-14299286D01*
X8924286Y-14327857D01*
X8895714Y-14356429D01*
X8852857Y-14370714D01*
X8781428Y-14370714D01*
X9081428Y-14370714D02*
X9081428Y-14170714D01*
X9081428Y-14227857D02*
X9095714Y-14199286D01*
X9110000Y-14185000D01*
X9138571Y-14170714D01*
X9167143Y-14170714D01*
X9267143Y-14370714D02*
X9267143Y-14170714D01*
X9267143Y-14070714D02*
X9252857Y-14085000D01*
X9267143Y-14099286D01*
X9281428Y-14085000D01*
X9267143Y-14070714D01*
X9267143Y-14099286D01*
X9452857Y-14370714D02*
X9424286Y-14356429D01*
X9410000Y-14327857D01*
X9410000Y-14070714D01*
X9610000Y-14370714D02*
X9581428Y-14356429D01*
X9567143Y-14327857D01*
X9567143Y-14070714D01*
X9952857Y-14370714D02*
X9952857Y-14070714D01*
X10052857Y-14285000D01*
X10152857Y-14070714D01*
X10152857Y-14370714D01*
X10424286Y-14370714D02*
X10424286Y-14213571D01*
X10410000Y-14185000D01*
X10381428Y-14170714D01*
X10324286Y-14170714D01*
X10295714Y-14185000D01*
X10424286Y-14356429D02*
X10395714Y-14370714D01*
X10324286Y-14370714D01*
X10295714Y-14356429D01*
X10281428Y-14327857D01*
X10281428Y-14299286D01*
X10295714Y-14270714D01*
X10324286Y-14256429D01*
X10395714Y-14256429D01*
X10424286Y-14242143D01*
X10567143Y-14170714D02*
X10567143Y-14470714D01*
X10567143Y-14185000D02*
X10595714Y-14170714D01*
X10652857Y-14170714D01*
X10681428Y-14185000D01*
X10695714Y-14199286D01*
X10710000Y-14227857D01*
X10710000Y-14313571D01*
X10695714Y-14342143D01*
X10681428Y-14356429D01*
X10652857Y-14370714D01*
X10595714Y-14370714D01*
X10567143Y-14356429D01*
X10838571Y-14342143D02*
X10852857Y-14356429D01*
X10838571Y-14370714D01*
X10824286Y-14356429D01*
X10838571Y-14342143D01*
X10838571Y-14370714D01*
X10838571Y-14185000D02*
X10852857Y-14199286D01*
X10838571Y-14213571D01*
X10824286Y-14199286D01*
X10838571Y-14185000D01*
X10838571Y-14213571D01*
X8455000Y-14845000D02*
X8495000Y-14885000D01*
X8495000Y-14845000D02*
X8455000Y-14885000D01*
X8838571Y-14700714D02*
X8867143Y-14700714D01*
X8895714Y-14715000D01*
X8910000Y-14729286D01*
X8924286Y-14757857D01*
X8938571Y-14815000D01*
X8938571Y-14886429D01*
X8924286Y-14943571D01*
X8910000Y-14972143D01*
X8895714Y-14986429D01*
X8867143Y-15000714D01*
X8838571Y-15000714D01*
X8810000Y-14986429D01*
X8795714Y-14972143D01*
X8781428Y-14943571D01*
X8767143Y-14886429D01*
X8767143Y-14815000D01*
X8781428Y-14757857D01*
X8795714Y-14729286D01*
X8810000Y-14715000D01*
X8838571Y-14700714D01*
X9067143Y-14972143D02*
X9081428Y-14986429D01*
X9067143Y-15000714D01*
X9052857Y-14986429D01*
X9067143Y-14972143D01*
X9067143Y-15000714D01*
X9338571Y-14800714D02*
X9338571Y-15000714D01*
X9267143Y-14686429D02*
X9195714Y-14900714D01*
X9381428Y-14900714D01*
X9552857Y-14700714D02*
X9581428Y-14700714D01*
X9610000Y-14715000D01*
X9624286Y-14729286D01*
X9638571Y-14757857D01*
X9652857Y-14815000D01*
X9652857Y-14886429D01*
X9638571Y-14943571D01*
X9624286Y-14972143D01*
X9610000Y-14986429D01*
X9581428Y-15000714D01*
X9552857Y-15000714D01*
X9524286Y-14986429D01*
X9510000Y-14972143D01*
X9495714Y-14943571D01*
X9481428Y-14886429D01*
X9481428Y-14815000D01*
X9495714Y-14757857D01*
X9510000Y-14729286D01*
X9524286Y-14715000D01*
X9552857Y-14700714D01*
X9781428Y-15000714D02*
X9781428Y-14800714D01*
X9781428Y-14829286D02*
X9795714Y-14815000D01*
X9824286Y-14800714D01*
X9867143Y-14800714D01*
X9895714Y-14815000D01*
X9910000Y-14843571D01*
X9910000Y-15000714D01*
X9910000Y-14843571D02*
X9924286Y-14815000D01*
X9952857Y-14800714D01*
X9995714Y-14800714D01*
X10024286Y-14815000D01*
X10038571Y-14843571D01*
X10038571Y-15000714D01*
X10181428Y-15000714D02*
X10181428Y-14800714D01*
X10181428Y-14829286D02*
X10195714Y-14815000D01*
X10224286Y-14800714D01*
X10267143Y-14800714D01*
X10295714Y-14815000D01*
X10310000Y-14843571D01*
X10310000Y-15000714D01*
X10310000Y-14843571D02*
X10324286Y-14815000D01*
X10352857Y-14800714D01*
X10395714Y-14800714D01*
X10424286Y-14815000D01*
X10438571Y-14843571D01*
X10438571Y-15000714D01*
X11024286Y-14686429D02*
X10767143Y-15072143D01*
X11410000Y-14700714D02*
X11438571Y-14700714D01*
X11467143Y-14715000D01*
X11481428Y-14729286D01*
X11495714Y-14757857D01*
X11510000Y-14815000D01*
X11510000Y-14886429D01*
X11495714Y-14943571D01*
X11481428Y-14972143D01*
X11467143Y-14986429D01*
X11438571Y-15000714D01*
X11410000Y-15000714D01*
X11381428Y-14986429D01*
X11367143Y-14972143D01*
X11352857Y-14943571D01*
X11338571Y-14886429D01*
X11338571Y-14815000D01*
X11352857Y-14757857D01*
X11367143Y-14729286D01*
X11381428Y-14715000D01*
X11410000Y-14700714D01*
X11638571Y-14972143D02*
X11652857Y-14986429D01*
X11638571Y-15000714D01*
X11624286Y-14986429D01*
X11638571Y-14972143D01*
X11638571Y-15000714D01*
X11838571Y-14700714D02*
X11867143Y-14700714D01*
X11895714Y-14715000D01*
X11910000Y-14729286D01*
X11924286Y-14757857D01*
X11938571Y-14815000D01*
X11938571Y-14886429D01*
X11924286Y-14943571D01*
X11910000Y-14972143D01*
X11895714Y-14986429D01*
X11867143Y-15000714D01*
X11838571Y-15000714D01*
X11810000Y-14986429D01*
X11795714Y-14972143D01*
X11781428Y-14943571D01*
X11767143Y-14886429D01*
X11767143Y-14815000D01*
X11781428Y-14757857D01*
X11795714Y-14729286D01*
X11810000Y-14715000D01*
X11838571Y-14700714D01*
X12224286Y-15000714D02*
X12052857Y-15000714D01*
X12138571Y-15000714D02*
X12138571Y-14700714D01*
X12110000Y-14743571D01*
X12081428Y-14772143D01*
X12052857Y-14786429D01*
X12481428Y-14700714D02*
X12424286Y-14700714D01*
X12395714Y-14715000D01*
X12381428Y-14729286D01*
X12352857Y-14772143D01*
X12338571Y-14829286D01*
X12338571Y-14943571D01*
X12352857Y-14972143D01*
X12367143Y-14986429D01*
X12395714Y-15000714D01*
X12452857Y-15000714D01*
X12481428Y-14986429D01*
X12495714Y-14972143D01*
X12510000Y-14943571D01*
X12510000Y-14872143D01*
X12495714Y-14843571D01*
X12481428Y-14829286D01*
X12452857Y-14815000D01*
X12395714Y-14815000D01*
X12367143Y-14829286D01*
X12352857Y-14843571D01*
X12338571Y-14872143D01*
X12624286Y-14700714D02*
X12624286Y-14757857D01*
X12738571Y-14700714D02*
X12738571Y-14757857D01*
X13181428Y-15115000D02*
X13167143Y-15100714D01*
X13138571Y-15057857D01*
X13124286Y-15029286D01*
X13110000Y-14986429D01*
X13095714Y-14915000D01*
X13095714Y-14857857D01*
X13110000Y-14786429D01*
X13124286Y-14743571D01*
X13138571Y-14715000D01*
X13167143Y-14672143D01*
X13181428Y-14657857D01*
X13267143Y-14700714D02*
X13452857Y-14700714D01*
X13352857Y-14815000D01*
X13395714Y-14815000D01*
X13424286Y-14829286D01*
X13438571Y-14843571D01*
X13452857Y-14872143D01*
X13452857Y-14943571D01*
X13438571Y-14972143D01*
X13424286Y-14986429D01*
X13395714Y-15000714D01*
X13310000Y-15000714D01*
X13281428Y-14986429D01*
X13267143Y-14972143D01*
X13710000Y-14700714D02*
X13652857Y-14700714D01*
X13624286Y-14715000D01*
X13610000Y-14729286D01*
X13581428Y-14772143D01*
X13567143Y-14829286D01*
X13567143Y-14943571D01*
X13581428Y-14972143D01*
X13595714Y-14986429D01*
X13624286Y-15000714D01*
X13681428Y-15000714D01*
X13710000Y-14986429D01*
X13724286Y-14972143D01*
X13738571Y-14943571D01*
X13738571Y-14872143D01*
X13724286Y-14843571D01*
X13710000Y-14829286D01*
X13681428Y-14815000D01*
X13624286Y-14815000D01*
X13595714Y-14829286D01*
X13581428Y-14843571D01*
X13567143Y-14872143D01*
X14095714Y-15000714D02*
X14095714Y-14700714D01*
X14224286Y-15000714D02*
X14224286Y-14843571D01*
X14210000Y-14815000D01*
X14181428Y-14800714D01*
X14138571Y-14800714D01*
X14110000Y-14815000D01*
X14095714Y-14829286D01*
X14410000Y-15000714D02*
X14381428Y-14986429D01*
X14367143Y-14972143D01*
X14352857Y-14943571D01*
X14352857Y-14857857D01*
X14367143Y-14829286D01*
X14381428Y-14815000D01*
X14410000Y-14800714D01*
X14452857Y-14800714D01*
X14481428Y-14815000D01*
X14495714Y-14829286D01*
X14510000Y-14857857D01*
X14510000Y-14943571D01*
X14495714Y-14972143D01*
X14481428Y-14986429D01*
X14452857Y-15000714D01*
X14410000Y-15000714D01*
X14681428Y-15000714D02*
X14652857Y-14986429D01*
X14638571Y-14957857D01*
X14638571Y-14700714D01*
X14910000Y-14986429D02*
X14881428Y-15000714D01*
X14824286Y-15000714D01*
X14795714Y-14986429D01*
X14781428Y-14957857D01*
X14781428Y-14843571D01*
X14795714Y-14815000D01*
X14824286Y-14800714D01*
X14881428Y-14800714D01*
X14910000Y-14815000D01*
X14924286Y-14843571D01*
X14924286Y-14872143D01*
X14781428Y-14900714D01*
X15038571Y-14986429D02*
X15067143Y-15000714D01*
X15124286Y-15000714D01*
X15152857Y-14986429D01*
X15167143Y-14957857D01*
X15167143Y-14943571D01*
X15152857Y-14915000D01*
X15124286Y-14900714D01*
X15081428Y-14900714D01*
X15052857Y-14886429D01*
X15038571Y-14857857D01*
X15038571Y-14843571D01*
X15052857Y-14815000D01*
X15081428Y-14800714D01*
X15124286Y-14800714D01*
X15152857Y-14815000D01*
X15267143Y-15115000D02*
X15281428Y-15100714D01*
X15310000Y-15057857D01*
X15324286Y-15029286D01*
X15338571Y-14986429D01*
X15352857Y-14915000D01*
X15352857Y-14857857D01*
X15338571Y-14786429D01*
X15324286Y-14743571D01*
X15310000Y-14715000D01*
X15281428Y-14672143D01*
X15267143Y-14657857D01*
X8495000Y-15261000D02*
G75*
G03*
X8495000Y-15261000I-40000J0D01*
G01*
X8838571Y-15096714D02*
X8867143Y-15096714D01*
X8895714Y-15111000D01*
X8910000Y-15125286D01*
X8924286Y-15153857D01*
X8938571Y-15211000D01*
X8938571Y-15282429D01*
X8924286Y-15339571D01*
X8910000Y-15368143D01*
X8895714Y-15382429D01*
X8867143Y-15396714D01*
X8838571Y-15396714D01*
X8810000Y-15382429D01*
X8795714Y-15368143D01*
X8781428Y-15339571D01*
X8767143Y-15282429D01*
X8767143Y-15211000D01*
X8781428Y-15153857D01*
X8795714Y-15125286D01*
X8810000Y-15111000D01*
X8838571Y-15096714D01*
X9067143Y-15368143D02*
X9081428Y-15382429D01*
X9067143Y-15396714D01*
X9052857Y-15382429D01*
X9067143Y-15368143D01*
X9067143Y-15396714D01*
X9252857Y-15225286D02*
X9224286Y-15211000D01*
X9210000Y-15196714D01*
X9195714Y-15168143D01*
X9195714Y-15153857D01*
X9210000Y-15125286D01*
X9224286Y-15111000D01*
X9252857Y-15096714D01*
X9310000Y-15096714D01*
X9338571Y-15111000D01*
X9352857Y-15125286D01*
X9367143Y-15153857D01*
X9367143Y-15168143D01*
X9352857Y-15196714D01*
X9338571Y-15211000D01*
X9310000Y-15225286D01*
X9252857Y-15225286D01*
X9224286Y-15239571D01*
X9210000Y-15253857D01*
X9195714Y-15282429D01*
X9195714Y-15339571D01*
X9210000Y-15368143D01*
X9224286Y-15382429D01*
X9252857Y-15396714D01*
X9310000Y-15396714D01*
X9338571Y-15382429D01*
X9352857Y-15368143D01*
X9367143Y-15339571D01*
X9367143Y-15282429D01*
X9352857Y-15253857D01*
X9338571Y-15239571D01*
X9310000Y-15225286D01*
X9552857Y-15096714D02*
X9581428Y-15096714D01*
X9610000Y-15111000D01*
X9624286Y-15125286D01*
X9638571Y-15153857D01*
X9652857Y-15211000D01*
X9652857Y-15282429D01*
X9638571Y-15339571D01*
X9624286Y-15368143D01*
X9610000Y-15382429D01*
X9581428Y-15396714D01*
X9552857Y-15396714D01*
X9524286Y-15382429D01*
X9510000Y-15368143D01*
X9495714Y-15339571D01*
X9481428Y-15282429D01*
X9481428Y-15211000D01*
X9495714Y-15153857D01*
X9510000Y-15125286D01*
X9524286Y-15111000D01*
X9552857Y-15096714D01*
X9781428Y-15396714D02*
X9781428Y-15196714D01*
X9781428Y-15225286D02*
X9795714Y-15211000D01*
X9824286Y-15196714D01*
X9867143Y-15196714D01*
X9895714Y-15211000D01*
X9910000Y-15239571D01*
X9910000Y-15396714D01*
X9910000Y-15239571D02*
X9924286Y-15211000D01*
X9952857Y-15196714D01*
X9995714Y-15196714D01*
X10024286Y-15211000D01*
X10038571Y-15239571D01*
X10038571Y-15396714D01*
X10181428Y-15396714D02*
X10181428Y-15196714D01*
X10181428Y-15225286D02*
X10195714Y-15211000D01*
X10224286Y-15196714D01*
X10267143Y-15196714D01*
X10295714Y-15211000D01*
X10310000Y-15239571D01*
X10310000Y-15396714D01*
X10310000Y-15239571D02*
X10324286Y-15211000D01*
X10352857Y-15196714D01*
X10395714Y-15196714D01*
X10424286Y-15211000D01*
X10438571Y-15239571D01*
X10438571Y-15396714D01*
X11024286Y-15082429D02*
X10767143Y-15468143D01*
X11410000Y-15096714D02*
X11438571Y-15096714D01*
X11467143Y-15111000D01*
X11481428Y-15125286D01*
X11495714Y-15153857D01*
X11510000Y-15211000D01*
X11510000Y-15282429D01*
X11495714Y-15339571D01*
X11481428Y-15368143D01*
X11467143Y-15382429D01*
X11438571Y-15396714D01*
X11410000Y-15396714D01*
X11381428Y-15382429D01*
X11367143Y-15368143D01*
X11352857Y-15339571D01*
X11338571Y-15282429D01*
X11338571Y-15211000D01*
X11352857Y-15153857D01*
X11367143Y-15125286D01*
X11381428Y-15111000D01*
X11410000Y-15096714D01*
X11638571Y-15368143D02*
X11652857Y-15382429D01*
X11638571Y-15396714D01*
X11624286Y-15382429D01*
X11638571Y-15368143D01*
X11638571Y-15396714D01*
X11838571Y-15096714D02*
X11867143Y-15096714D01*
X11895714Y-15111000D01*
X11910000Y-15125286D01*
X11924286Y-15153857D01*
X11938571Y-15211000D01*
X11938571Y-15282429D01*
X11924286Y-15339571D01*
X11910000Y-15368143D01*
X11895714Y-15382429D01*
X11867143Y-15396714D01*
X11838571Y-15396714D01*
X11810000Y-15382429D01*
X11795714Y-15368143D01*
X11781428Y-15339571D01*
X11767143Y-15282429D01*
X11767143Y-15211000D01*
X11781428Y-15153857D01*
X11795714Y-15125286D01*
X11810000Y-15111000D01*
X11838571Y-15096714D01*
X12038571Y-15096714D02*
X12224286Y-15096714D01*
X12124286Y-15211000D01*
X12167143Y-15211000D01*
X12195714Y-15225286D01*
X12210000Y-15239571D01*
X12224286Y-15268143D01*
X12224286Y-15339571D01*
X12210000Y-15368143D01*
X12195714Y-15382429D01*
X12167143Y-15396714D01*
X12081428Y-15396714D01*
X12052857Y-15382429D01*
X12038571Y-15368143D01*
X12510000Y-15396714D02*
X12338571Y-15396714D01*
X12424286Y-15396714D02*
X12424286Y-15096714D01*
X12395714Y-15139571D01*
X12367143Y-15168143D01*
X12338571Y-15182429D01*
X12624286Y-15096714D02*
X12624286Y-15153857D01*
X12738571Y-15096714D02*
X12738571Y-15153857D01*
X13181428Y-15511000D02*
X13167143Y-15496714D01*
X13138571Y-15453857D01*
X13124286Y-15425286D01*
X13110000Y-15382429D01*
X13095714Y-15311000D01*
X13095714Y-15253857D01*
X13110000Y-15182429D01*
X13124286Y-15139571D01*
X13138571Y-15111000D01*
X13167143Y-15068143D01*
X13181428Y-15053857D01*
X13452857Y-15396714D02*
X13281428Y-15396714D01*
X13367143Y-15396714D02*
X13367143Y-15096714D01*
X13338571Y-15139571D01*
X13310000Y-15168143D01*
X13281428Y-15182429D01*
X13738571Y-15396714D02*
X13567143Y-15396714D01*
X13652857Y-15396714D02*
X13652857Y-15096714D01*
X13624286Y-15139571D01*
X13595714Y-15168143D01*
X13567143Y-15182429D01*
X13852857Y-15125286D02*
X13867143Y-15111000D01*
X13895714Y-15096714D01*
X13967143Y-15096714D01*
X13995714Y-15111000D01*
X14010000Y-15125286D01*
X14024286Y-15153857D01*
X14024286Y-15182429D01*
X14010000Y-15225286D01*
X13838571Y-15396714D01*
X14024286Y-15396714D01*
X14381428Y-15396714D02*
X14381428Y-15096714D01*
X14510000Y-15396714D02*
X14510000Y-15239571D01*
X14495714Y-15211000D01*
X14467143Y-15196714D01*
X14424286Y-15196714D01*
X14395714Y-15211000D01*
X14381428Y-15225286D01*
X14695714Y-15396714D02*
X14667143Y-15382429D01*
X14652857Y-15368143D01*
X14638571Y-15339571D01*
X14638571Y-15253857D01*
X14652857Y-15225286D01*
X14667143Y-15211000D01*
X14695714Y-15196714D01*
X14738571Y-15196714D01*
X14767143Y-15211000D01*
X14781428Y-15225286D01*
X14795714Y-15253857D01*
X14795714Y-15339571D01*
X14781428Y-15368143D01*
X14767143Y-15382429D01*
X14738571Y-15396714D01*
X14695714Y-15396714D01*
X14967143Y-15396714D02*
X14938571Y-15382429D01*
X14924286Y-15353857D01*
X14924286Y-15096714D01*
X15195714Y-15382429D02*
X15167143Y-15396714D01*
X15110000Y-15396714D01*
X15081428Y-15382429D01*
X15067143Y-15353857D01*
X15067143Y-15239571D01*
X15081428Y-15211000D01*
X15110000Y-15196714D01*
X15167143Y-15196714D01*
X15195714Y-15211000D01*
X15210000Y-15239571D01*
X15210000Y-15268143D01*
X15067143Y-15296714D01*
X15324286Y-15382429D02*
X15352857Y-15396714D01*
X15410000Y-15396714D01*
X15438571Y-15382429D01*
X15452857Y-15353857D01*
X15452857Y-15339571D01*
X15438571Y-15311000D01*
X15410000Y-15296714D01*
X15367143Y-15296714D01*
X15338571Y-15282429D01*
X15324286Y-15253857D01*
X15324286Y-15239571D01*
X15338571Y-15211000D01*
X15367143Y-15196714D01*
X15410000Y-15196714D01*
X15438571Y-15211000D01*
X15552857Y-15511000D02*
X15567143Y-15496714D01*
X15595714Y-15453857D01*
X15610000Y-15425286D01*
X15624286Y-15382429D01*
X15638571Y-15311000D01*
X15638571Y-15253857D01*
X15624286Y-15182429D01*
X15610000Y-15139571D01*
X15595714Y-15111000D01*
X15567143Y-15068143D01*
X15552857Y-15053857D01*
X8445000Y-15607000D02*
X8445000Y-15707000D01*
X8395000Y-15657000D02*
X8495000Y-15657000D01*
X8938571Y-15792714D02*
X8767143Y-15792714D01*
X8852857Y-15792714D02*
X8852857Y-15492714D01*
X8824286Y-15535571D01*
X8795714Y-15564143D01*
X8767143Y-15578429D01*
X9067143Y-15764143D02*
X9081428Y-15778429D01*
X9067143Y-15792714D01*
X9052857Y-15778429D01*
X9067143Y-15764143D01*
X9067143Y-15792714D01*
X9267143Y-15492714D02*
X9295714Y-15492714D01*
X9324286Y-15507000D01*
X9338571Y-15521286D01*
X9352857Y-15549857D01*
X9367143Y-15607000D01*
X9367143Y-15678429D01*
X9352857Y-15735571D01*
X9338571Y-15764143D01*
X9324286Y-15778429D01*
X9295714Y-15792714D01*
X9267143Y-15792714D01*
X9238571Y-15778429D01*
X9224286Y-15764143D01*
X9210000Y-15735571D01*
X9195714Y-15678429D01*
X9195714Y-15607000D01*
X9210000Y-15549857D01*
X9224286Y-15521286D01*
X9238571Y-15507000D01*
X9267143Y-15492714D01*
X9552857Y-15492714D02*
X9581428Y-15492714D01*
X9610000Y-15507000D01*
X9624286Y-15521286D01*
X9638571Y-15549857D01*
X9652857Y-15607000D01*
X9652857Y-15678429D01*
X9638571Y-15735571D01*
X9624286Y-15764143D01*
X9610000Y-15778429D01*
X9581428Y-15792714D01*
X9552857Y-15792714D01*
X9524286Y-15778429D01*
X9510000Y-15764143D01*
X9495714Y-15735571D01*
X9481428Y-15678429D01*
X9481428Y-15607000D01*
X9495714Y-15549857D01*
X9510000Y-15521286D01*
X9524286Y-15507000D01*
X9552857Y-15492714D01*
X9781428Y-15792714D02*
X9781428Y-15592714D01*
X9781428Y-15621286D02*
X9795714Y-15607000D01*
X9824286Y-15592714D01*
X9867143Y-15592714D01*
X9895714Y-15607000D01*
X9910000Y-15635571D01*
X9910000Y-15792714D01*
X9910000Y-15635571D02*
X9924286Y-15607000D01*
X9952857Y-15592714D01*
X9995714Y-15592714D01*
X10024286Y-15607000D01*
X10038571Y-15635571D01*
X10038571Y-15792714D01*
X10181428Y-15792714D02*
X10181428Y-15592714D01*
X10181428Y-15621286D02*
X10195714Y-15607000D01*
X10224286Y-15592714D01*
X10267143Y-15592714D01*
X10295714Y-15607000D01*
X10310000Y-15635571D01*
X10310000Y-15792714D01*
X10310000Y-15635571D02*
X10324286Y-15607000D01*
X10352857Y-15592714D01*
X10395714Y-15592714D01*
X10424286Y-15607000D01*
X10438571Y-15635571D01*
X10438571Y-15792714D01*
X11024286Y-15478429D02*
X10767143Y-15864143D01*
X11410000Y-15492714D02*
X11438571Y-15492714D01*
X11467143Y-15507000D01*
X11481428Y-15521286D01*
X11495714Y-15549857D01*
X11510000Y-15607000D01*
X11510000Y-15678429D01*
X11495714Y-15735571D01*
X11481428Y-15764143D01*
X11467143Y-15778429D01*
X11438571Y-15792714D01*
X11410000Y-15792714D01*
X11381428Y-15778429D01*
X11367143Y-15764143D01*
X11352857Y-15735571D01*
X11338571Y-15678429D01*
X11338571Y-15607000D01*
X11352857Y-15549857D01*
X11367143Y-15521286D01*
X11381428Y-15507000D01*
X11410000Y-15492714D01*
X11638571Y-15764143D02*
X11652857Y-15778429D01*
X11638571Y-15792714D01*
X11624286Y-15778429D01*
X11638571Y-15764143D01*
X11638571Y-15792714D01*
X11838571Y-15492714D02*
X11867143Y-15492714D01*
X11895714Y-15507000D01*
X11910000Y-15521286D01*
X11924286Y-15549857D01*
X11938571Y-15607000D01*
X11938571Y-15678429D01*
X11924286Y-15735571D01*
X11910000Y-15764143D01*
X11895714Y-15778429D01*
X11867143Y-15792714D01*
X11838571Y-15792714D01*
X11810000Y-15778429D01*
X11795714Y-15764143D01*
X11781428Y-15735571D01*
X11767143Y-15678429D01*
X11767143Y-15607000D01*
X11781428Y-15549857D01*
X11795714Y-15521286D01*
X11810000Y-15507000D01*
X11838571Y-15492714D01*
X12038571Y-15492714D02*
X12224286Y-15492714D01*
X12124286Y-15607000D01*
X12167143Y-15607000D01*
X12195714Y-15621286D01*
X12210000Y-15635571D01*
X12224286Y-15664143D01*
X12224286Y-15735571D01*
X12210000Y-15764143D01*
X12195714Y-15778429D01*
X12167143Y-15792714D01*
X12081428Y-15792714D01*
X12052857Y-15778429D01*
X12038571Y-15764143D01*
X12367143Y-15792714D02*
X12424286Y-15792714D01*
X12452857Y-15778429D01*
X12467143Y-15764143D01*
X12495714Y-15721286D01*
X12510000Y-15664143D01*
X12510000Y-15549857D01*
X12495714Y-15521286D01*
X12481428Y-15507000D01*
X12452857Y-15492714D01*
X12395714Y-15492714D01*
X12367143Y-15507000D01*
X12352857Y-15521286D01*
X12338571Y-15549857D01*
X12338571Y-15621286D01*
X12352857Y-15649857D01*
X12367143Y-15664143D01*
X12395714Y-15678429D01*
X12452857Y-15678429D01*
X12481428Y-15664143D01*
X12495714Y-15649857D01*
X12510000Y-15621286D01*
X12624286Y-15492714D02*
X12624286Y-15549857D01*
X12738571Y-15492714D02*
X12738571Y-15549857D01*
X13181428Y-15907000D02*
X13167143Y-15892714D01*
X13138571Y-15849857D01*
X13124286Y-15821286D01*
X13110000Y-15778429D01*
X13095714Y-15707000D01*
X13095714Y-15649857D01*
X13110000Y-15578429D01*
X13124286Y-15535571D01*
X13138571Y-15507000D01*
X13167143Y-15464143D01*
X13181428Y-15449857D01*
X13310000Y-15792714D02*
X13367143Y-15792714D01*
X13395714Y-15778429D01*
X13410000Y-15764143D01*
X13438571Y-15721286D01*
X13452857Y-15664143D01*
X13452857Y-15549857D01*
X13438571Y-15521286D01*
X13424286Y-15507000D01*
X13395714Y-15492714D01*
X13338571Y-15492714D01*
X13310000Y-15507000D01*
X13295714Y-15521286D01*
X13281428Y-15549857D01*
X13281428Y-15621286D01*
X13295714Y-15649857D01*
X13310000Y-15664143D01*
X13338571Y-15678429D01*
X13395714Y-15678429D01*
X13424286Y-15664143D01*
X13438571Y-15649857D01*
X13452857Y-15621286D01*
X13567143Y-15521286D02*
X13581428Y-15507000D01*
X13610000Y-15492714D01*
X13681428Y-15492714D01*
X13710000Y-15507000D01*
X13724286Y-15521286D01*
X13738571Y-15549857D01*
X13738571Y-15578429D01*
X13724286Y-15621286D01*
X13552857Y-15792714D01*
X13738571Y-15792714D01*
X14095714Y-15792714D02*
X14095714Y-15492714D01*
X14224286Y-15792714D02*
X14224286Y-15635571D01*
X14210000Y-15607000D01*
X14181428Y-15592714D01*
X14138571Y-15592714D01*
X14110000Y-15607000D01*
X14095714Y-15621286D01*
X14410000Y-15792714D02*
X14381428Y-15778429D01*
X14367143Y-15764143D01*
X14352857Y-15735571D01*
X14352857Y-15649857D01*
X14367143Y-15621286D01*
X14381428Y-15607000D01*
X14410000Y-15592714D01*
X14452857Y-15592714D01*
X14481428Y-15607000D01*
X14495714Y-15621286D01*
X14510000Y-15649857D01*
X14510000Y-15735571D01*
X14495714Y-15764143D01*
X14481428Y-15778429D01*
X14452857Y-15792714D01*
X14410000Y-15792714D01*
X14681428Y-15792714D02*
X14652857Y-15778429D01*
X14638571Y-15749857D01*
X14638571Y-15492714D01*
X14910000Y-15778429D02*
X14881428Y-15792714D01*
X14824286Y-15792714D01*
X14795714Y-15778429D01*
X14781428Y-15749857D01*
X14781428Y-15635571D01*
X14795714Y-15607000D01*
X14824286Y-15592714D01*
X14881428Y-15592714D01*
X14910000Y-15607000D01*
X14924286Y-15635571D01*
X14924286Y-15664143D01*
X14781428Y-15692714D01*
X15038571Y-15778429D02*
X15067143Y-15792714D01*
X15124286Y-15792714D01*
X15152857Y-15778429D01*
X15167143Y-15749857D01*
X15167143Y-15735571D01*
X15152857Y-15707000D01*
X15124286Y-15692714D01*
X15081428Y-15692714D01*
X15052857Y-15678429D01*
X15038571Y-15649857D01*
X15038571Y-15635571D01*
X15052857Y-15607000D01*
X15081428Y-15592714D01*
X15124286Y-15592714D01*
X15152857Y-15607000D01*
X15267143Y-15907000D02*
X15281428Y-15892714D01*
X15310000Y-15849857D01*
X15324286Y-15821286D01*
X15338571Y-15778429D01*
X15352857Y-15707000D01*
X15352857Y-15649857D01*
X15338571Y-15578429D01*
X15324286Y-15535571D01*
X15310000Y-15507000D01*
X15281428Y-15464143D01*
X15267143Y-15449857D01*
M02*
