G04 #@! TF.GenerationSoftware,KiCad,Pcbnew,(5.1.9)-1*
G04 #@! TF.CreationDate,2022-07-23T11:33:05-04:00*
G04 #@! TF.ProjectId,xy-register,78792d72-6567-4697-9374-65722e6b6963,2.0*
G04 #@! TF.SameCoordinates,Original*
G04 #@! TF.FileFunction,Legend,Bot*
G04 #@! TF.FilePolarity,Positive*
%FSLAX46Y46*%
G04 Gerber Fmt 4.6, Leading zero omitted, Abs format (unit mm)*
G04 Created by KiCad (PCBNEW (5.1.9)-1) date 2022-07-23 11:33:05*
%MOMM*%
%LPD*%
G01*
G04 APERTURE LIST*
%ADD10C,0.150000*%
%ADD11C,0.120000*%
%ADD12O,1.700000X1.700000*%
%ADD13R,1.700000X1.700000*%
%ADD14O,1.600000X1.600000*%
%ADD15R,1.600000X1.600000*%
G04 APERTURE END LIST*
D10*
X185428571Y-50864404D02*
X185428571Y-50102500D01*
X185047619Y-50483452D02*
X185809523Y-50483452D01*
X186047619Y-49150119D02*
X186047619Y-49626309D01*
X185571428Y-49673928D01*
X185619047Y-49626309D01*
X185666666Y-49531071D01*
X185666666Y-49292976D01*
X185619047Y-49197738D01*
X185571428Y-49150119D01*
X185476190Y-49102500D01*
X185238095Y-49102500D01*
X185142857Y-49150119D01*
X185095238Y-49197738D01*
X185047619Y-49292976D01*
X185047619Y-49531071D01*
X185095238Y-49626309D01*
X185142857Y-49673928D01*
X186047619Y-48816785D02*
X185047619Y-48483452D01*
X186047619Y-48150119D01*
X174942857Y-49892976D02*
X174895238Y-49940595D01*
X174847619Y-50083452D01*
X174847619Y-50178690D01*
X174895238Y-50321547D01*
X174990476Y-50416785D01*
X175085714Y-50464404D01*
X175276190Y-50512023D01*
X175419047Y-50512023D01*
X175609523Y-50464404D01*
X175704761Y-50416785D01*
X175800000Y-50321547D01*
X175847619Y-50178690D01*
X175847619Y-50083452D01*
X175800000Y-49940595D01*
X175752380Y-49892976D01*
X174847619Y-48988214D02*
X174847619Y-49464404D01*
X175847619Y-49464404D01*
X174847619Y-48654880D02*
X175847619Y-48654880D01*
X174847619Y-48083452D02*
X175419047Y-48512023D01*
X175847619Y-48083452D02*
X175276190Y-48654880D01*
X185571428Y-131135595D02*
X185571428Y-131897500D01*
X185952380Y-131516547D02*
X185190476Y-131516547D01*
X184952380Y-132849880D02*
X184952380Y-132373690D01*
X185428571Y-132326071D01*
X185380952Y-132373690D01*
X185333333Y-132468928D01*
X185333333Y-132707023D01*
X185380952Y-132802261D01*
X185428571Y-132849880D01*
X185523809Y-132897500D01*
X185761904Y-132897500D01*
X185857142Y-132849880D01*
X185904761Y-132802261D01*
X185952380Y-132707023D01*
X185952380Y-132468928D01*
X185904761Y-132373690D01*
X185857142Y-132326071D01*
X184952380Y-133183214D02*
X185952380Y-133516547D01*
X184952380Y-133849880D01*
X175657142Y-132107023D02*
X175704761Y-132059404D01*
X175752380Y-131916547D01*
X175752380Y-131821309D01*
X175704761Y-131678452D01*
X175609523Y-131583214D01*
X175514285Y-131535595D01*
X175323809Y-131487976D01*
X175180952Y-131487976D01*
X174990476Y-131535595D01*
X174895238Y-131583214D01*
X174800000Y-131678452D01*
X174752380Y-131821309D01*
X174752380Y-131916547D01*
X174800000Y-132059404D01*
X174847619Y-132107023D01*
X175752380Y-133011785D02*
X175752380Y-132535595D01*
X174752380Y-132535595D01*
X175752380Y-133345119D02*
X174752380Y-133345119D01*
X175752380Y-133916547D02*
X175180952Y-133487976D01*
X174752380Y-133916547D02*
X175323809Y-133345119D01*
X152952380Y-132335595D02*
X151952380Y-132335595D01*
X151952380Y-132573690D01*
X152000000Y-132716547D01*
X152095238Y-132811785D01*
X152190476Y-132859404D01*
X152380952Y-132907023D01*
X152523809Y-132907023D01*
X152714285Y-132859404D01*
X152809523Y-132811785D01*
X152904761Y-132716547D01*
X152952380Y-132573690D01*
X152952380Y-132335595D01*
X152476190Y-133526071D02*
X152952380Y-133526071D01*
X151952380Y-133192738D02*
X152476190Y-133526071D01*
X151952380Y-133859404D01*
X150452380Y-132335595D02*
X149452380Y-132335595D01*
X149452380Y-132573690D01*
X149500000Y-132716547D01*
X149595238Y-132811785D01*
X149690476Y-132859404D01*
X149880952Y-132907023D01*
X150023809Y-132907023D01*
X150214285Y-132859404D01*
X150309523Y-132811785D01*
X150404761Y-132716547D01*
X150452380Y-132573690D01*
X150452380Y-132335595D01*
X149452380Y-133240357D02*
X149452380Y-133907023D01*
X150452380Y-133240357D01*
X150452380Y-133907023D01*
X85900000Y-131659404D02*
X85852380Y-131564166D01*
X85852380Y-131421309D01*
X85900000Y-131278452D01*
X85995238Y-131183214D01*
X86090476Y-131135595D01*
X86280952Y-131087976D01*
X86423809Y-131087976D01*
X86614285Y-131135595D01*
X86709523Y-131183214D01*
X86804761Y-131278452D01*
X86852380Y-131421309D01*
X86852380Y-131516547D01*
X86804761Y-131659404D01*
X86757142Y-131707023D01*
X86423809Y-131707023D01*
X86423809Y-131516547D01*
X86852380Y-132135595D02*
X85852380Y-132135595D01*
X86852380Y-132707023D01*
X85852380Y-132707023D01*
X86852380Y-133183214D02*
X85852380Y-133183214D01*
X85852380Y-133421309D01*
X85900000Y-133564166D01*
X85995238Y-133659404D01*
X86090476Y-133707023D01*
X86280952Y-133754642D01*
X86423809Y-133754642D01*
X86614285Y-133707023D01*
X86709523Y-133659404D01*
X86804761Y-133564166D01*
X86852380Y-133421309D01*
X86852380Y-133183214D01*
X109752380Y-132235595D02*
X108752380Y-132235595D01*
X108752380Y-132473690D01*
X108800000Y-132616547D01*
X108895238Y-132711785D01*
X108990476Y-132759404D01*
X109180952Y-132807023D01*
X109323809Y-132807023D01*
X109514285Y-132759404D01*
X109609523Y-132711785D01*
X109704761Y-132616547D01*
X109752380Y-132473690D01*
X109752380Y-132235595D01*
X109752380Y-133759404D02*
X109752380Y-133187976D01*
X109752380Y-133473690D02*
X108752380Y-133473690D01*
X108895238Y-133378452D01*
X108990476Y-133283214D01*
X109038095Y-133187976D01*
X94452380Y-132235595D02*
X93452380Y-132235595D01*
X93452380Y-132473690D01*
X93500000Y-132616547D01*
X93595238Y-132711785D01*
X93690476Y-132759404D01*
X93880952Y-132807023D01*
X94023809Y-132807023D01*
X94214285Y-132759404D01*
X94309523Y-132711785D01*
X94404761Y-132616547D01*
X94452380Y-132473690D01*
X94452380Y-132235595D01*
X93452380Y-133140357D02*
X93452380Y-133807023D01*
X94452380Y-133378452D01*
X112252380Y-132235595D02*
X111252380Y-132235595D01*
X111252380Y-132473690D01*
X111300000Y-132616547D01*
X111395238Y-132711785D01*
X111490476Y-132759404D01*
X111680952Y-132807023D01*
X111823809Y-132807023D01*
X112014285Y-132759404D01*
X112109523Y-132711785D01*
X112204761Y-132616547D01*
X112252380Y-132473690D01*
X112252380Y-132235595D01*
X111252380Y-133426071D02*
X111252380Y-133521309D01*
X111300000Y-133616547D01*
X111347619Y-133664166D01*
X111442857Y-133711785D01*
X111633333Y-133759404D01*
X111871428Y-133759404D01*
X112061904Y-133711785D01*
X112157142Y-133664166D01*
X112204761Y-133616547D01*
X112252380Y-133521309D01*
X112252380Y-133426071D01*
X112204761Y-133330833D01*
X112157142Y-133283214D01*
X112061904Y-133235595D01*
X111871428Y-133187976D01*
X111633333Y-133187976D01*
X111442857Y-133235595D01*
X111347619Y-133283214D01*
X111300000Y-133330833D01*
X111252380Y-133426071D01*
X102152380Y-132235595D02*
X101152380Y-132235595D01*
X101152380Y-132473690D01*
X101200000Y-132616547D01*
X101295238Y-132711785D01*
X101390476Y-132759404D01*
X101580952Y-132807023D01*
X101723809Y-132807023D01*
X101914285Y-132759404D01*
X102009523Y-132711785D01*
X102104761Y-132616547D01*
X102152380Y-132473690D01*
X102152380Y-132235595D01*
X101485714Y-133664166D02*
X102152380Y-133664166D01*
X101104761Y-133426071D02*
X101819047Y-133187976D01*
X101819047Y-133807023D01*
X104652380Y-132235595D02*
X103652380Y-132235595D01*
X103652380Y-132473690D01*
X103700000Y-132616547D01*
X103795238Y-132711785D01*
X103890476Y-132759404D01*
X104080952Y-132807023D01*
X104223809Y-132807023D01*
X104414285Y-132759404D01*
X104509523Y-132711785D01*
X104604761Y-132616547D01*
X104652380Y-132473690D01*
X104652380Y-132235595D01*
X103652380Y-133140357D02*
X103652380Y-133759404D01*
X104033333Y-133426071D01*
X104033333Y-133568928D01*
X104080952Y-133664166D01*
X104128571Y-133711785D01*
X104223809Y-133759404D01*
X104461904Y-133759404D01*
X104557142Y-133711785D01*
X104604761Y-133664166D01*
X104652380Y-133568928D01*
X104652380Y-133283214D01*
X104604761Y-133187976D01*
X104557142Y-133140357D01*
X97052380Y-132235595D02*
X96052380Y-132235595D01*
X96052380Y-132473690D01*
X96100000Y-132616547D01*
X96195238Y-132711785D01*
X96290476Y-132759404D01*
X96480952Y-132807023D01*
X96623809Y-132807023D01*
X96814285Y-132759404D01*
X96909523Y-132711785D01*
X97004761Y-132616547D01*
X97052380Y-132473690D01*
X97052380Y-132235595D01*
X96052380Y-133664166D02*
X96052380Y-133473690D01*
X96100000Y-133378452D01*
X96147619Y-133330833D01*
X96290476Y-133235595D01*
X96480952Y-133187976D01*
X96861904Y-133187976D01*
X96957142Y-133235595D01*
X97004761Y-133283214D01*
X97052380Y-133378452D01*
X97052380Y-133568928D01*
X97004761Y-133664166D01*
X96957142Y-133711785D01*
X96861904Y-133759404D01*
X96623809Y-133759404D01*
X96528571Y-133711785D01*
X96480952Y-133664166D01*
X96433333Y-133568928D01*
X96433333Y-133378452D01*
X96480952Y-133283214D01*
X96528571Y-133235595D01*
X96623809Y-133187976D01*
X107152380Y-132235595D02*
X106152380Y-132235595D01*
X106152380Y-132473690D01*
X106200000Y-132616547D01*
X106295238Y-132711785D01*
X106390476Y-132759404D01*
X106580952Y-132807023D01*
X106723809Y-132807023D01*
X106914285Y-132759404D01*
X107009523Y-132711785D01*
X107104761Y-132616547D01*
X107152380Y-132473690D01*
X107152380Y-132235595D01*
X106247619Y-133187976D02*
X106200000Y-133235595D01*
X106152380Y-133330833D01*
X106152380Y-133568928D01*
X106200000Y-133664166D01*
X106247619Y-133711785D01*
X106342857Y-133759404D01*
X106438095Y-133759404D01*
X106580952Y-133711785D01*
X107152380Y-133140357D01*
X107152380Y-133759404D01*
X99552380Y-132235595D02*
X98552380Y-132235595D01*
X98552380Y-132473690D01*
X98600000Y-132616547D01*
X98695238Y-132711785D01*
X98790476Y-132759404D01*
X98980952Y-132807023D01*
X99123809Y-132807023D01*
X99314285Y-132759404D01*
X99409523Y-132711785D01*
X99504761Y-132616547D01*
X99552380Y-132473690D01*
X99552380Y-132235595D01*
X98552380Y-133711785D02*
X98552380Y-133235595D01*
X99028571Y-133187976D01*
X98980952Y-133235595D01*
X98933333Y-133330833D01*
X98933333Y-133568928D01*
X98980952Y-133664166D01*
X99028571Y-133711785D01*
X99123809Y-133759404D01*
X99361904Y-133759404D01*
X99457142Y-133711785D01*
X99504761Y-133664166D01*
X99552380Y-133568928D01*
X99552380Y-133330833D01*
X99504761Y-133235595D01*
X99457142Y-133187976D01*
X108747619Y-49464404D02*
X109747619Y-49464404D01*
X109747619Y-49226309D01*
X109700000Y-49083452D01*
X109604761Y-48988214D01*
X109509523Y-48940595D01*
X109319047Y-48892976D01*
X109176190Y-48892976D01*
X108985714Y-48940595D01*
X108890476Y-48988214D01*
X108795238Y-49083452D01*
X108747619Y-49226309D01*
X108747619Y-49464404D01*
X108747619Y-47940595D02*
X108747619Y-48512023D01*
X108747619Y-48226309D02*
X109747619Y-48226309D01*
X109604761Y-48321547D01*
X109509523Y-48416785D01*
X109461904Y-48512023D01*
X93447619Y-49464404D02*
X94447619Y-49464404D01*
X94447619Y-49226309D01*
X94400000Y-49083452D01*
X94304761Y-48988214D01*
X94209523Y-48940595D01*
X94019047Y-48892976D01*
X93876190Y-48892976D01*
X93685714Y-48940595D01*
X93590476Y-48988214D01*
X93495238Y-49083452D01*
X93447619Y-49226309D01*
X93447619Y-49464404D01*
X94447619Y-48559642D02*
X94447619Y-47892976D01*
X93447619Y-48321547D01*
X111247619Y-49464404D02*
X112247619Y-49464404D01*
X112247619Y-49226309D01*
X112200000Y-49083452D01*
X112104761Y-48988214D01*
X112009523Y-48940595D01*
X111819047Y-48892976D01*
X111676190Y-48892976D01*
X111485714Y-48940595D01*
X111390476Y-48988214D01*
X111295238Y-49083452D01*
X111247619Y-49226309D01*
X111247619Y-49464404D01*
X112247619Y-48273928D02*
X112247619Y-48178690D01*
X112200000Y-48083452D01*
X112152380Y-48035833D01*
X112057142Y-47988214D01*
X111866666Y-47940595D01*
X111628571Y-47940595D01*
X111438095Y-47988214D01*
X111342857Y-48035833D01*
X111295238Y-48083452D01*
X111247619Y-48178690D01*
X111247619Y-48273928D01*
X111295238Y-48369166D01*
X111342857Y-48416785D01*
X111438095Y-48464404D01*
X111628571Y-48512023D01*
X111866666Y-48512023D01*
X112057142Y-48464404D01*
X112152380Y-48416785D01*
X112200000Y-48369166D01*
X112247619Y-48273928D01*
X101147619Y-49464404D02*
X102147619Y-49464404D01*
X102147619Y-49226309D01*
X102100000Y-49083452D01*
X102004761Y-48988214D01*
X101909523Y-48940595D01*
X101719047Y-48892976D01*
X101576190Y-48892976D01*
X101385714Y-48940595D01*
X101290476Y-48988214D01*
X101195238Y-49083452D01*
X101147619Y-49226309D01*
X101147619Y-49464404D01*
X101814285Y-48035833D02*
X101147619Y-48035833D01*
X102195238Y-48273928D02*
X101480952Y-48512023D01*
X101480952Y-47892976D01*
X103647619Y-49464404D02*
X104647619Y-49464404D01*
X104647619Y-49226309D01*
X104600000Y-49083452D01*
X104504761Y-48988214D01*
X104409523Y-48940595D01*
X104219047Y-48892976D01*
X104076190Y-48892976D01*
X103885714Y-48940595D01*
X103790476Y-48988214D01*
X103695238Y-49083452D01*
X103647619Y-49226309D01*
X103647619Y-49464404D01*
X104647619Y-48559642D02*
X104647619Y-47940595D01*
X104266666Y-48273928D01*
X104266666Y-48131071D01*
X104219047Y-48035833D01*
X104171428Y-47988214D01*
X104076190Y-47940595D01*
X103838095Y-47940595D01*
X103742857Y-47988214D01*
X103695238Y-48035833D01*
X103647619Y-48131071D01*
X103647619Y-48416785D01*
X103695238Y-48512023D01*
X103742857Y-48559642D01*
X96047619Y-49464404D02*
X97047619Y-49464404D01*
X97047619Y-49226309D01*
X97000000Y-49083452D01*
X96904761Y-48988214D01*
X96809523Y-48940595D01*
X96619047Y-48892976D01*
X96476190Y-48892976D01*
X96285714Y-48940595D01*
X96190476Y-48988214D01*
X96095238Y-49083452D01*
X96047619Y-49226309D01*
X96047619Y-49464404D01*
X97047619Y-48035833D02*
X97047619Y-48226309D01*
X97000000Y-48321547D01*
X96952380Y-48369166D01*
X96809523Y-48464404D01*
X96619047Y-48512023D01*
X96238095Y-48512023D01*
X96142857Y-48464404D01*
X96095238Y-48416785D01*
X96047619Y-48321547D01*
X96047619Y-48131071D01*
X96095238Y-48035833D01*
X96142857Y-47988214D01*
X96238095Y-47940595D01*
X96476190Y-47940595D01*
X96571428Y-47988214D01*
X96619047Y-48035833D01*
X96666666Y-48131071D01*
X96666666Y-48321547D01*
X96619047Y-48416785D01*
X96571428Y-48464404D01*
X96476190Y-48512023D01*
X106147619Y-49464404D02*
X107147619Y-49464404D01*
X107147619Y-49226309D01*
X107100000Y-49083452D01*
X107004761Y-48988214D01*
X106909523Y-48940595D01*
X106719047Y-48892976D01*
X106576190Y-48892976D01*
X106385714Y-48940595D01*
X106290476Y-48988214D01*
X106195238Y-49083452D01*
X106147619Y-49226309D01*
X106147619Y-49464404D01*
X107052380Y-48512023D02*
X107100000Y-48464404D01*
X107147619Y-48369166D01*
X107147619Y-48131071D01*
X107100000Y-48035833D01*
X107052380Y-47988214D01*
X106957142Y-47940595D01*
X106861904Y-47940595D01*
X106719047Y-47988214D01*
X106147619Y-48559642D01*
X106147619Y-47940595D01*
X98547619Y-49464404D02*
X99547619Y-49464404D01*
X99547619Y-49226309D01*
X99500000Y-49083452D01*
X99404761Y-48988214D01*
X99309523Y-48940595D01*
X99119047Y-48892976D01*
X98976190Y-48892976D01*
X98785714Y-48940595D01*
X98690476Y-48988214D01*
X98595238Y-49083452D01*
X98547619Y-49226309D01*
X98547619Y-49464404D01*
X99547619Y-47988214D02*
X99547619Y-48464404D01*
X99071428Y-48512023D01*
X99119047Y-48464404D01*
X99166666Y-48369166D01*
X99166666Y-48131071D01*
X99119047Y-48035833D01*
X99071428Y-47988214D01*
X98976190Y-47940595D01*
X98738095Y-47940595D01*
X98642857Y-47988214D01*
X98595238Y-48035833D01*
X98547619Y-48131071D01*
X98547619Y-48369166D01*
X98595238Y-48464404D01*
X98642857Y-48512023D01*
X86900000Y-50140595D02*
X86947619Y-50235833D01*
X86947619Y-50378690D01*
X86900000Y-50521547D01*
X86804761Y-50616785D01*
X86709523Y-50664404D01*
X86519047Y-50712023D01*
X86376190Y-50712023D01*
X86185714Y-50664404D01*
X86090476Y-50616785D01*
X85995238Y-50521547D01*
X85947619Y-50378690D01*
X85947619Y-50283452D01*
X85995238Y-50140595D01*
X86042857Y-50092976D01*
X86376190Y-50092976D01*
X86376190Y-50283452D01*
X85947619Y-49664404D02*
X86947619Y-49664404D01*
X85947619Y-49092976D01*
X86947619Y-49092976D01*
X85947619Y-48616785D02*
X86947619Y-48616785D01*
X86947619Y-48378690D01*
X86900000Y-48235833D01*
X86804761Y-48140595D01*
X86709523Y-48092976D01*
X86519047Y-48045357D01*
X86376190Y-48045357D01*
X86185714Y-48092976D01*
X86090476Y-48140595D01*
X85995238Y-48235833D01*
X85947619Y-48378690D01*
X85947619Y-48616785D01*
D11*
X90330000Y-56270000D02*
X89000000Y-56270000D01*
X90330000Y-57600000D02*
X90330000Y-56270000D01*
X90330000Y-58870000D02*
X87670000Y-58870000D01*
X87670000Y-58870000D02*
X87670000Y-66550000D01*
X90330000Y-58870000D02*
X90330000Y-66550000D01*
X90330000Y-66550000D02*
X87670000Y-66550000D01*
X90330000Y-105270000D02*
X89000000Y-105270000D01*
X90330000Y-106600000D02*
X90330000Y-105270000D01*
X90330000Y-107870000D02*
X87670000Y-107870000D01*
X87670000Y-107870000D02*
X87670000Y-125710000D01*
X90330000Y-107870000D02*
X90330000Y-125710000D01*
X90330000Y-125710000D02*
X87670000Y-125710000D01*
X186790000Y-134670000D02*
X186790000Y-137330000D01*
X87670000Y-134670000D02*
X186790000Y-134670000D01*
X87670000Y-137330000D02*
X186790000Y-137330000D01*
X87670000Y-134670000D02*
X87670000Y-137330000D01*
X86400000Y-134670000D02*
X85070000Y-134670000D01*
X85070000Y-134670000D02*
X85070000Y-136000000D01*
X186790000Y-44670000D02*
X186790000Y-47330000D01*
X87670000Y-44670000D02*
X186790000Y-44670000D01*
X87670000Y-47330000D02*
X186790000Y-47330000D01*
X87670000Y-44670000D02*
X87670000Y-47330000D01*
X86400000Y-44670000D02*
X85070000Y-44670000D01*
X85070000Y-44670000D02*
X85070000Y-46000000D01*
D10*
X89333333Y-54722380D02*
X89333333Y-55436666D01*
X89380952Y-55579523D01*
X89476190Y-55674761D01*
X89619047Y-55722380D01*
X89714285Y-55722380D01*
X88380952Y-54722380D02*
X88857142Y-54722380D01*
X88904761Y-55198571D01*
X88857142Y-55150952D01*
X88761904Y-55103333D01*
X88523809Y-55103333D01*
X88428571Y-55150952D01*
X88380952Y-55198571D01*
X88333333Y-55293809D01*
X88333333Y-55531904D01*
X88380952Y-55627142D01*
X88428571Y-55674761D01*
X88523809Y-55722380D01*
X88761904Y-55722380D01*
X88857142Y-55674761D01*
X88904761Y-55627142D01*
X89333333Y-103722380D02*
X89333333Y-104436666D01*
X89380952Y-104579523D01*
X89476190Y-104674761D01*
X89619047Y-104722380D01*
X89714285Y-104722380D01*
X88428571Y-103722380D02*
X88619047Y-103722380D01*
X88714285Y-103770000D01*
X88761904Y-103817619D01*
X88857142Y-103960476D01*
X88904761Y-104150952D01*
X88904761Y-104531904D01*
X88857142Y-104627142D01*
X88809523Y-104674761D01*
X88714285Y-104722380D01*
X88523809Y-104722380D01*
X88428571Y-104674761D01*
X88380952Y-104627142D01*
X88333333Y-104531904D01*
X88333333Y-104293809D01*
X88380952Y-104198571D01*
X88428571Y-104150952D01*
X88523809Y-104103333D01*
X88714285Y-104103333D01*
X88809523Y-104150952D01*
X88857142Y-104198571D01*
X88904761Y-104293809D01*
X83522380Y-135666666D02*
X84236666Y-135666666D01*
X84379523Y-135619047D01*
X84474761Y-135523809D01*
X84522380Y-135380952D01*
X84522380Y-135285714D01*
X83617619Y-136095238D02*
X83570000Y-136142857D01*
X83522380Y-136238095D01*
X83522380Y-136476190D01*
X83570000Y-136571428D01*
X83617619Y-136619047D01*
X83712857Y-136666666D01*
X83808095Y-136666666D01*
X83950952Y-136619047D01*
X84522380Y-136047619D01*
X84522380Y-136666666D01*
X83522380Y-45666666D02*
X84236666Y-45666666D01*
X84379523Y-45619047D01*
X84474761Y-45523809D01*
X84522380Y-45380952D01*
X84522380Y-45285714D01*
X84522380Y-46666666D02*
X84522380Y-46095238D01*
X84522380Y-46380952D02*
X83522380Y-46380952D01*
X83665238Y-46285714D01*
X83760476Y-46190476D01*
X83808095Y-46095238D01*
%LPC*%
D12*
X89000000Y-65220000D03*
X89000000Y-62680000D03*
X89000000Y-60140000D03*
D13*
X89000000Y-57600000D03*
D14*
X103600000Y-101580000D03*
X126460000Y-109200000D03*
X106140000Y-101580000D03*
X123920000Y-109200000D03*
X108680000Y-101580000D03*
X121380000Y-109200000D03*
X111220000Y-101580000D03*
X118840000Y-109200000D03*
X113760000Y-101580000D03*
X116300000Y-109200000D03*
X116300000Y-101580000D03*
X113760000Y-109200000D03*
X118840000Y-101580000D03*
X111220000Y-109200000D03*
X121380000Y-101580000D03*
X108680000Y-109200000D03*
X123920000Y-101580000D03*
X106140000Y-109200000D03*
X126460000Y-101580000D03*
D15*
X103600000Y-109200000D03*
D14*
X162360000Y-87880000D03*
X180140000Y-95500000D03*
X164900000Y-87880000D03*
X177600000Y-95500000D03*
X167440000Y-87880000D03*
X175060000Y-95500000D03*
X169980000Y-87880000D03*
X172520000Y-95500000D03*
X172520000Y-87880000D03*
X169980000Y-95500000D03*
X175060000Y-87880000D03*
X167440000Y-95500000D03*
X177600000Y-87880000D03*
X164900000Y-95500000D03*
X180140000Y-87880000D03*
D15*
X162360000Y-95500000D03*
D14*
X135900000Y-87880000D03*
X153680000Y-95500000D03*
X138440000Y-87880000D03*
X151140000Y-95500000D03*
X140980000Y-87880000D03*
X148600000Y-95500000D03*
X143520000Y-87880000D03*
X146060000Y-95500000D03*
X146060000Y-87880000D03*
X143520000Y-95500000D03*
X148600000Y-87880000D03*
X140980000Y-95500000D03*
X151140000Y-87880000D03*
X138440000Y-95500000D03*
X153680000Y-87880000D03*
D15*
X135900000Y-95500000D03*
D12*
X89000000Y-124380000D03*
X89000000Y-121840000D03*
X89000000Y-119300000D03*
X89000000Y-116760000D03*
X89000000Y-114220000D03*
X89000000Y-111680000D03*
X89000000Y-109140000D03*
D13*
X89000000Y-106600000D03*
D14*
X103700000Y-56780000D03*
X126560000Y-64400000D03*
X106240000Y-56780000D03*
X124020000Y-64400000D03*
X108780000Y-56780000D03*
X121480000Y-64400000D03*
X111320000Y-56780000D03*
X118940000Y-64400000D03*
X113860000Y-56780000D03*
X116400000Y-64400000D03*
X116400000Y-56780000D03*
X113860000Y-64400000D03*
X118940000Y-56780000D03*
X111320000Y-64400000D03*
X121480000Y-56780000D03*
X108780000Y-64400000D03*
X124020000Y-56780000D03*
X106240000Y-64400000D03*
X126560000Y-56780000D03*
D15*
X103700000Y-64400000D03*
D14*
X103600000Y-72880000D03*
X126460000Y-80500000D03*
X106140000Y-72880000D03*
X123920000Y-80500000D03*
X108680000Y-72880000D03*
X121380000Y-80500000D03*
X111220000Y-72880000D03*
X118840000Y-80500000D03*
X113760000Y-72880000D03*
X116300000Y-80500000D03*
X116300000Y-72880000D03*
X113760000Y-80500000D03*
X118840000Y-72880000D03*
X111220000Y-80500000D03*
X121380000Y-72880000D03*
X108680000Y-80500000D03*
X123920000Y-72880000D03*
X106140000Y-80500000D03*
X126460000Y-72880000D03*
D15*
X103600000Y-80500000D03*
D14*
X103800000Y-117680000D03*
X126660000Y-125300000D03*
X106340000Y-117680000D03*
X124120000Y-125300000D03*
X108880000Y-117680000D03*
X121580000Y-125300000D03*
X111420000Y-117680000D03*
X119040000Y-125300000D03*
X113960000Y-117680000D03*
X116500000Y-125300000D03*
X116500000Y-117680000D03*
X113960000Y-125300000D03*
X119040000Y-117680000D03*
X111420000Y-125300000D03*
X121580000Y-117680000D03*
X108880000Y-125300000D03*
X124120000Y-117680000D03*
X106340000Y-125300000D03*
X126660000Y-117680000D03*
D15*
X103800000Y-125300000D03*
D12*
X185460000Y-136000000D03*
X182920000Y-136000000D03*
X180380000Y-136000000D03*
X177840000Y-136000000D03*
X175300000Y-136000000D03*
X172760000Y-136000000D03*
X170220000Y-136000000D03*
X167680000Y-136000000D03*
X165140000Y-136000000D03*
X162600000Y-136000000D03*
X160060000Y-136000000D03*
X157520000Y-136000000D03*
X154980000Y-136000000D03*
X152440000Y-136000000D03*
X149900000Y-136000000D03*
X147360000Y-136000000D03*
X144820000Y-136000000D03*
X142280000Y-136000000D03*
X139740000Y-136000000D03*
X137200000Y-136000000D03*
X134660000Y-136000000D03*
X132120000Y-136000000D03*
X129580000Y-136000000D03*
X127040000Y-136000000D03*
X124500000Y-136000000D03*
X121960000Y-136000000D03*
X119420000Y-136000000D03*
X116880000Y-136000000D03*
X114340000Y-136000000D03*
X111800000Y-136000000D03*
X109260000Y-136000000D03*
X106720000Y-136000000D03*
X104180000Y-136000000D03*
X101640000Y-136000000D03*
X99100000Y-136000000D03*
X96560000Y-136000000D03*
X94020000Y-136000000D03*
X91480000Y-136000000D03*
X88940000Y-136000000D03*
D13*
X86400000Y-136000000D03*
D12*
X185460000Y-46000000D03*
X182920000Y-46000000D03*
X180380000Y-46000000D03*
X177840000Y-46000000D03*
X175300000Y-46000000D03*
X172760000Y-46000000D03*
X170220000Y-46000000D03*
X167680000Y-46000000D03*
X165140000Y-46000000D03*
X162600000Y-46000000D03*
X160060000Y-46000000D03*
X157520000Y-46000000D03*
X154980000Y-46000000D03*
X152440000Y-46000000D03*
X149900000Y-46000000D03*
X147360000Y-46000000D03*
X144820000Y-46000000D03*
X142280000Y-46000000D03*
X139740000Y-46000000D03*
X137200000Y-46000000D03*
X134660000Y-46000000D03*
X132120000Y-46000000D03*
X129580000Y-46000000D03*
X127040000Y-46000000D03*
X124500000Y-46000000D03*
X121960000Y-46000000D03*
X119420000Y-46000000D03*
X116880000Y-46000000D03*
X114340000Y-46000000D03*
X111800000Y-46000000D03*
X109260000Y-46000000D03*
X106720000Y-46000000D03*
X104180000Y-46000000D03*
X101640000Y-46000000D03*
X99100000Y-46000000D03*
X96560000Y-46000000D03*
X94020000Y-46000000D03*
X91480000Y-46000000D03*
X88940000Y-46000000D03*
D13*
X86400000Y-46000000D03*
M02*
