M48
; DRILL file {KiCad (5.1.9)-1} date 07/23/22 11:33:25
; FORMAT={-:-/ absolute / metric / decimal}
; #@! TF.CreationDate,2022-07-23T11:33:25-04:00
; #@! TF.GenerationSoftware,Kicad,Pcbnew,(5.1.9)-1
; #@! TF.FileFunction,Plated,1,2,PTH
FMAT,2
METRIC
T1C0.400
T2C0.800
T3C1.000
%
G90
G05
T1
X87.825Y-99.165
X89.0Y-98.3
X90.9Y-91.393
X92.0Y-92.1
X92.8Y-90.525
X93.6Y-92.9
X94.4Y-89.8
X95.225Y-93.625
X96.105Y-89.005
X97.025Y-94.375
X130.2Y-81.8
X130.5Y-106.2
X132.0Y-52.8
X135.793Y-115.593
X137.7Y-69.0
X137.8Y-85.3
X138.1Y-104.0
X139.0Y-57.1
X139.5Y-124.1
X141.9Y-127.0
X142.7Y-111.0
X142.843Y-71.0
X147.9Y-110.0
X147.986Y-72.0
X153.0Y-109.0
X153.129Y-73.0
X158.2Y-108.0
X158.271Y-74.0
X160.4Y-103.1
X161.9Y-102.2
X163.3Y-107.0
X163.4Y-75.0
X168.4Y-106.0
X168.557Y-76.0
X173.6Y-105.0
X173.7Y-77.0
T2
X103.6Y-72.88
X103.6Y-80.5
X103.6Y-101.58
X103.6Y-109.2
X103.7Y-56.78
X103.7Y-64.4
X103.8Y-117.68
X103.8Y-125.3
X106.14Y-72.88
X106.14Y-80.5
X106.14Y-101.58
X106.14Y-109.2
X106.24Y-56.78
X106.24Y-64.4
X106.34Y-117.68
X106.34Y-125.3
X108.68Y-72.88
X108.68Y-80.5
X108.68Y-101.58
X108.68Y-109.2
X108.78Y-56.78
X108.78Y-64.4
X108.88Y-117.68
X108.88Y-125.3
X111.22Y-72.88
X111.22Y-80.5
X111.22Y-101.58
X111.22Y-109.2
X111.32Y-56.78
X111.32Y-64.4
X111.42Y-117.68
X111.42Y-125.3
X113.76Y-72.88
X113.76Y-80.5
X113.76Y-101.58
X113.76Y-109.2
X113.86Y-56.78
X113.86Y-64.4
X113.96Y-117.68
X113.96Y-125.3
X116.3Y-72.88
X116.3Y-80.5
X116.3Y-101.58
X116.3Y-109.2
X116.4Y-56.78
X116.4Y-64.4
X116.5Y-117.68
X116.5Y-125.3
X118.84Y-72.88
X118.84Y-80.5
X118.84Y-101.58
X118.84Y-109.2
X118.94Y-56.78
X118.94Y-64.4
X119.04Y-117.68
X119.04Y-125.3
X121.38Y-72.88
X121.38Y-80.5
X121.38Y-101.58
X121.38Y-109.2
X121.48Y-56.78
X121.48Y-64.4
X121.58Y-117.68
X121.58Y-125.3
X123.92Y-72.88
X123.92Y-80.5
X123.92Y-101.58
X123.92Y-109.2
X124.02Y-56.78
X124.02Y-64.4
X124.12Y-117.68
X124.12Y-125.3
X126.46Y-72.88
X126.46Y-80.5
X126.46Y-101.58
X126.46Y-109.2
X126.56Y-56.78
X126.56Y-64.4
X126.66Y-117.68
X126.66Y-125.3
X135.9Y-87.88
X135.9Y-95.5
X138.44Y-87.88
X138.44Y-95.5
X140.98Y-87.88
X140.98Y-95.5
X143.52Y-87.88
X143.52Y-95.5
X146.06Y-87.88
X146.06Y-95.5
X148.6Y-87.88
X148.6Y-95.5
X151.14Y-87.88
X151.14Y-95.5
X153.68Y-87.88
X153.68Y-95.5
X162.36Y-87.88
X162.36Y-95.5
X164.9Y-87.88
X164.9Y-95.5
X167.44Y-87.88
X167.44Y-95.5
X169.98Y-87.88
X169.98Y-95.5
X172.52Y-87.88
X172.52Y-95.5
X175.06Y-87.88
X175.06Y-95.5
X177.6Y-87.88
X177.6Y-95.5
X180.14Y-87.88
X180.14Y-95.5
T3
X86.4Y-46.0
X86.4Y-136.0
X88.94Y-46.0
X88.94Y-136.0
X89.0Y-57.6
X89.0Y-60.14
X89.0Y-62.68
X89.0Y-65.22
X89.0Y-106.6
X89.0Y-109.14
X89.0Y-111.68
X89.0Y-114.22
X89.0Y-116.76
X89.0Y-119.3
X89.0Y-121.84
X89.0Y-124.38
X91.48Y-46.0
X91.48Y-136.0
X94.02Y-46.0
X94.02Y-136.0
X96.56Y-46.0
X96.56Y-136.0
X99.1Y-46.0
X99.1Y-136.0
X101.64Y-46.0
X101.64Y-136.0
X104.18Y-46.0
X104.18Y-136.0
X106.72Y-46.0
X106.72Y-136.0
X109.26Y-46.0
X109.26Y-136.0
X111.8Y-46.0
X111.8Y-136.0
X114.34Y-46.0
X114.34Y-136.0
X116.88Y-46.0
X116.88Y-136.0
X119.42Y-46.0
X119.42Y-136.0
X121.96Y-46.0
X121.96Y-136.0
X124.5Y-46.0
X124.5Y-136.0
X127.04Y-46.0
X127.04Y-136.0
X129.58Y-46.0
X129.58Y-136.0
X132.12Y-46.0
X132.12Y-136.0
X134.66Y-46.0
X134.66Y-136.0
X137.2Y-46.0
X137.2Y-136.0
X139.74Y-46.0
X139.74Y-136.0
X142.28Y-46.0
X142.28Y-136.0
X144.82Y-46.0
X144.82Y-136.0
X147.36Y-46.0
X147.36Y-136.0
X149.9Y-46.0
X149.9Y-136.0
X152.44Y-46.0
X152.44Y-136.0
X154.98Y-46.0
X154.98Y-136.0
X157.52Y-46.0
X157.52Y-136.0
X160.06Y-46.0
X160.06Y-136.0
X162.6Y-46.0
X162.6Y-136.0
X165.14Y-46.0
X165.14Y-136.0
X167.68Y-46.0
X167.68Y-136.0
X170.22Y-46.0
X170.22Y-136.0
X172.76Y-46.0
X172.76Y-136.0
X175.3Y-46.0
X175.3Y-136.0
X177.84Y-46.0
X177.84Y-136.0
X180.38Y-46.0
X180.38Y-136.0
X182.92Y-46.0
X182.92Y-136.0
X185.46Y-46.0
X185.46Y-136.0
T0
M30
