%FSLAX45Y45*%
G04 Gerber Fmt 4.5, Leading zero omitted, Abs format (unit mm)*
G04 Created by KiCad (PCBNEW (5.1.9)-1) date 2022-11-18 17:06:59*
%MOMM*%
%LPD*%
G01*
G04 APERTURE LIST*
%TA.AperFunction,Profile*%
%ADD10C,0.100000*%
%TD*%
%ADD11C,0.200000*%
%ADD12C,0.300000*%
G04 APERTURE END LIST*
D10*
X8500000Y-13900000D02*
X8500000Y-4300000D01*
X18700000Y-13900000D02*
X8500000Y-13900000D01*
X18700000Y-4300000D02*
X18700000Y-13900000D01*
X8500000Y-4300000D02*
X18700000Y-4300000D01*
D11*
X10170000Y-6030000D02*
X10210000Y-6070000D01*
X10210000Y-6030000D02*
X10170000Y-6070000D01*
X10920000Y-10200000D02*
X10960000Y-10240000D01*
X10960000Y-10200000D02*
X10920000Y-10240000D01*
X11740000Y-5710000D02*
X11780000Y-5750000D01*
X11780000Y-5710000D02*
X11740000Y-5750000D01*
X11930000Y-10710000D02*
X11970000Y-10750000D01*
X11970000Y-10710000D02*
X11930000Y-10750000D01*
X11990000Y-9670000D02*
X12030000Y-9710000D01*
X12030000Y-9670000D02*
X11990000Y-9710000D01*
X12200000Y-10060000D02*
X12240000Y-10100000D01*
X12240000Y-10060000D02*
X12200000Y-10100000D01*
X12320000Y-6070000D02*
X12360000Y-6110000D01*
X12360000Y-6070000D02*
X12320000Y-6110000D01*
X12359500Y-7280000D02*
X12399500Y-7320000D01*
X12399500Y-7280000D02*
X12359500Y-7320000D01*
X12580000Y-6070000D02*
X12620000Y-6110000D01*
X12620000Y-6070000D02*
X12580000Y-6110000D01*
X12580000Y-6370000D02*
X12620000Y-6410000D01*
X12620000Y-6370000D02*
X12580000Y-6410000D01*
X12700000Y-6070000D02*
X12740000Y-6110000D01*
X12740000Y-6070000D02*
X12700000Y-6110000D01*
X12700000Y-6530000D02*
X12740000Y-6570000D01*
X12740000Y-6530000D02*
X12700000Y-6570000D01*
X12830000Y-6670000D02*
X12870000Y-6710000D01*
X12870000Y-6670000D02*
X12830000Y-6710000D01*
X12830000Y-6070000D02*
X12870000Y-6110000D01*
X12870000Y-6070000D02*
X12830000Y-6110000D01*
X12960000Y-5670000D02*
X13000000Y-5710000D01*
X13000000Y-5670000D02*
X12960000Y-5710000D01*
X13040000Y-11800000D02*
X13080000Y-11840000D01*
X13080000Y-11800000D02*
X13040000Y-11840000D01*
X13190000Y-5140000D02*
X13230000Y-5180000D01*
X13230000Y-5140000D02*
X13190000Y-5180000D01*
X13242500Y-5857500D02*
X13282500Y-5897500D01*
X13282500Y-5857500D02*
X13242500Y-5897500D01*
X13730000Y-6370000D02*
X13770000Y-6410000D01*
X13770000Y-6370000D02*
X13730000Y-6410000D01*
X14130000Y-10710000D02*
X14170000Y-10750000D01*
X14170000Y-10710000D02*
X14130000Y-10750000D01*
X14160000Y-5670000D02*
X14200000Y-5710000D01*
X14200000Y-5670000D02*
X14160000Y-5710000D01*
X14289500Y-6210000D02*
X14329500Y-6250000D01*
X14329500Y-6210000D02*
X14289500Y-6250000D01*
X14410000Y-6070000D02*
X14450000Y-6110000D01*
X14450000Y-6070000D02*
X14410000Y-6110000D01*
X14410000Y-6370000D02*
X14450000Y-6410000D01*
X14450000Y-6370000D02*
X14410000Y-6410000D01*
X14540000Y-6070000D02*
X14580000Y-6110000D01*
X14580000Y-6070000D02*
X14540000Y-6110000D01*
X14540000Y-6530000D02*
X14580000Y-6570000D01*
X14580000Y-6530000D02*
X14540000Y-6570000D01*
X14710000Y-6530000D02*
X14750000Y-6570000D01*
X14750000Y-6530000D02*
X14710000Y-6570000D01*
X14770000Y-12280000D02*
X14810000Y-12320000D01*
X14810000Y-12280000D02*
X14770000Y-12320000D01*
X14800000Y-5670000D02*
X14840000Y-5710000D01*
X14840000Y-5670000D02*
X14800000Y-5710000D01*
X15066250Y-5863750D02*
X15106250Y-5903750D01*
X15106250Y-5863750D02*
X15066250Y-5903750D01*
X15224000Y-5234000D02*
X15264000Y-5274000D01*
X15264000Y-5234000D02*
X15224000Y-5274000D01*
X15380000Y-10280000D02*
X15420000Y-10320000D01*
X15420000Y-10280000D02*
X15380000Y-10320000D01*
X15960000Y-9850000D02*
X16000000Y-9890000D01*
X16000000Y-9850000D02*
X15960000Y-9890000D01*
X16000000Y-5670000D02*
X16040000Y-5710000D01*
X16040000Y-5670000D02*
X16000000Y-5710000D01*
X16160000Y-10170000D02*
X16200000Y-10210000D01*
X16200000Y-10170000D02*
X16160000Y-10210000D01*
X16270000Y-12150000D02*
X16310000Y-12190000D01*
X16310000Y-12150000D02*
X16270000Y-12190000D01*
X16590000Y-8810000D02*
X16630000Y-8850000D01*
X16630000Y-8810000D02*
X16590000Y-8850000D01*
X16630000Y-5670000D02*
X16670000Y-5710000D01*
X16670000Y-5670000D02*
X16630000Y-5710000D01*
X16720000Y-10980000D02*
X16760000Y-11020000D01*
X16760000Y-10980000D02*
X16720000Y-11020000D01*
X16780000Y-12530000D02*
X16820000Y-12570000D01*
X16820000Y-12530000D02*
X16780000Y-12570000D01*
X16906250Y-5863750D02*
X16946250Y-5903750D01*
X16946250Y-5863750D02*
X16906250Y-5903750D01*
X16990000Y-11900001D02*
X17030000Y-11940001D01*
X17030000Y-11900001D02*
X16990000Y-11940001D01*
X17070000Y-11590000D02*
X17110000Y-11630000D01*
X17110000Y-11590000D02*
X17070000Y-11630000D01*
X17150000Y-10280000D02*
X17190000Y-10320000D01*
X17190000Y-10280000D02*
X17150000Y-10320000D01*
X17250000Y-5230000D02*
X17290000Y-5270000D01*
X17290000Y-5230000D02*
X17250000Y-5270000D01*
X17260000Y-10170000D02*
X17300000Y-10210000D01*
X17300000Y-10170000D02*
X17260000Y-10210000D01*
X17370000Y-10060000D02*
X17410000Y-10100000D01*
X17410000Y-10060000D02*
X17370000Y-10100000D01*
X17480000Y-9950000D02*
X17520000Y-9990000D01*
X17520000Y-9950000D02*
X17480000Y-9990000D01*
X11330000Y-11570000D02*
G75*
G03*
X11330000Y-11570000I-40000J0D01*
G01*
X11584000Y-12078000D02*
G75*
G03*
X11584000Y-12078000I-40000J0D01*
G01*
X11838000Y-11570000D02*
G75*
G03*
X11838000Y-11570000I-40000J0D01*
G01*
X15020000Y-8140000D02*
G75*
G03*
X15020000Y-8140000I-40000J0D01*
G01*
X15020000Y-8394000D02*
G75*
G03*
X15020000Y-8394000I-40000J0D01*
G01*
X15020000Y-8648000D02*
G75*
G03*
X15020000Y-8648000I-40000J0D01*
G01*
X15020000Y-8902000D02*
G75*
G03*
X15020000Y-8902000I-40000J0D01*
G01*
X15020000Y-9156000D02*
G75*
G03*
X15020000Y-9156000I-40000J0D01*
G01*
X15020000Y-9410000D02*
G75*
G03*
X15020000Y-9410000I-40000J0D01*
G01*
X15020000Y-9664000D02*
G75*
G03*
X15020000Y-9664000I-40000J0D01*
G01*
X15120000Y-11030000D02*
G75*
G03*
X15120000Y-11030000I-40000J0D01*
G01*
X15120000Y-11284000D02*
G75*
G03*
X15120000Y-11284000I-40000J0D01*
G01*
X15120000Y-11538000D02*
G75*
G03*
X15120000Y-11538000I-40000J0D01*
G01*
X15120000Y-11792000D02*
G75*
G03*
X15120000Y-11792000I-40000J0D01*
G01*
X15120000Y-12046000D02*
G75*
G03*
X15120000Y-12046000I-40000J0D01*
G01*
X15120000Y-12300000D02*
G75*
G03*
X15120000Y-12300000I-40000J0D01*
G01*
X15120000Y-12554000D02*
G75*
G03*
X15120000Y-12554000I-40000J0D01*
G01*
X15782000Y-8140000D02*
G75*
G03*
X15782000Y-8140000I-40000J0D01*
G01*
X15782000Y-8394000D02*
G75*
G03*
X15782000Y-8394000I-40000J0D01*
G01*
X15782000Y-8648000D02*
G75*
G03*
X15782000Y-8648000I-40000J0D01*
G01*
X15782000Y-8902000D02*
G75*
G03*
X15782000Y-8902000I-40000J0D01*
G01*
X15782000Y-9156000D02*
G75*
G03*
X15782000Y-9156000I-40000J0D01*
G01*
X15782000Y-9410000D02*
G75*
G03*
X15782000Y-9410000I-40000J0D01*
G01*
X15782000Y-9664000D02*
G75*
G03*
X15782000Y-9664000I-40000J0D01*
G01*
X15882000Y-11030000D02*
G75*
G03*
X15882000Y-11030000I-40000J0D01*
G01*
X15882000Y-11284000D02*
G75*
G03*
X15882000Y-11284000I-40000J0D01*
G01*
X15882000Y-11538000D02*
G75*
G03*
X15882000Y-11538000I-40000J0D01*
G01*
X15882000Y-11792000D02*
G75*
G03*
X15882000Y-11792000I-40000J0D01*
G01*
X15882000Y-12046000D02*
G75*
G03*
X15882000Y-12046000I-40000J0D01*
G01*
X15882000Y-12300000D02*
G75*
G03*
X15882000Y-12300000I-40000J0D01*
G01*
X15882000Y-12554000D02*
G75*
G03*
X15882000Y-12554000I-40000J0D01*
G01*
X16370000Y-8140000D02*
G75*
G03*
X16370000Y-8140000I-40000J0D01*
G01*
X16370000Y-8394000D02*
G75*
G03*
X16370000Y-8394000I-40000J0D01*
G01*
X16370000Y-8648000D02*
G75*
G03*
X16370000Y-8648000I-40000J0D01*
G01*
X16370000Y-8902000D02*
G75*
G03*
X16370000Y-8902000I-40000J0D01*
G01*
X16370000Y-9156000D02*
G75*
G03*
X16370000Y-9156000I-40000J0D01*
G01*
X16370000Y-9410000D02*
G75*
G03*
X16370000Y-9410000I-40000J0D01*
G01*
X16370000Y-9664000D02*
G75*
G03*
X16370000Y-9664000I-40000J0D01*
G01*
X17132000Y-8140000D02*
G75*
G03*
X17132000Y-8140000I-40000J0D01*
G01*
X17132000Y-8394000D02*
G75*
G03*
X17132000Y-8394000I-40000J0D01*
G01*
X17132000Y-8648000D02*
G75*
G03*
X17132000Y-8648000I-40000J0D01*
G01*
X17132000Y-8902000D02*
G75*
G03*
X17132000Y-8902000I-40000J0D01*
G01*
X17132000Y-9156000D02*
G75*
G03*
X17132000Y-9156000I-40000J0D01*
G01*
X17132000Y-9410000D02*
G75*
G03*
X17132000Y-9410000I-40000J0D01*
G01*
X17132000Y-9664000D02*
G75*
G03*
X17132000Y-9664000I-40000J0D01*
G01*
X17450000Y-11030000D02*
G75*
G03*
X17450000Y-11030000I-40000J0D01*
G01*
X17450000Y-11284000D02*
G75*
G03*
X17450000Y-11284000I-40000J0D01*
G01*
X17450000Y-11538000D02*
G75*
G03*
X17450000Y-11538000I-40000J0D01*
G01*
X17450000Y-11792000D02*
G75*
G03*
X17450000Y-11792000I-40000J0D01*
G01*
X17450000Y-12046000D02*
G75*
G03*
X17450000Y-12046000I-40000J0D01*
G01*
X17450000Y-12300000D02*
G75*
G03*
X17450000Y-12300000I-40000J0D01*
G01*
X17450000Y-12554000D02*
G75*
G03*
X17450000Y-12554000I-40000J0D01*
G01*
X18212000Y-11030000D02*
G75*
G03*
X18212000Y-11030000I-40000J0D01*
G01*
X18212000Y-11284000D02*
G75*
G03*
X18212000Y-11284000I-40000J0D01*
G01*
X18212000Y-11538000D02*
G75*
G03*
X18212000Y-11538000I-40000J0D01*
G01*
X18212000Y-11792000D02*
G75*
G03*
X18212000Y-11792000I-40000J0D01*
G01*
X18212000Y-12046000D02*
G75*
G03*
X18212000Y-12046000I-40000J0D01*
G01*
X18212000Y-12300000D02*
G75*
G03*
X18212000Y-12300000I-40000J0D01*
G01*
X18212000Y-12554000D02*
G75*
G03*
X18212000Y-12554000I-40000J0D01*
G01*
X13470000Y-11525000D02*
X13470000Y-11615000D01*
X13425000Y-11570000D02*
X13515000Y-11570000D01*
X13470000Y-11775000D02*
X13470000Y-11865000D01*
X13425000Y-11820000D02*
X13515000Y-11820000D01*
X13470000Y-12025000D02*
X13470000Y-12115000D01*
X13425000Y-12070000D02*
X13515000Y-12070000D01*
X8675356Y-4635356D02*
X8675356Y-4564644D01*
X8604644Y-4564644D01*
X8604644Y-4635356D01*
X8675356Y-4635356D01*
X8675356Y-13635356D02*
X8675356Y-13564644D01*
X8604644Y-13564644D01*
X8604644Y-13635356D01*
X8675356Y-13635356D01*
X8929356Y-4635356D02*
X8929356Y-4564644D01*
X8858644Y-4564644D01*
X8858644Y-4635356D01*
X8929356Y-4635356D01*
X8929356Y-13635356D02*
X8929356Y-13564644D01*
X8858644Y-13564644D01*
X8858644Y-13635356D01*
X8929356Y-13635356D01*
X9183356Y-4635356D02*
X9183356Y-4564644D01*
X9112644Y-4564644D01*
X9112644Y-4635356D01*
X9183356Y-4635356D01*
X9183356Y-13635356D02*
X9183356Y-13564644D01*
X9112644Y-13564644D01*
X9112644Y-13635356D01*
X9183356Y-13635356D01*
X9437356Y-4635356D02*
X9437356Y-4564644D01*
X9366644Y-4564644D01*
X9366644Y-4635356D01*
X9437356Y-4635356D01*
X9437356Y-13635356D02*
X9437356Y-13564644D01*
X9366644Y-13564644D01*
X9366644Y-13635356D01*
X9437356Y-13635356D01*
X9691356Y-4635356D02*
X9691356Y-4564644D01*
X9620644Y-4564644D01*
X9620644Y-4635356D01*
X9691356Y-4635356D01*
X9691356Y-13635356D02*
X9691356Y-13564644D01*
X9620644Y-13564644D01*
X9620644Y-13635356D01*
X9691356Y-13635356D01*
X9899356Y-7115356D02*
X9899356Y-7044644D01*
X9828644Y-7044644D01*
X9828644Y-7115356D01*
X9899356Y-7115356D01*
X9899356Y-8639356D02*
X9899356Y-8568644D01*
X9828644Y-8568644D01*
X9828644Y-8639356D01*
X9899356Y-8639356D01*
X9945356Y-4635356D02*
X9945356Y-4564644D01*
X9874644Y-4564644D01*
X9874644Y-4635356D01*
X9945356Y-4635356D01*
X9945356Y-13635356D02*
X9945356Y-13564644D01*
X9874644Y-13564644D01*
X9874644Y-13635356D01*
X9945356Y-13635356D01*
X10153356Y-7115356D02*
X10153356Y-7044644D01*
X10082644Y-7044644D01*
X10082644Y-7115356D01*
X10153356Y-7115356D01*
X10153356Y-8639356D02*
X10153356Y-8568644D01*
X10082644Y-8568644D01*
X10082644Y-8639356D01*
X10153356Y-8639356D01*
X10199356Y-4635356D02*
X10199356Y-4564644D01*
X10128644Y-4564644D01*
X10128644Y-4635356D01*
X10199356Y-4635356D01*
X10199356Y-13635356D02*
X10199356Y-13564644D01*
X10128644Y-13564644D01*
X10128644Y-13635356D01*
X10199356Y-13635356D01*
X10407356Y-7115356D02*
X10407356Y-7044644D01*
X10336644Y-7044644D01*
X10336644Y-7115356D01*
X10407356Y-7115356D01*
X10407356Y-8639356D02*
X10407356Y-8568644D01*
X10336644Y-8568644D01*
X10336644Y-8639356D01*
X10407356Y-8639356D01*
X10453356Y-4635356D02*
X10453356Y-4564644D01*
X10382644Y-4564644D01*
X10382644Y-4635356D01*
X10453356Y-4635356D01*
X10453356Y-13635356D02*
X10453356Y-13564644D01*
X10382644Y-13564644D01*
X10382644Y-13635356D01*
X10453356Y-13635356D01*
X10661356Y-7115356D02*
X10661356Y-7044644D01*
X10590644Y-7044644D01*
X10590644Y-7115356D01*
X10661356Y-7115356D01*
X10661356Y-8639356D02*
X10661356Y-8568644D01*
X10590644Y-8568644D01*
X10590644Y-8639356D01*
X10661356Y-8639356D01*
X10707356Y-4635356D02*
X10707356Y-4564644D01*
X10636644Y-4564644D01*
X10636644Y-4635356D01*
X10707356Y-4635356D01*
X10707356Y-13635356D02*
X10707356Y-13564644D01*
X10636644Y-13564644D01*
X10636644Y-13635356D01*
X10707356Y-13635356D01*
X10915356Y-7115356D02*
X10915356Y-7044644D01*
X10844644Y-7044644D01*
X10844644Y-7115356D01*
X10915356Y-7115356D01*
X10915356Y-8639356D02*
X10915356Y-8568644D01*
X10844644Y-8568644D01*
X10844644Y-8639356D01*
X10915356Y-8639356D01*
X10961356Y-4635356D02*
X10961356Y-4564644D01*
X10890644Y-4564644D01*
X10890644Y-4635356D01*
X10961356Y-4635356D01*
X10961356Y-13635356D02*
X10961356Y-13564644D01*
X10890644Y-13564644D01*
X10890644Y-13635356D01*
X10961356Y-13635356D01*
X11169356Y-7115356D02*
X11169356Y-7044644D01*
X11098644Y-7044644D01*
X11098644Y-7115356D01*
X11169356Y-7115356D01*
X11169356Y-8639356D02*
X11169356Y-8568644D01*
X11098644Y-8568644D01*
X11098644Y-8639356D01*
X11169356Y-8639356D01*
X11215356Y-4635356D02*
X11215356Y-4564644D01*
X11144644Y-4564644D01*
X11144644Y-4635356D01*
X11215356Y-4635356D01*
X11215356Y-13635356D02*
X11215356Y-13564644D01*
X11144644Y-13564644D01*
X11144644Y-13635356D01*
X11215356Y-13635356D01*
X11423356Y-7115356D02*
X11423356Y-7044644D01*
X11352644Y-7044644D01*
X11352644Y-7115356D01*
X11423356Y-7115356D01*
X11423356Y-8639356D02*
X11423356Y-8568644D01*
X11352644Y-8568644D01*
X11352644Y-8639356D01*
X11423356Y-8639356D01*
X11469356Y-4635356D02*
X11469356Y-4564644D01*
X11398644Y-4564644D01*
X11398644Y-4635356D01*
X11469356Y-4635356D01*
X11469356Y-13635356D02*
X11469356Y-13564644D01*
X11398644Y-13564644D01*
X11398644Y-13635356D01*
X11469356Y-13635356D01*
X11677356Y-7115356D02*
X11677356Y-7044644D01*
X11606644Y-7044644D01*
X11606644Y-7115356D01*
X11677356Y-7115356D01*
X11677356Y-8639356D02*
X11677356Y-8568644D01*
X11606644Y-8568644D01*
X11606644Y-8639356D01*
X11677356Y-8639356D01*
X11723356Y-4635356D02*
X11723356Y-4564644D01*
X11652644Y-4564644D01*
X11652644Y-4635356D01*
X11723356Y-4635356D01*
X11723356Y-13635356D02*
X11723356Y-13564644D01*
X11652644Y-13564644D01*
X11652644Y-13635356D01*
X11723356Y-13635356D01*
X11931356Y-7115356D02*
X11931356Y-7044644D01*
X11860644Y-7044644D01*
X11860644Y-7115356D01*
X11931356Y-7115356D01*
X11931356Y-8639356D02*
X11931356Y-8568644D01*
X11860644Y-8568644D01*
X11860644Y-8639356D01*
X11931356Y-8639356D01*
X11977356Y-4635356D02*
X11977356Y-4564644D01*
X11906644Y-4564644D01*
X11906644Y-4635356D01*
X11977356Y-4635356D01*
X11977356Y-13635356D02*
X11977356Y-13564644D01*
X11906644Y-13564644D01*
X11906644Y-13635356D01*
X11977356Y-13635356D01*
X12185356Y-7115356D02*
X12185356Y-7044644D01*
X12114644Y-7044644D01*
X12114644Y-7115356D01*
X12185356Y-7115356D01*
X12185356Y-8639356D02*
X12185356Y-8568644D01*
X12114644Y-8568644D01*
X12114644Y-8639356D01*
X12185356Y-8639356D01*
X12231356Y-4635356D02*
X12231356Y-4564644D01*
X12160644Y-4564644D01*
X12160644Y-4635356D01*
X12231356Y-4635356D01*
X12231356Y-13635356D02*
X12231356Y-13564644D01*
X12160644Y-13564644D01*
X12160644Y-13635356D01*
X12231356Y-13635356D01*
X12439356Y-7115356D02*
X12439356Y-7044644D01*
X12368644Y-7044644D01*
X12368644Y-7115356D01*
X12439356Y-7115356D01*
X12439356Y-8639356D02*
X12439356Y-8568644D01*
X12368644Y-8568644D01*
X12368644Y-8639356D01*
X12439356Y-8639356D01*
X12485356Y-4635356D02*
X12485356Y-4564644D01*
X12414644Y-4564644D01*
X12414644Y-4635356D01*
X12485356Y-4635356D01*
X12485356Y-13635356D02*
X12485356Y-13564644D01*
X12414644Y-13564644D01*
X12414644Y-13635356D01*
X12485356Y-13635356D01*
X12693356Y-7115356D02*
X12693356Y-7044644D01*
X12622644Y-7044644D01*
X12622644Y-7115356D01*
X12693356Y-7115356D01*
X12693356Y-8639356D02*
X12693356Y-8568644D01*
X12622644Y-8568644D01*
X12622644Y-8639356D01*
X12693356Y-8639356D01*
X12739356Y-4635356D02*
X12739356Y-4564644D01*
X12668644Y-4564644D01*
X12668644Y-4635356D01*
X12739356Y-4635356D01*
X12739356Y-13635356D02*
X12739356Y-13564644D01*
X12668644Y-13564644D01*
X12668644Y-13635356D01*
X12739356Y-13635356D01*
X12947356Y-7115356D02*
X12947356Y-7044644D01*
X12876644Y-7044644D01*
X12876644Y-7115356D01*
X12947356Y-7115356D01*
X12947356Y-8639356D02*
X12947356Y-8568644D01*
X12876644Y-8568644D01*
X12876644Y-8639356D01*
X12947356Y-8639356D01*
X12993356Y-4635356D02*
X12993356Y-4564644D01*
X12922644Y-4564644D01*
X12922644Y-4635356D01*
X12993356Y-4635356D01*
X12993356Y-13635356D02*
X12993356Y-13564644D01*
X12922644Y-13564644D01*
X12922644Y-13635356D01*
X12993356Y-13635356D01*
X13201356Y-7115356D02*
X13201356Y-7044644D01*
X13130644Y-7044644D01*
X13130644Y-7115356D01*
X13201356Y-7115356D01*
X13201356Y-8639356D02*
X13201356Y-8568644D01*
X13130644Y-8568644D01*
X13130644Y-8639356D01*
X13201356Y-8639356D01*
X13247356Y-4635356D02*
X13247356Y-4564644D01*
X13176644Y-4564644D01*
X13176644Y-4635356D01*
X13247356Y-4635356D01*
X13247356Y-13635356D02*
X13247356Y-13564644D01*
X13176644Y-13564644D01*
X13176644Y-13635356D01*
X13247356Y-13635356D01*
X13455356Y-7115356D02*
X13455356Y-7044644D01*
X13384644Y-7044644D01*
X13384644Y-7115356D01*
X13455356Y-7115356D01*
X13455356Y-8639356D02*
X13455356Y-8568644D01*
X13384644Y-8568644D01*
X13384644Y-8639356D01*
X13455356Y-8639356D01*
X13501356Y-4635356D02*
X13501356Y-4564644D01*
X13430644Y-4564644D01*
X13430644Y-4635356D01*
X13501356Y-4635356D01*
X13501356Y-13635356D02*
X13501356Y-13564644D01*
X13430644Y-13564644D01*
X13430644Y-13635356D01*
X13501356Y-13635356D01*
X13755356Y-4635356D02*
X13755356Y-4564644D01*
X13684644Y-4564644D01*
X13684644Y-4635356D01*
X13755356Y-4635356D01*
X13755356Y-13635356D02*
X13755356Y-13564644D01*
X13684644Y-13564644D01*
X13684644Y-13635356D01*
X13755356Y-13635356D01*
X14009356Y-4635356D02*
X14009356Y-4564644D01*
X13938644Y-4564644D01*
X13938644Y-4635356D01*
X14009356Y-4635356D01*
X14009356Y-13635356D02*
X14009356Y-13564644D01*
X13938644Y-13564644D01*
X13938644Y-13635356D01*
X14009356Y-13635356D01*
X14263356Y-4635356D02*
X14263356Y-4564644D01*
X14192644Y-4564644D01*
X14192644Y-4635356D01*
X14263356Y-4635356D01*
X14263356Y-13635356D02*
X14263356Y-13564644D01*
X14192644Y-13564644D01*
X14192644Y-13635356D01*
X14263356Y-13635356D01*
X14517356Y-4635356D02*
X14517356Y-4564644D01*
X14446644Y-4564644D01*
X14446644Y-4635356D01*
X14517356Y-4635356D01*
X14517356Y-13635356D02*
X14517356Y-13564644D01*
X14446644Y-13564644D01*
X14446644Y-13635356D01*
X14517356Y-13635356D01*
X14771356Y-4635356D02*
X14771356Y-4564644D01*
X14700644Y-4564644D01*
X14700644Y-4635356D01*
X14771356Y-4635356D01*
X14771356Y-13635356D02*
X14771356Y-13564644D01*
X14700644Y-13564644D01*
X14700644Y-13635356D01*
X14771356Y-13635356D01*
X15025356Y-4635356D02*
X15025356Y-4564644D01*
X14954644Y-4564644D01*
X14954644Y-4635356D01*
X15025356Y-4635356D01*
X15025356Y-13635356D02*
X15025356Y-13564644D01*
X14954644Y-13564644D01*
X14954644Y-13635356D01*
X15025356Y-13635356D01*
X15279356Y-4635356D02*
X15279356Y-4564644D01*
X15208644Y-4564644D01*
X15208644Y-4635356D01*
X15279356Y-4635356D01*
X15279356Y-13635356D02*
X15279356Y-13564644D01*
X15208644Y-13564644D01*
X15208644Y-13635356D01*
X15279356Y-13635356D01*
X15533356Y-4635356D02*
X15533356Y-4564644D01*
X15462644Y-4564644D01*
X15462644Y-4635356D01*
X15533356Y-4635356D01*
X15533356Y-13635356D02*
X15533356Y-13564644D01*
X15462644Y-13564644D01*
X15462644Y-13635356D01*
X15533356Y-13635356D01*
X15787356Y-4635356D02*
X15787356Y-4564644D01*
X15716644Y-4564644D01*
X15716644Y-4635356D01*
X15787356Y-4635356D01*
X15787356Y-13635356D02*
X15787356Y-13564644D01*
X15716644Y-13564644D01*
X15716644Y-13635356D01*
X15787356Y-13635356D01*
X16041356Y-4635356D02*
X16041356Y-4564644D01*
X15970644Y-4564644D01*
X15970644Y-4635356D01*
X16041356Y-4635356D01*
X16041356Y-13635356D02*
X16041356Y-13564644D01*
X15970644Y-13564644D01*
X15970644Y-13635356D01*
X16041356Y-13635356D01*
X16295356Y-4635356D02*
X16295356Y-4564644D01*
X16224644Y-4564644D01*
X16224644Y-4635356D01*
X16295356Y-4635356D01*
X16295356Y-13635356D02*
X16295356Y-13564644D01*
X16224644Y-13564644D01*
X16224644Y-13635356D01*
X16295356Y-13635356D01*
X16549356Y-4635356D02*
X16549356Y-4564644D01*
X16478644Y-4564644D01*
X16478644Y-4635356D01*
X16549356Y-4635356D01*
X16549356Y-13635356D02*
X16549356Y-13564644D01*
X16478644Y-13564644D01*
X16478644Y-13635356D01*
X16549356Y-13635356D01*
X16803356Y-4635356D02*
X16803356Y-4564644D01*
X16732644Y-4564644D01*
X16732644Y-4635356D01*
X16803356Y-4635356D01*
X16803356Y-13635356D02*
X16803356Y-13564644D01*
X16732644Y-13564644D01*
X16732644Y-13635356D01*
X16803356Y-13635356D01*
X17057356Y-4635356D02*
X17057356Y-4564644D01*
X16986644Y-4564644D01*
X16986644Y-4635356D01*
X17057356Y-4635356D01*
X17057356Y-13635356D02*
X17057356Y-13564644D01*
X16986644Y-13564644D01*
X16986644Y-13635356D01*
X17057356Y-13635356D01*
X17311356Y-4635356D02*
X17311356Y-4564644D01*
X17240644Y-4564644D01*
X17240644Y-4635356D01*
X17311356Y-4635356D01*
X17311356Y-13635356D02*
X17311356Y-13564644D01*
X17240644Y-13564644D01*
X17240644Y-13635356D01*
X17311356Y-13635356D01*
X17565356Y-4635356D02*
X17565356Y-4564644D01*
X17494644Y-4564644D01*
X17494644Y-4635356D01*
X17565356Y-4635356D01*
X17565356Y-13635356D02*
X17565356Y-13564644D01*
X17494644Y-13564644D01*
X17494644Y-13635356D01*
X17565356Y-13635356D01*
X17819356Y-4635356D02*
X17819356Y-4564644D01*
X17748644Y-4564644D01*
X17748644Y-4635356D01*
X17819356Y-4635356D01*
X17819356Y-13635356D02*
X17819356Y-13564644D01*
X17748644Y-13564644D01*
X17748644Y-13635356D01*
X17819356Y-13635356D01*
X18073356Y-4635356D02*
X18073356Y-4564644D01*
X18002644Y-4564644D01*
X18002644Y-4635356D01*
X18073356Y-4635356D01*
X18073356Y-13635356D02*
X18073356Y-13564644D01*
X18002644Y-13564644D01*
X18002644Y-13635356D01*
X18073356Y-13635356D01*
X18205356Y-8197356D02*
X18205356Y-8126644D01*
X18134644Y-8126644D01*
X18134644Y-8197356D01*
X18205356Y-8197356D01*
X18205356Y-8451356D02*
X18205356Y-8380644D01*
X18134644Y-8380644D01*
X18134644Y-8451356D01*
X18205356Y-8451356D01*
X18205356Y-8705356D02*
X18205356Y-8634644D01*
X18134644Y-8634644D01*
X18134644Y-8705356D01*
X18205356Y-8705356D01*
X18325356Y-5795356D02*
X18325356Y-5724644D01*
X18254644Y-5724644D01*
X18254644Y-5795356D01*
X18325356Y-5795356D01*
X18325356Y-6049356D02*
X18325356Y-5978644D01*
X18254644Y-5978644D01*
X18254644Y-6049356D01*
X18325356Y-6049356D01*
X18325356Y-6303356D02*
X18325356Y-6232644D01*
X18254644Y-6232644D01*
X18254644Y-6303356D01*
X18325356Y-6303356D01*
X18325356Y-6557356D02*
X18325356Y-6486644D01*
X18254644Y-6486644D01*
X18254644Y-6557356D01*
X18325356Y-6557356D01*
X18327356Y-4635356D02*
X18327356Y-4564644D01*
X18256644Y-4564644D01*
X18256644Y-4635356D01*
X18327356Y-4635356D01*
X18327356Y-13635356D02*
X18327356Y-13564644D01*
X18256644Y-13564644D01*
X18256644Y-13635356D01*
X18327356Y-13635356D01*
X18581356Y-4635356D02*
X18581356Y-4564644D01*
X18510644Y-4564644D01*
X18510644Y-4635356D01*
X18581356Y-4635356D01*
X18581356Y-13635356D02*
X18581356Y-13564644D01*
X18510644Y-13564644D01*
X18510644Y-13635356D01*
X18581356Y-13635356D01*
X9640000Y-9625000D02*
X9695000Y-9570000D01*
X9640000Y-9515000D01*
X9585000Y-9570000D01*
X9640000Y-9625000D01*
X9640000Y-10275000D02*
X9695000Y-10220000D01*
X9640000Y-10165000D01*
X9585000Y-10220000D01*
X9640000Y-10275000D01*
X10090000Y-9625000D02*
X10145000Y-9570000D01*
X10090000Y-9515000D01*
X10035000Y-9570000D01*
X10090000Y-9625000D01*
X10090000Y-10275000D02*
X10145000Y-10220000D01*
X10090000Y-10165000D01*
X10035000Y-10220000D01*
X10090000Y-10275000D01*
X12660000Y-9315000D02*
X12715000Y-9260000D01*
X12660000Y-9205000D01*
X12605000Y-9260000D01*
X12660000Y-9315000D01*
X13676000Y-9315000D02*
X13731000Y-9260000D01*
X13676000Y-9205000D01*
X13621000Y-9260000D01*
X13676000Y-9315000D01*
X9125000Y-11505000D02*
X9255000Y-11635000D01*
X9255000Y-11505000D02*
X9125000Y-11635000D01*
X9255000Y-11570000D02*
G75*
G03*
X9255000Y-11570000I-65000J0D01*
G01*
X9125000Y-12005000D02*
X9255000Y-12135000D01*
X9255000Y-12005000D02*
X9125000Y-12135000D01*
X9255000Y-12070000D02*
G75*
G03*
X9255000Y-12070000I-65000J0D01*
G01*
X9235000Y-5655000D02*
X9365000Y-5785000D01*
X9365000Y-5655000D02*
X9235000Y-5785000D01*
X9365000Y-5720000D02*
G75*
G03*
X9365000Y-5720000I-65000J0D01*
G01*
X9235000Y-6155000D02*
X9365000Y-6285000D01*
X9365000Y-6155000D02*
X9235000Y-6285000D01*
X9365000Y-6220000D02*
G75*
G03*
X9365000Y-6220000I-65000J0D01*
G01*
X10375000Y-11505000D02*
X10505000Y-11635000D01*
X10505000Y-11505000D02*
X10375000Y-11635000D01*
X10505000Y-11570000D02*
G75*
G03*
X10505000Y-11570000I-65000J0D01*
G01*
X10375000Y-12005000D02*
X10505000Y-12135000D01*
X10505000Y-12005000D02*
X10375000Y-12135000D01*
X10505000Y-12070000D02*
G75*
G03*
X10505000Y-12070000I-65000J0D01*
G01*
D12*
X8781428Y-14370714D02*
X8781428Y-14070714D01*
X8852857Y-14070714D01*
X8895714Y-14085000D01*
X8924286Y-14113571D01*
X8938571Y-14142143D01*
X8952857Y-14199286D01*
X8952857Y-14242143D01*
X8938571Y-14299286D01*
X8924286Y-14327857D01*
X8895714Y-14356429D01*
X8852857Y-14370714D01*
X8781428Y-14370714D01*
X9081428Y-14370714D02*
X9081428Y-14170714D01*
X9081428Y-14227857D02*
X9095714Y-14199286D01*
X9110000Y-14185000D01*
X9138571Y-14170714D01*
X9167143Y-14170714D01*
X9267143Y-14370714D02*
X9267143Y-14170714D01*
X9267143Y-14070714D02*
X9252857Y-14085000D01*
X9267143Y-14099286D01*
X9281428Y-14085000D01*
X9267143Y-14070714D01*
X9267143Y-14099286D01*
X9452857Y-14370714D02*
X9424286Y-14356429D01*
X9410000Y-14327857D01*
X9410000Y-14070714D01*
X9610000Y-14370714D02*
X9581428Y-14356429D01*
X9567143Y-14327857D01*
X9567143Y-14070714D01*
X9952857Y-14370714D02*
X9952857Y-14070714D01*
X10052857Y-14285000D01*
X10152857Y-14070714D01*
X10152857Y-14370714D01*
X10424286Y-14370714D02*
X10424286Y-14213571D01*
X10410000Y-14185000D01*
X10381428Y-14170714D01*
X10324286Y-14170714D01*
X10295714Y-14185000D01*
X10424286Y-14356429D02*
X10395714Y-14370714D01*
X10324286Y-14370714D01*
X10295714Y-14356429D01*
X10281428Y-14327857D01*
X10281428Y-14299286D01*
X10295714Y-14270714D01*
X10324286Y-14256429D01*
X10395714Y-14256429D01*
X10424286Y-14242143D01*
X10567143Y-14170714D02*
X10567143Y-14470714D01*
X10567143Y-14185000D02*
X10595714Y-14170714D01*
X10652857Y-14170714D01*
X10681428Y-14185000D01*
X10695714Y-14199286D01*
X10710000Y-14227857D01*
X10710000Y-14313571D01*
X10695714Y-14342143D01*
X10681428Y-14356429D01*
X10652857Y-14370714D01*
X10595714Y-14370714D01*
X10567143Y-14356429D01*
X10838571Y-14342143D02*
X10852857Y-14356429D01*
X10838571Y-14370714D01*
X10824286Y-14356429D01*
X10838571Y-14342143D01*
X10838571Y-14370714D01*
X10838571Y-14185000D02*
X10852857Y-14199286D01*
X10838571Y-14213571D01*
X10824286Y-14199286D01*
X10838571Y-14185000D01*
X10838571Y-14213571D01*
X8455000Y-14845000D02*
X8495000Y-14885000D01*
X8495000Y-14845000D02*
X8455000Y-14885000D01*
X8838571Y-14700714D02*
X8867143Y-14700714D01*
X8895714Y-14715000D01*
X8910000Y-14729286D01*
X8924286Y-14757857D01*
X8938571Y-14815000D01*
X8938571Y-14886429D01*
X8924286Y-14943571D01*
X8910000Y-14972143D01*
X8895714Y-14986429D01*
X8867143Y-15000714D01*
X8838571Y-15000714D01*
X8810000Y-14986429D01*
X8795714Y-14972143D01*
X8781428Y-14943571D01*
X8767143Y-14886429D01*
X8767143Y-14815000D01*
X8781428Y-14757857D01*
X8795714Y-14729286D01*
X8810000Y-14715000D01*
X8838571Y-14700714D01*
X9067143Y-14972143D02*
X9081428Y-14986429D01*
X9067143Y-15000714D01*
X9052857Y-14986429D01*
X9067143Y-14972143D01*
X9067143Y-15000714D01*
X9338571Y-14800714D02*
X9338571Y-15000714D01*
X9267143Y-14686429D02*
X9195714Y-14900714D01*
X9381428Y-14900714D01*
X9552857Y-14700714D02*
X9581428Y-14700714D01*
X9610000Y-14715000D01*
X9624286Y-14729286D01*
X9638571Y-14757857D01*
X9652857Y-14815000D01*
X9652857Y-14886429D01*
X9638571Y-14943571D01*
X9624286Y-14972143D01*
X9610000Y-14986429D01*
X9581428Y-15000714D01*
X9552857Y-15000714D01*
X9524286Y-14986429D01*
X9510000Y-14972143D01*
X9495714Y-14943571D01*
X9481428Y-14886429D01*
X9481428Y-14815000D01*
X9495714Y-14757857D01*
X9510000Y-14729286D01*
X9524286Y-14715000D01*
X9552857Y-14700714D01*
X9781428Y-15000714D02*
X9781428Y-14800714D01*
X9781428Y-14829286D02*
X9795714Y-14815000D01*
X9824286Y-14800714D01*
X9867143Y-14800714D01*
X9895714Y-14815000D01*
X9910000Y-14843571D01*
X9910000Y-15000714D01*
X9910000Y-14843571D02*
X9924286Y-14815000D01*
X9952857Y-14800714D01*
X9995714Y-14800714D01*
X10024286Y-14815000D01*
X10038571Y-14843571D01*
X10038571Y-15000714D01*
X10181428Y-15000714D02*
X10181428Y-14800714D01*
X10181428Y-14829286D02*
X10195714Y-14815000D01*
X10224286Y-14800714D01*
X10267143Y-14800714D01*
X10295714Y-14815000D01*
X10310000Y-14843571D01*
X10310000Y-15000714D01*
X10310000Y-14843571D02*
X10324286Y-14815000D01*
X10352857Y-14800714D01*
X10395714Y-14800714D01*
X10424286Y-14815000D01*
X10438571Y-14843571D01*
X10438571Y-15000714D01*
X11024286Y-14686429D02*
X10767143Y-15072143D01*
X11410000Y-14700714D02*
X11438571Y-14700714D01*
X11467143Y-14715000D01*
X11481428Y-14729286D01*
X11495714Y-14757857D01*
X11510000Y-14815000D01*
X11510000Y-14886429D01*
X11495714Y-14943571D01*
X11481428Y-14972143D01*
X11467143Y-14986429D01*
X11438571Y-15000714D01*
X11410000Y-15000714D01*
X11381428Y-14986429D01*
X11367143Y-14972143D01*
X11352857Y-14943571D01*
X11338571Y-14886429D01*
X11338571Y-14815000D01*
X11352857Y-14757857D01*
X11367143Y-14729286D01*
X11381428Y-14715000D01*
X11410000Y-14700714D01*
X11638571Y-14972143D02*
X11652857Y-14986429D01*
X11638571Y-15000714D01*
X11624286Y-14986429D01*
X11638571Y-14972143D01*
X11638571Y-15000714D01*
X11838571Y-14700714D02*
X11867143Y-14700714D01*
X11895714Y-14715000D01*
X11910000Y-14729286D01*
X11924286Y-14757857D01*
X11938571Y-14815000D01*
X11938571Y-14886429D01*
X11924286Y-14943571D01*
X11910000Y-14972143D01*
X11895714Y-14986429D01*
X11867143Y-15000714D01*
X11838571Y-15000714D01*
X11810000Y-14986429D01*
X11795714Y-14972143D01*
X11781428Y-14943571D01*
X11767143Y-14886429D01*
X11767143Y-14815000D01*
X11781428Y-14757857D01*
X11795714Y-14729286D01*
X11810000Y-14715000D01*
X11838571Y-14700714D01*
X12224286Y-15000714D02*
X12052857Y-15000714D01*
X12138571Y-15000714D02*
X12138571Y-14700714D01*
X12110000Y-14743571D01*
X12081428Y-14772143D01*
X12052857Y-14786429D01*
X12481428Y-14700714D02*
X12424286Y-14700714D01*
X12395714Y-14715000D01*
X12381428Y-14729286D01*
X12352857Y-14772143D01*
X12338571Y-14829286D01*
X12338571Y-14943571D01*
X12352857Y-14972143D01*
X12367143Y-14986429D01*
X12395714Y-15000714D01*
X12452857Y-15000714D01*
X12481428Y-14986429D01*
X12495714Y-14972143D01*
X12510000Y-14943571D01*
X12510000Y-14872143D01*
X12495714Y-14843571D01*
X12481428Y-14829286D01*
X12452857Y-14815000D01*
X12395714Y-14815000D01*
X12367143Y-14829286D01*
X12352857Y-14843571D01*
X12338571Y-14872143D01*
X12624286Y-14700714D02*
X12624286Y-14757857D01*
X12738571Y-14700714D02*
X12738571Y-14757857D01*
X13181428Y-15115000D02*
X13167143Y-15100714D01*
X13138571Y-15057857D01*
X13124286Y-15029286D01*
X13110000Y-14986429D01*
X13095714Y-14915000D01*
X13095714Y-14857857D01*
X13110000Y-14786429D01*
X13124286Y-14743571D01*
X13138571Y-14715000D01*
X13167143Y-14672143D01*
X13181428Y-14657857D01*
X13424286Y-14800714D02*
X13424286Y-15000714D01*
X13352857Y-14686429D02*
X13281428Y-14900714D01*
X13467143Y-14900714D01*
X13624286Y-14829286D02*
X13595714Y-14815000D01*
X13581428Y-14800714D01*
X13567143Y-14772143D01*
X13567143Y-14757857D01*
X13581428Y-14729286D01*
X13595714Y-14715000D01*
X13624286Y-14700714D01*
X13681428Y-14700714D01*
X13710000Y-14715000D01*
X13724286Y-14729286D01*
X13738571Y-14757857D01*
X13738571Y-14772143D01*
X13724286Y-14800714D01*
X13710000Y-14815000D01*
X13681428Y-14829286D01*
X13624286Y-14829286D01*
X13595714Y-14843571D01*
X13581428Y-14857857D01*
X13567143Y-14886429D01*
X13567143Y-14943571D01*
X13581428Y-14972143D01*
X13595714Y-14986429D01*
X13624286Y-15000714D01*
X13681428Y-15000714D01*
X13710000Y-14986429D01*
X13724286Y-14972143D01*
X13738571Y-14943571D01*
X13738571Y-14886429D01*
X13724286Y-14857857D01*
X13710000Y-14843571D01*
X13681428Y-14829286D01*
X14095714Y-15000714D02*
X14095714Y-14700714D01*
X14224286Y-15000714D02*
X14224286Y-14843571D01*
X14210000Y-14815000D01*
X14181428Y-14800714D01*
X14138571Y-14800714D01*
X14110000Y-14815000D01*
X14095714Y-14829286D01*
X14410000Y-15000714D02*
X14381428Y-14986429D01*
X14367143Y-14972143D01*
X14352857Y-14943571D01*
X14352857Y-14857857D01*
X14367143Y-14829286D01*
X14381428Y-14815000D01*
X14410000Y-14800714D01*
X14452857Y-14800714D01*
X14481428Y-14815000D01*
X14495714Y-14829286D01*
X14510000Y-14857857D01*
X14510000Y-14943571D01*
X14495714Y-14972143D01*
X14481428Y-14986429D01*
X14452857Y-15000714D01*
X14410000Y-15000714D01*
X14681428Y-15000714D02*
X14652857Y-14986429D01*
X14638571Y-14957857D01*
X14638571Y-14700714D01*
X14910000Y-14986429D02*
X14881428Y-15000714D01*
X14824286Y-15000714D01*
X14795714Y-14986429D01*
X14781428Y-14957857D01*
X14781428Y-14843571D01*
X14795714Y-14815000D01*
X14824286Y-14800714D01*
X14881428Y-14800714D01*
X14910000Y-14815000D01*
X14924286Y-14843571D01*
X14924286Y-14872143D01*
X14781428Y-14900714D01*
X15038571Y-14986429D02*
X15067143Y-15000714D01*
X15124286Y-15000714D01*
X15152857Y-14986429D01*
X15167143Y-14957857D01*
X15167143Y-14943571D01*
X15152857Y-14915000D01*
X15124286Y-14900714D01*
X15081428Y-14900714D01*
X15052857Y-14886429D01*
X15038571Y-14857857D01*
X15038571Y-14843571D01*
X15052857Y-14815000D01*
X15081428Y-14800714D01*
X15124286Y-14800714D01*
X15152857Y-14815000D01*
X15267143Y-15115000D02*
X15281428Y-15100714D01*
X15310000Y-15057857D01*
X15324286Y-15029286D01*
X15338571Y-14986429D01*
X15352857Y-14915000D01*
X15352857Y-14857857D01*
X15338571Y-14786429D01*
X15324286Y-14743571D01*
X15310000Y-14715000D01*
X15281428Y-14672143D01*
X15267143Y-14657857D01*
X8495000Y-15261000D02*
G75*
G03*
X8495000Y-15261000I-40000J0D01*
G01*
X8838571Y-15096714D02*
X8867143Y-15096714D01*
X8895714Y-15111000D01*
X8910000Y-15125286D01*
X8924286Y-15153857D01*
X8938571Y-15211000D01*
X8938571Y-15282429D01*
X8924286Y-15339571D01*
X8910000Y-15368143D01*
X8895714Y-15382429D01*
X8867143Y-15396714D01*
X8838571Y-15396714D01*
X8810000Y-15382429D01*
X8795714Y-15368143D01*
X8781428Y-15339571D01*
X8767143Y-15282429D01*
X8767143Y-15211000D01*
X8781428Y-15153857D01*
X8795714Y-15125286D01*
X8810000Y-15111000D01*
X8838571Y-15096714D01*
X9067143Y-15368143D02*
X9081428Y-15382429D01*
X9067143Y-15396714D01*
X9052857Y-15382429D01*
X9067143Y-15368143D01*
X9067143Y-15396714D01*
X9252857Y-15225286D02*
X9224286Y-15211000D01*
X9210000Y-15196714D01*
X9195714Y-15168143D01*
X9195714Y-15153857D01*
X9210000Y-15125286D01*
X9224286Y-15111000D01*
X9252857Y-15096714D01*
X9310000Y-15096714D01*
X9338571Y-15111000D01*
X9352857Y-15125286D01*
X9367143Y-15153857D01*
X9367143Y-15168143D01*
X9352857Y-15196714D01*
X9338571Y-15211000D01*
X9310000Y-15225286D01*
X9252857Y-15225286D01*
X9224286Y-15239571D01*
X9210000Y-15253857D01*
X9195714Y-15282429D01*
X9195714Y-15339571D01*
X9210000Y-15368143D01*
X9224286Y-15382429D01*
X9252857Y-15396714D01*
X9310000Y-15396714D01*
X9338571Y-15382429D01*
X9352857Y-15368143D01*
X9367143Y-15339571D01*
X9367143Y-15282429D01*
X9352857Y-15253857D01*
X9338571Y-15239571D01*
X9310000Y-15225286D01*
X9552857Y-15096714D02*
X9581428Y-15096714D01*
X9610000Y-15111000D01*
X9624286Y-15125286D01*
X9638571Y-15153857D01*
X9652857Y-15211000D01*
X9652857Y-15282429D01*
X9638571Y-15339571D01*
X9624286Y-15368143D01*
X9610000Y-15382429D01*
X9581428Y-15396714D01*
X9552857Y-15396714D01*
X9524286Y-15382429D01*
X9510000Y-15368143D01*
X9495714Y-15339571D01*
X9481428Y-15282429D01*
X9481428Y-15211000D01*
X9495714Y-15153857D01*
X9510000Y-15125286D01*
X9524286Y-15111000D01*
X9552857Y-15096714D01*
X9781428Y-15396714D02*
X9781428Y-15196714D01*
X9781428Y-15225286D02*
X9795714Y-15211000D01*
X9824286Y-15196714D01*
X9867143Y-15196714D01*
X9895714Y-15211000D01*
X9910000Y-15239571D01*
X9910000Y-15396714D01*
X9910000Y-15239571D02*
X9924286Y-15211000D01*
X9952857Y-15196714D01*
X9995714Y-15196714D01*
X10024286Y-15211000D01*
X10038571Y-15239571D01*
X10038571Y-15396714D01*
X10181428Y-15396714D02*
X10181428Y-15196714D01*
X10181428Y-15225286D02*
X10195714Y-15211000D01*
X10224286Y-15196714D01*
X10267143Y-15196714D01*
X10295714Y-15211000D01*
X10310000Y-15239571D01*
X10310000Y-15396714D01*
X10310000Y-15239571D02*
X10324286Y-15211000D01*
X10352857Y-15196714D01*
X10395714Y-15196714D01*
X10424286Y-15211000D01*
X10438571Y-15239571D01*
X10438571Y-15396714D01*
X11024286Y-15082429D02*
X10767143Y-15468143D01*
X11410000Y-15096714D02*
X11438571Y-15096714D01*
X11467143Y-15111000D01*
X11481428Y-15125286D01*
X11495714Y-15153857D01*
X11510000Y-15211000D01*
X11510000Y-15282429D01*
X11495714Y-15339571D01*
X11481428Y-15368143D01*
X11467143Y-15382429D01*
X11438571Y-15396714D01*
X11410000Y-15396714D01*
X11381428Y-15382429D01*
X11367143Y-15368143D01*
X11352857Y-15339571D01*
X11338571Y-15282429D01*
X11338571Y-15211000D01*
X11352857Y-15153857D01*
X11367143Y-15125286D01*
X11381428Y-15111000D01*
X11410000Y-15096714D01*
X11638571Y-15368143D02*
X11652857Y-15382429D01*
X11638571Y-15396714D01*
X11624286Y-15382429D01*
X11638571Y-15368143D01*
X11638571Y-15396714D01*
X11838571Y-15096714D02*
X11867143Y-15096714D01*
X11895714Y-15111000D01*
X11910000Y-15125286D01*
X11924286Y-15153857D01*
X11938571Y-15211000D01*
X11938571Y-15282429D01*
X11924286Y-15339571D01*
X11910000Y-15368143D01*
X11895714Y-15382429D01*
X11867143Y-15396714D01*
X11838571Y-15396714D01*
X11810000Y-15382429D01*
X11795714Y-15368143D01*
X11781428Y-15339571D01*
X11767143Y-15282429D01*
X11767143Y-15211000D01*
X11781428Y-15153857D01*
X11795714Y-15125286D01*
X11810000Y-15111000D01*
X11838571Y-15096714D01*
X12038571Y-15096714D02*
X12224286Y-15096714D01*
X12124286Y-15211000D01*
X12167143Y-15211000D01*
X12195714Y-15225286D01*
X12210000Y-15239571D01*
X12224286Y-15268143D01*
X12224286Y-15339571D01*
X12210000Y-15368143D01*
X12195714Y-15382429D01*
X12167143Y-15396714D01*
X12081428Y-15396714D01*
X12052857Y-15382429D01*
X12038571Y-15368143D01*
X12510000Y-15396714D02*
X12338571Y-15396714D01*
X12424286Y-15396714D02*
X12424286Y-15096714D01*
X12395714Y-15139571D01*
X12367143Y-15168143D01*
X12338571Y-15182429D01*
X12624286Y-15096714D02*
X12624286Y-15153857D01*
X12738571Y-15096714D02*
X12738571Y-15153857D01*
X13181428Y-15511000D02*
X13167143Y-15496714D01*
X13138571Y-15453857D01*
X13124286Y-15425286D01*
X13110000Y-15382429D01*
X13095714Y-15311000D01*
X13095714Y-15253857D01*
X13110000Y-15182429D01*
X13124286Y-15139571D01*
X13138571Y-15111000D01*
X13167143Y-15068143D01*
X13181428Y-15053857D01*
X13438571Y-15096714D02*
X13295714Y-15096714D01*
X13281428Y-15239571D01*
X13295714Y-15225286D01*
X13324286Y-15211000D01*
X13395714Y-15211000D01*
X13424286Y-15225286D01*
X13438571Y-15239571D01*
X13452857Y-15268143D01*
X13452857Y-15339571D01*
X13438571Y-15368143D01*
X13424286Y-15382429D01*
X13395714Y-15396714D01*
X13324286Y-15396714D01*
X13295714Y-15382429D01*
X13281428Y-15368143D01*
X13595714Y-15396714D02*
X13652857Y-15396714D01*
X13681428Y-15382429D01*
X13695714Y-15368143D01*
X13724286Y-15325286D01*
X13738571Y-15268143D01*
X13738571Y-15153857D01*
X13724286Y-15125286D01*
X13710000Y-15111000D01*
X13681428Y-15096714D01*
X13624286Y-15096714D01*
X13595714Y-15111000D01*
X13581428Y-15125286D01*
X13567143Y-15153857D01*
X13567143Y-15225286D01*
X13581428Y-15253857D01*
X13595714Y-15268143D01*
X13624286Y-15282429D01*
X13681428Y-15282429D01*
X13710000Y-15268143D01*
X13724286Y-15253857D01*
X13738571Y-15225286D01*
X14095714Y-15396714D02*
X14095714Y-15096714D01*
X14224286Y-15396714D02*
X14224286Y-15239571D01*
X14210000Y-15211000D01*
X14181428Y-15196714D01*
X14138571Y-15196714D01*
X14110000Y-15211000D01*
X14095714Y-15225286D01*
X14410000Y-15396714D02*
X14381428Y-15382429D01*
X14367143Y-15368143D01*
X14352857Y-15339571D01*
X14352857Y-15253857D01*
X14367143Y-15225286D01*
X14381428Y-15211000D01*
X14410000Y-15196714D01*
X14452857Y-15196714D01*
X14481428Y-15211000D01*
X14495714Y-15225286D01*
X14510000Y-15253857D01*
X14510000Y-15339571D01*
X14495714Y-15368143D01*
X14481428Y-15382429D01*
X14452857Y-15396714D01*
X14410000Y-15396714D01*
X14681428Y-15396714D02*
X14652857Y-15382429D01*
X14638571Y-15353857D01*
X14638571Y-15096714D01*
X14910000Y-15382429D02*
X14881428Y-15396714D01*
X14824286Y-15396714D01*
X14795714Y-15382429D01*
X14781428Y-15353857D01*
X14781428Y-15239571D01*
X14795714Y-15211000D01*
X14824286Y-15196714D01*
X14881428Y-15196714D01*
X14910000Y-15211000D01*
X14924286Y-15239571D01*
X14924286Y-15268143D01*
X14781428Y-15296714D01*
X15038571Y-15382429D02*
X15067143Y-15396714D01*
X15124286Y-15396714D01*
X15152857Y-15382429D01*
X15167143Y-15353857D01*
X15167143Y-15339571D01*
X15152857Y-15311000D01*
X15124286Y-15296714D01*
X15081428Y-15296714D01*
X15052857Y-15282429D01*
X15038571Y-15253857D01*
X15038571Y-15239571D01*
X15052857Y-15211000D01*
X15081428Y-15196714D01*
X15124286Y-15196714D01*
X15152857Y-15211000D01*
X15267143Y-15511000D02*
X15281428Y-15496714D01*
X15310000Y-15453857D01*
X15324286Y-15425286D01*
X15338571Y-15382429D01*
X15352857Y-15311000D01*
X15352857Y-15253857D01*
X15338571Y-15182429D01*
X15324286Y-15139571D01*
X15310000Y-15111000D01*
X15281428Y-15068143D01*
X15267143Y-15053857D01*
X8450000Y-15612000D02*
X8450000Y-15702000D01*
X8405000Y-15657000D02*
X8495000Y-15657000D01*
X8838571Y-15492714D02*
X8867143Y-15492714D01*
X8895714Y-15507000D01*
X8910000Y-15521286D01*
X8924286Y-15549857D01*
X8938571Y-15607000D01*
X8938571Y-15678429D01*
X8924286Y-15735571D01*
X8910000Y-15764143D01*
X8895714Y-15778429D01*
X8867143Y-15792714D01*
X8838571Y-15792714D01*
X8810000Y-15778429D01*
X8795714Y-15764143D01*
X8781428Y-15735571D01*
X8767143Y-15678429D01*
X8767143Y-15607000D01*
X8781428Y-15549857D01*
X8795714Y-15521286D01*
X8810000Y-15507000D01*
X8838571Y-15492714D01*
X9067143Y-15764143D02*
X9081428Y-15778429D01*
X9067143Y-15792714D01*
X9052857Y-15778429D01*
X9067143Y-15764143D01*
X9067143Y-15792714D01*
X9224286Y-15792714D02*
X9281428Y-15792714D01*
X9310000Y-15778429D01*
X9324286Y-15764143D01*
X9352857Y-15721286D01*
X9367143Y-15664143D01*
X9367143Y-15549857D01*
X9352857Y-15521286D01*
X9338571Y-15507000D01*
X9310000Y-15492714D01*
X9252857Y-15492714D01*
X9224286Y-15507000D01*
X9210000Y-15521286D01*
X9195714Y-15549857D01*
X9195714Y-15621286D01*
X9210000Y-15649857D01*
X9224286Y-15664143D01*
X9252857Y-15678429D01*
X9310000Y-15678429D01*
X9338571Y-15664143D01*
X9352857Y-15649857D01*
X9367143Y-15621286D01*
X9552857Y-15492714D02*
X9581428Y-15492714D01*
X9610000Y-15507000D01*
X9624286Y-15521286D01*
X9638571Y-15549857D01*
X9652857Y-15607000D01*
X9652857Y-15678429D01*
X9638571Y-15735571D01*
X9624286Y-15764143D01*
X9610000Y-15778429D01*
X9581428Y-15792714D01*
X9552857Y-15792714D01*
X9524286Y-15778429D01*
X9510000Y-15764143D01*
X9495714Y-15735571D01*
X9481428Y-15678429D01*
X9481428Y-15607000D01*
X9495714Y-15549857D01*
X9510000Y-15521286D01*
X9524286Y-15507000D01*
X9552857Y-15492714D01*
X9781428Y-15792714D02*
X9781428Y-15592714D01*
X9781428Y-15621286D02*
X9795714Y-15607000D01*
X9824286Y-15592714D01*
X9867143Y-15592714D01*
X9895714Y-15607000D01*
X9910000Y-15635571D01*
X9910000Y-15792714D01*
X9910000Y-15635571D02*
X9924286Y-15607000D01*
X9952857Y-15592714D01*
X9995714Y-15592714D01*
X10024286Y-15607000D01*
X10038571Y-15635571D01*
X10038571Y-15792714D01*
X10181428Y-15792714D02*
X10181428Y-15592714D01*
X10181428Y-15621286D02*
X10195714Y-15607000D01*
X10224286Y-15592714D01*
X10267143Y-15592714D01*
X10295714Y-15607000D01*
X10310000Y-15635571D01*
X10310000Y-15792714D01*
X10310000Y-15635571D02*
X10324286Y-15607000D01*
X10352857Y-15592714D01*
X10395714Y-15592714D01*
X10424286Y-15607000D01*
X10438571Y-15635571D01*
X10438571Y-15792714D01*
X11024286Y-15478429D02*
X10767143Y-15864143D01*
X11410000Y-15492714D02*
X11438571Y-15492714D01*
X11467143Y-15507000D01*
X11481428Y-15521286D01*
X11495714Y-15549857D01*
X11510000Y-15607000D01*
X11510000Y-15678429D01*
X11495714Y-15735571D01*
X11481428Y-15764143D01*
X11467143Y-15778429D01*
X11438571Y-15792714D01*
X11410000Y-15792714D01*
X11381428Y-15778429D01*
X11367143Y-15764143D01*
X11352857Y-15735571D01*
X11338571Y-15678429D01*
X11338571Y-15607000D01*
X11352857Y-15549857D01*
X11367143Y-15521286D01*
X11381428Y-15507000D01*
X11410000Y-15492714D01*
X11638571Y-15764143D02*
X11652857Y-15778429D01*
X11638571Y-15792714D01*
X11624286Y-15778429D01*
X11638571Y-15764143D01*
X11638571Y-15792714D01*
X11838571Y-15492714D02*
X11867143Y-15492714D01*
X11895714Y-15507000D01*
X11910000Y-15521286D01*
X11924286Y-15549857D01*
X11938571Y-15607000D01*
X11938571Y-15678429D01*
X11924286Y-15735571D01*
X11910000Y-15764143D01*
X11895714Y-15778429D01*
X11867143Y-15792714D01*
X11838571Y-15792714D01*
X11810000Y-15778429D01*
X11795714Y-15764143D01*
X11781428Y-15735571D01*
X11767143Y-15678429D01*
X11767143Y-15607000D01*
X11781428Y-15549857D01*
X11795714Y-15521286D01*
X11810000Y-15507000D01*
X11838571Y-15492714D01*
X12038571Y-15492714D02*
X12224286Y-15492714D01*
X12124286Y-15607000D01*
X12167143Y-15607000D01*
X12195714Y-15621286D01*
X12210000Y-15635571D01*
X12224286Y-15664143D01*
X12224286Y-15735571D01*
X12210000Y-15764143D01*
X12195714Y-15778429D01*
X12167143Y-15792714D01*
X12081428Y-15792714D01*
X12052857Y-15778429D01*
X12038571Y-15764143D01*
X12495714Y-15492714D02*
X12352857Y-15492714D01*
X12338571Y-15635571D01*
X12352857Y-15621286D01*
X12381428Y-15607000D01*
X12452857Y-15607000D01*
X12481428Y-15621286D01*
X12495714Y-15635571D01*
X12510000Y-15664143D01*
X12510000Y-15735571D01*
X12495714Y-15764143D01*
X12481428Y-15778429D01*
X12452857Y-15792714D01*
X12381428Y-15792714D01*
X12352857Y-15778429D01*
X12338571Y-15764143D01*
X12624286Y-15492714D02*
X12624286Y-15549857D01*
X12738571Y-15492714D02*
X12738571Y-15549857D01*
X13181428Y-15907000D02*
X13167143Y-15892714D01*
X13138571Y-15849857D01*
X13124286Y-15821286D01*
X13110000Y-15778429D01*
X13095714Y-15707000D01*
X13095714Y-15649857D01*
X13110000Y-15578429D01*
X13124286Y-15535571D01*
X13138571Y-15507000D01*
X13167143Y-15464143D01*
X13181428Y-15449857D01*
X13267143Y-15492714D02*
X13452857Y-15492714D01*
X13352857Y-15607000D01*
X13395714Y-15607000D01*
X13424286Y-15621286D01*
X13438571Y-15635571D01*
X13452857Y-15664143D01*
X13452857Y-15735571D01*
X13438571Y-15764143D01*
X13424286Y-15778429D01*
X13395714Y-15792714D01*
X13310000Y-15792714D01*
X13281428Y-15778429D01*
X13267143Y-15764143D01*
X13810000Y-15792714D02*
X13810000Y-15492714D01*
X13938571Y-15792714D02*
X13938571Y-15635571D01*
X13924286Y-15607000D01*
X13895714Y-15592714D01*
X13852857Y-15592714D01*
X13824286Y-15607000D01*
X13810000Y-15621286D01*
X14124286Y-15792714D02*
X14095714Y-15778429D01*
X14081428Y-15764143D01*
X14067143Y-15735571D01*
X14067143Y-15649857D01*
X14081428Y-15621286D01*
X14095714Y-15607000D01*
X14124286Y-15592714D01*
X14167143Y-15592714D01*
X14195714Y-15607000D01*
X14210000Y-15621286D01*
X14224286Y-15649857D01*
X14224286Y-15735571D01*
X14210000Y-15764143D01*
X14195714Y-15778429D01*
X14167143Y-15792714D01*
X14124286Y-15792714D01*
X14395714Y-15792714D02*
X14367143Y-15778429D01*
X14352857Y-15749857D01*
X14352857Y-15492714D01*
X14624286Y-15778429D02*
X14595714Y-15792714D01*
X14538571Y-15792714D01*
X14510000Y-15778429D01*
X14495714Y-15749857D01*
X14495714Y-15635571D01*
X14510000Y-15607000D01*
X14538571Y-15592714D01*
X14595714Y-15592714D01*
X14624286Y-15607000D01*
X14638571Y-15635571D01*
X14638571Y-15664143D01*
X14495714Y-15692714D01*
X14752857Y-15778429D02*
X14781428Y-15792714D01*
X14838571Y-15792714D01*
X14867143Y-15778429D01*
X14881428Y-15749857D01*
X14881428Y-15735571D01*
X14867143Y-15707000D01*
X14838571Y-15692714D01*
X14795714Y-15692714D01*
X14767143Y-15678429D01*
X14752857Y-15649857D01*
X14752857Y-15635571D01*
X14767143Y-15607000D01*
X14795714Y-15592714D01*
X14838571Y-15592714D01*
X14867143Y-15607000D01*
X14981428Y-15907000D02*
X14995714Y-15892714D01*
X15024286Y-15849857D01*
X15038571Y-15821286D01*
X15052857Y-15778429D01*
X15067143Y-15707000D01*
X15067143Y-15649857D01*
X15052857Y-15578429D01*
X15038571Y-15535571D01*
X15024286Y-15507000D01*
X14995714Y-15464143D01*
X14981428Y-15449857D01*
X8480356Y-16088356D02*
X8480356Y-16017644D01*
X8409644Y-16017644D01*
X8409644Y-16088356D01*
X8480356Y-16088356D01*
X8938571Y-16188714D02*
X8767143Y-16188714D01*
X8852857Y-16188714D02*
X8852857Y-15888714D01*
X8824286Y-15931571D01*
X8795714Y-15960143D01*
X8767143Y-15974429D01*
X9067143Y-16160143D02*
X9081428Y-16174429D01*
X9067143Y-16188714D01*
X9052857Y-16174429D01*
X9067143Y-16160143D01*
X9067143Y-16188714D01*
X9267143Y-15888714D02*
X9295714Y-15888714D01*
X9324286Y-15903000D01*
X9338571Y-15917286D01*
X9352857Y-15945857D01*
X9367143Y-16003000D01*
X9367143Y-16074429D01*
X9352857Y-16131571D01*
X9338571Y-16160143D01*
X9324286Y-16174429D01*
X9295714Y-16188714D01*
X9267143Y-16188714D01*
X9238571Y-16174429D01*
X9224286Y-16160143D01*
X9210000Y-16131571D01*
X9195714Y-16074429D01*
X9195714Y-16003000D01*
X9210000Y-15945857D01*
X9224286Y-15917286D01*
X9238571Y-15903000D01*
X9267143Y-15888714D01*
X9552857Y-15888714D02*
X9581428Y-15888714D01*
X9610000Y-15903000D01*
X9624286Y-15917286D01*
X9638571Y-15945857D01*
X9652857Y-16003000D01*
X9652857Y-16074429D01*
X9638571Y-16131571D01*
X9624286Y-16160143D01*
X9610000Y-16174429D01*
X9581428Y-16188714D01*
X9552857Y-16188714D01*
X9524286Y-16174429D01*
X9510000Y-16160143D01*
X9495714Y-16131571D01*
X9481428Y-16074429D01*
X9481428Y-16003000D01*
X9495714Y-15945857D01*
X9510000Y-15917286D01*
X9524286Y-15903000D01*
X9552857Y-15888714D01*
X9781428Y-16188714D02*
X9781428Y-15988714D01*
X9781428Y-16017286D02*
X9795714Y-16003000D01*
X9824286Y-15988714D01*
X9867143Y-15988714D01*
X9895714Y-16003000D01*
X9910000Y-16031571D01*
X9910000Y-16188714D01*
X9910000Y-16031571D02*
X9924286Y-16003000D01*
X9952857Y-15988714D01*
X9995714Y-15988714D01*
X10024286Y-16003000D01*
X10038571Y-16031571D01*
X10038571Y-16188714D01*
X10181428Y-16188714D02*
X10181428Y-15988714D01*
X10181428Y-16017286D02*
X10195714Y-16003000D01*
X10224286Y-15988714D01*
X10267143Y-15988714D01*
X10295714Y-16003000D01*
X10310000Y-16031571D01*
X10310000Y-16188714D01*
X10310000Y-16031571D02*
X10324286Y-16003000D01*
X10352857Y-15988714D01*
X10395714Y-15988714D01*
X10424286Y-16003000D01*
X10438571Y-16031571D01*
X10438571Y-16188714D01*
X11024286Y-15874429D02*
X10767143Y-16260143D01*
X11410000Y-15888714D02*
X11438571Y-15888714D01*
X11467143Y-15903000D01*
X11481428Y-15917286D01*
X11495714Y-15945857D01*
X11510000Y-16003000D01*
X11510000Y-16074429D01*
X11495714Y-16131571D01*
X11481428Y-16160143D01*
X11467143Y-16174429D01*
X11438571Y-16188714D01*
X11410000Y-16188714D01*
X11381428Y-16174429D01*
X11367143Y-16160143D01*
X11352857Y-16131571D01*
X11338571Y-16074429D01*
X11338571Y-16003000D01*
X11352857Y-15945857D01*
X11367143Y-15917286D01*
X11381428Y-15903000D01*
X11410000Y-15888714D01*
X11638571Y-16160143D02*
X11652857Y-16174429D01*
X11638571Y-16188714D01*
X11624286Y-16174429D01*
X11638571Y-16160143D01*
X11638571Y-16188714D01*
X11838571Y-15888714D02*
X11867143Y-15888714D01*
X11895714Y-15903000D01*
X11910000Y-15917286D01*
X11924286Y-15945857D01*
X11938571Y-16003000D01*
X11938571Y-16074429D01*
X11924286Y-16131571D01*
X11910000Y-16160143D01*
X11895714Y-16174429D01*
X11867143Y-16188714D01*
X11838571Y-16188714D01*
X11810000Y-16174429D01*
X11795714Y-16160143D01*
X11781428Y-16131571D01*
X11767143Y-16074429D01*
X11767143Y-16003000D01*
X11781428Y-15945857D01*
X11795714Y-15917286D01*
X11810000Y-15903000D01*
X11838571Y-15888714D01*
X12038571Y-15888714D02*
X12224286Y-15888714D01*
X12124286Y-16003000D01*
X12167143Y-16003000D01*
X12195714Y-16017286D01*
X12210000Y-16031571D01*
X12224286Y-16060143D01*
X12224286Y-16131571D01*
X12210000Y-16160143D01*
X12195714Y-16174429D01*
X12167143Y-16188714D01*
X12081428Y-16188714D01*
X12052857Y-16174429D01*
X12038571Y-16160143D01*
X12367143Y-16188714D02*
X12424286Y-16188714D01*
X12452857Y-16174429D01*
X12467143Y-16160143D01*
X12495714Y-16117286D01*
X12510000Y-16060143D01*
X12510000Y-15945857D01*
X12495714Y-15917286D01*
X12481428Y-15903000D01*
X12452857Y-15888714D01*
X12395714Y-15888714D01*
X12367143Y-15903000D01*
X12352857Y-15917286D01*
X12338571Y-15945857D01*
X12338571Y-16017286D01*
X12352857Y-16045857D01*
X12367143Y-16060143D01*
X12395714Y-16074429D01*
X12452857Y-16074429D01*
X12481428Y-16060143D01*
X12495714Y-16045857D01*
X12510000Y-16017286D01*
X12624286Y-15888714D02*
X12624286Y-15945857D01*
X12738571Y-15888714D02*
X12738571Y-15945857D01*
X13181428Y-16303000D02*
X13167143Y-16288714D01*
X13138571Y-16245857D01*
X13124286Y-16217286D01*
X13110000Y-16174429D01*
X13095714Y-16103000D01*
X13095714Y-16045857D01*
X13110000Y-15974429D01*
X13124286Y-15931571D01*
X13138571Y-15903000D01*
X13167143Y-15860143D01*
X13181428Y-15845857D01*
X13452857Y-16188714D02*
X13281428Y-16188714D01*
X13367143Y-16188714D02*
X13367143Y-15888714D01*
X13338571Y-15931571D01*
X13310000Y-15960143D01*
X13281428Y-15974429D01*
X13738571Y-16188714D02*
X13567143Y-16188714D01*
X13652857Y-16188714D02*
X13652857Y-15888714D01*
X13624286Y-15931571D01*
X13595714Y-15960143D01*
X13567143Y-15974429D01*
X13838571Y-15888714D02*
X14038571Y-15888714D01*
X13910000Y-16188714D01*
X14381428Y-16188714D02*
X14381428Y-15888714D01*
X14510000Y-16188714D02*
X14510000Y-16031571D01*
X14495714Y-16003000D01*
X14467143Y-15988714D01*
X14424286Y-15988714D01*
X14395714Y-16003000D01*
X14381428Y-16017286D01*
X14695714Y-16188714D02*
X14667143Y-16174429D01*
X14652857Y-16160143D01*
X14638571Y-16131571D01*
X14638571Y-16045857D01*
X14652857Y-16017286D01*
X14667143Y-16003000D01*
X14695714Y-15988714D01*
X14738571Y-15988714D01*
X14767143Y-16003000D01*
X14781428Y-16017286D01*
X14795714Y-16045857D01*
X14795714Y-16131571D01*
X14781428Y-16160143D01*
X14767143Y-16174429D01*
X14738571Y-16188714D01*
X14695714Y-16188714D01*
X14967143Y-16188714D02*
X14938571Y-16174429D01*
X14924286Y-16145857D01*
X14924286Y-15888714D01*
X15195714Y-16174429D02*
X15167143Y-16188714D01*
X15110000Y-16188714D01*
X15081428Y-16174429D01*
X15067143Y-16145857D01*
X15067143Y-16031571D01*
X15081428Y-16003000D01*
X15110000Y-15988714D01*
X15167143Y-15988714D01*
X15195714Y-16003000D01*
X15210000Y-16031571D01*
X15210000Y-16060143D01*
X15067143Y-16088714D01*
X15324286Y-16174429D02*
X15352857Y-16188714D01*
X15410000Y-16188714D01*
X15438571Y-16174429D01*
X15452857Y-16145857D01*
X15452857Y-16131571D01*
X15438571Y-16103000D01*
X15410000Y-16088714D01*
X15367143Y-16088714D01*
X15338571Y-16074429D01*
X15324286Y-16045857D01*
X15324286Y-16031571D01*
X15338571Y-16003000D01*
X15367143Y-15988714D01*
X15410000Y-15988714D01*
X15438571Y-16003000D01*
X15552857Y-16303000D02*
X15567143Y-16288714D01*
X15595714Y-16245857D01*
X15610000Y-16217286D01*
X15624286Y-16174429D01*
X15638571Y-16103000D01*
X15638571Y-16045857D01*
X15624286Y-15974429D01*
X15610000Y-15931571D01*
X15595714Y-15903000D01*
X15567143Y-15860143D01*
X15552857Y-15845857D01*
X8440000Y-16504000D02*
X8495000Y-16449000D01*
X8440000Y-16394000D01*
X8385000Y-16449000D01*
X8440000Y-16504000D01*
X8938571Y-16584714D02*
X8767143Y-16584714D01*
X8852857Y-16584714D02*
X8852857Y-16284714D01*
X8824286Y-16327571D01*
X8795714Y-16356143D01*
X8767143Y-16370429D01*
X9067143Y-16556143D02*
X9081428Y-16570429D01*
X9067143Y-16584714D01*
X9052857Y-16570429D01*
X9067143Y-16556143D01*
X9067143Y-16584714D01*
X9367143Y-16584714D02*
X9195714Y-16584714D01*
X9281428Y-16584714D02*
X9281428Y-16284714D01*
X9252857Y-16327571D01*
X9224286Y-16356143D01*
X9195714Y-16370429D01*
X9552857Y-16284714D02*
X9581428Y-16284714D01*
X9610000Y-16299000D01*
X9624286Y-16313286D01*
X9638571Y-16341857D01*
X9652857Y-16399000D01*
X9652857Y-16470429D01*
X9638571Y-16527571D01*
X9624286Y-16556143D01*
X9610000Y-16570429D01*
X9581428Y-16584714D01*
X9552857Y-16584714D01*
X9524286Y-16570429D01*
X9510000Y-16556143D01*
X9495714Y-16527571D01*
X9481428Y-16470429D01*
X9481428Y-16399000D01*
X9495714Y-16341857D01*
X9510000Y-16313286D01*
X9524286Y-16299000D01*
X9552857Y-16284714D01*
X9781428Y-16584714D02*
X9781428Y-16384714D01*
X9781428Y-16413286D02*
X9795714Y-16399000D01*
X9824286Y-16384714D01*
X9867143Y-16384714D01*
X9895714Y-16399000D01*
X9910000Y-16427571D01*
X9910000Y-16584714D01*
X9910000Y-16427571D02*
X9924286Y-16399000D01*
X9952857Y-16384714D01*
X9995714Y-16384714D01*
X10024286Y-16399000D01*
X10038571Y-16427571D01*
X10038571Y-16584714D01*
X10181428Y-16584714D02*
X10181428Y-16384714D01*
X10181428Y-16413286D02*
X10195714Y-16399000D01*
X10224286Y-16384714D01*
X10267143Y-16384714D01*
X10295714Y-16399000D01*
X10310000Y-16427571D01*
X10310000Y-16584714D01*
X10310000Y-16427571D02*
X10324286Y-16399000D01*
X10352857Y-16384714D01*
X10395714Y-16384714D01*
X10424286Y-16399000D01*
X10438571Y-16427571D01*
X10438571Y-16584714D01*
X11024286Y-16270429D02*
X10767143Y-16656143D01*
X11410000Y-16284714D02*
X11438571Y-16284714D01*
X11467143Y-16299000D01*
X11481428Y-16313286D01*
X11495714Y-16341857D01*
X11510000Y-16399000D01*
X11510000Y-16470429D01*
X11495714Y-16527571D01*
X11481428Y-16556143D01*
X11467143Y-16570429D01*
X11438571Y-16584714D01*
X11410000Y-16584714D01*
X11381428Y-16570429D01*
X11367143Y-16556143D01*
X11352857Y-16527571D01*
X11338571Y-16470429D01*
X11338571Y-16399000D01*
X11352857Y-16341857D01*
X11367143Y-16313286D01*
X11381428Y-16299000D01*
X11410000Y-16284714D01*
X11638571Y-16556143D02*
X11652857Y-16570429D01*
X11638571Y-16584714D01*
X11624286Y-16570429D01*
X11638571Y-16556143D01*
X11638571Y-16584714D01*
X11838571Y-16284714D02*
X11867143Y-16284714D01*
X11895714Y-16299000D01*
X11910000Y-16313286D01*
X11924286Y-16341857D01*
X11938571Y-16399000D01*
X11938571Y-16470429D01*
X11924286Y-16527571D01*
X11910000Y-16556143D01*
X11895714Y-16570429D01*
X11867143Y-16584714D01*
X11838571Y-16584714D01*
X11810000Y-16570429D01*
X11795714Y-16556143D01*
X11781428Y-16527571D01*
X11767143Y-16470429D01*
X11767143Y-16399000D01*
X11781428Y-16341857D01*
X11795714Y-16313286D01*
X11810000Y-16299000D01*
X11838571Y-16284714D01*
X12195714Y-16384714D02*
X12195714Y-16584714D01*
X12124286Y-16270429D02*
X12052857Y-16484714D01*
X12238571Y-16484714D01*
X12324286Y-16284714D02*
X12510000Y-16284714D01*
X12410000Y-16399000D01*
X12452857Y-16399000D01*
X12481428Y-16413286D01*
X12495714Y-16427571D01*
X12510000Y-16456143D01*
X12510000Y-16527571D01*
X12495714Y-16556143D01*
X12481428Y-16570429D01*
X12452857Y-16584714D01*
X12367143Y-16584714D01*
X12338571Y-16570429D01*
X12324286Y-16556143D01*
X12624286Y-16284714D02*
X12624286Y-16341857D01*
X12738571Y-16284714D02*
X12738571Y-16341857D01*
X13181428Y-16699000D02*
X13167143Y-16684714D01*
X13138571Y-16641857D01*
X13124286Y-16613286D01*
X13110000Y-16570429D01*
X13095714Y-16499000D01*
X13095714Y-16441857D01*
X13110000Y-16370429D01*
X13124286Y-16327571D01*
X13138571Y-16299000D01*
X13167143Y-16256143D01*
X13181428Y-16241857D01*
X13424286Y-16284714D02*
X13367143Y-16284714D01*
X13338571Y-16299000D01*
X13324286Y-16313286D01*
X13295714Y-16356143D01*
X13281428Y-16413286D01*
X13281428Y-16527571D01*
X13295714Y-16556143D01*
X13310000Y-16570429D01*
X13338571Y-16584714D01*
X13395714Y-16584714D01*
X13424286Y-16570429D01*
X13438571Y-16556143D01*
X13452857Y-16527571D01*
X13452857Y-16456143D01*
X13438571Y-16427571D01*
X13424286Y-16413286D01*
X13395714Y-16399000D01*
X13338571Y-16399000D01*
X13310000Y-16413286D01*
X13295714Y-16427571D01*
X13281428Y-16456143D01*
X13810000Y-16584714D02*
X13810000Y-16284714D01*
X13938571Y-16584714D02*
X13938571Y-16427571D01*
X13924286Y-16399000D01*
X13895714Y-16384714D01*
X13852857Y-16384714D01*
X13824286Y-16399000D01*
X13810000Y-16413286D01*
X14124286Y-16584714D02*
X14095714Y-16570429D01*
X14081428Y-16556143D01*
X14067143Y-16527571D01*
X14067143Y-16441857D01*
X14081428Y-16413286D01*
X14095714Y-16399000D01*
X14124286Y-16384714D01*
X14167143Y-16384714D01*
X14195714Y-16399000D01*
X14210000Y-16413286D01*
X14224286Y-16441857D01*
X14224286Y-16527571D01*
X14210000Y-16556143D01*
X14195714Y-16570429D01*
X14167143Y-16584714D01*
X14124286Y-16584714D01*
X14395714Y-16584714D02*
X14367143Y-16570429D01*
X14352857Y-16541857D01*
X14352857Y-16284714D01*
X14624286Y-16570429D02*
X14595714Y-16584714D01*
X14538571Y-16584714D01*
X14510000Y-16570429D01*
X14495714Y-16541857D01*
X14495714Y-16427571D01*
X14510000Y-16399000D01*
X14538571Y-16384714D01*
X14595714Y-16384714D01*
X14624286Y-16399000D01*
X14638571Y-16427571D01*
X14638571Y-16456143D01*
X14495714Y-16484714D01*
X14752857Y-16570429D02*
X14781428Y-16584714D01*
X14838571Y-16584714D01*
X14867143Y-16570429D01*
X14881428Y-16541857D01*
X14881428Y-16527571D01*
X14867143Y-16499000D01*
X14838571Y-16484714D01*
X14795714Y-16484714D01*
X14767143Y-16470429D01*
X14752857Y-16441857D01*
X14752857Y-16427571D01*
X14767143Y-16399000D01*
X14795714Y-16384714D01*
X14838571Y-16384714D01*
X14867143Y-16399000D01*
X14981428Y-16699000D02*
X14995714Y-16684714D01*
X15024286Y-16641857D01*
X15038571Y-16613286D01*
X15052857Y-16570429D01*
X15067143Y-16499000D01*
X15067143Y-16441857D01*
X15052857Y-16370429D01*
X15038571Y-16327571D01*
X15024286Y-16299000D01*
X14995714Y-16256143D01*
X14981428Y-16241857D01*
X8365000Y-16780000D02*
X8495000Y-16910000D01*
X8495000Y-16780000D02*
X8365000Y-16910000D01*
X8495000Y-16845000D02*
G75*
G03*
X8495000Y-16845000I-65000J0D01*
G01*
X8938571Y-16980714D02*
X8767143Y-16980714D01*
X8852857Y-16980714D02*
X8852857Y-16680714D01*
X8824286Y-16723571D01*
X8795714Y-16752143D01*
X8767143Y-16766429D01*
X9067143Y-16952143D02*
X9081428Y-16966429D01*
X9067143Y-16980714D01*
X9052857Y-16966429D01*
X9067143Y-16952143D01*
X9067143Y-16980714D01*
X9181428Y-16680714D02*
X9367143Y-16680714D01*
X9267143Y-16795000D01*
X9310000Y-16795000D01*
X9338571Y-16809286D01*
X9352857Y-16823572D01*
X9367143Y-16852143D01*
X9367143Y-16923572D01*
X9352857Y-16952143D01*
X9338571Y-16966429D01*
X9310000Y-16980714D01*
X9224286Y-16980714D01*
X9195714Y-16966429D01*
X9181428Y-16952143D01*
X9552857Y-16680714D02*
X9581428Y-16680714D01*
X9610000Y-16695000D01*
X9624286Y-16709286D01*
X9638571Y-16737857D01*
X9652857Y-16795000D01*
X9652857Y-16866429D01*
X9638571Y-16923572D01*
X9624286Y-16952143D01*
X9610000Y-16966429D01*
X9581428Y-16980714D01*
X9552857Y-16980714D01*
X9524286Y-16966429D01*
X9510000Y-16952143D01*
X9495714Y-16923572D01*
X9481428Y-16866429D01*
X9481428Y-16795000D01*
X9495714Y-16737857D01*
X9510000Y-16709286D01*
X9524286Y-16695000D01*
X9552857Y-16680714D01*
X9781428Y-16980714D02*
X9781428Y-16780714D01*
X9781428Y-16809286D02*
X9795714Y-16795000D01*
X9824286Y-16780714D01*
X9867143Y-16780714D01*
X9895714Y-16795000D01*
X9910000Y-16823572D01*
X9910000Y-16980714D01*
X9910000Y-16823572D02*
X9924286Y-16795000D01*
X9952857Y-16780714D01*
X9995714Y-16780714D01*
X10024286Y-16795000D01*
X10038571Y-16823572D01*
X10038571Y-16980714D01*
X10181428Y-16980714D02*
X10181428Y-16780714D01*
X10181428Y-16809286D02*
X10195714Y-16795000D01*
X10224286Y-16780714D01*
X10267143Y-16780714D01*
X10295714Y-16795000D01*
X10310000Y-16823572D01*
X10310000Y-16980714D01*
X10310000Y-16823572D02*
X10324286Y-16795000D01*
X10352857Y-16780714D01*
X10395714Y-16780714D01*
X10424286Y-16795000D01*
X10438571Y-16823572D01*
X10438571Y-16980714D01*
X11024286Y-16666429D02*
X10767143Y-17052143D01*
X11410000Y-16680714D02*
X11438571Y-16680714D01*
X11467143Y-16695000D01*
X11481428Y-16709286D01*
X11495714Y-16737857D01*
X11510000Y-16795000D01*
X11510000Y-16866429D01*
X11495714Y-16923572D01*
X11481428Y-16952143D01*
X11467143Y-16966429D01*
X11438571Y-16980714D01*
X11410000Y-16980714D01*
X11381428Y-16966429D01*
X11367143Y-16952143D01*
X11352857Y-16923572D01*
X11338571Y-16866429D01*
X11338571Y-16795000D01*
X11352857Y-16737857D01*
X11367143Y-16709286D01*
X11381428Y-16695000D01*
X11410000Y-16680714D01*
X11638571Y-16952143D02*
X11652857Y-16966429D01*
X11638571Y-16980714D01*
X11624286Y-16966429D01*
X11638571Y-16952143D01*
X11638571Y-16980714D01*
X11838571Y-16680714D02*
X11867143Y-16680714D01*
X11895714Y-16695000D01*
X11910000Y-16709286D01*
X11924286Y-16737857D01*
X11938571Y-16795000D01*
X11938571Y-16866429D01*
X11924286Y-16923572D01*
X11910000Y-16952143D01*
X11895714Y-16966429D01*
X11867143Y-16980714D01*
X11838571Y-16980714D01*
X11810000Y-16966429D01*
X11795714Y-16952143D01*
X11781428Y-16923572D01*
X11767143Y-16866429D01*
X11767143Y-16795000D01*
X11781428Y-16737857D01*
X11795714Y-16709286D01*
X11810000Y-16695000D01*
X11838571Y-16680714D01*
X12210000Y-16680714D02*
X12067143Y-16680714D01*
X12052857Y-16823572D01*
X12067143Y-16809286D01*
X12095714Y-16795000D01*
X12167143Y-16795000D01*
X12195714Y-16809286D01*
X12210000Y-16823572D01*
X12224286Y-16852143D01*
X12224286Y-16923572D01*
X12210000Y-16952143D01*
X12195714Y-16966429D01*
X12167143Y-16980714D01*
X12095714Y-16980714D01*
X12067143Y-16966429D01*
X12052857Y-16952143D01*
X12510000Y-16980714D02*
X12338571Y-16980714D01*
X12424286Y-16980714D02*
X12424286Y-16680714D01*
X12395714Y-16723571D01*
X12367143Y-16752143D01*
X12338571Y-16766429D01*
X12624286Y-16680714D02*
X12624286Y-16737857D01*
X12738571Y-16680714D02*
X12738571Y-16737857D01*
X13181428Y-17095000D02*
X13167143Y-17080714D01*
X13138571Y-17037857D01*
X13124286Y-17009286D01*
X13110000Y-16966429D01*
X13095714Y-16895000D01*
X13095714Y-16837857D01*
X13110000Y-16766429D01*
X13124286Y-16723571D01*
X13138571Y-16695000D01*
X13167143Y-16652143D01*
X13181428Y-16637857D01*
X13424286Y-16680714D02*
X13367143Y-16680714D01*
X13338571Y-16695000D01*
X13324286Y-16709286D01*
X13295714Y-16752143D01*
X13281428Y-16809286D01*
X13281428Y-16923572D01*
X13295714Y-16952143D01*
X13310000Y-16966429D01*
X13338571Y-16980714D01*
X13395714Y-16980714D01*
X13424286Y-16966429D01*
X13438571Y-16952143D01*
X13452857Y-16923572D01*
X13452857Y-16852143D01*
X13438571Y-16823572D01*
X13424286Y-16809286D01*
X13395714Y-16795000D01*
X13338571Y-16795000D01*
X13310000Y-16809286D01*
X13295714Y-16823572D01*
X13281428Y-16852143D01*
X13810000Y-16980714D02*
X13810000Y-16680714D01*
X13938571Y-16980714D02*
X13938571Y-16823572D01*
X13924286Y-16795000D01*
X13895714Y-16780714D01*
X13852857Y-16780714D01*
X13824286Y-16795000D01*
X13810000Y-16809286D01*
X14124286Y-16980714D02*
X14095714Y-16966429D01*
X14081428Y-16952143D01*
X14067143Y-16923572D01*
X14067143Y-16837857D01*
X14081428Y-16809286D01*
X14095714Y-16795000D01*
X14124286Y-16780714D01*
X14167143Y-16780714D01*
X14195714Y-16795000D01*
X14210000Y-16809286D01*
X14224286Y-16837857D01*
X14224286Y-16923572D01*
X14210000Y-16952143D01*
X14195714Y-16966429D01*
X14167143Y-16980714D01*
X14124286Y-16980714D01*
X14395714Y-16980714D02*
X14367143Y-16966429D01*
X14352857Y-16937857D01*
X14352857Y-16680714D01*
X14624286Y-16966429D02*
X14595714Y-16980714D01*
X14538571Y-16980714D01*
X14510000Y-16966429D01*
X14495714Y-16937857D01*
X14495714Y-16823572D01*
X14510000Y-16795000D01*
X14538571Y-16780714D01*
X14595714Y-16780714D01*
X14624286Y-16795000D01*
X14638571Y-16823572D01*
X14638571Y-16852143D01*
X14495714Y-16880714D01*
X14752857Y-16966429D02*
X14781428Y-16980714D01*
X14838571Y-16980714D01*
X14867143Y-16966429D01*
X14881428Y-16937857D01*
X14881428Y-16923572D01*
X14867143Y-16895000D01*
X14838571Y-16880714D01*
X14795714Y-16880714D01*
X14767143Y-16866429D01*
X14752857Y-16837857D01*
X14752857Y-16823572D01*
X14767143Y-16795000D01*
X14795714Y-16780714D01*
X14838571Y-16780714D01*
X14867143Y-16795000D01*
X14981428Y-17095000D02*
X14995714Y-17080714D01*
X15024286Y-17037857D01*
X15038571Y-17009286D01*
X15052857Y-16966429D01*
X15067143Y-16895000D01*
X15067143Y-16837857D01*
X15052857Y-16766429D01*
X15038571Y-16723571D01*
X15024286Y-16695000D01*
X14995714Y-16652143D01*
X14981428Y-16637857D01*
M02*
