G04 #@! TF.GenerationSoftware,KiCad,Pcbnew,(5.1.9)-1*
G04 #@! TF.CreationDate,2022-11-18T17:06:51-05:00*
G04 #@! TF.ProjectId,loader,6c6f6164-6572-42e6-9b69-6361645f7063,2.0*
G04 #@! TF.SameCoordinates,Original*
G04 #@! TF.FileFunction,Legend,Top*
G04 #@! TF.FilePolarity,Positive*
%FSLAX46Y46*%
G04 Gerber Fmt 4.6, Leading zero omitted, Abs format (unit mm)*
G04 Created by KiCad (PCBNEW (5.1.9)-1) date 2022-11-18 17:06:51*
%MOMM*%
%LPD*%
G01*
G04 APERTURE LIST*
%ADD10C,0.150000*%
%ADD11C,0.300000*%
%ADD12C,0.120000*%
%ADD13C,0.100000*%
%ADD14C,0.170000*%
%ADD15O,1.700000X1.700000*%
%ADD16R,1.700000X1.700000*%
%ADD17O,3.048000X1.850000*%
%ADD18C,2.500000*%
%ADD19R,2.500000X2.500000*%
%ADD20O,1.600000X1.600000*%
%ADD21R,1.600000X1.600000*%
%ADD22O,2.200000X2.200000*%
%ADD23R,2.200000X2.200000*%
%ADD24C,1.440000*%
%ADD25C,2.000000*%
%ADD26C,1.900000*%
%ADD27R,1.900000X1.900000*%
G04 APERTURE END LIST*
D10*
X177252380Y-89002380D02*
X177252380Y-89811904D01*
X177300000Y-89907142D01*
X177347619Y-89954761D01*
X177442857Y-90002380D01*
X177633333Y-90002380D01*
X177728571Y-89954761D01*
X177776190Y-89907142D01*
X177823809Y-89811904D01*
X177823809Y-89002380D01*
X178252380Y-89954761D02*
X178347619Y-90002380D01*
X178538095Y-90002380D01*
X178633333Y-89954761D01*
X178680952Y-89859523D01*
X178680952Y-89811904D01*
X178633333Y-89716666D01*
X178538095Y-89669047D01*
X178395238Y-89669047D01*
X178300000Y-89621428D01*
X178252380Y-89526190D01*
X178252380Y-89478571D01*
X178300000Y-89383333D01*
X178395238Y-89335714D01*
X178538095Y-89335714D01*
X178633333Y-89383333D01*
X179490476Y-89954761D02*
X179395238Y-90002380D01*
X179204761Y-90002380D01*
X179109523Y-89954761D01*
X179061904Y-89859523D01*
X179061904Y-89478571D01*
X179109523Y-89383333D01*
X179204761Y-89335714D01*
X179395238Y-89335714D01*
X179490476Y-89383333D01*
X179538095Y-89478571D01*
X179538095Y-89573809D01*
X179061904Y-89669047D01*
X180728571Y-89335714D02*
X180728571Y-90192857D01*
X180680952Y-90288095D01*
X180585714Y-90335714D01*
X180538095Y-90335714D01*
X180728571Y-89002380D02*
X180680952Y-89050000D01*
X180728571Y-89097619D01*
X180776190Y-89050000D01*
X180728571Y-89002380D01*
X180728571Y-89097619D01*
X181633333Y-89335714D02*
X181633333Y-90002380D01*
X181204761Y-89335714D02*
X181204761Y-89859523D01*
X181252380Y-89954761D01*
X181347619Y-90002380D01*
X181490476Y-90002380D01*
X181585714Y-89954761D01*
X181633333Y-89907142D01*
X182109523Y-90002380D02*
X182109523Y-89335714D01*
X182109523Y-89430952D02*
X182157142Y-89383333D01*
X182252380Y-89335714D01*
X182395238Y-89335714D01*
X182490476Y-89383333D01*
X182538095Y-89478571D01*
X182538095Y-90002380D01*
X182538095Y-89478571D02*
X182585714Y-89383333D01*
X182680952Y-89335714D01*
X182823809Y-89335714D01*
X182919047Y-89383333D01*
X182966666Y-89478571D01*
X182966666Y-90002380D01*
X183442857Y-89335714D02*
X183442857Y-90335714D01*
X183442857Y-89383333D02*
X183538095Y-89335714D01*
X183728571Y-89335714D01*
X183823809Y-89383333D01*
X183871428Y-89430952D01*
X183919047Y-89526190D01*
X183919047Y-89811904D01*
X183871428Y-89907142D01*
X183823809Y-89954761D01*
X183728571Y-90002380D01*
X183538095Y-90002380D01*
X183442857Y-89954761D01*
X184728571Y-89954761D02*
X184633333Y-90002380D01*
X184442857Y-90002380D01*
X184347619Y-89954761D01*
X184300000Y-89859523D01*
X184300000Y-89478571D01*
X184347619Y-89383333D01*
X184442857Y-89335714D01*
X184633333Y-89335714D01*
X184728571Y-89383333D01*
X184776190Y-89478571D01*
X184776190Y-89573809D01*
X184300000Y-89669047D01*
X185204761Y-90002380D02*
X185204761Y-89335714D01*
X185204761Y-89526190D02*
X185252380Y-89430952D01*
X185300000Y-89383333D01*
X185395238Y-89335714D01*
X185490476Y-89335714D01*
X177085714Y-90985714D02*
X177466666Y-90985714D01*
X177228571Y-91652380D02*
X177228571Y-90795238D01*
X177276190Y-90700000D01*
X177371428Y-90652380D01*
X177466666Y-90652380D01*
X177942857Y-91652380D02*
X177847619Y-91604761D01*
X177800000Y-91557142D01*
X177752380Y-91461904D01*
X177752380Y-91176190D01*
X177800000Y-91080952D01*
X177847619Y-91033333D01*
X177942857Y-90985714D01*
X178085714Y-90985714D01*
X178180952Y-91033333D01*
X178228571Y-91080952D01*
X178276190Y-91176190D01*
X178276190Y-91461904D01*
X178228571Y-91557142D01*
X178180952Y-91604761D01*
X178085714Y-91652380D01*
X177942857Y-91652380D01*
X178704761Y-91652380D02*
X178704761Y-90985714D01*
X178704761Y-91176190D02*
X178752380Y-91080952D01*
X178800000Y-91033333D01*
X178895238Y-90985714D01*
X178990476Y-90985714D01*
X180085714Y-91652380D02*
X180085714Y-90985714D01*
X180085714Y-90652380D02*
X180038095Y-90700000D01*
X180085714Y-90747619D01*
X180133333Y-90700000D01*
X180085714Y-90652380D01*
X180085714Y-90747619D01*
X180561904Y-90985714D02*
X180561904Y-91652380D01*
X180561904Y-91080952D02*
X180609523Y-91033333D01*
X180704761Y-90985714D01*
X180847619Y-90985714D01*
X180942857Y-91033333D01*
X180990476Y-91128571D01*
X180990476Y-91652380D01*
X181323809Y-90985714D02*
X181704761Y-90985714D01*
X181466666Y-90652380D02*
X181466666Y-91509523D01*
X181514285Y-91604761D01*
X181609523Y-91652380D01*
X181704761Y-91652380D01*
X182419047Y-91604761D02*
X182323809Y-91652380D01*
X182133333Y-91652380D01*
X182038095Y-91604761D01*
X181990476Y-91509523D01*
X181990476Y-91128571D01*
X182038095Y-91033333D01*
X182133333Y-90985714D01*
X182323809Y-90985714D01*
X182419047Y-91033333D01*
X182466666Y-91128571D01*
X182466666Y-91223809D01*
X181990476Y-91319047D01*
X182895238Y-91652380D02*
X182895238Y-90985714D01*
X182895238Y-91176190D02*
X182942857Y-91080952D01*
X182990476Y-91033333D01*
X183085714Y-90985714D01*
X183180952Y-90985714D01*
X183514285Y-90985714D02*
X183514285Y-91652380D01*
X183514285Y-91080952D02*
X183561904Y-91033333D01*
X183657142Y-90985714D01*
X183800000Y-90985714D01*
X183895238Y-91033333D01*
X183942857Y-91128571D01*
X183942857Y-91652380D01*
X184847619Y-91652380D02*
X184847619Y-91128571D01*
X184800000Y-91033333D01*
X184704761Y-90985714D01*
X184514285Y-90985714D01*
X184419047Y-91033333D01*
X184847619Y-91604761D02*
X184752380Y-91652380D01*
X184514285Y-91652380D01*
X184419047Y-91604761D01*
X184371428Y-91509523D01*
X184371428Y-91414285D01*
X184419047Y-91319047D01*
X184514285Y-91271428D01*
X184752380Y-91271428D01*
X184847619Y-91223809D01*
X185466666Y-91652380D02*
X185371428Y-91604761D01*
X185323809Y-91509523D01*
X185323809Y-90652380D01*
X179990476Y-93254761D02*
X179895238Y-93302380D01*
X179704761Y-93302380D01*
X179609523Y-93254761D01*
X179561904Y-93207142D01*
X179514285Y-93111904D01*
X179514285Y-92826190D01*
X179561904Y-92730952D01*
X179609523Y-92683333D01*
X179704761Y-92635714D01*
X179895238Y-92635714D01*
X179990476Y-92683333D01*
X180561904Y-93302380D02*
X180466666Y-93254761D01*
X180419047Y-93159523D01*
X180419047Y-92302380D01*
X181085714Y-93302380D02*
X180990476Y-93254761D01*
X180942857Y-93207142D01*
X180895238Y-93111904D01*
X180895238Y-92826190D01*
X180942857Y-92730952D01*
X180990476Y-92683333D01*
X181085714Y-92635714D01*
X181228571Y-92635714D01*
X181323809Y-92683333D01*
X181371428Y-92730952D01*
X181419047Y-92826190D01*
X181419047Y-93111904D01*
X181371428Y-93207142D01*
X181323809Y-93254761D01*
X181228571Y-93302380D01*
X181085714Y-93302380D01*
X182276190Y-93254761D02*
X182180952Y-93302380D01*
X181990476Y-93302380D01*
X181895238Y-93254761D01*
X181847619Y-93207142D01*
X181800000Y-93111904D01*
X181800000Y-92826190D01*
X181847619Y-92730952D01*
X181895238Y-92683333D01*
X181990476Y-92635714D01*
X182180952Y-92635714D01*
X182276190Y-92683333D01*
X182704761Y-93302380D02*
X182704761Y-92302380D01*
X182800000Y-92921428D02*
X183085714Y-93302380D01*
X183085714Y-92635714D02*
X182704761Y-93016666D01*
X184400000Y-86800000D02*
X184000000Y-86800000D01*
X184400000Y-84200000D02*
X184400000Y-86800000D01*
X183900000Y-84200000D02*
X184400000Y-84200000D01*
X179002500Y-63057142D02*
X178954880Y-63104761D01*
X178812023Y-63152380D01*
X178716785Y-63152380D01*
X178573928Y-63104761D01*
X178478690Y-63009523D01*
X178431071Y-62914285D01*
X178383452Y-62723809D01*
X178383452Y-62580952D01*
X178431071Y-62390476D01*
X178478690Y-62295238D01*
X178573928Y-62200000D01*
X178716785Y-62152380D01*
X178812023Y-62152380D01*
X178954880Y-62200000D01*
X179002500Y-62247619D01*
X179907261Y-63152380D02*
X179431071Y-63152380D01*
X179431071Y-62152380D01*
X180240595Y-63152380D02*
X180240595Y-62152380D01*
X180812023Y-63152380D02*
X180383452Y-62580952D01*
X180812023Y-62152380D02*
X180240595Y-62723809D01*
D11*
X119338095Y-131042857D02*
X119185714Y-131195238D01*
X118728571Y-131347619D01*
X118423809Y-131347619D01*
X117966666Y-131195238D01*
X117661904Y-130890476D01*
X117509523Y-130585714D01*
X117357142Y-129976190D01*
X117357142Y-129519047D01*
X117509523Y-128909523D01*
X117661904Y-128604761D01*
X117966666Y-128300000D01*
X118423809Y-128147619D01*
X118728571Y-128147619D01*
X119185714Y-128300000D01*
X119338095Y-128452380D01*
X121166666Y-131347619D02*
X120861904Y-131195238D01*
X120709523Y-130890476D01*
X120709523Y-128147619D01*
X122842857Y-131347619D02*
X122538095Y-131195238D01*
X122385714Y-131042857D01*
X122233333Y-130738095D01*
X122233333Y-129823809D01*
X122385714Y-129519047D01*
X122538095Y-129366666D01*
X122842857Y-129214285D01*
X123300000Y-129214285D01*
X123604761Y-129366666D01*
X123757142Y-129519047D01*
X123909523Y-129823809D01*
X123909523Y-130738095D01*
X123757142Y-131042857D01*
X123604761Y-131195238D01*
X123300000Y-131347619D01*
X122842857Y-131347619D01*
X126652380Y-131195238D02*
X126347619Y-131347619D01*
X125738095Y-131347619D01*
X125433333Y-131195238D01*
X125280952Y-131042857D01*
X125128571Y-130738095D01*
X125128571Y-129823809D01*
X125280952Y-129519047D01*
X125433333Y-129366666D01*
X125738095Y-129214285D01*
X126347619Y-129214285D01*
X126652380Y-129366666D01*
X128023809Y-131347619D02*
X128023809Y-128147619D01*
X128328571Y-130128571D02*
X129242857Y-131347619D01*
X129242857Y-129214285D02*
X128023809Y-130433333D01*
D12*
X178500000Y-56800000D02*
X180900000Y-56800000D01*
X178500000Y-59200000D02*
X180800000Y-59200000D01*
D10*
X178997738Y-58252380D02*
X178664404Y-57776190D01*
X178426309Y-58252380D02*
X178426309Y-57252380D01*
X178807261Y-57252380D01*
X178902500Y-57300000D01*
X178950119Y-57347619D01*
X178997738Y-57442857D01*
X178997738Y-57585714D01*
X178950119Y-57680952D01*
X178902500Y-57728571D01*
X178807261Y-57776190D01*
X178426309Y-57776190D01*
X179378690Y-58204761D02*
X179521547Y-58252380D01*
X179759642Y-58252380D01*
X179854880Y-58204761D01*
X179902500Y-58157142D01*
X179950119Y-58061904D01*
X179950119Y-57966666D01*
X179902500Y-57871428D01*
X179854880Y-57823809D01*
X179759642Y-57776190D01*
X179569166Y-57728571D01*
X179473928Y-57680952D01*
X179426309Y-57633333D01*
X179378690Y-57538095D01*
X179378690Y-57442857D01*
X179426309Y-57347619D01*
X179473928Y-57300000D01*
X179569166Y-57252380D01*
X179807261Y-57252380D01*
X179950119Y-57300000D01*
X180235833Y-57252380D02*
X180807261Y-57252380D01*
X180521547Y-58252380D02*
X180521547Y-57252380D01*
X179002500Y-60557142D02*
X178954880Y-60604761D01*
X178812023Y-60652380D01*
X178716785Y-60652380D01*
X178573928Y-60604761D01*
X178478690Y-60509523D01*
X178431071Y-60414285D01*
X178383452Y-60223809D01*
X178383452Y-60080952D01*
X178431071Y-59890476D01*
X178478690Y-59795238D01*
X178573928Y-59700000D01*
X178716785Y-59652380D01*
X178812023Y-59652380D01*
X178954880Y-59700000D01*
X179002500Y-59747619D01*
X179907261Y-60652380D02*
X179431071Y-60652380D01*
X179431071Y-59652380D01*
X180240595Y-60652380D02*
X180240595Y-59652380D01*
X180812023Y-60652380D02*
X180383452Y-60080952D01*
X180812023Y-59652380D02*
X180240595Y-60223809D01*
X175950119Y-65652380D02*
X175473928Y-65652380D01*
X175473928Y-64652380D01*
X176283452Y-65652380D02*
X176283452Y-64652380D01*
X176521547Y-64652380D01*
X176664404Y-64700000D01*
X176759642Y-64795238D01*
X176807261Y-64890476D01*
X176854880Y-65080952D01*
X176854880Y-65223809D01*
X176807261Y-65414285D01*
X176759642Y-65509523D01*
X176664404Y-65604761D01*
X176521547Y-65652380D01*
X176283452Y-65652380D01*
X177283452Y-65271428D02*
X178045357Y-65271428D01*
X178473928Y-65366666D02*
X178950119Y-65366666D01*
X178378690Y-65652380D02*
X178712023Y-64652380D01*
X179045357Y-65652380D01*
X179950119Y-65557142D02*
X179902500Y-65604761D01*
X179759642Y-65652380D01*
X179664404Y-65652380D01*
X179521547Y-65604761D01*
X179426309Y-65509523D01*
X179378690Y-65414285D01*
X179331071Y-65223809D01*
X179331071Y-65080952D01*
X179378690Y-64890476D01*
X179426309Y-64795238D01*
X179521547Y-64700000D01*
X179664404Y-64652380D01*
X179759642Y-64652380D01*
X179902500Y-64700000D01*
X179950119Y-64747619D01*
X180235833Y-64652380D02*
X180807261Y-64652380D01*
X180521547Y-65652380D02*
X180521547Y-64652380D01*
X89200000Y-48885714D02*
X89200000Y-49695238D01*
X89152380Y-49790476D01*
X89104761Y-49838095D01*
X89009523Y-49885714D01*
X88866666Y-49885714D01*
X88771428Y-49838095D01*
X89200000Y-49504761D02*
X89104761Y-49552380D01*
X88914285Y-49552380D01*
X88819047Y-49504761D01*
X88771428Y-49457142D01*
X88723809Y-49361904D01*
X88723809Y-49076190D01*
X88771428Y-48980952D01*
X88819047Y-48933333D01*
X88914285Y-48885714D01*
X89104761Y-48885714D01*
X89200000Y-48933333D01*
X89676190Y-49552380D02*
X89676190Y-48885714D01*
X89676190Y-48552380D02*
X89628571Y-48600000D01*
X89676190Y-48647619D01*
X89723809Y-48600000D01*
X89676190Y-48552380D01*
X89676190Y-48647619D01*
X90009523Y-48885714D02*
X90390476Y-48885714D01*
X90152380Y-48552380D02*
X90152380Y-49409523D01*
X90200000Y-49504761D01*
X90295238Y-49552380D01*
X90390476Y-49552380D01*
X90723809Y-49552380D02*
X90723809Y-48552380D01*
X91152380Y-49552380D02*
X91152380Y-49028571D01*
X91104761Y-48933333D01*
X91009523Y-48885714D01*
X90866666Y-48885714D01*
X90771428Y-48933333D01*
X90723809Y-48980952D01*
X92057142Y-48885714D02*
X92057142Y-49552380D01*
X91628571Y-48885714D02*
X91628571Y-49409523D01*
X91676190Y-49504761D01*
X91771428Y-49552380D01*
X91914285Y-49552380D01*
X92009523Y-49504761D01*
X92057142Y-49457142D01*
X92533333Y-49552380D02*
X92533333Y-48552380D01*
X92533333Y-48933333D02*
X92628571Y-48885714D01*
X92819047Y-48885714D01*
X92914285Y-48933333D01*
X92961904Y-48980952D01*
X93009523Y-49076190D01*
X93009523Y-49361904D01*
X92961904Y-49457142D01*
X92914285Y-49504761D01*
X92819047Y-49552380D01*
X92628571Y-49552380D01*
X92533333Y-49504761D01*
X93438095Y-49457142D02*
X93485714Y-49504761D01*
X93438095Y-49552380D01*
X93390476Y-49504761D01*
X93438095Y-49457142D01*
X93438095Y-49552380D01*
X94342857Y-49504761D02*
X94247619Y-49552380D01*
X94057142Y-49552380D01*
X93961904Y-49504761D01*
X93914285Y-49457142D01*
X93866666Y-49361904D01*
X93866666Y-49076190D01*
X93914285Y-48980952D01*
X93961904Y-48933333D01*
X94057142Y-48885714D01*
X94247619Y-48885714D01*
X94342857Y-48933333D01*
X94914285Y-49552380D02*
X94819047Y-49504761D01*
X94771428Y-49457142D01*
X94723809Y-49361904D01*
X94723809Y-49076190D01*
X94771428Y-48980952D01*
X94819047Y-48933333D01*
X94914285Y-48885714D01*
X95057142Y-48885714D01*
X95152380Y-48933333D01*
X95200000Y-48980952D01*
X95247619Y-49076190D01*
X95247619Y-49361904D01*
X95200000Y-49457142D01*
X95152380Y-49504761D01*
X95057142Y-49552380D01*
X94914285Y-49552380D01*
X95676190Y-49552380D02*
X95676190Y-48885714D01*
X95676190Y-48980952D02*
X95723809Y-48933333D01*
X95819047Y-48885714D01*
X95961904Y-48885714D01*
X96057142Y-48933333D01*
X96104761Y-49028571D01*
X96104761Y-49552380D01*
X96104761Y-49028571D02*
X96152380Y-48933333D01*
X96247619Y-48885714D01*
X96390476Y-48885714D01*
X96485714Y-48933333D01*
X96533333Y-49028571D01*
X96533333Y-49552380D01*
X97723809Y-48504761D02*
X96866666Y-49790476D01*
X97914285Y-48552380D02*
X98485714Y-48552380D01*
X98200000Y-49552380D02*
X98200000Y-48552380D01*
X98961904Y-49552380D02*
X98866666Y-49504761D01*
X98819047Y-49457142D01*
X98771428Y-49361904D01*
X98771428Y-49076190D01*
X98819047Y-48980952D01*
X98866666Y-48933333D01*
X98961904Y-48885714D01*
X99104761Y-48885714D01*
X99200000Y-48933333D01*
X99247619Y-48980952D01*
X99295238Y-49076190D01*
X99295238Y-49361904D01*
X99247619Y-49457142D01*
X99200000Y-49504761D01*
X99104761Y-49552380D01*
X98961904Y-49552380D01*
X99723809Y-49552380D02*
X99723809Y-48885714D01*
X99723809Y-48980952D02*
X99771428Y-48933333D01*
X99866666Y-48885714D01*
X100009523Y-48885714D01*
X100104761Y-48933333D01*
X100152380Y-49028571D01*
X100152380Y-49552380D01*
X100152380Y-49028571D02*
X100200000Y-48933333D01*
X100295238Y-48885714D01*
X100438095Y-48885714D01*
X100533333Y-48933333D01*
X100580952Y-49028571D01*
X100580952Y-49552380D01*
X101057142Y-49552380D02*
X101057142Y-48552380D01*
X101628571Y-49552380D01*
X101628571Y-48552380D01*
X102104761Y-49552380D02*
X102104761Y-48885714D01*
X102104761Y-48552380D02*
X102057142Y-48600000D01*
X102104761Y-48647619D01*
X102152380Y-48600000D01*
X102104761Y-48552380D01*
X102104761Y-48647619D01*
X102533333Y-49504761D02*
X102628571Y-49552380D01*
X102819047Y-49552380D01*
X102914285Y-49504761D01*
X102961904Y-49409523D01*
X102961904Y-49361904D01*
X102914285Y-49266666D01*
X102819047Y-49219047D01*
X102676190Y-49219047D01*
X102580952Y-49171428D01*
X102533333Y-49076190D01*
X102533333Y-49028571D01*
X102580952Y-48933333D01*
X102676190Y-48885714D01*
X102819047Y-48885714D01*
X102914285Y-48933333D01*
X103390476Y-49552380D02*
X103390476Y-48552380D01*
X103390476Y-48933333D02*
X103485714Y-48885714D01*
X103676190Y-48885714D01*
X103771428Y-48933333D01*
X103819047Y-48980952D01*
X103866666Y-49076190D01*
X103866666Y-49361904D01*
X103819047Y-49457142D01*
X103771428Y-49504761D01*
X103676190Y-49552380D01*
X103485714Y-49552380D01*
X103390476Y-49504761D01*
X104676190Y-49504761D02*
X104580952Y-49552380D01*
X104390476Y-49552380D01*
X104295238Y-49504761D01*
X104247619Y-49409523D01*
X104247619Y-49028571D01*
X104295238Y-48933333D01*
X104390476Y-48885714D01*
X104580952Y-48885714D01*
X104676190Y-48933333D01*
X104723809Y-49028571D01*
X104723809Y-49123809D01*
X104247619Y-49219047D01*
X105009523Y-48885714D02*
X105390476Y-48885714D01*
X105152380Y-48552380D02*
X105152380Y-49409523D01*
X105199999Y-49504761D01*
X105295238Y-49552380D01*
X105390476Y-49552380D01*
X106438095Y-48504761D02*
X105580952Y-49790476D01*
X106771428Y-48885714D02*
X106771428Y-49552380D01*
X106771428Y-48980952D02*
X106819047Y-48933333D01*
X106914285Y-48885714D01*
X107057142Y-48885714D01*
X107152380Y-48933333D01*
X107200000Y-49028571D01*
X107200000Y-49552380D01*
X108104761Y-48885714D02*
X108104761Y-49885714D01*
X108104761Y-49504761D02*
X108009523Y-49552380D01*
X107819047Y-49552380D01*
X107723809Y-49504761D01*
X107676190Y-49457142D01*
X107628571Y-49361904D01*
X107628571Y-49076190D01*
X107676190Y-48980952D01*
X107723809Y-48933333D01*
X107819047Y-48885714D01*
X108009523Y-48885714D01*
X108104761Y-48933333D01*
X108533333Y-49504761D02*
X108628571Y-49552380D01*
X108819047Y-49552380D01*
X108914285Y-49504761D01*
X108961904Y-49409523D01*
X108961904Y-49361904D01*
X108914285Y-49266666D01*
X108819047Y-49219047D01*
X108676190Y-49219047D01*
X108580952Y-49171428D01*
X108533333Y-49076190D01*
X108533333Y-49028571D01*
X108580952Y-48933333D01*
X108676190Y-48885714D01*
X108819047Y-48885714D01*
X108914285Y-48933333D01*
X109819047Y-49552380D02*
X109819047Y-49028571D01*
X109771428Y-48933333D01*
X109676190Y-48885714D01*
X109485714Y-48885714D01*
X109390476Y-48933333D01*
X109819047Y-49504761D02*
X109723809Y-49552380D01*
X109485714Y-49552380D01*
X109390476Y-49504761D01*
X109342857Y-49409523D01*
X109342857Y-49314285D01*
X109390476Y-49219047D01*
X109485714Y-49171428D01*
X109723809Y-49171428D01*
X109819047Y-49123809D01*
X110295238Y-48885714D02*
X110295238Y-49885714D01*
X110295238Y-48933333D02*
X110390476Y-48885714D01*
X110580952Y-48885714D01*
X110676190Y-48933333D01*
X110723809Y-48980952D01*
X110771428Y-49076190D01*
X110771428Y-49361904D01*
X110723809Y-49457142D01*
X110676190Y-49504761D01*
X110580952Y-49552380D01*
X110390476Y-49552380D01*
X110295238Y-49504761D01*
X111199999Y-49171428D02*
X111961904Y-49171428D01*
X112438095Y-48885714D02*
X112438095Y-49885714D01*
X112438095Y-48933333D02*
X112533333Y-48885714D01*
X112723809Y-48885714D01*
X112819047Y-48933333D01*
X112866666Y-48980952D01*
X112914285Y-49076190D01*
X112914285Y-49361904D01*
X112866666Y-49457142D01*
X112819047Y-49504761D01*
X112723809Y-49552380D01*
X112533333Y-49552380D01*
X112438095Y-49504761D01*
X113771428Y-49504761D02*
X113676190Y-49552380D01*
X113485714Y-49552380D01*
X113390476Y-49504761D01*
X113342857Y-49457142D01*
X113295238Y-49361904D01*
X113295238Y-49076190D01*
X113342857Y-48980952D01*
X113390476Y-48933333D01*
X113485714Y-48885714D01*
X113676190Y-48885714D01*
X113771428Y-48933333D01*
X114199999Y-49552380D02*
X114199999Y-48552380D01*
X114199999Y-48933333D02*
X114295238Y-48885714D01*
X114485714Y-48885714D01*
X114580952Y-48933333D01*
X114628571Y-48980952D01*
X114676190Y-49076190D01*
X114676190Y-49361904D01*
X114628571Y-49457142D01*
X114580952Y-49504761D01*
X114485714Y-49552380D01*
X114295238Y-49552380D01*
X114199999Y-49504761D01*
X176833333Y-48947619D02*
X176880952Y-48900000D01*
X176976190Y-48852380D01*
X177214285Y-48852380D01*
X177309523Y-48900000D01*
X177357142Y-48947619D01*
X177404761Y-49042857D01*
X177404761Y-49138095D01*
X177357142Y-49280952D01*
X176785714Y-49852380D01*
X177404761Y-49852380D01*
X178023809Y-48852380D02*
X178119047Y-48852380D01*
X178214285Y-48900000D01*
X178261904Y-48947619D01*
X178309523Y-49042857D01*
X178357142Y-49233333D01*
X178357142Y-49471428D01*
X178309523Y-49661904D01*
X178261904Y-49757142D01*
X178214285Y-49804761D01*
X178119047Y-49852380D01*
X178023809Y-49852380D01*
X177928571Y-49804761D01*
X177880952Y-49757142D01*
X177833333Y-49661904D01*
X177785714Y-49471428D01*
X177785714Y-49233333D01*
X177833333Y-49042857D01*
X177880952Y-48947619D01*
X177928571Y-48900000D01*
X178023809Y-48852380D01*
X178738095Y-48947619D02*
X178785714Y-48900000D01*
X178880952Y-48852380D01*
X179119047Y-48852380D01*
X179214285Y-48900000D01*
X179261904Y-48947619D01*
X179309523Y-49042857D01*
X179309523Y-49138095D01*
X179261904Y-49280952D01*
X178690476Y-49852380D01*
X179309523Y-49852380D01*
X180261904Y-49852380D02*
X179690476Y-49852380D01*
X179976190Y-49852380D02*
X179976190Y-48852380D01*
X179880952Y-48995238D01*
X179785714Y-49090476D01*
X179690476Y-49138095D01*
X181357142Y-49185714D02*
X181595238Y-49852380D01*
X181833333Y-49185714D01*
X182166666Y-48947619D02*
X182214285Y-48900000D01*
X182309523Y-48852380D01*
X182547619Y-48852380D01*
X182642857Y-48900000D01*
X182690476Y-48947619D01*
X182738095Y-49042857D01*
X182738095Y-49138095D01*
X182690476Y-49280952D01*
X182119047Y-49852380D01*
X182738095Y-49852380D01*
X183166666Y-49757142D02*
X183214285Y-49804761D01*
X183166666Y-49852380D01*
X183119047Y-49804761D01*
X183166666Y-49757142D01*
X183166666Y-49852380D01*
X184166666Y-49852380D02*
X183595238Y-49852380D01*
X183880952Y-49852380D02*
X183880952Y-48852380D01*
X183785714Y-48995238D01*
X183690476Y-49090476D01*
X183595238Y-49138095D01*
D11*
X142185714Y-71547619D02*
X140661904Y-71547619D01*
X140661904Y-68347619D01*
X143709523Y-71547619D02*
X143404761Y-71395238D01*
X143252380Y-71242857D01*
X143100000Y-70938095D01*
X143100000Y-70023809D01*
X143252380Y-69719047D01*
X143404761Y-69566666D01*
X143709523Y-69414285D01*
X144166666Y-69414285D01*
X144471428Y-69566666D01*
X144623809Y-69719047D01*
X144776190Y-70023809D01*
X144776190Y-70938095D01*
X144623809Y-71242857D01*
X144471428Y-71395238D01*
X144166666Y-71547619D01*
X143709523Y-71547619D01*
X147519047Y-71547619D02*
X147519047Y-69871428D01*
X147366666Y-69566666D01*
X147061904Y-69414285D01*
X146452380Y-69414285D01*
X146147619Y-69566666D01*
X147519047Y-71395238D02*
X147214285Y-71547619D01*
X146452380Y-71547619D01*
X146147619Y-71395238D01*
X145995238Y-71090476D01*
X145995238Y-70785714D01*
X146147619Y-70480952D01*
X146452380Y-70328571D01*
X147214285Y-70328571D01*
X147519047Y-70176190D01*
X150414285Y-71547619D02*
X150414285Y-68347619D01*
X150414285Y-71395238D02*
X150109523Y-71547619D01*
X149500000Y-71547619D01*
X149195238Y-71395238D01*
X149042857Y-71242857D01*
X148890476Y-70938095D01*
X148890476Y-70023809D01*
X149042857Y-69719047D01*
X149195238Y-69566666D01*
X149500000Y-69414285D01*
X150109523Y-69414285D01*
X150414285Y-69566666D01*
X153157142Y-71395238D02*
X152852380Y-71547619D01*
X152242857Y-71547619D01*
X151938095Y-71395238D01*
X151785714Y-71090476D01*
X151785714Y-69871428D01*
X151938095Y-69566666D01*
X152242857Y-69414285D01*
X152852380Y-69414285D01*
X153157142Y-69566666D01*
X153309523Y-69871428D01*
X153309523Y-70176190D01*
X151785714Y-70480952D01*
X154680952Y-71547619D02*
X154680952Y-69414285D01*
X154680952Y-70023809D02*
X154833333Y-69719047D01*
X154985714Y-69566666D01*
X155290476Y-69414285D01*
X155595238Y-69414285D01*
X158947619Y-68195238D02*
X156204761Y-72309523D01*
X160014285Y-71547619D02*
X160014285Y-68347619D01*
X160776190Y-68347619D01*
X161233333Y-68500000D01*
X161538095Y-68804761D01*
X161690476Y-69109523D01*
X161842857Y-69719047D01*
X161842857Y-70176190D01*
X161690476Y-70785714D01*
X161538095Y-71090476D01*
X161233333Y-71395238D01*
X160776190Y-71547619D01*
X160014285Y-71547619D01*
X164433333Y-71395238D02*
X164128571Y-71547619D01*
X163519047Y-71547619D01*
X163214285Y-71395238D01*
X163061904Y-71090476D01*
X163061904Y-69871428D01*
X163214285Y-69566666D01*
X163519047Y-69414285D01*
X164128571Y-69414285D01*
X164433333Y-69566666D01*
X164585714Y-69871428D01*
X164585714Y-70176190D01*
X163061904Y-70480952D01*
X165957142Y-71547619D02*
X165957142Y-68347619D01*
X165957142Y-69566666D02*
X166261904Y-69414285D01*
X166871428Y-69414285D01*
X167176190Y-69566666D01*
X167328571Y-69719047D01*
X167480952Y-70023809D01*
X167480952Y-70938095D01*
X167328571Y-71242857D01*
X167176190Y-71395238D01*
X166871428Y-71547619D01*
X166261904Y-71547619D01*
X165957142Y-71395238D01*
X170223809Y-69414285D02*
X170223809Y-71547619D01*
X168852380Y-69414285D02*
X168852380Y-71090476D01*
X169004761Y-71395238D01*
X169309523Y-71547619D01*
X169766666Y-71547619D01*
X170071428Y-71395238D01*
X170223809Y-71242857D01*
X173119047Y-69414285D02*
X173119047Y-72004761D01*
X172966666Y-72309523D01*
X172814285Y-72461904D01*
X172509523Y-72614285D01*
X172052380Y-72614285D01*
X171747619Y-72461904D01*
X173119047Y-71395238D02*
X172814285Y-71547619D01*
X172204761Y-71547619D01*
X171900000Y-71395238D01*
X171747619Y-71242857D01*
X171595238Y-70938095D01*
X171595238Y-70023809D01*
X171747619Y-69719047D01*
X171900000Y-69566666D01*
X172204761Y-69414285D01*
X172814285Y-69414285D01*
X173119047Y-69566666D01*
X176014285Y-69414285D02*
X176014285Y-72004761D01*
X175861904Y-72309523D01*
X175709523Y-72461904D01*
X175404761Y-72614285D01*
X174947619Y-72614285D01*
X174642857Y-72461904D01*
X176014285Y-71395238D02*
X175709523Y-71547619D01*
X175100000Y-71547619D01*
X174795238Y-71395238D01*
X174642857Y-71242857D01*
X174490476Y-70938095D01*
X174490476Y-70023809D01*
X174642857Y-69719047D01*
X174795238Y-69566666D01*
X175100000Y-69414285D01*
X175709523Y-69414285D01*
X176014285Y-69566666D01*
X178757142Y-71395238D02*
X178452380Y-71547619D01*
X177842857Y-71547619D01*
X177538095Y-71395238D01*
X177385714Y-71090476D01*
X177385714Y-69871428D01*
X177538095Y-69566666D01*
X177842857Y-69414285D01*
X178452380Y-69414285D01*
X178757142Y-69566666D01*
X178909523Y-69871428D01*
X178909523Y-70176190D01*
X177385714Y-70480952D01*
X180280952Y-71547619D02*
X180280952Y-69414285D01*
X180280952Y-70023809D02*
X180433333Y-69719047D01*
X180585714Y-69566666D01*
X180890476Y-69414285D01*
X181195238Y-69414285D01*
D12*
X183030000Y-88030000D02*
X181700000Y-88030000D01*
X183030000Y-86700000D02*
X183030000Y-88030000D01*
X183030000Y-85430000D02*
X180370000Y-85430000D01*
X180370000Y-85430000D02*
X180370000Y-80290000D01*
X183030000Y-85430000D02*
X183030000Y-80290000D01*
X183030000Y-80290000D02*
X180370000Y-80290000D01*
X104300000Y-112050000D02*
X104300000Y-114770000D01*
X104300000Y-121630000D02*
X104300000Y-124350000D01*
X92000000Y-119770000D02*
X92000000Y-116630000D01*
X92000000Y-124350000D02*
X92000000Y-121630000D01*
X102829050Y-118240000D02*
G75*
G03*
X102829050Y-118240000I-4579050J0D01*
G01*
X92000000Y-114770000D02*
X92000000Y-112050000D01*
X104300000Y-124350000D02*
X92000000Y-124350000D01*
X104300000Y-116630000D02*
X104300000Y-119770000D01*
X92000000Y-112050000D02*
X104300000Y-112050000D01*
X96800000Y-65000000D02*
X96800000Y-64400000D01*
X95960000Y-65000000D02*
X96800000Y-65000000D01*
X93976000Y-58380000D02*
X94069000Y-58474000D01*
X91725000Y-56130000D02*
X91784000Y-56189000D01*
X94216000Y-58210000D02*
X94274000Y-58269000D01*
X91931000Y-55925000D02*
X92024000Y-56019000D01*
X88840000Y-54640000D02*
X96561000Y-54640000D01*
X88840000Y-64760000D02*
X96561000Y-64760000D01*
X96561000Y-64760000D02*
X96561000Y-54640000D01*
X88840000Y-64760000D02*
X88840000Y-54640000D01*
X90600000Y-64760000D02*
X90600000Y-54640000D01*
X95300000Y-64760000D02*
X95300000Y-54640000D01*
X95900000Y-64760000D02*
X95900000Y-54640000D01*
X90550000Y-57200000D02*
G75*
G03*
X90550000Y-57200000I-550000J0D01*
G01*
X94680000Y-57200000D02*
G75*
G03*
X94680000Y-57200000I-1680000J0D01*
G01*
X90550000Y-62200000D02*
G75*
G03*
X90550000Y-62200000I-550000J0D01*
G01*
X94680450Y-62170617D02*
G75*
G02*
X94484000Y-62989000I-1680450J-29383D01*
G01*
X93789088Y-63683953D02*
G75*
G02*
X92211000Y-63684000I-789088J1483953D01*
G01*
X91516047Y-62989088D02*
G75*
G02*
X91516000Y-61411000I1483953J789088D01*
G01*
X92210912Y-60716047D02*
G75*
G02*
X93789000Y-60716000I789088J-1483953D01*
G01*
X94483352Y-61411288D02*
G75*
G02*
X94680000Y-62200000I-1483352J-788712D01*
G01*
X132930000Y-72070000D02*
X135470000Y-72070000D01*
X135470000Y-72070000D02*
X135470000Y-69400000D01*
X132930000Y-69400000D02*
X94700000Y-69400000D01*
X138140000Y-69400000D02*
X135470000Y-69400000D01*
X135470000Y-84770000D02*
X135470000Y-87440000D01*
X135470000Y-84770000D02*
X97370000Y-84770000D01*
X97370000Y-84770000D02*
X97370000Y-87440000D01*
X132930000Y-72070000D02*
X132930000Y-69400000D01*
X132930000Y-72070000D02*
X97370000Y-72070000D01*
X97370000Y-72070000D02*
X97370000Y-69400000D01*
X94700000Y-69400000D02*
X94700000Y-87440000D01*
X94700000Y-87440000D02*
X138140000Y-87440000D01*
X138140000Y-87440000D02*
X138140000Y-69400000D01*
X128960000Y-91130000D02*
X128960000Y-94070000D01*
X128960000Y-94070000D02*
X134400000Y-94070000D01*
X134400000Y-94070000D02*
X134400000Y-91130000D01*
X134400000Y-91130000D02*
X128960000Y-91130000D01*
X127940000Y-92600000D02*
X128960000Y-92600000D01*
X135420000Y-92600000D02*
X134400000Y-92600000D01*
X129860000Y-91130000D02*
X129860000Y-94070000D01*
X129980000Y-91130000D02*
X129980000Y-94070000D01*
X129740000Y-91130000D02*
X129740000Y-94070000D01*
X114640000Y-108260000D02*
X117500000Y-108260000D01*
X114640000Y-106340000D02*
X114640000Y-108260000D01*
X117500000Y-106340000D02*
X114640000Y-106340000D01*
X106727064Y-101465000D02*
X106272936Y-101465000D01*
X106727064Y-102935000D02*
X106272936Y-102935000D01*
X158340000Y-56400000D02*
X158340000Y-58350000D01*
X158340000Y-56400000D02*
X158340000Y-54450000D01*
X168460000Y-56400000D02*
X168460000Y-58350000D01*
X168460000Y-56400000D02*
X168460000Y-52950000D01*
X139940000Y-56400000D02*
X139940000Y-58350000D01*
X139940000Y-56400000D02*
X139940000Y-54450000D01*
X150060000Y-56400000D02*
X150060000Y-58350000D01*
X150060000Y-56400000D02*
X150060000Y-52950000D01*
X121540000Y-56300000D02*
X121540000Y-58250000D01*
X121540000Y-56300000D02*
X121540000Y-54350000D01*
X131660000Y-56300000D02*
X131660000Y-58250000D01*
X131660000Y-56300000D02*
X131660000Y-52850000D01*
X134927064Y-102265000D02*
X134472936Y-102265000D01*
X134927064Y-103735000D02*
X134472936Y-103735000D01*
X116727064Y-101165000D02*
X116272936Y-101165000D01*
X116727064Y-102635000D02*
X116272936Y-102635000D01*
X132840000Y-108260000D02*
X135700000Y-108260000D01*
X132840000Y-106340000D02*
X132840000Y-108260000D01*
X135700000Y-106340000D02*
X132840000Y-106340000D01*
X120325000Y-123240000D02*
X110555000Y-123240000D01*
X120325000Y-113470000D02*
X110555000Y-113470000D01*
X110555000Y-113470000D02*
X110555000Y-123240000D01*
X120325000Y-113470000D02*
X120325000Y-123240000D01*
X101900000Y-101200000D02*
X101900000Y-96700000D01*
X97900000Y-102450000D02*
X99400000Y-102450000D01*
X95400000Y-96700000D02*
X95400000Y-101200000D01*
X99400000Y-95450000D02*
X97900000Y-95450000D01*
X144327064Y-104965000D02*
X143872936Y-104965000D01*
X144327064Y-106435000D02*
X143872936Y-106435000D01*
D13*
X136800000Y-124000000D02*
X136800000Y-123500000D01*
X136800000Y-124000000D02*
X136300000Y-124000000D01*
X136800000Y-112100000D02*
X136300000Y-112100000D01*
X136800000Y-112100000D02*
X136800000Y-112600000D01*
X132600000Y-112100000D02*
X133100000Y-112100000D01*
X132600000Y-112100000D02*
X132600000Y-112600000D01*
X132600000Y-124000000D02*
X133100000Y-124000000D01*
X132600000Y-124000000D02*
X132600000Y-123500000D01*
D12*
X180560000Y-108970000D02*
X178910000Y-108970000D01*
X180560000Y-126870000D02*
X180560000Y-108970000D01*
X175260000Y-126870000D02*
X180560000Y-126870000D01*
X175260000Y-108970000D02*
X175260000Y-126870000D01*
X176910000Y-108970000D02*
X175260000Y-108970000D01*
X178910000Y-108970000D02*
G75*
G02*
X176910000Y-108970000I-1000000J0D01*
G01*
X157260000Y-108970000D02*
X155610000Y-108970000D01*
X157260000Y-126870000D02*
X157260000Y-108970000D01*
X151960000Y-126870000D02*
X157260000Y-126870000D01*
X151960000Y-108970000D02*
X151960000Y-126870000D01*
X153610000Y-108970000D02*
X151960000Y-108970000D01*
X155610000Y-108970000D02*
G75*
G02*
X153610000Y-108970000I-1000000J0D01*
G01*
X156260000Y-80070000D02*
X154610000Y-80070000D01*
X156260000Y-97970000D02*
X156260000Y-80070000D01*
X150960000Y-97970000D02*
X156260000Y-97970000D01*
X150960000Y-80070000D02*
X150960000Y-97970000D01*
X152610000Y-80070000D02*
X150960000Y-80070000D01*
X154610000Y-80070000D02*
G75*
G02*
X152610000Y-80070000I-1000000J0D01*
G01*
X169760000Y-80070000D02*
X168110000Y-80070000D01*
X169760000Y-97970000D02*
X169760000Y-80070000D01*
X164460000Y-97970000D02*
X169760000Y-97970000D01*
X164460000Y-80070000D02*
X164460000Y-97970000D01*
X166110000Y-80070000D02*
X164460000Y-80070000D01*
X168110000Y-80070000D02*
G75*
G02*
X166110000Y-80070000I-1000000J0D01*
G01*
X126827064Y-119965000D02*
X126372936Y-119965000D01*
X126827064Y-121435000D02*
X126372936Y-121435000D01*
X126372936Y-116435000D02*
X126827064Y-116435000D01*
X126372936Y-114965000D02*
X126827064Y-114965000D01*
X164927064Y-106965000D02*
X164472936Y-106965000D01*
X164927064Y-108435000D02*
X164472936Y-108435000D01*
X164927064Y-124765000D02*
X164472936Y-124765000D01*
X164927064Y-126235000D02*
X164472936Y-126235000D01*
X143872936Y-111035000D02*
X144327064Y-111035000D01*
X143872936Y-109565000D02*
X144327064Y-109565000D01*
X164538748Y-113535000D02*
X165061252Y-113535000D01*
X164538748Y-112065000D02*
X165061252Y-112065000D01*
X164438748Y-118635000D02*
X164961252Y-118635000D01*
X164438748Y-117165000D02*
X164961252Y-117165000D01*
X144361252Y-122265000D02*
X143838748Y-122265000D01*
X144361252Y-123735000D02*
X143838748Y-123735000D01*
X144361252Y-114665000D02*
X143838748Y-114665000D01*
X144361252Y-116135000D02*
X143838748Y-116135000D01*
X180838748Y-107635000D02*
X181361252Y-107635000D01*
X180838748Y-106165000D02*
X181361252Y-106165000D01*
X157538748Y-107635000D02*
X158061252Y-107635000D01*
X157538748Y-106165000D02*
X158061252Y-106165000D01*
X156138748Y-78335000D02*
X156661252Y-78335000D01*
X156138748Y-76865000D02*
X156661252Y-76865000D01*
X171735000Y-57538748D02*
X171735000Y-58061252D01*
X170265000Y-57538748D02*
X170265000Y-58061252D01*
X169638748Y-78335000D02*
X170161252Y-78335000D01*
X169638748Y-76865000D02*
X170161252Y-76865000D01*
X104872936Y-63265000D02*
X105327064Y-63265000D01*
X104872936Y-64735000D02*
X105327064Y-64735000D01*
X104075000Y-61460000D02*
X106935000Y-61460000D01*
X106935000Y-61460000D02*
X106935000Y-59540000D01*
X106935000Y-59540000D02*
X104075000Y-59540000D01*
X153335000Y-57538748D02*
X153335000Y-58061252D01*
X151865000Y-57538748D02*
X151865000Y-58061252D01*
X135135000Y-57438748D02*
X135135000Y-57961252D01*
X133665000Y-57438748D02*
X133665000Y-57961252D01*
D10*
X181366666Y-77152380D02*
X181366666Y-77866666D01*
X181319047Y-78009523D01*
X181223809Y-78104761D01*
X181080952Y-78152380D01*
X180985714Y-78152380D01*
X182271428Y-77485714D02*
X182271428Y-78152380D01*
X182033333Y-77104761D02*
X181795238Y-77819047D01*
X182414285Y-77819047D01*
X178414285Y-79457142D02*
X178366666Y-79504761D01*
X178223809Y-79552380D01*
X178128571Y-79552380D01*
X177985714Y-79504761D01*
X177890476Y-79409523D01*
X177842857Y-79314285D01*
X177795238Y-79123809D01*
X177795238Y-78980952D01*
X177842857Y-78790476D01*
X177890476Y-78695238D01*
X177985714Y-78600000D01*
X178128571Y-78552380D01*
X178223809Y-78552380D01*
X178366666Y-78600000D01*
X178414285Y-78647619D01*
X179319047Y-79552380D02*
X178842857Y-79552380D01*
X178842857Y-78552380D01*
X179652380Y-79552380D02*
X179652380Y-78552380D01*
X180223809Y-79552380D02*
X179795238Y-78980952D01*
X180223809Y-78552380D02*
X179652380Y-79123809D01*
X181366666Y-79504761D02*
X181509523Y-79552380D01*
X181747619Y-79552380D01*
X181842857Y-79504761D01*
X181890476Y-79457142D01*
X181938095Y-79361904D01*
X181938095Y-79266666D01*
X181890476Y-79171428D01*
X181842857Y-79123809D01*
X181747619Y-79076190D01*
X181557142Y-79028571D01*
X181461904Y-78980952D01*
X181414285Y-78933333D01*
X181366666Y-78838095D01*
X181366666Y-78742857D01*
X181414285Y-78647619D01*
X181461904Y-78600000D01*
X181557142Y-78552380D01*
X181795238Y-78552380D01*
X181938095Y-78600000D01*
X182747619Y-79504761D02*
X182652380Y-79552380D01*
X182461904Y-79552380D01*
X182366666Y-79504761D01*
X182319047Y-79409523D01*
X182319047Y-79028571D01*
X182366666Y-78933333D01*
X182461904Y-78885714D01*
X182652380Y-78885714D01*
X182747619Y-78933333D01*
X182795238Y-79028571D01*
X182795238Y-79123809D01*
X182319047Y-79219047D01*
X183366666Y-79552380D02*
X183271428Y-79504761D01*
X183223809Y-79409523D01*
X183223809Y-78552380D01*
X184128571Y-79504761D02*
X184033333Y-79552380D01*
X183842857Y-79552380D01*
X183747619Y-79504761D01*
X183700000Y-79409523D01*
X183700000Y-79028571D01*
X183747619Y-78933333D01*
X183842857Y-78885714D01*
X184033333Y-78885714D01*
X184128571Y-78933333D01*
X184176190Y-79028571D01*
X184176190Y-79123809D01*
X183700000Y-79219047D01*
X185033333Y-79504761D02*
X184938095Y-79552380D01*
X184747619Y-79552380D01*
X184652380Y-79504761D01*
X184604761Y-79457142D01*
X184557142Y-79361904D01*
X184557142Y-79076190D01*
X184604761Y-78980952D01*
X184652380Y-78933333D01*
X184747619Y-78885714D01*
X184938095Y-78885714D01*
X185033333Y-78933333D01*
X185319047Y-78885714D02*
X185700000Y-78885714D01*
X185461904Y-78552380D02*
X185461904Y-79409523D01*
X185509523Y-79504761D01*
X185604761Y-79552380D01*
X185700000Y-79552380D01*
X177638095Y-81100000D02*
X177542857Y-81052380D01*
X177400000Y-81052380D01*
X177257142Y-81100000D01*
X177161904Y-81195238D01*
X177114285Y-81290476D01*
X177066666Y-81480952D01*
X177066666Y-81623809D01*
X177114285Y-81814285D01*
X177161904Y-81909523D01*
X177257142Y-82004761D01*
X177400000Y-82052380D01*
X177495238Y-82052380D01*
X177638095Y-82004761D01*
X177685714Y-81957142D01*
X177685714Y-81623809D01*
X177495238Y-81623809D01*
X178114285Y-82052380D02*
X178114285Y-81052380D01*
X178685714Y-82052380D01*
X178685714Y-81052380D01*
X179161904Y-82052380D02*
X179161904Y-81052380D01*
X179400000Y-81052380D01*
X179542857Y-81100000D01*
X179638095Y-81195238D01*
X179685714Y-81290476D01*
X179733333Y-81480952D01*
X179733333Y-81623809D01*
X179685714Y-81814285D01*
X179638095Y-81909523D01*
X179542857Y-82004761D01*
X179400000Y-82052380D01*
X179161904Y-82052380D01*
X175833333Y-84557142D02*
X175785714Y-84604761D01*
X175642857Y-84652380D01*
X175547619Y-84652380D01*
X175404761Y-84604761D01*
X175309523Y-84509523D01*
X175261904Y-84414285D01*
X175214285Y-84223809D01*
X175214285Y-84080952D01*
X175261904Y-83890476D01*
X175309523Y-83795238D01*
X175404761Y-83700000D01*
X175547619Y-83652380D01*
X175642857Y-83652380D01*
X175785714Y-83700000D01*
X175833333Y-83747619D01*
X176738095Y-84652380D02*
X176261904Y-84652380D01*
X176261904Y-83652380D01*
X177071428Y-84652380D02*
X177071428Y-83652380D01*
X177642857Y-84652380D02*
X177214285Y-84080952D01*
X177642857Y-83652380D02*
X177071428Y-84223809D01*
X178833333Y-84652380D02*
X178833333Y-83652380D01*
X179309523Y-83985714D02*
X179309523Y-84652380D01*
X179309523Y-84080952D02*
X179357142Y-84033333D01*
X179452380Y-83985714D01*
X179595238Y-83985714D01*
X179690476Y-84033333D01*
X179738095Y-84128571D01*
X179738095Y-84652380D01*
X174357142Y-87152380D02*
X174357142Y-86152380D01*
X174833333Y-86485714D02*
X174833333Y-87152380D01*
X174833333Y-86580952D02*
X174880952Y-86533333D01*
X174976190Y-86485714D01*
X175119047Y-86485714D01*
X175214285Y-86533333D01*
X175261904Y-86628571D01*
X175261904Y-87152380D01*
X175595238Y-86485714D02*
X175976190Y-86485714D01*
X175738095Y-86152380D02*
X175738095Y-87009523D01*
X175785714Y-87104761D01*
X175880952Y-87152380D01*
X175976190Y-87152380D01*
X176690476Y-87104761D02*
X176595238Y-87152380D01*
X176404761Y-87152380D01*
X176309523Y-87104761D01*
X176261904Y-87009523D01*
X176261904Y-86628571D01*
X176309523Y-86533333D01*
X176404761Y-86485714D01*
X176595238Y-86485714D01*
X176690476Y-86533333D01*
X176738095Y-86628571D01*
X176738095Y-86723809D01*
X176261904Y-86819047D01*
X177166666Y-87152380D02*
X177166666Y-86485714D01*
X177166666Y-86676190D02*
X177214285Y-86580952D01*
X177261904Y-86533333D01*
X177357142Y-86485714D01*
X177452380Y-86485714D01*
X177785714Y-86485714D02*
X177785714Y-87152380D01*
X177785714Y-86580952D02*
X177833333Y-86533333D01*
X177928571Y-86485714D01*
X178071428Y-86485714D01*
X178166666Y-86533333D01*
X178214285Y-86628571D01*
X178214285Y-87152380D01*
X179119047Y-87152380D02*
X179119047Y-86628571D01*
X179071428Y-86533333D01*
X178976190Y-86485714D01*
X178785714Y-86485714D01*
X178690476Y-86533333D01*
X179119047Y-87104761D02*
X179023809Y-87152380D01*
X178785714Y-87152380D01*
X178690476Y-87104761D01*
X178642857Y-87009523D01*
X178642857Y-86914285D01*
X178690476Y-86819047D01*
X178785714Y-86771428D01*
X179023809Y-86771428D01*
X179119047Y-86723809D01*
X179738095Y-87152380D02*
X179642857Y-87104761D01*
X179595238Y-87009523D01*
X179595238Y-86152380D01*
X96646666Y-111444761D02*
X96789523Y-111492380D01*
X97027619Y-111492380D01*
X97122857Y-111444761D01*
X97170476Y-111397142D01*
X97218095Y-111301904D01*
X97218095Y-111206666D01*
X97170476Y-111111428D01*
X97122857Y-111063809D01*
X97027619Y-111016190D01*
X96837142Y-110968571D01*
X96741904Y-110920952D01*
X96694285Y-110873333D01*
X96646666Y-110778095D01*
X96646666Y-110682857D01*
X96694285Y-110587619D01*
X96741904Y-110540000D01*
X96837142Y-110492380D01*
X97075238Y-110492380D01*
X97218095Y-110540000D01*
X97551428Y-110492380D02*
X97789523Y-111492380D01*
X97980000Y-110778095D01*
X98170476Y-111492380D01*
X98408571Y-110492380D01*
X98741904Y-110587619D02*
X98789523Y-110540000D01*
X98884761Y-110492380D01*
X99122857Y-110492380D01*
X99218095Y-110540000D01*
X99265714Y-110587619D01*
X99313333Y-110682857D01*
X99313333Y-110778095D01*
X99265714Y-110920952D01*
X98694285Y-111492380D01*
X99313333Y-111492380D01*
D14*
X95321428Y-126578571D02*
X95321428Y-125078571D01*
X95892857Y-125078571D01*
X96035714Y-125150000D01*
X96107142Y-125221428D01*
X96178571Y-125364285D01*
X96178571Y-125578571D01*
X96107142Y-125721428D01*
X96035714Y-125792857D01*
X95892857Y-125864285D01*
X95321428Y-125864285D01*
X96821428Y-125078571D02*
X96821428Y-126292857D01*
X96892857Y-126435714D01*
X96964285Y-126507142D01*
X97107142Y-126578571D01*
X97392857Y-126578571D01*
X97535714Y-126507142D01*
X97607142Y-126435714D01*
X97678571Y-126292857D01*
X97678571Y-125078571D01*
X99107142Y-126578571D02*
X98392857Y-126578571D01*
X98392857Y-125078571D01*
X99535714Y-126507142D02*
X99750000Y-126578571D01*
X100107142Y-126578571D01*
X100250000Y-126507142D01*
X100321428Y-126435714D01*
X100392857Y-126292857D01*
X100392857Y-126150000D01*
X100321428Y-126007142D01*
X100250000Y-125935714D01*
X100107142Y-125864285D01*
X99821428Y-125792857D01*
X99678571Y-125721428D01*
X99607142Y-125650000D01*
X99535714Y-125507142D01*
X99535714Y-125364285D01*
X99607142Y-125221428D01*
X99678571Y-125150000D01*
X99821428Y-125078571D01*
X100178571Y-125078571D01*
X100392857Y-125150000D01*
X101035714Y-125792857D02*
X101535714Y-125792857D01*
X101750000Y-126578571D02*
X101035714Y-126578571D01*
X101035714Y-125078571D01*
X101750000Y-125078571D01*
D10*
X92666666Y-65352380D02*
X92666666Y-66066666D01*
X92619047Y-66209523D01*
X92523809Y-66304761D01*
X92380952Y-66352380D01*
X92285714Y-66352380D01*
X93047619Y-65352380D02*
X93666666Y-65352380D01*
X93333333Y-65733333D01*
X93476190Y-65733333D01*
X93571428Y-65780952D01*
X93619047Y-65828571D01*
X93666666Y-65923809D01*
X93666666Y-66161904D01*
X93619047Y-66257142D01*
X93571428Y-66304761D01*
X93476190Y-66352380D01*
X93190476Y-66352380D01*
X93095238Y-66304761D01*
X93047619Y-66257142D01*
D14*
X87421428Y-53878571D02*
X87421428Y-52378571D01*
X87992857Y-52378571D01*
X88135714Y-52450000D01*
X88207142Y-52521428D01*
X88278571Y-52664285D01*
X88278571Y-52878571D01*
X88207142Y-53021428D01*
X88135714Y-53092857D01*
X87992857Y-53164285D01*
X87421428Y-53164285D01*
X89207142Y-52378571D02*
X89492857Y-52378571D01*
X89635714Y-52450000D01*
X89778571Y-52592857D01*
X89850000Y-52878571D01*
X89850000Y-53378571D01*
X89778571Y-53664285D01*
X89635714Y-53807142D01*
X89492857Y-53878571D01*
X89207142Y-53878571D01*
X89064285Y-53807142D01*
X88921428Y-53664285D01*
X88850000Y-53378571D01*
X88850000Y-52878571D01*
X88921428Y-52592857D01*
X89064285Y-52450000D01*
X89207142Y-52378571D01*
X90350000Y-52378571D02*
X90707142Y-53878571D01*
X90992857Y-52807142D01*
X91278571Y-53878571D01*
X91635714Y-52378571D01*
X92207142Y-53092857D02*
X92707142Y-53092857D01*
X92921428Y-53878571D02*
X92207142Y-53878571D01*
X92207142Y-52378571D01*
X92921428Y-52378571D01*
X94421428Y-53878571D02*
X93921428Y-53164285D01*
X93564285Y-53878571D02*
X93564285Y-52378571D01*
X94135714Y-52378571D01*
X94278571Y-52450000D01*
X94350000Y-52521428D01*
X94421428Y-52664285D01*
X94421428Y-52878571D01*
X94350000Y-53021428D01*
X94278571Y-53092857D01*
X94135714Y-53164285D01*
X93564285Y-53164285D01*
X96207142Y-53878571D02*
X96207142Y-52378571D01*
X96921428Y-53878571D02*
X96921428Y-52378571D01*
X97778571Y-53878571D01*
X97778571Y-52378571D01*
D10*
X85614285Y-57271428D02*
X86376190Y-57271428D01*
X85995238Y-57652380D02*
X85995238Y-56890476D01*
X87328571Y-56652380D02*
X86852380Y-56652380D01*
X86804761Y-57128571D01*
X86852380Y-57080952D01*
X86947619Y-57033333D01*
X87185714Y-57033333D01*
X87280952Y-57080952D01*
X87328571Y-57128571D01*
X87376190Y-57223809D01*
X87376190Y-57461904D01*
X87328571Y-57557142D01*
X87280952Y-57604761D01*
X87185714Y-57652380D01*
X86947619Y-57652380D01*
X86852380Y-57604761D01*
X86804761Y-57557142D01*
X87661904Y-56652380D02*
X87995238Y-57652380D01*
X88328571Y-56652380D01*
X86238095Y-61700000D02*
X86142857Y-61652380D01*
X86000000Y-61652380D01*
X85857142Y-61700000D01*
X85761904Y-61795238D01*
X85714285Y-61890476D01*
X85666666Y-62080952D01*
X85666666Y-62223809D01*
X85714285Y-62414285D01*
X85761904Y-62509523D01*
X85857142Y-62604761D01*
X86000000Y-62652380D01*
X86095238Y-62652380D01*
X86238095Y-62604761D01*
X86285714Y-62557142D01*
X86285714Y-62223809D01*
X86095238Y-62223809D01*
X86714285Y-62652380D02*
X86714285Y-61652380D01*
X87285714Y-62652380D01*
X87285714Y-61652380D01*
X87761904Y-62652380D02*
X87761904Y-61652380D01*
X88000000Y-61652380D01*
X88142857Y-61700000D01*
X88238095Y-61795238D01*
X88285714Y-61890476D01*
X88333333Y-62080952D01*
X88333333Y-62223809D01*
X88285714Y-62414285D01*
X88238095Y-62509523D01*
X88142857Y-62604761D01*
X88000000Y-62652380D01*
X87761904Y-62652380D01*
X139446666Y-79134285D02*
X139446666Y-78658095D01*
X139732380Y-79229523D02*
X138732380Y-78896190D01*
X139732380Y-78562857D01*
X139732380Y-77705714D02*
X139732380Y-78277142D01*
X139732380Y-77991428D02*
X138732380Y-77991428D01*
X138875238Y-78086666D01*
X138970476Y-78181904D01*
X139018095Y-78277142D01*
X108042857Y-89266666D02*
X108519047Y-89266666D01*
X107947619Y-89552380D02*
X108280952Y-88552380D01*
X108614285Y-89552380D01*
X108947619Y-89552380D02*
X108947619Y-88885714D01*
X108947619Y-89076190D02*
X108995238Y-88980952D01*
X109042857Y-88933333D01*
X109138095Y-88885714D01*
X109233333Y-88885714D01*
X109995238Y-89552380D02*
X109995238Y-88552380D01*
X109995238Y-89504761D02*
X109900000Y-89552380D01*
X109709523Y-89552380D01*
X109614285Y-89504761D01*
X109566666Y-89457142D01*
X109519047Y-89361904D01*
X109519047Y-89076190D01*
X109566666Y-88980952D01*
X109614285Y-88933333D01*
X109709523Y-88885714D01*
X109900000Y-88885714D01*
X109995238Y-88933333D01*
X110900000Y-88885714D02*
X110900000Y-89552380D01*
X110471428Y-88885714D02*
X110471428Y-89409523D01*
X110519047Y-89504761D01*
X110614285Y-89552380D01*
X110757142Y-89552380D01*
X110852380Y-89504761D01*
X110900000Y-89457142D01*
X111376190Y-89552380D02*
X111376190Y-88885714D01*
X111376190Y-88552380D02*
X111328571Y-88600000D01*
X111376190Y-88647619D01*
X111423809Y-88600000D01*
X111376190Y-88552380D01*
X111376190Y-88647619D01*
X111852380Y-88885714D02*
X111852380Y-89552380D01*
X111852380Y-88980952D02*
X111900000Y-88933333D01*
X111995238Y-88885714D01*
X112138095Y-88885714D01*
X112233333Y-88933333D01*
X112280952Y-89028571D01*
X112280952Y-89552380D01*
X112900000Y-89552380D02*
X112804761Y-89504761D01*
X112757142Y-89457142D01*
X112709523Y-89361904D01*
X112709523Y-89076190D01*
X112757142Y-88980952D01*
X112804761Y-88933333D01*
X112900000Y-88885714D01*
X113042857Y-88885714D01*
X113138095Y-88933333D01*
X113185714Y-88980952D01*
X113233333Y-89076190D01*
X113233333Y-89361904D01*
X113185714Y-89457142D01*
X113138095Y-89504761D01*
X113042857Y-89552380D01*
X112900000Y-89552380D01*
X114423809Y-89552380D02*
X114423809Y-88552380D01*
X114995238Y-89552380D01*
X114995238Y-88552380D01*
X115900000Y-89552380D02*
X115900000Y-89028571D01*
X115852380Y-88933333D01*
X115757142Y-88885714D01*
X115566666Y-88885714D01*
X115471428Y-88933333D01*
X115900000Y-89504761D02*
X115804761Y-89552380D01*
X115566666Y-89552380D01*
X115471428Y-89504761D01*
X115423809Y-89409523D01*
X115423809Y-89314285D01*
X115471428Y-89219047D01*
X115566666Y-89171428D01*
X115804761Y-89171428D01*
X115900000Y-89123809D01*
X116376190Y-88885714D02*
X116376190Y-89552380D01*
X116376190Y-88980952D02*
X116423809Y-88933333D01*
X116519047Y-88885714D01*
X116661904Y-88885714D01*
X116757142Y-88933333D01*
X116804761Y-89028571D01*
X116804761Y-89552380D01*
X117423809Y-89552380D02*
X117328571Y-89504761D01*
X117280952Y-89457142D01*
X117233333Y-89361904D01*
X117233333Y-89076190D01*
X117280952Y-88980952D01*
X117328571Y-88933333D01*
X117423809Y-88885714D01*
X117566666Y-88885714D01*
X117661904Y-88933333D01*
X117709523Y-88980952D01*
X117757142Y-89076190D01*
X117757142Y-89361904D01*
X117709523Y-89457142D01*
X117661904Y-89504761D01*
X117566666Y-89552380D01*
X117423809Y-89552380D01*
X130941904Y-90582380D02*
X130941904Y-89582380D01*
X131180000Y-89582380D01*
X131322857Y-89630000D01*
X131418095Y-89725238D01*
X131465714Y-89820476D01*
X131513333Y-90010952D01*
X131513333Y-90153809D01*
X131465714Y-90344285D01*
X131418095Y-90439523D01*
X131322857Y-90534761D01*
X131180000Y-90582380D01*
X130941904Y-90582380D01*
X132465714Y-90582380D02*
X131894285Y-90582380D01*
X132180000Y-90582380D02*
X132180000Y-89582380D01*
X132084761Y-89725238D01*
X131989523Y-89820476D01*
X131894285Y-89868095D01*
X129537142Y-95522380D02*
X128965714Y-95522380D01*
X129251428Y-95522380D02*
X129251428Y-94522380D01*
X129156190Y-94665238D01*
X129060952Y-94760476D01*
X128965714Y-94808095D01*
X129965714Y-95522380D02*
X129965714Y-94522380D01*
X130537142Y-95522380D01*
X130537142Y-94522380D01*
X131489523Y-94522380D02*
X131013333Y-94522380D01*
X130965714Y-94998571D01*
X131013333Y-94950952D01*
X131108571Y-94903333D01*
X131346666Y-94903333D01*
X131441904Y-94950952D01*
X131489523Y-94998571D01*
X131537142Y-95093809D01*
X131537142Y-95331904D01*
X131489523Y-95427142D01*
X131441904Y-95474761D01*
X131346666Y-95522380D01*
X131108571Y-95522380D01*
X131013333Y-95474761D01*
X130965714Y-95427142D01*
X132108571Y-94950952D02*
X132013333Y-94903333D01*
X131965714Y-94855714D01*
X131918095Y-94760476D01*
X131918095Y-94712857D01*
X131965714Y-94617619D01*
X132013333Y-94570000D01*
X132108571Y-94522380D01*
X132299047Y-94522380D01*
X132394285Y-94570000D01*
X132441904Y-94617619D01*
X132489523Y-94712857D01*
X132489523Y-94760476D01*
X132441904Y-94855714D01*
X132394285Y-94903333D01*
X132299047Y-94950952D01*
X132108571Y-94950952D01*
X132013333Y-94998571D01*
X131965714Y-95046190D01*
X131918095Y-95141428D01*
X131918095Y-95331904D01*
X131965714Y-95427142D01*
X132013333Y-95474761D01*
X132108571Y-95522380D01*
X132299047Y-95522380D01*
X132394285Y-95474761D01*
X132441904Y-95427142D01*
X132489523Y-95331904D01*
X132489523Y-95141428D01*
X132441904Y-95046190D01*
X132394285Y-94998571D01*
X132299047Y-94950952D01*
X133441904Y-95522380D02*
X132870476Y-95522380D01*
X133156190Y-95522380D02*
X133156190Y-94522380D01*
X133060952Y-94665238D01*
X132965714Y-94760476D01*
X132870476Y-94808095D01*
X134013333Y-94950952D02*
X133918095Y-94903333D01*
X133870476Y-94855714D01*
X133822857Y-94760476D01*
X133822857Y-94712857D01*
X133870476Y-94617619D01*
X133918095Y-94570000D01*
X134013333Y-94522380D01*
X134203809Y-94522380D01*
X134299047Y-94570000D01*
X134346666Y-94617619D01*
X134394285Y-94712857D01*
X134394285Y-94760476D01*
X134346666Y-94855714D01*
X134299047Y-94903333D01*
X134203809Y-94950952D01*
X134013333Y-94950952D01*
X133918095Y-94998571D01*
X133870476Y-95046190D01*
X133822857Y-95141428D01*
X133822857Y-95331904D01*
X133870476Y-95427142D01*
X133918095Y-95474761D01*
X134013333Y-95522380D01*
X134203809Y-95522380D01*
X134299047Y-95474761D01*
X134346666Y-95427142D01*
X134394285Y-95331904D01*
X134394285Y-95141428D01*
X134346666Y-95046190D01*
X134299047Y-94998571D01*
X134203809Y-94950952D01*
X126338095Y-90952380D02*
X126338095Y-89952380D01*
X126909523Y-90952380D02*
X126480952Y-90380952D01*
X126909523Y-89952380D02*
X126338095Y-90523809D01*
X115761904Y-106102380D02*
X115761904Y-105102380D01*
X116000000Y-105102380D01*
X116142857Y-105150000D01*
X116238095Y-105245238D01*
X116285714Y-105340476D01*
X116333333Y-105530952D01*
X116333333Y-105673809D01*
X116285714Y-105864285D01*
X116238095Y-105959523D01*
X116142857Y-106054761D01*
X116000000Y-106102380D01*
X115761904Y-106102380D01*
X116666666Y-105102380D02*
X117285714Y-105102380D01*
X116952380Y-105483333D01*
X117095238Y-105483333D01*
X117190476Y-105530952D01*
X117238095Y-105578571D01*
X117285714Y-105673809D01*
X117285714Y-105911904D01*
X117238095Y-106007142D01*
X117190476Y-106054761D01*
X117095238Y-106102380D01*
X116809523Y-106102380D01*
X116714285Y-106054761D01*
X116666666Y-106007142D01*
D14*
X114071428Y-110135714D02*
X114000000Y-110207142D01*
X113785714Y-110278571D01*
X113642857Y-110278571D01*
X113428571Y-110207142D01*
X113285714Y-110064285D01*
X113214285Y-109921428D01*
X113142857Y-109635714D01*
X113142857Y-109421428D01*
X113214285Y-109135714D01*
X113285714Y-108992857D01*
X113428571Y-108850000D01*
X113642857Y-108778571D01*
X113785714Y-108778571D01*
X114000000Y-108850000D01*
X114071428Y-108921428D01*
X115428571Y-110278571D02*
X114714285Y-110278571D01*
X114714285Y-108778571D01*
X116214285Y-108778571D02*
X116500000Y-108778571D01*
X116642857Y-108850000D01*
X116785714Y-108992857D01*
X116857142Y-109278571D01*
X116857142Y-109778571D01*
X116785714Y-110064285D01*
X116642857Y-110207142D01*
X116500000Y-110278571D01*
X116214285Y-110278571D01*
X116071428Y-110207142D01*
X115928571Y-110064285D01*
X115857142Y-109778571D01*
X115857142Y-109278571D01*
X115928571Y-108992857D01*
X116071428Y-108850000D01*
X116214285Y-108778571D01*
X118357142Y-110135714D02*
X118285714Y-110207142D01*
X118071428Y-110278571D01*
X117928571Y-110278571D01*
X117714285Y-110207142D01*
X117571428Y-110064285D01*
X117500000Y-109921428D01*
X117428571Y-109635714D01*
X117428571Y-109421428D01*
X117500000Y-109135714D01*
X117571428Y-108992857D01*
X117714285Y-108850000D01*
X117928571Y-108778571D01*
X118071428Y-108778571D01*
X118285714Y-108850000D01*
X118357142Y-108921428D01*
X119000000Y-110278571D02*
X119000000Y-108778571D01*
X119857142Y-110278571D02*
X119214285Y-109421428D01*
X119857142Y-108778571D02*
X119000000Y-109635714D01*
D10*
X106333333Y-100952380D02*
X106000000Y-100476190D01*
X105761904Y-100952380D02*
X105761904Y-99952380D01*
X106142857Y-99952380D01*
X106238095Y-100000000D01*
X106285714Y-100047619D01*
X106333333Y-100142857D01*
X106333333Y-100285714D01*
X106285714Y-100380952D01*
X106238095Y-100428571D01*
X106142857Y-100476190D01*
X105761904Y-100476190D01*
X106714285Y-100047619D02*
X106761904Y-100000000D01*
X106857142Y-99952380D01*
X107095238Y-99952380D01*
X107190476Y-100000000D01*
X107238095Y-100047619D01*
X107285714Y-100142857D01*
X107285714Y-100238095D01*
X107238095Y-100380952D01*
X106666666Y-100952380D01*
X107285714Y-100952380D01*
X105809523Y-104452380D02*
X105238095Y-104452380D01*
X105523809Y-104452380D02*
X105523809Y-103452380D01*
X105428571Y-103595238D01*
X105333333Y-103690476D01*
X105238095Y-103738095D01*
X106428571Y-103452380D02*
X106523809Y-103452380D01*
X106619047Y-103500000D01*
X106666666Y-103547619D01*
X106714285Y-103642857D01*
X106761904Y-103833333D01*
X106761904Y-104071428D01*
X106714285Y-104261904D01*
X106666666Y-104357142D01*
X106619047Y-104404761D01*
X106523809Y-104452380D01*
X106428571Y-104452380D01*
X106333333Y-104404761D01*
X106285714Y-104357142D01*
X106238095Y-104261904D01*
X106190476Y-104071428D01*
X106190476Y-103833333D01*
X106238095Y-103642857D01*
X106285714Y-103547619D01*
X106333333Y-103500000D01*
X106428571Y-103452380D01*
X107190476Y-104452380D02*
X107190476Y-103452380D01*
X107761904Y-104452380D02*
X107333333Y-103880952D01*
X107761904Y-103452380D02*
X107190476Y-104023809D01*
X168752380Y-57161904D02*
X169561904Y-57161904D01*
X169657142Y-57114285D01*
X169704761Y-57066666D01*
X169752380Y-56971428D01*
X169752380Y-56780952D01*
X169704761Y-56685714D01*
X169657142Y-56638095D01*
X169561904Y-56590476D01*
X168752380Y-56590476D01*
X168752380Y-56209523D02*
X168752380Y-55590476D01*
X169133333Y-55923809D01*
X169133333Y-55780952D01*
X169180952Y-55685714D01*
X169228571Y-55638095D01*
X169323809Y-55590476D01*
X169561904Y-55590476D01*
X169657142Y-55638095D01*
X169704761Y-55685714D01*
X169752380Y-55780952D01*
X169752380Y-56066666D01*
X169704761Y-56161904D01*
X169657142Y-56209523D01*
X155152380Y-60042857D02*
X155152380Y-59376190D01*
X156152380Y-59804761D01*
X155485714Y-58566666D02*
X156152380Y-58566666D01*
X155104761Y-58804761D02*
X155819047Y-59042857D01*
X155819047Y-58423809D01*
X156152380Y-58042857D02*
X155152380Y-58042857D01*
X155628571Y-58042857D02*
X155628571Y-57471428D01*
X156152380Y-57471428D02*
X155152380Y-57471428D01*
X156057142Y-56423809D02*
X156104761Y-56471428D01*
X156152380Y-56614285D01*
X156152380Y-56709523D01*
X156104761Y-56852380D01*
X156009523Y-56947619D01*
X155914285Y-56995238D01*
X155723809Y-57042857D01*
X155580952Y-57042857D01*
X155390476Y-56995238D01*
X155295238Y-56947619D01*
X155200000Y-56852380D01*
X155152380Y-56709523D01*
X155152380Y-56614285D01*
X155200000Y-56471428D01*
X155247619Y-56423809D01*
X155152380Y-56138095D02*
X155152380Y-55566666D01*
X156152380Y-55852380D02*
X155152380Y-55852380D01*
X155152380Y-54757142D02*
X155152380Y-55233333D01*
X155628571Y-55280952D01*
X155580952Y-55233333D01*
X155533333Y-55138095D01*
X155533333Y-54900000D01*
X155580952Y-54804761D01*
X155628571Y-54757142D01*
X155723809Y-54709523D01*
X155961904Y-54709523D01*
X156057142Y-54757142D01*
X156104761Y-54804761D01*
X156152380Y-54900000D01*
X156152380Y-55138095D01*
X156104761Y-55233333D01*
X156057142Y-55280952D01*
X156152380Y-54233333D02*
X156152380Y-54042857D01*
X156104761Y-53947619D01*
X156057142Y-53900000D01*
X155914285Y-53804761D01*
X155723809Y-53757142D01*
X155342857Y-53757142D01*
X155247619Y-53804761D01*
X155200000Y-53852380D01*
X155152380Y-53947619D01*
X155152380Y-54138095D01*
X155200000Y-54233333D01*
X155247619Y-54280952D01*
X155342857Y-54328571D01*
X155580952Y-54328571D01*
X155676190Y-54280952D01*
X155723809Y-54233333D01*
X155771428Y-54138095D01*
X155771428Y-53947619D01*
X155723809Y-53852380D01*
X155676190Y-53804761D01*
X155580952Y-53757142D01*
X155152380Y-52852380D02*
X155152380Y-53328571D01*
X155628571Y-53376190D01*
X155580952Y-53328571D01*
X155533333Y-53233333D01*
X155533333Y-52995238D01*
X155580952Y-52900000D01*
X155628571Y-52852380D01*
X155723809Y-52804761D01*
X155961904Y-52804761D01*
X156057142Y-52852380D01*
X156104761Y-52900000D01*
X156152380Y-52995238D01*
X156152380Y-53233333D01*
X156104761Y-53328571D01*
X156057142Y-53376190D01*
X159019047Y-51752380D02*
X158685714Y-51276190D01*
X158447619Y-51752380D02*
X158447619Y-50752380D01*
X158828571Y-50752380D01*
X158923809Y-50800000D01*
X158971428Y-50847619D01*
X159019047Y-50942857D01*
X159019047Y-51085714D01*
X158971428Y-51180952D01*
X158923809Y-51228571D01*
X158828571Y-51276190D01*
X158447619Y-51276190D01*
X159638095Y-50752380D02*
X159828571Y-50752380D01*
X159923809Y-50800000D01*
X160019047Y-50895238D01*
X160066666Y-51085714D01*
X160066666Y-51419047D01*
X160019047Y-51609523D01*
X159923809Y-51704761D01*
X159828571Y-51752380D01*
X159638095Y-51752380D01*
X159542857Y-51704761D01*
X159447619Y-51609523D01*
X159400000Y-51419047D01*
X159400000Y-51085714D01*
X159447619Y-50895238D01*
X159542857Y-50800000D01*
X159638095Y-50752380D01*
X160495238Y-51752380D02*
X160495238Y-50752380D01*
X160828571Y-51466666D01*
X161161904Y-50752380D01*
X161161904Y-51752380D01*
X161828571Y-50752380D02*
X161923809Y-50752380D01*
X162019047Y-50800000D01*
X162066666Y-50847619D01*
X162114285Y-50942857D01*
X162161904Y-51133333D01*
X162161904Y-51371428D01*
X162114285Y-51561904D01*
X162066666Y-51657142D01*
X162019047Y-51704761D01*
X161923809Y-51752380D01*
X161828571Y-51752380D01*
X161733333Y-51704761D01*
X161685714Y-51657142D01*
X161638095Y-51561904D01*
X161590476Y-51371428D01*
X161590476Y-51133333D01*
X161638095Y-50942857D01*
X161685714Y-50847619D01*
X161733333Y-50800000D01*
X161828571Y-50752380D01*
X163304761Y-51704761D02*
X163447619Y-51752380D01*
X163685714Y-51752380D01*
X163780952Y-51704761D01*
X163828571Y-51657142D01*
X163876190Y-51561904D01*
X163876190Y-51466666D01*
X163828571Y-51371428D01*
X163780952Y-51323809D01*
X163685714Y-51276190D01*
X163495238Y-51228571D01*
X163400000Y-51180952D01*
X163352380Y-51133333D01*
X163304761Y-51038095D01*
X163304761Y-50942857D01*
X163352380Y-50847619D01*
X163400000Y-50800000D01*
X163495238Y-50752380D01*
X163733333Y-50752380D01*
X163876190Y-50800000D01*
X164304761Y-51752380D02*
X164304761Y-51085714D01*
X164304761Y-50752380D02*
X164257142Y-50800000D01*
X164304761Y-50847619D01*
X164352380Y-50800000D01*
X164304761Y-50752380D01*
X164304761Y-50847619D01*
X165209523Y-51085714D02*
X165209523Y-51895238D01*
X165161904Y-51990476D01*
X165114285Y-52038095D01*
X165019047Y-52085714D01*
X164876190Y-52085714D01*
X164780952Y-52038095D01*
X165209523Y-51704761D02*
X165114285Y-51752380D01*
X164923809Y-51752380D01*
X164828571Y-51704761D01*
X164780952Y-51657142D01*
X164733333Y-51561904D01*
X164733333Y-51276190D01*
X164780952Y-51180952D01*
X164828571Y-51133333D01*
X164923809Y-51085714D01*
X165114285Y-51085714D01*
X165209523Y-51133333D01*
X165685714Y-51085714D02*
X165685714Y-51752380D01*
X165685714Y-51180952D02*
X165733333Y-51133333D01*
X165828571Y-51085714D01*
X165971428Y-51085714D01*
X166066666Y-51133333D01*
X166114285Y-51228571D01*
X166114285Y-51752380D01*
X167019047Y-51752380D02*
X167019047Y-51228571D01*
X166971428Y-51133333D01*
X166876190Y-51085714D01*
X166685714Y-51085714D01*
X166590476Y-51133333D01*
X167019047Y-51704761D02*
X166923809Y-51752380D01*
X166685714Y-51752380D01*
X166590476Y-51704761D01*
X166542857Y-51609523D01*
X166542857Y-51514285D01*
X166590476Y-51419047D01*
X166685714Y-51371428D01*
X166923809Y-51371428D01*
X167019047Y-51323809D01*
X167638095Y-51752380D02*
X167542857Y-51704761D01*
X167495238Y-51609523D01*
X167495238Y-50752380D01*
X167971428Y-51704761D02*
X168066666Y-51752380D01*
X168257142Y-51752380D01*
X168352380Y-51704761D01*
X168400000Y-51609523D01*
X168400000Y-51561904D01*
X168352380Y-51466666D01*
X168257142Y-51419047D01*
X168114285Y-51419047D01*
X168019047Y-51371428D01*
X167971428Y-51276190D01*
X167971428Y-51228571D01*
X168019047Y-51133333D01*
X168114285Y-51085714D01*
X168257142Y-51085714D01*
X168352380Y-51133333D01*
X157504761Y-61376190D02*
X157552380Y-61233333D01*
X157552380Y-60995238D01*
X157504761Y-60900000D01*
X157457142Y-60852380D01*
X157361904Y-60804761D01*
X157266666Y-60804761D01*
X157171428Y-60852380D01*
X157123809Y-60900000D01*
X157076190Y-60995238D01*
X157028571Y-61185714D01*
X156980952Y-61280952D01*
X156933333Y-61328571D01*
X156838095Y-61376190D01*
X156742857Y-61376190D01*
X156647619Y-61328571D01*
X156600000Y-61280952D01*
X156552380Y-61185714D01*
X156552380Y-60947619D01*
X156600000Y-60804761D01*
X157552380Y-60376190D02*
X156552380Y-60376190D01*
X157552380Y-59947619D02*
X157028571Y-59947619D01*
X156933333Y-59995238D01*
X156885714Y-60090476D01*
X156885714Y-60233333D01*
X156933333Y-60328571D01*
X156980952Y-60376190D01*
X157552380Y-59471428D02*
X156885714Y-59471428D01*
X156552380Y-59471428D02*
X156600000Y-59519047D01*
X156647619Y-59471428D01*
X156600000Y-59423809D01*
X156552380Y-59471428D01*
X156647619Y-59471428D01*
X156885714Y-59138095D02*
X156885714Y-58757142D01*
X157552380Y-58995238D02*
X156695238Y-58995238D01*
X156600000Y-58947619D01*
X156552380Y-58852380D01*
X156552380Y-58757142D01*
X156885714Y-58566666D02*
X156885714Y-58185714D01*
X156552380Y-58423809D02*
X157409523Y-58423809D01*
X157504761Y-58376190D01*
X157552380Y-58280952D01*
X157552380Y-58185714D01*
X157552380Y-56519047D02*
X157076190Y-56852380D01*
X157552380Y-57090476D02*
X156552380Y-57090476D01*
X156552380Y-56709523D01*
X156600000Y-56614285D01*
X156647619Y-56566666D01*
X156742857Y-56519047D01*
X156885714Y-56519047D01*
X156980952Y-56566666D01*
X157028571Y-56614285D01*
X157076190Y-56709523D01*
X157076190Y-57090476D01*
X157504761Y-55709523D02*
X157552380Y-55804761D01*
X157552380Y-55995238D01*
X157504761Y-56090476D01*
X157409523Y-56138095D01*
X157028571Y-56138095D01*
X156933333Y-56090476D01*
X156885714Y-55995238D01*
X156885714Y-55804761D01*
X156933333Y-55709523D01*
X157028571Y-55661904D01*
X157123809Y-55661904D01*
X157219047Y-56138095D01*
X156885714Y-54804761D02*
X157695238Y-54804761D01*
X157790476Y-54852380D01*
X157838095Y-54900000D01*
X157885714Y-54995238D01*
X157885714Y-55138095D01*
X157838095Y-55233333D01*
X157504761Y-54804761D02*
X157552380Y-54900000D01*
X157552380Y-55090476D01*
X157504761Y-55185714D01*
X157457142Y-55233333D01*
X157361904Y-55280952D01*
X157076190Y-55280952D01*
X156980952Y-55233333D01*
X156933333Y-55185714D01*
X156885714Y-55090476D01*
X156885714Y-54900000D01*
X156933333Y-54804761D01*
X157552380Y-54328571D02*
X156885714Y-54328571D01*
X156552380Y-54328571D02*
X156600000Y-54376190D01*
X156647619Y-54328571D01*
X156600000Y-54280952D01*
X156552380Y-54328571D01*
X156647619Y-54328571D01*
X157504761Y-53900000D02*
X157552380Y-53804761D01*
X157552380Y-53614285D01*
X157504761Y-53519047D01*
X157409523Y-53471428D01*
X157361904Y-53471428D01*
X157266666Y-53519047D01*
X157219047Y-53614285D01*
X157219047Y-53757142D01*
X157171428Y-53852380D01*
X157076190Y-53900000D01*
X157028571Y-53900000D01*
X156933333Y-53852380D01*
X156885714Y-53757142D01*
X156885714Y-53614285D01*
X156933333Y-53519047D01*
X156885714Y-53185714D02*
X156885714Y-52804761D01*
X156552380Y-53042857D02*
X157409523Y-53042857D01*
X157504761Y-52995238D01*
X157552380Y-52900000D01*
X157552380Y-52804761D01*
X157504761Y-52090476D02*
X157552380Y-52185714D01*
X157552380Y-52376190D01*
X157504761Y-52471428D01*
X157409523Y-52519047D01*
X157028571Y-52519047D01*
X156933333Y-52471428D01*
X156885714Y-52376190D01*
X156885714Y-52185714D01*
X156933333Y-52090476D01*
X157028571Y-52042857D01*
X157123809Y-52042857D01*
X157219047Y-52519047D01*
X157552380Y-51614285D02*
X156885714Y-51614285D01*
X157076190Y-51614285D02*
X156980952Y-51566666D01*
X156933333Y-51519047D01*
X156885714Y-51423809D01*
X156885714Y-51328571D01*
X150352380Y-57161904D02*
X151161904Y-57161904D01*
X151257142Y-57114285D01*
X151304761Y-57066666D01*
X151352380Y-56971428D01*
X151352380Y-56780952D01*
X151304761Y-56685714D01*
X151257142Y-56638095D01*
X151161904Y-56590476D01*
X150352380Y-56590476D01*
X150447619Y-56161904D02*
X150400000Y-56114285D01*
X150352380Y-56019047D01*
X150352380Y-55780952D01*
X150400000Y-55685714D01*
X150447619Y-55638095D01*
X150542857Y-55590476D01*
X150638095Y-55590476D01*
X150780952Y-55638095D01*
X151352380Y-56209523D01*
X151352380Y-55590476D01*
X136652380Y-60042857D02*
X136652380Y-59376190D01*
X137652380Y-59804761D01*
X136985714Y-58566666D02*
X137652380Y-58566666D01*
X136604761Y-58804761D02*
X137319047Y-59042857D01*
X137319047Y-58423809D01*
X137652380Y-58042857D02*
X136652380Y-58042857D01*
X137128571Y-58042857D02*
X137128571Y-57471428D01*
X137652380Y-57471428D02*
X136652380Y-57471428D01*
X137557142Y-56423809D02*
X137604761Y-56471428D01*
X137652380Y-56614285D01*
X137652380Y-56709523D01*
X137604761Y-56852380D01*
X137509523Y-56947619D01*
X137414285Y-56995238D01*
X137223809Y-57042857D01*
X137080952Y-57042857D01*
X136890476Y-56995238D01*
X136795238Y-56947619D01*
X136700000Y-56852380D01*
X136652380Y-56709523D01*
X136652380Y-56614285D01*
X136700000Y-56471428D01*
X136747619Y-56423809D01*
X136652380Y-56138095D02*
X136652380Y-55566666D01*
X137652380Y-55852380D02*
X136652380Y-55852380D01*
X136652380Y-54757142D02*
X136652380Y-55233333D01*
X137128571Y-55280952D01*
X137080952Y-55233333D01*
X137033333Y-55138095D01*
X137033333Y-54900000D01*
X137080952Y-54804761D01*
X137128571Y-54757142D01*
X137223809Y-54709523D01*
X137461904Y-54709523D01*
X137557142Y-54757142D01*
X137604761Y-54804761D01*
X137652380Y-54900000D01*
X137652380Y-55138095D01*
X137604761Y-55233333D01*
X137557142Y-55280952D01*
X137652380Y-54233333D02*
X137652380Y-54042857D01*
X137604761Y-53947619D01*
X137557142Y-53900000D01*
X137414285Y-53804761D01*
X137223809Y-53757142D01*
X136842857Y-53757142D01*
X136747619Y-53804761D01*
X136700000Y-53852380D01*
X136652380Y-53947619D01*
X136652380Y-54138095D01*
X136700000Y-54233333D01*
X136747619Y-54280952D01*
X136842857Y-54328571D01*
X137080952Y-54328571D01*
X137176190Y-54280952D01*
X137223809Y-54233333D01*
X137271428Y-54138095D01*
X137271428Y-53947619D01*
X137223809Y-53852380D01*
X137176190Y-53804761D01*
X137080952Y-53757142D01*
X136652380Y-52852380D02*
X136652380Y-53328571D01*
X137128571Y-53376190D01*
X137080952Y-53328571D01*
X137033333Y-53233333D01*
X137033333Y-52995238D01*
X137080952Y-52900000D01*
X137128571Y-52852380D01*
X137223809Y-52804761D01*
X137461904Y-52804761D01*
X137557142Y-52852380D01*
X137604761Y-52900000D01*
X137652380Y-52995238D01*
X137652380Y-53233333D01*
X137604761Y-53328571D01*
X137557142Y-53376190D01*
X140619047Y-51752380D02*
X140285714Y-51276190D01*
X140047619Y-51752380D02*
X140047619Y-50752380D01*
X140428571Y-50752380D01*
X140523809Y-50800000D01*
X140571428Y-50847619D01*
X140619047Y-50942857D01*
X140619047Y-51085714D01*
X140571428Y-51180952D01*
X140523809Y-51228571D01*
X140428571Y-51276190D01*
X140047619Y-51276190D01*
X141238095Y-50752380D02*
X141428571Y-50752380D01*
X141523809Y-50800000D01*
X141619047Y-50895238D01*
X141666666Y-51085714D01*
X141666666Y-51419047D01*
X141619047Y-51609523D01*
X141523809Y-51704761D01*
X141428571Y-51752380D01*
X141238095Y-51752380D01*
X141142857Y-51704761D01*
X141047619Y-51609523D01*
X141000000Y-51419047D01*
X141000000Y-51085714D01*
X141047619Y-50895238D01*
X141142857Y-50800000D01*
X141238095Y-50752380D01*
X142095238Y-51752380D02*
X142095238Y-50752380D01*
X142428571Y-51466666D01*
X142761904Y-50752380D01*
X142761904Y-51752380D01*
X143761904Y-51752380D02*
X143190476Y-51752380D01*
X143476190Y-51752380D02*
X143476190Y-50752380D01*
X143380952Y-50895238D01*
X143285714Y-50990476D01*
X143190476Y-51038095D01*
X144904761Y-51704761D02*
X145047619Y-51752380D01*
X145285714Y-51752380D01*
X145380952Y-51704761D01*
X145428571Y-51657142D01*
X145476190Y-51561904D01*
X145476190Y-51466666D01*
X145428571Y-51371428D01*
X145380952Y-51323809D01*
X145285714Y-51276190D01*
X145095238Y-51228571D01*
X145000000Y-51180952D01*
X144952380Y-51133333D01*
X144904761Y-51038095D01*
X144904761Y-50942857D01*
X144952380Y-50847619D01*
X145000000Y-50800000D01*
X145095238Y-50752380D01*
X145333333Y-50752380D01*
X145476190Y-50800000D01*
X145904761Y-51752380D02*
X145904761Y-51085714D01*
X145904761Y-50752380D02*
X145857142Y-50800000D01*
X145904761Y-50847619D01*
X145952380Y-50800000D01*
X145904761Y-50752380D01*
X145904761Y-50847619D01*
X146809523Y-51085714D02*
X146809523Y-51895238D01*
X146761904Y-51990476D01*
X146714285Y-52038095D01*
X146619047Y-52085714D01*
X146476190Y-52085714D01*
X146380952Y-52038095D01*
X146809523Y-51704761D02*
X146714285Y-51752380D01*
X146523809Y-51752380D01*
X146428571Y-51704761D01*
X146380952Y-51657142D01*
X146333333Y-51561904D01*
X146333333Y-51276190D01*
X146380952Y-51180952D01*
X146428571Y-51133333D01*
X146523809Y-51085714D01*
X146714285Y-51085714D01*
X146809523Y-51133333D01*
X147285714Y-51085714D02*
X147285714Y-51752380D01*
X147285714Y-51180952D02*
X147333333Y-51133333D01*
X147428571Y-51085714D01*
X147571428Y-51085714D01*
X147666666Y-51133333D01*
X147714285Y-51228571D01*
X147714285Y-51752380D01*
X148619047Y-51752380D02*
X148619047Y-51228571D01*
X148571428Y-51133333D01*
X148476190Y-51085714D01*
X148285714Y-51085714D01*
X148190476Y-51133333D01*
X148619047Y-51704761D02*
X148523809Y-51752380D01*
X148285714Y-51752380D01*
X148190476Y-51704761D01*
X148142857Y-51609523D01*
X148142857Y-51514285D01*
X148190476Y-51419047D01*
X148285714Y-51371428D01*
X148523809Y-51371428D01*
X148619047Y-51323809D01*
X149238095Y-51752380D02*
X149142857Y-51704761D01*
X149095238Y-51609523D01*
X149095238Y-50752380D01*
X149571428Y-51704761D02*
X149666666Y-51752380D01*
X149857142Y-51752380D01*
X149952380Y-51704761D01*
X150000000Y-51609523D01*
X150000000Y-51561904D01*
X149952380Y-51466666D01*
X149857142Y-51419047D01*
X149714285Y-51419047D01*
X149619047Y-51371428D01*
X149571428Y-51276190D01*
X149571428Y-51228571D01*
X149619047Y-51133333D01*
X149714285Y-51085714D01*
X149857142Y-51085714D01*
X149952380Y-51133333D01*
X139104761Y-61376190D02*
X139152380Y-61233333D01*
X139152380Y-60995238D01*
X139104761Y-60900000D01*
X139057142Y-60852380D01*
X138961904Y-60804761D01*
X138866666Y-60804761D01*
X138771428Y-60852380D01*
X138723809Y-60900000D01*
X138676190Y-60995238D01*
X138628571Y-61185714D01*
X138580952Y-61280952D01*
X138533333Y-61328571D01*
X138438095Y-61376190D01*
X138342857Y-61376190D01*
X138247619Y-61328571D01*
X138200000Y-61280952D01*
X138152380Y-61185714D01*
X138152380Y-60947619D01*
X138200000Y-60804761D01*
X139152380Y-60376190D02*
X138152380Y-60376190D01*
X139152380Y-59947619D02*
X138628571Y-59947619D01*
X138533333Y-59995238D01*
X138485714Y-60090476D01*
X138485714Y-60233333D01*
X138533333Y-60328571D01*
X138580952Y-60376190D01*
X139152380Y-59471428D02*
X138485714Y-59471428D01*
X138152380Y-59471428D02*
X138200000Y-59519047D01*
X138247619Y-59471428D01*
X138200000Y-59423809D01*
X138152380Y-59471428D01*
X138247619Y-59471428D01*
X138485714Y-59138095D02*
X138485714Y-58757142D01*
X139152380Y-58995238D02*
X138295238Y-58995238D01*
X138200000Y-58947619D01*
X138152380Y-58852380D01*
X138152380Y-58757142D01*
X138485714Y-58566666D02*
X138485714Y-58185714D01*
X138152380Y-58423809D02*
X139009523Y-58423809D01*
X139104761Y-58376190D01*
X139152380Y-58280952D01*
X139152380Y-58185714D01*
X139152380Y-56519047D02*
X138676190Y-56852380D01*
X139152380Y-57090476D02*
X138152380Y-57090476D01*
X138152380Y-56709523D01*
X138200000Y-56614285D01*
X138247619Y-56566666D01*
X138342857Y-56519047D01*
X138485714Y-56519047D01*
X138580952Y-56566666D01*
X138628571Y-56614285D01*
X138676190Y-56709523D01*
X138676190Y-57090476D01*
X139104761Y-55709523D02*
X139152380Y-55804761D01*
X139152380Y-55995238D01*
X139104761Y-56090476D01*
X139009523Y-56138095D01*
X138628571Y-56138095D01*
X138533333Y-56090476D01*
X138485714Y-55995238D01*
X138485714Y-55804761D01*
X138533333Y-55709523D01*
X138628571Y-55661904D01*
X138723809Y-55661904D01*
X138819047Y-56138095D01*
X138485714Y-54804761D02*
X139295238Y-54804761D01*
X139390476Y-54852380D01*
X139438095Y-54900000D01*
X139485714Y-54995238D01*
X139485714Y-55138095D01*
X139438095Y-55233333D01*
X139104761Y-54804761D02*
X139152380Y-54900000D01*
X139152380Y-55090476D01*
X139104761Y-55185714D01*
X139057142Y-55233333D01*
X138961904Y-55280952D01*
X138676190Y-55280952D01*
X138580952Y-55233333D01*
X138533333Y-55185714D01*
X138485714Y-55090476D01*
X138485714Y-54900000D01*
X138533333Y-54804761D01*
X139152380Y-54328571D02*
X138485714Y-54328571D01*
X138152380Y-54328571D02*
X138200000Y-54376190D01*
X138247619Y-54328571D01*
X138200000Y-54280952D01*
X138152380Y-54328571D01*
X138247619Y-54328571D01*
X139104761Y-53900000D02*
X139152380Y-53804761D01*
X139152380Y-53614285D01*
X139104761Y-53519047D01*
X139009523Y-53471428D01*
X138961904Y-53471428D01*
X138866666Y-53519047D01*
X138819047Y-53614285D01*
X138819047Y-53757142D01*
X138771428Y-53852380D01*
X138676190Y-53900000D01*
X138628571Y-53900000D01*
X138533333Y-53852380D01*
X138485714Y-53757142D01*
X138485714Y-53614285D01*
X138533333Y-53519047D01*
X138485714Y-53185714D02*
X138485714Y-52804761D01*
X138152380Y-53042857D02*
X139009523Y-53042857D01*
X139104761Y-52995238D01*
X139152380Y-52900000D01*
X139152380Y-52804761D01*
X139104761Y-52090476D02*
X139152380Y-52185714D01*
X139152380Y-52376190D01*
X139104761Y-52471428D01*
X139009523Y-52519047D01*
X138628571Y-52519047D01*
X138533333Y-52471428D01*
X138485714Y-52376190D01*
X138485714Y-52185714D01*
X138533333Y-52090476D01*
X138628571Y-52042857D01*
X138723809Y-52042857D01*
X138819047Y-52519047D01*
X139152380Y-51614285D02*
X138485714Y-51614285D01*
X138676190Y-51614285D02*
X138580952Y-51566666D01*
X138533333Y-51519047D01*
X138485714Y-51423809D01*
X138485714Y-51328571D01*
X131952380Y-57061904D02*
X132761904Y-57061904D01*
X132857142Y-57014285D01*
X132904761Y-56966666D01*
X132952380Y-56871428D01*
X132952380Y-56680952D01*
X132904761Y-56585714D01*
X132857142Y-56538095D01*
X132761904Y-56490476D01*
X131952380Y-56490476D01*
X132952380Y-55490476D02*
X132952380Y-56061904D01*
X132952380Y-55776190D02*
X131952380Y-55776190D01*
X132095238Y-55871428D01*
X132190476Y-55966666D01*
X132238095Y-56061904D01*
X118252380Y-59842857D02*
X118252380Y-59176190D01*
X119252380Y-59604761D01*
X118585714Y-58366666D02*
X119252380Y-58366666D01*
X118204761Y-58604761D02*
X118919047Y-58842857D01*
X118919047Y-58223809D01*
X119252380Y-57842857D02*
X118252380Y-57842857D01*
X118728571Y-57842857D02*
X118728571Y-57271428D01*
X119252380Y-57271428D02*
X118252380Y-57271428D01*
X119157142Y-56223809D02*
X119204761Y-56271428D01*
X119252380Y-56414285D01*
X119252380Y-56509523D01*
X119204761Y-56652380D01*
X119109523Y-56747619D01*
X119014285Y-56795238D01*
X118823809Y-56842857D01*
X118680952Y-56842857D01*
X118490476Y-56795238D01*
X118395238Y-56747619D01*
X118300000Y-56652380D01*
X118252380Y-56509523D01*
X118252380Y-56414285D01*
X118300000Y-56271428D01*
X118347619Y-56223809D01*
X118252380Y-55938095D02*
X118252380Y-55366666D01*
X119252380Y-55652380D02*
X118252380Y-55652380D01*
X118252380Y-54557142D02*
X118252380Y-55033333D01*
X118728571Y-55080952D01*
X118680952Y-55033333D01*
X118633333Y-54938095D01*
X118633333Y-54700000D01*
X118680952Y-54604761D01*
X118728571Y-54557142D01*
X118823809Y-54509523D01*
X119061904Y-54509523D01*
X119157142Y-54557142D01*
X119204761Y-54604761D01*
X119252380Y-54700000D01*
X119252380Y-54938095D01*
X119204761Y-55033333D01*
X119157142Y-55080952D01*
X119252380Y-54033333D02*
X119252380Y-53842857D01*
X119204761Y-53747619D01*
X119157142Y-53700000D01*
X119014285Y-53604761D01*
X118823809Y-53557142D01*
X118442857Y-53557142D01*
X118347619Y-53604761D01*
X118300000Y-53652380D01*
X118252380Y-53747619D01*
X118252380Y-53938095D01*
X118300000Y-54033333D01*
X118347619Y-54080952D01*
X118442857Y-54128571D01*
X118680952Y-54128571D01*
X118776190Y-54080952D01*
X118823809Y-54033333D01*
X118871428Y-53938095D01*
X118871428Y-53747619D01*
X118823809Y-53652380D01*
X118776190Y-53604761D01*
X118680952Y-53557142D01*
X118252380Y-52652380D02*
X118252380Y-53128571D01*
X118728571Y-53176190D01*
X118680952Y-53128571D01*
X118633333Y-53033333D01*
X118633333Y-52795238D01*
X118680952Y-52700000D01*
X118728571Y-52652380D01*
X118823809Y-52604761D01*
X119061904Y-52604761D01*
X119157142Y-52652380D01*
X119204761Y-52700000D01*
X119252380Y-52795238D01*
X119252380Y-53033333D01*
X119204761Y-53128571D01*
X119157142Y-53176190D01*
X122619047Y-51752380D02*
X122285714Y-51276190D01*
X122047619Y-51752380D02*
X122047619Y-50752380D01*
X122428571Y-50752380D01*
X122523809Y-50800000D01*
X122571428Y-50847619D01*
X122619047Y-50942857D01*
X122619047Y-51085714D01*
X122571428Y-51180952D01*
X122523809Y-51228571D01*
X122428571Y-51276190D01*
X122047619Y-51276190D01*
X123761904Y-50704761D02*
X122904761Y-51990476D01*
X124000000Y-50752380D02*
X124238095Y-51752380D01*
X124428571Y-51038095D01*
X124619047Y-51752380D01*
X124857142Y-50752380D01*
X125952380Y-51704761D02*
X126095238Y-51752380D01*
X126333333Y-51752380D01*
X126428571Y-51704761D01*
X126476190Y-51657142D01*
X126523809Y-51561904D01*
X126523809Y-51466666D01*
X126476190Y-51371428D01*
X126428571Y-51323809D01*
X126333333Y-51276190D01*
X126142857Y-51228571D01*
X126047619Y-51180952D01*
X126000000Y-51133333D01*
X125952380Y-51038095D01*
X125952380Y-50942857D01*
X126000000Y-50847619D01*
X126047619Y-50800000D01*
X126142857Y-50752380D01*
X126380952Y-50752380D01*
X126523809Y-50800000D01*
X127333333Y-51704761D02*
X127238095Y-51752380D01*
X127047619Y-51752380D01*
X126952380Y-51704761D01*
X126904761Y-51609523D01*
X126904761Y-51228571D01*
X126952380Y-51133333D01*
X127047619Y-51085714D01*
X127238095Y-51085714D01*
X127333333Y-51133333D01*
X127380952Y-51228571D01*
X127380952Y-51323809D01*
X126904761Y-51419047D01*
X127952380Y-51752380D02*
X127857142Y-51704761D01*
X127809523Y-51609523D01*
X127809523Y-50752380D01*
X128714285Y-51704761D02*
X128619047Y-51752380D01*
X128428571Y-51752380D01*
X128333333Y-51704761D01*
X128285714Y-51609523D01*
X128285714Y-51228571D01*
X128333333Y-51133333D01*
X128428571Y-51085714D01*
X128619047Y-51085714D01*
X128714285Y-51133333D01*
X128761904Y-51228571D01*
X128761904Y-51323809D01*
X128285714Y-51419047D01*
X129619047Y-51704761D02*
X129523809Y-51752380D01*
X129333333Y-51752380D01*
X129238095Y-51704761D01*
X129190476Y-51657142D01*
X129142857Y-51561904D01*
X129142857Y-51276190D01*
X129190476Y-51180952D01*
X129238095Y-51133333D01*
X129333333Y-51085714D01*
X129523809Y-51085714D01*
X129619047Y-51133333D01*
X129904761Y-51085714D02*
X130285714Y-51085714D01*
X130047619Y-50752380D02*
X130047619Y-51609523D01*
X130095238Y-51704761D01*
X130190476Y-51752380D01*
X130285714Y-51752380D01*
X130571428Y-51704761D02*
X130666666Y-51752380D01*
X130857142Y-51752380D01*
X130952380Y-51704761D01*
X131000000Y-51609523D01*
X131000000Y-51561904D01*
X130952380Y-51466666D01*
X130857142Y-51419047D01*
X130714285Y-51419047D01*
X130619047Y-51371428D01*
X130571428Y-51276190D01*
X130571428Y-51228571D01*
X130619047Y-51133333D01*
X130714285Y-51085714D01*
X130857142Y-51085714D01*
X130952380Y-51133333D01*
X120704761Y-61276190D02*
X120752380Y-61133333D01*
X120752380Y-60895238D01*
X120704761Y-60800000D01*
X120657142Y-60752380D01*
X120561904Y-60704761D01*
X120466666Y-60704761D01*
X120371428Y-60752380D01*
X120323809Y-60800000D01*
X120276190Y-60895238D01*
X120228571Y-61085714D01*
X120180952Y-61180952D01*
X120133333Y-61228571D01*
X120038095Y-61276190D01*
X119942857Y-61276190D01*
X119847619Y-61228571D01*
X119800000Y-61180952D01*
X119752380Y-61085714D01*
X119752380Y-60847619D01*
X119800000Y-60704761D01*
X120752380Y-60276190D02*
X119752380Y-60276190D01*
X120752380Y-59847619D02*
X120228571Y-59847619D01*
X120133333Y-59895238D01*
X120085714Y-59990476D01*
X120085714Y-60133333D01*
X120133333Y-60228571D01*
X120180952Y-60276190D01*
X120752380Y-59371428D02*
X120085714Y-59371428D01*
X119752380Y-59371428D02*
X119800000Y-59419047D01*
X119847619Y-59371428D01*
X119800000Y-59323809D01*
X119752380Y-59371428D01*
X119847619Y-59371428D01*
X120085714Y-59038095D02*
X120085714Y-58657142D01*
X120752380Y-58895238D02*
X119895238Y-58895238D01*
X119800000Y-58847619D01*
X119752380Y-58752380D01*
X119752380Y-58657142D01*
X120085714Y-58466666D02*
X120085714Y-58085714D01*
X119752380Y-58323809D02*
X120609523Y-58323809D01*
X120704761Y-58276190D01*
X120752380Y-58180952D01*
X120752380Y-58085714D01*
X120752380Y-56419047D02*
X120276190Y-56752380D01*
X120752380Y-56990476D02*
X119752380Y-56990476D01*
X119752380Y-56609523D01*
X119800000Y-56514285D01*
X119847619Y-56466666D01*
X119942857Y-56419047D01*
X120085714Y-56419047D01*
X120180952Y-56466666D01*
X120228571Y-56514285D01*
X120276190Y-56609523D01*
X120276190Y-56990476D01*
X120704761Y-55609523D02*
X120752380Y-55704761D01*
X120752380Y-55895238D01*
X120704761Y-55990476D01*
X120609523Y-56038095D01*
X120228571Y-56038095D01*
X120133333Y-55990476D01*
X120085714Y-55895238D01*
X120085714Y-55704761D01*
X120133333Y-55609523D01*
X120228571Y-55561904D01*
X120323809Y-55561904D01*
X120419047Y-56038095D01*
X120085714Y-54704761D02*
X120895238Y-54704761D01*
X120990476Y-54752380D01*
X121038095Y-54800000D01*
X121085714Y-54895238D01*
X121085714Y-55038095D01*
X121038095Y-55133333D01*
X120704761Y-54704761D02*
X120752380Y-54800000D01*
X120752380Y-54990476D01*
X120704761Y-55085714D01*
X120657142Y-55133333D01*
X120561904Y-55180952D01*
X120276190Y-55180952D01*
X120180952Y-55133333D01*
X120133333Y-55085714D01*
X120085714Y-54990476D01*
X120085714Y-54800000D01*
X120133333Y-54704761D01*
X120752380Y-54228571D02*
X120085714Y-54228571D01*
X119752380Y-54228571D02*
X119800000Y-54276190D01*
X119847619Y-54228571D01*
X119800000Y-54180952D01*
X119752380Y-54228571D01*
X119847619Y-54228571D01*
X120704761Y-53800000D02*
X120752380Y-53704761D01*
X120752380Y-53514285D01*
X120704761Y-53419047D01*
X120609523Y-53371428D01*
X120561904Y-53371428D01*
X120466666Y-53419047D01*
X120419047Y-53514285D01*
X120419047Y-53657142D01*
X120371428Y-53752380D01*
X120276190Y-53800000D01*
X120228571Y-53800000D01*
X120133333Y-53752380D01*
X120085714Y-53657142D01*
X120085714Y-53514285D01*
X120133333Y-53419047D01*
X120085714Y-53085714D02*
X120085714Y-52704761D01*
X119752380Y-52942857D02*
X120609523Y-52942857D01*
X120704761Y-52895238D01*
X120752380Y-52800000D01*
X120752380Y-52704761D01*
X120704761Y-51990476D02*
X120752380Y-52085714D01*
X120752380Y-52276190D01*
X120704761Y-52371428D01*
X120609523Y-52419047D01*
X120228571Y-52419047D01*
X120133333Y-52371428D01*
X120085714Y-52276190D01*
X120085714Y-52085714D01*
X120133333Y-51990476D01*
X120228571Y-51942857D01*
X120323809Y-51942857D01*
X120419047Y-52419047D01*
X120752380Y-51514285D02*
X120085714Y-51514285D01*
X120276190Y-51514285D02*
X120180952Y-51466666D01*
X120133333Y-51419047D01*
X120085714Y-51323809D01*
X120085714Y-51228571D01*
X134057142Y-101852380D02*
X133723809Y-101376190D01*
X133485714Y-101852380D02*
X133485714Y-100852380D01*
X133866666Y-100852380D01*
X133961904Y-100900000D01*
X134009523Y-100947619D01*
X134057142Y-101042857D01*
X134057142Y-101185714D01*
X134009523Y-101280952D01*
X133961904Y-101328571D01*
X133866666Y-101376190D01*
X133485714Y-101376190D01*
X135009523Y-101852380D02*
X134438095Y-101852380D01*
X134723809Y-101852380D02*
X134723809Y-100852380D01*
X134628571Y-100995238D01*
X134533333Y-101090476D01*
X134438095Y-101138095D01*
X135628571Y-100852380D02*
X135723809Y-100852380D01*
X135819047Y-100900000D01*
X135866666Y-100947619D01*
X135914285Y-101042857D01*
X135961904Y-101233333D01*
X135961904Y-101471428D01*
X135914285Y-101661904D01*
X135866666Y-101757142D01*
X135819047Y-101804761D01*
X135723809Y-101852380D01*
X135628571Y-101852380D01*
X135533333Y-101804761D01*
X135485714Y-101757142D01*
X135438095Y-101661904D01*
X135390476Y-101471428D01*
X135390476Y-101233333D01*
X135438095Y-101042857D01*
X135485714Y-100947619D01*
X135533333Y-100900000D01*
X135628571Y-100852380D01*
X116333333Y-100652380D02*
X116000000Y-100176190D01*
X115761904Y-100652380D02*
X115761904Y-99652380D01*
X116142857Y-99652380D01*
X116238095Y-99700000D01*
X116285714Y-99747619D01*
X116333333Y-99842857D01*
X116333333Y-99985714D01*
X116285714Y-100080952D01*
X116238095Y-100128571D01*
X116142857Y-100176190D01*
X115761904Y-100176190D01*
X116809523Y-100652380D02*
X117000000Y-100652380D01*
X117095238Y-100604761D01*
X117142857Y-100557142D01*
X117238095Y-100414285D01*
X117285714Y-100223809D01*
X117285714Y-99842857D01*
X117238095Y-99747619D01*
X117190476Y-99700000D01*
X117095238Y-99652380D01*
X116904761Y-99652380D01*
X116809523Y-99700000D01*
X116761904Y-99747619D01*
X116714285Y-99842857D01*
X116714285Y-100080952D01*
X116761904Y-100176190D01*
X116809523Y-100223809D01*
X116904761Y-100271428D01*
X117095238Y-100271428D01*
X117190476Y-100223809D01*
X117238095Y-100176190D01*
X117285714Y-100080952D01*
X133961904Y-106102380D02*
X133961904Y-105102380D01*
X134200000Y-105102380D01*
X134342857Y-105150000D01*
X134438095Y-105245238D01*
X134485714Y-105340476D01*
X134533333Y-105530952D01*
X134533333Y-105673809D01*
X134485714Y-105864285D01*
X134438095Y-105959523D01*
X134342857Y-106054761D01*
X134200000Y-106102380D01*
X133961904Y-106102380D01*
X135390476Y-105435714D02*
X135390476Y-106102380D01*
X135152380Y-105054761D02*
X134914285Y-105769047D01*
X135533333Y-105769047D01*
X121907380Y-118950238D02*
X121431190Y-119283571D01*
X121907380Y-119521666D02*
X120907380Y-119521666D01*
X120907380Y-119140714D01*
X120955000Y-119045476D01*
X121002619Y-118997857D01*
X121097857Y-118950238D01*
X121240714Y-118950238D01*
X121335952Y-118997857D01*
X121383571Y-119045476D01*
X121431190Y-119140714D01*
X121431190Y-119521666D01*
X120907380Y-118664523D02*
X121907380Y-118331190D01*
X120907380Y-117997857D01*
X121907380Y-117140714D02*
X121907380Y-117712142D01*
X121907380Y-117426428D02*
X120907380Y-117426428D01*
X121050238Y-117521666D01*
X121145476Y-117616904D01*
X121193095Y-117712142D01*
X109877380Y-118640714D02*
X109877380Y-119212142D01*
X109877380Y-118926428D02*
X108877380Y-118926428D01*
X109020238Y-119021666D01*
X109115476Y-119116904D01*
X109163095Y-119212142D01*
X109877380Y-118212142D02*
X108877380Y-118212142D01*
X109591666Y-117878809D01*
X108877380Y-117545476D01*
X109877380Y-117545476D01*
X103704761Y-100283333D02*
X103752380Y-100140476D01*
X103752380Y-99902380D01*
X103704761Y-99807142D01*
X103657142Y-99759523D01*
X103561904Y-99711904D01*
X103466666Y-99711904D01*
X103371428Y-99759523D01*
X103323809Y-99807142D01*
X103276190Y-99902380D01*
X103228571Y-100092857D01*
X103180952Y-100188095D01*
X103133333Y-100235714D01*
X103038095Y-100283333D01*
X102942857Y-100283333D01*
X102847619Y-100235714D01*
X102800000Y-100188095D01*
X102752380Y-100092857D01*
X102752380Y-99854761D01*
X102800000Y-99711904D01*
X102752380Y-99378571D02*
X103752380Y-99140476D01*
X103038095Y-98950000D01*
X103752380Y-98759523D01*
X102752380Y-98521428D01*
X103752380Y-97616666D02*
X103752380Y-98188095D01*
X103752380Y-97902380D02*
X102752380Y-97902380D01*
X102895238Y-97997619D01*
X102990476Y-98092857D01*
X103038095Y-98188095D01*
D14*
X96321428Y-105878571D02*
X95821428Y-105164285D01*
X95464285Y-105878571D02*
X95464285Y-104378571D01*
X96035714Y-104378571D01*
X96178571Y-104450000D01*
X96250000Y-104521428D01*
X96321428Y-104664285D01*
X96321428Y-104878571D01*
X96250000Y-105021428D01*
X96178571Y-105092857D01*
X96035714Y-105164285D01*
X95464285Y-105164285D01*
X96964285Y-105092857D02*
X97464285Y-105092857D01*
X97678571Y-105878571D02*
X96964285Y-105878571D01*
X96964285Y-104378571D01*
X97678571Y-104378571D01*
X98250000Y-105807142D02*
X98464285Y-105878571D01*
X98821428Y-105878571D01*
X98964285Y-105807142D01*
X99035714Y-105735714D01*
X99107142Y-105592857D01*
X99107142Y-105450000D01*
X99035714Y-105307142D01*
X98964285Y-105235714D01*
X98821428Y-105164285D01*
X98535714Y-105092857D01*
X98392857Y-105021428D01*
X98321428Y-104950000D01*
X98250000Y-104807142D01*
X98250000Y-104664285D01*
X98321428Y-104521428D01*
X98392857Y-104450000D01*
X98535714Y-104378571D01*
X98892857Y-104378571D01*
X99107142Y-104450000D01*
X99750000Y-105092857D02*
X100250000Y-105092857D01*
X100464285Y-105878571D02*
X99750000Y-105878571D01*
X99750000Y-104378571D01*
X100464285Y-104378571D01*
X100892857Y-104378571D02*
X101750000Y-104378571D01*
X101321428Y-105878571D02*
X101321428Y-104378571D01*
D10*
X143933333Y-104552380D02*
X143600000Y-104076190D01*
X143361904Y-104552380D02*
X143361904Y-103552380D01*
X143742857Y-103552380D01*
X143838095Y-103600000D01*
X143885714Y-103647619D01*
X143933333Y-103742857D01*
X143933333Y-103885714D01*
X143885714Y-103980952D01*
X143838095Y-104028571D01*
X143742857Y-104076190D01*
X143361904Y-104076190D01*
X144266666Y-103552380D02*
X144885714Y-103552380D01*
X144552380Y-103933333D01*
X144695238Y-103933333D01*
X144790476Y-103980952D01*
X144838095Y-104028571D01*
X144885714Y-104123809D01*
X144885714Y-104361904D01*
X144838095Y-104457142D01*
X144790476Y-104504761D01*
X144695238Y-104552380D01*
X144409523Y-104552380D01*
X144314285Y-104504761D01*
X144266666Y-104457142D01*
X146885714Y-106152380D02*
X146314285Y-106152380D01*
X146600000Y-106152380D02*
X146600000Y-105152380D01*
X146504761Y-105295238D01*
X146409523Y-105390476D01*
X146314285Y-105438095D01*
X147314285Y-106152380D02*
X147314285Y-105152380D01*
X147885714Y-106152380D02*
X147457142Y-105580952D01*
X147885714Y-105152380D02*
X147314285Y-105723809D01*
X138124761Y-119523333D02*
X138172380Y-119380476D01*
X138172380Y-119142380D01*
X138124761Y-119047142D01*
X138077142Y-118999523D01*
X137981904Y-118951904D01*
X137886666Y-118951904D01*
X137791428Y-118999523D01*
X137743809Y-119047142D01*
X137696190Y-119142380D01*
X137648571Y-119332857D01*
X137600952Y-119428095D01*
X137553333Y-119475714D01*
X137458095Y-119523333D01*
X137362857Y-119523333D01*
X137267619Y-119475714D01*
X137220000Y-119428095D01*
X137172380Y-119332857D01*
X137172380Y-119094761D01*
X137220000Y-118951904D01*
X137172380Y-118618571D02*
X138172380Y-118380476D01*
X137458095Y-118190000D01*
X138172380Y-117999523D01*
X137172380Y-117761428D01*
X137172380Y-117475714D02*
X137172380Y-116856666D01*
X137553333Y-117190000D01*
X137553333Y-117047142D01*
X137600952Y-116951904D01*
X137648571Y-116904285D01*
X137743809Y-116856666D01*
X137981904Y-116856666D01*
X138077142Y-116904285D01*
X138124761Y-116951904D01*
X138172380Y-117047142D01*
X138172380Y-117332857D01*
X138124761Y-117428095D01*
X138077142Y-117475714D01*
D14*
X133592857Y-126378571D02*
X133092857Y-125664285D01*
X132735714Y-126378571D02*
X132735714Y-124878571D01*
X133307142Y-124878571D01*
X133450000Y-124950000D01*
X133521428Y-125021428D01*
X133592857Y-125164285D01*
X133592857Y-125378571D01*
X133521428Y-125521428D01*
X133450000Y-125592857D01*
X133307142Y-125664285D01*
X132735714Y-125664285D01*
X134235714Y-124878571D02*
X134235714Y-126092857D01*
X134307142Y-126235714D01*
X134378571Y-126307142D01*
X134521428Y-126378571D01*
X134807142Y-126378571D01*
X134950000Y-126307142D01*
X135021428Y-126235714D01*
X135092857Y-126092857D01*
X135092857Y-124878571D01*
X135807142Y-126378571D02*
X135807142Y-124878571D01*
X136664285Y-126378571D01*
X136664285Y-124878571D01*
X132164285Y-111107142D02*
X132378571Y-111178571D01*
X132735714Y-111178571D01*
X132878571Y-111107142D01*
X132950000Y-111035714D01*
X133021428Y-110892857D01*
X133021428Y-110750000D01*
X132950000Y-110607142D01*
X132878571Y-110535714D01*
X132735714Y-110464285D01*
X132450000Y-110392857D01*
X132307142Y-110321428D01*
X132235714Y-110250000D01*
X132164285Y-110107142D01*
X132164285Y-109964285D01*
X132235714Y-109821428D01*
X132307142Y-109750000D01*
X132450000Y-109678571D01*
X132807142Y-109678571D01*
X133021428Y-109750000D01*
X133450000Y-109678571D02*
X134307142Y-109678571D01*
X133878571Y-111178571D02*
X133878571Y-109678571D01*
X135092857Y-109678571D02*
X135378571Y-109678571D01*
X135521428Y-109750000D01*
X135664285Y-109892857D01*
X135735714Y-110178571D01*
X135735714Y-110678571D01*
X135664285Y-110964285D01*
X135521428Y-111107142D01*
X135378571Y-111178571D01*
X135092857Y-111178571D01*
X134950000Y-111107142D01*
X134807142Y-110964285D01*
X134735714Y-110678571D01*
X134735714Y-110178571D01*
X134807142Y-109892857D01*
X134950000Y-109750000D01*
X135092857Y-109678571D01*
X136378571Y-111178571D02*
X136378571Y-109678571D01*
X136950000Y-109678571D01*
X137092857Y-109750000D01*
X137164285Y-109821428D01*
X137235714Y-109964285D01*
X137235714Y-110178571D01*
X137164285Y-110321428D01*
X137092857Y-110392857D01*
X136950000Y-110464285D01*
X136378571Y-110464285D01*
D10*
X177148095Y-107422380D02*
X177148095Y-108231904D01*
X177195714Y-108327142D01*
X177243333Y-108374761D01*
X177338571Y-108422380D01*
X177529047Y-108422380D01*
X177624285Y-108374761D01*
X177671904Y-108327142D01*
X177719523Y-108231904D01*
X177719523Y-107422380D01*
X178624285Y-107755714D02*
X178624285Y-108422380D01*
X178386190Y-107374761D02*
X178148095Y-108089047D01*
X178767142Y-108089047D01*
X174743333Y-127322380D02*
X175410000Y-127322380D01*
X174981428Y-128322380D01*
X176219523Y-127655714D02*
X176219523Y-128322380D01*
X175981428Y-127274761D02*
X175743333Y-127989047D01*
X176362380Y-127989047D01*
X176743333Y-128322380D02*
X176743333Y-127322380D01*
X176743333Y-127798571D02*
X177314761Y-127798571D01*
X177314761Y-128322380D02*
X177314761Y-127322380D01*
X178362380Y-128227142D02*
X178314761Y-128274761D01*
X178171904Y-128322380D01*
X178076666Y-128322380D01*
X177933809Y-128274761D01*
X177838571Y-128179523D01*
X177790952Y-128084285D01*
X177743333Y-127893809D01*
X177743333Y-127750952D01*
X177790952Y-127560476D01*
X177838571Y-127465238D01*
X177933809Y-127370000D01*
X178076666Y-127322380D01*
X178171904Y-127322380D01*
X178314761Y-127370000D01*
X178362380Y-127417619D01*
X178648095Y-127322380D02*
X179219523Y-127322380D01*
X178933809Y-128322380D02*
X178933809Y-127322380D01*
X179505238Y-127417619D02*
X179552857Y-127370000D01*
X179648095Y-127322380D01*
X179886190Y-127322380D01*
X179981428Y-127370000D01*
X180029047Y-127417619D01*
X180076666Y-127512857D01*
X180076666Y-127608095D01*
X180029047Y-127750952D01*
X179457619Y-128322380D01*
X180076666Y-128322380D01*
X180410000Y-127322380D02*
X181076666Y-127322380D01*
X180648095Y-128322380D01*
X171876190Y-128752380D02*
X172495238Y-128752380D01*
X172161904Y-129133333D01*
X172304761Y-129133333D01*
X172400000Y-129180952D01*
X172447619Y-129228571D01*
X172495238Y-129323809D01*
X172495238Y-129561904D01*
X172447619Y-129657142D01*
X172400000Y-129704761D01*
X172304761Y-129752380D01*
X172019047Y-129752380D01*
X171923809Y-129704761D01*
X171876190Y-129657142D01*
X172923809Y-129371428D02*
X173685714Y-129371428D01*
X174161904Y-129752380D02*
X174161904Y-129085714D01*
X174161904Y-128752380D02*
X174114285Y-128800000D01*
X174161904Y-128847619D01*
X174209523Y-128800000D01*
X174161904Y-128752380D01*
X174161904Y-128847619D01*
X174638095Y-129085714D02*
X174638095Y-129752380D01*
X174638095Y-129180952D02*
X174685714Y-129133333D01*
X174780952Y-129085714D01*
X174923809Y-129085714D01*
X175019047Y-129133333D01*
X175066666Y-129228571D01*
X175066666Y-129752380D01*
X176304761Y-129752380D02*
X176304761Y-128752380D01*
X176876190Y-129752380D01*
X176876190Y-128752380D01*
X177542857Y-128752380D02*
X177733333Y-128752380D01*
X177828571Y-128800000D01*
X177923809Y-128895238D01*
X177971428Y-129085714D01*
X177971428Y-129419047D01*
X177923809Y-129609523D01*
X177828571Y-129704761D01*
X177733333Y-129752380D01*
X177542857Y-129752380D01*
X177447619Y-129704761D01*
X177352380Y-129609523D01*
X177304761Y-129419047D01*
X177304761Y-129085714D01*
X177352380Y-128895238D01*
X177447619Y-128800000D01*
X177542857Y-128752380D01*
X178971428Y-129752380D02*
X178638095Y-129276190D01*
X178400000Y-129752380D02*
X178400000Y-128752380D01*
X178780952Y-128752380D01*
X178876190Y-128800000D01*
X178923809Y-128847619D01*
X178971428Y-128942857D01*
X178971428Y-129085714D01*
X178923809Y-129180952D01*
X178876190Y-129228571D01*
X178780952Y-129276190D01*
X178400000Y-129276190D01*
X180685714Y-128800000D02*
X180590476Y-128752380D01*
X180447619Y-128752380D01*
X180304761Y-128800000D01*
X180209523Y-128895238D01*
X180161904Y-128990476D01*
X180114285Y-129180952D01*
X180114285Y-129323809D01*
X180161904Y-129514285D01*
X180209523Y-129609523D01*
X180304761Y-129704761D01*
X180447619Y-129752380D01*
X180542857Y-129752380D01*
X180685714Y-129704761D01*
X180733333Y-129657142D01*
X180733333Y-129323809D01*
X180542857Y-129323809D01*
X181590476Y-129752380D02*
X181590476Y-129228571D01*
X181542857Y-129133333D01*
X181447619Y-129085714D01*
X181257142Y-129085714D01*
X181161904Y-129133333D01*
X181590476Y-129704761D02*
X181495238Y-129752380D01*
X181257142Y-129752380D01*
X181161904Y-129704761D01*
X181114285Y-129609523D01*
X181114285Y-129514285D01*
X181161904Y-129419047D01*
X181257142Y-129371428D01*
X181495238Y-129371428D01*
X181590476Y-129323809D01*
X181923809Y-129085714D02*
X182304761Y-129085714D01*
X182066666Y-128752380D02*
X182066666Y-129609523D01*
X182114285Y-129704761D01*
X182209523Y-129752380D01*
X182304761Y-129752380D01*
X183019047Y-129704761D02*
X182923809Y-129752380D01*
X182733333Y-129752380D01*
X182638095Y-129704761D01*
X182590476Y-129609523D01*
X182590476Y-129228571D01*
X182638095Y-129133333D01*
X182733333Y-129085714D01*
X182923809Y-129085714D01*
X183019047Y-129133333D01*
X183066666Y-129228571D01*
X183066666Y-129323809D01*
X182590476Y-129419047D01*
X183447619Y-129704761D02*
X183542857Y-129752380D01*
X183733333Y-129752380D01*
X183828571Y-129704761D01*
X183876190Y-129609523D01*
X183876190Y-129561904D01*
X183828571Y-129466666D01*
X183733333Y-129419047D01*
X183590476Y-129419047D01*
X183495238Y-129371428D01*
X183447619Y-129276190D01*
X183447619Y-129228571D01*
X183495238Y-129133333D01*
X183590476Y-129085714D01*
X183733333Y-129085714D01*
X183828571Y-129133333D01*
X153848095Y-107422380D02*
X153848095Y-108231904D01*
X153895714Y-108327142D01*
X153943333Y-108374761D01*
X154038571Y-108422380D01*
X154229047Y-108422380D01*
X154324285Y-108374761D01*
X154371904Y-108327142D01*
X154419523Y-108231904D01*
X154419523Y-107422380D01*
X154800476Y-107422380D02*
X155467142Y-107422380D01*
X155038571Y-108422380D01*
X152443333Y-128322380D02*
X152443333Y-127322380D01*
X153014761Y-128322380D01*
X153014761Y-127322380D01*
X153490952Y-127798571D02*
X153824285Y-127798571D01*
X153967142Y-128322380D02*
X153490952Y-128322380D01*
X153490952Y-127322380D01*
X153967142Y-127322380D01*
X154871904Y-127322380D02*
X154395714Y-127322380D01*
X154348095Y-127798571D01*
X154395714Y-127750952D01*
X154490952Y-127703333D01*
X154729047Y-127703333D01*
X154824285Y-127750952D01*
X154871904Y-127798571D01*
X154919523Y-127893809D01*
X154919523Y-128131904D01*
X154871904Y-128227142D01*
X154824285Y-128274761D01*
X154729047Y-128322380D01*
X154490952Y-128322380D01*
X154395714Y-128274761D01*
X154348095Y-128227142D01*
X155824285Y-127322380D02*
X155348095Y-127322380D01*
X155300476Y-127798571D01*
X155348095Y-127750952D01*
X155443333Y-127703333D01*
X155681428Y-127703333D01*
X155776666Y-127750952D01*
X155824285Y-127798571D01*
X155871904Y-127893809D01*
X155871904Y-128131904D01*
X155824285Y-128227142D01*
X155776666Y-128274761D01*
X155681428Y-128322380D01*
X155443333Y-128322380D01*
X155348095Y-128274761D01*
X155300476Y-128227142D01*
X156729047Y-127322380D02*
X156538571Y-127322380D01*
X156443333Y-127370000D01*
X156395714Y-127417619D01*
X156300476Y-127560476D01*
X156252857Y-127750952D01*
X156252857Y-128131904D01*
X156300476Y-128227142D01*
X156348095Y-128274761D01*
X156443333Y-128322380D01*
X156633809Y-128322380D01*
X156729047Y-128274761D01*
X156776666Y-128227142D01*
X156824285Y-128131904D01*
X156824285Y-127893809D01*
X156776666Y-127798571D01*
X156729047Y-127750952D01*
X156633809Y-127703333D01*
X156443333Y-127703333D01*
X156348095Y-127750952D01*
X156300476Y-127798571D01*
X156252857Y-127893809D01*
X150866666Y-129752380D02*
X150866666Y-128752380D01*
X151104761Y-128752380D01*
X151247619Y-128800000D01*
X151342857Y-128895238D01*
X151390476Y-128990476D01*
X151438095Y-129180952D01*
X151438095Y-129323809D01*
X151390476Y-129514285D01*
X151342857Y-129609523D01*
X151247619Y-129704761D01*
X151104761Y-129752380D01*
X150866666Y-129752380D01*
X152295238Y-129085714D02*
X152295238Y-129752380D01*
X151866666Y-129085714D02*
X151866666Y-129609523D01*
X151914285Y-129704761D01*
X152009523Y-129752380D01*
X152152380Y-129752380D01*
X152247619Y-129704761D01*
X152295238Y-129657142D01*
X153200000Y-129752380D02*
X153200000Y-129228571D01*
X153152380Y-129133333D01*
X153057142Y-129085714D01*
X152866666Y-129085714D01*
X152771428Y-129133333D01*
X153200000Y-129704761D02*
X153104761Y-129752380D01*
X152866666Y-129752380D01*
X152771428Y-129704761D01*
X152723809Y-129609523D01*
X152723809Y-129514285D01*
X152771428Y-129419047D01*
X152866666Y-129371428D01*
X153104761Y-129371428D01*
X153200000Y-129323809D01*
X153819047Y-129752380D02*
X153723809Y-129704761D01*
X153676190Y-129609523D01*
X153676190Y-128752380D01*
X154819047Y-128752380D02*
X155390476Y-128752380D01*
X155104761Y-129752380D02*
X155104761Y-128752380D01*
X155723809Y-129752380D02*
X155723809Y-129085714D01*
X155723809Y-128752380D02*
X155676190Y-128800000D01*
X155723809Y-128847619D01*
X155771428Y-128800000D01*
X155723809Y-128752380D01*
X155723809Y-128847619D01*
X156200000Y-129752380D02*
X156200000Y-129085714D01*
X156200000Y-129180952D02*
X156247619Y-129133333D01*
X156342857Y-129085714D01*
X156485714Y-129085714D01*
X156580952Y-129133333D01*
X156628571Y-129228571D01*
X156628571Y-129752380D01*
X156628571Y-129228571D02*
X156676190Y-129133333D01*
X156771428Y-129085714D01*
X156914285Y-129085714D01*
X157009523Y-129133333D01*
X157057142Y-129228571D01*
X157057142Y-129752380D01*
X157914285Y-129704761D02*
X157819047Y-129752380D01*
X157628571Y-129752380D01*
X157533333Y-129704761D01*
X157485714Y-129609523D01*
X157485714Y-129228571D01*
X157533333Y-129133333D01*
X157628571Y-129085714D01*
X157819047Y-129085714D01*
X157914285Y-129133333D01*
X157961904Y-129228571D01*
X157961904Y-129323809D01*
X157485714Y-129419047D01*
X158390476Y-129752380D02*
X158390476Y-129085714D01*
X158390476Y-129276190D02*
X158438095Y-129180952D01*
X158485714Y-129133333D01*
X158580952Y-129085714D01*
X158676190Y-129085714D01*
X152848095Y-78522380D02*
X152848095Y-79331904D01*
X152895714Y-79427142D01*
X152943333Y-79474761D01*
X153038571Y-79522380D01*
X153229047Y-79522380D01*
X153324285Y-79474761D01*
X153371904Y-79427142D01*
X153419523Y-79331904D01*
X153419523Y-78522380D01*
X154324285Y-78522380D02*
X154133809Y-78522380D01*
X154038571Y-78570000D01*
X153990952Y-78617619D01*
X153895714Y-78760476D01*
X153848095Y-78950952D01*
X153848095Y-79331904D01*
X153895714Y-79427142D01*
X153943333Y-79474761D01*
X154038571Y-79522380D01*
X154229047Y-79522380D01*
X154324285Y-79474761D01*
X154371904Y-79427142D01*
X154419523Y-79331904D01*
X154419523Y-79093809D01*
X154371904Y-78998571D01*
X154324285Y-78950952D01*
X154229047Y-78903333D01*
X154038571Y-78903333D01*
X153943333Y-78950952D01*
X153895714Y-78998571D01*
X153848095Y-79093809D01*
X150443333Y-98422380D02*
X151110000Y-98422380D01*
X150681428Y-99422380D01*
X151919523Y-98755714D02*
X151919523Y-99422380D01*
X151681428Y-98374761D02*
X151443333Y-99089047D01*
X152062380Y-99089047D01*
X152443333Y-99422380D02*
X152443333Y-98422380D01*
X152443333Y-98898571D02*
X153014761Y-98898571D01*
X153014761Y-99422380D02*
X153014761Y-98422380D01*
X154062380Y-99327142D02*
X154014761Y-99374761D01*
X153871904Y-99422380D01*
X153776666Y-99422380D01*
X153633809Y-99374761D01*
X153538571Y-99279523D01*
X153490952Y-99184285D01*
X153443333Y-98993809D01*
X153443333Y-98850952D01*
X153490952Y-98660476D01*
X153538571Y-98565238D01*
X153633809Y-98470000D01*
X153776666Y-98422380D01*
X153871904Y-98422380D01*
X154014761Y-98470000D01*
X154062380Y-98517619D01*
X154348095Y-98422380D02*
X154919523Y-98422380D01*
X154633809Y-99422380D02*
X154633809Y-98422380D01*
X155443333Y-98422380D02*
X155538571Y-98422380D01*
X155633809Y-98470000D01*
X155681428Y-98517619D01*
X155729047Y-98612857D01*
X155776666Y-98803333D01*
X155776666Y-99041428D01*
X155729047Y-99231904D01*
X155681428Y-99327142D01*
X155633809Y-99374761D01*
X155538571Y-99422380D01*
X155443333Y-99422380D01*
X155348095Y-99374761D01*
X155300476Y-99327142D01*
X155252857Y-99231904D01*
X155205238Y-99041428D01*
X155205238Y-98803333D01*
X155252857Y-98612857D01*
X155300476Y-98517619D01*
X155348095Y-98470000D01*
X155443333Y-98422380D01*
X156348095Y-98850952D02*
X156252857Y-98803333D01*
X156205238Y-98755714D01*
X156157619Y-98660476D01*
X156157619Y-98612857D01*
X156205238Y-98517619D01*
X156252857Y-98470000D01*
X156348095Y-98422380D01*
X156538571Y-98422380D01*
X156633809Y-98470000D01*
X156681428Y-98517619D01*
X156729047Y-98612857D01*
X156729047Y-98660476D01*
X156681428Y-98755714D01*
X156633809Y-98803333D01*
X156538571Y-98850952D01*
X156348095Y-98850952D01*
X156252857Y-98898571D01*
X156205238Y-98946190D01*
X156157619Y-99041428D01*
X156157619Y-99231904D01*
X156205238Y-99327142D01*
X156252857Y-99374761D01*
X156348095Y-99422380D01*
X156538571Y-99422380D01*
X156633809Y-99374761D01*
X156681428Y-99327142D01*
X156729047Y-99231904D01*
X156729047Y-99041428D01*
X156681428Y-98946190D01*
X156633809Y-98898571D01*
X156538571Y-98850952D01*
X149885714Y-100466666D02*
X150361904Y-100466666D01*
X149790476Y-100752380D02*
X150123809Y-99752380D01*
X150457142Y-100752380D01*
X150790476Y-100752380D02*
X150790476Y-99752380D01*
X151361904Y-100752380D01*
X151361904Y-99752380D01*
X151838095Y-100752380D02*
X151838095Y-99752380D01*
X152076190Y-99752380D01*
X152219047Y-99800000D01*
X152314285Y-99895238D01*
X152361904Y-99990476D01*
X152409523Y-100180952D01*
X152409523Y-100323809D01*
X152361904Y-100514285D01*
X152314285Y-100609523D01*
X152219047Y-100704761D01*
X152076190Y-100752380D01*
X151838095Y-100752380D01*
X154123809Y-99800000D02*
X154028571Y-99752380D01*
X153885714Y-99752380D01*
X153742857Y-99800000D01*
X153647619Y-99895238D01*
X153600000Y-99990476D01*
X153552380Y-100180952D01*
X153552380Y-100323809D01*
X153600000Y-100514285D01*
X153647619Y-100609523D01*
X153742857Y-100704761D01*
X153885714Y-100752380D01*
X153980952Y-100752380D01*
X154123809Y-100704761D01*
X154171428Y-100657142D01*
X154171428Y-100323809D01*
X153980952Y-100323809D01*
X155028571Y-100752380D02*
X155028571Y-100228571D01*
X154980952Y-100133333D01*
X154885714Y-100085714D01*
X154695238Y-100085714D01*
X154600000Y-100133333D01*
X155028571Y-100704761D02*
X154933333Y-100752380D01*
X154695238Y-100752380D01*
X154600000Y-100704761D01*
X154552380Y-100609523D01*
X154552380Y-100514285D01*
X154600000Y-100419047D01*
X154695238Y-100371428D01*
X154933333Y-100371428D01*
X155028571Y-100323809D01*
X155361904Y-100085714D02*
X155742857Y-100085714D01*
X155504761Y-99752380D02*
X155504761Y-100609523D01*
X155552380Y-100704761D01*
X155647619Y-100752380D01*
X155742857Y-100752380D01*
X156457142Y-100704761D02*
X156361904Y-100752380D01*
X156171428Y-100752380D01*
X156076190Y-100704761D01*
X156028571Y-100609523D01*
X156028571Y-100228571D01*
X156076190Y-100133333D01*
X156171428Y-100085714D01*
X156361904Y-100085714D01*
X156457142Y-100133333D01*
X156504761Y-100228571D01*
X156504761Y-100323809D01*
X156028571Y-100419047D01*
X156885714Y-100704761D02*
X156980952Y-100752380D01*
X157171428Y-100752380D01*
X157266666Y-100704761D01*
X157314285Y-100609523D01*
X157314285Y-100561904D01*
X157266666Y-100466666D01*
X157171428Y-100419047D01*
X157028571Y-100419047D01*
X156933333Y-100371428D01*
X156885714Y-100276190D01*
X156885714Y-100228571D01*
X156933333Y-100133333D01*
X157028571Y-100085714D01*
X157171428Y-100085714D01*
X157266666Y-100133333D01*
X166348095Y-78522380D02*
X166348095Y-79331904D01*
X166395714Y-79427142D01*
X166443333Y-79474761D01*
X166538571Y-79522380D01*
X166729047Y-79522380D01*
X166824285Y-79474761D01*
X166871904Y-79427142D01*
X166919523Y-79331904D01*
X166919523Y-78522380D01*
X167871904Y-78522380D02*
X167395714Y-78522380D01*
X167348095Y-78998571D01*
X167395714Y-78950952D01*
X167490952Y-78903333D01*
X167729047Y-78903333D01*
X167824285Y-78950952D01*
X167871904Y-78998571D01*
X167919523Y-79093809D01*
X167919523Y-79331904D01*
X167871904Y-79427142D01*
X167824285Y-79474761D01*
X167729047Y-79522380D01*
X167490952Y-79522380D01*
X167395714Y-79474761D01*
X167348095Y-79427142D01*
X163943333Y-98422380D02*
X164610000Y-98422380D01*
X164181428Y-99422380D01*
X165419523Y-98755714D02*
X165419523Y-99422380D01*
X165181428Y-98374761D02*
X164943333Y-99089047D01*
X165562380Y-99089047D01*
X165943333Y-99422380D02*
X165943333Y-98422380D01*
X165943333Y-98898571D02*
X166514761Y-98898571D01*
X166514761Y-99422380D02*
X166514761Y-98422380D01*
X167562380Y-99327142D02*
X167514761Y-99374761D01*
X167371904Y-99422380D01*
X167276666Y-99422380D01*
X167133809Y-99374761D01*
X167038571Y-99279523D01*
X166990952Y-99184285D01*
X166943333Y-98993809D01*
X166943333Y-98850952D01*
X166990952Y-98660476D01*
X167038571Y-98565238D01*
X167133809Y-98470000D01*
X167276666Y-98422380D01*
X167371904Y-98422380D01*
X167514761Y-98470000D01*
X167562380Y-98517619D01*
X167848095Y-98422380D02*
X168419523Y-98422380D01*
X168133809Y-99422380D02*
X168133809Y-98422380D01*
X168943333Y-98422380D02*
X169038571Y-98422380D01*
X169133809Y-98470000D01*
X169181428Y-98517619D01*
X169229047Y-98612857D01*
X169276666Y-98803333D01*
X169276666Y-99041428D01*
X169229047Y-99231904D01*
X169181428Y-99327142D01*
X169133809Y-99374761D01*
X169038571Y-99422380D01*
X168943333Y-99422380D01*
X168848095Y-99374761D01*
X168800476Y-99327142D01*
X168752857Y-99231904D01*
X168705238Y-99041428D01*
X168705238Y-98803333D01*
X168752857Y-98612857D01*
X168800476Y-98517619D01*
X168848095Y-98470000D01*
X168943333Y-98422380D01*
X170133809Y-98755714D02*
X170133809Y-99422380D01*
X169895714Y-98374761D02*
X169657619Y-99089047D01*
X170276666Y-99089047D01*
X162666666Y-100652380D02*
X162666666Y-99652380D01*
X162666666Y-100128571D02*
X163238095Y-100128571D01*
X163238095Y-100652380D02*
X163238095Y-99652380D01*
X164095238Y-100604761D02*
X164000000Y-100652380D01*
X163809523Y-100652380D01*
X163714285Y-100604761D01*
X163666666Y-100509523D01*
X163666666Y-100128571D01*
X163714285Y-100033333D01*
X163809523Y-99985714D01*
X164000000Y-99985714D01*
X164095238Y-100033333D01*
X164142857Y-100128571D01*
X164142857Y-100223809D01*
X163666666Y-100319047D01*
X164476190Y-100652380D02*
X165000000Y-99985714D01*
X164476190Y-99985714D02*
X165000000Y-100652380D01*
X166142857Y-100652380D02*
X166142857Y-99652380D01*
X166619047Y-99985714D02*
X166619047Y-100652380D01*
X166619047Y-100080952D02*
X166666666Y-100033333D01*
X166761904Y-99985714D01*
X166904761Y-99985714D01*
X167000000Y-100033333D01*
X167047619Y-100128571D01*
X167047619Y-100652380D01*
X167428571Y-99985714D02*
X167666666Y-100652380D01*
X167904761Y-99985714D01*
X168666666Y-100604761D02*
X168571428Y-100652380D01*
X168380952Y-100652380D01*
X168285714Y-100604761D01*
X168238095Y-100509523D01*
X168238095Y-100128571D01*
X168285714Y-100033333D01*
X168380952Y-99985714D01*
X168571428Y-99985714D01*
X168666666Y-100033333D01*
X168714285Y-100128571D01*
X168714285Y-100223809D01*
X168238095Y-100319047D01*
X169142857Y-100652380D02*
X169142857Y-99985714D01*
X169142857Y-100176190D02*
X169190476Y-100080952D01*
X169238095Y-100033333D01*
X169333333Y-99985714D01*
X169428571Y-99985714D01*
X169619047Y-99985714D02*
X170000000Y-99985714D01*
X169761904Y-99652380D02*
X169761904Y-100509523D01*
X169809523Y-100604761D01*
X169904761Y-100652380D01*
X170000000Y-100652380D01*
X170714285Y-100604761D02*
X170619047Y-100652380D01*
X170428571Y-100652380D01*
X170333333Y-100604761D01*
X170285714Y-100509523D01*
X170285714Y-100128571D01*
X170333333Y-100033333D01*
X170428571Y-99985714D01*
X170619047Y-99985714D01*
X170714285Y-100033333D01*
X170761904Y-100128571D01*
X170761904Y-100223809D01*
X170285714Y-100319047D01*
X171190476Y-100652380D02*
X171190476Y-99985714D01*
X171190476Y-100176190D02*
X171238095Y-100080952D01*
X171285714Y-100033333D01*
X171380952Y-99985714D01*
X171476190Y-99985714D01*
X126433333Y-119452380D02*
X126100000Y-118976190D01*
X125861904Y-119452380D02*
X125861904Y-118452380D01*
X126242857Y-118452380D01*
X126338095Y-118500000D01*
X126385714Y-118547619D01*
X126433333Y-118642857D01*
X126433333Y-118785714D01*
X126385714Y-118880952D01*
X126338095Y-118928571D01*
X126242857Y-118976190D01*
X125861904Y-118976190D01*
X127004761Y-118880952D02*
X126909523Y-118833333D01*
X126861904Y-118785714D01*
X126814285Y-118690476D01*
X126814285Y-118642857D01*
X126861904Y-118547619D01*
X126909523Y-118500000D01*
X127004761Y-118452380D01*
X127195238Y-118452380D01*
X127290476Y-118500000D01*
X127338095Y-118547619D01*
X127385714Y-118642857D01*
X127385714Y-118690476D01*
X127338095Y-118785714D01*
X127290476Y-118833333D01*
X127195238Y-118880952D01*
X127004761Y-118880952D01*
X126909523Y-118928571D01*
X126861904Y-118976190D01*
X126814285Y-119071428D01*
X126814285Y-119261904D01*
X126861904Y-119357142D01*
X126909523Y-119404761D01*
X127004761Y-119452380D01*
X127195238Y-119452380D01*
X127290476Y-119404761D01*
X127338095Y-119357142D01*
X127385714Y-119261904D01*
X127385714Y-119071428D01*
X127338095Y-118976190D01*
X127290476Y-118928571D01*
X127195238Y-118880952D01*
X129485714Y-121152380D02*
X128914285Y-121152380D01*
X129200000Y-121152380D02*
X129200000Y-120152380D01*
X129104761Y-120295238D01*
X129009523Y-120390476D01*
X128914285Y-120438095D01*
X129914285Y-121152380D02*
X129914285Y-120152380D01*
X130485714Y-121152380D02*
X130057142Y-120580952D01*
X130485714Y-120152380D02*
X129914285Y-120723809D01*
X126433333Y-114502380D02*
X126100000Y-114026190D01*
X125861904Y-114502380D02*
X125861904Y-113502380D01*
X126242857Y-113502380D01*
X126338095Y-113550000D01*
X126385714Y-113597619D01*
X126433333Y-113692857D01*
X126433333Y-113835714D01*
X126385714Y-113930952D01*
X126338095Y-113978571D01*
X126242857Y-114026190D01*
X125861904Y-114026190D01*
X126766666Y-113502380D02*
X127433333Y-113502380D01*
X127004761Y-114502380D01*
X129485714Y-116152380D02*
X128914285Y-116152380D01*
X129200000Y-116152380D02*
X129200000Y-115152380D01*
X129104761Y-115295238D01*
X129009523Y-115390476D01*
X128914285Y-115438095D01*
X129914285Y-116152380D02*
X129914285Y-115152380D01*
X130485714Y-116152380D02*
X130057142Y-115580952D01*
X130485714Y-115152380D02*
X129914285Y-115723809D01*
X164533333Y-106452380D02*
X164200000Y-105976190D01*
X163961904Y-106452380D02*
X163961904Y-105452380D01*
X164342857Y-105452380D01*
X164438095Y-105500000D01*
X164485714Y-105547619D01*
X164533333Y-105642857D01*
X164533333Y-105785714D01*
X164485714Y-105880952D01*
X164438095Y-105928571D01*
X164342857Y-105976190D01*
X163961904Y-105976190D01*
X165390476Y-105452380D02*
X165200000Y-105452380D01*
X165104761Y-105500000D01*
X165057142Y-105547619D01*
X164961904Y-105690476D01*
X164914285Y-105880952D01*
X164914285Y-106261904D01*
X164961904Y-106357142D01*
X165009523Y-106404761D01*
X165104761Y-106452380D01*
X165295238Y-106452380D01*
X165390476Y-106404761D01*
X165438095Y-106357142D01*
X165485714Y-106261904D01*
X165485714Y-106023809D01*
X165438095Y-105928571D01*
X165390476Y-105880952D01*
X165295238Y-105833333D01*
X165104761Y-105833333D01*
X165009523Y-105880952D01*
X164961904Y-105928571D01*
X164914285Y-106023809D01*
X167414285Y-108152380D02*
X166842857Y-108152380D01*
X167128571Y-108152380D02*
X167128571Y-107152380D01*
X167033333Y-107295238D01*
X166938095Y-107390476D01*
X166842857Y-107438095D01*
X167842857Y-108152380D02*
X167842857Y-107152380D01*
X168176190Y-107866666D01*
X168509523Y-107152380D01*
X168509523Y-108152380D01*
X164533333Y-124352380D02*
X164200000Y-123876190D01*
X163961904Y-124352380D02*
X163961904Y-123352380D01*
X164342857Y-123352380D01*
X164438095Y-123400000D01*
X164485714Y-123447619D01*
X164533333Y-123542857D01*
X164533333Y-123685714D01*
X164485714Y-123780952D01*
X164438095Y-123828571D01*
X164342857Y-123876190D01*
X163961904Y-123876190D01*
X165438095Y-123352380D02*
X164961904Y-123352380D01*
X164914285Y-123828571D01*
X164961904Y-123780952D01*
X165057142Y-123733333D01*
X165295238Y-123733333D01*
X165390476Y-123780952D01*
X165438095Y-123828571D01*
X165485714Y-123923809D01*
X165485714Y-124161904D01*
X165438095Y-124257142D01*
X165390476Y-124304761D01*
X165295238Y-124352380D01*
X165057142Y-124352380D01*
X164961904Y-124304761D01*
X164914285Y-124257142D01*
X164385714Y-127652380D02*
X163814285Y-127652380D01*
X164100000Y-127652380D02*
X164100000Y-126652380D01*
X164004761Y-126795238D01*
X163909523Y-126890476D01*
X163814285Y-126938095D01*
X164814285Y-127652380D02*
X164814285Y-126652380D01*
X165385714Y-127652380D02*
X164957142Y-127080952D01*
X165385714Y-126652380D02*
X164814285Y-127223809D01*
X143933333Y-109102380D02*
X143600000Y-108626190D01*
X143361904Y-109102380D02*
X143361904Y-108102380D01*
X143742857Y-108102380D01*
X143838095Y-108150000D01*
X143885714Y-108197619D01*
X143933333Y-108292857D01*
X143933333Y-108435714D01*
X143885714Y-108530952D01*
X143838095Y-108578571D01*
X143742857Y-108626190D01*
X143361904Y-108626190D01*
X144790476Y-108435714D02*
X144790476Y-109102380D01*
X144552380Y-108054761D02*
X144314285Y-108769047D01*
X144933333Y-108769047D01*
X146885714Y-110752380D02*
X146314285Y-110752380D01*
X146600000Y-110752380D02*
X146600000Y-109752380D01*
X146504761Y-109895238D01*
X146409523Y-109990476D01*
X146314285Y-110038095D01*
X147314285Y-110752380D02*
X147314285Y-109752380D01*
X147885714Y-110752380D02*
X147457142Y-110180952D01*
X147885714Y-109752380D02*
X147314285Y-110323809D01*
X164157142Y-111477142D02*
X164109523Y-111524761D01*
X163966666Y-111572380D01*
X163871428Y-111572380D01*
X163728571Y-111524761D01*
X163633333Y-111429523D01*
X163585714Y-111334285D01*
X163538095Y-111143809D01*
X163538095Y-111000952D01*
X163585714Y-110810476D01*
X163633333Y-110715238D01*
X163728571Y-110620000D01*
X163871428Y-110572380D01*
X163966666Y-110572380D01*
X164109523Y-110620000D01*
X164157142Y-110667619D01*
X165109523Y-111572380D02*
X164538095Y-111572380D01*
X164823809Y-111572380D02*
X164823809Y-110572380D01*
X164728571Y-110715238D01*
X164633333Y-110810476D01*
X164538095Y-110858095D01*
X165490476Y-110667619D02*
X165538095Y-110620000D01*
X165633333Y-110572380D01*
X165871428Y-110572380D01*
X165966666Y-110620000D01*
X166014285Y-110667619D01*
X166061904Y-110762857D01*
X166061904Y-110858095D01*
X166014285Y-111000952D01*
X165442857Y-111572380D01*
X166061904Y-111572380D01*
X163157142Y-113932380D02*
X163252380Y-113932380D01*
X163347619Y-113980000D01*
X163395238Y-114027619D01*
X163442857Y-114122857D01*
X163490476Y-114313333D01*
X163490476Y-114551428D01*
X163442857Y-114741904D01*
X163395238Y-114837142D01*
X163347619Y-114884761D01*
X163252380Y-114932380D01*
X163157142Y-114932380D01*
X163061904Y-114884761D01*
X163014285Y-114837142D01*
X162966666Y-114741904D01*
X162919047Y-114551428D01*
X162919047Y-114313333D01*
X162966666Y-114122857D01*
X163014285Y-114027619D01*
X163061904Y-113980000D01*
X163157142Y-113932380D01*
X163919047Y-114837142D02*
X163966666Y-114884761D01*
X163919047Y-114932380D01*
X163871428Y-114884761D01*
X163919047Y-114837142D01*
X163919047Y-114932380D01*
X164919047Y-114932380D02*
X164347619Y-114932380D01*
X164633333Y-114932380D02*
X164633333Y-113932380D01*
X164538095Y-114075238D01*
X164442857Y-114170476D01*
X164347619Y-114218095D01*
X165776190Y-114265714D02*
X165776190Y-114932380D01*
X165347619Y-114265714D02*
X165347619Y-114789523D01*
X165395238Y-114884761D01*
X165490476Y-114932380D01*
X165633333Y-114932380D01*
X165728571Y-114884761D01*
X165776190Y-114837142D01*
X166585714Y-114408571D02*
X166252380Y-114408571D01*
X166252380Y-114932380D02*
X166252380Y-113932380D01*
X166728571Y-113932380D01*
X164057142Y-116577142D02*
X164009523Y-116624761D01*
X163866666Y-116672380D01*
X163771428Y-116672380D01*
X163628571Y-116624761D01*
X163533333Y-116529523D01*
X163485714Y-116434285D01*
X163438095Y-116243809D01*
X163438095Y-116100952D01*
X163485714Y-115910476D01*
X163533333Y-115815238D01*
X163628571Y-115720000D01*
X163771428Y-115672380D01*
X163866666Y-115672380D01*
X164009523Y-115720000D01*
X164057142Y-115767619D01*
X165009523Y-116672380D02*
X164438095Y-116672380D01*
X164723809Y-116672380D02*
X164723809Y-115672380D01*
X164628571Y-115815238D01*
X164533333Y-115910476D01*
X164438095Y-115958095D01*
X165961904Y-116672380D02*
X165390476Y-116672380D01*
X165676190Y-116672380D02*
X165676190Y-115672380D01*
X165580952Y-115815238D01*
X165485714Y-115910476D01*
X165390476Y-115958095D01*
X162580952Y-119032380D02*
X162676190Y-119032380D01*
X162771428Y-119080000D01*
X162819047Y-119127619D01*
X162866666Y-119222857D01*
X162914285Y-119413333D01*
X162914285Y-119651428D01*
X162866666Y-119841904D01*
X162819047Y-119937142D01*
X162771428Y-119984761D01*
X162676190Y-120032380D01*
X162580952Y-120032380D01*
X162485714Y-119984761D01*
X162438095Y-119937142D01*
X162390476Y-119841904D01*
X162342857Y-119651428D01*
X162342857Y-119413333D01*
X162390476Y-119222857D01*
X162438095Y-119127619D01*
X162485714Y-119080000D01*
X162580952Y-119032380D01*
X163342857Y-119937142D02*
X163390476Y-119984761D01*
X163342857Y-120032380D01*
X163295238Y-119984761D01*
X163342857Y-119937142D01*
X163342857Y-120032380D01*
X164009523Y-119032380D02*
X164104761Y-119032380D01*
X164200000Y-119080000D01*
X164247619Y-119127619D01*
X164295238Y-119222857D01*
X164342857Y-119413333D01*
X164342857Y-119651428D01*
X164295238Y-119841904D01*
X164247619Y-119937142D01*
X164200000Y-119984761D01*
X164104761Y-120032380D01*
X164009523Y-120032380D01*
X163914285Y-119984761D01*
X163866666Y-119937142D01*
X163819047Y-119841904D01*
X163771428Y-119651428D01*
X163771428Y-119413333D01*
X163819047Y-119222857D01*
X163866666Y-119127619D01*
X163914285Y-119080000D01*
X164009523Y-119032380D01*
X165295238Y-120032380D02*
X164723809Y-120032380D01*
X165009523Y-120032380D02*
X165009523Y-119032380D01*
X164914285Y-119175238D01*
X164819047Y-119270476D01*
X164723809Y-119318095D01*
X166152380Y-119365714D02*
X166152380Y-120032380D01*
X165723809Y-119365714D02*
X165723809Y-119889523D01*
X165771428Y-119984761D01*
X165866666Y-120032380D01*
X166009523Y-120032380D01*
X166104761Y-119984761D01*
X166152380Y-119937142D01*
X166961904Y-119508571D02*
X166628571Y-119508571D01*
X166628571Y-120032380D02*
X166628571Y-119032380D01*
X167104761Y-119032380D01*
X143457142Y-121657142D02*
X143409523Y-121704761D01*
X143266666Y-121752380D01*
X143171428Y-121752380D01*
X143028571Y-121704761D01*
X142933333Y-121609523D01*
X142885714Y-121514285D01*
X142838095Y-121323809D01*
X142838095Y-121180952D01*
X142885714Y-120990476D01*
X142933333Y-120895238D01*
X143028571Y-120800000D01*
X143171428Y-120752380D01*
X143266666Y-120752380D01*
X143409523Y-120800000D01*
X143457142Y-120847619D01*
X144409523Y-121752380D02*
X143838095Y-121752380D01*
X144123809Y-121752380D02*
X144123809Y-120752380D01*
X144028571Y-120895238D01*
X143933333Y-120990476D01*
X143838095Y-121038095D01*
X145028571Y-120752380D02*
X145123809Y-120752380D01*
X145219047Y-120800000D01*
X145266666Y-120847619D01*
X145314285Y-120942857D01*
X145361904Y-121133333D01*
X145361904Y-121371428D01*
X145314285Y-121561904D01*
X145266666Y-121657142D01*
X145219047Y-121704761D01*
X145123809Y-121752380D01*
X145028571Y-121752380D01*
X144933333Y-121704761D01*
X144885714Y-121657142D01*
X144838095Y-121561904D01*
X144790476Y-121371428D01*
X144790476Y-121133333D01*
X144838095Y-120942857D01*
X144885714Y-120847619D01*
X144933333Y-120800000D01*
X145028571Y-120752380D01*
X142219047Y-124347619D02*
X142266666Y-124300000D01*
X142361904Y-124252380D01*
X142600000Y-124252380D01*
X142695238Y-124300000D01*
X142742857Y-124347619D01*
X142790476Y-124442857D01*
X142790476Y-124538095D01*
X142742857Y-124680952D01*
X142171428Y-125252380D01*
X142790476Y-125252380D01*
X143219047Y-125157142D02*
X143266666Y-125204761D01*
X143219047Y-125252380D01*
X143171428Y-125204761D01*
X143219047Y-125157142D01*
X143219047Y-125252380D01*
X143647619Y-124347619D02*
X143695238Y-124300000D01*
X143790476Y-124252380D01*
X144028571Y-124252380D01*
X144123809Y-124300000D01*
X144171428Y-124347619D01*
X144219047Y-124442857D01*
X144219047Y-124538095D01*
X144171428Y-124680952D01*
X143600000Y-125252380D01*
X144219047Y-125252380D01*
X145076190Y-124585714D02*
X145076190Y-125252380D01*
X144647619Y-124585714D02*
X144647619Y-125109523D01*
X144695238Y-125204761D01*
X144790476Y-125252380D01*
X144933333Y-125252380D01*
X145028571Y-125204761D01*
X145076190Y-125157142D01*
X145885714Y-124728571D02*
X145552380Y-124728571D01*
X145552380Y-125252380D02*
X145552380Y-124252380D01*
X146028571Y-124252380D01*
X143933333Y-114057142D02*
X143885714Y-114104761D01*
X143742857Y-114152380D01*
X143647619Y-114152380D01*
X143504761Y-114104761D01*
X143409523Y-114009523D01*
X143361904Y-113914285D01*
X143314285Y-113723809D01*
X143314285Y-113580952D01*
X143361904Y-113390476D01*
X143409523Y-113295238D01*
X143504761Y-113200000D01*
X143647619Y-113152380D01*
X143742857Y-113152380D01*
X143885714Y-113200000D01*
X143933333Y-113247619D01*
X144409523Y-114152380D02*
X144600000Y-114152380D01*
X144695238Y-114104761D01*
X144742857Y-114057142D01*
X144838095Y-113914285D01*
X144885714Y-113723809D01*
X144885714Y-113342857D01*
X144838095Y-113247619D01*
X144790476Y-113200000D01*
X144695238Y-113152380D01*
X144504761Y-113152380D01*
X144409523Y-113200000D01*
X144361904Y-113247619D01*
X144314285Y-113342857D01*
X144314285Y-113580952D01*
X144361904Y-113676190D01*
X144409523Y-113723809D01*
X144504761Y-113771428D01*
X144695238Y-113771428D01*
X144790476Y-113723809D01*
X144838095Y-113676190D01*
X144885714Y-113580952D01*
X141980952Y-116652380D02*
X142076190Y-116652380D01*
X142171428Y-116700000D01*
X142219047Y-116747619D01*
X142266666Y-116842857D01*
X142314285Y-117033333D01*
X142314285Y-117271428D01*
X142266666Y-117461904D01*
X142219047Y-117557142D01*
X142171428Y-117604761D01*
X142076190Y-117652380D01*
X141980952Y-117652380D01*
X141885714Y-117604761D01*
X141838095Y-117557142D01*
X141790476Y-117461904D01*
X141742857Y-117271428D01*
X141742857Y-117033333D01*
X141790476Y-116842857D01*
X141838095Y-116747619D01*
X141885714Y-116700000D01*
X141980952Y-116652380D01*
X142742857Y-117557142D02*
X142790476Y-117604761D01*
X142742857Y-117652380D01*
X142695238Y-117604761D01*
X142742857Y-117557142D01*
X142742857Y-117652380D01*
X143409523Y-116652380D02*
X143504761Y-116652380D01*
X143600000Y-116700000D01*
X143647619Y-116747619D01*
X143695238Y-116842857D01*
X143742857Y-117033333D01*
X143742857Y-117271428D01*
X143695238Y-117461904D01*
X143647619Y-117557142D01*
X143600000Y-117604761D01*
X143504761Y-117652380D01*
X143409523Y-117652380D01*
X143314285Y-117604761D01*
X143266666Y-117557142D01*
X143219047Y-117461904D01*
X143171428Y-117271428D01*
X143171428Y-117033333D01*
X143219047Y-116842857D01*
X143266666Y-116747619D01*
X143314285Y-116700000D01*
X143409523Y-116652380D01*
X144695238Y-117652380D02*
X144123809Y-117652380D01*
X144409523Y-117652380D02*
X144409523Y-116652380D01*
X144314285Y-116795238D01*
X144219047Y-116890476D01*
X144123809Y-116938095D01*
X145552380Y-116985714D02*
X145552380Y-117652380D01*
X145123809Y-116985714D02*
X145123809Y-117509523D01*
X145171428Y-117604761D01*
X145266666Y-117652380D01*
X145409523Y-117652380D01*
X145504761Y-117604761D01*
X145552380Y-117557142D01*
X146361904Y-117128571D02*
X146028571Y-117128571D01*
X146028571Y-117652380D02*
X146028571Y-116652380D01*
X146504761Y-116652380D01*
X180933333Y-105577142D02*
X180885714Y-105624761D01*
X180742857Y-105672380D01*
X180647619Y-105672380D01*
X180504761Y-105624761D01*
X180409523Y-105529523D01*
X180361904Y-105434285D01*
X180314285Y-105243809D01*
X180314285Y-105100952D01*
X180361904Y-104910476D01*
X180409523Y-104815238D01*
X180504761Y-104720000D01*
X180647619Y-104672380D01*
X180742857Y-104672380D01*
X180885714Y-104720000D01*
X180933333Y-104767619D01*
X181790476Y-105005714D02*
X181790476Y-105672380D01*
X181552380Y-104624761D02*
X181314285Y-105339047D01*
X181933333Y-105339047D01*
X157633333Y-105577142D02*
X157585714Y-105624761D01*
X157442857Y-105672380D01*
X157347619Y-105672380D01*
X157204761Y-105624761D01*
X157109523Y-105529523D01*
X157061904Y-105434285D01*
X157014285Y-105243809D01*
X157014285Y-105100952D01*
X157061904Y-104910476D01*
X157109523Y-104815238D01*
X157204761Y-104720000D01*
X157347619Y-104672380D01*
X157442857Y-104672380D01*
X157585714Y-104720000D01*
X157633333Y-104767619D01*
X157966666Y-104672380D02*
X158633333Y-104672380D01*
X158204761Y-105672380D01*
X156233333Y-76277142D02*
X156185714Y-76324761D01*
X156042857Y-76372380D01*
X155947619Y-76372380D01*
X155804761Y-76324761D01*
X155709523Y-76229523D01*
X155661904Y-76134285D01*
X155614285Y-75943809D01*
X155614285Y-75800952D01*
X155661904Y-75610476D01*
X155709523Y-75515238D01*
X155804761Y-75420000D01*
X155947619Y-75372380D01*
X156042857Y-75372380D01*
X156185714Y-75420000D01*
X156233333Y-75467619D01*
X157090476Y-75372380D02*
X156900000Y-75372380D01*
X156804761Y-75420000D01*
X156757142Y-75467619D01*
X156661904Y-75610476D01*
X156614285Y-75800952D01*
X156614285Y-76181904D01*
X156661904Y-76277142D01*
X156709523Y-76324761D01*
X156804761Y-76372380D01*
X156995238Y-76372380D01*
X157090476Y-76324761D01*
X157138095Y-76277142D01*
X157185714Y-76181904D01*
X157185714Y-75943809D01*
X157138095Y-75848571D01*
X157090476Y-75800952D01*
X156995238Y-75753333D01*
X156804761Y-75753333D01*
X156709523Y-75800952D01*
X156661904Y-75848571D01*
X156614285Y-75943809D01*
X171357142Y-60966666D02*
X171404761Y-61014285D01*
X171452380Y-61157142D01*
X171452380Y-61252380D01*
X171404761Y-61395238D01*
X171309523Y-61490476D01*
X171214285Y-61538095D01*
X171023809Y-61585714D01*
X170880952Y-61585714D01*
X170690476Y-61538095D01*
X170595238Y-61490476D01*
X170500000Y-61395238D01*
X170452380Y-61252380D01*
X170452380Y-61157142D01*
X170500000Y-61014285D01*
X170547619Y-60966666D01*
X170452380Y-60633333D02*
X170452380Y-60014285D01*
X170833333Y-60347619D01*
X170833333Y-60204761D01*
X170880952Y-60109523D01*
X170928571Y-60061904D01*
X171023809Y-60014285D01*
X171261904Y-60014285D01*
X171357142Y-60061904D01*
X171404761Y-60109523D01*
X171452380Y-60204761D01*
X171452380Y-60490476D01*
X171404761Y-60585714D01*
X171357142Y-60633333D01*
X169733333Y-76277142D02*
X169685714Y-76324761D01*
X169542857Y-76372380D01*
X169447619Y-76372380D01*
X169304761Y-76324761D01*
X169209523Y-76229523D01*
X169161904Y-76134285D01*
X169114285Y-75943809D01*
X169114285Y-75800952D01*
X169161904Y-75610476D01*
X169209523Y-75515238D01*
X169304761Y-75420000D01*
X169447619Y-75372380D01*
X169542857Y-75372380D01*
X169685714Y-75420000D01*
X169733333Y-75467619D01*
X170638095Y-75372380D02*
X170161904Y-75372380D01*
X170114285Y-75848571D01*
X170161904Y-75800952D01*
X170257142Y-75753333D01*
X170495238Y-75753333D01*
X170590476Y-75800952D01*
X170638095Y-75848571D01*
X170685714Y-75943809D01*
X170685714Y-76181904D01*
X170638095Y-76277142D01*
X170590476Y-76324761D01*
X170495238Y-76372380D01*
X170257142Y-76372380D01*
X170161904Y-76324761D01*
X170114285Y-76277142D01*
X108033333Y-64452380D02*
X107700000Y-63976190D01*
X107461904Y-64452380D02*
X107461904Y-63452380D01*
X107842857Y-63452380D01*
X107938095Y-63500000D01*
X107985714Y-63547619D01*
X108033333Y-63642857D01*
X108033333Y-63785714D01*
X107985714Y-63880952D01*
X107938095Y-63928571D01*
X107842857Y-63976190D01*
X107461904Y-63976190D01*
X108985714Y-64452380D02*
X108414285Y-64452380D01*
X108700000Y-64452380D02*
X108700000Y-63452380D01*
X108604761Y-63595238D01*
X108509523Y-63690476D01*
X108414285Y-63738095D01*
X107461904Y-60952380D02*
X107461904Y-59952380D01*
X107700000Y-59952380D01*
X107842857Y-60000000D01*
X107938095Y-60095238D01*
X107985714Y-60190476D01*
X108033333Y-60380952D01*
X108033333Y-60523809D01*
X107985714Y-60714285D01*
X107938095Y-60809523D01*
X107842857Y-60904761D01*
X107700000Y-60952380D01*
X107461904Y-60952380D01*
X108414285Y-60047619D02*
X108461904Y-60000000D01*
X108557142Y-59952380D01*
X108795238Y-59952380D01*
X108890476Y-60000000D01*
X108938095Y-60047619D01*
X108985714Y-60142857D01*
X108985714Y-60238095D01*
X108938095Y-60380952D01*
X108366666Y-60952380D01*
X108985714Y-60952380D01*
D14*
X100207142Y-58978571D02*
X99492857Y-58978571D01*
X99492857Y-57478571D01*
X100707142Y-58978571D02*
X100707142Y-57478571D01*
X101064285Y-57478571D01*
X101278571Y-57550000D01*
X101421428Y-57692857D01*
X101492857Y-57835714D01*
X101564285Y-58121428D01*
X101564285Y-58335714D01*
X101492857Y-58621428D01*
X101421428Y-58764285D01*
X101278571Y-58907142D01*
X101064285Y-58978571D01*
X100707142Y-58978571D01*
X103064285Y-58978571D02*
X102564285Y-58264285D01*
X102207142Y-58978571D02*
X102207142Y-57478571D01*
X102778571Y-57478571D01*
X102921428Y-57550000D01*
X102992857Y-57621428D01*
X103064285Y-57764285D01*
X103064285Y-57978571D01*
X102992857Y-58121428D01*
X102921428Y-58192857D01*
X102778571Y-58264285D01*
X102207142Y-58264285D01*
X104778571Y-58550000D02*
X105492857Y-58550000D01*
X104635714Y-58978571D02*
X105135714Y-57478571D01*
X105635714Y-58978571D01*
X106778571Y-58907142D02*
X106635714Y-58978571D01*
X106350000Y-58978571D01*
X106207142Y-58907142D01*
X106135714Y-58835714D01*
X106064285Y-58692857D01*
X106064285Y-58264285D01*
X106135714Y-58121428D01*
X106207142Y-58050000D01*
X106350000Y-57978571D01*
X106635714Y-57978571D01*
X106778571Y-58050000D01*
X107207142Y-57978571D02*
X107778571Y-57978571D01*
X107421428Y-57478571D02*
X107421428Y-58764285D01*
X107492857Y-58907142D01*
X107635714Y-58978571D01*
X107778571Y-58978571D01*
X108278571Y-58978571D02*
X108278571Y-57978571D01*
X108278571Y-57478571D02*
X108207142Y-57550000D01*
X108278571Y-57621428D01*
X108350000Y-57550000D01*
X108278571Y-57478571D01*
X108278571Y-57621428D01*
X108850000Y-57978571D02*
X109207142Y-58978571D01*
X109564285Y-57978571D01*
X110707142Y-58907142D02*
X110564285Y-58978571D01*
X110278571Y-58978571D01*
X110135714Y-58907142D01*
X110064285Y-58764285D01*
X110064285Y-58192857D01*
X110135714Y-58050000D01*
X110278571Y-57978571D01*
X110564285Y-57978571D01*
X110707142Y-58050000D01*
X110778571Y-58192857D01*
X110778571Y-58335714D01*
X110064285Y-58478571D01*
D10*
X152957142Y-60966666D02*
X153004761Y-61014285D01*
X153052380Y-61157142D01*
X153052380Y-61252380D01*
X153004761Y-61395238D01*
X152909523Y-61490476D01*
X152814285Y-61538095D01*
X152623809Y-61585714D01*
X152480952Y-61585714D01*
X152290476Y-61538095D01*
X152195238Y-61490476D01*
X152100000Y-61395238D01*
X152052380Y-61252380D01*
X152052380Y-61157142D01*
X152100000Y-61014285D01*
X152147619Y-60966666D01*
X152147619Y-60585714D02*
X152100000Y-60538095D01*
X152052380Y-60442857D01*
X152052380Y-60204761D01*
X152100000Y-60109523D01*
X152147619Y-60061904D01*
X152242857Y-60014285D01*
X152338095Y-60014285D01*
X152480952Y-60061904D01*
X153052380Y-60633333D01*
X153052380Y-60014285D01*
X134757142Y-61066666D02*
X134804761Y-61114285D01*
X134852380Y-61257142D01*
X134852380Y-61352380D01*
X134804761Y-61495238D01*
X134709523Y-61590476D01*
X134614285Y-61638095D01*
X134423809Y-61685714D01*
X134280952Y-61685714D01*
X134090476Y-61638095D01*
X133995238Y-61590476D01*
X133900000Y-61495238D01*
X133852380Y-61352380D01*
X133852380Y-61257142D01*
X133900000Y-61114285D01*
X133947619Y-61066666D01*
X134852380Y-60114285D02*
X134852380Y-60685714D01*
X134852380Y-60400000D02*
X133852380Y-60400000D01*
X133995238Y-60495238D01*
X134090476Y-60590476D01*
X134138095Y-60685714D01*
%LPC*%
D15*
X181700000Y-81620000D03*
X181700000Y-84160000D03*
D16*
X181700000Y-86700000D03*
D17*
X91900000Y-120700000D03*
X91900000Y-115700000D03*
X104400000Y-120700000D03*
X104400000Y-115700000D03*
D18*
X93000000Y-57200000D03*
D19*
X93000000Y-62200000D03*
D15*
X182900000Y-65220000D03*
X182900000Y-62680000D03*
X182900000Y-60140000D03*
D16*
X182900000Y-57600000D03*
D20*
X98640000Y-86040000D03*
X98640000Y-70800000D03*
X134200000Y-86040000D03*
X101180000Y-70800000D03*
X131660000Y-86040000D03*
X103720000Y-70800000D03*
X129120000Y-86040000D03*
X106260000Y-70800000D03*
X126580000Y-86040000D03*
X108800000Y-70800000D03*
X124040000Y-86040000D03*
X111340000Y-70800000D03*
X121500000Y-86040000D03*
X113880000Y-70800000D03*
X118960000Y-86040000D03*
X116420000Y-70800000D03*
X116420000Y-86040000D03*
X118960000Y-70800000D03*
X113880000Y-86040000D03*
X121500000Y-70800000D03*
X111340000Y-86040000D03*
X124040000Y-70800000D03*
X108800000Y-86040000D03*
X126580000Y-70800000D03*
X106260000Y-86040000D03*
X129120000Y-70800000D03*
X103720000Y-86040000D03*
X131660000Y-70800000D03*
X101180000Y-86040000D03*
D21*
X134200000Y-70800000D03*
D22*
X136760000Y-92600000D03*
D23*
X126600000Y-92600000D03*
G36*
G01*
X116950000Y-107750001D02*
X116950000Y-106849999D01*
G75*
G02*
X117199999Y-106600000I249999J0D01*
G01*
X117850001Y-106600000D01*
G75*
G02*
X118100000Y-106849999I0J-249999D01*
G01*
X118100000Y-107750001D01*
G75*
G02*
X117850001Y-108000000I-249999J0D01*
G01*
X117199999Y-108000000D01*
G75*
G02*
X116950000Y-107750001I0J249999D01*
G01*
G37*
G36*
G01*
X114900000Y-107750001D02*
X114900000Y-106849999D01*
G75*
G02*
X115149999Y-106600000I249999J0D01*
G01*
X115800001Y-106600000D01*
G75*
G02*
X116050000Y-106849999I0J-249999D01*
G01*
X116050000Y-107750001D01*
G75*
G02*
X115800001Y-108000000I-249999J0D01*
G01*
X115149999Y-108000000D01*
G75*
G02*
X114900000Y-107750001I0J249999D01*
G01*
G37*
G36*
G01*
X106100000Y-101749999D02*
X106100000Y-102650001D01*
G75*
G02*
X105850001Y-102900000I-249999J0D01*
G01*
X105149999Y-102900000D01*
G75*
G02*
X104900000Y-102650001I0J249999D01*
G01*
X104900000Y-101749999D01*
G75*
G02*
X105149999Y-101500000I249999J0D01*
G01*
X105850001Y-101500000D01*
G75*
G02*
X106100000Y-101749999I0J-249999D01*
G01*
G37*
G36*
G01*
X108100000Y-101749999D02*
X108100000Y-102650001D01*
G75*
G02*
X107850001Y-102900000I-249999J0D01*
G01*
X107149999Y-102900000D01*
G75*
G02*
X106900000Y-102650001I0J249999D01*
G01*
X106900000Y-101749999D01*
G75*
G02*
X107149999Y-101500000I249999J0D01*
G01*
X107850001Y-101500000D01*
G75*
G02*
X108100000Y-101749999I0J-249999D01*
G01*
G37*
G36*
G01*
X167695000Y-57900000D02*
X167995000Y-57900000D01*
G75*
G02*
X168145000Y-58050000I0J-150000D01*
G01*
X168145000Y-59700000D01*
G75*
G02*
X167995000Y-59850000I-150000J0D01*
G01*
X167695000Y-59850000D01*
G75*
G02*
X167545000Y-59700000I0J150000D01*
G01*
X167545000Y-58050000D01*
G75*
G02*
X167695000Y-57900000I150000J0D01*
G01*
G37*
G36*
G01*
X166425000Y-57900000D02*
X166725000Y-57900000D01*
G75*
G02*
X166875000Y-58050000I0J-150000D01*
G01*
X166875000Y-59700000D01*
G75*
G02*
X166725000Y-59850000I-150000J0D01*
G01*
X166425000Y-59850000D01*
G75*
G02*
X166275000Y-59700000I0J150000D01*
G01*
X166275000Y-58050000D01*
G75*
G02*
X166425000Y-57900000I150000J0D01*
G01*
G37*
G36*
G01*
X165155000Y-57900000D02*
X165455000Y-57900000D01*
G75*
G02*
X165605000Y-58050000I0J-150000D01*
G01*
X165605000Y-59700000D01*
G75*
G02*
X165455000Y-59850000I-150000J0D01*
G01*
X165155000Y-59850000D01*
G75*
G02*
X165005000Y-59700000I0J150000D01*
G01*
X165005000Y-58050000D01*
G75*
G02*
X165155000Y-57900000I150000J0D01*
G01*
G37*
G36*
G01*
X163885000Y-57900000D02*
X164185000Y-57900000D01*
G75*
G02*
X164335000Y-58050000I0J-150000D01*
G01*
X164335000Y-59700000D01*
G75*
G02*
X164185000Y-59850000I-150000J0D01*
G01*
X163885000Y-59850000D01*
G75*
G02*
X163735000Y-59700000I0J150000D01*
G01*
X163735000Y-58050000D01*
G75*
G02*
X163885000Y-57900000I150000J0D01*
G01*
G37*
G36*
G01*
X162615000Y-57900000D02*
X162915000Y-57900000D01*
G75*
G02*
X163065000Y-58050000I0J-150000D01*
G01*
X163065000Y-59700000D01*
G75*
G02*
X162915000Y-59850000I-150000J0D01*
G01*
X162615000Y-59850000D01*
G75*
G02*
X162465000Y-59700000I0J150000D01*
G01*
X162465000Y-58050000D01*
G75*
G02*
X162615000Y-57900000I150000J0D01*
G01*
G37*
G36*
G01*
X161345000Y-57900000D02*
X161645000Y-57900000D01*
G75*
G02*
X161795000Y-58050000I0J-150000D01*
G01*
X161795000Y-59700000D01*
G75*
G02*
X161645000Y-59850000I-150000J0D01*
G01*
X161345000Y-59850000D01*
G75*
G02*
X161195000Y-59700000I0J150000D01*
G01*
X161195000Y-58050000D01*
G75*
G02*
X161345000Y-57900000I150000J0D01*
G01*
G37*
G36*
G01*
X160075000Y-57900000D02*
X160375000Y-57900000D01*
G75*
G02*
X160525000Y-58050000I0J-150000D01*
G01*
X160525000Y-59700000D01*
G75*
G02*
X160375000Y-59850000I-150000J0D01*
G01*
X160075000Y-59850000D01*
G75*
G02*
X159925000Y-59700000I0J150000D01*
G01*
X159925000Y-58050000D01*
G75*
G02*
X160075000Y-57900000I150000J0D01*
G01*
G37*
G36*
G01*
X158805000Y-57900000D02*
X159105000Y-57900000D01*
G75*
G02*
X159255000Y-58050000I0J-150000D01*
G01*
X159255000Y-59700000D01*
G75*
G02*
X159105000Y-59850000I-150000J0D01*
G01*
X158805000Y-59850000D01*
G75*
G02*
X158655000Y-59700000I0J150000D01*
G01*
X158655000Y-58050000D01*
G75*
G02*
X158805000Y-57900000I150000J0D01*
G01*
G37*
G36*
G01*
X158805000Y-52950000D02*
X159105000Y-52950000D01*
G75*
G02*
X159255000Y-53100000I0J-150000D01*
G01*
X159255000Y-54750000D01*
G75*
G02*
X159105000Y-54900000I-150000J0D01*
G01*
X158805000Y-54900000D01*
G75*
G02*
X158655000Y-54750000I0J150000D01*
G01*
X158655000Y-53100000D01*
G75*
G02*
X158805000Y-52950000I150000J0D01*
G01*
G37*
G36*
G01*
X160075000Y-52950000D02*
X160375000Y-52950000D01*
G75*
G02*
X160525000Y-53100000I0J-150000D01*
G01*
X160525000Y-54750000D01*
G75*
G02*
X160375000Y-54900000I-150000J0D01*
G01*
X160075000Y-54900000D01*
G75*
G02*
X159925000Y-54750000I0J150000D01*
G01*
X159925000Y-53100000D01*
G75*
G02*
X160075000Y-52950000I150000J0D01*
G01*
G37*
G36*
G01*
X161345000Y-52950000D02*
X161645000Y-52950000D01*
G75*
G02*
X161795000Y-53100000I0J-150000D01*
G01*
X161795000Y-54750000D01*
G75*
G02*
X161645000Y-54900000I-150000J0D01*
G01*
X161345000Y-54900000D01*
G75*
G02*
X161195000Y-54750000I0J150000D01*
G01*
X161195000Y-53100000D01*
G75*
G02*
X161345000Y-52950000I150000J0D01*
G01*
G37*
G36*
G01*
X162615000Y-52950000D02*
X162915000Y-52950000D01*
G75*
G02*
X163065000Y-53100000I0J-150000D01*
G01*
X163065000Y-54750000D01*
G75*
G02*
X162915000Y-54900000I-150000J0D01*
G01*
X162615000Y-54900000D01*
G75*
G02*
X162465000Y-54750000I0J150000D01*
G01*
X162465000Y-53100000D01*
G75*
G02*
X162615000Y-52950000I150000J0D01*
G01*
G37*
G36*
G01*
X163885000Y-52950000D02*
X164185000Y-52950000D01*
G75*
G02*
X164335000Y-53100000I0J-150000D01*
G01*
X164335000Y-54750000D01*
G75*
G02*
X164185000Y-54900000I-150000J0D01*
G01*
X163885000Y-54900000D01*
G75*
G02*
X163735000Y-54750000I0J150000D01*
G01*
X163735000Y-53100000D01*
G75*
G02*
X163885000Y-52950000I150000J0D01*
G01*
G37*
G36*
G01*
X165155000Y-52950000D02*
X165455000Y-52950000D01*
G75*
G02*
X165605000Y-53100000I0J-150000D01*
G01*
X165605000Y-54750000D01*
G75*
G02*
X165455000Y-54900000I-150000J0D01*
G01*
X165155000Y-54900000D01*
G75*
G02*
X165005000Y-54750000I0J150000D01*
G01*
X165005000Y-53100000D01*
G75*
G02*
X165155000Y-52950000I150000J0D01*
G01*
G37*
G36*
G01*
X166425000Y-52950000D02*
X166725000Y-52950000D01*
G75*
G02*
X166875000Y-53100000I0J-150000D01*
G01*
X166875000Y-54750000D01*
G75*
G02*
X166725000Y-54900000I-150000J0D01*
G01*
X166425000Y-54900000D01*
G75*
G02*
X166275000Y-54750000I0J150000D01*
G01*
X166275000Y-53100000D01*
G75*
G02*
X166425000Y-52950000I150000J0D01*
G01*
G37*
G36*
G01*
X167695000Y-52950000D02*
X167995000Y-52950000D01*
G75*
G02*
X168145000Y-53100000I0J-150000D01*
G01*
X168145000Y-54750000D01*
G75*
G02*
X167995000Y-54900000I-150000J0D01*
G01*
X167695000Y-54900000D01*
G75*
G02*
X167545000Y-54750000I0J150000D01*
G01*
X167545000Y-53100000D01*
G75*
G02*
X167695000Y-52950000I150000J0D01*
G01*
G37*
G36*
G01*
X149295000Y-57900000D02*
X149595000Y-57900000D01*
G75*
G02*
X149745000Y-58050000I0J-150000D01*
G01*
X149745000Y-59700000D01*
G75*
G02*
X149595000Y-59850000I-150000J0D01*
G01*
X149295000Y-59850000D01*
G75*
G02*
X149145000Y-59700000I0J150000D01*
G01*
X149145000Y-58050000D01*
G75*
G02*
X149295000Y-57900000I150000J0D01*
G01*
G37*
G36*
G01*
X148025000Y-57900000D02*
X148325000Y-57900000D01*
G75*
G02*
X148475000Y-58050000I0J-150000D01*
G01*
X148475000Y-59700000D01*
G75*
G02*
X148325000Y-59850000I-150000J0D01*
G01*
X148025000Y-59850000D01*
G75*
G02*
X147875000Y-59700000I0J150000D01*
G01*
X147875000Y-58050000D01*
G75*
G02*
X148025000Y-57900000I150000J0D01*
G01*
G37*
G36*
G01*
X146755000Y-57900000D02*
X147055000Y-57900000D01*
G75*
G02*
X147205000Y-58050000I0J-150000D01*
G01*
X147205000Y-59700000D01*
G75*
G02*
X147055000Y-59850000I-150000J0D01*
G01*
X146755000Y-59850000D01*
G75*
G02*
X146605000Y-59700000I0J150000D01*
G01*
X146605000Y-58050000D01*
G75*
G02*
X146755000Y-57900000I150000J0D01*
G01*
G37*
G36*
G01*
X145485000Y-57900000D02*
X145785000Y-57900000D01*
G75*
G02*
X145935000Y-58050000I0J-150000D01*
G01*
X145935000Y-59700000D01*
G75*
G02*
X145785000Y-59850000I-150000J0D01*
G01*
X145485000Y-59850000D01*
G75*
G02*
X145335000Y-59700000I0J150000D01*
G01*
X145335000Y-58050000D01*
G75*
G02*
X145485000Y-57900000I150000J0D01*
G01*
G37*
G36*
G01*
X144215000Y-57900000D02*
X144515000Y-57900000D01*
G75*
G02*
X144665000Y-58050000I0J-150000D01*
G01*
X144665000Y-59700000D01*
G75*
G02*
X144515000Y-59850000I-150000J0D01*
G01*
X144215000Y-59850000D01*
G75*
G02*
X144065000Y-59700000I0J150000D01*
G01*
X144065000Y-58050000D01*
G75*
G02*
X144215000Y-57900000I150000J0D01*
G01*
G37*
G36*
G01*
X142945000Y-57900000D02*
X143245000Y-57900000D01*
G75*
G02*
X143395000Y-58050000I0J-150000D01*
G01*
X143395000Y-59700000D01*
G75*
G02*
X143245000Y-59850000I-150000J0D01*
G01*
X142945000Y-59850000D01*
G75*
G02*
X142795000Y-59700000I0J150000D01*
G01*
X142795000Y-58050000D01*
G75*
G02*
X142945000Y-57900000I150000J0D01*
G01*
G37*
G36*
G01*
X141675000Y-57900000D02*
X141975000Y-57900000D01*
G75*
G02*
X142125000Y-58050000I0J-150000D01*
G01*
X142125000Y-59700000D01*
G75*
G02*
X141975000Y-59850000I-150000J0D01*
G01*
X141675000Y-59850000D01*
G75*
G02*
X141525000Y-59700000I0J150000D01*
G01*
X141525000Y-58050000D01*
G75*
G02*
X141675000Y-57900000I150000J0D01*
G01*
G37*
G36*
G01*
X140405000Y-57900000D02*
X140705000Y-57900000D01*
G75*
G02*
X140855000Y-58050000I0J-150000D01*
G01*
X140855000Y-59700000D01*
G75*
G02*
X140705000Y-59850000I-150000J0D01*
G01*
X140405000Y-59850000D01*
G75*
G02*
X140255000Y-59700000I0J150000D01*
G01*
X140255000Y-58050000D01*
G75*
G02*
X140405000Y-57900000I150000J0D01*
G01*
G37*
G36*
G01*
X140405000Y-52950000D02*
X140705000Y-52950000D01*
G75*
G02*
X140855000Y-53100000I0J-150000D01*
G01*
X140855000Y-54750000D01*
G75*
G02*
X140705000Y-54900000I-150000J0D01*
G01*
X140405000Y-54900000D01*
G75*
G02*
X140255000Y-54750000I0J150000D01*
G01*
X140255000Y-53100000D01*
G75*
G02*
X140405000Y-52950000I150000J0D01*
G01*
G37*
G36*
G01*
X141675000Y-52950000D02*
X141975000Y-52950000D01*
G75*
G02*
X142125000Y-53100000I0J-150000D01*
G01*
X142125000Y-54750000D01*
G75*
G02*
X141975000Y-54900000I-150000J0D01*
G01*
X141675000Y-54900000D01*
G75*
G02*
X141525000Y-54750000I0J150000D01*
G01*
X141525000Y-53100000D01*
G75*
G02*
X141675000Y-52950000I150000J0D01*
G01*
G37*
G36*
G01*
X142945000Y-52950000D02*
X143245000Y-52950000D01*
G75*
G02*
X143395000Y-53100000I0J-150000D01*
G01*
X143395000Y-54750000D01*
G75*
G02*
X143245000Y-54900000I-150000J0D01*
G01*
X142945000Y-54900000D01*
G75*
G02*
X142795000Y-54750000I0J150000D01*
G01*
X142795000Y-53100000D01*
G75*
G02*
X142945000Y-52950000I150000J0D01*
G01*
G37*
G36*
G01*
X144215000Y-52950000D02*
X144515000Y-52950000D01*
G75*
G02*
X144665000Y-53100000I0J-150000D01*
G01*
X144665000Y-54750000D01*
G75*
G02*
X144515000Y-54900000I-150000J0D01*
G01*
X144215000Y-54900000D01*
G75*
G02*
X144065000Y-54750000I0J150000D01*
G01*
X144065000Y-53100000D01*
G75*
G02*
X144215000Y-52950000I150000J0D01*
G01*
G37*
G36*
G01*
X145485000Y-52950000D02*
X145785000Y-52950000D01*
G75*
G02*
X145935000Y-53100000I0J-150000D01*
G01*
X145935000Y-54750000D01*
G75*
G02*
X145785000Y-54900000I-150000J0D01*
G01*
X145485000Y-54900000D01*
G75*
G02*
X145335000Y-54750000I0J150000D01*
G01*
X145335000Y-53100000D01*
G75*
G02*
X145485000Y-52950000I150000J0D01*
G01*
G37*
G36*
G01*
X146755000Y-52950000D02*
X147055000Y-52950000D01*
G75*
G02*
X147205000Y-53100000I0J-150000D01*
G01*
X147205000Y-54750000D01*
G75*
G02*
X147055000Y-54900000I-150000J0D01*
G01*
X146755000Y-54900000D01*
G75*
G02*
X146605000Y-54750000I0J150000D01*
G01*
X146605000Y-53100000D01*
G75*
G02*
X146755000Y-52950000I150000J0D01*
G01*
G37*
G36*
G01*
X148025000Y-52950000D02*
X148325000Y-52950000D01*
G75*
G02*
X148475000Y-53100000I0J-150000D01*
G01*
X148475000Y-54750000D01*
G75*
G02*
X148325000Y-54900000I-150000J0D01*
G01*
X148025000Y-54900000D01*
G75*
G02*
X147875000Y-54750000I0J150000D01*
G01*
X147875000Y-53100000D01*
G75*
G02*
X148025000Y-52950000I150000J0D01*
G01*
G37*
G36*
G01*
X149295000Y-52950000D02*
X149595000Y-52950000D01*
G75*
G02*
X149745000Y-53100000I0J-150000D01*
G01*
X149745000Y-54750000D01*
G75*
G02*
X149595000Y-54900000I-150000J0D01*
G01*
X149295000Y-54900000D01*
G75*
G02*
X149145000Y-54750000I0J150000D01*
G01*
X149145000Y-53100000D01*
G75*
G02*
X149295000Y-52950000I150000J0D01*
G01*
G37*
G36*
G01*
X130895000Y-57800000D02*
X131195000Y-57800000D01*
G75*
G02*
X131345000Y-57950000I0J-150000D01*
G01*
X131345000Y-59600000D01*
G75*
G02*
X131195000Y-59750000I-150000J0D01*
G01*
X130895000Y-59750000D01*
G75*
G02*
X130745000Y-59600000I0J150000D01*
G01*
X130745000Y-57950000D01*
G75*
G02*
X130895000Y-57800000I150000J0D01*
G01*
G37*
G36*
G01*
X129625000Y-57800000D02*
X129925000Y-57800000D01*
G75*
G02*
X130075000Y-57950000I0J-150000D01*
G01*
X130075000Y-59600000D01*
G75*
G02*
X129925000Y-59750000I-150000J0D01*
G01*
X129625000Y-59750000D01*
G75*
G02*
X129475000Y-59600000I0J150000D01*
G01*
X129475000Y-57950000D01*
G75*
G02*
X129625000Y-57800000I150000J0D01*
G01*
G37*
G36*
G01*
X128355000Y-57800000D02*
X128655000Y-57800000D01*
G75*
G02*
X128805000Y-57950000I0J-150000D01*
G01*
X128805000Y-59600000D01*
G75*
G02*
X128655000Y-59750000I-150000J0D01*
G01*
X128355000Y-59750000D01*
G75*
G02*
X128205000Y-59600000I0J150000D01*
G01*
X128205000Y-57950000D01*
G75*
G02*
X128355000Y-57800000I150000J0D01*
G01*
G37*
G36*
G01*
X127085000Y-57800000D02*
X127385000Y-57800000D01*
G75*
G02*
X127535000Y-57950000I0J-150000D01*
G01*
X127535000Y-59600000D01*
G75*
G02*
X127385000Y-59750000I-150000J0D01*
G01*
X127085000Y-59750000D01*
G75*
G02*
X126935000Y-59600000I0J150000D01*
G01*
X126935000Y-57950000D01*
G75*
G02*
X127085000Y-57800000I150000J0D01*
G01*
G37*
G36*
G01*
X125815000Y-57800000D02*
X126115000Y-57800000D01*
G75*
G02*
X126265000Y-57950000I0J-150000D01*
G01*
X126265000Y-59600000D01*
G75*
G02*
X126115000Y-59750000I-150000J0D01*
G01*
X125815000Y-59750000D01*
G75*
G02*
X125665000Y-59600000I0J150000D01*
G01*
X125665000Y-57950000D01*
G75*
G02*
X125815000Y-57800000I150000J0D01*
G01*
G37*
G36*
G01*
X124545000Y-57800000D02*
X124845000Y-57800000D01*
G75*
G02*
X124995000Y-57950000I0J-150000D01*
G01*
X124995000Y-59600000D01*
G75*
G02*
X124845000Y-59750000I-150000J0D01*
G01*
X124545000Y-59750000D01*
G75*
G02*
X124395000Y-59600000I0J150000D01*
G01*
X124395000Y-57950000D01*
G75*
G02*
X124545000Y-57800000I150000J0D01*
G01*
G37*
G36*
G01*
X123275000Y-57800000D02*
X123575000Y-57800000D01*
G75*
G02*
X123725000Y-57950000I0J-150000D01*
G01*
X123725000Y-59600000D01*
G75*
G02*
X123575000Y-59750000I-150000J0D01*
G01*
X123275000Y-59750000D01*
G75*
G02*
X123125000Y-59600000I0J150000D01*
G01*
X123125000Y-57950000D01*
G75*
G02*
X123275000Y-57800000I150000J0D01*
G01*
G37*
G36*
G01*
X122005000Y-57800000D02*
X122305000Y-57800000D01*
G75*
G02*
X122455000Y-57950000I0J-150000D01*
G01*
X122455000Y-59600000D01*
G75*
G02*
X122305000Y-59750000I-150000J0D01*
G01*
X122005000Y-59750000D01*
G75*
G02*
X121855000Y-59600000I0J150000D01*
G01*
X121855000Y-57950000D01*
G75*
G02*
X122005000Y-57800000I150000J0D01*
G01*
G37*
G36*
G01*
X122005000Y-52850000D02*
X122305000Y-52850000D01*
G75*
G02*
X122455000Y-53000000I0J-150000D01*
G01*
X122455000Y-54650000D01*
G75*
G02*
X122305000Y-54800000I-150000J0D01*
G01*
X122005000Y-54800000D01*
G75*
G02*
X121855000Y-54650000I0J150000D01*
G01*
X121855000Y-53000000D01*
G75*
G02*
X122005000Y-52850000I150000J0D01*
G01*
G37*
G36*
G01*
X123275000Y-52850000D02*
X123575000Y-52850000D01*
G75*
G02*
X123725000Y-53000000I0J-150000D01*
G01*
X123725000Y-54650000D01*
G75*
G02*
X123575000Y-54800000I-150000J0D01*
G01*
X123275000Y-54800000D01*
G75*
G02*
X123125000Y-54650000I0J150000D01*
G01*
X123125000Y-53000000D01*
G75*
G02*
X123275000Y-52850000I150000J0D01*
G01*
G37*
G36*
G01*
X124545000Y-52850000D02*
X124845000Y-52850000D01*
G75*
G02*
X124995000Y-53000000I0J-150000D01*
G01*
X124995000Y-54650000D01*
G75*
G02*
X124845000Y-54800000I-150000J0D01*
G01*
X124545000Y-54800000D01*
G75*
G02*
X124395000Y-54650000I0J150000D01*
G01*
X124395000Y-53000000D01*
G75*
G02*
X124545000Y-52850000I150000J0D01*
G01*
G37*
G36*
G01*
X125815000Y-52850000D02*
X126115000Y-52850000D01*
G75*
G02*
X126265000Y-53000000I0J-150000D01*
G01*
X126265000Y-54650000D01*
G75*
G02*
X126115000Y-54800000I-150000J0D01*
G01*
X125815000Y-54800000D01*
G75*
G02*
X125665000Y-54650000I0J150000D01*
G01*
X125665000Y-53000000D01*
G75*
G02*
X125815000Y-52850000I150000J0D01*
G01*
G37*
G36*
G01*
X127085000Y-52850000D02*
X127385000Y-52850000D01*
G75*
G02*
X127535000Y-53000000I0J-150000D01*
G01*
X127535000Y-54650000D01*
G75*
G02*
X127385000Y-54800000I-150000J0D01*
G01*
X127085000Y-54800000D01*
G75*
G02*
X126935000Y-54650000I0J150000D01*
G01*
X126935000Y-53000000D01*
G75*
G02*
X127085000Y-52850000I150000J0D01*
G01*
G37*
G36*
G01*
X128355000Y-52850000D02*
X128655000Y-52850000D01*
G75*
G02*
X128805000Y-53000000I0J-150000D01*
G01*
X128805000Y-54650000D01*
G75*
G02*
X128655000Y-54800000I-150000J0D01*
G01*
X128355000Y-54800000D01*
G75*
G02*
X128205000Y-54650000I0J150000D01*
G01*
X128205000Y-53000000D01*
G75*
G02*
X128355000Y-52850000I150000J0D01*
G01*
G37*
G36*
G01*
X129625000Y-52850000D02*
X129925000Y-52850000D01*
G75*
G02*
X130075000Y-53000000I0J-150000D01*
G01*
X130075000Y-54650000D01*
G75*
G02*
X129925000Y-54800000I-150000J0D01*
G01*
X129625000Y-54800000D01*
G75*
G02*
X129475000Y-54650000I0J150000D01*
G01*
X129475000Y-53000000D01*
G75*
G02*
X129625000Y-52850000I150000J0D01*
G01*
G37*
G36*
G01*
X130895000Y-52850000D02*
X131195000Y-52850000D01*
G75*
G02*
X131345000Y-53000000I0J-150000D01*
G01*
X131345000Y-54650000D01*
G75*
G02*
X131195000Y-54800000I-150000J0D01*
G01*
X130895000Y-54800000D01*
G75*
G02*
X130745000Y-54650000I0J150000D01*
G01*
X130745000Y-53000000D01*
G75*
G02*
X130895000Y-52850000I150000J0D01*
G01*
G37*
G36*
G01*
X134300000Y-102549999D02*
X134300000Y-103450001D01*
G75*
G02*
X134050001Y-103700000I-249999J0D01*
G01*
X133349999Y-103700000D01*
G75*
G02*
X133100000Y-103450001I0J249999D01*
G01*
X133100000Y-102549999D01*
G75*
G02*
X133349999Y-102300000I249999J0D01*
G01*
X134050001Y-102300000D01*
G75*
G02*
X134300000Y-102549999I0J-249999D01*
G01*
G37*
G36*
G01*
X136300000Y-102549999D02*
X136300000Y-103450001D01*
G75*
G02*
X136050001Y-103700000I-249999J0D01*
G01*
X135349999Y-103700000D01*
G75*
G02*
X135100000Y-103450001I0J249999D01*
G01*
X135100000Y-102549999D01*
G75*
G02*
X135349999Y-102300000I249999J0D01*
G01*
X136050001Y-102300000D01*
G75*
G02*
X136300000Y-102549999I0J-249999D01*
G01*
G37*
G36*
G01*
X116100000Y-101449999D02*
X116100000Y-102350001D01*
G75*
G02*
X115850001Y-102600000I-249999J0D01*
G01*
X115149999Y-102600000D01*
G75*
G02*
X114900000Y-102350001I0J249999D01*
G01*
X114900000Y-101449999D01*
G75*
G02*
X115149999Y-101200000I249999J0D01*
G01*
X115850001Y-101200000D01*
G75*
G02*
X116100000Y-101449999I0J-249999D01*
G01*
G37*
G36*
G01*
X118100000Y-101449999D02*
X118100000Y-102350001D01*
G75*
G02*
X117850001Y-102600000I-249999J0D01*
G01*
X117149999Y-102600000D01*
G75*
G02*
X116900000Y-102350001I0J249999D01*
G01*
X116900000Y-101449999D01*
G75*
G02*
X117149999Y-101200000I249999J0D01*
G01*
X117850001Y-101200000D01*
G75*
G02*
X118100000Y-101449999I0J-249999D01*
G01*
G37*
G36*
G01*
X135150000Y-107750001D02*
X135150000Y-106849999D01*
G75*
G02*
X135399999Y-106600000I249999J0D01*
G01*
X136050001Y-106600000D01*
G75*
G02*
X136300000Y-106849999I0J-249999D01*
G01*
X136300000Y-107750001D01*
G75*
G02*
X136050001Y-108000000I-249999J0D01*
G01*
X135399999Y-108000000D01*
G75*
G02*
X135150000Y-107750001I0J249999D01*
G01*
G37*
G36*
G01*
X133100000Y-107750001D02*
X133100000Y-106849999D01*
G75*
G02*
X133349999Y-106600000I249999J0D01*
G01*
X134000001Y-106600000D01*
G75*
G02*
X134250000Y-106849999I0J-249999D01*
G01*
X134250000Y-107750001D01*
G75*
G02*
X134000001Y-108000000I-249999J0D01*
G01*
X133349999Y-108000000D01*
G75*
G02*
X133100000Y-107750001I0J249999D01*
G01*
G37*
D24*
X112900000Y-115700000D03*
X115440000Y-120780000D03*
X117980000Y-115700000D03*
D25*
X96400000Y-95700000D03*
X100900000Y-95700000D03*
X96400000Y-102200000D03*
X100900000Y-102200000D03*
G36*
G01*
X143700000Y-105249999D02*
X143700000Y-106150001D01*
G75*
G02*
X143450001Y-106400000I-249999J0D01*
G01*
X142749999Y-106400000D01*
G75*
G02*
X142500000Y-106150001I0J249999D01*
G01*
X142500000Y-105249999D01*
G75*
G02*
X142749999Y-105000000I249999J0D01*
G01*
X143450001Y-105000000D01*
G75*
G02*
X143700000Y-105249999I0J-249999D01*
G01*
G37*
G36*
G01*
X145700000Y-105249999D02*
X145700000Y-106150001D01*
G75*
G02*
X145450001Y-106400000I-249999J0D01*
G01*
X144749999Y-106400000D01*
G75*
G02*
X144500000Y-106150001I0J249999D01*
G01*
X144500000Y-105249999D01*
G75*
G02*
X144749999Y-105000000I249999J0D01*
G01*
X145450001Y-105000000D01*
G75*
G02*
X145700000Y-105249999I0J-249999D01*
G01*
G37*
D26*
X134700000Y-120700000D03*
X134700000Y-118200000D03*
D27*
X134700000Y-115700000D03*
D20*
X181720000Y-110300000D03*
X174100000Y-125540000D03*
X181720000Y-112840000D03*
X174100000Y-123000000D03*
X181720000Y-115380000D03*
X174100000Y-120460000D03*
X181720000Y-117920000D03*
X174100000Y-117920000D03*
X181720000Y-120460000D03*
X174100000Y-115380000D03*
X181720000Y-123000000D03*
X174100000Y-112840000D03*
X181720000Y-125540000D03*
D21*
X174100000Y-110300000D03*
D20*
X158420000Y-110300000D03*
X150800000Y-125540000D03*
X158420000Y-112840000D03*
X150800000Y-123000000D03*
X158420000Y-115380000D03*
X150800000Y-120460000D03*
X158420000Y-117920000D03*
X150800000Y-117920000D03*
X158420000Y-120460000D03*
X150800000Y-115380000D03*
X158420000Y-123000000D03*
X150800000Y-112840000D03*
X158420000Y-125540000D03*
D21*
X150800000Y-110300000D03*
D20*
X157420000Y-81400000D03*
X149800000Y-96640000D03*
X157420000Y-83940000D03*
X149800000Y-94100000D03*
X157420000Y-86480000D03*
X149800000Y-91560000D03*
X157420000Y-89020000D03*
X149800000Y-89020000D03*
X157420000Y-91560000D03*
X149800000Y-86480000D03*
X157420000Y-94100000D03*
X149800000Y-83940000D03*
X157420000Y-96640000D03*
D21*
X149800000Y-81400000D03*
D20*
X170920000Y-81400000D03*
X163300000Y-96640000D03*
X170920000Y-83940000D03*
X163300000Y-94100000D03*
X170920000Y-86480000D03*
X163300000Y-91560000D03*
X170920000Y-89020000D03*
X163300000Y-89020000D03*
X170920000Y-91560000D03*
X163300000Y-86480000D03*
X170920000Y-94100000D03*
X163300000Y-83940000D03*
X170920000Y-96640000D03*
D21*
X163300000Y-81400000D03*
G36*
G01*
X126200000Y-120249999D02*
X126200000Y-121150001D01*
G75*
G02*
X125950001Y-121400000I-249999J0D01*
G01*
X125249999Y-121400000D01*
G75*
G02*
X125000000Y-121150001I0J249999D01*
G01*
X125000000Y-120249999D01*
G75*
G02*
X125249999Y-120000000I249999J0D01*
G01*
X125950001Y-120000000D01*
G75*
G02*
X126200000Y-120249999I0J-249999D01*
G01*
G37*
G36*
G01*
X128200000Y-120249999D02*
X128200000Y-121150001D01*
G75*
G02*
X127950001Y-121400000I-249999J0D01*
G01*
X127249999Y-121400000D01*
G75*
G02*
X127000000Y-121150001I0J249999D01*
G01*
X127000000Y-120249999D01*
G75*
G02*
X127249999Y-120000000I249999J0D01*
G01*
X127950001Y-120000000D01*
G75*
G02*
X128200000Y-120249999I0J-249999D01*
G01*
G37*
G36*
G01*
X127000000Y-116150001D02*
X127000000Y-115249999D01*
G75*
G02*
X127249999Y-115000000I249999J0D01*
G01*
X127950001Y-115000000D01*
G75*
G02*
X128200000Y-115249999I0J-249999D01*
G01*
X128200000Y-116150001D01*
G75*
G02*
X127950001Y-116400000I-249999J0D01*
G01*
X127249999Y-116400000D01*
G75*
G02*
X127000000Y-116150001I0J249999D01*
G01*
G37*
G36*
G01*
X125000000Y-116150001D02*
X125000000Y-115249999D01*
G75*
G02*
X125249999Y-115000000I249999J0D01*
G01*
X125950001Y-115000000D01*
G75*
G02*
X126200000Y-115249999I0J-249999D01*
G01*
X126200000Y-116150001D01*
G75*
G02*
X125950001Y-116400000I-249999J0D01*
G01*
X125249999Y-116400000D01*
G75*
G02*
X125000000Y-116150001I0J249999D01*
G01*
G37*
G36*
G01*
X164300000Y-107249999D02*
X164300000Y-108150001D01*
G75*
G02*
X164050001Y-108400000I-249999J0D01*
G01*
X163349999Y-108400000D01*
G75*
G02*
X163100000Y-108150001I0J249999D01*
G01*
X163100000Y-107249999D01*
G75*
G02*
X163349999Y-107000000I249999J0D01*
G01*
X164050001Y-107000000D01*
G75*
G02*
X164300000Y-107249999I0J-249999D01*
G01*
G37*
G36*
G01*
X166300000Y-107249999D02*
X166300000Y-108150001D01*
G75*
G02*
X166050001Y-108400000I-249999J0D01*
G01*
X165349999Y-108400000D01*
G75*
G02*
X165100000Y-108150001I0J249999D01*
G01*
X165100000Y-107249999D01*
G75*
G02*
X165349999Y-107000000I249999J0D01*
G01*
X166050001Y-107000000D01*
G75*
G02*
X166300000Y-107249999I0J-249999D01*
G01*
G37*
G36*
G01*
X164300000Y-125049999D02*
X164300000Y-125950001D01*
G75*
G02*
X164050001Y-126200000I-249999J0D01*
G01*
X163349999Y-126200000D01*
G75*
G02*
X163100000Y-125950001I0J249999D01*
G01*
X163100000Y-125049999D01*
G75*
G02*
X163349999Y-124800000I249999J0D01*
G01*
X164050001Y-124800000D01*
G75*
G02*
X164300000Y-125049999I0J-249999D01*
G01*
G37*
G36*
G01*
X166300000Y-125049999D02*
X166300000Y-125950001D01*
G75*
G02*
X166050001Y-126200000I-249999J0D01*
G01*
X165349999Y-126200000D01*
G75*
G02*
X165100000Y-125950001I0J249999D01*
G01*
X165100000Y-125049999D01*
G75*
G02*
X165349999Y-124800000I249999J0D01*
G01*
X166050001Y-124800000D01*
G75*
G02*
X166300000Y-125049999I0J-249999D01*
G01*
G37*
G36*
G01*
X144500000Y-110750001D02*
X144500000Y-109849999D01*
G75*
G02*
X144749999Y-109600000I249999J0D01*
G01*
X145450001Y-109600000D01*
G75*
G02*
X145700000Y-109849999I0J-249999D01*
G01*
X145700000Y-110750001D01*
G75*
G02*
X145450001Y-111000000I-249999J0D01*
G01*
X144749999Y-111000000D01*
G75*
G02*
X144500000Y-110750001I0J249999D01*
G01*
G37*
G36*
G01*
X142500000Y-110750001D02*
X142500000Y-109849999D01*
G75*
G02*
X142749999Y-109600000I249999J0D01*
G01*
X143450001Y-109600000D01*
G75*
G02*
X143700000Y-109849999I0J-249999D01*
G01*
X143700000Y-110750001D01*
G75*
G02*
X143450001Y-111000000I-249999J0D01*
G01*
X142749999Y-111000000D01*
G75*
G02*
X142500000Y-110750001I0J249999D01*
G01*
G37*
G36*
G01*
X165250000Y-113275000D02*
X165250000Y-112325000D01*
G75*
G02*
X165500000Y-112075000I250000J0D01*
G01*
X166175000Y-112075000D01*
G75*
G02*
X166425000Y-112325000I0J-250000D01*
G01*
X166425000Y-113275000D01*
G75*
G02*
X166175000Y-113525000I-250000J0D01*
G01*
X165500000Y-113525000D01*
G75*
G02*
X165250000Y-113275000I0J250000D01*
G01*
G37*
G36*
G01*
X163175000Y-113275000D02*
X163175000Y-112325000D01*
G75*
G02*
X163425000Y-112075000I250000J0D01*
G01*
X164100000Y-112075000D01*
G75*
G02*
X164350000Y-112325000I0J-250000D01*
G01*
X164350000Y-113275000D01*
G75*
G02*
X164100000Y-113525000I-250000J0D01*
G01*
X163425000Y-113525000D01*
G75*
G02*
X163175000Y-113275000I0J250000D01*
G01*
G37*
G36*
G01*
X165150000Y-118375000D02*
X165150000Y-117425000D01*
G75*
G02*
X165400000Y-117175000I250000J0D01*
G01*
X166075000Y-117175000D01*
G75*
G02*
X166325000Y-117425000I0J-250000D01*
G01*
X166325000Y-118375000D01*
G75*
G02*
X166075000Y-118625000I-250000J0D01*
G01*
X165400000Y-118625000D01*
G75*
G02*
X165150000Y-118375000I0J250000D01*
G01*
G37*
G36*
G01*
X163075000Y-118375000D02*
X163075000Y-117425000D01*
G75*
G02*
X163325000Y-117175000I250000J0D01*
G01*
X164000000Y-117175000D01*
G75*
G02*
X164250000Y-117425000I0J-250000D01*
G01*
X164250000Y-118375000D01*
G75*
G02*
X164000000Y-118625000I-250000J0D01*
G01*
X163325000Y-118625000D01*
G75*
G02*
X163075000Y-118375000I0J250000D01*
G01*
G37*
G36*
G01*
X143650000Y-122525000D02*
X143650000Y-123475000D01*
G75*
G02*
X143400000Y-123725000I-250000J0D01*
G01*
X142725000Y-123725000D01*
G75*
G02*
X142475000Y-123475000I0J250000D01*
G01*
X142475000Y-122525000D01*
G75*
G02*
X142725000Y-122275000I250000J0D01*
G01*
X143400000Y-122275000D01*
G75*
G02*
X143650000Y-122525000I0J-250000D01*
G01*
G37*
G36*
G01*
X145725000Y-122525000D02*
X145725000Y-123475000D01*
G75*
G02*
X145475000Y-123725000I-250000J0D01*
G01*
X144800000Y-123725000D01*
G75*
G02*
X144550000Y-123475000I0J250000D01*
G01*
X144550000Y-122525000D01*
G75*
G02*
X144800000Y-122275000I250000J0D01*
G01*
X145475000Y-122275000D01*
G75*
G02*
X145725000Y-122525000I0J-250000D01*
G01*
G37*
G36*
G01*
X143650000Y-114925000D02*
X143650000Y-115875000D01*
G75*
G02*
X143400000Y-116125000I-250000J0D01*
G01*
X142725000Y-116125000D01*
G75*
G02*
X142475000Y-115875000I0J250000D01*
G01*
X142475000Y-114925000D01*
G75*
G02*
X142725000Y-114675000I250000J0D01*
G01*
X143400000Y-114675000D01*
G75*
G02*
X143650000Y-114925000I0J-250000D01*
G01*
G37*
G36*
G01*
X145725000Y-114925000D02*
X145725000Y-115875000D01*
G75*
G02*
X145475000Y-116125000I-250000J0D01*
G01*
X144800000Y-116125000D01*
G75*
G02*
X144550000Y-115875000I0J250000D01*
G01*
X144550000Y-114925000D01*
G75*
G02*
X144800000Y-114675000I250000J0D01*
G01*
X145475000Y-114675000D01*
G75*
G02*
X145725000Y-114925000I0J-250000D01*
G01*
G37*
G36*
G01*
X181550000Y-107375000D02*
X181550000Y-106425000D01*
G75*
G02*
X181800000Y-106175000I250000J0D01*
G01*
X182475000Y-106175000D01*
G75*
G02*
X182725000Y-106425000I0J-250000D01*
G01*
X182725000Y-107375000D01*
G75*
G02*
X182475000Y-107625000I-250000J0D01*
G01*
X181800000Y-107625000D01*
G75*
G02*
X181550000Y-107375000I0J250000D01*
G01*
G37*
G36*
G01*
X179475000Y-107375000D02*
X179475000Y-106425000D01*
G75*
G02*
X179725000Y-106175000I250000J0D01*
G01*
X180400000Y-106175000D01*
G75*
G02*
X180650000Y-106425000I0J-250000D01*
G01*
X180650000Y-107375000D01*
G75*
G02*
X180400000Y-107625000I-250000J0D01*
G01*
X179725000Y-107625000D01*
G75*
G02*
X179475000Y-107375000I0J250000D01*
G01*
G37*
G36*
G01*
X158250000Y-107375000D02*
X158250000Y-106425000D01*
G75*
G02*
X158500000Y-106175000I250000J0D01*
G01*
X159175000Y-106175000D01*
G75*
G02*
X159425000Y-106425000I0J-250000D01*
G01*
X159425000Y-107375000D01*
G75*
G02*
X159175000Y-107625000I-250000J0D01*
G01*
X158500000Y-107625000D01*
G75*
G02*
X158250000Y-107375000I0J250000D01*
G01*
G37*
G36*
G01*
X156175000Y-107375000D02*
X156175000Y-106425000D01*
G75*
G02*
X156425000Y-106175000I250000J0D01*
G01*
X157100000Y-106175000D01*
G75*
G02*
X157350000Y-106425000I0J-250000D01*
G01*
X157350000Y-107375000D01*
G75*
G02*
X157100000Y-107625000I-250000J0D01*
G01*
X156425000Y-107625000D01*
G75*
G02*
X156175000Y-107375000I0J250000D01*
G01*
G37*
G36*
G01*
X156850000Y-78075000D02*
X156850000Y-77125000D01*
G75*
G02*
X157100000Y-76875000I250000J0D01*
G01*
X157775000Y-76875000D01*
G75*
G02*
X158025000Y-77125000I0J-250000D01*
G01*
X158025000Y-78075000D01*
G75*
G02*
X157775000Y-78325000I-250000J0D01*
G01*
X157100000Y-78325000D01*
G75*
G02*
X156850000Y-78075000I0J250000D01*
G01*
G37*
G36*
G01*
X154775000Y-78075000D02*
X154775000Y-77125000D01*
G75*
G02*
X155025000Y-76875000I250000J0D01*
G01*
X155700000Y-76875000D01*
G75*
G02*
X155950000Y-77125000I0J-250000D01*
G01*
X155950000Y-78075000D01*
G75*
G02*
X155700000Y-78325000I-250000J0D01*
G01*
X155025000Y-78325000D01*
G75*
G02*
X154775000Y-78075000I0J250000D01*
G01*
G37*
G36*
G01*
X170525000Y-58250000D02*
X171475000Y-58250000D01*
G75*
G02*
X171725000Y-58500000I0J-250000D01*
G01*
X171725000Y-59175000D01*
G75*
G02*
X171475000Y-59425000I-250000J0D01*
G01*
X170525000Y-59425000D01*
G75*
G02*
X170275000Y-59175000I0J250000D01*
G01*
X170275000Y-58500000D01*
G75*
G02*
X170525000Y-58250000I250000J0D01*
G01*
G37*
G36*
G01*
X170525000Y-56175000D02*
X171475000Y-56175000D01*
G75*
G02*
X171725000Y-56425000I0J-250000D01*
G01*
X171725000Y-57100000D01*
G75*
G02*
X171475000Y-57350000I-250000J0D01*
G01*
X170525000Y-57350000D01*
G75*
G02*
X170275000Y-57100000I0J250000D01*
G01*
X170275000Y-56425000D01*
G75*
G02*
X170525000Y-56175000I250000J0D01*
G01*
G37*
G36*
G01*
X170350000Y-78075000D02*
X170350000Y-77125000D01*
G75*
G02*
X170600000Y-76875000I250000J0D01*
G01*
X171275000Y-76875000D01*
G75*
G02*
X171525000Y-77125000I0J-250000D01*
G01*
X171525000Y-78075000D01*
G75*
G02*
X171275000Y-78325000I-250000J0D01*
G01*
X170600000Y-78325000D01*
G75*
G02*
X170350000Y-78075000I0J250000D01*
G01*
G37*
G36*
G01*
X168275000Y-78075000D02*
X168275000Y-77125000D01*
G75*
G02*
X168525000Y-76875000I250000J0D01*
G01*
X169200000Y-76875000D01*
G75*
G02*
X169450000Y-77125000I0J-250000D01*
G01*
X169450000Y-78075000D01*
G75*
G02*
X169200000Y-78325000I-250000J0D01*
G01*
X168525000Y-78325000D01*
G75*
G02*
X168275000Y-78075000I0J250000D01*
G01*
G37*
G36*
G01*
X105500000Y-64450001D02*
X105500000Y-63549999D01*
G75*
G02*
X105749999Y-63300000I249999J0D01*
G01*
X106450001Y-63300000D01*
G75*
G02*
X106700000Y-63549999I0J-249999D01*
G01*
X106700000Y-64450001D01*
G75*
G02*
X106450001Y-64700000I-249999J0D01*
G01*
X105749999Y-64700000D01*
G75*
G02*
X105500000Y-64450001I0J249999D01*
G01*
G37*
G36*
G01*
X103500000Y-64450001D02*
X103500000Y-63549999D01*
G75*
G02*
X103749999Y-63300000I249999J0D01*
G01*
X104450001Y-63300000D01*
G75*
G02*
X104700000Y-63549999I0J-249999D01*
G01*
X104700000Y-64450001D01*
G75*
G02*
X104450001Y-64700000I-249999J0D01*
G01*
X103749999Y-64700000D01*
G75*
G02*
X103500000Y-64450001I0J249999D01*
G01*
G37*
G36*
G01*
X104625000Y-60049999D02*
X104625000Y-60950001D01*
G75*
G02*
X104375001Y-61200000I-249999J0D01*
G01*
X103724999Y-61200000D01*
G75*
G02*
X103475000Y-60950001I0J249999D01*
G01*
X103475000Y-60049999D01*
G75*
G02*
X103724999Y-59800000I249999J0D01*
G01*
X104375001Y-59800000D01*
G75*
G02*
X104625000Y-60049999I0J-249999D01*
G01*
G37*
G36*
G01*
X106675000Y-60049999D02*
X106675000Y-60950001D01*
G75*
G02*
X106425001Y-61200000I-249999J0D01*
G01*
X105774999Y-61200000D01*
G75*
G02*
X105525000Y-60950001I0J249999D01*
G01*
X105525000Y-60049999D01*
G75*
G02*
X105774999Y-59800000I249999J0D01*
G01*
X106425001Y-59800000D01*
G75*
G02*
X106675000Y-60049999I0J-249999D01*
G01*
G37*
G36*
G01*
X152125000Y-58250000D02*
X153075000Y-58250000D01*
G75*
G02*
X153325000Y-58500000I0J-250000D01*
G01*
X153325000Y-59175000D01*
G75*
G02*
X153075000Y-59425000I-250000J0D01*
G01*
X152125000Y-59425000D01*
G75*
G02*
X151875000Y-59175000I0J250000D01*
G01*
X151875000Y-58500000D01*
G75*
G02*
X152125000Y-58250000I250000J0D01*
G01*
G37*
G36*
G01*
X152125000Y-56175000D02*
X153075000Y-56175000D01*
G75*
G02*
X153325000Y-56425000I0J-250000D01*
G01*
X153325000Y-57100000D01*
G75*
G02*
X153075000Y-57350000I-250000J0D01*
G01*
X152125000Y-57350000D01*
G75*
G02*
X151875000Y-57100000I0J250000D01*
G01*
X151875000Y-56425000D01*
G75*
G02*
X152125000Y-56175000I250000J0D01*
G01*
G37*
G36*
G01*
X133925000Y-58150000D02*
X134875000Y-58150000D01*
G75*
G02*
X135125000Y-58400000I0J-250000D01*
G01*
X135125000Y-59075000D01*
G75*
G02*
X134875000Y-59325000I-250000J0D01*
G01*
X133925000Y-59325000D01*
G75*
G02*
X133675000Y-59075000I0J250000D01*
G01*
X133675000Y-58400000D01*
G75*
G02*
X133925000Y-58150000I250000J0D01*
G01*
G37*
G36*
G01*
X133925000Y-56075000D02*
X134875000Y-56075000D01*
G75*
G02*
X135125000Y-56325000I0J-250000D01*
G01*
X135125000Y-57000000D01*
G75*
G02*
X134875000Y-57250000I-250000J0D01*
G01*
X133925000Y-57250000D01*
G75*
G02*
X133675000Y-57000000I0J250000D01*
G01*
X133675000Y-56325000D01*
G75*
G02*
X133925000Y-56075000I250000J0D01*
G01*
G37*
D15*
X185460000Y-136000000D03*
X182920000Y-136000000D03*
X180380000Y-136000000D03*
X177840000Y-136000000D03*
X175300000Y-136000000D03*
X172760000Y-136000000D03*
X170220000Y-136000000D03*
X167680000Y-136000000D03*
X165140000Y-136000000D03*
X162600000Y-136000000D03*
X160060000Y-136000000D03*
X157520000Y-136000000D03*
X154980000Y-136000000D03*
X152440000Y-136000000D03*
X149900000Y-136000000D03*
X147360000Y-136000000D03*
X144820000Y-136000000D03*
X142280000Y-136000000D03*
X139740000Y-136000000D03*
X137200000Y-136000000D03*
X134660000Y-136000000D03*
X132120000Y-136000000D03*
X129580000Y-136000000D03*
X127040000Y-136000000D03*
X124500000Y-136000000D03*
X121960000Y-136000000D03*
X119420000Y-136000000D03*
X116880000Y-136000000D03*
X114340000Y-136000000D03*
X111800000Y-136000000D03*
X109260000Y-136000000D03*
X106720000Y-136000000D03*
X104180000Y-136000000D03*
X101640000Y-136000000D03*
X99100000Y-136000000D03*
X96560000Y-136000000D03*
X94020000Y-136000000D03*
X91480000Y-136000000D03*
X88940000Y-136000000D03*
D16*
X86400000Y-136000000D03*
D15*
X185460000Y-46000000D03*
X182920000Y-46000000D03*
X180380000Y-46000000D03*
X177840000Y-46000000D03*
X175300000Y-46000000D03*
X172760000Y-46000000D03*
X170220000Y-46000000D03*
X167680000Y-46000000D03*
X165140000Y-46000000D03*
X162600000Y-46000000D03*
X160060000Y-46000000D03*
X157520000Y-46000000D03*
X154980000Y-46000000D03*
X152440000Y-46000000D03*
X149900000Y-46000000D03*
X147360000Y-46000000D03*
X144820000Y-46000000D03*
X142280000Y-46000000D03*
X139740000Y-46000000D03*
X137200000Y-46000000D03*
X134660000Y-46000000D03*
X132120000Y-46000000D03*
X129580000Y-46000000D03*
X127040000Y-46000000D03*
X124500000Y-46000000D03*
X121960000Y-46000000D03*
X119420000Y-46000000D03*
X116880000Y-46000000D03*
X114340000Y-46000000D03*
X111800000Y-46000000D03*
X109260000Y-46000000D03*
X106720000Y-46000000D03*
X104180000Y-46000000D03*
X101640000Y-46000000D03*
X99100000Y-46000000D03*
X96560000Y-46000000D03*
X94020000Y-46000000D03*
X91480000Y-46000000D03*
X88940000Y-46000000D03*
D16*
X86400000Y-46000000D03*
M02*
