G04 #@! TF.GenerationSoftware,KiCad,Pcbnew,(5.1.9)-1*
G04 #@! TF.CreationDate,2021-10-24T10:29:25-04:00*
G04 #@! TF.ProjectId,loader,6c6f6164-6572-42e6-9b69-6361645f7063,2.0*
G04 #@! TF.SameCoordinates,Original*
G04 #@! TF.FileFunction,Legend,Bot*
G04 #@! TF.FilePolarity,Positive*
%FSLAX46Y46*%
G04 Gerber Fmt 4.6, Leading zero omitted, Abs format (unit mm)*
G04 Created by KiCad (PCBNEW (5.1.9)-1) date 2021-10-24 10:29:25*
%MOMM*%
%LPD*%
G01*
G04 APERTURE LIST*
%ADD10C,0.120000*%
%ADD11C,0.150000*%
%ADD12O,3.048000X1.850000*%
%ADD13C,2.500000*%
%ADD14R,2.500000X2.500000*%
%ADD15O,1.700000X1.700000*%
%ADD16R,1.700000X1.700000*%
%ADD17O,1.600000X1.600000*%
%ADD18R,1.600000X1.600000*%
%ADD19O,2.200000X2.200000*%
%ADD20R,2.200000X2.200000*%
%ADD21C,1.440000*%
%ADD22C,2.000000*%
%ADD23C,1.900000*%
%ADD24R,1.900000X1.900000*%
G04 APERTURE END LIST*
D10*
X184230000Y-66550000D02*
X181570000Y-66550000D01*
X184230000Y-58870000D02*
X184230000Y-66550000D01*
X181570000Y-58870000D02*
X181570000Y-66550000D01*
X184230000Y-58870000D02*
X181570000Y-58870000D01*
X184230000Y-57600000D02*
X184230000Y-56270000D01*
X184230000Y-56270000D02*
X182900000Y-56270000D01*
X85070000Y-134670000D02*
X85070000Y-136000000D01*
X86400000Y-134670000D02*
X85070000Y-134670000D01*
X87670000Y-134670000D02*
X87670000Y-137330000D01*
X87670000Y-137330000D02*
X186790000Y-137330000D01*
X87670000Y-134670000D02*
X186790000Y-134670000D01*
X186790000Y-134670000D02*
X186790000Y-137330000D01*
X85070000Y-44670000D02*
X85070000Y-46000000D01*
X86400000Y-44670000D02*
X85070000Y-44670000D01*
X87670000Y-44670000D02*
X87670000Y-47330000D01*
X87670000Y-47330000D02*
X186790000Y-47330000D01*
X87670000Y-44670000D02*
X186790000Y-44670000D01*
X186790000Y-44670000D02*
X186790000Y-47330000D01*
D11*
X183233333Y-54722380D02*
X183233333Y-55436666D01*
X183280952Y-55579523D01*
X183376190Y-55674761D01*
X183519047Y-55722380D01*
X183614285Y-55722380D01*
X182280952Y-54722380D02*
X182757142Y-54722380D01*
X182804761Y-55198571D01*
X182757142Y-55150952D01*
X182661904Y-55103333D01*
X182423809Y-55103333D01*
X182328571Y-55150952D01*
X182280952Y-55198571D01*
X182233333Y-55293809D01*
X182233333Y-55531904D01*
X182280952Y-55627142D01*
X182328571Y-55674761D01*
X182423809Y-55722380D01*
X182661904Y-55722380D01*
X182757142Y-55674761D01*
X182804761Y-55627142D01*
X85852380Y-133166666D02*
X86566666Y-133166666D01*
X86709523Y-133119047D01*
X86804761Y-133023809D01*
X86852380Y-132880952D01*
X86852380Y-132785714D01*
X85947619Y-133595238D02*
X85900000Y-133642857D01*
X85852380Y-133738095D01*
X85852380Y-133976190D01*
X85900000Y-134071428D01*
X85947619Y-134119047D01*
X86042857Y-134166666D01*
X86138095Y-134166666D01*
X86280952Y-134119047D01*
X86852380Y-133547619D01*
X86852380Y-134166666D01*
X85952380Y-48266666D02*
X86666666Y-48266666D01*
X86809523Y-48219047D01*
X86904761Y-48123809D01*
X86952380Y-47980952D01*
X86952380Y-47885714D01*
X86952380Y-49266666D02*
X86952380Y-48695238D01*
X86952380Y-48980952D02*
X85952380Y-48980952D01*
X86095238Y-48885714D01*
X86190476Y-48790476D01*
X86238095Y-48695238D01*
%LPC*%
D12*
X91900000Y-120700000D03*
X91900000Y-115700000D03*
X104400000Y-120700000D03*
X104400000Y-115700000D03*
D13*
X93000000Y-57200000D03*
D14*
X93000000Y-62200000D03*
D15*
X182900000Y-65220000D03*
X182900000Y-62680000D03*
X182900000Y-60140000D03*
D16*
X182900000Y-57600000D03*
D17*
X98640000Y-86040000D03*
X98640000Y-70800000D03*
X134200000Y-86040000D03*
X101180000Y-70800000D03*
X131660000Y-86040000D03*
X103720000Y-70800000D03*
X129120000Y-86040000D03*
X106260000Y-70800000D03*
X126580000Y-86040000D03*
X108800000Y-70800000D03*
X124040000Y-86040000D03*
X111340000Y-70800000D03*
X121500000Y-86040000D03*
X113880000Y-70800000D03*
X118960000Y-86040000D03*
X116420000Y-70800000D03*
X116420000Y-86040000D03*
X118960000Y-70800000D03*
X113880000Y-86040000D03*
X121500000Y-70800000D03*
X111340000Y-86040000D03*
X124040000Y-70800000D03*
X108800000Y-86040000D03*
X126580000Y-70800000D03*
X106260000Y-86040000D03*
X129120000Y-70800000D03*
X103720000Y-86040000D03*
X131660000Y-70800000D03*
X101180000Y-86040000D03*
D18*
X134200000Y-70800000D03*
D19*
X136760000Y-92600000D03*
D20*
X126600000Y-92600000D03*
D21*
X112900000Y-115700000D03*
X115440000Y-120780000D03*
X117980000Y-115700000D03*
D22*
X96400000Y-95700000D03*
X100900000Y-95700000D03*
X96400000Y-102200000D03*
X100900000Y-102200000D03*
D23*
X134700000Y-120700000D03*
X134700000Y-118200000D03*
D24*
X134700000Y-115700000D03*
D17*
X181720000Y-110300000D03*
X174100000Y-125540000D03*
X181720000Y-112840000D03*
X174100000Y-123000000D03*
X181720000Y-115380000D03*
X174100000Y-120460000D03*
X181720000Y-117920000D03*
X174100000Y-117920000D03*
X181720000Y-120460000D03*
X174100000Y-115380000D03*
X181720000Y-123000000D03*
X174100000Y-112840000D03*
X181720000Y-125540000D03*
D18*
X174100000Y-110300000D03*
D17*
X158420000Y-110300000D03*
X150800000Y-125540000D03*
X158420000Y-112840000D03*
X150800000Y-123000000D03*
X158420000Y-115380000D03*
X150800000Y-120460000D03*
X158420000Y-117920000D03*
X150800000Y-117920000D03*
X158420000Y-120460000D03*
X150800000Y-115380000D03*
X158420000Y-123000000D03*
X150800000Y-112840000D03*
X158420000Y-125540000D03*
D18*
X150800000Y-110300000D03*
D17*
X159420000Y-81400000D03*
X151800000Y-96640000D03*
X159420000Y-83940000D03*
X151800000Y-94100000D03*
X159420000Y-86480000D03*
X151800000Y-91560000D03*
X159420000Y-89020000D03*
X151800000Y-89020000D03*
X159420000Y-91560000D03*
X151800000Y-86480000D03*
X159420000Y-94100000D03*
X151800000Y-83940000D03*
X159420000Y-96640000D03*
D18*
X151800000Y-81400000D03*
D17*
X172920000Y-81400000D03*
X165300000Y-96640000D03*
X172920000Y-83940000D03*
X165300000Y-94100000D03*
X172920000Y-86480000D03*
X165300000Y-91560000D03*
X172920000Y-89020000D03*
X165300000Y-89020000D03*
X172920000Y-91560000D03*
X165300000Y-86480000D03*
X172920000Y-94100000D03*
X165300000Y-83940000D03*
X172920000Y-96640000D03*
D18*
X165300000Y-81400000D03*
D15*
X185460000Y-136000000D03*
X182920000Y-136000000D03*
X180380000Y-136000000D03*
X177840000Y-136000000D03*
X175300000Y-136000000D03*
X172760000Y-136000000D03*
X170220000Y-136000000D03*
X167680000Y-136000000D03*
X165140000Y-136000000D03*
X162600000Y-136000000D03*
X160060000Y-136000000D03*
X157520000Y-136000000D03*
X154980000Y-136000000D03*
X152440000Y-136000000D03*
X149900000Y-136000000D03*
X147360000Y-136000000D03*
X144820000Y-136000000D03*
X142280000Y-136000000D03*
X139740000Y-136000000D03*
X137200000Y-136000000D03*
X134660000Y-136000000D03*
X132120000Y-136000000D03*
X129580000Y-136000000D03*
X127040000Y-136000000D03*
X124500000Y-136000000D03*
X121960000Y-136000000D03*
X119420000Y-136000000D03*
X116880000Y-136000000D03*
X114340000Y-136000000D03*
X111800000Y-136000000D03*
X109260000Y-136000000D03*
X106720000Y-136000000D03*
X104180000Y-136000000D03*
X101640000Y-136000000D03*
X99100000Y-136000000D03*
X96560000Y-136000000D03*
X94020000Y-136000000D03*
X91480000Y-136000000D03*
X88940000Y-136000000D03*
D16*
X86400000Y-136000000D03*
D15*
X185460000Y-46000000D03*
X182920000Y-46000000D03*
X180380000Y-46000000D03*
X177840000Y-46000000D03*
X175300000Y-46000000D03*
X172760000Y-46000000D03*
X170220000Y-46000000D03*
X167680000Y-46000000D03*
X165140000Y-46000000D03*
X162600000Y-46000000D03*
X160060000Y-46000000D03*
X157520000Y-46000000D03*
X154980000Y-46000000D03*
X152440000Y-46000000D03*
X149900000Y-46000000D03*
X147360000Y-46000000D03*
X144820000Y-46000000D03*
X142280000Y-46000000D03*
X139740000Y-46000000D03*
X137200000Y-46000000D03*
X134660000Y-46000000D03*
X132120000Y-46000000D03*
X129580000Y-46000000D03*
X127040000Y-46000000D03*
X124500000Y-46000000D03*
X121960000Y-46000000D03*
X119420000Y-46000000D03*
X116880000Y-46000000D03*
X114340000Y-46000000D03*
X111800000Y-46000000D03*
X109260000Y-46000000D03*
X106720000Y-46000000D03*
X104180000Y-46000000D03*
X101640000Y-46000000D03*
X99100000Y-46000000D03*
X96560000Y-46000000D03*
X94020000Y-46000000D03*
X91480000Y-46000000D03*
X88940000Y-46000000D03*
D16*
X86400000Y-46000000D03*
M02*
