M48
; DRILL file {KiCad (5.1.9)-1} date 10/03/21 23:58:35
; FORMAT={-:-/ absolute / metric / decimal}
; #@! TF.CreationDate,2021-10-03T23:58:35-04:00
; #@! TF.GenerationSoftware,Kicad,Pcbnew,(5.1.9)-1
; #@! TF.FileFunction,Plated,1,2,PTH
FMAT,2
METRIC
T1C0.400
T2C0.800
T3C1.000
T4C1.100
%
G90
G05
T1
X97.9Y-53.9
X101.9Y-83.4
X102.0Y-57.8
X103.3Y-53.9
X112.5Y-60.2
X113.3Y-54.8
X117.4Y-54.8
X117.4Y-116.8
X122.0Y-78.4
X128.0Y-57.7
X142.4Y-100.4
X147.4Y-101.4
X147.5Y-117.8
X162.0Y-92.7
X163.5Y-88.2
X166.6Y-57.8
X173.7Y-57.8
T2
X98.1Y-56.5
X98.1Y-59.04
X98.1Y-61.58
X98.1Y-64.12
X98.1Y-66.66
X98.1Y-69.2
X98.1Y-71.74
X98.1Y-74.28
X105.72Y-56.5
X105.72Y-59.04
X105.72Y-61.58
X105.72Y-64.12
X105.72Y-66.66
X105.72Y-69.2
X105.72Y-71.74
X105.72Y-74.28
X111.4Y-56.5
X111.4Y-59.04
X111.4Y-61.58
X111.4Y-64.12
X111.4Y-66.66
X111.4Y-69.2
X111.4Y-71.74
X111.4Y-74.28
X119.02Y-56.5
X119.02Y-59.04
X119.02Y-61.58
X119.02Y-64.12
X119.02Y-66.66
X119.02Y-69.2
X119.02Y-71.74
X119.02Y-74.28
X134.3Y-110.7
X136.3Y-56.5
X136.3Y-59.04
X136.3Y-61.58
X136.3Y-64.12
X136.3Y-66.66
X136.3Y-69.2
X136.3Y-71.74
X136.3Y-74.28
X136.3Y-76.82
X136.3Y-79.36
X141.92Y-110.7
X143.92Y-56.5
X143.92Y-59.04
X143.92Y-61.58
X143.92Y-64.12
X143.92Y-66.66
X143.92Y-69.2
X143.92Y-71.74
X143.92Y-74.28
X143.92Y-76.82
X143.92Y-79.36
X151.0Y-56.5
X151.0Y-59.04
X151.0Y-61.58
X151.0Y-64.12
X151.0Y-66.66
X151.0Y-69.2
X151.0Y-71.74
X151.0Y-74.28
X151.0Y-76.82
X151.0Y-79.36
X158.62Y-56.5
X158.62Y-59.04
X158.62Y-61.58
X158.62Y-64.12
X158.62Y-66.66
X158.62Y-69.2
X158.62Y-71.74
X158.62Y-74.28
X158.62Y-76.82
X158.62Y-79.36
X168.2Y-88.9
X168.2Y-91.44
X168.2Y-93.98
X168.2Y-96.52
X168.2Y-99.06
X168.2Y-101.6
X168.2Y-104.14
X175.82Y-88.9
X175.82Y-91.44
X175.82Y-93.98
X175.82Y-96.52
X175.82Y-99.06
X175.82Y-101.6
X175.82Y-104.14
T3
X86.4Y-46.0
X86.4Y-136.0
X88.94Y-46.0
X88.94Y-136.0
X91.48Y-46.0
X91.48Y-136.0
X94.02Y-46.0
X94.02Y-136.0
X96.56Y-46.0
X96.56Y-136.0
X99.1Y-46.0
X99.1Y-136.0
X101.64Y-46.0
X101.64Y-136.0
X104.18Y-46.0
X104.18Y-136.0
X106.34Y-89.7
X106.34Y-104.94
X106.72Y-46.0
X106.72Y-136.0
X108.88Y-89.7
X108.88Y-104.94
X109.26Y-46.0
X109.26Y-136.0
X111.42Y-89.7
X111.42Y-104.94
X111.8Y-46.0
X111.8Y-136.0
X113.96Y-89.7
X113.96Y-104.94
X114.34Y-46.0
X114.34Y-136.0
X116.5Y-89.7
X116.5Y-104.94
X116.88Y-46.0
X116.88Y-136.0
X119.04Y-89.7
X119.04Y-104.94
X119.42Y-46.0
X119.42Y-136.0
X121.58Y-89.7
X121.58Y-104.94
X121.96Y-46.0
X121.96Y-136.0
X124.12Y-89.7
X124.12Y-104.94
X124.5Y-46.0
X124.5Y-136.0
X126.66Y-89.7
X126.66Y-104.94
X127.04Y-46.0
X127.04Y-136.0
X129.2Y-89.7
X129.2Y-104.94
X129.58Y-46.0
X129.58Y-136.0
X131.74Y-89.7
X131.74Y-104.94
X132.12Y-46.0
X132.12Y-136.0
X134.28Y-89.7
X134.28Y-104.94
X134.66Y-46.0
X134.66Y-136.0
X136.82Y-89.7
X136.82Y-104.94
X137.2Y-46.0
X137.2Y-136.0
X139.36Y-89.7
X139.36Y-104.94
X139.74Y-46.0
X139.74Y-136.0
X141.9Y-89.7
X141.9Y-104.94
X142.28Y-46.0
X142.28Y-136.0
X144.82Y-46.0
X144.82Y-136.0
X147.36Y-46.0
X147.36Y-136.0
X149.9Y-46.0
X149.9Y-136.0
X152.44Y-46.0
X152.44Y-136.0
X154.98Y-46.0
X154.98Y-136.0
X157.52Y-46.0
X157.52Y-136.0
X160.06Y-46.0
X160.06Y-136.0
X162.6Y-46.0
X162.6Y-136.0
X165.14Y-46.0
X165.14Y-136.0
X167.68Y-46.0
X167.68Y-136.0
X170.22Y-46.0
X170.22Y-136.0
X172.76Y-46.0
X172.76Y-136.0
X175.3Y-46.0
X175.3Y-136.0
X177.84Y-46.0
X177.84Y-136.0
X180.38Y-46.0
X180.38Y-136.0
X182.9Y-57.6
X182.9Y-60.14
X182.9Y-62.68
X182.9Y-65.22
X182.9Y-67.76
X182.9Y-70.3
X182.9Y-72.84
X182.9Y-75.38
X182.92Y-46.0
X182.92Y-136.0
X185.46Y-46.0
X185.46Y-136.0
T4
X101.4Y-116.8
X101.4Y-121.3
X107.9Y-116.8
X107.9Y-121.3
T0
M30
