M48
; DRILL file {KiCad (5.1.9)-1} date 10/24/21 10:29:29
; FORMAT={-:-/ absolute / metric / decimal}
; #@! TF.CreationDate,2021-10-24T10:29:29-04:00
; #@! TF.GenerationSoftware,Kicad,Pcbnew,(5.1.9)-1
; #@! TF.FileFunction,Plated,1,2,PTH
FMAT,2
METRIC
T1C0.400
T2C0.800
T3C0.900
T4C1.000
T5C1.100
T6C1.300
%
G90
G05
T1
X101.9Y-60.5
X109.4Y-102.2
X117.6Y-57.3
X119.5Y-107.3
X120.1Y-96.9
X122.2Y-100.8
X123.4Y-60.9
X123.795Y-73.0
X126.0Y-60.9
X126.0Y-63.9
X127.2Y-60.9
X127.2Y-65.5
X128.5Y-66.9
X128.5Y-60.9
X129.8Y-56.9
X130.6Y-118.2
X132.1Y-51.6
X132.625Y-58.775
X137.5Y-63.9
X141.5Y-107.3
X141.8Y-56.9
X143.095Y-62.3
X144.3Y-60.9
X144.3Y-63.9
X145.6Y-60.9
X145.6Y-65.5
X147.9Y-123.0
X148.2Y-56.9
X149.3Y-65.5
X150.862Y-58.837
X152.44Y-52.54
X154.0Y-103.0
X160.2Y-56.9
X162.9Y-121.7
X163.8Y-101.9
X166.5Y-56.9
X167.4Y-110.0
X168.0Y-125.5
X169.262Y-58.837
X170.1Y-119.2
X170.9Y-116.1
X171.7Y-103.0
X172.7Y-52.5
X172.8Y-101.9
X173.9Y-100.8
X175.0Y-99.7
T2
X112.9Y-115.7
X115.44Y-120.78
X117.98Y-115.7
X150.8Y-110.3
X150.8Y-112.84
X150.8Y-115.38
X150.8Y-117.92
X150.8Y-120.46
X150.8Y-123.0
X150.8Y-125.54
X151.8Y-81.4
X151.8Y-83.94
X151.8Y-86.48
X151.8Y-89.02
X151.8Y-91.56
X151.8Y-94.1
X151.8Y-96.64
X158.42Y-110.3
X158.42Y-112.84
X158.42Y-115.38
X158.42Y-117.92
X158.42Y-120.46
X158.42Y-123.0
X158.42Y-125.54
X159.42Y-81.4
X159.42Y-83.94
X159.42Y-86.48
X159.42Y-89.02
X159.42Y-91.56
X159.42Y-94.1
X159.42Y-96.64
X165.3Y-81.4
X165.3Y-83.94
X165.3Y-86.48
X165.3Y-89.02
X165.3Y-91.56
X165.3Y-94.1
X165.3Y-96.64
X172.92Y-81.4
X172.92Y-83.94
X172.92Y-86.48
X172.92Y-89.02
X172.92Y-91.56
X172.92Y-94.1
X172.92Y-96.64
X174.1Y-110.3
X174.1Y-112.84
X174.1Y-115.38
X174.1Y-117.92
X174.1Y-120.46
X174.1Y-123.0
X174.1Y-125.54
X181.72Y-110.3
X181.72Y-112.84
X181.72Y-115.38
X181.72Y-117.92
X181.72Y-120.46
X181.72Y-123.0
X181.72Y-125.54
T3
X134.7Y-115.7
X134.7Y-118.2
X134.7Y-120.7
T4
X86.4Y-46.0
X86.4Y-136.0
X88.94Y-46.0
X88.94Y-136.0
X91.48Y-46.0
X91.48Y-136.0
X94.02Y-46.0
X94.02Y-136.0
X96.56Y-46.0
X96.56Y-136.0
X98.64Y-70.8
X98.64Y-86.04
X99.1Y-46.0
X99.1Y-136.0
X101.18Y-70.8
X101.18Y-86.04
X101.64Y-46.0
X101.64Y-136.0
X103.72Y-70.8
X103.72Y-86.04
X104.18Y-46.0
X104.18Y-136.0
X106.26Y-70.8
X106.26Y-86.04
X106.72Y-46.0
X106.72Y-136.0
X108.8Y-70.8
X108.8Y-86.04
X109.26Y-46.0
X109.26Y-136.0
X111.34Y-70.8
X111.34Y-86.04
X111.8Y-46.0
X111.8Y-136.0
X113.88Y-70.8
X113.88Y-86.04
X114.34Y-46.0
X114.34Y-136.0
X116.42Y-70.8
X116.42Y-86.04
X116.88Y-46.0
X116.88Y-136.0
X118.96Y-70.8
X118.96Y-86.04
X119.42Y-46.0
X119.42Y-136.0
X121.5Y-70.8
X121.5Y-86.04
X121.96Y-46.0
X121.96Y-136.0
X124.04Y-70.8
X124.04Y-86.04
X124.5Y-46.0
X124.5Y-136.0
X126.58Y-70.8
X126.58Y-86.04
X127.04Y-46.0
X127.04Y-136.0
X129.12Y-70.8
X129.12Y-86.04
X129.58Y-46.0
X129.58Y-136.0
X131.66Y-70.8
X131.66Y-86.04
X132.12Y-46.0
X132.12Y-136.0
X134.2Y-70.8
X134.2Y-86.04
X134.66Y-46.0
X134.66Y-136.0
X137.2Y-46.0
X137.2Y-136.0
X139.74Y-46.0
X139.74Y-136.0
X142.28Y-46.0
X142.28Y-136.0
X144.82Y-46.0
X144.82Y-136.0
X147.36Y-46.0
X147.36Y-136.0
X149.9Y-46.0
X149.9Y-136.0
X152.44Y-46.0
X152.44Y-136.0
X154.98Y-46.0
X154.98Y-136.0
X157.52Y-46.0
X157.52Y-136.0
X160.06Y-46.0
X160.06Y-136.0
X162.6Y-46.0
X162.6Y-136.0
X165.14Y-46.0
X165.14Y-136.0
X167.68Y-46.0
X167.68Y-136.0
X170.22Y-46.0
X170.22Y-136.0
X172.76Y-46.0
X172.76Y-136.0
X175.3Y-46.0
X175.3Y-136.0
X177.84Y-46.0
X177.84Y-136.0
X180.38Y-46.0
X180.38Y-136.0
X182.9Y-57.6
X182.9Y-60.14
X182.9Y-62.68
X182.9Y-65.22
X182.92Y-46.0
X182.92Y-136.0
X185.46Y-46.0
X185.46Y-136.0
T5
X96.4Y-95.7
X96.4Y-102.2
X100.9Y-95.7
X100.9Y-102.2
X126.6Y-92.6
X136.76Y-92.6
T6
X91.9Y-115.7
X91.9Y-120.7
X93.0Y-57.2
X93.0Y-62.2
X104.4Y-115.7
X104.4Y-120.7
T0
M30
