G04 #@! TF.GenerationSoftware,KiCad,Pcbnew,(5.1.9)-1*
G04 #@! TF.CreationDate,2021-10-24T09:52:10-04:00*
G04 #@! TF.ProjectId,ir-rc,69722d72-632e-46b6-9963-61645f706362,1.0*
G04 #@! TF.SameCoordinates,Original*
G04 #@! TF.FileFunction,Legend,Bot*
G04 #@! TF.FilePolarity,Positive*
%FSLAX46Y46*%
G04 Gerber Fmt 4.6, Leading zero omitted, Abs format (unit mm)*
G04 Created by KiCad (PCBNEW (5.1.9)-1) date 2021-10-24 09:52:10*
%MOMM*%
%LPD*%
G01*
G04 APERTURE LIST*
%ADD10C,0.120000*%
%ADD11C,0.150000*%
%ADD12O,1.600000X1.600000*%
%ADD13R,1.600000X1.600000*%
%ADD14O,1.700000X1.700000*%
%ADD15R,1.700000X1.700000*%
G04 APERTURE END LIST*
D10*
X90330000Y-125670000D02*
X87670000Y-125670000D01*
X90330000Y-107830000D02*
X90330000Y-125670000D01*
X87670000Y-107830000D02*
X87670000Y-125670000D01*
X90330000Y-107830000D02*
X87670000Y-107830000D01*
X90330000Y-106560000D02*
X90330000Y-105230000D01*
X90330000Y-105230000D02*
X89000000Y-105230000D01*
X90330000Y-76710000D02*
X87670000Y-76710000D01*
X90330000Y-58870000D02*
X90330000Y-76710000D01*
X87670000Y-58870000D02*
X87670000Y-76710000D01*
X90330000Y-58870000D02*
X87670000Y-58870000D01*
X90330000Y-57600000D02*
X90330000Y-56270000D01*
X90330000Y-56270000D02*
X89000000Y-56270000D01*
X85070000Y-134670000D02*
X85070000Y-136000000D01*
X86400000Y-134670000D02*
X85070000Y-134670000D01*
X87670000Y-134670000D02*
X87670000Y-137330000D01*
X87670000Y-137330000D02*
X186790000Y-137330000D01*
X87670000Y-134670000D02*
X186790000Y-134670000D01*
X186790000Y-134670000D02*
X186790000Y-137330000D01*
X85070000Y-44670000D02*
X85070000Y-46000000D01*
X86400000Y-44670000D02*
X85070000Y-44670000D01*
X87670000Y-44670000D02*
X87670000Y-47330000D01*
X87670000Y-47330000D02*
X186790000Y-47330000D01*
X87670000Y-44670000D02*
X186790000Y-44670000D01*
X186790000Y-44670000D02*
X186790000Y-47330000D01*
D11*
X89333333Y-103682380D02*
X89333333Y-104396666D01*
X89380952Y-104539523D01*
X89476190Y-104634761D01*
X89619047Y-104682380D01*
X89714285Y-104682380D01*
X88428571Y-104015714D02*
X88428571Y-104682380D01*
X88666666Y-103634761D02*
X88904761Y-104349047D01*
X88285714Y-104349047D01*
X89333333Y-54722380D02*
X89333333Y-55436666D01*
X89380952Y-55579523D01*
X89476190Y-55674761D01*
X89619047Y-55722380D01*
X89714285Y-55722380D01*
X88952380Y-54722380D02*
X88333333Y-54722380D01*
X88666666Y-55103333D01*
X88523809Y-55103333D01*
X88428571Y-55150952D01*
X88380952Y-55198571D01*
X88333333Y-55293809D01*
X88333333Y-55531904D01*
X88380952Y-55627142D01*
X88428571Y-55674761D01*
X88523809Y-55722380D01*
X88809523Y-55722380D01*
X88904761Y-55674761D01*
X88952380Y-55627142D01*
X83522380Y-135666666D02*
X84236666Y-135666666D01*
X84379523Y-135619047D01*
X84474761Y-135523809D01*
X84522380Y-135380952D01*
X84522380Y-135285714D01*
X83617619Y-136095238D02*
X83570000Y-136142857D01*
X83522380Y-136238095D01*
X83522380Y-136476190D01*
X83570000Y-136571428D01*
X83617619Y-136619047D01*
X83712857Y-136666666D01*
X83808095Y-136666666D01*
X83950952Y-136619047D01*
X84522380Y-136047619D01*
X84522380Y-136666666D01*
X83522380Y-45666666D02*
X84236666Y-45666666D01*
X84379523Y-45619047D01*
X84474761Y-45523809D01*
X84522380Y-45380952D01*
X84522380Y-45285714D01*
X84522380Y-46666666D02*
X84522380Y-46095238D01*
X84522380Y-46380952D02*
X83522380Y-46380952D01*
X83665238Y-46285714D01*
X83760476Y-46190476D01*
X83808095Y-46095238D01*
%LPC*%
D12*
X155100000Y-86680000D03*
X172880000Y-94300000D03*
X157640000Y-86680000D03*
X170340000Y-94300000D03*
X160180000Y-86680000D03*
X167800000Y-94300000D03*
X162720000Y-86680000D03*
X165260000Y-94300000D03*
X165260000Y-86680000D03*
X162720000Y-94300000D03*
X167800000Y-86680000D03*
X160180000Y-94300000D03*
X170340000Y-86680000D03*
X157640000Y-94300000D03*
X172880000Y-86680000D03*
D13*
X155100000Y-94300000D03*
D14*
X89000000Y-124340000D03*
X89000000Y-121800000D03*
X89000000Y-119260000D03*
X89000000Y-116720000D03*
X89000000Y-114180000D03*
X89000000Y-111640000D03*
X89000000Y-109100000D03*
D15*
X89000000Y-106560000D03*
D14*
X89000000Y-75380000D03*
X89000000Y-72840000D03*
X89000000Y-70300000D03*
X89000000Y-67760000D03*
X89000000Y-65220000D03*
X89000000Y-62680000D03*
X89000000Y-60140000D03*
D15*
X89000000Y-57600000D03*
D12*
X122920000Y-58860000D03*
X115300000Y-76640000D03*
X122920000Y-61400000D03*
X115300000Y-74100000D03*
X122920000Y-63940000D03*
X115300000Y-71560000D03*
X122920000Y-66480000D03*
X115300000Y-69020000D03*
X122920000Y-69020000D03*
X115300000Y-66480000D03*
X122920000Y-71560000D03*
X115300000Y-63940000D03*
X122920000Y-74100000D03*
X115300000Y-61400000D03*
X122920000Y-76640000D03*
D13*
X115300000Y-58860000D03*
D12*
X107720000Y-58860000D03*
X100100000Y-76640000D03*
X107720000Y-61400000D03*
X100100000Y-74100000D03*
X107720000Y-63940000D03*
X100100000Y-71560000D03*
X107720000Y-66480000D03*
X100100000Y-69020000D03*
X107720000Y-69020000D03*
X100100000Y-66480000D03*
X107720000Y-71560000D03*
X100100000Y-63940000D03*
X107720000Y-74100000D03*
X100100000Y-61400000D03*
X107720000Y-76640000D03*
D13*
X100100000Y-58860000D03*
D12*
X104700000Y-115780000D03*
X127560000Y-123400000D03*
X107240000Y-115780000D03*
X125020000Y-123400000D03*
X109780000Y-115780000D03*
X122480000Y-123400000D03*
X112320000Y-115780000D03*
X119940000Y-123400000D03*
X114860000Y-115780000D03*
X117400000Y-123400000D03*
X117400000Y-115780000D03*
X114860000Y-123400000D03*
X119940000Y-115780000D03*
X112320000Y-123400000D03*
X122480000Y-115780000D03*
X109780000Y-123400000D03*
X125020000Y-115780000D03*
X107240000Y-123400000D03*
X127560000Y-115780000D03*
D13*
X104700000Y-123400000D03*
D12*
X105100000Y-97380000D03*
X127960000Y-105000000D03*
X107640000Y-97380000D03*
X125420000Y-105000000D03*
X110180000Y-97380000D03*
X122880000Y-105000000D03*
X112720000Y-97380000D03*
X120340000Y-105000000D03*
X115260000Y-97380000D03*
X117800000Y-105000000D03*
X117800000Y-97380000D03*
X115260000Y-105000000D03*
X120340000Y-97380000D03*
X112720000Y-105000000D03*
X122880000Y-97380000D03*
X110180000Y-105000000D03*
X125420000Y-97380000D03*
X107640000Y-105000000D03*
X127960000Y-97380000D03*
D13*
X105100000Y-105000000D03*
D14*
X185460000Y-136000000D03*
X182920000Y-136000000D03*
X180380000Y-136000000D03*
X177840000Y-136000000D03*
X175300000Y-136000000D03*
X172760000Y-136000000D03*
X170220000Y-136000000D03*
X167680000Y-136000000D03*
X165140000Y-136000000D03*
X162600000Y-136000000D03*
X160060000Y-136000000D03*
X157520000Y-136000000D03*
X154980000Y-136000000D03*
X152440000Y-136000000D03*
X149900000Y-136000000D03*
X147360000Y-136000000D03*
X144820000Y-136000000D03*
X142280000Y-136000000D03*
X139740000Y-136000000D03*
X137200000Y-136000000D03*
X134660000Y-136000000D03*
X132120000Y-136000000D03*
X129580000Y-136000000D03*
X127040000Y-136000000D03*
X124500000Y-136000000D03*
X121960000Y-136000000D03*
X119420000Y-136000000D03*
X116880000Y-136000000D03*
X114340000Y-136000000D03*
X111800000Y-136000000D03*
X109260000Y-136000000D03*
X106720000Y-136000000D03*
X104180000Y-136000000D03*
X101640000Y-136000000D03*
X99100000Y-136000000D03*
X96560000Y-136000000D03*
X94020000Y-136000000D03*
X91480000Y-136000000D03*
X88940000Y-136000000D03*
D15*
X86400000Y-136000000D03*
D14*
X185460000Y-46000000D03*
X182920000Y-46000000D03*
X180380000Y-46000000D03*
X177840000Y-46000000D03*
X175300000Y-46000000D03*
X172760000Y-46000000D03*
X170220000Y-46000000D03*
X167680000Y-46000000D03*
X165140000Y-46000000D03*
X162600000Y-46000000D03*
X160060000Y-46000000D03*
X157520000Y-46000000D03*
X154980000Y-46000000D03*
X152440000Y-46000000D03*
X149900000Y-46000000D03*
X147360000Y-46000000D03*
X144820000Y-46000000D03*
X142280000Y-46000000D03*
X139740000Y-46000000D03*
X137200000Y-46000000D03*
X134660000Y-46000000D03*
X132120000Y-46000000D03*
X129580000Y-46000000D03*
X127040000Y-46000000D03*
X124500000Y-46000000D03*
X121960000Y-46000000D03*
X119420000Y-46000000D03*
X116880000Y-46000000D03*
X114340000Y-46000000D03*
X111800000Y-46000000D03*
X109260000Y-46000000D03*
X106720000Y-46000000D03*
X104180000Y-46000000D03*
X101640000Y-46000000D03*
X99100000Y-46000000D03*
X96560000Y-46000000D03*
X94020000Y-46000000D03*
X91480000Y-46000000D03*
X88940000Y-46000000D03*
D15*
X86400000Y-46000000D03*
M02*
