G04 #@! TF.GenerationSoftware,KiCad,Pcbnew,(5.1.9)-1*
G04 #@! TF.CreationDate,2021-10-24T09:52:10-04:00*
G04 #@! TF.ProjectId,ir-rc,69722d72-632e-46b6-9963-61645f706362,1.0*
G04 #@! TF.SameCoordinates,Original*
G04 #@! TF.FileFunction,Legend,Top*
G04 #@! TF.FilePolarity,Positive*
%FSLAX46Y46*%
G04 Gerber Fmt 4.6, Leading zero omitted, Abs format (unit mm)*
G04 Created by KiCad (PCBNEW (5.1.9)-1) date 2021-10-24 09:52:10*
%MOMM*%
%LPD*%
G01*
G04 APERTURE LIST*
%ADD10C,0.150000*%
%ADD11C,0.300000*%
%ADD12C,0.120000*%
%ADD13C,0.170000*%
%ADD14C,0.200000*%
%ADD15O,1.600000X1.600000*%
%ADD16R,1.600000X1.600000*%
%ADD17O,1.700000X1.700000*%
%ADD18R,1.700000X1.700000*%
G04 APERTURE END LIST*
D10*
X184647619Y-94866666D02*
X184600000Y-94819047D01*
X184552380Y-94723809D01*
X184552380Y-94485714D01*
X184600000Y-94390476D01*
X184647619Y-94342857D01*
X184742857Y-94295238D01*
X184838095Y-94295238D01*
X184980952Y-94342857D01*
X185552380Y-94914285D01*
X185552380Y-94295238D01*
X184552380Y-93676190D02*
X184552380Y-93580952D01*
X184600000Y-93485714D01*
X184647619Y-93438095D01*
X184742857Y-93390476D01*
X184933333Y-93342857D01*
X185171428Y-93342857D01*
X185361904Y-93390476D01*
X185457142Y-93438095D01*
X185504761Y-93485714D01*
X185552380Y-93580952D01*
X185552380Y-93676190D01*
X185504761Y-93771428D01*
X185457142Y-93819047D01*
X185361904Y-93866666D01*
X185171428Y-93914285D01*
X184933333Y-93914285D01*
X184742857Y-93866666D01*
X184647619Y-93819047D01*
X184600000Y-93771428D01*
X184552380Y-93676190D01*
X184647619Y-92961904D02*
X184600000Y-92914285D01*
X184552380Y-92819047D01*
X184552380Y-92580952D01*
X184600000Y-92485714D01*
X184647619Y-92438095D01*
X184742857Y-92390476D01*
X184838095Y-92390476D01*
X184980952Y-92438095D01*
X185552380Y-93009523D01*
X185552380Y-92390476D01*
X185552380Y-91438095D02*
X185552380Y-92009523D01*
X185552380Y-91723809D02*
X184552380Y-91723809D01*
X184695238Y-91819047D01*
X184790476Y-91914285D01*
X184838095Y-92009523D01*
X184885714Y-90342857D02*
X185552380Y-90104761D01*
X184885714Y-89866666D01*
X185552380Y-88961904D02*
X185552380Y-89533333D01*
X185552380Y-89247619D02*
X184552380Y-89247619D01*
X184695238Y-89342857D01*
X184790476Y-89438095D01*
X184838095Y-89533333D01*
X185457142Y-88533333D02*
X185504761Y-88485714D01*
X185552380Y-88533333D01*
X185504761Y-88580952D01*
X185457142Y-88533333D01*
X185552380Y-88533333D01*
X184552380Y-87866666D02*
X184552380Y-87771428D01*
X184600000Y-87676190D01*
X184647619Y-87628571D01*
X184742857Y-87580952D01*
X184933333Y-87533333D01*
X185171428Y-87533333D01*
X185361904Y-87580952D01*
X185457142Y-87628571D01*
X185504761Y-87676190D01*
X185552380Y-87771428D01*
X185552380Y-87866666D01*
X185504761Y-87961904D01*
X185457142Y-88009523D01*
X185361904Y-88057142D01*
X185171428Y-88104761D01*
X184933333Y-88104761D01*
X184742857Y-88057142D01*
X184647619Y-88009523D01*
X184600000Y-87961904D01*
X184552380Y-87866666D01*
X142700000Y-50785714D02*
X142700000Y-51595238D01*
X142652380Y-51690476D01*
X142604761Y-51738095D01*
X142509523Y-51785714D01*
X142366666Y-51785714D01*
X142271428Y-51738095D01*
X142700000Y-51404761D02*
X142604761Y-51452380D01*
X142414285Y-51452380D01*
X142319047Y-51404761D01*
X142271428Y-51357142D01*
X142223809Y-51261904D01*
X142223809Y-50976190D01*
X142271428Y-50880952D01*
X142319047Y-50833333D01*
X142414285Y-50785714D01*
X142604761Y-50785714D01*
X142700000Y-50833333D01*
X143176190Y-51452380D02*
X143176190Y-50785714D01*
X143176190Y-50452380D02*
X143128571Y-50500000D01*
X143176190Y-50547619D01*
X143223809Y-50500000D01*
X143176190Y-50452380D01*
X143176190Y-50547619D01*
X143509523Y-50785714D02*
X143890476Y-50785714D01*
X143652380Y-50452380D02*
X143652380Y-51309523D01*
X143700000Y-51404761D01*
X143795238Y-51452380D01*
X143890476Y-51452380D01*
X144223809Y-51452380D02*
X144223809Y-50452380D01*
X144652380Y-51452380D02*
X144652380Y-50928571D01*
X144604761Y-50833333D01*
X144509523Y-50785714D01*
X144366666Y-50785714D01*
X144271428Y-50833333D01*
X144223809Y-50880952D01*
X145557142Y-50785714D02*
X145557142Y-51452380D01*
X145128571Y-50785714D02*
X145128571Y-51309523D01*
X145176190Y-51404761D01*
X145271428Y-51452380D01*
X145414285Y-51452380D01*
X145509523Y-51404761D01*
X145557142Y-51357142D01*
X146033333Y-51452380D02*
X146033333Y-50452380D01*
X146033333Y-50833333D02*
X146128571Y-50785714D01*
X146319047Y-50785714D01*
X146414285Y-50833333D01*
X146461904Y-50880952D01*
X146509523Y-50976190D01*
X146509523Y-51261904D01*
X146461904Y-51357142D01*
X146414285Y-51404761D01*
X146319047Y-51452380D01*
X146128571Y-51452380D01*
X146033333Y-51404761D01*
X146938095Y-51357142D02*
X146985714Y-51404761D01*
X146938095Y-51452380D01*
X146890476Y-51404761D01*
X146938095Y-51357142D01*
X146938095Y-51452380D01*
X147842857Y-51404761D02*
X147747619Y-51452380D01*
X147557142Y-51452380D01*
X147461904Y-51404761D01*
X147414285Y-51357142D01*
X147366666Y-51261904D01*
X147366666Y-50976190D01*
X147414285Y-50880952D01*
X147461904Y-50833333D01*
X147557142Y-50785714D01*
X147747619Y-50785714D01*
X147842857Y-50833333D01*
X148414285Y-51452380D02*
X148319047Y-51404761D01*
X148271428Y-51357142D01*
X148223809Y-51261904D01*
X148223809Y-50976190D01*
X148271428Y-50880952D01*
X148319047Y-50833333D01*
X148414285Y-50785714D01*
X148557142Y-50785714D01*
X148652380Y-50833333D01*
X148700000Y-50880952D01*
X148747619Y-50976190D01*
X148747619Y-51261904D01*
X148700000Y-51357142D01*
X148652380Y-51404761D01*
X148557142Y-51452380D01*
X148414285Y-51452380D01*
X149176190Y-51452380D02*
X149176190Y-50785714D01*
X149176190Y-50880952D02*
X149223809Y-50833333D01*
X149319047Y-50785714D01*
X149461904Y-50785714D01*
X149557142Y-50833333D01*
X149604761Y-50928571D01*
X149604761Y-51452380D01*
X149604761Y-50928571D02*
X149652380Y-50833333D01*
X149747619Y-50785714D01*
X149890476Y-50785714D01*
X149985714Y-50833333D01*
X150033333Y-50928571D01*
X150033333Y-51452380D01*
X151223809Y-50404761D02*
X150366666Y-51690476D01*
X151414285Y-50452380D02*
X151985714Y-50452380D01*
X151700000Y-51452380D02*
X151700000Y-50452380D01*
X152461904Y-51452380D02*
X152366666Y-51404761D01*
X152319047Y-51357142D01*
X152271428Y-51261904D01*
X152271428Y-50976190D01*
X152319047Y-50880952D01*
X152366666Y-50833333D01*
X152461904Y-50785714D01*
X152604761Y-50785714D01*
X152700000Y-50833333D01*
X152747619Y-50880952D01*
X152795238Y-50976190D01*
X152795238Y-51261904D01*
X152747619Y-51357142D01*
X152700000Y-51404761D01*
X152604761Y-51452380D01*
X152461904Y-51452380D01*
X153223809Y-51452380D02*
X153223809Y-50785714D01*
X153223809Y-50880952D02*
X153271428Y-50833333D01*
X153366666Y-50785714D01*
X153509523Y-50785714D01*
X153604761Y-50833333D01*
X153652380Y-50928571D01*
X153652380Y-51452380D01*
X153652380Y-50928571D02*
X153700000Y-50833333D01*
X153795238Y-50785714D01*
X153938095Y-50785714D01*
X154033333Y-50833333D01*
X154080952Y-50928571D01*
X154080952Y-51452380D01*
X154557142Y-51452380D02*
X154557142Y-50452380D01*
X155128571Y-51452380D01*
X155128571Y-50452380D01*
X155604761Y-51452380D02*
X155604761Y-50785714D01*
X155604761Y-50452380D02*
X155557142Y-50500000D01*
X155604761Y-50547619D01*
X155652380Y-50500000D01*
X155604761Y-50452380D01*
X155604761Y-50547619D01*
X156033333Y-51404761D02*
X156128571Y-51452380D01*
X156319047Y-51452380D01*
X156414285Y-51404761D01*
X156461904Y-51309523D01*
X156461904Y-51261904D01*
X156414285Y-51166666D01*
X156319047Y-51119047D01*
X156176190Y-51119047D01*
X156080952Y-51071428D01*
X156033333Y-50976190D01*
X156033333Y-50928571D01*
X156080952Y-50833333D01*
X156176190Y-50785714D01*
X156319047Y-50785714D01*
X156414285Y-50833333D01*
X156890476Y-51452380D02*
X156890476Y-50452380D01*
X156890476Y-50833333D02*
X156985714Y-50785714D01*
X157176190Y-50785714D01*
X157271428Y-50833333D01*
X157319047Y-50880952D01*
X157366666Y-50976190D01*
X157366666Y-51261904D01*
X157319047Y-51357142D01*
X157271428Y-51404761D01*
X157176190Y-51452380D01*
X156985714Y-51452380D01*
X156890476Y-51404761D01*
X158176190Y-51404761D02*
X158080952Y-51452380D01*
X157890476Y-51452380D01*
X157795238Y-51404761D01*
X157747619Y-51309523D01*
X157747619Y-50928571D01*
X157795238Y-50833333D01*
X157890476Y-50785714D01*
X158080952Y-50785714D01*
X158176190Y-50833333D01*
X158223809Y-50928571D01*
X158223809Y-51023809D01*
X157747619Y-51119047D01*
X158509523Y-50785714D02*
X158890476Y-50785714D01*
X158652380Y-50452380D02*
X158652380Y-51309523D01*
X158700000Y-51404761D01*
X158795238Y-51452380D01*
X158890476Y-51452380D01*
X159938095Y-50404761D02*
X159080952Y-51690476D01*
X160271428Y-50785714D02*
X160271428Y-51452380D01*
X160271428Y-50880952D02*
X160319047Y-50833333D01*
X160414285Y-50785714D01*
X160557142Y-50785714D01*
X160652380Y-50833333D01*
X160700000Y-50928571D01*
X160700000Y-51452380D01*
X161604761Y-50785714D02*
X161604761Y-51785714D01*
X161604761Y-51404761D02*
X161509523Y-51452380D01*
X161319047Y-51452380D01*
X161223809Y-51404761D01*
X161176190Y-51357142D01*
X161128571Y-51261904D01*
X161128571Y-50976190D01*
X161176190Y-50880952D01*
X161223809Y-50833333D01*
X161319047Y-50785714D01*
X161509523Y-50785714D01*
X161604761Y-50833333D01*
X162033333Y-51404761D02*
X162128571Y-51452380D01*
X162319047Y-51452380D01*
X162414285Y-51404761D01*
X162461904Y-51309523D01*
X162461904Y-51261904D01*
X162414285Y-51166666D01*
X162319047Y-51119047D01*
X162176190Y-51119047D01*
X162080952Y-51071428D01*
X162033333Y-50976190D01*
X162033333Y-50928571D01*
X162080952Y-50833333D01*
X162176190Y-50785714D01*
X162319047Y-50785714D01*
X162414285Y-50833333D01*
X163319047Y-51452380D02*
X163319047Y-50928571D01*
X163271428Y-50833333D01*
X163176190Y-50785714D01*
X162985714Y-50785714D01*
X162890476Y-50833333D01*
X163319047Y-51404761D02*
X163223809Y-51452380D01*
X162985714Y-51452380D01*
X162890476Y-51404761D01*
X162842857Y-51309523D01*
X162842857Y-51214285D01*
X162890476Y-51119047D01*
X162985714Y-51071428D01*
X163223809Y-51071428D01*
X163319047Y-51023809D01*
X163795238Y-50785714D02*
X163795238Y-51785714D01*
X163795238Y-50833333D02*
X163890476Y-50785714D01*
X164080952Y-50785714D01*
X164176190Y-50833333D01*
X164223809Y-50880952D01*
X164271428Y-50976190D01*
X164271428Y-51261904D01*
X164223809Y-51357142D01*
X164176190Y-51404761D01*
X164080952Y-51452380D01*
X163890476Y-51452380D01*
X163795238Y-51404761D01*
X164700000Y-51071428D02*
X165461904Y-51071428D01*
X165938095Y-50785714D02*
X165938095Y-51785714D01*
X165938095Y-50833333D02*
X166033333Y-50785714D01*
X166223809Y-50785714D01*
X166319047Y-50833333D01*
X166366666Y-50880952D01*
X166414285Y-50976190D01*
X166414285Y-51261904D01*
X166366666Y-51357142D01*
X166319047Y-51404761D01*
X166223809Y-51452380D01*
X166033333Y-51452380D01*
X165938095Y-51404761D01*
X167271428Y-51404761D02*
X167176190Y-51452380D01*
X166985714Y-51452380D01*
X166890476Y-51404761D01*
X166842857Y-51357142D01*
X166795238Y-51261904D01*
X166795238Y-50976190D01*
X166842857Y-50880952D01*
X166890476Y-50833333D01*
X166985714Y-50785714D01*
X167176190Y-50785714D01*
X167271428Y-50833333D01*
X167700000Y-51452380D02*
X167700000Y-50452380D01*
X167700000Y-50833333D02*
X167795238Y-50785714D01*
X167985714Y-50785714D01*
X168080952Y-50833333D01*
X168128571Y-50880952D01*
X168176190Y-50976190D01*
X168176190Y-51261904D01*
X168128571Y-51357142D01*
X168080952Y-51404761D01*
X167985714Y-51452380D01*
X167795238Y-51452380D01*
X167700000Y-51404761D01*
X90897500Y-56785000D02*
X91897500Y-56785000D01*
X91707023Y-58152380D02*
X91373690Y-57676190D01*
X91135595Y-58152380D02*
X91135595Y-57152380D01*
X91516547Y-57152380D01*
X91611785Y-57200000D01*
X91659404Y-57247619D01*
X91707023Y-57342857D01*
X91707023Y-57485714D01*
X91659404Y-57580952D01*
X91611785Y-57628571D01*
X91516547Y-57676190D01*
X91135595Y-57676190D01*
X91897500Y-56785000D02*
X92849880Y-56785000D01*
X92087976Y-58104761D02*
X92230833Y-58152380D01*
X92468928Y-58152380D01*
X92564166Y-58104761D01*
X92611785Y-58057142D01*
X92659404Y-57961904D01*
X92659404Y-57866666D01*
X92611785Y-57771428D01*
X92564166Y-57723809D01*
X92468928Y-57676190D01*
X92278452Y-57628571D01*
X92183214Y-57580952D01*
X92135595Y-57533333D01*
X92087976Y-57438095D01*
X92087976Y-57342857D01*
X92135595Y-57247619D01*
X92183214Y-57200000D01*
X92278452Y-57152380D01*
X92516547Y-57152380D01*
X92659404Y-57200000D01*
X92849880Y-56785000D02*
X93611785Y-56785000D01*
X92945119Y-57152380D02*
X93516547Y-57152380D01*
X93230833Y-58152380D02*
X93230833Y-57152380D01*
X90897500Y-59285000D02*
X91897500Y-59285000D01*
X91707023Y-60557142D02*
X91659404Y-60604761D01*
X91516547Y-60652380D01*
X91421309Y-60652380D01*
X91278452Y-60604761D01*
X91183214Y-60509523D01*
X91135595Y-60414285D01*
X91087976Y-60223809D01*
X91087976Y-60080952D01*
X91135595Y-59890476D01*
X91183214Y-59795238D01*
X91278452Y-59700000D01*
X91421309Y-59652380D01*
X91516547Y-59652380D01*
X91659404Y-59700000D01*
X91707023Y-59747619D01*
X91897500Y-59285000D02*
X92707023Y-59285000D01*
X92611785Y-60652380D02*
X92135595Y-60652380D01*
X92135595Y-59652380D01*
X92707023Y-59285000D02*
X93707023Y-59285000D01*
X92945119Y-60652380D02*
X92945119Y-59652380D01*
X93516547Y-60652380D02*
X93087976Y-60080952D01*
X93516547Y-59652380D02*
X92945119Y-60223809D01*
X91707023Y-63057142D02*
X91659404Y-63104761D01*
X91516547Y-63152380D01*
X91421309Y-63152380D01*
X91278452Y-63104761D01*
X91183214Y-63009523D01*
X91135595Y-62914285D01*
X91087976Y-62723809D01*
X91087976Y-62580952D01*
X91135595Y-62390476D01*
X91183214Y-62295238D01*
X91278452Y-62200000D01*
X91421309Y-62152380D01*
X91516547Y-62152380D01*
X91659404Y-62200000D01*
X91707023Y-62247619D01*
X92611785Y-63152380D02*
X92135595Y-63152380D01*
X92135595Y-62152380D01*
X92945119Y-63152380D02*
X92945119Y-62152380D01*
X93516547Y-63152380D02*
X93087976Y-62580952D01*
X93516547Y-62152380D02*
X92945119Y-62723809D01*
X91811785Y-65652380D02*
X91335595Y-65652380D01*
X91335595Y-64652380D01*
X92145119Y-65652380D02*
X92145119Y-64652380D01*
X92383214Y-64652380D01*
X92526071Y-64700000D01*
X92621309Y-64795238D01*
X92668928Y-64890476D01*
X92716547Y-65080952D01*
X92716547Y-65223809D01*
X92668928Y-65414285D01*
X92621309Y-65509523D01*
X92526071Y-65604761D01*
X92383214Y-65652380D01*
X92145119Y-65652380D01*
X93145119Y-65271428D02*
X93907023Y-65271428D01*
X94335595Y-65366666D02*
X94811785Y-65366666D01*
X94240357Y-65652380D02*
X94573690Y-64652380D01*
X94907023Y-65652380D01*
X95811785Y-65557142D02*
X95764166Y-65604761D01*
X95621309Y-65652380D01*
X95526071Y-65652380D01*
X95383214Y-65604761D01*
X95287976Y-65509523D01*
X95240357Y-65414285D01*
X95192738Y-65223809D01*
X95192738Y-65080952D01*
X95240357Y-64890476D01*
X95287976Y-64795238D01*
X95383214Y-64700000D01*
X95526071Y-64652380D01*
X95621309Y-64652380D01*
X95764166Y-64700000D01*
X95811785Y-64747619D01*
X96097500Y-64652380D02*
X96668928Y-64652380D01*
X96383214Y-65652380D02*
X96383214Y-64652380D01*
X91335595Y-75952380D02*
X91335595Y-74952380D01*
X91668928Y-75666666D01*
X92002261Y-74952380D01*
X92002261Y-75952380D01*
X92430833Y-75666666D02*
X92907023Y-75666666D01*
X92335595Y-75952380D02*
X92668928Y-74952380D01*
X93002261Y-75952380D01*
X93240357Y-74952380D02*
X93859404Y-74952380D01*
X93526071Y-75333333D01*
X93668928Y-75333333D01*
X93764166Y-75380952D01*
X93811785Y-75428571D01*
X93859404Y-75523809D01*
X93859404Y-75761904D01*
X93811785Y-75857142D01*
X93764166Y-75904761D01*
X93668928Y-75952380D01*
X93383214Y-75952380D01*
X93287976Y-75904761D01*
X93240357Y-75857142D01*
X91335595Y-73352380D02*
X91335595Y-72352380D01*
X91668928Y-73066666D01*
X92002261Y-72352380D01*
X92002261Y-73352380D01*
X92430833Y-73066666D02*
X92907023Y-73066666D01*
X92335595Y-73352380D02*
X92668928Y-72352380D01*
X93002261Y-73352380D01*
X93287976Y-72447619D02*
X93335595Y-72400000D01*
X93430833Y-72352380D01*
X93668928Y-72352380D01*
X93764166Y-72400000D01*
X93811785Y-72447619D01*
X93859404Y-72542857D01*
X93859404Y-72638095D01*
X93811785Y-72780952D01*
X93240357Y-73352380D01*
X93859404Y-73352380D01*
X91335595Y-70852380D02*
X91335595Y-69852380D01*
X91668928Y-70566666D01*
X92002261Y-69852380D01*
X92002261Y-70852380D01*
X92430833Y-70566666D02*
X92907023Y-70566666D01*
X92335595Y-70852380D02*
X92668928Y-69852380D01*
X93002261Y-70852380D01*
X93859404Y-70852380D02*
X93287976Y-70852380D01*
X93573690Y-70852380D02*
X93573690Y-69852380D01*
X93478452Y-69995238D01*
X93383214Y-70090476D01*
X93287976Y-70138095D01*
X91235595Y-122352380D02*
X91235595Y-121352380D01*
X91568928Y-122066666D01*
X91902261Y-121352380D01*
X91902261Y-122352380D01*
X92330833Y-122066666D02*
X92807023Y-122066666D01*
X92235595Y-122352380D02*
X92568928Y-121352380D01*
X92902261Y-122352380D01*
X93759404Y-122352380D02*
X93187976Y-122352380D01*
X93473690Y-122352380D02*
X93473690Y-121352380D01*
X93378452Y-121495238D01*
X93283214Y-121590476D01*
X93187976Y-121638095D01*
X94378452Y-121352380D02*
X94473690Y-121352380D01*
X94568928Y-121400000D01*
X94616547Y-121447619D01*
X94664166Y-121542857D01*
X94711785Y-121733333D01*
X94711785Y-121971428D01*
X94664166Y-122161904D01*
X94616547Y-122257142D01*
X94568928Y-122304761D01*
X94473690Y-122352380D01*
X94378452Y-122352380D01*
X94283214Y-122304761D01*
X94235595Y-122257142D01*
X94187976Y-122161904D01*
X94140357Y-121971428D01*
X94140357Y-121733333D01*
X94187976Y-121542857D01*
X94235595Y-121447619D01*
X94283214Y-121400000D01*
X94378452Y-121352380D01*
X91235595Y-119752380D02*
X91235595Y-118752380D01*
X91568928Y-119466666D01*
X91902261Y-118752380D01*
X91902261Y-119752380D01*
X92330833Y-119466666D02*
X92807023Y-119466666D01*
X92235595Y-119752380D02*
X92568928Y-118752380D01*
X92902261Y-119752380D01*
X93283214Y-119752380D02*
X93473690Y-119752380D01*
X93568928Y-119704761D01*
X93616547Y-119657142D01*
X93711785Y-119514285D01*
X93759404Y-119323809D01*
X93759404Y-118942857D01*
X93711785Y-118847619D01*
X93664166Y-118800000D01*
X93568928Y-118752380D01*
X93378452Y-118752380D01*
X93283214Y-118800000D01*
X93235595Y-118847619D01*
X93187976Y-118942857D01*
X93187976Y-119180952D01*
X93235595Y-119276190D01*
X93283214Y-119323809D01*
X93378452Y-119371428D01*
X93568928Y-119371428D01*
X93664166Y-119323809D01*
X93711785Y-119276190D01*
X93759404Y-119180952D01*
X91235595Y-117252380D02*
X91235595Y-116252380D01*
X91568928Y-116966666D01*
X91902261Y-116252380D01*
X91902261Y-117252380D01*
X92330833Y-116966666D02*
X92807023Y-116966666D01*
X92235595Y-117252380D02*
X92568928Y-116252380D01*
X92902261Y-117252380D01*
X93378452Y-116680952D02*
X93283214Y-116633333D01*
X93235595Y-116585714D01*
X93187976Y-116490476D01*
X93187976Y-116442857D01*
X93235595Y-116347619D01*
X93283214Y-116300000D01*
X93378452Y-116252380D01*
X93568928Y-116252380D01*
X93664166Y-116300000D01*
X93711785Y-116347619D01*
X93759404Y-116442857D01*
X93759404Y-116490476D01*
X93711785Y-116585714D01*
X93664166Y-116633333D01*
X93568928Y-116680952D01*
X93378452Y-116680952D01*
X93283214Y-116728571D01*
X93235595Y-116776190D01*
X93187976Y-116871428D01*
X93187976Y-117061904D01*
X93235595Y-117157142D01*
X93283214Y-117204761D01*
X93378452Y-117252380D01*
X93568928Y-117252380D01*
X93664166Y-117204761D01*
X93711785Y-117157142D01*
X93759404Y-117061904D01*
X93759404Y-116871428D01*
X93711785Y-116776190D01*
X93664166Y-116728571D01*
X93568928Y-116680952D01*
X91235595Y-114652380D02*
X91235595Y-113652380D01*
X91568928Y-114366666D01*
X91902261Y-113652380D01*
X91902261Y-114652380D01*
X92330833Y-114366666D02*
X92807023Y-114366666D01*
X92235595Y-114652380D02*
X92568928Y-113652380D01*
X92902261Y-114652380D01*
X93140357Y-113652380D02*
X93807023Y-113652380D01*
X93378452Y-114652380D01*
X91235595Y-112152380D02*
X91235595Y-111152380D01*
X91568928Y-111866666D01*
X91902261Y-111152380D01*
X91902261Y-112152380D01*
X92330833Y-111866666D02*
X92807023Y-111866666D01*
X92235595Y-112152380D02*
X92568928Y-111152380D01*
X92902261Y-112152380D01*
X93664166Y-111152380D02*
X93473690Y-111152380D01*
X93378452Y-111200000D01*
X93330833Y-111247619D01*
X93235595Y-111390476D01*
X93187976Y-111580952D01*
X93187976Y-111961904D01*
X93235595Y-112057142D01*
X93283214Y-112104761D01*
X93378452Y-112152380D01*
X93568928Y-112152380D01*
X93664166Y-112104761D01*
X93711785Y-112057142D01*
X93759404Y-111961904D01*
X93759404Y-111723809D01*
X93711785Y-111628571D01*
X93664166Y-111580952D01*
X93568928Y-111533333D01*
X93378452Y-111533333D01*
X93283214Y-111580952D01*
X93235595Y-111628571D01*
X93187976Y-111723809D01*
X91235595Y-109552380D02*
X91235595Y-108552380D01*
X91568928Y-109266666D01*
X91902261Y-108552380D01*
X91902261Y-109552380D01*
X92330833Y-109266666D02*
X92807023Y-109266666D01*
X92235595Y-109552380D02*
X92568928Y-108552380D01*
X92902261Y-109552380D01*
X93711785Y-108552380D02*
X93235595Y-108552380D01*
X93187976Y-109028571D01*
X93235595Y-108980952D01*
X93330833Y-108933333D01*
X93568928Y-108933333D01*
X93664166Y-108980952D01*
X93711785Y-109028571D01*
X93759404Y-109123809D01*
X93759404Y-109361904D01*
X93711785Y-109457142D01*
X93664166Y-109504761D01*
X93568928Y-109552380D01*
X93330833Y-109552380D01*
X93235595Y-109504761D01*
X93187976Y-109457142D01*
X91235595Y-107052380D02*
X91235595Y-106052380D01*
X91568928Y-106766666D01*
X91902261Y-106052380D01*
X91902261Y-107052380D01*
X92330833Y-106766666D02*
X92807023Y-106766666D01*
X92235595Y-107052380D02*
X92568928Y-106052380D01*
X92902261Y-107052380D01*
X93664166Y-106385714D02*
X93664166Y-107052380D01*
X93426071Y-106004761D02*
X93187976Y-106719047D01*
X93807023Y-106719047D01*
X91235595Y-124852380D02*
X91235595Y-123852380D01*
X91568928Y-124566666D01*
X91902261Y-123852380D01*
X91902261Y-124852380D01*
X92330833Y-124566666D02*
X92807023Y-124566666D01*
X92235595Y-124852380D02*
X92568928Y-123852380D01*
X92902261Y-124852380D01*
X93759404Y-124852380D02*
X93187976Y-124852380D01*
X93473690Y-124852380D02*
X93473690Y-123852380D01*
X93378452Y-123995238D01*
X93283214Y-124090476D01*
X93187976Y-124138095D01*
X94711785Y-124852380D02*
X94140357Y-124852380D01*
X94426071Y-124852380D02*
X94426071Y-123852380D01*
X94330833Y-123995238D01*
X94235595Y-124090476D01*
X94140357Y-124138095D01*
X91135595Y-68352380D02*
X91135595Y-67352380D01*
X91468928Y-68066666D01*
X91802261Y-67352380D01*
X91802261Y-68352380D01*
X92230833Y-68066666D02*
X92707023Y-68066666D01*
X92135595Y-68352380D02*
X92468928Y-67352380D01*
X92802261Y-68352380D01*
X93326071Y-67352380D02*
X93421309Y-67352380D01*
X93516547Y-67400000D01*
X93564166Y-67447619D01*
X93611785Y-67542857D01*
X93659404Y-67733333D01*
X93659404Y-67971428D01*
X93611785Y-68161904D01*
X93564166Y-68257142D01*
X93516547Y-68304761D01*
X93421309Y-68352380D01*
X93326071Y-68352380D01*
X93230833Y-68304761D01*
X93183214Y-68257142D01*
X93135595Y-68161904D01*
X93087976Y-67971428D01*
X93087976Y-67733333D01*
X93135595Y-67542857D01*
X93183214Y-67447619D01*
X93230833Y-67400000D01*
X93326071Y-67352380D01*
D11*
X144652380Y-107059523D02*
X144652380Y-103059523D01*
X146557142Y-104392857D02*
X146557142Y-107059523D01*
X146557142Y-104773809D02*
X146747619Y-104583333D01*
X147128571Y-104392857D01*
X147700000Y-104392857D01*
X148080952Y-104583333D01*
X148271428Y-104964285D01*
X148271428Y-107059523D01*
X149985714Y-106869047D02*
X150366666Y-107059523D01*
X151128571Y-107059523D01*
X151509523Y-106869047D01*
X151700000Y-106488095D01*
X151700000Y-106297619D01*
X151509523Y-105916666D01*
X151128571Y-105726190D01*
X150557142Y-105726190D01*
X150176190Y-105535714D01*
X149985714Y-105154761D01*
X149985714Y-104964285D01*
X150176190Y-104583333D01*
X150557142Y-104392857D01*
X151128571Y-104392857D01*
X151509523Y-104583333D01*
X152842857Y-104392857D02*
X154366666Y-104392857D01*
X153414285Y-103059523D02*
X153414285Y-106488095D01*
X153604761Y-106869047D01*
X153985714Y-107059523D01*
X154366666Y-107059523D01*
X155700000Y-107059523D02*
X155700000Y-104392857D01*
X155700000Y-105154761D02*
X155890476Y-104773809D01*
X156080952Y-104583333D01*
X156461904Y-104392857D01*
X156842857Y-104392857D01*
X159890476Y-104392857D02*
X159890476Y-107059523D01*
X158176190Y-104392857D02*
X158176190Y-106488095D01*
X158366666Y-106869047D01*
X158747619Y-107059523D01*
X159319047Y-107059523D01*
X159700000Y-106869047D01*
X159890476Y-106678571D01*
X163509523Y-106869047D02*
X163128571Y-107059523D01*
X162366666Y-107059523D01*
X161985714Y-106869047D01*
X161795238Y-106678571D01*
X161604761Y-106297619D01*
X161604761Y-105154761D01*
X161795238Y-104773809D01*
X161985714Y-104583333D01*
X162366666Y-104392857D01*
X163128571Y-104392857D01*
X163509523Y-104583333D01*
X164652380Y-104392857D02*
X166176190Y-104392857D01*
X165223809Y-103059523D02*
X165223809Y-106488095D01*
X165414285Y-106869047D01*
X165795238Y-107059523D01*
X166176190Y-107059523D01*
X167509523Y-107059523D02*
X167509523Y-104392857D01*
X167509523Y-103059523D02*
X167319047Y-103250000D01*
X167509523Y-103440476D01*
X167700000Y-103250000D01*
X167509523Y-103059523D01*
X167509523Y-103440476D01*
X169985714Y-107059523D02*
X169604761Y-106869047D01*
X169414285Y-106678571D01*
X169223809Y-106297619D01*
X169223809Y-105154761D01*
X169414285Y-104773809D01*
X169604761Y-104583333D01*
X169985714Y-104392857D01*
X170557142Y-104392857D01*
X170938095Y-104583333D01*
X171128571Y-104773809D01*
X171319047Y-105154761D01*
X171319047Y-106297619D01*
X171128571Y-106678571D01*
X170938095Y-106869047D01*
X170557142Y-107059523D01*
X169985714Y-107059523D01*
X173033333Y-104392857D02*
X173033333Y-107059523D01*
X173033333Y-104773809D02*
X173223809Y-104583333D01*
X173604761Y-104392857D01*
X174176190Y-104392857D01*
X174557142Y-104583333D01*
X174747619Y-104964285D01*
X174747619Y-107059523D01*
X150747619Y-113359523D02*
X149414285Y-111454761D01*
X148461904Y-113359523D02*
X148461904Y-109359523D01*
X149985714Y-109359523D01*
X150366666Y-109550000D01*
X150557142Y-109740476D01*
X150747619Y-110121428D01*
X150747619Y-110692857D01*
X150557142Y-111073809D01*
X150366666Y-111264285D01*
X149985714Y-111454761D01*
X148461904Y-111454761D01*
X153985714Y-113169047D02*
X153604761Y-113359523D01*
X152842857Y-113359523D01*
X152461904Y-113169047D01*
X152271428Y-112788095D01*
X152271428Y-111264285D01*
X152461904Y-110883333D01*
X152842857Y-110692857D01*
X153604761Y-110692857D01*
X153985714Y-110883333D01*
X154176190Y-111264285D01*
X154176190Y-111645238D01*
X152271428Y-112026190D01*
X157604761Y-110692857D02*
X157604761Y-113930952D01*
X157414285Y-114311904D01*
X157223809Y-114502380D01*
X156842857Y-114692857D01*
X156271428Y-114692857D01*
X155890476Y-114502380D01*
X157604761Y-113169047D02*
X157223809Y-113359523D01*
X156461904Y-113359523D01*
X156080952Y-113169047D01*
X155890476Y-112978571D01*
X155700000Y-112597619D01*
X155700000Y-111454761D01*
X155890476Y-111073809D01*
X156080952Y-110883333D01*
X156461904Y-110692857D01*
X157223809Y-110692857D01*
X157604761Y-110883333D01*
X159509523Y-113359523D02*
X159509523Y-110692857D01*
X159509523Y-109359523D02*
X159319047Y-109550000D01*
X159509523Y-109740476D01*
X159700000Y-109550000D01*
X159509523Y-109359523D01*
X159509523Y-109740476D01*
X161223809Y-113169047D02*
X161604761Y-113359523D01*
X162366666Y-113359523D01*
X162747619Y-113169047D01*
X162938095Y-112788095D01*
X162938095Y-112597619D01*
X162747619Y-112216666D01*
X162366666Y-112026190D01*
X161795238Y-112026190D01*
X161414285Y-111835714D01*
X161223809Y-111454761D01*
X161223809Y-111264285D01*
X161414285Y-110883333D01*
X161795238Y-110692857D01*
X162366666Y-110692857D01*
X162747619Y-110883333D01*
X164080952Y-110692857D02*
X165604761Y-110692857D01*
X164652380Y-109359523D02*
X164652380Y-112788095D01*
X164842857Y-113169047D01*
X165223809Y-113359523D01*
X165604761Y-113359523D01*
X168461904Y-113169047D02*
X168080952Y-113359523D01*
X167319047Y-113359523D01*
X166938095Y-113169047D01*
X166747619Y-112788095D01*
X166747619Y-111264285D01*
X166938095Y-110883333D01*
X167319047Y-110692857D01*
X168080952Y-110692857D01*
X168461904Y-110883333D01*
X168652380Y-111264285D01*
X168652380Y-111645238D01*
X166747619Y-112026190D01*
X170366666Y-113359523D02*
X170366666Y-110692857D01*
X170366666Y-111454761D02*
X170557142Y-111073809D01*
X170747619Y-110883333D01*
X171128571Y-110692857D01*
X171509523Y-110692857D01*
X142319047Y-75709523D02*
X140985714Y-73804761D01*
X140033333Y-75709523D02*
X140033333Y-71709523D01*
X141557142Y-71709523D01*
X141938095Y-71900000D01*
X142128571Y-72090476D01*
X142319047Y-72471428D01*
X142319047Y-73042857D01*
X142128571Y-73423809D01*
X141938095Y-73614285D01*
X141557142Y-73804761D01*
X140033333Y-73804761D01*
X144033333Y-75709523D02*
X144033333Y-73042857D01*
X144033333Y-71709523D02*
X143842857Y-71900000D01*
X144033333Y-72090476D01*
X144223809Y-71900000D01*
X144033333Y-71709523D01*
X144033333Y-72090476D01*
X145938095Y-73042857D02*
X145938095Y-75709523D01*
X145938095Y-73423809D02*
X146128571Y-73233333D01*
X146509523Y-73042857D01*
X147080952Y-73042857D01*
X147461904Y-73233333D01*
X147652380Y-73614285D01*
X147652380Y-75709523D01*
X151271428Y-73042857D02*
X151271428Y-76280952D01*
X151080952Y-76661904D01*
X150890476Y-76852380D01*
X150509523Y-77042857D01*
X149938095Y-77042857D01*
X149557142Y-76852380D01*
X151271428Y-75519047D02*
X150890476Y-75709523D01*
X150128571Y-75709523D01*
X149747619Y-75519047D01*
X149557142Y-75328571D01*
X149366666Y-74947619D01*
X149366666Y-73804761D01*
X149557142Y-73423809D01*
X149747619Y-73233333D01*
X150128571Y-73042857D01*
X150890476Y-73042857D01*
X151271428Y-73233333D01*
X158509523Y-75328571D02*
X158319047Y-75519047D01*
X157747619Y-75709523D01*
X157366666Y-75709523D01*
X156795238Y-75519047D01*
X156414285Y-75138095D01*
X156223809Y-74757142D01*
X156033333Y-73995238D01*
X156033333Y-73423809D01*
X156223809Y-72661904D01*
X156414285Y-72280952D01*
X156795238Y-71900000D01*
X157366666Y-71709523D01*
X157747619Y-71709523D01*
X158319047Y-71900000D01*
X158509523Y-72090476D01*
X160795238Y-75709523D02*
X160414285Y-75519047D01*
X160223809Y-75328571D01*
X160033333Y-74947619D01*
X160033333Y-73804761D01*
X160223809Y-73423809D01*
X160414285Y-73233333D01*
X160795238Y-73042857D01*
X161366666Y-73042857D01*
X161747619Y-73233333D01*
X161938095Y-73423809D01*
X162128571Y-73804761D01*
X162128571Y-74947619D01*
X161938095Y-75328571D01*
X161747619Y-75519047D01*
X161366666Y-75709523D01*
X160795238Y-75709523D01*
X165557142Y-73042857D02*
X165557142Y-75709523D01*
X163842857Y-73042857D02*
X163842857Y-75138095D01*
X164033333Y-75519047D01*
X164414285Y-75709523D01*
X164985714Y-75709523D01*
X165366666Y-75519047D01*
X165557142Y-75328571D01*
X167461904Y-73042857D02*
X167461904Y-75709523D01*
X167461904Y-73423809D02*
X167652380Y-73233333D01*
X168033333Y-73042857D01*
X168604761Y-73042857D01*
X168985714Y-73233333D01*
X169176190Y-73614285D01*
X169176190Y-75709523D01*
X170509523Y-73042857D02*
X172033333Y-73042857D01*
X171080952Y-71709523D02*
X171080952Y-75138095D01*
X171271428Y-75519047D01*
X171652380Y-75709523D01*
X172033333Y-75709523D01*
X174890476Y-75519047D02*
X174509523Y-75709523D01*
X173747619Y-75709523D01*
X173366666Y-75519047D01*
X173176190Y-75138095D01*
X173176190Y-73614285D01*
X173366666Y-73233333D01*
X173747619Y-73042857D01*
X174509523Y-73042857D01*
X174890476Y-73233333D01*
X175080952Y-73614285D01*
X175080952Y-73995238D01*
X173176190Y-74376190D01*
X176795238Y-75709523D02*
X176795238Y-73042857D01*
X176795238Y-73804761D02*
X176985714Y-73423809D01*
X177176190Y-73233333D01*
X177557142Y-73042857D01*
X177938095Y-73042857D01*
D10*
X174942857Y-48707023D02*
X174895238Y-48659404D01*
X174847619Y-48516547D01*
X174847619Y-48421309D01*
X174895238Y-48278452D01*
X174990476Y-48183214D01*
X175085714Y-48135595D01*
X175276190Y-48087976D01*
X175419047Y-48087976D01*
X175609523Y-48135595D01*
X175704761Y-48183214D01*
X175800000Y-48278452D01*
X175847619Y-48421309D01*
X175847619Y-48516547D01*
X175800000Y-48659404D01*
X175752380Y-48707023D01*
X174847619Y-49611785D02*
X174847619Y-49135595D01*
X175847619Y-49135595D01*
X174847619Y-49945119D02*
X175847619Y-49945119D01*
X174847619Y-50516547D02*
X175419047Y-50087976D01*
X175847619Y-50516547D02*
X175276190Y-49945119D01*
X183815000Y-47897500D02*
X183815000Y-48897500D01*
X182447619Y-48707023D02*
X182923809Y-48373690D01*
X182447619Y-48135595D02*
X183447619Y-48135595D01*
X183447619Y-48516547D01*
X183400000Y-48611785D01*
X183352380Y-48659404D01*
X183257142Y-48707023D01*
X183114285Y-48707023D01*
X183019047Y-48659404D01*
X182971428Y-48611785D01*
X182923809Y-48516547D01*
X182923809Y-48135595D01*
X183815000Y-48897500D02*
X183815000Y-49849880D01*
X182495238Y-49087976D02*
X182447619Y-49230833D01*
X182447619Y-49468928D01*
X182495238Y-49564166D01*
X182542857Y-49611785D01*
X182638095Y-49659404D01*
X182733333Y-49659404D01*
X182828571Y-49611785D01*
X182876190Y-49564166D01*
X182923809Y-49468928D01*
X182971428Y-49278452D01*
X183019047Y-49183214D01*
X183066666Y-49135595D01*
X183161904Y-49087976D01*
X183257142Y-49087976D01*
X183352380Y-49135595D01*
X183400000Y-49183214D01*
X183447619Y-49278452D01*
X183447619Y-49516547D01*
X183400000Y-49659404D01*
X183815000Y-49849880D02*
X183815000Y-50611785D01*
X183447619Y-49945119D02*
X183447619Y-50516547D01*
X182447619Y-50230833D02*
X183447619Y-50230833D01*
X185428571Y-48135595D02*
X185428571Y-48897500D01*
X185047619Y-48516547D02*
X185809523Y-48516547D01*
X186047619Y-49849880D02*
X186047619Y-49373690D01*
X185571428Y-49326071D01*
X185619047Y-49373690D01*
X185666666Y-49468928D01*
X185666666Y-49707023D01*
X185619047Y-49802261D01*
X185571428Y-49849880D01*
X185476190Y-49897500D01*
X185238095Y-49897500D01*
X185142857Y-49849880D01*
X185095238Y-49802261D01*
X185047619Y-49707023D01*
X185047619Y-49468928D01*
X185095238Y-49373690D01*
X185142857Y-49326071D01*
X186047619Y-50183214D02*
X185047619Y-50516547D01*
X186047619Y-50849880D01*
X86900000Y-48659404D02*
X86947619Y-48564166D01*
X86947619Y-48421309D01*
X86900000Y-48278452D01*
X86804761Y-48183214D01*
X86709523Y-48135595D01*
X86519047Y-48087976D01*
X86376190Y-48087976D01*
X86185714Y-48135595D01*
X86090476Y-48183214D01*
X85995238Y-48278452D01*
X85947619Y-48421309D01*
X85947619Y-48516547D01*
X85995238Y-48659404D01*
X86042857Y-48707023D01*
X86376190Y-48707023D01*
X86376190Y-48516547D01*
X85947619Y-49135595D02*
X86947619Y-49135595D01*
X85947619Y-49707023D01*
X86947619Y-49707023D01*
X85947619Y-50183214D02*
X86947619Y-50183214D01*
X86947619Y-50421309D01*
X86900000Y-50564166D01*
X86804761Y-50659404D01*
X86709523Y-50707023D01*
X86519047Y-50754642D01*
X86376190Y-50754642D01*
X86185714Y-50707023D01*
X86090476Y-50659404D01*
X85995238Y-50564166D01*
X85947619Y-50421309D01*
X85947619Y-50183214D01*
X101247619Y-48135595D02*
X102247619Y-48135595D01*
X102247619Y-48373690D01*
X102200000Y-48516547D01*
X102104761Y-48611785D01*
X102009523Y-48659404D01*
X101819047Y-48707023D01*
X101676190Y-48707023D01*
X101485714Y-48659404D01*
X101390476Y-48611785D01*
X101295238Y-48516547D01*
X101247619Y-48373690D01*
X101247619Y-48135595D01*
X101914285Y-49564166D02*
X101247619Y-49564166D01*
X102295238Y-49326071D02*
X101580952Y-49087976D01*
X101580952Y-49707023D01*
X111347619Y-48135595D02*
X112347619Y-48135595D01*
X112347619Y-48373690D01*
X112300000Y-48516547D01*
X112204761Y-48611785D01*
X112109523Y-48659404D01*
X111919047Y-48707023D01*
X111776190Y-48707023D01*
X111585714Y-48659404D01*
X111490476Y-48611785D01*
X111395238Y-48516547D01*
X111347619Y-48373690D01*
X111347619Y-48135595D01*
X112347619Y-49326071D02*
X112347619Y-49421309D01*
X112300000Y-49516547D01*
X112252380Y-49564166D01*
X112157142Y-49611785D01*
X111966666Y-49659404D01*
X111728571Y-49659404D01*
X111538095Y-49611785D01*
X111442857Y-49564166D01*
X111395238Y-49516547D01*
X111347619Y-49421309D01*
X111347619Y-49326071D01*
X111395238Y-49230833D01*
X111442857Y-49183214D01*
X111538095Y-49135595D01*
X111728571Y-49087976D01*
X111966666Y-49087976D01*
X112157142Y-49135595D01*
X112252380Y-49183214D01*
X112300000Y-49230833D01*
X112347619Y-49326071D01*
X98647619Y-48135595D02*
X99647619Y-48135595D01*
X99647619Y-48373690D01*
X99600000Y-48516547D01*
X99504761Y-48611785D01*
X99409523Y-48659404D01*
X99219047Y-48707023D01*
X99076190Y-48707023D01*
X98885714Y-48659404D01*
X98790476Y-48611785D01*
X98695238Y-48516547D01*
X98647619Y-48373690D01*
X98647619Y-48135595D01*
X99647619Y-49611785D02*
X99647619Y-49135595D01*
X99171428Y-49087976D01*
X99219047Y-49135595D01*
X99266666Y-49230833D01*
X99266666Y-49468928D01*
X99219047Y-49564166D01*
X99171428Y-49611785D01*
X99076190Y-49659404D01*
X98838095Y-49659404D01*
X98742857Y-49611785D01*
X98695238Y-49564166D01*
X98647619Y-49468928D01*
X98647619Y-49230833D01*
X98695238Y-49135595D01*
X98742857Y-49087976D01*
X114847619Y-48040357D02*
X113847619Y-48278452D01*
X114561904Y-48468928D01*
X113847619Y-48659404D01*
X114847619Y-48897500D01*
X113847619Y-49849880D02*
X114323809Y-49516547D01*
X113847619Y-49278452D02*
X114847619Y-49278452D01*
X114847619Y-49659404D01*
X114800000Y-49754642D01*
X114752380Y-49802261D01*
X114657142Y-49849880D01*
X114514285Y-49849880D01*
X114419047Y-49802261D01*
X114371428Y-49754642D01*
X114323809Y-49659404D01*
X114323809Y-49278452D01*
X114847619Y-50183214D02*
X114847619Y-50802261D01*
X114466666Y-50468928D01*
X114466666Y-50611785D01*
X114419047Y-50707023D01*
X114371428Y-50754642D01*
X114276190Y-50802261D01*
X114038095Y-50802261D01*
X113942857Y-50754642D01*
X113895238Y-50707023D01*
X113847619Y-50611785D01*
X113847619Y-50326071D01*
X113895238Y-50230833D01*
X113942857Y-50183214D01*
X108847619Y-48135595D02*
X109847619Y-48135595D01*
X109847619Y-48373690D01*
X109800000Y-48516547D01*
X109704761Y-48611785D01*
X109609523Y-48659404D01*
X109419047Y-48707023D01*
X109276190Y-48707023D01*
X109085714Y-48659404D01*
X108990476Y-48611785D01*
X108895238Y-48516547D01*
X108847619Y-48373690D01*
X108847619Y-48135595D01*
X108847619Y-49659404D02*
X108847619Y-49087976D01*
X108847619Y-49373690D02*
X109847619Y-49373690D01*
X109704761Y-49278452D01*
X109609523Y-49183214D01*
X109561904Y-49087976D01*
X103747619Y-48135595D02*
X104747619Y-48135595D01*
X104747619Y-48373690D01*
X104700000Y-48516547D01*
X104604761Y-48611785D01*
X104509523Y-48659404D01*
X104319047Y-48707023D01*
X104176190Y-48707023D01*
X103985714Y-48659404D01*
X103890476Y-48611785D01*
X103795238Y-48516547D01*
X103747619Y-48373690D01*
X103747619Y-48135595D01*
X104747619Y-49040357D02*
X104747619Y-49659404D01*
X104366666Y-49326071D01*
X104366666Y-49468928D01*
X104319047Y-49564166D01*
X104271428Y-49611785D01*
X104176190Y-49659404D01*
X103938095Y-49659404D01*
X103842857Y-49611785D01*
X103795238Y-49564166D01*
X103747619Y-49468928D01*
X103747619Y-49183214D01*
X103795238Y-49087976D01*
X103842857Y-49040357D01*
X96147619Y-48135595D02*
X97147619Y-48135595D01*
X97147619Y-48373690D01*
X97100000Y-48516547D01*
X97004761Y-48611785D01*
X96909523Y-48659404D01*
X96719047Y-48707023D01*
X96576190Y-48707023D01*
X96385714Y-48659404D01*
X96290476Y-48611785D01*
X96195238Y-48516547D01*
X96147619Y-48373690D01*
X96147619Y-48135595D01*
X97147619Y-49564166D02*
X97147619Y-49373690D01*
X97100000Y-49278452D01*
X97052380Y-49230833D01*
X96909523Y-49135595D01*
X96719047Y-49087976D01*
X96338095Y-49087976D01*
X96242857Y-49135595D01*
X96195238Y-49183214D01*
X96147619Y-49278452D01*
X96147619Y-49468928D01*
X96195238Y-49564166D01*
X96242857Y-49611785D01*
X96338095Y-49659404D01*
X96576190Y-49659404D01*
X96671428Y-49611785D01*
X96719047Y-49564166D01*
X96766666Y-49468928D01*
X96766666Y-49278452D01*
X96719047Y-49183214D01*
X96671428Y-49135595D01*
X96576190Y-49087976D01*
X93547619Y-48135595D02*
X94547619Y-48135595D01*
X94547619Y-48373690D01*
X94500000Y-48516547D01*
X94404761Y-48611785D01*
X94309523Y-48659404D01*
X94119047Y-48707023D01*
X93976190Y-48707023D01*
X93785714Y-48659404D01*
X93690476Y-48611785D01*
X93595238Y-48516547D01*
X93547619Y-48373690D01*
X93547619Y-48135595D01*
X94547619Y-49040357D02*
X94547619Y-49707023D01*
X93547619Y-49278452D01*
X106247619Y-48135595D02*
X107247619Y-48135595D01*
X107247619Y-48373690D01*
X107200000Y-48516547D01*
X107104761Y-48611785D01*
X107009523Y-48659404D01*
X106819047Y-48707023D01*
X106676190Y-48707023D01*
X106485714Y-48659404D01*
X106390476Y-48611785D01*
X106295238Y-48516547D01*
X106247619Y-48373690D01*
X106247619Y-48135595D01*
X107152380Y-49087976D02*
X107200000Y-49135595D01*
X107247619Y-49230833D01*
X107247619Y-49468928D01*
X107200000Y-49564166D01*
X107152380Y-49611785D01*
X107057142Y-49659404D01*
X106961904Y-49659404D01*
X106819047Y-49611785D01*
X106247619Y-49040357D01*
X106247619Y-49659404D01*
X117447619Y-48040357D02*
X116447619Y-48278452D01*
X117161904Y-48468928D01*
X116447619Y-48659404D01*
X117447619Y-48897500D01*
X116447619Y-49849880D02*
X116923809Y-49516547D01*
X116447619Y-49278452D02*
X117447619Y-49278452D01*
X117447619Y-49659404D01*
X117400000Y-49754642D01*
X117352380Y-49802261D01*
X117257142Y-49849880D01*
X117114285Y-49849880D01*
X117019047Y-49802261D01*
X116971428Y-49754642D01*
X116923809Y-49659404D01*
X116923809Y-49278452D01*
X117352380Y-50230833D02*
X117400000Y-50278452D01*
X117447619Y-50373690D01*
X117447619Y-50611785D01*
X117400000Y-50707023D01*
X117352380Y-50754642D01*
X117257142Y-50802261D01*
X117161904Y-50802261D01*
X117019047Y-50754642D01*
X116447619Y-50183214D01*
X116447619Y-50802261D01*
X119947619Y-48040357D02*
X118947619Y-48278452D01*
X119661904Y-48468928D01*
X118947619Y-48659404D01*
X119947619Y-48897500D01*
X118947619Y-49849880D02*
X119423809Y-49516547D01*
X118947619Y-49278452D02*
X119947619Y-49278452D01*
X119947619Y-49659404D01*
X119900000Y-49754642D01*
X119852380Y-49802261D01*
X119757142Y-49849880D01*
X119614285Y-49849880D01*
X119519047Y-49802261D01*
X119471428Y-49754642D01*
X119423809Y-49659404D01*
X119423809Y-49278452D01*
X118947619Y-50802261D02*
X118947619Y-50230833D01*
X118947619Y-50516547D02*
X119947619Y-50516547D01*
X119804761Y-50421309D01*
X119709523Y-50326071D01*
X119661904Y-50230833D01*
X129147619Y-48707023D02*
X129623809Y-48373690D01*
X129147619Y-48135595D02*
X130147619Y-48135595D01*
X130147619Y-48516547D01*
X130100000Y-48611785D01*
X130052380Y-48659404D01*
X129957142Y-48707023D01*
X129814285Y-48707023D01*
X129719047Y-48659404D01*
X129671428Y-48611785D01*
X129623809Y-48516547D01*
X129623809Y-48135595D01*
X129147619Y-49707023D02*
X129623809Y-49373690D01*
X129147619Y-49135595D02*
X130147619Y-49135595D01*
X130147619Y-49516547D01*
X130100000Y-49611785D01*
X130052380Y-49659404D01*
X129957142Y-49707023D01*
X129814285Y-49707023D01*
X129719047Y-49659404D01*
X129671428Y-49611785D01*
X129623809Y-49516547D01*
X129623809Y-49135595D01*
X129147619Y-50659404D02*
X129147619Y-50087976D01*
X129147619Y-50373690D02*
X130147619Y-50373690D01*
X130004761Y-50278452D01*
X129909523Y-50183214D01*
X129861904Y-50087976D01*
X131747619Y-48707023D02*
X132223809Y-48373690D01*
X131747619Y-48135595D02*
X132747619Y-48135595D01*
X132747619Y-48516547D01*
X132700000Y-48611785D01*
X132652380Y-48659404D01*
X132557142Y-48707023D01*
X132414285Y-48707023D01*
X132319047Y-48659404D01*
X132271428Y-48611785D01*
X132223809Y-48516547D01*
X132223809Y-48135595D01*
X131747619Y-49707023D02*
X132223809Y-49373690D01*
X131747619Y-49135595D02*
X132747619Y-49135595D01*
X132747619Y-49516547D01*
X132700000Y-49611785D01*
X132652380Y-49659404D01*
X132557142Y-49707023D01*
X132414285Y-49707023D01*
X132319047Y-49659404D01*
X132271428Y-49611785D01*
X132223809Y-49516547D01*
X132223809Y-49135595D01*
X132747619Y-50326071D02*
X132747619Y-50421309D01*
X132700000Y-50516547D01*
X132652380Y-50564166D01*
X132557142Y-50611785D01*
X132366666Y-50659404D01*
X132128571Y-50659404D01*
X131938095Y-50611785D01*
X131842857Y-50564166D01*
X131795238Y-50516547D01*
X131747619Y-50421309D01*
X131747619Y-50326071D01*
X131795238Y-50230833D01*
X131842857Y-50183214D01*
X131938095Y-50135595D01*
X132128571Y-50087976D01*
X132366666Y-50087976D01*
X132557142Y-50135595D01*
X132652380Y-50183214D01*
X132700000Y-50230833D01*
X132747619Y-50326071D01*
X124047619Y-48707023D02*
X124523809Y-48373690D01*
X124047619Y-48135595D02*
X125047619Y-48135595D01*
X125047619Y-48516547D01*
X125000000Y-48611785D01*
X124952380Y-48659404D01*
X124857142Y-48707023D01*
X124714285Y-48707023D01*
X124619047Y-48659404D01*
X124571428Y-48611785D01*
X124523809Y-48516547D01*
X124523809Y-48135595D01*
X124047619Y-49707023D02*
X124523809Y-49373690D01*
X124047619Y-49135595D02*
X125047619Y-49135595D01*
X125047619Y-49516547D01*
X125000000Y-49611785D01*
X124952380Y-49659404D01*
X124857142Y-49707023D01*
X124714285Y-49707023D01*
X124619047Y-49659404D01*
X124571428Y-49611785D01*
X124523809Y-49516547D01*
X124523809Y-49135595D01*
X125047619Y-50040357D02*
X125047619Y-50659404D01*
X124666666Y-50326071D01*
X124666666Y-50468928D01*
X124619047Y-50564166D01*
X124571428Y-50611785D01*
X124476190Y-50659404D01*
X124238095Y-50659404D01*
X124142857Y-50611785D01*
X124095238Y-50564166D01*
X124047619Y-50468928D01*
X124047619Y-50183214D01*
X124095238Y-50087976D01*
X124142857Y-50040357D01*
X122547619Y-48040357D02*
X121547619Y-48278452D01*
X122261904Y-48468928D01*
X121547619Y-48659404D01*
X122547619Y-48897500D01*
X121547619Y-49849880D02*
X122023809Y-49516547D01*
X121547619Y-49278452D02*
X122547619Y-49278452D01*
X122547619Y-49659404D01*
X122500000Y-49754642D01*
X122452380Y-49802261D01*
X122357142Y-49849880D01*
X122214285Y-49849880D01*
X122119047Y-49802261D01*
X122071428Y-49754642D01*
X122023809Y-49659404D01*
X122023809Y-49278452D01*
X122547619Y-50468928D02*
X122547619Y-50564166D01*
X122500000Y-50659404D01*
X122452380Y-50707023D01*
X122357142Y-50754642D01*
X122166666Y-50802261D01*
X121928571Y-50802261D01*
X121738095Y-50754642D01*
X121642857Y-50707023D01*
X121595238Y-50659404D01*
X121547619Y-50564166D01*
X121547619Y-50468928D01*
X121595238Y-50373690D01*
X121642857Y-50326071D01*
X121738095Y-50278452D01*
X121928571Y-50230833D01*
X122166666Y-50230833D01*
X122357142Y-50278452D01*
X122452380Y-50326071D01*
X122500000Y-50373690D01*
X122547619Y-50468928D01*
X126547619Y-48707023D02*
X127023809Y-48373690D01*
X126547619Y-48135595D02*
X127547619Y-48135595D01*
X127547619Y-48516547D01*
X127500000Y-48611785D01*
X127452380Y-48659404D01*
X127357142Y-48707023D01*
X127214285Y-48707023D01*
X127119047Y-48659404D01*
X127071428Y-48611785D01*
X127023809Y-48516547D01*
X127023809Y-48135595D01*
X126547619Y-49707023D02*
X127023809Y-49373690D01*
X126547619Y-49135595D02*
X127547619Y-49135595D01*
X127547619Y-49516547D01*
X127500000Y-49611785D01*
X127452380Y-49659404D01*
X127357142Y-49707023D01*
X127214285Y-49707023D01*
X127119047Y-49659404D01*
X127071428Y-49611785D01*
X127023809Y-49516547D01*
X127023809Y-49135595D01*
X127452380Y-50087976D02*
X127500000Y-50135595D01*
X127547619Y-50230833D01*
X127547619Y-50468928D01*
X127500000Y-50564166D01*
X127452380Y-50611785D01*
X127357142Y-50659404D01*
X127261904Y-50659404D01*
X127119047Y-50611785D01*
X126547619Y-50040357D01*
X126547619Y-50659404D01*
X185571428Y-133864404D02*
X185571428Y-133102500D01*
X185952380Y-133483452D02*
X185190476Y-133483452D01*
X184952380Y-132150119D02*
X184952380Y-132626309D01*
X185428571Y-132673928D01*
X185380952Y-132626309D01*
X185333333Y-132531071D01*
X185333333Y-132292976D01*
X185380952Y-132197738D01*
X185428571Y-132150119D01*
X185523809Y-132102500D01*
X185761904Y-132102500D01*
X185857142Y-132150119D01*
X185904761Y-132197738D01*
X185952380Y-132292976D01*
X185952380Y-132531071D01*
X185904761Y-132626309D01*
X185857142Y-132673928D01*
X184952380Y-131816785D02*
X185952380Y-131483452D01*
X184952380Y-131150119D01*
X181985000Y-134102500D02*
X181985000Y-133102500D01*
X183352380Y-133292976D02*
X182876190Y-133626309D01*
X183352380Y-133864404D02*
X182352380Y-133864404D01*
X182352380Y-133483452D01*
X182400000Y-133388214D01*
X182447619Y-133340595D01*
X182542857Y-133292976D01*
X182685714Y-133292976D01*
X182780952Y-133340595D01*
X182828571Y-133388214D01*
X182876190Y-133483452D01*
X182876190Y-133864404D01*
X181985000Y-133102500D02*
X181985000Y-132150119D01*
X183304761Y-132912023D02*
X183352380Y-132769166D01*
X183352380Y-132531071D01*
X183304761Y-132435833D01*
X183257142Y-132388214D01*
X183161904Y-132340595D01*
X183066666Y-132340595D01*
X182971428Y-132388214D01*
X182923809Y-132435833D01*
X182876190Y-132531071D01*
X182828571Y-132721547D01*
X182780952Y-132816785D01*
X182733333Y-132864404D01*
X182638095Y-132912023D01*
X182542857Y-132912023D01*
X182447619Y-132864404D01*
X182400000Y-132816785D01*
X182352380Y-132721547D01*
X182352380Y-132483452D01*
X182400000Y-132340595D01*
X181985000Y-132150119D02*
X181985000Y-131388214D01*
X182352380Y-132054880D02*
X182352380Y-131483452D01*
X183352380Y-131769166D02*
X182352380Y-131769166D01*
X175657142Y-133292976D02*
X175704761Y-133340595D01*
X175752380Y-133483452D01*
X175752380Y-133578690D01*
X175704761Y-133721547D01*
X175609523Y-133816785D01*
X175514285Y-133864404D01*
X175323809Y-133912023D01*
X175180952Y-133912023D01*
X174990476Y-133864404D01*
X174895238Y-133816785D01*
X174800000Y-133721547D01*
X174752380Y-133578690D01*
X174752380Y-133483452D01*
X174800000Y-133340595D01*
X174847619Y-133292976D01*
X175752380Y-132388214D02*
X175752380Y-132864404D01*
X174752380Y-132864404D01*
X175752380Y-132054880D02*
X174752380Y-132054880D01*
X175752380Y-131483452D02*
X175180952Y-131912023D01*
X174752380Y-131483452D02*
X175323809Y-132054880D01*
X132552380Y-133292976D02*
X132076190Y-133626309D01*
X132552380Y-133864404D02*
X131552380Y-133864404D01*
X131552380Y-133483452D01*
X131600000Y-133388214D01*
X131647619Y-133340595D01*
X131742857Y-133292976D01*
X131885714Y-133292976D01*
X131980952Y-133340595D01*
X132028571Y-133388214D01*
X132076190Y-133483452D01*
X132076190Y-133864404D01*
X132552380Y-132292976D02*
X132076190Y-132626309D01*
X132552380Y-132864404D02*
X131552380Y-132864404D01*
X131552380Y-132483452D01*
X131600000Y-132388214D01*
X131647619Y-132340595D01*
X131742857Y-132292976D01*
X131885714Y-132292976D01*
X131980952Y-132340595D01*
X132028571Y-132388214D01*
X132076190Y-132483452D01*
X132076190Y-132864404D01*
X131552380Y-131673928D02*
X131552380Y-131578690D01*
X131600000Y-131483452D01*
X131647619Y-131435833D01*
X131742857Y-131388214D01*
X131933333Y-131340595D01*
X132171428Y-131340595D01*
X132361904Y-131388214D01*
X132457142Y-131435833D01*
X132504761Y-131483452D01*
X132552380Y-131578690D01*
X132552380Y-131673928D01*
X132504761Y-131769166D01*
X132457142Y-131816785D01*
X132361904Y-131864404D01*
X132171428Y-131912023D01*
X131933333Y-131912023D01*
X131742857Y-131864404D01*
X131647619Y-131816785D01*
X131600000Y-131769166D01*
X131552380Y-131673928D01*
X130052380Y-133292976D02*
X129576190Y-133626309D01*
X130052380Y-133864404D02*
X129052380Y-133864404D01*
X129052380Y-133483452D01*
X129100000Y-133388214D01*
X129147619Y-133340595D01*
X129242857Y-133292976D01*
X129385714Y-133292976D01*
X129480952Y-133340595D01*
X129528571Y-133388214D01*
X129576190Y-133483452D01*
X129576190Y-133864404D01*
X130052380Y-132292976D02*
X129576190Y-132626309D01*
X130052380Y-132864404D02*
X129052380Y-132864404D01*
X129052380Y-132483452D01*
X129100000Y-132388214D01*
X129147619Y-132340595D01*
X129242857Y-132292976D01*
X129385714Y-132292976D01*
X129480952Y-132340595D01*
X129528571Y-132388214D01*
X129576190Y-132483452D01*
X129576190Y-132864404D01*
X130052380Y-131340595D02*
X130052380Y-131912023D01*
X130052380Y-131626309D02*
X129052380Y-131626309D01*
X129195238Y-131721547D01*
X129290476Y-131816785D01*
X129338095Y-131912023D01*
X127452380Y-133292976D02*
X126976190Y-133626309D01*
X127452380Y-133864404D02*
X126452380Y-133864404D01*
X126452380Y-133483452D01*
X126500000Y-133388214D01*
X126547619Y-133340595D01*
X126642857Y-133292976D01*
X126785714Y-133292976D01*
X126880952Y-133340595D01*
X126928571Y-133388214D01*
X126976190Y-133483452D01*
X126976190Y-133864404D01*
X127452380Y-132292976D02*
X126976190Y-132626309D01*
X127452380Y-132864404D02*
X126452380Y-132864404D01*
X126452380Y-132483452D01*
X126500000Y-132388214D01*
X126547619Y-132340595D01*
X126642857Y-132292976D01*
X126785714Y-132292976D01*
X126880952Y-132340595D01*
X126928571Y-132388214D01*
X126976190Y-132483452D01*
X126976190Y-132864404D01*
X126547619Y-131912023D02*
X126500000Y-131864404D01*
X126452380Y-131769166D01*
X126452380Y-131531071D01*
X126500000Y-131435833D01*
X126547619Y-131388214D01*
X126642857Y-131340595D01*
X126738095Y-131340595D01*
X126880952Y-131388214D01*
X127452380Y-131959642D01*
X127452380Y-131340595D01*
X124952380Y-133292976D02*
X124476190Y-133626309D01*
X124952380Y-133864404D02*
X123952380Y-133864404D01*
X123952380Y-133483452D01*
X124000000Y-133388214D01*
X124047619Y-133340595D01*
X124142857Y-133292976D01*
X124285714Y-133292976D01*
X124380952Y-133340595D01*
X124428571Y-133388214D01*
X124476190Y-133483452D01*
X124476190Y-133864404D01*
X124952380Y-132292976D02*
X124476190Y-132626309D01*
X124952380Y-132864404D02*
X123952380Y-132864404D01*
X123952380Y-132483452D01*
X124000000Y-132388214D01*
X124047619Y-132340595D01*
X124142857Y-132292976D01*
X124285714Y-132292976D01*
X124380952Y-132340595D01*
X124428571Y-132388214D01*
X124476190Y-132483452D01*
X124476190Y-132864404D01*
X123952380Y-131959642D02*
X123952380Y-131340595D01*
X124333333Y-131673928D01*
X124333333Y-131531071D01*
X124380952Y-131435833D01*
X124428571Y-131388214D01*
X124523809Y-131340595D01*
X124761904Y-131340595D01*
X124857142Y-131388214D01*
X124904761Y-131435833D01*
X124952380Y-131531071D01*
X124952380Y-131816785D01*
X124904761Y-131912023D01*
X124857142Y-131959642D01*
X121352380Y-133959642D02*
X122352380Y-133721547D01*
X121638095Y-133531071D01*
X122352380Y-133340595D01*
X121352380Y-133102500D01*
X122352380Y-132150119D02*
X121876190Y-132483452D01*
X122352380Y-132721547D02*
X121352380Y-132721547D01*
X121352380Y-132340595D01*
X121400000Y-132245357D01*
X121447619Y-132197738D01*
X121542857Y-132150119D01*
X121685714Y-132150119D01*
X121780952Y-132197738D01*
X121828571Y-132245357D01*
X121876190Y-132340595D01*
X121876190Y-132721547D01*
X121352380Y-131531071D02*
X121352380Y-131435833D01*
X121400000Y-131340595D01*
X121447619Y-131292976D01*
X121542857Y-131245357D01*
X121733333Y-131197738D01*
X121971428Y-131197738D01*
X122161904Y-131245357D01*
X122257142Y-131292976D01*
X122304761Y-131340595D01*
X122352380Y-131435833D01*
X122352380Y-131531071D01*
X122304761Y-131626309D01*
X122257142Y-131673928D01*
X122161904Y-131721547D01*
X121971428Y-131769166D01*
X121733333Y-131769166D01*
X121542857Y-131721547D01*
X121447619Y-131673928D01*
X121400000Y-131626309D01*
X121352380Y-131531071D01*
X118852380Y-133959642D02*
X119852380Y-133721547D01*
X119138095Y-133531071D01*
X119852380Y-133340595D01*
X118852380Y-133102500D01*
X119852380Y-132150119D02*
X119376190Y-132483452D01*
X119852380Y-132721547D02*
X118852380Y-132721547D01*
X118852380Y-132340595D01*
X118900000Y-132245357D01*
X118947619Y-132197738D01*
X119042857Y-132150119D01*
X119185714Y-132150119D01*
X119280952Y-132197738D01*
X119328571Y-132245357D01*
X119376190Y-132340595D01*
X119376190Y-132721547D01*
X119852380Y-131197738D02*
X119852380Y-131769166D01*
X119852380Y-131483452D02*
X118852380Y-131483452D01*
X118995238Y-131578690D01*
X119090476Y-131673928D01*
X119138095Y-131769166D01*
X116352380Y-133959642D02*
X117352380Y-133721547D01*
X116638095Y-133531071D01*
X117352380Y-133340595D01*
X116352380Y-133102500D01*
X117352380Y-132150119D02*
X116876190Y-132483452D01*
X117352380Y-132721547D02*
X116352380Y-132721547D01*
X116352380Y-132340595D01*
X116400000Y-132245357D01*
X116447619Y-132197738D01*
X116542857Y-132150119D01*
X116685714Y-132150119D01*
X116780952Y-132197738D01*
X116828571Y-132245357D01*
X116876190Y-132340595D01*
X116876190Y-132721547D01*
X116447619Y-131769166D02*
X116400000Y-131721547D01*
X116352380Y-131626309D01*
X116352380Y-131388214D01*
X116400000Y-131292976D01*
X116447619Y-131245357D01*
X116542857Y-131197738D01*
X116638095Y-131197738D01*
X116780952Y-131245357D01*
X117352380Y-131816785D01*
X117352380Y-131197738D01*
X85900000Y-133340595D02*
X85852380Y-133435833D01*
X85852380Y-133578690D01*
X85900000Y-133721547D01*
X85995238Y-133816785D01*
X86090476Y-133864404D01*
X86280952Y-133912023D01*
X86423809Y-133912023D01*
X86614285Y-133864404D01*
X86709523Y-133816785D01*
X86804761Y-133721547D01*
X86852380Y-133578690D01*
X86852380Y-133483452D01*
X86804761Y-133340595D01*
X86757142Y-133292976D01*
X86423809Y-133292976D01*
X86423809Y-133483452D01*
X86852380Y-132864404D02*
X85852380Y-132864404D01*
X86852380Y-132292976D01*
X85852380Y-132292976D01*
X86852380Y-131816785D02*
X85852380Y-131816785D01*
X85852380Y-131578690D01*
X85900000Y-131435833D01*
X85995238Y-131340595D01*
X86090476Y-131292976D01*
X86280952Y-131245357D01*
X86423809Y-131245357D01*
X86614285Y-131292976D01*
X86709523Y-131340595D01*
X86804761Y-131435833D01*
X86852380Y-131578690D01*
X86852380Y-131816785D01*
X113752380Y-133959642D02*
X114752380Y-133721547D01*
X114038095Y-133531071D01*
X114752380Y-133340595D01*
X113752380Y-133102500D01*
X114752380Y-132150119D02*
X114276190Y-132483452D01*
X114752380Y-132721547D02*
X113752380Y-132721547D01*
X113752380Y-132340595D01*
X113800000Y-132245357D01*
X113847619Y-132197738D01*
X113942857Y-132150119D01*
X114085714Y-132150119D01*
X114180952Y-132197738D01*
X114228571Y-132245357D01*
X114276190Y-132340595D01*
X114276190Y-132721547D01*
X113752380Y-131816785D02*
X113752380Y-131197738D01*
X114133333Y-131531071D01*
X114133333Y-131388214D01*
X114180952Y-131292976D01*
X114228571Y-131245357D01*
X114323809Y-131197738D01*
X114561904Y-131197738D01*
X114657142Y-131245357D01*
X114704761Y-131292976D01*
X114752380Y-131388214D01*
X114752380Y-131673928D01*
X114704761Y-131769166D01*
X114657142Y-131816785D01*
X112252380Y-133864404D02*
X111252380Y-133864404D01*
X111252380Y-133626309D01*
X111300000Y-133483452D01*
X111395238Y-133388214D01*
X111490476Y-133340595D01*
X111680952Y-133292976D01*
X111823809Y-133292976D01*
X112014285Y-133340595D01*
X112109523Y-133388214D01*
X112204761Y-133483452D01*
X112252380Y-133626309D01*
X112252380Y-133864404D01*
X111252380Y-132673928D02*
X111252380Y-132578690D01*
X111300000Y-132483452D01*
X111347619Y-132435833D01*
X111442857Y-132388214D01*
X111633333Y-132340595D01*
X111871428Y-132340595D01*
X112061904Y-132388214D01*
X112157142Y-132435833D01*
X112204761Y-132483452D01*
X112252380Y-132578690D01*
X112252380Y-132673928D01*
X112204761Y-132769166D01*
X112157142Y-132816785D01*
X112061904Y-132864404D01*
X111871428Y-132912023D01*
X111633333Y-132912023D01*
X111442857Y-132864404D01*
X111347619Y-132816785D01*
X111300000Y-132769166D01*
X111252380Y-132673928D01*
X109652380Y-133864404D02*
X108652380Y-133864404D01*
X108652380Y-133626309D01*
X108700000Y-133483452D01*
X108795238Y-133388214D01*
X108890476Y-133340595D01*
X109080952Y-133292976D01*
X109223809Y-133292976D01*
X109414285Y-133340595D01*
X109509523Y-133388214D01*
X109604761Y-133483452D01*
X109652380Y-133626309D01*
X109652380Y-133864404D01*
X109652380Y-132340595D02*
X109652380Y-132912023D01*
X109652380Y-132626309D02*
X108652380Y-132626309D01*
X108795238Y-132721547D01*
X108890476Y-132816785D01*
X108938095Y-132912023D01*
X107152380Y-133864404D02*
X106152380Y-133864404D01*
X106152380Y-133626309D01*
X106200000Y-133483452D01*
X106295238Y-133388214D01*
X106390476Y-133340595D01*
X106580952Y-133292976D01*
X106723809Y-133292976D01*
X106914285Y-133340595D01*
X107009523Y-133388214D01*
X107104761Y-133483452D01*
X107152380Y-133626309D01*
X107152380Y-133864404D01*
X106247619Y-132912023D02*
X106200000Y-132864404D01*
X106152380Y-132769166D01*
X106152380Y-132531071D01*
X106200000Y-132435833D01*
X106247619Y-132388214D01*
X106342857Y-132340595D01*
X106438095Y-132340595D01*
X106580952Y-132388214D01*
X107152380Y-132959642D01*
X107152380Y-132340595D01*
X104652380Y-133864404D02*
X103652380Y-133864404D01*
X103652380Y-133626309D01*
X103700000Y-133483452D01*
X103795238Y-133388214D01*
X103890476Y-133340595D01*
X104080952Y-133292976D01*
X104223809Y-133292976D01*
X104414285Y-133340595D01*
X104509523Y-133388214D01*
X104604761Y-133483452D01*
X104652380Y-133626309D01*
X104652380Y-133864404D01*
X103652380Y-132959642D02*
X103652380Y-132340595D01*
X104033333Y-132673928D01*
X104033333Y-132531071D01*
X104080952Y-132435833D01*
X104128571Y-132388214D01*
X104223809Y-132340595D01*
X104461904Y-132340595D01*
X104557142Y-132388214D01*
X104604761Y-132435833D01*
X104652380Y-132531071D01*
X104652380Y-132816785D01*
X104604761Y-132912023D01*
X104557142Y-132959642D01*
X102052380Y-133864404D02*
X101052380Y-133864404D01*
X101052380Y-133626309D01*
X101100000Y-133483452D01*
X101195238Y-133388214D01*
X101290476Y-133340595D01*
X101480952Y-133292976D01*
X101623809Y-133292976D01*
X101814285Y-133340595D01*
X101909523Y-133388214D01*
X102004761Y-133483452D01*
X102052380Y-133626309D01*
X102052380Y-133864404D01*
X101385714Y-132435833D02*
X102052380Y-132435833D01*
X101004761Y-132673928D02*
X101719047Y-132912023D01*
X101719047Y-132292976D01*
X99552380Y-133864404D02*
X98552380Y-133864404D01*
X98552380Y-133626309D01*
X98600000Y-133483452D01*
X98695238Y-133388214D01*
X98790476Y-133340595D01*
X98980952Y-133292976D01*
X99123809Y-133292976D01*
X99314285Y-133340595D01*
X99409523Y-133388214D01*
X99504761Y-133483452D01*
X99552380Y-133626309D01*
X99552380Y-133864404D01*
X98552380Y-132388214D02*
X98552380Y-132864404D01*
X99028571Y-132912023D01*
X98980952Y-132864404D01*
X98933333Y-132769166D01*
X98933333Y-132531071D01*
X98980952Y-132435833D01*
X99028571Y-132388214D01*
X99123809Y-132340595D01*
X99361904Y-132340595D01*
X99457142Y-132388214D01*
X99504761Y-132435833D01*
X99552380Y-132531071D01*
X99552380Y-132769166D01*
X99504761Y-132864404D01*
X99457142Y-132912023D01*
X94452380Y-133864404D02*
X93452380Y-133864404D01*
X93452380Y-133626309D01*
X93500000Y-133483452D01*
X93595238Y-133388214D01*
X93690476Y-133340595D01*
X93880952Y-133292976D01*
X94023809Y-133292976D01*
X94214285Y-133340595D01*
X94309523Y-133388214D01*
X94404761Y-133483452D01*
X94452380Y-133626309D01*
X94452380Y-133864404D01*
X93452380Y-132959642D02*
X93452380Y-132292976D01*
X94452380Y-132721547D01*
X96952380Y-133864404D02*
X95952380Y-133864404D01*
X95952380Y-133626309D01*
X96000000Y-133483452D01*
X96095238Y-133388214D01*
X96190476Y-133340595D01*
X96380952Y-133292976D01*
X96523809Y-133292976D01*
X96714285Y-133340595D01*
X96809523Y-133388214D01*
X96904761Y-133483452D01*
X96952380Y-133626309D01*
X96952380Y-133864404D01*
X95952380Y-132435833D02*
X95952380Y-132626309D01*
X96000000Y-132721547D01*
X96047619Y-132769166D01*
X96190476Y-132864404D01*
X96380952Y-132912023D01*
X96761904Y-132912023D01*
X96857142Y-132864404D01*
X96904761Y-132816785D01*
X96952380Y-132721547D01*
X96952380Y-132531071D01*
X96904761Y-132435833D01*
X96857142Y-132388214D01*
X96761904Y-132340595D01*
X96523809Y-132340595D01*
X96428571Y-132388214D01*
X96380952Y-132435833D01*
X96333333Y-132531071D01*
X96333333Y-132721547D01*
X96380952Y-132816785D01*
X96428571Y-132864404D01*
X96523809Y-132912023D01*
D12*
X153838748Y-83835000D02*
X154361252Y-83835000D01*
X153838748Y-82365000D02*
X154361252Y-82365000D01*
X143872936Y-94065000D02*
X144327064Y-94065000D01*
X143872936Y-95535000D02*
X144327064Y-95535000D01*
X145100000Y-97540000D02*
X142240000Y-97540000D01*
X142240000Y-97540000D02*
X142240000Y-99460000D01*
X142240000Y-99460000D02*
X145100000Y-99460000D01*
X153770000Y-91490000D02*
X153770000Y-93140000D01*
X153770000Y-93140000D02*
X174210000Y-93140000D01*
X174210000Y-93140000D02*
X174210000Y-87840000D01*
X174210000Y-87840000D02*
X153770000Y-87840000D01*
X153770000Y-87840000D02*
X153770000Y-89490000D01*
X153770000Y-89490000D02*
G75*
G02*
X153770000Y-91490000I0J-1000000D01*
G01*
X118110000Y-57530000D02*
X116460000Y-57530000D01*
X116460000Y-57530000D02*
X116460000Y-77970000D01*
X116460000Y-77970000D02*
X121760000Y-77970000D01*
X121760000Y-77970000D02*
X121760000Y-57530000D01*
X121760000Y-57530000D02*
X120110000Y-57530000D01*
X120110000Y-57530000D02*
G75*
G02*
X118110000Y-57530000I-1000000J0D01*
G01*
X102910000Y-57530000D02*
X101260000Y-57530000D01*
X101260000Y-57530000D02*
X101260000Y-77970000D01*
X101260000Y-77970000D02*
X106560000Y-77970000D01*
X106560000Y-77970000D02*
X106560000Y-57530000D01*
X106560000Y-57530000D02*
X104910000Y-57530000D01*
X104910000Y-57530000D02*
G75*
G02*
X102910000Y-57530000I-1000000J0D01*
G01*
X103370000Y-120590000D02*
X103370000Y-122240000D01*
X103370000Y-122240000D02*
X128890000Y-122240000D01*
X128890000Y-122240000D02*
X128890000Y-116940000D01*
X128890000Y-116940000D02*
X103370000Y-116940000D01*
X103370000Y-116940000D02*
X103370000Y-118590000D01*
X103370000Y-118590000D02*
G75*
G02*
X103370000Y-120590000I0J-1000000D01*
G01*
X103770000Y-102190000D02*
X103770000Y-103840000D01*
X103770000Y-103840000D02*
X129290000Y-103840000D01*
X129290000Y-103840000D02*
X129290000Y-98540000D01*
X129290000Y-98540000D02*
X103770000Y-98540000D01*
X103770000Y-98540000D02*
X103770000Y-100190000D01*
X103770000Y-100190000D02*
G75*
G02*
X103770000Y-102190000I0J-1000000D01*
G01*
X181472936Y-61765000D02*
X181927064Y-61765000D01*
X181472936Y-63235000D02*
X181927064Y-63235000D01*
X175958646Y-61765000D02*
X176412774Y-61765000D01*
X175958646Y-63235000D02*
X176412774Y-63235000D01*
X170444361Y-61765000D02*
X170898489Y-61765000D01*
X170444361Y-63235000D02*
X170898489Y-63235000D01*
X164930076Y-61765000D02*
X165384204Y-61765000D01*
X164930076Y-63235000D02*
X165384204Y-63235000D01*
X159415791Y-61765000D02*
X159869919Y-61765000D01*
X159415791Y-63235000D02*
X159869919Y-63235000D01*
X153901506Y-61765000D02*
X154355634Y-61765000D01*
X153901506Y-63235000D02*
X154355634Y-63235000D01*
X148387221Y-61765000D02*
X148841349Y-61765000D01*
X148387221Y-63235000D02*
X148841349Y-63235000D01*
X142872936Y-61765000D02*
X143327064Y-61765000D01*
X142872936Y-63235000D02*
X143327064Y-63235000D01*
X136127064Y-63235000D02*
X135672936Y-63235000D01*
X136127064Y-61765000D02*
X135672936Y-61765000D01*
X142872936Y-117465000D02*
X143327064Y-117465000D01*
X142872936Y-118935000D02*
X143327064Y-118935000D01*
X148387221Y-117465000D02*
X148841349Y-117465000D01*
X148387221Y-118935000D02*
X148841349Y-118935000D01*
X153901506Y-117465000D02*
X154355634Y-117465000D01*
X153901506Y-118935000D02*
X154355634Y-118935000D01*
X159415791Y-117465000D02*
X159869919Y-117465000D01*
X159415791Y-118935000D02*
X159869919Y-118935000D01*
X164930076Y-117465000D02*
X165384204Y-117465000D01*
X164930076Y-118935000D02*
X165384204Y-118935000D01*
X170444361Y-117465000D02*
X170898489Y-117465000D01*
X170444361Y-118935000D02*
X170898489Y-118935000D01*
X175958646Y-117465000D02*
X176412774Y-117465000D01*
X175958646Y-118935000D02*
X176412774Y-118935000D01*
X181472936Y-117465000D02*
X181927064Y-117465000D01*
X181472936Y-118935000D02*
X181927064Y-118935000D01*
X182700000Y-66140000D02*
X179840000Y-66140000D01*
X179840000Y-66140000D02*
X179840000Y-68060000D01*
X179840000Y-68060000D02*
X182700000Y-68060000D01*
X177185710Y-66140000D02*
X174325710Y-66140000D01*
X174325710Y-66140000D02*
X174325710Y-68060000D01*
X174325710Y-68060000D02*
X177185710Y-68060000D01*
X171671425Y-66140000D02*
X168811425Y-66140000D01*
X168811425Y-66140000D02*
X168811425Y-68060000D01*
X168811425Y-68060000D02*
X171671425Y-68060000D01*
X166157140Y-66140000D02*
X163297140Y-66140000D01*
X163297140Y-66140000D02*
X163297140Y-68060000D01*
X163297140Y-68060000D02*
X166157140Y-68060000D01*
X160642855Y-66140000D02*
X157782855Y-66140000D01*
X157782855Y-66140000D02*
X157782855Y-68060000D01*
X157782855Y-68060000D02*
X160642855Y-68060000D01*
X155128570Y-66140000D02*
X152268570Y-66140000D01*
X152268570Y-66140000D02*
X152268570Y-68060000D01*
X152268570Y-68060000D02*
X155128570Y-68060000D01*
X149614285Y-66140000D02*
X146754285Y-66140000D01*
X146754285Y-66140000D02*
X146754285Y-68060000D01*
X146754285Y-68060000D02*
X149614285Y-68060000D01*
X144100000Y-66140000D02*
X141240000Y-66140000D01*
X141240000Y-66140000D02*
X141240000Y-68060000D01*
X141240000Y-68060000D02*
X144100000Y-68060000D01*
X136900000Y-66140000D02*
X134040000Y-66140000D01*
X134040000Y-66140000D02*
X134040000Y-68060000D01*
X134040000Y-68060000D02*
X136900000Y-68060000D01*
X144100000Y-121840000D02*
X141240000Y-121840000D01*
X141240000Y-121840000D02*
X141240000Y-123760000D01*
X141240000Y-123760000D02*
X144100000Y-123760000D01*
X149614285Y-121840000D02*
X146754285Y-121840000D01*
X146754285Y-121840000D02*
X146754285Y-123760000D01*
X146754285Y-123760000D02*
X149614285Y-123760000D01*
X155128570Y-121840000D02*
X152268570Y-121840000D01*
X152268570Y-121840000D02*
X152268570Y-123760000D01*
X152268570Y-123760000D02*
X155128570Y-123760000D01*
X160642855Y-121840000D02*
X157782855Y-121840000D01*
X157782855Y-121840000D02*
X157782855Y-123760000D01*
X157782855Y-123760000D02*
X160642855Y-123760000D01*
X166157140Y-121840000D02*
X163297140Y-121840000D01*
X163297140Y-121840000D02*
X163297140Y-123760000D01*
X163297140Y-123760000D02*
X166157140Y-123760000D01*
X171671425Y-121840000D02*
X168811425Y-121840000D01*
X168811425Y-121840000D02*
X168811425Y-123760000D01*
X168811425Y-123760000D02*
X171671425Y-123760000D01*
X177185710Y-121840000D02*
X174325710Y-121840000D01*
X174325710Y-121840000D02*
X174325710Y-123760000D01*
X174325710Y-123760000D02*
X177185710Y-123760000D01*
X182700000Y-121840000D02*
X179840000Y-121840000D01*
X179840000Y-121840000D02*
X179840000Y-123760000D01*
X179840000Y-123760000D02*
X182700000Y-123760000D01*
X122038748Y-54565000D02*
X122561252Y-54565000D01*
X122038748Y-56035000D02*
X122561252Y-56035000D01*
X106738748Y-54565000D02*
X107261252Y-54565000D01*
X106738748Y-56035000D02*
X107261252Y-56035000D01*
X106061252Y-112735000D02*
X105538748Y-112735000D01*
X106061252Y-111265000D02*
X105538748Y-111265000D01*
X106461252Y-94235000D02*
X105938748Y-94235000D01*
X106461252Y-92765000D02*
X105938748Y-92765000D01*
D10*
X153933333Y-81777142D02*
X153885714Y-81824761D01*
X153742857Y-81872380D01*
X153647619Y-81872380D01*
X153504761Y-81824761D01*
X153409523Y-81729523D01*
X153361904Y-81634285D01*
X153314285Y-81443809D01*
X153314285Y-81300952D01*
X153361904Y-81110476D01*
X153409523Y-81015238D01*
X153504761Y-80920000D01*
X153647619Y-80872380D01*
X153742857Y-80872380D01*
X153885714Y-80920000D01*
X153933333Y-80967619D01*
X154838095Y-80872380D02*
X154361904Y-80872380D01*
X154314285Y-81348571D01*
X154361904Y-81300952D01*
X154457142Y-81253333D01*
X154695238Y-81253333D01*
X154790476Y-81300952D01*
X154838095Y-81348571D01*
X154885714Y-81443809D01*
X154885714Y-81681904D01*
X154838095Y-81777142D01*
X154790476Y-81824761D01*
X154695238Y-81872380D01*
X154457142Y-81872380D01*
X154361904Y-81824761D01*
X154314285Y-81777142D01*
X143457142Y-93552380D02*
X143123809Y-93076190D01*
X142885714Y-93552380D02*
X142885714Y-92552380D01*
X143266666Y-92552380D01*
X143361904Y-92600000D01*
X143409523Y-92647619D01*
X143457142Y-92742857D01*
X143457142Y-92885714D01*
X143409523Y-92980952D01*
X143361904Y-93028571D01*
X143266666Y-93076190D01*
X142885714Y-93076190D01*
X144409523Y-93552380D02*
X143838095Y-93552380D01*
X144123809Y-93552380D02*
X144123809Y-92552380D01*
X144028571Y-92695238D01*
X143933333Y-92790476D01*
X143838095Y-92838095D01*
X144980952Y-92980952D02*
X144885714Y-92933333D01*
X144838095Y-92885714D01*
X144790476Y-92790476D01*
X144790476Y-92742857D01*
X144838095Y-92647619D01*
X144885714Y-92600000D01*
X144980952Y-92552380D01*
X145171428Y-92552380D01*
X145266666Y-92600000D01*
X145314285Y-92647619D01*
X145361904Y-92742857D01*
X145361904Y-92790476D01*
X145314285Y-92885714D01*
X145266666Y-92933333D01*
X145171428Y-92980952D01*
X144980952Y-92980952D01*
X144885714Y-93028571D01*
X144838095Y-93076190D01*
X144790476Y-93171428D01*
X144790476Y-93361904D01*
X144838095Y-93457142D01*
X144885714Y-93504761D01*
X144980952Y-93552380D01*
X145171428Y-93552380D01*
X145266666Y-93504761D01*
X145314285Y-93457142D01*
X145361904Y-93361904D01*
X145361904Y-93171428D01*
X145314285Y-93076190D01*
X145266666Y-93028571D01*
X145171428Y-92980952D01*
X142885714Y-97302380D02*
X142885714Y-96302380D01*
X143123809Y-96302380D01*
X143266666Y-96350000D01*
X143361904Y-96445238D01*
X143409523Y-96540476D01*
X143457142Y-96730952D01*
X143457142Y-96873809D01*
X143409523Y-97064285D01*
X143361904Y-97159523D01*
X143266666Y-97254761D01*
X143123809Y-97302380D01*
X142885714Y-97302380D01*
X144409523Y-97302380D02*
X143838095Y-97302380D01*
X144123809Y-97302380D02*
X144123809Y-96302380D01*
X144028571Y-96445238D01*
X143933333Y-96540476D01*
X143838095Y-96588095D01*
X144980952Y-96730952D02*
X144885714Y-96683333D01*
X144838095Y-96635714D01*
X144790476Y-96540476D01*
X144790476Y-96492857D01*
X144838095Y-96397619D01*
X144885714Y-96350000D01*
X144980952Y-96302380D01*
X145171428Y-96302380D01*
X145266666Y-96350000D01*
X145314285Y-96397619D01*
X145361904Y-96492857D01*
X145361904Y-96540476D01*
X145314285Y-96635714D01*
X145266666Y-96683333D01*
X145171428Y-96730952D01*
X144980952Y-96730952D01*
X144885714Y-96778571D01*
X144838095Y-96826190D01*
X144790476Y-96921428D01*
X144790476Y-97111904D01*
X144838095Y-97207142D01*
X144885714Y-97254761D01*
X144980952Y-97302380D01*
X145171428Y-97302380D01*
X145266666Y-97254761D01*
X145314285Y-97207142D01*
X145361904Y-97111904D01*
X145361904Y-96921428D01*
X145314285Y-96826190D01*
X145266666Y-96778571D01*
X145171428Y-96730952D01*
D13*
X141100000Y-99878571D02*
X141457142Y-101378571D01*
X141742857Y-100307142D01*
X142028571Y-101378571D01*
X142385714Y-99878571D01*
X143814285Y-101378571D02*
X143314285Y-100664285D01*
X142957142Y-101378571D02*
X142957142Y-99878571D01*
X143528571Y-99878571D01*
X143671428Y-99950000D01*
X143742857Y-100021428D01*
X143814285Y-100164285D01*
X143814285Y-100378571D01*
X143742857Y-100521428D01*
X143671428Y-100592857D01*
X143528571Y-100664285D01*
X142957142Y-100664285D01*
X144457142Y-101378571D02*
X144457142Y-99878571D01*
X144957142Y-99878571D02*
X145814285Y-99878571D01*
X145385714Y-101378571D02*
X145385714Y-99878571D01*
X146314285Y-100592857D02*
X146814285Y-100592857D01*
X147028571Y-101378571D02*
X146314285Y-101378571D01*
X146314285Y-99878571D01*
X147028571Y-99878571D01*
D10*
X152222380Y-91251904D02*
X153031904Y-91251904D01*
X153127142Y-91204285D01*
X153174761Y-91156666D01*
X153222380Y-91061428D01*
X153222380Y-90870952D01*
X153174761Y-90775714D01*
X153127142Y-90728095D01*
X153031904Y-90680476D01*
X152222380Y-90680476D01*
X152222380Y-89728095D02*
X152222380Y-90204285D01*
X152698571Y-90251904D01*
X152650952Y-90204285D01*
X152603333Y-90109047D01*
X152603333Y-89870952D01*
X152650952Y-89775714D01*
X152698571Y-89728095D01*
X152793809Y-89680476D01*
X153031904Y-89680476D01*
X153127142Y-89728095D01*
X153174761Y-89775714D01*
X153222380Y-89870952D01*
X153222380Y-90109047D01*
X153174761Y-90204285D01*
X153127142Y-90251904D01*
X174662380Y-94132857D02*
X174662380Y-93466190D01*
X175662380Y-93894761D01*
X174995714Y-92656666D02*
X175662380Y-92656666D01*
X174614761Y-92894761D02*
X175329047Y-93132857D01*
X175329047Y-92513809D01*
X175662380Y-92132857D02*
X174662380Y-92132857D01*
X175138571Y-92132857D02*
X175138571Y-91561428D01*
X175662380Y-91561428D02*
X174662380Y-91561428D01*
X175567142Y-90513809D02*
X175614761Y-90561428D01*
X175662380Y-90704285D01*
X175662380Y-90799523D01*
X175614761Y-90942380D01*
X175519523Y-91037619D01*
X175424285Y-91085238D01*
X175233809Y-91132857D01*
X175090952Y-91132857D01*
X174900476Y-91085238D01*
X174805238Y-91037619D01*
X174710000Y-90942380D01*
X174662380Y-90799523D01*
X174662380Y-90704285D01*
X174710000Y-90561428D01*
X174757619Y-90513809D01*
X174662380Y-90228095D02*
X174662380Y-89656666D01*
X175662380Y-89942380D02*
X174662380Y-89942380D01*
X175662380Y-88799523D02*
X175662380Y-89370952D01*
X175662380Y-89085238D02*
X174662380Y-89085238D01*
X174805238Y-89180476D01*
X174900476Y-89275714D01*
X174948095Y-89370952D01*
X174662380Y-88466190D02*
X174662380Y-87847142D01*
X175043333Y-88180476D01*
X175043333Y-88037619D01*
X175090952Y-87942380D01*
X175138571Y-87894761D01*
X175233809Y-87847142D01*
X175471904Y-87847142D01*
X175567142Y-87894761D01*
X175614761Y-87942380D01*
X175662380Y-88037619D01*
X175662380Y-88323333D01*
X175614761Y-88418571D01*
X175567142Y-88466190D01*
X175090952Y-87275714D02*
X175043333Y-87370952D01*
X174995714Y-87418571D01*
X174900476Y-87466190D01*
X174852857Y-87466190D01*
X174757619Y-87418571D01*
X174710000Y-87370952D01*
X174662380Y-87275714D01*
X174662380Y-87085238D01*
X174710000Y-86990000D01*
X174757619Y-86942380D01*
X174852857Y-86894761D01*
X174900476Y-86894761D01*
X174995714Y-86942380D01*
X175043333Y-86990000D01*
X175090952Y-87085238D01*
X175090952Y-87275714D01*
X175138571Y-87370952D01*
X175186190Y-87418571D01*
X175281428Y-87466190D01*
X175471904Y-87466190D01*
X175567142Y-87418571D01*
X175614761Y-87370952D01*
X175662380Y-87275714D01*
X175662380Y-87085238D01*
X175614761Y-86990000D01*
X175567142Y-86942380D01*
X175471904Y-86894761D01*
X175281428Y-86894761D01*
X175186190Y-86942380D01*
X175138571Y-86990000D01*
X175090952Y-87085238D01*
X176352380Y-96766666D02*
X176352380Y-96147619D01*
X176733333Y-96480952D01*
X176733333Y-96338095D01*
X176780952Y-96242857D01*
X176828571Y-96195238D01*
X176923809Y-96147619D01*
X177161904Y-96147619D01*
X177257142Y-96195238D01*
X177304761Y-96242857D01*
X177352380Y-96338095D01*
X177352380Y-96623809D01*
X177304761Y-96719047D01*
X177257142Y-96766666D01*
X176971428Y-95719047D02*
X176971428Y-94957142D01*
X176685714Y-94623809D02*
X176685714Y-94242857D01*
X176352380Y-94480952D02*
X177209523Y-94480952D01*
X177304761Y-94433333D01*
X177352380Y-94338095D01*
X177352380Y-94242857D01*
X177352380Y-93766666D02*
X177304761Y-93861904D01*
X177257142Y-93909523D01*
X177161904Y-93957142D01*
X176876190Y-93957142D01*
X176780952Y-93909523D01*
X176733333Y-93861904D01*
X176685714Y-93766666D01*
X176685714Y-93623809D01*
X176733333Y-93528571D01*
X176780952Y-93480952D01*
X176876190Y-93433333D01*
X177161904Y-93433333D01*
X177257142Y-93480952D01*
X177304761Y-93528571D01*
X177352380Y-93623809D01*
X177352380Y-93766666D01*
X176971428Y-93004761D02*
X176971428Y-92242857D01*
X176780952Y-91623809D02*
X176733333Y-91719047D01*
X176685714Y-91766666D01*
X176590476Y-91814285D01*
X176542857Y-91814285D01*
X176447619Y-91766666D01*
X176400000Y-91719047D01*
X176352380Y-91623809D01*
X176352380Y-91433333D01*
X176400000Y-91338095D01*
X176447619Y-91290476D01*
X176542857Y-91242857D01*
X176590476Y-91242857D01*
X176685714Y-91290476D01*
X176733333Y-91338095D01*
X176780952Y-91433333D01*
X176780952Y-91623809D01*
X176828571Y-91719047D01*
X176876190Y-91766666D01*
X176971428Y-91814285D01*
X177161904Y-91814285D01*
X177257142Y-91766666D01*
X177304761Y-91719047D01*
X177352380Y-91623809D01*
X177352380Y-91433333D01*
X177304761Y-91338095D01*
X177257142Y-91290476D01*
X177161904Y-91242857D01*
X176971428Y-91242857D01*
X176876190Y-91290476D01*
X176828571Y-91338095D01*
X176780952Y-91433333D01*
X177352380Y-90052380D02*
X176352380Y-90052380D01*
X176352380Y-89814285D01*
X176400000Y-89671428D01*
X176495238Y-89576190D01*
X176590476Y-89528571D01*
X176780952Y-89480952D01*
X176923809Y-89480952D01*
X177114285Y-89528571D01*
X177209523Y-89576190D01*
X177304761Y-89671428D01*
X177352380Y-89814285D01*
X177352380Y-90052380D01*
X177304761Y-88671428D02*
X177352380Y-88766666D01*
X177352380Y-88957142D01*
X177304761Y-89052380D01*
X177209523Y-89100000D01*
X176828571Y-89100000D01*
X176733333Y-89052380D01*
X176685714Y-88957142D01*
X176685714Y-88766666D01*
X176733333Y-88671428D01*
X176828571Y-88623809D01*
X176923809Y-88623809D01*
X177019047Y-89100000D01*
X177304761Y-87766666D02*
X177352380Y-87861904D01*
X177352380Y-88052380D01*
X177304761Y-88147619D01*
X177257142Y-88195238D01*
X177161904Y-88242857D01*
X176876190Y-88242857D01*
X176780952Y-88195238D01*
X176733333Y-88147619D01*
X176685714Y-88052380D01*
X176685714Y-87861904D01*
X176733333Y-87766666D01*
X177352380Y-87195238D02*
X177304761Y-87290476D01*
X177257142Y-87338095D01*
X177161904Y-87385714D01*
X176876190Y-87385714D01*
X176780952Y-87338095D01*
X176733333Y-87290476D01*
X176685714Y-87195238D01*
X176685714Y-87052380D01*
X176733333Y-86957142D01*
X176780952Y-86909523D01*
X176876190Y-86861904D01*
X177161904Y-86861904D01*
X177257142Y-86909523D01*
X177304761Y-86957142D01*
X177352380Y-87052380D01*
X177352380Y-87195238D01*
X177352380Y-86004761D02*
X176352380Y-86004761D01*
X177304761Y-86004761D02*
X177352380Y-86100000D01*
X177352380Y-86290476D01*
X177304761Y-86385714D01*
X177257142Y-86433333D01*
X177161904Y-86480952D01*
X176876190Y-86480952D01*
X176780952Y-86433333D01*
X176733333Y-86385714D01*
X176685714Y-86290476D01*
X176685714Y-86100000D01*
X176733333Y-86004761D01*
X177304761Y-85147619D02*
X177352380Y-85242857D01*
X177352380Y-85433333D01*
X177304761Y-85528571D01*
X177209523Y-85576190D01*
X176828571Y-85576190D01*
X176733333Y-85528571D01*
X176685714Y-85433333D01*
X176685714Y-85242857D01*
X176733333Y-85147619D01*
X176828571Y-85100000D01*
X176923809Y-85100000D01*
X177019047Y-85576190D01*
X177352380Y-84671428D02*
X176685714Y-84671428D01*
X176876190Y-84671428D02*
X176780952Y-84623809D01*
X176733333Y-84576190D01*
X176685714Y-84480952D01*
X176685714Y-84385714D01*
D14*
X154428571Y-96804761D02*
X154904761Y-98804761D01*
X155285714Y-97376190D01*
X155666666Y-98804761D01*
X156142857Y-96804761D01*
X156904761Y-98804761D02*
X156904761Y-97471428D01*
X156904761Y-97852380D02*
X157000000Y-97661904D01*
X157095238Y-97566666D01*
X157285714Y-97471428D01*
X157476190Y-97471428D01*
X158142857Y-98804761D02*
X158142857Y-97471428D01*
X158142857Y-96804761D02*
X158047619Y-96900000D01*
X158142857Y-96995238D01*
X158238095Y-96900000D01*
X158142857Y-96804761D01*
X158142857Y-96995238D01*
X158809523Y-97471428D02*
X159571428Y-97471428D01*
X159095238Y-96804761D02*
X159095238Y-98519047D01*
X159190476Y-98709523D01*
X159380952Y-98804761D01*
X159571428Y-98804761D01*
X161000000Y-98709523D02*
X160809523Y-98804761D01*
X160428571Y-98804761D01*
X160238095Y-98709523D01*
X160142857Y-98519047D01*
X160142857Y-97757142D01*
X160238095Y-97566666D01*
X160428571Y-97471428D01*
X160809523Y-97471428D01*
X161000000Y-97566666D01*
X161095238Y-97757142D01*
X161095238Y-97947619D01*
X160142857Y-98138095D01*
X163380952Y-98709523D02*
X163666666Y-98804761D01*
X164142857Y-98804761D01*
X164333333Y-98709523D01*
X164428571Y-98614285D01*
X164523809Y-98423809D01*
X164523809Y-98233333D01*
X164428571Y-98042857D01*
X164333333Y-97947619D01*
X164142857Y-97852380D01*
X163761904Y-97757142D01*
X163571428Y-97661904D01*
X163476190Y-97566666D01*
X163380952Y-97376190D01*
X163380952Y-97185714D01*
X163476190Y-96995238D01*
X163571428Y-96900000D01*
X163761904Y-96804761D01*
X164238095Y-96804761D01*
X164523809Y-96900000D01*
X166142857Y-98709523D02*
X165952380Y-98804761D01*
X165571428Y-98804761D01*
X165380952Y-98709523D01*
X165285714Y-98519047D01*
X165285714Y-97757142D01*
X165380952Y-97566666D01*
X165571428Y-97471428D01*
X165952380Y-97471428D01*
X166142857Y-97566666D01*
X166238095Y-97757142D01*
X166238095Y-97947619D01*
X165285714Y-98138095D01*
X167380952Y-98804761D02*
X167190476Y-98709523D01*
X167095238Y-98519047D01*
X167095238Y-96804761D01*
X168904761Y-98709523D02*
X168714285Y-98804761D01*
X168333333Y-98804761D01*
X168142857Y-98709523D01*
X168047619Y-98519047D01*
X168047619Y-97757142D01*
X168142857Y-97566666D01*
X168333333Y-97471428D01*
X168714285Y-97471428D01*
X168904761Y-97566666D01*
X169000000Y-97757142D01*
X169000000Y-97947619D01*
X168047619Y-98138095D01*
X170714285Y-98709523D02*
X170523809Y-98804761D01*
X170142857Y-98804761D01*
X169952380Y-98709523D01*
X169857142Y-98614285D01*
X169761904Y-98423809D01*
X169761904Y-97852380D01*
X169857142Y-97661904D01*
X169952380Y-97566666D01*
X170142857Y-97471428D01*
X170523809Y-97471428D01*
X170714285Y-97566666D01*
X171285714Y-97471428D02*
X172047619Y-97471428D01*
X171571428Y-96804761D02*
X171571428Y-98519047D01*
X171666666Y-98709523D01*
X171857142Y-98804761D01*
X172047619Y-98804761D01*
X172619047Y-98709523D02*
X172809523Y-98804761D01*
X173190476Y-98804761D01*
X173380952Y-98709523D01*
X173476190Y-98519047D01*
X173476190Y-98423809D01*
X173380952Y-98233333D01*
X173190476Y-98138095D01*
X172904761Y-98138095D01*
X172714285Y-98042857D01*
X172619047Y-97852380D01*
X172619047Y-97757142D01*
X172714285Y-97566666D01*
X172904761Y-97471428D01*
X173190476Y-97471428D01*
X173380952Y-97566666D01*
D10*
X118348095Y-55982380D02*
X118348095Y-56791904D01*
X118395714Y-56887142D01*
X118443333Y-56934761D01*
X118538571Y-56982380D01*
X118729047Y-56982380D01*
X118824285Y-56934761D01*
X118871904Y-56887142D01*
X118919523Y-56791904D01*
X118919523Y-55982380D01*
X119824285Y-56315714D02*
X119824285Y-56982380D01*
X119586190Y-55934761D02*
X119348095Y-56649047D01*
X119967142Y-56649047D01*
X115467142Y-78422380D02*
X116133809Y-78422380D01*
X115705238Y-79422380D01*
X116943333Y-78755714D02*
X116943333Y-79422380D01*
X116705238Y-78374761D02*
X116467142Y-79089047D01*
X117086190Y-79089047D01*
X117467142Y-79422380D02*
X117467142Y-78422380D01*
X117467142Y-78898571D02*
X118038571Y-78898571D01*
X118038571Y-79422380D02*
X118038571Y-78422380D01*
X119086190Y-79327142D02*
X119038571Y-79374761D01*
X118895714Y-79422380D01*
X118800476Y-79422380D01*
X118657619Y-79374761D01*
X118562380Y-79279523D01*
X118514761Y-79184285D01*
X118467142Y-78993809D01*
X118467142Y-78850952D01*
X118514761Y-78660476D01*
X118562380Y-78565238D01*
X118657619Y-78470000D01*
X118800476Y-78422380D01*
X118895714Y-78422380D01*
X119038571Y-78470000D01*
X119086190Y-78517619D01*
X119371904Y-78422380D02*
X119943333Y-78422380D01*
X119657619Y-79422380D02*
X119657619Y-78422380D01*
X120800476Y-79422380D02*
X120229047Y-79422380D01*
X120514761Y-79422380D02*
X120514761Y-78422380D01*
X120419523Y-78565238D01*
X120324285Y-78660476D01*
X120229047Y-78708095D01*
X121133809Y-78422380D02*
X121752857Y-78422380D01*
X121419523Y-78803333D01*
X121562380Y-78803333D01*
X121657619Y-78850952D01*
X121705238Y-78898571D01*
X121752857Y-78993809D01*
X121752857Y-79231904D01*
X121705238Y-79327142D01*
X121657619Y-79374761D01*
X121562380Y-79422380D01*
X121276666Y-79422380D01*
X121181428Y-79374761D01*
X121133809Y-79327142D01*
X122324285Y-78850952D02*
X122229047Y-78803333D01*
X122181428Y-78755714D01*
X122133809Y-78660476D01*
X122133809Y-78612857D01*
X122181428Y-78517619D01*
X122229047Y-78470000D01*
X122324285Y-78422380D01*
X122514761Y-78422380D01*
X122610000Y-78470000D01*
X122657619Y-78517619D01*
X122705238Y-78612857D01*
X122705238Y-78660476D01*
X122657619Y-78755714D01*
X122610000Y-78803333D01*
X122514761Y-78850952D01*
X122324285Y-78850952D01*
X122229047Y-78898571D01*
X122181428Y-78946190D01*
X122133809Y-79041428D01*
X122133809Y-79231904D01*
X122181428Y-79327142D01*
X122229047Y-79374761D01*
X122324285Y-79422380D01*
X122514761Y-79422380D01*
X122610000Y-79374761D01*
X122657619Y-79327142D01*
X122705238Y-79231904D01*
X122705238Y-79041428D01*
X122657619Y-78946190D01*
X122610000Y-78898571D01*
X122514761Y-78850952D01*
X112933333Y-79852380D02*
X113552380Y-79852380D01*
X113219047Y-80233333D01*
X113361904Y-80233333D01*
X113457142Y-80280952D01*
X113504761Y-80328571D01*
X113552380Y-80423809D01*
X113552380Y-80661904D01*
X113504761Y-80757142D01*
X113457142Y-80804761D01*
X113361904Y-80852380D01*
X113076190Y-80852380D01*
X112980952Y-80804761D01*
X112933333Y-80757142D01*
X113980952Y-80471428D02*
X114742857Y-80471428D01*
X115076190Y-80185714D02*
X115457142Y-80185714D01*
X115219047Y-79852380D02*
X115219047Y-80709523D01*
X115266666Y-80804761D01*
X115361904Y-80852380D01*
X115457142Y-80852380D01*
X115933333Y-80852380D02*
X115838095Y-80804761D01*
X115790476Y-80757142D01*
X115742857Y-80661904D01*
X115742857Y-80376190D01*
X115790476Y-80280952D01*
X115838095Y-80233333D01*
X115933333Y-80185714D01*
X116076190Y-80185714D01*
X116171428Y-80233333D01*
X116219047Y-80280952D01*
X116266666Y-80376190D01*
X116266666Y-80661904D01*
X116219047Y-80757142D01*
X116171428Y-80804761D01*
X116076190Y-80852380D01*
X115933333Y-80852380D01*
X116695238Y-80471428D02*
X117457142Y-80471428D01*
X118076190Y-80280952D02*
X117980952Y-80233333D01*
X117933333Y-80185714D01*
X117885714Y-80090476D01*
X117885714Y-80042857D01*
X117933333Y-79947619D01*
X117980952Y-79900000D01*
X118076190Y-79852380D01*
X118266666Y-79852380D01*
X118361904Y-79900000D01*
X118409523Y-79947619D01*
X118457142Y-80042857D01*
X118457142Y-80090476D01*
X118409523Y-80185714D01*
X118361904Y-80233333D01*
X118266666Y-80280952D01*
X118076190Y-80280952D01*
X117980952Y-80328571D01*
X117933333Y-80376190D01*
X117885714Y-80471428D01*
X117885714Y-80661904D01*
X117933333Y-80757142D01*
X117980952Y-80804761D01*
X118076190Y-80852380D01*
X118266666Y-80852380D01*
X118361904Y-80804761D01*
X118409523Y-80757142D01*
X118457142Y-80661904D01*
X118457142Y-80471428D01*
X118409523Y-80376190D01*
X118361904Y-80328571D01*
X118266666Y-80280952D01*
X119647619Y-80852380D02*
X119647619Y-79852380D01*
X119885714Y-79852380D01*
X120028571Y-79900000D01*
X120123809Y-79995238D01*
X120171428Y-80090476D01*
X120219047Y-80280952D01*
X120219047Y-80423809D01*
X120171428Y-80614285D01*
X120123809Y-80709523D01*
X120028571Y-80804761D01*
X119885714Y-80852380D01*
X119647619Y-80852380D01*
X121028571Y-80804761D02*
X120933333Y-80852380D01*
X120742857Y-80852380D01*
X120647619Y-80804761D01*
X120600000Y-80709523D01*
X120600000Y-80328571D01*
X120647619Y-80233333D01*
X120742857Y-80185714D01*
X120933333Y-80185714D01*
X121028571Y-80233333D01*
X121076190Y-80328571D01*
X121076190Y-80423809D01*
X120600000Y-80519047D01*
X121933333Y-80804761D02*
X121838095Y-80852380D01*
X121647619Y-80852380D01*
X121552380Y-80804761D01*
X121504761Y-80757142D01*
X121457142Y-80661904D01*
X121457142Y-80376190D01*
X121504761Y-80280952D01*
X121552380Y-80233333D01*
X121647619Y-80185714D01*
X121838095Y-80185714D01*
X121933333Y-80233333D01*
X122504761Y-80852380D02*
X122409523Y-80804761D01*
X122361904Y-80757142D01*
X122314285Y-80661904D01*
X122314285Y-80376190D01*
X122361904Y-80280952D01*
X122409523Y-80233333D01*
X122504761Y-80185714D01*
X122647619Y-80185714D01*
X122742857Y-80233333D01*
X122790476Y-80280952D01*
X122838095Y-80376190D01*
X122838095Y-80661904D01*
X122790476Y-80757142D01*
X122742857Y-80804761D01*
X122647619Y-80852380D01*
X122504761Y-80852380D01*
X123695238Y-80852380D02*
X123695238Y-79852380D01*
X123695238Y-80804761D02*
X123600000Y-80852380D01*
X123409523Y-80852380D01*
X123314285Y-80804761D01*
X123266666Y-80757142D01*
X123219047Y-80661904D01*
X123219047Y-80376190D01*
X123266666Y-80280952D01*
X123314285Y-80233333D01*
X123409523Y-80185714D01*
X123600000Y-80185714D01*
X123695238Y-80233333D01*
X124552380Y-80804761D02*
X124457142Y-80852380D01*
X124266666Y-80852380D01*
X124171428Y-80804761D01*
X124123809Y-80709523D01*
X124123809Y-80328571D01*
X124171428Y-80233333D01*
X124266666Y-80185714D01*
X124457142Y-80185714D01*
X124552380Y-80233333D01*
X124600000Y-80328571D01*
X124600000Y-80423809D01*
X124123809Y-80519047D01*
X125028571Y-80852380D02*
X125028571Y-80185714D01*
X125028571Y-80376190D02*
X125076190Y-80280952D01*
X125123809Y-80233333D01*
X125219047Y-80185714D01*
X125314285Y-80185714D01*
X103148095Y-55982380D02*
X103148095Y-56791904D01*
X103195714Y-56887142D01*
X103243333Y-56934761D01*
X103338571Y-56982380D01*
X103529047Y-56982380D01*
X103624285Y-56934761D01*
X103671904Y-56887142D01*
X103719523Y-56791904D01*
X103719523Y-55982380D01*
X104100476Y-55982380D02*
X104719523Y-55982380D01*
X104386190Y-56363333D01*
X104529047Y-56363333D01*
X104624285Y-56410952D01*
X104671904Y-56458571D01*
X104719523Y-56553809D01*
X104719523Y-56791904D01*
X104671904Y-56887142D01*
X104624285Y-56934761D01*
X104529047Y-56982380D01*
X104243333Y-56982380D01*
X104148095Y-56934761D01*
X104100476Y-56887142D01*
X100267142Y-78422380D02*
X100933809Y-78422380D01*
X100505238Y-79422380D01*
X101743333Y-78755714D02*
X101743333Y-79422380D01*
X101505238Y-78374761D02*
X101267142Y-79089047D01*
X101886190Y-79089047D01*
X102267142Y-79422380D02*
X102267142Y-78422380D01*
X102267142Y-78898571D02*
X102838571Y-78898571D01*
X102838571Y-79422380D02*
X102838571Y-78422380D01*
X103886190Y-79327142D02*
X103838571Y-79374761D01*
X103695714Y-79422380D01*
X103600476Y-79422380D01*
X103457619Y-79374761D01*
X103362380Y-79279523D01*
X103314761Y-79184285D01*
X103267142Y-78993809D01*
X103267142Y-78850952D01*
X103314761Y-78660476D01*
X103362380Y-78565238D01*
X103457619Y-78470000D01*
X103600476Y-78422380D01*
X103695714Y-78422380D01*
X103838571Y-78470000D01*
X103886190Y-78517619D01*
X104171904Y-78422380D02*
X104743333Y-78422380D01*
X104457619Y-79422380D02*
X104457619Y-78422380D01*
X105600476Y-79422380D02*
X105029047Y-79422380D01*
X105314761Y-79422380D02*
X105314761Y-78422380D01*
X105219523Y-78565238D01*
X105124285Y-78660476D01*
X105029047Y-78708095D01*
X106457619Y-78422380D02*
X106267142Y-78422380D01*
X106171904Y-78470000D01*
X106124285Y-78517619D01*
X106029047Y-78660476D01*
X105981428Y-78850952D01*
X105981428Y-79231904D01*
X106029047Y-79327142D01*
X106076666Y-79374761D01*
X106171904Y-79422380D01*
X106362380Y-79422380D01*
X106457619Y-79374761D01*
X106505238Y-79327142D01*
X106552857Y-79231904D01*
X106552857Y-78993809D01*
X106505238Y-78898571D01*
X106457619Y-78850952D01*
X106362380Y-78803333D01*
X106171904Y-78803333D01*
X106076666Y-78850952D01*
X106029047Y-78898571D01*
X105981428Y-78993809D01*
X107505238Y-79422380D02*
X106933809Y-79422380D01*
X107219523Y-79422380D02*
X107219523Y-78422380D01*
X107124285Y-78565238D01*
X107029047Y-78660476D01*
X106933809Y-78708095D01*
X101828571Y-80657142D02*
X101780952Y-80704761D01*
X101638095Y-80752380D01*
X101542857Y-80752380D01*
X101400000Y-80704761D01*
X101304761Y-80609523D01*
X101257142Y-80514285D01*
X101209523Y-80323809D01*
X101209523Y-80180952D01*
X101257142Y-79990476D01*
X101304761Y-79895238D01*
X101400000Y-79800000D01*
X101542857Y-79752380D01*
X101638095Y-79752380D01*
X101780952Y-79800000D01*
X101828571Y-79847619D01*
X102400000Y-80752380D02*
X102304761Y-80704761D01*
X102257142Y-80657142D01*
X102209523Y-80561904D01*
X102209523Y-80276190D01*
X102257142Y-80180952D01*
X102304761Y-80133333D01*
X102400000Y-80085714D01*
X102542857Y-80085714D01*
X102638095Y-80133333D01*
X102685714Y-80180952D01*
X102733333Y-80276190D01*
X102733333Y-80561904D01*
X102685714Y-80657142D01*
X102638095Y-80704761D01*
X102542857Y-80752380D01*
X102400000Y-80752380D01*
X103590476Y-80085714D02*
X103590476Y-80752380D01*
X103161904Y-80085714D02*
X103161904Y-80609523D01*
X103209523Y-80704761D01*
X103304761Y-80752380D01*
X103447619Y-80752380D01*
X103542857Y-80704761D01*
X103590476Y-80657142D01*
X104066666Y-80085714D02*
X104066666Y-80752380D01*
X104066666Y-80180952D02*
X104114285Y-80133333D01*
X104209523Y-80085714D01*
X104352380Y-80085714D01*
X104447619Y-80133333D01*
X104495238Y-80228571D01*
X104495238Y-80752380D01*
X104828571Y-80085714D02*
X105209523Y-80085714D01*
X104971428Y-79752380D02*
X104971428Y-80609523D01*
X105019047Y-80704761D01*
X105114285Y-80752380D01*
X105209523Y-80752380D01*
X105923809Y-80704761D02*
X105828571Y-80752380D01*
X105638095Y-80752380D01*
X105542857Y-80704761D01*
X105495238Y-80609523D01*
X105495238Y-80228571D01*
X105542857Y-80133333D01*
X105638095Y-80085714D01*
X105828571Y-80085714D01*
X105923809Y-80133333D01*
X105971428Y-80228571D01*
X105971428Y-80323809D01*
X105495238Y-80419047D01*
X106400000Y-80752380D02*
X106400000Y-80085714D01*
X106400000Y-80276190D02*
X106447619Y-80180952D01*
X106495238Y-80133333D01*
X106590476Y-80085714D01*
X106685714Y-80085714D01*
X101822380Y-120351904D02*
X102631904Y-120351904D01*
X102727142Y-120304285D01*
X102774761Y-120256666D01*
X102822380Y-120161428D01*
X102822380Y-119970952D01*
X102774761Y-119875714D01*
X102727142Y-119828095D01*
X102631904Y-119780476D01*
X101822380Y-119780476D01*
X101917619Y-119351904D02*
X101870000Y-119304285D01*
X101822380Y-119209047D01*
X101822380Y-118970952D01*
X101870000Y-118875714D01*
X101917619Y-118828095D01*
X102012857Y-118780476D01*
X102108095Y-118780476D01*
X102250952Y-118828095D01*
X102822380Y-119399523D01*
X102822380Y-118780476D01*
X129342380Y-123232857D02*
X129342380Y-122566190D01*
X130342380Y-122994761D01*
X129675714Y-121756666D02*
X130342380Y-121756666D01*
X129294761Y-121994761D02*
X130009047Y-122232857D01*
X130009047Y-121613809D01*
X130342380Y-121232857D02*
X129342380Y-121232857D01*
X129818571Y-121232857D02*
X129818571Y-120661428D01*
X130342380Y-120661428D02*
X129342380Y-120661428D01*
X130247142Y-119613809D02*
X130294761Y-119661428D01*
X130342380Y-119804285D01*
X130342380Y-119899523D01*
X130294761Y-120042380D01*
X130199523Y-120137619D01*
X130104285Y-120185238D01*
X129913809Y-120232857D01*
X129770952Y-120232857D01*
X129580476Y-120185238D01*
X129485238Y-120137619D01*
X129390000Y-120042380D01*
X129342380Y-119899523D01*
X129342380Y-119804285D01*
X129390000Y-119661428D01*
X129437619Y-119613809D01*
X129342380Y-119328095D02*
X129342380Y-118756666D01*
X130342380Y-119042380D02*
X129342380Y-119042380D01*
X129342380Y-118518571D02*
X129342380Y-117899523D01*
X129723333Y-118232857D01*
X129723333Y-118090000D01*
X129770952Y-117994761D01*
X129818571Y-117947142D01*
X129913809Y-117899523D01*
X130151904Y-117899523D01*
X130247142Y-117947142D01*
X130294761Y-117994761D01*
X130342380Y-118090000D01*
X130342380Y-118375714D01*
X130294761Y-118470952D01*
X130247142Y-118518571D01*
X129342380Y-117566190D02*
X129342380Y-116899523D01*
X130342380Y-117328095D01*
X129342380Y-116613809D02*
X129342380Y-115947142D01*
X130342380Y-116375714D01*
X108909523Y-126152380D02*
X108909523Y-125152380D01*
X109385714Y-125485714D02*
X109385714Y-126152380D01*
X109385714Y-125580952D02*
X109433333Y-125533333D01*
X109528571Y-125485714D01*
X109671428Y-125485714D01*
X109766666Y-125533333D01*
X109814285Y-125628571D01*
X109814285Y-126152380D01*
X110242857Y-126104761D02*
X110338095Y-126152380D01*
X110528571Y-126152380D01*
X110623809Y-126104761D01*
X110671428Y-126009523D01*
X110671428Y-125961904D01*
X110623809Y-125866666D01*
X110528571Y-125819047D01*
X110385714Y-125819047D01*
X110290476Y-125771428D01*
X110242857Y-125676190D01*
X110242857Y-125628571D01*
X110290476Y-125533333D01*
X110385714Y-125485714D01*
X110528571Y-125485714D01*
X110623809Y-125533333D01*
X110957142Y-125485714D02*
X111338095Y-125485714D01*
X111100000Y-125152380D02*
X111100000Y-126009523D01*
X111147619Y-126104761D01*
X111242857Y-126152380D01*
X111338095Y-126152380D01*
X111671428Y-126152380D02*
X111671428Y-125485714D01*
X111671428Y-125676190D02*
X111719047Y-125580952D01*
X111766666Y-125533333D01*
X111861904Y-125485714D01*
X111957142Y-125485714D01*
X112719047Y-125485714D02*
X112719047Y-126152380D01*
X112290476Y-125485714D02*
X112290476Y-126009523D01*
X112338095Y-126104761D01*
X112433333Y-126152380D01*
X112576190Y-126152380D01*
X112671428Y-126104761D01*
X112719047Y-126057142D01*
X113623809Y-126104761D02*
X113528571Y-126152380D01*
X113338095Y-126152380D01*
X113242857Y-126104761D01*
X113195238Y-126057142D01*
X113147619Y-125961904D01*
X113147619Y-125676190D01*
X113195238Y-125580952D01*
X113242857Y-125533333D01*
X113338095Y-125485714D01*
X113528571Y-125485714D01*
X113623809Y-125533333D01*
X113909523Y-125485714D02*
X114290476Y-125485714D01*
X114052380Y-125152380D02*
X114052380Y-126009523D01*
X114100000Y-126104761D01*
X114195238Y-126152380D01*
X114290476Y-126152380D01*
X114623809Y-126152380D02*
X114623809Y-125485714D01*
X114623809Y-125152380D02*
X114576190Y-125200000D01*
X114623809Y-125247619D01*
X114671428Y-125200000D01*
X114623809Y-125152380D01*
X114623809Y-125247619D01*
X115242857Y-126152380D02*
X115147619Y-126104761D01*
X115100000Y-126057142D01*
X115052380Y-125961904D01*
X115052380Y-125676190D01*
X115100000Y-125580952D01*
X115147619Y-125533333D01*
X115242857Y-125485714D01*
X115385714Y-125485714D01*
X115480952Y-125533333D01*
X115528571Y-125580952D01*
X115576190Y-125676190D01*
X115576190Y-125961904D01*
X115528571Y-126057142D01*
X115480952Y-126104761D01*
X115385714Y-126152380D01*
X115242857Y-126152380D01*
X116004761Y-125485714D02*
X116004761Y-126152380D01*
X116004761Y-125580952D02*
X116052380Y-125533333D01*
X116147619Y-125485714D01*
X116290476Y-125485714D01*
X116385714Y-125533333D01*
X116433333Y-125628571D01*
X116433333Y-126152380D01*
X118242857Y-126152380D02*
X117909523Y-125676190D01*
X117671428Y-126152380D02*
X117671428Y-125152380D01*
X118052380Y-125152380D01*
X118147619Y-125200000D01*
X118195238Y-125247619D01*
X118242857Y-125342857D01*
X118242857Y-125485714D01*
X118195238Y-125580952D01*
X118147619Y-125628571D01*
X118052380Y-125676190D01*
X117671428Y-125676190D01*
X119052380Y-126104761D02*
X118957142Y-126152380D01*
X118766666Y-126152380D01*
X118671428Y-126104761D01*
X118623809Y-126009523D01*
X118623809Y-125628571D01*
X118671428Y-125533333D01*
X118766666Y-125485714D01*
X118957142Y-125485714D01*
X119052380Y-125533333D01*
X119100000Y-125628571D01*
X119100000Y-125723809D01*
X118623809Y-125819047D01*
X119957142Y-125485714D02*
X119957142Y-126295238D01*
X119909523Y-126390476D01*
X119861904Y-126438095D01*
X119766666Y-126485714D01*
X119623809Y-126485714D01*
X119528571Y-126438095D01*
X119957142Y-126104761D02*
X119861904Y-126152380D01*
X119671428Y-126152380D01*
X119576190Y-126104761D01*
X119528571Y-126057142D01*
X119480952Y-125961904D01*
X119480952Y-125676190D01*
X119528571Y-125580952D01*
X119576190Y-125533333D01*
X119671428Y-125485714D01*
X119861904Y-125485714D01*
X119957142Y-125533333D01*
X120433333Y-126152380D02*
X120433333Y-125485714D01*
X120433333Y-125152380D02*
X120385714Y-125200000D01*
X120433333Y-125247619D01*
X120480952Y-125200000D01*
X120433333Y-125152380D01*
X120433333Y-125247619D01*
X120861904Y-126104761D02*
X120957142Y-126152380D01*
X121147619Y-126152380D01*
X121242857Y-126104761D01*
X121290476Y-126009523D01*
X121290476Y-125961904D01*
X121242857Y-125866666D01*
X121147619Y-125819047D01*
X121004761Y-125819047D01*
X120909523Y-125771428D01*
X120861904Y-125676190D01*
X120861904Y-125628571D01*
X120909523Y-125533333D01*
X121004761Y-125485714D01*
X121147619Y-125485714D01*
X121242857Y-125533333D01*
X121576190Y-125485714D02*
X121957142Y-125485714D01*
X121719047Y-125152380D02*
X121719047Y-126009523D01*
X121766666Y-126104761D01*
X121861904Y-126152380D01*
X121957142Y-126152380D01*
X122671428Y-126104761D02*
X122576190Y-126152380D01*
X122385714Y-126152380D01*
X122290476Y-126104761D01*
X122242857Y-126009523D01*
X122242857Y-125628571D01*
X122290476Y-125533333D01*
X122385714Y-125485714D01*
X122576190Y-125485714D01*
X122671428Y-125533333D01*
X122719047Y-125628571D01*
X122719047Y-125723809D01*
X122242857Y-125819047D01*
X123147619Y-126152380D02*
X123147619Y-125485714D01*
X123147619Y-125676190D02*
X123195238Y-125580952D01*
X123242857Y-125533333D01*
X123338095Y-125485714D01*
X123433333Y-125485714D01*
X102222380Y-101951904D02*
X103031904Y-101951904D01*
X103127142Y-101904285D01*
X103174761Y-101856666D01*
X103222380Y-101761428D01*
X103222380Y-101570952D01*
X103174761Y-101475714D01*
X103127142Y-101428095D01*
X103031904Y-101380476D01*
X102222380Y-101380476D01*
X103222380Y-100380476D02*
X103222380Y-100951904D01*
X103222380Y-100666190D02*
X102222380Y-100666190D01*
X102365238Y-100761428D01*
X102460476Y-100856666D01*
X102508095Y-100951904D01*
X129742380Y-104832857D02*
X129742380Y-104166190D01*
X130742380Y-104594761D01*
X130075714Y-103356666D02*
X130742380Y-103356666D01*
X129694761Y-103594761D02*
X130409047Y-103832857D01*
X130409047Y-103213809D01*
X130742380Y-102832857D02*
X129742380Y-102832857D01*
X130218571Y-102832857D02*
X130218571Y-102261428D01*
X130742380Y-102261428D02*
X129742380Y-102261428D01*
X130647142Y-101213809D02*
X130694761Y-101261428D01*
X130742380Y-101404285D01*
X130742380Y-101499523D01*
X130694761Y-101642380D01*
X130599523Y-101737619D01*
X130504285Y-101785238D01*
X130313809Y-101832857D01*
X130170952Y-101832857D01*
X129980476Y-101785238D01*
X129885238Y-101737619D01*
X129790000Y-101642380D01*
X129742380Y-101499523D01*
X129742380Y-101404285D01*
X129790000Y-101261428D01*
X129837619Y-101213809D01*
X129742380Y-100928095D02*
X129742380Y-100356666D01*
X130742380Y-100642380D02*
X129742380Y-100642380D01*
X129742380Y-100118571D02*
X129742380Y-99499523D01*
X130123333Y-99832857D01*
X130123333Y-99690000D01*
X130170952Y-99594761D01*
X130218571Y-99547142D01*
X130313809Y-99499523D01*
X130551904Y-99499523D01*
X130647142Y-99547142D01*
X130694761Y-99594761D01*
X130742380Y-99690000D01*
X130742380Y-99975714D01*
X130694761Y-100070952D01*
X130647142Y-100118571D01*
X129742380Y-99166190D02*
X129742380Y-98499523D01*
X130742380Y-98928095D01*
X129742380Y-98213809D02*
X129742380Y-97547142D01*
X130742380Y-97975714D01*
X112809523Y-107228571D02*
X112952380Y-107276190D01*
X113000000Y-107323809D01*
X113047619Y-107419047D01*
X113047619Y-107561904D01*
X113000000Y-107657142D01*
X112952380Y-107704761D01*
X112857142Y-107752380D01*
X112476190Y-107752380D01*
X112476190Y-106752380D01*
X112809523Y-106752380D01*
X112904761Y-106800000D01*
X112952380Y-106847619D01*
X113000000Y-106942857D01*
X113000000Y-107038095D01*
X112952380Y-107133333D01*
X112904761Y-107180952D01*
X112809523Y-107228571D01*
X112476190Y-107228571D01*
X113904761Y-107085714D02*
X113904761Y-107752380D01*
X113476190Y-107085714D02*
X113476190Y-107609523D01*
X113523809Y-107704761D01*
X113619047Y-107752380D01*
X113761904Y-107752380D01*
X113857142Y-107704761D01*
X113904761Y-107657142D01*
X114238095Y-107085714D02*
X114619047Y-107085714D01*
X114380952Y-107752380D02*
X114380952Y-106895238D01*
X114428571Y-106800000D01*
X114523809Y-106752380D01*
X114619047Y-106752380D01*
X114809523Y-107085714D02*
X115190476Y-107085714D01*
X114952380Y-107752380D02*
X114952380Y-106895238D01*
X115000000Y-106800000D01*
X115095238Y-106752380D01*
X115190476Y-106752380D01*
X115904761Y-107704761D02*
X115809523Y-107752380D01*
X115619047Y-107752380D01*
X115523809Y-107704761D01*
X115476190Y-107609523D01*
X115476190Y-107228571D01*
X115523809Y-107133333D01*
X115619047Y-107085714D01*
X115809523Y-107085714D01*
X115904761Y-107133333D01*
X115952380Y-107228571D01*
X115952380Y-107323809D01*
X115476190Y-107419047D01*
X116380952Y-107752380D02*
X116380952Y-107085714D01*
X116380952Y-107276190D02*
X116428571Y-107180952D01*
X116476190Y-107133333D01*
X116571428Y-107085714D01*
X116666666Y-107085714D01*
X117380952Y-107704761D02*
X117285714Y-107752380D01*
X117095238Y-107752380D01*
X117000000Y-107704761D01*
X116952380Y-107609523D01*
X116952380Y-107228571D01*
X117000000Y-107133333D01*
X117095238Y-107085714D01*
X117285714Y-107085714D01*
X117380952Y-107133333D01*
X117428571Y-107228571D01*
X117428571Y-107323809D01*
X116952380Y-107419047D01*
X118285714Y-107752380D02*
X118285714Y-106752380D01*
X118285714Y-107704761D02*
X118190476Y-107752380D01*
X118000000Y-107752380D01*
X117904761Y-107704761D01*
X117857142Y-107657142D01*
X117809523Y-107561904D01*
X117809523Y-107276190D01*
X117857142Y-107180952D01*
X117904761Y-107133333D01*
X118000000Y-107085714D01*
X118190476Y-107085714D01*
X118285714Y-107133333D01*
X119523809Y-107752380D02*
X119523809Y-106752380D01*
X120571428Y-107752380D02*
X120238095Y-107276190D01*
X120000000Y-107752380D02*
X120000000Y-106752380D01*
X120380952Y-106752380D01*
X120476190Y-106800000D01*
X120523809Y-106847619D01*
X120571428Y-106942857D01*
X120571428Y-107085714D01*
X120523809Y-107180952D01*
X120476190Y-107228571D01*
X120380952Y-107276190D01*
X120000000Y-107276190D01*
X181057142Y-61302380D02*
X180723809Y-60826190D01*
X180485714Y-61302380D02*
X180485714Y-60302380D01*
X180866666Y-60302380D01*
X180961904Y-60350000D01*
X181009523Y-60397619D01*
X181057142Y-60492857D01*
X181057142Y-60635714D01*
X181009523Y-60730952D01*
X180961904Y-60778571D01*
X180866666Y-60826190D01*
X180485714Y-60826190D01*
X182009523Y-61302380D02*
X181438095Y-61302380D01*
X181723809Y-61302380D02*
X181723809Y-60302380D01*
X181628571Y-60445238D01*
X181533333Y-60540476D01*
X181438095Y-60588095D01*
X182342857Y-60302380D02*
X183009523Y-60302380D01*
X182580952Y-61302380D01*
X175542852Y-61302380D02*
X175209519Y-60826190D01*
X174971424Y-61302380D02*
X174971424Y-60302380D01*
X175352376Y-60302380D01*
X175447614Y-60350000D01*
X175495233Y-60397619D01*
X175542852Y-60492857D01*
X175542852Y-60635714D01*
X175495233Y-60730952D01*
X175447614Y-60778571D01*
X175352376Y-60826190D01*
X174971424Y-60826190D01*
X176495233Y-61302380D02*
X175923805Y-61302380D01*
X176209519Y-61302380D02*
X176209519Y-60302380D01*
X176114281Y-60445238D01*
X176019043Y-60540476D01*
X175923805Y-60588095D01*
X177352376Y-60302380D02*
X177161900Y-60302380D01*
X177066662Y-60350000D01*
X177019043Y-60397619D01*
X176923805Y-60540476D01*
X176876186Y-60730952D01*
X176876186Y-61111904D01*
X176923805Y-61207142D01*
X176971424Y-61254761D01*
X177066662Y-61302380D01*
X177257138Y-61302380D01*
X177352376Y-61254761D01*
X177399995Y-61207142D01*
X177447614Y-61111904D01*
X177447614Y-60873809D01*
X177399995Y-60778571D01*
X177352376Y-60730952D01*
X177257138Y-60683333D01*
X177066662Y-60683333D01*
X176971424Y-60730952D01*
X176923805Y-60778571D01*
X176876186Y-60873809D01*
X170028567Y-61302380D02*
X169695234Y-60826190D01*
X169457139Y-61302380D02*
X169457139Y-60302380D01*
X169838091Y-60302380D01*
X169933329Y-60350000D01*
X169980948Y-60397619D01*
X170028567Y-60492857D01*
X170028567Y-60635714D01*
X169980948Y-60730952D01*
X169933329Y-60778571D01*
X169838091Y-60826190D01*
X169457139Y-60826190D01*
X170980948Y-61302380D02*
X170409520Y-61302380D01*
X170695234Y-61302380D02*
X170695234Y-60302380D01*
X170599996Y-60445238D01*
X170504758Y-60540476D01*
X170409520Y-60588095D01*
X171885710Y-60302380D02*
X171409520Y-60302380D01*
X171361901Y-60778571D01*
X171409520Y-60730952D01*
X171504758Y-60683333D01*
X171742853Y-60683333D01*
X171838091Y-60730952D01*
X171885710Y-60778571D01*
X171933329Y-60873809D01*
X171933329Y-61111904D01*
X171885710Y-61207142D01*
X171838091Y-61254761D01*
X171742853Y-61302380D01*
X171504758Y-61302380D01*
X171409520Y-61254761D01*
X171361901Y-61207142D01*
X164514282Y-61302380D02*
X164180949Y-60826190D01*
X163942854Y-61302380D02*
X163942854Y-60302380D01*
X164323806Y-60302380D01*
X164419044Y-60350000D01*
X164466663Y-60397619D01*
X164514282Y-60492857D01*
X164514282Y-60635714D01*
X164466663Y-60730952D01*
X164419044Y-60778571D01*
X164323806Y-60826190D01*
X163942854Y-60826190D01*
X165466663Y-61302380D02*
X164895235Y-61302380D01*
X165180949Y-61302380D02*
X165180949Y-60302380D01*
X165085711Y-60445238D01*
X164990473Y-60540476D01*
X164895235Y-60588095D01*
X166323806Y-60635714D02*
X166323806Y-61302380D01*
X166085711Y-60254761D02*
X165847616Y-60969047D01*
X166466663Y-60969047D01*
X158999997Y-61302380D02*
X158666664Y-60826190D01*
X158428569Y-61302380D02*
X158428569Y-60302380D01*
X158809521Y-60302380D01*
X158904759Y-60350000D01*
X158952378Y-60397619D01*
X158999997Y-60492857D01*
X158999997Y-60635714D01*
X158952378Y-60730952D01*
X158904759Y-60778571D01*
X158809521Y-60826190D01*
X158428569Y-60826190D01*
X159952378Y-61302380D02*
X159380950Y-61302380D01*
X159666664Y-61302380D02*
X159666664Y-60302380D01*
X159571426Y-60445238D01*
X159476188Y-60540476D01*
X159380950Y-60588095D01*
X160285712Y-60302380D02*
X160904759Y-60302380D01*
X160571426Y-60683333D01*
X160714283Y-60683333D01*
X160809521Y-60730952D01*
X160857140Y-60778571D01*
X160904759Y-60873809D01*
X160904759Y-61111904D01*
X160857140Y-61207142D01*
X160809521Y-61254761D01*
X160714283Y-61302380D01*
X160428569Y-61302380D01*
X160333331Y-61254761D01*
X160285712Y-61207142D01*
X153485712Y-61302380D02*
X153152379Y-60826190D01*
X152914284Y-61302380D02*
X152914284Y-60302380D01*
X153295236Y-60302380D01*
X153390474Y-60350000D01*
X153438093Y-60397619D01*
X153485712Y-60492857D01*
X153485712Y-60635714D01*
X153438093Y-60730952D01*
X153390474Y-60778571D01*
X153295236Y-60826190D01*
X152914284Y-60826190D01*
X154438093Y-61302380D02*
X153866665Y-61302380D01*
X154152379Y-61302380D02*
X154152379Y-60302380D01*
X154057141Y-60445238D01*
X153961903Y-60540476D01*
X153866665Y-60588095D01*
X154819046Y-60397619D02*
X154866665Y-60350000D01*
X154961903Y-60302380D01*
X155199998Y-60302380D01*
X155295236Y-60350000D01*
X155342855Y-60397619D01*
X155390474Y-60492857D01*
X155390474Y-60588095D01*
X155342855Y-60730952D01*
X154771427Y-61302380D01*
X155390474Y-61302380D01*
X147971427Y-61302380D02*
X147638094Y-60826190D01*
X147399999Y-61302380D02*
X147399999Y-60302380D01*
X147780951Y-60302380D01*
X147876189Y-60350000D01*
X147923808Y-60397619D01*
X147971427Y-60492857D01*
X147971427Y-60635714D01*
X147923808Y-60730952D01*
X147876189Y-60778571D01*
X147780951Y-60826190D01*
X147399999Y-60826190D01*
X148923808Y-61302380D02*
X148352380Y-61302380D01*
X148638094Y-61302380D02*
X148638094Y-60302380D01*
X148542856Y-60445238D01*
X148447618Y-60540476D01*
X148352380Y-60588095D01*
X149876189Y-61302380D02*
X149304761Y-61302380D01*
X149590475Y-61302380D02*
X149590475Y-60302380D01*
X149495237Y-60445238D01*
X149399999Y-60540476D01*
X149304761Y-60588095D01*
X142457142Y-61302380D02*
X142123809Y-60826190D01*
X141885714Y-61302380D02*
X141885714Y-60302380D01*
X142266666Y-60302380D01*
X142361904Y-60350000D01*
X142409523Y-60397619D01*
X142457142Y-60492857D01*
X142457142Y-60635714D01*
X142409523Y-60730952D01*
X142361904Y-60778571D01*
X142266666Y-60826190D01*
X141885714Y-60826190D01*
X143409523Y-61302380D02*
X142838095Y-61302380D01*
X143123809Y-61302380D02*
X143123809Y-60302380D01*
X143028571Y-60445238D01*
X142933333Y-60540476D01*
X142838095Y-60588095D01*
X144028571Y-60302380D02*
X144123809Y-60302380D01*
X144219047Y-60350000D01*
X144266666Y-60397619D01*
X144314285Y-60492857D01*
X144361904Y-60683333D01*
X144361904Y-60921428D01*
X144314285Y-61111904D01*
X144266666Y-61207142D01*
X144219047Y-61254761D01*
X144123809Y-61302380D01*
X144028571Y-61302380D01*
X143933333Y-61254761D01*
X143885714Y-61207142D01*
X143838095Y-61111904D01*
X143790476Y-60921428D01*
X143790476Y-60683333D01*
X143838095Y-60492857D01*
X143885714Y-60397619D01*
X143933333Y-60350000D01*
X144028571Y-60302380D01*
X135733333Y-61352380D02*
X135400000Y-60876190D01*
X135161904Y-61352380D02*
X135161904Y-60352380D01*
X135542857Y-60352380D01*
X135638095Y-60400000D01*
X135685714Y-60447619D01*
X135733333Y-60542857D01*
X135733333Y-60685714D01*
X135685714Y-60780952D01*
X135638095Y-60828571D01*
X135542857Y-60876190D01*
X135161904Y-60876190D01*
X136209523Y-61352380D02*
X136400000Y-61352380D01*
X136495238Y-61304761D01*
X136542857Y-61257142D01*
X136638095Y-61114285D01*
X136685714Y-60923809D01*
X136685714Y-60542857D01*
X136638095Y-60447619D01*
X136590476Y-60400000D01*
X136495238Y-60352380D01*
X136304761Y-60352380D01*
X136209523Y-60400000D01*
X136161904Y-60447619D01*
X136114285Y-60542857D01*
X136114285Y-60780952D01*
X136161904Y-60876190D01*
X136209523Y-60923809D01*
X136304761Y-60971428D01*
X136495238Y-60971428D01*
X136590476Y-60923809D01*
X136638095Y-60876190D01*
X136685714Y-60780952D01*
X142933333Y-117002380D02*
X142600000Y-116526190D01*
X142361904Y-117002380D02*
X142361904Y-116002380D01*
X142742857Y-116002380D01*
X142838095Y-116050000D01*
X142885714Y-116097619D01*
X142933333Y-116192857D01*
X142933333Y-116335714D01*
X142885714Y-116430952D01*
X142838095Y-116478571D01*
X142742857Y-116526190D01*
X142361904Y-116526190D01*
X143504761Y-116430952D02*
X143409523Y-116383333D01*
X143361904Y-116335714D01*
X143314285Y-116240476D01*
X143314285Y-116192857D01*
X143361904Y-116097619D01*
X143409523Y-116050000D01*
X143504761Y-116002380D01*
X143695238Y-116002380D01*
X143790476Y-116050000D01*
X143838095Y-116097619D01*
X143885714Y-116192857D01*
X143885714Y-116240476D01*
X143838095Y-116335714D01*
X143790476Y-116383333D01*
X143695238Y-116430952D01*
X143504761Y-116430952D01*
X143409523Y-116478571D01*
X143361904Y-116526190D01*
X143314285Y-116621428D01*
X143314285Y-116811904D01*
X143361904Y-116907142D01*
X143409523Y-116954761D01*
X143504761Y-117002380D01*
X143695238Y-117002380D01*
X143790476Y-116954761D01*
X143838095Y-116907142D01*
X143885714Y-116811904D01*
X143885714Y-116621428D01*
X143838095Y-116526190D01*
X143790476Y-116478571D01*
X143695238Y-116430952D01*
X148447618Y-117002380D02*
X148114285Y-116526190D01*
X147876189Y-117002380D02*
X147876189Y-116002380D01*
X148257142Y-116002380D01*
X148352380Y-116050000D01*
X148399999Y-116097619D01*
X148447618Y-116192857D01*
X148447618Y-116335714D01*
X148399999Y-116430952D01*
X148352380Y-116478571D01*
X148257142Y-116526190D01*
X147876189Y-116526190D01*
X148780951Y-116002380D02*
X149447618Y-116002380D01*
X149019046Y-117002380D01*
X153961903Y-117002380D02*
X153628570Y-116526190D01*
X153390474Y-117002380D02*
X153390474Y-116002380D01*
X153771427Y-116002380D01*
X153866665Y-116050000D01*
X153914284Y-116097619D01*
X153961903Y-116192857D01*
X153961903Y-116335714D01*
X153914284Y-116430952D01*
X153866665Y-116478571D01*
X153771427Y-116526190D01*
X153390474Y-116526190D01*
X154819046Y-116002380D02*
X154628570Y-116002380D01*
X154533331Y-116050000D01*
X154485712Y-116097619D01*
X154390474Y-116240476D01*
X154342855Y-116430952D01*
X154342855Y-116811904D01*
X154390474Y-116907142D01*
X154438093Y-116954761D01*
X154533331Y-117002380D01*
X154723808Y-117002380D01*
X154819046Y-116954761D01*
X154866665Y-116907142D01*
X154914284Y-116811904D01*
X154914284Y-116573809D01*
X154866665Y-116478571D01*
X154819046Y-116430952D01*
X154723808Y-116383333D01*
X154533331Y-116383333D01*
X154438093Y-116430952D01*
X154390474Y-116478571D01*
X154342855Y-116573809D01*
X159476188Y-117002380D02*
X159142855Y-116526190D01*
X158904759Y-117002380D02*
X158904759Y-116002380D01*
X159285712Y-116002380D01*
X159380950Y-116050000D01*
X159428569Y-116097619D01*
X159476188Y-116192857D01*
X159476188Y-116335714D01*
X159428569Y-116430952D01*
X159380950Y-116478571D01*
X159285712Y-116526190D01*
X158904759Y-116526190D01*
X160380950Y-116002380D02*
X159904759Y-116002380D01*
X159857140Y-116478571D01*
X159904759Y-116430952D01*
X159999997Y-116383333D01*
X160238093Y-116383333D01*
X160333331Y-116430952D01*
X160380950Y-116478571D01*
X160428569Y-116573809D01*
X160428569Y-116811904D01*
X160380950Y-116907142D01*
X160333331Y-116954761D01*
X160238093Y-117002380D01*
X159999997Y-117002380D01*
X159904759Y-116954761D01*
X159857140Y-116907142D01*
X164990473Y-117002380D02*
X164657140Y-116526190D01*
X164419044Y-117002380D02*
X164419044Y-116002380D01*
X164799997Y-116002380D01*
X164895235Y-116050000D01*
X164942854Y-116097619D01*
X164990473Y-116192857D01*
X164990473Y-116335714D01*
X164942854Y-116430952D01*
X164895235Y-116478571D01*
X164799997Y-116526190D01*
X164419044Y-116526190D01*
X165847616Y-116335714D02*
X165847616Y-117002380D01*
X165609520Y-115954761D02*
X165371425Y-116669047D01*
X165990473Y-116669047D01*
X170504758Y-117002380D02*
X170171425Y-116526190D01*
X169933329Y-117002380D02*
X169933329Y-116002380D01*
X170314282Y-116002380D01*
X170409520Y-116050000D01*
X170457139Y-116097619D01*
X170504758Y-116192857D01*
X170504758Y-116335714D01*
X170457139Y-116430952D01*
X170409520Y-116478571D01*
X170314282Y-116526190D01*
X169933329Y-116526190D01*
X170838091Y-116002380D02*
X171457139Y-116002380D01*
X171123805Y-116383333D01*
X171266663Y-116383333D01*
X171361901Y-116430952D01*
X171409520Y-116478571D01*
X171457139Y-116573809D01*
X171457139Y-116811904D01*
X171409520Y-116907142D01*
X171361901Y-116954761D01*
X171266663Y-117002380D01*
X170980948Y-117002380D01*
X170885710Y-116954761D01*
X170838091Y-116907142D01*
X176019043Y-117002380D02*
X175685710Y-116526190D01*
X175447614Y-117002380D02*
X175447614Y-116002380D01*
X175828567Y-116002380D01*
X175923805Y-116050000D01*
X175971424Y-116097619D01*
X176019043Y-116192857D01*
X176019043Y-116335714D01*
X175971424Y-116430952D01*
X175923805Y-116478571D01*
X175828567Y-116526190D01*
X175447614Y-116526190D01*
X176399995Y-116097619D02*
X176447614Y-116050000D01*
X176542852Y-116002380D01*
X176780948Y-116002380D01*
X176876186Y-116050000D01*
X176923805Y-116097619D01*
X176971424Y-116192857D01*
X176971424Y-116288095D01*
X176923805Y-116430952D01*
X176352376Y-117002380D01*
X176971424Y-117002380D01*
X181533333Y-117002380D02*
X181200000Y-116526190D01*
X180961904Y-117002380D02*
X180961904Y-116002380D01*
X181342857Y-116002380D01*
X181438095Y-116050000D01*
X181485714Y-116097619D01*
X181533333Y-116192857D01*
X181533333Y-116335714D01*
X181485714Y-116430952D01*
X181438095Y-116478571D01*
X181342857Y-116526190D01*
X180961904Y-116526190D01*
X182485714Y-117002380D02*
X181914285Y-117002380D01*
X182200000Y-117002380D02*
X182200000Y-116002380D01*
X182104761Y-116145238D01*
X182009523Y-116240476D01*
X181914285Y-116288095D01*
X180485714Y-65902380D02*
X180485714Y-64902380D01*
X180723809Y-64902380D01*
X180866666Y-64950000D01*
X180961904Y-65045238D01*
X181009523Y-65140476D01*
X181057142Y-65330952D01*
X181057142Y-65473809D01*
X181009523Y-65664285D01*
X180961904Y-65759523D01*
X180866666Y-65854761D01*
X180723809Y-65902380D01*
X180485714Y-65902380D01*
X182009523Y-65902380D02*
X181438095Y-65902380D01*
X181723809Y-65902380D02*
X181723809Y-64902380D01*
X181628571Y-65045238D01*
X181533333Y-65140476D01*
X181438095Y-65188095D01*
X182342857Y-64902380D02*
X183009523Y-64902380D01*
X182580952Y-65902380D01*
D13*
X180557142Y-68478571D02*
X181414285Y-68478571D01*
X180985714Y-69978571D02*
X180985714Y-68478571D01*
X181771428Y-68478571D02*
X182771428Y-68478571D01*
X182128571Y-69978571D01*
D10*
X174971424Y-65902380D02*
X174971424Y-64902380D01*
X175209519Y-64902380D01*
X175352376Y-64950000D01*
X175447614Y-65045238D01*
X175495233Y-65140476D01*
X175542852Y-65330952D01*
X175542852Y-65473809D01*
X175495233Y-65664285D01*
X175447614Y-65759523D01*
X175352376Y-65854761D01*
X175209519Y-65902380D01*
X174971424Y-65902380D01*
X176495233Y-65902380D02*
X175923805Y-65902380D01*
X176209519Y-65902380D02*
X176209519Y-64902380D01*
X176114281Y-65045238D01*
X176019043Y-65140476D01*
X175923805Y-65188095D01*
X177352376Y-64902380D02*
X177161900Y-64902380D01*
X177066662Y-64950000D01*
X177019043Y-64997619D01*
X176923805Y-65140476D01*
X176876186Y-65330952D01*
X176876186Y-65711904D01*
X176923805Y-65807142D01*
X176971424Y-65854761D01*
X177066662Y-65902380D01*
X177257138Y-65902380D01*
X177352376Y-65854761D01*
X177399995Y-65807142D01*
X177447614Y-65711904D01*
X177447614Y-65473809D01*
X177399995Y-65378571D01*
X177352376Y-65330952D01*
X177257138Y-65283333D01*
X177066662Y-65283333D01*
X176971424Y-65330952D01*
X176923805Y-65378571D01*
X176876186Y-65473809D01*
D13*
X175042852Y-68478571D02*
X175899995Y-68478571D01*
X175471424Y-69978571D02*
X175471424Y-68478571D01*
X177042852Y-68478571D02*
X176757138Y-68478571D01*
X176614281Y-68550000D01*
X176542852Y-68621428D01*
X176399995Y-68835714D01*
X176328567Y-69121428D01*
X176328567Y-69692857D01*
X176399995Y-69835714D01*
X176471424Y-69907142D01*
X176614281Y-69978571D01*
X176899995Y-69978571D01*
X177042852Y-69907142D01*
X177114281Y-69835714D01*
X177185710Y-69692857D01*
X177185710Y-69335714D01*
X177114281Y-69192857D01*
X177042852Y-69121428D01*
X176899995Y-69050000D01*
X176614281Y-69050000D01*
X176471424Y-69121428D01*
X176399995Y-69192857D01*
X176328567Y-69335714D01*
D10*
X169457139Y-65902380D02*
X169457139Y-64902380D01*
X169695234Y-64902380D01*
X169838091Y-64950000D01*
X169933329Y-65045238D01*
X169980948Y-65140476D01*
X170028567Y-65330952D01*
X170028567Y-65473809D01*
X169980948Y-65664285D01*
X169933329Y-65759523D01*
X169838091Y-65854761D01*
X169695234Y-65902380D01*
X169457139Y-65902380D01*
X170980948Y-65902380D02*
X170409520Y-65902380D01*
X170695234Y-65902380D02*
X170695234Y-64902380D01*
X170599996Y-65045238D01*
X170504758Y-65140476D01*
X170409520Y-65188095D01*
X171885710Y-64902380D02*
X171409520Y-64902380D01*
X171361901Y-65378571D01*
X171409520Y-65330952D01*
X171504758Y-65283333D01*
X171742853Y-65283333D01*
X171838091Y-65330952D01*
X171885710Y-65378571D01*
X171933329Y-65473809D01*
X171933329Y-65711904D01*
X171885710Y-65807142D01*
X171838091Y-65854761D01*
X171742853Y-65902380D01*
X171504758Y-65902380D01*
X171409520Y-65854761D01*
X171361901Y-65807142D01*
D13*
X169528567Y-68478571D02*
X170385710Y-68478571D01*
X169957139Y-69978571D02*
X169957139Y-68478571D01*
X171599996Y-68478571D02*
X170885710Y-68478571D01*
X170814282Y-69192857D01*
X170885710Y-69121428D01*
X171028567Y-69050000D01*
X171385710Y-69050000D01*
X171528567Y-69121428D01*
X171599996Y-69192857D01*
X171671425Y-69335714D01*
X171671425Y-69692857D01*
X171599996Y-69835714D01*
X171528567Y-69907142D01*
X171385710Y-69978571D01*
X171028567Y-69978571D01*
X170885710Y-69907142D01*
X170814282Y-69835714D01*
D10*
X163942854Y-65902380D02*
X163942854Y-64902380D01*
X164180949Y-64902380D01*
X164323806Y-64950000D01*
X164419044Y-65045238D01*
X164466663Y-65140476D01*
X164514282Y-65330952D01*
X164514282Y-65473809D01*
X164466663Y-65664285D01*
X164419044Y-65759523D01*
X164323806Y-65854761D01*
X164180949Y-65902380D01*
X163942854Y-65902380D01*
X165466663Y-65902380D02*
X164895235Y-65902380D01*
X165180949Y-65902380D02*
X165180949Y-64902380D01*
X165085711Y-65045238D01*
X164990473Y-65140476D01*
X164895235Y-65188095D01*
X166323806Y-65235714D02*
X166323806Y-65902380D01*
X166085711Y-64854761D02*
X165847616Y-65569047D01*
X166466663Y-65569047D01*
D13*
X164014282Y-68478571D02*
X164871425Y-68478571D01*
X164442854Y-69978571D02*
X164442854Y-68478571D01*
X166014282Y-68978571D02*
X166014282Y-69978571D01*
X165657140Y-68407142D02*
X165299997Y-69478571D01*
X166228568Y-69478571D01*
D10*
X158428569Y-65902380D02*
X158428569Y-64902380D01*
X158666664Y-64902380D01*
X158809521Y-64950000D01*
X158904759Y-65045238D01*
X158952378Y-65140476D01*
X158999997Y-65330952D01*
X158999997Y-65473809D01*
X158952378Y-65664285D01*
X158904759Y-65759523D01*
X158809521Y-65854761D01*
X158666664Y-65902380D01*
X158428569Y-65902380D01*
X159952378Y-65902380D02*
X159380950Y-65902380D01*
X159666664Y-65902380D02*
X159666664Y-64902380D01*
X159571426Y-65045238D01*
X159476188Y-65140476D01*
X159380950Y-65188095D01*
X160285712Y-64902380D02*
X160904759Y-64902380D01*
X160571426Y-65283333D01*
X160714283Y-65283333D01*
X160809521Y-65330952D01*
X160857140Y-65378571D01*
X160904759Y-65473809D01*
X160904759Y-65711904D01*
X160857140Y-65807142D01*
X160809521Y-65854761D01*
X160714283Y-65902380D01*
X160428569Y-65902380D01*
X160333331Y-65854761D01*
X160285712Y-65807142D01*
D13*
X158499997Y-68478571D02*
X159357140Y-68478571D01*
X158928569Y-69978571D02*
X158928569Y-68478571D01*
X159714283Y-68478571D02*
X160642855Y-68478571D01*
X160142855Y-69050000D01*
X160357140Y-69050000D01*
X160499997Y-69121428D01*
X160571426Y-69192857D01*
X160642855Y-69335714D01*
X160642855Y-69692857D01*
X160571426Y-69835714D01*
X160499997Y-69907142D01*
X160357140Y-69978571D01*
X159928569Y-69978571D01*
X159785712Y-69907142D01*
X159714283Y-69835714D01*
D10*
X152914284Y-65902380D02*
X152914284Y-64902380D01*
X153152379Y-64902380D01*
X153295236Y-64950000D01*
X153390474Y-65045238D01*
X153438093Y-65140476D01*
X153485712Y-65330952D01*
X153485712Y-65473809D01*
X153438093Y-65664285D01*
X153390474Y-65759523D01*
X153295236Y-65854761D01*
X153152379Y-65902380D01*
X152914284Y-65902380D01*
X154438093Y-65902380D02*
X153866665Y-65902380D01*
X154152379Y-65902380D02*
X154152379Y-64902380D01*
X154057141Y-65045238D01*
X153961903Y-65140476D01*
X153866665Y-65188095D01*
X154819046Y-64997619D02*
X154866665Y-64950000D01*
X154961903Y-64902380D01*
X155199998Y-64902380D01*
X155295236Y-64950000D01*
X155342855Y-64997619D01*
X155390474Y-65092857D01*
X155390474Y-65188095D01*
X155342855Y-65330952D01*
X154771427Y-65902380D01*
X155390474Y-65902380D01*
D13*
X152985712Y-68478571D02*
X153842855Y-68478571D01*
X153414284Y-69978571D02*
X153414284Y-68478571D01*
X154271427Y-68621428D02*
X154342855Y-68550000D01*
X154485712Y-68478571D01*
X154842855Y-68478571D01*
X154985712Y-68550000D01*
X155057141Y-68621428D01*
X155128570Y-68764285D01*
X155128570Y-68907142D01*
X155057141Y-69121428D01*
X154199998Y-69978571D01*
X155128570Y-69978571D01*
D10*
X147399999Y-65902380D02*
X147399999Y-64902380D01*
X147638094Y-64902380D01*
X147780951Y-64950000D01*
X147876189Y-65045238D01*
X147923808Y-65140476D01*
X147971427Y-65330952D01*
X147971427Y-65473809D01*
X147923808Y-65664285D01*
X147876189Y-65759523D01*
X147780951Y-65854761D01*
X147638094Y-65902380D01*
X147399999Y-65902380D01*
X148923808Y-65902380D02*
X148352380Y-65902380D01*
X148638094Y-65902380D02*
X148638094Y-64902380D01*
X148542856Y-65045238D01*
X148447618Y-65140476D01*
X148352380Y-65188095D01*
X149876189Y-65902380D02*
X149304761Y-65902380D01*
X149590475Y-65902380D02*
X149590475Y-64902380D01*
X149495237Y-65045238D01*
X149399999Y-65140476D01*
X149304761Y-65188095D01*
D13*
X147457142Y-68478571D02*
X148314285Y-68478571D01*
X147885714Y-69978571D02*
X147885714Y-68478571D01*
X149600000Y-69978571D02*
X148742857Y-69978571D01*
X149171428Y-69978571D02*
X149171428Y-68478571D01*
X149028571Y-68692857D01*
X148885714Y-68835714D01*
X148742857Y-68907142D01*
D10*
X141885714Y-65902380D02*
X141885714Y-64902380D01*
X142123809Y-64902380D01*
X142266666Y-64950000D01*
X142361904Y-65045238D01*
X142409523Y-65140476D01*
X142457142Y-65330952D01*
X142457142Y-65473809D01*
X142409523Y-65664285D01*
X142361904Y-65759523D01*
X142266666Y-65854761D01*
X142123809Y-65902380D01*
X141885714Y-65902380D01*
X143409523Y-65902380D02*
X142838095Y-65902380D01*
X143123809Y-65902380D02*
X143123809Y-64902380D01*
X143028571Y-65045238D01*
X142933333Y-65140476D01*
X142838095Y-65188095D01*
X144028571Y-64902380D02*
X144123809Y-64902380D01*
X144219047Y-64950000D01*
X144266666Y-64997619D01*
X144314285Y-65092857D01*
X144361904Y-65283333D01*
X144361904Y-65521428D01*
X144314285Y-65711904D01*
X144266666Y-65807142D01*
X144219047Y-65854761D01*
X144123809Y-65902380D01*
X144028571Y-65902380D01*
X143933333Y-65854761D01*
X143885714Y-65807142D01*
X143838095Y-65711904D01*
X143790476Y-65521428D01*
X143790476Y-65283333D01*
X143838095Y-65092857D01*
X143885714Y-64997619D01*
X143933333Y-64950000D01*
X144028571Y-64902380D01*
D13*
X141957142Y-68478571D02*
X142814285Y-68478571D01*
X142385714Y-69978571D02*
X142385714Y-68478571D01*
X143600000Y-68478571D02*
X143742857Y-68478571D01*
X143885714Y-68550000D01*
X143957142Y-68621428D01*
X144028571Y-68764285D01*
X144100000Y-69050000D01*
X144100000Y-69407142D01*
X144028571Y-69692857D01*
X143957142Y-69835714D01*
X143885714Y-69907142D01*
X143742857Y-69978571D01*
X143600000Y-69978571D01*
X143457142Y-69907142D01*
X143385714Y-69835714D01*
X143314285Y-69692857D01*
X143242857Y-69407142D01*
X143242857Y-69050000D01*
X143314285Y-68764285D01*
X143385714Y-68621428D01*
X143457142Y-68550000D01*
X143600000Y-68478571D01*
D10*
X135161904Y-65902380D02*
X135161904Y-64902380D01*
X135400000Y-64902380D01*
X135542857Y-64950000D01*
X135638095Y-65045238D01*
X135685714Y-65140476D01*
X135733333Y-65330952D01*
X135733333Y-65473809D01*
X135685714Y-65664285D01*
X135638095Y-65759523D01*
X135542857Y-65854761D01*
X135400000Y-65902380D01*
X135161904Y-65902380D01*
X136209523Y-65902380D02*
X136400000Y-65902380D01*
X136495238Y-65854761D01*
X136542857Y-65807142D01*
X136638095Y-65664285D01*
X136685714Y-65473809D01*
X136685714Y-65092857D01*
X136638095Y-64997619D01*
X136590476Y-64950000D01*
X136495238Y-64902380D01*
X136304761Y-64902380D01*
X136209523Y-64950000D01*
X136161904Y-64997619D01*
X136114285Y-65092857D01*
X136114285Y-65330952D01*
X136161904Y-65426190D01*
X136209523Y-65473809D01*
X136304761Y-65521428D01*
X136495238Y-65521428D01*
X136590476Y-65473809D01*
X136638095Y-65426190D01*
X136685714Y-65330952D01*
D13*
X132578571Y-68478571D02*
X133435714Y-68478571D01*
X133007142Y-69978571D02*
X133007142Y-68478571D01*
X133935714Y-69407142D02*
X135078571Y-69407142D01*
X135792857Y-69192857D02*
X136292857Y-69192857D01*
X136507142Y-69978571D02*
X135792857Y-69978571D01*
X135792857Y-68478571D01*
X136507142Y-68478571D01*
X137007142Y-68478571D02*
X138007142Y-69978571D01*
X138007142Y-68478571D02*
X137007142Y-69978571D01*
X138364285Y-68478571D02*
X139221428Y-68478571D01*
X138792857Y-69978571D02*
X138792857Y-68478571D01*
D10*
X142361904Y-121602380D02*
X142361904Y-120602380D01*
X142600000Y-120602380D01*
X142742857Y-120650000D01*
X142838095Y-120745238D01*
X142885714Y-120840476D01*
X142933333Y-121030952D01*
X142933333Y-121173809D01*
X142885714Y-121364285D01*
X142838095Y-121459523D01*
X142742857Y-121554761D01*
X142600000Y-121602380D01*
X142361904Y-121602380D01*
X143504761Y-121030952D02*
X143409523Y-120983333D01*
X143361904Y-120935714D01*
X143314285Y-120840476D01*
X143314285Y-120792857D01*
X143361904Y-120697619D01*
X143409523Y-120650000D01*
X143504761Y-120602380D01*
X143695238Y-120602380D01*
X143790476Y-120650000D01*
X143838095Y-120697619D01*
X143885714Y-120792857D01*
X143885714Y-120840476D01*
X143838095Y-120935714D01*
X143790476Y-120983333D01*
X143695238Y-121030952D01*
X143504761Y-121030952D01*
X143409523Y-121078571D01*
X143361904Y-121126190D01*
X143314285Y-121221428D01*
X143314285Y-121411904D01*
X143361904Y-121507142D01*
X143409523Y-121554761D01*
X143504761Y-121602380D01*
X143695238Y-121602380D01*
X143790476Y-121554761D01*
X143838095Y-121507142D01*
X143885714Y-121411904D01*
X143885714Y-121221428D01*
X143838095Y-121126190D01*
X143790476Y-121078571D01*
X143695238Y-121030952D01*
D13*
X141635714Y-125878571D02*
X141635714Y-124378571D01*
X143207142Y-125878571D02*
X142707142Y-125164285D01*
X142350000Y-125878571D02*
X142350000Y-124378571D01*
X142921428Y-124378571D01*
X143064285Y-124450000D01*
X143135714Y-124521428D01*
X143207142Y-124664285D01*
X143207142Y-124878571D01*
X143135714Y-125021428D01*
X143064285Y-125092857D01*
X142921428Y-125164285D01*
X142350000Y-125164285D01*
X143707142Y-124378571D02*
X144707142Y-124378571D01*
X144064285Y-125878571D01*
D10*
X147876189Y-121602380D02*
X147876189Y-120602380D01*
X148114285Y-120602380D01*
X148257142Y-120650000D01*
X148352380Y-120745238D01*
X148399999Y-120840476D01*
X148447618Y-121030952D01*
X148447618Y-121173809D01*
X148399999Y-121364285D01*
X148352380Y-121459523D01*
X148257142Y-121554761D01*
X148114285Y-121602380D01*
X147876189Y-121602380D01*
X148780951Y-120602380D02*
X149447618Y-120602380D01*
X149019046Y-121602380D01*
D13*
X147135714Y-125878571D02*
X147135714Y-124378571D01*
X148707142Y-125878571D02*
X148207142Y-125164285D01*
X147850000Y-125878571D02*
X147850000Y-124378571D01*
X148421428Y-124378571D01*
X148564285Y-124450000D01*
X148635714Y-124521428D01*
X148707142Y-124664285D01*
X148707142Y-124878571D01*
X148635714Y-125021428D01*
X148564285Y-125092857D01*
X148421428Y-125164285D01*
X147850000Y-125164285D01*
X149992857Y-124378571D02*
X149707142Y-124378571D01*
X149564285Y-124450000D01*
X149492857Y-124521428D01*
X149350000Y-124735714D01*
X149278571Y-125021428D01*
X149278571Y-125592857D01*
X149350000Y-125735714D01*
X149421428Y-125807142D01*
X149564285Y-125878571D01*
X149850000Y-125878571D01*
X149992857Y-125807142D01*
X150064285Y-125735714D01*
X150135714Y-125592857D01*
X150135714Y-125235714D01*
X150064285Y-125092857D01*
X149992857Y-125021428D01*
X149850000Y-124950000D01*
X149564285Y-124950000D01*
X149421428Y-125021428D01*
X149350000Y-125092857D01*
X149278571Y-125235714D01*
D10*
X153390474Y-121602380D02*
X153390474Y-120602380D01*
X153628570Y-120602380D01*
X153771427Y-120650000D01*
X153866665Y-120745238D01*
X153914284Y-120840476D01*
X153961903Y-121030952D01*
X153961903Y-121173809D01*
X153914284Y-121364285D01*
X153866665Y-121459523D01*
X153771427Y-121554761D01*
X153628570Y-121602380D01*
X153390474Y-121602380D01*
X154819046Y-120602380D02*
X154628570Y-120602380D01*
X154533331Y-120650000D01*
X154485712Y-120697619D01*
X154390474Y-120840476D01*
X154342855Y-121030952D01*
X154342855Y-121411904D01*
X154390474Y-121507142D01*
X154438093Y-121554761D01*
X154533331Y-121602380D01*
X154723808Y-121602380D01*
X154819046Y-121554761D01*
X154866665Y-121507142D01*
X154914284Y-121411904D01*
X154914284Y-121173809D01*
X154866665Y-121078571D01*
X154819046Y-121030952D01*
X154723808Y-120983333D01*
X154533331Y-120983333D01*
X154438093Y-121030952D01*
X154390474Y-121078571D01*
X154342855Y-121173809D01*
D13*
X152635714Y-125878571D02*
X152635714Y-124378571D01*
X154207142Y-125878571D02*
X153707142Y-125164285D01*
X153350000Y-125878571D02*
X153350000Y-124378571D01*
X153921428Y-124378571D01*
X154064285Y-124450000D01*
X154135714Y-124521428D01*
X154207142Y-124664285D01*
X154207142Y-124878571D01*
X154135714Y-125021428D01*
X154064285Y-125092857D01*
X153921428Y-125164285D01*
X153350000Y-125164285D01*
X155564285Y-124378571D02*
X154850000Y-124378571D01*
X154778571Y-125092857D01*
X154850000Y-125021428D01*
X154992857Y-124950000D01*
X155350000Y-124950000D01*
X155492857Y-125021428D01*
X155564285Y-125092857D01*
X155635714Y-125235714D01*
X155635714Y-125592857D01*
X155564285Y-125735714D01*
X155492857Y-125807142D01*
X155350000Y-125878571D01*
X154992857Y-125878571D01*
X154850000Y-125807142D01*
X154778571Y-125735714D01*
D10*
X158904759Y-121602380D02*
X158904759Y-120602380D01*
X159142855Y-120602380D01*
X159285712Y-120650000D01*
X159380950Y-120745238D01*
X159428569Y-120840476D01*
X159476188Y-121030952D01*
X159476188Y-121173809D01*
X159428569Y-121364285D01*
X159380950Y-121459523D01*
X159285712Y-121554761D01*
X159142855Y-121602380D01*
X158904759Y-121602380D01*
X160380950Y-120602380D02*
X159904759Y-120602380D01*
X159857140Y-121078571D01*
X159904759Y-121030952D01*
X159999997Y-120983333D01*
X160238093Y-120983333D01*
X160333331Y-121030952D01*
X160380950Y-121078571D01*
X160428569Y-121173809D01*
X160428569Y-121411904D01*
X160380950Y-121507142D01*
X160333331Y-121554761D01*
X160238093Y-121602380D01*
X159999997Y-121602380D01*
X159904759Y-121554761D01*
X159857140Y-121507142D01*
D13*
X158178569Y-125878571D02*
X158178569Y-124378571D01*
X159749997Y-125878571D02*
X159249997Y-125164285D01*
X158892855Y-125878571D02*
X158892855Y-124378571D01*
X159464283Y-124378571D01*
X159607140Y-124450000D01*
X159678569Y-124521428D01*
X159749997Y-124664285D01*
X159749997Y-124878571D01*
X159678569Y-125021428D01*
X159607140Y-125092857D01*
X159464283Y-125164285D01*
X158892855Y-125164285D01*
X161035712Y-124878571D02*
X161035712Y-125878571D01*
X160678569Y-124307142D02*
X160321426Y-125378571D01*
X161249997Y-125378571D01*
D10*
X164419044Y-121602380D02*
X164419044Y-120602380D01*
X164657140Y-120602380D01*
X164799997Y-120650000D01*
X164895235Y-120745238D01*
X164942854Y-120840476D01*
X164990473Y-121030952D01*
X164990473Y-121173809D01*
X164942854Y-121364285D01*
X164895235Y-121459523D01*
X164799997Y-121554761D01*
X164657140Y-121602380D01*
X164419044Y-121602380D01*
X165847616Y-120935714D02*
X165847616Y-121602380D01*
X165609520Y-120554761D02*
X165371425Y-121269047D01*
X165990473Y-121269047D01*
D13*
X163692854Y-125878571D02*
X163692854Y-124378571D01*
X165264282Y-125878571D02*
X164764282Y-125164285D01*
X164407140Y-125878571D02*
X164407140Y-124378571D01*
X164978568Y-124378571D01*
X165121425Y-124450000D01*
X165192854Y-124521428D01*
X165264282Y-124664285D01*
X165264282Y-124878571D01*
X165192854Y-125021428D01*
X165121425Y-125092857D01*
X164978568Y-125164285D01*
X164407140Y-125164285D01*
X165764282Y-124378571D02*
X166692854Y-124378571D01*
X166192854Y-124950000D01*
X166407140Y-124950000D01*
X166549997Y-125021428D01*
X166621425Y-125092857D01*
X166692854Y-125235714D01*
X166692854Y-125592857D01*
X166621425Y-125735714D01*
X166549997Y-125807142D01*
X166407140Y-125878571D01*
X165978568Y-125878571D01*
X165835711Y-125807142D01*
X165764282Y-125735714D01*
D10*
X169933329Y-121602380D02*
X169933329Y-120602380D01*
X170171425Y-120602380D01*
X170314282Y-120650000D01*
X170409520Y-120745238D01*
X170457139Y-120840476D01*
X170504758Y-121030952D01*
X170504758Y-121173809D01*
X170457139Y-121364285D01*
X170409520Y-121459523D01*
X170314282Y-121554761D01*
X170171425Y-121602380D01*
X169933329Y-121602380D01*
X170838091Y-120602380D02*
X171457139Y-120602380D01*
X171123805Y-120983333D01*
X171266663Y-120983333D01*
X171361901Y-121030952D01*
X171409520Y-121078571D01*
X171457139Y-121173809D01*
X171457139Y-121411904D01*
X171409520Y-121507142D01*
X171361901Y-121554761D01*
X171266663Y-121602380D01*
X170980948Y-121602380D01*
X170885710Y-121554761D01*
X170838091Y-121507142D01*
D13*
X169207139Y-125878571D02*
X169207139Y-124378571D01*
X170778567Y-125878571D02*
X170278567Y-125164285D01*
X169921425Y-125878571D02*
X169921425Y-124378571D01*
X170492853Y-124378571D01*
X170635710Y-124450000D01*
X170707139Y-124521428D01*
X170778567Y-124664285D01*
X170778567Y-124878571D01*
X170707139Y-125021428D01*
X170635710Y-125092857D01*
X170492853Y-125164285D01*
X169921425Y-125164285D01*
X171349996Y-124521428D02*
X171421425Y-124450000D01*
X171564282Y-124378571D01*
X171921425Y-124378571D01*
X172064282Y-124450000D01*
X172135710Y-124521428D01*
X172207139Y-124664285D01*
X172207139Y-124807142D01*
X172135710Y-125021428D01*
X171278567Y-125878571D01*
X172207139Y-125878571D01*
D10*
X175447614Y-121602380D02*
X175447614Y-120602380D01*
X175685710Y-120602380D01*
X175828567Y-120650000D01*
X175923805Y-120745238D01*
X175971424Y-120840476D01*
X176019043Y-121030952D01*
X176019043Y-121173809D01*
X175971424Y-121364285D01*
X175923805Y-121459523D01*
X175828567Y-121554761D01*
X175685710Y-121602380D01*
X175447614Y-121602380D01*
X176399995Y-120697619D02*
X176447614Y-120650000D01*
X176542852Y-120602380D01*
X176780948Y-120602380D01*
X176876186Y-120650000D01*
X176923805Y-120697619D01*
X176971424Y-120792857D01*
X176971424Y-120888095D01*
X176923805Y-121030952D01*
X176352376Y-121602380D01*
X176971424Y-121602380D01*
D13*
X174721424Y-125878571D02*
X174721424Y-124378571D01*
X176292852Y-125878571D02*
X175792852Y-125164285D01*
X175435710Y-125878571D02*
X175435710Y-124378571D01*
X176007138Y-124378571D01*
X176149995Y-124450000D01*
X176221424Y-124521428D01*
X176292852Y-124664285D01*
X176292852Y-124878571D01*
X176221424Y-125021428D01*
X176149995Y-125092857D01*
X176007138Y-125164285D01*
X175435710Y-125164285D01*
X177721424Y-125878571D02*
X176864281Y-125878571D01*
X177292852Y-125878571D02*
X177292852Y-124378571D01*
X177149995Y-124592857D01*
X177007138Y-124735714D01*
X176864281Y-124807142D01*
D10*
X180961904Y-121602380D02*
X180961904Y-120602380D01*
X181200000Y-120602380D01*
X181342857Y-120650000D01*
X181438095Y-120745238D01*
X181485714Y-120840476D01*
X181533333Y-121030952D01*
X181533333Y-121173809D01*
X181485714Y-121364285D01*
X181438095Y-121459523D01*
X181342857Y-121554761D01*
X181200000Y-121602380D01*
X180961904Y-121602380D01*
X182485714Y-121602380D02*
X181914285Y-121602380D01*
X182200000Y-121602380D02*
X182200000Y-120602380D01*
X182104761Y-120745238D01*
X182009523Y-120840476D01*
X181914285Y-120888095D01*
D13*
X180235714Y-125878571D02*
X180235714Y-124378571D01*
X181807142Y-125878571D02*
X181307142Y-125164285D01*
X180950000Y-125878571D02*
X180950000Y-124378571D01*
X181521428Y-124378571D01*
X181664285Y-124450000D01*
X181735714Y-124521428D01*
X181807142Y-124664285D01*
X181807142Y-124878571D01*
X181735714Y-125021428D01*
X181664285Y-125092857D01*
X181521428Y-125164285D01*
X180950000Y-125164285D01*
X182735714Y-124378571D02*
X182878571Y-124378571D01*
X183021428Y-124450000D01*
X183092857Y-124521428D01*
X183164285Y-124664285D01*
X183235714Y-124950000D01*
X183235714Y-125307142D01*
X183164285Y-125592857D01*
X183092857Y-125735714D01*
X183021428Y-125807142D01*
X182878571Y-125878571D01*
X182735714Y-125878571D01*
X182592857Y-125807142D01*
X182521428Y-125735714D01*
X182450000Y-125592857D01*
X182378571Y-125307142D01*
X182378571Y-124950000D01*
X182450000Y-124664285D01*
X182521428Y-124521428D01*
X182592857Y-124450000D01*
X182735714Y-124378571D01*
D10*
X122133333Y-53977142D02*
X122085714Y-54024761D01*
X121942857Y-54072380D01*
X121847619Y-54072380D01*
X121704761Y-54024761D01*
X121609523Y-53929523D01*
X121561904Y-53834285D01*
X121514285Y-53643809D01*
X121514285Y-53500952D01*
X121561904Y-53310476D01*
X121609523Y-53215238D01*
X121704761Y-53120000D01*
X121847619Y-53072380D01*
X121942857Y-53072380D01*
X122085714Y-53120000D01*
X122133333Y-53167619D01*
X122990476Y-53405714D02*
X122990476Y-54072380D01*
X122752380Y-53024761D02*
X122514285Y-53739047D01*
X123133333Y-53739047D01*
X106833333Y-53977142D02*
X106785714Y-54024761D01*
X106642857Y-54072380D01*
X106547619Y-54072380D01*
X106404761Y-54024761D01*
X106309523Y-53929523D01*
X106261904Y-53834285D01*
X106214285Y-53643809D01*
X106214285Y-53500952D01*
X106261904Y-53310476D01*
X106309523Y-53215238D01*
X106404761Y-53120000D01*
X106547619Y-53072380D01*
X106642857Y-53072380D01*
X106785714Y-53120000D01*
X106833333Y-53167619D01*
X107166666Y-53072380D02*
X107785714Y-53072380D01*
X107452380Y-53453333D01*
X107595238Y-53453333D01*
X107690476Y-53500952D01*
X107738095Y-53548571D01*
X107785714Y-53643809D01*
X107785714Y-53881904D01*
X107738095Y-53977142D01*
X107690476Y-54024761D01*
X107595238Y-54072380D01*
X107309523Y-54072380D01*
X107214285Y-54024761D01*
X107166666Y-53977142D01*
X105633333Y-114037142D02*
X105585714Y-114084761D01*
X105442857Y-114132380D01*
X105347619Y-114132380D01*
X105204761Y-114084761D01*
X105109523Y-113989523D01*
X105061904Y-113894285D01*
X105014285Y-113703809D01*
X105014285Y-113560952D01*
X105061904Y-113370476D01*
X105109523Y-113275238D01*
X105204761Y-113180000D01*
X105347619Y-113132380D01*
X105442857Y-113132380D01*
X105585714Y-113180000D01*
X105633333Y-113227619D01*
X106014285Y-113227619D02*
X106061904Y-113180000D01*
X106157142Y-113132380D01*
X106395238Y-113132380D01*
X106490476Y-113180000D01*
X106538095Y-113227619D01*
X106585714Y-113322857D01*
X106585714Y-113418095D01*
X106538095Y-113560952D01*
X105966666Y-114132380D01*
X106585714Y-114132380D01*
X106033333Y-95537142D02*
X105985714Y-95584761D01*
X105842857Y-95632380D01*
X105747619Y-95632380D01*
X105604761Y-95584761D01*
X105509523Y-95489523D01*
X105461904Y-95394285D01*
X105414285Y-95203809D01*
X105414285Y-95060952D01*
X105461904Y-94870476D01*
X105509523Y-94775238D01*
X105604761Y-94680000D01*
X105747619Y-94632380D01*
X105842857Y-94632380D01*
X105985714Y-94680000D01*
X106033333Y-94727619D01*
X106985714Y-95632380D02*
X106414285Y-95632380D01*
X106700000Y-95632380D02*
X106700000Y-94632380D01*
X106604761Y-94775238D01*
X106509523Y-94870476D01*
X106414285Y-94918095D01*
%LPC*%
G36*
G01*
X154550000Y-83575000D02*
X154550000Y-82625000D01*
G75*
G02*
X154800000Y-82375000I250000J0D01*
G01*
X155475000Y-82375000D01*
G75*
G02*
X155725000Y-82625000I0J-250000D01*
G01*
X155725000Y-83575000D01*
G75*
G02*
X155475000Y-83825000I-250000J0D01*
G01*
X154800000Y-83825000D01*
G75*
G02*
X154550000Y-83575000I0J250000D01*
G01*
G37*
G36*
G01*
X152475000Y-83575000D02*
X152475000Y-82625000D01*
G75*
G02*
X152725000Y-82375000I250000J0D01*
G01*
X153400000Y-82375000D01*
G75*
G02*
X153650000Y-82625000I0J-250000D01*
G01*
X153650000Y-83575000D01*
G75*
G02*
X153400000Y-83825000I-250000J0D01*
G01*
X152725000Y-83825000D01*
G75*
G02*
X152475000Y-83575000I0J250000D01*
G01*
G37*
G36*
G01*
X144500000Y-95250001D02*
X144500000Y-94349999D01*
G75*
G02*
X144749999Y-94100000I249999J0D01*
G01*
X145450001Y-94100000D01*
G75*
G02*
X145700000Y-94349999I0J-249999D01*
G01*
X145700000Y-95250001D01*
G75*
G02*
X145450001Y-95500000I-249999J0D01*
G01*
X144749999Y-95500000D01*
G75*
G02*
X144500000Y-95250001I0J249999D01*
G01*
G37*
G36*
G01*
X142500000Y-95250001D02*
X142500000Y-94349999D01*
G75*
G02*
X142749999Y-94100000I249999J0D01*
G01*
X143450001Y-94100000D01*
G75*
G02*
X143700000Y-94349999I0J-249999D01*
G01*
X143700000Y-95250001D01*
G75*
G02*
X143450001Y-95500000I-249999J0D01*
G01*
X142749999Y-95500000D01*
G75*
G02*
X142500000Y-95250001I0J249999D01*
G01*
G37*
G36*
G01*
X144550000Y-98950001D02*
X144550000Y-98049999D01*
G75*
G02*
X144799999Y-97800000I249999J0D01*
G01*
X145450001Y-97800000D01*
G75*
G02*
X145700000Y-98049999I0J-249999D01*
G01*
X145700000Y-98950001D01*
G75*
G02*
X145450001Y-99200000I-249999J0D01*
G01*
X144799999Y-99200000D01*
G75*
G02*
X144550000Y-98950001I0J249999D01*
G01*
G37*
G36*
G01*
X142500000Y-98950001D02*
X142500000Y-98049999D01*
G75*
G02*
X142749999Y-97800000I249999J0D01*
G01*
X143400001Y-97800000D01*
G75*
G02*
X143650000Y-98049999I0J-249999D01*
G01*
X143650000Y-98950001D01*
G75*
G02*
X143400001Y-99200000I-249999J0D01*
G01*
X142749999Y-99200000D01*
G75*
G02*
X142500000Y-98950001I0J249999D01*
G01*
G37*
D15*
X155100000Y-86680000D03*
X172880000Y-94300000D03*
X157640000Y-86680000D03*
X170340000Y-94300000D03*
X160180000Y-86680000D03*
X167800000Y-94300000D03*
X162720000Y-86680000D03*
X165260000Y-94300000D03*
X165260000Y-86680000D03*
X162720000Y-94300000D03*
X167800000Y-86680000D03*
X160180000Y-94300000D03*
X170340000Y-86680000D03*
X157640000Y-94300000D03*
X172880000Y-86680000D03*
D16*
X155100000Y-94300000D03*
D17*
X89000000Y-124340000D03*
X89000000Y-121800000D03*
X89000000Y-119260000D03*
X89000000Y-116720000D03*
X89000000Y-114180000D03*
X89000000Y-111640000D03*
X89000000Y-109100000D03*
D18*
X89000000Y-106560000D03*
D17*
X89000000Y-75380000D03*
X89000000Y-72840000D03*
X89000000Y-70300000D03*
X89000000Y-67760000D03*
X89000000Y-65220000D03*
X89000000Y-62680000D03*
X89000000Y-60140000D03*
D18*
X89000000Y-57600000D03*
D15*
X122920000Y-58860000D03*
X115300000Y-76640000D03*
X122920000Y-61400000D03*
X115300000Y-74100000D03*
X122920000Y-63940000D03*
X115300000Y-71560000D03*
X122920000Y-66480000D03*
X115300000Y-69020000D03*
X122920000Y-69020000D03*
X115300000Y-66480000D03*
X122920000Y-71560000D03*
X115300000Y-63940000D03*
X122920000Y-74100000D03*
X115300000Y-61400000D03*
X122920000Y-76640000D03*
D16*
X115300000Y-58860000D03*
D15*
X107720000Y-58860000D03*
X100100000Y-76640000D03*
X107720000Y-61400000D03*
X100100000Y-74100000D03*
X107720000Y-63940000D03*
X100100000Y-71560000D03*
X107720000Y-66480000D03*
X100100000Y-69020000D03*
X107720000Y-69020000D03*
X100100000Y-66480000D03*
X107720000Y-71560000D03*
X100100000Y-63940000D03*
X107720000Y-74100000D03*
X100100000Y-61400000D03*
X107720000Y-76640000D03*
D16*
X100100000Y-58860000D03*
D15*
X104700000Y-115780000D03*
X127560000Y-123400000D03*
X107240000Y-115780000D03*
X125020000Y-123400000D03*
X109780000Y-115780000D03*
X122480000Y-123400000D03*
X112320000Y-115780000D03*
X119940000Y-123400000D03*
X114860000Y-115780000D03*
X117400000Y-123400000D03*
X117400000Y-115780000D03*
X114860000Y-123400000D03*
X119940000Y-115780000D03*
X112320000Y-123400000D03*
X122480000Y-115780000D03*
X109780000Y-123400000D03*
X125020000Y-115780000D03*
X107240000Y-123400000D03*
X127560000Y-115780000D03*
D16*
X104700000Y-123400000D03*
D15*
X105100000Y-97380000D03*
X127960000Y-105000000D03*
X107640000Y-97380000D03*
X125420000Y-105000000D03*
X110180000Y-97380000D03*
X122880000Y-105000000D03*
X112720000Y-97380000D03*
X120340000Y-105000000D03*
X115260000Y-97380000D03*
X117800000Y-105000000D03*
X117800000Y-97380000D03*
X115260000Y-105000000D03*
X120340000Y-97380000D03*
X112720000Y-105000000D03*
X122880000Y-97380000D03*
X110180000Y-105000000D03*
X125420000Y-97380000D03*
X107640000Y-105000000D03*
X127960000Y-97380000D03*
D16*
X105100000Y-105000000D03*
G36*
G01*
X182100000Y-62950001D02*
X182100000Y-62049999D01*
G75*
G02*
X182349999Y-61800000I249999J0D01*
G01*
X183050001Y-61800000D01*
G75*
G02*
X183300000Y-62049999I0J-249999D01*
G01*
X183300000Y-62950001D01*
G75*
G02*
X183050001Y-63200000I-249999J0D01*
G01*
X182349999Y-63200000D01*
G75*
G02*
X182100000Y-62950001I0J249999D01*
G01*
G37*
G36*
G01*
X180100000Y-62950001D02*
X180100000Y-62049999D01*
G75*
G02*
X180349999Y-61800000I249999J0D01*
G01*
X181050001Y-61800000D01*
G75*
G02*
X181300000Y-62049999I0J-249999D01*
G01*
X181300000Y-62950001D01*
G75*
G02*
X181050001Y-63200000I-249999J0D01*
G01*
X180349999Y-63200000D01*
G75*
G02*
X180100000Y-62950001I0J249999D01*
G01*
G37*
G36*
G01*
X176585710Y-62950001D02*
X176585710Y-62049999D01*
G75*
G02*
X176835709Y-61800000I249999J0D01*
G01*
X177535711Y-61800000D01*
G75*
G02*
X177785710Y-62049999I0J-249999D01*
G01*
X177785710Y-62950001D01*
G75*
G02*
X177535711Y-63200000I-249999J0D01*
G01*
X176835709Y-63200000D01*
G75*
G02*
X176585710Y-62950001I0J249999D01*
G01*
G37*
G36*
G01*
X174585710Y-62950001D02*
X174585710Y-62049999D01*
G75*
G02*
X174835709Y-61800000I249999J0D01*
G01*
X175535711Y-61800000D01*
G75*
G02*
X175785710Y-62049999I0J-249999D01*
G01*
X175785710Y-62950001D01*
G75*
G02*
X175535711Y-63200000I-249999J0D01*
G01*
X174835709Y-63200000D01*
G75*
G02*
X174585710Y-62950001I0J249999D01*
G01*
G37*
G36*
G01*
X171071425Y-62950001D02*
X171071425Y-62049999D01*
G75*
G02*
X171321424Y-61800000I249999J0D01*
G01*
X172021426Y-61800000D01*
G75*
G02*
X172271425Y-62049999I0J-249999D01*
G01*
X172271425Y-62950001D01*
G75*
G02*
X172021426Y-63200000I-249999J0D01*
G01*
X171321424Y-63200000D01*
G75*
G02*
X171071425Y-62950001I0J249999D01*
G01*
G37*
G36*
G01*
X169071425Y-62950001D02*
X169071425Y-62049999D01*
G75*
G02*
X169321424Y-61800000I249999J0D01*
G01*
X170021426Y-61800000D01*
G75*
G02*
X170271425Y-62049999I0J-249999D01*
G01*
X170271425Y-62950001D01*
G75*
G02*
X170021426Y-63200000I-249999J0D01*
G01*
X169321424Y-63200000D01*
G75*
G02*
X169071425Y-62950001I0J249999D01*
G01*
G37*
G36*
G01*
X165557140Y-62950001D02*
X165557140Y-62049999D01*
G75*
G02*
X165807139Y-61800000I249999J0D01*
G01*
X166507141Y-61800000D01*
G75*
G02*
X166757140Y-62049999I0J-249999D01*
G01*
X166757140Y-62950001D01*
G75*
G02*
X166507141Y-63200000I-249999J0D01*
G01*
X165807139Y-63200000D01*
G75*
G02*
X165557140Y-62950001I0J249999D01*
G01*
G37*
G36*
G01*
X163557140Y-62950001D02*
X163557140Y-62049999D01*
G75*
G02*
X163807139Y-61800000I249999J0D01*
G01*
X164507141Y-61800000D01*
G75*
G02*
X164757140Y-62049999I0J-249999D01*
G01*
X164757140Y-62950001D01*
G75*
G02*
X164507141Y-63200000I-249999J0D01*
G01*
X163807139Y-63200000D01*
G75*
G02*
X163557140Y-62950001I0J249999D01*
G01*
G37*
G36*
G01*
X160042855Y-62950001D02*
X160042855Y-62049999D01*
G75*
G02*
X160292854Y-61800000I249999J0D01*
G01*
X160992856Y-61800000D01*
G75*
G02*
X161242855Y-62049999I0J-249999D01*
G01*
X161242855Y-62950001D01*
G75*
G02*
X160992856Y-63200000I-249999J0D01*
G01*
X160292854Y-63200000D01*
G75*
G02*
X160042855Y-62950001I0J249999D01*
G01*
G37*
G36*
G01*
X158042855Y-62950001D02*
X158042855Y-62049999D01*
G75*
G02*
X158292854Y-61800000I249999J0D01*
G01*
X158992856Y-61800000D01*
G75*
G02*
X159242855Y-62049999I0J-249999D01*
G01*
X159242855Y-62950001D01*
G75*
G02*
X158992856Y-63200000I-249999J0D01*
G01*
X158292854Y-63200000D01*
G75*
G02*
X158042855Y-62950001I0J249999D01*
G01*
G37*
G36*
G01*
X154528570Y-62950001D02*
X154528570Y-62049999D01*
G75*
G02*
X154778569Y-61800000I249999J0D01*
G01*
X155478571Y-61800000D01*
G75*
G02*
X155728570Y-62049999I0J-249999D01*
G01*
X155728570Y-62950001D01*
G75*
G02*
X155478571Y-63200000I-249999J0D01*
G01*
X154778569Y-63200000D01*
G75*
G02*
X154528570Y-62950001I0J249999D01*
G01*
G37*
G36*
G01*
X152528570Y-62950001D02*
X152528570Y-62049999D01*
G75*
G02*
X152778569Y-61800000I249999J0D01*
G01*
X153478571Y-61800000D01*
G75*
G02*
X153728570Y-62049999I0J-249999D01*
G01*
X153728570Y-62950001D01*
G75*
G02*
X153478571Y-63200000I-249999J0D01*
G01*
X152778569Y-63200000D01*
G75*
G02*
X152528570Y-62950001I0J249999D01*
G01*
G37*
G36*
G01*
X149014285Y-62950001D02*
X149014285Y-62049999D01*
G75*
G02*
X149264284Y-61800000I249999J0D01*
G01*
X149964286Y-61800000D01*
G75*
G02*
X150214285Y-62049999I0J-249999D01*
G01*
X150214285Y-62950001D01*
G75*
G02*
X149964286Y-63200000I-249999J0D01*
G01*
X149264284Y-63200000D01*
G75*
G02*
X149014285Y-62950001I0J249999D01*
G01*
G37*
G36*
G01*
X147014285Y-62950001D02*
X147014285Y-62049999D01*
G75*
G02*
X147264284Y-61800000I249999J0D01*
G01*
X147964286Y-61800000D01*
G75*
G02*
X148214285Y-62049999I0J-249999D01*
G01*
X148214285Y-62950001D01*
G75*
G02*
X147964286Y-63200000I-249999J0D01*
G01*
X147264284Y-63200000D01*
G75*
G02*
X147014285Y-62950001I0J249999D01*
G01*
G37*
G36*
G01*
X143500000Y-62950001D02*
X143500000Y-62049999D01*
G75*
G02*
X143749999Y-61800000I249999J0D01*
G01*
X144450001Y-61800000D01*
G75*
G02*
X144700000Y-62049999I0J-249999D01*
G01*
X144700000Y-62950001D01*
G75*
G02*
X144450001Y-63200000I-249999J0D01*
G01*
X143749999Y-63200000D01*
G75*
G02*
X143500000Y-62950001I0J249999D01*
G01*
G37*
G36*
G01*
X141500000Y-62950001D02*
X141500000Y-62049999D01*
G75*
G02*
X141749999Y-61800000I249999J0D01*
G01*
X142450001Y-61800000D01*
G75*
G02*
X142700000Y-62049999I0J-249999D01*
G01*
X142700000Y-62950001D01*
G75*
G02*
X142450001Y-63200000I-249999J0D01*
G01*
X141749999Y-63200000D01*
G75*
G02*
X141500000Y-62950001I0J249999D01*
G01*
G37*
G36*
G01*
X135500000Y-62049999D02*
X135500000Y-62950001D01*
G75*
G02*
X135250001Y-63200000I-249999J0D01*
G01*
X134549999Y-63200000D01*
G75*
G02*
X134300000Y-62950001I0J249999D01*
G01*
X134300000Y-62049999D01*
G75*
G02*
X134549999Y-61800000I249999J0D01*
G01*
X135250001Y-61800000D01*
G75*
G02*
X135500000Y-62049999I0J-249999D01*
G01*
G37*
G36*
G01*
X137500000Y-62049999D02*
X137500000Y-62950001D01*
G75*
G02*
X137250001Y-63200000I-249999J0D01*
G01*
X136549999Y-63200000D01*
G75*
G02*
X136300000Y-62950001I0J249999D01*
G01*
X136300000Y-62049999D01*
G75*
G02*
X136549999Y-61800000I249999J0D01*
G01*
X137250001Y-61800000D01*
G75*
G02*
X137500000Y-62049999I0J-249999D01*
G01*
G37*
G36*
G01*
X143500000Y-118650001D02*
X143500000Y-117749999D01*
G75*
G02*
X143749999Y-117500000I249999J0D01*
G01*
X144450001Y-117500000D01*
G75*
G02*
X144700000Y-117749999I0J-249999D01*
G01*
X144700000Y-118650001D01*
G75*
G02*
X144450001Y-118900000I-249999J0D01*
G01*
X143749999Y-118900000D01*
G75*
G02*
X143500000Y-118650001I0J249999D01*
G01*
G37*
G36*
G01*
X141500000Y-118650001D02*
X141500000Y-117749999D01*
G75*
G02*
X141749999Y-117500000I249999J0D01*
G01*
X142450001Y-117500000D01*
G75*
G02*
X142700000Y-117749999I0J-249999D01*
G01*
X142700000Y-118650001D01*
G75*
G02*
X142450001Y-118900000I-249999J0D01*
G01*
X141749999Y-118900000D01*
G75*
G02*
X141500000Y-118650001I0J249999D01*
G01*
G37*
G36*
G01*
X149014285Y-118650001D02*
X149014285Y-117749999D01*
G75*
G02*
X149264284Y-117500000I249999J0D01*
G01*
X149964286Y-117500000D01*
G75*
G02*
X150214285Y-117749999I0J-249999D01*
G01*
X150214285Y-118650001D01*
G75*
G02*
X149964286Y-118900000I-249999J0D01*
G01*
X149264284Y-118900000D01*
G75*
G02*
X149014285Y-118650001I0J249999D01*
G01*
G37*
G36*
G01*
X147014285Y-118650001D02*
X147014285Y-117749999D01*
G75*
G02*
X147264284Y-117500000I249999J0D01*
G01*
X147964286Y-117500000D01*
G75*
G02*
X148214285Y-117749999I0J-249999D01*
G01*
X148214285Y-118650001D01*
G75*
G02*
X147964286Y-118900000I-249999J0D01*
G01*
X147264284Y-118900000D01*
G75*
G02*
X147014285Y-118650001I0J249999D01*
G01*
G37*
G36*
G01*
X154528570Y-118650001D02*
X154528570Y-117749999D01*
G75*
G02*
X154778569Y-117500000I249999J0D01*
G01*
X155478571Y-117500000D01*
G75*
G02*
X155728570Y-117749999I0J-249999D01*
G01*
X155728570Y-118650001D01*
G75*
G02*
X155478571Y-118900000I-249999J0D01*
G01*
X154778569Y-118900000D01*
G75*
G02*
X154528570Y-118650001I0J249999D01*
G01*
G37*
G36*
G01*
X152528570Y-118650001D02*
X152528570Y-117749999D01*
G75*
G02*
X152778569Y-117500000I249999J0D01*
G01*
X153478571Y-117500000D01*
G75*
G02*
X153728570Y-117749999I0J-249999D01*
G01*
X153728570Y-118650001D01*
G75*
G02*
X153478571Y-118900000I-249999J0D01*
G01*
X152778569Y-118900000D01*
G75*
G02*
X152528570Y-118650001I0J249999D01*
G01*
G37*
G36*
G01*
X160042855Y-118650001D02*
X160042855Y-117749999D01*
G75*
G02*
X160292854Y-117500000I249999J0D01*
G01*
X160992856Y-117500000D01*
G75*
G02*
X161242855Y-117749999I0J-249999D01*
G01*
X161242855Y-118650001D01*
G75*
G02*
X160992856Y-118900000I-249999J0D01*
G01*
X160292854Y-118900000D01*
G75*
G02*
X160042855Y-118650001I0J249999D01*
G01*
G37*
G36*
G01*
X158042855Y-118650001D02*
X158042855Y-117749999D01*
G75*
G02*
X158292854Y-117500000I249999J0D01*
G01*
X158992856Y-117500000D01*
G75*
G02*
X159242855Y-117749999I0J-249999D01*
G01*
X159242855Y-118650001D01*
G75*
G02*
X158992856Y-118900000I-249999J0D01*
G01*
X158292854Y-118900000D01*
G75*
G02*
X158042855Y-118650001I0J249999D01*
G01*
G37*
G36*
G01*
X165557140Y-118650001D02*
X165557140Y-117749999D01*
G75*
G02*
X165807139Y-117500000I249999J0D01*
G01*
X166507141Y-117500000D01*
G75*
G02*
X166757140Y-117749999I0J-249999D01*
G01*
X166757140Y-118650001D01*
G75*
G02*
X166507141Y-118900000I-249999J0D01*
G01*
X165807139Y-118900000D01*
G75*
G02*
X165557140Y-118650001I0J249999D01*
G01*
G37*
G36*
G01*
X163557140Y-118650001D02*
X163557140Y-117749999D01*
G75*
G02*
X163807139Y-117500000I249999J0D01*
G01*
X164507141Y-117500000D01*
G75*
G02*
X164757140Y-117749999I0J-249999D01*
G01*
X164757140Y-118650001D01*
G75*
G02*
X164507141Y-118900000I-249999J0D01*
G01*
X163807139Y-118900000D01*
G75*
G02*
X163557140Y-118650001I0J249999D01*
G01*
G37*
G36*
G01*
X171071425Y-118650001D02*
X171071425Y-117749999D01*
G75*
G02*
X171321424Y-117500000I249999J0D01*
G01*
X172021426Y-117500000D01*
G75*
G02*
X172271425Y-117749999I0J-249999D01*
G01*
X172271425Y-118650001D01*
G75*
G02*
X172021426Y-118900000I-249999J0D01*
G01*
X171321424Y-118900000D01*
G75*
G02*
X171071425Y-118650001I0J249999D01*
G01*
G37*
G36*
G01*
X169071425Y-118650001D02*
X169071425Y-117749999D01*
G75*
G02*
X169321424Y-117500000I249999J0D01*
G01*
X170021426Y-117500000D01*
G75*
G02*
X170271425Y-117749999I0J-249999D01*
G01*
X170271425Y-118650001D01*
G75*
G02*
X170021426Y-118900000I-249999J0D01*
G01*
X169321424Y-118900000D01*
G75*
G02*
X169071425Y-118650001I0J249999D01*
G01*
G37*
G36*
G01*
X176585710Y-118650001D02*
X176585710Y-117749999D01*
G75*
G02*
X176835709Y-117500000I249999J0D01*
G01*
X177535711Y-117500000D01*
G75*
G02*
X177785710Y-117749999I0J-249999D01*
G01*
X177785710Y-118650001D01*
G75*
G02*
X177535711Y-118900000I-249999J0D01*
G01*
X176835709Y-118900000D01*
G75*
G02*
X176585710Y-118650001I0J249999D01*
G01*
G37*
G36*
G01*
X174585710Y-118650001D02*
X174585710Y-117749999D01*
G75*
G02*
X174835709Y-117500000I249999J0D01*
G01*
X175535711Y-117500000D01*
G75*
G02*
X175785710Y-117749999I0J-249999D01*
G01*
X175785710Y-118650001D01*
G75*
G02*
X175535711Y-118900000I-249999J0D01*
G01*
X174835709Y-118900000D01*
G75*
G02*
X174585710Y-118650001I0J249999D01*
G01*
G37*
G36*
G01*
X182100000Y-118650001D02*
X182100000Y-117749999D01*
G75*
G02*
X182349999Y-117500000I249999J0D01*
G01*
X183050001Y-117500000D01*
G75*
G02*
X183300000Y-117749999I0J-249999D01*
G01*
X183300000Y-118650001D01*
G75*
G02*
X183050001Y-118900000I-249999J0D01*
G01*
X182349999Y-118900000D01*
G75*
G02*
X182100000Y-118650001I0J249999D01*
G01*
G37*
G36*
G01*
X180100000Y-118650001D02*
X180100000Y-117749999D01*
G75*
G02*
X180349999Y-117500000I249999J0D01*
G01*
X181050001Y-117500000D01*
G75*
G02*
X181300000Y-117749999I0J-249999D01*
G01*
X181300000Y-118650001D01*
G75*
G02*
X181050001Y-118900000I-249999J0D01*
G01*
X180349999Y-118900000D01*
G75*
G02*
X180100000Y-118650001I0J249999D01*
G01*
G37*
G36*
G01*
X182150000Y-67550001D02*
X182150000Y-66649999D01*
G75*
G02*
X182399999Y-66400000I249999J0D01*
G01*
X183050001Y-66400000D01*
G75*
G02*
X183300000Y-66649999I0J-249999D01*
G01*
X183300000Y-67550001D01*
G75*
G02*
X183050001Y-67800000I-249999J0D01*
G01*
X182399999Y-67800000D01*
G75*
G02*
X182150000Y-67550001I0J249999D01*
G01*
G37*
G36*
G01*
X180100000Y-67550001D02*
X180100000Y-66649999D01*
G75*
G02*
X180349999Y-66400000I249999J0D01*
G01*
X181000001Y-66400000D01*
G75*
G02*
X181250000Y-66649999I0J-249999D01*
G01*
X181250000Y-67550001D01*
G75*
G02*
X181000001Y-67800000I-249999J0D01*
G01*
X180349999Y-67800000D01*
G75*
G02*
X180100000Y-67550001I0J249999D01*
G01*
G37*
G36*
G01*
X176635710Y-67550001D02*
X176635710Y-66649999D01*
G75*
G02*
X176885709Y-66400000I249999J0D01*
G01*
X177535711Y-66400000D01*
G75*
G02*
X177785710Y-66649999I0J-249999D01*
G01*
X177785710Y-67550001D01*
G75*
G02*
X177535711Y-67800000I-249999J0D01*
G01*
X176885709Y-67800000D01*
G75*
G02*
X176635710Y-67550001I0J249999D01*
G01*
G37*
G36*
G01*
X174585710Y-67550001D02*
X174585710Y-66649999D01*
G75*
G02*
X174835709Y-66400000I249999J0D01*
G01*
X175485711Y-66400000D01*
G75*
G02*
X175735710Y-66649999I0J-249999D01*
G01*
X175735710Y-67550001D01*
G75*
G02*
X175485711Y-67800000I-249999J0D01*
G01*
X174835709Y-67800000D01*
G75*
G02*
X174585710Y-67550001I0J249999D01*
G01*
G37*
G36*
G01*
X171121425Y-67550001D02*
X171121425Y-66649999D01*
G75*
G02*
X171371424Y-66400000I249999J0D01*
G01*
X172021426Y-66400000D01*
G75*
G02*
X172271425Y-66649999I0J-249999D01*
G01*
X172271425Y-67550001D01*
G75*
G02*
X172021426Y-67800000I-249999J0D01*
G01*
X171371424Y-67800000D01*
G75*
G02*
X171121425Y-67550001I0J249999D01*
G01*
G37*
G36*
G01*
X169071425Y-67550001D02*
X169071425Y-66649999D01*
G75*
G02*
X169321424Y-66400000I249999J0D01*
G01*
X169971426Y-66400000D01*
G75*
G02*
X170221425Y-66649999I0J-249999D01*
G01*
X170221425Y-67550001D01*
G75*
G02*
X169971426Y-67800000I-249999J0D01*
G01*
X169321424Y-67800000D01*
G75*
G02*
X169071425Y-67550001I0J249999D01*
G01*
G37*
G36*
G01*
X165607140Y-67550001D02*
X165607140Y-66649999D01*
G75*
G02*
X165857139Y-66400000I249999J0D01*
G01*
X166507141Y-66400000D01*
G75*
G02*
X166757140Y-66649999I0J-249999D01*
G01*
X166757140Y-67550001D01*
G75*
G02*
X166507141Y-67800000I-249999J0D01*
G01*
X165857139Y-67800000D01*
G75*
G02*
X165607140Y-67550001I0J249999D01*
G01*
G37*
G36*
G01*
X163557140Y-67550001D02*
X163557140Y-66649999D01*
G75*
G02*
X163807139Y-66400000I249999J0D01*
G01*
X164457141Y-66400000D01*
G75*
G02*
X164707140Y-66649999I0J-249999D01*
G01*
X164707140Y-67550001D01*
G75*
G02*
X164457141Y-67800000I-249999J0D01*
G01*
X163807139Y-67800000D01*
G75*
G02*
X163557140Y-67550001I0J249999D01*
G01*
G37*
G36*
G01*
X160092855Y-67550001D02*
X160092855Y-66649999D01*
G75*
G02*
X160342854Y-66400000I249999J0D01*
G01*
X160992856Y-66400000D01*
G75*
G02*
X161242855Y-66649999I0J-249999D01*
G01*
X161242855Y-67550001D01*
G75*
G02*
X160992856Y-67800000I-249999J0D01*
G01*
X160342854Y-67800000D01*
G75*
G02*
X160092855Y-67550001I0J249999D01*
G01*
G37*
G36*
G01*
X158042855Y-67550001D02*
X158042855Y-66649999D01*
G75*
G02*
X158292854Y-66400000I249999J0D01*
G01*
X158942856Y-66400000D01*
G75*
G02*
X159192855Y-66649999I0J-249999D01*
G01*
X159192855Y-67550001D01*
G75*
G02*
X158942856Y-67800000I-249999J0D01*
G01*
X158292854Y-67800000D01*
G75*
G02*
X158042855Y-67550001I0J249999D01*
G01*
G37*
G36*
G01*
X154578570Y-67550001D02*
X154578570Y-66649999D01*
G75*
G02*
X154828569Y-66400000I249999J0D01*
G01*
X155478571Y-66400000D01*
G75*
G02*
X155728570Y-66649999I0J-249999D01*
G01*
X155728570Y-67550001D01*
G75*
G02*
X155478571Y-67800000I-249999J0D01*
G01*
X154828569Y-67800000D01*
G75*
G02*
X154578570Y-67550001I0J249999D01*
G01*
G37*
G36*
G01*
X152528570Y-67550001D02*
X152528570Y-66649999D01*
G75*
G02*
X152778569Y-66400000I249999J0D01*
G01*
X153428571Y-66400000D01*
G75*
G02*
X153678570Y-66649999I0J-249999D01*
G01*
X153678570Y-67550001D01*
G75*
G02*
X153428571Y-67800000I-249999J0D01*
G01*
X152778569Y-67800000D01*
G75*
G02*
X152528570Y-67550001I0J249999D01*
G01*
G37*
G36*
G01*
X149064285Y-67550001D02*
X149064285Y-66649999D01*
G75*
G02*
X149314284Y-66400000I249999J0D01*
G01*
X149964286Y-66400000D01*
G75*
G02*
X150214285Y-66649999I0J-249999D01*
G01*
X150214285Y-67550001D01*
G75*
G02*
X149964286Y-67800000I-249999J0D01*
G01*
X149314284Y-67800000D01*
G75*
G02*
X149064285Y-67550001I0J249999D01*
G01*
G37*
G36*
G01*
X147014285Y-67550001D02*
X147014285Y-66649999D01*
G75*
G02*
X147264284Y-66400000I249999J0D01*
G01*
X147914286Y-66400000D01*
G75*
G02*
X148164285Y-66649999I0J-249999D01*
G01*
X148164285Y-67550001D01*
G75*
G02*
X147914286Y-67800000I-249999J0D01*
G01*
X147264284Y-67800000D01*
G75*
G02*
X147014285Y-67550001I0J249999D01*
G01*
G37*
G36*
G01*
X143550000Y-67550001D02*
X143550000Y-66649999D01*
G75*
G02*
X143799999Y-66400000I249999J0D01*
G01*
X144450001Y-66400000D01*
G75*
G02*
X144700000Y-66649999I0J-249999D01*
G01*
X144700000Y-67550001D01*
G75*
G02*
X144450001Y-67800000I-249999J0D01*
G01*
X143799999Y-67800000D01*
G75*
G02*
X143550000Y-67550001I0J249999D01*
G01*
G37*
G36*
G01*
X141500000Y-67550001D02*
X141500000Y-66649999D01*
G75*
G02*
X141749999Y-66400000I249999J0D01*
G01*
X142400001Y-66400000D01*
G75*
G02*
X142650000Y-66649999I0J-249999D01*
G01*
X142650000Y-67550001D01*
G75*
G02*
X142400001Y-67800000I-249999J0D01*
G01*
X141749999Y-67800000D01*
G75*
G02*
X141500000Y-67550001I0J249999D01*
G01*
G37*
G36*
G01*
X136350000Y-67550001D02*
X136350000Y-66649999D01*
G75*
G02*
X136599999Y-66400000I249999J0D01*
G01*
X137250001Y-66400000D01*
G75*
G02*
X137500000Y-66649999I0J-249999D01*
G01*
X137500000Y-67550001D01*
G75*
G02*
X137250001Y-67800000I-249999J0D01*
G01*
X136599999Y-67800000D01*
G75*
G02*
X136350000Y-67550001I0J249999D01*
G01*
G37*
G36*
G01*
X134300000Y-67550001D02*
X134300000Y-66649999D01*
G75*
G02*
X134549999Y-66400000I249999J0D01*
G01*
X135200001Y-66400000D01*
G75*
G02*
X135450000Y-66649999I0J-249999D01*
G01*
X135450000Y-67550001D01*
G75*
G02*
X135200001Y-67800000I-249999J0D01*
G01*
X134549999Y-67800000D01*
G75*
G02*
X134300000Y-67550001I0J249999D01*
G01*
G37*
G36*
G01*
X143550000Y-123250001D02*
X143550000Y-122349999D01*
G75*
G02*
X143799999Y-122100000I249999J0D01*
G01*
X144450001Y-122100000D01*
G75*
G02*
X144700000Y-122349999I0J-249999D01*
G01*
X144700000Y-123250001D01*
G75*
G02*
X144450001Y-123500000I-249999J0D01*
G01*
X143799999Y-123500000D01*
G75*
G02*
X143550000Y-123250001I0J249999D01*
G01*
G37*
G36*
G01*
X141500000Y-123250001D02*
X141500000Y-122349999D01*
G75*
G02*
X141749999Y-122100000I249999J0D01*
G01*
X142400001Y-122100000D01*
G75*
G02*
X142650000Y-122349999I0J-249999D01*
G01*
X142650000Y-123250001D01*
G75*
G02*
X142400001Y-123500000I-249999J0D01*
G01*
X141749999Y-123500000D01*
G75*
G02*
X141500000Y-123250001I0J249999D01*
G01*
G37*
G36*
G01*
X149064285Y-123250001D02*
X149064285Y-122349999D01*
G75*
G02*
X149314284Y-122100000I249999J0D01*
G01*
X149964286Y-122100000D01*
G75*
G02*
X150214285Y-122349999I0J-249999D01*
G01*
X150214285Y-123250001D01*
G75*
G02*
X149964286Y-123500000I-249999J0D01*
G01*
X149314284Y-123500000D01*
G75*
G02*
X149064285Y-123250001I0J249999D01*
G01*
G37*
G36*
G01*
X147014285Y-123250001D02*
X147014285Y-122349999D01*
G75*
G02*
X147264284Y-122100000I249999J0D01*
G01*
X147914286Y-122100000D01*
G75*
G02*
X148164285Y-122349999I0J-249999D01*
G01*
X148164285Y-123250001D01*
G75*
G02*
X147914286Y-123500000I-249999J0D01*
G01*
X147264284Y-123500000D01*
G75*
G02*
X147014285Y-123250001I0J249999D01*
G01*
G37*
G36*
G01*
X154578570Y-123250001D02*
X154578570Y-122349999D01*
G75*
G02*
X154828569Y-122100000I249999J0D01*
G01*
X155478571Y-122100000D01*
G75*
G02*
X155728570Y-122349999I0J-249999D01*
G01*
X155728570Y-123250001D01*
G75*
G02*
X155478571Y-123500000I-249999J0D01*
G01*
X154828569Y-123500000D01*
G75*
G02*
X154578570Y-123250001I0J249999D01*
G01*
G37*
G36*
G01*
X152528570Y-123250001D02*
X152528570Y-122349999D01*
G75*
G02*
X152778569Y-122100000I249999J0D01*
G01*
X153428571Y-122100000D01*
G75*
G02*
X153678570Y-122349999I0J-249999D01*
G01*
X153678570Y-123250001D01*
G75*
G02*
X153428571Y-123500000I-249999J0D01*
G01*
X152778569Y-123500000D01*
G75*
G02*
X152528570Y-123250001I0J249999D01*
G01*
G37*
G36*
G01*
X160092855Y-123250001D02*
X160092855Y-122349999D01*
G75*
G02*
X160342854Y-122100000I249999J0D01*
G01*
X160992856Y-122100000D01*
G75*
G02*
X161242855Y-122349999I0J-249999D01*
G01*
X161242855Y-123250001D01*
G75*
G02*
X160992856Y-123500000I-249999J0D01*
G01*
X160342854Y-123500000D01*
G75*
G02*
X160092855Y-123250001I0J249999D01*
G01*
G37*
G36*
G01*
X158042855Y-123250001D02*
X158042855Y-122349999D01*
G75*
G02*
X158292854Y-122100000I249999J0D01*
G01*
X158942856Y-122100000D01*
G75*
G02*
X159192855Y-122349999I0J-249999D01*
G01*
X159192855Y-123250001D01*
G75*
G02*
X158942856Y-123500000I-249999J0D01*
G01*
X158292854Y-123500000D01*
G75*
G02*
X158042855Y-123250001I0J249999D01*
G01*
G37*
G36*
G01*
X165607140Y-123250001D02*
X165607140Y-122349999D01*
G75*
G02*
X165857139Y-122100000I249999J0D01*
G01*
X166507141Y-122100000D01*
G75*
G02*
X166757140Y-122349999I0J-249999D01*
G01*
X166757140Y-123250001D01*
G75*
G02*
X166507141Y-123500000I-249999J0D01*
G01*
X165857139Y-123500000D01*
G75*
G02*
X165607140Y-123250001I0J249999D01*
G01*
G37*
G36*
G01*
X163557140Y-123250001D02*
X163557140Y-122349999D01*
G75*
G02*
X163807139Y-122100000I249999J0D01*
G01*
X164457141Y-122100000D01*
G75*
G02*
X164707140Y-122349999I0J-249999D01*
G01*
X164707140Y-123250001D01*
G75*
G02*
X164457141Y-123500000I-249999J0D01*
G01*
X163807139Y-123500000D01*
G75*
G02*
X163557140Y-123250001I0J249999D01*
G01*
G37*
G36*
G01*
X171121425Y-123250001D02*
X171121425Y-122349999D01*
G75*
G02*
X171371424Y-122100000I249999J0D01*
G01*
X172021426Y-122100000D01*
G75*
G02*
X172271425Y-122349999I0J-249999D01*
G01*
X172271425Y-123250001D01*
G75*
G02*
X172021426Y-123500000I-249999J0D01*
G01*
X171371424Y-123500000D01*
G75*
G02*
X171121425Y-123250001I0J249999D01*
G01*
G37*
G36*
G01*
X169071425Y-123250001D02*
X169071425Y-122349999D01*
G75*
G02*
X169321424Y-122100000I249999J0D01*
G01*
X169971426Y-122100000D01*
G75*
G02*
X170221425Y-122349999I0J-249999D01*
G01*
X170221425Y-123250001D01*
G75*
G02*
X169971426Y-123500000I-249999J0D01*
G01*
X169321424Y-123500000D01*
G75*
G02*
X169071425Y-123250001I0J249999D01*
G01*
G37*
G36*
G01*
X176635710Y-123250001D02*
X176635710Y-122349999D01*
G75*
G02*
X176885709Y-122100000I249999J0D01*
G01*
X177535711Y-122100000D01*
G75*
G02*
X177785710Y-122349999I0J-249999D01*
G01*
X177785710Y-123250001D01*
G75*
G02*
X177535711Y-123500000I-249999J0D01*
G01*
X176885709Y-123500000D01*
G75*
G02*
X176635710Y-123250001I0J249999D01*
G01*
G37*
G36*
G01*
X174585710Y-123250001D02*
X174585710Y-122349999D01*
G75*
G02*
X174835709Y-122100000I249999J0D01*
G01*
X175485711Y-122100000D01*
G75*
G02*
X175735710Y-122349999I0J-249999D01*
G01*
X175735710Y-123250001D01*
G75*
G02*
X175485711Y-123500000I-249999J0D01*
G01*
X174835709Y-123500000D01*
G75*
G02*
X174585710Y-123250001I0J249999D01*
G01*
G37*
G36*
G01*
X182150000Y-123250001D02*
X182150000Y-122349999D01*
G75*
G02*
X182399999Y-122100000I249999J0D01*
G01*
X183050001Y-122100000D01*
G75*
G02*
X183300000Y-122349999I0J-249999D01*
G01*
X183300000Y-123250001D01*
G75*
G02*
X183050001Y-123500000I-249999J0D01*
G01*
X182399999Y-123500000D01*
G75*
G02*
X182150000Y-123250001I0J249999D01*
G01*
G37*
G36*
G01*
X180100000Y-123250001D02*
X180100000Y-122349999D01*
G75*
G02*
X180349999Y-122100000I249999J0D01*
G01*
X181000001Y-122100000D01*
G75*
G02*
X181250000Y-122349999I0J-249999D01*
G01*
X181250000Y-123250001D01*
G75*
G02*
X181000001Y-123500000I-249999J0D01*
G01*
X180349999Y-123500000D01*
G75*
G02*
X180100000Y-123250001I0J249999D01*
G01*
G37*
G36*
G01*
X122750000Y-55775000D02*
X122750000Y-54825000D01*
G75*
G02*
X123000000Y-54575000I250000J0D01*
G01*
X123675000Y-54575000D01*
G75*
G02*
X123925000Y-54825000I0J-250000D01*
G01*
X123925000Y-55775000D01*
G75*
G02*
X123675000Y-56025000I-250000J0D01*
G01*
X123000000Y-56025000D01*
G75*
G02*
X122750000Y-55775000I0J250000D01*
G01*
G37*
G36*
G01*
X120675000Y-55775000D02*
X120675000Y-54825000D01*
G75*
G02*
X120925000Y-54575000I250000J0D01*
G01*
X121600000Y-54575000D01*
G75*
G02*
X121850000Y-54825000I0J-250000D01*
G01*
X121850000Y-55775000D01*
G75*
G02*
X121600000Y-56025000I-250000J0D01*
G01*
X120925000Y-56025000D01*
G75*
G02*
X120675000Y-55775000I0J250000D01*
G01*
G37*
G36*
G01*
X107450000Y-55775000D02*
X107450000Y-54825000D01*
G75*
G02*
X107700000Y-54575000I250000J0D01*
G01*
X108375000Y-54575000D01*
G75*
G02*
X108625000Y-54825000I0J-250000D01*
G01*
X108625000Y-55775000D01*
G75*
G02*
X108375000Y-56025000I-250000J0D01*
G01*
X107700000Y-56025000D01*
G75*
G02*
X107450000Y-55775000I0J250000D01*
G01*
G37*
G36*
G01*
X105375000Y-55775000D02*
X105375000Y-54825000D01*
G75*
G02*
X105625000Y-54575000I250000J0D01*
G01*
X106300000Y-54575000D01*
G75*
G02*
X106550000Y-54825000I0J-250000D01*
G01*
X106550000Y-55775000D01*
G75*
G02*
X106300000Y-56025000I-250000J0D01*
G01*
X105625000Y-56025000D01*
G75*
G02*
X105375000Y-55775000I0J250000D01*
G01*
G37*
G36*
G01*
X105350000Y-111525000D02*
X105350000Y-112475000D01*
G75*
G02*
X105100000Y-112725000I-250000J0D01*
G01*
X104425000Y-112725000D01*
G75*
G02*
X104175000Y-112475000I0J250000D01*
G01*
X104175000Y-111525000D01*
G75*
G02*
X104425000Y-111275000I250000J0D01*
G01*
X105100000Y-111275000D01*
G75*
G02*
X105350000Y-111525000I0J-250000D01*
G01*
G37*
G36*
G01*
X107425000Y-111525000D02*
X107425000Y-112475000D01*
G75*
G02*
X107175000Y-112725000I-250000J0D01*
G01*
X106500000Y-112725000D01*
G75*
G02*
X106250000Y-112475000I0J250000D01*
G01*
X106250000Y-111525000D01*
G75*
G02*
X106500000Y-111275000I250000J0D01*
G01*
X107175000Y-111275000D01*
G75*
G02*
X107425000Y-111525000I0J-250000D01*
G01*
G37*
G36*
G01*
X105750000Y-93025000D02*
X105750000Y-93975000D01*
G75*
G02*
X105500000Y-94225000I-250000J0D01*
G01*
X104825000Y-94225000D01*
G75*
G02*
X104575000Y-93975000I0J250000D01*
G01*
X104575000Y-93025000D01*
G75*
G02*
X104825000Y-92775000I250000J0D01*
G01*
X105500000Y-92775000D01*
G75*
G02*
X105750000Y-93025000I0J-250000D01*
G01*
G37*
G36*
G01*
X107825000Y-93025000D02*
X107825000Y-93975000D01*
G75*
G02*
X107575000Y-94225000I-250000J0D01*
G01*
X106900000Y-94225000D01*
G75*
G02*
X106650000Y-93975000I0J250000D01*
G01*
X106650000Y-93025000D01*
G75*
G02*
X106900000Y-92775000I250000J0D01*
G01*
X107575000Y-92775000D01*
G75*
G02*
X107825000Y-93025000I0J-250000D01*
G01*
G37*
D17*
X185460000Y-136000000D03*
X182920000Y-136000000D03*
X180380000Y-136000000D03*
X177840000Y-136000000D03*
X175300000Y-136000000D03*
X172760000Y-136000000D03*
X170220000Y-136000000D03*
X167680000Y-136000000D03*
X165140000Y-136000000D03*
X162600000Y-136000000D03*
X160060000Y-136000000D03*
X157520000Y-136000000D03*
X154980000Y-136000000D03*
X152440000Y-136000000D03*
X149900000Y-136000000D03*
X147360000Y-136000000D03*
X144820000Y-136000000D03*
X142280000Y-136000000D03*
X139740000Y-136000000D03*
X137200000Y-136000000D03*
X134660000Y-136000000D03*
X132120000Y-136000000D03*
X129580000Y-136000000D03*
X127040000Y-136000000D03*
X124500000Y-136000000D03*
X121960000Y-136000000D03*
X119420000Y-136000000D03*
X116880000Y-136000000D03*
X114340000Y-136000000D03*
X111800000Y-136000000D03*
X109260000Y-136000000D03*
X106720000Y-136000000D03*
X104180000Y-136000000D03*
X101640000Y-136000000D03*
X99100000Y-136000000D03*
X96560000Y-136000000D03*
X94020000Y-136000000D03*
X91480000Y-136000000D03*
X88940000Y-136000000D03*
D18*
X86400000Y-136000000D03*
D17*
X185460000Y-46000000D03*
X182920000Y-46000000D03*
X180380000Y-46000000D03*
X177840000Y-46000000D03*
X175300000Y-46000000D03*
X172760000Y-46000000D03*
X170220000Y-46000000D03*
X167680000Y-46000000D03*
X165140000Y-46000000D03*
X162600000Y-46000000D03*
X160060000Y-46000000D03*
X157520000Y-46000000D03*
X154980000Y-46000000D03*
X152440000Y-46000000D03*
X149900000Y-46000000D03*
X147360000Y-46000000D03*
X144820000Y-46000000D03*
X142280000Y-46000000D03*
X139740000Y-46000000D03*
X137200000Y-46000000D03*
X134660000Y-46000000D03*
X132120000Y-46000000D03*
X129580000Y-46000000D03*
X127040000Y-46000000D03*
X124500000Y-46000000D03*
X121960000Y-46000000D03*
X119420000Y-46000000D03*
X116880000Y-46000000D03*
X114340000Y-46000000D03*
X111800000Y-46000000D03*
X109260000Y-46000000D03*
X106720000Y-46000000D03*
X104180000Y-46000000D03*
X101640000Y-46000000D03*
X99100000Y-46000000D03*
X96560000Y-46000000D03*
X94020000Y-46000000D03*
X91480000Y-46000000D03*
X88940000Y-46000000D03*
D18*
X86400000Y-46000000D03*
M02*
