M48
; DRILL file {KiCad (5.1.9)-1} date 10/24/21 09:52:13
; FORMAT={-:-/ absolute / metric / decimal}
; #@! TF.CreationDate,2021-10-24T09:52:13-04:00
; #@! TF.GenerationSoftware,Kicad,Pcbnew,(5.1.9)-1
; #@! TF.FileFunction,Plated,1,2,PTH
FMAT,2
METRIC
T1C0.400
T2C0.800
T3C1.000
%
G90
G05
T1
X90.6Y-101.6
X91.7Y-100.6
X92.6Y-99.6
X93.6Y-98.6
X111.2Y-50.6
X113.1Y-89.4
X118.3Y-76.3
X124.8Y-89.4
X128.0Y-70.0
X128.0Y-111.4
X139.503Y-67.097
X147.2Y-98.5
X156.9Y-68.6
X179.0Y-68.6
T2
X100.1Y-58.86
X100.1Y-61.4
X100.1Y-63.94
X100.1Y-66.48
X100.1Y-69.02
X100.1Y-71.56
X100.1Y-74.1
X100.1Y-76.64
X104.7Y-115.78
X104.7Y-123.4
X105.1Y-97.38
X105.1Y-105.0
X107.24Y-115.78
X107.24Y-123.4
X107.64Y-97.38
X107.64Y-105.0
X107.72Y-58.86
X107.72Y-61.4
X107.72Y-63.94
X107.72Y-66.48
X107.72Y-69.02
X107.72Y-71.56
X107.72Y-74.1
X107.72Y-76.64
X109.78Y-115.78
X109.78Y-123.4
X110.18Y-97.38
X110.18Y-105.0
X112.32Y-115.78
X112.32Y-123.4
X112.72Y-97.38
X112.72Y-105.0
X114.86Y-115.78
X114.86Y-123.4
X115.26Y-97.38
X115.26Y-105.0
X115.3Y-58.86
X115.3Y-61.4
X115.3Y-63.94
X115.3Y-66.48
X115.3Y-69.02
X115.3Y-71.56
X115.3Y-74.1
X115.3Y-76.64
X117.4Y-115.78
X117.4Y-123.4
X117.8Y-97.38
X117.8Y-105.0
X119.94Y-115.78
X119.94Y-123.4
X120.34Y-97.38
X120.34Y-105.0
X122.48Y-115.78
X122.48Y-123.4
X122.88Y-97.38
X122.88Y-105.0
X122.92Y-58.86
X122.92Y-61.4
X122.92Y-63.94
X122.92Y-66.48
X122.92Y-69.02
X122.92Y-71.56
X122.92Y-74.1
X122.92Y-76.64
X125.02Y-115.78
X125.02Y-123.4
X125.42Y-97.38
X125.42Y-105.0
X127.56Y-115.78
X127.56Y-123.4
X127.96Y-97.38
X127.96Y-105.0
X155.1Y-86.68
X155.1Y-94.3
X157.64Y-86.68
X157.64Y-94.3
X160.18Y-86.68
X160.18Y-94.3
X162.72Y-86.68
X162.72Y-94.3
X165.26Y-86.68
X165.26Y-94.3
X167.8Y-86.68
X167.8Y-94.3
X170.34Y-86.68
X170.34Y-94.3
X172.88Y-86.68
X172.88Y-94.3
T3
X86.4Y-46.0
X86.4Y-136.0
X88.94Y-46.0
X88.94Y-136.0
X89.0Y-57.6
X89.0Y-60.14
X89.0Y-62.68
X89.0Y-65.22
X89.0Y-67.76
X89.0Y-70.3
X89.0Y-72.84
X89.0Y-75.38
X89.0Y-106.56
X89.0Y-109.1
X89.0Y-111.64
X89.0Y-114.18
X89.0Y-116.72
X89.0Y-119.26
X89.0Y-121.8
X89.0Y-124.34
X91.48Y-46.0
X91.48Y-136.0
X94.02Y-46.0
X94.02Y-136.0
X96.56Y-46.0
X96.56Y-136.0
X99.1Y-46.0
X99.1Y-136.0
X101.64Y-46.0
X101.64Y-136.0
X104.18Y-46.0
X104.18Y-136.0
X106.72Y-46.0
X106.72Y-136.0
X109.26Y-46.0
X109.26Y-136.0
X111.8Y-46.0
X111.8Y-136.0
X114.34Y-46.0
X114.34Y-136.0
X116.88Y-46.0
X116.88Y-136.0
X119.42Y-46.0
X119.42Y-136.0
X121.96Y-46.0
X121.96Y-136.0
X124.5Y-46.0
X124.5Y-136.0
X127.04Y-46.0
X127.04Y-136.0
X129.58Y-46.0
X129.58Y-136.0
X132.12Y-46.0
X132.12Y-136.0
X134.66Y-46.0
X134.66Y-136.0
X137.2Y-46.0
X137.2Y-136.0
X139.74Y-46.0
X139.74Y-136.0
X142.28Y-46.0
X142.28Y-136.0
X144.82Y-46.0
X144.82Y-136.0
X147.36Y-46.0
X147.36Y-136.0
X149.9Y-46.0
X149.9Y-136.0
X152.44Y-46.0
X152.44Y-136.0
X154.98Y-46.0
X154.98Y-136.0
X157.52Y-46.0
X157.52Y-136.0
X160.06Y-46.0
X160.06Y-136.0
X162.6Y-46.0
X162.6Y-136.0
X165.14Y-46.0
X165.14Y-136.0
X167.68Y-46.0
X167.68Y-136.0
X170.22Y-46.0
X170.22Y-136.0
X172.76Y-46.0
X172.76Y-136.0
X175.3Y-46.0
X175.3Y-136.0
X177.84Y-46.0
X177.84Y-136.0
X180.38Y-46.0
X180.38Y-136.0
X182.92Y-46.0
X182.92Y-136.0
X185.46Y-46.0
X185.46Y-136.0
T0
M30
