%FSLAX45Y45*%
G04 Gerber Fmt 4.5, Leading zero omitted, Abs format (unit mm)*
G04 Created by KiCad (PCBNEW (5.1.9)-1) date 2021-10-24 09:52:15*
%MOMM*%
%LPD*%
G01*
G04 APERTURE LIST*
%TA.AperFunction,Profile*%
%ADD10C,0.100000*%
%TD*%
%ADD11C,0.200000*%
%ADD12C,0.300000*%
G04 APERTURE END LIST*
D10*
X8500000Y-13900000D02*
X8500000Y-4300000D01*
X18700000Y-13900000D02*
X8500000Y-13900000D01*
X18700000Y-4300000D02*
X18700000Y-13900000D01*
X8500000Y-4300000D02*
X18700000Y-4300000D01*
D11*
D12*
X8781428Y-14370714D02*
X8781428Y-14070714D01*
X8852857Y-14070714D01*
X8895714Y-14085000D01*
X8924286Y-14113571D01*
X8938571Y-14142143D01*
X8952857Y-14199286D01*
X8952857Y-14242143D01*
X8938571Y-14299286D01*
X8924286Y-14327857D01*
X8895714Y-14356429D01*
X8852857Y-14370714D01*
X8781428Y-14370714D01*
X9081428Y-14370714D02*
X9081428Y-14170714D01*
X9081428Y-14227857D02*
X9095714Y-14199286D01*
X9110000Y-14185000D01*
X9138571Y-14170714D01*
X9167143Y-14170714D01*
X9267143Y-14370714D02*
X9267143Y-14170714D01*
X9267143Y-14070714D02*
X9252857Y-14085000D01*
X9267143Y-14099286D01*
X9281428Y-14085000D01*
X9267143Y-14070714D01*
X9267143Y-14099286D01*
X9452857Y-14370714D02*
X9424286Y-14356429D01*
X9410000Y-14327857D01*
X9410000Y-14070714D01*
X9610000Y-14370714D02*
X9581428Y-14356429D01*
X9567143Y-14327857D01*
X9567143Y-14070714D01*
X9952857Y-14370714D02*
X9952857Y-14070714D01*
X10052857Y-14285000D01*
X10152857Y-14070714D01*
X10152857Y-14370714D01*
X10424286Y-14370714D02*
X10424286Y-14213571D01*
X10410000Y-14185000D01*
X10381428Y-14170714D01*
X10324286Y-14170714D01*
X10295714Y-14185000D01*
X10424286Y-14356429D02*
X10395714Y-14370714D01*
X10324286Y-14370714D01*
X10295714Y-14356429D01*
X10281428Y-14327857D01*
X10281428Y-14299286D01*
X10295714Y-14270714D01*
X10324286Y-14256429D01*
X10395714Y-14256429D01*
X10424286Y-14242143D01*
X10567143Y-14170714D02*
X10567143Y-14470714D01*
X10567143Y-14185000D02*
X10595714Y-14170714D01*
X10652857Y-14170714D01*
X10681428Y-14185000D01*
X10695714Y-14199286D01*
X10710000Y-14227857D01*
X10710000Y-14313571D01*
X10695714Y-14342143D01*
X10681428Y-14356429D01*
X10652857Y-14370714D01*
X10595714Y-14370714D01*
X10567143Y-14356429D01*
X10838571Y-14342143D02*
X10852857Y-14356429D01*
X10838571Y-14370714D01*
X10824286Y-14356429D01*
X10838571Y-14342143D01*
X10838571Y-14370714D01*
X10838571Y-14185000D02*
X10852857Y-14199286D01*
X10838571Y-14213571D01*
X10824286Y-14199286D01*
X10838571Y-14185000D01*
X10838571Y-14213571D01*
M02*
