G04 #@! TF.GenerationSoftware,KiCad,Pcbnew,(5.1.9)-1*
G04 #@! TF.CreationDate,2021-11-21T23:13:33-05:00*
G04 #@! TF.ProjectId,ir-rc,69722d72-632e-46b6-9963-61645f706362,1.1*
G04 #@! TF.SameCoordinates,Original*
G04 #@! TF.FileFunction,Soldermask,Bot*
G04 #@! TF.FilePolarity,Negative*
%FSLAX46Y46*%
G04 Gerber Fmt 4.6, Leading zero omitted, Abs format (unit mm)*
G04 Created by KiCad (PCBNEW (5.1.9)-1) date 2021-11-21 23:13:33*
%MOMM*%
%LPD*%
G01*
G04 APERTURE LIST*
%ADD10O,1.600000X1.600000*%
%ADD11R,1.600000X1.600000*%
%ADD12O,1.700000X1.700000*%
%ADD13R,1.700000X1.700000*%
G04 APERTURE END LIST*
D10*
X178420000Y-79000000D03*
X170800000Y-94240000D03*
X178420000Y-81540000D03*
X170800000Y-91700000D03*
X178420000Y-84080000D03*
X170800000Y-89160000D03*
X178420000Y-86620000D03*
X170800000Y-86620000D03*
X178420000Y-89160000D03*
X170800000Y-84080000D03*
X178420000Y-91700000D03*
X170800000Y-81540000D03*
X178420000Y-94240000D03*
D11*
X170800000Y-79000000D03*
D10*
X138800000Y-82980000D03*
X156580000Y-90600000D03*
X141340000Y-82980000D03*
X154040000Y-90600000D03*
X143880000Y-82980000D03*
X151500000Y-90600000D03*
X146420000Y-82980000D03*
X148960000Y-90600000D03*
X148960000Y-82980000D03*
X146420000Y-90600000D03*
X151500000Y-82980000D03*
X143880000Y-90600000D03*
X154040000Y-82980000D03*
X141340000Y-90600000D03*
X156580000Y-82980000D03*
D11*
X138800000Y-90600000D03*
D12*
X89000000Y-124340000D03*
X89000000Y-121800000D03*
X89000000Y-119260000D03*
X89000000Y-116720000D03*
X89000000Y-114180000D03*
X89000000Y-111640000D03*
X89000000Y-109100000D03*
D13*
X89000000Y-106560000D03*
D12*
X89000000Y-75380000D03*
X89000000Y-72840000D03*
X89000000Y-70300000D03*
X89000000Y-67760000D03*
X89000000Y-65220000D03*
X89000000Y-62680000D03*
X89000000Y-60140000D03*
D13*
X89000000Y-57600000D03*
D10*
X122920000Y-58860000D03*
X115300000Y-76640000D03*
X122920000Y-61400000D03*
X115300000Y-74100000D03*
X122920000Y-63940000D03*
X115300000Y-71560000D03*
X122920000Y-66480000D03*
X115300000Y-69020000D03*
X122920000Y-69020000D03*
X115300000Y-66480000D03*
X122920000Y-71560000D03*
X115300000Y-63940000D03*
X122920000Y-74100000D03*
X115300000Y-61400000D03*
X122920000Y-76640000D03*
D11*
X115300000Y-58860000D03*
D10*
X107720000Y-58860000D03*
X100100000Y-76640000D03*
X107720000Y-61400000D03*
X100100000Y-74100000D03*
X107720000Y-63940000D03*
X100100000Y-71560000D03*
X107720000Y-66480000D03*
X100100000Y-69020000D03*
X107720000Y-69020000D03*
X100100000Y-66480000D03*
X107720000Y-71560000D03*
X100100000Y-63940000D03*
X107720000Y-74100000D03*
X100100000Y-61400000D03*
X107720000Y-76640000D03*
D11*
X100100000Y-58860000D03*
D10*
X104700000Y-115780000D03*
X127560000Y-123400000D03*
X107240000Y-115780000D03*
X125020000Y-123400000D03*
X109780000Y-115780000D03*
X122480000Y-123400000D03*
X112320000Y-115780000D03*
X119940000Y-123400000D03*
X114860000Y-115780000D03*
X117400000Y-123400000D03*
X117400000Y-115780000D03*
X114860000Y-123400000D03*
X119940000Y-115780000D03*
X112320000Y-123400000D03*
X122480000Y-115780000D03*
X109780000Y-123400000D03*
X125020000Y-115780000D03*
X107240000Y-123400000D03*
X127560000Y-115780000D03*
D11*
X104700000Y-123400000D03*
D10*
X105100000Y-97380000D03*
X127960000Y-105000000D03*
X107640000Y-97380000D03*
X125420000Y-105000000D03*
X110180000Y-97380000D03*
X122880000Y-105000000D03*
X112720000Y-97380000D03*
X120340000Y-105000000D03*
X115260000Y-97380000D03*
X117800000Y-105000000D03*
X117800000Y-97380000D03*
X115260000Y-105000000D03*
X120340000Y-97380000D03*
X112720000Y-105000000D03*
X122880000Y-97380000D03*
X110180000Y-105000000D03*
X125420000Y-97380000D03*
X107640000Y-105000000D03*
X127960000Y-97380000D03*
D11*
X105100000Y-105000000D03*
D12*
X185460000Y-136000000D03*
X182920000Y-136000000D03*
X180380000Y-136000000D03*
X177840000Y-136000000D03*
X175300000Y-136000000D03*
X172760000Y-136000000D03*
X170220000Y-136000000D03*
X167680000Y-136000000D03*
X165140000Y-136000000D03*
X162600000Y-136000000D03*
X160060000Y-136000000D03*
X157520000Y-136000000D03*
X154980000Y-136000000D03*
X152440000Y-136000000D03*
X149900000Y-136000000D03*
X147360000Y-136000000D03*
X144820000Y-136000000D03*
X142280000Y-136000000D03*
X139740000Y-136000000D03*
X137200000Y-136000000D03*
X134660000Y-136000000D03*
X132120000Y-136000000D03*
X129580000Y-136000000D03*
X127040000Y-136000000D03*
X124500000Y-136000000D03*
X121960000Y-136000000D03*
X119420000Y-136000000D03*
X116880000Y-136000000D03*
X114340000Y-136000000D03*
X111800000Y-136000000D03*
X109260000Y-136000000D03*
X106720000Y-136000000D03*
X104180000Y-136000000D03*
X101640000Y-136000000D03*
X99100000Y-136000000D03*
X96560000Y-136000000D03*
X94020000Y-136000000D03*
X91480000Y-136000000D03*
X88940000Y-136000000D03*
D13*
X86400000Y-136000000D03*
D12*
X185460000Y-46000000D03*
X182920000Y-46000000D03*
X180380000Y-46000000D03*
X177840000Y-46000000D03*
X175300000Y-46000000D03*
X172760000Y-46000000D03*
X170220000Y-46000000D03*
X167680000Y-46000000D03*
X165140000Y-46000000D03*
X162600000Y-46000000D03*
X160060000Y-46000000D03*
X157520000Y-46000000D03*
X154980000Y-46000000D03*
X152440000Y-46000000D03*
X149900000Y-46000000D03*
X147360000Y-46000000D03*
X144820000Y-46000000D03*
X142280000Y-46000000D03*
X139740000Y-46000000D03*
X137200000Y-46000000D03*
X134660000Y-46000000D03*
X132120000Y-46000000D03*
X129580000Y-46000000D03*
X127040000Y-46000000D03*
X124500000Y-46000000D03*
X121960000Y-46000000D03*
X119420000Y-46000000D03*
X116880000Y-46000000D03*
X114340000Y-46000000D03*
X111800000Y-46000000D03*
X109260000Y-46000000D03*
X106720000Y-46000000D03*
X104180000Y-46000000D03*
X101640000Y-46000000D03*
X99100000Y-46000000D03*
X96560000Y-46000000D03*
X94020000Y-46000000D03*
X91480000Y-46000000D03*
X88940000Y-46000000D03*
D13*
X86400000Y-46000000D03*
M02*
