%FSLAX45Y45*%
G04 Gerber Fmt 4.5, Leading zero omitted, Abs format (unit mm)*
G04 Created by KiCad (PCBNEW (5.1.9)-1) date 2021-10-03 21:23:25*
%MOMM*%
%LPD*%
G01*
G04 APERTURE LIST*
%TA.AperFunction,Profile*%
%ADD10C,0.100000*%
%TD*%
%ADD11C,0.200000*%
%ADD12C,0.300000*%
G04 APERTURE END LIST*
D10*
X8500000Y-13900000D02*
X8500000Y-4300000D01*
X18700000Y-13900000D02*
X8500000Y-13900000D01*
X18700000Y-4300000D02*
X18700000Y-13900000D01*
X8500000Y-4300000D02*
X18700000Y-4300000D01*
D11*
X8590000Y-4550000D02*
X8690000Y-4650000D01*
X8690000Y-4550000D02*
X8590000Y-4650000D01*
X8590000Y-13550000D02*
X8690000Y-13650000D01*
X8690000Y-13550000D02*
X8590000Y-13650000D01*
X8840000Y-5710000D02*
X8940000Y-5810000D01*
X8940000Y-5710000D02*
X8840000Y-5810000D01*
X8840000Y-5964000D02*
X8940000Y-6064000D01*
X8940000Y-5964000D02*
X8840000Y-6064000D01*
X8840000Y-6218000D02*
X8940000Y-6318000D01*
X8940000Y-6218000D02*
X8840000Y-6318000D01*
X8840000Y-6472000D02*
X8940000Y-6572000D01*
X8940000Y-6472000D02*
X8840000Y-6572000D01*
X8840000Y-6726000D02*
X8940000Y-6826000D01*
X8940000Y-6726000D02*
X8840000Y-6826000D01*
X8840000Y-6980000D02*
X8940000Y-7080000D01*
X8940000Y-6980000D02*
X8840000Y-7080000D01*
X8840000Y-7234000D02*
X8940000Y-7334000D01*
X8940000Y-7234000D02*
X8840000Y-7334000D01*
X8840000Y-7488000D02*
X8940000Y-7588000D01*
X8940000Y-7488000D02*
X8840000Y-7588000D01*
X8844000Y-4550000D02*
X8944000Y-4650000D01*
X8944000Y-4550000D02*
X8844000Y-4650000D01*
X8844000Y-13550000D02*
X8944000Y-13650000D01*
X8944000Y-13550000D02*
X8844000Y-13650000D01*
X8849000Y-10610000D02*
X8949000Y-10710000D01*
X8949000Y-10610000D02*
X8849000Y-10710000D01*
X8849000Y-10864000D02*
X8949000Y-10964000D01*
X8949000Y-10864000D02*
X8849000Y-10964000D01*
X8849000Y-11118000D02*
X8949000Y-11218000D01*
X8949000Y-11118000D02*
X8849000Y-11218000D01*
X8849000Y-11372000D02*
X8949000Y-11472000D01*
X8949000Y-11372000D02*
X8849000Y-11472000D01*
X8849000Y-11626000D02*
X8949000Y-11726000D01*
X8949000Y-11626000D02*
X8849000Y-11726000D01*
X8849000Y-11880000D02*
X8949000Y-11980000D01*
X8949000Y-11880000D02*
X8849000Y-11980000D01*
X8849000Y-12134000D02*
X8949000Y-12234000D01*
X8949000Y-12134000D02*
X8849000Y-12234000D01*
X8849000Y-12388000D02*
X8949000Y-12488000D01*
X8949000Y-12388000D02*
X8849000Y-12488000D01*
X9094000Y-5710000D02*
X9194000Y-5810000D01*
X9194000Y-5710000D02*
X9094000Y-5810000D01*
X9094000Y-5964000D02*
X9194000Y-6064000D01*
X9194000Y-5964000D02*
X9094000Y-6064000D01*
X9094000Y-6218000D02*
X9194000Y-6318000D01*
X9194000Y-6218000D02*
X9094000Y-6318000D01*
X9094000Y-6472000D02*
X9194000Y-6572000D01*
X9194000Y-6472000D02*
X9094000Y-6572000D01*
X9094000Y-6726000D02*
X9194000Y-6826000D01*
X9194000Y-6726000D02*
X9094000Y-6826000D01*
X9094000Y-6980000D02*
X9194000Y-7080000D01*
X9194000Y-6980000D02*
X9094000Y-7080000D01*
X9094000Y-7234000D02*
X9194000Y-7334000D01*
X9194000Y-7234000D02*
X9094000Y-7334000D01*
X9094000Y-7488000D02*
X9194000Y-7588000D01*
X9194000Y-7488000D02*
X9094000Y-7588000D01*
X9098000Y-4550000D02*
X9198000Y-4650000D01*
X9198000Y-4550000D02*
X9098000Y-4650000D01*
X9098000Y-13550000D02*
X9198000Y-13650000D01*
X9198000Y-13550000D02*
X9098000Y-13650000D01*
X9103000Y-10610000D02*
X9203000Y-10710000D01*
X9203000Y-10610000D02*
X9103000Y-10710000D01*
X9103000Y-10864000D02*
X9203000Y-10964000D01*
X9203000Y-10864000D02*
X9103000Y-10964000D01*
X9103000Y-11118000D02*
X9203000Y-11218000D01*
X9203000Y-11118000D02*
X9103000Y-11218000D01*
X9103000Y-11372000D02*
X9203000Y-11472000D01*
X9203000Y-11372000D02*
X9103000Y-11472000D01*
X9103000Y-11626000D02*
X9203000Y-11726000D01*
X9203000Y-11626000D02*
X9103000Y-11726000D01*
X9103000Y-11880000D02*
X9203000Y-11980000D01*
X9203000Y-11880000D02*
X9103000Y-11980000D01*
X9103000Y-12134000D02*
X9203000Y-12234000D01*
X9203000Y-12134000D02*
X9103000Y-12234000D01*
X9103000Y-12388000D02*
X9203000Y-12488000D01*
X9203000Y-12388000D02*
X9103000Y-12488000D01*
X9352000Y-4550000D02*
X9452000Y-4650000D01*
X9452000Y-4550000D02*
X9352000Y-4650000D01*
X9352000Y-13550000D02*
X9452000Y-13650000D01*
X9452000Y-13550000D02*
X9352000Y-13650000D01*
X9606000Y-4550000D02*
X9706000Y-4650000D01*
X9706000Y-4550000D02*
X9606000Y-4650000D01*
X9606000Y-13550000D02*
X9706000Y-13650000D01*
X9706000Y-13550000D02*
X9606000Y-13650000D01*
X9860000Y-4550000D02*
X9960000Y-4650000D01*
X9960000Y-4550000D02*
X9860000Y-4650000D01*
X9860000Y-13550000D02*
X9960000Y-13650000D01*
X9960000Y-13550000D02*
X9860000Y-13650000D01*
X10114000Y-4550000D02*
X10214000Y-4650000D01*
X10214000Y-4550000D02*
X10114000Y-4650000D01*
X10114000Y-13550000D02*
X10214000Y-13650000D01*
X10214000Y-13550000D02*
X10114000Y-13650000D01*
X10368000Y-4550000D02*
X10468000Y-4650000D01*
X10468000Y-4550000D02*
X10368000Y-4650000D01*
X10368000Y-13550000D02*
X10468000Y-13650000D01*
X10468000Y-13550000D02*
X10368000Y-13650000D01*
X10622000Y-4550000D02*
X10722000Y-4650000D01*
X10722000Y-4550000D02*
X10622000Y-4650000D01*
X10622000Y-13550000D02*
X10722000Y-13650000D01*
X10722000Y-13550000D02*
X10622000Y-13650000D01*
X10876000Y-4550000D02*
X10976000Y-4650000D01*
X10976000Y-4550000D02*
X10876000Y-4650000D01*
X10876000Y-13550000D02*
X10976000Y-13650000D01*
X10976000Y-13550000D02*
X10876000Y-13650000D01*
X11130000Y-4550000D02*
X11230000Y-4650000D01*
X11230000Y-4550000D02*
X11130000Y-4650000D01*
X11130000Y-13550000D02*
X11230000Y-13650000D01*
X11230000Y-13550000D02*
X11130000Y-13650000D01*
X11384000Y-4550000D02*
X11484000Y-4650000D01*
X11484000Y-4550000D02*
X11384000Y-4650000D01*
X11384000Y-13550000D02*
X11484000Y-13650000D01*
X11484000Y-13550000D02*
X11384000Y-13650000D01*
X11638000Y-4550000D02*
X11738000Y-4650000D01*
X11738000Y-4550000D02*
X11638000Y-4650000D01*
X11638000Y-13550000D02*
X11738000Y-13650000D01*
X11738000Y-13550000D02*
X11638000Y-13650000D01*
X11892000Y-4550000D02*
X11992000Y-4650000D01*
X11992000Y-4550000D02*
X11892000Y-4650000D01*
X11892000Y-13550000D02*
X11992000Y-13650000D01*
X11992000Y-13550000D02*
X11892000Y-13650000D01*
X12146000Y-4550000D02*
X12246000Y-4650000D01*
X12246000Y-4550000D02*
X12146000Y-4650000D01*
X12146000Y-13550000D02*
X12246000Y-13650000D01*
X12246000Y-13550000D02*
X12146000Y-13650000D01*
X12400000Y-4550000D02*
X12500000Y-4650000D01*
X12500000Y-4550000D02*
X12400000Y-4650000D01*
X12400000Y-13550000D02*
X12500000Y-13650000D01*
X12500000Y-13550000D02*
X12400000Y-13650000D01*
X12654000Y-4550000D02*
X12754000Y-4650000D01*
X12754000Y-4550000D02*
X12654000Y-4650000D01*
X12654000Y-13550000D02*
X12754000Y-13650000D01*
X12754000Y-13550000D02*
X12654000Y-13650000D01*
X12908000Y-4550000D02*
X13008000Y-4650000D01*
X13008000Y-4550000D02*
X12908000Y-4650000D01*
X12908000Y-13550000D02*
X13008000Y-13650000D01*
X13008000Y-13550000D02*
X12908000Y-13650000D01*
X13162000Y-4550000D02*
X13262000Y-4650000D01*
X13262000Y-4550000D02*
X13162000Y-4650000D01*
X13162000Y-13550000D02*
X13262000Y-13650000D01*
X13262000Y-13550000D02*
X13162000Y-13650000D01*
X13416000Y-4550000D02*
X13516000Y-4650000D01*
X13516000Y-4550000D02*
X13416000Y-4650000D01*
X13416000Y-13550000D02*
X13516000Y-13650000D01*
X13516000Y-13550000D02*
X13416000Y-13650000D01*
X13670000Y-4550000D02*
X13770000Y-4650000D01*
X13770000Y-4550000D02*
X13670000Y-4650000D01*
X13670000Y-13550000D02*
X13770000Y-13650000D01*
X13770000Y-13550000D02*
X13670000Y-13650000D01*
X13924000Y-4550000D02*
X14024000Y-4650000D01*
X14024000Y-4550000D02*
X13924000Y-4650000D01*
X13924000Y-13550000D02*
X14024000Y-13650000D01*
X14024000Y-13550000D02*
X13924000Y-13650000D01*
X14178000Y-4550000D02*
X14278000Y-4650000D01*
X14278000Y-4550000D02*
X14178000Y-4650000D01*
X14178000Y-13550000D02*
X14278000Y-13650000D01*
X14278000Y-13550000D02*
X14178000Y-13650000D01*
X14432000Y-4550000D02*
X14532000Y-4650000D01*
X14532000Y-4550000D02*
X14432000Y-4650000D01*
X14432000Y-13550000D02*
X14532000Y-13650000D01*
X14532000Y-13550000D02*
X14432000Y-13650000D01*
X14686000Y-4550000D02*
X14786000Y-4650000D01*
X14786000Y-4550000D02*
X14686000Y-4650000D01*
X14686000Y-13550000D02*
X14786000Y-13650000D01*
X14786000Y-13550000D02*
X14686000Y-13650000D01*
X14940000Y-4550000D02*
X15040000Y-4650000D01*
X15040000Y-4550000D02*
X14940000Y-4650000D01*
X14940000Y-13550000D02*
X15040000Y-13650000D01*
X15040000Y-13550000D02*
X14940000Y-13650000D01*
X15194000Y-4550000D02*
X15294000Y-4650000D01*
X15294000Y-4550000D02*
X15194000Y-4650000D01*
X15194000Y-13550000D02*
X15294000Y-13650000D01*
X15294000Y-13550000D02*
X15194000Y-13650000D01*
X15448000Y-4550000D02*
X15548000Y-4650000D01*
X15548000Y-4550000D02*
X15448000Y-4650000D01*
X15448000Y-13550000D02*
X15548000Y-13650000D01*
X15548000Y-13550000D02*
X15448000Y-13650000D01*
X15702000Y-4550000D02*
X15802000Y-4650000D01*
X15802000Y-4550000D02*
X15702000Y-4650000D01*
X15702000Y-13550000D02*
X15802000Y-13650000D01*
X15802000Y-13550000D02*
X15702000Y-13650000D01*
X15956000Y-4550000D02*
X16056000Y-4650000D01*
X16056000Y-4550000D02*
X15956000Y-4650000D01*
X15956000Y-13550000D02*
X16056000Y-13650000D01*
X16056000Y-13550000D02*
X15956000Y-13650000D01*
X16210000Y-4550000D02*
X16310000Y-4650000D01*
X16310000Y-4550000D02*
X16210000Y-4650000D01*
X16210000Y-13550000D02*
X16310000Y-13650000D01*
X16310000Y-13550000D02*
X16210000Y-13650000D01*
X16464000Y-4550000D02*
X16564000Y-4650000D01*
X16564000Y-4550000D02*
X16464000Y-4650000D01*
X16464000Y-13550000D02*
X16564000Y-13650000D01*
X16564000Y-13550000D02*
X16464000Y-13650000D01*
X16718000Y-4550000D02*
X16818000Y-4650000D01*
X16818000Y-4550000D02*
X16718000Y-4650000D01*
X16718000Y-13550000D02*
X16818000Y-13650000D01*
X16818000Y-13550000D02*
X16718000Y-13650000D01*
X16972000Y-4550000D02*
X17072000Y-4650000D01*
X17072000Y-4550000D02*
X16972000Y-4650000D01*
X16972000Y-13550000D02*
X17072000Y-13650000D01*
X17072000Y-13550000D02*
X16972000Y-13650000D01*
X17226000Y-4550000D02*
X17326000Y-4650000D01*
X17326000Y-4550000D02*
X17226000Y-4650000D01*
X17226000Y-13550000D02*
X17326000Y-13650000D01*
X17326000Y-13550000D02*
X17226000Y-13650000D01*
X17480000Y-4550000D02*
X17580000Y-4650000D01*
X17580000Y-4550000D02*
X17480000Y-4650000D01*
X17480000Y-13550000D02*
X17580000Y-13650000D01*
X17580000Y-13550000D02*
X17480000Y-13650000D01*
X17734000Y-4550000D02*
X17834000Y-4650000D01*
X17834000Y-4550000D02*
X17734000Y-4650000D01*
X17734000Y-13550000D02*
X17834000Y-13650000D01*
X17834000Y-13550000D02*
X17734000Y-13650000D01*
X17986000Y-5710000D02*
X18086000Y-5810000D01*
X18086000Y-5710000D02*
X17986000Y-5810000D01*
X17986000Y-5964000D02*
X18086000Y-6064000D01*
X18086000Y-5964000D02*
X17986000Y-6064000D01*
X17986000Y-6218000D02*
X18086000Y-6318000D01*
X18086000Y-6218000D02*
X17986000Y-6318000D01*
X17986000Y-6472000D02*
X18086000Y-6572000D01*
X18086000Y-6472000D02*
X17986000Y-6572000D01*
X17986000Y-6726000D02*
X18086000Y-6826000D01*
X18086000Y-6726000D02*
X17986000Y-6826000D01*
X17986000Y-6980000D02*
X18086000Y-7080000D01*
X18086000Y-6980000D02*
X17986000Y-7080000D01*
X17986000Y-7234000D02*
X18086000Y-7334000D01*
X18086000Y-7234000D02*
X17986000Y-7334000D01*
X17986000Y-7488000D02*
X18086000Y-7588000D01*
X18086000Y-7488000D02*
X17986000Y-7588000D01*
X17986000Y-10610000D02*
X18086000Y-10710000D01*
X18086000Y-10610000D02*
X17986000Y-10710000D01*
X17986000Y-10864000D02*
X18086000Y-10964000D01*
X18086000Y-10864000D02*
X17986000Y-10964000D01*
X17986000Y-11118000D02*
X18086000Y-11218000D01*
X18086000Y-11118000D02*
X17986000Y-11218000D01*
X17986000Y-11372000D02*
X18086000Y-11472000D01*
X18086000Y-11372000D02*
X17986000Y-11472000D01*
X17986000Y-11626000D02*
X18086000Y-11726000D01*
X18086000Y-11626000D02*
X17986000Y-11726000D01*
X17986000Y-11880000D02*
X18086000Y-11980000D01*
X18086000Y-11880000D02*
X17986000Y-11980000D01*
X17986000Y-12134000D02*
X18086000Y-12234000D01*
X18086000Y-12134000D02*
X17986000Y-12234000D01*
X17986000Y-12388000D02*
X18086000Y-12488000D01*
X18086000Y-12388000D02*
X17986000Y-12488000D01*
X17988000Y-4550000D02*
X18088000Y-4650000D01*
X18088000Y-4550000D02*
X17988000Y-4650000D01*
X17988000Y-13550000D02*
X18088000Y-13650000D01*
X18088000Y-13550000D02*
X17988000Y-13650000D01*
X18240000Y-5710000D02*
X18340000Y-5810000D01*
X18340000Y-5710000D02*
X18240000Y-5810000D01*
X18240000Y-5964000D02*
X18340000Y-6064000D01*
X18340000Y-5964000D02*
X18240000Y-6064000D01*
X18240000Y-6218000D02*
X18340000Y-6318000D01*
X18340000Y-6218000D02*
X18240000Y-6318000D01*
X18240000Y-6472000D02*
X18340000Y-6572000D01*
X18340000Y-6472000D02*
X18240000Y-6572000D01*
X18240000Y-6726000D02*
X18340000Y-6826000D01*
X18340000Y-6726000D02*
X18240000Y-6826000D01*
X18240000Y-6980000D02*
X18340000Y-7080000D01*
X18340000Y-6980000D02*
X18240000Y-7080000D01*
X18240000Y-7234000D02*
X18340000Y-7334000D01*
X18340000Y-7234000D02*
X18240000Y-7334000D01*
X18240000Y-7488000D02*
X18340000Y-7588000D01*
X18340000Y-7488000D02*
X18240000Y-7588000D01*
X18240000Y-10610000D02*
X18340000Y-10710000D01*
X18340000Y-10610000D02*
X18240000Y-10710000D01*
X18240000Y-10864000D02*
X18340000Y-10964000D01*
X18340000Y-10864000D02*
X18240000Y-10964000D01*
X18240000Y-11118000D02*
X18340000Y-11218000D01*
X18340000Y-11118000D02*
X18240000Y-11218000D01*
X18240000Y-11372000D02*
X18340000Y-11472000D01*
X18340000Y-11372000D02*
X18240000Y-11472000D01*
X18240000Y-11626000D02*
X18340000Y-11726000D01*
X18340000Y-11626000D02*
X18240000Y-11726000D01*
X18240000Y-11880000D02*
X18340000Y-11980000D01*
X18340000Y-11880000D02*
X18240000Y-11980000D01*
X18240000Y-12134000D02*
X18340000Y-12234000D01*
X18340000Y-12134000D02*
X18240000Y-12234000D01*
X18240000Y-12388000D02*
X18340000Y-12488000D01*
X18340000Y-12388000D02*
X18240000Y-12488000D01*
X18242000Y-4550000D02*
X18342000Y-4650000D01*
X18342000Y-4550000D02*
X18242000Y-4650000D01*
X18242000Y-13550000D02*
X18342000Y-13650000D01*
X18342000Y-13550000D02*
X18242000Y-13650000D01*
X18496000Y-4550000D02*
X18596000Y-4650000D01*
X18596000Y-4550000D02*
X18496000Y-4650000D01*
X18496000Y-13550000D02*
X18596000Y-13650000D01*
X18596000Y-13550000D02*
X18496000Y-13650000D01*
D12*
X8781428Y-14370714D02*
X8781428Y-14070714D01*
X8852857Y-14070714D01*
X8895714Y-14085000D01*
X8924286Y-14113571D01*
X8938571Y-14142143D01*
X8952857Y-14199286D01*
X8952857Y-14242143D01*
X8938571Y-14299286D01*
X8924286Y-14327857D01*
X8895714Y-14356429D01*
X8852857Y-14370714D01*
X8781428Y-14370714D01*
X9081428Y-14370714D02*
X9081428Y-14170714D01*
X9081428Y-14227857D02*
X9095714Y-14199286D01*
X9110000Y-14185000D01*
X9138571Y-14170714D01*
X9167143Y-14170714D01*
X9267143Y-14370714D02*
X9267143Y-14170714D01*
X9267143Y-14070714D02*
X9252857Y-14085000D01*
X9267143Y-14099286D01*
X9281428Y-14085000D01*
X9267143Y-14070714D01*
X9267143Y-14099286D01*
X9452857Y-14370714D02*
X9424286Y-14356429D01*
X9410000Y-14327857D01*
X9410000Y-14070714D01*
X9610000Y-14370714D02*
X9581428Y-14356429D01*
X9567143Y-14327857D01*
X9567143Y-14070714D01*
X9952857Y-14370714D02*
X9952857Y-14070714D01*
X10052857Y-14285000D01*
X10152857Y-14070714D01*
X10152857Y-14370714D01*
X10424286Y-14370714D02*
X10424286Y-14213571D01*
X10410000Y-14185000D01*
X10381428Y-14170714D01*
X10324286Y-14170714D01*
X10295714Y-14185000D01*
X10424286Y-14356429D02*
X10395714Y-14370714D01*
X10324286Y-14370714D01*
X10295714Y-14356429D01*
X10281428Y-14327857D01*
X10281428Y-14299286D01*
X10295714Y-14270714D01*
X10324286Y-14256429D01*
X10395714Y-14256429D01*
X10424286Y-14242143D01*
X10567143Y-14170714D02*
X10567143Y-14470714D01*
X10567143Y-14185000D02*
X10595714Y-14170714D01*
X10652857Y-14170714D01*
X10681428Y-14185000D01*
X10695714Y-14199286D01*
X10710000Y-14227857D01*
X10710000Y-14313571D01*
X10695714Y-14342143D01*
X10681428Y-14356429D01*
X10652857Y-14370714D01*
X10595714Y-14370714D01*
X10567143Y-14356429D01*
X10838571Y-14342143D02*
X10852857Y-14356429D01*
X10838571Y-14370714D01*
X10824286Y-14356429D01*
X10838571Y-14342143D01*
X10838571Y-14370714D01*
X10838571Y-14185000D02*
X10852857Y-14199286D01*
X10838571Y-14213571D01*
X10824286Y-14199286D01*
X10838571Y-14185000D01*
X10838571Y-14213571D01*
X8395000Y-14815000D02*
X8495000Y-14915000D01*
X8495000Y-14815000D02*
X8395000Y-14915000D01*
X8938571Y-15000714D02*
X8767143Y-15000714D01*
X8852857Y-15000714D02*
X8852857Y-14700714D01*
X8824286Y-14743571D01*
X8795714Y-14772143D01*
X8767143Y-14786429D01*
X9067143Y-14972143D02*
X9081428Y-14986429D01*
X9067143Y-15000714D01*
X9052857Y-14986429D01*
X9067143Y-14972143D01*
X9067143Y-15000714D01*
X9267143Y-14700714D02*
X9295714Y-14700714D01*
X9324286Y-14715000D01*
X9338571Y-14729286D01*
X9352857Y-14757857D01*
X9367143Y-14815000D01*
X9367143Y-14886429D01*
X9352857Y-14943571D01*
X9338571Y-14972143D01*
X9324286Y-14986429D01*
X9295714Y-15000714D01*
X9267143Y-15000714D01*
X9238571Y-14986429D01*
X9224286Y-14972143D01*
X9210000Y-14943571D01*
X9195714Y-14886429D01*
X9195714Y-14815000D01*
X9210000Y-14757857D01*
X9224286Y-14729286D01*
X9238571Y-14715000D01*
X9267143Y-14700714D01*
X9552857Y-14700714D02*
X9581428Y-14700714D01*
X9610000Y-14715000D01*
X9624286Y-14729286D01*
X9638571Y-14757857D01*
X9652857Y-14815000D01*
X9652857Y-14886429D01*
X9638571Y-14943571D01*
X9624286Y-14972143D01*
X9610000Y-14986429D01*
X9581428Y-15000714D01*
X9552857Y-15000714D01*
X9524286Y-14986429D01*
X9510000Y-14972143D01*
X9495714Y-14943571D01*
X9481428Y-14886429D01*
X9481428Y-14815000D01*
X9495714Y-14757857D01*
X9510000Y-14729286D01*
X9524286Y-14715000D01*
X9552857Y-14700714D01*
X9781428Y-15000714D02*
X9781428Y-14800714D01*
X9781428Y-14829286D02*
X9795714Y-14815000D01*
X9824286Y-14800714D01*
X9867143Y-14800714D01*
X9895714Y-14815000D01*
X9910000Y-14843571D01*
X9910000Y-15000714D01*
X9910000Y-14843571D02*
X9924286Y-14815000D01*
X9952857Y-14800714D01*
X9995714Y-14800714D01*
X10024286Y-14815000D01*
X10038571Y-14843571D01*
X10038571Y-15000714D01*
X10181428Y-15000714D02*
X10181428Y-14800714D01*
X10181428Y-14829286D02*
X10195714Y-14815000D01*
X10224286Y-14800714D01*
X10267143Y-14800714D01*
X10295714Y-14815000D01*
X10310000Y-14843571D01*
X10310000Y-15000714D01*
X10310000Y-14843571D02*
X10324286Y-14815000D01*
X10352857Y-14800714D01*
X10395714Y-14800714D01*
X10424286Y-14815000D01*
X10438571Y-14843571D01*
X10438571Y-15000714D01*
X11024286Y-14686429D02*
X10767143Y-15072143D01*
X11410000Y-14700714D02*
X11438571Y-14700714D01*
X11467143Y-14715000D01*
X11481428Y-14729286D01*
X11495714Y-14757857D01*
X11510000Y-14815000D01*
X11510000Y-14886429D01*
X11495714Y-14943571D01*
X11481428Y-14972143D01*
X11467143Y-14986429D01*
X11438571Y-15000714D01*
X11410000Y-15000714D01*
X11381428Y-14986429D01*
X11367143Y-14972143D01*
X11352857Y-14943571D01*
X11338571Y-14886429D01*
X11338571Y-14815000D01*
X11352857Y-14757857D01*
X11367143Y-14729286D01*
X11381428Y-14715000D01*
X11410000Y-14700714D01*
X11638571Y-14972143D02*
X11652857Y-14986429D01*
X11638571Y-15000714D01*
X11624286Y-14986429D01*
X11638571Y-14972143D01*
X11638571Y-15000714D01*
X11838571Y-14700714D02*
X11867143Y-14700714D01*
X11895714Y-14715000D01*
X11910000Y-14729286D01*
X11924286Y-14757857D01*
X11938571Y-14815000D01*
X11938571Y-14886429D01*
X11924286Y-14943571D01*
X11910000Y-14972143D01*
X11895714Y-14986429D01*
X11867143Y-15000714D01*
X11838571Y-15000714D01*
X11810000Y-14986429D01*
X11795714Y-14972143D01*
X11781428Y-14943571D01*
X11767143Y-14886429D01*
X11767143Y-14815000D01*
X11781428Y-14757857D01*
X11795714Y-14729286D01*
X11810000Y-14715000D01*
X11838571Y-14700714D01*
X12038571Y-14700714D02*
X12224286Y-14700714D01*
X12124286Y-14815000D01*
X12167143Y-14815000D01*
X12195714Y-14829286D01*
X12210000Y-14843571D01*
X12224286Y-14872143D01*
X12224286Y-14943571D01*
X12210000Y-14972143D01*
X12195714Y-14986429D01*
X12167143Y-15000714D01*
X12081428Y-15000714D01*
X12052857Y-14986429D01*
X12038571Y-14972143D01*
X12367143Y-15000714D02*
X12424286Y-15000714D01*
X12452857Y-14986429D01*
X12467143Y-14972143D01*
X12495714Y-14929286D01*
X12510000Y-14872143D01*
X12510000Y-14757857D01*
X12495714Y-14729286D01*
X12481428Y-14715000D01*
X12452857Y-14700714D01*
X12395714Y-14700714D01*
X12367143Y-14715000D01*
X12352857Y-14729286D01*
X12338571Y-14757857D01*
X12338571Y-14829286D01*
X12352857Y-14857857D01*
X12367143Y-14872143D01*
X12395714Y-14886429D01*
X12452857Y-14886429D01*
X12481428Y-14872143D01*
X12495714Y-14857857D01*
X12510000Y-14829286D01*
X12624286Y-14700714D02*
X12624286Y-14757857D01*
X12738571Y-14700714D02*
X12738571Y-14757857D01*
X13181428Y-15115000D02*
X13167143Y-15100714D01*
X13138571Y-15057857D01*
X13124286Y-15029286D01*
X13110000Y-14986429D01*
X13095714Y-14915000D01*
X13095714Y-14857857D01*
X13110000Y-14786429D01*
X13124286Y-14743571D01*
X13138571Y-14715000D01*
X13167143Y-14672143D01*
X13181428Y-14657857D01*
X13452857Y-15000714D02*
X13281428Y-15000714D01*
X13367143Y-15000714D02*
X13367143Y-14700714D01*
X13338571Y-14743571D01*
X13310000Y-14772143D01*
X13281428Y-14786429D01*
X13710000Y-14800714D02*
X13710000Y-15000714D01*
X13638571Y-14686429D02*
X13567143Y-14900714D01*
X13752857Y-14900714D01*
X13995714Y-14800714D02*
X13995714Y-15000714D01*
X13924286Y-14686429D02*
X13852857Y-14900714D01*
X14038571Y-14900714D01*
X14381428Y-15000714D02*
X14381428Y-14700714D01*
X14510000Y-15000714D02*
X14510000Y-14843571D01*
X14495714Y-14815000D01*
X14467143Y-14800714D01*
X14424286Y-14800714D01*
X14395714Y-14815000D01*
X14381428Y-14829286D01*
X14695714Y-15000714D02*
X14667143Y-14986429D01*
X14652857Y-14972143D01*
X14638571Y-14943571D01*
X14638571Y-14857857D01*
X14652857Y-14829286D01*
X14667143Y-14815000D01*
X14695714Y-14800714D01*
X14738571Y-14800714D01*
X14767143Y-14815000D01*
X14781428Y-14829286D01*
X14795714Y-14857857D01*
X14795714Y-14943571D01*
X14781428Y-14972143D01*
X14767143Y-14986429D01*
X14738571Y-15000714D01*
X14695714Y-15000714D01*
X14967143Y-15000714D02*
X14938571Y-14986429D01*
X14924286Y-14957857D01*
X14924286Y-14700714D01*
X15195714Y-14986429D02*
X15167143Y-15000714D01*
X15110000Y-15000714D01*
X15081428Y-14986429D01*
X15067143Y-14957857D01*
X15067143Y-14843571D01*
X15081428Y-14815000D01*
X15110000Y-14800714D01*
X15167143Y-14800714D01*
X15195714Y-14815000D01*
X15210000Y-14843571D01*
X15210000Y-14872143D01*
X15067143Y-14900714D01*
X15324286Y-14986429D02*
X15352857Y-15000714D01*
X15410000Y-15000714D01*
X15438571Y-14986429D01*
X15452857Y-14957857D01*
X15452857Y-14943571D01*
X15438571Y-14915000D01*
X15410000Y-14900714D01*
X15367143Y-14900714D01*
X15338571Y-14886429D01*
X15324286Y-14857857D01*
X15324286Y-14843571D01*
X15338571Y-14815000D01*
X15367143Y-14800714D01*
X15410000Y-14800714D01*
X15438571Y-14815000D01*
X15552857Y-15115000D02*
X15567143Y-15100714D01*
X15595714Y-15057857D01*
X15610000Y-15029286D01*
X15624286Y-14986429D01*
X15638571Y-14915000D01*
X15638571Y-14857857D01*
X15624286Y-14786429D01*
X15610000Y-14743571D01*
X15595714Y-14715000D01*
X15567143Y-14672143D01*
X15552857Y-14657857D01*
M02*
