M48
; DRILL file {KiCad (5.1.9)-1} date 10/03/21 21:23:27
; FORMAT={-:-/ absolute / metric / decimal}
; #@! TF.CreationDate,2021-10-03T21:23:27-04:00
; #@! TF.GenerationSoftware,Kicad,Pcbnew,(5.1.9)-1
; #@! TF.FileFunction,Plated,1,2,PTH
FMAT,2
METRIC
T1C1.000
%
G90
G05
T1
X86.4Y-46.0
X86.4Y-136.0
X88.9Y-57.6
X88.9Y-60.14
X88.9Y-62.68
X88.9Y-65.22
X88.9Y-67.76
X88.9Y-70.3
X88.9Y-72.84
X88.9Y-75.38
X88.94Y-46.0
X88.94Y-136.0
X88.99Y-106.6
X88.99Y-109.14
X88.99Y-111.68
X88.99Y-114.22
X88.99Y-116.76
X88.99Y-119.3
X88.99Y-121.84
X88.99Y-124.38
X91.44Y-57.6
X91.44Y-60.14
X91.44Y-62.68
X91.44Y-65.22
X91.44Y-67.76
X91.44Y-70.3
X91.44Y-72.84
X91.44Y-75.38
X91.48Y-46.0
X91.48Y-136.0
X91.53Y-106.6
X91.53Y-109.14
X91.53Y-111.68
X91.53Y-114.22
X91.53Y-116.76
X91.53Y-119.3
X91.53Y-121.84
X91.53Y-124.38
X94.02Y-46.0
X94.02Y-136.0
X96.56Y-46.0
X96.56Y-136.0
X99.1Y-46.0
X99.1Y-136.0
X101.64Y-46.0
X101.64Y-136.0
X104.18Y-46.0
X104.18Y-136.0
X106.72Y-46.0
X106.72Y-136.0
X109.26Y-46.0
X109.26Y-136.0
X111.8Y-46.0
X111.8Y-136.0
X114.34Y-46.0
X114.34Y-136.0
X116.88Y-46.0
X116.88Y-136.0
X119.42Y-46.0
X119.42Y-136.0
X121.96Y-46.0
X121.96Y-136.0
X124.5Y-46.0
X124.5Y-136.0
X127.04Y-46.0
X127.04Y-136.0
X129.58Y-46.0
X129.58Y-136.0
X132.12Y-46.0
X132.12Y-136.0
X134.66Y-46.0
X134.66Y-136.0
X137.2Y-46.0
X137.2Y-136.0
X139.74Y-46.0
X139.74Y-136.0
X142.28Y-46.0
X142.28Y-136.0
X144.82Y-46.0
X144.82Y-136.0
X147.36Y-46.0
X147.36Y-136.0
X149.9Y-46.0
X149.9Y-136.0
X152.44Y-46.0
X152.44Y-136.0
X154.98Y-46.0
X154.98Y-136.0
X157.52Y-46.0
X157.52Y-136.0
X160.06Y-46.0
X160.06Y-136.0
X162.6Y-46.0
X162.6Y-136.0
X165.14Y-46.0
X165.14Y-136.0
X167.68Y-46.0
X167.68Y-136.0
X170.22Y-46.0
X170.22Y-136.0
X172.76Y-46.0
X172.76Y-136.0
X175.3Y-46.0
X175.3Y-136.0
X177.84Y-46.0
X177.84Y-136.0
X180.36Y-57.6
X180.36Y-60.14
X180.36Y-62.68
X180.36Y-65.22
X180.36Y-67.76
X180.36Y-70.3
X180.36Y-72.84
X180.36Y-75.38
X180.36Y-106.6
X180.36Y-109.14
X180.36Y-111.68
X180.36Y-114.22
X180.36Y-116.76
X180.36Y-119.3
X180.36Y-121.84
X180.36Y-124.38
X180.38Y-46.0
X180.38Y-136.0
X182.9Y-57.6
X182.9Y-60.14
X182.9Y-62.68
X182.9Y-65.22
X182.9Y-67.76
X182.9Y-70.3
X182.9Y-72.84
X182.9Y-75.38
X182.9Y-106.6
X182.9Y-109.14
X182.9Y-111.68
X182.9Y-114.22
X182.9Y-116.76
X182.9Y-119.3
X182.9Y-121.84
X182.9Y-124.38
X182.92Y-46.0
X182.92Y-136.0
X185.46Y-46.0
X185.46Y-136.0
T0
M30
