G04 #@! TF.GenerationSoftware,KiCad,Pcbnew,(5.1.9)-1*
G04 #@! TF.CreationDate,2021-10-03T21:23:14-04:00*
G04 #@! TF.ProjectId,template,74656d70-6c61-4746-952e-6b696361645f,1.0*
G04 #@! TF.SameCoordinates,Original*
G04 #@! TF.FileFunction,Legend,Top*
G04 #@! TF.FilePolarity,Positive*
%FSLAX46Y46*%
G04 Gerber Fmt 4.6, Leading zero omitted, Abs format (unit mm)*
G04 Created by KiCad (PCBNEW (5.1.9)-1) date 2021-10-03 21:23:14*
%MOMM*%
%LPD*%
G01*
G04 APERTURE LIST*
%ADD10C,0.300000*%
%ADD11C,0.150000*%
%ADD12O,1.700000X1.700000*%
%ADD13R,1.700000X1.700000*%
G04 APERTURE END LIST*
D10*
X124828571Y-85961904D02*
X124828571Y-80961904D01*
X127685714Y-85961904D01*
X127685714Y-80961904D01*
X133400000Y-86438095D02*
X132923809Y-86200000D01*
X132447619Y-85723809D01*
X131733333Y-85009523D01*
X131257142Y-84771428D01*
X130780952Y-84771428D01*
X131019047Y-85961904D02*
X130542857Y-85723809D01*
X130066666Y-85247619D01*
X129828571Y-84295238D01*
X129828571Y-82628571D01*
X130066666Y-81676190D01*
X130542857Y-81200000D01*
X131019047Y-80961904D01*
X131971428Y-80961904D01*
X132447619Y-81200000D01*
X132923809Y-81676190D01*
X133161904Y-82628571D01*
X133161904Y-84295238D01*
X132923809Y-85247619D01*
X132447619Y-85723809D01*
X131971428Y-85961904D01*
X131019047Y-85961904D01*
X135066666Y-85723809D02*
X135780952Y-85961904D01*
X136971428Y-85961904D01*
X137447619Y-85723809D01*
X137685714Y-85485714D01*
X137923809Y-85009523D01*
X137923809Y-84533333D01*
X137685714Y-84057142D01*
X137447619Y-83819047D01*
X136971428Y-83580952D01*
X136019047Y-83342857D01*
X135542857Y-83104761D01*
X135304761Y-82866666D01*
X135066666Y-82390476D01*
X135066666Y-81914285D01*
X135304761Y-81438095D01*
X135542857Y-81200000D01*
X136019047Y-80961904D01*
X137209523Y-80961904D01*
X137923809Y-81200000D01*
X139828571Y-84533333D02*
X142209523Y-84533333D01*
X139352380Y-85961904D02*
X141019047Y-80961904D01*
X142685714Y-85961904D01*
X144352380Y-85961904D02*
X144352380Y-80961904D01*
X146257142Y-80961904D01*
X146733333Y-81200000D01*
X146971428Y-81438095D01*
X147209523Y-81914285D01*
X147209523Y-82628571D01*
X146971428Y-83104761D01*
X146733333Y-83342857D01*
X146257142Y-83580952D01*
X144352380Y-83580952D01*
X123995238Y-93761904D02*
X123995238Y-88761904D01*
X125661904Y-92333333D01*
X127328571Y-88761904D01*
X127328571Y-93761904D01*
X130423809Y-93761904D02*
X129947619Y-93523809D01*
X129709523Y-93285714D01*
X129471428Y-92809523D01*
X129471428Y-91380952D01*
X129709523Y-90904761D01*
X129947619Y-90666666D01*
X130423809Y-90428571D01*
X131138095Y-90428571D01*
X131614285Y-90666666D01*
X131852380Y-90904761D01*
X132090476Y-91380952D01*
X132090476Y-92809523D01*
X131852380Y-93285714D01*
X131614285Y-93523809D01*
X131138095Y-93761904D01*
X130423809Y-93761904D01*
X136376190Y-93761904D02*
X136376190Y-88761904D01*
X136376190Y-93523809D02*
X135900000Y-93761904D01*
X134947619Y-93761904D01*
X134471428Y-93523809D01*
X134233333Y-93285714D01*
X133995238Y-92809523D01*
X133995238Y-91380952D01*
X134233333Y-90904761D01*
X134471428Y-90666666D01*
X134947619Y-90428571D01*
X135900000Y-90428571D01*
X136376190Y-90666666D01*
X140900000Y-90428571D02*
X140900000Y-93761904D01*
X138757142Y-90428571D02*
X138757142Y-93047619D01*
X138995238Y-93523809D01*
X139471428Y-93761904D01*
X140185714Y-93761904D01*
X140661904Y-93523809D01*
X140900000Y-93285714D01*
X143995238Y-93761904D02*
X143519047Y-93523809D01*
X143280952Y-93047619D01*
X143280952Y-88761904D01*
X147804761Y-93523809D02*
X147328571Y-93761904D01*
X146376190Y-93761904D01*
X145900000Y-93523809D01*
X145661904Y-93047619D01*
X145661904Y-91142857D01*
X145900000Y-90666666D01*
X146376190Y-90428571D01*
X147328571Y-90428571D01*
X147804761Y-90666666D01*
X148042857Y-91142857D01*
X148042857Y-91619047D01*
X145661904Y-92095238D01*
X119590476Y-96561904D02*
X122447619Y-96561904D01*
X121019047Y-101561904D02*
X121019047Y-96561904D01*
X126019047Y-101323809D02*
X125542857Y-101561904D01*
X124590476Y-101561904D01*
X124114285Y-101323809D01*
X123876190Y-100847619D01*
X123876190Y-98942857D01*
X124114285Y-98466666D01*
X124590476Y-98228571D01*
X125542857Y-98228571D01*
X126019047Y-98466666D01*
X126257142Y-98942857D01*
X126257142Y-99419047D01*
X123876190Y-99895238D01*
X128400000Y-101561904D02*
X128400000Y-98228571D01*
X128400000Y-98704761D02*
X128638095Y-98466666D01*
X129114285Y-98228571D01*
X129828571Y-98228571D01*
X130304761Y-98466666D01*
X130542857Y-98942857D01*
X130542857Y-101561904D01*
X130542857Y-98942857D02*
X130780952Y-98466666D01*
X131257142Y-98228571D01*
X131971428Y-98228571D01*
X132447619Y-98466666D01*
X132685714Y-98942857D01*
X132685714Y-101561904D01*
X135066666Y-98228571D02*
X135066666Y-103228571D01*
X135066666Y-98466666D02*
X135542857Y-98228571D01*
X136495238Y-98228571D01*
X136971428Y-98466666D01*
X137209523Y-98704761D01*
X137447619Y-99180952D01*
X137447619Y-100609523D01*
X137209523Y-101085714D01*
X136971428Y-101323809D01*
X136495238Y-101561904D01*
X135542857Y-101561904D01*
X135066666Y-101323809D01*
X140304761Y-101561904D02*
X139828571Y-101323809D01*
X139590476Y-100847619D01*
X139590476Y-96561904D01*
X144352380Y-101561904D02*
X144352380Y-98942857D01*
X144114285Y-98466666D01*
X143638095Y-98228571D01*
X142685714Y-98228571D01*
X142209523Y-98466666D01*
X144352380Y-101323809D02*
X143876190Y-101561904D01*
X142685714Y-101561904D01*
X142209523Y-101323809D01*
X141971428Y-100847619D01*
X141971428Y-100371428D01*
X142209523Y-99895238D01*
X142685714Y-99657142D01*
X143876190Y-99657142D01*
X144352380Y-99419047D01*
X146019047Y-98228571D02*
X147923809Y-98228571D01*
X146733333Y-96561904D02*
X146733333Y-100847619D01*
X146971428Y-101323809D01*
X147447619Y-101561904D01*
X147923809Y-101561904D01*
X151495238Y-101323809D02*
X151019047Y-101561904D01*
X150066666Y-101561904D01*
X149590476Y-101323809D01*
X149352380Y-100847619D01*
X149352380Y-98942857D01*
X149590476Y-98466666D01*
X150066666Y-98228571D01*
X151019047Y-98228571D01*
X151495238Y-98466666D01*
X151733333Y-98942857D01*
X151733333Y-99419047D01*
X149352380Y-99895238D01*
D11*
X168247619Y-48421309D02*
X167533333Y-48421309D01*
X167390476Y-48373690D01*
X167295238Y-48278452D01*
X167247619Y-48135595D01*
X167247619Y-48040357D01*
X167771428Y-48897500D02*
X167771428Y-49230833D01*
X167247619Y-49373690D02*
X167247619Y-48897500D01*
X168247619Y-48897500D01*
X168247619Y-49373690D01*
X149542857Y-48707023D02*
X149495238Y-48659404D01*
X149447619Y-48516547D01*
X149447619Y-48421309D01*
X149495238Y-48278452D01*
X149590476Y-48183214D01*
X149685714Y-48135595D01*
X149876190Y-48087976D01*
X150019047Y-48087976D01*
X150209523Y-48135595D01*
X150304761Y-48183214D01*
X150400000Y-48278452D01*
X150447619Y-48421309D01*
X150447619Y-48516547D01*
X150400000Y-48659404D01*
X150352380Y-48707023D01*
X149447619Y-49659404D02*
X149447619Y-49087976D01*
X149447619Y-49373690D02*
X150447619Y-49373690D01*
X150304761Y-49278452D01*
X150209523Y-49183214D01*
X150161904Y-49087976D01*
X157142857Y-48707023D02*
X157095238Y-48659404D01*
X157047619Y-48516547D01*
X157047619Y-48421309D01*
X157095238Y-48278452D01*
X157190476Y-48183214D01*
X157285714Y-48135595D01*
X157476190Y-48087976D01*
X157619047Y-48087976D01*
X157809523Y-48135595D01*
X157904761Y-48183214D01*
X158000000Y-48278452D01*
X158047619Y-48421309D01*
X158047619Y-48516547D01*
X158000000Y-48659404D01*
X157952380Y-48707023D01*
X157142857Y-49707023D02*
X157095238Y-49659404D01*
X157047619Y-49516547D01*
X157047619Y-49421309D01*
X157095238Y-49278452D01*
X157190476Y-49183214D01*
X157285714Y-49135595D01*
X157476190Y-49087976D01*
X157619047Y-49087976D01*
X157809523Y-49135595D01*
X157904761Y-49183214D01*
X158000000Y-49278452D01*
X158047619Y-49421309D01*
X158047619Y-49516547D01*
X158000000Y-49659404D01*
X157952380Y-49707023D01*
X159595238Y-48087976D02*
X159547619Y-48230833D01*
X159547619Y-48468928D01*
X159595238Y-48564166D01*
X159642857Y-48611785D01*
X159738095Y-48659404D01*
X159833333Y-48659404D01*
X159928571Y-48611785D01*
X159976190Y-48564166D01*
X160023809Y-48468928D01*
X160071428Y-48278452D01*
X160119047Y-48183214D01*
X160166666Y-48135595D01*
X160261904Y-48087976D01*
X160357142Y-48087976D01*
X160452380Y-48135595D01*
X160500000Y-48183214D01*
X160547619Y-48278452D01*
X160547619Y-48516547D01*
X160500000Y-48659404D01*
X159547619Y-49087976D02*
X160547619Y-49087976D01*
X142371428Y-48468928D02*
X142371428Y-48135595D01*
X141847619Y-48135595D02*
X142847619Y-48135595D01*
X142847619Y-48611785D01*
X141942857Y-49564166D02*
X141895238Y-49516547D01*
X141847619Y-49373690D01*
X141847619Y-49278452D01*
X141895238Y-49135595D01*
X141990476Y-49040357D01*
X142085714Y-48992738D01*
X142276190Y-48945119D01*
X142419047Y-48945119D01*
X142609523Y-48992738D01*
X142704761Y-49040357D01*
X142800000Y-49135595D01*
X142847619Y-49278452D01*
X142847619Y-49373690D01*
X142800000Y-49516547D01*
X142752380Y-49564166D01*
X137271428Y-48468928D02*
X137271428Y-48135595D01*
X136747619Y-48135595D02*
X137747619Y-48135595D01*
X137747619Y-48611785D01*
X137747619Y-48849880D02*
X136747619Y-49183214D01*
X137747619Y-49516547D01*
X174942857Y-48707023D02*
X174895238Y-48659404D01*
X174847619Y-48516547D01*
X174847619Y-48421309D01*
X174895238Y-48278452D01*
X174990476Y-48183214D01*
X175085714Y-48135595D01*
X175276190Y-48087976D01*
X175419047Y-48087976D01*
X175609523Y-48135595D01*
X175704761Y-48183214D01*
X175800000Y-48278452D01*
X175847619Y-48421309D01*
X175847619Y-48516547D01*
X175800000Y-48659404D01*
X175752380Y-48707023D01*
X174847619Y-49611785D02*
X174847619Y-49135595D01*
X175847619Y-49135595D01*
X174847619Y-49945119D02*
X175847619Y-49945119D01*
X174847619Y-50516547D02*
X175419047Y-50087976D01*
X175847619Y-50516547D02*
X175276190Y-49945119D01*
X177347619Y-48611785D02*
X177347619Y-48135595D01*
X178347619Y-48135595D01*
X177347619Y-48945119D02*
X178347619Y-48945119D01*
X178347619Y-49183214D01*
X178300000Y-49326071D01*
X178204761Y-49421309D01*
X178109523Y-49468928D01*
X177919047Y-49516547D01*
X177776190Y-49516547D01*
X177585714Y-49468928D01*
X177490476Y-49421309D01*
X177395238Y-49326071D01*
X177347619Y-49183214D01*
X177347619Y-48945119D01*
X177728571Y-49945119D02*
X177728571Y-50707023D01*
X177442857Y-51754642D02*
X177395238Y-51707023D01*
X177347619Y-51564166D01*
X177347619Y-51468928D01*
X177395238Y-51326071D01*
X177490476Y-51230833D01*
X177585714Y-51183214D01*
X177776190Y-51135595D01*
X177919047Y-51135595D01*
X178109523Y-51183214D01*
X178204761Y-51230833D01*
X178300000Y-51326071D01*
X178347619Y-51468928D01*
X178347619Y-51564166D01*
X178300000Y-51707023D01*
X178252380Y-51754642D01*
X177347619Y-52659404D02*
X177347619Y-52183214D01*
X178347619Y-52183214D01*
X177347619Y-52992738D02*
X178347619Y-52992738D01*
X177347619Y-53564166D02*
X177919047Y-53135595D01*
X178347619Y-53564166D02*
X177776190Y-52992738D01*
X154642857Y-48707023D02*
X154595238Y-48659404D01*
X154547619Y-48516547D01*
X154547619Y-48421309D01*
X154595238Y-48278452D01*
X154690476Y-48183214D01*
X154785714Y-48135595D01*
X154976190Y-48087976D01*
X155119047Y-48087976D01*
X155309523Y-48135595D01*
X155404761Y-48183214D01*
X155500000Y-48278452D01*
X155547619Y-48421309D01*
X155547619Y-48516547D01*
X155500000Y-48659404D01*
X155452380Y-48707023D01*
X154595238Y-49087976D02*
X154547619Y-49230833D01*
X154547619Y-49468928D01*
X154595238Y-49564166D01*
X154642857Y-49611785D01*
X154738095Y-49659404D01*
X154833333Y-49659404D01*
X154928571Y-49611785D01*
X154976190Y-49564166D01*
X155023809Y-49468928D01*
X155071428Y-49278452D01*
X155119047Y-49183214D01*
X155166666Y-49135595D01*
X155261904Y-49087976D01*
X155357142Y-49087976D01*
X155452380Y-49135595D01*
X155500000Y-49183214D01*
X155547619Y-49278452D01*
X155547619Y-49516547D01*
X155500000Y-49659404D01*
X144771428Y-48468928D02*
X144771428Y-48135595D01*
X144247619Y-48135595D02*
X145247619Y-48135595D01*
X145247619Y-48611785D01*
X144771428Y-49326071D02*
X144723809Y-49468928D01*
X144676190Y-49516547D01*
X144580952Y-49564166D01*
X144438095Y-49564166D01*
X144342857Y-49516547D01*
X144295238Y-49468928D01*
X144247619Y-49373690D01*
X144247619Y-48992738D01*
X145247619Y-48992738D01*
X145247619Y-49326071D01*
X145200000Y-49421309D01*
X145152380Y-49468928D01*
X145057142Y-49516547D01*
X144961904Y-49516547D01*
X144866666Y-49468928D01*
X144819047Y-49421309D01*
X144771428Y-49326071D01*
X144771428Y-48992738D01*
X139771428Y-48468928D02*
X139771428Y-48135595D01*
X139247619Y-48135595D02*
X140247619Y-48135595D01*
X140247619Y-48611785D01*
X140247619Y-48897500D02*
X140247619Y-49564166D01*
X139247619Y-48897500D01*
X139247619Y-49564166D01*
X172347619Y-48135595D02*
X173347619Y-48135595D01*
X173347619Y-48516547D01*
X173300000Y-48611785D01*
X173252380Y-48659404D01*
X173157142Y-48707023D01*
X173014285Y-48707023D01*
X172919047Y-48659404D01*
X172871428Y-48611785D01*
X172823809Y-48516547D01*
X172823809Y-48135595D01*
X172347619Y-49135595D02*
X173347619Y-49135595D01*
X164647619Y-48611785D02*
X164647619Y-48135595D01*
X165647619Y-48135595D01*
X165171428Y-49278452D02*
X165171428Y-48945119D01*
X164647619Y-48945119D02*
X165647619Y-48945119D01*
X165647619Y-49421309D01*
X182447619Y-48707023D02*
X182923809Y-48373690D01*
X182447619Y-48135595D02*
X183447619Y-48135595D01*
X183447619Y-48516547D01*
X183400000Y-48611785D01*
X183352380Y-48659404D01*
X183257142Y-48707023D01*
X183114285Y-48707023D01*
X183019047Y-48659404D01*
X182971428Y-48611785D01*
X182923809Y-48516547D01*
X182923809Y-48135595D01*
X182495238Y-49087976D02*
X182447619Y-49230833D01*
X182447619Y-49468928D01*
X182495238Y-49564166D01*
X182542857Y-49611785D01*
X182638095Y-49659404D01*
X182733333Y-49659404D01*
X182828571Y-49611785D01*
X182876190Y-49564166D01*
X182923809Y-49468928D01*
X182971428Y-49278452D01*
X183019047Y-49183214D01*
X183066666Y-49135595D01*
X183161904Y-49087976D01*
X183257142Y-49087976D01*
X183352380Y-49135595D01*
X183400000Y-49183214D01*
X183447619Y-49278452D01*
X183447619Y-49516547D01*
X183400000Y-49659404D01*
X183447619Y-49945119D02*
X183447619Y-50516547D01*
X182447619Y-50230833D02*
X183447619Y-50230833D01*
X152042857Y-48707023D02*
X151995238Y-48659404D01*
X151947619Y-48516547D01*
X151947619Y-48421309D01*
X151995238Y-48278452D01*
X152090476Y-48183214D01*
X152185714Y-48135595D01*
X152376190Y-48087976D01*
X152519047Y-48087976D01*
X152709523Y-48135595D01*
X152804761Y-48183214D01*
X152900000Y-48278452D01*
X152947619Y-48421309D01*
X152947619Y-48516547D01*
X152900000Y-48659404D01*
X152852380Y-48707023D01*
X152947619Y-49326071D02*
X152947619Y-49421309D01*
X152900000Y-49516547D01*
X152852380Y-49564166D01*
X152757142Y-49611785D01*
X152566666Y-49659404D01*
X152328571Y-49659404D01*
X152138095Y-49611785D01*
X152042857Y-49564166D01*
X151995238Y-49516547D01*
X151947619Y-49421309D01*
X151947619Y-49326071D01*
X151995238Y-49230833D01*
X152042857Y-49183214D01*
X152138095Y-49135595D01*
X152328571Y-49087976D01*
X152566666Y-49087976D01*
X152757142Y-49135595D01*
X152852380Y-49183214D01*
X152900000Y-49230833D01*
X152947619Y-49326071D01*
X179947619Y-48611785D02*
X179947619Y-48135595D01*
X180947619Y-48135595D01*
X179947619Y-48945119D02*
X180947619Y-48945119D01*
X180947619Y-49183214D01*
X180900000Y-49326071D01*
X180804761Y-49421309D01*
X180709523Y-49468928D01*
X180519047Y-49516547D01*
X180376190Y-49516547D01*
X180185714Y-49468928D01*
X180090476Y-49421309D01*
X179995238Y-49326071D01*
X179947619Y-49183214D01*
X179947619Y-48945119D01*
X180328571Y-49945119D02*
X180328571Y-50707023D01*
X180233333Y-51135595D02*
X180233333Y-51611785D01*
X179947619Y-51040357D02*
X180947619Y-51373690D01*
X179947619Y-51707023D01*
X180042857Y-52611785D02*
X179995238Y-52564166D01*
X179947619Y-52421309D01*
X179947619Y-52326071D01*
X179995238Y-52183214D01*
X180090476Y-52087976D01*
X180185714Y-52040357D01*
X180376190Y-51992738D01*
X180519047Y-51992738D01*
X180709523Y-52040357D01*
X180804761Y-52087976D01*
X180900000Y-52183214D01*
X180947619Y-52326071D01*
X180947619Y-52421309D01*
X180900000Y-52564166D01*
X180852380Y-52611785D01*
X180947619Y-52897500D02*
X180947619Y-53468928D01*
X179947619Y-53183214D02*
X180947619Y-53183214D01*
X169747619Y-48135595D02*
X170747619Y-48135595D01*
X169747619Y-48707023D01*
X170747619Y-48707023D01*
X185428571Y-48135595D02*
X185428571Y-48897500D01*
X185047619Y-48516547D02*
X185809523Y-48516547D01*
X186047619Y-49849880D02*
X186047619Y-49373690D01*
X185571428Y-49326071D01*
X185619047Y-49373690D01*
X185666666Y-49468928D01*
X185666666Y-49707023D01*
X185619047Y-49802261D01*
X185571428Y-49849880D01*
X185476190Y-49897500D01*
X185238095Y-49897500D01*
X185142857Y-49849880D01*
X185095238Y-49802261D01*
X185047619Y-49707023D01*
X185047619Y-49468928D01*
X185095238Y-49373690D01*
X185142857Y-49326071D01*
X186047619Y-50183214D02*
X185047619Y-50516547D01*
X186047619Y-50849880D01*
X162195238Y-48087976D02*
X162147619Y-48230833D01*
X162147619Y-48468928D01*
X162195238Y-48564166D01*
X162242857Y-48611785D01*
X162338095Y-48659404D01*
X162433333Y-48659404D01*
X162528571Y-48611785D01*
X162576190Y-48564166D01*
X162623809Y-48468928D01*
X162671428Y-48278452D01*
X162719047Y-48183214D01*
X162766666Y-48135595D01*
X162861904Y-48087976D01*
X162957142Y-48087976D01*
X163052380Y-48135595D01*
X163100000Y-48183214D01*
X163147619Y-48278452D01*
X163147619Y-48516547D01*
X163100000Y-48659404D01*
X162671428Y-49087976D02*
X162671428Y-49421309D01*
X162147619Y-49564166D02*
X162147619Y-49087976D01*
X163147619Y-49087976D01*
X163147619Y-49564166D01*
X86900000Y-48659404D02*
X86947619Y-48564166D01*
X86947619Y-48421309D01*
X86900000Y-48278452D01*
X86804761Y-48183214D01*
X86709523Y-48135595D01*
X86519047Y-48087976D01*
X86376190Y-48087976D01*
X86185714Y-48135595D01*
X86090476Y-48183214D01*
X85995238Y-48278452D01*
X85947619Y-48421309D01*
X85947619Y-48516547D01*
X85995238Y-48659404D01*
X86042857Y-48707023D01*
X86376190Y-48707023D01*
X86376190Y-48516547D01*
X85947619Y-49135595D02*
X86947619Y-49135595D01*
X85947619Y-49707023D01*
X86947619Y-49707023D01*
X85947619Y-50183214D02*
X86947619Y-50183214D01*
X86947619Y-50421309D01*
X86900000Y-50564166D01*
X86804761Y-50659404D01*
X86709523Y-50707023D01*
X86519047Y-50754642D01*
X86376190Y-50754642D01*
X86185714Y-50707023D01*
X86090476Y-50659404D01*
X85995238Y-50564166D01*
X85947619Y-50421309D01*
X85947619Y-50183214D01*
X101247619Y-48135595D02*
X102247619Y-48135595D01*
X102247619Y-48373690D01*
X102200000Y-48516547D01*
X102104761Y-48611785D01*
X102009523Y-48659404D01*
X101819047Y-48707023D01*
X101676190Y-48707023D01*
X101485714Y-48659404D01*
X101390476Y-48611785D01*
X101295238Y-48516547D01*
X101247619Y-48373690D01*
X101247619Y-48135595D01*
X101914285Y-49564166D02*
X101247619Y-49564166D01*
X102295238Y-49326071D02*
X101580952Y-49087976D01*
X101580952Y-49707023D01*
X111347619Y-48135595D02*
X112347619Y-48135595D01*
X112347619Y-48373690D01*
X112300000Y-48516547D01*
X112204761Y-48611785D01*
X112109523Y-48659404D01*
X111919047Y-48707023D01*
X111776190Y-48707023D01*
X111585714Y-48659404D01*
X111490476Y-48611785D01*
X111395238Y-48516547D01*
X111347619Y-48373690D01*
X111347619Y-48135595D01*
X112347619Y-49326071D02*
X112347619Y-49421309D01*
X112300000Y-49516547D01*
X112252380Y-49564166D01*
X112157142Y-49611785D01*
X111966666Y-49659404D01*
X111728571Y-49659404D01*
X111538095Y-49611785D01*
X111442857Y-49564166D01*
X111395238Y-49516547D01*
X111347619Y-49421309D01*
X111347619Y-49326071D01*
X111395238Y-49230833D01*
X111442857Y-49183214D01*
X111538095Y-49135595D01*
X111728571Y-49087976D01*
X111966666Y-49087976D01*
X112157142Y-49135595D01*
X112252380Y-49183214D01*
X112300000Y-49230833D01*
X112347619Y-49326071D01*
X98647619Y-48135595D02*
X99647619Y-48135595D01*
X99647619Y-48373690D01*
X99600000Y-48516547D01*
X99504761Y-48611785D01*
X99409523Y-48659404D01*
X99219047Y-48707023D01*
X99076190Y-48707023D01*
X98885714Y-48659404D01*
X98790476Y-48611785D01*
X98695238Y-48516547D01*
X98647619Y-48373690D01*
X98647619Y-48135595D01*
X99647619Y-49611785D02*
X99647619Y-49135595D01*
X99171428Y-49087976D01*
X99219047Y-49135595D01*
X99266666Y-49230833D01*
X99266666Y-49468928D01*
X99219047Y-49564166D01*
X99171428Y-49611785D01*
X99076190Y-49659404D01*
X98838095Y-49659404D01*
X98742857Y-49611785D01*
X98695238Y-49564166D01*
X98647619Y-49468928D01*
X98647619Y-49230833D01*
X98695238Y-49135595D01*
X98742857Y-49087976D01*
X114847619Y-48040357D02*
X113847619Y-48278452D01*
X114561904Y-48468928D01*
X113847619Y-48659404D01*
X114847619Y-48897500D01*
X113847619Y-49849880D02*
X114323809Y-49516547D01*
X113847619Y-49278452D02*
X114847619Y-49278452D01*
X114847619Y-49659404D01*
X114800000Y-49754642D01*
X114752380Y-49802261D01*
X114657142Y-49849880D01*
X114514285Y-49849880D01*
X114419047Y-49802261D01*
X114371428Y-49754642D01*
X114323809Y-49659404D01*
X114323809Y-49278452D01*
X114847619Y-50183214D02*
X114847619Y-50802261D01*
X114466666Y-50468928D01*
X114466666Y-50611785D01*
X114419047Y-50707023D01*
X114371428Y-50754642D01*
X114276190Y-50802261D01*
X114038095Y-50802261D01*
X113942857Y-50754642D01*
X113895238Y-50707023D01*
X113847619Y-50611785D01*
X113847619Y-50326071D01*
X113895238Y-50230833D01*
X113942857Y-50183214D01*
X108847619Y-48135595D02*
X109847619Y-48135595D01*
X109847619Y-48373690D01*
X109800000Y-48516547D01*
X109704761Y-48611785D01*
X109609523Y-48659404D01*
X109419047Y-48707023D01*
X109276190Y-48707023D01*
X109085714Y-48659404D01*
X108990476Y-48611785D01*
X108895238Y-48516547D01*
X108847619Y-48373690D01*
X108847619Y-48135595D01*
X108847619Y-49659404D02*
X108847619Y-49087976D01*
X108847619Y-49373690D02*
X109847619Y-49373690D01*
X109704761Y-49278452D01*
X109609523Y-49183214D01*
X109561904Y-49087976D01*
X103747619Y-48135595D02*
X104747619Y-48135595D01*
X104747619Y-48373690D01*
X104700000Y-48516547D01*
X104604761Y-48611785D01*
X104509523Y-48659404D01*
X104319047Y-48707023D01*
X104176190Y-48707023D01*
X103985714Y-48659404D01*
X103890476Y-48611785D01*
X103795238Y-48516547D01*
X103747619Y-48373690D01*
X103747619Y-48135595D01*
X104747619Y-49040357D02*
X104747619Y-49659404D01*
X104366666Y-49326071D01*
X104366666Y-49468928D01*
X104319047Y-49564166D01*
X104271428Y-49611785D01*
X104176190Y-49659404D01*
X103938095Y-49659404D01*
X103842857Y-49611785D01*
X103795238Y-49564166D01*
X103747619Y-49468928D01*
X103747619Y-49183214D01*
X103795238Y-49087976D01*
X103842857Y-49040357D01*
X96147619Y-48135595D02*
X97147619Y-48135595D01*
X97147619Y-48373690D01*
X97100000Y-48516547D01*
X97004761Y-48611785D01*
X96909523Y-48659404D01*
X96719047Y-48707023D01*
X96576190Y-48707023D01*
X96385714Y-48659404D01*
X96290476Y-48611785D01*
X96195238Y-48516547D01*
X96147619Y-48373690D01*
X96147619Y-48135595D01*
X97147619Y-49564166D02*
X97147619Y-49373690D01*
X97100000Y-49278452D01*
X97052380Y-49230833D01*
X96909523Y-49135595D01*
X96719047Y-49087976D01*
X96338095Y-49087976D01*
X96242857Y-49135595D01*
X96195238Y-49183214D01*
X96147619Y-49278452D01*
X96147619Y-49468928D01*
X96195238Y-49564166D01*
X96242857Y-49611785D01*
X96338095Y-49659404D01*
X96576190Y-49659404D01*
X96671428Y-49611785D01*
X96719047Y-49564166D01*
X96766666Y-49468928D01*
X96766666Y-49278452D01*
X96719047Y-49183214D01*
X96671428Y-49135595D01*
X96576190Y-49087976D01*
X93547619Y-48135595D02*
X94547619Y-48135595D01*
X94547619Y-48373690D01*
X94500000Y-48516547D01*
X94404761Y-48611785D01*
X94309523Y-48659404D01*
X94119047Y-48707023D01*
X93976190Y-48707023D01*
X93785714Y-48659404D01*
X93690476Y-48611785D01*
X93595238Y-48516547D01*
X93547619Y-48373690D01*
X93547619Y-48135595D01*
X94547619Y-49040357D02*
X94547619Y-49707023D01*
X93547619Y-49278452D01*
X106247619Y-48135595D02*
X107247619Y-48135595D01*
X107247619Y-48373690D01*
X107200000Y-48516547D01*
X107104761Y-48611785D01*
X107009523Y-48659404D01*
X106819047Y-48707023D01*
X106676190Y-48707023D01*
X106485714Y-48659404D01*
X106390476Y-48611785D01*
X106295238Y-48516547D01*
X106247619Y-48373690D01*
X106247619Y-48135595D01*
X107152380Y-49087976D02*
X107200000Y-49135595D01*
X107247619Y-49230833D01*
X107247619Y-49468928D01*
X107200000Y-49564166D01*
X107152380Y-49611785D01*
X107057142Y-49659404D01*
X106961904Y-49659404D01*
X106819047Y-49611785D01*
X106247619Y-49040357D01*
X106247619Y-49659404D01*
X134671428Y-48468928D02*
X134671428Y-48135595D01*
X134147619Y-48135595D02*
X135147619Y-48135595D01*
X135147619Y-48611785D01*
X134147619Y-48992738D02*
X135147619Y-48992738D01*
X134147619Y-49564166D01*
X135147619Y-49564166D01*
X117447619Y-48040357D02*
X116447619Y-48278452D01*
X117161904Y-48468928D01*
X116447619Y-48659404D01*
X117447619Y-48897500D01*
X116447619Y-49849880D02*
X116923809Y-49516547D01*
X116447619Y-49278452D02*
X117447619Y-49278452D01*
X117447619Y-49659404D01*
X117400000Y-49754642D01*
X117352380Y-49802261D01*
X117257142Y-49849880D01*
X117114285Y-49849880D01*
X117019047Y-49802261D01*
X116971428Y-49754642D01*
X116923809Y-49659404D01*
X116923809Y-49278452D01*
X117352380Y-50230833D02*
X117400000Y-50278452D01*
X117447619Y-50373690D01*
X117447619Y-50611785D01*
X117400000Y-50707023D01*
X117352380Y-50754642D01*
X117257142Y-50802261D01*
X117161904Y-50802261D01*
X117019047Y-50754642D01*
X116447619Y-50183214D01*
X116447619Y-50802261D01*
X119947619Y-48040357D02*
X118947619Y-48278452D01*
X119661904Y-48468928D01*
X118947619Y-48659404D01*
X119947619Y-48897500D01*
X118947619Y-49849880D02*
X119423809Y-49516547D01*
X118947619Y-49278452D02*
X119947619Y-49278452D01*
X119947619Y-49659404D01*
X119900000Y-49754642D01*
X119852380Y-49802261D01*
X119757142Y-49849880D01*
X119614285Y-49849880D01*
X119519047Y-49802261D01*
X119471428Y-49754642D01*
X119423809Y-49659404D01*
X119423809Y-49278452D01*
X118947619Y-50802261D02*
X118947619Y-50230833D01*
X118947619Y-50516547D02*
X119947619Y-50516547D01*
X119804761Y-50421309D01*
X119709523Y-50326071D01*
X119661904Y-50230833D01*
X129147619Y-48707023D02*
X129623809Y-48373690D01*
X129147619Y-48135595D02*
X130147619Y-48135595D01*
X130147619Y-48516547D01*
X130100000Y-48611785D01*
X130052380Y-48659404D01*
X129957142Y-48707023D01*
X129814285Y-48707023D01*
X129719047Y-48659404D01*
X129671428Y-48611785D01*
X129623809Y-48516547D01*
X129623809Y-48135595D01*
X129147619Y-49707023D02*
X129623809Y-49373690D01*
X129147619Y-49135595D02*
X130147619Y-49135595D01*
X130147619Y-49516547D01*
X130100000Y-49611785D01*
X130052380Y-49659404D01*
X129957142Y-49707023D01*
X129814285Y-49707023D01*
X129719047Y-49659404D01*
X129671428Y-49611785D01*
X129623809Y-49516547D01*
X129623809Y-49135595D01*
X129147619Y-50659404D02*
X129147619Y-50087976D01*
X129147619Y-50373690D02*
X130147619Y-50373690D01*
X130004761Y-50278452D01*
X129909523Y-50183214D01*
X129861904Y-50087976D01*
X131747619Y-48707023D02*
X132223809Y-48373690D01*
X131747619Y-48135595D02*
X132747619Y-48135595D01*
X132747619Y-48516547D01*
X132700000Y-48611785D01*
X132652380Y-48659404D01*
X132557142Y-48707023D01*
X132414285Y-48707023D01*
X132319047Y-48659404D01*
X132271428Y-48611785D01*
X132223809Y-48516547D01*
X132223809Y-48135595D01*
X131747619Y-49707023D02*
X132223809Y-49373690D01*
X131747619Y-49135595D02*
X132747619Y-49135595D01*
X132747619Y-49516547D01*
X132700000Y-49611785D01*
X132652380Y-49659404D01*
X132557142Y-49707023D01*
X132414285Y-49707023D01*
X132319047Y-49659404D01*
X132271428Y-49611785D01*
X132223809Y-49516547D01*
X132223809Y-49135595D01*
X132747619Y-50326071D02*
X132747619Y-50421309D01*
X132700000Y-50516547D01*
X132652380Y-50564166D01*
X132557142Y-50611785D01*
X132366666Y-50659404D01*
X132128571Y-50659404D01*
X131938095Y-50611785D01*
X131842857Y-50564166D01*
X131795238Y-50516547D01*
X131747619Y-50421309D01*
X131747619Y-50326071D01*
X131795238Y-50230833D01*
X131842857Y-50183214D01*
X131938095Y-50135595D01*
X132128571Y-50087976D01*
X132366666Y-50087976D01*
X132557142Y-50135595D01*
X132652380Y-50183214D01*
X132700000Y-50230833D01*
X132747619Y-50326071D01*
X124047619Y-48707023D02*
X124523809Y-48373690D01*
X124047619Y-48135595D02*
X125047619Y-48135595D01*
X125047619Y-48516547D01*
X125000000Y-48611785D01*
X124952380Y-48659404D01*
X124857142Y-48707023D01*
X124714285Y-48707023D01*
X124619047Y-48659404D01*
X124571428Y-48611785D01*
X124523809Y-48516547D01*
X124523809Y-48135595D01*
X124047619Y-49707023D02*
X124523809Y-49373690D01*
X124047619Y-49135595D02*
X125047619Y-49135595D01*
X125047619Y-49516547D01*
X125000000Y-49611785D01*
X124952380Y-49659404D01*
X124857142Y-49707023D01*
X124714285Y-49707023D01*
X124619047Y-49659404D01*
X124571428Y-49611785D01*
X124523809Y-49516547D01*
X124523809Y-49135595D01*
X125047619Y-50040357D02*
X125047619Y-50659404D01*
X124666666Y-50326071D01*
X124666666Y-50468928D01*
X124619047Y-50564166D01*
X124571428Y-50611785D01*
X124476190Y-50659404D01*
X124238095Y-50659404D01*
X124142857Y-50611785D01*
X124095238Y-50564166D01*
X124047619Y-50468928D01*
X124047619Y-50183214D01*
X124095238Y-50087976D01*
X124142857Y-50040357D01*
X122547619Y-48040357D02*
X121547619Y-48278452D01*
X122261904Y-48468928D01*
X121547619Y-48659404D01*
X122547619Y-48897500D01*
X121547619Y-49849880D02*
X122023809Y-49516547D01*
X121547619Y-49278452D02*
X122547619Y-49278452D01*
X122547619Y-49659404D01*
X122500000Y-49754642D01*
X122452380Y-49802261D01*
X122357142Y-49849880D01*
X122214285Y-49849880D01*
X122119047Y-49802261D01*
X122071428Y-49754642D01*
X122023809Y-49659404D01*
X122023809Y-49278452D01*
X122547619Y-50468928D02*
X122547619Y-50564166D01*
X122500000Y-50659404D01*
X122452380Y-50707023D01*
X122357142Y-50754642D01*
X122166666Y-50802261D01*
X121928571Y-50802261D01*
X121738095Y-50754642D01*
X121642857Y-50707023D01*
X121595238Y-50659404D01*
X121547619Y-50564166D01*
X121547619Y-50468928D01*
X121595238Y-50373690D01*
X121642857Y-50326071D01*
X121738095Y-50278452D01*
X121928571Y-50230833D01*
X122166666Y-50230833D01*
X122357142Y-50278452D01*
X122452380Y-50326071D01*
X122500000Y-50373690D01*
X122547619Y-50468928D01*
X126547619Y-48707023D02*
X127023809Y-48373690D01*
X126547619Y-48135595D02*
X127547619Y-48135595D01*
X127547619Y-48516547D01*
X127500000Y-48611785D01*
X127452380Y-48659404D01*
X127357142Y-48707023D01*
X127214285Y-48707023D01*
X127119047Y-48659404D01*
X127071428Y-48611785D01*
X127023809Y-48516547D01*
X127023809Y-48135595D01*
X126547619Y-49707023D02*
X127023809Y-49373690D01*
X126547619Y-49135595D02*
X127547619Y-49135595D01*
X127547619Y-49516547D01*
X127500000Y-49611785D01*
X127452380Y-49659404D01*
X127357142Y-49707023D01*
X127214285Y-49707023D01*
X127119047Y-49659404D01*
X127071428Y-49611785D01*
X127023809Y-49516547D01*
X127023809Y-49135595D01*
X127452380Y-50087976D02*
X127500000Y-50135595D01*
X127547619Y-50230833D01*
X127547619Y-50468928D01*
X127500000Y-50564166D01*
X127452380Y-50611785D01*
X127357142Y-50659404D01*
X127261904Y-50659404D01*
X127119047Y-50611785D01*
X126547619Y-50040357D01*
X126547619Y-50659404D01*
X185571428Y-133864404D02*
X185571428Y-133102500D01*
X185952380Y-133483452D02*
X185190476Y-133483452D01*
X184952380Y-132150119D02*
X184952380Y-132626309D01*
X185428571Y-132673928D01*
X185380952Y-132626309D01*
X185333333Y-132531071D01*
X185333333Y-132292976D01*
X185380952Y-132197738D01*
X185428571Y-132150119D01*
X185523809Y-132102500D01*
X185761904Y-132102500D01*
X185857142Y-132150119D01*
X185904761Y-132197738D01*
X185952380Y-132292976D01*
X185952380Y-132531071D01*
X185904761Y-132626309D01*
X185857142Y-132673928D01*
X184952380Y-131816785D02*
X185952380Y-131483452D01*
X184952380Y-131150119D01*
X183352380Y-133292976D02*
X182876190Y-133626309D01*
X183352380Y-133864404D02*
X182352380Y-133864404D01*
X182352380Y-133483452D01*
X182400000Y-133388214D01*
X182447619Y-133340595D01*
X182542857Y-133292976D01*
X182685714Y-133292976D01*
X182780952Y-133340595D01*
X182828571Y-133388214D01*
X182876190Y-133483452D01*
X182876190Y-133864404D01*
X183304761Y-132912023D02*
X183352380Y-132769166D01*
X183352380Y-132531071D01*
X183304761Y-132435833D01*
X183257142Y-132388214D01*
X183161904Y-132340595D01*
X183066666Y-132340595D01*
X182971428Y-132388214D01*
X182923809Y-132435833D01*
X182876190Y-132531071D01*
X182828571Y-132721547D01*
X182780952Y-132816785D01*
X182733333Y-132864404D01*
X182638095Y-132912023D01*
X182542857Y-132912023D01*
X182447619Y-132864404D01*
X182400000Y-132816785D01*
X182352380Y-132721547D01*
X182352380Y-132483452D01*
X182400000Y-132340595D01*
X182352380Y-132054880D02*
X182352380Y-131483452D01*
X183352380Y-131769166D02*
X182352380Y-131769166D01*
X180852380Y-133388214D02*
X180852380Y-133864404D01*
X179852380Y-133864404D01*
X180852380Y-133054880D02*
X179852380Y-133054880D01*
X179852380Y-132816785D01*
X179900000Y-132673928D01*
X179995238Y-132578690D01*
X180090476Y-132531071D01*
X180280952Y-132483452D01*
X180423809Y-132483452D01*
X180614285Y-132531071D01*
X180709523Y-132578690D01*
X180804761Y-132673928D01*
X180852380Y-132816785D01*
X180852380Y-133054880D01*
X180471428Y-132054880D02*
X180471428Y-131292976D01*
X180566666Y-130864404D02*
X180566666Y-130388214D01*
X180852380Y-130959642D02*
X179852380Y-130626309D01*
X180852380Y-130292976D01*
X180757142Y-129388214D02*
X180804761Y-129435833D01*
X180852380Y-129578690D01*
X180852380Y-129673928D01*
X180804761Y-129816785D01*
X180709523Y-129912023D01*
X180614285Y-129959642D01*
X180423809Y-130007261D01*
X180280952Y-130007261D01*
X180090476Y-129959642D01*
X179995238Y-129912023D01*
X179900000Y-129816785D01*
X179852380Y-129673928D01*
X179852380Y-129578690D01*
X179900000Y-129435833D01*
X179947619Y-129388214D01*
X179852380Y-129102500D02*
X179852380Y-128531071D01*
X180852380Y-128816785D02*
X179852380Y-128816785D01*
X178252380Y-133388214D02*
X178252380Y-133864404D01*
X177252380Y-133864404D01*
X178252380Y-133054880D02*
X177252380Y-133054880D01*
X177252380Y-132816785D01*
X177300000Y-132673928D01*
X177395238Y-132578690D01*
X177490476Y-132531071D01*
X177680952Y-132483452D01*
X177823809Y-132483452D01*
X178014285Y-132531071D01*
X178109523Y-132578690D01*
X178204761Y-132673928D01*
X178252380Y-132816785D01*
X178252380Y-133054880D01*
X177871428Y-132054880D02*
X177871428Y-131292976D01*
X178157142Y-130245357D02*
X178204761Y-130292976D01*
X178252380Y-130435833D01*
X178252380Y-130531071D01*
X178204761Y-130673928D01*
X178109523Y-130769166D01*
X178014285Y-130816785D01*
X177823809Y-130864404D01*
X177680952Y-130864404D01*
X177490476Y-130816785D01*
X177395238Y-130769166D01*
X177300000Y-130673928D01*
X177252380Y-130531071D01*
X177252380Y-130435833D01*
X177300000Y-130292976D01*
X177347619Y-130245357D01*
X178252380Y-129340595D02*
X178252380Y-129816785D01*
X177252380Y-129816785D01*
X178252380Y-129007261D02*
X177252380Y-129007261D01*
X178252380Y-128435833D02*
X177680952Y-128864404D01*
X177252380Y-128435833D02*
X177823809Y-129007261D01*
X175657142Y-133292976D02*
X175704761Y-133340595D01*
X175752380Y-133483452D01*
X175752380Y-133578690D01*
X175704761Y-133721547D01*
X175609523Y-133816785D01*
X175514285Y-133864404D01*
X175323809Y-133912023D01*
X175180952Y-133912023D01*
X174990476Y-133864404D01*
X174895238Y-133816785D01*
X174800000Y-133721547D01*
X174752380Y-133578690D01*
X174752380Y-133483452D01*
X174800000Y-133340595D01*
X174847619Y-133292976D01*
X175752380Y-132388214D02*
X175752380Y-132864404D01*
X174752380Y-132864404D01*
X175752380Y-132054880D02*
X174752380Y-132054880D01*
X175752380Y-131483452D02*
X175180952Y-131912023D01*
X174752380Y-131483452D02*
X175323809Y-132054880D01*
X173152380Y-133864404D02*
X172152380Y-133864404D01*
X172152380Y-133483452D01*
X172200000Y-133388214D01*
X172247619Y-133340595D01*
X172342857Y-133292976D01*
X172485714Y-133292976D01*
X172580952Y-133340595D01*
X172628571Y-133388214D01*
X172676190Y-133483452D01*
X172676190Y-133864404D01*
X173152380Y-132864404D02*
X172152380Y-132864404D01*
X170652380Y-133864404D02*
X169652380Y-133864404D01*
X170652380Y-133292976D01*
X169652380Y-133292976D01*
X167152380Y-133578690D02*
X167866666Y-133578690D01*
X168009523Y-133626309D01*
X168104761Y-133721547D01*
X168152380Y-133864404D01*
X168152380Y-133959642D01*
X167628571Y-133102500D02*
X167628571Y-132769166D01*
X168152380Y-132626309D02*
X168152380Y-133102500D01*
X167152380Y-133102500D01*
X167152380Y-132626309D01*
X165552380Y-133388214D02*
X165552380Y-133864404D01*
X164552380Y-133864404D01*
X165028571Y-132721547D02*
X165028571Y-133054880D01*
X165552380Y-133054880D02*
X164552380Y-133054880D01*
X164552380Y-132578690D01*
X163004761Y-133912023D02*
X163052380Y-133769166D01*
X163052380Y-133531071D01*
X163004761Y-133435833D01*
X162957142Y-133388214D01*
X162861904Y-133340595D01*
X162766666Y-133340595D01*
X162671428Y-133388214D01*
X162623809Y-133435833D01*
X162576190Y-133531071D01*
X162528571Y-133721547D01*
X162480952Y-133816785D01*
X162433333Y-133864404D01*
X162338095Y-133912023D01*
X162242857Y-133912023D01*
X162147619Y-133864404D01*
X162100000Y-133816785D01*
X162052380Y-133721547D01*
X162052380Y-133483452D01*
X162100000Y-133340595D01*
X162528571Y-132912023D02*
X162528571Y-132578690D01*
X163052380Y-132435833D02*
X163052380Y-132912023D01*
X162052380Y-132912023D01*
X162052380Y-132435833D01*
X160404761Y-133912023D02*
X160452380Y-133769166D01*
X160452380Y-133531071D01*
X160404761Y-133435833D01*
X160357142Y-133388214D01*
X160261904Y-133340595D01*
X160166666Y-133340595D01*
X160071428Y-133388214D01*
X160023809Y-133435833D01*
X159976190Y-133531071D01*
X159928571Y-133721547D01*
X159880952Y-133816785D01*
X159833333Y-133864404D01*
X159738095Y-133912023D01*
X159642857Y-133912023D01*
X159547619Y-133864404D01*
X159500000Y-133816785D01*
X159452380Y-133721547D01*
X159452380Y-133483452D01*
X159500000Y-133340595D01*
X160452380Y-132912023D02*
X159452380Y-132912023D01*
X157857142Y-133292976D02*
X157904761Y-133340595D01*
X157952380Y-133483452D01*
X157952380Y-133578690D01*
X157904761Y-133721547D01*
X157809523Y-133816785D01*
X157714285Y-133864404D01*
X157523809Y-133912023D01*
X157380952Y-133912023D01*
X157190476Y-133864404D01*
X157095238Y-133816785D01*
X157000000Y-133721547D01*
X156952380Y-133578690D01*
X156952380Y-133483452D01*
X157000000Y-133340595D01*
X157047619Y-133292976D01*
X157857142Y-132292976D02*
X157904761Y-132340595D01*
X157952380Y-132483452D01*
X157952380Y-132578690D01*
X157904761Y-132721547D01*
X157809523Y-132816785D01*
X157714285Y-132864404D01*
X157523809Y-132912023D01*
X157380952Y-132912023D01*
X157190476Y-132864404D01*
X157095238Y-132816785D01*
X157000000Y-132721547D01*
X156952380Y-132578690D01*
X156952380Y-132483452D01*
X157000000Y-132340595D01*
X157047619Y-132292976D01*
X155357142Y-133292976D02*
X155404761Y-133340595D01*
X155452380Y-133483452D01*
X155452380Y-133578690D01*
X155404761Y-133721547D01*
X155309523Y-133816785D01*
X155214285Y-133864404D01*
X155023809Y-133912023D01*
X154880952Y-133912023D01*
X154690476Y-133864404D01*
X154595238Y-133816785D01*
X154500000Y-133721547D01*
X154452380Y-133578690D01*
X154452380Y-133483452D01*
X154500000Y-133340595D01*
X154547619Y-133292976D01*
X155404761Y-132912023D02*
X155452380Y-132769166D01*
X155452380Y-132531071D01*
X155404761Y-132435833D01*
X155357142Y-132388214D01*
X155261904Y-132340595D01*
X155166666Y-132340595D01*
X155071428Y-132388214D01*
X155023809Y-132435833D01*
X154976190Y-132531071D01*
X154928571Y-132721547D01*
X154880952Y-132816785D01*
X154833333Y-132864404D01*
X154738095Y-132912023D01*
X154642857Y-132912023D01*
X154547619Y-132864404D01*
X154500000Y-132816785D01*
X154452380Y-132721547D01*
X154452380Y-132483452D01*
X154500000Y-132340595D01*
X152757142Y-133292976D02*
X152804761Y-133340595D01*
X152852380Y-133483452D01*
X152852380Y-133578690D01*
X152804761Y-133721547D01*
X152709523Y-133816785D01*
X152614285Y-133864404D01*
X152423809Y-133912023D01*
X152280952Y-133912023D01*
X152090476Y-133864404D01*
X151995238Y-133816785D01*
X151900000Y-133721547D01*
X151852380Y-133578690D01*
X151852380Y-133483452D01*
X151900000Y-133340595D01*
X151947619Y-133292976D01*
X151852380Y-132673928D02*
X151852380Y-132578690D01*
X151900000Y-132483452D01*
X151947619Y-132435833D01*
X152042857Y-132388214D01*
X152233333Y-132340595D01*
X152471428Y-132340595D01*
X152661904Y-132388214D01*
X152757142Y-132435833D01*
X152804761Y-132483452D01*
X152852380Y-132578690D01*
X152852380Y-132673928D01*
X152804761Y-132769166D01*
X152757142Y-132816785D01*
X152661904Y-132864404D01*
X152471428Y-132912023D01*
X152233333Y-132912023D01*
X152042857Y-132864404D01*
X151947619Y-132816785D01*
X151900000Y-132769166D01*
X151852380Y-132673928D01*
X150257142Y-133292976D02*
X150304761Y-133340595D01*
X150352380Y-133483452D01*
X150352380Y-133578690D01*
X150304761Y-133721547D01*
X150209523Y-133816785D01*
X150114285Y-133864404D01*
X149923809Y-133912023D01*
X149780952Y-133912023D01*
X149590476Y-133864404D01*
X149495238Y-133816785D01*
X149400000Y-133721547D01*
X149352380Y-133578690D01*
X149352380Y-133483452D01*
X149400000Y-133340595D01*
X149447619Y-133292976D01*
X150352380Y-132340595D02*
X150352380Y-132912023D01*
X150352380Y-132626309D02*
X149352380Y-132626309D01*
X149495238Y-132721547D01*
X149590476Y-132816785D01*
X149638095Y-132912023D01*
X144728571Y-133531071D02*
X144728571Y-133864404D01*
X145252380Y-133864404D02*
X144252380Y-133864404D01*
X144252380Y-133388214D01*
X144728571Y-132673928D02*
X144776190Y-132531071D01*
X144823809Y-132483452D01*
X144919047Y-132435833D01*
X145061904Y-132435833D01*
X145157142Y-132483452D01*
X145204761Y-132531071D01*
X145252380Y-132626309D01*
X145252380Y-133007261D01*
X144252380Y-133007261D01*
X144252380Y-132673928D01*
X144300000Y-132578690D01*
X144347619Y-132531071D01*
X144442857Y-132483452D01*
X144538095Y-132483452D01*
X144633333Y-132531071D01*
X144680952Y-132578690D01*
X144728571Y-132673928D01*
X144728571Y-133007261D01*
X142228571Y-133531071D02*
X142228571Y-133864404D01*
X142752380Y-133864404D02*
X141752380Y-133864404D01*
X141752380Y-133388214D01*
X142657142Y-132435833D02*
X142704761Y-132483452D01*
X142752380Y-132626309D01*
X142752380Y-132721547D01*
X142704761Y-132864404D01*
X142609523Y-132959642D01*
X142514285Y-133007261D01*
X142323809Y-133054880D01*
X142180952Y-133054880D01*
X141990476Y-133007261D01*
X141895238Y-132959642D01*
X141800000Y-132864404D01*
X141752380Y-132721547D01*
X141752380Y-132626309D01*
X141800000Y-132483452D01*
X141847619Y-132435833D01*
X139628571Y-133531071D02*
X139628571Y-133864404D01*
X140152380Y-133864404D02*
X139152380Y-133864404D01*
X139152380Y-133388214D01*
X139152380Y-133102500D02*
X139152380Y-132435833D01*
X140152380Y-133102500D01*
X140152380Y-132435833D01*
X137128571Y-133531071D02*
X137128571Y-133864404D01*
X137652380Y-133864404D02*
X136652380Y-133864404D01*
X136652380Y-133388214D01*
X136652380Y-133150119D02*
X137652380Y-132816785D01*
X136652380Y-132483452D01*
X134628571Y-133531071D02*
X134628571Y-133864404D01*
X135152380Y-133864404D02*
X134152380Y-133864404D01*
X134152380Y-133388214D01*
X135152380Y-133007261D02*
X134152380Y-133007261D01*
X135152380Y-132435833D01*
X134152380Y-132435833D01*
X132552380Y-133292976D02*
X132076190Y-133626309D01*
X132552380Y-133864404D02*
X131552380Y-133864404D01*
X131552380Y-133483452D01*
X131600000Y-133388214D01*
X131647619Y-133340595D01*
X131742857Y-133292976D01*
X131885714Y-133292976D01*
X131980952Y-133340595D01*
X132028571Y-133388214D01*
X132076190Y-133483452D01*
X132076190Y-133864404D01*
X132552380Y-132292976D02*
X132076190Y-132626309D01*
X132552380Y-132864404D02*
X131552380Y-132864404D01*
X131552380Y-132483452D01*
X131600000Y-132388214D01*
X131647619Y-132340595D01*
X131742857Y-132292976D01*
X131885714Y-132292976D01*
X131980952Y-132340595D01*
X132028571Y-132388214D01*
X132076190Y-132483452D01*
X132076190Y-132864404D01*
X131552380Y-131673928D02*
X131552380Y-131578690D01*
X131600000Y-131483452D01*
X131647619Y-131435833D01*
X131742857Y-131388214D01*
X131933333Y-131340595D01*
X132171428Y-131340595D01*
X132361904Y-131388214D01*
X132457142Y-131435833D01*
X132504761Y-131483452D01*
X132552380Y-131578690D01*
X132552380Y-131673928D01*
X132504761Y-131769166D01*
X132457142Y-131816785D01*
X132361904Y-131864404D01*
X132171428Y-131912023D01*
X131933333Y-131912023D01*
X131742857Y-131864404D01*
X131647619Y-131816785D01*
X131600000Y-131769166D01*
X131552380Y-131673928D01*
X130052380Y-133292976D02*
X129576190Y-133626309D01*
X130052380Y-133864404D02*
X129052380Y-133864404D01*
X129052380Y-133483452D01*
X129100000Y-133388214D01*
X129147619Y-133340595D01*
X129242857Y-133292976D01*
X129385714Y-133292976D01*
X129480952Y-133340595D01*
X129528571Y-133388214D01*
X129576190Y-133483452D01*
X129576190Y-133864404D01*
X130052380Y-132292976D02*
X129576190Y-132626309D01*
X130052380Y-132864404D02*
X129052380Y-132864404D01*
X129052380Y-132483452D01*
X129100000Y-132388214D01*
X129147619Y-132340595D01*
X129242857Y-132292976D01*
X129385714Y-132292976D01*
X129480952Y-132340595D01*
X129528571Y-132388214D01*
X129576190Y-132483452D01*
X129576190Y-132864404D01*
X130052380Y-131340595D02*
X130052380Y-131912023D01*
X130052380Y-131626309D02*
X129052380Y-131626309D01*
X129195238Y-131721547D01*
X129290476Y-131816785D01*
X129338095Y-131912023D01*
X127452380Y-133292976D02*
X126976190Y-133626309D01*
X127452380Y-133864404D02*
X126452380Y-133864404D01*
X126452380Y-133483452D01*
X126500000Y-133388214D01*
X126547619Y-133340595D01*
X126642857Y-133292976D01*
X126785714Y-133292976D01*
X126880952Y-133340595D01*
X126928571Y-133388214D01*
X126976190Y-133483452D01*
X126976190Y-133864404D01*
X127452380Y-132292976D02*
X126976190Y-132626309D01*
X127452380Y-132864404D02*
X126452380Y-132864404D01*
X126452380Y-132483452D01*
X126500000Y-132388214D01*
X126547619Y-132340595D01*
X126642857Y-132292976D01*
X126785714Y-132292976D01*
X126880952Y-132340595D01*
X126928571Y-132388214D01*
X126976190Y-132483452D01*
X126976190Y-132864404D01*
X126547619Y-131912023D02*
X126500000Y-131864404D01*
X126452380Y-131769166D01*
X126452380Y-131531071D01*
X126500000Y-131435833D01*
X126547619Y-131388214D01*
X126642857Y-131340595D01*
X126738095Y-131340595D01*
X126880952Y-131388214D01*
X127452380Y-131959642D01*
X127452380Y-131340595D01*
X124952380Y-133292976D02*
X124476190Y-133626309D01*
X124952380Y-133864404D02*
X123952380Y-133864404D01*
X123952380Y-133483452D01*
X124000000Y-133388214D01*
X124047619Y-133340595D01*
X124142857Y-133292976D01*
X124285714Y-133292976D01*
X124380952Y-133340595D01*
X124428571Y-133388214D01*
X124476190Y-133483452D01*
X124476190Y-133864404D01*
X124952380Y-132292976D02*
X124476190Y-132626309D01*
X124952380Y-132864404D02*
X123952380Y-132864404D01*
X123952380Y-132483452D01*
X124000000Y-132388214D01*
X124047619Y-132340595D01*
X124142857Y-132292976D01*
X124285714Y-132292976D01*
X124380952Y-132340595D01*
X124428571Y-132388214D01*
X124476190Y-132483452D01*
X124476190Y-132864404D01*
X123952380Y-131959642D02*
X123952380Y-131340595D01*
X124333333Y-131673928D01*
X124333333Y-131531071D01*
X124380952Y-131435833D01*
X124428571Y-131388214D01*
X124523809Y-131340595D01*
X124761904Y-131340595D01*
X124857142Y-131388214D01*
X124904761Y-131435833D01*
X124952380Y-131531071D01*
X124952380Y-131816785D01*
X124904761Y-131912023D01*
X124857142Y-131959642D01*
X121352380Y-133959642D02*
X122352380Y-133721547D01*
X121638095Y-133531071D01*
X122352380Y-133340595D01*
X121352380Y-133102500D01*
X122352380Y-132150119D02*
X121876190Y-132483452D01*
X122352380Y-132721547D02*
X121352380Y-132721547D01*
X121352380Y-132340595D01*
X121400000Y-132245357D01*
X121447619Y-132197738D01*
X121542857Y-132150119D01*
X121685714Y-132150119D01*
X121780952Y-132197738D01*
X121828571Y-132245357D01*
X121876190Y-132340595D01*
X121876190Y-132721547D01*
X121352380Y-131531071D02*
X121352380Y-131435833D01*
X121400000Y-131340595D01*
X121447619Y-131292976D01*
X121542857Y-131245357D01*
X121733333Y-131197738D01*
X121971428Y-131197738D01*
X122161904Y-131245357D01*
X122257142Y-131292976D01*
X122304761Y-131340595D01*
X122352380Y-131435833D01*
X122352380Y-131531071D01*
X122304761Y-131626309D01*
X122257142Y-131673928D01*
X122161904Y-131721547D01*
X121971428Y-131769166D01*
X121733333Y-131769166D01*
X121542857Y-131721547D01*
X121447619Y-131673928D01*
X121400000Y-131626309D01*
X121352380Y-131531071D01*
X118852380Y-133959642D02*
X119852380Y-133721547D01*
X119138095Y-133531071D01*
X119852380Y-133340595D01*
X118852380Y-133102500D01*
X119852380Y-132150119D02*
X119376190Y-132483452D01*
X119852380Y-132721547D02*
X118852380Y-132721547D01*
X118852380Y-132340595D01*
X118900000Y-132245357D01*
X118947619Y-132197738D01*
X119042857Y-132150119D01*
X119185714Y-132150119D01*
X119280952Y-132197738D01*
X119328571Y-132245357D01*
X119376190Y-132340595D01*
X119376190Y-132721547D01*
X119852380Y-131197738D02*
X119852380Y-131769166D01*
X119852380Y-131483452D02*
X118852380Y-131483452D01*
X118995238Y-131578690D01*
X119090476Y-131673928D01*
X119138095Y-131769166D01*
X116352380Y-133959642D02*
X117352380Y-133721547D01*
X116638095Y-133531071D01*
X117352380Y-133340595D01*
X116352380Y-133102500D01*
X117352380Y-132150119D02*
X116876190Y-132483452D01*
X117352380Y-132721547D02*
X116352380Y-132721547D01*
X116352380Y-132340595D01*
X116400000Y-132245357D01*
X116447619Y-132197738D01*
X116542857Y-132150119D01*
X116685714Y-132150119D01*
X116780952Y-132197738D01*
X116828571Y-132245357D01*
X116876190Y-132340595D01*
X116876190Y-132721547D01*
X116447619Y-131769166D02*
X116400000Y-131721547D01*
X116352380Y-131626309D01*
X116352380Y-131388214D01*
X116400000Y-131292976D01*
X116447619Y-131245357D01*
X116542857Y-131197738D01*
X116638095Y-131197738D01*
X116780952Y-131245357D01*
X117352380Y-131816785D01*
X117352380Y-131197738D01*
X85900000Y-133340595D02*
X85852380Y-133435833D01*
X85852380Y-133578690D01*
X85900000Y-133721547D01*
X85995238Y-133816785D01*
X86090476Y-133864404D01*
X86280952Y-133912023D01*
X86423809Y-133912023D01*
X86614285Y-133864404D01*
X86709523Y-133816785D01*
X86804761Y-133721547D01*
X86852380Y-133578690D01*
X86852380Y-133483452D01*
X86804761Y-133340595D01*
X86757142Y-133292976D01*
X86423809Y-133292976D01*
X86423809Y-133483452D01*
X86852380Y-132864404D02*
X85852380Y-132864404D01*
X86852380Y-132292976D01*
X85852380Y-132292976D01*
X86852380Y-131816785D02*
X85852380Y-131816785D01*
X85852380Y-131578690D01*
X85900000Y-131435833D01*
X85995238Y-131340595D01*
X86090476Y-131292976D01*
X86280952Y-131245357D01*
X86423809Y-131245357D01*
X86614285Y-131292976D01*
X86709523Y-131340595D01*
X86804761Y-131435833D01*
X86852380Y-131578690D01*
X86852380Y-131816785D01*
X113752380Y-133959642D02*
X114752380Y-133721547D01*
X114038095Y-133531071D01*
X114752380Y-133340595D01*
X113752380Y-133102500D01*
X114752380Y-132150119D02*
X114276190Y-132483452D01*
X114752380Y-132721547D02*
X113752380Y-132721547D01*
X113752380Y-132340595D01*
X113800000Y-132245357D01*
X113847619Y-132197738D01*
X113942857Y-132150119D01*
X114085714Y-132150119D01*
X114180952Y-132197738D01*
X114228571Y-132245357D01*
X114276190Y-132340595D01*
X114276190Y-132721547D01*
X113752380Y-131816785D02*
X113752380Y-131197738D01*
X114133333Y-131531071D01*
X114133333Y-131388214D01*
X114180952Y-131292976D01*
X114228571Y-131245357D01*
X114323809Y-131197738D01*
X114561904Y-131197738D01*
X114657142Y-131245357D01*
X114704761Y-131292976D01*
X114752380Y-131388214D01*
X114752380Y-131673928D01*
X114704761Y-131769166D01*
X114657142Y-131816785D01*
X112252380Y-133864404D02*
X111252380Y-133864404D01*
X111252380Y-133626309D01*
X111300000Y-133483452D01*
X111395238Y-133388214D01*
X111490476Y-133340595D01*
X111680952Y-133292976D01*
X111823809Y-133292976D01*
X112014285Y-133340595D01*
X112109523Y-133388214D01*
X112204761Y-133483452D01*
X112252380Y-133626309D01*
X112252380Y-133864404D01*
X111252380Y-132673928D02*
X111252380Y-132578690D01*
X111300000Y-132483452D01*
X111347619Y-132435833D01*
X111442857Y-132388214D01*
X111633333Y-132340595D01*
X111871428Y-132340595D01*
X112061904Y-132388214D01*
X112157142Y-132435833D01*
X112204761Y-132483452D01*
X112252380Y-132578690D01*
X112252380Y-132673928D01*
X112204761Y-132769166D01*
X112157142Y-132816785D01*
X112061904Y-132864404D01*
X111871428Y-132912023D01*
X111633333Y-132912023D01*
X111442857Y-132864404D01*
X111347619Y-132816785D01*
X111300000Y-132769166D01*
X111252380Y-132673928D01*
X109652380Y-133864404D02*
X108652380Y-133864404D01*
X108652380Y-133626309D01*
X108700000Y-133483452D01*
X108795238Y-133388214D01*
X108890476Y-133340595D01*
X109080952Y-133292976D01*
X109223809Y-133292976D01*
X109414285Y-133340595D01*
X109509523Y-133388214D01*
X109604761Y-133483452D01*
X109652380Y-133626309D01*
X109652380Y-133864404D01*
X109652380Y-132340595D02*
X109652380Y-132912023D01*
X109652380Y-132626309D02*
X108652380Y-132626309D01*
X108795238Y-132721547D01*
X108890476Y-132816785D01*
X108938095Y-132912023D01*
X107152380Y-133864404D02*
X106152380Y-133864404D01*
X106152380Y-133626309D01*
X106200000Y-133483452D01*
X106295238Y-133388214D01*
X106390476Y-133340595D01*
X106580952Y-133292976D01*
X106723809Y-133292976D01*
X106914285Y-133340595D01*
X107009523Y-133388214D01*
X107104761Y-133483452D01*
X107152380Y-133626309D01*
X107152380Y-133864404D01*
X106247619Y-132912023D02*
X106200000Y-132864404D01*
X106152380Y-132769166D01*
X106152380Y-132531071D01*
X106200000Y-132435833D01*
X106247619Y-132388214D01*
X106342857Y-132340595D01*
X106438095Y-132340595D01*
X106580952Y-132388214D01*
X107152380Y-132959642D01*
X107152380Y-132340595D01*
X104652380Y-133864404D02*
X103652380Y-133864404D01*
X103652380Y-133626309D01*
X103700000Y-133483452D01*
X103795238Y-133388214D01*
X103890476Y-133340595D01*
X104080952Y-133292976D01*
X104223809Y-133292976D01*
X104414285Y-133340595D01*
X104509523Y-133388214D01*
X104604761Y-133483452D01*
X104652380Y-133626309D01*
X104652380Y-133864404D01*
X103652380Y-132959642D02*
X103652380Y-132340595D01*
X104033333Y-132673928D01*
X104033333Y-132531071D01*
X104080952Y-132435833D01*
X104128571Y-132388214D01*
X104223809Y-132340595D01*
X104461904Y-132340595D01*
X104557142Y-132388214D01*
X104604761Y-132435833D01*
X104652380Y-132531071D01*
X104652380Y-132816785D01*
X104604761Y-132912023D01*
X104557142Y-132959642D01*
X102052380Y-133864404D02*
X101052380Y-133864404D01*
X101052380Y-133626309D01*
X101100000Y-133483452D01*
X101195238Y-133388214D01*
X101290476Y-133340595D01*
X101480952Y-133292976D01*
X101623809Y-133292976D01*
X101814285Y-133340595D01*
X101909523Y-133388214D01*
X102004761Y-133483452D01*
X102052380Y-133626309D01*
X102052380Y-133864404D01*
X101385714Y-132435833D02*
X102052380Y-132435833D01*
X101004761Y-132673928D02*
X101719047Y-132912023D01*
X101719047Y-132292976D01*
X99552380Y-133864404D02*
X98552380Y-133864404D01*
X98552380Y-133626309D01*
X98600000Y-133483452D01*
X98695238Y-133388214D01*
X98790476Y-133340595D01*
X98980952Y-133292976D01*
X99123809Y-133292976D01*
X99314285Y-133340595D01*
X99409523Y-133388214D01*
X99504761Y-133483452D01*
X99552380Y-133626309D01*
X99552380Y-133864404D01*
X98552380Y-132388214D02*
X98552380Y-132864404D01*
X99028571Y-132912023D01*
X98980952Y-132864404D01*
X98933333Y-132769166D01*
X98933333Y-132531071D01*
X98980952Y-132435833D01*
X99028571Y-132388214D01*
X99123809Y-132340595D01*
X99361904Y-132340595D01*
X99457142Y-132388214D01*
X99504761Y-132435833D01*
X99552380Y-132531071D01*
X99552380Y-132769166D01*
X99504761Y-132864404D01*
X99457142Y-132912023D01*
X94452380Y-133864404D02*
X93452380Y-133864404D01*
X93452380Y-133626309D01*
X93500000Y-133483452D01*
X93595238Y-133388214D01*
X93690476Y-133340595D01*
X93880952Y-133292976D01*
X94023809Y-133292976D01*
X94214285Y-133340595D01*
X94309523Y-133388214D01*
X94404761Y-133483452D01*
X94452380Y-133626309D01*
X94452380Y-133864404D01*
X93452380Y-132959642D02*
X93452380Y-132292976D01*
X94452380Y-132721547D01*
X96952380Y-133864404D02*
X95952380Y-133864404D01*
X95952380Y-133626309D01*
X96000000Y-133483452D01*
X96095238Y-133388214D01*
X96190476Y-133340595D01*
X96380952Y-133292976D01*
X96523809Y-133292976D01*
X96714285Y-133340595D01*
X96809523Y-133388214D01*
X96904761Y-133483452D01*
X96952380Y-133626309D01*
X96952380Y-133864404D01*
X95952380Y-132435833D02*
X95952380Y-132626309D01*
X96000000Y-132721547D01*
X96047619Y-132769166D01*
X96190476Y-132864404D01*
X96380952Y-132912023D01*
X96761904Y-132912023D01*
X96857142Y-132864404D01*
X96904761Y-132816785D01*
X96952380Y-132721547D01*
X96952380Y-132531071D01*
X96904761Y-132435833D01*
X96857142Y-132388214D01*
X96761904Y-132340595D01*
X96523809Y-132340595D01*
X96428571Y-132388214D01*
X96380952Y-132435833D01*
X96333333Y-132531071D01*
X96333333Y-132721547D01*
X96380952Y-132816785D01*
X96428571Y-132864404D01*
X96523809Y-132912023D01*
%LPC*%
D12*
X180360000Y-124380000D03*
X182900000Y-124380000D03*
X180360000Y-121840000D03*
X182900000Y-121840000D03*
X180360000Y-119300000D03*
X182900000Y-119300000D03*
X180360000Y-116760000D03*
X182900000Y-116760000D03*
X180360000Y-114220000D03*
X182900000Y-114220000D03*
X180360000Y-111680000D03*
X182900000Y-111680000D03*
X180360000Y-109140000D03*
X182900000Y-109140000D03*
X180360000Y-106600000D03*
D13*
X182900000Y-106600000D03*
D12*
X180360000Y-75380000D03*
X182900000Y-75380000D03*
X180360000Y-72840000D03*
X182900000Y-72840000D03*
X180360000Y-70300000D03*
X182900000Y-70300000D03*
X180360000Y-67760000D03*
X182900000Y-67760000D03*
X180360000Y-65220000D03*
X182900000Y-65220000D03*
X180360000Y-62680000D03*
X182900000Y-62680000D03*
X180360000Y-60140000D03*
X182900000Y-60140000D03*
X180360000Y-57600000D03*
D13*
X182900000Y-57600000D03*
D12*
X88990000Y-124380000D03*
X91530000Y-124380000D03*
X88990000Y-121840000D03*
X91530000Y-121840000D03*
X88990000Y-119300000D03*
X91530000Y-119300000D03*
X88990000Y-116760000D03*
X91530000Y-116760000D03*
X88990000Y-114220000D03*
X91530000Y-114220000D03*
X88990000Y-111680000D03*
X91530000Y-111680000D03*
X88990000Y-109140000D03*
X91530000Y-109140000D03*
X88990000Y-106600000D03*
D13*
X91530000Y-106600000D03*
D12*
X88900000Y-75380000D03*
X91440000Y-75380000D03*
X88900000Y-72840000D03*
X91440000Y-72840000D03*
X88900000Y-70300000D03*
X91440000Y-70300000D03*
X88900000Y-67760000D03*
X91440000Y-67760000D03*
X88900000Y-65220000D03*
X91440000Y-65220000D03*
X88900000Y-62680000D03*
X91440000Y-62680000D03*
X88900000Y-60140000D03*
X91440000Y-60140000D03*
X88900000Y-57600000D03*
D13*
X91440000Y-57600000D03*
D12*
X185460000Y-136000000D03*
X182920000Y-136000000D03*
X180380000Y-136000000D03*
X177840000Y-136000000D03*
X175300000Y-136000000D03*
X172760000Y-136000000D03*
X170220000Y-136000000D03*
X167680000Y-136000000D03*
X165140000Y-136000000D03*
X162600000Y-136000000D03*
X160060000Y-136000000D03*
X157520000Y-136000000D03*
X154980000Y-136000000D03*
X152440000Y-136000000D03*
X149900000Y-136000000D03*
X147360000Y-136000000D03*
X144820000Y-136000000D03*
X142280000Y-136000000D03*
X139740000Y-136000000D03*
X137200000Y-136000000D03*
X134660000Y-136000000D03*
X132120000Y-136000000D03*
X129580000Y-136000000D03*
X127040000Y-136000000D03*
X124500000Y-136000000D03*
X121960000Y-136000000D03*
X119420000Y-136000000D03*
X116880000Y-136000000D03*
X114340000Y-136000000D03*
X111800000Y-136000000D03*
X109260000Y-136000000D03*
X106720000Y-136000000D03*
X104180000Y-136000000D03*
X101640000Y-136000000D03*
X99100000Y-136000000D03*
X96560000Y-136000000D03*
X94020000Y-136000000D03*
X91480000Y-136000000D03*
X88940000Y-136000000D03*
D13*
X86400000Y-136000000D03*
D12*
X185460000Y-46000000D03*
X182920000Y-46000000D03*
X180380000Y-46000000D03*
X177840000Y-46000000D03*
X175300000Y-46000000D03*
X172760000Y-46000000D03*
X170220000Y-46000000D03*
X167680000Y-46000000D03*
X165140000Y-46000000D03*
X162600000Y-46000000D03*
X160060000Y-46000000D03*
X157520000Y-46000000D03*
X154980000Y-46000000D03*
X152440000Y-46000000D03*
X149900000Y-46000000D03*
X147360000Y-46000000D03*
X144820000Y-46000000D03*
X142280000Y-46000000D03*
X139740000Y-46000000D03*
X137200000Y-46000000D03*
X134660000Y-46000000D03*
X132120000Y-46000000D03*
X129580000Y-46000000D03*
X127040000Y-46000000D03*
X124500000Y-46000000D03*
X121960000Y-46000000D03*
X119420000Y-46000000D03*
X116880000Y-46000000D03*
X114340000Y-46000000D03*
X111800000Y-46000000D03*
X109260000Y-46000000D03*
X106720000Y-46000000D03*
X104180000Y-46000000D03*
X101640000Y-46000000D03*
X99100000Y-46000000D03*
X96560000Y-46000000D03*
X94020000Y-46000000D03*
X91480000Y-46000000D03*
X88940000Y-46000000D03*
D13*
X86400000Y-46000000D03*
M02*
